
<svg xmlns="http://www.w3.org/2000/svg" version="1.1" xmlns:xlink="http://www.w3.org/1999/xlink" preserveAspectRatio="none" x="0px" y="0px" width="580px" height="460px" viewBox="675 210 580 460">
<defs>


<g id="Symbol_4_0_Layer0_0_FILL">
<path fill="#0081c6" stroke="none" d="
M 1801.75 495.7
L 1801.7 495.7 1801.3 495.85
Q 1801.15 495.95 1801.1 496 1801.1 496.1 1801.2 496.2
L 1801 496.3 1801.15 496.45 1801.2 496.5 1801.35 496.3 1801.45 496.2 1801.5 496.1
Q 1801.6 496.05 1801.7 495.95 1801.75 495.85 1801.85 495.8
L 1801.65 495.8 1801.75 495.7
M 1853.3 506.5
Q 1853.45 506.35 1853.25 506.05
L 1853.35 505.75 1853.25 505.35 1853.05 505.2 1852.8 505.15 1849.5 505.15 1848.75 505.15 1848.4 505.15 1848 505.1 1835.15 505 1834.75 505.15 1834.7 505.25 1834.6 505.55 1834.65 505.7
Q 1834.3 505.8 1834.2 505.95 1834.1 506.15 1834.25 506.35 1834.15 506.55 1834.3 506.7 1834.45 506.9 1834.85 506.9 1834.65 507.15 1834.8 507.4 1834.95 507.65 1835.45 507.65 1836.3 507.65 1837.2 507.65 1838.1 507.65 1839 507.6 1841.55 507.6 1844.05 507.55 1846.6 507.55 1849.15 507.5 1849.9 507.5 1850.65 507.45 1851.35 507.45 1852.1 507.45 1852.45 507.45 1852.65 507.25 1852.85 507.1 1852.75 506.8
L 1852.85 506.75
Q 1853.15 506.7 1853.3 506.5 Z"/>

<path fill="#FFFFFF" stroke="none" d="
M 1849.15 507.9
L 1849.15 507.5
Q 1846.6 507.55 1844.05 507.55 1841.55 507.6 1839 507.6 1838.75 520.8 1838.85 534.05 1839 547.25 1839.05 560.5 1839.1 573.7 1838.6 586.85 1838.6 587.7 1838.6 590 1838.65 592.25 1838.65 595.05 1838.7 597.85 1838.6 600.4 1838.6 600.75 1838.6 601.1 1838.6 601.5 1838.55 601.8
L 1838.55 603 1838.5 603.2 1838.5 603.5
Q 1838.5 603.65 1838.55 603.85 1838.55 604 1838.55 604.2
L 1838.55 604.55
Q 1838.55 605 1838.5 605.55 1838.5 606.1 1838.5 606.7 1836.4 607.05 1834.3 607.5 1832.15 607.9 1830.1 608.35 1829.05 608.55 1828 608.75
L 1824.45 609.4
Q 1823.75 609.5 1823.05 609.6
L 1820.85 610 1820.8 610 1820.3 610.1
Q 1819.05 610.3 1817.75 610.5 1816.5 610.75 1815.2 610.95
L 1814.9 611
Q 1814.75 611.05 1814.55 611.05
L 1813.9 611.15 1813.95 611.25 1813.9 611.25 1813.9 611.15
Q 1813.55 611.25 1813.2 611.3 1812.85 611.35 1812.5 611.4
L 1812.05 611.5
Q 1811.8 611.55 1811.6 611.6 1811.35 611.65 1811.1 611.7 1811.15 611.95 1811.15 612.2 1811.15 612.45 1811.15 612.65 1811.2 612.9 1811.2 613.1 1811.2 613.3 1811.2 613.45
L 1811.2 615.45
Q 1811.2 617 1811.3 618.9 1811.3 619.25 1811.3 619.6 1811.35 619.9 1811.35 620.25 1811.4 620.6 1811.45 621 1811.45 621.35 1811.5 621.75 1811.8 621.8 1812.1 621.8 1812.35 621.85 1812.65 621.9 1813 621.95 1813.4 622 1813.75 622.05 1814.15 622.1 1814.6 622.15 1815.1 622.2 1815.55 622.25 1816.05 622.3 1819 622.6 1821.9 622.8 1824.75 623 1826.95 623.25
L 1830.3 623.65
Q 1832.75 623.95 1835.7 624.3 1838.6 624.6 1840.9 624.8
L 1842.8 624.9 1843.8 624.8
Q 1843.95 624.85 1844.2 624.9 1844.45 624.95 1844.7 624.95 1845.1 624.95 1845.6 624.9 1846.15 624.85 1846.7 624.75 1851.65 623.95 1856.2 623.35 1860.8 622.7 1865.45 622.1 1870.15 621.45 1875.2 620.7 1875.5 620.65 1875.85 620.6 1876.15 620.5 1876.45 620.45 1876.8 620.35 1877.1 620.25 1877.4 620.2 1877.75 620.1 1877.75 619.55 1877.8 618.9 1877.8 618.25 1877.85 617.5 1877.85 617.35 1877.85 617.2 1877.85 617 1877.85 616.85
L 1877.85 616.3
Q 1877.85 616.15 1877.85 616 1877.85 615.9 1877.85 615.75 1877.9 614.2 1877.9 612.5 1877.95 610.85 1877.9 609.75
L 1877.85 609.45
Q 1877.55 609.45 1877.2 609.45 1876.85 609.4 1876.5 609.4
L 1875.1 609.3
Q 1874.85 609.25 1874.6 609.25
L 1873.1 609.15
Q 1870.1 608.9 1867.1 608.65 1864.1 608.35 1861.1 608.05 1859.35 607.75 1857.25 607.6 1855.2 607.45 1853.35 607.3 1852.6 607.2 1851.4 607.05 1850.25 606.85 1848.95 606.75 1848.85 605.85 1848.8 605.05 1848.75 604.25 1848.7 603.8 1848.65 601.95 1848.6 600 1848.6 598.1 1848.45 596.2
L 1848.45 596.1
Q 1848.750390625 574.0501953125 1848.95 552.05 1849.1 530 1849.15 507.9
M 1894.7 476.35
Q 1894.85 474.9 1894.85 473.1 1894.85 472.35 1894.8 471.65 1894.8 470.95 1894.75 470.25
L 1891.4 470.25
Q 1891.05 470.25 1890.75 470.25
L 1890.35 470.25
Q 1890.15 470.25 1889.95 470.3
L 1889.25 470.3
Q 1873.55 470.45 1857.85 471.05 1842.15 471.65 1826.45 471.85 1825.35 471.85 1824.35 471.9 1823.3 471.9 1822.2 471.9
L 1821.65 471.9 1821.65 472.5 1821.45 472.75
Q 1820.95 473.25 1820.5 473.75 1820.05 474.25 1819.65 474.75 1815.25 480.15 1810.65 485.3 1806.1 490.4 1801.75 495.7
L 1801.65 495.8 1801.85 495.8
Q 1801.75 495.85 1801.7 495.95 1801.6 496.05 1801.5 496.1
L 1801.45 496.2 1801.35 496.3 1801.2 496.5 1801.15 496.45 1801.1 496.5
Q 1800.55 495.85 1799.95 495.25 1799.4 494.65 1799.05 494.45
L 1798.8 494.4 1798.7 494.35
Q 1797.95 494.55 1797.8 495.8 1797.65 497.05 1797.75 498.25
L 1797.85 499.6
Q 1797.85 500.25 1797.85 501.7 1797.8 503.15 1797.9 504.5 1798.05 505.9 1798.5 506.3
L 1798.5 506.35 1798.55 506.35 1798.65 506.4 1799 506.35 1799.25 506.35
Q 1799.4 506.35 1799.6 506.35 1799.8 506.35 1799.95 506.3
L 1801.45 506.3
Q 1809.75 506.15 1818.1 505.8 1826.4 505.45 1834.7 505.25
L 1834.75 505.15 1835.15 505 1848 505.1 1848.4 505.15 1848.75 505.15 1849.1 505.1 1849.5 505.1
Q 1849.75 505.1 1849.95 505.1
L 1853.15 505.05
Q 1854.05 505.05 1854.9 505.05 1855.8 505.05 1856.7 505 1858.85 504.95 1861 504.95 1863.2 504.9 1865.35 504.85 1865.55 504.85 1865.8 504.85
L 1866.2 504.85 1866.5 504.8 1866.75 504.8
Q 1867.5 504.8 1868.2 504.8 1868.9 504.75 1869.6 504.75 1869.8 504.55 1870 504.35 1870.2 504.1 1870.4 503.9 1871.1 503.15 1871.5 502.65
L 1871.85 502.25 1871.95 502.1 1872.15 501.95 1872.35 501.75 1872.5 501.55 1873.05 501
Q 1873.35 500.7 1873.6 500.45
L 1874.05 500
Q 1878.85 495.25 1883.65 490.5 1888.5 485.75 1893 480.7 1893.65 480 1894 479.4 1894.3 478.8 1894.35 478.4
L 1894.45 478.1 1894.6 477.5 1894.7 476.35 Z"/>


</g>

<g id="Symbol_79_0_Layer0_0_FILL">
<path fill="#FFFFFF" stroke="none" d="
M 964.05 380.8
Q 950.25 379.4 950.9 393.55 951.5 407.65 959.4 428.35 967.35 449 975.3 467.35
L 981.5 482.85 984.15 492.7
Q 984.15 502.95 977.85 521.75 971.55 540.5 963.7 563.8 955.85 587.05 951.15 610.75 946.45 634.45 949.7 654.45
L 953.4 663.1
Q 956.05 669.65 961.7 675.55 967.35 681.45 977.55 681.65 983 681.5 988.7 680.95 994.4 680.4 998.75 679.9
L 1004.3 679.4 1015.1 671.7
Q 1041.4 667 1057.55 660.2 1073.7 653.35 1083.9 645.65 1094.05 637.9 1102.5 630.55 1110.05 624.1 1115.2 614.55 1120.35 605 1123.1 594.8 1125.9 584.6 1126.35 576.2 1126.85 567.8 1125.05 563.65 1121.6 555.95 1115.9 545 1110.25 534.1 1102.2 520.85 1094.1 507.6 1083.55 492.95 1074.5 480.5 1059.45 462.55 1044.35 444.65 1026.75 426.6 1009.15 408.55 992.6 395.8 976.05 383 964.05 380.8 Z"/>
</g>

<g id="Symbol_80_0_Layer0_0_FILL">
<path fill="#FFFFFF" stroke="none" d="
M 826.85 525.55
Q 826.45 517.15 823.45 499.2 820.45 481.2 814.2 461.2 808 441.15 797.95 426.65 787.9 412.2 773.4 410.8 760.05 410.4 744.7 416.65 729.35 422.95 714.9 432.4 700.5 441.85 689.8 451 679.1 460.1 675.05 465.4 667.35 475.9 661.4 494.45 655.4 512.95 651.35 533.4 647.25 553.85 645.25 570.1
L 643.75 583.85 643.4 592.4
Q 643.95 600.05 652.6 609.95 661.2 619.85 674.45 629.7 687.7 639.55 702.05 647.1 716.45 654.65 728.5 657.55 736.6 659.6 750.1 662.4 763.55 665.15 780.25 666.2 796.95 667.2 814.85 664 828.55 661.35 836.75 656.1 844.95 650.8 850 642.85 855 634.85 859.25 624 861.2 618.15 856.95 606.05 852.65 593.95 845.85 579.05 839.05 564.2 833.4 549.95 827.7 535.7 826.85 525.55
M 814 586.25
L 812.15 585.4
Q 808.6 584.1 802.4 582.15 796.2 580.2 789.9 577.35 783.65 574.5 780 570.5 776.35 566.55 777.95 561.2
L 778.1 561
Q 778.25 560.85 778.25 560.7 778.6 560.45 779 560.35 779.35 560.25 779.75 560.45 780.1 560.95 780.25 561.65 780.45 562.3 780.5 563.05 781.5 562.9 782.65 563.65 783.8 564.4 784.65 565.2
L 785.65 566.15 788.35 567.75
Q 790.4 568.9 792.5 570.3 794.65 571.75 795.6 573 797.55 573.9 799.5 574.8 801.4 575.65 803.35 576.75 804.65 577.45 805.3 578.05 805.95 578.65 806.05 579.1 810.05 580.3 813.5 581.65 816.9 583.05 819.25 584.85 819.75 585.2 820.4 585.8 821.05 586.45 820.75 587.35 819.65 588 817.65 587.55 815.7 587.05 814 586.25 Z"/>

<path fill="#0081c6" stroke="none" d="
M 812.15 585.4
L 814 586.25
Q 815.7 587.05 817.65 587.55 819.65 588 820.75 587.35 821.05 586.45 820.4 585.8 819.75 585.2 819.25 584.85 816.9 583.05 813.5 581.65 810.05 580.3 806.05 579.1 805.95 578.65 805.3 578.05 804.65 577.45 803.35 576.75 801.4 575.65 799.5 574.8 797.55 573.9 795.6 573 794.65 571.75 792.5 570.3 790.4 568.9 788.35 567.75
L 785.65 566.15 784.65 565.2
Q 783.8 564.4 782.65 563.65 781.5 562.9 780.5 563.05 780.45 562.3 780.25 561.65 780.1 560.95 779.75 560.45 779.35 560.25 779 560.35 778.6 560.45 778.25 560.7 778.25 560.85 778.1 561
L 777.95 561.2
Q 776.35 566.55 780 570.5 783.65 574.5 789.9 577.35 796.2 580.2 802.4 582.15 808.6 584.1 812.15 585.4 Z"/>
</g>

<g id="Symbol_81_0_Layer0_0_FILL">
<path fill="#FFFFFF" stroke="none" d="
M 743.05 735.4
L 745 758.35
Q 746.85 779.55 749.25 807.15 751.7 834.75 753.55 855.8
L 755.5 878.4
Q 760.55 884.95 771.65 889.25 782.75 893.55 796.75 895 810.7 896.4 824.3 894.35 837.9 892.3 847.95 886.2
L 854.1 880.95
Q 859.9 876.1 868 868.5 876.05 860.9 883.15 852.5 890.25 844.1 893.1 836.75 895.35 829.85 894.8 816.65 894.3 803.45 892.5 789.2 890.7 774.95 889.05 764.9
L 887.25 754.3
Q 879.75 740.5 860 734.5 840.25 728.5 816.25 727.95 792.25 727.35 771.95 729.85 751.65 732.3 743.05 735.4 Z"/>
</g>

<g id="Symbol_19_0_Layer0_0_FILL">
<path fill="#0081c6" stroke="none" d="
M 943.65 840.8
Q 942.6 838.75 942.2 837.35 941.45 834.6 941.05 831.85 940.7 829.05 940.15 826.35
L 939.65 824.85 939.1 824.45
Q 938.5 824.55 938.05 825.8 937.65 827 937.65 828.25 937.8 831.4 938.75 835.75 939.7 840.1 941.85 843.7 943.95 847.3 947.65 848.15 951.1 848.6 953.45 845.55 955.8 842.55 957.1 838.5 958.4 834.45 958.75 831.75 958.9 830.75 958.95 828.85 959 826.95 958.7 825.25 958.4 823.5 957.45 822.95
L 957.25 822.9
Q 957.1 822.9 957.05 822.95 956.7 823.3 956.6 823.8
L 956.45 824.5
Q 956.2 826.4 956.15 828.4 956.15 830.4 955.8 832.35 955.5 834.05 954.65 836.85 953.8 839.65 952.5 842.15 951.2 844.6 949.5 845.25 947.75 845.7 946.2 844.3 944.7 842.85 943.65 840.8 Z"/>
</g>

<g id="Symbol_82_0_Layer0_0_FILL">
<path fill="#0081c6" stroke="none" d="
M 1056.5 788.6
L 1055.9 790.9
Q 1054 796.5 1052.45 802.15 1050.9 807.8 1049.45 813.45 1048.75 815.7 1048.1 817.95 1047.45 820.25 1046.9 822.5 1046.85 821.1 1046.4 820 1045.95 818.95 1044.95 818.6 1043.65 819.1 1043.45 820.35 1043.25 821.6 1043.25 822.35 1042.9 826.7 1042.5 831.05 1042.1 835.4 1041.65 839.75
L 1041.6 840 1040.55 842.45
Q 1039.7 844.35 1039.3 846.5 1038.85 848.65 1039.8 849.65 1040.05 849.65 1040.2 849.6 1040.4 849.55 1040.55 849.5 1040.45 850.35 1040.3 851.2 1040.2 852.05 1040.05 852.95 1038.75 862.55 1037.95 872.6 1037.15 882.7 1035.5 892.15
L 1035.45 892.3
Q 1035 892.1 1034.55 891.85 1034.15 891.6 1033.7 891.3 1033.3 893.1 1032.9 894.9 1032.55 896.7 1032.15 898.55 1031.9 899.75 1032 900.7 1032.1 901.65 1032.45 902.35 1030.85 903.2 1029.25 903.95 1027.7 904.7 1026.2 905.35 1023.65 906.15 1021.1 906.85 1018.55 907.55 1015.9 908.1
L 1012.15 908.6
Q 1008.95 909.05 1006 910.1 1003.05 911.15 1003.1 913 1003.35 913.3 1003.7 913.35 1004.1 913.4 1004.5 913.3 1004.75 913.45 1005.05 913.55 1005.35 913.65 1005.6 913.7
L 1008.5 913.55 1013.1 912.6
Q 1018.5 911.2 1023.95 909.35 1029.35 907.5 1031.35 906.35 1031.9 906.05 1033.15 905.25 1034.4 904.5 1035.3 903.55
L 1035.65 903.3
Q 1035.8 903.75 1036.05 904.1 1036.3 904.45 1036.7 904.65 1036.95 904.7 1037.2 904.55 1037.45 904.35 1037.55 904.3
L 1038.1 903.1 1038.8 900.55
Q 1039.55 897.35 1040.25 893.95
L 1041.1 889.45
Q 1042.55 879.25 1043.6 868.85 1044.65 858.5 1045.5 848.1 1045.95 847.55 1045.9 846.7 1045.9 845.85 1045.9 845.3 1046.3 839.5 1047.3 834.2 1048.3 828.85 1049.75 823.8 1050.5 821.55 1051.2 819.25 1051.9 816.95 1052.65 814.65 1052.85 814.15 1053.25 813.05 1053.7 811.95 1053.9 810.7 1055.1 807.2 1056.35 803.6 1057.6 800 1058.8 796.2
L 1059.2 795.2
Q 1059.55 794.25 1059.8 793 1060 791.75 1059.75 790.75 1060.1 790.05 1060.6 788.6 1061.15 787.15 1061.2 785.7 1061.3 784.25 1060.3 783.45 1058.85 783.45 1057.9 785.15 1056.95 786.8 1056.5 788.6 Z"/>
</g>

<g id="Symbol_83_0_Layer0_0_FILL">
<path fill="#FFFFFF" stroke="none" d="
M 897.85 744.15
Q 898.9 755.3 900.6 771.3 902.25 787.25 904.1 802.35 906 817.4 907.6 825.8 909.15 832.85 914.25 844.7 919.35 856.6 925.4 869 931.45 881.45 935.9 890.1
L 940.6 899.25
Q 950.75 905.1 963.9 907.95 977.05 910.8 990.55 911 1004.1 911.2 1015.4 909.15 1026.75 907.05 1033.3 903
L 1034.7 893.55
Q 1036.1 884.75 1038.1 872.5 1040.05 860.2 1041.95 849.15 1043.8 838.1 1044.8 833
L 1048.6 817
Q 1051.55 805 1055.05 790.95 1058.6 776.9 1061.15 766.55
L 1063.8 755.35
Q 1055.1 752.4 1032.9 746.7 1010.75 741 983.55 735.75 956.35 730.45 932.55 728.85 908.75 727.2 896.7 732.35
L 897.85 744.15 Z"/>
</g>

<g id="Symbol_32_0_Layer0_0_FILL">
<path fill="#0081c6" stroke="none" d="
M 938.3 828.5
Q 938.5 831.6 939.5 835.45 940.5 839.25 942.25 842.4 943.95 845.55 946.3 846.7 950.3 848.25 953.15 845.6 956 842.95 957.6 838.15 959.2 833.4 959.35 828.65 959.4 827.55 959.25 826 959.1 824.45 958.4 824.45 958.25 824.75 958.1 825.1
L 957.95 825.6
Q 957.35 827.6 957.1 829.8 956.8 831.95 956.3 834.1 955.15 838.55 953 841.25 950.85 843.95 948.25 843.6 945.7 843.25 943.35 838.65 942.15 836.05 941.4 832.95 940.6 829.9 939.6 827.1 939 825.7 938.6 826.55 938.25 827.35 938.3 828.5 Z"/>
</g>

<g id="Symbol_20_0_Layer0_0_FILL">
<path fill="#FFFFFF" stroke="none" d="
M 923.4 167.5
Q 916.1 172.05 911.35 176.95
L 907.6 181.2 905.95 184.05 905.45 187 905.3 191.9
Q 905.3 197.7 905.6 204.45 905.9 211.2 906.25 216.1
L 906.6 221.25 909.7 221.65
Q 912.6 222.1 915.6 222.4
L 917.9 222.55 919 222.45
Q 925.6 213.05 929.15 207.95 932.7 202.85 934.35 199.75 936 196.65 936.85 193.3 937.85 189.35 938.6 182.3 939.4 175.25 939.55 169.1
L 939.45 164.2 938.9 161.8
Q 930.7 162.95 923.4 167.5 Z"/>
</g>

<g id="Symbol_21_0_Layer0_0_FILL">
<path fill="#FFFFFF" stroke="none" d="
M 849.85 162.55
L 848.25 160.3
Q 838.8 166.65 832.2 176.9 825.6 187.2 822.15 196.8 818.7 206.45 818.75 210.75 819.1 213.45 822.1 219.15 825.1 224.9 829 231.2 832.85 237.55 835.8 242.05
L 838.85 246.75 842.7 244.9
Q 846.3 243.25 849.9 241.4
L 852.7 239.85 853.9 238.95
Q 856.8 225.15 857.8 215.3 858.75 205.45 858.55 199.35 858.3 193.3 857.6 190.7 856.85 187.7 855.2 180.75 853.55 173.8 851.65 167.5
L 849.85 162.55 Z"/>
</g>

<g id="Symbol_84_0_Layer0_0_FILL">
<path fill="#0081c6" stroke="none" d="
M 1046.6 478.95
L 1044.6 476.6
Q 1043.05 474.85 1041.35 473.7 1040.3 473.75 1039.65 473.85 1039 474 1038.75 474.3 1038.6 474.15 1038.4 474.05 1038.25 473.95 1038.1 473.85 1035.9 473.7 1036.25 474.5 1036.65 475.3 1038.05 477.05 1039.15 478.6 1040.25 480.05 1041.35 481.55 1042.45 483.05 1041.95 483.55 1041.85 484.5 1041.7 485.45 1041.6 486.4 1040.7 493.7 1041.45 502.95 1042.25 512.2 1043.75 521.5 1045.25 530.75 1046.55 538 1049.3 553.35 1050.9 567.1 1052.55 580.85 1052.8 594.65 1053.05 608.45 1051.55 624 1050.75 633.2 1050.7 642.05 1050.7 650.85 1050.85 659.75 1051 668.6 1050.75 677.8 1050.5 683.2 1049.7 687.3 1048.9 691.35 1048.35 695 1047.8 698.65 1048.35 702.65 1048.05 703.35 1047.75 704.05 1047.45 704.75 1047.1 705.45
L 1045.45 708.4
Q 1044.05 710.85 1042.35 714.35 1040.6 717.85 1039.5 721.4 1038.9 722.25 1038.4 723.05 1037.95 723.9 1037.8 724.65 1038.05 724.7 1038.3 724.7 1038.55 724.65 1038.8 724.6 1038.6 726.25 1038.8 727.65 1039 729 1039.8 729.95 1039.3 730.75 1038.9 731.45 1038.55 732.2 1038.45 732.8 1039.4 732.8 1040.35 731.85 1041.25 730.9 1041.6 730.45 1044.7 727.3 1047.6 723.7 1050.55 720.15 1053.35 716.15 1053.45 716.4 1053.6 716.65 1053.7 716.9 1053.85 717.15 1052.75 719.3 1051.6 721.4 1050.45 723.5 1049.35 725.45 1048.95 726.1 1047.95 727.65 1046.95 729.15 1046.2 731 1045.4 732.85 1045.7 734.4 1048.45 734.3 1050.8 731.65 1053.15 729.05 1054.65 726.25
L 1056.3 723.05
Q 1056.45 722.75 1056.6 722.5 1056.75 722.2 1056.9 721.9 1057.05 722.1 1057.2 722.3 1057.4 722.45 1057.55 722.6 1056.55 724.95 1055.5 727.3 1054.5 729.6 1053.45 731.9 1053.1 732.6 1052.15 734.15 1051.15 735.7 1050.35 737.45 1049.6 739.2 1049.7 740.5 1049.9 740.6 1050.05 740.6 1050.25 740.65 1050.4 740.65 1050.1 741.6 1049.95 742.45 1049.85 743.35 1050 744 1051.45 743.9 1052.85 742.35 1054.25 740.85 1055.15 739.3
L 1056.1 737.65
Q 1064.85 723.35 1071.1 706.9 1077.35 690.4 1081.1 672.4 1084.35 661.8 1086.3 651.05 1088.25 640.25 1088.9 629.3 1091 606.45 1088.1 582.25 1085.15 558.05 1077.25 535.3 1069.35 512.55 1056.5 494 1054.2 490.05 1051.7 486.3 1049.25 482.55 1046.6 478.95
M 1047.15 716.8
Q 1049.35 714.35 1051.35 711.8
L 1051.45 711.95
Q 1050.85 712.8 1050.25 713.6 1049.6 714.45 1049 715.3 1048.55 715.75 1047.6 716.9 1046.65 718 1046.65 719.1 1046.8 719.15 1047.05 719.2
L 1047.35 719.2
Q 1047.45 719.2 1047.6 719.05 1047.75 718.95 1047.95 718.75
L 1048 718.85 1048.3 718.9
Q 1047.2 720.4 1046.1 721.95 1045 723.45 1043.9 724.95 1043.5 725.45 1042.45 726.65 1041.4 727.8 1040.3 729.25 1040.05 727.9 1040.25 726.4 1040.45 724.9 1040.95 723.45 1041.55 722.95 1041.95 722.45 1042.4 722 1042.65 721.75 1045 719.3 1047.15 716.8
M 1059.85 717.3
Q 1059.75 717.15 1059.7 717.05 1059.65 716.9 1059.55 716.75 1060.35 715.3 1061.1 713.75 1061.85 712.25 1062.65 710.7 1061.95 712.35 1061.25 714
L 1059.85 717.3
M 863.6 782.25
L 861.55 781.6
Q 859.8 781.05 857.8 780.85 855.85 780.65 854.9 781.5 854.8 782.9 856.4 783.9 858.05 784.85 859.1 785.3 866.75 789 876.8 791.15 886.85 793.3 897.2 794.15 907.55 794.95 916.15 794.55 921.55 794.35 926.05 793.6 930.55 792.85 934.95 791.7 939.35 790.55 944.45 789.1
L 946.45 788.7
Q 948.15 788.35 949.85 787.65 951.5 786.95 951.8 785.75 951.8 785.6 951.65 785.5
L 951.5 785.4
Q 951.35 785.25 951.15 785.15 950.95 785.05 950.7 785 950.85 784.95 951 784.9
L 951.35 784.85
Q 952.05 784.75 953.7 784.35 955.35 783.95 956.2 783.1 956.2 782.8 955.95 782.7 955.75 782.6 955.6 782.6
L 955.25 782.55
Q 954.9 782.55 954.45 782.6 954.05 782.5 953.6 782.55 953.15 782.6 952.9 782.6 944.55 782.6 936.2 783.5 927.9 784.4 919.55 785.05 911.25 785.7 902.95 784.85
L 901.3 784.65
Q 900.05 784.5 898.95 784.65
L 898.3 785.4 898.25 785.85 898.95 786.2 900.7 786.5
Q 902.75 786.8 904.8 786.95 906.9 787.15 908.95 787.2 908.75 787.55 909.2 787.75 909.65 787.95 910.65 788.1 910.9 788.15 911.15 788.15 911.4 788.2 911.65 788.25 904 788.45 896.1 787.7 888.2 786.9 879.7 784.9 879.1 784.65 877.6 784.3 876.1 783.95 874.95 784.6 874.8 784.8 874.7 784.95 874.6 785.15 874.5 785.3 871.85 784.6 869.15 783.85 866.4 783.1 863.6 782.25
M 941.45 784.8
L 941.6 784.75 941.95 784.75 941.45 784.8
M 728.5 523.4
Q 726.9 527.05 725.5 530.8 724.05 534.55 722.8 538.5 715.2 557.05 712.05 579.05 708.9 601.1 709.9 623.95 710.85 646.8 715.6 667.95 716.45 672.35 717.5 676.75 718.55 681.1 719.8 685.4 721.45 694.9 723.85 704.25 726.3 713.6 729.35 722.05 732.4 730.5 735.9 737.3
L 736.05 737.8 736.5 738.85
Q 737.05 740.25 737.95 741.95 738.85 743.7 740.1 744.85 739.65 744.95 739.45 745.3 739.25 745.6 739.7 746.1
L 740.7 746.95 741.35 747.05
Q 741.85 746.8 741.55 745.75 741.7 745.85 741.9 745.85 742.1 745.9 742.3 745.9 742.55 745.4 742.45 744.75 742.35 744.1 742.05 743.5 742.15 743.45 742.2 743.35 742.25 743.25 742.3 743.1
L 742.85 744.25
Q 744.5 744.65 746.1 745.05 747.7 745.5 749.4 745.55 748.8 744.45 748.25 743.35
L 747.1 741.2
Q 747.75 742.3 748.4 743.4 749.1 744.5 749.75 745.55 750.65 745.55 751.65 745.35 752.65 745.15 753.65 744.7 754.65 744.25 755.65 743.85 756.6 743.4 757.55 743.05 757.2 742.6 756.8 742.15 756.4 741.65 756.05 741.2
L 756.1 741.05
Q 756.5 741.55 756.95 742 757.35 742.5 757.8 742.95 759.05 742.5 760.35 742.15 761.6 741.75 762.9 741.5 761.3 738.8 760.05 736.95
L 757.85 733.45
Q 757.55 732.85 757.2 732.2 757.1 728.4 756.2 725.1 755.25 721.75 754.1 718.05 752.9 714.3 752 709.3 749.9 696.45 748.4 684.2 746.85 671.9 744.1 659.2 740.85 644.85 739.2 631.95 737.55 619.05 736.95 606.05 736.4 593.05 736.5 578.5 736.55 571.6 736.45 562.8 736.4 554 735.75 545.3 735.1 536.55 733.4 529.9 733.2 529 733 528.1 732.75 527.25 732.3 526.8 732.95 525.35 733.6 523.85 734.3 522.35 734.95 520.8 735.8 519.05 736 518.25 736.2 517.45 734.5 517.8 734.35 517.9 734.25 518.05 734.15 518.15 734 518.3 733.8 518.05 733.25 518 732.75 517.95 731.9 518 730.75 519.25 729.75 521.05
L 728.5 523.4 Z"/>
</g>

<g id="Symbol_85_0_Layer0_0_FILL">
<path fill="#FFFFFF" stroke="none" d="
M 898 434
Q 852.55 432.65 818.2 431.75
L 782 430.8 773.45 440.5
Q 765.3 450.15 753.8 468.35 742.35 486.6 732.05 512.5 721.8 538.35 717.2 570.95 715.5 584.25 716.3 608.5 717.1 632.75 720.6 660.85 724.15 689 730.65 713.95 737.2 738.9 747 753.55 751.55 759.7 766.9 766 782.25 772.35 804.5 777.75 826.75 783.2 851.85 786.65 876.95 790.1 901 790.6 922.9 790.8 946.35 786.8 969.8 782.9 990.95 776.65 1012.05 770.45 1027 763.8 1041.9 757.15 1046.75 751.95 1052.3 745.7 1059.1 728.7 1065.95 711.7 1071.9 687.4 1077.9 663.15 1080.85 635.05 1083.8 606.95 1081.55 578.5 1078.7 550.2 1068.9 525.3 1059.1 500.4 1047.2 481.2 1035.35 462.05 1026.25 450.85
L 1015.85 438.7 1005.1 437.8 978.25 436.65
Q 943.4 435.35 898 434 Z"/>
</g>

<g id="Symbol_25_0_Layer0_0_FILL">
<path fill="#0081c6" stroke="none" d="
M 1051.6 302.65
Q 1051.1 301.5 1049.9 301.45 1048.7 301.35 1047.4 301.75 1046.05 302.15 1045.05 302.5 1041.65 303.6 1040.45 307.2 1039.3 310.8 1039.3 315.15 1039.3 319.45 1039.35 322.7 1039.25 328.1 1039 333.2 1038.75 338.3 1039 343.75 1039.6 354.4 1039.5 364.75 1039.45 375.05 1039.05 385.7 1039 387.3 1039.05 390.35 1039.1 393.4 1039.4 396.75 1039.2 396.8 1039.05 396.85 1038.85 396.95 1038.6 397.05
L 1038.35 397.45
Q 1038.15 397.8 1037.75 398.05
L 1036.75 398.75 1036.2 399.25
Q 1035.95 399.6 1035.9 400.3 1035.55 401.2 1035.4 402.15 1035.25 403.05 1035.15 403.6 1035 404.15 1034.85 404.75 1034.65 405.35 1034.4 405.85
L 1034.25 406.35
Q 1034.1 406.7 1034 407 1032.6 406.6 1031.55 408.35 1030.55 410.1 1029.95 412.1
L 1029.3 414.3
Q 1028.7 415.3 1027.8 416 1026.9 416.7 1025.9 418.5 1024.85 420.65 1023.9 422.45 1022.9 424.25 1021.95 425.95 1022.45 424.2 1022.4 422.75 1022.3 421.25 1021.3 420.45 1020.55 421 1019.95 422.2 1019.3 423.4 1018.85 424.6 1018.45 425.75 1018.2 426.25 1017.1 428.5 1014.65 432.65 1012.25 436.8 1009.65 440.6 1007 444.45 1005.25 445.75
L 1004.55 445.85
Q 1003.9 445.95 1003.55 446.35 1003.25 446.45 1003.3 446.75
L 1003.35 447.1
Q 1003.35 447.25 1003.7 447.4
L 1004 447.65
Q 1003.6 448.7 1002.5 450 1001.45 451.3 1000.1 452.75 991.1 453.95 981.6 455.45 972.1 456.95 962.75 459.1 953.4 461.3 944.95 464.6 938.2 467.25 931.45 469.75 924.65 472.25 917.95 474.8
L 915.85 475.85
Q 914.3 476.7 913.2 477.8 913.15 478.05 913.2 478.35 913.2 478.6 913.3 478.85 913 479.05 913.05 479.35 913.15 479.6 913.4 479.9 915.9 482.6 922.7 483.95 929.5 485.35 936.7 485.8 943.9 486.3 947.6 486.4 964 486.85 978.3 481.8 992.6 476.75 1005.35 467.8 1009.2 465.65 1012.65 463.1 1016.1 460.55 1019.25 457.3 1025.05 451.85 1029.5 444.45 1033.9 437.05 1037.35 426.95 1037.55 426.6 1037.7 426.25 1037.9 425.9 1038.1 425.55 1043.35 415.6 1046.75 403.1 1050.2 390.65 1052.2 377.6 1054.2 364.6 1055.3 353 1055.45 351.85 1055.7 349.8 1055.9 347.8 1055.85 346.2 1056.1 340.75 1055.8 335.45 1055.5 330.2 1054.95 324.45 1054.75 321.3 1054.4 317.3 1054.05 313.3 1053.45 309.4 1052.8 305.5 1051.6 302.65 Z"/>
</g>

<g id="Symbol_86_0_Layer0_0_FILL">
<path fill="#0081c6" stroke="none" d="
M 980.9 222.3
L 981.3 221
Q 981.55 220.05 981.4 219.3 980.9 218.9 980.7 219.3 980.5 219.75 980.35 220.35 979.2 224.05 977.7 227.6 976.2 231.2 974.35 234.55 972.25 238.5 969.8 242.15 967.35 245.85 964.55 249.25 964.25 249.55 963.6 250.25 962.9 251 962.7 251.7
L 962.85 251.8
Q 962.5 252.1 962.3 252.4 962.05 252.75 962 253.1 962.3 253.4 962.7 253.25 963.1 253.1 963.35 252.9 965.8 251.45 968.65 248.45 971.5 245.4 974.15 242 976.75 238.6 978.35 236.15 978.5 235.95 978.8 235.5 979.1 235 979.4 234.45 979.6 234.1 979.7 233.7 979.8 233.35 979.75 233 979.3 232.75 979 233.15 978.7 233.55 978.5 233.95 978.35 234.15 978.25 234.35 978.1 234.55 977.95 234.75 978.3 233.9 978.4 233.1 978.45 232.3 978.05 231.7 977.7 231.5 977.45 231.6 977.2 231.7 977 232 978.2 229.5 979.2 227.05 980.15 224.6 980.9 222.3
M 966.6 248.5
L 966.85 248.2 966.9 248.2 966.6 248.5 Z"/>

<path fill="#FFFFFF" stroke="none" d="
M 966.85 248.2
L 966.6 248.5 966.9 248.2 966.85 248.2
M 1012.45 184.25
Q 1009.55 185.35 1007.8 188.35 1002.5 197.95 997.95 206.1 993.45 214.25 988.95 221.25 984.5 228.25 979.4 234.45 979.1 235 978.8 235.5 978.5 235.95 978.35 236.15 976.75 238.6 974.15 242 971.5 245.4 968.65 248.45 965.8 251.45 963.35 252.9 963.1 253.1 962.7 253.25 962.3 253.4 962 253.1 962.05 252.75 962.3 252.4 962.5 252.1 962.85 251.8
L 962.7 251.7
Q 962.9 251 963.6 250.25 964.25 249.55 964.55 249.25 967.35 245.85 969.8 242.15 972.25 238.5 974.35 234.55 971.45 233.45 967.2 231.7 962.95 229.95 958.2 227.85 953.5 225.75 949.2 223.55 942.25 219.6 928.3 216.3 914.3 213 894.95 214.6 875.65 216.15 852.55 227 841 232.65 834.25 237.7 827.5 242.75 823.5 247.7 819.55 252.65 816.2 258 812 264.45 806.6 275.45 801.15 286.45 796.15 299.3 791.15 312.15 788.2 324.15 784.9 338.85 785 350.1 785.05 361.3 786.4 368
L 788.15 375.95 789.35 379.6 792.45 386.35
Q 796.5 394.6 805.7 407.45 814.9 420.3 830.8 436.3 844.75 449.8 859.75 458.55 874.75 467.25 887.8 472.1 900.85 476.95 909 478.85 931 483.95 950.9 481.3 970.85 478.7 985.75 472.2 1000.65 465.75 1007.65 459.3 1022.45 445.6 1031.65 423.7 1040.85 401.8 1044.75 375.3 1048.6 348.75 1047.35 321.1 1045.55 286.9 1040.65 259.3 1035.75 231.65 1030.45 213.15 1025.1 194.65 1022.15 187.85 1020.8 184.9 1018.05 184 1015.3 183.1 1012.45 184.25 Z"/>
</g>

<g id="Symbol_27_0_Layer0_0_FILL">
<path fill="#FFFFFF" stroke="none" d="
M 789.2 341.6
Q 785.8 347.35 777.75 359.8 769.7 372.25 759.95 387.45 750.2 402.65 741.65 416.8 733.1 430.9 728.8 440
L 777.9 447.45
Q 824.55 454 885.8 462.15 947 470.25 993.15 475.85
L 1028.15 479.8 1040.8 480.45 1033 470.6
Q 1027.2 463.4 1019.85 454.8 1012.5 446.25 1006.05 439.35 999.55 432.5 996.25 430.45
L 960.45 414.6
Q 929.2 401.1 889.65 384.25 850.05 367.4 820.4 354.85
L 789.2 341.6 Z"/>
</g>

<g id="Symbol_28_0_Layer0_0_FILL">
<path fill="#0081c6" stroke="none" d="
M 840.25 295.25
Q 839.9 295.3 839.65 295.65 839.4 295.95 839.3 296.45 839.25 296.7 839.2 297.05 839.15 297.4 839.1 297.75 839.05 298.4 839.05 299.15 839.05 299.85 839.05 300.45 839.1 304.75 839.4 307.2 839.7 309.7 840.3 311.95 841.5 316.85 843.65 320.55 845.85 324.25 849.5 325.35 850.15 325.6 850.85 325.6 851.55 325.6 852 325.5 855.2 324.65 857.8 321.95 860.35 319.3 862 315.55 863.65 311.85 864.2 308
L 864.3 307.3
Q 864.4 306.75 864.4 306.1 864.6 305.1 864.55 304.3 864.5 303.45 864.15 302.9 863.7 303.05 863.5 303.6 863.35 304.15 863.3 304.4 862.1 308.55 861.1 311.75 860.15 315 858.35 317.35 856.6 319.7 852.9 321.2 850.25 322.05 847.95 319.1 845.65 316.1 844.05 311.55 842.45 306.95 841.85 303.1 841.65 302.2 841.45 301.3 841.3 300.35 841.15 299.4 841 298.1 840.8 297.1 840.55 296.15 840.25 295.25 Z"/>
</g>

<g id="Symbol_29_0_Layer0_0_FILL">
<path fill="#FFFFFF" stroke="none" d="
M 915.85 293.65
Q 914.9 283.9 909.2 276.25 903.5 268.6 890.55 266.1 877.35 264.2 869.25 269.95 861.1 275.7 856.6 284.55 852.15 293.35 849.95 300.7 858.85 301.75 870.05 303.6 881.25 305.45 893.05 307.7 904.8 309.9 915.4 312.05 916.75 303.35 915.85 293.65 Z"/>
</g>

<g id="Symbol_5_0_Layer0_0_FILL">
<path fill="#A6CE38" stroke="none" d="
M 957.25 636.4
L 900.4 636.15 928.35 847.5 957.25 636.4 Z"/>
</g>

<g id="Symbol_87_0_Layer0_0_FILL">
<path fill="#AED044" stroke="none" d="
M 1023.65 650.35
L 1023.95 650.25 1023.9 649.85
Q 1023.85 650 1023.8 650.1 1023.75 650.2 1023.65 650.35
M 1036.55 636.05
Q 1036.45 636.45 1036.3 636.85 1036.2 637.25 1036.05 637.65 1035.9 638.3 1035.75 638.95 1035.6 639.55 1035.5 640.15 1036.05 639.4 1036.5 638.6 1036.9 637.85 1037.25 637.05
L 1037.3 636.75 1036.55 636.05
M 1127.65 691.15
Q 1127.3 691.8 1127 692.45 1127.25 692 1127.55 691.5 1127.85 691 1128.1 690.55 1128.15 690.35 1128.2 690.15 1128.2 690 1128.25 689.8 1127.95 690.45 1127.65 691.15
M 1139.3 542.55
Q 1138.4 540.1 1137.45 537.7 1121.6 569 1099.25 591.9 1076.85 614.8 1042.65 634 1042.4 635.55 1041.9 637 1041.4 638.4 1040.6 639.7 1039.75 641 1038.55 642.2 1037.35 643.4 1035.65 644.45 1035.5 644.6 1035.3 644.7 1035.1 644.85 1034.95 644.95 1034.05 645.6 1033.35 646.2 1032.65 646.8 1032.1 647.45 1033.1 647.05 1034.1 646.7 1035.05 646.3 1036.05 645.9 1054.15 661.05 1073.45 673.8 1092.75 686.5 1109.45 702.75 1109.75 703.1 1110.35 703.85 1110.95 704.6 1111.75 705.6
L 1111.5 705.65
Q 1111.35 705.7 1111.2 705.75 1111.75 706.15 1112.25 706.55 1112.75 706.95 1113.2 707.35
L 1113.25 707.2
Q 1113.35 706.7 1113.5 706.3 1113.65 705.9 1113.75 705.6
L 1113.85 705.3
Q 1114.2 704.1 1114.65 702.95 1115.05 701.75 1115.55 700.6 1119.3 691.85 1124.55 683.2 1129.75 674.55 1133.95 665.6 1134.15 664.9 1134.3 664.25
L 1134.65 663.1
Q 1135.6 659.1 1136.2 657.2 1136.75 655.3 1137.55 655.25 1138.75 650.2 1139.85 645.3 1140.95 640.35 1142.75 636.15 1143.9 633.65 1144.8 630.95 1145.75 628.3 1146.5 625.5 1146.75 623.3 1146.9 621.15 1147.1 618.95 1147.2 616.8 1147.55 609.4 1148 600.55 1148.5 591.75 1148.6 582.45 1147.55 573.35 1145.65 564.5 1143.65 555.7 1141.05 547.6 1140.2 545 1139.3 542.55
M 1336.3 165
Q 1335.6 164.9 1334.9 164.7
L 1334 164.55
Q 1330.3 164.25 1326.9 164.85 1323.5 165.5 1320 166.45 1318.25 166.8 1314.1 167.85 1309.95 168.85 1308.05 170.95 1308 171.15 1308 171.3 1308 171.45 1308.1 171.6 1306.9 172.2 1305.75 172.85 1304.6 173.5 1303.6 174.05 1248.15 206 1224.25 258.6 1200.35 311.15 1189 371.1 1177.65 431 1159.95 484.95 1157.1 492.8 1154.2 500.15 1151.3 507.5 1148.4 514.35 1149.8 516.1 1151.1 518.05 1152.4 520.05 1153.65 522.2 1156.85 527.95 1159.05 533.6 1161.3 539.3 1162.1 543.25 1166.65 566.1 1166.6 593.1 1166.5 620.1 1161.5 647.25 1156.5 674.35 1146.3 697.5 1145.9 698.45 1145.45 699.35 1145.05 700.25 1144.6 701.1
L 1145.8 700.7
Q 1146.35 700.5 1146.75 700.35 1194.75 684.05 1229.65 651.2 1264.6 618.3 1273.4 571.2 1273.85 569.35 1273.9 565.25 1273.9 561.15 1271.2 558.5 1268.65 557.9 1266.15 558.65 1263.6 559.4 1261.35 560.95 1259.4 561.95 1257.6 563.25 1255.85 564.55 1254.2 566.05 1254.05 566.2 1253.8 566.45 1253.5 566.65 1253.2 566.95 1253.35 565.8 1253.55 564.7 1253.75 563.6 1254 562.55 1274.15 534.9 1287.75 502.2 1301.35 469.55 1310.35 437.8 1313.3 428.5 1318.35 414 1323.4 399.5 1327.25 383.8 1331.15 368.1 1330.45 355.15 1330.55 352.6 1330.55 350.6 1330.5 348.55 1330.45 347.25 1330.55 343.85 1329.7 340.5 1328.85 337.2 1326.55 334.8 1325.45 332.9 1323.9 331.5 1322.35 330.05 1320.35 329.5 1319.9 329.15 1319.2 328.95 1318.45 328.8 1318.15 328.8 1312.4 328.3 1307.05 330.5 1301.7 332.75 1297 336.75 1298.7 324.55 1302.65 315.2 1306.6 305.85 1313.5 294.15 1314.05 293.35 1315.05 291.35 1316.1 289.4 1316.35 287.25 1325.7 270.6 1333 250.6 1340.3 230.65 1343.5 211.15 1346.7 191.65 1343.75 176.45 1343.45 174.45 1341.75 170.7 1340 166.9 1336.3 165 Z"/>
</g>

<g id="Symbol_6_0_Layer0_0_FILL">
<path fill="#A6CE38" stroke="none" d="
M 1072.2 375.55
L 1068.15 357.75
Q 1042.15 345.2 1010.95 341.05 979.75 336.9 956.85 337.05
L 932.85 337.55 926.05 351.8
Q 919.65 365.2 912.45 380.3 905.25 395.35 902.4 401.45
L 1083.25 425.1 1079.4 407.8
Q 1075.8 391.75 1072.2 375.55 Z"/>
</g>

<g id="Symbol_7_0_Layer0_0_FILL">
<path fill="#A6CE38" stroke="none" d="
M 1001.3 267.15
Q 985.7 268.95 976.15 274.55 966.6 280.1 962.25 285.1 957.65 290.25 949.25 304.95 940.85 319.65 934.05 333.65
L 928.95 344.9 927.3 350.7
Q 928.8 356.4 938.95 362.55 949.05 368.7 963.35 373.65 977.6 378.55 991.55 380.55 1008.1 382.65 1024.7 381.35 1041.25 380.05 1053.4 375.85 1065.55 371.6 1068.75 365
L 1067.35 336.85
Q 1065.85 316.35 1059.65 296.65 1053.45 276.95 1039.5 271.65 1016.95 265.35 1001.3 267.15 Z"/>
</g>

<g id="Symbol_8_0_Layer0_0_FILL">
<path fill="#A6CE38" stroke="none" d="
M 1099.4 333.3
Q 1110.85 323.1 1118.6 311
L 1115.05 308.9 1104.95 304.7
Q 1091.55 299.45 1068.2 297.6
L 1071.15 308.1
Q 1074.2 317.9 1077.85 329.4 1081.5 340.9 1083.4 346.7
L 1099.4 333.3 Z"/>
</g>

<g id="Symbol_88_0_Layer0_0_FILL">
<path fill="#AED044" stroke="none" d="
M 837.25 160.55
Q 835.7 158.15 831.7 156.45 827.7 154.8 826 154.15 822.55 152.6 819.25 151.4 815.9 150.25 812 149.9
L 809.55 150.05
Q 805.4 151.3 802.8 154.7 800.25 158.15 799.55 160 793.3 174.55 792.5 194.25 791.7 214 795 234.9 798.25 255.75 804.35 273.7 804.15 275.85 804.75 278 805.4 280.1 805.8 281 810.4 293.65 812.5 303.5 814.55 313.4 813.75 325.65 809.75 320.95 804.75 317.85 799.75 314.75 793.75 314.35 793.45 314.3 792.65 314.35 791.9 314.35 791.35 314.65 789.2 314.85 787.3 316 785.45 317.15 783.9 318.85 781 320.85 779.45 323.95 777.95 327.1 777.3 330.5 776.95 331.75 776.5 333.75 776.1 335.75 775.65 338.2 772.2 350.9 772.85 367 773.5 383.1 775.65 398.2 777.8 413.3 778.85 423 781.4 455.75 788.45 490.15 795.5 524.6 810.35 555.2 810.4 556.25 810.35 557.4 810.35 558.5 810.25 559.65
L 809.75 559.05
Q 809.55 558.8 809.4 558.6 808.05 556.85 806.5 555.25 804.95 553.7 803.15 552.4 801.2 550.5 798.75 549.35 796.3 548.2 793.6 548.35 790.25 550.55 789.45 554.55 788.6 558.6 788.7 560.5 787.8 608.35 816.65 646.5 845.5 684.7 891.25 708.7 894.45 710.5 902.4 714.75 910.35 719 917.95 721.7 917.95 722.15 918.2 722.65 918.4 723.2 919.15 723.3 919.65 723.2 920.2 723 920.7 722.85 921.2 722.6
L 921.5 722.7 921.6 722.6 923.4 721.55
Q 924.7 720.75 926.5 719.85
L 925.95 719.65
Q 927 718.8 927.8 718.15 928.55 717.5 928.9 717.25 949.4 704 971.85 694.65 994.25 685.3 1016 673.45 1016.9 673.95 1017.85 674.5 1018.8 675.05 1019.7 675.55 1019.3 674.9 1018.75 674.15 1018.15 673.45 1017.35 672.65 1017.2 672.5 1017 672.35 1016.85 672.2 1016.7 672.05 1015.2 670.75 1014.2 669.35 1013.25 668 1012.65 666.55 1012.1 665.15 1011.9 663.65 1011.7 662.15 1011.7 660.6 983.45 638.15 966.05 614.5 948.6 590.85 938.7 561.85 928.75 532.85 922.95 494.4 916.15 438.3 917.15 377.4 918.1 316.5 904.65 260.75 891.2 205 841.2 164.35 840.25 163.6 839.2 162.8 838.2 161.95 837.05 161.15 837.2 161.05 837.25 160.9 837.3 160.75 837.25 160.55
M 1027.45 679.7
L 1027.75 679.85
Q 1027.7 679.7 1027.7 679.6 1027.65 679.45 1027.65 679.35
L 1027.45 679.7
M 1017.7 665.3
Q 1017.65 664.9 1017.65 664.45 1017.6 664.05 1017.55 663.65
L 1016.6 664.2 1016.65 664.5
Q 1016.8 665.35 1017.1 666.15 1017.35 667 1017.8 667.8 1017.8 667.25 1017.8 666.6 1017.75 665.95 1017.7 665.3 Z"/>
</g>

<g id="Symbol_70_0_Layer0_0_FILL">
<path fill="#A6CE38" stroke="none" d="
M 793 728.5
L 804.5 735.2
Q 815.8 741.55 835.15 750 854.5 758.4 879 765
L 889.25 742.3
Q 898.45 720.9 910.3 692.8 922.15 664.75 931.1 643.45
L 940.5 621 915.1 609.95 793 728.5 Z"/>
</g>

<g id="Symbol_71_0_Layer0_0_FILL">
<path fill="#A6CE38" stroke="none" d="
M 925.95 432.95
L 901.5 436.05 892.05 438.1
Q 890.05 447.45 887.05 467.8 884.05 488.2 879.4 514.8 874.75 541.4 867.8 569.4 859.4 606.95 841 646.2 822.6 685.4 781.8 721.2
L 794.4 723.05 817.75 720.6
Q 846.5 716.05 887.8 703.55 929.1 691.05 974.1 671.2 1027.05 647.2 1057.7 622.85 1088.35 598.55 1102 574.15 1115.65 549.75 1117.6 525.6 1119.75 500.15 1117.15 475.2 1114.55 450.2 1111.05 433.25
L 1106.85 415.15 1073.35 418.05
Q 1041.55 421 999.7 425.15 957.85 429.3 925.95 432.95 Z"/>
</g>

<g id="Symbol_12_0_Layer0_0_FILL">
<path fill="#0081c6" stroke="none" d="
M 1010.55 296.3
Q 1010.35 296.25 1010.25 296.3 1008.2 298.45 1010.2 304.5 1012.15 310.6 1013.75 313.3 1019.1 322.2 1022.65 320.1 1026.25 318.05 1027.85 309.45
L 1028.4 306.15
Q 1028.75 303.25 1027.55 301.85 1027.25 301.75 1026.95 301.85 1026.7 302 1026.55 302.15
L 1025.35 306.8
Q 1024.6 310.7 1024.05 312.35 1023.85 313 1023.1 314.5 1022.3 316.05 1021.4 316.75 1021.25 316.75 1021.1 316.65
L 1020.9 316.5
Q 1018.55 315.1 1016.1 308.95 1013.65 302.8 1012.75 300
L 1012.2 298.35
Q 1011.75 297.15 1010.95 296.35 1010.75 296.35 1010.55 296.3 Z"/>
</g>

<g id="Symbol_13_0_Layer0_0_FILL">
<path fill="#A6CE38" stroke="none" d="
M 1032.8 313.4
L 1032.05 308.55
Q 1031.2 304.1 1028.4 299.6 1025.6 295.15 1019.9 294.9 1013.25 295.25 1010 300.8 1006.75 306.3 1006.1 313.2
L 1032.8 313.4 Z"/>
</g>






</defs>



<g transform="matrix( 1.2952423095703125, 0.0234527587890625, -0.0238037109375, 1.2799835205078125, -1268.65,-185.9) ">
<g transform="matrix( 1, 0, 0, 1, 0,0) ">
<use xlink:href="#Symbol_4_0_Layer0_0_FILL"/>
</g>
</g>

<g transform="matrix( -0.465179443359375, -0.0211944580078125, -0.026824951171875, 0.471160888671875, 1317.3,262.55) ">
<g transform="matrix( 1, 0, 0, 1, 0,0) ">
<use xlink:href="#Symbol_79_0_Layer0_0_FILL"/>
</g>
</g>

<g transform="matrix( -0.2618560791015625, 0.3850555419921875, 0.38720703125, 0.2697906494140625, 973.75,52.65) ">
<g transform="matrix( 1, 0, 0, 1, 0,0) ">
<use xlink:href="#Symbol_80_0_Layer0_0_FILL"/>
</g>
</g>

<g transform="matrix( -0.471954345703125, -0.0028076171875, 0.1019744873046875, 0.5444793701171875, 1171.85,162.7) ">
<g transform="matrix( 1, 0, 0, 1, 0,0) ">
<use xlink:href="#Symbol_81_0_Layer0_0_FILL"/>
</g>
</g>

<g transform="matrix( -0.3668670654296875, 0.1800079345703125, 0.301483154296875, 0.3789825439453125, 960.7,145.7) ">
<g transform="matrix( 1, 0, 0, 1, 0,0) ">
<use xlink:href="#Symbol_19_0_Layer0_0_FILL"/>
</g>
</g>

<g transform="matrix( -0.471832275390625, -0.0028533935546875, -0.0388641357421875, 0.5420989990234375, 1426.2,168.55) ">
<g transform="matrix( 1, 0, 0, 1, 0,0) ">
<use xlink:href="#Symbol_82_0_Layer0_0_FILL"/>
</g>
</g>

<g transform="matrix( -0.471832275390625, -0.0028533935546875, -0.0388641357421875, 0.5420989990234375, 1426.2,168.55) ">
<g transform="matrix( 1, 0, 0, 1, 0,0) ">
<use xlink:href="#Symbol_83_0_Layer0_0_FILL"/>
</g>
</g>

<g transform="matrix( -0.471832275390625, -0.0028533935546875, -0.0388641357421875, 0.5420989990234375, 1413.5,186.55) ">
<g transform="matrix( 1, 0, 0, 1, 0,0) ">
<use xlink:href="#Symbol_32_0_Layer0_0_FILL"/>
</g>
</g>

<g transform="matrix( 0.4889984130859375, 0.1035919189453125, -0.105194091796875, 0.45703125, 504.95,167.65) ">
<g transform="matrix( 1, 0, 0, 1, 0,0) ">
<use xlink:href="#Symbol_20_0_Layer0_0_FILL"/>
</g>
</g>

<g transform="matrix( 0.423065185546875, 0.2660369873046875, -0.255950927734375, 0.3930511474609375, 596.3,47.05) ">
<g transform="matrix( 1, 0, 0, 1, 0,0) ">
<use xlink:href="#Symbol_21_0_Layer0_0_FILL"/>
</g>
</g>

<g transform="matrix( -0.45574951171875, 0.0113983154296875, 0.0125274658203125, 0.468994140625, 1303.45,213.45) ">
<g transform="matrix( 1, 0, 0, 1, 0,0) ">
<use xlink:href="#Symbol_84_0_Layer0_0_FILL"/>
</g>
</g>

<g transform="matrix( -0.45574951171875, 0.0113983154296875, 0.0125274658203125, 0.468994140625, 1303.45,213.45) ">
<g transform="matrix( 1, 0, 0, 1, 0,0) ">
<use xlink:href="#Symbol_85_0_Layer0_0_FILL"/>
</g>
</g>

<g transform="matrix( 0.496978759765625, 0.0536956787109375, -0.0586395263671875, 0.4652862548828125, 487.25,211.3) ">
<g transform="matrix( 1, 0, 0, 1, 0,0) ">
<use xlink:href="#Symbol_25_0_Layer0_0_FILL"/>
</g>
</g>

<g transform="matrix( 0.496978759765625, 0.0536956787109375, -0.0586395263671875, 0.4652862548828125, 487.25,211.3) ">
<g transform="matrix( 1, 0, 0, 1, 0,0) ">
<use xlink:href="#Symbol_86_0_Layer0_0_FILL"/>
</g>
</g>

<g transform="matrix( 0.2642974853515625, 0.00360107421875, -0.1051788330078125, 0.45068359375, 691.8,256.85) ">
<g transform="matrix( 1, 0, 0, 1, 0,0) ">
<use xlink:href="#Symbol_27_0_Layer0_0_FILL"/>
</g>
</g>

<g transform="matrix( 0.5354766845703125, -0.0788726806640625, -0.06280517578125, 0.5316162109375, 482.65,299.75) ">
<g transform="matrix( 1, 0, 0, 1, 0,0) ">
<use xlink:href="#Symbol_28_0_Layer0_0_FILL"/>
</g>
</g>

<g transform="matrix( 0.496978759765625, 0.0536956787109375, -0.0586395263671875, 0.4652862548828125, 487.15,194.85) ">
<g transform="matrix( 1, 0, 0, 1, 0,0) ">
<use xlink:href="#Symbol_29_0_Layer0_0_FILL"/>
</g>
</g>

<g transform="matrix( 0.085723876953125, 0.0012664794921875, -0.0017852783203125, 0.0835113525390625, 1073.8,390.15) ">
<g transform="matrix( 1, 0, 0, 1, 0,0) ">
<use xlink:href="#Symbol_5_0_Layer0_0_FILL"/>
</g>
</g>

<g transform="matrix( 0.0792999267578125, -0.00787353515625, 0.0108795166015625, 0.0804901123046875, 1065.55,392.7) ">
<g transform="matrix( 1, 0, 0, 1, 0,0) ">
<use xlink:href="#Symbol_87_0_Layer0_0_FILL"/>
</g>
</g>

<g transform="matrix( 0.082763671875, -0.0207977294921875, 0.0203704833984375, 0.09002685546875, 1064.85,413.1) ">
<g transform="matrix( 1, 0, 0, 1, 0,0) ">
<use xlink:href="#Symbol_6_0_Layer0_0_FILL"/>
</g>
</g>

<g transform="matrix( 0.0844879150390625, -0.027923583984375, 0.0274505615234375, 0.0862274169921875, 1060.45,421.95) ">
<g transform="matrix( 1, 0, 0, 1, 0,0) ">
<use xlink:href="#Symbol_7_0_Layer0_0_FILL"/>
</g>
</g>

<g transform="matrix( 0.086669921875, -0.033111572265625, 0.0368194580078125, 0.084259033203125, 1052.25,427.05) ">
<g transform="matrix( 1, 0, 0, 1, 0,0) ">
<use xlink:href="#Symbol_8_0_Layer0_0_FILL"/>
</g>
</g>

<g transform="matrix( 0.0764923095703125, 0.0050506591796875, -0.006561279296875, 0.0806121826171875, 1080.35,378.25) ">
<g transform="matrix( 1, 0, 0, 1, 0,0) ">
<use xlink:href="#Symbol_88_0_Layer0_0_FILL"/>
</g>
</g>

<g transform="matrix( 0.0955352783203125, 0.0394439697265625, -0.033538818359375, 0.0577545166015625, 1076.2,377.45) ">
<g transform="matrix( 1, 0, 0, 1, 0,0) ">
<use xlink:href="#Symbol_70_0_Layer0_0_FILL"/>
</g>
</g>

<g transform="matrix( 0.071044921875, 0.0028076171875, -0.003692626953125, 0.0778656005859375, 1086.05,393.3) ">
<g transform="matrix( 1, 0, 0, 1, 0,0) ">
<use xlink:href="#Symbol_71_0_Layer0_0_FILL"/>
</g>
</g>

<g transform="matrix( 0.108154296875, -0.037322998046875, 0.0411376953125, 0.105072021484375, 1030.15,425.3) ">
<g transform="matrix( 1, 0, 0, 1, 0,0) ">
<use xlink:href="#Symbol_12_0_Layer0_0_FILL"/>
</g>
</g>

<g transform="matrix( 0.0933380126953125, -0.0071868896484375, 0.0078887939453125, 0.0906982421875, 1053.6,404) ">
<g transform="matrix( 1, 0, 0, 1, 0,0) ">
<use xlink:href="#Symbol_13_0_Layer0_0_FILL"/>
</g>
</g>






</svg>
