
<svg xmlns="http://www.w3.org/2000/svg" version="1.1" xmlns:xlink="http://www.w3.org/1999/xlink" preserveAspectRatio="none" x="0px" y="0px" width="580px" height="460px" viewBox="675 210 580 460">
<defs>


<g id="Symbol_4_0_Layer0_0_FILL">
<path fill="#0075c9" stroke="none" d="
M 1801.75 495.7
L 1801.7 495.7 1801.3 495.85
Q 1801.15 495.95 1801.1 496 1801.1 496.1 1801.2 496.2
L 1801 496.3 1801.15 496.45 1801.2 496.5 1801.35 496.3 1801.45 496.2 1801.5 496.1
Q 1801.6 496.05 1801.7 495.95 1801.75 495.85 1801.85 495.8
L 1801.65 495.8 1801.75 495.7
M 1853.3 506.5
Q 1853.45 506.35 1853.25 506.05
L 1853.35 505.75 1853.25 505.35 1853.05 505.2 1852.8 505.15 1849.5 505.15 1848.75 505.15 1848.4 505.15 1848 505.1 1835.15 505 1834.75 505.15 1834.7 505.25 1834.6 505.55 1834.65 505.7
Q 1834.3 505.8 1834.2 505.95 1834.1 506.15 1834.25 506.35 1834.15 506.55 1834.3 506.7 1834.45 506.9 1834.85 506.9 1834.65 507.15 1834.8 507.4 1834.95 507.65 1835.45 507.65 1836.3 507.65 1837.2 507.65 1838.1 507.65 1839 507.6 1841.55 507.6 1844.05 507.55 1846.6 507.55 1849.15 507.5 1849.9 507.5 1850.65 507.45 1851.35 507.45 1852.1 507.45 1852.45 507.45 1852.65 507.25 1852.85 507.1 1852.75 506.8
L 1852.85 506.75
Q 1853.15 506.7 1853.3 506.5 Z"/>

<path fill="#FFFFFF" stroke="none" d="
M 1849.15 507.9
L 1849.15 507.5
Q 1846.6 507.55 1844.05 507.55 1841.55 507.6 1839 507.6 1838.75 520.8 1838.85 534.05 1839 547.25 1839.05 560.5 1839.1 573.7 1838.6 586.85 1838.6 587.7 1838.6 590 1838.65 592.25 1838.65 595.05 1838.7 597.85 1838.6 600.4 1838.6 600.75 1838.6 601.1 1838.6 601.5 1838.55 601.8
L 1838.55 603 1838.5 603.2 1838.5 603.5
Q 1838.5 603.65 1838.55 603.85 1838.55 604 1838.55 604.2
L 1838.55 604.55
Q 1838.55 605 1838.5 605.55 1838.5 606.1 1838.5 606.7 1836.4 607.05 1834.3 607.5 1832.15 607.9 1830.1 608.35 1829.05 608.55 1828 608.75
L 1824.45 609.4
Q 1823.75 609.5 1823.05 609.6
L 1820.85 610 1820.8 610 1820.3 610.1
Q 1819.05 610.3 1817.75 610.5 1816.5 610.75 1815.2 610.95
L 1814.9 611
Q 1814.75 611.05 1814.55 611.05
L 1813.9 611.15 1813.95 611.25 1813.9 611.25 1813.9 611.15
Q 1813.55 611.25 1813.2 611.3 1812.85 611.35 1812.5 611.4
L 1812.05 611.5
Q 1811.8 611.55 1811.6 611.6 1811.35 611.65 1811.1 611.7 1811.15 611.95 1811.15 612.2 1811.15 612.45 1811.15 612.65 1811.2 612.9 1811.2 613.1 1811.2 613.3 1811.2 613.45
L 1811.2 615.45
Q 1811.2 617 1811.3 618.9 1811.3 619.25 1811.3 619.6 1811.35 619.9 1811.35 620.25 1811.4 620.6 1811.45 621 1811.45 621.35 1811.5 621.75 1811.8 621.8 1812.1 621.8 1812.35 621.85 1812.65 621.9 1813 621.95 1813.4 622 1813.75 622.05 1814.15 622.1 1814.6 622.15 1815.1 622.2 1815.55 622.25 1816.05 622.3 1819 622.6 1821.9 622.8 1824.75 623 1826.95 623.25
L 1830.3 623.65
Q 1832.75 623.95 1835.7 624.3 1838.6 624.6 1840.9 624.8
L 1842.8 624.9 1843.8 624.8
Q 1843.95 624.85 1844.2 624.9 1844.45 624.95 1844.7 624.95 1845.1 624.95 1845.6 624.9 1846.15 624.85 1846.7 624.75 1851.65 623.95 1856.2 623.35 1860.8 622.7 1865.45 622.1 1870.15 621.45 1875.2 620.7 1875.5 620.65 1875.85 620.6 1876.15 620.5 1876.45 620.45 1876.8 620.35 1877.1 620.25 1877.4 620.2 1877.75 620.1 1877.75 619.55 1877.8 618.9 1877.8 618.25 1877.85 617.5 1877.85 617.35 1877.85 617.2 1877.85 617 1877.85 616.85
L 1877.85 616.3
Q 1877.85 616.15 1877.85 616 1877.85 615.9 1877.85 615.75 1877.9 614.2 1877.9 612.5 1877.95 610.85 1877.9 609.75
L 1877.85 609.45
Q 1877.55 609.45 1877.2 609.45 1876.85 609.4 1876.5 609.4
L 1875.1 609.3
Q 1874.85 609.25 1874.6 609.25
L 1873.1 609.15
Q 1870.1 608.9 1867.1 608.65 1864.1 608.35 1861.1 608.05 1859.35 607.75 1857.25 607.6 1855.2 607.45 1853.35 607.3 1852.6 607.2 1851.4 607.05 1850.25 606.85 1848.95 606.75 1848.85 605.85 1848.8 605.05 1848.75 604.25 1848.7 603.8 1848.65 601.95 1848.6 600 1848.6 598.1 1848.45 596.2
L 1848.45 596.1
Q 1848.750390625 574.0501953125 1848.95 552.05 1849.1 530 1849.15 507.9
M 1894.7 476.35
Q 1894.85 474.9 1894.85 473.1 1894.85 472.35 1894.8 471.65 1894.8 470.95 1894.75 470.25
L 1891.4 470.25
Q 1891.05 470.25 1890.75 470.25
L 1890.35 470.25
Q 1890.15 470.25 1889.95 470.3
L 1889.25 470.3
Q 1873.55 470.45 1857.85 471.05 1842.15 471.65 1826.45 471.85 1825.35 471.85 1824.35 471.9 1823.3 471.9 1822.2 471.9
L 1821.65 471.9 1821.65 472.5 1821.45 472.75
Q 1820.95 473.25 1820.5 473.75 1820.05 474.25 1819.65 474.75 1815.25 480.15 1810.65 485.3 1806.1 490.4 1801.75 495.7
L 1801.65 495.8 1801.85 495.8
Q 1801.75 495.85 1801.7 495.95 1801.6 496.05 1801.5 496.1
L 1801.45 496.2 1801.35 496.3 1801.2 496.5 1801.15 496.45 1801.1 496.5
Q 1800.55 495.85 1799.95 495.25 1799.4 494.65 1799.05 494.45
L 1798.8 494.4 1798.7 494.35
Q 1797.95 494.55 1797.8 495.8 1797.65 497.05 1797.75 498.25
L 1797.85 499.6
Q 1797.85 500.25 1797.85 501.7 1797.8 503.15 1797.9 504.5 1798.05 505.9 1798.5 506.3
L 1798.5 506.35 1798.55 506.35 1798.65 506.4 1799 506.35 1799.25 506.35
Q 1799.4 506.35 1799.6 506.35 1799.8 506.35 1799.95 506.3
L 1801.45 506.3
Q 1809.75 506.15 1818.1 505.8 1826.4 505.45 1834.7 505.25
L 1834.75 505.15 1835.15 505 1848 505.1 1848.4 505.15 1848.75 505.15 1849.1 505.1 1849.5 505.1
Q 1849.75 505.1 1849.95 505.1
L 1853.15 505.05
Q 1854.05 505.05 1854.9 505.05 1855.8 505.05 1856.7 505 1858.85 504.95 1861 504.95 1863.2 504.9 1865.35 504.85 1865.55 504.85 1865.8 504.85
L 1866.2 504.85 1866.5 504.8 1866.75 504.8
Q 1867.5 504.8 1868.2 504.8 1868.9 504.75 1869.6 504.75 1869.8 504.55 1870 504.35 1870.2 504.1 1870.4 503.9 1871.1 503.15 1871.5 502.65
L 1871.85 502.25 1871.95 502.1 1872.15 501.95 1872.35 501.75 1872.5 501.55 1873.05 501
Q 1873.35 500.7 1873.6 500.45
L 1874.05 500
Q 1878.85 495.25 1883.65 490.5 1888.5 485.75 1893 480.7 1893.65 480 1894 479.4 1894.3 478.8 1894.35 478.4
L 1894.45 478.1 1894.6 477.5 1894.7 476.35 Z"/>


</g>

<g id="Symbol_112_0_Layer0_0_FILL">
<path fill="#0075c9" stroke="none" d="
M 1072.05 483.4
Q 1072 483.25 1071.9 483.2 1071.75 483.1 1071.55 483.05 1071.35 483.05 1071.05 483.3 1070.8 483.55 1070.55 483.8
L 1070.35 484 1070.2 484.1
Q 1066.2 487.95 1062.4 491 1058.6 494.05 1054.55 496 1051.4 497.5 1048.3 498.45 1045.2 499.4 1042 500.05 1038.75 500.7 1035.05 501.35 1034 501.5 1032.75 501.7 1031.5 501.9 1030.35 502 1029.6 502.05 1029.35 502.2 1029.1 502.4 1029 502.85 1028.75 503.8 1029.8 504.2 1030.8 504.65 1032.2 504.7 1033.6 504.7 1034.5 504.55 1040.6 503.3 1045.25 502 1049.9 500.7 1053.3 499.15 1055.8 498 1057.65 496.9 1059.5 495.8 1061.05 494.6 1063.1 493.1 1064.85 491.55 1066.65 489.95 1068.2 488.35 1069.1 487.35 1069.9 486.35 1070.7 485.35 1071.5 484.45 1071.65 484.25 1071.85 484.05 1072.05 483.85 1072.1 483.75 1072.15 483.55 1072.05 483.4 Z"/>
</g>

<g id="Symbol_113_0_Layer0_0_FILL">
<path fill="#FFFFFF" stroke="none" d="
M 1953.6 1753.95
Q 1953.55 1754.5 1953.55 1754.95 1953.05 1763.05 1952.3 1770.95 1951.6 1778.85 1949.7 1786.8 1946.65 1798.7 1940.65 1809.25 1934.7 1819.85 1927.15 1829.55 1919.6 1839.25 1911.8 1848.45 1911.6 1848.7 1911.4 1848.95 1911.2 1849.25 1910.95 1849.5
L 1910.45 1850.1
Q 1910 1850.6 1909.65 1851.05 1909.2 1851.6 1908.7 1852.2 1908.2 1852.8 1907.7 1853.35 1908 1853.6 1908.4 1853.85
L 1908.85 1854.15
Q 1909.1 1854.35 1909.4 1854.55
L 1910.85 1855.6
Q 1911.55 1856.15 1912.15 1856.55 1912.4 1856.25 1912.7 1855.9
L 1913.05 1855.45
Q 1921.8 1844.55 1930.25 1833.2 1938.7 1821.85 1945.15 1809.4 1950.95 1797.7 1953.1 1785.7 1955.3 1773.7 1955.35 1760.75 1955.35 1759.1 1955.4 1757.45 1955.45 1755.75 1955.35 1754.15
L 1955.35 1753.7
Q 1955.35 1753.6 1955.1 1753.45 1954.9 1753.35 1954.6 1753.3 1954.3 1753.2 1954.05 1753.25 1953.65 1753.4 1953.6 1753.95 Z"/>
</g>

<g id="Symbol_114_0_Layer0_0_FILL">
<path fill="#FFFFFF" stroke="none" d="
M 943.75 492.5
Q 942.3 482 933.95 471.45 925.6 460.95 911.3 453.4 896.95 445.9 877.5 444.4 862.05 443.6 848.2 448.95 834.3 454.25 824.75 462.95 815.15 471.6 812.6 480.9 806.4 501.6 805 528 803.65 554.35 806.15 581.45 808.65 608.5 814.1 631.4 819.55 654.3 827 668.1 838.7 676 864.45 679.2 890.25 682.4 920.25 681.85 950.2 681.3 974.65 677.95 999.05 674.6 1008.05 669.45 1012.65 666.25 1015.7 657.6 1018.75 648.9 1019.65 638 1020.55 627.1 1018.7 617.15 1016.85 607.2 1011.7 601.5 1005.05 598.65 991.8 596.4 978.6 594.15 964.25 592.35 949.95 590.5 939.95 589
L 932.45 587.5 929.8 586.1
Q 935.25 559.8 938.7 541.45 942.1 523.05 943.4 511.2 944.65 499.3 943.75 492.5 Z"/>
</g>

<g id="Symbol_115_0_Layer0_0_FILL">
<path fill="#0075c9" stroke="none" d="
M 1144 461.15
L 1138.8 459.15 1133.4 458.1 1122.5 457.6 1111.6 458.3 1098.1 460.25 1076.9 465.4 1071.75 467.1 1061.65 471.3 1061.65 471.35 1059.25 472.7 1050.5 479.45 1033.75 497.7 1025.4 508.55 1012.9 526.6 1012.4 527.2 1012.15 526.8 1011.75 526.75 1011.35 526.95 1011.25 527.15 1011.25 527.4 1011.4 528.3 1006.45 534 1006.3 534.4 1006.5 534.8 1006.9 534.95 1007.15 534.9 1007.35 534.75 1011.65 529.8 1017.45 570.3 1030.5 674.3 1030.1 744.5 1030.35 747.2 1030.35 747.3 1031.05 749.75 1032.25 752.05 1035.45 756 1039.3 759.3 1047.9 764.55 1054.85 767.55 1067 770.7 1076.95 771.9 1084.85 771.55 1095.25 769.15 1100.25 767.25 1107.35 763.45 1111.55 760.05 1111.55 760 1111.6 759.95 1113.2 757.8 1115.9 753.1 1136 706.25 1140.15 693.5 1140.15 693.45 1144.9 669.05 1153 619.95 1158 584.4 1158 584.35 1160.75 554.45 1160.9 521.6 1155.75 481.9 1154.3 476.75 1152.3 471.8 1148.3 464.85 1146.35 462.7 1144 461.15 Z"/>
</g>

<g id="Symbol_116_0_Layer0_0_FILL">
<path fill="#FFFFFF" stroke="none" d="
M 968.05 499.25
Q 961.85 511.85 962 518.55 962.2 523 965.55 527 968.9 531.05 975.5 539.3 982.1 547.55 991.9 564.75 997.3 574.5 1003.45 588.05 1009.6 601.65 1015.25 616.25 1020.9 630.8 1024.75 643.6 1028.6 656.35 1029.35 664.5 1030.3 676.45 1031.25 692.8 1032.2 709.15 1033.55 724.25 1034.95 739.35 1037.05 747.5 1039.35 751.05 1044.7 755.5 1050.05 759.95 1058.1 763.2 1066.1 766.45 1076.45 766.45 1091.25 766 1098.8 763.3 1106.3 760.55 1108.9 757.6
L 1110.9 755.15 1111.65 753.6
Q 1117.6 737 1124 717.8 1130.35 698.65 1135.4 680.55 1140.4 662.5 1142.2 649.2 1147.6 604.55 1146.1 570.65 1144.6 536.7 1139.65 514.3 1134.75 491.9 1129.95 481.8 1125 471.2 1114.4 462.1 1103.8 453.05 1090.2 446.5 1076.6 439.95 1062.7 436.95 1048.8 433.95 1037.25 435.45 1022.7 437.85 1009.2 448.35 995.65 458.85 984.95 472.75 974.2 486.65 968.05 499.25 Z"/>
</g>

<g id="Symbol_117_0_Layer0_0_FILL">
<path fill="#FFFFFF" stroke="none" d="
M 743.05 735.4
L 745.45 761.95
Q 747.75 786.5 750.75 818.5 753.8 850.55 756.1 875
L 758.55 901.15
Q 763.6 907.75 775.7 912.15 787.8 916.5 803 918.05 818.25 919.6 832.8 917.6 847.4 915.65 857.5 909.55
L 863 903
Q 868.2 896.85 875.15 888.25 882.1 879.65 887.7 871.75 893.3 863.85 894.35 859.85
L 894.4 852.35 893.2 838.8
Q 891.4 822.15 888.6 802.1 885.8 782.05 883.55 767.25
L 881.2 751.6
Q 873.75 737.8 854.9 732.2 836.05 726.65 813.25 726.6 790.4 726.55 771 729.4 751.6 732.3 743.05 735.4 Z"/>
</g>

<g id="Symbol_19_0_Layer0_0_FILL">
<path fill="#0075c9" stroke="none" d="
M 943.65 840.8
Q 942.6 838.75 942.2 837.35 941.45 834.6 941.05 831.85 940.7 829.05 940.15 826.35
L 939.65 824.85 939.1 824.45
Q 938.5 824.55 938.05 825.8 937.65 827 937.65 828.25 937.8 831.4 938.75 835.75 939.7 840.1 941.85 843.7 943.95 847.3 947.65 848.15 951.1 848.6 953.45 845.55 955.8 842.55 957.1 838.5 958.4 834.45 958.75 831.75 958.9 830.75 958.95 828.85 959 826.95 958.7 825.25 958.4 823.5 957.45 822.95
L 957.25 822.9
Q 957.1 822.9 957.05 822.95 956.7 823.3 956.6 823.8
L 956.45 824.5
Q 956.2 826.4 956.15 828.4 956.15 830.4 955.8 832.35 955.5 834.05 954.65 836.85 953.8 839.65 952.5 842.15 951.2 844.6 949.5 845.25 947.75 845.7 946.2 844.3 944.7 842.85 943.65 840.8 Z"/>
</g>

<g id="Symbol_20_0_Layer0_0_FILL">
<path fill="#FFFFFF" stroke="none" d="
M 923.4 167.5
Q 916.1 172.05 911.35 176.95
L 907.6 181.2 905.95 184.05 905.45 187 905.3 191.9
Q 905.3 197.7 905.6 204.45 905.9 211.2 906.25 216.1
L 906.6 221.25 909.7 221.65
Q 912.6 222.1 915.6 222.4
L 917.9 222.55 919 222.45
Q 925.6 213.05 929.15 207.95 932.7 202.85 934.35 199.75 936 196.65 936.85 193.3 937.85 189.35 938.6 182.3 939.4 175.25 939.55 169.1
L 939.45 164.2 938.9 161.8
Q 930.7 162.95 923.4 167.5 Z"/>
</g>

<g id="Symbol_21_0_Layer0_0_FILL">
<path fill="#FFFFFF" stroke="none" d="
M 849.85 162.55
L 848.25 160.3
Q 838.8 166.65 832.2 176.9 825.6 187.2 822.15 196.8 818.7 206.45 818.75 210.75 819.1 213.45 822.1 219.15 825.1 224.9 829 231.2 832.85 237.55 835.8 242.05
L 838.85 246.75 842.7 244.9
Q 846.3 243.25 849.9 241.4
L 852.7 239.85 853.9 238.95
Q 856.8 225.15 857.8 215.3 858.75 205.45 858.55 199.35 858.3 193.3 857.6 190.7 856.85 187.7 855.2 180.75 853.55 173.8 851.65 167.5
L 849.85 162.55 Z"/>
</g>

<g id="Symbol_118_0_Layer0_0_FILL">
<path fill="#0075c9" stroke="none" d="
M 683.9 763.35
Q 677.3 763.75 670.75 763.85 666.55 763.7 662.25 763.7 657.9 763.65 653.25 764 652.55 764 651.5 764.1 650.45 764.15 649.7 764.95 649.6 765 649.5 765.05 649.35 765.1 649.25 765.2
L 645.2 766.45 644.15 767.25 643.8 768.2
Q 643.75 770.25 646.65 772.6 649.55 774.95 653 776.85 656.45 778.75 658 779.45 665.9 782.85 675.3 784.05 684.7 785.25 694.9 784.45 705.15 783.6 715.55 781 717.5 780.8 719.2 780.45 720.85 780.05 721.7 779.85 730.3 777.75 739.35 773.55 748.45 769.3 757 763.9 765.55 758.5 772.55 753 773.3 752.45 773.9 751.95 774.45 751.5 774.75 750.95 776.95 749.15 778.85 746.65 780.75 744.15 781.4 741.85 782.05 739.55 780.45 738.45 779.9 738.25 779.25 738.35 778.6 738.45 778.2 738.95 776.4 738.75 774.05 740.55 771.7 742.35 769.9 744.3
L 767.95 746.4
Q 755.45 757.5 739.55 765.3 723.6 773.05 706.4 776.3 689.15 779.5 672.85 777.05 669.35 776.5 665.5 775.25 661.6 774 658.6 772.05
L 657.95 771.8
Q 657.4 771.65 657.15 771.25 658.3 771.2 659.7 771.1 661.15 771.05 662.4 771 663.3 771.1 663.9 771.15
L 664.6 771.2
Q 687.25 773.35 705.55 767.4 723.8 761.4 738.9 748.5 754 735.55 767.05 716.85 768.25 715.25 769.7 713.45 771.15 711.65 771.85 709.85 772.55 708.1 771.55 706.65 772.05 705.35 771.45 704.55 770.9 703.8 769.1 703.35
L 769.05 703.35
Q 768.7 702.85 768.05 702.7 767.35 702.6 766.8 702.75 765.65 703.4 764.55 704.65 763.45 705.9 762.65 707
L 761.6 708.5
Q 754.15 718.05 746.7 727.05 739.25 736.05 730.75 744.3 727.4 746.75 723.25 749.4 719.1 752.05 714.9 754.45 710.7 756.8 707.15 758.5 704.75 759.4 702.3 760.15 699.8 760.9 697.25 761.5 690.5 762.95 683.9 763.35 Z"/>
</g>

<g id="Symbol_22_0_Layer0_0_FILL">
<path fill="#FFFFFF" stroke="none" d="
M 661.65 767.35
L 648.9 766.15
Q 647.3 766.15 646.3 767.25 645.25 768.35 645.2 769.8 645.15 771.3 646.5 772.5
L 649.1 773.9 654.55 776.1
Q 661.45 778.7 672.95 780.7 684.4 782.7 699.15 781.9 713.85 781.15 730.65 775.45 742.3 771.1 752.6 762.8 762.95 754.5 770.9 745.45 778.9 736.4 783.5 729.9
L 788.3 722.65 787.25 721.25 784.35 718.45
Q 780.55 714.95 775.95 710.9 771.3 706.9 768.6 704.6 766.5 707.95 761.25 715.5 756 723 748.5 732 741.05 741.05 732.35 748.9 723.6 756.75 714.6 760.8 701.2 766.2 686.75 767.2 672.35 768.2 661.65 767.35 Z"/>
</g>

<g id="Symbol_119_0_Layer0_0_FILL">
<path fill="#0075c9" stroke="none" d="
M 1065.35 476.45
Q 1060.65 471.65 1055.15 467.15 1049.9 462.3 1043.85 457.85 1037.85 453.35 1031.05 449.3 1030.85 449 1030.65 448.7 1030.45 448.45 1030.25 448.25 1029.8 448.15 1029.45 448.1 1029.1 448.05 1028.85 448.05
L 1026.2 446.65
Q 1024.7 445.85 1023.55 445.2 1023 444.85 1022.45 444.95 1021.9 445.1 1022.3 446
L 1022.85 446.45 1024.25 447.4
Q 1026.1 448.65 1028.75 450.4
L 1029 451.1
Q 1029.1 451.5 1029.25 451.95 1032 460.1 1035.5 468 1038.95 475.95 1041.85 484.05 1047.45 501.25 1049.3 518.55 1051.15 535.85 1052.65 553.05 1054.2 570.3 1058.8 587.2 1064.45 607.2 1064.6 627.25 1064.7 647.35 1060.1 667.05 1055.55 686.7 1047.1 705.45
L 1045.45 708.4
Q 1044.05 710.85 1042.35 714.35 1040.6 717.85 1039.5 721.4 1038.9 722.25 1038.4 723.05 1037.95 723.9 1037.8 724.65 1038.05 724.7 1038.3 724.7 1038.55 724.65 1038.8 724.6 1038.6 726.25 1038.8 727.65 1039 729 1039.8 729.95 1039.3 730.75 1038.9 731.45 1038.55 732.2 1038.45 732.8 1039.4 732.8 1040.35 731.85 1041.25 730.9 1041.6 730.45 1053.3 718.3 1062.8 700.85 1072.35 683.35 1079.15 663.4 1085.9 643.4 1089.35 623.8 1091.7 615.55 1093.25 606.7 1094.85 597.8 1095.6 588.75 1097.15 580.1 1097.85 571.3 1098.55 562.55 1098.2 555.25 1098.15 554 1098.05 552.7 1097.95 551.4 1097.8 550 1097.15 540.2 1094.05 528.45 1090.95 516.75 1085.8 505.65 1080.65 494.5 1074 486.45 1070.05 481.3 1065.35 476.45
M 1047.95 715.9
Q 1050.5 713 1052.8 710 1051.9 711.3 1050.95 712.6 1050 713.95 1049 715.3 1048.55 715.75 1047.6 716.9 1046.65 718 1046.65 719.1 1046.8 719.15 1047.05 719.2
L 1047.35 719.2
Q 1047.45 719.2 1047.6 719.05 1047.75 718.95 1047.95 718.75
L 1048 718.85 1048.3 718.9
Q 1047.2 720.4 1046.1 721.95 1045 723.45 1043.9 724.95 1043.5 725.45 1042.45 726.65 1041.4 727.8 1040.3 729.25 1040.05 727.9 1040.25 726.4 1040.45 724.9 1040.95 723.45 1041.55 722.95 1041.95 722.45 1042.4 722 1042.65 721.75 1045.4 718.85 1047.95 715.9
M 1080.65 652.8
Q 1080.1216796875 654.5361328125 1079.55 656.25 1080.075 654.55 1080.6 652.85 1081.1283203125 651.1140625 1081.65 649.35 1081.175 651.1 1080.65 652.8
M 898.95 786.2
L 900.7 786.5
Q 902.75 786.8 904.8 786.95 906.9 787.15 908.95 787.2 908.75 787.55 909.2 787.75 909.65 787.95 910.65 788.1 911.05 788.15 911.4 788.2 911.8 788.25 912.25 788.3 911.25 788.4 910.25 788.45 909.25 788.55 908.25 788.6
L 906.6 788.7
Q 905.35 788.8 904.35 789.25 904.25 789.25 904.05 789.45 903.85 789.6 903.85 789.75 904.1 790.75 904.85 790.85 905.6 790.95 906.6 790.9 918.15 790.45 929.05 788.8 940 787.15 951.35 784.85 952.05 784.75 953.7 784.35 955.35 783.95 956.2 783.1 956.2 782.8 955.95 782.7 955.75 782.6 955.6 782.6
L 955.25 782.55
Q 954.9 782.55 954.45 782.6 954.05 782.5 953.6 782.55 953.15 782.6 952.9 782.6 944.55 782.6 936.2 783.5 927.9 784.4 919.55 785.05 911.25 785.7 902.95 784.85
L 901.3 784.65
Q 900.05 784.5 898.95 784.65
L 898.3 785.4 898.25 785.85 898.95 786.2
M 940.85 785.05
Q 941.05 785 941.25 784.9 941.45 784.85 941.6 784.75 942 784.75 942.4 784.7
L 943.15 784.65
Q 942.75 784.7 942.5 784.75 942.25 784.8 942.05 784.85 941.75 784.9 941.45 784.95 941.15 785 940.85 785.05
M 746.95 525.2
L 746.65 522.9
Q 746.35 521.15 745.75 519.8 745.5 519.55 745.2 519.6 744.9 519.6 744.7 519.9
L 744.5 520.9 744.4 522.95
Q 744.35 525.45 744.4 528.2
L 744.4 531.9
Q 744 540.75 744.55 548.65 745.15 556.55 746.2 564.3 747.25 572.1 748.25 580.55 748.9 586 749.85 591.65 750.8 597.3 751.7 603 751.75 603.65 751.85 604.25 751.95 604.85 752.05 605.4 752.45 607.95 752.7 610.5 753 613 753.2 615.45 753.1 616.35 753.1 617.3 753.05 618.25 753.15 619.1 753.15 619.7 753.1 620.3 753.1 620.95 753.2 621.6 752 626.25 751 630.9 750 635.55 749.3 640.15 747.4 651.05 745.1 661.9 742.75 672.8 741.85 683.75 741.2 693.5 742.5 700.75 743.8 708 746.85 714.75 749.95 721.5 754.7 729.6 754.85 729.85 755.1 730.4 755.35 730.95 755.7 731.65 755.7 731.9 755.75 732.2 755.8 732.45 755.95 732.7
L 756.2 732.65
Q 756.65 733.45 757.15 734.1 757.7 734.8 758.25 735.1 758.55 734.95 758.55 734.6 758.55 734.25 758.55 734.05 758.55 733.6 758.4 732.95 758.2 732.35 757.85 731.6 759.15 730 759.85 727.9
L 760.65 725.2
Q 762.05 718.85 763.25 712.15 764.4 705.5 765.4 699.1 767.9 683.7 770.35 667.85 772.8 652.05 774.3 636.55 775.4 623.5 773.25 609.95 771.05 596.4 766.4 583.25 766.45 582.65 766.4 582.1 766.4 581.55 766.25 581.1 766.1 581.1 765.95 581 765.75 580.9 765.7 580.95
L 765.6 581
Q 762.4 572.3 758.35 564.15 754.35 556 749.8 548.7
L 748.7 547.05
Q 747.8 545.75 747 544.65 747 544.55 746.8 544.45 746.6 544.4 746.45 544.45 746.65 539.75 746.85 535 747.1 530.25 746.95 525.2 Z"/>
</g>

<g id="Symbol_24_0_Layer0_0_FILL">
<path fill="#FFFFFF" stroke="none" d="
M 955.75 420.8
Q 923.4 422.75 881.3 425.7 839.2 428.7 807.35 431.05
L 773.8 433.5 767.65 442.5
Q 761.8 451.25 754.9 465.8 748 480.35 744.45 497.95 741.2 515.95 744.85 544.05 748.45 572.1 758.1 610.45 757.3 616.6 755.2 629.35 753.05 642.15 750.75 656.85 748.4 671.6 746.95 683.6 745.5 695.65 746.05 700.2 746.95 706.4 750.7 717.2 754.5 727.95 761 740.05 767.5 752.2 776.7 762.4 785.85 772.65 797.65 777.8 812.25 783.6 833.95 786 855.7 788.35 880.2 788.2 904.7 788 927.6 786.1 950.5 784.2 967.5 781.4 987.75 778 1003.3 768.2 1018.8 758.45 1030.9 743.6 1043 728.8 1053 710.35 1058.6 700.25 1064 687.05 1069.45 673.9 1074.15 658.85 1078.85 643.75 1082.2 627.95 1085.7 611.1 1087.45 594.8 1089.15 578.55 1089.25 564.2 1089.35 549.85 1087.85 538.85 1083.75 512.8 1069.1 491.25 1054.45 469.7 1036.7 453.9 1019 438.1 1005.65 429.2
L 990.7 419.45 980.65 419.45 955.75 420.8 Z"/>

<path fill="#0075c9" stroke="none" d="
M 1027.1 329.9
Q 1025.65 330.9 1025.7 332.9 1025.8 334.9 1026.1 336.6 1024.85 337.25 1024.8 339.6 1024.7 341.9 1025.05 344.1
L 1025.45 346.5
Q 1025.95 351.5 1025.75 356.7 1025.5 361.9 1026.35 367.3 1027.55 374.3 1026.85 382.45 1026.2 390.6 1024.1 398.45 1021.95 406.3 1018.8 412.35
L 1017.85 414.15 1017.55 415.05 1018.05 415.4 1019.45 415.5
Q 1020.4 414.6 1021.2 413.25
L 1022.2 411.45
Q 1023.4 408.85 1024.4 406.05 1025.4 403.3 1026.8 401.25 1028.75 398.55 1029.95 393.9 1031.2 389.25 1031.65 384.35 1032.15 379.4 1031.75 375.75 1031.6 374.25 1031.55 372.75 1031.5 371.25 1031.55 369.7 1032.15 366.9 1032.15 364.3 1032.15 361.65 1031.95 358.45 1031.75 354.45 1031.85 351.1 1031.9 347.75 1032.1 343.95
L 1032.2 341.9
Q 1032.25 340.15 1031.9 338.35 1031.6 336.5 1030.55 335.8 1030.35 335.85 1030.2 335.95 1030.05 336 1029.9 336.1 1029.65 333.9 1029.25 332.45 1028.9 330.95 1028.35 330.5 1028.2 330.35 1027.85 330.15 1027.5 329.95 1027.1 329.9 Z"/>
</g>

<g id="Symbol_25_0_Layer0_0_FILL">
<path fill="#0075c9" stroke="none" d="
M 1051.6 302.65
Q 1051.1 301.5 1049.9 301.45 1048.7 301.35 1047.4 301.75 1046.05 302.15 1045.05 302.5 1041.65 303.6 1040.45 307.2 1039.3 310.8 1039.3 315.15 1039.3 319.45 1039.35 322.7 1039.25 328.1 1039 333.2 1038.75 338.3 1039 343.75 1039.6 354.4 1039.5 364.75 1039.45 375.05 1039.05 385.7 1039 387.3 1039.05 390.35 1039.1 393.4 1039.4 396.75 1039.2 396.8 1039.05 396.85 1038.85 396.95 1038.6 397.05
L 1038.35 397.45
Q 1038.15 397.8 1037.75 398.05
L 1036.75 398.75 1036.2 399.25
Q 1035.95 399.6 1035.9 400.3 1035.55 401.2 1035.4 402.15 1035.25 403.05 1035.15 403.6 1035 404.15 1034.85 404.75 1034.65 405.35 1034.4 405.85
L 1034.25 406.35
Q 1034.1 406.7 1034 407 1032.6 406.6 1031.55 408.35 1030.55 410.1 1029.95 412.1
L 1029.3 414.3
Q 1028.7 415.3 1027.8 416 1026.9 416.7 1025.9 418.5 1024.85 420.65 1023.9 422.45 1022.9 424.25 1021.95 425.95 1022.45 424.2 1022.4 422.75 1022.3 421.25 1021.3 420.45 1020.55 421 1019.95 422.2 1019.3 423.4 1018.85 424.6 1018.45 425.75 1018.2 426.25 1017.1 428.5 1014.65 432.65 1012.25 436.8 1009.65 440.6 1007 444.45 1005.25 445.75
L 1004.55 445.85
Q 1003.9 445.95 1003.55 446.35 1003.25 446.45 1003.3 446.75
L 1003.35 447.1
Q 1003.35 447.25 1003.7 447.4
L 1004 447.65
Q 1003.6 448.7 1002.5 450 1001.45 451.3 1000.1 452.75 991.1 453.95 981.6 455.45 972.1 456.95 962.75 459.1 953.4 461.3 944.95 464.6 938.2 467.25 931.45 469.75 924.65 472.25 917.95 474.8
L 915.85 475.85
Q 914.3 476.7 913.2 477.8 913.15 478.05 913.2 478.35 913.2 478.6 913.3 478.85 913 479.05 913.05 479.35 913.15 479.6 913.4 479.9 915.9 482.6 922.7 483.95 929.5 485.35 936.7 485.8 943.9 486.3 947.6 486.4 964 486.85 978.3 481.8 992.6 476.75 1005.35 467.8 1009.2 465.65 1012.65 463.1 1016.1 460.55 1019.25 457.3 1025.05 451.85 1029.5 444.45 1033.9 437.05 1037.35 426.95 1037.55 426.6 1037.7 426.25 1037.9 425.9 1038.1 425.55 1043.35 415.6 1046.75 403.1 1050.2 390.65 1052.2 377.6 1054.2 364.6 1055.3 353 1055.45 351.85 1055.7 349.8 1055.9 347.8 1055.85 346.2 1056.1 340.75 1055.8 335.45 1055.5 330.2 1054.95 324.45 1054.75 321.3 1054.4 317.3 1054.05 313.3 1053.45 309.4 1052.8 305.5 1051.6 302.65 Z"/>
</g>

<g id="Symbol_26_0_Layer0_0_FILL">
<path fill="#0075c9" stroke="none" d="
M 980.9 222.3
L 981.3 221
Q 981.55 220.05 981.4 219.3 980.9 218.9 980.7 219.3 980.5 219.75 980.35 220.35 979.2 224.05 977.7 227.6 976.2 231.2 974.35 234.55 972.25 238.5 969.8 242.15 967.35 245.85 964.55 249.25 964.25 249.55 963.6 250.25 962.9 251 962.7 251.7
L 962.85 251.8
Q 962.5 252.1 962.3 252.4 962.05 252.75 962 253.1 962.3 253.4 962.7 253.25 963.1 253.1 963.35 252.9 965.8 251.45 968.65 248.45 971.5 245.4 974.15 242 976.75 238.6 978.35 236.15 978.5 235.95 978.8 235.5 979.1 235 979.4 234.45 979.6 234.1 979.7 233.7 979.8 233.35 979.75 233 979.3 232.75 979 233.15 978.7 233.55 978.5 233.95 978.35 234.15 978.25 234.35 978.1 234.55 977.95 234.75 978.3 233.9 978.4 233.1 978.45 232.3 978.05 231.7 977.7 231.5 977.45 231.6 977.2 231.7 977 232 978.2 229.5 979.2 227.05 980.15 224.6 980.9 222.3
M 966.6 248.5
L 966.85 248.2 966.9 248.2 966.6 248.5 Z"/>

<path fill="#FFFFFF" stroke="none" d="
M 966.85 248.2
L 966.6 248.5 966.9 248.2 966.85 248.2
M 1012.45 184.25
Q 1009.55 185.35 1007.8 188.35 1002.5 197.95 997.95 206.1 993.45 214.25 988.95 221.25 984.5 228.25 979.4 234.45 979.1 235 978.8 235.5 978.5 235.95 978.35 236.15 976.75 238.6 974.15 242 971.5 245.4 968.65 248.45 965.8 251.45 963.35 252.9 963.1 253.1 962.7 253.25 962.3 253.4 962 253.1 962.05 252.75 962.3 252.4 962.5 252.1 962.85 251.8
L 962.7 251.7
Q 962.9 251 963.6 250.25 964.25 249.55 964.55 249.25 967.35 245.85 969.8 242.15 972.25 238.5 974.35 234.55 971.45 233.45 967.2 231.7 962.95 229.95 958.2 227.85 953.5 225.75 949.2 223.55 942.25 219.6 928.3 216.3 914.3 213 894.95 214.6 875.65 216.15 852.55 227 840.85 232.9 833.35 239.5 825.8 246.1 821.95 251.35
L 817.3 258.3
Q 812.95 267.05 807.85 285.25 802.75 303.45 798.15 323.75 793.55 344 790.75 358.9
L 788.65 370.6 788.15 375.95 789.35 379.6 792.45 386.35
Q 796.5 394.6 805.7 407.45 814.9 420.3 830.8 436.3 844.75 449.8 859.75 458.55 874.75 467.25 887.8 472.1 900.85 476.95 909 478.85 931 483.95 950.9 481.3 970.85 478.7 985.75 472.2 1000.65 465.75 1007.65 459.3 1022.45 445.6 1031.65 423.7 1040.85 401.8 1044.75 375.3 1048.6 348.75 1047.35 321.1 1045.55 286.9 1040.65 259.3 1035.75 231.65 1030.45 213.15 1025.1 194.65 1022.15 187.85 1020.8 184.9 1018.05 184 1015.3 183.1 1012.45 184.25 Z"/>
</g>

<g id="Symbol_27_0_Layer0_0_FILL">
<path fill="#FFFFFF" stroke="none" d="
M 789.2 341.6
Q 785.8 347.35 777.75 359.8 769.7 372.25 759.95 387.45 750.2 402.65 741.65 416.8 733.1 430.9 728.8 440
L 777.9 447.45
Q 824.55 454 885.8 462.15 947 470.25 993.15 475.85
L 1028.15 479.8 1040.8 480.45 1033 470.6
Q 1027.2 463.4 1019.85 454.8 1012.5 446.25 1006.05 439.35 999.55 432.5 996.25 430.45
L 960.45 414.6
Q 929.2 401.1 889.65 384.25 850.05 367.4 820.4 354.85
L 789.2 341.6 Z"/>
</g>

<g id="Symbol_28_0_Layer0_0_FILL">
<path fill="#0075c9" stroke="none" d="
M 840.25 295.25
Q 839.9 295.3 839.65 295.65 839.4 295.95 839.3 296.45 839.25 296.7 839.2 297.05 839.15 297.4 839.1 297.75 839.05 298.4 839.05 299.15 839.05 299.85 839.05 300.45 839.1 304.75 839.4 307.2 839.7 309.7 840.3 311.95 841.5 316.85 843.65 320.55 845.85 324.25 849.5 325.35 850.15 325.6 850.85 325.6 851.55 325.6 852 325.5 855.2 324.65 857.8 321.95 860.35 319.3 862 315.55 863.65 311.85 864.2 308
L 864.3 307.3
Q 864.4 306.75 864.4 306.1 864.6 305.1 864.55 304.3 864.5 303.45 864.15 302.9 863.7 303.05 863.5 303.6 863.35 304.15 863.3 304.4 862.1 308.55 861.1 311.75 860.15 315 858.35 317.35 856.6 319.7 852.9 321.2 850.25 322.05 847.95 319.1 845.65 316.1 844.05 311.55 842.45 306.95 841.85 303.1 841.65 302.2 841.45 301.3 841.3 300.35 841.15 299.4 841 298.1 840.8 297.1 840.55 296.15 840.25 295.25 Z"/>
</g>

<g id="Symbol_29_0_Layer0_0_FILL">
<path fill="#FFFFFF" stroke="none" d="
M 915.85 293.65
Q 914.9 283.9 909.2 276.25 903.5 268.6 890.55 266.1 877.35 264.2 869.25 269.95 861.1 275.7 856.6 284.55 852.15 293.35 849.95 300.7 858.85 301.75 870.05 303.6 881.25 305.45 893.05 307.7 904.8 309.9 915.4 312.05 916.75 303.35 915.85 293.65 Z"/>
</g>

<g id="Symbol_120_0_Layer0_0_FILL">
<path fill="#0075c9" stroke="none" d="
M 1058.25 803.1
Q 1057 801.3 1055.95 799.55 1055.9 800.15 1055.95 800.6 1055.95 801.1 1055.95 801.25 1056.05 804.65 1056.35 807.9 1056.65 811.15 1056.55 814.65 1056.5 816.15 1056.5 817.65 1056.45 819.2 1056.5 820.65 1056.1 818.4 1055.6 816.1 1055.15 813.8 1054.55 811.45 1054.45 811 1054.3 810.55 1054.15 810.05 1053.95 809.55 1053.55 808.45 1053.05 807.25 1052.55 806.1 1052.05 804.9
L 1051.75 804.2
Q 1051.6 803.9 1051.5 803.6
L 1051.4 803.4
Q 1050.3 803.4 1049.2 803.25 1048.1 803.1 1047.05 802.8 1043.55 819.1 1040.5 834.7 1037.4 850.3 1034.5 866 1031.55 881.7 1028.45 898.25 1028.2 898.8 1027.95 899.4 1027.75 899.95 1027.5 900.55 1026.55 901.9 1025.55 903.2 1024.55 904.5 1023.45 905.8
L 1023.25 906.05 1022.25 906.4
Q 1019.75 906.95 1017.2 907.4 1014.65 907.85 1012 908.1
L 1008.3 908.25
Q 1005.15 908.4 1002.2 909.2 999.25 909.95 999.35 911.8 999.6 912.1 1000 912.2 1000.35 912.25 1000.75 912.2 1001 912.4 1001.3 912.5 1001.6 912.65 1001.9 912.7 1003.35 913.1 1006.85 912.65 1010.4 912.25 1014.65 911.4 1018.85 910.5 1022.4 909.55 1023.15 909.9 1024.5 909.6 1025.9 909.25 1027.45 908.3 1029.45 909.2 1031.55 907.8 1033.65 906.45 1035.25 904.35 1036.9 902.25 1037.45 901 1038.45 898.7 1039.35 896.4 1040.25 894.1 1041.1 891.8 1041.55 891.4 1042 890.75 1042.45 890.1 1042.9 889.2 1046.2 882.3 1048.8 875.25 1051.4 868.15 1053.9 861.05 1056.45 854 1059.45 847
L 1059.7 846.8
Q 1059.8 846.65 1059.9 846.35 1060 846.05 1060.1 845.6 1060.3 845.05 1060.4 844.55 1060.5 844.05 1060.4 843.65 1060.75 841.2 1061.05 838.2 1061.3 835.15 1061.45 832.6
L 1061.6 829.15
Q 1061.5 823.9 1061.3 818.65 1061.1 813.35 1061 808.05 1061 807.85 1061 807.5 1060.95 807.2 1060.95 806.8 1059.55 804.95 1058.25 803.1
M 1049.7 835.8
L 1049.75 838.3
Q 1049.85 840.2 1050.25 842.05 1048.1 850.5 1044.75 859.05 1041.45 867.65 1038.35 875.95 1041.15 862 1043.8 848.2 1046.45 834.4 1049.1 820.3 1049.3 824.15 1049.55 828.05 1049.8 831.95 1049.7 835.8 Z"/>
</g>

<g id="Symbol_121_0_Layer0_0_FILL">
<path fill="#FFFFFF" stroke="none" d="
M 887.3 748.6
L 889.35 761.15
Q 891.3 773 894 789.05 896.7 805.05 899.1 818.3
L 902.45 835.1 909.15 847.7
Q 914.9 857.55 922.15 869.35 929.4 881.15 934.8 889.9
L 940.6 899.25
Q 950.75 905.1 963.9 907.95 977.05 910.8 990.55 911 1004.1 911.2 1015.4 909.15 1026.75 907.05 1033.3 903
L 1036.8 894.15
Q 1040.15 885.9 1044.65 874.7 1049.1 863.5 1052.75 853.95
L 1057.1 841.25 1057.45 825.7
Q 1057.45 812.95 1057.2 797.2 1056.95 781.45 1056.7 769.6
L 1056.4 756.85
Q 1047.65 754 1025.15 750.5 1002.7 747 975.15 744.6 947.55 742.2 923.45 742.75 899.35 743.3 887.3 748.6 Z"/>
</g>

<g id="Symbol_32_0_Layer0_0_FILL">
<path fill="#0075c9" stroke="none" d="
M 938.3 828.5
Q 938.5 831.6 939.5 835.45 940.5 839.25 942.25 842.4 943.95 845.55 946.3 846.7 950.3 848.25 953.15 845.6 956 842.95 957.6 838.15 959.2 833.4 959.35 828.65 959.4 827.55 959.25 826 959.1 824.45 958.4 824.45 958.25 824.75 958.1 825.1
L 957.95 825.6
Q 957.35 827.6 957.1 829.8 956.8 831.95 956.3 834.1 955.15 838.55 953 841.25 950.85 843.95 948.25 843.6 945.7 843.25 943.35 838.65 942.15 836.05 941.4 832.95 940.6 829.9 939.6 827.1 939 825.7 938.6 826.55 938.25 827.35 938.3 828.5 Z"/>
</g>

<g id="Symbol_5_0_Layer0_0_FILL">
<path fill="#82bc00" stroke="none" d="
M 957.25 636.4
L 900.4 636.15 928.35 847.5 957.25 636.4 Z"/>
</g>

<g id="Symbol_122_0_Layer0_0_FILL">
<path fill="#AED044" stroke="none" d="
M 1110.2 528.85
L 1110 528.75 1109.7 528.7
Q 1109.5 528.6 1109.3 528.5 1109.05 528.45 1108.8 528.35 1108.55 529.45 1108.5 530.25 1108.45 531 1108.7 531.3
L 1108.9 531.45
Q 1108.65 532.15 1108.75 532.8 1108.85 533.45 1109.4 533.95 1109.65 533.85 1109.9 533.8 1110.2 533.7 1110.45 533.6 1110.3 533.95 1110.3 534.35 1110.35 534.7 1110.65 535.1
L 1110.8 535.05
Q 1114.5 550.15 1124.15 569.65 1133.85 589.15 1147.25 606.2 1160.6 623.2 1175.45 630.95 1176 631.25 1176.8 631.65 1177.55 632.05 1178.4 632.3 1178.9 633.45 1179.8 634.05 1180.7 634.65 1182.2 634.25 1182.65 632.4 1182.7 629.8 1182.75 627.25 1182.8 625.7 1182.5 625.4 1182.25 624.95 1182.05 624.5 1181.85 623.85 1181.05 623.9 1180.2 622.9 1179.3 621.95 1178.6 619.85 1178.4 619.2 1178.15 618.55 1177.95 617.9 1177.7 617.25 1170.2 593.5 1157.85 572.1 1145.5 550.65 1124.05 536.05 1123 535.35 1121.9 534.7 1120.85 534 1119.7 533.35 1119 532.95 1118.3 532.55 1117.55 532.15 1116.85 531.75 1116.55 531.6 1116.3 531.45
L 1115.75 531.2
Q 1115.4 531 1115.05 530.8 1114.7 530.65 1114.4 530.45
L 1113.75 530.15
Q 1113.45 530 1113.15 529.85
L 1111.5 529.25
Q 1110.95 529.1 1110.2 528.85
M 1334.5 164.35
Q 1333.65 166.8 1334.8 169.75 1336 172.65 1336.55 173.8 1347.2 207.85 1341.4 240 1335.6 272.15 1311.35 302.4 1310.1 303.55 1309.35 304.35
L 1308.4 305.3
Q 1284.9 325.3 1259.25 341.35 1233.55 357.4 1208.4 375.15
L 1206.95 376.15
Q 1205.8 376.95 1205.1 377.8 1203.25 379.15 1201 380.75
L 1198.2 382.7
Q 1197.1 383.55 1195.75 384.65 1194.4 385.75 1192.8 387.05 1183.45 393.65 1177.2 399.75 1170.95 405.85 1166.65 412.35 1165.4 413.8 1164.15 415.25 1162.95 416.65 1161.8 418.1 1158.8 421.85 1156.65 425.3 1154.45 428.75 1153.35 431.7 1151.9 434.05 1150.5 436.5 1149.1 439 1147.7 441.6 1138.35 459.45 1129.8 478.4 1121.2 497.35 1113.55 515.6 1113.4 515.85 1113.2 516.35
L 1112.75 517.4 1113.05 517.55
Q 1113.75 517.95 1114.5 518.4 1115.25 518.8 1116 519.2
L 1116.95 519.75
Q 1117.4 520 1117.85 520.25 1118.3 520.5 1118.75 520.8 1119.15 521 1119.5 521.2
L 1120.2 521.65
Q 1120.95 522.1 1121.7 522.5 1122.45 522.95 1123.2 523.4 1123.65 523.7 1124.1 523.95 1124.55 524.25 1125 524.5 1126.25 525.3 1127.45 526.1 1128.7 526.85 1129.9 527.65 1147.9 539.45 1161.15 554.2 1174.4 569 1182.1 587.6 1183.75 591.5 1185.05 595.6 1186.4 599.7 1187.5 603.95 1194.1 581.25 1205.05 557.55 1216 533.9 1228.5 511.2 1241 488.55 1252.2 468.85
L 1244.2 470.95
Q 1238.2 472.6 1232.3 474.15
L 1224.55 476.05
Q 1221.6 476.5 1219 476.7 1216.4 476.9 1214.15 476.85
L 1214.1 476.85 1210.1 476.4 1208.85 475.35
Q 1208.95 473.95 1210.7 471.85 1211.15 471.4 1211.85 471.3 1212.5 471.25 1212.75 471.25 1217 470.65 1220.9 470.05 1224.8 469.45 1228.45 468.75 1231.15 468.25 1233.7 467.7 1236.25 467.15 1238.75 466.6 1247 464.65 1254.85 462.1 1262.65 459.65 1270.85 456.5 1279.25 452.55 1287.6 448.1 1296 443.65 1304.05 438.75 1304.2 438.9 1304.3 439.05 1304.45 439.2 1304.6 439.35 1305.1 438.75 1305.7 438.2 1306.3 437.7 1307 437.15
L 1308.85 435.8
Q 1310.75 434.35 1312.6 432.95 1314.45 431.5 1316.3 430.05 1317.7 429 1319.1 427.9 1320.45 426.8 1321.8 425.7
L 1323.85 421.65
Q 1324.85 419.65 1325.7 417.45 1326.1 416.55 1326.4 415.55 1326.7 414.6 1327 413.55 1327.1 413.15 1327.2 412.75 1327.3 412.3 1327.4 411.9 1327.65 410.7 1327.85 409.55 1328.05 408.4 1328.25 407.25 1328.4 406.45 1328.5 405.65 1328.6 404.85 1328.7 404.1 1329.25 399.4 1328.8 395.4 1328.35 391.45 1326.65 388.35 1324.25 384.05 1318.7 381.9 1313.15 379.75 1303.55 380.3 1300.35 380.7 1294.45 382.4
L 1287.25 384.2
Q 1283.15 383.3 1284.2 381.35 1285.2 379.35 1287.1 378.55 1287.55 378.25 1288.1 377.95
L 1288.85 377.55
Q 1294.05 375.4 1299.8 374.75 1305.6 374.1 1311.15 374.4 1325.75 375.5 1330.9 384.95 1336.05 394.4 1334.55 406.7 1334.55 407 1334.5 407.35 1334.45 407.7 1334.4 408 1334.15 410.2 1333.65 412.4 1333.2 414.55 1332.6 416.65 1339.6 410.5 1345.95 403.95 1352.35 397.4 1357.85 390.25 1360.7 386.6 1363.25 382.7 1365.85 378.85 1368.1 374.8 1372.35 367.25 1376.4 359.95 1380.4 352.7 1384.5 345.55 1387.3 338.3 1389.55 331 1391.75 323.7 1393.35 316.3 1392.35 313.4 1390.7 310.9 1389.05 308.4 1386.7 306.5 1385.55 305.6 1384.15 304.85 1382.8 304.1 1381.2 303.55 1380.2 303.15 1379.1 302.9 1378 302.65 1376.8 302.45 1375.4 302.25 1373.9 302.2 1372.4 302.15 1370.75 302.2
L 1367 302.7
Q 1364.15 303.15 1361.75 303.8 1362.75 308.4 1359.65 309 1356.55 309.6 1353.95 307.45 1351.35 305.25 1353.9 301.5 1354.35 301.1 1354.9 300.75
L 1355.6 300.25
Q 1359.9 298.05 1365.15 297.05 1370.4 296.1 1375.25 296.55
L 1376.05 296.65
Q 1377.3 296.8 1378.45 297 1379.6 297.2 1380.7 297.45 1382.65 297.95 1384.35 298.65 1386.1 299.3 1387.65 300.2 1389.95 301.5 1391.85 303.15 1393.7 304.85 1395.15 306.85 1400.75 273.55 1391.85 242.3 1382.95 211 1356.55 185.65 1354.65 183.8 1350.75 180.1 1346.8 176.4 1342.9 173.5 1341.75 170.75 1340.5 168.6 1339.25 166.45 1338 165.15 1337.2 164.2 1336.45 163.65 1335.65 163.1 1334.5 164.35 Z"/>
</g>

<g id="Symbol_6_0_Layer0_0_FILL">
<path fill="#82bc00" stroke="none" d="
M 1072.2 375.55
L 1068.15 357.75
Q 1042.15 345.2 1010.95 341.05 979.75 336.9 956.85 337.05
L 932.85 337.55 926.05 351.8
Q 919.65 365.2 912.45 380.3 905.25 395.35 902.4 401.45
L 1083.25 425.1 1079.4 407.8
Q 1075.8 391.75 1072.2 375.55 Z"/>
</g>

<g id="Symbol_7_0_Layer0_0_FILL">
<path fill="#82bc00" stroke="none" d="
M 1001.3 267.15
Q 985.7 268.95 976.15 274.55 966.6 280.1 962.25 285.1 957.65 290.25 949.25 304.95 940.85 319.65 934.05 333.65
L 928.95 344.9 927.3 350.7
Q 928.8 356.4 938.95 362.55 949.05 368.7 963.35 373.65 977.6 378.55 991.55 380.55 1008.1 382.65 1024.7 381.35 1041.25 380.05 1053.4 375.85 1065.55 371.6 1068.75 365
L 1067.35 336.85
Q 1065.85 316.35 1059.65 296.65 1053.45 276.95 1039.5 271.65 1016.95 265.35 1001.3 267.15 Z"/>
</g>

<g id="Symbol_8_0_Layer0_0_FILL">
<path fill="#82bc00" stroke="none" d="
M 1099.4 333.3
Q 1110.85 323.1 1118.6 311
L 1115.05 308.9 1104.95 304.7
Q 1091.55 299.45 1068.2 297.6
L 1071.15 308.1
Q 1074.2 317.9 1077.85 329.4 1081.5 340.9 1083.4 346.7
L 1099.4 333.3 Z"/>
</g>

<g id="Symbol_70_0_Layer0_0_FILL">
<path fill="#82bc00" stroke="none" d="
M 793 728.5
L 804.5 735.2
Q 815.8 741.55 835.15 750 854.5 758.4 879 765
L 889.25 742.3
Q 898.45 720.9 910.3 692.8 922.15 664.75 931.1 643.45
L 940.5 621 915.1 609.95 793 728.5 Z"/>
</g>

<g id="Symbol_71_0_Layer0_0_FILL">
<path fill="#82bc00" stroke="none" d="
M 925.95 432.95
L 901.5 436.05 892.05 438.1
Q 890.05 447.45 887.05 467.8 884.05 488.2 879.4 514.8 874.75 541.4 867.8 569.4 859.4 606.95 841 646.2 822.6 685.4 781.8 721.2
L 794.4 723.05 817.75 720.6
Q 846.5 716.05 887.8 703.55 929.1 691.05 974.1 671.2 1027.05 647.2 1057.7 622.85 1088.35 598.55 1102 574.15 1115.65 549.75 1117.6 525.6 1119.75 500.15 1117.15 475.2 1114.55 450.2 1111.05 433.25
L 1106.85 415.15 1073.35 418.05
Q 1041.55 421 999.7 425.15 957.85 429.3 925.95 432.95 Z"/>
</g>

<g id="Symbol_12_0_Layer0_0_FILL">
<path fill="#0075c9" stroke="none" d="
M 1010.55 296.3
Q 1010.35 296.25 1010.25 296.3 1008.2 298.45 1010.2 304.5 1012.15 310.6 1013.75 313.3 1019.1 322.2 1022.65 320.1 1026.25 318.05 1027.85 309.45
L 1028.4 306.15
Q 1028.75 303.25 1027.55 301.85 1027.25 301.75 1026.95 301.85 1026.7 302 1026.55 302.15
L 1025.35 306.8
Q 1024.6 310.7 1024.05 312.35 1023.85 313 1023.1 314.5 1022.3 316.05 1021.4 316.75 1021.25 316.75 1021.1 316.65
L 1020.9 316.5
Q 1018.55 315.1 1016.1 308.95 1013.65 302.8 1012.75 300
L 1012.2 298.35
Q 1011.75 297.15 1010.95 296.35 1010.75 296.35 1010.55 296.3 Z"/>
</g>

<g id="Symbol_13_0_Layer0_0_FILL">
<path fill="#82bc00" stroke="none" d="
M 1032.8 313.4
L 1032.05 308.55
Q 1031.2 304.1 1028.4 299.6 1025.6 295.15 1019.9 294.9 1013.25 295.25 1010 300.8 1006.75 306.3 1006.1 313.2
L 1032.8 313.4 Z"/>
</g>







<g id="Symbol_123_0_Layer0_0_FILL">
<path fill="#AED044" stroke="none" d="
M 1010.9 351.45
L 1008.8 349.95
Q 973.8 323.2 937.75 299.3 901.7 275.45 869.65 244.7
L 868.4 243.25
Q 867.4 242.05 865.75 240.2 834.5 192.65 831.8 140 829.1 87.4 851.85 29.9 852.85 28 855.25 23 857.6 18 856.8 14.05 855.2 12.05 853.95 13.05 852.65 14.05 851.3 15.7 849.1 18.05 846.8 21.7 844.5 25.35 842.25 30.05 835.7 35.25 829 41.8 822.3 48.35 819.05 51.6 773.95 96.4 754.45 149.15 734.9 201.85 737.05 256.35 739.65 252.9 742.8 249.95 746 246.95 749.8 244.55 752.3 242.95 755.05 241.65 757.85 240.35 760.9 239.3 762.6 238.75 764.4 238.3 766.2 237.85 768.1 237.45 768.45 237.4 768.75 237.35 769.1 237.25 769.4 237.2 776.85 235.95 784.65 237.05 792.5 238.1 798.65 241.35
L 799.6 242
Q 800.4 242.6 801 243.2 804.2 249.2 799.8 253.05 795.45 256.9 790.8 256.2 786.15 255.5 788.6 247.8 785.05 247 780.75 246.55
L 775.15 246.15
Q 772.65 246.2 770.35 246.45 768.05 246.75 765.9 247.2 764.05 247.6 762.3 248.15 760.55 248.7 758.95 249.45 756.45 250.5 754.2 251.9 751.95 253.3 750 254.95 746.05 258.35 743.05 262.65 740.1 266.95 738 271.85 739.05 283.9 741.05 295.75 743 307.65 745.9 319.3 750.8 330.75 755.55 342.35 760.35 353.95 765.35 366.1 768.05 372.55 771.2 378.7 774.4 384.8 778.05 390.6 785.05 401.8 793.55 412 802 422.25 811.5 431.65 810.95 428.25 810.7 424.7 810.4 421.15 810.4 417.55 810.4 417 810.4 416.45 810.4 415.9 810.4 415.35 810.45 395.2 820.1 379 829.75 362.8 852.25 359.45 860.8 358.4 869.5 358.85 878.15 359.3 885.65 362.35
L 886.7 362.9
Q 887.55 363.35 888.15 363.85 890.85 364.9 892.05 368.1 893.25 371.3 886.85 373.2
L 876.25 370.9
Q 867.55 368.75 862.75 368.4 848.2 368.5 839.3 372.65 830.4 376.75 826 384.15 822.8 389.45 821.35 396.1 819.95 402.75 819.85 410.4 819.85 411.7 819.85 413 819.9 414.3 819.95 415.6 820 417.45 820.1 419.4 820.2 421.3 820.35 423.25 820.45 423.9 820.5 424.6 820.55 425.25 820.65 425.9 820.85 427.65 821.15 429.2 821.45 430.8 821.85 432.25 822.75 435.8 823.85 439 825 442.2 826.2 445.5 828.05 447.2 829.95 448.85 831.85 450.5 833.8 452.15 836.35 454.35 838.9 456.55 841.45 458.7 844.05 460.85 844.7 461.35 845.35 461.9 845.95 462.4 846.6 462.95 847.55 463.7 848.4 464.55 849.2 465.4 849.9 466.3 850.1 466 850.35 465.75 850.6 465.55 850.85 465.3 862.2 472.55 874.1 479.05 886 485.55 898.05 491.15 909.95 495.5 921.4 498.8 932.85 502.15 945.1 504.5 948.75 505.2 952.55 505.85 956.35 506.5 960.35 507.05 965.8 507.8 971.65 508.4 977.5 509 983.85 509.5 984.25 509.45 985.25 509.55 986.25 509.65 986.85 510.3 989.15 513.6 989.05 515.9
L 986.9 517.8 980.75 518.95 980.65 518.95
Q 977.2 519.25 973.25 519.2 969.3 519.15 964.95 518.75
L 947.5 514.65
Q 934.8 511.35 929.7 510.25 951.65 565.55 958.9 630.7 966.2 695.85 967.1 758 967 759.9 966.45 764.8 965.9 769.7 966.35 773.25 968.5 773.75 970 772.7 971.5 771.6 972.45 769.65
L 983.45 766.05
Q 992.95 763 1002.35 759.9
L 1013 756.3
Q 1037.05 742.2 1060.05 715.85 1083.1 689.45 1100.9 659.45 1118.7 629.45 1127.15 604.55
L 1127.4 604.55
Q 1127.9 603.9 1128.05 603.25 1128.15 602.65 1128 602.05 1128.35 602.2 1128.75 602.3 1129.1 602.45 1129.5 602.5 1130.45 601.65 1130.75 600.55 1131 599.5 1130.8 598.35
L 1131.05 598.1 1131.5 593.5 1130.15 585.75
Q 1127.9 576.35 1126.7 572.55 1118.45 543.2 1109 512.7 1099.6 482.2 1088.7 453.6 1087.1 449.4 1085.45 445.45 1083.75 441.5 1082 437.8 1080.9 433.05 1078.2 427.55 1075.55 422.05 1071.65 416.15 1070.2 413.95 1068.65 411.7 1067.05 409.4 1065.35 407.15 1060.1 396.8 1051.75 387.4 1043.35 378 1030.4 368.1 1028.25 366.05 1026.35 364.35 1024.5 362.7 1022.95 361.4
L 1019 358.4
Q 1015.9 356.05 1013.35 353.95 1012.45 352.65 1010.9 351.45 Z"/>
</g>
</defs>



<g transform="matrix( 1.2952423095703125, 0.0234527587890625, -0.0238037109375, 1.2799835205078125, -1268.65,-185.9) ">
<g transform="matrix( 1, 0, 0, 1, 0,0) ">
<use xlink:href="#Symbol_4_0_Layer0_0_FILL"/>
</g>
</g>

<g transform="matrix( 1.3333282470703125, 0, 0, 1.3333282470703125, -320,-180) ">
<g transform="matrix( 1, 0, 0, 1, 0,0) ">
<use xlink:href="#Symbol_112_0_Layer0_0_FILL"/>
</g>
</g>

<g transform="matrix( 0.4604949951171875, 0.4035797119140625, -0.40869140625, 0.4548797607421875, 925.55,-1121.85) ">
<g transform="matrix( 1, 0, 0, 1, 0,0) ">
<use xlink:href="#Symbol_113_0_Layer0_0_FILL"/>
</g>
</g>

<g transform="matrix( 0.3013153076171875, 0.313446044921875, -0.316864013671875, 0.325103759765625, 740.95,51.6) ">
<g transform="matrix( 1, 0, 0, 1, 0,0) ">
<use xlink:href="#Symbol_114_0_Layer0_0_FILL"/>
</g>
</g>

<g transform="matrix( 0.044158935546875, 0.4719696044921875, 0.417510986328125, -0.005096435546875, 690.25,-9.95) ">
<g transform="matrix( 1, 0, 0, 1, 0,0) ">
<use xlink:href="#Symbol_115_0_Layer0_0_FILL"/>
</g>
</g>

<g transform="matrix( 0.044158935546875, 0.4719696044921875, 0.417510986328125, -0.005096435546875, 690.25,-9.95) ">
<g transform="matrix( 1, 0, 0, 1, 0,0) ">
<use xlink:href="#Symbol_116_0_Layer0_0_FILL"/>
</g>
</g>

<g transform="matrix( 0.470733642578125, -0.0108489990234375, -0.10943603515625, 0.5806427001953125, 637.4,134.8) ">
<g transform="matrix( 1, 0, 0, 1, 0,0) ">
<use xlink:href="#Symbol_117_0_Layer0_0_FILL"/>
</g>
</g>

<g transform="matrix( 0.3306121826171875, 0.025421142578125, -0.143341064453125, 0.49261474609375, 756.45,201.85) ">
<g transform="matrix( 1, 0, 0, 1, 0,0) ">
<use xlink:href="#Symbol_19_0_Layer0_0_FILL"/>
</g>
</g>

<g transform="matrix( 0.5743560791015625, 0.0192413330078125, -0.00885009765625, 0.4579620361328125, 388.5,244.8) ">
<g transform="matrix( 1, 0, 0, 1, 0,0) ">
<use xlink:href="#Symbol_20_0_Layer0_0_FILL"/>
</g>
</g>

<g transform="matrix( 0.55084228515625, 0.142059326171875, -0.1202545166015625, 0.4467926025390625, 437.75,145.75) ">
<g transform="matrix( 1, 0, 0, 1, 0,0) ">
<use xlink:href="#Symbol_21_0_Layer0_0_FILL"/>
</g>
</g>

<g transform="matrix( 0.4806060791015625, 0.043243408203125, -0.0300140380859375, 0.4678192138671875, 493.75,195.05) ">
<g transform="matrix( 1, 0, 0, 1, 0,0) ">
<use xlink:href="#Symbol_118_0_Layer0_0_FILL"/>
</g>
</g>

<g transform="matrix( 0.4806060791015625, 0.043243408203125, -0.0300140380859375, 0.4678192138671875, 493.75,195.05) ">
<g transform="matrix( 1, 0, 0, 1, 0,0) ">
<use xlink:href="#Symbol_22_0_Layer0_0_FILL"/>
</g>
</g>

<g transform="matrix( 0.4537506103515625, 0.00201416015625, 0.0180511474609375, 0.46990966796875, 486.65,238.75) ">
<g transform="matrix( 1, 0, 0, 1, 0,0) ">
<use xlink:href="#Symbol_119_0_Layer0_0_FILL"/>
</g>
</g>

<g transform="matrix( 0.4537506103515625, 0.00201416015625, 0.0180511474609375, 0.46990966796875, 486.65,238.75) ">
<g transform="matrix( 1, 0, 0, 1, 0,0) ">
<use xlink:href="#Symbol_24_0_Layer0_0_FILL"/>
</g>
</g>

<g transform="matrix( 0.5742034912109375, -0.0331878662109375, 0.038055419921875, 0.4561767578125, 380.4,293.7) ">
<g transform="matrix( 1, 0, 0, 1, 0,0) ">
<use xlink:href="#Symbol_25_0_Layer0_0_FILL"/>
</g>
</g>

<g transform="matrix( 0.5742034912109375, -0.0331878662109375, 0.038055419921875, 0.4561767578125, 380.4,293.7) ">
<g transform="matrix( 1, 0, 0, 1, 0,0) ">
<use xlink:href="#Symbol_26_0_Layer0_0_FILL"/>
</g>
</g>

<g transform="matrix( 0.2997589111328125, -0.0415802001953125, -0.017852783203125, 0.450103759765625, 621.75,304.05) ">
<g transform="matrix( 1, 0, 0, 1, 0,0) ">
<use xlink:href="#Symbol_27_0_Layer0_0_FILL"/>
</g>
</g>

<g transform="matrix( 0.5879974365234375, -0.1668853759765625, 0.0482177734375, 0.5204925537109375, 395.1,379.3) ">
<g transform="matrix( 1, 0, 0, 1, 0,0) ">
<use xlink:href="#Symbol_28_0_Layer0_0_FILL"/>
</g>
</g>

<g transform="matrix( 0.5742034912109375, -0.0331878662109375, 0.038055419921875, 0.4561767578125, 376.6,277.95) ">
<g transform="matrix( 1, 0, 0, 1, 0,0) ">
<use xlink:href="#Symbol_29_0_Layer0_0_FILL"/>
</g>
</g>

<g transform="matrix( 0.470611572265625, -0.0134735107421875, 0.0236968994140625, 0.53887939453125, 404.5,183.15) ">
<g transform="matrix( 1, 0, 0, 1, 0,0) ">
<use xlink:href="#Symbol_120_0_Layer0_0_FILL"/>
</g>
</g>

<g transform="matrix( 0.470611572265625, -0.0134735107421875, 0.0236968994140625, 0.53887939453125, 404.5,183.15) ">
<g transform="matrix( 1, 0, 0, 1, 0,0) ">
<use xlink:href="#Symbol_121_0_Layer0_0_FILL"/>
</g>
</g>

<g transform="matrix( 0.546661376953125, 0.0191497802734375, -0.0349884033203125, 0.46246337890625, 407.6,237.2) ">
<g transform="matrix( 1, 0, 0, 1, 0,0) ">
<use xlink:href="#Symbol_32_0_Layer0_0_FILL"/>
</g>
</g>

<g transform="matrix( 0.07904052734375, 0.00115966796875, -0.00164794921875, 0.076995849609375, 1079.9,395.65) ">
<g transform="matrix( 1, 0, 0, 1, 0,0) ">
<use xlink:href="#Symbol_5_0_Layer0_0_FILL"/>
</g>
</g>

<g transform="matrix( 0.0729217529296875, 0.06982421875, -0.0702362060546875, 0.086883544921875, 1119.05,306.5) ">
<g transform="matrix( 1, 0, 0, 1, 0,0) ">
<use xlink:href="#Symbol_122_0_Layer0_0_FILL"/>
</g>
</g>

<g transform="matrix( 0.0833587646484375, -0.0133514404296875, 0.012176513671875, 0.0653076171875, 1068.05,416.85) ">
<g transform="matrix( 1, 0, 0, 1, 0,0) ">
<use xlink:href="#Symbol_6_0_Layer0_0_FILL"/>
</g>
</g>

<g transform="matrix( 0.089111328125, -0.008758544921875, 0.0053558349609375, 0.090057373046875, 1065.05,403.9) ">
<g transform="matrix( 1, 0, 0, 1, 0,0) ">
<use xlink:href="#Symbol_7_0_Layer0_0_FILL"/>
</g>
</g>

<g transform="matrix( 0.09381103515625, -0.0016021728515625, -0.0016021728515625, 0.091094970703125, 1060.2,394.45) ">
<g transform="matrix( 1, 0, 0, 1, 0,0) ">
<use xlink:href="#Symbol_8_0_Layer0_0_FILL"/>
</g>
</g>

<g transform="matrix( 0.1002197265625, 0.028106689453125, -0.0255279541015625, 0.0611114501953125, 1067,386.8) ">
<g transform="matrix( 1, 0, 0, 1, 0,0) ">
<use xlink:href="#Symbol_70_0_Layer0_0_FILL"/>
</g>
</g>

<g transform="matrix( 0.07098388671875, 0.003936767578125, -0.00494384765625, 0.0778045654296875, 1087,393.35) ">
<g transform="matrix( 1, 0, 0, 1, 0,0) ">
<use xlink:href="#Symbol_71_0_Layer0_0_FILL"/>
</g>
</g>

<g transform="matrix( 0.1154327392578125, -0.0014801025390625, 0.0006103515625, 0.11199951171875, 1037.95,388.75) ">
<g transform="matrix( 1, 0, 0, 1, 0,0) ">
<use xlink:href="#Symbol_12_0_Layer0_0_FILL"/>
</g>
</g>

<g transform="matrix( 0.09332275390625, 0.0074920654296875, -0.00775146484375, 0.0909271240234375, 1059.7,390.2) ">
<g transform="matrix( 1, 0, 0, 1, 0,0) ">
<use xlink:href="#Symbol_13_0_Layer0_0_FILL"/>
</g>
</g>







<g transform="matrix( 0.045013427734375, -0.042083740234375, 0.0489349365234375, 0.04791259765625, 1070.35,448.55) ">
<g transform="matrix( 1, 0, 0, 1, 0,0) ">
<use xlink:href="#Symbol_123_0_Layer0_0_FILL"/>
</g>
</g>
</svg>
