
<svg xmlns="http://www.w3.org/2000/svg" version="1.1" xmlns:xlink="http://www.w3.org/1999/xlink" preserveAspectRatio="none" x="0px" y="0px" width="760px" height="880px" viewBox="614 10 760 880">
<defs>


<g id="Symbol_4_0_Layer0_0_FILL">
<path fill="#0081c6" stroke="none" d="
M 1801.75 495.7
L 1801.7 495.7 1801.3 495.85
Q 1801.15 495.95 1801.1 496 1801.1 496.1 1801.2 496.2
L 1801 496.3 1801.15 496.45 1801.2 496.5 1801.35 496.3 1801.45 496.2 1801.5 496.1
Q 1801.6 496.05 1801.7 495.95 1801.75 495.85 1801.85 495.8
L 1801.65 495.8 1801.75 495.7
M 1853.3 506.5
Q 1853.45 506.35 1853.25 506.05
L 1853.35 505.75 1853.25 505.35 1853.05 505.2 1852.8 505.15 1849.5 505.15 1848.75 505.15 1848.4 505.15 1848 505.1 1835.15 505 1834.75 505.15 1834.7 505.25 1834.6 505.55 1834.65 505.7
Q 1834.3 505.8 1834.2 505.95 1834.1 506.15 1834.25 506.35 1834.15 506.55 1834.3 506.7 1834.45 506.9 1834.85 506.9 1834.65 507.15 1834.8 507.4 1834.95 507.65 1835.45 507.65 1836.3 507.65 1837.2 507.65 1838.1 507.65 1839 507.6 1841.55 507.6 1844.05 507.55 1846.6 507.55 1849.15 507.5 1849.9 507.5 1850.65 507.45 1851.35 507.45 1852.1 507.45 1852.45 507.45 1852.65 507.25 1852.85 507.1 1852.75 506.8
L 1852.85 506.75
Q 1853.15 506.7 1853.3 506.5 Z"/>

<path fill="#FFFFFF" stroke="none" d="
M 1849.15 507.9
L 1849.15 507.5
Q 1846.6 507.55 1844.05 507.55 1841.55 507.6 1839 507.6 1838.75 520.8 1838.85 534.05 1839 547.25 1839.05 560.5 1839.1 573.7 1838.6 586.85 1838.6 587.7 1838.6 590 1838.65 592.25 1838.65 595.05 1838.7 597.85 1838.6 600.4 1838.6 600.75 1838.6 601.1 1838.6 601.5 1838.55 601.8
L 1838.55 603 1838.5 603.2 1838.5 603.5
Q 1838.5 603.65 1838.55 603.85 1838.55 604 1838.55 604.2
L 1838.55 604.55
Q 1838.55 605 1838.5 605.55 1838.5 606.1 1838.5 606.7 1836.4 607.05 1834.3 607.5 1832.15 607.9 1830.1 608.35 1829.05 608.55 1828 608.75
L 1824.45 609.4
Q 1823.75 609.5 1823.05 609.6
L 1820.85 610 1820.8 610 1820.3 610.1
Q 1819.05 610.3 1817.75 610.5 1816.5 610.75 1815.2 610.95
L 1814.9 611
Q 1814.75 611.05 1814.55 611.05
L 1813.9 611.15 1813.95 611.25 1813.9 611.25 1813.9 611.15
Q 1813.55 611.25 1813.2 611.3 1812.85 611.35 1812.5 611.4
L 1812.05 611.5
Q 1811.8 611.55 1811.6 611.6 1811.35 611.65 1811.1 611.7 1811.15 611.95 1811.15 612.2 1811.15 612.45 1811.15 612.65 1811.2 612.9 1811.2 613.1 1811.2 613.3 1811.2 613.45
L 1811.2 615.45
Q 1811.2 617 1811.3 618.9 1811.3 619.25 1811.3 619.6 1811.35 619.9 1811.35 620.25 1811.4 620.6 1811.45 621 1811.45 621.35 1811.5 621.75 1811.8 621.8 1812.1 621.8 1812.35 621.85 1812.65 621.9 1813 621.95 1813.4 622 1813.75 622.05 1814.15 622.1 1814.6 622.15 1815.1 622.2 1815.55 622.25 1816.05 622.3 1819 622.6 1821.9 622.8 1824.75 623 1826.95 623.25
L 1830.3 623.65
Q 1832.75 623.95 1835.7 624.3 1838.6 624.6 1840.9 624.8
L 1842.8 624.9 1843.8 624.8
Q 1843.95 624.85 1844.2 624.9 1844.45 624.95 1844.7 624.95 1845.1 624.95 1845.6 624.9 1846.15 624.85 1846.7 624.75 1851.65 623.95 1856.2 623.35 1860.8 622.7 1865.45 622.1 1870.15 621.45 1875.2 620.7 1875.5 620.65 1875.85 620.6 1876.15 620.5 1876.45 620.45 1876.8 620.35 1877.1 620.25 1877.4 620.2 1877.75 620.1 1877.75 619.55 1877.8 618.9 1877.8 618.25 1877.85 617.5 1877.85 617.35 1877.85 617.2 1877.85 617 1877.85 616.85
L 1877.85 616.3
Q 1877.85 616.15 1877.85 616 1877.85 615.9 1877.85 615.75 1877.9 614.2 1877.9 612.5 1877.95 610.85 1877.9 609.75
L 1877.85 609.45
Q 1877.55 609.45 1877.2 609.45 1876.85 609.4 1876.5 609.4
L 1875.1 609.3
Q 1874.85 609.25 1874.6 609.25
L 1873.1 609.15
Q 1870.1 608.9 1867.1 608.65 1864.1 608.35 1861.1 608.05 1859.35 607.75 1857.25 607.6 1855.2 607.45 1853.35 607.3 1852.6 607.2 1851.4 607.05 1850.25 606.85 1848.95 606.75 1848.85 605.85 1848.8 605.05 1848.75 604.25 1848.7 603.8 1848.65 601.95 1848.6 600 1848.6 598.1 1848.45 596.2
L 1848.45 596.1
Q 1848.750390625 574.0501953125 1848.95 552.05 1849.1 530 1849.15 507.9
M 1894.7 476.35
Q 1894.85 474.9 1894.85 473.1 1894.85 472.35 1894.8 471.65 1894.8 470.95 1894.75 470.25
L 1891.4 470.25
Q 1891.05 470.25 1890.75 470.25
L 1890.35 470.25
Q 1890.15 470.25 1889.95 470.3
L 1889.25 470.3
Q 1873.55 470.45 1857.85 471.05 1842.15 471.65 1826.45 471.85 1825.35 471.85 1824.35 471.9 1823.3 471.9 1822.2 471.9
L 1821.65 471.9 1821.65 472.5 1821.45 472.75
Q 1820.95 473.25 1820.5 473.75 1820.05 474.25 1819.65 474.75 1815.25 480.15 1810.65 485.3 1806.1 490.4 1801.75 495.7
L 1801.65 495.8 1801.85 495.8
Q 1801.75 495.85 1801.7 495.95 1801.6 496.05 1801.5 496.1
L 1801.45 496.2 1801.35 496.3 1801.2 496.5 1801.15 496.45 1801.1 496.5
Q 1800.55 495.85 1799.95 495.25 1799.4 494.65 1799.05 494.45
L 1798.8 494.4 1798.7 494.35
Q 1797.95 494.55 1797.8 495.8 1797.65 497.05 1797.75 498.25
L 1797.85 499.6
Q 1797.85 500.25 1797.85 501.7 1797.8 503.15 1797.9 504.5 1798.05 505.9 1798.5 506.3
L 1798.5 506.35 1798.55 506.35 1798.65 506.4 1799 506.35 1799.25 506.35
Q 1799.4 506.35 1799.6 506.35 1799.8 506.35 1799.95 506.3
L 1801.45 506.3
Q 1809.75 506.15 1818.1 505.8 1826.4 505.45 1834.7 505.25
L 1834.75 505.15 1835.15 505 1848 505.1 1848.4 505.15 1848.75 505.15 1849.1 505.1 1849.5 505.1
Q 1849.75 505.1 1849.95 505.1
L 1853.15 505.05
Q 1854.05 505.05 1854.9 505.05 1855.8 505.05 1856.7 505 1858.85 504.95 1861 504.95 1863.2 504.9 1865.35 504.85 1865.55 504.85 1865.8 504.85
L 1866.2 504.85 1866.5 504.8 1866.75 504.8
Q 1867.5 504.8 1868.2 504.8 1868.9 504.75 1869.6 504.75 1869.8 504.55 1870 504.35 1870.2 504.1 1870.4 503.9 1871.1 503.15 1871.5 502.65
L 1871.85 502.25 1871.95 502.1 1872.15 501.95 1872.35 501.75 1872.5 501.55 1873.05 501
Q 1873.35 500.7 1873.6 500.45
L 1874.05 500
Q 1878.85 495.25 1883.65 490.5 1888.5 485.75 1893 480.7 1893.65 480 1894 479.4 1894.3 478.8 1894.35 478.4
L 1894.45 478.1 1894.6 477.5 1894.7 476.35 Z"/>


</g>

<g id="Symbol_99_0_Layer0_0_FILL">
<path fill="#0081c6" stroke="none" d="
M 1218.95 272.15
Q 1219.2 271.65 1219.35 271.15 1219.55 270.65 1219.65 270.2
L 1220.8 267.4 1221.15 265.6
Q 1221.05 264.25 1219.9 263.85 1218.7 263.5 1216.95 263.2 1216.55 263.25 1216.2 263.4 1215.85 263.6 1215.55 263.8 1214.1 264.55 1213.1 266.15 1212.05 267.7 1211.5 269.15
L 1210.8 270.9
Q 1208.2 275.75 1205.6 280.65 1203 285.55 1200.45 290.45 1181.25 326.4 1162.15 362.5 1143.1 398.55 1124.1 434.6 1122.65 437 1121.3 439.6 1119.9 442.15 1118.6 444.65 1118.15 445.55 1118.15 446.15 1118.2 446.75 1118.55 447 1118.65 447.35 1118.85 447.7 1119.1 448.1 1119.45 448.5 1120.1 449.1 1121.55 449.95 1123 450.85 1124.75 451.6 1125.35 452.4 1126.6 452.8 1127.8 453.15 1129.35 452.35 1129.55 452.3 1129.7 452.2 1129.85 452.05 1129.95 451.9 1130.1 451.8 1130.2 451.65 1130.35 451.5 1130.5 451.3 1131.15 450.8 1131.6 450.1 1132.05 449.35 1132.3 448.8 1133.3 447.2 1134.1 445.75
L 1134.65 444.55 1134.8 443.8
Q 1148.9 415.75 1162.85 387.4 1176.8 359.1 1190.35 330.85 1190.65 330.3 1190.8 329.75 1190.95 329.25 1191 328.75 1195.1 320.45 1199.15 312.1 1203.25 303.75 1207.3 295.45 1210.2 289.6 1213.1 283.8 1216 277.95 1218.95 272.15 Z"/>
</g>

<g id="Symbol_100_0_Layer0_0_FILL">
<path fill="#FFFFFF" stroke="none" d="
M 1218.85 266.5
L 1218.05 265.65
Q 1217.35 264.95 1216.65 265.3
L 1201.05 294.4
Q 1187.55 320.05 1170.1 353.55 1152.65 387.05 1138.6 414.2
L 1121.2 447.8 1128.75 451.05 1218.85 266.5 Z"/>
</g>

<g id="Symbol_97_0_Layer0_0_FILL">
<path fill="#0081c6" stroke="none" d="
M 1080.3 454.4
L 1072.3 456.4 1049 464.75 1034.3 472.3 1029.75 475.4 1029.7 475.4 1027.6 477.1 1020.2 485.1 1009.55 500.8 990.6 537.35 990.35 537.05 989.95 537.05 989.6 537.25 989.5 537.5 989.8 538.65 985.85 544.95 985.8 545.4 986.05 545.7 986.45 545.8 986.65 545.7 986.85 545.55 990.2 540.15 1022.7 669.95 1035.8 730.95 1039.85 746.7 1040.8 749.2 1040.85 749.25 1040.85 749.3 1042.1 751.45 1043.65 753.4 1045.45 755.15 1049.55 758 1056.3 761.05 1058.6 761.85 1058.65 761.85 1063.3 763.2 1072.95 764.85 1082.75 765 1095.8 763.35 1106 760.7 1110.9 758.6 1113.2 757.15 1115.1 755.25 1115.1 755.15 1115.2 755.05 1116.4 752.6 1118.1 747.25 1124 720.35 1129.7 685.05 1132.5 621.5 1133.2 574.45 1129.75 520 1128.85 514.6 1118.8 473.35 1115.7 466.05 1111.4 459.35 1109.75 457.3 1109.7 457.3 1107.6 455.4 1107.55 455.4 1107.5 455.35 1105.05 454.1 1105 454.1 1102.3 453.3 1099.5 452.85 1094 452.65 1080.3 454.4 Z"/>
</g>

<g id="Symbol_98_0_Layer0_0_FILL">
<path fill="#FFFFFF" stroke="none" d="
M 961.6 465.5
Q 955.25 471.95 958 477.55
L 962.5 487.9 969.5 506.15
Q 977.75 528.4 987.25 555.8 996.75 583.25 1003.8 605
L 1009.35 622.65 1011.85 632.1
Q 1013.35 642.45 1016.75 658 1020.1 673.55 1024.15 690.55 1028.15 707.55 1031.55 722.2 1035 736.8 1036.6 745.3
L 1039.25 747.75 1044.35 751.25
Q 1050.7 755.3 1060.1 758.65 1069.45 762.05 1079.95 762.05 1091.2 761.6 1101.55 758.25 1111.9 754.95 1118.6 751.35
L 1123.65 748.4 1125.55 746.6
Q 1127.4 715.15 1127.6 690.5 1127.8 665.9 1127.1 645.35 1126.4 624.85 1125.5 605.75 1124.75 589.35 1124.8 565 1124.9 540.65 1126.45 512.75 1128.05 484.85 1131.85 457.8 1135.6 430.8 1142.3 409.05 1145.15 398.5 1134 400.15 1122.85 401.8 1104.55 409.6 1086.25 417.45 1067.7 425.4 1049.15 433.35 1037.25 435.45 1022.6 437.55 1007.55 442.25 992.5 446.9 980.2 453 967.95 459.1 961.6 465.5 Z"/>
</g>

<g id="Symbol_77_0_Layer0_0_FILL">
<path fill="#FFFFFF" stroke="none" d="
M 821.85 475.4
Q 820.2 461.95 816.15 448.85 812.1 435.8 804.45 428.75 796.85 421.75 784.6 426.4 772.6 431.55 760.45 440.8 748.3 450.05 737.35 460.7 726.4 471.3 718.1 480.5 709.85 489.65 705.6 494.65 698.15 503.3 688.9 516 679.65 528.7 670.9 542.3 662.15 555.9 656.25 567.15 650.35 578.4 649.65 584.15 648.85 595.9 655.8 609.65 662.75 623.4 674.4 636.4 686.1 649.35 699.45 658.75 712.85 668.1 724.85 671.05 732.95 672.95 744.8 673.25 756.65 673.5 770.85 671.05 785.1 668.6 800.2 662.4 813.3 657.2 822.7 656.1 832.1 655.05 837.55 655.2
L 842 654.95 844.25 653.85
Q 847.15 633.45 844.8 610.45 842.45 587.45 837.75 565.25 833.05 543.05 828.85 525.15 824.65 507.25 823.85 497.05 823.5 488.85 821.85 475.4 Z"/>
</g>

<g id="Symbol_92_0_Layer0_0_FILL">
<path fill="#FFFFFF" stroke="none" d="
M 743.05 735.4
L 745.45 761.95
Q 747.75 786.5 750.75 818.5 753.8 850.55 756.1 875
L 758.55 901.15
Q 763.6 907.75 774.7 912.05 785.8 916.35 799.75 917.75 813.7 919.2 827.35 917.15 840.95 915.1 851 908.95
L 854.25 899.3
Q 857.25 890.2 861.45 875.65 865.6 861.15 869.25 844.55 872.1 831.05 874.65 814.7 877.2 798.3 879.2 783.15 881.2 767.95 882.35 758.1
L 883.55 747.75
Q 876.05 734 856.85 729 837.7 723.95 814.4 724.7 791.15 725.4 771.4 728.8 751.65 732.25 743.05 735.4 Z"/>
</g>

<g id="Symbol_19_0_Layer0_0_FILL">
<path fill="#0081c6" stroke="none" d="
M 943.65 840.8
Q 942.6 838.75 942.2 837.35 941.45 834.6 941.05 831.85 940.7 829.05 940.15 826.35
L 939.65 824.85 939.1 824.45
Q 938.5 824.55 938.05 825.8 937.65 827 937.65 828.25 937.8 831.4 938.75 835.75 939.7 840.1 941.85 843.7 943.95 847.3 947.65 848.15 951.1 848.6 953.45 845.55 955.8 842.55 957.1 838.5 958.4 834.45 958.75 831.75 958.9 830.75 958.95 828.85 959 826.95 958.7 825.25 958.4 823.5 957.45 822.95
L 957.25 822.9
Q 957.1 822.9 957.05 822.95 956.7 823.3 956.6 823.8
L 956.45 824.5
Q 956.2 826.4 956.15 828.4 956.15 830.4 955.8 832.35 955.5 834.05 954.65 836.85 953.8 839.65 952.5 842.15 951.2 844.6 949.5 845.25 947.75 845.7 946.2 844.3 944.7 842.85 943.65 840.8 Z"/>
</g>

<g id="Symbol_20_0_Layer0_0_FILL">
<path fill="#FFFFFF" stroke="none" d="
M 923.4 167.5
Q 916.1 172.05 911.35 176.95
L 907.6 181.2 905.95 184.05 905.45 187 905.3 191.9
Q 905.3 197.7 905.6 204.45 905.9 211.2 906.25 216.1
L 906.6 221.25 909.7 221.65
Q 912.6 222.1 915.6 222.4
L 917.9 222.55 919 222.45
Q 925.6 213.05 929.15 207.95 932.7 202.85 934.35 199.75 936 196.65 936.85 193.3 937.85 189.35 938.6 182.3 939.4 175.25 939.55 169.1
L 939.45 164.2 938.9 161.8
Q 930.7 162.95 923.4 167.5 Z"/>
</g>

<g id="Symbol_21_0_Layer0_0_FILL">
<path fill="#FFFFFF" stroke="none" d="
M 849.85 162.55
L 848.25 160.3
Q 838.8 166.65 832.2 176.9 825.6 187.2 822.15 196.8 818.7 206.45 818.75 210.75 819.1 213.45 822.1 219.15 825.1 224.9 829 231.2 832.85 237.55 835.8 242.05
L 838.85 246.75 842.7 244.9
Q 846.3 243.25 849.9 241.4
L 852.7 239.85 853.9 238.95
Q 856.8 225.15 857.8 215.3 858.75 205.45 858.55 199.35 858.3 193.3 857.6 190.7 856.85 187.7 855.2 180.75 853.55 173.8 851.65 167.5
L 849.85 162.55 Z"/>
</g>

<g id="Symbol_22_0_Layer0_0_FILL">
<path fill="#FFFFFF" stroke="none" d="
M 661.65 767.35
L 648.9 766.15
Q 647.3 766.15 646.3 767.25 645.25 768.35 645.2 769.8 645.15 771.3 646.5 772.5
L 649.1 773.9 654.55 776.1
Q 661.45 778.7 672.95 780.7 684.4 782.7 699.15 781.9 713.85 781.15 730.65 775.45 742.3 771.1 752.6 762.8 762.95 754.5 770.9 745.45 778.9 736.4 783.5 729.9
L 788.3 722.65 787.25 721.25 784.35 718.45
Q 780.55 714.95 775.95 710.9 771.3 706.9 768.6 704.6 766.5 707.95 761.25 715.5 756 723 748.5 732 741.05 741.05 732.35 748.9 723.6 756.75 714.6 760.8 701.2 766.2 686.75 767.2 672.35 768.2 661.65 767.35 Z"/>
</g>

<g id="Symbol_23_0_Layer0_0_FILL">
<path fill="#0081c6" stroke="none" d="
M 1065.35 476.45
Q 1060.65 471.65 1055.15 467.15 1049.9 462.3 1043.85 457.85 1037.85 453.35 1031.05 449.3 1030.85 449 1030.65 448.7 1030.45 448.45 1030.25 448.25 1029.8 448.15 1029.45 448.1 1029.1 448.05 1028.85 448.05 1027.65 447.4 1026.2 446.65 1024.7 445.85 1023.55 445.2 1023 444.85 1022.45 444.95 1021.9 445.1 1022.3 446
L 1022.85 446.45 1024.25 447.4
Q 1026.1 448.65 1028.75 450.4
L 1029 451.1
Q 1029.1 451.5 1029.25 451.95 1032 460.1 1035.5 468 1038.95 475.95 1041.85 484.05 1047.45 501.25 1049.3 518.55 1051.15 535.85 1052.65 553.05 1054.2 570.3 1058.8 587.2 1064.45 607.2 1064.6 627.25 1064.7 647.35 1060.1 667.05 1055.55 686.7 1047.1 705.45
L 1045.45 708.4
Q 1044.05 710.85 1042.35 714.35 1040.6 717.85 1039.5 721.4 1038.9 722.25 1038.4 723.05 1037.95 723.9 1037.8 724.65 1038.05 724.7 1038.3 724.7 1038.55 724.65 1038.8 724.6 1038.6 726.25 1038.8 727.65 1039 729 1039.8 729.95 1039.3 730.75 1038.9 731.45 1038.55 732.2 1038.45 732.8 1039.4 732.8 1040.35 731.85 1041.25 730.9 1041.6 730.45 1053.3 718.3 1062.8 700.85 1072.35 683.35 1079.15 663.4 1085.9 643.4 1089.35 623.8 1091.7 615.55 1093.25 606.7 1094.85 597.8 1095.6 588.75 1097.15 580.1 1097.85 571.3 1098.55 562.55 1098.2 555.25 1098.15 554 1098.05 552.7 1097.95 551.4 1097.8 550 1097.15 540.2 1094.05 528.45 1090.95 516.75 1085.8 505.65 1080.65 494.5 1074 486.45 1070.05 481.3 1065.35 476.45
M 1047.95 715.9
Q 1050.5 713 1052.8 710 1051.9 711.3 1050.95 712.6 1050 713.95 1049 715.3 1048.55 715.75 1047.6 716.9 1046.65 718 1046.65 719.1 1046.8 719.15 1047.05 719.2
L 1047.35 719.2
Q 1047.45 719.2 1047.6 719.05 1047.75 718.95 1047.95 718.75
L 1048 718.85 1048.3 718.9
Q 1047.2 720.4 1046.1 721.95 1045 723.45 1043.9 724.95 1043.5 725.45 1042.45 726.65 1041.4 727.8 1040.3 729.25 1040.05 727.9 1040.25 726.4 1040.45 724.9 1040.95 723.45 1041.55 722.95 1041.95 722.45 1042.4 722 1042.65 721.75 1045.4 718.85 1047.95 715.9
M 1080.65 652.8
Q 1080.1216796875 654.5361328125 1079.55 656.25 1080.075 654.55 1080.6 652.85 1081.1283203125 651.1140625 1081.65 649.35 1081.175 651.1 1080.65 652.8
M 898.95 786.2
L 900.7 786.5
Q 902.75 786.8 904.8 786.95 906.9 787.15 908.95 787.2 908.75 787.55 909.2 787.75 909.65 787.95 910.65 788.1 911.05 788.15 911.4 788.2 911.8 788.25 912.25 788.3 911.25 788.4 910.25 788.45
L 906.6 788.7
Q 905.35 788.8 904.35 789.25 904.25 789.25 904.05 789.45 903.85 789.6 903.85 789.75 904.1 790.75 904.85 790.85 905.6 790.95 906.6 790.9 918.15 790.45 929.05 788.8 940 787.15 951.35 784.85 952.05 784.75 953.7 784.35 955.35 783.95 956.2 783.1 956.2 782.8 955.95 782.7 955.75 782.6 955.6 782.6
L 955.25 782.55
Q 954.9 782.55 954.45 782.6 954.05 782.5 953.6 782.55 953.15 782.6 952.9 782.6 944.55 782.6 936.2 783.5 927.9 784.4 919.55 785.05 911.25 785.7 902.95 784.85
L 901.3 784.65
Q 900.05 784.5 898.95 784.65
L 898.3 785.4 898.25 785.85 898.95 786.2
M 940.85 785.05
Q 941.05 785 941.25 784.9 941.45 784.85 941.6 784.75 942 784.75 942.4 784.7
L 943.15 784.65
Q 942.75 784.7 942.5 784.75 942.25 784.8 942.05 784.85 941.75 784.9 941.45 784.95 941.15 785 940.85 785.05
M 746.95 525.2
L 746.65 522.9
Q 746.35 521.15 745.75 519.8 745.5 519.55 745.2 519.6 744.9 519.6 744.7 519.9
L 744.5 520.9 744.4 522.95
Q 744.35 525.45 744.4 528.2
L 744.4 531.9
Q 744 540.75 744.55 548.65 745.15 556.55 746.2 564.3 747.25 572.1 748.25 580.55 748.9 586 749.85 591.65 750.8 597.3 751.7 603 751.75 603.65 751.85 604.25 751.95 604.85 752.05 605.4 752.45 607.95 752.7 610.5 753 613 753.2 615.45 753.1 616.35 753.1 617.3 753.05 618.25 753.15 619.1 753.15 619.7 753.1 620.3 753.1 620.95 753.2 621.6 752 626.25 751 630.9 750 635.55 749.3 640.15 747.4 651.05 745.1 661.9 742.75 672.8 741.85 683.75 741.2 693.5 742.5 700.75 743.8 708 746.85 714.75 749.95 721.5 754.7 729.6 754.85 729.85 755.1 730.4 755.35 730.95 755.7 731.65 755.7 731.9 755.75 732.2 755.8 732.45 755.95 732.7
L 756.2 732.65
Q 756.65 733.45 757.15 734.1 757.7 734.8 758.25 735.1 758.55 734.95 758.55 734.6 758.55 734.25 758.55 734.05 758.55 733.6 758.4 732.95 758.2 732.35 757.85 731.6 759.15 730 759.85 727.9
L 760.65 725.2
Q 762.05 718.85 763.25 712.15 764.4 705.5 765.4 699.1 767.9 683.7 770.35 667.85 772.8 652.05 774.3 636.55 775.4 623.5 773.25 609.95 771.05 596.4 766.4 583.25 766.45 582.65 766.4 582.1 766.4 581.55 766.25 581.1 766.1 581.1 765.95 581 765.75 580.9 765.7 580.95
L 765.6 581
Q 762.4 572.3 758.35 564.15 754.35 556 749.8 548.7
L 748.7 547.05
Q 747.8 545.75 747 544.65 747 544.55 746.8 544.45 746.6 544.4 746.45 544.45 746.65 539.75 746.85 535 747.1 530.25 746.95 525.2 Z"/>
</g>

<g id="Symbol_24_0_Layer0_0_FILL">
<path fill="#FFFFFF" stroke="none" d="
M 955.75 420.8
Q 923.4 422.75 881.3 425.7 839.2 428.7 807.35 431.05
L 773.8 433.5 767.65 442.5
Q 761.8 451.25 754.9 465.8 748 480.35 744.45 497.95 741.2 515.95 744.85 544.05 748.45 572.1 758.1 610.45 757.3 616.6 755.2 629.35 753.05 642.15 750.75 656.85 748.4 671.6 746.95 683.6 745.5 695.65 746.05 700.2 746.95 706.4 750.7 717.2 754.5 727.95 761 740.05 767.5 752.2 776.7 762.4 785.85 772.65 797.65 777.8 812.25 783.6 833.95 786 855.7 788.35 880.2 788.2 904.7 788 927.6 786.1 950.5 784.2 967.5 781.4 987.75 778 1003.3 768.2 1018.8 758.45 1030.9 743.6 1043 728.8 1053 710.35 1058.6 700.25 1064 687.05 1069.45 673.9 1074.15 658.85 1078.85 643.75 1082.2 627.95 1085.7 611.1 1087.45 594.8 1089.15 578.55 1089.25 564.2 1089.35 549.85 1087.85 538.85 1083.75 512.8 1069.1 491.25 1054.45 469.7 1036.7 453.9 1019 438.1 1005.65 429.2
L 990.7 419.45 980.65 419.45 955.75 420.8 Z"/>

<path fill="#0081c6" stroke="none" d="
M 1027.1 329.9
Q 1025.65 330.9 1025.7 332.9 1025.8 334.9 1026.1 336.6 1024.85 337.25 1024.8 339.6 1024.7 341.9 1025.05 344.1
L 1025.45 346.5
Q 1025.95 351.5 1025.75 356.7 1025.5 361.9 1026.35 367.3 1027.55 374.3 1026.85 382.45 1026.2 390.6 1024.1 398.45 1021.95 406.3 1018.8 412.35
L 1017.85 414.15 1017.55 415.05 1018.05 415.4 1019.45 415.5
Q 1020.4 414.6 1021.2 413.25
L 1022.2 411.45
Q 1023.4 408.85 1024.4 406.05 1025.4 403.3 1026.8 401.25 1028.75 398.55 1029.95 393.9 1031.2 389.25 1031.65 384.35 1032.15 379.4 1031.75 375.75 1031.6 374.25 1031.55 372.75 1031.5 371.25 1031.55 369.7 1032.15 366.9 1032.15 364.3 1032.15 361.65 1031.95 358.45 1031.75 354.45 1031.85 351.1 1031.9 347.75 1032.1 343.95
L 1032.2 341.9
Q 1032.25 340.15 1031.9 338.35 1031.6 336.5 1030.55 335.8 1030.35 335.85 1030.2 335.95 1030.05 336 1029.9 336.1 1029.65 333.9 1029.25 332.45 1028.9 330.95 1028.35 330.5 1028.2 330.35 1027.85 330.15 1027.5 329.95 1027.1 329.9 Z"/>
</g>

<g id="Symbol_25_0_Layer0_0_FILL">
<path fill="#0081c6" stroke="none" d="
M 1051.6 302.65
Q 1051.1 301.5 1049.9 301.45 1048.7 301.35 1047.4 301.75 1046.05 302.15 1045.05 302.5 1041.65 303.6 1040.45 307.2 1039.3 310.8 1039.3 315.15 1039.3 319.45 1039.35 322.7 1039.25 328.1 1039 333.2 1038.75 338.3 1039 343.75 1039.6 354.4 1039.5 364.75 1039.45 375.05 1039.05 385.7 1039 387.3 1039.05 390.35 1039.1 393.4 1039.4 396.75 1039.2 396.8 1039.05 396.85 1038.85 396.95 1038.6 397.05
L 1038.35 397.45
Q 1038.15 397.8 1037.75 398.05
L 1036.75 398.75 1036.2 399.25
Q 1035.95 399.6 1035.9 400.3 1035.55 401.2 1035.4 402.15 1035.25 403.05 1035.15 403.6 1035 404.15 1034.85 404.75 1034.65 405.35 1034.4 405.85
L 1034.25 406.35
Q 1034.1 406.7 1034 407 1032.6 406.6 1031.55 408.35 1030.55 410.1 1029.95 412.1
L 1029.3 414.3
Q 1028.7 415.3 1027.8 416 1026.9 416.7 1025.9 418.5 1024.85 420.65 1023.9 422.45 1022.9 424.25 1021.95 425.95 1022.45 424.2 1022.4 422.75 1022.3 421.25 1021.3 420.45 1020.55 421 1019.95 422.2 1019.3 423.4 1018.85 424.6 1018.45 425.75 1018.2 426.25 1017.1 428.5 1014.65 432.65 1012.25 436.8 1009.65 440.6 1007 444.45 1005.25 445.75
L 1004.55 445.85
Q 1003.9 445.95 1003.55 446.35 1003.25 446.45 1003.3 446.75
L 1003.35 447.1
Q 1003.35 447.25 1003.7 447.4
L 1004 447.65
Q 1003.6 448.7 1002.5 450 1001.45 451.3 1000.1 452.75 991.1 453.95 981.6 455.45 972.1 456.95 962.75 459.1 953.4 461.3 944.95 464.6 938.2 467.25 931.45 469.75 924.65 472.25 917.95 474.8
L 915.85 475.85
Q 914.3 476.7 913.2 477.8 913.15 478.05 913.2 478.35 913.2 478.6 913.3 478.85 913 479.05 913.05 479.35 913.15 479.6 913.4 479.9 915.9 482.6 922.7 483.95 929.5 485.35 936.7 485.8 943.9 486.3 947.6 486.4 964 486.85 978.3 481.8 992.6 476.75 1005.35 467.8 1009.2 465.65 1012.65 463.1 1016.1 460.55 1019.25 457.3 1025.05 451.85 1029.5 444.45 1033.9 437.05 1037.35 426.95 1037.55 426.6 1037.7 426.25 1037.9 425.9 1038.1 425.55 1043.35 415.6 1046.75 403.1 1050.2 390.65 1052.2 377.6 1054.2 364.6 1055.3 353 1055.45 351.85 1055.7 349.8 1055.9 347.8 1055.85 346.2 1056.1 340.75 1055.8 335.45 1055.5 330.2 1054.95 324.45 1054.75 321.3 1054.4 317.3 1054.05 313.3 1053.45 309.4 1052.8 305.5 1051.6 302.65 Z"/>
</g>

<g id="Symbol_26_0_Layer0_0_FILL">
<path fill="#0081c6" stroke="none" d="
M 980.9 222.3
L 981.3 221
Q 981.55 220.05 981.4 219.3 980.9 218.9 980.7 219.3 980.5 219.75 980.35 220.35 979.2 224.05 977.7 227.6 976.2 231.2 974.35 234.55 972.25 238.5 969.8 242.15 967.35 245.85 964.55 249.25 964.25 249.55 963.6 250.25 962.9 251 962.7 251.7
L 962.85 251.8
Q 962.5 252.1 962.3 252.4 962.05 252.75 962 253.1 962.3 253.4 962.7 253.25 963.1 253.1 963.35 252.9 965.8 251.45 968.65 248.45 971.5 245.4 974.15 242 976.75 238.6 978.35 236.15 978.5 235.95 978.8 235.5 979.1 235 979.4 234.45 979.6 234.1 979.7 233.7 979.8 233.35 979.75 233 979.3 232.75 979 233.15 978.7 233.55 978.5 233.95 978.35 234.15 978.25 234.35 978.1 234.55 977.95 234.75 978.3 233.9 978.4 233.1 978.45 232.3 978.05 231.7 977.7 231.5 977.45 231.6 977.2 231.7 977 232 978.2 229.5 979.2 227.05 980.15 224.6 980.9 222.3
M 966.6 248.5
L 966.85 248.2 966.9 248.2 966.6 248.5 Z"/>

<path fill="#FFFFFF" stroke="none" d="
M 966.85 248.2
L 966.6 248.5 966.9 248.2 966.85 248.2
M 1012.45 184.25
Q 1009.55 185.35 1007.8 188.35 1002.5 197.95 997.95 206.1 993.45 214.25 988.95 221.25 984.5 228.25 979.4 234.45 979.1 235 978.8 235.5 978.5 235.95 978.35 236.15 976.75 238.6 974.15 242 971.5 245.4 968.65 248.45 965.8 251.45 963.35 252.9 963.1 253.1 962.7 253.25 962.3 253.4 962 253.1 962.05 252.75 962.3 252.4 962.5 252.1 962.85 251.8
L 962.7 251.7
Q 962.9 251 963.6 250.25 964.25 249.55 964.55 249.25 967.35 245.85 969.8 242.15 972.25 238.5 974.35 234.55 971.45 233.45 967.2 231.7 962.95 229.95 958.2 227.85 953.5 225.75 949.2 223.55 942.25 219.6 928.3 216.3 914.3 213 894.95 214.6 875.65 216.15 852.55 227 840.85 232.9 833.35 239.5 825.8 246.1 821.95 251.35
L 817.3 258.3
Q 812.95 267.05 807.85 285.25 802.75 303.45 798.15 323.75 793.55 344 790.75 358.9
L 788.65 370.6 788.15 375.95 789.35 379.6 792.45 386.35
Q 796.5 394.6 805.7 407.45 814.9 420.3 830.8 436.3 844.75 449.8 859.75 458.55 874.75 467.25 887.8 472.1 900.85 476.95 909 478.85 931 483.95 950.9 481.3 970.85 478.7 985.75 472.2 1000.65 465.75 1007.65 459.3 1022.45 445.6 1031.65 423.7 1040.85 401.8 1044.75 375.3 1048.6 348.75 1047.35 321.1 1045.55 286.9 1040.65 259.3 1035.75 231.65 1030.45 213.15 1025.1 194.65 1022.15 187.85 1020.8 184.9 1018.05 184 1015.3 183.1 1012.45 184.25 Z"/>
</g>

<g id="Symbol_27_0_Layer0_0_FILL">
<path fill="#FFFFFF" stroke="none" d="
M 789.2 341.6
Q 785.8 347.35 777.75 359.8 769.7 372.25 759.95 387.45 750.2 402.65 741.65 416.8 733.1 430.9 728.8 440
L 777.9 447.45
Q 824.55 454 885.8 462.15 947 470.25 993.15 475.85
L 1028.15 479.8 1040.8 480.45 1033 470.6
Q 1027.2 463.4 1019.85 454.8 1012.5 446.25 1006.05 439.35 999.55 432.5 996.25 430.45
L 960.45 414.6
Q 929.2 401.1 889.65 384.25 850.05 367.4 820.4 354.85
L 789.2 341.6 Z"/>
</g>

<g id="Symbol_28_0_Layer0_0_FILL">
<path fill="#0081c6" stroke="none" d="
M 840.25 295.25
Q 839.9 295.3 839.65 295.65 839.4 295.95 839.3 296.45 839.25 296.7 839.2 297.05 839.15 297.4 839.1 297.75 839.05 298.4 839.05 299.15 839.05 299.85 839.05 300.45 839.1 304.75 839.4 307.2 839.7 309.7 840.3 311.95 841.5 316.85 843.65 320.55 845.85 324.25 849.5 325.35 850.15 325.6 850.85 325.6 851.55 325.6 852 325.5 855.2 324.65 857.8 321.95 860.35 319.3 862 315.55 863.65 311.85 864.2 308
L 864.3 307.3
Q 864.4 306.75 864.4 306.1 864.6 305.1 864.55 304.3 864.5 303.45 864.15 302.9 863.7 303.05 863.5 303.6 863.35 304.15 863.3 304.4 862.1 308.55 861.1 311.75 860.15 315 858.35 317.35 856.6 319.7 852.9 321.2 850.25 322.05 847.95 319.1 845.65 316.1 844.05 311.55 842.45 306.95 841.85 303.1 841.65 302.2 841.45 301.3 841.3 300.35 841.15 299.4 841 298.1 840.8 297.1 840.55 296.15 840.25 295.25 Z"/>
</g>

<g id="Symbol_29_0_Layer0_0_FILL">
<path fill="#FFFFFF" stroke="none" d="
M 915.85 293.65
Q 914.9 283.9 909.2 276.25 903.5 268.6 890.55 266.1 877.35 264.2 869.25 269.95 861.1 275.7 856.6 284.55 852.15 293.35 849.95 300.7 858.85 301.75 870.05 303.6 881.25 305.45 893.05 307.7 904.8 309.9 915.4 312.05 916.75 303.35 915.85 293.65 Z"/>
</g>

<g id="Symbol_30_0_Layer0_0_FILL">
<path fill="#0081c6" stroke="none" d="
M 1057.8 788
L 1057.15 787.9
Q 1056.65 787.85 1056.25 787.8 1056.2 787.8 1056.1 787.85 1056.05 787.85 1056 787.85 1055.45 788.3 1055.4 788.6 1055.4 788.9 1055.75 789.15 1055.55 790 1055.4 790.8 1055.3 791.6 1055.15 792.15 1050.75 810.55 1047 827.9 1043.2 845.3 1039.6 862.7 1036 880.1 1032.15 898.55 1031.9 899.75 1032 900.7 1032.1 901.65 1032.45 902.35 1030.85 903.2 1029.25 903.95 1027.7 904.7 1026.2 905.35 1023.65 906.15 1021.1 906.85 1018.55 907.55 1015.9 908.1
L 1012.15 908.6
Q 1008.95 909.05 1006 910.1 1003.05 911.15 1003.1 913 1003.35 913.3 1003.7 913.35 1004.1 913.4 1004.5 913.3 1004.75 913.45 1005.05 913.55 1005.35 913.65 1005.6 913.7
L 1008.5 913.55 1013.1 912.6
Q 1018.5 911.2 1023.95 909.35 1029.35 907.5 1031.35 906.35 1031.9 906.05 1033.15 905.25 1034.4 904.5 1035.3 903.55 1035.85 903.25 1036.3 902.5 1036.75 901.8 1037 900.6 1041.1 882.35 1044.85 865 1048.6 847.6 1052.25 830.2 1055.9 812.8 1059.7 794.55
L 1059.85 793.6
Q 1059.95 792.7 1060 791.45 1060.3 790.1 1059.95 789.15 1059.65 788.2 1057.8 788 Z"/>
</g>

<g id="Symbol_31_0_Layer0_0_FILL">
<path fill="#FFFFFF" stroke="none" d="
M 899.05 742.6
Q 901.3 752.35 904.65 766.95 907.95 781.5 911.25 796.45 914.55 811.4 916.75 822.3 918.65 831.3 922.4 844.05 926.2 856.75 930.35 869.3 934.5 881.85 937.45 890.3
L 940.6 899.25
Q 950.75 905.1 963.9 907.95 977.05 910.8 990.55 911 1004.1 911.2 1015.4 909.15 1026.75 907.05 1033.3 903
L 1035.05 895.2
Q 1036.8 887.8 1039.5 875.8 1042.25 863.85 1045.35 849.7 1048.4 835.5 1051.15 821.55 1055.2 801 1058.05 786.4 1060.85 771.8 1062.35 763.85
L 1063.8 755.35
Q 1055.1 752.4 1032.9 746.7 1010.75 741 983.55 735.75 956.35 730.45 932.55 728.85 908.75 727.2 896.7 732.35
L 899.05 742.6 Z"/>
</g>

<g id="Symbol_32_0_Layer0_0_FILL">
<path fill="#0081c6" stroke="none" d="
M 938.3 828.5
Q 938.5 831.6 939.5 835.45 940.5 839.25 942.25 842.4 943.95 845.55 946.3 846.7 950.3 848.25 953.15 845.6 956 842.95 957.6 838.15 959.2 833.4 959.35 828.65 959.4 827.55 959.25 826 959.1 824.45 958.4 824.45 958.25 824.75 958.1 825.1
L 957.95 825.6
Q 957.35 827.6 957.1 829.8 956.8 831.95 956.3 834.1 955.15 838.55 953 841.25 950.85 843.95 948.25 843.6 945.7 843.25 943.35 838.65 942.15 836.05 941.4 832.95 940.6 829.9 939.6 827.1 939 825.7 938.6 826.55 938.25 827.35 938.3 828.5 Z"/>
</g>

<g id="Symbol_5_0_Layer0_0_FILL">
<path fill="#A6CE38" stroke="none" d="
M 957.25 636.4
L 900.4 636.15 928.35 847.5 957.25 636.4 Z"/>
</g>

<g id="Symbol_35_0_Layer0_0_FILL">
<path fill="#AED044" stroke="none" d="
M 1357.3 241.55
Q 1354.55 236.65 1346.9 233.95
L 1346.15 234.05
Q 1345.55 234.15 1345.05 233.95 1344.8 233.95 1344.5 234 1344.2 234 1343.9 234.05 1344.3 232.7 1343.7 232.2 1343.1 231.7 1341.15 231.95 1338.6 233.75 1336.7 237.05
L 1334.25 241.5
Q 1323.25 260.8 1313.5 281.05 1303.7 301.3 1294.4 321.95 1292.6 325.1 1290.85 328.25 1289.1 331.45 1287.4 334.65 1283 343.1 1279.25 352.05 1275.5 361.05 1272.05 370.2 1269.25 376 1266.35 381.75 1263.5 387.5 1260.5 393.1 1248.75 415.55 1232.25 440.95 1215.7 466.4 1196.55 489.75 1177.4 513.15 1157.8 529.5 1155.1 530.55 1152.4 531.65
L 1148.9 533.05
Q 1140.45 537.45 1132.4 544.4 1124.4 551.4 1117.45 557 1112.85 558.9 1109.3 562 1105.7 565.1 1102.8 570.8 1093.65 581.6 1091.95 594.15 1090.25 606.7 1098.9 620.85 1101 624.3 1106.4 630.85 1111.85 637.4 1118.4 642.3 1124.95 647.15 1130.45 645.5 1133.1 646.4 1135.6 646.9 1138.15 647.4 1139.2 647.6 1148.9 649.05 1166.3 645.65 1183.75 642.25 1200.65 636.1 1217.55 629.9 1225.65 623.05 1226.5 622.35 1227.8 621.15 1229.1 619.95 1229.45 619 1229.6 618.35 1229.3 617.85 1229 617.35 1228.55 617.25 1245.3 605 1258.5 594 1271.7 583 1282.8 569.4 1293.85 555.8 1304.3 535.8 1305.1 534.45 1305.9 533.05 1306.65 531.65 1307.4 530.2 1312.7 520.25 1318.05 508.8 1323.35 497.35 1328.1 485.15 1330.1 481 1332.15 476.85 1334.25 472.75 1336.4 468.6 1339.05 463.55 1341.85 452.6 1344.65 441.6 1344.95 430.1 1345.25 418.65 1340.3 412.15 1346.6 396.5 1351.4 380.1 1356.15 363.65 1360.5 347.35 1360.75 346.45 1360.95 345.65 1361.15 344.9 1361.35 344.2 1362.15 341.3 1362.95 338.4 1363.75 335.55 1364.55 332.7 1365.25 330.3 1365.7 327.85 1366.2 325.45 1366.45 323 1369.6 305.1 1368.2 288.35 1366.8 271.6 1361.8 253.8 1360.1 246.4 1357.3 241.55 Z"/>
</g>

<g id="Symbol_6_0_Layer0_0_FILL">
<path fill="#A6CE38" stroke="none" d="
M 1072.2 375.55
L 1068.15 357.75
Q 1042.15 345.2 1010.95 341.05 979.75 336.9 956.85 337.05
L 932.85 337.55 926.05 351.8
Q 919.65 365.2 912.45 380.3 905.25 395.35 902.4 401.45
L 1083.25 425.1 1079.4 407.8
Q 1075.8 391.75 1072.2 375.55 Z"/>
</g>

<g id="Symbol_7_0_Layer0_0_FILL">
<path fill="#A6CE38" stroke="none" d="
M 1001.3 267.15
Q 985.7 268.95 976.15 274.55 966.6 280.1 962.25 285.1 957.65 290.25 949.25 304.95 940.85 319.65 934.05 333.65
L 928.95 344.9 927.3 350.7
Q 928.8 356.4 938.95 362.55 949.05 368.7 963.35 373.65 977.6 378.55 991.55 380.55 1008.1 382.65 1024.7 381.35 1041.25 380.05 1053.4 375.85 1065.55 371.6 1068.75 365
L 1067.35 336.85
Q 1065.85 316.35 1059.65 296.65 1053.45 276.95 1039.5 271.65 1016.95 265.35 1001.3 267.15 Z"/>
</g>

<g id="Symbol_8_0_Layer0_0_FILL">
<path fill="#A6CE38" stroke="none" d="
M 1099.4 333.3
Q 1110.85 323.1 1118.6 311
L 1115.05 308.9 1104.95 304.7
Q 1091.55 299.45 1068.2 297.6
L 1071.15 308.1
Q 1074.2 317.9 1077.85 329.4 1081.5 340.9 1083.4 346.7
L 1099.4 333.3 Z"/>
</g>

<g id="Symbol_70_0_Layer0_0_FILL">
<path fill="#A6CE38" stroke="none" d="
M 793 728.5
L 804.5 735.2
Q 815.8 741.55 835.15 750 854.5 758.4 879 765
L 889.25 742.3
Q 898.45 720.9 910.3 692.8 922.15 664.75 931.1 643.45
L 940.5 621 915.1 609.95 793 728.5 Z"/>
</g>

<g id="Symbol_94_0_Layer0_0_FILL">
<path fill="#0081c6" stroke="none" d="
M 1098.25 386.4
Q 1097.75 385.95 1096.75 385.55 1095.8 385.1 1094.85 385.45 1094 386.15 1093.95 387.15 1093.9 388.2 1094.35 389.35
L 1094.25 389.35
Q 1091.2 392.25 1094.8 396.8
L 1099.55 402.3
Q 1102 405.9 1103.7 409.95 1105.45 414 1106.65 418.2 1106.45 418.25 1106.2 418.25 1105.95 418.25 1105.65 418.15 1105.2 418.05 1104.65 417.8 1104.1 417.5 1103.4 417.05 1103.15 416.85 1102.9 416.65 1102.6 416.5 1102.35 416.3 1105.25 425.1 1107.3 433.95 1109.35 442.75 1111.05 451.85 1110.25 452.9 1109.7 453.75 1109.15 454.6 1108.9 455.05 1092.8 482.15 1078.65 511.05 1064.45 539.95 1051.7 568.1 1044.85 582.7 1038.95 600.95 1033.05 619.2 1031.9 636.45 1030.05 637.3 1028.05 638.2 1026.1 639.05 1024.05 639.9 1020.55 641.35 1013.1 645.4
L 1007.4 649.1 1005.3 652.2 1005.45 652.5
Q 1005.6 652.75 1005.65 652.95 1008.5 653.3 1012 651.95 1015.5 650.6 1016.9 650.05 1020.8 648.7 1024.55 647.3 1028.3 645.9 1031.9 644.35 1032 645.55 1032.1 646.75 1032.2 647.95 1032.35 649.1 1033.6 655.15 1036.4 653.95 1039.2 652.75 1039.65 646.9 1039.65 645.4 1039.7 643.9 1039.75 642.4 1039.85 640.85 1040.6 640.5 1041.35 640.15 1042.1 639.8 1042.85 639.45 1042.85 639.6 1042.9 639.75 1042.95 639.9 1043.05 640.1 1046.6 640.25 1050.95 637.05
L 1055.7 633.35
Q 1057 632.4 1058.3 631.4 1059.55 630.45 1060.8 629.45 1101.3 603.25 1117.6 564.65 1133.9 526.1 1127.6 481.35
L 1127.6 481.15 1127.55 480.7
Q 1127.55 480.25 1127.5 479.5 1127.45 478.8 1127.35 477.9 1127.4 463.05 1124.15 449 1120.9 434.95 1115.35 421.4 1112.5 412.75 1107.9 402.05 1103.3 391.35 1098.25 386.4 Z"/>
</g>

<g id="Symbol_71_0_Layer0_0_FILL">
<path fill="#A6CE38" stroke="none" d="
M 925.95 432.95
L 901.5 436.05 892.05 438.1
Q 890.05 447.45 887.05 467.8 884.05 488.2 879.4 514.8 874.75 541.4 867.8 569.4 859.4 606.95 841 646.2 822.6 685.4 781.8 721.2
L 794.4 723.05 817.75 720.6
Q 846.5 716.05 887.8 703.55 929.1 691.05 974.1 671.2 1027.05 647.2 1057.7 622.85 1088.35 598.55 1102 574.15 1115.65 549.75 1117.6 525.6 1119.75 500.15 1117.15 475.2 1114.55 450.2 1111.05 433.25
L 1106.85 415.15 1073.35 418.05
Q 1041.55 421 999.7 425.15 957.85 429.3 925.95 432.95 Z"/>
</g>

<g id="Symbol_12_0_Layer0_0_FILL">
<path fill="#0081c6" stroke="none" d="
M 1010.55 296.3
Q 1010.35 296.25 1010.25 296.3 1008.2 298.45 1010.2 304.5 1012.15 310.6 1013.75 313.3 1019.1 322.2 1022.65 320.1 1026.25 318.05 1027.85 309.45
L 1028.4 306.15
Q 1028.75 303.25 1027.55 301.85 1027.25 301.75 1026.95 301.85 1026.7 302 1026.55 302.15
L 1025.35 306.8
Q 1024.6 310.7 1024.05 312.35 1023.85 313 1023.1 314.5 1022.3 316.05 1021.4 316.75 1021.25 316.75 1021.1 316.65
L 1020.9 316.5
Q 1018.55 315.1 1016.1 308.95 1013.65 302.8 1012.75 300
L 1012.2 298.35
Q 1011.75 297.15 1010.95 296.35 1010.75 296.35 1010.55 296.3 Z"/>
</g>

<g id="Symbol_13_0_Layer0_0_FILL">
<path fill="#A6CE38" stroke="none" d="
M 1032.8 313.4
L 1032.05 308.55
Q 1031.2 304.1 1028.4 299.6 1025.6 295.15 1019.9 294.9 1013.25 295.25 1010 300.8 1006.75 306.3 1006.1 313.2
L 1032.8 313.4 Z"/>
</g>







<g id="Symbol_95_0_Layer0_0_FILL">
<path fill="#0081c6" stroke="none" d="
M 859.15 717.35
L 851.35 712.7
Q 845.4 709.3 839.6 706.25
L 834.85 703.95 832.25 703.2
Q 831.9 703.25 831.3 703.6 830.7 703.9 830.35 704.35 830.05 705.1 830.25 705.8 830.45 706.55 831 707.2 830.65 707.25 830.25 707.35 829.85 707.5 829.6 707.9 829.65 711.1 833.15 714.2 836.65 717.25 838.4 718.5 859.2 735.5 888.85 752.05 918.5 768.55 945.7 777.55 947.15 778.2 949.1 778.8 951 779.35 952 777.7 952.3 776.75 951.9 776 951.55 775.25 950.7 774.75 952.25 771.6 950 768.5 947.75 765.35 944.95 763.2 943.05 761.9 940.65 760.55
L 937.55 758.85
Q 932.25 756.1 926.75 753.5 921.25 750.9 915.55 748.45
L 915.4 748.3
Q 913.65 746.4 910.8 744.8
L 906.95 742.7
Q 894.6 736.2 882.85 730.5 871.05 724.8 859.15 717.35
M 939.75 765.6
L 941.35 766.6
Q 942.55 767.35 943.7 768.35 942.25 767.55 941 766.95
L 939.45 766.2
Q 937.85 765.3 936.15 764.2 934.45 763.15 932.7 761.95
L 932.8 761.65
Q 934.6 762.6 936.3 763.6 938.05 764.6 939.75 765.6 Z"/>
</g>

<g id="Symbol_37_0_Layer0_0_FILL">
<path fill="#AED044" stroke="none" d="
M 702.8 109.95
Q 694.6 122.05 689.3 138.05 684.05 154.1 677.65 168.45 672.7 179.4 669.15 194.7 665.65 209.95 662.75 222.3 659.35 235.95 658.2 248.4 657.05 260.85 657.25 274.9 657.4 286.65 657.95 297.9 658.55 309.2 659.65 320.85 659.65 327.3 660.1 333.95 660.55 340.6 661.55 347.5 662.85 356.9 664.4 366.2 665.95 375.5 667.8 384.65 667.25 385.65 666.75 386.65 666.25 387.65 665.75 388.65 652.75 400.45 653.2 417.3 653.7 434.15 661.45 451.05 669.15 467.95 677.85 479.9 678.1 480.3 678.4 480.65 678.65 481.05 678.95 481.45 680 483.25 681.2 485.1 682.35 486.9 683.6 488.7 698.45 510.55 713.15 528.9 727.85 547.3 749.2 564.2 750.35 565.1 752.45 566.8 754.55 568.45 757.3 570.65 755.8 572.2 754.5 573.9 753.2 575.55 752.05 577.35
L 751.75 580.55
Q 751.65 582.1 751.55 583.7 751.45 585.3 751.35 586.9
L 751.35 587.15
Q 751.25 589.85 751.35 592.5 751.45 595.15 751.85 597.75 751.9 598.2 752 598.65 752.05 599.15 752.15 599.6 752.35 600.4 752.55 601.15 752.75 601.9 752.95 602.7
L 753.5 604.3
Q 753.75 605.1 754 605.9 754.2 606.6 754.45 607.3
L 754.9 608.65
Q 755.45 610.4 756 612.1 756.55 613.75 757.1 615.4 758.35 618.15 759.85 621 761.4 623.8 763.25 626.75 767.45 633.45 772.2 640.1 776.95 646.7 781.9 653.2 788.3 658.9 795.4 664.85 802.55 670.75 810.55 678.15 823.6 690.5 837.6 702.9 851.6 715.35 866.25 725.6 878.95 734.35 891.95 743 905 751.65 918.25 759.95 918.9 760.25 919.55 760.65 920.2 761.05 920.8 761.5 921.05 761.65 921.25 761.8
L 925.8 764.55
Q 927.7 765.7 929.65 766.85 931.55 768 933.5 769.15
L 934.95 770
Q 935.65 770.4 936.35 770.8 937.85 771.7 939.35 772.55 940.85 773.4 942.35 774.25 943.45 774.9 944.6 775.55 945.7 776.15 946.85 776.8 947.45 777.1 948.85 777.85 950.3 778.6 952.05 779.55 958.05 780.65 964 781.65 970 782.65 975.85 783.05 983.15 783.65 987.25 783.55 991.3 783.45 999.05 782 1002.75 781.35 1006.4 781.05
L 1013.8 780.5
Q 1015.3 782.6 1019.35 783.85 1023.45 785.15 1029.7 784.45 1041.6 783.05 1050.7 780.4 1059.75 777.8 1067.4 773.9 1067.5 773.95 1067.6 774.05 1067.7 774.1 1067.8 774.15 1071.9 775.8 1080.7 769 1089.5 762.2 1096.85 754.6
L 1097.2 754.35
Q 1098.05 753.75 1098.9 752.8 1099.75 751.85 1100.6 750.6 1101.6 749.55 1102.3 748.65 1103.05 747.8 1103.45 747.2 1109.25 738.95 1112.45 729.2 1115.7 719.4 1116.65 708.65 1119.1 696.1 1118.75 687.9 1118.35 679.75 1115.15 666 1110.2 638.3 1100.8 620.7 1091.35 603.1 1062.75 592.7 1061.25 592.15 1059.7 591.75 1058.1 591.3 1056.5 591.05 1054.45 589.65 1052.5 588.15 1050.5 586.7 1048.55 585.25 1047.45 584.7 1046.65 584.35
L 1045.65 583.75
Q 1042.75 581.65 1039.85 579.5 1037 577.35 1034.15 575.15 1026.35 569.05 1018.7 562.65 1011.05 556.3 1003.5 549.7 996.1 543.2 988.7 536.55 981.35 529.85 973.95 523.15 957.95 508.5 944.45 493.2 931 477.85 918.45 461.75 914.45 456.65 910.45 451.5
L 900 438
Q 891.8 427.55 883.2 416.35 874.55 405.2 866.1 393.4 861.9 387.55 857.85 381.55 853.75 375.55 849.9 369.45 848.05 366.55 846.3 363.6 844.5 360.65 842.8 357.7 838.8 352.6 835.1 347.1 831.4 341.65 828.15 335.6 823.85 327.75 819.35 320.4 814.85 313.05 810.6 305.45 809.35 303.05 808.1 300.65 806.85 298.25 805.65 295.85 804.9 294.35 804.25 292.85 803.55 291.3 802.9 289.75 798.75 280 794.1 270.5 789.4 261 784.5 251.65 783.2 248.85 781.95 246 780.7 243.2 779.5 240.35
L 776.1 232.5
Q 766.45 209.45 757.35 186.3 748.25 163.1 742.4 137.65 741.05 129.5 737.75 117.7 734.45 105.9 726.25 101.9 724.85 101 723.05 100.65 721.3 100.35 719.1 100.75
L 715.25 101.5
Q 712.3 102.15 709.9 102.95 707.5 104.25 705.45 106.65
L 702.8 109.95
M 888 425.65
L 887.15 424.7
Q 886.75 424.25 886.3 423.75 884.55 421.45 882.75 419.15 881 416.85 879.25 414.55 878.8 413.9 878.4 413.3 878 412.7 877.6 412.05 880.35 415.35 882.95 418.75 885.55 422.1 888 425.65
M 658.8 417.6
Q 658.8 417.9 658.8 418.15 658.75 418.95 658.75 419.75 658.75 420.55 658.75 421.35 658.35 417.75 658.55 414.55 658.75 411.35 659.7 408.65 659.35 410.75 659.15 412.85 658.95 414.95 658.85 417.05 658.8 417.35 658.8 417.6
M 986.1 775.85
Q 985.15 775.9 984.25 775.7 985 775.55 985.8 775.4 986.6 775.25 987.4 775.05 987.55 775.15 987.7 775.25 987.85 775.35 987.95 775.45 987.1 775.8 986.1 775.85
M 938.95 777.05
Q 939.5 777.3 940.05 777.55 939.55 777.3 939.05 777 938.6 776.7 938.15 776.45
L 937.9 776.55 938.95 777.05
M 787.95 673.35
Q 789.65 675.25 791.45 677.15 789.75 675.15 788.1 673.25 786.4 671.35 784.7 669.55 786.3 671.45 787.95 673.35 Z"/>
</g>
</defs>



<g transform="matrix( 1.2952423095703125, 0.0234527587890625, -0.0238037109375, 1.2799835205078125, -1268.65,-185.9) ">
<g transform="matrix( 1, 0, 0, 1, 0,0) ">
<use xlink:href="#Symbol_4_0_Layer0_0_FILL"/>
</g>
</g>

<g transform="matrix( 0.3987274169921875, 0.1630096435546875, -0.1491241455078125, 0.419219970703125, 661.5,-33.4) ">
<g transform="matrix( 1, 0, 0, 1, 0,0) ">
<use xlink:href="#Symbol_99_0_Layer0_0_FILL"/>
</g>
</g>

<g transform="matrix( 0.3987274169921875, 0.1630096435546875, -0.1491241455078125, 0.419219970703125, 661.5,-33.4) ">
<g transform="matrix( 1, 0, 0, 1, 0,0) ">
<use xlink:href="#Symbol_100_0_Layer0_0_FILL"/>
</g>
</g>

<g transform="matrix( 0.3305206298828125, 0.32977294921875, 0.330169677734375, -0.335418701171875, 450.65,222.35) ">
<g transform="matrix( 1, 0, 0, 1, 0,0) ">
<use xlink:href="#Symbol_97_0_Layer0_0_FILL"/>
</g>
</g>

<g transform="matrix( 0.3305206298828125, 0.32977294921875, 0.330169677734375, -0.335418701171875, 450.65,222.35) ">
<g transform="matrix( 1, 0, 0, 1, 0,0) ">
<use xlink:href="#Symbol_98_0_Layer0_0_FILL"/>
</g>
</g>

<g transform="matrix( 0.4656219482421875, -0.0117950439453125, 0.0137939453125, 0.4850921630859375, 479.75,226.25) ">
<g transform="matrix( 1, 0, 0, 1, 0,0) ">
<use xlink:href="#Symbol_77_0_Layer0_0_FILL"/>
</g>
</g>

<g transform="matrix( 0.4679107666015625, -0.0119476318359375, -0.095367431640625, 0.578216552734375, 626.8,137.85) ">
<g transform="matrix( 1, 0, 0, 1, 0,0) ">
<use xlink:href="#Symbol_92_0_Layer0_0_FILL"/>
</g>
</g>

<g transform="matrix( 0.32916259765625, -0.0145416259765625, -0.071929931640625, 0.5039520263671875, 692.85,223.05) ">
<g transform="matrix( 1, 0, 0, 1, 0,0) ">
<use xlink:href="#Symbol_19_0_Layer0_0_FILL"/>
</g>
</g>

<g transform="matrix( 0.5188446044921875, -0.2114105224609375, 0.1989593505859375, 0.4300384521484375, 351.2,423.25) ">
<g transform="matrix( 1, 0, 0, 1, 0,0) ">
<use xlink:href="#Symbol_20_0_Layer0_0_FILL"/>
</g>
</g>

<g transform="matrix( 0.543975830078125, -0.1341705322265625, 0.1324462890625, 0.454833984375, 347.25,350.9) ">
<g transform="matrix( 1, 0, 0, 1, 0,0) ">
<use xlink:href="#Symbol_21_0_Layer0_0_FILL"/>
</g>
</g>

<g transform="matrix( 0.46759033203125, -0.0066680908203125, 0.015899658203125, 0.468414306640625, 470.5,218.8) ">
<g transform="matrix( 1, 0, 0, 1, 0,0) ">
<use xlink:href="#Symbol_22_0_Layer0_0_FILL"/>
</g>
</g>

<g transform="matrix( 0.4518585205078125, -0.0416412353515625, 0.0135040283203125, 0.4687347412109375, 491.35,256.55) ">
<g transform="matrix( 1, 0, 0, 1, 0,0) ">
<use xlink:href="#Symbol_23_0_Layer0_0_FILL"/>
</g>
</g>

<g transform="matrix( 0.4518585205078125, -0.0416412353515625, 0.0135040283203125, 0.4687347412109375, 491.35,256.55) ">
<g transform="matrix( 1, 0, 0, 1, 0,0) ">
<use xlink:href="#Symbol_24_0_Layer0_0_FILL"/>
</g>
</g>

<g transform="matrix( 0.5136260986328125, -0.2237396240234375, 0.209564208984375, 0.425018310546875, 355.65,435.65) ">
<g transform="matrix( 1, 0, 0, 1, 0,0) ">
<use xlink:href="#Symbol_25_0_Layer0_0_FILL"/>
</g>
</g>

<g transform="matrix( 0.5136260986328125, -0.2237396240234375, 0.209564208984375, 0.425018310546875, 355.65,435.65) ">
<g transform="matrix( 1, 0, 0, 1, 0,0) ">
<use xlink:href="#Symbol_26_0_Layer0_0_FILL"/>
</g>
</g>

<g transform="matrix( 0.25885009765625, -0.14007568359375, 0.1559906005859375, 0.4378814697265625, 580.5,363.35) ">
<g transform="matrix( 1, 0, 0, 1, 0,0) ">
<use xlink:href="#Symbol_27_0_Layer0_0_FILL"/>
</g>
</g>

<g transform="matrix( 0.475067138671875, -0.3566436767578125, 0.2435150146484375, 0.48333740234375, 401.9,512.85) ">
<g transform="matrix( 1, 0, 0, 1, 0,0) ">
<use xlink:href="#Symbol_28_0_Layer0_0_FILL"/>
</g>
</g>

<g transform="matrix( 0.5136260986328125, -0.2237396240234375, 0.209564208984375, 0.425018310546875, 346.15,421.75) ">
<g transform="matrix( 1, 0, 0, 1, 0,0) ">
<use xlink:href="#Symbol_29_0_Layer0_0_FILL"/>
</g>
</g>

<g transform="matrix( 0.46868896484375, -0.012298583984375, 0.0444793701171875, 0.5919952392578125, 387.4,133.7) ">
<g transform="matrix( 1, 0, 0, 1, 0,0) ">
<use xlink:href="#Symbol_30_0_Layer0_0_FILL"/>
</g>
</g>

<g transform="matrix( 0.46868896484375, -0.012298583984375, 0.0444793701171875, 0.5919952392578125, 387.4,133.7) ">
<g transform="matrix( 1, 0, 0, 1, 0,0) ">
<use xlink:href="#Symbol_31_0_Layer0_0_FILL"/>
</g>
</g>

<g transform="matrix( 0.46868896484375, -0.012298583984375, 0.0444793701171875, 0.5919952392578125, 417.15,145.6) ">
<g transform="matrix( 1, 0, 0, 1, 0,0) ">
<use xlink:href="#Symbol_32_0_Layer0_0_FILL"/>
</g>
</g>

<g transform="matrix( 0.0817108154296875, 0.0012054443359375, -0.001708984375, 0.0796051025390625, 1077.45,393.45) ">
<g transform="matrix( 1, 0, 0, 1, 0,0) ">
<use xlink:href="#Symbol_5_0_Layer0_0_FILL"/>
</g>
</g>

<g transform="matrix( 0.0731658935546875, 0.0654754638671875, -0.0704345703125, 0.090576171875, 1119,309.65) ">
<g transform="matrix( 1, 0, 0, 1, 0,0) ">
<use xlink:href="#Symbol_35_0_Layer0_0_FILL"/>
</g>
</g>

<g transform="matrix( 0.082763671875, -0.0171051025390625, 0.01513671875, 0.0909576416015625, 1067,409.25) ">
<g transform="matrix( 1, 0, 0, 1, 0,0) ">
<use xlink:href="#Symbol_6_0_Layer0_0_FILL"/>
</g>
</g>

<g transform="matrix( 0.087982177734375, -0.0165557861328125, 0.013275146484375, 0.0890960693359375, 1062.45,410.7) ">
<g transform="matrix( 1, 0, 0, 1, 0,0) ">
<use xlink:href="#Symbol_7_0_Layer0_0_FILL"/>
</g>
</g>

<g transform="matrix( 0.093292236328125, -0.0098419189453125, 0.0064239501953125, 0.0907440185546875, 1056.75,401.7) ">
<g transform="matrix( 1, 0, 0, 1, 0,0) ">
<use xlink:href="#Symbol_8_0_Layer0_0_FILL"/>
</g>
</g>

<g transform="matrix( 0.1006622314453125, 0.0264892578125, -0.0245513916015625, 0.061492919921875, 1065.9,387.35) ">
<g transform="matrix( 1, 0, 0, 1, 0,0) ">
<use xlink:href="#Symbol_70_0_Layer0_0_FILL"/>
</g>
</g>

<g transform="matrix( 0.071044921875, 0.0028076171875, -0.003692626953125, 0.0778656005859375, 1086,393.6) ">
<g transform="matrix( 1, 0, 0, 1, 0,0) ">
<use xlink:href="#Symbol_94_0_Layer0_0_FILL"/>
</g>
</g>

<g transform="matrix( 0.071044921875, 0.0028076171875, -0.003692626953125, 0.0778656005859375, 1086,393.6) ">
<g transform="matrix( 1, 0, 0, 1, 0,0) ">
<use xlink:href="#Symbol_71_0_Layer0_0_FILL"/>
</g>
</g>

<g transform="matrix( 0.1148529052734375, -0.011627197265625, 0.0104827880859375, 0.1113433837890625, 1034.1,398) ">
<g transform="matrix( 1, 0, 0, 1, 0,0) ">
<use xlink:href="#Symbol_12_0_Layer0_0_FILL"/>
</g>
</g>

<g transform="matrix( 0.0936126708984375, -0.0007476806640625, 0.000274658203125, 0.0911102294921875, 1055.9,397.5) ">
<g transform="matrix( 1, 0, 0, 1, 0,0) ">
<use xlink:href="#Symbol_13_0_Layer0_0_FILL"/>
</g>
</g>







<g transform="matrix( 0.0520782470703125, -0.0337371826171875, 0.03955078125, 0.0553436279296875, 1068.9,434.95) ">
<g transform="matrix( 1, 0, 0, 1, 0,0) ">
<use xlink:href="#Symbol_95_0_Layer0_0_FILL"/>
</g>
</g>

<g transform="matrix( 0.0520782470703125, -0.0337371826171875, 0.03955078125, 0.0553436279296875, 1068.9,434.95) ">
<g transform="matrix( 1, 0, 0, 1, 0,0) ">
<use xlink:href="#Symbol_37_0_Layer0_0_FILL"/>
</g>
</g>
</svg>
