
<svg xmlns="http://www.w3.org/2000/svg" version="1.1" xmlns:xlink="http://www.w3.org/1999/xlink" preserveAspectRatio="none" x="0px" y="0px" width="580px" height="460px" viewBox="675 210 580 460">
<defs>


<g id="Symbol_4_0_Layer0_0_FILL">
<path fill="#0075c9" stroke="none" d="
M 1801.75 495.7
L 1801.7 495.7 1801.3 495.85
Q 1801.15 495.95 1801.1 496 1801.1 496.1 1801.2 496.2
L 1801 496.3 1801.15 496.45 1801.2 496.5 1801.35 496.3 1801.45 496.2 1801.5 496.1
Q 1801.6 496.05 1801.7 495.95 1801.75 495.85 1801.85 495.8
L 1801.65 495.8 1801.75 495.7
M 1853.3 506.5
Q 1853.45 506.35 1853.25 506.05
L 1853.35 505.75 1853.25 505.35 1853.05 505.2 1852.8 505.15 1849.5 505.15 1848.75 505.15 1848.4 505.15 1848 505.1 1835.15 505 1834.75 505.15 1834.7 505.25 1834.6 505.55 1834.65 505.7
Q 1834.3 505.8 1834.2 505.95 1834.1 506.15 1834.25 506.35 1834.15 506.55 1834.3 506.7 1834.45 506.9 1834.85 506.9 1834.65 507.15 1834.8 507.4 1834.95 507.65 1835.45 507.65 1836.3 507.65 1837.2 507.65 1838.1 507.65 1839 507.6 1841.55 507.6 1844.05 507.55 1846.6 507.55 1849.15 507.5 1849.9 507.5 1850.65 507.45 1851.35 507.45 1852.1 507.45 1852.45 507.45 1852.65 507.25 1852.85 507.1 1852.75 506.8
L 1852.85 506.75
Q 1853.15 506.7 1853.3 506.5 Z"/>

<path fill="#FFFFFF" stroke="none" d="
M 1849.15 507.9
L 1849.15 507.5
Q 1846.6 507.55 1844.05 507.55 1841.55 507.6 1839 507.6 1838.75 520.8 1838.85 534.05 1839 547.25 1839.05 560.5 1839.1 573.7 1838.6 586.85 1838.6 587.7 1838.6 590 1838.65 592.25 1838.65 595.05 1838.7 597.85 1838.6 600.4 1838.6 600.75 1838.6 601.1 1838.6 601.5 1838.55 601.8
L 1838.55 603 1838.5 603.2 1838.5 603.5
Q 1838.5 603.65 1838.55 603.85 1838.55 604 1838.55 604.2
L 1838.55 604.55
Q 1838.55 605 1838.5 605.55 1838.5 606.1 1838.5 606.7 1836.4 607.05 1834.3 607.5 1832.15 607.9 1830.1 608.35 1829.05 608.55 1828 608.75
L 1824.45 609.4
Q 1823.75 609.5 1823.05 609.6
L 1820.85 610 1820.8 610 1820.3 610.1
Q 1819.05 610.3 1817.75 610.5 1816.5 610.75 1815.2 610.95
L 1814.9 611
Q 1814.75 611.05 1814.55 611.05
L 1813.9 611.15 1813.95 611.25 1813.9 611.25 1813.9 611.15
Q 1813.55 611.25 1813.2 611.3 1812.85 611.35 1812.5 611.4
L 1812.05 611.5
Q 1811.8 611.55 1811.6 611.6 1811.35 611.65 1811.1 611.7 1811.15 611.95 1811.15 612.2 1811.15 612.45 1811.15 612.65 1811.2 612.9 1811.2 613.1 1811.2 613.3 1811.2 613.45
L 1811.2 615.45
Q 1811.2 617 1811.3 618.9 1811.3 619.25 1811.3 619.6 1811.35 619.9 1811.35 620.25 1811.4 620.6 1811.45 621 1811.45 621.35 1811.5 621.75 1811.8 621.8 1812.1 621.8 1812.35 621.85 1812.65 621.9 1813 621.95 1813.4 622 1813.75 622.05 1814.15 622.1 1814.6 622.15 1815.1 622.2 1815.55 622.25 1816.05 622.3 1819 622.6 1821.9 622.8 1824.75 623 1826.95 623.25
L 1830.3 623.65
Q 1832.75 623.95 1835.7 624.3 1838.6 624.6 1840.9 624.8
L 1842.8 624.9 1843.8 624.8
Q 1843.95 624.85 1844.2 624.9 1844.45 624.95 1844.7 624.95 1845.1 624.95 1845.6 624.9 1846.15 624.85 1846.7 624.75 1851.65 623.95 1856.2 623.35 1860.8 622.7 1865.45 622.1 1870.15 621.45 1875.2 620.7 1875.5 620.65 1875.85 620.6 1876.15 620.5 1876.45 620.45 1876.8 620.35 1877.1 620.25 1877.4 620.2 1877.75 620.1 1877.75 619.55 1877.8 618.9 1877.8 618.25 1877.85 617.5 1877.85 617.35 1877.85 617.2 1877.85 617 1877.85 616.85
L 1877.85 616.3
Q 1877.85 616.15 1877.85 616 1877.85 615.9 1877.85 615.75 1877.9 614.2 1877.9 612.5 1877.95 610.85 1877.9 609.75
L 1877.85 609.45
Q 1877.55 609.45 1877.2 609.45 1876.85 609.4 1876.5 609.4
L 1875.1 609.3
Q 1874.85 609.25 1874.6 609.25
L 1873.1 609.15
Q 1870.1 608.9 1867.1 608.65 1864.1 608.35 1861.1 608.05 1859.35 607.75 1857.25 607.6 1855.2 607.45 1853.35 607.3 1852.6 607.2 1851.4 607.05 1850.25 606.85 1848.95 606.75 1848.85 605.85 1848.8 605.05 1848.75 604.25 1848.7 603.8 1848.65 601.95 1848.6 600 1848.6 598.1 1848.45 596.2
L 1848.45 596.1
Q 1848.750390625 574.0501953125 1848.95 552.05 1849.1 530 1849.15 507.9
M 1894.7 476.35
Q 1894.85 474.9 1894.85 473.1 1894.85 472.35 1894.8 471.65 1894.8 470.95 1894.75 470.25
L 1891.4 470.25
Q 1891.05 470.25 1890.75 470.25
L 1890.35 470.25
Q 1890.15 470.25 1889.95 470.3
L 1889.25 470.3
Q 1873.55 470.45 1857.85 471.05 1842.15 471.65 1826.45 471.85 1825.35 471.85 1824.35 471.9 1823.3 471.9 1822.2 471.9
L 1821.65 471.9 1821.65 472.5 1821.45 472.75
Q 1820.95 473.25 1820.5 473.75 1820.05 474.25 1819.65 474.75 1815.25 480.15 1810.65 485.3 1806.1 490.4 1801.75 495.7
L 1801.65 495.8 1801.85 495.8
Q 1801.75 495.85 1801.7 495.95 1801.6 496.05 1801.5 496.1
L 1801.45 496.2 1801.35 496.3 1801.2 496.5 1801.15 496.45 1801.1 496.5
Q 1800.55 495.85 1799.95 495.25 1799.4 494.65 1799.05 494.45
L 1798.8 494.4 1798.7 494.35
Q 1797.95 494.55 1797.8 495.8 1797.65 497.05 1797.75 498.25
L 1797.85 499.6
Q 1797.85 500.25 1797.85 501.7 1797.8 503.15 1797.9 504.5 1798.05 505.9 1798.5 506.3
L 1798.5 506.35 1798.55 506.35 1798.65 506.4 1799 506.35 1799.25 506.35
Q 1799.4 506.35 1799.6 506.35 1799.8 506.35 1799.95 506.3
L 1801.45 506.3
Q 1809.75 506.15 1818.1 505.8 1826.4 505.45 1834.7 505.25
L 1834.75 505.15 1835.15 505 1848 505.1 1848.4 505.15 1848.75 505.15 1849.1 505.1 1849.5 505.1
Q 1849.75 505.1 1849.95 505.1
L 1853.15 505.05
Q 1854.05 505.05 1854.9 505.05 1855.8 505.05 1856.7 505 1858.85 504.95 1861 504.95 1863.2 504.9 1865.35 504.85 1865.55 504.85 1865.8 504.85
L 1866.2 504.85 1866.5 504.8 1866.75 504.8
Q 1867.5 504.8 1868.2 504.8 1868.9 504.75 1869.6 504.75 1869.8 504.55 1870 504.35 1870.2 504.1 1870.4 503.9 1871.1 503.15 1871.5 502.65
L 1871.85 502.25 1871.95 502.1 1872.15 501.95 1872.35 501.75 1872.5 501.55 1873.05 501
Q 1873.35 500.7 1873.6 500.45
L 1874.05 500
Q 1878.85 495.25 1883.65 490.5 1888.5 485.75 1893 480.7 1893.65 480 1894 479.4 1894.3 478.8 1894.35 478.4
L 1894.45 478.1 1894.6 477.5 1894.7 476.35 Z"/>


</g>

<g id="Symbol_33_0_Layer0_0_FILL">
<path fill="#FFFFFF" stroke="none" d="
M 949.7 654.45
L 953.4 663.1
Q 956.05 669.65 961.7 675.55 967.35 681.45 977.55 681.65 983 681.5 988.7 680.95 994.4 680.4 998.75 679.9
L 1004.3 679.4 1016.1 674.05
Q 1042.45 669.35 1058.55 662.55 1074.7 655.7 1084.9 648 1095.05 640.25 1103.5 632.9 1111.05 626.45 1116.05 617.1 1121.05 607.75 1123.6 597.85 1126.2 587.9 1126.5 579.7 1126.8 571.5 1125 567.35 1121.55 559.6 1115.9 548.15 1110.2 536.75 1102.15 522.95 1094.1 509.2 1083.55 494.5 1071.8 478.35 1058.4 464 1045.05 449.65 1031.35 438.9 1017.6 428.15 1004.75 422.8 991.5 417.85 986.25 425.25 981 432.6 980.7 446 980.4 459.45 982 472.65 983.6 485.9 984.15 492.7 984.15 502.95 977.85 521.75 971.55 540.5 963.7 563.8 955.85 587.05 951.15 610.75 946.45 634.45 949.7 654.45 Z"/>
</g>

<g id="Symbol_16_0_Layer0_0_FILL">
<path fill="#0075c9" stroke="none" d="
M 822.65 544.4
Q 820.25 533.15 817.1 522 813.95 510.85 809.65 499.95 808.35 496.85 806.85 495.25 805.35 493.65 803.85 492.4 802.4 491.2 801.3 489.15 800.5 487.7 800.15 486.45 799.8 485.15 799.8 484.1 795.45 479.7 791.05 475.15 786.7 470.65 783 466.25 779.25 461.85 776.95 457.85 773.5 455.65 770.7 453.55 767.85 451.45 766.05 449.95
L 765.5 449.2
Q 765.15 448.6 764.75 448.15 764.5 455 759.45 456.4 754.35 457.75 748.5 456.8 742.6 455.85 739.95 455.75
L 737.35 456.8 733.5 459.2
Q 728.95 462.3 724.5 465.9 720 469.45 718.15 471.2 715 474.05 711.9 474.45 708.85 474.85 706.85 473.3 704.8 471.75 704.9 468.65 704.4 469.2 703.95 469.75 703.5 470.35 703 470.9 705.85 474.25 704.9 478.4 704 482.6 698.75 485.6 695.95 487.3 693.6 490.75 691.2 494.25 689.1 497.55 687.55 499.9 685.85 503.9 684.1 507.95 682.15 512.55 681.8 513.8 681.4 515 681.05 516.25 680.7 517.5 680.65 521.85 679.85 526.25 679 530.7 677.65 534.35 676.3 538.05 674.8 540.15 674.55 541.35 674.3 542.5 674 543.65 673.75 544.8 673.35 546.85 672.7 550.55 672.1 554.25 671.3 558.9 669.25 585.75 669.85 617.55 670.45 649.35 675.15 684.15 679.9 718.9 690.4 754.75
L 692.45 756.85 697.85 760.5
Q 704.9 764.95 717.35 768.95 729.75 772.95 746.25 772.9 761.7 772.45 772.05 769.65 782.35 766.85 787.95 763.5
L 792.4 760.5 794.75 758.1
Q 799.2 744.65 803.5 722.45 807.75 700.2 811.55 673.05 815.4 645.9 818.5 617.6 821.6 589.35 823.8 563.8 823.55 558.95 823.3 554.1 823 549.25 822.65 544.4 Z"/>
</g>

<g id="Symbol_34_0_Layer0_0_FILL">
<path fill="#FFFFFF" stroke="none" d="
M 823.5 476.15
Q 823.4 463.35 821.05 450.35 818.65 437.4 811.5 428.75 804.35 420.1 790 420.35 776.95 421.2 763.25 429.3 749.5 437.4 737.1 448.65 724.65 459.95 715.5 470.25 706.3 480.6 702.3 485.9 694.5 496.2 685.65 510.8 676.8 525.35 668.8 540.6 660.8 555.85 655.55 568.2 650.3 580.5 649.65 586.25 648.85 598 655.7 611.85 662.6 625.7 674.25 638.8 685.85 651.9 699.15 661.35 712.5 670.8 724.5 673.75 732.55 675.65 744.45 675.9 756.3 676.15 770.5 673.75 784.75 671.3 799.85 665.1 812.95 659.85 822.45 658.1 831.95 656.35 837.5 655.9
L 841.95 655.1 844.25 653.85
Q 847.15 633.45 844.8 610.45 842.45 587.45 837.75 565.25 833.05 543.05 828.85 525.15 824.65 507.25 823.85 497.05 823.6 488.95 823.5 476.15 Z"/>
</g>

<g id="Symbol_18_0_Layer0_0_FILL">
<path fill="#FFFFFF" stroke="none" d="
M 743.05 735.4
L 745.45 761.95
Q 747.75 786.5 750.75 818.5 753.8 850.55 756.1 875
L 758.55 901.15
Q 763.6 907.75 774.7 912.05 785.8 916.35 799.75 917.75 813.7 919.2 827.35 917.15 840.95 915.1 851 908.95
L 854.25 899.3
Q 857.25 890.2 861.45 875.65 865.6 861.15 869.25 844.55 872.1 831.1 875.2 815.7 878.35 800.3 881.05 786.4 883.75 772.5 885.5 763.6
L 887.25 754.3
Q 879.75 740.5 860 734.5 840.25 728.5 816.25 727.95 792.25 727.35 771.95 729.85 751.65 732.3 743.05 735.4 Z"/>
</g>

<g id="Symbol_19_0_Layer0_0_FILL">
<path fill="#0075c9" stroke="none" d="
M 943.65 840.8
Q 942.6 838.75 942.2 837.35 941.45 834.6 941.05 831.85 940.7 829.05 940.15 826.35
L 939.65 824.85 939.1 824.45
Q 938.5 824.55 938.05 825.8 937.65 827 937.65 828.25 937.8 831.4 938.75 835.75 939.7 840.1 941.85 843.7 943.95 847.3 947.65 848.15 951.1 848.6 953.45 845.55 955.8 842.55 957.1 838.5 958.4 834.45 958.75 831.75 958.9 830.75 958.95 828.85 959 826.95 958.7 825.25 958.4 823.5 957.45 822.95
L 957.25 822.9
Q 957.1 822.9 957.05 822.95 956.7 823.3 956.6 823.8
L 956.45 824.5
Q 956.2 826.4 956.15 828.4 956.15 830.4 955.8 832.35 955.5 834.05 954.65 836.85 953.8 839.65 952.5 842.15 951.2 844.6 949.5 845.25 947.75 845.7 946.2 844.3 944.7 842.85 943.65 840.8 Z"/>
</g>

<g id="Symbol_20_0_Layer0_0_FILL">
<path fill="#FFFFFF" stroke="none" d="
M 923.4 167.5
Q 916.1 172.05 911.35 176.95
L 907.6 181.2 905.95 184.05 905.45 187 905.3 191.9
Q 905.3 197.7 905.6 204.45 905.9 211.2 906.25 216.1
L 906.6 221.25 909.7 221.65
Q 912.6 222.1 915.6 222.4
L 917.9 222.55 919 222.45
Q 925.6 213.05 929.15 207.95 932.7 202.85 934.35 199.75 936 196.65 936.85 193.3 937.85 189.35 938.6 182.3 939.4 175.25 939.55 169.1
L 939.45 164.2 938.9 161.8
Q 930.7 162.95 923.4 167.5 Z"/>
</g>

<g id="Symbol_21_0_Layer0_0_FILL">
<path fill="#FFFFFF" stroke="none" d="
M 849.85 162.55
L 848.25 160.3
Q 838.8 166.65 832.2 176.9 825.6 187.2 822.15 196.8 818.7 206.45 818.75 210.75 819.1 213.45 822.1 219.15 825.1 224.9 829 231.2 832.85 237.55 835.8 242.05
L 838.85 246.75 842.7 244.9
Q 846.3 243.25 849.9 241.4
L 852.7 239.85 853.9 238.95
Q 856.8 225.15 857.8 215.3 858.75 205.45 858.55 199.35 858.3 193.3 857.6 190.7 856.85 187.7 855.2 180.75 853.55 173.8 851.65 167.5
L 849.85 162.55 Z"/>
</g>

<g id="Symbol_22_0_Layer0_0_FILL">
<path fill="#FFFFFF" stroke="none" d="
M 661.65 767.35
L 648.9 766.15
Q 647.3 766.15 646.3 767.25 645.25 768.35 645.2 769.8 645.15 771.3 646.5 772.5
L 649.1 773.9 654.55 776.1
Q 661.45 778.7 672.95 780.7 684.4 782.7 699.15 781.9 713.85 781.15 730.65 775.45 742.3 771.1 752.6 762.8 762.95 754.5 770.9 745.45 778.9 736.4 783.5 729.9
L 788.3 722.65 787.25 721.25 784.35 718.45
Q 780.55 714.95 775.95 710.9 771.3 706.9 768.6 704.6 766.5 707.95 761.25 715.5 756 723 748.5 732 741.05 741.05 732.35 748.9 723.6 756.75 714.6 760.8 701.2 766.2 686.75 767.2 672.35 768.2 661.65 767.35 Z"/>
</g>

<g id="Symbol_23_0_Layer0_0_FILL">
<path fill="#0075c9" stroke="none" d="
M 1065.35 476.45
Q 1060.65 471.65 1055.15 467.15 1049.9 462.3 1043.85 457.85 1037.85 453.35 1031.05 449.3 1030.85 449 1030.65 448.7 1030.45 448.45 1030.25 448.25 1029.8 448.15 1029.45 448.1 1029.1 448.05 1028.85 448.05 1027.65 447.4 1026.2 446.65 1024.7 445.85 1023.55 445.2 1023 444.85 1022.45 444.95 1021.9 445.1 1022.3 446
L 1022.85 446.45 1024.25 447.4
Q 1026.1 448.65 1028.75 450.4
L 1029 451.1
Q 1029.1 451.5 1029.25 451.95 1032 460.1 1035.5 468 1038.95 475.95 1041.85 484.05 1047.45 501.25 1049.3 518.55 1051.15 535.85 1052.65 553.05 1054.2 570.3 1058.8 587.2 1064.45 607.2 1064.6 627.25 1064.7 647.35 1060.1 667.05 1055.55 686.7 1047.1 705.45
L 1045.45 708.4
Q 1044.05 710.85 1042.35 714.35 1040.6 717.85 1039.5 721.4 1038.9 722.25 1038.4 723.05 1037.95 723.9 1037.8 724.65 1038.05 724.7 1038.3 724.7 1038.55 724.65 1038.8 724.6 1038.6 726.25 1038.8 727.65 1039 729 1039.8 729.95 1039.3 730.75 1038.9 731.45 1038.55 732.2 1038.45 732.8 1039.4 732.8 1040.35 731.85 1041.25 730.9 1041.6 730.45 1053.3 718.3 1062.8 700.85 1072.35 683.35 1079.15 663.4 1085.9 643.4 1089.35 623.8 1091.7 615.55 1093.25 606.7 1094.85 597.8 1095.6 588.75 1097.15 580.1 1097.85 571.3 1098.55 562.55 1098.2 555.25 1098.15 554 1098.05 552.7 1097.95 551.4 1097.8 550 1097.15 540.2 1094.05 528.45 1090.95 516.75 1085.8 505.65 1080.65 494.5 1074 486.45 1070.05 481.3 1065.35 476.45
M 1047.95 715.9
Q 1050.5 713 1052.8 710 1051.9 711.3 1050.95 712.6 1050 713.95 1049 715.3 1048.55 715.75 1047.6 716.9 1046.65 718 1046.65 719.1 1046.8 719.15 1047.05 719.2
L 1047.35 719.2
Q 1047.45 719.2 1047.6 719.05 1047.75 718.95 1047.95 718.75
L 1048 718.85 1048.3 718.9
Q 1047.2 720.4 1046.1 721.95 1045 723.45 1043.9 724.95 1043.5 725.45 1042.45 726.65 1041.4 727.8 1040.3 729.25 1040.05 727.9 1040.25 726.4 1040.45 724.9 1040.95 723.45 1041.55 722.95 1041.95 722.45 1042.4 722 1042.65 721.75 1045.4 718.85 1047.95 715.9
M 1080.65 652.8
Q 1080.1216796875 654.5361328125 1079.55 656.25 1080.075 654.55 1080.6 652.85 1081.1283203125 651.1140625 1081.65 649.35 1081.175 651.1 1080.65 652.8
M 898.95 786.2
L 900.7 786.5
Q 902.75 786.8 904.8 786.95 906.9 787.15 908.95 787.2 908.75 787.55 909.2 787.75 909.65 787.95 910.65 788.1 911.05 788.15 911.4 788.2 911.8 788.25 912.25 788.3 911.25 788.4 910.25 788.45
L 906.6 788.7
Q 905.35 788.8 904.35 789.25 904.25 789.25 904.05 789.45 903.85 789.6 903.85 789.75 904.1 790.75 904.85 790.85 905.6 790.95 906.6 790.9 918.15 790.45 929.05 788.8 940 787.15 951.35 784.85 952.05 784.75 953.7 784.35 955.35 783.95 956.2 783.1 956.2 782.8 955.95 782.7 955.75 782.6 955.6 782.6
L 955.25 782.55
Q 954.9 782.55 954.45 782.6 954.05 782.5 953.6 782.55 953.15 782.6 952.9 782.6 944.55 782.6 936.2 783.5 927.9 784.4 919.55 785.05 911.25 785.7 902.95 784.85
L 901.3 784.65
Q 900.05 784.5 898.95 784.65
L 898.3 785.4 898.25 785.85 898.95 786.2
M 940.85 785.05
Q 941.05 785 941.25 784.9 941.45 784.85 941.6 784.75 942 784.75 942.4 784.7
L 943.15 784.65
Q 942.75 784.7 942.5 784.75 942.25 784.8 942.05 784.85 941.75 784.9 941.45 784.95 941.15 785 940.85 785.05
M 746.95 525.2
L 746.65 522.9
Q 746.35 521.15 745.75 519.8 745.5 519.55 745.2 519.6 744.9 519.6 744.7 519.9
L 744.5 520.9 744.4 522.95
Q 744.35 525.45 744.4 528.2
L 744.4 531.9
Q 744 540.75 744.55 548.65 745.15 556.55 746.2 564.3 747.25 572.1 748.25 580.55 748.9 586 749.85 591.65 750.8 597.3 751.7 603 751.75 603.65 751.85 604.25 751.95 604.85 752.05 605.4 752.45 607.95 752.7 610.5 753 613 753.2 615.45 753.1 616.35 753.1 617.3 753.05 618.25 753.15 619.1 753.15 619.7 753.1 620.3 753.1 620.95 753.2 621.6 752 626.25 751 630.9 750 635.55 749.3 640.15 747.4 651.05 745.1 661.9 742.75 672.8 741.85 683.75 741.2 693.5 742.5 700.75 743.8 708 746.85 714.75 749.95 721.5 754.7 729.6 754.85 729.85 755.1 730.4 755.35 730.95 755.7 731.65 755.7 731.9 755.75 732.2 755.8 732.45 755.95 732.7
L 756.2 732.65
Q 756.65 733.45 757.15 734.1 757.7 734.8 758.25 735.1 758.55 734.95 758.55 734.6 758.55 734.25 758.55 734.05 758.55 733.6 758.4 732.95 758.2 732.35 757.85 731.6 759.15 730 759.85 727.9
L 760.65 725.2
Q 762.05 718.85 763.25 712.15 764.4 705.5 765.4 699.1 767.9 683.7 770.35 667.85 772.8 652.05 774.3 636.55 775.4 623.5 773.25 609.95 771.05 596.4 766.4 583.25 766.45 582.65 766.4 582.1 766.4 581.55 766.25 581.1 766.1 581.1 765.95 581 765.75 580.9 765.7 580.95
L 765.6 581
Q 762.4 572.3 758.35 564.15 754.35 556 749.8 548.7
L 748.7 547.05
Q 747.8 545.75 747 544.65 747 544.55 746.8 544.45 746.6 544.4 746.45 544.45 746.65 539.75 746.85 535 747.1 530.25 746.95 525.2 Z"/>
</g>

<g id="Symbol_24_0_Layer0_0_FILL">
<path fill="#FFFFFF" stroke="none" d="
M 955.75 420.8
Q 923.4 422.75 881.3 425.7 839.2 428.7 807.35 431.05
L 773.8 433.5 767.65 442.5
Q 761.8 451.25 754.9 465.8 748 480.35 744.45 497.95 741.2 515.95 744.85 544.05 748.45 572.1 758.1 610.45 757.3 616.6 755.2 629.35 753.05 642.15 750.75 656.85 748.4 671.6 746.95 683.6 745.5 695.65 746.05 700.2 746.95 706.4 750.7 717.2 754.5 727.95 761 740.05 767.5 752.2 776.7 762.4 785.85 772.65 797.65 777.8 812.25 783.6 833.95 786 855.7 788.35 880.2 788.2 904.7 788 927.6 786.1 950.5 784.2 967.5 781.4 987.75 778 1003.3 768.2 1018.8 758.45 1030.9 743.6 1043 728.8 1053 710.35 1058.6 700.25 1064 687.05 1069.45 673.9 1074.15 658.85 1078.85 643.75 1082.2 627.95 1085.7 611.1 1087.45 594.8 1089.15 578.55 1089.25 564.2 1089.35 549.85 1087.85 538.85 1083.75 512.8 1069.1 491.25 1054.45 469.7 1036.7 453.9 1019 438.1 1005.65 429.2
L 990.7 419.45 980.65 419.45 955.75 420.8 Z"/>

<path fill="#0075c9" stroke="none" d="
M 1027.1 329.9
Q 1025.65 330.9 1025.7 332.9 1025.8 334.9 1026.1 336.6 1024.85 337.25 1024.8 339.6 1024.7 341.9 1025.05 344.1
L 1025.45 346.5
Q 1025.95 351.5 1025.75 356.7 1025.5 361.9 1026.35 367.3 1027.55 374.3 1026.85 382.45 1026.2 390.6 1024.1 398.45 1021.95 406.3 1018.8 412.35
L 1017.85 414.15 1017.55 415.05 1018.05 415.4 1019.45 415.5
Q 1020.4 414.6 1021.2 413.25
L 1022.2 411.45
Q 1023.4 408.85 1024.4 406.05 1025.4 403.3 1026.8 401.25 1028.75 398.55 1029.95 393.9 1031.2 389.25 1031.65 384.35 1032.15 379.4 1031.75 375.75 1031.6 374.25 1031.55 372.75 1031.5 371.25 1031.55 369.7 1032.15 366.9 1032.15 364.3 1032.15 361.65 1031.95 358.45 1031.75 354.45 1031.85 351.1 1031.9 347.75 1032.1 343.95
L 1032.2 341.9
Q 1032.25 340.15 1031.9 338.35 1031.6 336.5 1030.55 335.8 1030.35 335.85 1030.2 335.95 1030.05 336 1029.9 336.1 1029.65 333.9 1029.25 332.45 1028.9 330.95 1028.35 330.5 1028.2 330.35 1027.85 330.15 1027.5 329.95 1027.1 329.9 Z"/>
</g>

<g id="Symbol_25_0_Layer0_0_FILL">
<path fill="#0075c9" stroke="none" d="
M 1051.6 302.65
Q 1051.1 301.5 1049.9 301.45 1048.7 301.35 1047.4 301.75 1046.05 302.15 1045.05 302.5 1041.65 303.6 1040.45 307.2 1039.3 310.8 1039.3 315.15 1039.3 319.45 1039.35 322.7 1039.25 328.1 1039 333.2 1038.75 338.3 1039 343.75 1039.6 354.4 1039.5 364.75 1039.45 375.05 1039.05 385.7 1039 387.3 1039.05 390.35 1039.1 393.4 1039.4 396.75 1039.2 396.8 1039.05 396.85 1038.85 396.95 1038.6 397.05
L 1038.35 397.45
Q 1038.15 397.8 1037.75 398.05
L 1036.75 398.75 1036.2 399.25
Q 1035.95 399.6 1035.9 400.3 1035.55 401.2 1035.4 402.15 1035.25 403.05 1035.15 403.6 1035 404.15 1034.85 404.75 1034.65 405.35 1034.4 405.85
L 1034.25 406.35
Q 1034.1 406.7 1034 407 1032.6 406.6 1031.55 408.35 1030.55 410.1 1029.95 412.1
L 1029.3 414.3
Q 1028.7 415.3 1027.8 416 1026.9 416.7 1025.9 418.5 1024.85 420.65 1023.9 422.45 1022.9 424.25 1021.95 425.95 1022.45 424.2 1022.4 422.75 1022.3 421.25 1021.3 420.45 1020.55 421 1019.95 422.2 1019.3 423.4 1018.85 424.6 1018.45 425.75 1018.2 426.25 1017.1 428.5 1014.65 432.65 1012.25 436.8 1009.65 440.6 1007 444.45 1005.25 445.75
L 1004.55 445.85
Q 1003.9 445.95 1003.55 446.35 1003.25 446.45 1003.3 446.75
L 1003.35 447.1
Q 1003.35 447.25 1003.7 447.4
L 1004 447.65
Q 1003.6 448.7 1002.5 450 1001.45 451.3 1000.1 452.75 991.1 453.95 981.6 455.45 972.1 456.95 962.75 459.1 953.4 461.3 944.95 464.6 938.2 467.25 931.45 469.75 924.65 472.25 917.95 474.8
L 915.85 475.85
Q 914.3 476.7 913.2 477.8 913.15 478.05 913.2 478.35 913.2 478.6 913.3 478.85 913 479.05 913.05 479.35 913.15 479.6 913.4 479.9 915.9 482.6 922.7 483.95 929.5 485.35 936.7 485.8 943.9 486.3 947.6 486.4 964 486.85 978.3 481.8 992.6 476.75 1005.35 467.8 1009.2 465.65 1012.65 463.1 1016.1 460.55 1019.25 457.3 1025.05 451.85 1029.5 444.45 1033.9 437.05 1037.35 426.95 1037.55 426.6 1037.7 426.25 1037.9 425.9 1038.1 425.55 1043.35 415.6 1046.75 403.1 1050.2 390.65 1052.2 377.6 1054.2 364.6 1055.3 353 1055.45 351.85 1055.7 349.8 1055.9 347.8 1055.85 346.2 1056.1 340.75 1055.8 335.45 1055.5 330.2 1054.95 324.45 1054.75 321.3 1054.4 317.3 1054.05 313.3 1053.45 309.4 1052.8 305.5 1051.6 302.65 Z"/>
</g>

<g id="Symbol_26_0_Layer0_0_FILL">
<path fill="#0075c9" stroke="none" d="
M 980.9 222.3
L 981.3 221
Q 981.55 220.05 981.4 219.3 980.9 218.9 980.7 219.3 980.5 219.75 980.35 220.35 979.2 224.05 977.7 227.6 976.2 231.2 974.35 234.55 972.25 238.5 969.8 242.15 967.35 245.85 964.55 249.25 964.25 249.55 963.6 250.25 962.9 251 962.7 251.7
L 962.85 251.8
Q 962.5 252.1 962.3 252.4 962.05 252.75 962 253.1 962.3 253.4 962.7 253.25 963.1 253.1 963.35 252.9 965.8 251.45 968.65 248.45 971.5 245.4 974.15 242 976.75 238.6 978.35 236.15 978.5 235.95 978.8 235.5 979.1 235 979.4 234.45 979.6 234.1 979.7 233.7 979.8 233.35 979.75 233 979.3 232.75 979 233.15 978.7 233.55 978.5 233.95 978.35 234.15 978.25 234.35 978.1 234.55 977.95 234.75 978.3 233.9 978.4 233.1 978.45 232.3 978.05 231.7 977.7 231.5 977.45 231.6 977.2 231.7 977 232 978.2 229.5 979.2 227.05 980.15 224.6 980.9 222.3
M 966.6 248.5
L 966.85 248.2 966.9 248.2 966.6 248.5 Z"/>

<path fill="#FFFFFF" stroke="none" d="
M 966.85 248.2
L 966.6 248.5 966.9 248.2 966.85 248.2
M 1012.45 184.25
Q 1009.55 185.35 1007.8 188.35 1002.5 197.95 997.95 206.1 993.45 214.25 988.95 221.25 984.5 228.25 979.4 234.45 979.1 235 978.8 235.5 978.5 235.95 978.35 236.15 976.75 238.6 974.15 242 971.5 245.4 968.65 248.45 965.8 251.45 963.35 252.9 963.1 253.1 962.7 253.25 962.3 253.4 962 253.1 962.05 252.75 962.3 252.4 962.5 252.1 962.85 251.8
L 962.7 251.7
Q 962.9 251 963.6 250.25 964.25 249.55 964.55 249.25 967.35 245.85 969.8 242.15 972.25 238.5 974.35 234.55 971.45 233.45 967.2 231.7 962.95 229.95 958.2 227.85 953.5 225.75 949.2 223.55 942.25 219.6 928.3 216.3 914.3 213 894.95 214.6 875.65 216.15 852.55 227 840.85 232.9 833.35 239.5 825.8 246.1 821.95 251.35
L 817.3 258.3
Q 812.95 267.05 807.85 285.25 802.75 303.45 798.15 323.75 793.55 344 790.75 358.9
L 788.65 370.6 788.15 375.95 789.35 379.6 792.45 386.35
Q 796.5 394.6 805.7 407.45 814.9 420.3 830.8 436.3 844.75 449.8 859.75 458.55 874.75 467.25 887.8 472.1 900.85 476.95 909 478.85 931 483.95 950.9 481.3 970.85 478.7 985.75 472.2 1000.65 465.75 1007.65 459.3 1022.45 445.6 1031.65 423.7 1040.85 401.8 1044.75 375.3 1048.6 348.75 1047.35 321.1 1045.55 286.9 1040.65 259.3 1035.75 231.65 1030.45 213.15 1025.1 194.65 1022.15 187.85 1020.8 184.9 1018.05 184 1015.3 183.1 1012.45 184.25 Z"/>
</g>

<g id="Symbol_27_0_Layer0_0_FILL">
<path fill="#FFFFFF" stroke="none" d="
M 789.2 341.6
Q 785.8 347.35 777.75 359.8 769.7 372.25 759.95 387.45 750.2 402.65 741.65 416.8 733.1 430.9 728.8 440
L 777.9 447.45
Q 824.55 454 885.8 462.15 947 470.25 993.15 475.85
L 1028.15 479.8 1040.8 480.45 1033 470.6
Q 1027.2 463.4 1019.85 454.8 1012.5 446.25 1006.05 439.35 999.55 432.5 996.25 430.45
L 960.45 414.6
Q 929.2 401.1 889.65 384.25 850.05 367.4 820.4 354.85
L 789.2 341.6 Z"/>
</g>

<g id="Symbol_28_0_Layer0_0_FILL">
<path fill="#0075c9" stroke="none" d="
M 840.25 295.25
Q 839.9 295.3 839.65 295.65 839.4 295.95 839.3 296.45 839.25 296.7 839.2 297.05 839.15 297.4 839.1 297.75 839.05 298.4 839.05 299.15 839.05 299.85 839.05 300.45 839.1 304.75 839.4 307.2 839.7 309.7 840.3 311.95 841.5 316.85 843.65 320.55 845.85 324.25 849.5 325.35 850.15 325.6 850.85 325.6 851.55 325.6 852 325.5 855.2 324.65 857.8 321.95 860.35 319.3 862 315.55 863.65 311.85 864.2 308
L 864.3 307.3
Q 864.4 306.75 864.4 306.1 864.6 305.1 864.55 304.3 864.5 303.45 864.15 302.9 863.7 303.05 863.5 303.6 863.35 304.15 863.3 304.4 862.1 308.55 861.1 311.75 860.15 315 858.35 317.35 856.6 319.7 852.9 321.2 850.25 322.05 847.95 319.1 845.65 316.1 844.05 311.55 842.45 306.95 841.85 303.1 841.65 302.2 841.45 301.3 841.3 300.35 841.15 299.4 841 298.1 840.8 297.1 840.55 296.15 840.25 295.25 Z"/>
</g>

<g id="Symbol_29_0_Layer0_0_FILL">
<path fill="#FFFFFF" stroke="none" d="
M 915.85 293.65
Q 914.9 283.9 909.2 276.25 903.5 268.6 890.55 266.1 877.35 264.2 869.25 269.95 861.1 275.7 856.6 284.55 852.15 293.35 849.95 300.7 858.85 301.75 870.05 303.6 881.25 305.45 893.05 307.7 904.8 309.9 915.4 312.05 916.75 303.35 915.85 293.65 Z"/>
</g>

<g id="Symbol_30_0_Layer0_0_FILL">
<path fill="#0075c9" stroke="none" d="
M 1057.8 788
L 1057.15 787.9
Q 1056.65 787.85 1056.25 787.8 1056.2 787.8 1056.1 787.85 1056.05 787.85 1056 787.85 1055.45 788.3 1055.4 788.6 1055.4 788.9 1055.75 789.15 1055.55 790 1055.4 790.8 1055.3 791.6 1055.15 792.15 1050.75 810.55 1047 827.9 1043.2 845.3 1039.6 862.7 1036 880.1 1032.15 898.55 1031.9 899.75 1032 900.7 1032.1 901.65 1032.45 902.35 1030.85 903.2 1029.25 903.95 1027.7 904.7 1026.2 905.35 1023.65 906.15 1021.1 906.85 1018.55 907.55 1015.9 908.1
L 1012.15 908.6
Q 1008.95 909.05 1006 910.1 1003.05 911.15 1003.1 913 1003.35 913.3 1003.7 913.35 1004.1 913.4 1004.5 913.3 1004.75 913.45 1005.05 913.55 1005.35 913.65 1005.6 913.7
L 1008.5 913.55 1013.1 912.6
Q 1018.5 911.2 1023.95 909.35 1029.35 907.5 1031.35 906.35 1031.9 906.05 1033.15 905.25 1034.4 904.5 1035.3 903.55 1035.85 903.25 1036.3 902.5 1036.75 901.8 1037 900.6 1041.1 882.35 1044.85 865 1048.6 847.6 1052.25 830.2 1055.9 812.8 1059.7 794.55
L 1059.85 793.6
Q 1059.95 792.7 1060 791.45 1060.3 790.1 1059.95 789.15 1059.65 788.2 1057.8 788 Z"/>
</g>

<g id="Symbol_31_0_Layer0_0_FILL">
<path fill="#FFFFFF" stroke="none" d="
M 899.05 742.6
Q 901.3 752.35 904.65 766.95 907.95 781.5 911.25 796.45 914.55 811.4 916.75 822.3 918.65 831.3 922.4 844.05 926.2 856.75 930.35 869.3 934.5 881.85 937.45 890.3
L 940.6 899.25
Q 950.75 905.1 963.9 907.95 977.05 910.8 990.55 911 1004.1 911.2 1015.4 909.15 1026.75 907.05 1033.3 903
L 1035.05 895.2
Q 1036.8 887.8 1039.5 875.8 1042.25 863.85 1045.35 849.7 1048.4 835.5 1051.15 821.55 1055.2 801 1058.05 786.4 1060.85 771.8 1062.35 763.85
L 1063.8 755.35
Q 1055.1 752.4 1032.9 746.7 1010.75 741 983.55 735.75 956.35 730.45 932.55 728.85 908.75 727.2 896.7 732.35
L 899.05 742.6 Z"/>
</g>

<g id="Symbol_32_0_Layer0_0_FILL">
<path fill="#0075c9" stroke="none" d="
M 938.3 828.5
Q 938.5 831.6 939.5 835.45 940.5 839.25 942.25 842.4 943.95 845.55 946.3 846.7 950.3 848.25 953.15 845.6 956 842.95 957.6 838.15 959.2 833.4 959.35 828.65 959.4 827.55 959.25 826 959.1 824.45 958.4 824.45 958.25 824.75 958.1 825.1
L 957.95 825.6
Q 957.35 827.6 957.1 829.8 956.8 831.95 956.3 834.1 955.15 838.55 953 841.25 950.85 843.95 948.25 843.6 945.7 843.25 943.35 838.65 942.15 836.05 941.4 832.95 940.6 829.9 939.6 827.1 939 825.7 938.6 826.55 938.25 827.35 938.3 828.5 Z"/>
</g>

<g id="Symbol_59_0_Layer0_0_FILL">
<path fill="#AED044" stroke="none" d="
M 1028.9 506.05
Q 1028.7 506.15 1028.55 506.25 1027.6 506.85 1026.65 507.45 1025.7 508.1 1024.75 508.7 1023.35 509.65 1021.9 510.65 1020.5 511.65 1019.05 512.7
L 1019.55 512.6
Q 1020.05 512.5 1020.55 512.45 1021.05 512.4 1021.5 512.35 1023.45 510.7 1025.35 509.05 1027.3 507.4 1029.25 505.85
L 1028.9 506.05
M 683.45 168.3
Q 681 166.95 678 166.05 674.95 165.1 672.1 165.55 671.5 165.4 670.75 165.45
L 669.8 165.55
Q 656.9 167.15 653.05 174.8 649.2 182.4 651.25 193.05 653.35 203.75 658.25 214.6 659.4 220.2 661.75 226.4 664.05 232.65 667.2 239.05 659.35 234.45 650.4 233.95 641.5 233.45 636.8 243.55
L 636.65 244.1
Q 636.5 244.6 636.3 245 635.95 246.1 635.65 247.5
L 635.3 249.2
Q 634.05 256.45 634.7 264.3 635.35 272.15 637.75 279.35 641.95 296.9 652.85 316.45 663.7 335.95 676.35 353.6 689 371.2 698.6 383.15 703.45 389.3 708.55 395.05 713.6 400.8 718.85 406.15 714.65 407.95 711.6 411.2 708.5 414.4 706.2 418.65 705.4 420.15 704.7 421.7 704.05 423.2 703.5 424.75 704.3 428.95 705.7 432.95 707.1 436.95 709 440.8 712.35 447.4 716.8 453.35 721.25 459.3 726.25 464.5 729.85 468.25 733.75 471.9 737.65 475.55 741.85 479.15 745.1 481.95 748.45 484.65 751.85 487.35 755.3 490.05 763.05 495.95 771.15 501.6 779.2 507.3 787.4 512.7
L 787.7 512.9
Q 787.8 512.95 787.9 513 788 513.05 788.1 513.15
L 791.5 515.4
Q 795.25 517.85 798.95 520.25 802.65 522.6 806.3 524.95
L 815.15 530.6
Q 819.5 533.4 823.7 536.1
L 824.7 536.25
Q 829.05 536.85 833.55 537.45 838.05 538 842.65 538.5 858.85 540.15 875.3 541.9 891.75 543.65 906.5 546.7 910.8 547.6 915 548.4 919.15 549.2 923.3 549.85 930.55 551.05 937.75 552 945 552.95 952.4 553.8 956.75 546.65 961.15 540.25 965.5 533.9 967.6 530.15 974.8 515.75 982.65 506.75 990.5 497.75 1005.4 488.35 1006.15 487.9 1006.9 487.4 1007.65 486.9 1008.35 486.35 996.75 478.1 985.4 469.7 974.05 461.3 962.95 452.7 900.7 404.65 846.3 352.6 791.9 300.55 744.95 245.5 732.85 231.3 721.2 217 709.6 202.65 698.45 188.15 694.65 183.2 690.9 178.25 687.15 173.3 683.45 168.3 Z"/>
</g>

<g id="Symbol_50_0_Layer0_0_FILL">
<path fill="#AED044" stroke="none" d="
M 793 728.5
L 804.5 735.2
Q 815.8 741.55 835.15 750 854.5 758.4 879 765
L 889.25 742.3
Q 898.45 720.9 910.3 692.8 922.15 664.75 931.1 643.45
L 940.5 621 915.1 609.95 793 728.5 Z"/>
</g>

<g id="Symbol_63_0_Layer0_0_FILL">
<path fill="#AED044" stroke="none" d="
M 1109.2 371.3
Q 1090.35 346.7 1054.6 350.65 1031.1 354.9 1000 370.25 968.9 385.6 933.75 407.6 898.55 429.65 862.85 453.95 843.45 468.4 831.05 499.1 818.6 529.8 811.65 562.25 804.65 594.7 801.6 614.35 807.2 618.75 816.65 621.05 826.1 623.4 841.85 624.4 863.1 625.6 892.65 620.35 922.2 615.15 953.1 602.45 984.05 589.75 1009.55 568.6 1032.2 548.85 1053.45 527.05 1074.7 505.25 1092.35 487.55 1110.05 469.9 1122 462.55 1133.9 453.65 1130.95 424.8 1128 395.9 1109.2 371.3 Z"/>
</g>

<g id="Symbol_62_0_Layer0_0_FILL">
<path fill="#AED044" stroke="none" d="
M 1301.9 418.3
L 1305.35 415.15
Q 1306.35 412.15 1299.1 411.45 1292.05 412.35 1285.3 413 1278.55 413.7 1272.65 413.9
L 1271.6 413.9
Q 1193.3 421.2 1116.3 413.75 1039.35 406.3 964.3 388.2 929.65 382.1 895.55 374.35 861.45 366.6 828.35 356.7 823.45 355.25 818.6 353.7 813.75 352.2 808.9 350.6 806.85 349.9 804.75 349.25 802.7 348.55 800.65 347.85 794.3 345.7 787.9 343.4 781.55 341.05 775.1 338.55 772.7 338.55 769.75 339.2 766.8 339.8 764.7 341.65 764.15 341.8 763.7 342.2
L 763.05 342.7
Q 750.75 353.45 757.15 364.7 763.5 376 776.45 385.1 779.8 388.85 784.25 392.55 788.7 396.25 793.8 399.75 792.45 400 790.6 400.45 788.8 400.95 787.2 401.6 786.1 402 785.05 402.4 783.95 402.85 782.95 403.25 782.75 403.5 782.45 403.6
L 782.05 403.7
Q 774.55 408.9 775.45 416.3 776.35 423.7 782.05 431.25 788.95 445.35 806.85 457.7 824.7 470.1 845.1 479.6 865.5 489.15 879.95 494.7 886.15 497.2 892.35 499.25 898.5 501.3 904.6 503 902.45 506.25 901.65 510.1 900.9 513.95 901.1 518.2 901.2 519.85 901.4 521.4 901.6 522.95 901.95 524.45 907.95 536.65 921 544.6 934.1 552.6 949.4 557.85 964.7 563.1 977.5 567.05 976.95 568.35 976.8 569.65 976.6 570.95 976.65 571.9 978 586.2 987.9 593.9 997.85 601.6 1010.65 604.9 1024.55 608.85 1040.65 610.8 1056.75 612.8 1074.1 613 1077.75 612.35 1081.4 611.65 1085.05 611 1088.7 610.3 1101.45 607.85 1114.1 605.15 1126.75 602.5 1139.15 599.7 1144.35 598.55 1149.45 597.35 1154.6 596.2 1159.7 595 1161.3 594.65 1162.9 594.25 1164.5 593.9 1166.15 593.5 1170.8 592.35 1175.55 591.15 1180.3 589.9 1185.1 588.6 1196.1 585.55 1207.15 582 1218.2 578.45 1229.05 574.4 1230.55 573.85 1232.05 573.25 1233.55 572.7 1235.05 572.1
L 1235.4 572 1235.7 571.85
Q 1235.75 571.7 1235.75 571.55 1235.8 571.4 1235.8 571.25 1235.7 571.1 1235.6 571 1235.5 570.85 1235.35 570.8 1236.25 566.3 1236.95 562.1 1237.65 557.9 1238 556.3 1244.9 525.75 1249.2 494.9 1253.55 464.05 1259.7 433.3 1259.8 432.7 1260.1 431.6 1260.4 430.5 1260.75 429.1 1269.45 427.75 1277.7 425.9 1285.95 424.05 1293.6 421.7
L 1301.9 418.3
M 798.85 415.45
L 798.6 415.05
Q 798.5 414.85 798.35 414.7
L 798.6 414.35
Q 798.75 414.15 798.85 414 798.85 414.35 798.85 414.7 798.85 415.1 798.85 415.45
M 780.4 417.1
Q 780 415.9 779.85 414.7 779.7 413.5 779.85 412.4 779.95 413.4 780.15 414.4 780.35 415.45 780.6 416.45 780.55 416.6 780.5 416.75 780.45 416.95 780.4 417.1 Z"/>
</g>

<g id="Symbol_55_0_Layer0_0_FILL">
<path fill="#AED044" stroke="none" d="
M 1014.75 275.85
Q 1000.7 265.35 978.7 264.45 958.3 264.6 945.65 274.7 933.05 284.8 926.65 296.7 922.3 305.1 918.55 323.15 914.85 341.25 912.45 357.55
L 909.7 377.1 913.4 380.25 923.7 383.7
Q 937.3 387.3 954 389.95 970.7 392.65 980.35 392.95 989.8 393 1004.8 390.4 1019.75 387.85 1032.65 383.7 1045.55 379.6 1048.75 375
L 1046.55 357.15
Q 1044.5 343.75 1041.25 328.3 1038.05 312.85 1034.4 302.15 1028.8 286.3 1014.75 275.85 Z"/>
</g>

<g id="Symbol_56_0_Layer0_0_FILL">
<path fill="#AED044" stroke="none" d="
M 1051.9 298
Q 1043.95 305.65 1042.2 316.25 1040.45 326.85 1044.65 335.9 1048.9 344.9 1058.95 347.7 1063.6 345.65 1073.55 338.2 1083.5 330.75 1091.75 319.05
L 1090 317.5 1085.15 314.1
Q 1078.8 309.75 1069.65 304.9 1060.45 300.05 1051.9 298 Z"/>
</g>

<g id="Symbol_57_0_Layer0_0_FILL">
<path fill="#0075c9" stroke="none" d="
M 1010.6 309.3
L 1009.6 307.45 1008.25 305.8 1006.65 304.45 1004.75 303.45 1002.75 302.85 1000.6 302.65 998.5 302.85 996.5 303.45 994.6 304.45 993 305.8 991.65 307.45 990.65 309.3 990 311.35 989.8 313.45 990 315.55 990.65 317.6 991.65 319.45 993 321.1 994.6 322.45 996.5 323.45 998.5 324.05 1000.6 324.25 1002.75 324.05 1004.75 323.45 1006.65 322.45 1008.25 321.1 1009.6 319.45 1010.6 317.6 1011.25 315.55 1011.45 313.45 1011.25 311.35 1010.6 309.3 Z"/>
</g>

<g id="Symbol_58_0_Layer0_0_FILL">
<path fill="#AED044" stroke="none" d="
M 1002.55 287.3
Q 993.7 287.75 989.4 294.25 985.1 300.8 984.25 308.95
L 1019.7 309.2 1018.65 303.5
Q 1017.5 298.2 1013.85 292.9 1010.15 287.65 1002.55 287.3 Z"/>
</g>



<g id="Layer0_28_FILL">
<path fill="#0075c9" stroke="none" d="
M 1148.8 592.65
L 1148.55 592.65
Q 1147.15 593.4 1146.9 594.1 1146.65 594.85 1147.1 595.6 1146.95 595.5 1146.8 595.45 1146.65 595.35 1146.5 595.35 1144.4 597.55 1144.2 601.05 1144.05 604.55 1144.65 608.25 1145.25 612 1145.5 614.9 1147.35 614.95 1148.05 616.35 1148.7 617.75 1148.9 619.45 1149.1 621.15 1149.45 622.05 1150.2 623.55 1151.2 624.25 1152.15 624.9 1153.05 624.5 1153.95 624.1 1154.6 622.35 1154.9 621.25 1155.1 620.15 1155.25 619.1 1155.95 618.05
L 1155.95 617.9 1155.9 617.5
Q 1155.8 617.05 1156.05 616.8 1156.5 617.6 1156.9 618.7 1157.35 619.8 1157.7 620.65
L 1158.1 621.8
Q 1159.55 624.3 1160.95 624.5 1162.4 624.65 1163.65 623.4 1164.95 622.15 1166 620.45 1167.05 618.75 1167.7 617.55 1168.2 616.6 1168.5 616.25 1168.85 615.95 1169.2 615.65 1169.6 615.4 1170.4 614.6
L 1170.45 614.35 1170.45 613.85
Q 1170.5 613.25 1170.65 612.9 1173.25 613.55 1175 614.35 1176.75 615.15 1177.7 615.1 1178.7 615.05 1179.15 613.1 1179.55 611.15 1179.6 606.2 1179.65 604.6 1179.9 602.05 1180.1 599.5 1179.95 597.25 1179.85 595 1178.85 594.35
L 1177.5 594.45 1176.55 595.05 1175.45 596.05 1175.45 596.25 1175.4 596.7
Q 1175.35 597.25 1175.05 597.4 1174.85 596.45 1174.65 595.1 1174.45 593.8 1173.75 592.9 1173.1 592.05 1171.5 592.55 1170.8 593.05 1169.8 593.5 1168.75 593.9 1167.95 594.1
L 1167.25 594.3 1166.9 594.35
Q 1165.2 594.55 1163.95 594.6 1162.65 594.7 1162.05 595.55 1161.45 596.45 1161.7 598.95 1160.95 597.35 1159.95 597.2 1158.95 597.05 1157.85 597.3 1156.75 597.55 1155.7 597.1 1155.55 596.65 1155.35 596.25 1155.15 595.85 1154.9 595.45 1154.95 595.25 1154.95 595.1 1154.95 594.95 1154.95 594.8 1154.85 593.55 1154.6 592.5 1154.35 591.4 1153.7 590.9 1153.05 590.4 1151.75 590.85 1151.45 591.9 1150.7 592.25 1150 592.6 1149.3 592.6
L 1148.8 592.65
M 1156.1 604.25
Q 1156.3 605.05 1156.4 605.95 1156.5 606.8 1156.35 607.4 1156.2 608 1155.6 608 1155.15 607.8 1155.05 607.15 1154.95 606.5 1155.05 605.7 1155.15 604.85 1155.4 604.1 1155.5 604.2 1155.65 604.25 1155.85 604.3 1156.05 604.3
L 1156.1 604.25
M 1149.8 600
Q 1149.35 599.4 1149.05 598.75 1148.7 598.1 1148.5 597.55 1148.9 598.1 1149.25 598.7 1149.6 599.3 1149.8 600
M 1166.85 536.25
L 1166.2 537.6
Q 1159.55 550.25 1152.5 563.15 1145.5 576 1138.75 589 1132 602 1126.05 614.9 1126 615.05 1125.9 615.3 1125.75 615.55 1125.6 615.9 1125.4 615.25 1124.95 614.9 1124.55 614.5 1124 614.5
L 1123.65 614.35
Q 1123.5 614.3 1123.35 614.35 1123.2 614.4 1123.15 614.5
L 1122.5 614.9 1121.3 614.95
Q 1119.7 614.9 1118.6 615.35 1117.5 615.8 1118.55 617.95
L 1119.4 619.3 1120.15 619.9
Q 1120.8 620.2 1121.15 620.3
L 1121.5 620.6 1121.7 621.4 1121.95 625.65
Q 1121.9 626.2 1121.85 626.9 1121.75 627.6 1121.95 628.15 1122.15 628.7 1122.95 628.75 1123.6 628.15 1124.15 626.85 1124.75 625.6 1125.1 624 1125.5 622.35 1125.6 620.65
L 1125.7 620.7
Q 1125.75 620.55 1125.8 620.35 1125.85 620.1 1125.9 619.85 1126.25 619.1 1126.6 618.4 1126.95 617.7 1127.7 617.75 1127.7 618.45 1128.05 619.7 1128.4 621 1129.05 621.3
L 1129.7 621 1130.05 620.4 1130.4 619.5
Q 1130.6 618.65 1130.25 617.9 1129.9 617.15 1129.3 616.45 1128.75 615.75 1128.4 615.1 1128.95 614.15 1129.55 612.95 1130.2 611.75 1130.7 610.75
L 1131.35 609.55
Q 1141 591.15 1150.6 572.8 1160.15 554.4 1169.5 535.9 1170.55 533.85 1170.95 533 1171.35 532.1 1170.95 531.95
L 1170.35 531.95 1169.3 532.15
Q 1168.65 532.95 1168 534.1 1167.35 535.25 1166.85 536.25 Z"/>
</g>




</defs>



<g transform="matrix( 1.2952423095703125, 0.0234527587890625, -0.0238037109375, 1.2799835205078125, -1268.65,-185.9) ">
<g transform="matrix( 1, 0, 0, 1, 0,0) ">
<use xlink:href="#Symbol_4_0_Layer0_0_FILL"/>
</g>
</g>

<g transform="matrix( -0.467559814453125, -0.0032501220703125, -0.0031585693359375, 0.470947265625, 1326.1,225.2) ">
<g transform="matrix( 1, 0, 0, 1, 0,0) ">
<use xlink:href="#Symbol_33_0_Layer0_0_FILL"/>
</g>
</g>

<g transform="matrix( -0.467559814453125, -0.0032501220703125, -0.0031585693359375, 0.470947265625, 1326.85,227.2) ">
<g transform="matrix( 1, 0, 0, 1, 0,0) ">
<use xlink:href="#Symbol_16_0_Layer0_0_FILL"/>
</g>
</g>

<g transform="matrix( -0.467559814453125, -0.0032501220703125, -0.0031585693359375, 0.470947265625, 1326.85,227.2) ">
<g transform="matrix( 1, 0, 0, 1, 0,0) ">
<use xlink:href="#Symbol_34_0_Layer0_0_FILL"/>
</g>
</g>

<g transform="matrix( -0.472076416015625, -0.003204345703125, 0.106781005859375, 0.562713623046875, 1179.75,144.25) ">
<g transform="matrix( 1, 0, 0, 1, 0,0) ">
<use xlink:href="#Symbol_18_0_Layer0_0_FILL"/>
</g>
</g>

<g transform="matrix( -0.33221435546875, -0.00823974609375, 0.0818023681640625, 0.4906463623046875, 1114.7,228.6) ">
<g transform="matrix( 1, 0, 0, 1, 0,0) ">
<use xlink:href="#Symbol_19_0_Layer0_0_FILL"/>
</g>
</g>

<g transform="matrix( -0.5016021728515625, -0.1211395263671875, -0.1053619384765625, 0.4560699462890625, 1402.45,333.05) ">
<g transform="matrix( 1, 0, 0, 1, 0,0) ">
<use xlink:href="#Symbol_20_0_Layer0_0_FILL"/>
</g>
</g>

<g transform="matrix( -0.5043487548828125, -0.109130859375, -0.0944366455078125, 0.4584503173828125, 1401.5,321.55) ">
<g transform="matrix( 1, 0, 0, 1, 0,0) ">
<use xlink:href="#Symbol_21_0_Layer0_0_FILL"/>
</g>
</g>

<g transform="matrix( -0.4671478271484375, 0.036865234375, 0.0369720458984375, 0.4671630859375, 1301.35,185.3) ">
<g transform="matrix( 1, 0, 0, 1, 0,0) ">
<use xlink:href="#Symbol_22_0_Layer0_0_FILL"/>
</g>
</g>

<g transform="matrix( -0.457427978515625, -0.00811767578125, -0.003326416015625, 0.468505859375, 1318.5,229.9) ">
<g transform="matrix( 1, 0, 0, 1, 0,0) ">
<use xlink:href="#Symbol_23_0_Layer0_0_FILL"/>
</g>
</g>

<g transform="matrix( -0.457427978515625, -0.00811767578125, -0.003326416015625, 0.468505859375, 1318.5,229.9) ">
<g transform="matrix( 1, 0, 0, 1, 0,0) ">
<use xlink:href="#Symbol_24_0_Layer0_0_FILL"/>
</g>
</g>

<g transform="matrix( -0.5010986328125, -0.123199462890625, -0.10723876953125, 0.4556427001953125, 1402.75,335.15) ">
<g transform="matrix( 1, 0, 0, 1, 0,0) ">
<use xlink:href="#Symbol_25_0_Layer0_0_FILL"/>
</g>
</g>

<g transform="matrix( -0.5010986328125, -0.123199462890625, -0.10723876953125, 0.4556427001953125, 1402.75,335.15) ">
<g transform="matrix( 1, 0, 0, 1, 0,0) ">
<use xlink:href="#Symbol_26_0_Layer0_0_FILL"/>
</g>
</g>

<g transform="matrix( -0.2576904296875, -0.0888519287109375, -0.0569305419921875, 0.458221435546875, 1188.25,306.35) ">
<g transform="matrix( 1, 0, 0, 1, 0,0) ">
<use xlink:href="#Symbol_27_0_Layer0_0_FILL"/>
</g>
</g>

<g transform="matrix( -0.491668701171875, -0.2606353759765625, -0.1265869140625, 0.5191192626953125, 1376,419.45) ">
<g transform="matrix( 1, 0, 0, 1, 0,0) ">
<use xlink:href="#Symbol_28_0_Layer0_0_FILL"/>
</g>
</g>

<g transform="matrix( -0.5010986328125, -0.123199462890625, -0.10723876953125, 0.4556427001953125, 1408.65,319.8) ">
<g transform="matrix( 1, 0, 0, 1, 0,0) ">
<use xlink:href="#Symbol_29_0_Layer0_0_FILL"/>
</g>
</g>

<g transform="matrix( -0.4730224609375, -0.003265380859375, -0.0341796875, 0.5614166259765625, 1420.85,151.45) ">
<g transform="matrix( 1, 0, 0, 1, 0,0) ">
<use xlink:href="#Symbol_30_0_Layer0_0_FILL"/>
</g>
</g>

<g transform="matrix( -0.4730224609375, -0.003265380859375, -0.0341796875, 0.5614166259765625, 1420.85,151.45) ">
<g transform="matrix( 1, 0, 0, 1, 0,0) ">
<use xlink:href="#Symbol_31_0_Layer0_0_FILL"/>
</g>
</g>

<g transform="matrix( -0.4730224609375, -0.003265380859375, -0.0341796875, 0.5614166259765625, 1391.1,163.3) ">
<g transform="matrix( 1, 0, 0, 1, 0,0) ">
<use xlink:href="#Symbol_32_0_Layer0_0_FILL"/>
</g>
</g>

<g transform="matrix( 0.0527801513671875, 0.0713348388671875, -0.06182861328125, 0.0724639892578125, 1137.3,196.2) ">
<g transform="matrix( 1, 0, 0, 1, 0,0) ">
<use xlink:href="#Symbol_59_0_Layer0_0_FILL"/>
</g>
</g>

<g transform="matrix( 0.00933837890625, 0.088043212890625, -0.1572723388671875, 0.0261383056640625, 1228.2,224) ">
<g transform="matrix( 1, 0, 0, 1, 0,0) ">
<use xlink:href="#Symbol_50_0_Layer0_0_FILL"/>
</g>
</g>

<g transform="matrix( 0.08770751953125, 0.0255584716796875, -0.0255584716796875, 0.08770751953125, 1075.2,246.5) ">
<g transform="matrix( 1, 0, 0, 1, 0,0) ">
<use xlink:href="#Symbol_63_0_Layer0_0_FILL"/>
</g>
</g>

<g transform="matrix( 0.03936767578125, 0.086517333984375, -0.0770416259765625, 0.0638580322265625, 1134.85,169.75) ">
<g transform="matrix( 1, 0, 0, 1, 0,0) ">
<use xlink:href="#Symbol_62_0_Layer0_0_FILL"/>
</g>
</g>

<g transform="matrix( 0.03631591796875, 0.075225830078125, -0.075225830078125, 0.03631591796875, 1150.45,223.3) ">
<g transform="matrix( 1, 0, 0, 1, 0,0) ">
<use xlink:href="#Symbol_55_0_Layer0_0_FILL"/>
</g>
</g>

<g transform="matrix( 0.0821075439453125, -0.015380859375, 0.015380859375, 0.0821075439453125, 1074.45,297.25) ">
<g transform="matrix( 1, 0, 0, 1, 0,0) ">
<use xlink:href="#Symbol_56_0_Layer0_0_FILL"/>
</g>
</g>

<g transform="matrix( 0.0600128173828125, 0.0580902099609375, -0.0580902099609375, 0.0600128173828125, 1120.05,230.95) ">
<g transform="matrix( 1, 0, 0, 1, 0,0) ">
<use xlink:href="#Symbol_57_0_Layer0_0_FILL"/>
</g>
</g>

<g transform="matrix( 0.0822906494140625, 0.014312744140625, -0.014312744140625, 0.0822906494140625, 1083.75,267.7) ">
<g transform="matrix( 1, 0, 0, 1, 0,0) ">
<use xlink:href="#Symbol_58_0_Layer0_0_FILL"/>
</g>
</g>



<g transform="matrix( 1.172515869140625, 0, 0, 1.172515869140625, -165.6,-25.65) ">
<use xlink:href="#Layer0_28_FILL"/>
</g>




</svg>
