
<svg xmlns="http://www.w3.org/2000/svg" version="1.1" xmlns:xlink="http://www.w3.org/1999/xlink" preserveAspectRatio="none" x="0px" y="0px" width="580px" height="460px" viewBox="675 210 580 460">
<defs>


<g id="Symbol_4_0_Layer0_0_FILL">
<path fill="#0081c6" stroke="none" d="
M 1801.75 495.7
L 1801.7 495.7 1801.3 495.85
Q 1801.15 495.95 1801.1 496 1801.1 496.1 1801.2 496.2
L 1801 496.3 1801.15 496.45 1801.2 496.5 1801.35 496.3 1801.45 496.2 1801.5 496.1
Q 1801.6 496.05 1801.7 495.95 1801.75 495.85 1801.85 495.8
L 1801.65 495.8 1801.75 495.7
M 1853.3 506.5
Q 1853.45 506.35 1853.25 506.05
L 1853.35 505.75 1853.25 505.35 1853.05 505.2 1852.8 505.15 1849.5 505.15 1848.75 505.15 1848.4 505.15 1848 505.1 1835.15 505 1834.75 505.15 1834.7 505.25 1834.6 505.55 1834.65 505.7
Q 1834.3 505.8 1834.2 505.95 1834.1 506.15 1834.25 506.35 1834.15 506.55 1834.3 506.7 1834.45 506.9 1834.85 506.9 1834.65 507.15 1834.8 507.4 1834.95 507.65 1835.45 507.65 1836.3 507.65 1837.2 507.65 1838.1 507.65 1839 507.6 1841.55 507.6 1844.05 507.55 1846.6 507.55 1849.15 507.5 1849.9 507.5 1850.65 507.45 1851.35 507.45 1852.1 507.45 1852.45 507.45 1852.65 507.25 1852.85 507.1 1852.75 506.8
L 1852.85 506.75
Q 1853.15 506.7 1853.3 506.5 Z"/>

<path fill="#FFFFFF" stroke="none" d="
M 1849.15 507.9
L 1849.15 507.5
Q 1846.6 507.55 1844.05 507.55 1841.55 507.6 1839 507.6 1838.75 520.8 1838.85 534.05 1839 547.25 1839.05 560.5 1839.1 573.7 1838.6 586.85 1838.6 587.7 1838.6 590 1838.65 592.25 1838.65 595.05 1838.7 597.85 1838.6 600.4 1838.6 600.75 1838.6 601.1 1838.6 601.5 1838.55 601.8
L 1838.55 603 1838.5 603.2 1838.5 603.5
Q 1838.5 603.65 1838.55 603.85 1838.55 604 1838.55 604.2
L 1838.55 604.55
Q 1838.55 605 1838.5 605.55 1838.5 606.1 1838.5 606.7 1836.4 607.05 1834.3 607.5 1832.15 607.9 1830.1 608.35 1829.05 608.55 1828 608.75
L 1824.45 609.4
Q 1823.75 609.5 1823.05 609.6
L 1820.85 610 1820.8 610 1820.3 610.1
Q 1819.05 610.3 1817.75 610.5 1816.5 610.75 1815.2 610.95
L 1814.9 611
Q 1814.75 611.05 1814.55 611.05
L 1813.9 611.15 1813.95 611.25 1813.9 611.25 1813.9 611.15
Q 1813.55 611.25 1813.2 611.3 1812.85 611.35 1812.5 611.4
L 1812.05 611.5
Q 1811.8 611.55 1811.6 611.6 1811.35 611.65 1811.1 611.7 1811.15 611.95 1811.15 612.2 1811.15 612.45 1811.15 612.65 1811.2 612.9 1811.2 613.1 1811.2 613.3 1811.2 613.45
L 1811.2 615.45
Q 1811.2 617 1811.3 618.9 1811.3 619.25 1811.3 619.6 1811.35 619.9 1811.35 620.25 1811.4 620.6 1811.45 621 1811.45 621.35 1811.5 621.75 1811.8 621.8 1812.1 621.8 1812.35 621.85 1812.65 621.9 1813 621.95 1813.4 622 1813.75 622.05 1814.15 622.1 1814.6 622.15 1815.1 622.2 1815.55 622.25 1816.05 622.3 1819 622.6 1821.9 622.8 1824.75 623 1826.95 623.25
L 1830.3 623.65
Q 1832.75 623.95 1835.7 624.3 1838.6 624.6 1840.9 624.8
L 1842.8 624.9 1843.8 624.8
Q 1843.95 624.85 1844.2 624.9 1844.45 624.95 1844.7 624.95 1845.1 624.95 1845.6 624.9 1846.15 624.85 1846.7 624.75 1851.65 623.95 1856.2 623.35 1860.8 622.7 1865.45 622.1 1870.15 621.45 1875.2 620.7 1875.5 620.65 1875.85 620.6 1876.15 620.5 1876.45 620.45 1876.8 620.35 1877.1 620.25 1877.4 620.2 1877.75 620.1 1877.75 619.55 1877.8 618.9 1877.8 618.25 1877.85 617.5 1877.85 617.35 1877.85 617.2 1877.85 617 1877.85 616.85
L 1877.85 616.3
Q 1877.85 616.15 1877.85 616 1877.85 615.9 1877.85 615.75 1877.9 614.2 1877.9 612.5 1877.95 610.85 1877.9 609.75
L 1877.85 609.45
Q 1877.55 609.45 1877.2 609.45 1876.85 609.4 1876.5 609.4
L 1875.1 609.3
Q 1874.85 609.25 1874.6 609.25
L 1873.1 609.15
Q 1870.1 608.9 1867.1 608.65 1864.1 608.35 1861.1 608.05 1859.35 607.75 1857.25 607.6 1855.2 607.45 1853.35 607.3 1852.6 607.2 1851.4 607.05 1850.25 606.85 1848.95 606.75 1848.85 605.85 1848.8 605.05 1848.75 604.25 1848.7 603.8 1848.65 601.95 1848.6 600 1848.6 598.1 1848.45 596.2
L 1848.45 596.1
Q 1848.750390625 574.0501953125 1848.95 552.05 1849.1 530 1849.15 507.9
M 1894.7 476.35
Q 1894.85 474.9 1894.85 473.1 1894.85 472.35 1894.8 471.65 1894.8 470.95 1894.75 470.25
L 1891.4 470.25
Q 1891.05 470.25 1890.75 470.25
L 1890.35 470.25
Q 1890.15 470.25 1889.95 470.3
L 1889.25 470.3
Q 1873.55 470.45 1857.85 471.05 1842.15 471.65 1826.45 471.85 1825.35 471.85 1824.35 471.9 1823.3 471.9 1822.2 471.9
L 1821.65 471.9 1821.65 472.5 1821.45 472.75
Q 1820.95 473.25 1820.5 473.75 1820.05 474.25 1819.65 474.75 1815.25 480.15 1810.65 485.3 1806.1 490.4 1801.75 495.7
L 1801.65 495.8 1801.85 495.8
Q 1801.75 495.85 1801.7 495.95 1801.6 496.05 1801.5 496.1
L 1801.45 496.2 1801.35 496.3 1801.2 496.5 1801.15 496.45 1801.1 496.5
Q 1800.55 495.85 1799.95 495.25 1799.4 494.65 1799.05 494.45
L 1798.8 494.4 1798.7 494.35
Q 1797.95 494.55 1797.8 495.8 1797.65 497.05 1797.75 498.25
L 1797.85 499.6
Q 1797.85 500.25 1797.85 501.7 1797.8 503.15 1797.9 504.5 1798.05 505.9 1798.5 506.3
L 1798.5 506.35 1798.55 506.35 1798.65 506.4 1799 506.35 1799.25 506.35
Q 1799.4 506.35 1799.6 506.35 1799.8 506.35 1799.95 506.3
L 1801.45 506.3
Q 1809.75 506.15 1818.1 505.8 1826.4 505.45 1834.7 505.25
L 1834.75 505.15 1835.15 505 1848 505.1 1848.4 505.15 1848.75 505.15 1849.1 505.1 1849.5 505.1
Q 1849.75 505.1 1849.95 505.1
L 1853.15 505.05
Q 1854.05 505.05 1854.9 505.05 1855.8 505.05 1856.7 505 1858.85 504.95 1861 504.95 1863.2 504.9 1865.35 504.85 1865.55 504.85 1865.8 504.85
L 1866.2 504.85 1866.5 504.8 1866.75 504.8
Q 1867.5 504.8 1868.2 504.8 1868.9 504.75 1869.6 504.75 1869.8 504.55 1870 504.35 1870.2 504.1 1870.4 503.9 1871.1 503.15 1871.5 502.65
L 1871.85 502.25 1871.95 502.1 1872.15 501.95 1872.35 501.75 1872.5 501.55 1873.05 501
Q 1873.35 500.7 1873.6 500.45
L 1874.05 500
Q 1878.85 495.25 1883.65 490.5 1888.5 485.75 1893 480.7 1893.65 480 1894 479.4 1894.3 478.8 1894.35 478.4
L 1894.45 478.1 1894.6 477.5 1894.7 476.35 Z"/>


</g>

<g id="Symbol_124_0_Layer0_0_FILL">
<path fill="#FFFFFF" stroke="none" d="
M 1391.55 1047.3
Q 1391.85 1047 1392.25 1046.65 1392.65 1046.3 1392.8 1046 1392.8 1045.75 1392.55 1045.3 1392.3 1044.85 1392.15 1044.7 1391.3 1044.05 1390.8 1044.45 1390.25 1044.85 1389.5 1045.55 1376.7 1056.25 1366.35 1069.5 1355.95 1082.75 1350.6 1098.25 1345.25 1113.75 1347.4 1131.15 1349.05 1142.8 1353.25 1153.75 1357.4 1164.7 1363 1175.05 1368.6 1185.4 1374.6 1195.4
L 1375.35 1196.65
Q 1375.95 1197.6 1376.5 1198.45 1376.95 1199.2 1377.4 1200 1377.85 1200.75 1378.35 1201.5 1378.8 1201.15 1379.35 1200.8
L 1380 1200.3
Q 1380.45 1200 1380.85 1199.7 1381.25 1199.4 1381.7 1199.1
L 1382.2 1198.8 1383.05 1198.15
Q 1384.15 1197.4 1385.05 1196.75 1384.75 1196.3 1384.45 1195.8
L 1384.05 1195.2
Q 1375.9 1183.2 1367.95 1169.2 1360.05 1155.15 1355.5 1140.15 1351 1125.15 1353 1110.1 1355.05 1097.35 1360.7 1086.35 1366.35 1075.3 1374.4 1065.65 1382.4 1055.95 1391.55 1047.3 Z"/>
</g>

<g id="Symbol_125_0_Layer0_0_FILL">
<path fill="#0081c6" stroke="none" d="
M 1080.3 454.4
L 1072.3 456.4 1049 464.75 1034.3 472.3 1029.75 475.4 1029.7 475.4 1027.6 477.1 1020.2 485.1 1009.55 500.8 990.6 537.35 990.35 537.05 989.95 537.05 989.6 537.25 989.5 537.5 989.8 538.65 985.85 544.95 985.8 545.4 986.05 545.7 986.45 545.8 986.65 545.7 986.85 545.55 990.2 540.15 1022.7 669.95 1035.8 730.95 1039.85 746.7 1040.8 749.2 1040.85 749.25 1040.85 749.3 1042.1 751.45 1043.65 753.4 1045.45 755.15 1049.55 758 1056.3 761.05 1058.6 761.85 1058.65 761.85 1063.3 763.2 1072.95 764.85 1082.75 765 1095.8 763.35 1106 760.7 1110.9 758.6 1113.2 757.15 1115.1 755.25 1115.1 755.15 1115.2 755.05 1116.4 752.6 1118.1 747.25 1124 720.35 1129.7 685.05 1132.5 621.5 1133.2 574.45 1129.75 520 1128.85 514.6 1118.8 473.35 1115.7 466.05 1111.4 459.35 1109.75 457.3 1109.7 457.3 1107.6 455.4 1107.55 455.4 1107.5 455.35 1105.05 454.1 1105 454.1 1102.3 453.3 1099.5 452.85 1094 452.65 1080.3 454.4 Z"/>
</g>

<g id="Symbol_126_0_Layer0_0_FILL">
<path fill="#FFFFFF" stroke="none" d="
M 961.6 465.5
Q 955.25 471.95 958 477.55
L 961.15 487.1 964.55 503.3
Q 968.05 522.9 971.35 546.75 974.65 570.6 977.05 589.7
L 980.1 614
Q 981.55 624.35 984.05 640.75 986.55 657.2 989.4 675.3 992.2 693.45 994.75 708.95 997.25 724.45 998.85 732.95
L 1002.25 735.9 1009.6 740.75
Q 1018.95 746.45 1033.45 752.1 1048 757.7 1065.1 759.4 1076.45 760.15 1088.2 758.15 1099.9 756.15 1108.05 753.5
L 1114.25 751.25 1116.7 749.75
Q 1123.9 716.25 1125.9 691 1127.95 665.7 1127.25 645.25 1126.55 624.8 1125.5 605.75 1124.75 589.35 1124.8 565 1124.9 540.65 1126.45 512.75 1128.05 484.85 1131.85 457.8 1135.6 430.8 1142.3 409.05 1145.15 398.5 1134 400.15 1122.85 401.8 1104.55 409.6 1086.25 417.45 1067.7 425.4 1049.15 433.35 1037.25 435.45 1022.6 437.55 1007.55 442.25 992.5 446.9 980.2 453 967.95 459.1 961.6 465.5 Z"/>
</g>

<g id="Symbol_92_0_Layer0_0_FILL">
<path fill="#FFFFFF" stroke="none" d="
M 743.05 735.4
L 745.45 761.95
Q 747.75 786.5 750.75 818.5 753.8 850.55 756.1 875
L 758.55 901.15
Q 763.6 907.75 774.7 912.05 785.8 916.35 799.75 917.75 813.7 919.2 827.35 917.15 840.95 915.1 851 908.95
L 854.25 899.3
Q 857.25 890.2 861.45 875.65 865.6 861.15 869.25 844.55 872.1 831.05 874.65 814.7 877.2 798.3 879.2 783.15 881.2 767.95 882.35 758.1
L 883.55 747.75
Q 876.05 734 856.85 729 837.7 723.95 814.4 724.7 791.15 725.4 771.4 728.8 751.65 732.25 743.05 735.4 Z"/>
</g>

<g id="Symbol_19_0_Layer0_0_FILL">
<path fill="#0081c6" stroke="none" d="
M 943.65 840.8
Q 942.6 838.75 942.2 837.35 941.45 834.6 941.05 831.85 940.7 829.05 940.15 826.35
L 939.65 824.85 939.1 824.45
Q 938.5 824.55 938.05 825.8 937.65 827 937.65 828.25 937.8 831.4 938.75 835.75 939.7 840.1 941.85 843.7 943.95 847.3 947.65 848.15 951.1 848.6 953.45 845.55 955.8 842.55 957.1 838.5 958.4 834.45 958.75 831.75 958.9 830.75 958.95 828.85 959 826.95 958.7 825.25 958.4 823.5 957.45 822.95
L 957.25 822.9
Q 957.1 822.9 957.05 822.95 956.7 823.3 956.6 823.8
L 956.45 824.5
Q 956.2 826.4 956.15 828.4 956.15 830.4 955.8 832.35 955.5 834.05 954.65 836.85 953.8 839.65 952.5 842.15 951.2 844.6 949.5 845.25 947.75 845.7 946.2 844.3 944.7 842.85 943.65 840.8 Z"/>
</g>

<g id="Symbol_20_0_Layer0_0_FILL">
<path fill="#FFFFFF" stroke="none" d="
M 923.4 167.5
Q 916.1 172.05 911.35 176.95
L 907.6 181.2 905.95 184.05 905.45 187 905.3 191.9
Q 905.3 197.7 905.6 204.45 905.9 211.2 906.25 216.1
L 906.6 221.25 909.7 221.65
Q 912.6 222.1 915.6 222.4
L 917.9 222.55 919 222.45
Q 925.6 213.05 929.15 207.95 932.7 202.85 934.35 199.75 936 196.65 936.85 193.3 937.85 189.35 938.6 182.3 939.4 175.25 939.55 169.1
L 939.45 164.2 938.9 161.8
Q 930.7 162.95 923.4 167.5 Z"/>
</g>

<g id="Symbol_21_0_Layer0_0_FILL">
<path fill="#FFFFFF" stroke="none" d="
M 849.85 162.55
L 848.25 160.3
Q 838.8 166.65 832.2 176.9 825.6 187.2 822.15 196.8 818.7 206.45 818.75 210.75 819.1 213.45 822.1 219.15 825.1 224.9 829 231.2 832.85 237.55 835.8 242.05
L 838.85 246.75 842.7 244.9
Q 846.3 243.25 849.9 241.4
L 852.7 239.85 853.9 238.95
Q 856.8 225.15 857.8 215.3 858.75 205.45 858.55 199.35 858.3 193.3 857.6 190.7 856.85 187.7 855.2 180.75 853.55 173.8 851.65 167.5
L 849.85 162.55 Z"/>
</g>

<g id="Symbol_22_0_Layer0_0_FILL">
<path fill="#FFFFFF" stroke="none" d="
M 661.65 767.35
L 648.9 766.15
Q 647.3 766.15 646.3 767.25 645.25 768.35 645.2 769.8 645.15 771.3 646.5 772.5
L 649.1 773.9 654.55 776.1
Q 661.45 778.7 672.95 780.7 684.4 782.7 699.15 781.9 713.85 781.15 730.65 775.45 742.3 771.1 752.6 762.8 762.95 754.5 770.9 745.45 778.9 736.4 783.5 729.9
L 788.3 722.65 787.25 721.25 784.35 718.45
Q 780.55 714.95 775.95 710.9 771.3 706.9 768.6 704.6 766.5 707.95 761.25 715.5 756 723 748.5 732 741.05 741.05 732.35 748.9 723.6 756.75 714.6 760.8 701.2 766.2 686.75 767.2 672.35 768.2 661.65 767.35 Z"/>
</g>

<g id="Symbol_127_0_Layer0_0_FILL">
<path fill="#0081c6" stroke="none" d="
M 1065.35 476.45
Q 1060.65 471.65 1055.15 467.15 1049.9 462.3 1043.85 457.85 1037.85 453.35 1031.05 449.3 1030.85 449 1030.65 448.7 1030.45 448.45 1030.25 448.25 1029.8 448.15 1029.45 448.1 1029.1 448.05 1028.85 448.05 1027.65 447.4 1026.2 446.65 1024.7 445.85 1023.55 445.2 1023 444.85 1022.45 444.95 1021.9 445.1 1022.3 446
L 1022.85 446.45 1024.25 447.4
Q 1026.1 448.65 1028.75 450.4
L 1029 451.1
Q 1029.1 451.5 1029.25 451.95 1032 460.1 1035.5 468 1038.95 475.95 1041.85 484.05 1047.45 501.25 1049.3 518.55 1051.15 535.85 1052.65 553.05 1054.2 570.3 1058.8 587.2 1064.45 607.2 1064.6 627.25 1064.7 647.35 1060.1 667.05 1055.55 686.7 1047.1 705.45
L 1045.45 708.4
Q 1044.05 710.85 1042.35 714.35 1040.6 717.85 1039.5 721.4 1038.9 722.25 1038.4 723.05 1037.95 723.9 1037.8 724.65 1038.05 724.7 1038.3 724.7 1038.55 724.65 1038.8 724.6 1038.6 726.25 1038.8 727.65 1039 729 1039.8 729.95 1039.3 730.75 1038.9 731.45 1038.55 732.2 1038.45 732.8 1039.4 732.8 1040.35 731.85 1041.25 730.9 1041.6 730.45 1053.3 718.3 1062.8 700.85 1072.35 683.35 1079.15 663.4 1085.9 643.4 1089.35 623.8 1091.7 615.55 1093.25 606.7 1094.85 597.8 1095.6 588.75 1097.15 580.1 1097.85 571.3 1098.55 562.55 1098.2 555.25 1098.15 554 1098.05 552.7 1097.95 551.4 1097.8 550 1097.15 540.2 1094.05 528.45 1090.95 516.75 1085.8 505.65 1080.65 494.5 1074 486.45 1070.05 481.3 1065.35 476.45
M 1047.95 715.9
Q 1050.5 713 1052.8 710 1051.9 711.3 1050.95 712.6 1050 713.95 1049 715.3 1048.55 715.75 1047.6 716.9 1046.65 718 1046.65 719.1 1046.8 719.15 1047.05 719.2
L 1047.35 719.2
Q 1047.45 719.2 1047.6 719.05 1047.75 718.95 1047.95 718.75
L 1048 718.85 1048.3 718.9
Q 1047.2 720.4 1046.1 721.95 1045 723.45 1043.9 724.95 1043.5 725.45 1042.45 726.65 1041.4 727.8 1040.3 729.25 1040.05 727.9 1040.25 726.4 1040.45 724.9 1040.95 723.45 1041.55 722.95 1041.95 722.45
L 1042.65 721.75
Q 1045.4 718.85 1047.95 715.9
M 1080.65 652.8
Q 1080.1216796875 654.5361328125 1079.55 656.25 1080.075 654.55 1080.6 652.85 1081.1283203125 651.1140625 1081.65 649.35 1081.175 651.1 1080.65 652.8
M 898.95 786.2
L 900.7 786.5
Q 902.75 786.8 904.8 786.95 906.9 787.15 908.95 787.2 908.75 787.55 909.2 787.75 909.65 787.95 910.65 788.1 911.05 788.15 911.4 788.2 911.8 788.25 912.25 788.3 911.25 788.4 910.25 788.45
L 906.6 788.7
Q 905.35 788.8 904.35 789.25 904.25 789.25 904.05 789.45 903.85 789.6 903.85 789.75 903.95 790.2 904.15 790.45 904.35 790.7 904.65 790.8
L 903.95 790.9
Q 903.65 790.9 903.3 790.95
L 901.3 791.5 900.55 792.25
Q 900.4 793.15 901.75 793.9 903.05 794.6 904.95 794.65 906.4 794.65 908.9 794.55 911.4 794.45 914.35 794.25 913.45 794.75 913.2 795.45 913 796.2 913.9 797.1
L 915.5 797.25 918.85 797
Q 923.05 796.45 927.5 795.7
L 933.35 794.6
Q 936.55 793.75 940.65 792.6 944.8 791.45 949 789.95 953.2 788.5 956.6 786.8 957.75 786.45 958.95 786.05 960.15 785.65 961.35 785.2 962.8 784.25 964.25 783.35 965.7 782.4 967.2 781.45 968.65 780.55 970.15 779.2 971.6 777.9 973.1 776.4 971.4 775.8 969.15 776.55 966.95 777.35 965.15 778.45
L 962.95 779.8
Q 962.15 780.25 961.35 780.6 960.55 781 959.8 781.35 958.65 781.15 957.45 781.6 956.25 782 955.35 782.55 955.2 782.5 954.95 782.55 954.75 782.55 954.45 782.6 954.05 782.5 953.6 782.55 953.15 782.6 952.9 782.6 944.55 782.6 936.2 783.5 927.9 784.4 919.55 785.05 911.25 785.7 902.95 784.85
L 901.3 784.65
Q 900.05 784.5 898.95 784.65
L 898.3 785.4 898.25 785.85 898.95 786.2
M 940.85 785.05
Q 941.05 785 941.25 784.9 941.45 784.85 941.6 784.75 942 784.75 942.4 784.7
L 943.15 784.65
Q 942.75 784.7 942.5 784.75 942.25 784.8 942.05 784.85 941.75 784.9 941.45 784.95 941.15 785 940.85 785.05
M 751 554.8
Q 750.55 554 749.65 552.4 748.7 550.85 747.8 549.1 746.9 547.35 746.45 546 746.35 549.1 746.5 552.2 746.65 555.35 747.1 558.65 747.85 564.1 748.65 569.65 749.45 575.15 750.25 580.7 750.3 580.45 750.35 580.25 750.4 580.05 750.5 579.95 750.7 579.6 751.1 579.4 751.5 579.2 752.05 579.35 752.95 580.45 753.3 582.1
L 753.75 584.35
Q 754.1 586.2 754.35 588.05 754.6 589.95 754.75 591.85 752.05 588.35 749.25 585 746.45 581.7 743.55 578.65
L 742.15 577.2
Q 741 576.05 740.05 575.15 740 575.05 739.75 575 739.55 575 739.45 575.05 738.65 570.4 737.95 565.7 737.2 561 736.05 556.05
L 735.25 553.85
Q 734.6 552.15 733.75 550.95 733.5 550.75 733.2 550.85 732.9 550.95 732.75 551.2
L 732.75 552.25 733.1 554.25
Q 733.55 556.8 734.15 559.45
L 734.9 563.1
Q 736.25 571.85 738.45 579.55 740.6 587.2 743.2 594.65 745.8 602.05 748.45 610.2 750.2 615.45 752.25 620.85 754.35 626.2 756.35 631.6
L 756.4 631.65
Q 756.55 632.3 756.8 632.85 757 633.45 757.25 633.95 757.45 634.55 757.65 635.1 757.85 635.65 758.05 636.25 758.45 639.2 758.85 642.1 759.25 645.05 759.7 648 760.8 662.35 761.85 676.7 762.85 691.1 763.65 705.65 763.7 706.6 763.75 707.55 763.8 708.5 763.9 709.45 764 719.1 764.6 728.6 765.2 738.1 766.5 747.35
L 766.9 752.75
Q 767.15 756.75 767.45 760.5
L 767.7 763.4 767.95 764.65
Q 768.2 764.9 768.7 765.1 769.15 765.3 769.7 765.1 770.4 764.35 770.85 763.25 771.25 762.15 771.45 760.85 772 764.5 772.55 767
L 773.1 769.05 773.6 770.05
Q 773.8 770.25 774.15 770.5 774.55 770.8 775.1 770.7 777 769.8 777 766.55 777.05 763.3 776.4 760.3
L 775.65 757.05
Q 775.55 755.95 775.45 754.9 775.3 753.8 775.2 752.7 775.65 750.75 775.65 748.4 775.6 746.05 775.35 743.95 777.35 746.65 779.75 749.5 782.1 752.35 784.85 755.5 785.05 755.75 785.4 756.25 785.75 756.75 786.25 757.35 786.3 757.65 786.4 757.9 786.5 758.15 786.7 758.35
L 786.95 758.25
Q 787.55 759 788.2 759.55 788.85 760.1 789.45 760.3 789.7 760.1 789.65 759.75 789.6 759.4 789.55 759.25 789.45 758.8 789.15 758.2 788.85 757.6 788.35 756.95 789.3 755.1 789.55 752.95
L 789.8 750.1
Q 789.9 743.65 789.7 736.85 789.55 730.1 789.2 723.6 788.55 708.05 787.75 692.05 787 676.05 785.3 660.55 783.75 647.55 778.9 634.6 774.05 621.7 766.8 609.6 766.75 609 766.6 608.45 766.45 607.9 766.2 607.5 766.1 607.55 765.9 607.45 765.7 607.4 765.65 607.45
L 765.6 607.55
Q 764.95 606.45 764.25 605.45 763.6 604.4 762.95 603.35 762.75 602.65 762.55 601.9 762.35 601.2 762.15 600.5 761.9 599.25 761.55 597.95 761.25 596.65 760.05 596.45 760.25 595.75 760.45 595.05 760.65 594.4 760.8 593.7 761.2 592.25 762.1 589.3 763 586.4 764.05 583.8 761.45 576.55 758.15 569.35 754.85 562.15 751 554.8
M 739.75 576.6
Q 740.45 577.85 741.7 579.4 742.95 580.95 744.15 582.3 745.4 583.7 746 584.4 748.4 587.4 750.7 590.4 753 593.4 755.15 596.4 755.3 598.3 755.45 600.2 755.55 602.15 755.7 604.05 755.4 606.4 755.5 608.7 755.65 610.95 755.7 611.9 755.75 613.05 755.8 614.2 755.85 615.35 755.95 616.5 755.65 615.6 755.3 614.7 754.95 613.85 754.6 613
L 753.75 610.85
Q 753.05 609.25 751.95 608.35 751.4 608.3 751.05 608.55 750.7 608.8 750.55 609.2 750.5 609.35 750.5 609.55 750.45 609.75 750.5 610 748.6 604.7 746.7 599.4 744.8 594.15 742.95 588.9 741.8 585.75 741.05 582.7 740.3 579.6 739.75 576.6
M 771.8 713.1
Q 772.05 715.25 772.25 717.4 772.45 719.55 772.65 721.75
L 773.3 724.9
Q 773.85 727.55 774.2 730.8 774.6 734.1 774.15 736.6 773.7 734.05 773.35 731.5 772.95 728.95 772.6 726.35 772.35 723.05 772.2 719.75 772 716.4 771.8 713.1 Z"/>
</g>

<g id="Symbol_128_0_Layer0_0_FILL">
<path fill="#FFFFFF" stroke="none" d="
M 955.75 420.8
Q 923.4 422.75 881.3 425.7 839.2 428.7 807.35 431.05
L 773.8 433.5 765.15 438.2
Q 756.95 442.8 747.15 450.9 737.35 459 732 469.6 726.65 480.15 731.8 492.25 737.95 505.35 742.15 522.95 746.35 540.55 750 562.45 753.7 584.4 758.1 610.45 759.5 618.85 760.9 632.1 762.25 645.35 763.45 659.6 764.65 673.8 765.65 685.15 766.6 696.45 767.25 700.95 768.1 707.1 769.3 717.65 770.55 728.2 773.4 740.6 776.25 753.05 781.9 764.8 787.55 776.55 797.15 785.1 809.3 795 830.95 797.95 852.6 800.9 878 798.8 903.45 796.65 926.95 791.3 950.5 785.95 966.5 779.2 982.85 772.35 996.6 763.5 1010.3 754.65 1022.3 742.15 1034.25 729.6 1045.4 711.65 1051.6 701.85 1058.85 688.3 1066.1 674.8 1072.4 659.3 1078.75 643.8 1082.2 627.95 1085.7 611.1 1087.45 594.8 1089.15 578.55 1089.25 564.2 1089.35 549.85 1087.85 538.85 1083.75 512.8 1069.1 491.25 1054.45 469.7 1036.7 453.9 1019 438.1 1005.65 429.2
L 990.7 419.45 980.65 419.45 955.75 420.8 Z"/>

<path fill="#0081c6" stroke="none" d="
M 1027.1 329.9
Q 1025.65 330.9 1025.7 332.9 1025.8 334.9 1026.1 336.6 1024.85 337.25 1024.8 339.6 1024.7 341.9 1025.05 344.1
L 1025.45 346.5
Q 1025.95 351.5 1025.75 356.7 1025.5 361.9 1026.35 367.3 1027.55 374.3 1026.85 382.45 1026.2 390.6 1024.1 398.45 1021.95 406.3 1018.8 412.35
L 1017.85 414.15 1017.55 415.05 1018.05 415.4 1019.45 415.5
Q 1020.4 414.6 1021.2 413.25
L 1022.2 411.45
Q 1023.4 408.85 1024.4 406.05 1025.4 403.3 1026.8 401.25 1028.75 398.55 1029.95 393.9 1031.2 389.25 1031.65 384.35 1032.15 379.4 1031.75 375.75 1031.6 374.25 1031.55 372.75 1031.5 371.25 1031.55 369.7 1032.15 366.9 1032.15 364.3 1032.15 361.65 1031.95 358.45 1031.75 354.45 1031.85 351.1 1031.9 347.75 1032.1 343.95
L 1032.2 341.9
Q 1032.25 340.15 1031.9 338.35 1031.6 336.5 1030.55 335.8 1030.35 335.85 1030.2 335.95 1030.05 336 1029.9 336.1 1029.65 333.9 1029.25 332.45 1028.9 330.95 1028.35 330.5 1028.2 330.35 1027.85 330.15 1027.5 329.95 1027.1 329.9 Z"/>
</g>

<g id="Symbol_129_0_Layer0_0_FILL">
<path fill="#0081c6" stroke="none" d="
M 1024.6 187.55
Q 1024.1 186.95 1023.15 186.4 1022.2 185.85 1021.25 186.5 1020.9 187.6 1021.4 189.35 1021.9 191.1 1022.7 192.9 1021.7 191.45 1020.5 190.85 1019.3 190.2 1018.1 191.7 1017.45 193.45 1018.45 195.9 1019.45 198.3 1020.65 200.15 1020.1 199.85 1019.45 200 1018.85 200.1 1018.25 200.8 1018.2 200.95 1018.2 201.1 1018.15 201.25 1018.15 201.4 1017.9 201.4 1017.65 201.45 1017.4 201.5 1017.15 201.6 1016.5 203.3 1016.95 205.5 1017.45 207.7 1018.25 209.6 1019.1 211.55 1019.45 212.45 1023.6 224.65 1027.65 237.1 1031.75 249.5 1035.65 261.7 1039.1 272.15 1041.4 282.1 1043.7 292.05 1045.1 302.45
L 1045.05 302.5
Q 1041.65 303.6 1040.45 307.2 1039.3 310.8 1039.3 315.15 1039.3 319.45 1039.35 322.7 1039.25 328.1 1039 333.2 1038.75 338.3 1039 343.75 1039.6 354.4 1039.5 364.75 1039.45 375.05 1039.05 385.7 1039 387.3 1039.05 390.35 1039.1 393.4 1039.4 396.75 1039.2 396.8 1039.05 396.85 1038.85 396.95 1038.6 397.05
L 1038.35 397.45
Q 1038.15 397.8 1037.75 398.05
L 1036.75 398.75 1036.2 399.25
Q 1035.95 399.6 1035.9 400.3 1035.55 401.2 1035.4 402.15 1035.25 403.05 1035.15 403.6 1035 404.15 1034.85 404.75 1034.65 405.35 1034.4 405.85
L 1034.25 406.35
Q 1034.1 406.7 1034 407 1032.6 406.6 1031.55 408.35 1030.55 410.1 1029.95 412.1
L 1029.3 414.3
Q 1028.7 415.3 1027.8 416 1026.9 416.7 1025.9 418.5 1024.85 420.65 1023.9 422.45 1022.9 424.25 1021.95 425.95 1022.45 424.2 1022.4 422.75 1022.3 421.25 1021.3 420.45 1020.55 421 1019.95 422.2 1019.3 423.4 1018.85 424.6 1018.45 425.75 1018.2 426.25 1017.1 428.5 1014.65 432.65 1012.25 436.8 1009.65 440.6 1007 444.45 1005.25 445.75
L 1004.55 445.85
Q 1003.9 445.95 1003.55 446.35 1003.25 446.45 1003.3 446.75
L 1003.35 447.1
Q 1003.35 447.25 1003.7 447.4
L 1004 447.65
Q 1003.6 448.7 1002.5 450 1001.45 451.3 1000.1 452.75 991.1 453.95 981.6 455.45 972.1 456.95 962.75 459.1 953.4 461.3 944.95 464.6 938.2 467.25 931.45 469.75 924.65 472.25 917.95 474.8
L 915.85 475.85
Q 914.3 476.7 913.2 477.8 913.15 478.05 913.2 478.35 913.2 478.6 913.3 478.85 913 479.05 913.05 479.35 913.15 479.6 913.4 479.9 915.9 482.6 922.7 483.95 929.5 485.35 936.7 485.8 943.9 486.3 947.6 486.4 964 486.85 978.3 481.8 992.6 476.75 1005.35 467.8 1009.2 465.65 1012.65 463.1 1016.1 460.55 1019.25 457.3 1025.05 451.85 1029.5 444.45 1033.9 437.05 1037.35 426.95 1037.55 426.6 1037.7 426.25
L 1038.1 425.55
Q 1043.35 415.6 1046.75 403.1 1050.2 390.65 1052.2 377.6 1054.2 364.6 1055.3 353 1055.45 351.85 1055.7 349.8 1055.9 347.8 1055.85 346.2 1056.1 340.75 1055.8 335.45 1055.5 330.2 1054.95 324.45 1054.75 321.6 1054.45 317.95 1054.15 314.35 1053.65 310.75 1053.9 307.5 1053.4 303.6 1052.95 299.7 1052.35 296.75
L 1051.6 293.3
Q 1051.4 292.35 1051.25 291.35 1051.05 290.4 1050.85 289.4 1049.65 280.35 1047.95 270.45 1046.25 260.6 1044 250.5 1041.75 240.45 1038.95 230.9 1037.35 222.65 1035.25 213.9 1033.1 205.15 1030.4 198.05 1027.75 190.9 1024.6 187.55 Z"/>
</g>

<g id="Symbol_26_0_Layer0_0_FILL">
<path fill="#0081c6" stroke="none" d="
M 980.9 222.3
L 981.3 221
Q 981.55 220.05 981.4 219.3 980.9 218.9 980.7 219.3 980.5 219.75 980.35 220.35 979.2 224.05 977.7 227.6 976.2 231.2 974.35 234.55 972.25 238.5 969.8 242.15 967.35 245.85 964.55 249.25 964.25 249.55 963.6 250.25 962.9 251 962.7 251.7
L 962.85 251.8
Q 962.5 252.1 962.3 252.4 962.05 252.75 962 253.1 962.3 253.4 962.7 253.25 963.1 253.1 963.35 252.9 965.8 251.45 968.65 248.45 971.5 245.4 974.15 242 976.75 238.6 978.35 236.15 978.5 235.95 978.8 235.5 979.1 235 979.4 234.45 979.6 234.1 979.7 233.7 979.8 233.35 979.75 233 979.3 232.75 979 233.15 978.7 233.55 978.5 233.95 978.35 234.15 978.25 234.35 978.1 234.55 977.95 234.75 978.3 233.9 978.4 233.1 978.45 232.3 978.05 231.7 977.7 231.5 977.45 231.6 977.2 231.7 977 232 978.2 229.5 979.2 227.05 980.15 224.6 980.9 222.3
M 966.6 248.5
L 966.85 248.2 966.9 248.2 966.6 248.5 Z"/>

<path fill="#FFFFFF" stroke="none" d="
M 966.85 248.2
L 966.6 248.5 966.9 248.2 966.85 248.2
M 1012.45 184.25
Q 1009.55 185.35 1007.8 188.35 1002.5 197.95 997.95 206.1 993.45 214.25 988.95 221.25 984.5 228.25 979.4 234.45 979.1 235 978.8 235.5 978.5 235.95 978.35 236.15 976.75 238.6 974.15 242 971.5 245.4 968.65 248.45 965.8 251.45 963.35 252.9 963.1 253.1 962.7 253.25 962.3 253.4 962 253.1 962.05 252.75 962.3 252.4 962.5 252.1 962.85 251.8
L 962.7 251.7
Q 962.9 251 963.6 250.25 964.25 249.55 964.55 249.25 967.35 245.85 969.8 242.15 972.25 238.5 974.35 234.55 971.45 233.45 967.2 231.7 962.95 229.95 958.2 227.85 953.5 225.75 949.2 223.55 942.25 219.6 928.3 216.3 914.3 213 894.95 214.6 875.65 216.15 852.55 227 840.85 232.9 833.35 239.5 825.8 246.1 821.95 251.35
L 817.3 258.3
Q 812.95 267.05 807.85 285.25 802.75 303.45 798.15 323.75 793.55 344 790.75 358.9
L 788.65 370.6 788.15 375.95 789.35 379.6 792.45 386.35
Q 796.5 394.6 805.7 407.45 814.9 420.3 830.8 436.3 844.75 449.8 859.75 458.55 874.75 467.25 887.8 472.1 900.85 476.95 909 478.85 931 483.95 950.9 481.3 970.85 478.7 985.75 472.2 1000.65 465.75 1007.65 459.3 1022.45 445.6 1031.65 423.7 1040.85 401.8 1044.75 375.3 1048.6 348.75 1047.35 321.1 1045.55 286.9 1040.65 259.3 1035.75 231.65 1030.45 213.15 1025.1 194.65 1022.15 187.85 1020.8 184.9 1018.05 184 1015.3 183.1 1012.45 184.25 Z"/>
</g>

<g id="Symbol_27_0_Layer0_0_FILL">
<path fill="#FFFFFF" stroke="none" d="
M 789.2 341.6
Q 785.8 347.35 777.75 359.8 769.7 372.25 759.95 387.45 750.2 402.65 741.65 416.8 733.1 430.9 728.8 440
L 777.9 447.45
Q 824.55 454 885.8 462.15 947 470.25 993.15 475.85
L 1028.15 479.8 1040.8 480.45 1033 470.6
Q 1027.2 463.4 1019.85 454.8 1012.5 446.25 1006.05 439.35 999.55 432.5 996.25 430.45
L 960.45 414.6
Q 929.2 401.1 889.65 384.25 850.05 367.4 820.4 354.85
L 789.2 341.6 Z"/>
</g>

<g id="Symbol_28_0_Layer0_0_FILL">
<path fill="#0081c6" stroke="none" d="
M 840.25 295.25
Q 839.9 295.3 839.65 295.65 839.4 295.95 839.3 296.45 839.25 296.7 839.2 297.05 839.15 297.4 839.1 297.75 839.05 298.4 839.05 299.15 839.05 299.85 839.05 300.45 839.1 304.75 839.4 307.2 839.7 309.7 840.3 311.95 841.5 316.85 843.65 320.55 845.85 324.25 849.5 325.35 850.15 325.6 850.85 325.6 851.55 325.6 852 325.5 855.2 324.65 857.8 321.95 860.35 319.3 862 315.55 863.65 311.85 864.2 308
L 864.3 307.3
Q 864.4 306.75 864.4 306.1 864.6 305.1 864.55 304.3 864.5 303.45 864.15 302.9 863.7 303.05 863.5 303.6 863.35 304.15 863.3 304.4 862.1 308.55 861.1 311.75 860.15 315 858.35 317.35 856.6 319.7 852.9 321.2 850.25 322.05 847.95 319.1 845.65 316.1 844.05 311.55 842.45 306.95 841.85 303.1 841.65 302.2 841.45 301.3 841.3 300.35 841.15 299.4 841 298.1 840.8 297.1 840.55 296.15 840.25 295.25 Z"/>
</g>

<g id="Symbol_29_0_Layer0_0_FILL">
<path fill="#FFFFFF" stroke="none" d="
M 915.85 293.65
Q 914.9 283.9 909.2 276.25 903.5 268.6 890.55 266.1 877.35 264.2 869.25 269.95 861.1 275.7 856.6 284.55 852.15 293.35 849.95 300.7 858.85 301.75 870.05 303.6 881.25 305.45 893.05 307.7 904.8 309.9 915.4 312.05 916.75 303.35 915.85 293.65 Z"/>
</g>

<g id="Symbol_130_0_Layer0_0_FILL">
<path fill="#0081c6" stroke="none" d="
M 932.45 478.8
Q 932.45 480.5 933.2 482.3 933.95 484.15 934.5 485.35 935.15 486.9 935.75 488.45 936.35 489.95 936.9 491.5 936.45 490.7 935.85 490.15 935.25 489.55 934.55 489.3 932.9 490.1 932.95 491.8 933 493.45 933.4 494.65 935.4 501.9 937.9 508.8 940.45 515.7 941.3 523.25 942.05 531.75 942.85 540.1 943.7 548.45 944.6 556.85
L 944.35 560.15
Q 944.15 562.85 944.65 565.5 945.1 568.2 947.15 568.9 947.45 568.8 947.85 568.55 948.2 568.3 948.3 568.15 949.35 566.05 949.05 561.85 948.8 557.65 948.1 553.3 948.4 553.7 948.7 554 949.05 554.3 949.45 554.45 950.85 553.8 950.95 551.45 951.1 549.1 950.7 546.85
L 950.25 544.4
Q 949.8 533.35 948.65 523.25 947.5 513.1 945.05 503.25 942.6 493.35 938.2 483.05 938 482.45 937.5 481.05 936.95 479.65 936.15 478.2 935.35 476.8 934.2 476.2 932.5 477.1 932.45 478.8 Z"/>
</g>

<g id="Symbol_131_0_Layer0_0_FILL">
<path fill="#FFFFFF" stroke="none" d="
M 943.75 492.5
Q 942.3 482 933.95 471.45 925.6 460.95 911.3 453.4 896.95 445.9 877.5 444.4 865.7 443.3 850.8 437.7 835.9 432.15 822.3 426.25 808.75 420.35 801 418.35 793.2 416.3 795.75 422.35 800.85 433.95 802.6 450.2 804.4 466.45 804.15 485.3 803.95 504.2 802.95 523.6 802 543 801.6 560.85 801.1 585.65 803.5 616.5 805.9 647.4 811.9 680.5 817.9 713.65 828.25 745.15
L 830.25 747.05 835.3 750.25
Q 841.9 754.15 853.4 757.4 864.9 760.65 880 760 894.1 759 903.4 756 912.75 752.95 917.75 749.65
L 921.7 746.65 923.75 744.4
Q 926.95 733.1 929.75 715.25 932.55 697.4 934.9 675.5 937.2 653.55 939.05 630 941.4 599.3 942.8 570.75 944.2 542.2 944.45 521.25
L 944.4 503.6 943.75 492.5
M 851.85 735.95
L 860.05 734.5
Q 865.6 733.2 873.65 732.05 881.65 730.9 890 731 898.4 731.1 905.05 733.65 911.7 736.2 914.6 742.3 915 743.15 915.05 744.2 915.1 745.25 914.05 745.85 912.5 746.05 911.15 745.05 909.8 744 908.85 742.8 907.85 741.55 907.3 741.05 900.4 735.85 888.6 735.4 876.85 734.95 864.65 737.25 852.45 739.55 844.25 742.55 843.55 742.85 842.05 743.75 840.55 744.65 838.85 745.3 837.1 745.95 835.7 745.6 835.3 741.7 840.5 739.4 845.75 737.1 851.85 735.95 Z"/>
</g>

<g id="Symbol_105_0_Layer0_0_FILL">
<path fill="#0081c6" stroke="none" d="
M 1055.45 790.65
L 1055.3 791.5
Q 1055.25 791.85 1055.15 792.15 1050.75 810.55 1047 827.9 1043.2 845.3 1039.6 862.7 1036 880.1 1032.15 898.55 1031.9 899.75 1032 900.7 1032.1 901.65 1032.45 902.35 1030.85 903.2 1029.25 903.95 1027.7 904.7 1026.2 905.35 1023.65 906.15 1021.1 906.85 1018.55 907.55 1015.9 908.1
L 1012.15 908.6
Q 1008.95 909.05 1006 910.1 1003.05 911.15 1003.1 913 1003.35 913.3 1003.7 913.35 1004.1 913.4 1004.5 913.3 1004.75 913.45 1005.05 913.55 1005.35 913.65 1005.6 913.7
L 1008.5 913.55 1013.1 912.6
Q 1018.5 911.2 1023.95 909.35 1029.35 907.5 1031.35 906.35 1031.9 906.05 1033.15 905.25 1034.4 904.5 1035.3 903.55 1035.85 903.25 1036.3 902.5 1036.75 901.8 1037 900.6 1041.1 882.35 1044.85 865 1048.6 847.6 1052.25 830.2 1055.9 812.8 1059.7 794.55
L 1059.85 793.6
Q 1059.95 792.7 1060 791.45 1060 791.25 1060.05 791.05 1060.1 790.85 1060.1 790.7
L 1060 790.7
Q 1059.65 790.8 1059.3 790.85 1058.95 790.9 1058.6 790.95 1057.8 791 1057 790.95 1056.2 790.9 1055.45 790.65 Z"/>
</g>

<g id="Symbol_31_0_Layer0_0_FILL">
<path fill="#FFFFFF" stroke="none" d="
M 899.05 742.6
Q 901.3 752.35 904.65 766.95 907.95 781.5 911.25 796.45 914.55 811.4 916.75 822.3 918.65 831.3 922.4 844.05 926.2 856.75 930.35 869.3 934.5 881.85 937.45 890.3
L 940.6 899.25
Q 950.75 905.1 963.9 907.95 977.05 910.8 990.55 911 1004.1 911.2 1015.4 909.15 1026.75 907.05 1033.3 903
L 1035.05 895.2
Q 1036.8 887.8 1039.5 875.8 1042.25 863.85 1045.35 849.7 1048.4 835.5 1051.15 821.55 1055.2 801 1058.05 786.4 1060.85 771.8 1062.35 763.85
L 1063.8 755.35
Q 1055.1 752.4 1032.9 746.7 1010.75 741 983.55 735.75 956.35 730.45 932.55 728.85 908.75 727.2 896.7 732.35
L 899.05 742.6 Z"/>
</g>

<g id="Symbol_32_0_Layer0_0_FILL">
<path fill="#0081c6" stroke="none" d="
M 938.3 828.5
Q 938.5 831.6 939.5 835.45 940.5 839.25 942.25 842.4 943.95 845.55 946.3 846.7 950.3 848.25 953.15 845.6 956 842.95 957.6 838.15 959.2 833.4 959.35 828.65 959.4 827.55 959.25 826 959.1 824.45 958.4 824.45 958.25 824.75 958.1 825.1
L 957.95 825.6
Q 957.35 827.6 957.1 829.8 956.8 831.95 956.3 834.1 955.15 838.55 953 841.25 950.85 843.95 948.25 843.6 945.7 843.25 943.35 838.65 942.15 836.05 941.4 832.95 940.6 829.9 939.6 827.1 939 825.7 938.6 826.55 938.25 827.35 938.3 828.5 Z"/>
</g>

<g id="Symbol_5_0_Layer0_0_FILL">
<path fill="#A6CE38" stroke="none" d="
M 957.25 636.4
L 900.4 636.15 928.35 847.5 957.25 636.4 Z"/>
</g>

<g id="Symbol_132_0_Layer0_0_FILL">
<path fill="#AED044" stroke="none" d="
M 1350.85 238.5
Q 1348.05 233.6 1340.45 230.95
L 1339.7 231.05
Q 1339.05 231.15 1338.55 230.95 1338.3 230.95 1338 230.95 1337.75 231 1337.4 231 1337.8 229.7 1337.25 229.2 1336.6 228.7 1334.7 228.95 1332.1 230.75 1330.2 234.05
L 1327.8 238.5
Q 1320.55 251.1 1315.3 261.85 1310.05 272.6 1305.4 284 1300.75 295.45 1295.25 310 1293.3 313.85 1290.85 322 1288.4 330.15 1287.15 334.3 1284.6 341.8 1281 349.7 1277.35 357.65 1273.75 366.75 1272.25 369.9 1269.95 375.1 1267.6 380.3 1265.9 384.45 1260.75 395.8 1255.6 405.9 1250.5 416.05 1245.55 425.4 1243.85 428.5 1240.95 434.2 1238.05 439.9 1236.25 443.35 1228.05 455.75 1218.95 467.8 1209.85 479.8 1199.85 492 1195.2 496.75 1190.4 501.3 1185.65 505.8 1180.85 510.05 1181.25 510.5 1181.65 510.95 1182.05 511.4 1182.4 511.9 1187.1 517.9 1190 524.75 1192.9 531.65 1194.2 538.35 1194.75 542.95 1192.2 543.6 1189.65 544.25 1188.4 540.5 1187.05 534.9 1184.1 528.4 1181.2 521.95 1177.55 516.95
L 1177.5 516.95 1176.85 516.2
Q 1176.25 515.6 1175.55 514.65 1170.9 518.65 1166.45 522.35 1162 526.05 1157.8 529.5 1155.1 530.55 1152.4 531.65
L 1148.9 533.05
Q 1140.45 537.45 1132.4 544.4 1124.4 551.4 1117.45 557 1112.85 558.9 1109.3 562 1105.7 565.1 1102.8 570.8 1093.65 581.6 1091.95 594.15 1090.25 606.7 1098.9 620.85 1101 624.3 1106.4 630.85 1111.85 637.4 1118.4 642.3 1124.95 647.15 1130.45 645.5 1133.1 646.4 1135.6 646.9 1138.15 647.4 1139.2 647.6 1148.9 649.05 1166.3 645.65 1183.75 642.25 1200.65 636.1 1217.55 629.9 1225.65 623.05 1226.5 622.35 1227.8 621.15 1229.1 619.95 1229.45 619 1229.6 618.35 1229.3 617.85 1229 617.35 1228.55 617.25 1245.3 605 1258.5 594 1271.7 583 1282.8 569.4 1293.85 555.8 1304.3 535.8 1305.1 534.45 1305.9 533.05 1306.65 531.65 1307.4 530.2 1312.7 520.25 1318.05 508.8 1323.35 497.35 1328.1 485.15 1330.1 481 1332.15 476.85 1334.25 472.75 1336.4 468.6 1339.05 463.55 1341.85 452.6 1344.65 441.6 1344.95 430.1 1345.25 418.65 1340.3 412.15 1347.6 392.7 1350.3 371.1 1353.05 349.45 1358.1 329.65 1358.75 327.25 1359.25 324.85 1359.7 322.45 1359.95 320 1363.1 302.05 1361.75 285.35 1360.35 268.6 1355.35 250.8 1353.6 243.4 1350.85 238.5 Z"/>
</g>

<g id="Symbol_6_0_Layer0_0_FILL">
<path fill="#A6CE38" stroke="none" d="
M 1072.2 375.55
L 1068.15 357.75
Q 1042.15 345.2 1010.95 341.05 979.75 336.9 956.85 337.05
L 932.85 337.55 926.05 351.8
Q 919.65 365.2 912.45 380.3 905.25 395.35 902.4 401.45
L 1083.25 425.1 1079.4 407.8
Q 1075.8 391.75 1072.2 375.55 Z"/>
</g>

<g id="Symbol_7_0_Layer0_0_FILL">
<path fill="#A6CE38" stroke="none" d="
M 1001.3 267.15
Q 985.7 268.95 976.15 274.55 966.6 280.1 962.25 285.1 957.65 290.25 949.25 304.95 940.85 319.65 934.05 333.65
L 928.95 344.9 927.3 350.7
Q 928.8 356.4 938.95 362.55 949.05 368.7 963.35 373.65 977.6 378.55 991.55 380.55 1008.1 382.65 1024.7 381.35 1041.25 380.05 1053.4 375.85 1065.55 371.6 1068.75 365
L 1067.35 336.85
Q 1065.85 316.35 1059.65 296.65 1053.45 276.95 1039.5 271.65 1016.95 265.35 1001.3 267.15 Z"/>
</g>

<g id="Symbol_8_0_Layer0_0_FILL">
<path fill="#A6CE38" stroke="none" d="
M 1099.4 333.3
Q 1110.85 323.1 1118.6 311
L 1115.05 308.9 1104.95 304.7
Q 1091.55 299.45 1068.2 297.6
L 1071.15 308.1
Q 1074.2 317.9 1077.85 329.4 1081.5 340.9 1083.4 346.7
L 1099.4 333.3 Z"/>
</g>

<g id="Symbol_70_0_Layer0_0_FILL">
<path fill="#A6CE38" stroke="none" d="
M 793 728.5
L 804.5 735.2
Q 815.8 741.55 835.15 750 854.5 758.4 879 765
L 889.25 742.3
Q 898.45 720.9 910.3 692.8 922.15 664.75 931.1 643.45
L 940.5 621 915.1 609.95 793 728.5 Z"/>
</g>

<g id="Symbol_94_0_Layer0_0_FILL">
<path fill="#0081c6" stroke="none" d="
M 1098.25 386.4
Q 1097.75 385.95 1096.75 385.55 1095.8 385.1 1094.85 385.45 1094 386.15 1093.95 387.15 1093.9 388.2 1094.35 389.35
L 1094.25 389.35
Q 1091.2 392.25 1094.8 396.8
L 1099.55 402.3
Q 1102 405.9 1103.7 409.95 1105.45 414 1106.65 418.2 1106.45 418.25 1106.2 418.25 1105.95 418.25 1105.65 418.15 1105.2 418.05 1104.65 417.8 1104.1 417.5 1103.4 417.05 1103.15 416.85 1102.9 416.65 1102.6 416.5 1102.35 416.3 1105.25 425.1 1107.3 433.95 1109.35 442.75 1111.05 451.85 1110.25 452.9 1109.7 453.75 1109.15 454.6 1108.9 455.05 1092.8 482.15 1078.65 511.05 1064.45 539.95 1051.7 568.1 1044.85 582.7 1038.95 600.95 1033.05 619.2 1031.9 636.45 1030.05 637.3 1028.05 638.2 1026.1 639.05 1024.05 639.9 1020.55 641.35 1013.1 645.4
L 1007.4 649.1 1005.3 652.2 1005.45 652.5
Q 1005.6 652.75 1005.65 652.95 1008.5 653.3 1012 651.95 1015.5 650.6 1016.9 650.05 1020.8 648.7 1024.55 647.3 1028.3 645.9 1031.9 644.35 1032 645.55 1032.1 646.75 1032.2 647.95 1032.35 649.1 1033.6 655.15 1036.4 653.95 1039.2 652.75 1039.65 646.9 1039.65 645.4 1039.7 643.9 1039.75 642.4 1039.85 640.85 1040.6 640.5 1041.35 640.15 1042.1 639.8 1042.85 639.45 1042.85 639.6 1042.9 639.75 1042.95 639.9 1043.05 640.1 1046.6 640.25 1050.95 637.05
L 1055.7 633.35
Q 1057 632.4 1058.3 631.4 1059.55 630.45 1060.8 629.45 1101.3 603.25 1117.6 564.65 1133.9 526.1 1127.6 481.35
L 1127.6 481.15 1127.55 480.7
Q 1127.55 480.25 1127.5 479.5 1127.45 478.8 1127.35 477.9 1127.4 463.05 1124.15 449 1120.9 434.95 1115.35 421.4 1112.5 412.75 1107.9 402.05 1103.3 391.35 1098.25 386.4 Z"/>
</g>

<g id="Symbol_71_0_Layer0_0_FILL">
<path fill="#A6CE38" stroke="none" d="
M 925.95 432.95
L 901.5 436.05 892.05 438.1
Q 890.05 447.45 887.05 467.8 884.05 488.2 879.4 514.8 874.75 541.4 867.8 569.4 859.4 606.95 841 646.2 822.6 685.4 781.8 721.2
L 794.4 723.05 817.75 720.6
Q 846.5 716.05 887.8 703.55 929.1 691.05 974.1 671.2 1027.05 647.2 1057.7 622.85 1088.35 598.55 1102 574.15 1115.65 549.75 1117.6 525.6 1119.75 500.15 1117.15 475.2 1114.55 450.2 1111.05 433.25
L 1106.85 415.15 1073.35 418.05
Q 1041.55 421 999.7 425.15 957.85 429.3 925.95 432.95 Z"/>
</g>

<g id="Symbol_12_0_Layer0_0_FILL">
<path fill="#0081c6" stroke="none" d="
M 1010.55 296.3
Q 1010.35 296.25 1010.25 296.3 1008.2 298.45 1010.2 304.5 1012.15 310.6 1013.75 313.3 1019.1 322.2 1022.65 320.1 1026.25 318.05 1027.85 309.45
L 1028.4 306.15
Q 1028.75 303.25 1027.55 301.85 1027.25 301.75 1026.95 301.85 1026.7 302 1026.55 302.15
L 1025.35 306.8
Q 1024.6 310.7 1024.05 312.35 1023.85 313 1023.1 314.5 1022.3 316.05 1021.4 316.75 1021.25 316.75 1021.1 316.65
L 1020.9 316.5
Q 1018.55 315.1 1016.1 308.95 1013.65 302.8 1012.75 300
L 1012.2 298.35
Q 1011.75 297.15 1010.95 296.35 1010.75 296.35 1010.55 296.3 Z"/>
</g>

<g id="Symbol_13_0_Layer0_0_FILL">
<path fill="#A6CE38" stroke="none" d="
M 1032.8 313.4
L 1032.05 308.55
Q 1031.2 304.1 1028.4 299.6 1025.6 295.15 1019.9 294.9 1013.25 295.25 1010 300.8 1006.75 306.3 1006.1 313.2
L 1032.8 313.4 Z"/>
</g>







<g id="Symbol_133_0_Layer0_0_FILL">
<path fill="#0081c6" stroke="none" d="
M 1298.25 438.7
Q 1298.75 437.1 1298.75 435.75 1298.7 434.4 1296.5 434.15 1293.35 435.65 1291.6 440.45
L 1289.85 445.9
Q 1284.4 463.35 1281.5 482 1278.55 500.65 1274.9 518.55
L 1273.45 525.25
Q 1272.45 531 1275.15 533.55 1276.95 531.9 1277.55 528.8 1278.15 525.7 1278.3 524.5 1281.35 510.9 1283.95 497.4 1286.55 483.95 1289.2 470.1 1290.9 461.75 1293.5 454.15 1296.1 446.55 1298.25 438.7 Z"/>
</g>

<g id="Symbol_134_0_Layer0_0_FILL">
<path fill="#AED044" stroke="none" d="
M 1531.85 -35.95
Q 1520.35 -31.85 1505.9 -23.25 1470.15 -3.35 1440.45 18.65 1410.7 40.65 1384.35 68.8 1380.6 72.45 1377.1 76.3 1373.6 80.1 1370.4 84.15 1343.15 116.7 1310.1 149.6 1277.05 182.5 1253.05 216.75 1252.1 216.95 1251.15 217.2 1250.15 217.45 1249.2 217.75 1221.85 221 1204.7 236.85 1187.55 252.7 1169.4 278.3 1159.55 291.55 1150.15 306.15 1140.8 320.7 1132.15 334.75 1124.4 347.65 1117.8 362.05 1111.25 376.45 1103.65 390.15 1097.45 400.85 1090.95 413.55 1084.45 426.25 1079.75 437.5 1079.2 438.7 1078.85 439.95 1078.45 441.25 1078.75 442.25 1078.1 443.55 1077.5 444.8 1076.85 446.05 1076.25 447.3 1074.9 447.55 1073.9 447.8
L 1072.55 448.15
Q 1053.5 455.35 1043.35 474.15 1033.2 492.9 1029.85 514.55 1026.45 536.15 1027.75 552 1029.2 573.5 1034.2 597.75 1039.2 622 1048.5 641.35 1048.95 642.2 1049.65 643.4 1050.3 644.55 1051.2 645.8 1060.15 671.25 1073.75 695.45 1087.3 719.65 1104.8 738.35 1106.4 740 1108 741.6 1109.6 743.2 1111.25 744.75 1112.8 746.15 1114.35 747.55 1115.9 748.9 1117.45 750.2 1119.3 751.7 1121.15 753.15 1123.05 754.6 1124.95 755.9 1125.2 756.1 1125.5 756.3 1125.75 756.5 1126 756.7 1142 756.85 1160.45 752.95 1178.9 749 1187.55 746.1 1221.5 734.85 1240.55 715.65 1259.6 696.45 1266.9 672.35 1273.05 661.55 1274.05 653.65 1275.05 645.8 1272.8 638.65 1274.05 624 1276.25 606.35 1278.5 588.65 1275.9 574.2
L 1274.2 568.8
Q 1272.8 564.6 1271.4 560.45 1272.2 551.85 1273.1 542.55 1274.05 533.25 1275.2 523.45 1279.4 502.6 1284.8 481.8 1290.2 461 1295 440.25 1295.4 438.65 1295.65 437.45 1295.9 436.3 1295.1 435.45 1301.5 417 1308.5 398.95 1315.5 380.85 1323.4 362.9 1327 356.35 1333.15 345.55 1339.3 334.7 1342.55 328.65 1352.4 310.75 1363.35 291.55 1374.3 272.35 1387.15 251.45 1392.15 243.95 1398.15 234.45 1404.1 224.9 1407.6 219.05 1418.65 202.8 1427.65 188.15 1436.7 173.45 1446.25 160.5 1449.55 156.25 1456.05 148 1462.55 139.7 1468.8 131.4 1475.05 123.1 1477.45 118.65 1495.4 92.9 1509.1 72.35 1522.75 51.85 1534.6 31.65 1546.45 11.45 1559.05 -13.3
L 1563.65 -21.9
Q 1566.9 -28.35 1566.95 -33.4 1565.05 -35.65 1563.5 -35.55 1561.95 -35.45 1560.2 -33.2 1559.9 -33.55 1559.6 -33.9 1559.3 -34.2 1559 -34.45 1558.05 -34.65 1557.5 -35.4
L 1556.75 -36.25
Q 1543.3 -40.05 1531.85 -35.95
M 1228.65 228.65
Q 1228.55 228.55 1228.4 228.5 1228.3 228.45 1228.2 228.4
L 1229.05 228.05
Q 1229.5 227.9 1229.95 227.75 1229.6 227.95 1229.3 228.2
L 1228.65 228.65
M 1041.25 601.65
Q 1041.2 602.15 1041.2 602.65 1041.1 602.2 1040.95 601.75
L 1040.75 600.8
Q 1040.9 600.8 1041 600.75 1041.15 600.7 1041.25 600.65
L 1041.25 601.65 Z"/>
</g>
</defs>



<g transform="matrix( 1.2952423095703125, 0.0234527587890625, -0.0238037109375, 1.2799835205078125, -1268.65,-185.9) ">
<g transform="matrix( 1, 0, 0, 1, 0,0) ">
<use xlink:href="#Symbol_4_0_Layer0_0_FILL"/>
</g>
</g>

<g transform="matrix( 0.0634307861328125, 0.4023895263671875, -0.4026031494140625, 0.058380126953125, 1433.45,-275.4) ">
<g transform="matrix( 1, 0, 0, 1, 0,0) ">
<use xlink:href="#Symbol_124_0_Layer0_0_FILL"/>
</g>
</g>

<g transform="matrix( -0.2476043701171875, -0.402435302734375, 0.3577880859375, -0.319671630859375, 1039.05,1018.55) ">
<g transform="matrix( 1, 0, 0, 1, 0,0) ">
<use xlink:href="#Symbol_125_0_Layer0_0_FILL"/>
</g>
</g>

<g transform="matrix( -0.2476043701171875, -0.402435302734375, 0.3577880859375, -0.319671630859375, 1039.05,1018.55) ">
<g transform="matrix( 1, 0, 0, 1, 0,0) ">
<use xlink:href="#Symbol_126_0_Layer0_0_FILL"/>
</g>
</g>

<g transform="matrix( 0.5284576416015625, -0.009674072265625, -0.082763671875, 0.7144622802734375, 565.6,11.6) ">
<g transform="matrix( 1, 0, 0, 1, 0,0) ">
<use xlink:href="#Symbol_92_0_Layer0_0_FILL"/>
</g>
</g>

<g transform="matrix( 0.373443603515625, 0.0339202880859375, -0.126983642578125, 0.605743408203125, 696,90.45) ">
<g transform="matrix( 1, 0, 0, 1, 0,0) ">
<use xlink:href="#Symbol_19_0_Layer0_0_FILL"/>
</g>
</g>

<g transform="matrix( 0.5126953125, 0.2162628173828125, -0.2148895263671875, 0.4397125244140625, 471.1,41.6) ">
<g transform="matrix( 1, 0, 0, 1, 0,0) ">
<use xlink:href="#Symbol_20_0_Layer0_0_FILL"/>
</g>
</g>

<g transform="matrix( 0.5249481201171875, 0.1758270263671875, -0.1962432861328125, 0.327239990234375, 460.9,120.75) ">
<g transform="matrix( 1, 0, 0, 1, 0,0) ">
<use xlink:href="#Symbol_21_0_Layer0_0_FILL"/>
</g>
</g>

<g transform="matrix( 0.45745849609375, -0.1468963623046875, 0.1600494384765625, 0.440032958984375, 374.7,345.35) ">
<g transform="matrix( 1, 0, 0, 1, 0,0) ">
<use xlink:href="#Symbol_22_0_Layer0_0_FILL"/>
</g>
</g>

<g transform="matrix( 0.4888458251953125, -0.029632568359375, 0.0542144775390625, 0.46685791015625, 426.3,241.75) ">
<g transform="matrix( 1, 0, 0, 1, 0,0) ">
<use xlink:href="#Symbol_127_0_Layer0_0_FILL"/>
</g>
</g>

<g transform="matrix( 0.4888458251953125, -0.029632568359375, 0.0542144775390625, 0.46685791015625, 426.3,241.75) ">
<g transform="matrix( 1, 0, 0, 1, 0,0) ">
<use xlink:href="#Symbol_128_0_Layer0_0_FILL"/>
</g>
</g>

<g transform="matrix( 0.5843963623046875, -0.104248046875, 0.0979156494140625, 0.4478302001953125, 340.4,331.5) ">
<g transform="matrix( 1, 0, 0, 1, 0,0) ">
<use xlink:href="#Symbol_129_0_Layer0_0_FILL"/>
</g>
</g>

<g transform="matrix( 0.5843963623046875, -0.104248046875, 0.0979156494140625, 0.4478302001953125, 340.4,331.5) ">
<g transform="matrix( 1, 0, 0, 1, 0,0) ">
<use xlink:href="#Symbol_26_0_Layer0_0_FILL"/>
</g>
</g>

<g transform="matrix( 0.3001556396484375, -0.0544891357421875, 0.0105743408203125, 0.459930419921875, 601.2,291.8) ">
<g transform="matrix( 1, 0, 0, 1, 0,0) ">
<use xlink:href="#Symbol_27_0_Layer0_0_FILL"/>
</g>
</g>

<g transform="matrix( 0.5812835693359375, -0.2386016845703125, 0.11663818359375, 0.5103759765625, 366.5,414.55) ">
<g transform="matrix( 1, 0, 0, 1, 0,0) ">
<use xlink:href="#Symbol_28_0_Layer0_0_FILL"/>
</g>
</g>

<g transform="matrix( 0.5843963623046875, -0.104248046875, 0.0979156494140625, 0.4478302001953125, 334.5,316.3) ">
<g transform="matrix( 1, 0, 0, 1, 0,0) ">
<use xlink:href="#Symbol_29_0_Layer0_0_FILL"/>
</g>
</g>

<g transform="matrix( 0.2912139892578125, -0.3312530517578125, -0.3465728759765625, -0.336181640625, 744.7,893.45) ">
<g transform="matrix( 1, 0, 0, 1, 0,0) ">
<use xlink:href="#Symbol_130_0_Layer0_0_FILL"/>
</g>
</g>

<g transform="matrix( 0.2912139892578125, -0.3312530517578125, -0.3465728759765625, -0.336181640625, 744.7,893.45) ">
<g transform="matrix( 1, 0, 0, 1, 0,0) ">
<use xlink:href="#Symbol_131_0_Layer0_0_FILL"/>
</g>
</g>

<g transform="matrix( 0.4857635498046875, -0.0110015869140625, 0.02996826171875, 0.6146087646484375, 381.15,111.35) ">
<g transform="matrix( 1, 0, 0, 1, 0,0) ">
<use xlink:href="#Symbol_105_0_Layer0_0_FILL"/>
</g>
</g>

<g transform="matrix( 0.4857635498046875, -0.0110015869140625, 0.02996826171875, 0.6146087646484375, 381.15,111.35) ">
<g transform="matrix( 1, 0, 0, 1, 0,0) ">
<use xlink:href="#Symbol_31_0_Layer0_0_FILL"/>
</g>
</g>

<g transform="matrix( 0.5072479248046875, 0.03387451171875, -0.0233001708984375, 0.58477783203125, 433.9,113.2) ">
<g transform="matrix( 1, 0, 0, 1, 0,0) ">
<use xlink:href="#Symbol_32_0_Layer0_0_FILL"/>
</g>
</g>

<g transform="matrix( 0.08013916015625, 0.0011749267578125, -0.001678466796875, 0.07806396484375, 1078.9,394.75) ">
<g transform="matrix( 1, 0, 0, 1, 0,0) ">
<use xlink:href="#Symbol_5_0_Layer0_0_FILL"/>
</g>
</g>

<g transform="matrix( 0.1025390625, 0.0136871337890625, -0.0080108642578125, 0.1403045654296875, 1046,337.65) ">
<g transform="matrix( 1, 0, 0, 1, 0,0) ">
<use xlink:href="#Symbol_132_0_Layer0_0_FILL"/>
</g>
</g>

<g transform="matrix( 0.083099365234375, -0.01849365234375, 0.0089263916015625, 0.0676116943359375, 1069.7,419.5) ">
<g transform="matrix( 1, 0, 0, 1, 0,0) ">
<use xlink:href="#Symbol_6_0_Layer0_0_FILL"/>
</g>
</g>

<g transform="matrix( 0.0836334228515625, -0.0291290283203125, 0.02667236328125, 0.0901336669921875, 1063,423.05) ">
<g transform="matrix( 1, 0, 0, 1, 0,0) ">
<use xlink:href="#Symbol_7_0_Layer0_0_FILL"/>
</g>
</g>

<g transform="matrix( 0.089691162109375, -0.0389556884765625, 0.0345916748046875, 0.0884246826171875, 1051.1,432.7) ">
<g transform="matrix( 1, 0, 0, 1, 0,0) ">
<use xlink:href="#Symbol_8_0_Layer0_0_FILL"/>
</g>
</g>

<g transform="matrix( 0.106292724609375, 0.0086669921875, -0.0137176513671875, 0.0664520263671875, 1055.15,399.75) ">
<g transform="matrix( 1, 0, 0, 1, 0,0) ">
<use xlink:href="#Symbol_70_0_Layer0_0_FILL"/>
</g>
</g>

<g transform="matrix( 0.0693817138671875, 0.00384521484375, -0.005035400390625, 0.0797271728515625, 1088.85,390.85) ">
<g transform="matrix( 1, 0, 0, 1, 0,0) ">
<use xlink:href="#Symbol_94_0_Layer0_0_FILL"/>
</g>
</g>

<g transform="matrix( 0.0693817138671875, 0.00384521484375, -0.005035400390625, 0.0797271728515625, 1088.85,390.85) ">
<g transform="matrix( 1, 0, 0, 1, 0,0) ">
<use xlink:href="#Symbol_71_0_Layer0_0_FILL"/>
</g>
</g>

<g transform="matrix( 0.0815582275390625, 0.0130615234375, 0.003509521484375, 0.122100830078125, 1069.55,370) ">
<g transform="matrix( 1, 0, 0, 1, 0,0) ">
<use xlink:href="#Symbol_12_0_Layer0_0_FILL"/>
</g>
</g>

<g transform="matrix( 0.0973052978515625, 0.0071563720703125, -0.0074310302734375, 0.0948028564453125, 1055.7,388.1) ">
<g transform="matrix( 1, 0, 0, 1, 0,0) ">
<use xlink:href="#Symbol_13_0_Layer0_0_FILL"/>
</g>
</g>







<g transform="matrix( 0.0493011474609375, -0.0394439697265625, 0.0462188720703125, 0.0528106689453125, 1065.4,449.05) ">
<g transform="matrix( 1, 0, 0, 1, 0,0) ">
<use xlink:href="#Symbol_133_0_Layer0_0_FILL"/>
</g>
</g>

<g transform="matrix( 0.0493011474609375, -0.0394439697265625, 0.0462188720703125, 0.0528106689453125, 1065.4,449.05) ">
<g transform="matrix( 1, 0, 0, 1, 0,0) ">
<use xlink:href="#Symbol_134_0_Layer0_0_FILL"/>
</g>
</g>
</svg>
