<?xml version="1.0" encoding="UTF-8" standalone="no"?>
<svg width="251px" height="162px" viewBox="0 0 251 162" version="1.1" xmlns="http://www.w3.org/2000/svg" xmlns:xlink="http://www.w3.org/1999/xlink" xmlns:sketch="http://www.bohemiancoding.com/sketch/ns">
    <!-- Generator: Sketch 3.4.2 (15857) - http://www.bohemiancoding.com/sketch -->
    <title>logo</title>
    <desc>Created with Sketch.</desc>
    <defs></defs>
    <g id="Page-1" stroke="none" stroke-width="1" fill="none" fill-rule="evenodd" sketch:type="MSPage">
        <g id="53-onboarding-team" sketch:type="MSArtboardGroup" transform="translate(-55.000000, -32.000000)">
            <g id="logo" sketch:type="MSLayerGroup" transform="translate(54.000000, 32.000000)">
                <path d="M146.648054,2.5452 C146.870632,2.3228 146.780159,1.9444 146.480321,1.8484 C145.957104,1.6804 145.483526,1.4908 144.671279,1.2392 C144.586011,1.2128 143.176488,-0.1364 141.140866,0.1348 C137.084834,0.6752 137.20493,5.5592 135.513982,7.206 C133.220555,9.44 125.864694,15.038 124.372705,16.0824 C124.232994,16.1804 124.358694,16.3656 124.524826,16.4048 C125.938753,16.7372 130.192142,17.3196 130.90511,17.376 C131.706549,17.4392 131.669319,18.2888 130.92993,18.2148 C128.607279,17.9828 125.724582,17.5608 123.646526,17.0328 C120.42636,16.214 118.232612,15.248 116.085702,14.5404 C115.97081,14.5324 115.877136,14.6216 115.877136,14.7372 C115.877136,17.3652 117.324689,21.7244 119.172962,21.7244 C122.130919,21.7244 125.495199,20.616 126.668534,20.1712 C126.706164,20.1568 126.73859,20.1436 126.778622,20.1476 C127.260206,20.196 130.861876,20.528 133.629681,20.534 C133.731362,20.534 133.813828,20.612 133.821033,20.7132 C133.921914,22.1372 135.406697,31.5632 135.406697,32.1268 C135.406697,32.8344 136.133676,32.89 136.133676,32.1732 C136.133676,31.5096 136.639679,22.0312 136.680912,20.6348 C136.683715,20.5364 136.759375,20.4556 136.857453,20.4496 C145.076402,19.9332 149.238518,11.6616 145.059188,4.2876 C145.021959,4.222 145.051982,4.14 145.105225,4.0864 L146.648054,2.5452" id="Fill-1" fill="#AACC3B" sketch:type="MSShapeGroup"></path>
                <path d="M198.092246,102.8052 C196.078241,102.8052 194.44534,101.1736 194.44534,99.1612 C194.44534,97.1484 196.078241,95.5172 198.092246,95.5172 C200.106651,95.5172 201.739552,97.1484 201.739552,99.1612 C201.739552,101.1736 200.106651,102.8052 198.092246,102.8052 L198.092246,102.8052 Z M64.2359872,76.7308 C64.2359872,76.0112 64.4877879,75.3896 64.9913892,74.8652 C65.4949904,74.3416 66.0982711,74.0792 66.8012313,74.0792 C67.515,74.0792 68.1242855,74.3416 68.6278868,74.8652 C69.1310877,75.3772 69.3832887,76.0056 69.3832887,76.7488 C69.3832887,77.4928 69.1310877,78.1268 68.6278868,78.6504 C68.1358947,79.1748 67.532614,79.4372 66.818445,79.4372 C66.1042759,79.4372 65.4949904,79.1748 64.9913892,78.6504 C64.4877879,78.1268 64.2359872,77.4864 64.2359872,76.7308 Z M247.774633,58.62 C239.245837,68.158 223.759498,89.426 210.191486,82.2908 C205.285177,79.7104 205.908474,70.9868 206.59382,66.0868 C206.806789,64.5644 205.223528,63.5316 203.849633,64.07 C201.568215,64.964 198.494967,66.3948 194.942936,67.3592 C186.161539,69.744 177.643152,68.7256 165.759683,59.2424 C150.437474,47.0144 145.606825,32.0932 135.031198,32.0932 C122.118108,32.0932 110.400372,52.1732 87.5545678,52.1732 C71.4249155,52.1732 68.1467033,44.4832 49.741638,44.4832 C6.59966188,44.4832 1.02001595,113.2864 1,120.2928 C0.996397129,121.6252 1.96236683,122.8188 3.2906252,122.9388 C4.10207177,123.012 5.33945774,122.5328 5.65490909,120.746 C7.06082935,103.5932 13.6116491,86.4184 13.9735375,85.4812 C14.2865869,84.6688 15.0031579,83.4792 15.8166061,83.7928 C16.6296539,84.106 16.3342185,84.7352 16.181697,85.5928 C15.3402265,90.3224 14.2601659,96.8884 14.2601659,107.3336 C14.2601659,132.1304 27.661244,153.4084 31.2056683,159.5248 C31.8369713,160.614 33.0018995,161.2792 34.2621037,161.2792 L54.0098389,161.2792 C55.4617959,161.2792 56.6635534,160.16 56.7588293,158.712 C57.2444163,151.3216 60.3060558,130.5208 79.3888612,130.5208 C101.679423,130.5208 104.397188,152.992 105.761876,159.8048 C106.01808,161.0844 107.142976,162 108.449217,162 L128.032821,162 C129.496388,162 130.658914,160.8096 130.658914,159.3472 C130.658914,148.5664 132.36147,136.7576 138.094038,130.6784 C140.692909,127.922 144.116037,128.0044 148.878231,129.8464 C158.2517,133.472 177.345715,140.4144 195.03581,138.1008 C218.045344,135.0916 233.687408,122.0604 243.158955,101.2392 C249.869903,86.4872 251.383909,69.2964 251.922338,60.1548 C252.07566,57.5456 249.132115,57.102 247.774633,58.62 Z M32.9026204,84.136 L36.85537,84.136 L36.85537,85.7272 C37.5815486,84.9344 38.2256619,84.392 38.7877097,84.0996 C39.3613668,83.7952 40.0407081,83.642 40.8257337,83.642 C41.8681643,83.642 42.9574322,83.996 44.0935375,84.7032 L42.2836954,88.4692 C41.5342982,87.9088 40.8021148,87.6288 40.0879458,87.6288 C37.9330287,87.6288 36.85537,89.3228 36.85537,92.7112 L36.85537,101.9452 L32.9026204,101.9452 L32.9026204,84.136 Z M46.0046603,75.5048 L49.9574099,75.5048 L49.9574099,85.6168 C51.3625295,84.3004 52.9141659,83.642 54.612319,83.642 C56.545059,83.642 58.0906906,84.2948 59.2500144,85.5988 C60.2339984,86.7324 60.7259904,88.5424 60.7259904,91.0292 L60.7259904,101.9452 L56.7732408,101.9452 L56.7732408,91.4132 C56.7732408,89.9872 56.5302472,88.954 56.04426,88.3144 C55.5582727,87.674 54.7764498,87.354 53.6987911,87.354 C52.31689,87.354 51.3449155,87.7992 50.7828676,88.6884 C50.232429,89.5912 49.9574099,91.1392 49.9574099,93.3336 L49.9574099,101.9452 L46.0046603,101.9452 L46.0046603,75.5048 Z M64.8332632,84.136 L68.7860128,84.136 L68.7860128,101.9452 L64.8332632,101.9452 L64.8332632,84.136 Z M72.8932855,84.136 L76.8636491,84.136 L76.8636491,85.7816 C78.2451499,84.3552 79.8027911,83.642 81.5365726,83.642 C83.5273589,83.642 85.0789952,84.2948 86.1914817,85.5988 C87.1518469,86.7084 87.63263,88.518 87.63263,91.0292 L87.63263,101.9452 L83.661866,101.9452 L83.661866,92.0108 C83.661866,90.258 83.4272791,89.0468 82.9593062,88.3768 C82.5025423,87.6952 81.6706794,87.354 80.4649187,87.354 C79.152673,87.354 78.2215311,87.8048 77.6714928,88.7052 C77.1326635,89.594 76.8636491,91.146 76.8636491,93.3628 L76.8636491,101.9452 L72.8932855,101.9452 L72.8932855,84.136 Z M90.9140447,92.9128 C90.9140447,90.3412 91.797949,88.1524 93.5665582,86.348 C95.3343668,84.5444 97.4892839,83.642 100.031309,83.642 C102.584544,83.642 104.75067,84.5508 106.531289,86.3668 C108.287888,88.1836 109.166188,90.414 109.166188,93.0588 C109.166188,95.7284 108.281884,97.9656 106.513675,99.77 C104.733456,101.5612 102.549316,102.4572 99.9608533,102.4572 C97.3964099,102.4572 95.2470973,101.5432 93.5137161,99.7148 C91.7799346,97.9108 90.9140447,95.6436 90.9140447,92.9128 Z M128.996789,101.5252 C128.996789,102.3656 128.970368,103.1064 128.917126,103.7464 C128.865085,104.3864 128.791826,104.9504 128.697751,105.4376 C128.417128,106.7788 127.866289,107.9304 127.046435,108.8936 C125.500404,110.7464 123.37511,111.6728 120.669354,111.6728 C118.385534,111.6728 116.506037,111.0296 115.030861,109.7432 C113.508048,108.4212 112.629348,106.596 112.395561,104.2672 L116.365525,104.2672 C116.517646,105.1448 116.769447,105.8216 117.121327,106.2972 C117.94078,107.406 119.134931,107.9612 120.704982,107.9612 C123.597287,107.9612 125.04404,106.1204 125.04404,102.4388 L125.04404,99.952 C123.474389,101.6224 121.664547,102.4572 119.615715,102.4572 C117.285057,102.4572 115.375536,101.5796 113.887951,99.8244 C112.389557,98.0448 111.640159,95.8204 111.640159,93.15 C111.640159,90.5544 112.336715,88.3476 113.730625,86.5316 C115.229419,84.6052 117.208596,83.642 119.668156,83.642 C121.823073,83.642 123.614901,84.4776 125.04404,86.1472 L125.04404,84.136 L128.996789,84.136 L128.996789,101.5252 Z M133.086448,84.136 L137.039198,84.136 L137.039198,85.7272 C137.765376,84.9344 138.40949,84.392 138.971137,84.0996 C139.545195,83.7952 140.224536,83.642 141.009561,83.642 C142.051992,83.642 143.14126,83.996 144.276965,84.7032 L142.467523,88.4692 C141.718126,87.9088 140.985542,87.6288 140.271373,87.6288 C138.116456,87.6288 137.039198,89.3228 137.039198,92.7112 L137.039198,101.9452 L133.086448,101.9452 L133.086448,84.136 Z M158.010708,84.136 L161.981472,84.136 L161.981472,101.9452 L158.010708,101.9452 L158.010708,100.0804 C156.382611,101.6652 154.632016,102.4572 152.758523,102.4572 C150.392638,102.4572 148.436679,101.568 146.890247,99.7876 C145.356225,97.9716 144.588813,95.7044 144.588813,92.986 C144.588813,90.3164 145.356225,88.0916 146.890247,86.312 C148.42507,84.532 150.3454,83.642 152.653239,83.642 C154.643625,83.642 156.429448,84.4956 158.010708,86.202 L158.010708,84.136 Z M148.629633,92.986 C148.629633,94.6928 149.068783,96.0824 149.947083,97.1548 C150.849002,98.24 151.985507,98.782 153.355399,98.782 C154.819365,98.782 156.002308,98.258 156.904226,97.21 C157.805344,96.1248 158.256904,94.7472 158.256904,93.0768 C158.256904,91.4072 157.805344,90.03 156.904226,88.9452 C156.002308,87.884 154.831775,87.354 153.390627,87.354 C152.031544,87.354 150.896239,87.8908 149.982711,88.9632 C149.080793,90.0484 148.629633,91.3892 148.629633,92.986 Z M166.07073,84.136 L170.02308,84.136 L170.02308,85.7816 C170.784887,84.9528 171.435005,84.392 171.973434,84.0996 C172.547091,83.7952 173.267665,83.642 174.134756,83.642 C176.066295,83.642 177.594713,84.5196 178.719609,86.2748 C179.960598,84.5196 181.641938,83.642 183.760826,83.642 C187.614297,83.642 189.541032,86.074 189.541032,90.938 L189.541032,101.9452 L185.571069,101.9452 L185.571069,92.0528 C185.571069,90.3468 185.371309,89.14 184.973392,88.4332 C184.563466,87.7136 183.889729,87.354 182.952982,87.354 C181.863715,87.354 181.070282,87.7812 180.572285,88.634 C180.074689,89.4876 179.826091,90.8584 179.826091,92.7484 L179.826091,101.9452 L175.855327,101.9452 L175.855327,92.108 C175.855327,88.9388 174.977027,87.354 173.220427,87.354 C172.107941,87.354 171.297295,87.7868 170.787289,88.6528 C170.278083,89.518 170.02308,90.8828 170.02308,92.7484 L170.02308,101.9452 L166.07073,101.9452 L166.07073,84.136 Z M94.9548644,92.986 C94.9548644,94.766 95.4112281,96.1736 96.3243557,97.21 C97.2611021,98.258 98.4968868,98.782 100.031309,98.782 C101.577341,98.782 102.813126,98.2644 103.738663,97.228 C104.6626,96.192 105.125368,94.808 105.125368,93.0768 C105.125368,91.3464 104.6626,89.9628 103.738663,88.9268 C102.800716,87.8784 101.565332,87.354 100.031309,87.354 C98.5205056,87.354 97.2963301,87.8784 96.3599841,88.9268 C95.422437,89.9752 94.9548644,91.3284 94.9548644,92.986 Z M125.202166,93.0864 C125.202166,91.358 124.756611,89.9764 123.866702,88.942 C122.964783,87.8836 121.811464,87.354 120.406344,87.354 C118.906349,87.354 117.724207,87.9324 116.857517,89.0884 C116.072892,90.1228 115.680979,91.4616 115.680979,93.1048 C115.680979,94.7232 116.072892,96.0504 116.857517,97.0848 C117.711797,98.2164 118.895541,98.782 120.406344,98.782 C121.916748,98.782 123.1109,98.2104 123.9896,97.066 C124.798244,96.0316 125.202166,94.7052 125.202166,93.0864 Z" id="Fill-3" fill="#4078BE" sketch:type="MSShapeGroup"></path>
            </g>
        </g>
    </g>
</svg>