<?xml version="1.0" encoding="utf-8"?>
<!-- Generator: Adobe Illustrator 17.1.0, SVG Export Plug-In . SVG Version: 6.00 Build 0)  -->
<!DOCTYPE svg PUBLIC "-//W3C//DTD SVG 1.1//EN" "http://www.w3.org/Graphics/SVG/1.1/DTD/svg11.dtd">
<svg version="1.1" id="Filled_Icons" xmlns="http://www.w3.org/2000/svg" xmlns:xlink="http://www.w3.org/1999/xlink" x="0px"
	 y="0px" width="24px" height="24px" viewBox="0 0 24 24" enable-background="new 0 0 24 24" xml:space="preserve">
<g>
	<path d="M23,3h-3.5H16V0.5C16,0.224,15.776,0,15.5,0h-8C7.224,0,7,0.224,7,0.5V3H3.5H1C0.724,3,0.5,3.224,0.5,3.5
		C0.5,3.776,0.724,4,1,4h2v19.5C3,23.776,3.224,24,3.5,24h16c0.276,0,0.5-0.224,0.5-0.5V4h3c0.276,0,0.5-0.224,0.5-0.5
		C23.5,3.224,23.276,3,23,3z M8,18.5C8,18.776,7.776,19,7.5,19S7,18.776,7,18.5v-11C7,7.224,7.224,7,7.5,7S8,7.224,8,7.5V18.5z M8,1
		h7v2H8V1z M12,18.5c0,0.276-0.224,0.5-0.5,0.5S11,18.776,11,18.5v-11C11,7.224,11.224,7,11.5,7S12,7.224,12,7.5V18.5z M16,18.5
		c0,0.276-0.224,0.5-0.5,0.5S15,18.776,15,18.5v-11C15,7.224,15.224,7,15.5,7S16,7.224,16,7.5V18.5z"/>
</g>
</svg>
