<svg xmlns="http://www.w3.org/2000/svg" width="24" height="24" viewBox="0 0 24 24"><path d="M2 19.5l-.031.993a.5.5 0 0 0 .5.5h19a.5.5 0 0 0 .5-.5L22 19.5a.5.5 0 0 0-.5-.5h-19a.5.5 0 0 0-.5.5zM23.5 22H.5a.5.5 0 0 0-.5.5v1a.5.5 0 0 0 .5.5h23a.5.5 0 0 0 .5-.5v-1a.5.5 0 0 0-.5-.5zM5.5 17.993a.5.5 0 0 0 .5-.5v-7A.49.49 0 0 0 5.5 10h-2a.49.49 0 0 0-.5.493v7a.5.5 0 0 0 .5.5h2zM10.5 17.993a.5.5 0 0 0 .5-.5v-7a.49.49 0 0 0-.5-.493h-2a.49.49 0 0 0-.5.493v7a.5.5 0 0 0 .5.5h2zM15.5 17.993a.5.5 0 0 0 .5-.5v-7a.49.49 0 0 0-.5-.493h-2a.49.49 0 0 0-.5.493v7a.5.5 0 0 0 .5.5h2zM20.5 17.993a.5.5 0 0 0 .5-.5v-7a.49.49 0 0 0-.5-.493h-2a.49.49 0 0 0-.5.493v7a.5.5 0 0 0 .5.5h2zM1.5 9h21a.5.5 0 0 0 .5-.5v-2a.5.5 0 0 0-.5-.5h-21a.5.5 0 0 0-.5.5v2a.5.5 0 0 0 .5.5zM1.5 4.993h21.01a.5.5 0 0 0 .137-.982L12.196.04a.5.5 0 0 0-.394 0l-10.5 3.994a.5.5 0 0 0 .198.959z"/><g><path fill="none" d="M0 0h24v24H0z"/></g></svg>