<svg xmlns="http://www.w3.org/2000/svg" width="24" height="24" viewBox="0 0 24 24"><path d="M12 16h4v3h-4zM7 16h4v3H7zM12 12h4v3h-4zM7 12h4v3H7z"/><path d="M0 23.5a.5.5 0 0 0 .5.5h23a.5.5 0 0 0 .5-.5V8H0v15.5zM2.5 16a.5.5 0 0 1 0-1H6v-3H2.5a.5.5 0 0 1 0-1H6V9.5a.5.5 0 0 1 1 0V11h4V9.5a.5.5 0 0 1 1 0V11h4V9.5a.5.5 0 0 1 1 0V11h4.5a.5.5 0 0 1 0 1H17v3h4.5a.5.5 0 0 1 0 1H17v3h4.5a.5.5 0 0 1 0 1H17v1.5a.5.5 0 0 1-1 0V20h-4v1.5a.5.5 0 0 1-1 0V20H7v1.5a.5.5 0 0 1-1 0V20H2.5a.5.5 0 0 1 0-1H6v-3H2.5zM23.5 2H20V.5a.5.5 0 0 0-.5-.5h-3a.5.5 0 0 0-.5.5V2H8V.5a.5.5 0 0 0-.5-.5h-3a.5.5 0 0 0-.5.5V2H.5a.5.5 0 0 0-.5.5V7h24V2.5a.5.5 0 0 0-.5-.5zM7 4H5V1h2v3zm12 0h-2V1h2v3z"/></svg>