<svg width="24" height="24" viewBox="0 0 24 24" xmlns="http://www.w3.org/2000/svg"><path d="M2.714 22.286h3.857v-3.857H2.714v3.857zm4.715 0h4.285v-3.857H7.43v3.857zM2.714 17.57h3.857v-4.285H2.714v4.285zm4.715 0h4.285v-4.285H7.43v4.285zm-4.715-5.14h3.857V8.57H2.714v3.858zm9.857 9.857h4.286V18.43h-4.286v3.857zM7.43 12.429h4.285V8.57H7.43v3.858zm10.285 9.857h3.857v-3.857h-3.857v3.857zm-5.143-4.715h4.286v-4.285h-4.286v4.285zM7.857 6V2.143a.412.412 0 0 0-.127-.301.412.412 0 0 0-.301-.128H6.57a.412.412 0 0 0-.3.128.412.412 0 0 0-.128.3V6c0 .116.042.217.127.301a.412.412 0 0 0 .301.128h.858a.412.412 0 0 0 .3-.128.412.412 0 0 0 .13-.301zm9.857 11.571h3.857v-4.285h-3.857v4.285zm-5.143-5.142h4.286V8.57h-4.286v3.858zm5.143 0h3.857V8.57h-3.857v3.858zM18.143 6V2.143a.412.412 0 0 0-.127-.301.412.412 0 0 0-.302-.128h-.857a.412.412 0 0 0-.301.128.412.412 0 0 0-.127.3V6c0 .116.042.217.127.301a.412.412 0 0 0 .301.128h.857a.412.412 0 0 0 .302-.128.412.412 0 0 0 .127-.301zm5.143-.857v17.143c0 .464-.17.866-.51 1.205a1.64 1.64 0 0 1-1.205.509H2.714c-.464 0-.866-.17-1.205-.509A1.647 1.647 0 0 1 1 22.286V5.143c0-.464.17-.866.509-1.205.34-.34.741-.51 1.205-.51H4.43V2.144c0-.59.21-1.094.629-1.514C5.478.21 5.982 0 6.571 0h.858c.589 0 1.093.21 1.513.63.42.42.63.924.63 1.513v1.286h5.142V2.143c0-.59.21-1.094.63-1.514.42-.42.924-.629 1.513-.629h.857c.59 0 1.094.21 1.514.63.42.42.63.924.63 1.513v1.286h1.713c.465 0 .866.17 1.206.509.34.339.509.74.509 1.205z"/></svg>