<svg xmlns="http://www.w3.org/2000/svg" width="24" height="24" viewBox="0 0 24 24"><path d="M23.5 10h-2.855c-.2-.79-.454-1.667-.778-2.332l2.032-2.032a.499.499 0 0 0 0-.707L19.07 2.102a.499.499 0 0 0-.707 0L16.33 4.133c-.664-.324-1.541-.578-2.33-.777V.5a.5.5 0 0 0-.5-.5h-3a.5.5 0 0 0-.5.5v2.856c-.79.199-1.667.453-2.331.777L5.636 2.102a.499.499 0 0 0-.707 0L2.1 4.929a.5.5 0 0 0 0 .707l2.033 2.033c-.322.663-.578 1.54-.779 2.331H.5a.5.5 0 0 0-.5.5v3a.5.5 0 0 0 .5.5h2.854c.201.791.456 1.668.779 2.332L2.1 18.365a.504.504 0 0 0 0 .707L4.929 21.9c.188.188.52.188.707 0l2.033-2.033c.663.323 1.54.577 2.331.779V23.5a.5.5 0 0 0 .5.5h3a.5.5 0 0 0 .5-.5v-2.854c.791-.201 1.668-.456 2.331-.778l2.034 2.032a.5.5 0 0 0 .707 0l2.828-2.828a.5.5 0 0 0 0-.707l-2.032-2.033c.323-.664.578-1.541.778-2.332H23.5a.5.5 0 0 0 .5-.5v-3a.5.5 0 0 0-.5-.5zM12 16c-2.206 0-4-1.795-4-4s1.794-4 4-4 4 1.795 4 4-1.794 4-4 4z"/></svg>