<svg xmlns="http://www.w3.org/2000/svg" viewBox="0 0 24 24"><path d="M23 11.9v-1c-.1-1-.4-2.1-.7-3 0-.1-.1-.1-.1-.2-.5-1.2-1.2-2.3-2.1-3.2-.1 0-.1-.1-.2-.1l-.5-.5C17.4 2.1 14.8 1 12 1 9.1 1 6.5 2.1 4.6 3.9c-.5.4-.9.9-1.3 1.4C1.9 7.1 1 9.5 1 12c0 6.1 4.9 11 11 11 4.3 0 8-2.4 9.8-6 .4-.8.7-1.6.9-2.4.1-.2.1-.4.1-.7.1-.6.2-1.3.2-1.9v-.1zm-2.1-4.4c.1.1.2.3.3.4H20.9v-.4zm-1.6-1.9v-.5c.2.2.3.4.5.6l-.2.3h-.7v-.1l.4-.3zM6.1 4.3h.2v-.1h.4v.2l-.1.2h-.5v-.3zm.3.5h.2V5h-.5v-.1l.3-.1zm15.2 4.4h-.8l-.5-.4-.5.1v.3h-.2l-.2-.1-.9-.2v-.6l-1.1.1-.4.2H16.4l-.5.3v.6l-1.1.8.1.3h.2l-.1.3-.2.1v.9l1 1.1h.4v-.1h.8l.2-.2h.4l.2.2.6.1-.1.8.7 1.3-.4.7v.3l.3.3v.8l.4.5v.7h.3c-1.9 2.3-4.7 3.7-7.8 3.7-5.4 0-9.9-4.5-9.9-10.1 0-1.4.3-2.7.8-4v-.3l.4-.4c.1-.2.3-.5.4-.7v.2l-.4.5c-.2.2-.3.5-.4.7v.6l.4.2v.8l.4.7.3.1v-.2l-.3-.7-.1-.5h.2l.1.6.6.8-.1.3.4.5.9.2v-.1l.4.1v.3l.1-.1.4.1.6.7.8.1.1.6-.5.4v.6l-.1.3.8 1 .1.3.3.1.6.4v1.7l.1.1-.1.8.4.5-.1.7.5.8.6.5h.6l.1-.2-.4-.4v-.2l.1-.2v-.2h-.3l-.3-.1.2-.2v-.2l-.3-.1v-.2l.4-.1.6-.3.2-.4.6-.8v-.6l.2-.3h.6l.4-.3.1-1.2.4-.5.1-.4-.4-.1-.3-.4h-.9l-.7-.3v-.5l-.2-.4h-.6l-.4-.6-.3-.2v.2h-.6l-.2-.3-.6-.1-.6.6-.8-.1-.1-.9-.6-.1.2-.4-.1-.3-.8.5-.5-.1-.2-.4.1-.4.3-.5.6-.3h1.2v.4l.4.2v-.6L8 9l.6-.4v-.3l.6-.6.7-.4h-.1l.4-.4h.2l.1.1.2-.2h-.2l-.2-.1v-.3l.1-.1H10.7l.1.2h.4v-.2h.2v.2l-.2.1v.2l1 .2h.1v-.2l-.4-.2v-.1l.4-.1V6l-.4-.2v-.6l-.5.3h-.2V5l-.7-.2-.4.2v.7l-.5.2-.2.4h-.2v-.5l-.6-.1-.2-.2-.1-.3.9-.5.4-.1v.3h.2v-.1h.3v-.1H10v-.2h.3l.2-.2.1-.1.7-.2.3.2-.8.4 1 .2.1-.3h.4l.2-.3-.3-.1v-.3l-.9-.4-.7.1-.4.2v.5l-.3-.1-.1-.3.4-.3H9.3l-.1.2h.3l-.1.3H9v.2h-.6v-.4h.5l.4-.4h-.4l-.2.3h-.4L8 3.3h-.6l-.6.4h.5v.2l-.1.1h.6l.1.2h-.7V4h-.4l-.2-.2h-.5C7.7 2.6 9.8 1.9 12 1.9c2.6 0 4.9 1 6.7 2.5l-.1.2-.5.2-.2.2v.2h.2l.1.4.4-.2.2.6h-.1l-.3-.1-.4.1-.4.5-.5.1-.1.5.2.1-.1.3-.5-.1-.5.1-.1.3.1.6.3.1h.8l.1-.3.5-.6.3.1.3-.3.1.2.8.4-.1.1h-.4l.2.2h.2l.3-.1v-.3l.1-.1-.1-.1-.5-.3-.1-.4h.4l.1.1.4.3v.4l.4.4.1-.6.3-.1.1.5.3.3h.5c0 .3.1.6.1.9zM7 6l.3-.1.2.1-.1.2-.2.1L7 6zm1.4.8V7h-.6l-.2-.1.1-.1.3-.1h.4v.1zm.3.2v.2l-.2.1h-.2V7h.4zm-.2 0v-.3l.2.2-.2.1zm.1.4v.2l-.1.2h-.4l.1-.2h.2v-.1l.2-.1zM7.8 7h.3l-.4.6-.2-.1v-.3l.3-.2zm1.4.4v.2h-.4V7.3l.4.1zm-.3-.3h.2l-.1.1-.1-.1zm12.9 2.6l.1.1-.1-.1z"/></svg>