<svg xmlns="http://www.w3.org/2000/svg" width="24" height="24" viewBox="0 0 24 24"><path d="M8.4 7.2V5.7H6.8c-.3 0-.5.1-.6.3l-6 7.5c-.1.1-.2.3-.2.4v6.8c0 .8.7 1.5 1.5 1.5h21c.8 0 1.5-.7 1.5-1.5v-6.8c0-.2-.1-.3-.2-.5l-6-7.5c-.1-.2-.4-.3-.6-.3h-.9v1.5h.5l5.6 7v.5h-5.2l-3 3H9.8l-3-3H1.5v-.5l5.6-7h1.3zm2.5 4.7c0-.2 0-.3.1-.4.1-.1.1-.3.2-.4.1-.1.2-.2.4-.2.1-.1.3-.1.4-.1.2 0 .3 0 .4.1s.3.1.4.2c.1.1.2.2.2.4s.1.3.1.4c0 .2 0 .3-.1.4-.1.1-.1.3-.2.4-.1.1-.2.2-.4.2-.1.1-.3.1-.4.1-.2 0-.3 0-.4-.1-.1-.1-.3-.1-.4-.2-.1-.1-.2-.2-.2-.4-.1-.1-.1-.2-.1-.4zM9.4 3.1c.2-.2.4-.3.6-.4s.4-.3.7-.4c.2-.1.5-.2.8-.2s.5-.1.8-.1c.4 0 .8.1 1.2.2.4.1.7.3.9.5s.5.5.6.8.2.7.2 1.1c0 .4-.1.7-.2 1-.1.3-.2.5-.4.7-.2.2-.3.4-.5.5-.2.1-.4.3-.6.4-.2.1-.3.3-.5.4 0 .1-.1.3-.1.4l-.2 1.1h-1.3l-.1-1.2v-.1c0-.2.1-.4.2-.6.1-.2.2-.3.4-.5.2-.1.3-.3.5-.4.2-.1.4-.3.5-.4s.3-.3.4-.5.2-.4.2-.7c0-.2 0-.3-.1-.5-.1-.1-.2-.3-.3-.4-.1-.1-.3-.2-.4-.2-.2-.1-.3-.1-.5-.1-.3 0-.5 0-.7.1-.2.1-.4.1-.5.2-.1.1-.3.1-.3.2-.1.1-.2.1-.3.1-.3 0-.4-.1-.5-.2l-.5-.8z"/></svg>