<svg width="24" height="24" viewBox="0 0 24 24" xmlns="http://www.w3.org/2000/svg"><title>inbox-all</title><path d="M6.682 6.206a3.977 3.977 0 0 1-.378-1.887.75.75 0 0 0-.14.134l-6 7.5a.75.75 0 0 0-.164.469v6.75a1.5 1.5 0 0 0 1.5 1.5h21a1.5 1.5 0 0 0 1.5-1.5v-6.75a.75.75 0 0 0-.164-.469l-6-7.5a.75.75 0 0 0-.14-.134 4.05 4.05 0 0 1-.376 1.889l5.18 6.475v.487h-5.25l-3 3h-4.5l-3-3H1.5v-.487l5.182-6.477zM5 11c0-.552.45-1 1.007-1h11.986c.556 0 1.007.444 1.007 1 0 .552-.45 1-1.007 1H6.007A1.001 1.001 0 0 1 5 11zm2-3c0-.552.456-1 .995-1h8.01c.55 0 .995.444.995 1 0 .552-.456 1-.995 1h-8.01A.995.995 0 0 1 7 8zm.7-3c0-.552.438-1 1.003-1h6.594A1 1 0 0 1 16.3 5c0 .552-.438 1-1.003 1H8.703A1 1 0 0 1 7.7 5z"/></svg>