<svg xmlns="http://www.w3.org/2000/svg" width="24" height="24" viewBox="0 0 24 24"><path d="M23.994 16.47c-.002-.034-.011-.065-.02-.098-.009-.033-.017-.064-.032-.094-.005-.009-.004-.02-.01-.029l-3.5-6A.5.5 0 0 0 20 10h-3a.5.5 0 0 0 0 1h2.713l2.917 5H16.5a.5.5 0 0 0-.5.5v1c0 .827-.673 1.5-1.5 1.5H10c-.827 0-1.5-.673-1.5-1.5v-1A.5.5 0 0 0 8 16H1.371l2.917-5H6.5a.5.5 0 0 0 0-1H4a.502.502 0 0 0-.432.248l-3.5 6c-.005.01-.005.02-.01.029-.015.03-.023.062-.032.094-.009.033-.018.064-.02.098-.001.011-.006.02-.006.031v7a.5.5 0 0 0 .5.5h23a.5.5 0 0 0 .5-.5v-7c0-.011-.005-.02-.006-.03z"/><path d="M11.146 11.854c.09.089.218.146.354.146s.264-.057.354-.146l4-4a.5.5 0 0 0-.707-.707L12 10.293V.5a.5.5 0 0 0-1 0v9.793L7.854 7.146a.5.5 0 0 0-.707.707l3.999 4.001z"/></svg>