<svg width="24" height="24" viewBox="0 0 24 24" xmlns="http://www.w3.org/2000/svg"><title>link</title><path d="M20.486 4.221l-.707-.706a3.97 3.97 0 0 0-2.829-1.173 3.977 3.977 0 0 0-2.827 1.172L12.135 5.5a.999.999 0 1 0 1.414 1.414l1.988-1.984c.755-.756 2.071-.757 2.828 0l.707.706c.779.78.779 2.049 0 2.829l-4.597 4.596c-.756.756-2.073.756-2.828 0a.999.999 0 0 0-1.414 0 .999.999 0 0 0-.001 1.414 4.001 4.001 0 0 0 5.657.001l4.597-4.597a4.005 4.005 0 0 0 0-5.658zm-6.012 6.011l-.706-.706a4.004 4.004 0 0 0-5.658-.001l-4.597 4.597a4.004 4.004 0 0 0 0 5.657l.707.706a3.97 3.97 0 0 0 2.829 1.173 3.973 3.973 0 0 0 2.827-1.172l2.173-2.171a.999.999 0 1 0-1.414-1.414l-2.173 2.17c-.755.756-2.071.757-2.828 0l-.707-.706a2.004 2.004 0 0 1 0-2.829l4.597-4.596c.756-.756 2.073-.756 2.828 0l.707.707a1.001 1.001 0 0 0 1.415-1.415z" fill="#000" fill-rule="evenodd"/></svg>