<svg width="24" height="24" viewBox="0 0 24 24" xmlns="http://www.w3.org/2000/svg"><path d="M0 1.501C0 .672.667 0 1.501 0H22.5c.828 0 1.5.667 1.5 1.501V22.5c0 .829-.667 1.501-1.501 1.501H1.5A1.5 1.5 0 0 1 0 22.499V1.5zM11.493 12.43L8.92 7.357a.839.839 0 0 0-.14-.203.46.46 0 0 0-.162-.106.676.676 0 0 0-.202-.041A4.434 4.434 0 0 0 8.151 7H6.38v10h2.045v-5.752a8.567 8.567 0 0 0-.055-.913l2.663 5.148a.88.88 0 0 0 .333.364.92.92 0 0 0 .477.123h.316a.92.92 0 0 0 .477-.123.873.873 0 0 0 .333-.364l2.65-5.14a10.56 10.56 0 0 0-.042.905V17h2.045V7h-1.77a4.1 4.1 0 0 0-.265.007.676.676 0 0 0-.202.041.46.46 0 0 0-.161.106.839.839 0 0 0-.141.203l-2.567 5.051c-.092.179-.18.363-.268.553a10.5 10.5 0 0 0-.247.587 13.212 13.212 0 0 0-.244-.577 9.955 9.955 0 0 0-.264-.542z"/></svg>