<svg width="251" height="162" viewBox="0 0 251 162" xmlns="http://www.w3.org/2000/svg"><title>logo</title><g fill="none" fill-rule="evenodd"><path d="M145.648 2.545a.42.42 0 0 0-.168-.697c-.523-.168-.996-.357-1.809-.609-.085-.026-1.495-1.375-3.53-1.104-4.056.54-3.936 5.424-5.627 7.071-2.293 2.234-9.65 7.832-11.141 8.876-.14.098-.014.284.152.323 1.414.332 5.667.915 6.38.971.802.063.764.913.025.839-2.323-.232-5.205-.654-7.283-1.182-3.22-.819-5.414-1.785-7.561-2.493a.194.194 0 0 0-.209.197c0 2.628 1.448 6.987 3.296 6.987 2.958 0 6.322-1.108 7.496-1.553.037-.014.07-.027.11-.023.481.048 4.083.38 6.85.386.102 0 .185.078.192.18.1 1.423 1.586 10.85 1.586 11.413 0 .707.727.763.727.046 0-.663.506-10.142.547-11.538a.19.19 0 0 1 .176-.185c8.22-.517 12.382-8.788 8.202-16.162-.037-.066-.007-.148.046-.202l1.543-1.54" fill="#AACC3B"/><path d="M197.092 102.805a3.646 3.646 0 0 1-3.647-3.644 3.645 3.645 0 0 1 3.647-3.644 3.645 3.645 0 0 1 3.648 3.644 3.646 3.646 0 0 1-3.648 3.644zM63.236 76.731c0-.72.252-1.341.755-1.866.504-.523 1.107-.786 1.81-.786.714 0 1.323.263 1.827.786.503.512.755 1.14.755 1.884s-.252 1.378-.755 1.901a2.385 2.385 0 0 1-1.81.787c-.714 0-1.323-.262-1.827-.787-.503-.523-.755-1.164-.755-1.92zM246.775 58.62c-8.53 9.538-24.016 30.806-37.584 23.67-4.906-2.58-4.283-11.303-3.597-16.203.213-1.523-1.37-2.555-2.744-2.017-2.282.894-5.355 2.325-8.907 3.29-8.781 2.384-17.3 1.366-29.183-8.118-15.323-12.228-20.153-27.149-30.729-27.149-12.913 0-24.63 20.08-47.476 20.08-16.13 0-19.408-7.69-37.813-7.69C5.6 44.483.02 113.286 0 120.293c-.004 1.332.962 2.526 2.29 2.646.812.073 2.05-.406 2.365-2.193 1.406-17.153 7.957-34.328 8.319-35.265.313-.812 1.03-2.002 1.843-1.688.813.313.517.942.365 1.8-.842 4.73-1.922 11.295-1.922 21.74 0 24.797 13.401 46.075 16.946 52.192a3.527 3.527 0 0 0 3.056 1.754H53.01a2.749 2.749 0 0 0 2.749-2.567c.485-7.39 3.547-28.191 22.63-28.191 22.29 0 25.008 22.471 26.373 29.284a2.735 2.735 0 0 0 2.687 2.195h19.584c1.463 0 2.626-1.19 2.626-2.653 0-10.78 1.702-22.59 7.435-28.669 2.599-2.756 6.022-2.674 10.784-.832 9.374 3.626 28.468 10.568 46.158 8.255 23.01-3.01 38.651-16.04 48.123-36.862 6.71-14.752 8.225-31.943 8.763-41.084.154-2.61-2.79-3.053-4.147-1.535zM31.903 84.136h3.952v1.591c.727-.793 1.37-1.335 1.933-1.627.573-.305 1.253-.458 2.038-.458 1.042 0 2.131.354 3.268 1.061l-1.81 3.766c-.75-.56-1.482-.84-2.196-.84-2.155 0-3.233 1.694-3.233 5.082v9.234h-3.952V84.136zm13.102-8.631h3.952v10.112c1.406-1.317 2.957-1.975 4.655-1.975 1.933 0 3.479.653 4.638 1.957.984 1.133 1.476 2.943 1.476 5.43v10.916h-3.953V91.413c0-1.426-.243-2.459-.729-3.099-.486-.64-1.268-.96-2.345-.96-1.382 0-2.354.445-2.916 1.334-.55.903-.826 2.451-.826 4.646v8.611h-3.952v-26.44zm18.828 8.631h3.953v17.81h-3.953v-17.81zm8.06 0h3.97v1.646c1.382-1.427 2.94-2.14 4.674-2.14 1.99 0 3.542.653 4.654 1.957.96 1.11 1.442 2.919 1.442 5.43v10.916h-3.971v-9.934c0-1.753-.235-2.964-.703-3.634-.456-.682-1.288-1.023-2.494-1.023-1.312 0-2.243.45-2.794 1.351-.538.889-.807 2.441-.807 4.658v8.582h-3.97V84.136zm18.021 8.777c0-2.572.884-4.76 2.653-6.565 1.767-1.804 3.922-2.706 6.464-2.706 2.554 0 4.72.909 6.5 2.725 1.757 1.817 2.635 4.047 2.635 6.692 0 2.67-.884 4.907-2.652 6.711-1.78 1.791-3.965 2.687-6.553 2.687-2.565 0-4.714-.914-6.447-2.742-1.734-1.804-2.6-4.071-2.6-6.802zm38.083 8.612c0 .84-.027 1.581-.08 2.221a15.75 15.75 0 0 1-.22 1.692c-.28 1.34-.83 2.492-1.65 3.456-1.547 1.852-3.672 2.779-6.378 2.779-2.283 0-4.163-.643-5.638-1.93-1.523-1.322-2.402-3.147-2.635-5.476h3.97c.152.878.403 1.555.755 2.03.82 1.109 2.014 1.664 3.584 1.664 2.892 0 4.339-1.84 4.339-5.522v-2.487c-1.57 1.67-3.38 2.505-5.428 2.505-2.33 0-4.24-.877-5.728-2.633-1.498-1.78-2.248-4.004-2.248-6.674 0-2.596.697-4.802 2.09-6.618 1.5-1.927 3.479-2.89 5.938-2.89 2.155 0 3.947.836 5.376 2.505v-2.011h3.953v17.39zm4.09-17.389h3.952v1.591c.726-.793 1.37-1.335 1.932-1.627.574-.305 1.254-.458 2.039-.458 1.042 0 2.131.354 3.267 1.061l-1.81 3.766c-.749-.56-1.481-.84-2.196-.84-2.155 0-3.232 1.694-3.232 5.082v9.234h-3.953V84.136zm24.924 0h3.97v17.81h-3.97v-1.866c-1.628 1.585-3.379 2.377-5.252 2.377-2.366 0-4.322-.889-5.869-2.67-1.534-1.815-2.301-4.083-2.301-6.801 0-2.67.767-4.894 2.301-6.674 1.535-1.78 3.455-2.67 5.763-2.67 1.99 0 3.776.854 5.358 2.56v-2.066zm-9.381 8.85c0 1.707.439 3.096 1.317 4.169.902 1.085 2.039 1.627 3.408 1.627 1.464 0 2.647-.524 3.55-1.572.9-1.085 1.352-2.463 1.352-4.133s-.452-3.047-1.353-4.132c-.902-1.061-2.072-1.591-3.513-1.591-1.36 0-2.495.537-3.408 1.61-.902 1.084-1.353 2.425-1.353 4.022zm17.44-8.85h3.953v1.646c.762-.83 1.412-1.39 1.95-1.682.574-.305 1.295-.458 2.162-.458 1.931 0 3.46.878 4.585 2.633 1.24-1.755 2.922-2.633 5.04-2.633 3.854 0 5.781 2.432 5.781 7.296v11.007h-3.97v-9.892c0-1.706-.2-2.913-.598-3.62-.41-.72-1.083-1.079-2.02-1.079-1.09 0-1.883.427-2.38 1.28-.498.854-.747 2.224-.747 4.114v9.197h-3.97v-9.837c0-3.17-.879-4.754-2.636-4.754-1.112 0-1.923.433-2.433 1.299-.509.865-.764 2.23-.764 4.095v9.197h-3.952V84.136zm-71.115 8.85c0 1.78.456 3.188 1.37 4.224.936 1.048 2.172 1.572 3.706 1.572 1.546 0 2.782-.518 3.708-1.554.924-1.036 1.386-2.42 1.386-4.151 0-1.73-.462-3.114-1.386-4.15-.938-1.049-2.174-1.573-3.708-1.573-1.51 0-2.735.524-3.671 1.573-.938 1.048-1.405 2.401-1.405 4.059zm30.247.1c0-1.728-.445-3.11-1.335-4.144-.902-1.058-2.056-1.588-3.46-1.588-1.5 0-2.683.578-3.55 1.734-.784 1.035-1.176 2.374-1.176 4.017 0 1.618.392 2.945 1.177 3.98.854 1.131 2.038 1.697 3.548 1.697 1.51 0 2.705-.572 3.584-1.716.808-1.034 1.212-2.36 1.212-3.98z" fill="#4078BE"/></g></svg>