<svg xmlns="http://www.w3.org/2000/svg" xmlns:xlink="http://www.w3.org/1999/xlink"><symbol viewBox="0 0 24 24" id="icon-bar-graph"><path d="M23.5 23H23V8.5a.5.5 0 0 0-.5-.5h-3a.5.5 0 0 0-.5.5V23h-2v-7.5a.5.5 0 0 0-.5-.5h-3a.5.5 0 0 0-.5.5V23h-2v-9.5a.5.5 0 0 0-.5-.5h-3a.5.5 0 0 0-.5.5V23H5v-4.5a.5.5 0 0 0-.5-.5h-3a.5.5 0 0 0-.5.5V23H.5a.5.5 0 0 0 0 1h23a.5.5 0 0 0 0-1z"/></symbol><symbol viewBox="0 0 24 24" id="icon-calendar"><path d="M12 16h4v3h-4zm-5 0h4v3H7zm5-4h4v3h-4zm-5 0h4v3H7z"/><path d="M0 23.5a.5.5 0 0 0 .5.5h23a.5.5 0 0 0 .5-.5V8H0v15.5zM2.5 16a.5.5 0 0 1 0-1H6v-3H2.5a.5.5 0 0 1 0-1H6V9.5a.5.5 0 0 1 1 0V11h4V9.5a.5.5 0 0 1 1 0V11h4V9.5a.5.5 0 0 1 1 0V11h4.5a.5.5 0 0 1 0 1H17v3h4.5a.5.5 0 0 1 0 1H17v3h4.5a.5.5 0 0 1 0 1H17v1.5a.5.5 0 0 1-1 0V20h-4v1.5a.5.5 0 0 1-1 0V20H7v1.5a.5.5 0 0 1-1 0V20H2.5a.5.5 0 0 1 0-1H6v-3H2.5zm21-14H20V.5a.5.5 0 0 0-.5-.5h-3a.5.5 0 0 0-.5.5V2H8V.5a.5.5 0 0 0-.5-.5h-3a.5.5 0 0 0-.5.5V2H.5a.5.5 0 0 0-.5.5V7h24V2.5a.5.5 0 0 0-.5-.5zM7 4H5V1h2v3zm12 0h-2V1h2v3z"/></symbol><symbol viewBox="0 0 24 24" id="icon-checkmark"><path d="M21.6 2.2c-.4-.3-.9-.2-1.2.2L8.1 19.9l-4.7-4.7c-.3-.3-.9-.3-1.2 0-.3.3-.3.9 0 1.2l5.4 5.4c.2.1.4.2.7.2.3 0 .5-.1.7-.4L21.8 3.3c.3-.4.2-.9-.2-1.1z"/></symbol><symbol viewBox="0 0 24 24" id="icon-checkmark-circle"><path d="M12.001.001c-6.617 0-12 5.384-12 12s5.383 12 12 12c6.616 0 12-5.384 12-12s-5.383-12-12-12zm5.341 8.866l-7.5 7a.502.502 0 0 1-.695-.012l-2.5-2.5a.5.5 0 0 1 .707-.707l2.158 2.158 7.147-6.67a.5.5 0 0 1 .683.731z"/></symbol><symbol viewBox="0 0 24 24" id="icon-chevron-down"><path d="M12 18c-.3 0-.6-.1-.8-.4l-11-10c-.4-.4-.3-1.1.1-1.4.4-.4 1.1-.3 1.4.1L12 15.5l10.2-9.1c.4-.4 1-.5 1.4-.1.4.4.5 1 .1 1.4l-11 10c-.1.2-.4.3-.7.3z"/></symbol><symbol viewBox="0 0 24 24" id="icon-chevron-left"><path d="M18.5 24c-.228 0-.458-.078-.646-.236l-13-11a1.001 1.001 0 0 1 0-1.528l13-11a1 1 0 0 1 1.292 1.527L7.048 12l12.098 10.236A1 1 0 0 1 18.5 24z"/></symbol><symbol viewBox="0 0 24 24" id="icon-chevron-right"><path d="M5.5 24a1 1 0 0 1-.647-1.763L16.952 12 4.854 1.764A1.001 1.001 0 0 1 6.146.236l13 11a1 1 0 0 1 0 1.528l-13 11A1 1 0 0 1 5.5 24z"/></symbol><symbol viewBox="0 0 24 24" id="icon-chevron-up"><path d="M12.8 6.4l11 10c.4.4.3 1.1-.1 1.4-.4.4-1.1.3-1.4-.1L12 8.5 1.8 17.6c-.4.4-1 .5-1.4.1-.4-.4-.5-1-.1-1.4l11-10c.1-.2.4-.3.7-.3s.6.1.8.4z"/></symbol><symbol viewBox="0 0 24 24" id="icon-clock"><path d="M12 0C5.383 0 0 5.383 0 12s5.383 12 12 12 12-5.383 12-12S18.617 0 12 0zm5.869 17.838a.501.501 0 0 1-.707.031l-6-5.5A.501.501 0 0 1 11 12V6.5a.5.5 0 0 1 1 0v5.28l5.838 5.351a.5.5 0 0 1 .031.707z"/></symbol><symbol viewBox="0 0 24 24" id="icon-close"><path d="M13.2 12l8.6-8.6c.3-.3.3-.9 0-1.2-.3-.3-.9-.3-1.2 0L12 10.8 3.4 2.2c-.3-.3-.9-.3-1.2 0-.3.3-.3.9 0 1.2l8.6 8.6-8.6 8.6c-.3.3-.3.9 0 1.2.2.1.4.2.6.2.2 0 .4-.1.6-.2l8.6-8.6 8.6 8.6c.2.2.4.2.6.2s.4-.1.6-.2c.3-.3.3-.9 0-1.2L13.2 12z"/></symbol><symbol viewBox="0 0 24 24" id="icon-cog"><path d="M23.5 10h-2.855c-.2-.79-.454-1.667-.778-2.332l2.032-2.032a.499.499 0 0 0 0-.707L19.07 2.102a.499.499 0 0 0-.707 0L16.33 4.133c-.664-.324-1.541-.578-2.33-.777V.5a.5.5 0 0 0-.5-.5h-3a.5.5 0 0 0-.5.5v2.856c-.79.199-1.667.453-2.331.777L5.636 2.102a.499.499 0 0 0-.707 0L2.1 4.929a.5.5 0 0 0 0 .707l2.033 2.033c-.322.663-.578 1.54-.779 2.331H.5a.5.5 0 0 0-.5.5v3a.5.5 0 0 0 .5.5h2.854c.201.791.456 1.668.779 2.332L2.1 18.365a.504.504 0 0 0 0 .707L4.929 21.9c.188.188.52.188.707 0l2.033-2.033c.663.323 1.54.577 2.331.779V23.5a.5.5 0 0 0 .5.5h3a.5.5 0 0 0 .5-.5v-2.854c.791-.201 1.668-.456 2.331-.778l2.034 2.032a.5.5 0 0 0 .707 0l2.828-2.828a.5.5 0 0 0 0-.707l-2.032-2.033c.323-.664.578-1.541.778-2.332H23.5a.5.5 0 0 0 .5-.5v-3a.5.5 0 0 0-.5-.5zM12 16c-2.206 0-4-1.795-4-4s1.794-4 4-4 4 1.795 4 4-1.794 4-4 4z"/></symbol><symbol viewBox="0 0 24 24" id="icon-email"><path d="M22.7 6l-10.4 9c-.1.1-.2.1-.3.1s-.2 0-.3-.1L1.3 6c-.2.4-.3.7-.3 1.1v11.7C1 20 1.9 21 3 21h18c1.1 0 2-1 2-2.1V7.1c0-.4-.1-.7-.3-1.1z"/><path d="M22 5.3c-.3-.2-.6-.3-1-.3H3c-.4 0-.7.1-1 .3l10 8.6 10-8.6z"/></symbol><symbol viewBox="0 0 24 24" id="icon-inbox"><path d="M23.994 16.47c-.002-.034-.011-.065-.02-.098-.009-.033-.017-.064-.032-.094-.005-.009-.004-.02-.01-.029l-3.5-6A.5.5 0 0 0 20 10h-3a.5.5 0 0 0 0 1h2.713l2.917 5H16.5a.5.5 0 0 0-.5.5v1c0 .827-.673 1.5-1.5 1.5H10c-.827 0-1.5-.673-1.5-1.5v-1A.5.5 0 0 0 8 16H1.371l2.917-5H6.5a.5.5 0 0 0 0-1H4a.502.502 0 0 0-.432.248l-3.5 6c-.005.01-.005.02-.01.029-.015.03-.023.062-.032.094-.009.033-.018.064-.02.098-.001.011-.006.02-.006.031v7a.5.5 0 0 0 .5.5h23a.5.5 0 0 0 .5-.5v-7c0-.011-.005-.02-.006-.03z"/><path d="M11.146 11.854c.09.089.218.146.354.146s.264-.057.354-.146l4-4a.5.5 0 0 0-.707-.707L12 10.293V.5a.5.5 0 0 0-1 0v9.793L7.854 7.146a.5.5 0 0 0-.707.707l3.999 4.001z"/></symbol><symbol viewBox="0 0 24 24" id="icon-lock"><path d="M3 24h18V9h-3V6c0-3.309-2.692-6-6-6-3.309 0-6 2.691-6 6v3H3v15zm8-9a1 1 0 0 1 2 0 .995.995 0 0 1-.5.86v2.64a.5.5 0 0 1-1 0v-2.64A.993.993 0 0 1 11 15zM7 6c0-2.757 2.242-5 5-5 2.757 0 5 2.243 5 5v3H7V6z"/></symbol><symbol viewBox="0 0 24 24" id="icon-logo-circle-facebook"><path d="M12 0C5.383 0 0 5.383 0 12s5.383 12 12 12 12-5.383 12-12S18.617 0 12 0zm3.595 11.5H13.5v7h-3v-7h-2v-2h2V8.336c0-1.1.352-2.819 2.649-2.819l2.351.007V7.83h-1.408c-.244 0-.592.124-.592.647V9.5h2.339l-.244 2z"/></symbol><symbol viewBox="0 0 24 24" id="icon-logo-circle-twitter"><path d="M12 0C5.383 0 0 5.383 0 12s5.383 12 12 12 12-5.383 12-12S18.617 0 12 0zm.5 14.5H14a1.5 1.5 0 1 1 0 3h-2.5a4 4 0 0 1-4-4V7a1.5 1.5 0 1 1 3 0v1.5H14a1.5 1.5 0 1 1 0 3h-3.5v1a2 2 0 0 0 2 2z"/></symbol><symbol viewBox="0 0 24 24" id="icon-pencil"><path d="M.351 23.095a.5.5 0 0 0 .601.601l6.466-1.516a.531.531 0 0 0 .122-.047l-5.625-5.625a.475.475 0 0 0-.047.122L.351 23.095zM22.196 7.508l-.707.707-5.655-5.66.707-.706zM20.784 8.92L8.263 21.441l-5.657-5.657 12.52-12.52zm2.121-2.121l.354-.354a2.502 2.502 0 0 0 0-3.535L21.138.79A2.477 2.477 0 0 0 19.37.057a2.48 2.48 0 0 0-1.768.733l-.354.353 5.657 5.656z"/></symbol><symbol viewBox="0 0 253 164" id="icon-rhinogram-logo"><path fill="#A6CE38" d="M146.6 3.4c.2-.2.1-.6-.2-.7-.5-.2-1-.4-1.8-.6-.1 0-1.5-1.4-3.5-1.1-4.1.5-3.9 5.4-5.6 7.1-2.3 2.2-9.6 7.8-11.1 8.9-.1.1 0 .3.2.3 1.4.3 5.7.9 6.4 1 .8.1.8.9 0 .8-2.3-.2-5.2-.7-7.3-1.2-3.2-.8-5.4-1.8-7.6-2.5-.1 0-.2.1-.2.2 0 2.6 1.4 7 3.3 7 3 0 6.3-1.1 7.5-1.6h.1c.5 0 4.1.4 6.9.4.1 0 .2.1.2.2.1 1.4 1.6 10.9 1.6 11.4 0 .7.7.8.7 0 0-.7.5-10.1.5-11.5 0-.1.1-.2.2-.2 8.2-.5 12.4-8.8 8.2-16.2v-.2l1.5-1.5"/><path fill="#0081C6" d="M198.1 103.7c-2 0-3.6-1.6-3.6-3.6s1.6-3.6 3.6-3.6 3.6 1.6 3.6 3.6-1.6 3.6-3.6 3.6zM64.2 77.6c0-.7.3-1.3.8-1.9.5-.5 1.1-.8 1.8-.8s1.3.3 1.8.8.8 1.1.8 1.9c0 .7-.3 1.4-.8 1.9s-1.1.8-1.8.8-1.3-.3-1.8-.8-.8-1.1-.8-1.9zm183.6-18.1c-8.5 9.5-24 30.8-37.6 23.7-4.9-2.6-4.3-11.3-3.6-16.2.2-1.5-1.4-2.6-2.7-2-2.3.9-5.4 2.3-8.9 3.3-8.8 2.4-17.3 1.4-29.2-8.1C150.4 47.9 145.6 33 135 33c-12.9 0-24.6 20.1-47.5 20.1-16.1 0-19.4-7.7-37.8-7.7C6.6 45.4 1 114.2 1 121.2c0 1.3 1 2.5 2.3 2.6.8.1 2-.4 2.4-2.2 1.4-17.2 8-34.3 8.3-35.3.3-.8 1-2 1.8-1.7.8.3.5.9.4 1.8-.8 4.7-1.9 11.3-1.9 21.7 0 24.8 13.4 46.1 16.9 52.2.6 1.1 1.8 1.8 3.1 1.8H54c1.5 0 2.7-1.1 2.7-2.6.5-7.4 3.5-28.2 22.6-28.2 22.3 0 25 22.5 26.4 29.3.3 1.3 1.4 2.2 2.7 2.2H128c1.5 0 2.6-1.2 2.6-2.7 0-10.8 1.7-22.6 7.4-28.7 2.6-2.8 6-2.7 10.8-.8 9.4 3.6 28.5 10.6 46.2 8.3 23-3 38.7-16 48.1-36.9 6.7-14.8 8.2-31.9 8.8-41.1.2-2.5-2.8-2.9-4.1-1.4zM32.9 85h4v1.6c.7-.8 1.4-1.3 1.9-1.6.6-.3 1.3-.5 2-.5 1 0 2.1.4 3.3 1.1l-1.8 3.8c-.7-.6-1.5-.8-2.2-.8-2.2 0-3.2 1.7-3.2 5.1v9.2h-4V85zM46 76.4h4v10.1c1.4-1.3 3-2 4.7-2 1.9 0 3.5.7 4.6 2 1 1.1 1.5 2.9 1.5 5.4v10.9h-4V92.3c0-1.4-.2-2.5-.7-3.1-.5-.6-1.3-1-2.3-1-1.4 0-2.4.4-2.9 1.3-.7 1-.9 2.5-.9 4.7v8.6h-4V76.4zM64.8 85h4v17.8h-4V85zm8.1 0h4v1.6c1.4-1.4 2.9-2.1 4.7-2.1 2 0 3.5.7 4.7 2 1 1.1 1.4 2.9 1.4 5.4v10.9h-4v-9.9c0-1.8-.2-3-.7-3.6-.5-.7-1.3-1-2.5-1-1.3 0-2.2.5-2.8 1.4-.5.9-.8 2.4-.8 4.7v8.6h-4V85zm18 8.8c0-2.6.9-4.8 2.7-6.6 1.8-1.8 3.9-2.7 6.5-2.7s4.7.9 6.5 2.7c1.8 1.8 2.6 4 2.6 6.7s-.9 4.9-2.7 6.7c-1.8 1.8-4 2.7-6.6 2.7-2.6 0-4.7-.9-6.4-2.7-1.7-1.8-2.6-4.1-2.6-6.8zm38.1 8.6c0 .8 0 1.6-.1 2.2-.1.6-.1 1.2-.2 1.7-.3 1.3-.8 2.5-1.7 3.5-1.5 1.9-3.7 2.8-6.4 2.8-2.3 0-4.2-.6-5.6-1.9-1.5-1.3-2.4-3.1-2.6-5.5h4c.2.9.4 1.6.8 2 .8 1.1 2 1.7 3.6 1.7 2.9 0 4.3-1.8 4.3-5.5v-2.5c-1.6 1.7-3.4 2.5-5.4 2.5-2.3 0-4.2-.9-5.7-2.6-1.5-1.8-2.2-4-2.2-6.7 0-2.6.7-4.8 2.1-6.6 1.5-1.9 3.5-2.9 5.9-2.9 2.2 0 3.9.8 5.4 2.5v-2h4v17.3zm4.1-17.4h4v1.6c.7-.8 1.4-1.3 1.9-1.6.6-.3 1.3-.5 2-.5 1 0 2.1.4 3.3 1.1l-1.8 3.8c-.7-.6-1.5-.8-2.2-.8-2.2 0-3.2 1.7-3.2 5.1v9.2h-4V85zm24.9 0h4v17.8h-4V101c-1.6 1.6-3.4 2.4-5.3 2.4-2.4 0-4.3-.9-5.9-2.7-1.5-1.8-2.3-4.1-2.3-6.8s.8-4.9 2.3-6.7c1.5-1.8 3.5-2.7 5.8-2.7 2 0 3.8.9 5.4 2.6V85zm-9.4 8.9c0 1.7.4 3.1 1.3 4.2s2 1.6 3.4 1.6c1.5 0 2.6-.5 3.5-1.6.9-1.1 1.4-2.5 1.4-4.1 0-1.7-.5-3-1.4-4.1-.9-1.1-2.1-1.6-3.5-1.6s-2.5.5-3.4 1.6c-.8 1-1.3 2.4-1.3 4zm17.5-8.9h4v1.6c.8-.8 1.4-1.4 2-1.7.6-.3 1.3-.5 2.2-.5 1.9 0 3.5.9 4.6 2.6 1.2-1.8 2.9-2.6 5-2.6 3.9 0 5.8 2.4 5.8 7.3v11h-4V93c0-1.7-.2-2.9-.6-3.6-.4-.7-1.1-1.1-2-1.1-1.1 0-1.9.4-2.4 1.3s-.7 2.2-.7 4.1v9.2h-4V93c0-3.2-.9-4.8-2.6-4.8-1.1 0-1.9.4-2.4 1.3s-.8 2.2-.8 4.1v9.2h-4V85zM95 93.9c0 1.8.5 3.2 1.4 4.2.9 1 2.2 1.6 3.7 1.6s2.8-.5 3.7-1.6c.9-1 1.4-2.4 1.4-4.2 0-1.7-.5-3.1-1.4-4.1-.9-1-2.2-1.6-3.7-1.6s-2.7.5-3.7 1.6-1.4 2.4-1.4 4.1zm30.2.1c0-1.7-.4-3.1-1.3-4.1-.9-1.1-2.1-1.6-3.5-1.6-1.5 0-2.7.6-3.5 1.7-.8 1-1.2 2.4-1.2 4s.4 2.9 1.2 4c.9 1.1 2 1.7 3.5 1.7s2.7-.6 3.6-1.7c.8-1.1 1.2-2.4 1.2-4z"/></symbol><symbol viewBox="0 0 253 164" id="icon-rhinogram-logo-reversed"><path fill="#A6CE38" d="M146.7 3.5c.2-.2.1-.6-.2-.7-.5-.2-1-.4-1.8-.6-.1 0-1.5-1.4-3.5-1.1-4.1.5-3.9 5.4-5.6 7.1-2.3 2.2-9.7 7.8-11.1 8.9-.1.1 0 .3.2.3 1.4.3 5.7.9 6.4 1 .8.1.8.9 0 .8-2.3-.2-5.2-.7-7.3-1.2-3.2-.8-5.4-1.8-7.6-2.5-.1 0-.2.1-.2.2 0 2.6 1.4 7 3.3 7 3 0 6.3-1.1 7.5-1.6h.1c.5 0 4.1.4 6.9.4.1 0 .2.1.2.2.1 1.4 1.6 10.9 1.6 11.4 0 .7.7.8.7 0 0-.7.5-10.2.6-11.6 0-.1.1-.2.2-.2 8.2-.5 12.4-8.8 8.2-16.2v-.2l1.4-1.4z"/><path fill="#FFF" d="M247.8 59.6c-8.5 9.6-24 30.8-37.6 23.7-4.9-2.6-4.3-11.3-3.6-16.2.2-1.5-1.4-2.6-2.7-2-2.3.9-5.4 2.3-8.9 3.3-8.8 2.4-17.3 1.4-29.2-8.1C150.5 48 145.6 33 135.1 33c-12.9 0-24.6 20.1-47.5 20.1-16.1 0-19.4-7.7-37.8-7.7C6.6 45.4 1 114.3 1 121.3c0 1.3 1 2.5 2.3 2.6.8.1 2-.4 2.4-2.2 1.4-17.2 8-34.4 8.3-35.3.3-.8 1-2 1.8-1.7.8.3.5.9.4 1.8-.8 4.7-1.9 11.3-1.9 21.8 0 24.8 13.4 46.1 16.9 52.2.6 1.1 1.8 1.8 3.1 1.8H54c1.5 0 2.7-1.1 2.8-2.6.5-7.4 3.5-28.2 22.6-28.2 22.3 0 25 22.5 26.4 29.3.3 1.3 1.4 2.2 2.7 2.2h19.6c1.5 0 2.6-1.2 2.6-2.7 0-10.8 1.7-22.6 7.4-28.7 2.6-2.8 6-2.7 10.8-.8 9.4 3.6 28.5 10.6 46.2 8.3 23-3 38.7-16.1 48.1-36.9 6.7-14.8 8.2-32 8.8-41.1.1-2.6-2.8-3-4.2-1.5zm-49.7 44.2c-2 0-3.7-1.6-3.7-3.6s1.6-3.6 3.7-3.6c2 0 3.6 1.6 3.6 3.6.1 2-1.5 3.6-3.6 3.6z"/><path fill="#0081C6" d="M32.9 85.1h4v1.6c.7-.8 1.4-1.3 1.9-1.6.6-.3 1.3-.5 2-.5 1 0 2.1.4 3.3 1.1l-1.8 3.8c-.7-.6-1.5-.8-2.2-.8-2.2 0-3.2 1.7-3.2 5.1v9.2h-4V85.1zM46 76.5h4v10.1c1.4-1.3 3-2 4.7-2 1.9 0 3.5.7 4.6 2 1 1.1 1.5 3 1.5 5.4v11h-4V92.4c0-1.4-.2-2.5-.7-3.1-.5-.6-1.3-1-2.3-1-1.4 0-2.4.4-2.9 1.3s-.8 2.5-.8 4.7v8.6h-4V76.5z"/><path fill="#1782C5" d="M64.3 77.7c0-.7.3-1.3.8-1.9.5-.5 1.1-.8 1.8-.8s1.3.3 1.8.8.8 1.1.8 1.9c0 .7-.3 1.4-.8 1.9s-1.1.8-1.8.8-1.3-.3-1.8-.8c-.6-.5-.8-1.1-.8-1.9z"/><path fill="#0081C6" d="M64.9 85.1h4v17.8h-4zm8 0h4v1.6c1.4-1.4 2.9-2.1 4.7-2.1 2 0 3.5.7 4.7 2 1 1.1 1.4 2.9 1.4 5.4v11h-4V93c0-1.8-.2-3-.7-3.6-.5-.7-1.3-1-2.5-1-1.3 0-2.2.5-2.8 1.4-.5.9-.8 2.4-.8 4.7v8.6h-4v-18zm18 8.8c0-2.6.9-4.8 2.7-6.6 1.8-1.8 3.9-2.7 6.5-2.7s4.7.9 6.5 2.7c1.8 1.8 2.6 4.1 2.6 6.7 0 2.7-.9 4.9-2.7 6.7-1.8 1.8-4 2.7-6.6 2.7-2.6 0-4.7-.9-6.4-2.7-1.7-1.8-2.6-4.1-2.6-6.8zm4.1.1c0 1.8.5 3.2 1.4 4.2.9 1 2.2 1.6 3.7 1.6s2.8-.5 3.7-1.6c.9-1 1.4-2.4 1.4-4.2 0-1.7-.5-3.1-1.4-4.2-.9-1-2.2-1.6-3.7-1.6s-2.7.5-3.7 1.6C95.4 91 95 92.3 95 94zm34 8.5c0 .8 0 1.6-.1 2.2-.1.6-.1 1.2-.2 1.7-.3 1.3-.8 2.5-1.7 3.5-1.5 1.9-3.7 2.8-6.4 2.8-2.3 0-4.2-.6-5.6-1.9-1.5-1.3-2.4-3.1-2.6-5.5h4c.2.9.4 1.6.8 2 .8 1.1 2 1.7 3.6 1.7 2.9 0 4.3-1.8 4.3-5.5V101c-1.6 1.7-3.4 2.5-5.4 2.5-2.3 0-4.2-.9-5.7-2.6-1.5-1.8-2.2-4-2.2-6.7 0-2.6.7-4.8 2.1-6.6 1.5-1.9 3.5-2.9 5.9-2.9 2.2 0 3.9.8 5.4 2.5v-2h4v17.3zm-3.8-8.4c0-1.7-.4-3.1-1.3-4.1-.9-1.1-2.1-1.6-3.5-1.6-1.5 0-2.7.6-3.6 1.7-.8 1-1.2 2.4-1.2 4s.4 2.9 1.2 4c.9 1.1 2 1.7 3.6 1.7 1.5 0 2.7-.6 3.6-1.7.8-1.1 1.2-2.4 1.2-4zm7.9-9h4v1.6c.7-.8 1.4-1.3 1.9-1.6.6-.3 1.3-.5 2-.5 1 0 2.1.4 3.3 1.1l-1.8 3.8c-.7-.6-1.5-.8-2.2-.8-2.2 0-3.2 1.7-3.2 5.1v9.2h-4V85.1zm25 0h4V103h-4v-1.9c-1.6 1.6-3.4 2.4-5.3 2.4-2.4 0-4.3-.9-5.9-2.7-1.5-1.8-2.3-4.1-2.3-6.8s.8-4.9 2.3-6.7c1.5-1.8 3.5-2.7 5.8-2.7 2 0 3.8.9 5.4 2.6v-2.1zm-9.4 8.9c0 1.7.4 3.1 1.3 4.2s2 1.6 3.4 1.6c1.5 0 2.6-.5 3.5-1.6.9-1.1 1.4-2.5 1.4-4.1 0-1.7-.5-3.1-1.4-4.1-.9-1.1-2.1-1.6-3.5-1.6s-2.5.5-3.4 1.6c-.9 1-1.3 2.4-1.3 4zm17.4-8.9h4v1.6c.8-.8 1.4-1.4 2-1.7.6-.3 1.3-.5 2.2-.5 1.9 0 3.5.9 4.6 2.6 1.2-1.8 2.9-2.6 5-2.6 3.9 0 5.8 2.4 5.8 7.3v11h-4v-9.9c0-1.7-.2-2.9-.6-3.6-.4-.7-1.1-1.1-2-1.1-1.1 0-1.9.4-2.4 1.3s-.7 2.2-.7 4.1v9.2h-4V93c0-3.2-.9-4.8-2.6-4.8-1.1 0-1.9.4-2.4 1.3s-.8 2.2-.8 4.1v9.2h-4V85.1z"/><path fill="#FFF" d="M64.6 77.5c0-.7.3-1.3.8-1.9.5-.5 1.1-.8 1.8-.8s1.3.3 1.8.8.8 1.1.8 1.9c0 .7-.3 1.4-.8 1.9s-1.1.8-1.8.8-1.3-.3-1.8-.8c-.6-.5-.8-1.1-.8-1.9"/><path fill="none" stroke="#FFF" stroke-width=".964" stroke-miterlimit="10" d="M64.6 77.5c0-.7.3-1.3.8-1.9.5-.5 1.1-.8 1.8-.8s1.3.3 1.8.8.8 1.1.8 1.9c0 .7-.3 1.4-.8 1.9s-1.1.8-1.8.8-1.3-.3-1.8-.8c-.6-.5-.8-1.1-.8-1.9z"/></symbol><symbol viewBox="0 0 24 24" id="icon-search"><path d="M9 18a8.955 8.955 0 0 0 5.633-1.992l7.658 7.697a1 1 0 1 0 1.418-1.411l-7.668-7.707A8.939 8.939 0 0 0 18 9c0-4.963-4.037-9-9-9S0 4.037 0 9c0 4.962 4.037 9 9 9zM9 2c3.859 0 7 3.14 7 7 0 3.859-3.141 7-7 7-3.86 0-7-3.141-7-7 0-3.86 3.14-7 7-7z"/></symbol><symbol viewBox="0 0 24 24" id="icon-sms"><path d="M11.997.903c-6.617 0-12 4.434-12 9.883 0 2.573 1.177 4.985 3.325 6.831l-2.41 4.812a.497.497 0 0 0 .447.723.491.491 0 0 0 .211-.047l6.437-2.995c1.278.37 2.619.558 3.99.558 6.617 0 12-4.433 12-9.882s-5.384-9.883-12-9.883z"/></symbol><symbol viewBox="0 0 24 24" id="icon-trash"><path d="M23 3h-7V.5a.5.5 0 0 0-.5-.5h-8a.5.5 0 0 0-.5.5V3H1a.5.5 0 0 0 0 1h2v19.5a.5.5 0 0 0 .5.5h16a.5.5 0 0 0 .5-.5V4h3a.5.5 0 0 0 0-1zM8 18.5a.5.5 0 0 1-1 0v-11a.5.5 0 0 1 1 0v11zM8 1h7v2H8V1zm4 17.5a.5.5 0 0 1-1 0v-11a.5.5 0 0 1 1 0v11zm4 0a.5.5 0 0 1-1 0v-11a.5.5 0 0 1 1 0v11z"/></symbol><symbol viewBox="0 0 24 24" id="icon-user"><path d="M16.489 9.754c.808-.764.749-2.433.094-3 .521-1.385 1.189-2.997.907-4.409C17.144.614 14.686 0 12.686 0c-1.551 0-3.435.391-4.029 1.461-.597.066-1.058.313-1.373.737-.868 1.172-.275 2.971.152 4.537-.655.568-.733 2.255.075 3.019.111 1.588 1.05 2.561 1.489 2.934v2.408c-.421.157-.833.309-1.234.456-3.471 1.276-5.979 2.199-6.713 3.668C.012 21.301 0 23.411 0 23.5a.5.5 0 0 0 .5.5h23a.5.5 0 0 0 .5-.5c0-.089-.012-2.199-1.053-4.28-.735-1.47-3.243-2.392-6.714-3.668-.4-.148-.813-.299-1.233-.456v-2.408c.439-.374 1.378-1.346 1.489-2.934z"/><path fill="none" d="M0 0h24v24H0z"/></symbol><symbol viewBox="0 0 32 32" id="icon-warning"><path d="M31.219 28.771L16.966 3.761c-.197-.346-.566-.558-.966-.558s-.768.213-.966.558L.783 28.771c-.194.339-.19.754.008 1.09s.563.542.957.542h28.504c.39 0 .757-.206.957-.542.198-.336.201-.75.011-1.09zM17.76 27.203h-3.52v-3.2h3.52v3.2zm0-5.6h-3.52v-9.6h3.52v9.6z"/></symbol></svg>