<svg xmlns="http://www.w3.org/2000/svg" xmlns:xlink="http://www.w3.org/1999/xlink"><symbol viewBox="0 0 24 24" id="icon-calendar"><path d="M12 16h4v3h-4zm-5 0h4v3H7zm5-4h4v3h-4zm-5 0h4v3H7z"/><path d="M0 23.5a.5.5 0 0 0 .5.5h23a.5.5 0 0 0 .5-.5V8H0v15.5zM2.5 16a.5.5 0 0 1 0-1H6v-3H2.5a.5.5 0 0 1 0-1H6V9.5a.5.5 0 0 1 1 0V11h4V9.5a.5.5 0 0 1 1 0V11h4V9.5a.5.5 0 0 1 1 0V11h4.5a.5.5 0 0 1 0 1H17v3h4.5a.5.5 0 0 1 0 1H17v3h4.5a.5.5 0 0 1 0 1H17v1.5a.5.5 0 0 1-1 0V20h-4v1.5a.5.5 0 0 1-1 0V20H7v1.5a.5.5 0 0 1-1 0V20H2.5a.5.5 0 0 1 0-1H6v-3H2.5zm21-14H20V.5a.5.5 0 0 0-.5-.5h-3a.5.5 0 0 0-.5.5V2H8V.5a.5.5 0 0 0-.5-.5h-3a.5.5 0 0 0-.5.5V2H.5a.5.5 0 0 0-.5.5V7h24V2.5a.5.5 0 0 0-.5-.5zM7 4H5V1h2v3zm12 0h-2V1h2v3z"/></symbol><symbol viewBox="0 0 24 24" id="icon-checkmark"><path d="M23.576.184a1 1 0 0 0-1.393.24L7.367 21.455l-5.66-5.66a1 1 0 1 0-1.414 1.414l6.5 6.5a1 1 0 0 0 1.524-.13l15.5-22a1 1 0 0 0-.24-1.394z"/></symbol><symbol viewBox="0 0 24 24" id="icon-checkmark-circle"><path d="M12 0C5.385 0 0 5.386 0 12s5.384 12 12 12c6.617 0 12-5.383 12-12S18.62 0 12 0zm5.342 8.867l-7.5 7a.502.502 0 0 1-.695-.012l-2.5-2.5a.5.5 0 0 1 .707-.707l2.158 2.158 7.147-6.67a.5.5 0 0 1 .682.73z"/></symbol><symbol viewBox="0 0 24 24" id="icon-chevron-down"><path d="M12 19.5a1 1 0 0 1-.763-.354l-11-13a1 1 0 0 1 1.526-1.292L12 16.952 22.237 4.854a1 1 0 1 1 1.526 1.29l-11 13A.997.997 0 0 1 12 19.5z"/></symbol><symbol viewBox="0 0 24 24" id="icon-chevron-left"><path d="M18.5 24c-.228 0-.458-.078-.646-.236l-13-11a1 1 0 0 1 0-1.528l13-11a1 1 0 0 1 1.292 1.527L7.048 12l12.098 10.236A1 1 0 0 1 18.5 24z"/></symbol><symbol viewBox="0 0 24 24" id="icon-chevron-right"><path d="M5.5 24a1 1 0 0 1-.647-1.763L16.953 12 4.852 1.764A1 1 0 0 1 6.147.236l13 11a1 1 0 0 1 0 1.528l-13 11A1 1 0 0 1 5.5 24z"/></symbol><symbol viewBox="0 0 24 24" id="icon-chevron-up"><path d="M1.5 19.5a1 1 0 0 1-.777-1.628l10.5-13a1 1 0 0 1 .766-.372c.27.024.58.126.773.354l11 13a1 1 0 1 1-1.526 1.29L12.02 7.07 2.277 19.127a.996.996 0 0 1-.778.372z"/></symbol><symbol viewBox="0 0 24 24" id="icon-clock"><path d="M12 0C5.383 0 0 5.383 0 12s5.383 12 12 12 12-5.383 12-12S18.617 0 12 0zm5.87 17.838a.5.5 0 0 1-.708.03l-6-5.5A.5.5 0 0 1 11 12V6.5a.5.5 0 0 1 1 0v5.28l5.838 5.35a.5.5 0 0 1 .03.708z"/></symbol><symbol viewBox="0 0 24 24" id="icon-close"><path d="M13.416 12L23.708 1.71A1 1 0 1 0 22.294.294L12 10.587 1.71.294A1 1 0 1 0 .294 1.708L10.586 12 .294 22.295a1 1 0 1 0 1.414 1.414L12 13.415l10.294 10.293a.997.997 0 0 0 1.414 0 1 1 0 0 0 0-1.414L13.416 12z"/></symbol><symbol viewBox="0 0 24 24" id="icon-cog"><path d="M23.5 10h-2.855c-.2-.79-.454-1.667-.778-2.332L21.9 5.636a.5.5 0 0 0 0-.707L19.07 2.1a.5.5 0 0 0-.707 0l-2.033 2.03c-.664-.323-1.54-.577-2.33-.776V.5a.5.5 0 0 0-.5-.5h-3a.5.5 0 0 0-.5.5v2.856c-.79.2-1.667.453-2.33.777l-2.034-2.03a.5.5 0 0 0-.707 0L2.1 4.928a.5.5 0 0 0 0 .706L4.133 7.67c-.322.662-.578 1.54-.78 2.33H.5a.5.5 0 0 0-.5.5v3a.5.5 0 0 0 .5.5h2.854c.2.79.456 1.668.78 2.332L2.1 18.365a.504.504 0 0 0 0 .707L4.93 21.9c.187.188.52.188.706 0l2.033-2.033c.662.323 1.54.577 2.33.78V23.5a.5.5 0 0 0 .5.5h3a.5.5 0 0 0 .5-.5v-2.854c.79-.2 1.668-.456 2.33-.778l2.035 2.032a.5.5 0 0 0 .707 0l2.828-2.828a.5.5 0 0 0 0-.707l-2.032-2.033c.323-.664.578-1.54.778-2.332H23.5a.5.5 0 0 0 .5-.5v-3a.5.5 0 0 0-.5-.5zM12 16c-2.206 0-4-1.795-4-4s1.794-4 4-4 4 1.795 4 4-1.794 4-4 4z"/></symbol><symbol viewBox="0 0 24 24" id="icon-email"><path d="M22.708 4.976L12.314 13.39a.498.498 0 0 1-.63 0L1.293 4.975C1.112 5.276 1 5.624 1 6v11c0 1.103.897 2 2 2h18c1.103 0 2-.897 2-2V6c0-.376-.11-.724-.292-1.024z"/><path d="M21.988 4.27A1.987 1.987 0 0 0 21 4H3c-.36 0-.695.104-.988.27L12 12.358l9.988-8.086z"/></symbol><symbol viewBox="0 0 24 24" id="icon-inbox"><path d="M23.994 16.47c-.002-.034-.01-.065-.02-.098s-.017-.064-.032-.094c-.005-.01-.004-.02-.01-.03l-3.5-6A.5.5 0 0 0 20 10h-3a.5.5 0 0 0 0 1h2.713l2.917 5H16.5a.5.5 0 0 0-.5.5v1c0 .827-.673 1.5-1.5 1.5H10c-.827 0-1.5-.673-1.5-1.5v-1A.5.5 0 0 0 8 16H1.37l2.918-5H6.5a.5.5 0 0 0 0-1H4a.502.502 0 0 0-.432.248l-3.5 6c-.005.01-.005.02-.01.03-.015.03-.023.06-.032.093-.01.034-.018.065-.02.1 0 .01-.006.02-.006.03v7a.5.5 0 0 0 .5.5h23a.5.5 0 0 0 .5-.5v-7c0-.01-.005-.02-.006-.03z"/><path d="M11.146 11.854c.09.09.218.146.354.146s.264-.057.354-.146l4-4a.5.5 0 0 0-.707-.707L12 10.293V.5a.5.5 0 0 0-1 0v9.793L7.854 7.146a.5.5 0 0 0-.707.707l4 4z"/></symbol><symbol viewBox="0 0 24 24" id="icon-logo-circle-facebook"><path d="M12 0C5.383 0 0 5.383 0 12s5.383 12 12 12 12-5.383 12-12S18.617 0 12 0zm3.595 11.5H13.5v7h-3v-7h-2v-2h2V8.336c0-1.1.352-2.82 2.65-2.82l2.35.008V7.83h-1.408c-.244 0-.592.124-.592.647V9.5h2.34l-.245 2z"/></symbol><symbol viewBox="0 0 24 24" id="icon-logo-circle-twitter"><path d="M12 0C5.383 0 0 5.383 0 12s5.383 12 12 12 12-5.383 12-12S18.617 0 12 0zm.5 14.5H14a1.5 1.5 0 1 1 0 3h-2.5a4 4 0 0 1-4-4V7a1.5 1.5 0 1 1 3 0v1.5H14a1.5 1.5 0 1 1 0 3h-3.5v1a2 2 0 0 0 2 2z"/></symbol><symbol viewBox="0 0 24 24" id="icon-pencil"><path d="M.35 23.095a.5.5 0 0 0 .602.6l6.466-1.515a.53.53 0 0 0 .122-.047l-5.625-5.625a.475.475 0 0 0-.047.122L.35 23.095zM22.197 7.508l-.707.707-5.656-5.66.707-.706zM20.784 8.92L8.264 21.44l-5.658-5.656 12.52-12.52zm2.12-2.12l.355-.355a2.502 2.502 0 0 0 0-3.535L21.137.79A2.477 2.477 0 0 0 19.37.057a2.48 2.48 0 0 0-1.768.733l-.354.353L22.905 6.8z"/></symbol><symbol viewBox="0 0 24 24" id="icon-search"><path d="M9 18a8.955 8.955 0 0 0 5.633-1.992l7.658 7.697a1 1 0 1 0 1.42-1.41l-7.67-7.708A8.94 8.94 0 0 0 18 9c0-4.963-4.037-9-9-9S0 4.037 0 9c0 4.962 4.037 9 9 9zM9 2c3.86 0 7 3.14 7 7s-3.14 7-7 7-7-3.14-7-7 3.14-7 7-7z"/></symbol><symbol viewBox="0 0 24 24" id="icon-sms"><path d="M11.997.903c-6.617 0-12 4.434-12 9.883 0 2.573 1.177 4.985 3.325 6.83L.912 22.43a.497.497 0 0 0 .447.722.49.49 0 0 0 .21-.047l6.437-2.995c1.278.37 2.62.558 3.99.558 6.617 0 12-4.433 12-9.882s-5.384-9.883-12-9.883z"/></symbol></svg>