<svg xmlns="http://www.w3.org/2000/svg" xmlns:xlink="http://www.w3.org/1999/xlink"><symbol viewBox="0 0 32 32" id="icon-arrow-bend-down-left"><path d="M30.4 5.12s-3.2 15.573-17.24 15.573v6.187L1.6 16.552 13.16 5.846v6.973c7.62 0 13.267-.676 17.24-7.7z"/></symbol><symbol viewBox="0 0 32 32" id="icon-arrow-bend-left"><path d="M30.4 26.88s-3.2-15.573-17.24-15.573V5.12L1.6 15.448l11.56 10.706V19.18c7.62 0 13.267.676 17.24 7.7z"/></symbol><symbol viewBox="0 0 32 32" id="icon-arrow-bend-right"><path d="M18.84 19.18v6.972L30.4 15.448 18.84 5.12v6.186C4.8 11.306 1.6 26.88 1.6 26.88c3.973-7.024 9.62-7.7 17.24-7.7z"/></symbol><symbol viewBox="0 0 32 32" id="icon-arrow-down"><path d="M20 2v14h10L16 30 2 16h10V2z"/></symbol><symbol viewBox="0 0 32 32" id="icon-arrow-up"><path d="M16 0L0 16h10v16h12V16h10z"/></symbol><symbol viewBox="0 0 32 32" id="icon-bars"><path d="M2 6h28v6H2zm0 8h28v6H2zm0 8h28v6H2z"/></symbol><symbol viewBox="0 0 32 32" id="icon-bell"><path d="M29.78 23.688c-2.312-2.403-2.816-5.958-3.304-9.396-.723-5.096-1.537-10.823-8.8-11.572v-.923a1.677 1.677 0 0 0-3.355 0v.924c-7.203.756-8.01 6.48-8.727 11.574-.484 3.44-.984 6.995-3.278 9.4a1.677 1.677 0 0 0 1.213 2.833h7.024c.038 2.972 2.464 5.38 5.446 5.38s5.408-2.408 5.446-5.38h7.13a1.677 1.677 0 0 0 1.207-2.84zM16 28.553a2.095 2.095 0 0 1-2.09-2.026h4.18a2.095 2.095 0 0 1-2.09 2.026zm0-5.38H6.74c1.365-2.66 1.788-5.67 2.174-8.412.833-5.923 1.482-8.77 7.084-8.77 5.663 0 6.318 2.847 7.158 8.773.39 2.742.815 5.75 2.19 8.41h-9.348z"/></symbol><symbol viewBox="0 0 32 32" id="icon-calculator"><path d="M24.658 1.884H7.34a4.33 4.33 0 0 0-4.328 4.33v19.48a4.328 4.328 0 0 0 4.33 4.328h17.316a4.328 4.328 0 0 0 4.33-4.33V6.213a4.33 4.33 0 0 0-4.33-4.328zM11.58 25.694H7.25v-4.33h4.33v4.33zm0-6.494H7.25v-4.33h4.33v4.33zm6.447 6.494H13.7v-4.33h4.327v4.33zm0-6.494H13.7v-4.33h4.327v4.33zm6.494 6.494h-4.328v-4.33h4.33v4.33zm0-6.494h-4.328v-4.33h4.33v4.33zm.003-8.612H7.253v-4.33h17.27v4.33z"/></symbol><symbol viewBox="0 0 32 32" id="icon-chat"><path d="M25.6 4.8H6.4A3.21 3.21 0 0 0 3.2 8v11.2c0 1.76 1.44 3.2 3.2 3.2h6.4l6.4 4.8v-4.8h6.4c1.76 0 3.2-1.44 3.2-3.2V8c0-1.76-1.44-3.2-3.2-3.2z"/></symbol><symbol viewBox="0 0 32 32" id="icon-chats"><path d="M9.28 19.52V9.6H3.2A3.21 3.21 0 0 0 0 12.8v9.6c0 1.76 1.44 3.2 3.2 3.2h1.6v4.8l4.8-4.8h8c1.76 0 3.2-1.44 3.2-3.2v-2.912a1.53 1.53 0 0 1-.32.034H9.28zM28.8 1.6H14.4a3.21 3.21 0 0 0-3.2 3.2v12.8h11.2l4.8 4.8v-4.8h1.6c1.76 0 3.2-1.44 3.2-3.2V4.8c0-1.76-1.44-3.2-3.2-3.2z"/></symbol><symbol viewBox="0 0 32 32" id="icon-checkmark"><path d="M13.272 27.2a2.227 2.227 0 0 1-1.778-.885l-5.718-7.55a2.23 2.23 0 1 1 3.557-2.692l3.762 4.966 9.46-15.187a2.233 2.233 0 0 1 3.073-.714 2.228 2.228 0 0 1 .712 3.07L15.167 26.148a2.224 2.224 0 0 1-1.794 1.05c-.034.002-.067.002-.1.002z"/></symbol><symbol viewBox="0 0 32 32" id="icon-checkmark-circle"><path d="M16 0C7.175 0 .012 7.156.012 15.988S7.174 31.968 16 31.968s15.988-7.155 15.988-15.98S24.826 0 16 0zm8.2 9.894l-8.83 14.18a1.76 1.76 0 0 1-1.42.832h-.08c-.55 0-1.07-.256-1.407-.7l-4.52-5.97a1.757 1.757 0 0 1 .345-2.468 1.757 1.757 0 0 1 2.47.344l2.974 3.925 7.48-12.006A1.76 1.76 0 1 1 24.2 9.894z"/></symbol><symbol viewBox="0 0 32 32" id="icon-checkoff"><path d="M14 24l-7.044-9 3.056-3.044L13.987 17 30 1l2 2-18 21z"/><path d="M23.95 19.113v7.83H4.03V7.05h13.94L22.024 3H1.695C.787 3-.02 3.706-.02 4.712v24.575c0 .906.806 1.712 1.712 1.712h24.6c.906 0 1.712-.707 1.712-1.713v-14.9l-4.056 4.725z"/></symbol><symbol viewBox="0 0 32 32" id="icon-chevron-down"><path d="M26.285 13.305c-.764.784-8.807 8.447-8.807 8.447A2.062 2.062 0 0 1 16 22.38a2.05 2.05 0 0 1-1.478-.628s-8.044-7.663-8.81-8.447c-.762-.784-.815-2.193 0-3.03.82-.838 1.958-.903 2.957 0l7.33 7.03 7.33-7.03c1-.9 2.14-.836 2.955 0 .818.838.767 2.248 0 3.03z"/></symbol><symbol viewBox="0 0 32 32" id="icon-chevron-left"><path d="M18.695 5.713c-.784.765-8.445 8.81-8.445 8.81a2.058 2.058 0 0 0 0 2.955s7.66 8.044 8.445 8.807c.784.765 2.195.818 3.03 0 .836-.816.9-1.955 0-2.954L14.694 16l7.03-7.33c.9-1.003.836-2.14 0-2.957-.837-.816-2.248-.765-3.03 0z"/></symbol><symbol viewBox="0 0 32 32" id="icon-chevron-right"><path d="M13.305 5.713c.784.765 8.445 8.81 8.445 8.81a2.055 2.055 0 0 1 0 2.955s-7.66 8.044-8.445 8.807c-.784.765-2.193.818-3.03 0-.838-.816-.903-1.955 0-2.954l7.03-7.33-7.03-7.33c-.9-1.003-.836-2.14 0-2.957s2.248-.765 3.03 0z"/></symbol><symbol viewBox="0 0 32 32" id="icon-chevron-up"><path d="M26.285 18.696c-.764-.784-8.807-8.445-8.807-8.445a2.055 2.055 0 0 0-2.956 0s-8.044 7.662-8.81 8.446c-.762.784-.815 2.195 0 3.03.82.836 1.958.903 2.957 0L16 14.7l7.33 7.03c1 .9 2.14.834 2.955 0 .818-.84.767-2.25 0-3.032z"/></symbol><symbol viewBox="0 0 32 32" id="icon-clipboard"><path d="M26 4v24H6V4H2v24c0 2.2 1.8 4 4 4h20c2.2 0 4-1.8 4-4V4h-4zm-6 0V2c0-1.1-.9-2-2-2h-4c-1.1 0-2 .9-2 2v2H8v4h16V4h-4zm-2 0h-4V2h4v2z"/><path d="M13.5 24.7l-5.4-7.1 2.4-2.5 3 3.8 9.5-7.7 1.2 1.2-10.7 12.3z"/></symbol><symbol viewBox="0 0 32 32" id="icon-cog"><path d="M26.856 16c0-1.677 1.032-3 2.584-3.91a14.318 14.318 0 0 0-1.106-2.674c-1.744.456-3.154-.227-4.338-1.41-1.187-1.187-1.55-2.598-1.094-4.34a13.977 13.977 0 0 0-2.675-1.106c-.91 1.554-2.552 2.586-4.227 2.586s-3.317-1.032-4.227-2.586a14.01 14.01 0 0 0-2.675 1.106c.454 1.742.093 3.154-1.093 4.34C6.82 9.188 5.408 9.87 3.667 9.417a14.124 14.124 0 0 0-1.107 2.674c1.554.91 2.586 2.232 2.586 3.91 0 1.674-1.032 3.317-2.586 4.228.28.936.65 1.832 1.107 2.675 1.742-.456 3.152-.093 4.338 1.093s1.547 2.595 1.093 4.338c.843.456 1.74.83 2.675 1.107.91-1.555 2.552-2.586 4.227-2.586s3.32 1.032 4.23 2.586a14.08 14.08 0 0 0 2.674-1.107c-.456-1.742-.094-3.152 1.094-4.338 1.184-1.184 2.594-1.867 4.338-1.413a14.13 14.13 0 0 0 1.106-2.675C27.89 19 26.857 17.676 26.857 16zM16 21.845a5.845 5.845 0 1 1 .003-11.69A5.845 5.845 0 0 1 16 21.845z"/></symbol><symbol viewBox="0 0 32 32" id="icon-cross"><path d="M24.297 22.013L19.037 16l5.26-6.013c.895-.895.895-2.345 0-3.237s-2.345-.893-3.237 0L16 12.532l-5.056-5.78c-.895-.895-2.345-.895-3.237 0s-.893 2.345 0 3.237l5.26 6.01-5.26 6.013a2.287 2.287 0 1 0 3.236 3.234l5.06-5.778 5.056 5.778a2.288 2.288 0 1 0 3.238-3.234z"/></symbol><symbol viewBox="0 0 32 32" id="icon-cross-circle"><path d="M16 2.56C8.576 2.56 2.56 8.58 2.56 16c0 7.424 6.018 13.44 13.44 13.44S29.44 23.422 29.44 16 23.422 2.56 16 2.56zM18.766 16l4.898 4.898-2.766 2.766L16 18.766l-4.898 4.898-2.765-2.766L13.233 16l-4.896-4.896 2.765-2.766L16 13.234l4.898-4.896 2.766 2.765L18.766 16z"/></symbol><symbol viewBox="0 0 32 32" id="icon-delete"><path d="M6 32h20l2-22H4zM20 4V0h-8v4H2v6l2-2h24l2 2V4H20zm-2 0h-4V2h4v2z"/></symbol><symbol viewBox="0 0 32 32" id="icon-dismiss"><path d="M16 32C7.164 32 0 24.836 0 16S7.164 0 16 0s16 7.163 16 16c0 8.836-7.164 16-16 16zM4 16c0 2.582.832 4.957 2.22 6.916L22.917 6.22A11.914 11.914 0 0 0 16 4C9.373 4 4 9.373 4 16zm21.78-6.916L9.083 25.78A11.913 11.913 0 0 0 16 28c6.627 0 12-5.373 12-12 0-2.582-.832-4.958-2.22-6.916z"/></symbol><symbol viewBox="0 0 32 32" id="icon-doc"><path d="M28.232 6.232l-4.465-4.464C22.795.796 20.874 0 19.5 0h-15A2.507 2.507 0 0 0 2 2.5v27C2 30.875 3.123 32 4.5 32h23c1.374 0 2.5-1.125 2.5-2.5v-19c0-1.375-.797-3.296-1.77-4.268zm-1.414 1.414c.098.098.195.218.29.354H22V2.892c.136.095.256.192.354.29l4.465 4.464zM28 29.5c0 .27-.23.5-.5.5h-23a.507.507 0 0 1-.5-.5v-27c0-.27.23-.5.5-.5h15c.15 0 .32.02.5.053V10h7.947c.034.18.053.35.053.5v19z"/></symbol><symbol viewBox="0 0 32 32" id="icon-edit"><path d="M27 0a5 5 0 0 1 4 8l-2 2-7-7 2-2c.836-.628 1.874-1 3-1zM2 23l-2 9 9-2 18.5-18.5-7-7L2 23zm20.362-11.638l-14 14-1.724-1.724 14-14 1.724 1.724z"/></symbol><symbol viewBox="0 0 32 32" id="icon-ellipsis"><path d="M4.8 12.48a3.52 3.52 0 1 0 0 7.04 3.52 3.52 0 0 0 0-7.04zm11.2 0a3.52 3.52 0 1 0 0 7.04 3.52 3.52 0 0 0 0-7.04zm11.2 0a3.52 3.52 0 1 0 0 7.04 3.52 3.52 0 0 0 0-7.04z"/></symbol><symbol viewBox="0 0 32 32" id="icon-envelope"><path d="M29 4H3a3 3 0 0 0-3 3v18a3 3 0 0 0 3 3h26a3 3 0 0 0 3-3V7a3 3 0 0 0-3-3zM2.74 25.99l-.73-.732 8.25-8.248.73.732-8.25 8.248zm26.52 0l-8.25-8.248.73-.732 8.25 8.248-.73.732zM17 19.325V20h-2v-.675L2.003 7.275l1.272-1.272L16 17.8 28.725 6.004l1.272 1.272L17 19.325z"/></symbol><symbol viewBox="0 0 32 32" id="icon-export"><path d="M24 25.28H3.2v-14.4h4.15s1.1-1.43 3.475-3.2H1.6c-.88 0-1.6.72-1.6 1.6v17.6a1.6 1.6 0 0 0 1.6 1.6h24c.887 0 1.6-.71 1.6-1.6v-5.993l-3.2 2.63v1.763zm-2.62-11.118v5.68L32 11.52l-10.62-8v5.006c-12.9 0-12.9 12.75-12.9 12.75 3.65-5.994 5.895-7.113 12.9-7.113z"/></symbol><symbol viewBox="0 0 32 32" id="icon-external-link"><path d="M6 2v24h24V2H6zm22 22H8V4h20v20zM4 28V8L2 6v24h24l-2-2zm9.414-6.586l6-6L24 20V8H12l4.586 4.586-6 6z"/></symbol><symbol viewBox="0 0 28 28" id="icon-facebook"><path d="M20.984.187v4.125H18.53q-1.343 0-1.812.562t-.47 1.687v2.954h4.58l-.61 4.625h-3.97v11.858h-4.78v-11.86H7.484V9.515h3.984V6.108q0-2.906 1.625-4.508T17.42-.002q2.298 0 3.564.187z"/></symbol><symbol viewBox="0 0 32 32" id="icon-filter"><path d="M14 4v-.5c0-.825-.675-1.5-1.5-1.5h-5C6.675 2 6 2.675 6 3.5V4H0v4h6v.5c0 .825.675 1.5 1.5 1.5h5c.825 0 1.5-.675 1.5-1.5V8h18V4H14zM8 8V4h4v4H8zm18 5.5c0-.825-.675-1.5-1.5-1.5h-5c-.825 0-1.5.675-1.5 1.5v.5H0v4h18v.5c0 .825.675 1.5 1.5 1.5h5c.825 0 1.5-.675 1.5-1.5V18h6v-4h-6v-.5zM20 18v-4h4v4h-4zm-6 5.5c0-.825-.675-1.5-1.5-1.5h-5c-.825 0-1.5.675-1.5 1.5v.5H0v4h6v.5c0 .825.675 1.5 1.5 1.5h5c.825 0 1.5-.675 1.5-1.5V28h18v-4H14v-.5zM8 28v-4h4v4H8z"/></symbol><symbol viewBox="0 0 22 28" id="icon-filter2"><path d="M.078 4.61Q.344 4 1 4h20q.656 0 .922.61.266.64-.22 1.093L14 13.406V25q0 .656-.61.922Q13.19 26 13 26q-.422 0-.703-.297l-4-4Q8 21.406 8 21v-7.594L.297 5.703Q-.187 5.25.077 4.61z"/></symbol><symbol viewBox="0 0 32 32" id="icon-flag"><path d="M26 5.385c2.39 0 4.534-1.3 6-2.285v18.615C30.534 22.7 28.39 24 26 24s-4.534-.708-6-1.692c-1.466-.984-3.61-1.692-6-1.692s-4.534 1.216-6 2.2V4.2C9.466 3.218 11.61 2 14 2s4.534.71 6 1.693c1.466.984 3.61 1.692 6 1.692zM4 0a2 2 0 0 1 2 2v30H2V2a2 2 0 0 1 2-2z"/></symbol><symbol viewBox="0 0 20 20" id="icon-graph"><path d="M19.488 2.387l-4.63 7.54a.47.47 0 0 1-.747.102l-2.237-2.097a.49.49 0 0 0-.766.09l-3.143 4.74a.498.498 0 0 1-.77.096L5.73 11.522a.555.555 0 0 0-.814.063l-4.61 5.748c-.205.257-.104.466.223.466H19.8V2.475c0-.33-.14-.37-.312-.088z"/></symbol><symbol viewBox="0 0 32 32" id="icon-heart"><path d="M29.51 4.49A8.5 8.5 0 0 0 16 6.497 8.5 8.5 0 1 0 2.487 16.51L15.998 30l13.51-13.49a8.5 8.5 0 0 0 0-12.02z"/></symbol><symbol viewBox="0 0 32 32" id="icon-info"><path d="M16 0C7.163 0 0 7.163 0 16s7.163 16 16 16 16-7.163 16-16S24.837 0 16 0zm0 29C8.82 29 3 23.18 3 16S8.82 3 16 3s13 5.82 13 13-5.82 13-13 13zM14 8h4v4h-4zm6 16h-8v-2h2v-6h-2v-2h6v8h2z"/></symbol><symbol viewBox="0 0 32 32" id="icon-info-circle"><path d="M16 0C7.163 0 0 7.163 0 16s7.163 16 16 16 16-7.163 16-16S24.837 0 16 0zm-2 6h4v4h-4V6zm6 20h-8v-2h2v-8h-2v-2h6v10h2v2z"/></symbol><symbol viewBox="0 0 32 32" id="icon-justify"><path d="M32 25v2.286q0 .464-.34.804t-.803.34H1.143q-.464 0-.804-.34T0 27.286V25q0-.464.34-.804t.803-.34h29.714q.464 0 .804.34T32 25zm0-6.857v2.286q0 .463-.34.803t-.803.34H1.143q-.464 0-.804-.34T0 20.43v-2.287q0-.464.34-.804t.803-.34h29.714q.464 0 .804.34t.34.803zm0-6.857v2.286q0 .464-.34.804t-.803.34H1.143q-.464 0-.804-.34T0 13.572v-2.286q0-.464.34-.804t.803-.34h29.714q.464 0 .804.34t.34.804zm0-6.857v2.285q0 .464-.34.804t-.803.338H1.143q-.464 0-.804-.34T0 6.716V4.43q0-.465.34-.805t.803-.34h29.714q.464 0 .804.34t.34.804z"/></symbol><symbol viewBox="0 0 32 32" id="icon-minus"><path d="M24.318 14.4H7.68c-.885 0-.96.717-.96 1.6s.075 1.6.96 1.6h16.638c.885 0 .962-.717.962-1.6s-.077-1.6-.962-1.6z"/></symbol><symbol viewBox="0 0 32 32" id="icon-minus-circle"><path d="M16 1.28C7.87 1.28 1.28 7.872 1.28 16c0 8.13 6.59 14.72 14.72 14.72S30.72 24.13 30.72 16 24.13 1.28 16 1.28zm8.85 12.93v3.583H7.15V14.21h17.7z"/></symbol><symbol viewBox="0 0 32 32" id="icon-paperclip"><path d="M18.56 2.722L3.776 20.04a2.59 2.59 0 0 0-.588 2.088l.815 5.125a1.326 1.326 0 0 0 1.31 1.12H10.5c.758 0 1.478-.333 1.97-.91L28.434 8.77a1.28 1.28 0 0 0-.143-1.806l-3.32-2.834a1.282 1.282 0 0 0-1.805.142L11.358 18.1c-.257.3-.15.586-.058 1.206.05.338.342.587.683.583.635-.007.927.05 1.182-.248l8.116-9.503 2.328 1.986-8.4 9.835a2.41 2.41 0 0 1-1.802.846h-3.15c-.8.01-1.486-.538-1.602-1.33l-.457-3.117c-.1-.69.1-1.386.552-1.915l12.346-14.46a3.946 3.946 0 0 1 5.563-.44l3.918 3.347a3.946 3.946 0 0 1 .44 5.564l-16.61 19.45a4.253 4.253 0 0 1-3.24 1.493H4.245a3.11 3.11 0 0 1-3.064-2.622l-1.09-6.835a4.258 4.258 0 0 1 .967-3.435L16.233.735l2.327 1.987z"/></symbol><symbol viewBox="0 0 20 20" id="icon-pause"><path d="M13.5 3c-.994 0-1.8.306-1.8 1.3v11.4c0 .994.806 1.3 1.8 1.3s1.8-.306 1.8-1.3V4.3c0-.994-.806-1.3-1.8-1.3zm-7 0c-.994 0-1.8.306-1.8 1.3v11.4c0 .994.806 1.3 1.8 1.3s1.8-.306 1.8-1.3V4.3c0-.994-.806-1.3-1.8-1.3z"/></symbol><symbol viewBox="0 0 32 32" id="icon-phone"><path d="M1.964 11.482C7.348 27.052 20.13 30.198 22.09 30.344c4.695.507 7.72-2.508 8.31-7.065 0 0-4.754-3.1-7.12-3.608l-3.753 3.84s-2.014.09-6.427-4.428c-4.414-4.523-4.33-6.587-4.33-6.587l3.226-3.3c-.54-3.353-2.43-8.64-6.133-7.417C2.223 2.952.877 8.218 1.96 11.482z"/></symbol><symbol viewBox="0 0 20 20" id="icon-play"><path d="M16.698 9.487l-8.56-5.304c-.625-.41-1.135-.107-1.135.67V15.15c0 .776.51 1.077 1.134.668l8.562-5.304s.303-.214.303-.514-.305-.513-.305-.513z"/></symbol><symbol viewBox="0 0 32 32" id="icon-plus"><path d="M24.318 14.4h-6.72V7.68c0-.883-.715-.96-1.6-.96-.883 0-1.6.075-1.6.96v6.72H7.68c-.885 0-.96.717-.96 1.6s.075 1.6.96 1.6h6.718v6.72c0 .883.717.96 1.6.96.885 0 1.6-.077 1.6-.96V17.6h6.72c.885 0 .962-.717.962-1.6s-.077-1.6-.962-1.6z"/></symbol><symbol viewBox="0 0 32 32" id="icon-plus-circle"><path d="M16 .96C7.692.96.96 7.696.96 16c0 8.308 6.734 15.04 15.04 15.04S31.04 24.306 31.04 16 24.306.96 16 .96zm1.83 16.87v7.21h-3.66v-7.21H6.958v-3.66h7.21V6.958h3.662v7.21h7.21v3.662h-7.21z"/></symbol><symbol viewBox="0 0 32 32" id="icon-printer"><path d="M8 2h16v4H8zm22 6H2c-1.1 0-2 .9-2 2v10c0 1.1.9 2 2 2h6v8h16v-8h6c1.1 0 2-.9 2-2V10c0-1.1-.9-2-2-2zm-8 20H10V18h12v10zm8.45-17a1.45 1.45 0 1 1-2.9 0 1.45 1.45 0 0 1 2.9 0z"/></symbol><symbol viewBox="0 0 32 32" id="icon-question"><path d="M15.97 0c-8.836 0-16 7.163-16 16s7.164 16 16 16 16-7.163 16-16-7.162-16-16-16zm0 29c-7.18 0-13-5.82-13-13s5.82-13 13-13 13 5.82 13 13-5.82 13-13 13z"/><path d="M17.853 20.81v3.094c0 .138-.05.258-.154.36s-.224.155-.362.155h-3.093c-.138 0-.258-.052-.36-.155s-.155-.223-.155-.36V20.81c0-.137.05-.257.154-.36s.223-.154.36-.154h3.094c.138 0 .258.05.36.154a.497.497 0 0 1 .155.36zm4.072-7.73c0 .463-.067.897-.2 1.3s-.284.734-.45.987-.405.51-.71.767a6.536 6.536 0 0 1-.74.56c-.19.116-.452.27-.787.46-.352.197-.646.476-.883.837s-.354.65-.354.864c0 .146-.05.286-.153.42s-.223.198-.36.2h-3.094c-.13 0-.238-.08-.328-.24s-.135-.32-.136-.482v-.58c0-.713.278-1.385.837-2.017s1.173-1.098 1.843-1.398c.507-.232.868-.472 1.082-.722s.322-.576.322-.98c0-.36-.2-.678-.6-.952a2.38 2.38 0 0 0-1.384-.412c-.56 0-1.023.126-1.392.375-.3.215-.76.71-1.38 1.482a.5.5 0 0 1-.4.206.614.614 0 0 1-.32-.103l-2.115-1.61c-.112-.087-.178-.194-.2-.323s.002-.25.07-.36c1.375-2.286 3.37-3.43 5.98-3.43.687 0 1.38.134 2.075.4s1.323.624 1.88 1.07c.56.446 1.015.994 1.367 1.643s.528 1.33.528 2.042l.002-.003z"/></symbol><symbol viewBox="0 0 32 32" id="icon-question-circle"><path d="M15.978 0C7.15 0-.007 7.157-.007 15.985S7.15 31.97 15.978 31.97s15.985-7.157 15.985-15.985S24.806 0 15.978 0zm1.883 23.904c0 .138-.05.258-.153.36s-.223.155-.36.155h-3.094c-.138 0-.258-.052-.36-.155s-.155-.223-.155-.36V20.81c0-.137.05-.257.154-.36s.223-.154.36-.154h3.094c.138 0 .258.05.36.154a.497.497 0 0 1 .155.36v3.094zm3.873-9.523c-.133.405-.284.734-.45.987s-.405.51-.71.767a6.536 6.536 0 0 1-.74.56c-.19.116-.452.27-.787.46-.352.197-.646.476-.883.837s-.354.65-.354.864c0 .146-.052.286-.155.42s-.223.198-.36.2H14.2c-.128 0-.237-.08-.327-.24s-.135-.32-.136-.482v-.58c0-.713.28-1.385.838-2.017s1.173-1.098 1.843-1.398c.507-.232.868-.472 1.082-.722s.322-.576.322-.98c0-.36-.2-.678-.6-.952a2.38 2.38 0 0 0-1.384-.412c-.56 0-1.023.126-1.392.375-.3.215-.76.71-1.38 1.482a.5.5 0 0 1-.4.206.614.614 0 0 1-.32-.103l-2.115-1.61c-.11-.087-.177-.194-.2-.323s.003-.25.072-.36c1.374-2.286 3.368-3.43 5.98-3.43.686 0 1.378.134 2.074.4s1.323.624 1.88 1.07c.56.446 1.015.994 1.367 1.643s.528 1.33.528 2.042l.003-.003c0 .463-.067.897-.2 1.3z"/></symbol><symbol viewBox="0 0 32 32" id="icon-refresh"><path d="M8.826 22.758c-3.62-3.893-3.555-9.992.203-13.778a9.736 9.736 0 0 1 5.46-2.778l-.11-3.323a12.995 12.995 0 0 0-7.674 3.76c-5.038 5.074-5.098 13.263-.197 18.45l-2.787 2.805 8.816.482-.025-9.334-3.69 3.715zM19.46 3.624l.023 9.334 3.69-3.717c3.62 3.894 3.558 9.993-.202 13.78a9.73 9.73 0 0 1-5.463 2.777l.11 3.322a12.986 12.986 0 0 0 7.677-3.763c5.037-5.074 5.1-13.264.195-18.45l2.785-2.805-8.816-.478z"/></symbol><symbol viewBox="0 0 20 20" id="icon-schedule"><path d="M17 3h-.9v2h-3.2V3H7.1v2H3.9V3H3c-1.1 0-2 .9-2 2v12c0 1.1.9 2 2 2h14c1.1 0 2-.9 2-2V5c0-1.1-.9-2-2-2zm0 14H3V9h14v8zM6.2 1H4.8v3.4h1.4V1zm9 0h-1.4v3.4h1.4V1z"/></symbol><symbol viewBox="0 0 32 32" id="icon-search"><path d="M31.008 27.23l-7.58-6.446c-.784-.705-1.622-1.03-2.3-.998A11.954 11.954 0 0 0 24 12C24 5.37 18.627 0 12 0S0 5.37 0 12s5.374 12 12 12c2.973 0 5.692-1.082 7.788-2.87-.03.676.293 1.514.998 2.298l6.447 7.58c1.105 1.226 2.908 1.33 4.008.23s.997-2.903-.23-4.007zM12 20a8 8 0 1 1 0-16 8 8 0 0 1 0 16z"/></symbol><symbol viewBox="0 0 32 32" id="icon-sms"><path d="M14.975 12.963c0-.5-.113-.97-.306-1.394-.964-1.2-1.526-2.663-1.526-4.25 0-4.045 3.687-7.32 8.23-7.32s8.24 3.275 8.24 7.32c0 4.043-3.69 7.318-8.24 7.318a9.183 9.183 0 0 1-2.368-.306 6.8 6.8 0 0 1-5.87 2.062v-.456a3.347 3.347 0 0 0 1.838-2.975z"/><path d="M19.578 16.306a8.656 8.656 0 0 1-2.05 1.25v8.756H4.965V6.562h6.425a8.52 8.52 0 0 1 1.363-3.888H5.565A3.002 3.002 0 0 0 2.57 5.668v23.337A3.002 3.002 0 0 0 5.566 32h11.37a3.006 3.006 0 0 0 2.993-2.995v-12.65c-.12-.02-.23-.03-.35-.05zm-8.33 14.5c-1.157 0-2.095-.67-2.095-1.494s.938-1.494 2.094-1.494 2.094.67 2.094 1.494-.937 1.494-2.093 1.494z"/></symbol><symbol viewBox="0 0 32 32" id="icon-sort"><path d="M26 22V0h-4v22h-6l8 8 8-8zm6 8H16v2h16zM16 10L8 2l-8 8h6v22h4V10zm0-10H0v2h16z"/></symbol><symbol viewBox="0 0 32 32" id="icon-star"><path d="M16 6.848L18.324 14h7.52l-6.083 4.42 2.325 7.153L16 21.153l-6.083 4.42 2.324-7.152L6.158 14h7.52l2.325-7.153zm0-6.472L12.223 12H0l9.89 7.185L6.11 30.81l9.89-7.184 9.888 7.184-3.777-11.625L32.003 12H19.778L16 .377z"/></symbol><symbol viewBox="0 0 32 32" id="icon-star2"><path d="M32 12H19.777L16 .375 12.223 12H0l9.89 7.185L6.11 30.81l9.89-7.184 9.888 7.184-3.777-11.625z"/></symbol><symbol viewBox="0 0 20 20" id="icon-stop"><path d="M14.5 4h-9C4.506 4 4 4.306 4 5.3v9.4c0 .994.506 1.3 1.5 1.3h9c.994 0 1.5-.306 1.5-1.3V5.3c0-.994-.506-1.3-1.5-1.3z"/></symbol><symbol viewBox="0 0 32 32" id="icon-table"><path d="M0 2v28h32V2H0zm12 18v-6h8v6h-8zm8 2v6h-8v-6h8zm0-16v6h-8V6h8zM10 6v6H2V6h8zm-8 8h8v6H2v-6zm20 0h8v6h-8v-6zm0-2V6h8v6h-8zM2 22h8v6H2v-6zm20 6v-6h8v6h-8z"/></symbol><symbol viewBox="0 0 32 32" id="icon-tag"><path d="M14.063.8L8.257 6.606C7.194 7.67 6.32 9.776 6.32 11.276v17.987A2.744 2.744 0 0 0 9.055 32h13.88a2.745 2.745 0 0 0 2.74-2.738V11.274c0-1.506-.87-3.606-1.94-4.67L17.937.8a2.742 2.742 0 0 0-3.874 0zm3.868 9.006c-1.068 1.07-2.793 1.07-3.862 0s-1.07-2.794 0-3.862 2.794-1.07 3.863 0a2.726 2.726 0 0 1 0 3.862z"/></symbol><symbol viewBox="0 0 20 20" id="icon-transfer"><path d="M14 5.2H4v-2L0 6.6l4 3.2V8h10V5.2zm6 8.4l-4-3.4v2H6V15h10v1.8l4-3.2z"/></symbol><symbol viewBox="0 0 20 20" id="icon-up-down"><path d="M10 0L5.4 7.3h9.2L10 0zm0 20l4.6-7.3H5.4L10 20z"/></symbol><symbol viewBox="0 0 32 32" id="icon-user"><path d="M23.712 23.117c-3.944-1.437-5.205-2.65-5.205-5.246 0-1.557 1.205-1.05 1.733-3.903.22-1.184 1.283-.02 1.488-2.722 0-1.077-.58-1.346-.58-1.346s.295-1.596.41-2.822c.14-1.53-.883-5.478-6.358-5.478-5.474 0-6.5 3.95-6.357 5.478.115 1.226.41 2.82.41 2.82s-.58.268-.58 1.347c.202 2.702 1.266 1.538 1.485 2.722.53 2.854 1.734 2.346 1.734 3.904 0 2.598-1.26 3.81-5.205 5.247C2.73 24.557.16 26.027.16 27.03v3.37h30.08v-3.37c0-1-2.572-2.47-6.53-3.913z"/></symbol><symbol viewBox="0 0 32 32" id="icon-user-add"><path d="M19.803 23.117c-3.986-1.437-5.26-2.65-5.26-5.246 0-1.557 1.22-1.05 1.753-3.903.222-1.184 1.298-.02 1.5-2.722 0-1.077-.585-1.346-.585-1.346s.3-1.596.415-2.822C17.77 5.548 16.732 1.6 11.2 1.6S4.63 5.55 4.772 7.078c.117 1.227.416 2.82.416 2.82s-.588.268-.588 1.347c.206 2.702 1.282 1.538 1.5 2.722.537 2.854 1.755 2.346 1.755 3.904 0 2.598-1.275 3.81-5.26 5.247-.48.17-1.625.44-2.598.86V30.4h25.6v-3.368c0-1.002-1.798-2.474-5.798-3.915zM27.2 14.4V9.6H24v4.8h-4.8v3.2H24v4.8h3.2v-4.8H32v-3.2h-4.8z"/></symbol><symbol viewBox="0 0 32 32" id="icon-users"><path d="M22.97 23.568c-.593-.093-.607-1.708-.607-1.708s1.74-1.708 2.12-4.005c1.02 0 1.65-2.442.63-3.3.042-.905 1.31-7.1-5.113-7.1s-5.155 6.195-5.112 7.1c-1.02.858-.39 3.3.63 3.3.38 2.297 2.12 4.005 2.12 4.005s-.014 1.615-.606 1.708C15.124 23.868 8 26.984 8 30.4h24c0-3.416-7.124-6.53-9.03-6.832zm-12.218.545c1.378-.848 3.05-1.635 4.423-2.107-.492-.7-1.04-1.654-1.385-2.783-.48-.393-.873-.954-1.125-1.644a4.907 4.907 0 0 1-.27-2.18c.057-.51.203-.99.428-1.408-.136-1.456-.232-4.314 1.64-6.398.724-.808 1.64-1.39 2.74-1.74-.196-2.024-1.224-4.4-5.202-4.4-6.423 0-5.154 6.196-5.11 7.1-1.02.86-.39 3.3.63 3.3.378 2.298 2.12 4.006 2.12 4.006s-.015 1.615-.607 1.708c-1.908.3-9.03 3.416-9.03 6.832h10.3c.146-.096.296-.192.45-.287z"/></symbol><symbol viewBox="0 0 32 32" id="icon-warning"><path d="M31.22 28.77L16.965 3.76c-.197-.345-.566-.557-.966-.557s-.768.213-.966.558L.784 28.77c-.195.34-.19.755.007 1.09s.564.543.958.543h28.504c.39 0 .757-.206.957-.542.197-.335.2-.75.01-1.09zm-13.46-1.567h-3.52v-3.2h3.52v3.2zm0-5.6h-3.52v-9.6h3.52v9.6z"/></symbol></svg>