<svg xmlns="http://www.w3.org/2000/svg" width="32" height="32" viewBox="0 0 32 32"><path d="M29.781 23.688c-2.313-2.403-2.817-5.958-3.305-9.396-.723-5.096-1.537-10.823-8.801-11.572v-.923a1.677 1.677 0 0 0-3.354 0v.924c-7.204.755-8.012 6.48-8.728 11.573-.484 3.439-.984 6.995-3.278 9.399a1.677 1.677 0 0 0 1.213 2.834h7.024c.038 2.972 2.464 5.379 5.446 5.379s5.408-2.407 5.446-5.379h7.129a1.677 1.677 0 0 0 1.208-2.839zm-13.783 4.865a2.095 2.095 0 0 1-2.089-2.026h4.178a2.095 2.095 0 0 1-2.089 2.026zm0-5.379H6.74c1.365-2.661 1.788-5.67 2.174-8.413.833-5.924 1.482-8.772 7.084-8.772 5.663 0 6.318 2.848 7.158 8.774.389 2.742.815 5.75 2.19 8.411h-9.348z"/></svg>