<svg xmlns="http://www.w3.org/2000/svg" width="32" height="32" viewBox="0 0 32 32"><path d="M24.658 1.884H7.341a4.329 4.329 0 0 0-4.329 4.329v19.48a4.328 4.328 0 0 0 4.329 4.329h17.317a4.328 4.328 0 0 0 4.329-4.329V6.213a4.329 4.329 0 0 0-4.329-4.329zM11.58 25.694H7.251v-4.329h4.329v4.329zm0-6.494H7.251v-4.329h4.329V19.2zm6.447 6.494h-4.328v-4.329h4.328v4.329zm0-6.494h-4.328v-4.329h4.328V19.2zm6.494 6.494h-4.329v-4.329h4.329v4.329zm0-6.494h-4.329v-4.329h4.329V19.2zm.002-8.612H7.252V6.259h17.271v4.329z"/></svg>