<svg width="24" height="24" viewBox="0 0 24 24" xmlns="http://www.w3.org/2000/svg"><title>camera</title><path d="M12 10a2.89 2.89 0 0 1 2.12.88A2.89 2.89 0 0 1 15 13a2.89 2.89 0 0 1-.88 2.12A2.89 2.89 0 0 1 12 16a2.89 2.89 0 0 1-2.12-.88A2.89 2.89 0 0 1 9 13c0-.826.293-1.533.88-2.12A2.89 2.89 0 0 1 12 10zm7.333-4.333c.736 0 1.365.26 1.886.78.52.522.781 1.15.781 1.886v9.334a2.57 2.57 0 0 1-.781 1.885 2.57 2.57 0 0 1-1.886.781H4.667a2.57 2.57 0 0 1-1.886-.78A2.57 2.57 0 0 1 2 17.666V8.333c0-.736.26-1.364.781-1.885a2.57 2.57 0 0 1 1.886-.781H7l.531-1.417c.132-.34.374-.634.724-.88.35-.247.71-.37 1.078-.37h5.334c.368 0 .727.123 1.078.37.35.246.592.54.724.88L17 5.667h2.333zm-7.333 12c1.285 0 2.384-.457 3.297-1.37.913-.913 1.37-2.012 1.37-3.297 0-1.285-.457-2.384-1.37-3.297-.913-.913-2.012-1.37-3.297-1.37-1.285 0-2.384.457-3.297 1.37-.913.913-1.37 2.012-1.37 3.297 0 1.285.457 2.384 1.37 3.297.913.913 2.012 1.37 3.297 1.37z" fill-rule="evenodd"/></svg>