<svg xmlns="http://www.w3.org/2000/svg" width="32" height="32" viewBox="0 0 32 32"><path d="M26.856 16c0-1.677 1.032-3 2.584-3.909a14.318 14.318 0 0 0-1.106-2.675c-1.744.456-3.154-.227-4.338-1.411-1.187-1.186-1.55-2.597-1.094-4.338a13.977 13.977 0 0 0-2.675-1.107C19.318 4.114 17.675 5.146 16 5.146s-3.317-1.032-4.227-2.586c-.938.278-1.832.651-2.675 1.106.454 1.742.093 3.154-1.093 4.339-1.186 1.184-2.597 1.867-4.338 1.413a14.124 14.124 0 0 0-1.107 2.674c1.554.909 2.586 2.232 2.586 3.909 0 1.675-1.032 3.318-2.586 4.229.28.936.651 1.832 1.107 2.675 1.742-.456 3.152-.093 4.338 1.093s1.547 2.595 1.093 4.338c.843.456 1.739.829 2.675 1.107.91-1.555 2.552-2.586 4.227-2.586s3.32 1.032 4.229 2.586c.938-.28 1.832-.651 2.675-1.107-.456-1.742-.094-3.152 1.094-4.338 1.184-1.184 2.594-1.867 4.338-1.413a14.13 14.13 0 0 0 1.106-2.675c-1.553-.91-2.585-2.234-2.585-3.909zM16 21.845a5.845 5.845 0 1 1 .003-11.69A5.845 5.845 0 0 1 16 21.846z"/></svg>