<svg width="24" height="24" viewBox="0 0 24 24" xmlns="http://www.w3.org/2000/svg"><title>compose</title><path d="M15 2H1.991A1.99 1.99 0 0 0 0 3.991V22.01A1.99 1.99 0 0 0 1.991 24H20.01A1.99 1.99 0 0 0 22 22.009V9.333l-2 2.334v9.868a.464.464 0 0 1-.465.465H2.465A.464.464 0 0 1 2 21.535V4.465C2 4.208 2.207 4 2.465 4H13l2-2zM5.725 18.274l2.648-.762-1.809-1.926-.839 2.688zM21.487 6.085L9.3 18.276 4 20l1.723-5.303v-.002L17.91 2.504l.157.158 3.42 3.423zm1.371-1.372l-.196.196-3.579-3.58.196-.196S20.136 0 21.354 0c.537 0 1.145.22 1.781.856 2.096 2.097-.277 3.857-.277 3.857z" fill-rule="evenodd"/></svg>