<svg width="24" height="24" viewBox="0 0 24 24" xmlns="http://www.w3.org/2000/svg"><title>info-circle</title><path d="M12 0C5.373 0 0 5.372 0 12s5.372 12 12 12c6.627 0 12-5.372 12-12S18.627 0 12 0zm1.12 4.332c1.17 0 1.514.679 1.514 1.455 0 .969-.775 1.865-2.098 1.865-1.108 0-1.635-.556-1.603-1.477 0-.777.649-1.843 2.188-1.843zm-2.997 14.855c-.8 0-1.383-.487-.825-2.618l.916-3.78c.16-.606.185-.848 0-.848-.238 0-1.277.417-1.89.83l-.398-.654c1.943-1.624 4.178-2.576 5.135-2.576.8 0 .932.945.533 2.4l-1.05 3.974c-.186.703-.106.945.08.945.24 0 1.025-.29 1.798-.898l.452.607c-1.89 1.89-3.952 2.618-4.75 2.618z"/></svg>