<svg xmlns="http://www.w3.org/2000/svg" width="32" height="32" viewBox="0 0 32 32"><path d="M32 25v2.286q0 .464-.339.804t-.804.339H1.143q-.464 0-.804-.339T0 27.286V25q0-.464.339-.804t.804-.339h29.714q.464 0 .804.339T32 25zm0-6.857v2.286q0 .464-.339.804t-.804.339H1.143q-.464 0-.804-.339T0 20.429v-2.286q0-.464.339-.804T1.143 17h29.714q.464 0 .804.339t.339.804zm0-6.857v2.286q0 .464-.339.804t-.804.339H1.143q-.464 0-.804-.339T0 13.572v-2.286q0-.464.339-.804t.804-.339h29.714q.464 0 .804.339t.339.804zm0-6.857v2.286q0 .464-.339.804t-.804.339H1.143q-.464 0-.804-.339T0 6.715V4.429q0-.464.339-.804t.804-.339h29.714q.464 0 .804.339t.339.804z"/></svg>