<svg width="24" height="24" viewBox="0 0 24 24" xmlns="http://www.w3.org/2000/svg"><title>logo-twitter</title><path d="M21.174 5.08a4.95 4.95 0 0 0 2.165-2.724 9.9 9.9 0 0 1-3.126 1.195A4.923 4.923 0 0 0 16.62 2a4.92 4.92 0 0 0-4.921 4.92c0 .385.042.76.126 1.121A13.972 13.972 0 0 1 1.678 2.895a4.922 4.922 0 0 0-.666 2.475c0 1.706.867 3.215 2.189 4.096a4.928 4.928 0 0 1-2.23-.614v.06a4.923 4.923 0 0 0 3.95 4.828 4.931 4.931 0 0 1-2.226.084 4.938 4.938 0 0 0 4.597 3.421A9.873 9.873 0 0 1 0 19.285a13.925 13.925 0 0 0 7.55 2.211c9.055 0 14.008-7.503 14.008-14.008 0-.216-.004-.426-.014-.637A9.91 9.91 0 0 0 24 4.306a9.71 9.71 0 0 1-2.826.773z"/></svg>