<svg xmlns="http://www.w3.org/2000/svg" width="32" height="32" viewBox="0 0 32 32"><path d="M18.561 2.722L3.775 20.04a2.59 2.59 0 0 0-.588 2.088l.815 5.125a1.326 1.326 0 0 0 1.31 1.119H10.5c.758 0 1.478-.332 1.971-.908L28.433 8.768a1.281 1.281 0 0 0-.143-1.806l-3.319-2.834a1.282 1.282 0 0 0-1.806.142L11.358 18.1c-.257.3-.15.586-.058 1.206.05.338.342.587.683.583.635-.006.927.052 1.182-.247l8.116-9.503 2.327 1.987-8.399 9.835a2.41 2.41 0 0 1-1.803.845h-3.149c-.802.01-1.487-.538-1.603-1.331l-.457-3.116c-.101-.688.1-1.385.552-1.914l12.347-14.46a3.946 3.946 0 0 1 5.563-.439l3.919 3.346a3.946 3.946 0 0 1 .439 5.564l-16.609 19.45a4.253 4.253 0 0 1-3.241 1.493H4.246a3.109 3.109 0 0 1-3.064-2.621l-1.09-6.835a4.258 4.258 0 0 1 .967-3.435L16.234.735l2.327 1.987z"/></svg>