<svg width="24" height="24" viewBox="0 0 24 24" xmlns="http://www.w3.org/2000/svg"><path d="M5.538 21.308h12.924v-3.693H5.538v3.693zm0-9.231h12.924V6.538h-2.308c-.385 0-.712-.134-.98-.403a1.335 1.335 0 0 1-.405-.981V2.846H5.54v9.23zM22.154 13a.887.887 0 0 0-.274-.649.887.887 0 0 0-.65-.274.887.887 0 0 0-.648.274.887.887 0 0 0-.274.649c0 .25.091.466.274.649a.887.887 0 0 0 .649.274c.25 0 .466-.091.649-.274a.887.887 0 0 0 .274-.649zM24 13v6a.444.444 0 0 1-.137.325.444.444 0 0 1-.325.137h-3.23v2.307c0 .385-.135.712-.404.981-.27.27-.596.404-.98.404H5.076c-.385 0-.712-.135-.98-.404a1.335 1.335 0 0 1-.405-.98v-2.308H.462a.444.444 0 0 1-.325-.137A.444.444 0 0 1 0 19v-6c0-.76.272-1.411.815-1.954a2.666 2.666 0 0 1 1.954-.815h.923V2.385c0-.385.135-.712.404-.981.27-.27.596-.404.98-.404h9.693c.385 0 .808.096 1.27.288.461.193.826.424 1.096.693l2.192 2.192c.27.27.5.635.692 1.096.193.462.289.885.289 1.27v3.692h.923c.76 0 1.41.271 1.954.815.543.543.815 1.194.815 1.954z"/></svg>