<svg xmlns="http://www.w3.org/2000/svg" width="32" height="32" viewBox="0 0 32 32"><path d="M15.978 0C7.15 0-.007 7.157-.007 15.985S7.15 31.97 15.978 31.97s15.985-7.157 15.985-15.985S24.806 0 15.978 0zm1.883 23.904c0 .138-.051.258-.154.361s-.223.154-.361.154h-3.093c-.138 0-.258-.051-.361-.154s-.154-.223-.154-.361v-3.093c0-.138.051-.258.154-.361s.223-.154.361-.154h3.093c.138 0 .258.051.361.154a.497.497 0 0 1 .154.361v3.093zm3.872-9.523c-.133.404-.284.733-.451.986s-.404.509-.709.767a6.536 6.536 0 0 1-.741.561c-.189.115-.451.268-.786.458-.352.198-.646.477-.883.838s-.354.648-.354.863c0 .146-.051.286-.154.419s-.223.199-.361.2h-3.093c-.129 0-.238-.079-.328-.238s-.135-.32-.136-.483v-.58c0-.713.279-1.385.838-2.017s1.173-1.098 1.843-1.398c.507-.232.868-.472 1.082-.722s.322-.576.322-.979c0-.361-.2-.679-.599-.953a2.381 2.381 0 0 0-1.385-.412c-.559 0-1.023.125-1.392.374-.301.215-.76.709-1.379 1.482a.5.5 0 0 1-.4.206.614.614 0 0 1-.322-.103l-2.114-1.611c-.112-.086-.178-.193-.2-.322s.002-.249.071-.361c1.374-2.285 3.368-3.428 5.979-3.428.687 0 1.379.133 2.075.4s1.323.623 1.881 1.069c.559.446 1.014.994 1.366 1.643s.528 1.33.528 2.042l.002-.003c0 .464-.067.898-.2 1.302z"/></svg>