<svg width="24" height="24" viewBox="0 0 24 24" xmlns="http://www.w3.org/2000/svg"><title>question-circle</title><path d="M12 0C5.372 0 0 5.372 0 12s5.372 12 12 12c6.626 0 12-5.372 12-12.001C24 5.372 18.626 0 12 0zm-.189 18.999h-.063c-.978-.029-1.668-.75-1.64-1.714.028-.948.734-1.636 1.68-1.636l.057.002c1.005.029 1.688.743 1.659 1.734-.029.95-.723 1.614-1.693 1.614zm4.114-8.164c-.23.325-.735.732-1.373 1.229l-.702.483c-.385.3-.617.584-.704.86-.07.218-.102.277-.109.72v.113h-2.68l.007-.228c.034-.93.056-1.48.442-1.933.607-.71 1.944-1.573 2-1.609.193-.144.354-.308.474-.484.281-.389.405-.694.405-.991a1.94 1.94 0 0 0-.366-1.145c-.235-.332-.682-.497-1.327-.497-.64 0-1.078.202-1.34.62-.27.426-.406.875-.406 1.333v.115H7.482l.005-.12c.072-1.691.677-2.91 1.794-3.621.704-.451 1.58-.68 2.601-.68 1.335 0 2.466.325 3.353.965.901.649 1.358 1.621 1.358 2.889-.002.709-.226 1.375-.668 1.981z"/></svg>