<svg xmlns="http://www.w3.org/2000/svg" width="32" height="32" viewBox="0 0 32 32"><path d="M8.826 22.758c-3.619-3.893-3.555-9.992.203-13.778a9.736 9.736 0 0 1 5.462-2.778l-.11-3.323a12.995 12.995 0 0 0-7.675 3.76c-5.038 5.075-5.098 13.264-.197 18.451l-2.786 2.805 8.816.482-.024-9.334-3.69 3.715zM19.459 3.624l.024 9.334 3.691-3.717c3.619 3.893 3.557 9.992-.203 13.778a9.729 9.729 0 0 1-5.464 2.778l.11 3.322a12.986 12.986 0 0 0 7.677-3.762c5.037-5.074 5.099-13.264.195-18.45l2.786-2.805-8.816-.478z"/></svg>