<svg xmlns="http://www.w3.org/2000/svg" width="32" height="32" viewBox="0 0 32 32"><path d="M14.975 12.963c0-.5-.113-.969-.306-1.394-.963-1.2-1.525-2.662-1.525-4.25C13.144 3.275 16.831 0 21.375 0s8.238 3.275 8.238 7.319c0 4.044-3.688 7.319-8.238 7.319a9.183 9.183 0 0 1-2.369-.306 6.8 6.8 0 0 1-5.869 2.062v-.456a3.347 3.347 0 0 0 1.837-2.975z"/><path d="M19.578 16.306a8.656 8.656 0 0 1-2.05 1.25v8.756H4.965V6.562h6.425a8.519 8.519 0 0 1 1.363-3.888H5.565a3.002 3.002 0 0 0-2.994 2.994v23.337a3.002 3.002 0 0 0 2.994 2.994h11.369a3.006 3.006 0 0 0 2.994-2.994v-12.65c-.119-.019-.231-.031-.35-.05zm-8.331 14.5c-1.156 0-2.094-.669-2.094-1.494s.938-1.494 2.094-1.494 2.094.669 2.094 1.494-.938 1.494-2.094 1.494z"/></svg>