<svg xmlns="http://www.w3.org/2000/svg" xmlns:xlink="http://www.w3.org/1999/xlink"><symbol viewBox="0 0 24 24" id="add" xmlns="http://www.w3.org/2000/svg"><g class="aaicon-stroke" fill="none" fill-rule="evenodd" stroke-width="2" stroke-linecap="round" stroke-linejoin="round"><line x1="12" y1="1" x2="12" y2="23"/><line x1="1" y1="12" x2="23" y2="12"/></g></symbol><symbol viewBox="0 0 24 24" id="add-circle" xmlns="http://www.w3.org/2000/svg"><g class="abicon-stroke" fill="none" fill-rule="evenodd" stroke-width="2" transform="translate(1 1)" stroke-linecap="round" stroke-linejoin="round"><circle cx="11" cy="11" r="11"/><path d="M11 6.6v8.8M6.6 11h8.8"/></g></symbol><symbol viewBox="0 0 24 24" id="alert-triangle" xmlns="http://www.w3.org/2000/svg"><g class="acicon-stroke" stroke-width="2" fill="none" fill-rule="evenodd" transform="translate(1 3)"><path d="M9.29 1.86L.82 16a2 2 0 0 0 1.71 3h16.94a2 2 0 0 0 1.71-3L12.71 1.86a2 2 0 0 0-3.42 0zM11 7v4" stroke-linecap="round" stroke-linejoin="round"/><circle class="acicon-fill" fill="#000" cx="11" cy="15" r=".5"/></g></symbol><symbol viewBox="0 0 24 24" id="announce" xmlns="http://www.w3.org/2000/svg"><g class="adicon-stroke" fill="none" fill-rule="evenodd" stroke-width="2" transform="translate(1 3)"><path d="M6.6 11c0 2.2 0 5.133 3.667 6.6M19.8 9.533a2.2 2.2 0 1 0 0-4.4"/><path d="M7.333 11H2.2A2.2 2.2 0 0 1 0 8.8V5.867a2.2 2.2 0 0 1 2.2-2.2h6.6A20.167 20.167 0 0 0 19.8 0v14.667A18.48 18.48 0 0 0 8.8 11H7.333z"/></g></symbol><symbol viewBox="0 0 24 24" id="arrow-left" xmlns="http://www.w3.org/2000/svg"><g class="aeicon-stroke" fill="none" fill-rule="evenodd" stroke-width="2" transform="translate(1 4)" stroke-linecap="round" stroke-linejoin="round"><path d="M22 8.25H0"/><polyline points="8.25 16.5 0 8.25 8.25 0"/></g></symbol><symbol viewBox="0 0 24 24" id="arrow-right" xmlns="http://www.w3.org/2000/svg"><g class="aficon-stroke" fill="none" fill-rule="evenodd" stroke-width="2" transform="translate(1 4)" stroke-linecap="round" stroke-linejoin="round"><path d="M0 8.25h22"/><polyline points="13.75 0 22 8.25 13.75 16.5"/></g></symbol><symbol viewBox="0 0 24 24" id="assign" xmlns="http://www.w3.org/2000/svg"><polygon points="3.13703704 0.203703704 12.1 0.203703704 7.57777777 8.35185185 12.9148148 8.35185185 2.48518519 21.7962963 4.92962963 12.4259259 0.122222223 12.4259259" class="agicon-stroke" fill="none" fill-rule="evenodd" stroke-linecap="round" stroke-width="2" stroke-linejoin="round" transform="translate(5 1)"/></symbol><symbol viewBox="0 0 24 24" id="attachment" xmlns="http://www.w3.org/2000/svg"><path d="M22.366 11.529l-9.628 9.627a6.29 6.29 0 1 1-8.894-8.894l9.627-9.628a4.193 4.193 0 0 1 5.93 5.93L9.763 18.19a2.096 2.096 0 1 1-2.965-2.964l8.894-8.884" class="ahicon-stroke" fill="none" fill-rule="evenodd" stroke-linecap="round" stroke-width="2" stroke-linejoin="round"/></symbol><symbol viewBox="0 0 24 24" id="building" xmlns="http://www.w3.org/2000/svg"><g class="aiicon-stroke" fill="none" fill-rule="evenodd" stroke-width="2" stroke-linecap="round" stroke-linejoin="round"><path d="M5.4 1h13.2v22H5.4V1z"/><path d="M7.2 3.2h9.7V5H7.2V3.2zm0 4h9.7V9H7.2V7.2zm0 3.9h9.7v1.8H7.2v-1.8z"/><path d="M8.9 18.6h6.2V23H8.9v-4.4z"/><path d="M12 18.6V23"/></g></symbol><symbol viewBox="0 0 24 24" id="calendar" xmlns="http://www.w3.org/2000/svg"><g class="ajicon-stroke" fill="none" fill-rule="evenodd" stroke-width="2" transform="translate(2 1)" stroke-linecap="round" stroke-linejoin="round"><rect width="19.8" height="19.8" y="2.2" rx="2"/><path d="M14.3 0v4.4M5.5 0v4.4M0 8.8h19.8"/></g></symbol><symbol viewBox="0 0 24 24" id="camera" xmlns="http://www.w3.org/2000/svg"><path d="M21 6h-4l-2-3H9L7 6H3c-1.1 0-2 .9-2 2v11c0 1.1.9 2 2 2h18c1.1 0 2-.9 2-2V8c0-1.1-.9-2-2-2zm-9 11c-2.2 0-4-1.8-4-4s1.8-4 4-4 4 1.8 4 4-1.8 4-4 4z" class="akicon-stroke" fill="none" fill-rule="evenodd" stroke-width="2" stroke-linecap="round" stroke-linejoin="round"/></symbol><symbol viewBox="0 0 24 24" id="caret-down" xmlns="http://www.w3.org/2000/svg"><polyline class="alicon-stroke" fill="none" stroke-width="2" points="0 0 11 11 22 0" transform="translate(1 7)" stroke-linecap="round" stroke-linejoin="round"/></symbol><symbol viewBox="0 0 24 24" id="caret-left" xmlns="http://www.w3.org/2000/svg"><polyline class="amicon-stroke" fill="none" stroke-width="2" points="11 22 0 11 11 0" transform="translate(6 1)" stroke-linecap="round" stroke-linejoin="round"/></symbol><symbol viewBox="0 0 24 24" id="caret-right" xmlns="http://www.w3.org/2000/svg"><polyline class="anicon-stroke" fill="none" stroke-width="2" points="0 22 11 11 0 0" transform="translate(7 1)" stroke-linecap="round" stroke-linejoin="round"/></symbol><symbol viewBox="0 0 24 24" id="caret-up" xmlns="http://www.w3.org/2000/svg"><polyline class="aoicon-stroke" fill="none" stroke-width="2" points="22 11 11 0 0 11" transform="translate(1 7)" stroke-linecap="round" stroke-linejoin="round"/></symbol><symbol viewBox="0 0 24 24" id="chat" xmlns="http://www.w3.org/2000/svg"><path class="apicon-stroke" fill="none" stroke-width="2" d="M2.1 21.8l6.893-2.53c.987.221 1.996.332 3.007.33 6.087 0 11-3.923 11-8.8C23 5.923 18.087 2 12 2S1 5.923 1 10.8c0 2.457 1.283 4.693 3.337 6.307L2.1 21.8z" stroke-linecap="round"/></symbol><symbol viewBox="0 0 24 24" id="chat-group" xmlns="http://www.w3.org/2000/svg"><g class="aqicon-stroke" fill="none" fill-rule="evenodd" stroke-width="2" transform="translate(1 2)" stroke-linecap="round"><path d="M17.453 8.25c2.64.587 4.547 2.53 4.547 4.803a4.547 4.547 0 0 1-1.87 3.557l1.137 2.823-3.777-1.576a7.7 7.7 0 0 1-1.723.183c-3.007 0-5.537-1.723-6.124-3.997"/><path d="M.733 16.133l5.647-2.31c.794.176 1.606.262 2.42.257 4.877 0 8.8-3.153 8.8-7.04S13.677 0 8.8 0C3.923 0 0 3.153 0 7.04c0 1.98 1.027 3.777 2.677 5.06L.733 16.133z"/></g></symbol><symbol viewBox="0 0 24 24" id="checkmark" xmlns="http://www.w3.org/2000/svg"><polyline points="22 0 6.875 15.125 0 8.25" class="aricon-stroke" fill="none" stroke-width="2" transform="translate(1 4)" stroke-linecap="round" stroke-linejoin="round"/></symbol><symbol viewBox="0 0 24 24" id="clock" xmlns="http://www.w3.org/2000/svg"><g class="asicon-stroke" fill="none" fill-rule="evenodd" stroke-width="2" transform="translate(1 1)" stroke-linecap="round" stroke-linejoin="round"><circle cx="11" cy="11" r="11"/><polyline points="11 4.4 11 11 14.3 14.3"/></g></symbol><symbol viewBox="0 0 24 24" id="close" xmlns="http://www.w3.org/2000/svg"><path d="M22 2L2 22M2 2l20 20" class="aticon-stroke" fill="none" stroke-width="2" stroke-linecap="round" stroke-linejoin="round"/></symbol><symbol id="cog" viewBox="0 0 24 24" xmlns="http://www.w3.org/2000/svg"><path d="M20.3 13.4c.2-1 .2-2 0-3.1l2.2-1.2-2.8-4.9-2.2 1.3c-.8-.6-1.7-1.2-2.6-1.5V1.4H9.2V4c-1 .3-1.8.8-2.6 1.5L4.3 4.2l-2.8 5 2.1 1.2c-.2 1-.2 2.1 0 3.1l-2.3 1.3 2.8 4.9 2.3-1.3c.8.7 1.7 1.2 2.7 1.6v2.6h5.7V20c1-.4 2-.9 2.8-1.6l2.3 1.4 2.8-5-2.4-1.4zm-8.2 2.1c-2 0-3.5-1.6-3.5-3.5 0-2 1.6-3.5 3.5-3.5 2 0 3.5 1.6 3.5 3.5.1 2-1.5 3.5-3.5 3.5z" class="auicon-stroke" fill="none" fill-rule="evenodd" stroke-width="2" stroke-linecap="round" stroke-linejoin="round"/></symbol><symbol viewBox="0 0 24 24" id="desktop" xmlns="http://www.w3.org/2000/svg"><g class="avicon-stroke" fill="none" stroke-width="2" stroke-linecap="round" stroke-linejoin="round"><path d="M8.3 22.3h7.3M12 18.6v3.7m11-7.4V2.5c0-.4-.3-.7-.7-.7H1.7c-.4-.1-.7.3-.7.7V15"/><path d="M1 14.9v2.9c0 .4.3.7.7.7h20.5c.4 0 .7-.3.7-.7v-2.9H1z"/></g></symbol><symbol viewBox="0 0 24 24" id="dots-horizontal" xmlns="http://www.w3.org/2000/svg"><g class="awicon-stroke" fill="none" fill-rule="evenodd" stroke-width="2" transform="translate(1 10)" stroke-linecap="round" stroke-linejoin="round"><circle cx="2.2" cy="2.2" r="2.2"/><circle cx="19.8" cy="2.2" r="2.2"/><circle cx="11" cy="2.2" r="2.2"/></g></symbol><symbol viewBox="0 0 24 24" id="dots-vertical" xmlns="http://www.w3.org/2000/svg"><g class="axicon-stroke" fill="none" fill-rule="evenodd" stroke-width="2" transform="translate(1 10)" stroke-linecap="round" stroke-linejoin="round"><circle cx="11" cy="10.8" r="2.2"/><circle cx="11" cy="-6.8" r="2.2"/><circle cx="11" cy="2" r="2.2"/></g></symbol><symbol viewBox="0 0 24 24" id="download" xmlns="http://www.w3.org/2000/svg"><g class="ayicon-stroke" fill="none" fill-rule="evenodd" stroke-width="2" transform="translate(1 3)" stroke-linecap="round" stroke-linejoin="round"><polyline points="7.333 13.75 11 17.417 14.667 13.75"/><path d="M11 9.167v8.25m8.14-2.668a4.583 4.583 0 0 0-2.64-8.332h-1.155A7.333 7.333 0 1 0 2.75 13.099"/></g></symbol><symbol viewBox="0 0 24 24" id="email" xmlns="http://www.w3.org/2000/svg"><g class="azicon-stroke" fill="none" fill-rule="evenodd" stroke-width="2" transform="translate(1 3)" stroke-linecap="round" stroke-linejoin="round"><path d="M2.2 0h17.6c1.21 0 2.2.99 2.2 2.2v13.2c0 1.21-.99 2.2-2.2 2.2H2.2c-1.21 0-2.2-.99-2.2-2.2V2.2C0 .99.99 0 2.2 0z"/><polyline points="22 2.2 11 9.9 0 2.2"/></g></symbol><symbol id="facebook" viewBox="0 0 24 24" xmlns="http://www.w3.org/2000/svg"><path class="baicon-fill" d="M14.2 4.5H18V0h-3.8C11.4 0 9 2.4 9 5.2v2.2H6V12h3v12h4.5V12h3.8l.7-4.5h-4.5V5.2c0-.4.3-.7.7-.7z"/></symbol><symbol viewBox="0 0 24 24" id="filter" xmlns="http://www.w3.org/2000/svg"><path class="bbicon-stroke" fill="none" stroke-width="2" stroke-linecap="round" stroke-linejoin="round" d="M1 2.5h22L14.2 12v7.3l-4.4 2.2V12L1 2.5z"/></symbol><symbol viewBox="0 0 24 24" id="hipaa" xmlns="http://www.w3.org/2000/svg"><g transform="translate(1 2)"><path class="bcicon-stroke" fill="none" stroke-width="2" stroke-linecap="round" stroke-linejoin="round" d="M20.2 2.9v8.2c0 .4-.1.9-.4 1.7-.5 1.1-1.4 2.4-2.7 3.8-2.4 2.5-5.2 4.3-6 4.4h-.2c-.8-.2-3.6-1.9-6-4.4-1.4-1.4-2.2-2.6-2.7-3.8-.3-.7-.4-1.3-.4-1.7V2.6L11-1l9.2 3.6v.3z"/><polygon class="bcicon-fill" points="14.9,13.7 12.8,13.7 12.8,10.1 9.2,10.1 9.2,13.7 7.1,13.7 7.1,5.2 9.2,5.2 9.2,8.8 12.8,8.8 12.8,5.2 14.9,5.2"/></g></symbol><symbol viewBox="0 0 24 24" id="inbox" xmlns="http://www.w3.org/2000/svg"><g transform="translate(1 5)" class="bdicon-stroke" fill="none" stroke-width="2" stroke-linecap="round" stroke-linejoin="round"><polyline points="22,8.1 15.4,8.1 13.2,11.4 8.8,11.4 6.6,8.1 0,8.1"/><path d="M3.8-.5L0 8.1v5.5c0 1.2 1 2.2 2.2 2.2h17.6c1.2 0 2.2-1 2.2-2.2V8.1L18.2-.5c-.4-.8-1.1-1.3-2-1.3H5.8c-.8 0-1.6.5-2 1.3z"/></g></symbol><symbol viewBox="0 0 24 24" id="info-circle" xmlns="http://www.w3.org/2000/svg"><g class="beicon-stroke" fill="none" stroke-width="2" stroke-linecap="round" stroke-linejoin="round"><circle cx="12" cy="12" r="11"/><path d="M10.9 11.2H12v6m-1.1 0H13"/><circle class="beicon-fill" cx="11.75" cy="7.2" r=".5"/></g></symbol><symbol viewBox="0 0 24 24" id="lock" xmlns="http://www.w3.org/2000/svg"><g class="bficon-stroke" fill="none" fill-rule="evenodd" stroke-width="2" transform="translate(5 1)" stroke-linecap="round" stroke-linejoin="round"><path d="M2.567 9.093V4.767a4.767 4.767 0 1 1 9.533 0v4.326m-4.767 3.74V16.5"/><circle cx="7.333" cy="14.667" r="7.333"/></g></symbol><symbol viewBox="0 0 24 24" id="log-in" xmlns="http://www.w3.org/2000/svg"><g class="bgicon-stroke" fill="none" fill-rule="evenodd" stroke-width="2" stroke-linecap="round" stroke-linejoin="round" transform="translate(2 1)"><path d="M12.1 22h5.5a2.2 2.2 0 0 0 2.2-2.2V2.2A2.2 2.2 0 0 0 17.6 0h-5.5"/><polyline points="8.8 15.4 13.2 11 8.8 6.6"/><path d="M13.2 11H0"/></g></symbol><symbol viewBox="0 0 24 24" id="log-out" xmlns="http://www.w3.org/2000/svg"><g class="bhicon-stroke" fill="none" fill-rule="evenodd" stroke-width="2" stroke-linecap="round" stroke-linejoin="round" transform="translate(2 1)"><path d="M7.7 22H2.2A2.2 2.2 0 0 1 0 19.8V2.2A2.2 2.2 0 0 1 2.2 0h5.5"/><polyline points="15.4 15.4 19.8 11 15.4 6.6"/><path d="M19.8 11H6.6"/></g></symbol><symbol viewBox="0 0 24 24" id="minor" xmlns="http://www.w3.org/2000/svg"><g transform="translate(1 1)"><path class="biicon-stroke" fill="none" stroke-width="2" stroke-linecap="round" stroke-linejoin="round" d="M0 1.376C0 .616.611 0 1.376 0h19.248C21.384 0 22 .611 22 1.376v19.248c0 .76-.611 1.376-1.376 1.376H1.376C.616 22 0 21.389 0 20.624V1.376z"/><path class="biicon-fill" d="M10.535 11.393l-2.359-4.65a.77.77 0 0 0-.129-.185.422.422 0 0 0-.148-.097.62.62 0 0 0-.185-.038 4.064 4.064 0 0 0-.242-.006H5.848v9.166h1.875v-5.272a7.852 7.852 0 0 0-.05-.837l2.44 4.719a.8.8 0 0 0 .306.333.844.844 0 0 0 .437.114h.29c.163 0 .31-.038.437-.114a.8.8 0 0 0 .305-.333l2.429-4.712a9.904 9.904 0 0 0-.038.83v5.272h1.875V6.417H14.53c-.093 0-.173.002-.243.006a.62.62 0 0 0-.185.038.422.422 0 0 0-.148.097.77.77 0 0 0-.13.186l-2.352 4.63c-.084.164-.166.333-.245.507-.08.174-.156.353-.227.538-.071-.18-.146-.357-.223-.529a9.126 9.126 0 0 0-.243-.497z"/></g></symbol><symbol viewBox="0 0 24 24" id="mobile" xmlns="http://www.w3.org/2000/svg"><g class="bjicon-stroke" fill="none" stroke-width="2" stroke-linecap="round" stroke-linejoin="round"><path d="M5.4 21.9c0 .6.5 1.1 1.1 1.1h11c.6 0 1.1-.5 1.1-1.1v-3.3H5.4v3.3zM18.6 2.1c0-.6-.5-1.1-1.1-1.1h-11c-.6 0-1.1.5-1.1 1.1v1.8h13.2V2.1zm0 16.5V3.9m-13.2 0v14.7"/><circle class="bjicon-fill" cx="12" cy="20.8" r=".7"/></g></symbol><symbol viewBox="0 0 24 24" id="note" xmlns="http://www.w3.org/2000/svg"><g class="bkicon-stroke" fill="none" fill-rule="evenodd" stroke-width="2" transform="translate(3 1)" stroke-linecap="round" stroke-linejoin="round"><path d="M11 0H2.2A2.2 2.2 0 0 0 0 2.2v17.6A2.2 2.2 0 0 0 2.2 22h13.2a2.2 2.2 0 0 0 2.2-2.2V6.6L11 0z"/><polyline points="11 0 11 6.6 17.6 6.6"/><path d="M13.2 12.1H4.4m8.8 4.4H4.4"/><polyline points="6.6 7.7 5.5 7.7 4.4 7.7"/></g></symbol><symbol viewBox="0 0 24 24" id="phone" xmlns="http://www.w3.org/2000/svg"><path d="M23 17.5v3.3c0 1.2-1 2.2-2.2 2.2h-.2c-3.4-.4-6.7-1.5-9.5-3.4-2.7-1.7-4.9-4-6.6-6.6-1.9-2.9-3-6.2-3.4-9.6C.9 2.2 1.8 1.1 3 1h3.5c1.1 0 2.1.8 2.2 1.9.2 1.1.4 2.1.8 3.1.3.8.1 1.7-.5 2.3L7.6 9.7c1.6 2.8 3.9 5.1 6.6 6.6l1.4-1.4c.6-.6 1.5-.8 2.3-.5 1 .4 2 .6 3.1.8 1.2.2 2 1.2 2 2.3z" class="blicon-stroke" fill="none" fill-rule="evenodd" stroke-width="2" stroke-linecap="round" stroke-linejoin="round"/></symbol><symbol viewBox="0 0 24 24" id="question-circle" xmlns="http://www.w3.org/2000/svg"><g class="bmicon-stroke" fill="none" stroke-width="2" stroke-linecap="round" stroke-linejoin="round" transform="translate(1 1)"><path d="M7.8 7.7c.5-1.5 2.1-2.4 3.7-2.2 1.6.3 2.7 1.6 2.7 3.3 0 2.2-3.3 3.3-3.3 3.3"/><circle cx="11" cy="11" r="11"/><circle class="bmicon-fill" cx="11" cy="16.1" r=".5"/></g></symbol><symbol viewBox="0 0 24 24" id="rotate" xmlns="http://www.w3.org/2000/svg"><g class="bnicon-stroke" fill="none" fill-rule="evenodd" stroke-width="2" stroke-linecap="round" stroke-linejoin="round" transform="translate(1 2)"><polyline points="22 1.1 22 7.7 15.4 7.7"/><path d="M19.239 13.2a9.9 9.9 0 1 1-2.332-10.296L22 7.7"/></g></symbol><symbol viewBox="0 0 24 24" id="search" xmlns="http://www.w3.org/2000/svg"><g class="boicon-stroke" fill="none" fill-rule="evenodd" stroke-width="2" transform="translate(1 1)" stroke-linecap="round" stroke-linejoin="round"><circle cx="9.167" cy="9.167" r="9.167"/><path d="M22 22l-6.356-6.356"/></g></symbol><symbol viewBox="0 0 24 24" id="send" xmlns="http://www.w3.org/2000/svg"><g class="bpicon-stroke" fill="none" fill-rule="evenodd" stroke-width="2" transform="translate(3 2)" stroke-linecap="round" stroke-linejoin="round"><polyline points="7,12.6 7,20.5 10.8,15"/><path d="M-1.9 8.8L19.9-.5l-3.5 18.7L7 12.3l-8.9-3.5zM19.9-.5L7 12.3 19.9-.5z"/></g></symbol><symbol viewBox="0 0 24 24" id="star" xmlns="http://www.w3.org/2000/svg"><polygon class="bqicon-stroke" fill="none" stroke-width="2" points="11 0 14.399 6.886 22 7.997 16.5 13.354 17.798 20.922 11 17.347 4.202 20.922 5.5 13.354 0 7.997 7.601 6.886" transform="translate(1 1)" stroke-linecap="round" stroke-linejoin="round"/></symbol><symbol viewBox="0 0 24 24" id="to-from" xmlns="http://www.w3.org/2000/svg"><g class="bricon-stroke" fill="none" stroke-width="2" stroke-linecap="round" stroke-linejoin="round"><path d="M8.5 1L1 9.1h22"/><path d="M15.5 23l7.5-8.1H1"/></g></symbol><symbol viewBox="0 0 24 24" id="touchid" xmlns="http://www.w3.org/2000/svg"><g class="bsicon-stroke" fill="none" fill-rule="evenodd" stroke-width="2" stroke-linecap="round" stroke-linejoin="round"><path d="M22.8 9.8c-1.2-6-7-9.8-13-8.6m-1.6.5c-5 1.8-8.1 7.1-7 12.5M23 11.6c0-.6-.1-1.2-.2-1.8M1.2 14.2c0 .2.1.3.1.5"/><path d="M9.2 22.6l1.2-1.5m.4-.8c1.3-2.4 1.8-5.3 1.2-8.3"/><path d="M10.7 22.9c1.1-1.5 2-3.1 2.5-5m.2-1.2c.3-1.6.3-3.3-.1-5-.1-.7-.9-1.2-1.6-1.1-.7.2-1.2.9-1.1 1.6.8 3.7-.5 7.4-2.9 9.9"/><path d="M12.4 23c.5-.7.9-1.5 1.3-2.2m.3-.9c1-2.6 1.3-5.5.7-8.5-.3-1.4-1.8-2.4-3.2-2.1m-1 .4c-.9.6-1.4 1.7-1.2 2.9.5 2.4 0 4.7-1.1 6.7m-.5.7c-.4.5-.8 1-1.3 1.5"/><path d="M14.1 22.8c2-3.4 2.8-7.5 1.9-11.6-.4-2.2-2.6-3.7-4.8-3.2-2.3.4-3.7 2.6-3.2 4.8.6 3-.5 6-2.7 7.9"/><path d="M15.9 22.3c1.7-3.4 2.3-7.4 1.4-11.4-.6-3-3.5-4.9-6.5-4.3s-4.9 3.5-4.3 6.5c.5 2.6-.5 5.1-2.4 6.7"/><path d="M3.3 18.7c1.4-1.1 2.2-2.9 2-4.8m-.1-1.2C4.8 9.2 7.1 6 10.6 5.3c2.1-.4 4.3.2 5.8 1.5m.8.7c.7.9 1.3 1.9 1.5 3.1.3 1.7.5 3.4.3 5.1m0 .9c-.2 1.6-.6 3.2-1.1 4.7"/><path d="M19.8 19.8c.6-2.2.8-4.5.6-6.8m-.1-1.3c-.1-.4-.1-.9-.2-1.3-.9-4.5-5.3-7.4-9.7-6.5M9 4.3c-3.7 1.4-5.9 5.3-5.1 9.3.3 1.5-.3 3-1.4 4"/><path d="M21.7 17.2c.1-1 .2-2.1.2-3.2m-.1-1.4c-.1-.8-.2-1.6-.4-2.4-.3-1.3-.8-2.5-1.5-3.5m-.8-1.2c-2.2-2.4-5.6-3.6-9-2.9-3.2.6-5.7 2.8-6.9 5.6m-.5 1.4c-.3 1.4-.4 2.8-.1 4.3.2.9-.1 1.8-.7 2.4"/></g></symbol><symbol viewBox="0 0 24 24" id="trash" xmlns="http://www.w3.org/2000/svg"><g class="bticon-stroke" fill="none" fill-rule="evenodd" stroke-width="2" transform="translate(2 1)" stroke-linecap="round" stroke-linejoin="round"><polyline points="0 4.4 2.2 4.4 19.8 4.4"/><path d="M17.6 4.4v15.4a2.2 2.2 0 0 1-2.2 2.2h-11a2.2 2.2 0 0 1-2.2-2.2V4.4m3.3 0V2.2A2.2 2.2 0 0 1 7.7 0h4.4a2.2 2.2 0 0 1 2.2 2.2v2.2M7.7 9.9v6.6m4.4-6.6v6.6"/></g></symbol><symbol id="twitter" viewBox="0 0 24 24" xmlns="http://www.w3.org/2000/svg"><path class="buicon-fill" d="M24 4.6c-.9.4-1.8.7-2.8.8 1-.6 1.8-1.6 2.2-2.7-1 .6-2 1-3.1 1.2-.9-1-2.2-1.6-3.6-1.6-2.7 0-4.9 2.2-4.9 4.9 0 .4 0 .8.1 1.1-4.2-.2-7.8-2.2-10.2-5.2-.4.8-.7 1.6-.7 2.5 0 1.7.9 3.2 2.2 4.1-.8 0-1.6-.2-2.2-.6v.1c0 2.4 1.7 4.4 4 4.8-.4.1-.8.2-1.3.2-.3 0-.6 0-.9-.1.6 2 2.4 3.4 4.6 3.4-1.7 1.3-3.8 2.1-6.1 2.1-.4 0-.8 0-1.2-.1 2.2 1.4 4.8 2.2 7.5 2.2 9.1 0 14-7.5 14-14v-.6c.9-.7 1.7-1.6 2.4-2.5z"/></symbol><symbol viewBox="0 0 24 24" id="unlock" xmlns="http://www.w3.org/2000/svg"><g class="bvicon-stroke" fill="none" fill-rule="evenodd" stroke-width="2" transform="translate(5 1)" stroke-linecap="round" stroke-linejoin="round"><path d="M2.567 9.093V4.767a4.767 4.767 0 1 1 9.533 0m-4.767 8.066V16.5"/><circle cx="7.333" cy="14.667" r="7.333"/></g></symbol><symbol viewBox="0 0 24 24" id="upload" xmlns="http://www.w3.org/2000/svg"><g class="bwicon-stroke" fill="none" fill-rule="evenodd" stroke-width="2" transform="translate(1 3)" stroke-linecap="round" stroke-linejoin="round"><polyline points="15.304 12.435 11.478 8.609 7.652 12.435"/><path d="M11.478 8.609v8.608m8.025-2.496a4.783 4.783 0 0 0-2.286-8.982h-1.205A7.652 7.652 0 1 0 2.87 12.722"/><polyline points="15.304 12.435 11.478 8.609 7.652 12.435"/></g></symbol><symbol viewBox="0 0 24 24" id="user" xmlns="http://www.w3.org/2000/svg"><path class="bxicon-stroke" fill="none" stroke-width="2" stroke-linecap="round" stroke-linejoin="round" d="M18.745 19.326c-3.63-.697-3.813-1.833-3.813-2.566v-.44a6.93 6.93 0 0 0 2.09-3.227h.037c1.1 0 1.393-2.31 1.393-2.676 0-.367.037-1.723-1.1-1.723 2.347-6.6-4.07-9.24-8.91-5.867-1.979 0-2.162 2.933-1.43 5.867-1.136 0-1.099 1.393-1.099 1.723 0 .33.257 2.676 1.393 2.676.367 1.32.844 2.53 1.723 3.3v.44c0 .733.184 1.833-3.483 2.493C1.88 19.986 1 23.36 1 23.36h21.998a5.353 5.353 0 0 0-4.253-4.033z"/></symbol><symbol viewBox="0 0 24 24" id="user-group" xmlns="http://www.w3.org/2000/svg"><g class="byicon-stroke" fill="none" fill-rule="evenodd" stroke-width="2" transform="translate(1 2)" stroke-linecap="round" stroke-linejoin="round"><path d="M9.313 3.007c.33-1.21 1.174-2.714 3.3-2.714 0 0 5.867-1.87 5.867 4.107 0 5.023 1.137 5.573 2.347 6.783a20.753 20.753 0 0 1-4.694.55v.587c0 .587-.11 1.76 2.824 2.347C21.89 15.253 22 17.6 22 17.6h-7.7"/><path d="M13.237 17.307c-2.934-.404-2.934-1.467-2.934-2.054v-.33a5.353 5.353 0 0 0 1.54-2.566c.88 0 1.1-1.87 1.1-2.127 0-.257-.073-1.32-.476-1.43 1.466-5.133-2.934-7.333-6.747-4.693-1.613 0-2.127 2.346-1.54 4.693-.403 0-.477 1.1-.477 1.393 0 .294.22 2.127 1.1 2.127.294 1.063 1.1 1.943 1.797 2.567v.366c0 .587-.22 1.687-3.19 2.054C.44 17.673 0 20.533 0 20.533h16.133s.037-2.823-2.896-3.226z"/></g></symbol></svg>