<svg xmlns="http://www.w3.org/2000/svg" xmlns:xlink="http://www.w3.org/1999/xlink"><symbol viewBox="0 0 24 24" id="icon-add"><path d="M21 11h-8V3c0-.6-.4-1-1-1s-1 .4-1 1v8H3c-.6 0-1 .4-1 1s.4 1 1 1h8v8c0 .6.4 1 1 1s1-.4 1-1v-8h8c.6 0 1-.4 1-1s-.4-1-1-1z"/></symbol><symbol viewBox="0 0 24 24" id="icon-arrow-left"><path d="M21.2 11.2H5l8.4-7.7c.3-.3.4-.8.1-1.2-.3-.3-.8-.4-1.2-.1l-10 9.2-.1.1v.1s0 .1-.1.1v.6s0 .1.1.1v.1s0 .1.1.1l10 9.2c.2.1.4.2.6.2.2 0 .5-.1.6-.3.3-.3.3-.9-.1-1.2L5 12.8h16.2c.5 0 .8-.4.8-.8 0-.5-.4-.8-.8-.8z"/></symbol><symbol viewBox="0 0 24 24" id="icon-arrow-right"><path d="M22 11.8c0-.1 0-.1-.1-.2 0 0 0-.1-.1-.1v-.1s0-.1-.1-.1l-10-9.2c-.3-.3-.9-.3-1.2.1-.3.3-.3.9.1 1.2l8.4 7.7H2.8c-.4.1-.8.4-.8.9s.4.8.8.8H19l-8.4 7.7c-.3.3-.4.8-.1 1.2.2.2.4.3.6.3.2 0 .4-.1.6-.2l10-9.2.1-.1v-.1s0-.1.1-.1V12c0-.1.1-.1.1-.2z"/></symbol><symbol viewBox="0 0 24 24" id="icon-bank"><path d="M2 19.5l-.031.993a.5.5 0 0 0 .5.5h19a.5.5 0 0 0 .5-.5L22 19.5a.5.5 0 0 0-.5-.5h-19a.5.5 0 0 0-.5.5zM23.5 22H.5a.5.5 0 0 0-.5.5v1a.5.5 0 0 0 .5.5h23a.5.5 0 0 0 .5-.5v-1a.5.5 0 0 0-.5-.5zm-18-4.007a.5.5 0 0 0 .5-.5v-7A.49.49 0 0 0 5.5 10h-2a.49.49 0 0 0-.5.493v7a.5.5 0 0 0 .5.5h2zm5 0a.5.5 0 0 0 .5-.5v-7a.49.49 0 0 0-.5-.493h-2a.49.49 0 0 0-.5.493v7a.5.5 0 0 0 .5.5h2zm5 0a.5.5 0 0 0 .5-.5v-7a.49.49 0 0 0-.5-.493h-2a.49.49 0 0 0-.5.493v7a.5.5 0 0 0 .5.5h2zm5 0a.5.5 0 0 0 .5-.5v-7a.49.49 0 0 0-.5-.493h-2a.49.49 0 0 0-.5.493v7a.5.5 0 0 0 .5.5h2zM1.5 9h21a.5.5 0 0 0 .5-.5v-2a.5.5 0 0 0-.5-.5h-21a.5.5 0 0 0-.5.5v2a.5.5 0 0 0 .5.5zm0-4.007h21.01a.5.5 0 0 0 .137-.982L12.196.04a.5.5 0 0 0-.394 0l-10.5 3.994a.5.5 0 0 0 .198.959z"/><path fill="none" d="M0 0h24v24H0z"/></symbol><symbol viewBox="0 0 24 24" id="icon-bar-graph"><path d="M23.5 23H23V8.5a.5.5 0 0 0-.5-.5h-3a.5.5 0 0 0-.5.5V23h-2v-7.5a.5.5 0 0 0-.5-.5h-3a.5.5 0 0 0-.5.5V23h-2v-9.5a.5.5 0 0 0-.5-.5h-3a.5.5 0 0 0-.5.5V23H5v-4.5a.5.5 0 0 0-.5-.5h-3a.5.5 0 0 0-.5.5V23H.5a.5.5 0 0 0 0 1h23a.5.5 0 0 0 0-1z"/></symbol><symbol viewBox="0 0 24 24" id="icon-bell"><path d="M22.5 17.5c-1.3 0-2.3-1-2.3-2.3v-4.1c0-3.3-2.1-6.4-5.1-7.6C14.8 2 13.5 1 12 1S9.2 2 8.9 3.5c-3.1 1.3-5.1 4.3-5.1 7.6v4.1c0 1.3-1 2.3-2.3 2.3-.3 0-.5.2-.5.5s.2.5.5.5h21.1c.3 0 .5-.2.5-.5-.1-.3-.3-.5-.6-.5zm-7.7 1.8H9.2c-.3 0-.5.2-.5.5 0 1.8 1.4 3.2 3.2 3.2s3.2-1.4 3.2-3.2c.1-.3-.1-.5-.3-.5z"/></symbol><symbol viewBox="0 0 24 24" id="icon-calendar"><path d="M2.714 22.286h3.857v-3.857H2.714v3.857zm4.715 0h4.285v-3.857H7.43v3.857zM2.714 17.57h3.857v-4.285H2.714v4.285zm4.715 0h4.285v-4.285H7.43v4.285zm-4.715-5.14h3.857V8.57H2.714v3.858zm9.857 9.857h4.286V18.43h-4.286v3.857zM7.43 12.429h4.285V8.57H7.43v3.858zm10.285 9.857h3.857v-3.857h-3.857v3.857zm-5.143-4.715h4.286v-4.285h-4.286v4.285zM7.857 6V2.143a.412.412 0 0 0-.127-.301.412.412 0 0 0-.301-.128H6.57a.412.412 0 0 0-.3.128.412.412 0 0 0-.128.3V6c0 .116.042.217.127.301a.412.412 0 0 0 .301.128h.858a.412.412 0 0 0 .3-.128.412.412 0 0 0 .13-.301zm9.857 11.571h3.857v-4.285h-3.857v4.285zm-5.143-5.142h4.286V8.57h-4.286v3.858zm5.143 0h3.857V8.57h-3.857v3.858zM18.143 6V2.143a.412.412 0 0 0-.127-.301.412.412 0 0 0-.302-.128h-.857a.412.412 0 0 0-.301.128.412.412 0 0 0-.127.3V6c0 .116.042.217.127.301a.412.412 0 0 0 .301.128h.857a.412.412 0 0 0 .302-.128.412.412 0 0 0 .127-.301zm5.143-.857v17.143c0 .464-.17.866-.51 1.205a1.64 1.64 0 0 1-1.205.509H2.714c-.464 0-.866-.17-1.205-.509A1.647 1.647 0 0 1 1 22.286V5.143c0-.464.17-.866.509-1.205.34-.34.741-.51 1.205-.51H4.43V2.144c0-.59.21-1.094.629-1.514C5.478.21 5.982 0 6.571 0h.858c.589 0 1.093.21 1.513.63.42.42.63.924.63 1.513v1.286h5.142V2.143c0-.59.21-1.094.63-1.514.42-.42.924-.629 1.513-.629h.857c.59 0 1.094.21 1.514.63.42.42.63.924.63 1.513v1.286h1.713c.465 0 .866.17 1.206.509.34.339.509.74.509 1.205z"/></symbol><symbol viewBox="0 0 24 24" id="icon-camera"><title>camera</title><path d="M12 10a2.89 2.89 0 0 1 2.12.88A2.89 2.89 0 0 1 15 13a2.89 2.89 0 0 1-.88 2.12A2.89 2.89 0 0 1 12 16a2.89 2.89 0 0 1-2.12-.88A2.89 2.89 0 0 1 9 13c0-.826.293-1.533.88-2.12A2.89 2.89 0 0 1 12 10zm7.333-4.333c.736 0 1.365.26 1.886.78.52.522.781 1.15.781 1.886v9.334a2.57 2.57 0 0 1-.781 1.885 2.57 2.57 0 0 1-1.886.781H4.667a2.57 2.57 0 0 1-1.886-.78A2.57 2.57 0 0 1 2 17.666V8.333c0-.736.26-1.364.781-1.885a2.57 2.57 0 0 1 1.886-.781H7l.531-1.417c.132-.34.374-.634.724-.88.35-.247.71-.37 1.078-.37h5.334c.368 0 .727.123 1.078.37.35.246.592.54.724.88L17 5.667h2.333zm-7.333 12c1.285 0 2.384-.457 3.297-1.37.913-.913 1.37-2.012 1.37-3.297 0-1.285-.457-2.384-1.37-3.297-.913-.913-2.012-1.37-3.297-1.37-1.285 0-2.384.457-3.297 1.37-.913.913-1.37 2.012-1.37 3.297 0 1.285.457 2.384 1.37 3.297.913.913 2.012 1.37 3.297 1.37z" fill-rule="evenodd"/></symbol><symbol viewBox="0 0 24 24" id="icon-checkmark"><path d="M21.6 2.2c-.4-.3-.9-.2-1.2.2L8.1 19.9l-4.7-4.7c-.3-.3-.9-.3-1.2 0-.3.3-.3.9 0 1.2l5.4 5.4c.2.1.4.2.7.2.3 0 .5-.1.7-.4L21.8 3.3c.3-.4.2-.9-.2-1.1z"/></symbol><symbol viewBox="0 0 24 24" id="icon-checkmark-circle"><path d="M12.001.001c-6.617 0-12 5.384-12 12s5.383 12 12 12c6.616 0 12-5.384 12-12s-5.383-12-12-12zm5.341 8.866l-7.5 7a.502.502 0 0 1-.695-.012l-2.5-2.5a.5.5 0 0 1 .707-.707l2.158 2.158 7.147-6.67a.5.5 0 0 1 .683.731z"/></symbol><symbol viewBox="0 0 24 24" id="icon-chevron-down"><path d="M12 18c-.3 0-.6-.1-.8-.4l-11-10c-.4-.4-.3-1.1.1-1.4.4-.4 1.1-.3 1.4.1L12 15.5l10.2-9.1c.4-.4 1-.5 1.4-.1.4.4.5 1 .1 1.4l-11 10c-.1.2-.4.3-.7.3z"/></symbol><symbol viewBox="0 0 24 24" id="icon-chevron-left"><path d="M17.2 22c-.2 0-.4-.1-.5-.2L5.8 12.6c-.2-.2-.3-.4-.3-.6 0-.2.1-.5.3-.6l10.8-9.2c.4-.3.9-.3 1.2.1.3.4.3.9-.1 1.2L7.6 12l10.1 8.5c.4.3.4.8.1 1.2-.2.2-.4.3-.6.3z"/></symbol><symbol viewBox="0 0 24 24" id="icon-chevron-right"><path d="M5.7 21.7c-.3-.4-.3-.9.1-1.2L15.9 12 5.8 3.5c-.4-.3-.4-.9-.1-1.2.3-.4.8-.4 1.2-.1l10.8 9.2c.2.2.3.4.3.6 0 .2-.1.5-.3.6L6.9 21.8c-.2.1-.4.2-.6.2-.2 0-.4-.1-.6-.3z"/></symbol><symbol viewBox="0 0 24 24" id="icon-chevron-up"><path d="M12.8 6.4l11 10c.4.4.3 1.1-.1 1.4-.4.4-1.1.3-1.4-.1L12 8.5 1.8 17.6c-.4.4-1 .5-1.4.1-.4-.4-.5-1-.1-1.4l11-10c.1-.2.4-.3.7-.3s.6.1.8.4z"/></symbol><symbol viewBox="0 0 24 24" id="icon-clock"><path d="M12 0C5.383 0 0 5.383 0 12s5.383 12 12 12 12-5.383 12-12S18.617 0 12 0zm5.869 17.838a.501.501 0 0 1-.707.031l-6-5.5A.501.501 0 0 1 11 12V6.5a.5.5 0 0 1 1 0v5.28l5.838 5.351a.5.5 0 0 1 .031.707z"/></symbol><symbol viewBox="0 0 24 24" id="icon-close"><path d="M13.1 12l7.7-7.7c.3-.3.3-.8 0-1.1s-.8-.3-1.1 0L12 10.9 4.3 3.2c-.3-.3-.8-.3-1.1 0s-.3.8 0 1.1l7.7 7.7-7.7 7.7c-.3.3-.3.8 0 1.1.2.1.4.2.5.2.2 0 .4-.1.5-.2l7.7-7.7 7.7 7.7c.2.2.4.2.5.2s.4-.1.5-.2c.3-.3.3-.8 0-1.1L13.1 12z"/></symbol><symbol viewBox="0 0 24 24" id="icon-cog"><path d="M23.5 10h-2.855c-.2-.79-.454-1.667-.778-2.332l2.032-2.032a.499.499 0 0 0 0-.707L19.07 2.102a.499.499 0 0 0-.707 0L16.33 4.133c-.664-.324-1.541-.578-2.33-.777V.5a.5.5 0 0 0-.5-.5h-3a.5.5 0 0 0-.5.5v2.856c-.79.199-1.667.453-2.331.777L5.636 2.102a.499.499 0 0 0-.707 0L2.1 4.929a.5.5 0 0 0 0 .707l2.033 2.033c-.322.663-.578 1.54-.779 2.331H.5a.5.5 0 0 0-.5.5v3a.5.5 0 0 0 .5.5h2.854c.201.791.456 1.668.779 2.332L2.1 18.365a.504.504 0 0 0 0 .707L4.929 21.9c.188.188.52.188.707 0l2.033-2.033c.663.323 1.54.577 2.331.779V23.5a.5.5 0 0 0 .5.5h3a.5.5 0 0 0 .5-.5v-2.854c.791-.201 1.668-.456 2.331-.778l2.034 2.032a.5.5 0 0 0 .707 0l2.828-2.828a.5.5 0 0 0 0-.707l-2.032-2.033c.323-.664.578-1.541.778-2.332H23.5a.5.5 0 0 0 .5-.5v-3a.5.5 0 0 0-.5-.5zM12 16c-2.206 0-4-1.795-4-4s1.794-4 4-4 4 1.795 4 4-1.794 4-4 4z"/></symbol><symbol viewBox="0 0 24 24" id="icon-compose"><title>compose</title><path d="M15 2H1.991A1.99 1.99 0 0 0 0 3.991V22.01A1.99 1.99 0 0 0 1.991 24H20.01A1.99 1.99 0 0 0 22 22.009V9.333l-2 2.334v9.868a.464.464 0 0 1-.465.465H2.465A.464.464 0 0 1 2 21.535V4.465C2 4.208 2.207 4 2.465 4H13l2-2zM5.725 18.274l2.648-.762-1.809-1.926-.839 2.688zM21.487 6.085L9.3 18.276 4 20l1.723-5.303v-.002L17.91 2.504l.157.158 3.42 3.423zm1.371-1.372l-.196.196-3.579-3.58.196-.196S20.136 0 21.354 0c.537 0 1.145.22 1.781.856 2.096 2.097-.277 3.857-.277 3.857z" fill-rule="evenodd"/></symbol><symbol viewBox="0 0 24 24" id="icon-credit-card"><path d="M21.5 5h-19A2.503 2.503 0 0 0 0 7.5V9h24V7.5C24 6.122 22.878 5 21.5 5zM0 17.5C0 18.878 1.121 20 2.5 20h19c1.378 0 2.5-1.122 2.5-2.5V10H0v7.5zM17.5 12h3a.5.5 0 0 1 0 1h-3a.5.5 0 0 1 0-1zm-14 0h8a.5.5 0 0 1 0 1h-8a.5.5 0 0 1 0-1zm0 2h3a.5.5 0 0 1 0 1h-3a.5.5 0 0 1 0-1z"/></symbol><symbol viewBox="0 0 24 24" id="icon-email"><path d="M22.7 6l-10.4 9c-.1.1-.2.1-.3.1s-.2 0-.3-.1L1.3 6c-.2.4-.3.7-.3 1.1v11.7C1 20 1.9 21 3 21h18c1.1 0 2-1 2-2.1V7.1c0-.4-.1-.7-.3-1.1z"/><path d="M22 5.3c-.3-.2-.6-.3-1-.3H3c-.4 0-.7.1-1 .3l10 8.6 10-8.6z"/></symbol><symbol viewBox="0 0 24 24" id="icon-file"><title>copy</title><path d="M5.5 22a.5.5 0 0 1-.5-.5V3H3.5a.5.5 0 0 0-.5.5v20a.5.5 0 0 0 .5.5h14a.5.5 0 0 0 .5-.5V22H5.5zM21 6.5a.5.5 0 0 0-.146-.353l-6-6A.502.502 0 0 0 14.5 0h-8a.5.5 0 0 0-.5.5v20a.5.5 0 0 0 .5.5h14a.5.5 0 0 0 .5-.5v-14zM14 7V1l6 6h-6z" fill-rule="evenodd"/></symbol><symbol viewBox="0 0 24 24" id="icon-filter"><title>filter</title><path d="M23.501 0h-23a.5.5 0 0 0-.386.819l9.886 11.952V23.5a.5.5 0 0 0 .854.354l3-3a.502.502 0 0 0 .146-.354v-7.729L23.886.819A.501.501 0 0 0 23.501 0z"/></symbol><symbol viewBox="0 0 24 24" id="icon-flag"><title>flag</title><path d="M20.199 6.541L5.627.239A.986.986 0 0 0 5 0a1 1 0 0 0-1 1v22a1 1 0 1 0 2 0v-9.389l14.199-6.152a.5.5 0 0 0 0-.918z"/></symbol><symbol viewBox="0 0 24 24" id="icon-forward"><title>forward</title><path d="M12.842 8.304c.308 0 .574.008.79.02V4.546a.545.545 0 0 1 .893-.421l9.276 7.639a.547.547 0 0 1 0 .844l-9.276 7.64a.542.542 0 0 1-.58.07.544.544 0 0 1-.313-.493v-3.938a14.197 14.197 0 0 0-2.999-.319c-3.023 0-7.156.97-9.626 5.602a.537.537 0 0 1-.603.275.539.539 0 0 1-.404-.527C0 9.216 9.828 8.304 12.842 8.304z"/></symbol><symbol viewBox="0 0 24 24" id="icon-gender-female"><title>sex-female</title><path d="M13.912 13.973V16.9h3.55v3.551h-3.55V24h-3.605v-3.55h-3.55V16.9h3.55v-2.937C7.255 13.167 5 10.4 5 7.1a7.1 7.1 0 0 1 14.2 0c0 3.314-2.218 6.089-5.288 6.873zM12.1 3.551a3.55 3.55 0 1 0 3.551 3.55 3.55 3.55 0 0 0-3.55-3.55z"/></symbol><symbol viewBox="0 0 24 24" id="icon-gender-male"><title>sex-male</title><path d="M13.599 0H24l-.023 10.52-3.566-3.566-3.362 3.362a9.055 9.055 0 0 1 1.189 4.492A9.12 9.12 0 1 1 9.119 5.69a9.07 9.07 0 0 1 4.742 1.34l3.326-3.369L13.599 0zM4.56 14.81a4.56 4.56 0 1 0 9.119-.001 4.56 4.56 0 0 0-9.12 0z"/></symbol><symbol viewBox="0 0 24 24" id="icon-globe"><path d="M23 11.9v-1c-.1-1-.4-2.1-.7-3 0-.1-.1-.1-.1-.2-.5-1.2-1.2-2.3-2.1-3.2-.1 0-.1-.1-.2-.1l-.5-.5C17.4 2.1 14.8 1 12 1 9.1 1 6.5 2.1 4.6 3.9c-.5.4-.9.9-1.3 1.4C1.9 7.1 1 9.5 1 12c0 6.1 4.9 11 11 11 4.3 0 8-2.4 9.8-6 .4-.8.7-1.6.9-2.4.1-.2.1-.4.1-.7.1-.6.2-1.3.2-1.9v-.1zm-2.1-4.4c.1.1.2.3.3.4h-.3v-.4zm-1.6-1.9v-.5c.2.2.3.4.5.6l-.2.3h-.7v-.1l.4-.3zM6.1 4.3h.2v-.1h.4v.2l-.1.2h-.5v-.3zm.3.5h.2V5h-.5v-.1l.3-.1zm15.2 4.4h-.8l-.5-.4-.5.1v.3h-.2l-.2-.1-.9-.2v-.6l-1.1.1-.4.2h-.6l-.5.3v.6l-1.1.8.1.3h.2l-.1.3-.2.1v.9l1 1.1h.4v-.1h.8l.2-.2h.4l.2.2.6.1-.1.8.7 1.3-.4.7v.3l.3.3v.8l.4.5v.7h.3c-1.9 2.3-4.7 3.7-7.8 3.7-5.4 0-9.9-4.5-9.9-10.1 0-1.4.3-2.7.8-4v-.3l.4-.4c.1-.2.3-.5.4-.7v.2l-.4.5c-.2.2-.3.5-.4.7v.6l.4.2v.8l.4.7.3.1v-.2l-.3-.7-.1-.5h.2l.1.6.6.8-.1.3.4.5.9.2v-.1l.4.1v.3l.1-.1.4.1.6.7.8.1.1.6-.5.4v.6l-.1.3.8 1 .1.3.3.1.6.4v1.7l.1.1-.1.8.4.5-.1.7.5.8.6.5h.6l.1-.2-.4-.4v-.2l.1-.2v-.2h-.3l-.3-.1.2-.2v-.2l-.3-.1v-.2l.4-.1.6-.3.2-.4.6-.8v-.6l.2-.3h.6l.4-.3.1-1.2.4-.5.1-.4-.4-.1-.3-.4h-.9l-.7-.3v-.5l-.2-.4h-.6l-.4-.6-.3-.2v.2h-.6l-.2-.3-.6-.1-.6.6-.8-.1-.1-.9-.6-.1.2-.4-.1-.3-.8.5-.5-.1-.2-.4.1-.4.3-.5.6-.3h1.2v.4l.4.2v-.6L8 9l.6-.4v-.3l.6-.6.7-.4h-.1l.4-.4h.2l.1.1.2-.2h-.2l-.2-.1v-.3l.1-.1h.3l.1.2h.4v-.2h.2v.2l-.2.1v.2l1 .2h.1v-.2l-.4-.2v-.1l.4-.1V6l-.4-.2v-.6l-.5.3h-.2V5l-.7-.2-.4.2v.7l-.5.2-.2.4h-.2v-.5l-.6-.1-.2-.2-.1-.3.9-.5.4-.1v.3h.2v-.1h.3v-.1H10v-.2h.3l.2-.2.1-.1.7-.2.3.2-.8.4 1 .2.1-.3h.4l.2-.3-.3-.1v-.3l-.9-.4-.7.1-.4.2v.5l-.3-.1-.1-.3.4-.3h-.9l-.1.2h.3l-.1.3H9v.2h-.6v-.4h.5l.4-.4h-.4l-.2.3h-.4L8 3.3h-.6l-.6.4h.5v.2l-.1.1h.6l.1.2h-.7V4h-.4l-.2-.2h-.5C7.7 2.6 9.8 1.9 12 1.9c2.6 0 4.9 1 6.7 2.5l-.1.2-.5.2-.2.2v.2h.2l.1.4.4-.2.2.6h-.1l-.3-.1-.4.1-.4.5-.5.1-.1.5.2.1-.1.3-.5-.1-.5.1-.1.3.1.6.3.1h.8l.1-.3.5-.6.3.1.3-.3.1.2.8.4-.1.1h-.4l.2.2h.2l.3-.1v-.3l.1-.1-.1-.1-.5-.3-.1-.4h.4l.1.1.4.3v.4l.4.4.1-.6.3-.1.1.5.3.3h.5c0 .3.1.6.1.9zM7 6l.3-.1.2.1-.1.2-.2.1L7 6zm1.4.8V7h-.6l-.2-.1.1-.1.3-.1h.4v.1zm.3.2v.2l-.2.1h-.2V7h.4zm-.2 0v-.3l.2.2-.2.1zm.1.4v.2l-.1.2h-.4l.1-.2h.2v-.1l.2-.1zM7.8 7h.3l-.4.6-.2-.1v-.3l.3-.2zm1.4.4v.2h-.4v-.3l.4.1zm-.3-.3h.2l-.1.1-.1-.1zm12.9 2.6l.1.1-.1-.1z"/></symbol><symbol viewBox="0 0 24 24" id="icon-inbox"><path d="M8.9 7.2V5.7H6.8c-.3 0-.5.1-.6.3l-6 7.5c-.1.1-.2.3-.2.4v6.8c0 .8.7 1.5 1.5 1.5h21c.8 0 1.5-.7 1.5-1.5v-6.8c0-.2-.1-.3-.2-.5l-6-7.5c-.1-.2-.4-.3-.6-.3h-2.3v1.5h1.9l5.6 7v.5h-5.2l-3 3H9.8l-3-3H1.5v-.5l5.6-7h1.8zm3.5 7l3.5-3.5c.2-.2.2-.5 0-.7-.2-.2-.5-.2-.7 0l-2.6 2.6V2.5c-.1-.3-.3-.5-.6-.5s-.5.2-.5.5v10.1L8.9 10c-.2-.2-.5-.2-.7 0-.2.2-.2.5 0 .7l3.5 3.5c.1.1.4.2.7 0z"/></symbol><symbol viewBox="0 0 24 24" id="icon-info-circle"><title>info-circle</title><path d="M12 0C5.373 0 0 5.372 0 12s5.372 12 12 12c6.627 0 12-5.372 12-12S18.627 0 12 0zm1.12 4.332c1.17 0 1.514.679 1.514 1.455 0 .969-.775 1.865-2.098 1.865-1.108 0-1.635-.556-1.603-1.477 0-.777.649-1.843 2.188-1.843zm-2.997 14.855c-.8 0-1.383-.487-.825-2.618l.916-3.78c.16-.606.185-.848 0-.848-.238 0-1.277.417-1.89.83l-.398-.654c1.943-1.624 4.178-2.576 5.135-2.576.8 0 .932.945.533 2.4l-1.05 3.974c-.186.703-.106.945.08.945.24 0 1.025-.29 1.798-.898l.452.607c-1.89 1.89-3.952 2.618-4.75 2.618z"/></symbol><symbol viewBox="0 0 24 24" id="icon-link"><title>link</title><path d="M20.486 4.221l-.707-.706a3.97 3.97 0 0 0-2.829-1.173 3.977 3.977 0 0 0-2.827 1.172L12.135 5.5a.999.999 0 1 0 1.414 1.414l1.988-1.984c.755-.756 2.071-.757 2.828 0l.707.706c.779.78.779 2.049 0 2.829l-4.597 4.596c-.756.756-2.073.756-2.828 0a.999.999 0 0 0-1.414 0 .999.999 0 0 0-.001 1.414 4.001 4.001 0 0 0 5.657.001l4.597-4.597a4.005 4.005 0 0 0 0-5.658zm-6.012 6.011l-.706-.706a4.004 4.004 0 0 0-5.658-.001l-4.597 4.597a4.004 4.004 0 0 0 0 5.657l.707.706a3.97 3.97 0 0 0 2.829 1.173 3.973 3.973 0 0 0 2.827-1.172l2.173-2.171a.999.999 0 1 0-1.414-1.414l-2.173 2.17c-.755.756-2.071.757-2.828 0l-.707-.706a2.004 2.004 0 0 1 0-2.829l4.597-4.596c.756-.756 2.073-.756 2.828 0l.707.707a1.001 1.001 0 0 0 1.415-1.415z" fill-rule="evenodd"/></symbol><symbol viewBox="0 0 24 24" id="icon-lock"><path d="M13 24h7.003A1 1 0 0 0 21 22.993V10.007A1 1 0 0 0 20.001 9H18V6c0-3.309-2.692-6-6-6-3.309 0-6 2.691-6 6v3H3.999C3.447 9 3 9.449 3 10.007v12.986c0 .556.456 1.007.995 1.007H13zM8 6.337C8 3.891 9.794 1.9 12 1.9s4 1.99 4 4.437V9H8V6.337z"/></symbol><symbol viewBox="0 0 24 24" id="icon-logo-circle-facebook"><path d="M12 0C5.383 0 0 5.383 0 12s5.383 12 12 12 12-5.383 12-12S18.617 0 12 0zm3.595 11.5H13.5v7h-3v-7h-2v-2h2V8.336c0-1.1.352-2.819 2.649-2.819l2.351.007V7.83h-1.408c-.244 0-.592.124-.592.647V9.5h2.339l-.244 2z"/></symbol><symbol viewBox="0 0 24 24" id="icon-logo-twitter"><title>logo-twitter</title><path d="M21.174 5.08a4.95 4.95 0 0 0 2.165-2.724 9.9 9.9 0 0 1-3.126 1.195A4.923 4.923 0 0 0 16.62 2a4.92 4.92 0 0 0-4.921 4.92c0 .385.042.76.126 1.121A13.972 13.972 0 0 1 1.678 2.895a4.922 4.922 0 0 0-.666 2.475c0 1.706.867 3.215 2.189 4.096a4.928 4.928 0 0 1-2.23-.614v.06a4.923 4.923 0 0 0 3.95 4.828 4.931 4.931 0 0 1-2.226.084 4.938 4.938 0 0 0 4.597 3.421A9.873 9.873 0 0 1 0 19.285a13.925 13.925 0 0 0 7.55 2.211c9.055 0 14.008-7.503 14.008-14.008 0-.216-.004-.426-.014-.637A9.91 9.91 0 0 0 24 4.306a9.71 9.71 0 0 1-2.826.773z"/></symbol><symbol viewBox="0 0 24 24" id="icon-pencil"><title>pencil</title><path d="M21.744 6.184l-.216.216-3.937-3.938.216-.216S18.749 1 20.09 1c.59 0 1.26.243 1.959.942 2.305 2.306-.305 4.242-.305 4.242zm-1.508 1.51L6.83 21.104 1 22.999l1.895-5.833v-.002h.001L16.3 3.754l.173.174 3.763 3.766zM2.898 21.1l2.912-.838-1.99-2.119-.922 2.957z"/></symbol><symbol viewBox="0 0 24 24" id="icon-phone"><title>phone</title><path d="M21.332 16.617l-2.18-2.18a2.277 2.277 0 0 0-3.224 0l-.584.583A48.433 48.433 0 0 1 8.98 8.655l.584-.584a2.281 2.281 0 0 0 0-3.222l-2.18-2.18a2.277 2.277 0 0 0-3.224 0L2.964 3.864a3.317 3.317 0 0 0-.418 4.16 47.96 47.96 0 0 0 13.429 13.428 3.3 3.3 0 0 0 4.16-.418l1.197-1.196a2.276 2.276 0 0 0 0-3.222z"/></symbol><symbol viewBox="0 0 24 24" id="icon-pin"><title>pin</title><path d="M12 .006c-4.411 0-8 3.588-8 8 0 4.244 7.273 15.307 7.583 15.775a.501.501 0 0 0 .834 0C12.727 23.313 20 12.25 20 8.006c0-4.411-3.589-8-8-8zm0 11.5c-1.93 0-3.5-1.571-3.5-3.5s1.57-3.5 3.5-3.5 3.5 1.571 3.5 3.5-1.57 3.5-3.5 3.5z" fill-rule="evenodd"/></symbol><symbol viewBox="0 0 24 24" id="icon-question-circle"><title>question-circle</title><path d="M12 0C5.372 0 0 5.372 0 12s5.372 12 12 12c6.626 0 12-5.372 12-12.001C24 5.372 18.626 0 12 0zm-.189 18.999h-.063c-.978-.029-1.668-.75-1.64-1.714.028-.948.734-1.636 1.68-1.636l.057.002c1.005.029 1.688.743 1.659 1.734-.029.95-.723 1.614-1.693 1.614zm4.114-8.164c-.23.325-.735.732-1.373 1.229l-.702.483c-.385.3-.617.584-.704.86-.07.218-.102.277-.109.72v.113h-2.68l.007-.228c.034-.93.056-1.48.442-1.933.607-.71 1.944-1.573 2-1.609.193-.144.354-.308.474-.484.281-.389.405-.694.405-.991a1.94 1.94 0 0 0-.366-1.145c-.235-.332-.682-.497-1.327-.497-.64 0-1.078.202-1.34.62-.27.426-.406.875-.406 1.333v.115H7.482l.005-.12c.072-1.691.677-2.91 1.794-3.621.704-.451 1.58-.68 2.601-.68 1.335 0 2.466.325 3.353.965.901.649 1.358 1.621 1.358 2.889-.002.709-.226 1.375-.668 1.981z"/></symbol><symbol viewBox="0 0 24 24" id="icon-reply"><title>reply</title><path d="M11.158 8.304c-.308 0-.574.008-.79.02V4.546a.545.545 0 0 0-.893-.421L.2 11.764a.547.547 0 0 0 0 .844l9.276 7.64c.163.133.39.162.58.07a.544.544 0 0 0 .313-.493v-3.938a14.197 14.197 0 0 1 2.999-.319c3.023 0 7.156.97 9.626 5.602a.537.537 0 0 0 .603.275.539.539 0 0 0 .404-.527C24 9.216 14.172 8.304 11.158 8.304z"/></symbol><symbol viewBox="0 0 253 164" id="icon-rhinogram-logo"><path fill="#A6CE38" d="M146.6 3.4c.2-.2.1-.6-.2-.7-.5-.2-1-.4-1.8-.6-.1 0-1.5-1.4-3.5-1.1-4.1.5-3.9 5.4-5.6 7.1-2.3 2.2-9.6 7.8-11.1 8.9-.1.1 0 .3.2.3 1.4.3 5.7.9 6.4 1 .8.1.8.9 0 .8-2.3-.2-5.2-.7-7.3-1.2-3.2-.8-5.4-1.8-7.6-2.5-.1 0-.2.1-.2.2 0 2.6 1.4 7 3.3 7 3 0 6.3-1.1 7.5-1.6h.1c.5 0 4.1.4 6.9.4.1 0 .2.1.2.2.1 1.4 1.6 10.9 1.6 11.4 0 .7.7.8.7 0 0-.7.5-10.1.5-11.5 0-.1.1-.2.2-.2 8.2-.5 12.4-8.8 8.2-16.2v-.2l1.5-1.5"/><path fill="#0081C6" d="M198.1 103.7c-2 0-3.6-1.6-3.6-3.6s1.6-3.6 3.6-3.6 3.6 1.6 3.6 3.6-1.6 3.6-3.6 3.6zM64.2 77.6c0-.7.3-1.3.8-1.9.5-.5 1.1-.8 1.8-.8s1.3.3 1.8.8.8 1.1.8 1.9c0 .7-.3 1.4-.8 1.9s-1.1.8-1.8.8-1.3-.3-1.8-.8-.8-1.1-.8-1.9zm183.6-18.1c-8.5 9.5-24 30.8-37.6 23.7-4.9-2.6-4.3-11.3-3.6-16.2.2-1.5-1.4-2.6-2.7-2-2.3.9-5.4 2.3-8.9 3.3-8.8 2.4-17.3 1.4-29.2-8.1C150.4 47.9 145.6 33 135 33c-12.9 0-24.6 20.1-47.5 20.1-16.1 0-19.4-7.7-37.8-7.7C6.6 45.4 1 114.2 1 121.2c0 1.3 1 2.5 2.3 2.6.8.1 2-.4 2.4-2.2 1.4-17.2 8-34.3 8.3-35.3.3-.8 1-2 1.8-1.7.8.3.5.9.4 1.8-.8 4.7-1.9 11.3-1.9 21.7 0 24.8 13.4 46.1 16.9 52.2.6 1.1 1.8 1.8 3.1 1.8H54c1.5 0 2.7-1.1 2.7-2.6.5-7.4 3.5-28.2 22.6-28.2 22.3 0 25 22.5 26.4 29.3.3 1.3 1.4 2.2 2.7 2.2H128c1.5 0 2.6-1.2 2.6-2.7 0-10.8 1.7-22.6 7.4-28.7 2.6-2.8 6-2.7 10.8-.8 9.4 3.6 28.5 10.6 46.2 8.3 23-3 38.7-16 48.1-36.9 6.7-14.8 8.2-31.9 8.8-41.1.2-2.5-2.8-2.9-4.1-1.4zM32.9 85h4v1.6c.7-.8 1.4-1.3 1.9-1.6.6-.3 1.3-.5 2-.5 1 0 2.1.4 3.3 1.1l-1.8 3.8c-.7-.6-1.5-.8-2.2-.8-2.2 0-3.2 1.7-3.2 5.1v9.2h-4V85zM46 76.4h4v10.1c1.4-1.3 3-2 4.7-2 1.9 0 3.5.7 4.6 2 1 1.1 1.5 2.9 1.5 5.4v10.9h-4V92.3c0-1.4-.2-2.5-.7-3.1-.5-.6-1.3-1-2.3-1-1.4 0-2.4.4-2.9 1.3-.7 1-.9 2.5-.9 4.7v8.6h-4V76.4zM64.8 85h4v17.8h-4V85zm8.1 0h4v1.6c1.4-1.4 2.9-2.1 4.7-2.1 2 0 3.5.7 4.7 2 1 1.1 1.4 2.9 1.4 5.4v10.9h-4v-9.9c0-1.8-.2-3-.7-3.6-.5-.7-1.3-1-2.5-1-1.3 0-2.2.5-2.8 1.4-.5.9-.8 2.4-.8 4.7v8.6h-4V85zm18 8.8c0-2.6.9-4.8 2.7-6.6 1.8-1.8 3.9-2.7 6.5-2.7s4.7.9 6.5 2.7c1.8 1.8 2.6 4 2.6 6.7s-.9 4.9-2.7 6.7c-1.8 1.8-4 2.7-6.6 2.7-2.6 0-4.7-.9-6.4-2.7-1.7-1.8-2.6-4.1-2.6-6.8zm38.1 8.6c0 .8 0 1.6-.1 2.2-.1.6-.1 1.2-.2 1.7-.3 1.3-.8 2.5-1.7 3.5-1.5 1.9-3.7 2.8-6.4 2.8-2.3 0-4.2-.6-5.6-1.9-1.5-1.3-2.4-3.1-2.6-5.5h4c.2.9.4 1.6.8 2 .8 1.1 2 1.7 3.6 1.7 2.9 0 4.3-1.8 4.3-5.5v-2.5c-1.6 1.7-3.4 2.5-5.4 2.5-2.3 0-4.2-.9-5.7-2.6-1.5-1.8-2.2-4-2.2-6.7 0-2.6.7-4.8 2.1-6.6 1.5-1.9 3.5-2.9 5.9-2.9 2.2 0 3.9.8 5.4 2.5v-2h4v17.3zm4.1-17.4h4v1.6c.7-.8 1.4-1.3 1.9-1.6.6-.3 1.3-.5 2-.5 1 0 2.1.4 3.3 1.1l-1.8 3.8c-.7-.6-1.5-.8-2.2-.8-2.2 0-3.2 1.7-3.2 5.1v9.2h-4V85zm24.9 0h4v17.8h-4V101c-1.6 1.6-3.4 2.4-5.3 2.4-2.4 0-4.3-.9-5.9-2.7-1.5-1.8-2.3-4.1-2.3-6.8s.8-4.9 2.3-6.7c1.5-1.8 3.5-2.7 5.8-2.7 2 0 3.8.9 5.4 2.6V85zm-9.4 8.9c0 1.7.4 3.1 1.3 4.2s2 1.6 3.4 1.6c1.5 0 2.6-.5 3.5-1.6.9-1.1 1.4-2.5 1.4-4.1 0-1.7-.5-3-1.4-4.1-.9-1.1-2.1-1.6-3.5-1.6s-2.5.5-3.4 1.6c-.8 1-1.3 2.4-1.3 4zm17.5-8.9h4v1.6c.8-.8 1.4-1.4 2-1.7.6-.3 1.3-.5 2.2-.5 1.9 0 3.5.9 4.6 2.6 1.2-1.8 2.9-2.6 5-2.6 3.9 0 5.8 2.4 5.8 7.3v11h-4V93c0-1.7-.2-2.9-.6-3.6-.4-.7-1.1-1.1-2-1.1-1.1 0-1.9.4-2.4 1.3s-.7 2.2-.7 4.1v9.2h-4V93c0-3.2-.9-4.8-2.6-4.8-1.1 0-1.9.4-2.4 1.3s-.8 2.2-.8 4.1v9.2h-4V85zM95 93.9c0 1.8.5 3.2 1.4 4.2.9 1 2.2 1.6 3.7 1.6s2.8-.5 3.7-1.6c.9-1 1.4-2.4 1.4-4.2 0-1.7-.5-3.1-1.4-4.1-.9-1-2.2-1.6-3.7-1.6s-2.7.5-3.7 1.6-1.4 2.4-1.4 4.1zm30.2.1c0-1.7-.4-3.1-1.3-4.1-.9-1.1-2.1-1.6-3.5-1.6-1.5 0-2.7.6-3.5 1.7-.8 1-1.2 2.4-1.2 4s.4 2.9 1.2 4c.9 1.1 2 1.7 3.5 1.7s2.7-.6 3.6-1.7c.8-1.1 1.2-2.4 1.2-4z"/></symbol><symbol viewBox="0 0 253 164" id="icon-rhinogram-logo-reversed"><path fill="#A6CE38" d="M146.7 3.5c.2-.2.1-.6-.2-.7-.5-.2-1-.4-1.8-.6-.1 0-1.5-1.4-3.5-1.1-4.1.5-3.9 5.4-5.6 7.1-2.3 2.2-9.7 7.8-11.1 8.9-.1.1 0 .3.2.3 1.4.3 5.7.9 6.4 1 .8.1.8.9 0 .8-2.3-.2-5.2-.7-7.3-1.2-3.2-.8-5.4-1.8-7.6-2.5-.1 0-.2.1-.2.2 0 2.6 1.4 7 3.3 7 3 0 6.3-1.1 7.5-1.6h.1c.5 0 4.1.4 6.9.4.1 0 .2.1.2.2.1 1.4 1.6 10.9 1.6 11.4 0 .7.7.8.7 0 0-.7.5-10.2.6-11.6 0-.1.1-.2.2-.2 8.2-.5 12.4-8.8 8.2-16.2v-.2l1.4-1.4z"/><path fill="#FFF" d="M247.8 59.6c-8.5 9.6-24 30.8-37.6 23.7-4.9-2.6-4.3-11.3-3.6-16.2.2-1.5-1.4-2.6-2.7-2-2.3.9-5.4 2.3-8.9 3.3-8.8 2.4-17.3 1.4-29.2-8.1C150.5 48 145.6 33 135.1 33c-12.9 0-24.6 20.1-47.5 20.1-16.1 0-19.4-7.7-37.8-7.7C6.6 45.4 1 114.3 1 121.3c0 1.3 1 2.5 2.3 2.6.8.1 2-.4 2.4-2.2 1.4-17.2 8-34.4 8.3-35.3.3-.8 1-2 1.8-1.7s.5.9.4 1.8c-.8 4.7-1.9 11.3-1.9 21.8 0 24.8 13.4 46.1 16.9 52.2.6 1.1 1.8 1.8 3.1 1.8H54c1.5 0 2.7-1.1 2.8-2.6.5-7.4 3.5-28.2 22.6-28.2 22.3 0 25 22.5 26.4 29.3.3 1.3 1.4 2.2 2.7 2.2h19.6c1.5 0 2.6-1.2 2.6-2.7 0-10.8 1.7-22.6 7.4-28.7 2.6-2.8 6-2.7 10.8-.8 9.4 3.6 28.5 10.6 46.2 8.3 23-3 38.7-16.1 48.1-36.9 6.7-14.8 8.2-32 8.8-41.1.1-2.6-2.8-3-4.2-1.5zm-49.7 44.2c-2 0-3.7-1.6-3.7-3.6s1.6-3.6 3.7-3.6c2 0 3.6 1.6 3.6 3.6.1 2-1.5 3.6-3.6 3.6z"/><path fill="#0081C6" d="M32.9 85.1h4v1.6c.7-.8 1.4-1.3 1.9-1.6.6-.3 1.3-.5 2-.5 1 0 2.1.4 3.3 1.1l-1.8 3.8c-.7-.6-1.5-.8-2.2-.8-2.2 0-3.2 1.7-3.2 5.1v9.2h-4V85.1zM46 76.5h4v10.1c1.4-1.3 3-2 4.7-2 1.9 0 3.5.7 4.6 2 1 1.1 1.5 3 1.5 5.4v11h-4V92.4c0-1.4-.2-2.5-.7-3.1s-1.3-1-2.3-1c-1.4 0-2.4.4-2.9 1.3s-.8 2.5-.8 4.7v8.6h-4L46 76.5z"/><path fill="#1782C5" d="M64.3 77.7c0-.7.3-1.3.8-1.9.5-.5 1.1-.8 1.8-.8s1.3.3 1.8.8.8 1.1.8 1.9c0 .7-.3 1.4-.8 1.9s-1.1.8-1.8.8-1.3-.3-1.8-.8c-.6-.5-.8-1.1-.8-1.9z"/><path fill="#0081C6" d="M64.9 85.1h4v17.8h-4V85.1zm8 0h4v1.6c1.4-1.4 2.9-2.1 4.7-2.1 2 0 3.5.7 4.7 2 1 1.1 1.4 2.9 1.4 5.4v11h-4V93c0-1.8-.2-3-.7-3.6-.5-.7-1.3-1-2.5-1-1.3 0-2.2.5-2.8 1.4-.5.9-.8 2.4-.8 4.7v8.6h-4v-18zm18 8.8c0-2.6.9-4.8 2.7-6.6 1.8-1.8 3.9-2.7 6.5-2.7s4.7.9 6.5 2.7c1.8 1.8 2.6 4.1 2.6 6.7 0 2.7-.9 4.9-2.7 6.7-1.8 1.8-4 2.7-6.6 2.7s-4.7-.9-6.4-2.7c-1.7-1.8-2.6-4.1-2.6-6.8zm4.1.1c0 1.8.5 3.2 1.4 4.2s2.2 1.6 3.7 1.6 2.8-.5 3.7-1.6c.9-1 1.4-2.4 1.4-4.2 0-1.7-.5-3.1-1.4-4.2-.9-1-2.2-1.6-3.7-1.6s-2.7.5-3.7 1.6C95.4 91 95 92.3 95 94zm34 8.5c0 .8 0 1.6-.1 2.2s-.1 1.2-.2 1.7c-.3 1.3-.8 2.5-1.7 3.5-1.5 1.9-3.7 2.8-6.4 2.8-2.3 0-4.2-.6-5.6-1.9-1.5-1.3-2.4-3.1-2.6-5.5h4c.2.9.4 1.6.8 2 .8 1.1 2 1.7 3.6 1.7 2.9 0 4.3-1.8 4.3-5.5V101c-1.6 1.7-3.4 2.5-5.4 2.5-2.3 0-4.2-.9-5.7-2.6-1.5-1.8-2.2-4-2.2-6.7 0-2.6.7-4.8 2.1-6.6 1.5-1.9 3.5-2.9 5.9-2.9 2.2 0 3.9.8 5.4 2.5v-2h4v17.3h-.2zm-3.8-8.4c0-1.7-.4-3.1-1.3-4.1-.9-1.1-2.1-1.6-3.5-1.6-1.5 0-2.7.6-3.6 1.7-.8 1-1.2 2.4-1.2 4s.4 2.9 1.2 4c.9 1.1 2 1.7 3.6 1.7 1.5 0 2.7-.6 3.6-1.7.8-1.1 1.2-2.4 1.2-4zm7.9-9h4v1.6c.7-.8 1.4-1.3 1.9-1.6.6-.3 1.3-.5 2-.5 1 0 2.1.4 3.3 1.1l-1.8 3.8c-.7-.6-1.5-.8-2.2-.8-2.2 0-3.2 1.7-3.2 5.1v9.2h-4V85.1zm25 0h4V103h-4v-1.9c-1.6 1.6-3.4 2.4-5.3 2.4-2.4 0-4.3-.9-5.9-2.7-1.5-1.8-2.3-4.1-2.3-6.8s.8-4.9 2.3-6.7c1.5-1.8 3.5-2.7 5.8-2.7 2 0 3.8.9 5.4 2.6v-2.1zm-9.4 8.9c0 1.7.4 3.1 1.3 4.2s2 1.6 3.4 1.6c1.5 0 2.6-.5 3.5-1.6s1.4-2.5 1.4-4.1c0-1.7-.5-3.1-1.4-4.1-.9-1.1-2.1-1.6-3.5-1.6s-2.5.5-3.4 1.6c-.9 1-1.3 2.4-1.3 4zm17.4-8.9h4v1.6c.8-.8 1.4-1.4 2-1.7.6-.3 1.3-.5 2.2-.5 1.9 0 3.5.9 4.6 2.6 1.2-1.8 2.9-2.6 5-2.6 3.9 0 5.8 2.4 5.8 7.3v11h-4v-9.9c0-1.7-.2-2.9-.6-3.6-.4-.7-1.1-1.1-2-1.1-1.1 0-1.9.4-2.4 1.3s-.7 2.2-.7 4.1v9.2h-4V93c0-3.2-.9-4.8-2.6-4.8-1.1 0-1.9.4-2.4 1.3s-.8 2.2-.8 4.1v9.2h-4V85.1h-.1z"/></symbol><symbol viewBox="0 0 24 24" id="icon-search"><path d="M9 18a8.955 8.955 0 0 0 5.633-1.992l7.658 7.697a1 1 0 1 0 1.418-1.411l-7.668-7.707A8.939 8.939 0 0 0 18 9c0-4.963-4.037-9-9-9S0 4.037 0 9c0 4.962 4.037 9 9 9zM9 2c3.859 0 7 3.14 7 7 0 3.859-3.141 7-7 7-3.86 0-7-3.141-7-7 0-3.86 3.14-7 7-7z"/></symbol><symbol viewBox="0 0 24 24" id="icon-sms"><path d="M11.997.903c-6.617 0-12 4.434-12 9.883 0 2.573 1.177 4.985 3.325 6.831l-2.41 4.812a.497.497 0 0 0 .447.723.491.491 0 0 0 .211-.047l6.437-2.995c1.278.37 2.619.558 3.99.558 6.617 0 12-4.433 12-9.882s-5.384-9.883-12-9.883z"/></symbol><symbol viewBox="0 0 24 24" id="icon-star"><path d="M23.973 8.336A.501.501 0 0 0 23.5 8h-8.146L12.472.334a.5.5 0 0 0-.944 0L8.646 8H.5a.501.501 0 0 0-.309.893l6.723 5.783-2.889 8.666a.5.5 0 0 0 .77.561L12 18.62l7.205 5.283a.5.5 0 0 0 .77-.561l-2.889-8.666 6.723-5.783a.5.5 0 0 0 .164-.557z"/></symbol><symbol viewBox="0 0 24 24" id="icon-tag"><title>tag</title><path d="M23.854 14.647L9.346.16a.5.5 0 0 0-.354-.146L.5 0a.5.5 0 0 0-.5.5L.008 9a.5.5 0 0 0 .147.353l14.491 14.501a.5.5 0 0 0 .707 0l8.501-8.5a.5.5 0 0 0 0-.707zM5.5 8.007a2.503 2.503 0 0 1-2.5-2.5c0-1.379 1.121-2.5 2.5-2.5 1.378 0 2.5 1.121 2.5 2.5 0 1.378-1.122 2.5-2.5 2.5z" fill-rule="evenodd"/></symbol><symbol viewBox="0 0 24 24" id="icon-trash"><path d="M23 3h-7V.5a.5.5 0 0 0-.5-.5h-8a.5.5 0 0 0-.5.5V3H1a.5.5 0 0 0 0 1h2v19.5a.5.5 0 0 0 .5.5h16a.5.5 0 0 0 .5-.5V4h3a.5.5 0 0 0 0-1zM8 18.5a.5.5 0 0 1-1 0v-11a.5.5 0 0 1 1 0v11zM8 1h7v2H8V1zm4 17.5a.5.5 0 0 1-1 0v-11a.5.5 0 0 1 1 0v11zm4 0a.5.5 0 0 1-1 0v-11a.5.5 0 0 1 1 0v11z"/></symbol><symbol viewBox="0 0 24 24" id="icon-upload"><title>upload</title><path d="M12.708.293a1 1 0 0 0-1.415 0l-7 6.999a.999.999 0 1 0 1.414 1.414L11 3.413v14.195a1 1 0 0 0 2 0V3.413l5.293 5.293a.999.999 0 1 0 1.414-1.414L12.708.293zM23 16.718a1 1 0 0 0-1 1v1.913C22 20.675 21.119 22 20.13 22H3.869C2.88 22 2 20.675 2 19.631v-1.913a1 1 0 0 0-2 0v1.913C0 21.693 1.654 24 3.869 24H20.13c2.215 0 3.87-2.307 3.87-4.369v-1.913a1 1 0 0 0-1-1z"/></symbol><symbol viewBox="0 0 24 24" id="icon-user"><path d="M16.489 9.754c.808-.764.749-2.433.094-3 .521-1.385 1.189-2.997.907-4.409C17.144.614 14.686 0 12.686 0c-1.551 0-3.435.391-4.029 1.461-.597.066-1.058.313-1.373.737-.868 1.172-.275 2.971.152 4.537-.655.568-.733 2.255.075 3.019.111 1.588 1.05 2.561 1.489 2.934v2.408c-.421.157-.833.309-1.234.456-3.471 1.276-5.979 2.199-6.713 3.668C.012 21.301 0 23.411 0 23.5a.5.5 0 0 0 .5.5h23a.5.5 0 0 0 .5-.5c0-.089-.012-2.199-1.053-4.28-.735-1.47-3.243-2.392-6.714-3.668-.4-.148-.813-.299-1.233-.456v-2.408c.439-.374 1.378-1.346 1.489-2.934z"/><path fill="none" d="M0 0h24v24H0z"/></symbol><symbol viewBox="0 0 32 32" id="icon-warning"><path d="M31.219 28.771L16.966 3.761c-.197-.346-.566-.558-.966-.558s-.768.213-.966.558L.783 28.771c-.194.339-.19.754.008 1.09s.563.542.957.542h28.504c.39 0 .757-.206.957-.542.198-.336.201-.75.011-1.09zM17.76 27.203h-3.52v-3.2h3.52v3.2zm0-5.6h-3.52v-9.6h3.52v9.6z"/></symbol></svg>