<svg xmlns="http://www.w3.org/2000/svg" width="32" height="32" viewBox="0 0 32 32"><path d="M19.803 23.117c-3.986-1.437-5.259-2.65-5.259-5.246 0-1.558 1.218-1.05 1.752-3.904.222-1.184 1.298-.019 1.501-2.722 0-1.077-.586-1.346-.586-1.346s.299-1.595.414-2.821c.144-1.53-.893-5.478-6.426-5.478s-6.57 3.949-6.426 5.478c.117 1.227.416 2.821.416 2.821s-.587.267-.587 1.346c.206 2.702 1.282 1.538 1.501 2.722.536 2.854 1.754 2.346 1.754 3.904 0 2.597-1.275 3.81-5.261 5.246-.48.171-1.624.44-2.597.861V30.4h25.6v-3.368c0-1.002-1.797-2.474-5.797-3.915zM27.2 14.4V9.6H24v4.8h-4.8v3.2H24v4.8h3.2v-4.8H32v-3.2h-4.8z"/></svg>