<svg xmlns="http://www.w3.org/2000/svg" width="32" height="32" viewBox="0 0 32 32"><path d="M22.969 23.568c-.592-.093-.606-1.708-.606-1.708s1.74-1.708 2.119-4.005c1.02 0 1.65-2.442.63-3.301.043-.904 1.311-7.099-5.112-7.099s-5.155 6.195-5.112 7.099c-1.02.859-.39 3.301.63 3.301.379 2.297 2.12 4.005 2.12 4.005s-.014 1.615-.606 1.708C15.124 23.869 8 26.984 8 30.4h24c0-3.416-7.124-6.531-9.031-6.832zm-12.217.545c1.378-.848 3.051-1.635 4.423-2.107-.492-.701-1.04-1.654-1.385-2.783-.481-.393-.873-.954-1.125-1.644a4.907 4.907 0 0 1-.269-2.178c.056-.512.202-.99.427-1.409-.136-1.456-.232-4.314 1.639-6.398.725-.808 1.642-1.389 2.741-1.74-.196-2.024-1.224-4.399-5.202-4.399-6.424 0-5.155 6.195-5.112 7.099-1.02.859-.39 3.301.63 3.301.379 2.297 2.12 4.005 2.12 4.005s-.014 1.615-.606 1.708C7.125 17.869.002 20.984.002 24.4h10.3c.147-.096.297-.192.452-.287z"/></svg>