<svg xmlns="http://www.w3.org/2000/svg" width="32" height="32" viewBox="0 0 32 32"><path d="M23.712 23.117c-3.944-1.437-5.205-2.65-5.205-5.246 0-1.558 1.205-1.05 1.733-3.904.219-1.184 1.283-.019 1.488-2.722 0-1.077-.581-1.346-.581-1.346s.296-1.595.411-2.821c.141-1.53-.883-5.478-6.358-5.478-5.474 0-6.501 3.949-6.357 5.478.115 1.226.411 2.821.411 2.821s-.582.267-.582 1.346c.203 2.702 1.267 1.538 1.486 2.722.53 2.854 1.734 2.346 1.734 3.904 0 2.597-1.261 3.81-5.205 5.246-3.958 1.44-6.528 2.91-6.528 3.914v3.368h30.08v-3.368c0-1.002-2.571-2.472-6.528-3.914z"/></svg>