<svg xmlns="http://www.w3.org/2000/svg" width="24" height="24" viewBox="0 0 24 24"><path d="M16.489 9.754c.808-.764.749-2.433.094-3 .521-1.385 1.189-2.997.907-4.409C17.144.614 14.686 0 12.686 0c-1.551 0-3.435.391-4.029 1.461-.597.066-1.058.313-1.373.737-.868 1.172-.275 2.971.152 4.537-.655.568-.733 2.255.075 3.019.111 1.588 1.05 2.561 1.489 2.934v2.408c-.421.157-.833.309-1.234.456-3.471 1.276-5.979 2.199-6.713 3.668C.012 21.301 0 23.411 0 23.5a.5.5 0 0 0 .5.5h23a.5.5 0 0 0 .5-.5c0-.089-.012-2.199-1.053-4.28-.735-1.47-3.243-2.392-6.714-3.668-.4-.148-.813-.299-1.233-.456v-2.408c.439-.374 1.378-1.346 1.489-2.934z"/><g><path fill="none" d="M0 0h24v24H0z"/></g></svg>