<svg xmlns="http://www.w3.org/2000/svg" xmlns:xlink="http://www.w3.org/1999/xlink" preserveAspectRatio="none" width="760" height="880" viewBox="614 10 760 880"><defs><path fill="#a6ce38" d="M1028.9 506.05q-.2.1-.35.2l-1.9 1.2q-.95.65-1.9 1.25-1.4.95-2.85 1.95-1.4 1-2.85 2.05l.5-.1q.5-.1 1-.15.5-.05.95-.1 1.95-1.65 3.85-3.3 1.95-1.65 3.9-3.2l-.35.2M683.45 168.3q-2.45-1.35-5.45-2.25-3.05-.95-5.9-.5-.6-.15-1.35-.1l-.95.1q-12.9 1.6-16.75 9.25-3.85 7.6-1.8 18.25 2.1 10.7 7 21.55 1.15 5.6 3.5 11.8 2.3 6.25 5.45 12.65-7.85-4.6-16.8-5.1-8.9-.5-13.6 9.6l-.15.55q-.15.5-.35.9-.35 1.1-.65 2.5l-.35 1.7q-1.25 7.25-.6 15.1t3.05 15.05q4.2 17.55 15.1 37.1 10.85 19.5 23.5 37.15 12.65 17.6 22.25 29.55 4.85 6.15 9.95 11.9 5.05 5.75 10.3 11.1-4.2 1.8-7.25 5.05-3.1 3.2-5.4 7.45-.8 1.5-1.5 3.05-.65 1.5-1.2 3.05.8 4.2 2.2 8.2 1.4 4 3.3 7.85 3.35 6.6 7.8 12.55 4.45 5.95 9.45 11.15 3.6 3.75 7.5 7.4 3.9 3.65 8.1 7.25 3.25 2.8 6.6 5.5 3.4 2.7 6.85 5.4 7.75 5.9 15.85 11.55 8.05 5.7 16.25 11.1l.3.2.2.1q.1.05.2.15l3.4 2.25q3.75 2.45 7.45 4.85 3.7 2.35 7.35 4.7l8.85 5.65q4.35 2.8 8.55 5.5l.5.05.5.1q4.35.6 8.85 1.2 4.5.55 9.1 1.05 16.2 1.65 32.65 3.4t31.2 4.8q4.3.9 8.5 1.7 4.15.8 8.3 1.45 7.25 1.2 14.45 2.15 7.25.95 14.65 1.8 4.35-7.15 8.75-13.55 4.35-6.35 6.45-10.1 7.2-14.4 15.05-23.4 7.85-9 22.75-18.4.75-.45 1.5-.95.75-.5 1.45-1.05-11.6-8.25-22.95-16.65-11.35-8.4-22.45-17-62.25-48.05-116.65-100.1-54.4-52.05-101.35-107.1-12.1-14.2-23.75-28.5-11.6-14.35-22.75-28.85-3.8-4.95-7.55-9.9t-7.45-9.95z" id="a"/><path fill="#a6ce38" d="M1301.9 418.3l3.45-3.15q1-3-6.25-3.7-7.05.9-13.8 1.55-6.75.7-12.65.9h-1.05q-78.3 7.3-155.3-.15-76.95-7.45-152-25.55-34.65-6.1-68.75-13.85t-67.2-17.65q-4.9-1.45-9.75-3-4.85-1.5-9.7-3.1-2.05-.7-4.15-1.35l-4.1-1.4q-6.35-2.15-12.75-4.45-6.35-2.35-12.8-4.85-2.4 0-5.35.65-2.95.6-5.05 2.45-.55.15-1 .55l-.65.5q-8.55 7.05-7.95 14.6.6 7.5 6.85 14.65t14.5 13.15q3.35 3.75 7.8 7.45 4.45 3.7 9.55 7.2-1.35.25-3.2.7-1.8.5-3.4 1.15-1.1.4-2.15.8-1.1.45-2.1.85-.2.25-.5.35l-.4.1q-7.5 5.2-6.6 12.6.9 7.4 6.6 14.95 6.9 14.1 24.8 26.45 17.85 12.4 38.25 21.9 20.4 9.55 34.85 15.1 6.2 2.5 12.4 4.55 6.15 2.05 12.25 3.75-2.15 3.25-2.95 7.1-.75 3.85-.55 8.1.1 1.65.3 3.2.2 1.55.55 3.05 6 12.2 19.05 20.15 13.1 8 28.4 13.25 15.3 5.25 28.1 9.2-.55 1.3-.7 2.6-.2 1.3-.15 2.25 1.35 14.3 11.25 22 9.95 7.7 22.75 11 13.9 3.95 30 5.9 16.1 2 33.45 2.2 3.65-.65 7.3-1.35 3.65-.65 7.3-1.35 12.75-2.45 25.4-5.15 12.65-2.65 25.05-5.45 5.2-1.15 10.3-2.35 5.15-1.15 10.25-2.35 1.6-.35 3.2-.75 1.6-.35 3.25-.75 4.65-1.15 9.4-2.35 4.75-1.25 9.55-2.55 11-3.05 22.05-6.6t21.9-7.6q1.5-.55 3-1.15 1.5-.55 3-1.15l.35-.1.3-.15q.05-.15.05-.3.05-.15.05-.3-.1-.15-.2-.25-.1-.15-.25-.2.9-4.5 1.6-8.7.7-4.2 1.05-5.8 6.9-30.55 11.2-61.4 4.35-30.85 10.5-61.6.1-.6.4-1.7.3-1.1.65-2.5 8.7-1.35 16.95-3.2t15.9-4.2l8.3-3.4m-503.05-2.85l-.25-.4q-.1-.2-.25-.35.15-.2.25-.35l.25-.35v1.45m-19-3.05q.1 1 .3 2 .2 1.05.45 2.05l-.1.3q-.05.2-.1.35-.4-1.2-.55-2.4-.15-1.2 0-2.3z" id="b"/><path fill="#a6ce38" d="M797.6 692.75l11.5 6.7q11.3 6.35 30.65 14.8 19.35 8.45 43.85 15l-1.95-12.9q-1.95-12.2.3-29.25 2.3-17.1 15.1-32.5 12.8-15.45 42.35-22.7 39.55-9.75 48.3-22.5 8.8-12.75-5.65-18-14.45-5.3-44.55 7.15-22.5 10.45-46.75 26-24.2 15.55-45.3 31.15-21.1 15.55-34.3 26.1l-13.55 10.95z" id="c"/><path fill="#a6ce38" d="M1130.95 339q-16.55-5.05-53.35-12.15-36.85-7.15-78.85-9.9-42.05-2.8-74.2 5.15-34.1 10.1-75.15 35.45-41.1 25.3-75.2 52.65-34.1 27.4-47.15 43.7-12.15 15.65-23.55 32.5t-19.4 29.5l-10.15 15.7 19.65 4.1q3.95-.5 12.2-2.5t18.9-7.9q10.65-5.95 21.8-18.2 19.6-20 52-16.55 32.4 3.5 67.25 15.5 34.8 11.95 61.7 17.6 26.25 4.7 56.45 3.35 30.2-1.35 61.5-12.45t60.9-35.6l-1-7.05 4.3-15.65q6.95-19.9 16.2-45.75 9.2-25.85 12.55-46.5 3.35-20.7-7.4-25z" id="d"/><path fill="#a6ce38" d="M1014.75 275.85q-14.05-10.5-36.05-11.4-13.65-.15-23.75 4.75-10.05 4.85-17 12.35-7 7.45-11.3 15.15-4.35 8.4-8.1 26.45-3.7 18.1-6.1 34.4l-2.75 19.55 3.7 3.15 10.3 3.45q13.6 3.6 30.3 6.25 16.7 2.7 26.35 3 9.45.05 24.45-2.55 14.95-2.55 27.85-6.7 12.9-4.1 16.1-8.7l-2.2-17.85q-2.05-13.4-5.3-28.85-3.2-15.45-6.85-26.15-5.6-15.85-19.65-26.3z" id="e"/><path fill="#a6ce38" d="M1051.9 298q-7.95 7.65-9.7 18.25-1.75 10.6 2.45 19.65 4.25 9 14.3 11.8 4.65-2.05 14.6-9.5t18.2-19.15l-1.75-1.55-4.85-3.4q-6.35-4.35-15.5-9.2-9.2-4.85-17.75-6.9z" id="f"/><path fill="#0083CB" d="M1010.6 309.3l-1-1.85-1.35-1.65-1.6-1.35-1.9-1-2-.6-2.15-.2-2.1.2-2 .6-1.9 1-1.6 1.35-1.35 1.65-1 1.85-.65 2.05-.2 2.1.2 2.1.65 2.05 1 1.85 1.35 1.65 1.6 1.35 1.9 1 2 .6 2.1.2 2.15-.2 2-.6 1.9-1 1.6-1.35 1.35-1.65 1-1.85.65-2.05.2-2.1-.2-2.1-.65-2.05z" id="g"/><path fill="#a6ce38" d="M1002.55 287.3q-8.85.45-13.15 6.95-4.3 6.55-5.15 14.7l35.45.25-1.05-5.7q-1.15-5.3-4.8-10.6-3.7-5.25-11.3-5.6z" id="h"/><path fill="#FFF" d="M1090.25 246.8q-6.4-5.7-11-12.6-4.65-6.9-6.9-13.05L1055.1 378.2q2.45.85 7.75 1.3 5.3.45 11.95.65 6.6.25 13 .45t10.95.5q14.65 1.4 28.1.6 13.45-.8 25.55-6.3 12.1-5.45 22.7-18.15 11.7-14.5 22-30.8l20.6-32.6q10.35-16.35 22.1-30.95 3.25-4.1 7.45-10.2 4.2-6.15 8.2-12.1 3.95-5.9 6.55-9.3l1.95-2.2.7.25q.25-2.5-5.9-4.15-6.2-1.65-15.4-2.4-9.25-.75-18.15-.5-8.9.3-14.1 1.7-10.1 3-18.65 5.75-8.5 2.75-15.6 4.85-7.1 2.05-12.85 2.95-11.45 1.75-20.05 5.25-8.6 3.5-14.7 6.9-6.05 3.4-9.85 5-7.85 2.7-15.3.25-7.45-2.45-13.85-8.15z" id="i"/><path fill="#0081c6" d="M1054.15 239q-.45-12.8-1.15-25.5l-.2-3.2q-.15-1.6-.35-3.2-.05-.35-.1-.75t-.15-.75l-.15-.4-.05-.25q0-.1-.1-.1l-.2-.05-.35-.15q-1.2-.65-2.75-.95-1.5-.35-2.85-.55-1.5-.3-2.95-.7-1.45-.45-2.95-.55-.7-.05-1.4-.05-.7-.05-1.4-.15l-.75-.1q-.4-.05-.75-.1l-.75-.15q-.55-.1-1.05-.2v.9l-.05.35v.2q-.05 3.25-.05 6.55-.05 3.25-.3 6.5-.3 4.65-.05 9.4.25 4.8.4 9.5.15 12.3.1 24.6 0 12.35.2 24.65.2 14.6-.15 29.25-.4 14.6-.7 29.25-.3 14.6.1 29.2.05 1.85.1 3.95t.25 4.15q.2 2.05.7 3.8l.2.6q.1.35.25.65l.4.8q.35.65.7 1.2.4.5 1 .85.65.35 1.2.2 1-.35 1.35-1.15.4-.85.45-1.85.05-1 .1-1.95 1.05-13.3 1.65-26.65.6-13.4 1-26.75.2-6.35.55-12.5.35-6.15 1.2-12.45.6-4.8 1.4-9.55.8-4.8 1.7-9.55l.2-1.1q.15-.9.3-1.65-.05.45-.05.95v.65q-.1 4.8.05 9.55.15 4.75 0 9.6-.3 6.25-.7 12.75-.4 6.5-.3 13 .1 6.5 1.25 12.65.4 2.4.35 4.5-.05 2.05-.15 4.45 0 .6-.05 1.5 0 .9.2 1.4l.4.85.35.3.25-.25.25-.65-.05 1.7q-.25 5.8-.6 11.55-.4 5.8-.35 11.55.05 2.3.05 4.65 0 2.35.3 4.6.1.4.15.75.1.4.2.75l.1.35.25.6q.3.7.7 1.25.45-.25.9-.65l.55-.55q1.35-1.65 1.6-4.3t.1-5.4q-.2-2.75-.25-4.75.15-8.2.65-16.45.5-8.3.8-16.5.35-9.8.45-19.5.05-9.65-.25-19.45-.1-2.5-.2-4.95-.1-2.4-.15-4.95 0-7.4-.05-14.8-.1-7.45-.1-14.85 0-12.7-.45-25.45z" id="j"/><path fill="#FFF" d="M1048.65 210.05q-.05-.65-.05-1.25-.45 0-1 .05l-.45.05h-.25q-1.7.1-3.45.2l-6.15.4q-.85.05-1.55.1v1.7q.5 62.5-.05 125.2-.6 62.7-3.45 125.25-2.85 62.6-9.3 124.8-4.35 40.95-9.4 81.75-5 40.85-10.4 81.65-1.25 9.6-2.5 19.25-1.3 9.6-2.5 19.25l-.1.8-.1.8-.15.8q-.05.65-.15 1.2-.05.4-.1.95l-.1.65-.2 1.6-.2 1.6-.1.85q-.05.4-.15.85l-.15 1.2q-.1.95-.2 1.8h1.4l.25.05q3.35.05 6.7.15 3.35.1 6.7.15.35.05.85.1.45.05.8-.05l.5-.05.25.05q.1.1.05 0v-.25l.15-.6q.35-1.35.5-3.25.15-1.9.3-3.4 4.7-39.1 9.55-78.2 4.85-39.1 9.2-78.25t7.55-78.4q3.85-49.2 5.75-98.5t2.4-98.65q.35-37.9.05-75.75-.25-37.9-.75-75.75v-.9z" id="k"/><path fill="#FFF" d="M882.55 535.5q-2.2-9.85-7.95-16.4-5.7-6.5-16.4-5.75-13.9 1.5-33.1 6.55-19.25 5-38.85 11.4t-34.65 12q-15 5.65-20.6 8.4-10.4 5.1-19.85 11.05-9.5 5.95-16.5 13.15t-10 16.05q-3 8.9-.45 19.85 1.65 6.8 5.75 19.45 4.05 12.6 10 29.05 5.95 16.45 13.2 34.75 7.3 18.25 15.35 36.35l-.2 3.85q-.35 3.05 1 6.75t6.5 6.5q5.15 2.8 16.25 3.05 14.1 0 23.75-3.05 9.65-3.1 15-6.8l4.3-3.3 2.25-2.35q1.45-15.75 4.8-32.75 3.35-16.95 7.65-32.35 4.3-15.4 8.55-26.4 4.3-11 7.6-14.8 3.2-3.45 8.95-7.25 5.75-3.8 13.25-7.8 7.55-4.05 16.05-8.25 8.8-4.55 14.05-12 5.3-7.45 6.85-14.75 1.6-7.35-.7-11.6.55-4.5.45-13.65-.15-9.15-2.3-18.95z" id="l"/><path fill="#0081c6" d="M1137.8 562.05l-.85-2.65-.05-.05-.05-.15-.05-.05-1.5-2.15-1.95-1.85-4.3-2.9-8.95-4.6h-.1l-5.4-1.85-2.75-.6-5.65-.65H1095l-22 2.85-10.85 2.35-34.4 10.4-10.25 4.3-.05.05h-.05l-2.2 1.2-8.25 5.9-7.15 7.1-.95 1.15-.25-.75-.35-.45-1-.25-.95.5-.3.45-.05.65.3 3.1-2.3 3.55-.2.6.05.55.7.85 1 .2.5-.25.4-.5.3-.5 2.4 16.6 2.5 7.5 7.65 41.85 20.2 90 1.85 5.2 1.25 2.45.1.1.05.1 1.55 2.05 1.85 1.9 4.1 3.15 6.85 3.55 7.3 2.35 2.45.55h.05l18.75 2.55 8.15.45 11-.45 2.7-.55.05-.05h.1l11.85-4.8 9.05-4.9 4.2-3.05.15-.2.2-.15 1.35-2.3 1.05-2.5 8.15-27.3v-.05l.65-2.55 9.8-66.15.5-31.75-.55-23.7-1.15-10.55-4.6-17.4-.45-7.5z" id="m"/><path fill="#FFF" d="M1101.4 492q-12.1-13.65-27.4-26.3-15.3-12.7-30.5-20.35-15.15-7.7-26.75-6.45-14.4 2.25-24 8.65-9.6 6.45-14.75 14.95-5.15 8.45-6.2 16.75-1.1 8.3 1.55 14.2 3.55 7.85 8.4 23.2Q986.6 532 992.2 552.6q5.6 20.65 11.4 44.35 5.8 23.75 11.15 48.35 4.75 21.55 8.95 41.15 4.25 19.6 7.55 35.5 3.3 15.95 5.3 26.5l2.55 2.15 4.95 2.75q6.15 3.05 15.3 5.5 9.2 2.4 19.65 2.35 14.9-.4 23.45-2.9 8.5-2.55 12.15-5.25l2.75-2.35 1-1.5q13.75-48.15 17.35-87.6 3.6-39.4.85-69.25-2.75-29.8-8.1-49.05-5.35-19.25-9.5-27-5.45-10.65-17.55-24.3z" id="n"/><path fill="#FFF" d="M656.95 766.95l-8.05-.8q-1.6 0-2.6 1.1-1.05 1.1-1.1 2.55-.05 1.5 1.3 2.7l2.6 1.4 5.45 2.2q6.9 2.6 18.4 4.6 11.45 2 26.2 1.2 14.7-.75 31.5-6.45 11.65-4.35 21.95-12.65 10.35-8.3 18.3-17.35 8-9.05 12.6-15.55l4.8-7.25-1.05-1.4-2.9-2.8q-3.8-3.5-8.4-7.55-4.65-4-7.35-6.3-2.1 3.35-7.35 10.9Q756 723 748.5 732q-7.45 9.05-16.15 16.9-8.75 7.85-17.75 11.9-9.9 4.1-20.75 5.6-10.85 1.45-20.6 1.35-9.7-.15-16.3-.8z" id="o"/><path fill="#FFF" d="M985.85 192.35l2.2-3.4.8-2.05q-4.05-2.1-9.95-3-5.95-.85-12.2-.85-6.25.05-11.25.7-5.05.65-7.3 1.6-1.85 1.05-5.6 4.95-3.75 3.9-7.8 8.65-4.1 4.75-7 8.2l-3.05 3.65 2 1.35q1.85 1.2 3.85 2.4l1.6.9.85.3q11.4-1.85 18.85-3.15 7.4-1.3 12.05-2.6 4.65-1.25 7.75-3 3.35-2.05 7.35-6.3 3.95-4.3 6.85-8.35z" id="p"/><path fill="#FFF" d="M752.65 747.45q-.15 12.1-.35 28.95-.25 16.85-.45 32.15-.2 15.25-.3 22.5-.1 8.65.25 20.55t.85 23.55q.55 11.65.95 19.5l.45 8.35q6.15 5.05 19.85 7.2 13.65 2.1 30.5 1.65 16.9-.5 32.75-3.3 15.9-2.8 26.45-7.55l1.3-7.85q1.2-7.4 3-18.1 1.8-10.65 3.75-20.95 1.95-10.25 3.55-16.5 1.85-7.2 4.55-18.15 2.7-11 5.4-22.15 2.65-11.1 4.45-18.7l1.9-8.05q-7.45-13.9-26.4-22.45-18.9-8.55-41.85-12.5-22.9-3.95-42.4-4-19.45-.1-28.05 2.9l-.15 12.95z" id="q"/><path fill="#0083CB" d="M943.65 840.8q-1.05-2.05-1.45-3.45-.75-2.75-1.15-5.5-.35-2.8-.9-5.5l-.5-1.5-.55-.4q-.6.1-1.05 1.35-.4 1.2-.4 2.45.15 3.15 1.1 7.5.95 4.35 3.1 7.95 2.1 3.6 5.8 4.45 3.45.45 5.8-2.6 2.35-3 3.65-7.05 1.3-4.05 1.65-6.75.15-1 .2-2.9.05-1.9-.25-3.6-.3-1.75-1.25-2.3l-.2-.05q-.15 0-.2.05-.35.35-.45.85l-.15.7q-.25 1.9-.3 3.9 0 2-.35 3.95-.3 1.7-1.15 4.5-.85 2.8-2.15 5.3-1.3 2.45-3 3.1-1.75.45-3.3-.95-1.5-1.45-2.55-3.5z" id="r"/><path fill="#0081c6" d="M951.25 738.5q-.15-3.15-.55-4.95-.4-1.8-1.65-2.05-1.3-.25-3.95 1.25-.75 1.5-.85 3.3-.15 1.85 0 3.35-1.35 1.4-2.55 3.25-1.2 1.85-2.05 3.45l-1.1 2.15q-5.1 12.35-6.25 30-1.2 17.7.85 36.75t6.6 35.5q4.5 16.5 10.8 26.55.35.55.95 1.5t1.4 2q.2 1.65 1.15 2.65.9 1 3.2.35l.15-.15q.2.05.35 0 .2 0 .4-.05v-.3-.35q1.55-2.05 1.65-5.25.15-3.15-.25-5.75l-.45-2.8q-1.9-32.6-3.9-65.2t-3.95-65.2z" id="s"/><path fill="#FFF" d="M775.35 771.35l4.9 7.95q4.65 7.55 11.05 18.1 6.4 10.6 11.95 19.9 5.5 9.35 7.4 13.2 2.8 5.9 6.7 16.8 3.95 10.85 7.75 22.5 3.85 11.6 6.45 19.7l2.75 8.5q6.05 4.2 22.45 7.3 16.4 3.1 36.25 3.95 19.85.9 36.4-1.55 16.5-2.5 22.85-9.4.9-12.35.75-25.05-.2-12.65-.85-25.25-.7-12.6-1.25-24.65-.75-18.4-1.65-35-.85-16.65-1.65-29.7-.8-13.05-1.3-20.65l-.4-7.85q-19.4-5.4-41.8-2.7-22.45 2.65-45.55 10.2-23.1 7.55-44.5 16.75-21.4 9.25-38.7 16.95z" id="t"/><path fill="#0083CB" d="M943.35 838.65q-1.2-2.6-1.95-5.7-.8-3.05-1.8-5.85l-.4-.7-.3-.15q-.3.15-.45.85-.15.7-.15 1.4.2 3.1 1.2 6.95 1 3.8 2.75 6.95 1.7 3.15 4.05 4.3 4 1.55 6.85-1.1 2.85-2.65 4.45-7.45 1.6-4.75 1.75-9.5v-1.7q-.05-1-.25-1.8-.25-.75-.7-.7-.15.3-.3.65l-.15.5q-.6 2-.85 4.2-.3 2.15-.8 4.3-1.15 4.45-3.3 7.15t-4.75 2.35q-2.55-.35-4.9-4.95z" id="u"/><path fill="#FFF" d="M789.2 341.6q-3.4 5.75-11.45 18.2-8.05 12.45-17.8 27.65t-18.3 29.35q-8.55 14.1-12.85 23.2l49.1 7.45q46.65 6.55 107.9 14.7 61.2 8.1 107.35 13.7l35 3.95 12.65.65-7.8-9.85q-5.8-7.2-13.15-15.8-7.35-8.55-13.8-15.45-6.5-6.85-9.8-8.9l-35.8-15.85q-31.25-13.5-70.8-30.35-39.6-16.85-69.25-29.4l-31.2-13.25z" id="v"/><path fill="#0081c6" d="M948.5 775.95l-.85-1.6q-.65-1.15-1.55-2.5-.95-1.4-1.9-2.4-.65-.1-.8.45-.2.5-.3 1-.6 2.8-.2 4.5.4 1.75 1.45 3.25 1.05 1.5 2.45 3.6l.65 1.65q.45 1.25 1.1 2.8.65 1.5 1.45 2.65l.2-.1q.1-.1.2-.15.15-.3.15-.65 0-.35.05-.5.45-1.1.1-3.45-.35-2.4-1-4.85-.7-2.45-1.2-3.7M857.6 787q.25.25.4.3l4.75.5q4.15.25 8.55.45l5.85.3q.45.05 1.55.2 1.05.1 2.15.05 1.15-.1 1.85-.6-.2-.2-.45-.4l-.35-.25q-.4-.3-1.1-.55-.65-.25-1.6-.45.1 0 .25-.05.1-.05.2-.15 0-.15-.2-.3t-.3-.2q-.95-.7-3.2-.9-2.2-.2-4.45-.2h-3.55l-1.7-.15q-1.35-.1-2.5-.3-.25 0-.45.1-.25.1-.35.25-.45 0-.9-.05-.45 0-.8-.05-.25 0-.6.2t-.45.4l.05.1q-.4-.05-.8-.05-.35-.05-.7-.05-.55.1-1.05.45-.45.3-.35.9 0 .3.25.5m87.65-132.85q-7.2 17.5-12.4 35.65-5.15 18.15-8.3 38.65-.85 5.35-1.55 10.45-.7 5.05-1.15 9.95.4-.15.8-.25.35-.15.65-.2.3.05.65.1.4.1.5.2 1.6 1.7 3.1 6.2 1.45 4.45 2.75 9.5 1.25 5.05 2.1 8.5.65-.1 1.55-.05.85.05 1.9.25 0-2.45.9-5.25.9-2.85 2.95-4.5 2.1-1.7 5.75-.7 1.5.75 3 2t2.65 2.45q1.15 1.2 1.5 1.75 1.35 1.9 3.1 5.05 1.7 3.2 2.95 6.4 1.3 3.2 1.25 5.2 1.2-.3 2.55-.6 1.4-.3 2.9-.6l1.2-.3q1-.25 2.2-.6 1.15-.35 2.1-.75.75-.45 1.7-.65.95-.15 1.95 0 1.55-1 3.85-1.7 2.35-.7 4.6-1.1 2.2-.4 3.5-.55l2.9-.5q1.4-.25 2.85-.5 1-.6 2.05-1.05 1-.5 1.95-.85.6-.7 1.3-1.4.65-.7 1.4-1.35.5-.45 1.3-1.1.75-.7 1.7-1 .95-.3 1.95.25.1.25.15.5l.1.5q4.3-4.75 8.5-9.5t9.4-8.5q.35-.35.75-.65.4-.3.75.2.1 1.05-.5 2.15-.55 1.05-1.2 1.85l-.9 1.15q-1.5 2.1-3 4-1.55 1.95-3.15 3.75 4.35-4.45 8.3-9.1 3.95-4.6 8.2-9.5l1-1.05q.75-.7 1.8-1.5 1-.75 2-1.15.9 1.85-.55 4.65-1.45 2.8-3.35 5.1l-2.35 2.8q1.125-1.256 2.4-2.4l.4-.3q.35-.2.75-.3.6 1.6-.8 3.7-1.35 2.15-3.05 3.8l-2.05 2-.3.3-.3.3q-.5.55-1.05 1.1-.6.5-1.15 1.05-1 .9-2.1 1.8-1.05.9-2.2 1.8-1.4 1.1-2.85 2.2-1.45 1.05-2.95 2.1-.9.6-1.75 1.2-.9.6-1.75 1.2-1.05.7-2.05 1.4-1 .65-2.05 1.35-1.25.95-2.55 1.85-1.3.95-2.65 1.85-.55.35-1.1.75-.55.35-1.15.7.6.05 1.2.15.6.05 1.2.2 4.7-1.75 9-3.7 4.25-1.9 7.6-3.7 16.05-8.55 28.8-19.9 12.75-11.35 22.15-24.9 9.35-13.5 15.2-28.75 2.4-5.05 4.4-10.5 1.95-5.4 3.45-11.05 1.1-2.55 1.75-5.5.6-2.9.9-5.95 2-10.7 2.7-21.75.7-11.05.2-22.1.3-18.6-3.4-37.3-3.65-18.75-12.1-37.4l-1.6-3.5-1.6-3.55q-.3 1.85.4 4.1.75 2.2 1.05 4.3.35 2.1-1.2 3.5-2.8 2.2-4.15.5-1.35-1.65-2-4.75-.65-3.05-1.3-5.15-3.25.6-5.4-3.2-2.15-3.85-3.45-9-1.35-5.2-2.15-8.7l-.5-1.9q-.35-1.45-.8-3.25-.45-1.85-.85-3.3-.6-.65-1.55-.4l-.8.2-.45.05q-2.15-1.3-2.25-4.05-.1-2.75 1.2-6.4-20.2 13.7-37.85 32.2-17.65 18.5-31.75 38.8-14.1 20.35-23.7 39.6-9.35 18.45-16.6 35.9m143.9 35.65q.25-.9.45-1.75.2-.9.45-1.75l.15-.25.2-.2-.6 2q-.3.95-.65 1.95M705.9 525.1q-.25-.5-.55-.95-.15-.2-.35-.3-.2-.1-.4-.1-.35-.4-.6-.75l-.6-.7q-1.25-.55-.95.2.25.7 1.1 2.05-.05.15-.05.45 0 .35.05.75l-.7-1.65q-.4-1-1.05-2.15t-1.45-1.95q-.85-.55-1-.2-.1.35.1 1.15.2.8.45 1.7 2.1 8.2 4.75 16.4 2.65 8.15 5.25 16.4-1.75-3.2-3.6-6.5-1.8-3.35-3.65-7-.3-.75-1.05-2.3-.7-1.6-1.7-3.15-1-1.55-2.25-2.2-.45.1-.75.4-.35.3-.4.6l.3 1.3.95 2.05q1.2 2.5 2.65 5.05t2.15 3.65l1.2 2q.55.95 1.1 1.95-.2-.1-.4-.1t-.35.1l.05 1.7 1.05 3.25q1.65 4 3.75 8.2 2.1 4.2 2.95 5.8l.75 1.95q.5 1.55 1.35 3.3.8 1.75 2 2.95 1 5.05 1.55 10.2.6 5.1.55 10.25-.45 4.1-1.1 8.5-.6 4.4-1.55 8.5-.9 4.05-2.15 7.25-.35 2.1-.85 4.2t-1.2 4.3q-.3 1.2-.65 2.4-.3 1.2-.7 2.35l-.1.5q-.05.3-.1.55-.05.35-.15.65l-.1.7q-.75 3.55-1.5 6.9-.7 3.4-1.65 6.95-.5 1.85-1.05 3.65l-1.2 3.6q-1.45 3.2-2.7 6.5-1.3 3.35-2.3 5.2-2.25 4.05-4.05 9.85-1.85 5.8-2.6 12.35.15 1.5.35 3 .25 1.45.55 3l.05.1.05.25q0 .1.05.2.3 1.35.65 2.7.4 1.35.9 2.75.2.55.4 1.15.25.55.45 1.15l.5 1.1q.25.6.55 1.15.2.45.45.9.2.5.45.95l.25.45q.1.25.25.45.6 1.05 2.05 3.3 1.4 2.25 2.65 4.45l.9 1.9.3 1.2q0 .15-.1.45-.1.3-.5.4l-.45-.05.2.3q.15.15.25.3.85.55 2.45 1.7 1.6 1.1 3.5 2.55 1.75-1.45 2.9-3.2 1.2-1.7 1.75-2.4 8.7-8.7 13.8-14.55 5.15-5.8 7.8-11.75 2.7-5.9 4.15-14.95 5.05-17 6.3-35.25 1.3-18.25-1.7-36.75-2.95-18.5-10.75-36.2-1.65-3.7-3.5-7-1.85-3.35-3.8-6.4-.7-3.5-1.75-6.55-1.1-3.1-2.8-5.45-1.1-1.55-2.1-3.35-1-1.85-1.85-3.75l-.75-1.65q-.6-1.3-1.35-2.85-.8-1.6-1.55-2.8-.45-.4-1-.45-.55-.05-1 .35-.1.1-.15.3-.05.15-.05.4-.95-1.65-1.9-3.25t-1.95-3.15l-.65-1.05q-.55-.75-1.25-1.75-.25-.55-.5-1.05m17.65 39.2l-.1-.3.1.15v.15m-13.85-21.15q.65.55.4-.2-.2-.75-.7-1.95.6.85 1.15 1.65.55.8 1.05 1.45.65 1.2 1.25 2.4t1.2 2.35q-.55-.75-1.1-1.4-.6-.65-1.15-1.1.05.8.6 1.7l.75 1.2q1.85 4.65 3.35 9 1.55 4.35 2.8 8.55-.1-.15-.25-.35-.1-.15-.25-.3-1.7-2.15-2.8-5.1-1.1-2.9-2.05-6-1-3.1-2.3-5.85-.05-.1-.15-.25l-.2-.4q-.35-1.4-.8-2.75-.35-1.35-.8-2.65m346.9-39.75q.05.2.15.4.1-.15.15-.35.1-.15.2-.35-.15-.05-.35-.1-.15 0-.3.05.05.2.15.35m46.7-14.7l-.5.9q.55-.3.95-.7.45-.4.65-.9l-.3-.1-.3-.1-.5.9M713.05 591.6l.2.6q0-.45.05-.95v-.95q-.15.15-.25.3t-.1.4l.1.6z" id="w"/><path fill="#FFF" d="M753.55 440.15l-11.65 2.4q-11 2.45-24.3 8.45-13.3 5.95-20.85 16.4-7.6 10.45-1.45 26.3 4.45 9.85 10.9 24.05 6.5 14.2 12.4 32.3 5.9 18.15 8.6 39.75.55 5.15-.9 13.75-1.45 8.55-4.15 18.85-2.65 10.3-5.75 20.55t-5.85 18.75q-2.1 6.05-5.55 12.6-3.4 6.5-6.5 14-3.1 7.45-4.15 16.35-1.05 8.9 1.6 19.7 5.25 15.1 38.85 28.35 33.65 13.25 78.85 22.8 45.2 9.5 85.1 13.5 39.95 3.95 57.8.4 18.6-3.85 36.25-9.15 17.65-5.3 33.8-15.1 16.1-9.8 30-27.2 11.85-15.2 19.9-35.55 8.05-20.35 12.05-43.15 4-22.75 3.6-45.3-.35-22.6-5.35-42.25-6.15-23.1-13.65-38.95-7.5-15.9-14.65-25.6-7.1-9.7-12.1-14.35l-6.05-5.3-45.85-8.25q-42.75-7.15-98.5-16.15-55.75-9.05-98-15.8l-44.45-7.15z" id="x"/><path fill="#0081c6" d="M1049.25 310.15l-.25 2.35q-3.05 20.25-6.8 35.7-3.75 15.45-9.8 27.8-6 12.35-16.05 23.3-10 10.9-25.6 22.15-11.95 8.95-22.35 17.7-10.4 8.8-21.8 15.25-11.4 6.45-26.3 8.45-2.55.25-7.8 1.45-5.2 1.25-9.8 3.5-4.6 2.25-5.3 5.75v.2l-.5.05.2.4q.1.15.25.35v.25q.1.1.25.2l.2.2q1.45 1.55 5.15 3 3.7 1.5 7.25 2.5l4.45 1.25q9.75 2.7 21.55 3.25 11.8.55 24.8-1.55 12.95-2.05 26.35-7.3 12.3-5 22.1-13 9.75-8 16.6-17.35 6.85-9.4 10.35-18.45 4.25-11.05 8.4-25.8t7.45-31.3q3.25-16.55 4.8-32.9 1.6-16.4.7-30.55-.1-2.2-.55-5.1-.45-2.95-1.55-5.15-1.15-2.2-3.3-2.25-.5 1.3-.8 3-.25 1.7-.35 3.3-.1 1.6-.15 2.6-.05-.15-.15-.3-.1-.15-.3-.1-.55 1.35-.9 3.35-.3 2.05-.45 3.8z" id="y"/><g id="z"><path fill="#0081c6" d="M983.4 221.9q-.05-.05-.1-.25-.1-.2-.25-.35-.25-.4-.75-.4-.5.05-.85.25-.55.65-1.05 1.6-.5 1-.9 1.85l-.5 1.1q-.2.4-.45.8-.2.45-.45.85l-.25-.05q.8-2.65 1.25-4.4l.3-1.4.05-.6q-.15-.15-.45-.1-.3.1-.35.25-.45.8-.9 1.9-.4 1.05-.7 1.95l-.4 1.2-.7 2.2-.7 2.2q-.45.9-.8 1.9-.35.95-.65 1.95-.3.9-.55 1.8-.3.95-.55 1.85-.4 1-.75 2.05-.3 1-.65 2.05-.45 1.1-.95 2.1-.55 1.05-1.25 2l-.3.4q-.25.35-.3.75-.2.25-.3.6-.05.3.1.65 1 .15 2-.5 1.05-.65 2-1.75.25-.25.45-.55l.4-.5q.45-.6.8-1.15.4-.6.7-1.1 1.35-1.9 2.55-3.8 1.2-1.9 2.4-4.1l.75-1.3q.55-.95 1.1-1.95.35-.65.55-1.1l.25-.6h-.1q.5-.7.75-1.4t-.3-1.1q-.35 0-.65.35-.35.35-.6.75-.1-.15-.25-.2l-.3-.1q1.15-2.3 1.9-4.15l.55-1.5.15-.95z"/><path fill="#FFF" d="M1012.45 184.25q-2.9 1.1-4.65 4.1-4.95 8.95-9.2 16.65-4.3 7.65-8.4 14.3-4.15 6.65-8.75 12.6-.55 1-1.1 1.95l-.75 1.3q-1.2 2.2-2.4 4.1-1.2 1.9-2.55 3.8-.3.5-.7 1.1-.35.55-.8 1.15l-.4.5q-.2.3-.45.55-.95 1.1-2 1.75-1 .65-2 .5-.15-.35-.1-.65.1-.35.3-.6.05-.4.3-.75l.3-.4q.7-.95 1.25-2 .5-1 .95-2.1.35-1.05.65-2.05.35-1.05.75-2.05.25-.9.55-1.85.25-.9.55-1.8-3-1.15-7.2-2.85-4.15-1.75-8.7-3.8-4.55-2-8.7-4.15-5.15-2.85-14.4-5.6-9.25-2.8-21.85-3.75-12.6-.9-27.85 1.8-15.3 2.75-32.55 11-11.7 5.9-19.2 12.5-7.55 6.6-11.4 11.85l-4.65 6.95q-4.35 8.75-9.45 26.95t-9.7 38.5q-4.6 20.25-7.4 35.15l-2.1 11.7-.5 5.35 1.2 3.65 3.1 6.75q4.05 8.25 13.25 21.1 9.2 12.85 25.1 28.85 13.95 13.5 28.95 22.25 15 8.7 28.05 13.55 13.05 4.85 21.2 6.75 16.4 3.9 31.9 3.25 15.45-.7 28.7-4.35 13.25-3.7 23.05-8.7 9.85-5 15-9.75 11.1-10.15 19.05-25.2 7.95-15.05 12.85-33.45 4.85-18.4 6.8-38.65 1.95-20.25 1-40.9-1.3-25.55-4.5-47.65-3.2-22.05-7.2-39.55-4-17.45-7.7-29.25-3.65-11.8-5.8-16.8-1.35-2.95-4.1-3.85-2.75-.9-5.6.25z"/></g><path fill="#FFF" d="M889.05 162.7q-6.85 3.55-13.1 8.35-6.25 4.75-10.7 9.3-4.45 4.55-5.8 7.35-.9 2.55-1.35 9.55-.45 7-.6 15.1-.15 8.05-.15 13.9v6.1l2.8-.25q2.65-.25 6.15-.65 3.5-.4 6.25-.8l2.2-.4.95-.3q8.7-11.05 13.9-18.95 5.15-7.95 7.6-13.05 2.4-5.1 2.9-7.65.45-2.15 1.05-6.9.65-4.75 1.1-10.2.45-5.45.5-9.65l-.2-3.4-.55-1.8q-6.15.8-12.95 4.35z" id="A"/><path fill="#0083CB" d="M887.8 323.3q-2.1-1.35-4.65-1.55-2.55-.15-4.9.9-2.3 1.05-4.2 3.1-1.9 2.05-3.1 4.85-1.25 2.75-1.6 6.05-.3 3.3.35 6.2.65 2.95 2.1 5.2 1.45 2.3 3.55 3.65 2.1 1.4 4.65 1.6 2.55.15 4.85-.9 2.35-1.1 4.25-3.15t3.1-4.8q1.25-2.8 1.6-6.1.3-3.3-.35-6.2-.65-2.9-2.1-5.2-1.5-2.25-3.55-3.65z" id="B"/><path fill="#FFF" d="M986.25 295.45q-2.35-6.75-7.9-11.65-5.5-4.95-15.3-6.75-9.95-1.5-16.9 1.55-7 3.1-11.65 8.85-4.65 5.8-7.5 12.35-2.85 6.5-4.55 11.9 8.9 1 20.1 2.9 11.2 1.85 23 4.1 11.75 2.2 22.35 4.35.95-6.45.8-13.65-.15-7.25-2.45-13.95z" id="C"/></defs><use xlink:href="#a" transform="matrix(-.04967 .11353 .12378 .03526 988.7 -52.45)"/><use xlink:href="#b" transform="matrix(-.05296 .11253 .1224 .03828 1022.85 -69.65)"/><use xlink:href="#c" transform="matrix(-.16304 .05818 .05 .21976 1162.45 -109.4)"/><use xlink:href="#d" transform="matrix(-.11945 .06126 .05933 .10187 1103.3 -13.05)"/><use xlink:href="#e" transform="matrix(.07214 .10129 .12471 -.0784 879.15 25.5)"/><use xlink:href="#f" transform="matrix(-.05637 .12352 .13258 .03387 1003.7 -35.55)"/><use xlink:href="#g" transform="matrix(.02475 .1221 .14194 -.0387 919.55 -10.9)"/><use xlink:href="#h" transform="matrix(-.05931 .12273 .1313 .03664 1007.15 -35.55)"/><use xlink:href="#i" transform="matrix(1.02623 .2475 -.27733 -1.02417 -18.85 304.2)"/><use xlink:href="#j" transform="rotate(-18.918 902.595 612.114) scale(1.04957)"/><use xlink:href="#k" transform="rotate(-18.918 902.595 612.114) scale(1.04957)"/><use xlink:href="#l" transform="matrix(.64085 -.20143 .19743 .62624 119 393.85)"/><use xlink:href="#m" transform="matrix(-.3697 -.55469 .55807 -.3713 1034.8 1370.6)"/><use xlink:href="#n" transform="matrix(-.3697 -.55469 .55807 -.3713 1034.8 1370.6)"/><use xlink:href="#o" transform="matrix(-.66562 -.05647 -.0306 .66875 1469 275.75)"/><use xlink:href="#p" transform="matrix(.56535 -.31172 .41129 .61084 270.65 563.45)"/><use xlink:href="#q" transform="matrix(.76825 .084 .0775 .87955 119.5 17.9)"/><use xlink:href="#r" transform="matrix(.74776 .20816 .08069 .82819 10.6 -40.6)"/><use xlink:href="#s" transform="matrix(.6864 -.01619 .24458 .8996 136.85 85.35)"/><use xlink:href="#t" transform="matrix(.6864 -.01619 .24458 .8996 136.85 85.35)"/><use xlink:href="#u" transform="matrix(.73534 .02727 .19296 .82416 127.3 126.55)"/><use xlink:href="#v" transform="matrix(.37733 -.06088 .15454 .62453 428.95 336.1)"/><use xlink:href="#w" transform="matrix(-.62819 -.13766 -.05153 .70456 1446.2 348.95)"/><use xlink:href="#x" transform="matrix(-.62819 -.13766 -.05153 .70456 1446.2 348.95)"/><use xlink:href="#y" transform="matrix(.76695 .01987 -.04816 .66975 193.25 234.9)"/><use xlink:href="#z" transform="matrix(.76695 .01987 -.04816 .66975 193.25 234.9)"/><use xlink:href="#A" transform="matrix(.6471 -.0801 .2554 .59941 212.55 342.05)"/><use xlink:href="#B" transform="matrix(-.54933 -.01837 -.03111 .62463 1371.45 280.25)"/><use xlink:href="#C" transform="matrix(.6309 .08797 -.08028 .63603 238.55 174.2)"/></svg>