<svg xmlns="http://www.w3.org/2000/svg" xmlns:xlink="http://www.w3.org/1999/xlink" preserveAspectRatio="none" width="760" height="880" viewBox="620 10 760 880"><defs><path fill="#0081c6" d="M1005.65 543.5h-4.4v2.3q-1.3-1.45-2.75-2.15t-3.1-.7q-1.9 0-3.5.75t-2.85 2.2q-1.25 1.45-1.9 3.3-.6 1.85-.6 4.05 0 2.25.6 4.1.65 1.85 1.9 3.35 1.3 1.5 2.9 2.2 1.6.75 3.55.75 1.55 0 3-.65t2.75-1.95v2.05h4.4v-19.6m-4.1 9.85q0 1.35-.4 2.5-.35 1.15-1.1 2.05-.75.85-1.7 1.25-1 .45-2.2.45-1.1 0-2.05-.45-.95-.45-1.7-1.35-.7-.85-1.05-2-.4-1.15-.4-2.55 0-1.35.4-2.45.35-1.1 1.1-2 .75-.85 1.7-1.3.95-.45 2.05-.45 1.2 0 2.15.45.95.4 1.7 1.3t1.1 2q.4 1.15.4 2.55m-21.2-9.9q-.45.25-1 .7-.5.45-1.1 1.1v-1.75h-4.35v19.6h4.35v-10.15q0-2.8.85-4.2.9-1.4 2.7-1.4.55 0 1.15.25.65.2 1.25.65l2-4.1q-.95-.6-1.85-.9-.9-.3-1.75-.3-.65 0-1.2.15-.55.1-1.05.35m36.25 0q-.45.25-.95.7-.55.5-1.2 1.15v-1.8h-4.3v19.6h4.3V553q0-1.55.25-2.7.2-1.1.6-1.85.45-.7 1.1-1.05.65-.35 1.6-.35 1.45 0 2.15 1.3.75 1.3.75 3.9v10.85h4.35V553q0-1.6.2-2.7.2-1.15.6-1.85.4-.7 1.05-1.05.65-.35 1.55-.35.8 0 1.35.3t.9.9q.35.55.5 1.55.15 1 .15 2.4v10.9h4.35V551q0-4.05-1.55-6.05-1.6-2-4.8-2-1.75 0-3.1.75-1.4.7-2.4 2.15-.95-1.45-2.2-2.15-1.25-.75-2.85-.75-.7 0-1.3.15-.6.1-1.1.35m-96.45.05q-1.25-.55-2.9-.55-1.45 0-2.7.6-1.3.6-2.45 1.75v-1.8h-4.35v19.6h4.35v-9.45q0-1.85.25-3.1.2-1.3.65-2 .45-.75 1.25-1.15.75-.35 1.8-.35 1 0 1.7.3.7.25 1.05.8.4.55.6 1.55.2 1 .2 2.45v10.95h4.35v-12q0-2.1-.4-3.6-.4-1.45-1.2-2.4-.9-1.05-2.2-1.6m-16.9 0h-4.35v19.6h4.35v-19.6m-3.25-5.4q.5.25 1.1.25.55 0 1.05-.25.5-.2.9-.65.45-.4.65-.95.2-.5.2-1.1 0-.65-.2-1.15-.2-.5-.65-.95-.4-.4-.9-.65-.5-.2-1.1-.2-.55 0-1.05.2-.5.25-.95.65-.4.45-.6.95-.2.5-.2 1.1 0 .65.2 1.15.2.55.6.95.45.45.95.65m41.45 5.6q-1.8-.75-3.9-.75-2.05 0-3.85.75-1.8.75-3.25 2.25t-2.15 3.3q-.75 1.8-.75 3.9 0 2.25.7 4.15.75 1.85 2.15 3.35 1.45 1.5 3.2 2.25 1.8.75 3.9.75 2.1 0 3.9-.75 1.85-.75 3.3-2.2 1.45-1.5 2.2-3.35.7-1.85.7-4.05 0-2.15-.7-4-.75-1.85-2.2-3.35-1.45-1.5-3.25-2.25m1.7 9.65q0 1.4-.35 2.55-.4 1.15-1.15 2-.75.85-1.8 1.3-1 .4-2.3.4-1.25 0-2.25-.45-1.05-.4-1.8-1.25-.75-.9-1.15-2.05-.35-1.15-.35-2.6 0-1.4.4-2.5.35-1.1 1.15-1.95.75-.9 1.75-1.35 1.05-.4 2.25-.4 1.3 0 2.3.4 1 .45 1.8 1.35.75.85 1.15 1.95.35 1.15.35 2.6m19.25-9.7q-1.5-.7-3.25-.7-2.05 0-3.65.8-1.65.8-2.9 2.4-1.15 1.5-1.7 3.3-.6 1.85-.6 3.95 0 2.2.65 4.05.6 1.85 1.85 3.3 1.2 1.45 2.8 2.15 1.55.75 3.5.75 1.7 0 3.15-.7 1.5-.7 2.8-2.05v2.75q0 3-1.2 4.55-1.2 1.5-3.55 1.5-1.3 0-2.3-.45-1-.45-1.65-1.4-.3-.35-.5-.95-.2-.55-.35-1.25h-4.35q.2 1.9.9 3.4.75 1.5 2 2.6 1.2 1.05 2.75 1.6t3.45.55q2.25 0 4-.8 1.75-.75 3-2.25.7-.8 1.15-1.75.45-.95.65-2.05.1-.4.15-.9.05-.45.1-1 .05-.5.05-1.1.05-.65.05-1.35v-19.1h-4.35v2.2q-1.2-1.35-2.65-2.05m2.8 9.7q0 1.35-.3 2.45-.35 1.05-1 1.95-.75.9-1.7 1.4-1 .45-2.25.45t-2.2-.45q-1-.45-1.7-1.4-.65-.85-.95-1.95-.35-1.1-.35-2.45t.35-2.45q.3-1.1.95-1.95.7-.95 1.7-1.45.95-.45 2.2-.45 1.15 0 2.1.45.95.4 1.7 1.3.75.85 1.1 2 .35 1.1.35 2.55m-77.55-10.4q-1.4 0-2.65.55-1.3.55-2.45 1.65V534h-4.35v29.1h4.35v-9.5q0-1.8.25-3.05.2-1.3.65-2.05.45-.7 1.25-1.1.85-.35 1.95-.35.9 0 1.55.25t1.05.8q.4.55.6 1.4.2.85.2 2v11.6h4.35v-12q0-2.05-.4-3.55t-1.25-2.45q-.95-1.05-2.2-1.6-1.3-.55-2.9-.55m-19.5.55h-4.35v19.6h4.35v-10.15q0-2.8.9-4.2.9-1.4 2.65-1.4.6 0 1.2.25.6.2 1.25.65l1.95-4.1q-.9-.6-1.8-.9-.9-.3-1.8-.3-.65 0-1.2.15-.55.1-1 .35-.5.25-1 .7-.55.45-1.15 1.1v-1.75z" id="a"/><g id="b"><path fill="#0081c6" d="M508.4 711.1q-.75-.55-1.45-1.15-.15-.1-.3-.25-.15-.1-.3-.25l-.6-.5-.6-.5-.2-.2q-.55-.5-1.05-1l-1-1.1-.25-.25q-.05-.1-.15-.2-.1-.1-.2-.05l-.1-.2q-.1-.1-.15 0 0 .15.1.3.05.2.15.3l.1.2.2.3q0 .1.05.2 0 .1.1.25.2.3.55.7.3.4.7.85.2.25.4.45.15.25.35.45l.15.2q.3.5.75 1.05t1 1.2q.15.15.3.35l.3.3q1.05 1.2 2.35 2.35 1.25 1.1 2.5 1.9 1.25.8 2.35 1h.05l.15.05q.1 0 .25-.05-.15-.1-.3-.25l-.3-.2-.15-.1-.05-.05q-1.1-.8-2.15-1.5-1-.65-1.95-1.4-1-.8-1.95-1.75l.6.4.5.25q.5.4 1.15.85.6.4 1.1.75l.4.2.3.1h.1q.05.05.1 0-.1-.15-.3-.3-.25-.1-.4-.2l-.15-.1-.1-.05q-.45-.25-.85-.5-.45-.3-.85-.6h.15q-.05-.1-.15-.2-.06-.091-.15-.15.985.671 1.85 1.2.9.55 1.6.85.05.05.2.1.15.05.3.05.15.05.3 0-.1-.2-.3-.4-.2-.2-.4-.35-.2-.15-.3-.2-.75-.5-1.45-1-.7-.55-1.4-1.05-.75-.5-1.5-1.1m-22.5-31.05q-.2-.4-.35-.8 0 .2-.05.45v1.1q0 .3.05.65v.55q.05.3.1.55.05.5.1.95.1.5.15.95.4 1.75.95 3.65.6 1.9 1.25 3.6.65 1.75 1.3 2.9.3.6.95 1.5.6.9 1.4 1.85.75.95 1.55 1.75.3.15.55.35.25.25.45.5.15.1.25.2t.25.15l-.05.05.05.3q.05.1.05.25-.05.15-.1.25v.05q-.05.15-.05.25-.05.15-.05.3-.15.5-.4 1-.3.45-.65.85l-.05.05q-.15.15-.3.35-.2.15-.35.3-.4.35-.8.65-.4.3-.85.55-.1.05-.25.15-.15.05-.25.15l-.25.15q-.25.15-.5.35-.3.15-.55.3-.6.3-1.25.5-.6.2-1.25.25-.25.05-.5.05-.3 0-.55-.05h-.35l-.05-.05q-.35-.05-.7-.15-.35-.15-.65-.35l-.15-.1q-.5-.35-.9-.75-.4-.45-.75-.8-.75-.75-1.5-1.7-.75-.9-1.4-1.9-.65-1-1.1-1.9-.3-.5-.5-1-.15-.45-.3-.85-.05-.2-.05-.4-.05-.2-.1-.45l-.05-.1-.05-.2-.05-.1q-.4-1.2-.65-2.6-.3-1.4-.4-3.05v-.4q.05-.3 0-.5-.05-.25-.2-.25-.1.2-.15.5-.05.3-.05.6-.05.25-.05.4l-.05-.05q-.1.15-.1.35v.85l-.1.7v.4q0 .75.1 1.65.15.85.4 1.75.4 1.5 1 2.85.65 1.4 1.5 2.8.6.85 1.35 1.75.75.9 1.65 1.75.9.85 1.85 1.5l.4.3q.2.1.4.25h.05l.2.1q.45.15.9.2.5.05.95 0 1.25.05 2.55-.3 1.35-.35 2.6-1.05 1.25-.65 2.25-1.6l.4-.3.4-.3q.55-.5 1-1.1.5-.6.75-1.25.25-.6.15-1.25h.05q-.05-.15-.05-.25 0-.15-.05-.25v-.1l-.05-.2-.1-.15-.05-.15v-.05l-.05-.05-.25-.35-.25-.2-.05-.05-.5-.5q-.3-.25-.55-.55l-.35-.35q-.1-.2-.25-.35-.4-.45-.75-.95-.35-.45-.65-.9-.15-.2-.25-.35-.15-.2-.25-.35-.1-.15-.2-.35l-.2-.3q-.2-.35-.45-.7-.2-.35-.35-.7-.4-.6-.75-1.25-.3-.65-.65-1.3-.1-.3-.25-.6t-.25-.6q-.15-.35-.25-.65-.15-.35-.25-.65-.1-.25-.2-.45-.05-.25-.1-.45l-.2-.6-.2-.6q-.2-.6-.4-1.25-.2-.6-.35-1.3-.15-.5-.25-1-.15-.5-.25-1-.05-.25-.1-.55-.05-.25-.1-.55-.15-.4-.3-.85m-9.2 17.8l.1.15h-.05l-.05-.15m18.3 2.65l.05.05v.05l-.2-.2.15.1z"/><path fill="#FFF" d="M485.35 655.7l-.2.1q-.2.05-.35.1l-.4.1q-2.9.75-5.6 2.5-2.65 1.75-4.95 4.15-2.3 2.4-4.2 5.1-1.85 2.65-3.2 5.25-2.4 3.85-4.2 8.05-1.8 4.2-2.9 8.45-1.05 4.25-1.3 8.25-.05 1.25-.05 2.55-.05 1.3 0 2.65-.2 2.8 0 5.6.25 2.8.8 5.55t1.4 5.4q.05.2.15.4.05.25.15.45.05.25.15.5.1.25.2.4l.05.15.05.05q.4.65 1.15 1.2.8.6 1.7.95.9.35 1.8.35.5.1 1.05.15.55.1 1.1.1 1.05.1 2.15.05 1.1-.1 2.05-.45 1-.4 1.75-1.05l.25-.2q.85-.55 1.55-1.5.7-.95 1.2-2.05.5-1.1.85-2.2.2-.6.45-1.15.25-.55.6-1.1t.9-1.1q1.15-1.05 2.4-1.6 1.3-.55 2.7-.6 1.35-.05 2.75.35.15.1.3.15.15.05.25.1.3.2.55.45.3.3.5.55.7 1.3 1.1 2.7.35 1.35.6 2.75l-.05.3q-.05 1.3 0 2.5 0 1.2.25 2.15.3 1 1.05 1.65.8.7 2.3.9.7.15 1.5.3.8.1 1.65.15.85.1 1.65.05h.8q.4.05.75 0 .4-.05.7-.1.3-.1.45-.2l.1-.1q.55-.6 1.05-1.15.5-.6.95-1.2.1-.15.15-.25l.2-.3q1.6-2.35 2.4-4.95.8-2.65.7-5.5l-.3-.3q-.15-.2-.3-.35-.55-.65-1-1.2-.45-.55-.75-1.05l-.15-.2q-.2-.2-.35-.45-.2-.2-.4-.45-.4-.45-.7-.85-.35-.4-.55-.7-.1-.15-.1-.25-.05-.1-.05-.2l-.2-.3-.1-.2q-.1-.1-.15-.3-.1-.15-.1-.3.05-.1.15 0l.1.2q.1-.05.2.05t.15.2l.25.25 1 1.1q.5.5 1.05 1l.2.2.6.5.6.5q.15.15.3.25.15.15.3.25.7.6 1.45 1.15.75.6 1.5 1.1 2.85 1.75 5.95 2.75 3.15 1 6.3 1 3.2 0 6.1-1.25 2.95-1.3 5.4-4.05.3-.4.85-1.1.5-.75 1.05-1.65.6-.9 1.15-1.85.55-.9.9-1.85.4-.9.55-1.7 0-.2.05-.4v-.45q0-.1-.05-.2 0-.15-.1-.2-.2-.1-.45-.2t-.45-.2l-.15-.05-.1-.05q-1.05-.45-2.1-.75l-2-.7q-5.6-3.55-9.7-9.1-4.1-5.6-7.65-11.8-3.6-6.2-7.7-11.7-4.15-5.45-9.8-8.8-2.45-1.3-5.15-1.95-2.75-.65-5.6-.6l-.05-.1q-.15 0-.35.05l-.4.1-.25.1q-.1.05-.2.05h-.1l-.2.15h-.05l.1-.05.05-.05.2-.1.2-.1-.35.15q-.2.05-.35.15-.054.01-.1 0m-12.65 9q.252-.27.5-.55.4-.45.85-.9l-.15.2q-.4.4-.75.8l-.45.45m12.85 14.55q.15.4.35.8.15.45.3.85.05.3.1.55.05.3.1.55.1.5.25 1 .1.5.25 1 .15.7.35 1.3.2.65.4 1.25l.2.6.2.6q.05.2.1.45.1.2.2.45.1.3.25.65.1.3.25.65.1.3.25.6t.25.6q.35.65.65 1.3.35.65.75 1.25.15.35.35.7.25.35.45.7l.2.3q.1.2.2.35.1.15.25.35.1.15.25.35.3.45.65.9.35.5.75.95.15.15.25.35l.35.35q.25.3.55.55l.5.5.05.05.25.2.25.35.05.05v.05l.05.15.1.15.05.2v.1q.05.1.05.25 0 .1.05.25h-.05q.1.65-.15 1.25-.25.65-.75 1.25-.45.6-1 1.1l-.4.3-.4.3q-1 .95-2.25 1.6-1.25.7-2.6 1.05-1.3.35-2.55.3-.45.05-.95 0-.45-.05-.9-.2l-.2-.1h-.05q-.2-.15-.4-.25l-.4-.3q-.95-.65-1.85-1.5-.9-.85-1.65-1.75-.75-.9-1.35-1.75-.85-1.4-1.5-2.8-.6-1.35-1-2.85-.25-.9-.4-1.75-.1-.9-.1-1.65v-.4l.1-.7v-.85q0-.2.1-.35l.05.05q0-.15.05-.4 0-.3.05-.6t.15-.5q.15 0 .2.25.05.2 0 .5v.4q.1 1.65.4 3.05.25 1.4.65 2.6l.05.1.05.2.05.1q.05.25.1.45 0 .2.05.4.15.4.3.85.2.5.5 1 .45.9 1.1 1.9.65 1 1.4 1.9.75.95 1.5 1.7.35.35.75.8.4.4.9.75l.15.1q.3.2.65.35.35.1.7.15l.05.05h.35q.25.05.55.05.25 0 .5-.05.65-.05 1.25-.25.65-.2 1.25-.5.25-.15.55-.3.25-.2.5-.35l.25-.15q.1-.1.25-.15.15-.1.25-.15.45-.25.85-.55.4-.3.8-.65.15-.15.35-.3.15-.2.3-.35l.05-.05q.35-.4.65-.85.25-.5.4-1 0-.15.05-.3 0-.1.05-.25v-.05q.05-.1.1-.25 0-.15-.05-.25l-.05-.3.05-.05q-.15-.05-.25-.15-.1-.1-.25-.2-.2-.25-.45-.5-.25-.2-.55-.35-.8-.8-1.55-1.75-.8-.95-1.4-1.85-.65-.9-.95-1.5-.65-1.15-1.3-2.9-.65-1.7-1.25-3.6-.55-1.9-.95-3.65-.05-.45-.15-.95-.05-.45-.1-.95-.05-.25-.1-.55v-.55q-.05-.35-.05-.65v-.6-.5q.05-.25.05-.45m-26.8 21.5q0 .35-.05.7v-.4l.05-.3z"/></g><path fill="#a6ce38" d="M1347.85 394.9l-2.35-1.95-6.25-.1q-7.3 2.2-14.3 4.2-7 2-13.35 3.35-.3.05-.55.1l-.6.1q-81.6 22.4-169.2 31.25-87.6 8.85-178.4 7.8-40.75 1.6-81.8 1.55-41.05-.05-82.05-2.25-6.1-.35-12.15-.7-6.1-.4-12.15-.85-2.55-.2-5.15-.4l-5.2-.4q-7.95-.65-16.1-1.4-8.15-.8-16.4-1.75-2.6.5-5.5 1.65t-4.25 3.25q-.5.2-.85.65l-.45.6q-5.75 8.05-1.3 14.65 4.4 6.6 14.8 11.75 10.35 5.15 22.4 8.85 5.5 2.7 12.2 5.1 6.7 2.4 14 4.5-1.35.5-3.15 1.3-1.75.8-3.15 1.7-1 .6-1.95 1.15l-1.8 1.2q-.1.25-.4.4l-.35.2q-5.6 6.15-.9 12.55 4.7 6.45 14.65 12.1 14.65 11.2 40.3 18.65 25.7 7.5 52.65 11.9 27 4.4 45.5 6.45 8.05.95 15.8 1.55 7.75.6 15.25.9-.7 3.35.35 6.95 1.1 3.6 3.5 7.4.85 1.4 1.9 2.75 1 1.35 2.1 2.65 12.65 9.7 30.9 14.2 18.2 4.5 37.5 6.1 19.35 1.6 35.3 2.6 0 1.25.45 2.45.5 1.2 1 2.05 8.65 12.5 23.3 17.4 14.65 4.9 30.25 5.25 17.15.75 35.7-.75 18.5-1.5 37.5-4.8 3.65-1.35 7.3-2.65 3.6-1.35 7.25-2.7 12.65-4.8 25.1-9.75 12.4-4.95 24.55-9.95 5.05-2.1 10.05-4.2 5-2.05 9.95-4.15 1.6-.65 3.15-1.3 1.55-.7 3.15-1.35 4.5-1.95 9.05-4.05 4.55-2.05 9.1-4.2 10.5-4.95 20.75-10.35 10.25-5.4 20.05-11.2 1.4-.8 2.7-1.65l2.7-1.6.3-.2.3-.2-.1-.3q-.05-.15-.15-.25-.15-.1-.35-.2-.15-.1-.35-.15-1.25-4.15-2.6-8.05-1.35-3.9-1.75-5.45-7.8-28.7-18.55-57.2-10.75-28.5-19.5-57.3-.15-.5-.35-1.55-.2-1.05-.6-2.4 8.85-2.95 16.9-6.25 8.05-3.35 15.2-7l7.35-4.7 2.15-3.55M796.3 497.5l-.5-.3q-.2-.15-.45-.3.05-.2.1-.35l.1-.4q.2.35.35.7.2.3.4.65m-19.35 4.9q.05.15.05.3-1.05-1-1.8-2.05-.75-1-1.15-2.05.6.9 1.3 1.75l1.5 1.7q.05.15.1.35z" id="c"/><path fill="#a6ce38" d="M793 728.5l12.05 13.9q11.7 13.3 30.2 31.6 18.5 18.25 39.3 33.9 20.75 15.65 39.35 20.95l5.6-37.4q4.8-35.35 10.85-81.8 6.05-46.45 10.6-81.7l4.75-37.1-27.1 9.7L793 728.5z" id="d"/><path fill="#a6ce38" d="M1118.15 314.7q-21.35 27.55-56.9 68.6T979 468.1q-48.45 45.05-102.3 93-53.85 48-106.85 89.55-53 41.6-99 67.5-46 25.95-78.8 26.9 28.15 17.15 80.6 12.05 52.4-5.15 112.5-23.05 60.15-17.95 111.35-39.3 51.2-21.3 76.95-36.6 31.95-18.65 56.4-34.65 24.5-16 48.35-37.25 23.85-21.3 53.8-55.85 30.35-34.5 51.6-61.7 21.25-27.2 35.95-55.5 14.65-28.25 25.35-65.95 2.65-12.15-9.45-24.95-12.15-12.75-30.95-23.05-18.8-10.25-36.05-14.9-17.3-4.65-24.85-.55l-8.4 9.4-17.05 21.5z" id="e"/><path fill="#a6ce38" d="M1037.75 310.3q-28.5-9.5-51.15-7.95-22.7 1.55-28.75 13.2-5.15 11.9-9.05 29.15-3.95 17.3-7.2 35.75t-6.4 34q-.95 11.1 24.45 14.2 25.4 3.15 59.95 1.7 34.55-1.45 61.15-4l28-2.85-4.85-21.15q-4.55-19.6-9.1-39.35l-5.05-21.65q-23.5-21.55-52-31.05z" id="f"/><path fill="#a6ce38" d="M1012.35 269.55q-15.25 1.75-24.45 7.2-9.2 5.5-13.5 10.45-4.35 4.65-9.75 13.8t-9.85 19.5q-4.45 10.35-5.9 18.45-.9 7.85 8.25 17.3 9.1 9.5 24.1 16.95 14.95 7.45 31.55 9.2 16.7 1.25 34-2.55 17.35-3.85 30.2-10.35 12.85-6.5 16.1-13.25-.1-7.45-4.95-25.25-4.8-17.75-14.3-34.75-9.55-17-23.7-22.1-22.55-6.3-37.8-4.6z" id="g"/><path fill="#a6ce38" d="M1108.3 290.6q-24.8-2.75-41.3-3.7l.45 10.85q.7 10.15 2.05 22 1.35 11.8 3 17.6l8.55-3 17.8-5.1q22.4-6.15 45.5-14.25 23.15-8.15 29.2-16.1l-20.8-3q-19.65-2.6-44.45-5.3z" id="h"/><path fill="#0083CB" d="M1035.4 302.25l-1.9-1-2-.6-2.15-.2-2.1.2-2 .6-1.9 1-1.6 1.35-1.35 1.65-1 1.85-.65 2.05-.2 2.1.2 2.1.65 2.05 1 1.85 1.35 1.65 1.6 1.35 1.9 1 2 .6 2.1.2 2.15-.2 2-.6 1.9-1 1.6-1.35 1.35-1.65 1-1.85.65-2.05.2-2.1-.2-2.1-.65-2.05-1-1.85-1.35-1.65-1.6-1.35z" id="i"/><path fill="#a6ce38" d="M1040.4 290.7q-3.7-5.25-11.25-5.6-8.85.45-13.2 7-4.3 6.5-5.15 14.65l35.45.25-1.05-5.7q-1.1-5.3-4.8-10.6z" id="j"/></defs><use xlink:href="#a" transform="matrix(1.90143 0 0 1.90143 -845.05 -357.9)"/><use xlink:href="#b" transform="matrix(5.0337 -.37006 .3702 5.03319 -1756.4 -2591.25)"/><use xlink:href="#c" transform="matrix(.04526 .1166 -.09267 .02962 1151.85 643.85)"/><use xlink:href="#d" transform="matrix(-.03328 .26076 -.10533 -.22865 1210.6 633.6)"/><use xlink:href="#e" transform="matrix(.01514 .16916 -.14499 -.01721 1214.35 639.4)"/><use xlink:href="#f" transform="matrix(-.03598 .09348 -.08937 -.06236 1259.35 766.35)"/><use xlink:href="#g" transform="matrix(-.03598 .09348 -.08937 -.06236 1259.35 766.35)"/><use xlink:href="#h" transform="matrix(.08893 .0635 -.0385 .09167 1114.85 746.85)"/><use xlink:href="#i" transform="matrix(-.03598 .09348 -.08937 -.06236 1259.35 766.35)"/><use xlink:href="#j" transform="matrix(-.03598 .09348 -.08937 -.06236 1259.35 766.35)"/></svg>