<svg xmlns="http://www.w3.org/2000/svg" xmlns:xlink="http://www.w3.org/1999/xlink" preserveAspectRatio="none" width="760" height="880" viewBox="614 10 760 880"><defs><path fill="#FFF" d="M1336.05 565.75q-10.5-24.45-26.55-45.75t-38.6-39.4q-17.4-7.25-36.3-18.85-18.85-11.6-39.65-28.2-36.35-29.75-62.85-60.15-26.45-30.4-47.6-56.55-21.15-26.15-41.5-43.1-20.35-17-44.4-19.9-1.15-.1-2.4-.2-1.2-.1-2.4-.1-.65-.05-1.25-.05h-1.25q-31.75 1-63.95 20.8-32.2 19.75-68.7 45.8-36.45 26-81 45.75-44.55 19.8-101 20.8-39.35-.4-67.1-7.95-27.7-7.55-52.5-17.55-24.8-9.95-55.4-17.5-30.55-7.6-75.55-8-106.4 3.4-171.1 72.05-64.7 68.65-97.6 161.95-32.9 93.3-44 170.65l-8.15 63.25-1.85 21-.35 13.95q.1 6.8 4.3 11.75 4.15 5 10.9 5.8 2.75.25 5.95-.95 3.25-1.2 5.9-4.45 2.65-3.3 3.8-9.15 3.8-43.1 12.2-83.7 8.45-40.55 17.95-73.6 9.55-33 16.7-53.45l8.3-23.15q1.05-2.85 2.9-5.75 1.8-3 4.2-4.7 2.4-1.7 5.1-.75 3.8 1.55 3.6 4.6-.15 3.05-1.2 7.35-2.85 15.55-5.75 35.9-2.9 20.4-4.9 47.05-2 26.7-2.05 61.2.75 62 17.8 117.55 17 55.6 40.95 101.25 23.9 45.7 45.35 78.05 21.4 32.35 31 47.85 3.2 5.45 8.55 8.5 5.35 3.1 11.7 3.15h140.95q7.4-.2 12.5-4.95t5.75-12.1q.6-19.25 1.85-49.65t10.45-61.45q9.2-31.05 33.55-52.3 24.4-21.2 71.2-22.1 54.85 1 86.4 23.8 31.55 22.75 46.7 55.65 15.15 32.85 20.75 64.15 5.55 31.25 8.35 49.15 1.45 6.5 6.3 10.45 4.9 4 11.5 4.1h139.9q7.45-.2 12.35-5.15 4.9-4.95 5.05-12.4-.05-36.15 5-71.75t16.45-66q11.4-30.4 30.3-50.95 12.8-13.45 30.35-14.2 17.55-.7 41.15 8.7 3.8 1.5 8 3.05 4.15 1.6 8.6 3.3 2.45.45 4.7.8 2.25.4 4.25.75 13.8 2.35 27.45 4.15 13.65 1.8 27.4 1.85 13.75.05 27.95-2.8 29.75-6.25 54.6-18 24.8-11.8 45.65-29.5 20.8-17.7 38.6-41.7 10.2-13.7 16.35-26.15 6.2-12.45 9.75-25.35 3.55-12.9 5.8-27.9.05-.6.15-1.15l.2-1.15q.1-4.35.35-8.05l.35-4.95q1.8-15.4 1.1-29.1-.75-13.65-2.8-27.25-2.05-13.55-4.35-28.6-3.05-21.3-8.25-40.85-5.2-19.6-12.9-37.5z" id="a"/><path fill="#FFF" d="M1465.55 478.95q.6-5.1-2.05-8.75-2.65-3.65-7.05-5t-9.05.35q-11.4 4.7-26.35 10.75-14.95 6.1-32.7 11.1-21.6 6.05-43.45 7.1-21.85 1.05-45.05-4.4-23.15-5.45-48.8-18.95-3.75-1.45-6.6-2.7-2.85-1.25-4.4-2.15-18.5-10.15-38.7-17.15-20.2-7.05-40.45-10.3-17.7-2.8-33.2-2.9-15.45-.05-30.8 2-15.4 2-32.85 5.6-17.75 3.55-30.25 9.95-12.45 6.4-22.95 15.8-10.5 9.35-22.2 21.9-6.5 6.8-14.45 16.95-7.95 10.1-14.55 21.05-6.55 10.95-8.95 20.2-2.05 8.4-4 16.9-1.95 8.5-3.8 17.1-2.6 11.95-4.95 23.9-2.3 11.95-4.2 23.8-2.6 15.6-5.75 31.55-3.15 16-5.3 32.05-2.15 16.05-1.7 31.9.4 13.8 1.2 25.3.85 11.5 3.85 22.6 2.95 11.05 9.8 23.55l.15.3q10.6 18.95 22.85 32.25 12.25 13.3 27 24 14.75 10.65 32.9 21.7 5.05 3.1 9.8 5.45 4.7 2.35 9.65 4.7 2.85.85 6.35 2.2 3.5 1.4 6.5 2.65t4.25 1.85l1 .4q.7.35 1.7.8 5.75 1.1 12 2.95 6.3 1.9 13.1 4.55 23.55 9.35 57.5 20.85 33.95 11.5 74.75 21.3 40.85 9.75 85.1 13.9 44.25 4.1 88.5-1.3 76.2-10.1 136.55-41.55 60.3-31.45 105.7-82.6 45.4-51.15 76.7-120.35 16.55-36.95 27.35-75.3 10.75-38.4 17.05-74.9 6.25-36.5 9.35-67.9 3.1-31.4 4.35-54.4.2-8.65-4.7-12.55-4.9-3.95-11.45-3.3-6.6.65-11.35 5.7-21.45 24.75-50.15 57.85-28.65 33.1-61.85 62.1t-68.2 41.35q-34.95 12.4-68.9-4.3-12.05-6.7-18.05-19.45-6.05-12.8-7.75-28.55-1.7-15.75-.8-31.4.95-15.65 2.75-28.1z" id="b"/><path fill="#0081c6" d="M1045.3 556q-1.1.05-2 .55-.9.55-1.45 1.45-.55.9-.55 2.05 0 1.1.55 2 .55.9 1.45 1.45.9.5 2 .55 1.15-.05 2.05-.55.9-.55 1.4-1.45.55-.9.55-2 0-1.15-.55-2.05-.5-.9-1.4-1.45-.9-.5-2.05-.55z" id="c"/><path fill="#0081c6" d="M1005.65 543.5h-4.4v2.3q-1.3-1.45-2.75-2.15t-3.1-.7q-1.9 0-3.5.75t-2.85 2.2q-1.25 1.45-1.9 3.3-.6 1.85-.6 4.05 0 2.25.6 4.1.65 1.85 1.9 3.35 1.3 1.5 2.9 2.2 1.6.75 3.55.75 1.55 0 3-.65t2.75-1.95v2.05h4.4v-19.6m-4.1 9.85q0 1.35-.4 2.5-.35 1.15-1.1 2.05-.75.85-1.7 1.25-1 .45-2.2.45-1.1 0-2.05-.45-.95-.45-1.7-1.35-.7-.85-1.05-2-.4-1.15-.4-2.55 0-1.35.4-2.45.35-1.1 1.1-2 .75-.85 1.7-1.3.95-.45 2.05-.45 1.2 0 2.15.45.95.4 1.7 1.3t1.1 2q.4 1.15.4 2.55m-21.2-9.9q-.45.25-1 .7-.5.45-1.1 1.1v-1.75h-4.35v19.6h4.35v-10.15q0-2.8.85-4.2.9-1.4 2.7-1.4.55 0 1.15.25.65.2 1.25.65l2-4.1q-.95-.6-1.85-.9-.9-.3-1.75-.3-.65 0-1.2.15-.55.1-1.05.35m36.25 0q-.45.25-.95.7-.55.5-1.2 1.15v-1.8h-4.3v19.6h4.3V553q0-1.55.25-2.7.2-1.1.6-1.85.45-.7 1.1-1.05.65-.35 1.6-.35 1.45 0 2.15 1.3.75 1.3.75 3.9v10.85h4.35V553q0-1.6.2-2.7.2-1.15.6-1.85.4-.7 1.05-1.05.65-.35 1.55-.35.8 0 1.35.3t.9.9q.35.55.5 1.55.15 1 .15 2.4v10.9h4.35V551q0-4.05-1.55-6.05-1.6-2-4.8-2-1.75 0-3.1.75-1.4.7-2.4 2.15-.95-1.45-2.2-2.15-1.25-.75-2.85-.75-.7 0-1.3.15-.6.1-1.1.35m-96.45.05q-1.25-.55-2.9-.55-1.45 0-2.7.6-1.3.6-2.45 1.75v-1.8h-4.35v19.6h4.35v-9.45q0-1.85.25-3.1.2-1.3.65-2 .45-.75 1.25-1.15.75-.35 1.8-.35 1 0 1.7.3.7.25 1.05.8.4.55.6 1.55.2 1 .2 2.45v10.95h4.35v-12q0-2.1-.4-3.6-.4-1.45-1.2-2.4-.9-1.05-2.2-1.6m-16.9 0h-4.35v19.6h4.35v-19.6m-3.25-5.4q.5.25 1.1.25.55 0 1.05-.25.5-.2.9-.65.45-.4.65-.95.2-.5.2-1.1 0-.65-.2-1.15-.2-.5-.65-.95-.4-.4-.9-.65-.5-.2-1.1-.2-.55 0-1.05.2-.5.25-.95.65-.4.45-.6.95-.2.5-.2 1.1 0 .65.2 1.15.2.55.6.95.45.45.95.65m41.45 5.6q-1.8-.75-3.9-.75-2.05 0-3.85.75-1.8.75-3.25 2.25t-2.15 3.3q-.75 1.8-.75 3.9 0 2.25.7 4.15.75 1.85 2.15 3.35 1.45 1.5 3.2 2.25 1.8.75 3.9.75 2.1 0 3.9-.75 1.85-.75 3.3-2.2 1.45-1.5 2.2-3.35.7-1.85.7-4.05 0-2.15-.7-4-.75-1.85-2.2-3.35-1.45-1.5-3.25-2.25m1.7 9.65q0 1.4-.35 2.55-.4 1.15-1.15 2-.75.85-1.8 1.3-1 .4-2.3.4-1.25 0-2.25-.45-1.05-.4-1.8-1.25-.75-.9-1.15-2.05-.35-1.15-.35-2.6 0-1.4.4-2.5.35-1.1 1.15-1.95.75-.9 1.75-1.35 1.05-.4 2.25-.4 1.3 0 2.3.4 1 .45 1.8 1.35.75.85 1.15 1.95.35 1.15.35 2.6m19.25-9.7q-1.5-.7-3.25-.7-2.05 0-3.65.8-1.65.8-2.9 2.4-1.15 1.5-1.7 3.3-.6 1.85-.6 3.95 0 2.2.65 4.05.6 1.85 1.85 3.3 1.2 1.45 2.8 2.15 1.55.75 3.5.75 1.7 0 3.15-.7 1.5-.7 2.8-2.05v2.75q0 3-1.2 4.55-1.2 1.5-3.55 1.5-1.3 0-2.3-.45-1-.45-1.65-1.4-.3-.35-.5-.95-.2-.55-.35-1.25h-4.35q.2 1.9.9 3.4.75 1.5 2 2.6 1.2 1.05 2.75 1.6t3.45.55q2.25 0 4-.8 1.75-.75 3-2.25.7-.8 1.15-1.75.45-.95.65-2.05.1-.4.15-.9.05-.45.1-1 .05-.5.05-1.1.05-.65.05-1.35v-19.1h-4.35v2.2q-1.2-1.35-2.65-2.05m2.8 9.7q0 1.35-.3 2.45-.35 1.05-1 1.95-.75.9-1.7 1.4-1 .45-2.25.45t-2.2-.45q-1-.45-1.7-1.4-.65-.85-.95-1.95-.35-1.1-.35-2.45t.35-2.45q.3-1.1.95-1.95.7-.95 1.7-1.45.95-.45 2.2-.45 1.15 0 2.1.45.95.4 1.7 1.3.75.85 1.1 2 .35 1.1.35 2.55m-77.55-10.4q-1.4 0-2.65.55-1.3.55-2.45 1.65V534h-4.35v29.1h4.35v-9.5q0-1.8.25-3.05.2-1.3.65-2.05.45-.7 1.25-1.1.85-.35 1.95-.35.9 0 1.55.25t1.05.8q.4.55.6 1.4.2.85.2 2v11.6h4.35v-12q0-2.05-.4-3.55t-1.25-2.45q-.95-1.05-2.2-1.6-1.3-.55-2.9-.55m-19.5.55h-4.35v19.6h4.35v-10.15q0-2.8.9-4.2.9-1.4 2.65-1.4.6 0 1.2.25.6.2 1.25.65l1.95-4.1q-.9-.6-1.8-.9-.9-.3-1.8-.3-.65 0-1.2.15-.55.1-1 .35-.5.25-1 .7-.55.45-1.15 1.1v-1.75z" id="d"/><path fill="#a6ce38" d="M678.4 334.85q-1.8-1.2-3.6-2.45-1.8-1.2-3.55-2.45-5.1-3.6-9.9-7.3-4.85-3.7-9.25-7.55 10.9 19.85 23.85 37.9 12.9 18 22.65 30.15 4.85 6.15 9.95 11.9 5.05 5.75 10.3 11.1-4.2 1.8-7.25 5.05-3.1 3.2-5.4 7.45-.8 1.5-1.5 3.05-.65 1.5-1.2 3.05.8 4.2 2.2 8.2 1.4 4 3.3 7.85 3.35 6.6 7.8 12.55 4.45 5.95 9.45 11.15 3.6 3.75 7.5 7.4 3.9 3.65 8.1 7.25 3.25 2.8 6.6 5.5 3.4 2.7 6.85 5.4 7.75 5.9 15.85 11.55 8.05 5.7 16.25 11.1l.3.2.2.1q.1.05.2.15l1.7 1.1 1.7 1.15q3.75 2.45 7.45 4.85 3.7 2.35 7.35 4.7l8.85 5.65q4.35 2.8 8.55 5.5l3.6 2.3q1.75 1.1 3.55 2.2 3.25 2.05 6.5 4.05 3.2 1.95 6.45 3.85 23.5 13.95 47.15 25 23.6 11.05 48 19.65.35.1.75.25.35.1.75.25 2.1.75 4.25 1.45 2.15.75 4.3 1.45.5-.95 1.1-1.85.55-.9 1.1-1.85 5.3-8.6 11.5-17.15 6.2-8.5 13.15-16.85 11.95-14.35 25.4-27.7 13.45-13.3 27.6-25h-.1l-.2-.1-.65-.15q-.3-.1-.65-.15l-4.3-1.2q-2.2-.6-4.35-1.25-12.8-3.65-25.4-7.85-12.6-4.2-25.05-8.85-7.2-.1-14.3-.25-7.1-.1-13.95-.2-6.8-.3-8.6-3.2-1.8-2.95 1.2-5.4-6-1.3-14.8-3.55t-15.95-4.8l-5.65-2.5-2.65-2.4q-.45-1.5-.35-2.55.1-1.05.7-1.75-9.05-5.05-18.2-10.3-9.2-5.25-18.4-10.35-9.55-5.25-18.85-10.85t-18.45-11.35q-1.95-.3-3.85-1.15-1.95-.85-3.3-1.7-7.2-4.55-14.5-9.05-7.35-4.45-14.75-8.95-1.75.2-3.75-.7-2.05-.9-4.1-2.25-10.05-6.3-20.55-12.8-10.45-6.55-20.9-13.3-8.15-4.35-16.55-9-8.4-4.6-16.85-9.55-.15-.05-.3-.15-.2-.1-.35-.2-5.55-3.25-11-6.6-5.45-3.4-10.75-6.9m5.05-166.55q-2.45-1.35-5.45-2.25-3.05-.95-5.9-.5-.6-.15-1.35-.1l-.95.1q-12.9 1.6-16.75 9.25-3.85 7.6-1.8 18.25 2.1 10.7 7 21.55 1.15 5.6 3.5 11.8 2.3 6.25 5.45 12.65-7.85-4.6-16.8-5.1-8.9-.5-13.6 9.6l-.15.55q-.15.5-.35.9-.35 1.1-.65 2.5l-.35 1.7q-1.25 7.25-.6 15.1.65 7.9 3.05 15.1.55 2.35 1.2 4.75.7 2.4 1.5 4.85l2.55 1.7q1.3.9 2.55 1.75 1.9 1.3 3.85 2.6l5.05 3.45q2.25 1.5 4.5 3.05l4.55 3.05 7.6 5.1 7.6 5.1v.05l5.15 3.4q4.8 3.25 9.65 6.45 4.85 3.2 9.65 6.4 11.25 7.4 22.55 14.75 11.25 7.3 22.6 14.45 4.85 2.65 9.5 5.35 4.65 2.7 9.05 5.45 10.45 6.4 21.45 12.7 11 6.25 20.75 13.2.35.25.65.5l.7.5q3.6 2.1 7.25 4.15 3.6 2.05 7.25 4.1 12.35 6.7 24.7 13.2Q862 426 874.35 432.3q27.35 14 54.25 24.4 26.85 10.4 55 18.75 2.3-.1 4.6-.15 2.3-.05 4.65-.15-7.6-5.55-15.1-11.15-7.45-5.6-14.8-11.3-62.25-48.05-116.65-100.1-54.4-52.05-101.35-107.1-12.1-14.2-23.75-28.5-11.6-14.35-22.75-28.85-3.8-4.95-7.55-9.9t-7.45-9.95z" id="e"/><path fill="#a6ce38" d="M1347.85 394.9l-2.35-1.95-6.25-.1q-7.3 2.2-14.3 4.2-7 2-13.35 3.35-.3.05-.55.1l-.6.1q-81.6 22.4-169.2 31.25-87.6 8.85-178.4 7.8-40.75 1.6-81.8 1.55-41.05-.05-82.05-2.25-6.1-.35-12.15-.7-6.1-.4-12.15-.85-2.55-.2-5.15-.4l-5.2-.4q-7.95-.65-16.1-1.4-8.15-.8-16.4-1.75-2.6.5-5.5 1.65t-4.25 3.25q-.5.2-.85.65l-.45.6q-5.75 8.05-1.3 14.65 4.4 6.6 14.8 11.75 10.35 5.15 22.4 8.85 5.5 2.7 12.2 5.1 6.7 2.4 14 4.5-1.35.5-3.15 1.3-1.75.8-3.15 1.7-1 .6-1.95 1.15l-1.8 1.2q-.1.25-.4.4l-.35.2q-5.6 6.15-.9 12.55 4.7 6.45 14.65 12.1 14.65 11.2 40.3 18.65 25.7 7.5 52.65 11.9 27 4.4 45.5 6.45 8.05.95 15.8 1.55 7.75.6 15.25.9-.7 3.35.35 6.95 1.1 3.6 3.5 7.4.85 1.4 1.9 2.75 1 1.35 2.1 2.65 12.65 9.7 30.9 14.2 18.2 4.5 37.5 6.1 19.35 1.6 35.3 2.6 0 1.25.45 2.45.5 1.2 1 2.05 8.65 12.5 23.3 17.4 14.65 4.9 30.25 5.25 17.15.75 35.7-.75 18.5-1.5 37.5-4.8 3.65-1.35 7.3-2.65 3.6-1.35 7.25-2.7 12.65-4.8 25.1-9.75 12.4-4.95 24.55-9.95 5.05-2.1 10.05-4.2 5-2.05 9.95-4.15 1.6-.65 3.15-1.3 1.55-.7 3.15-1.35 4.5-1.95 9.05-4.05 4.55-2.05 9.1-4.2 10.5-4.95 20.75-10.35 10.25-5.4 20.05-11.2 1.4-.8 2.7-1.65l2.7-1.6.3-.2.3-.2-.1-.3q-.05-.15-.15-.25-.15-.1-.35-.2-.15-.1-.35-.15-1.25-4.15-2.6-8.05-1.35-3.9-1.75-5.45-7.8-28.7-18.55-57.2-10.75-28.5-19.5-57.3-.15-.5-.35-1.55-.2-1.05-.6-2.4 8.85-2.95 16.9-6.25 8.05-3.35 15.2-7l7.35-4.7 2.15-3.55M796.3 497.5l-.5-.3q-.2-.15-.45-.3.05-.2.1-.35l.1-.4q.2.35.35.7.2.3.4.65m-19.35 4.9q.05.15.05.3-1.05-1-1.8-2.05-.75-1-1.15-2.05.6.9 1.3 1.75l1.5 1.7q.05.15.1.35z" id="f"/><path fill="#a6ce38" d="M793 728.5l11.5 6.7q11.3 6.35 30.65 14.8 19.35 8.4 43.85 15l10.25-22.7q9.2-21.4 21.05-49.5 11.85-28.05 20.8-49.35l9.4-22.45-25.4-11.05L793 728.5z" id="g"/><path fill="#a6ce38" d="M1126.45 316.6L1108 333.45q-14.65 14.1-33.35 32.25-18.65 18.15-34.45 33.25l-21.7 19.8-8.05 10.4-12.75 20.6q-15.1 25.65-35.4 58.2-20.25 32.5-41.55 58.35-21.3 25.85-39.45 31.45-17.95 5.3-28.25 17.8-10.35 12.55-10.6 22.95-.3 10.4 11.85 9.2l15.85-6.4 10.7-7.15 12.55-9.8q14.75-11.35 52.2-26.75 37.4-15.35 80.1-32.95 42.65-17.65 73.1-35.85 47.5-29.5 74.95-54.9 27.45-25.4 41.6-51.7 14.15-26.35 21.75-58.6 5.1-24.15-9.25-35.75-14.4-11.55-36.8-14.45-22.45-2.9-41.45-1.1l-15.3 1.95-7.85 2.35z" id="h"/><path fill="#a6ce38" d="M1037.75 310.3q-28.5-9.5-51.15-7.95-22.7 1.55-28.75 13.2-5.15 11.9-9.05 29.15-3.95 17.3-7.2 35.75t-6.4 34q-.95 11.1 24.45 14.2 25.4 3.15 59.95 1.7 34.55-1.45 61.15-4l28-2.85-4.85-21.15q-4.55-19.6-9.1-39.35l-5.05-21.65q-23.5-21.55-52-31.05z" id="i"/><path fill="#a6ce38" d="M1012.35 269.55q-15.25 1.75-24.45 7.2-9.2 5.5-13.5 10.45-4.35 4.65-9.75 13.8t-9.85 19.5q-4.45 10.35-5.9 18.45-.9 7.85 8.25 17.3 9.1 9.5 24.1 16.95 14.95 7.45 31.55 9.2 16.7 1.25 34-2.55 17.35-3.85 30.2-10.35 12.85-6.5 16.1-13.25-.1-7.45-4.95-25.25-4.8-17.75-14.3-34.75-9.55-17-23.7-22.1-22.55-6.3-37.8-4.6z" id="j"/><path fill="#a6ce38" d="M1099.4 333.3q11.45-10.2 19.2-22.3l-3.55-2.1-10.1-4.2q-13.4-5.25-36.75-7.1l2.95 10.5q3.05 9.8 6.7 21.3 3.65 11.5 5.55 17.3l16-13.4z" id="k"/><path fill="#0083CB" d="M1035.4 302.25l-1.9-1-2-.6-2.15-.2-2.1.2-2 .6-1.9 1-1.6 1.35-1.35 1.65-1 1.85-.65 2.05-.2 2.1.2 2.1.65 2.05 1 1.85 1.35 1.65 1.6 1.35 1.9 1 2 .6 2.1.2 2.15-.2 2-.6 1.9-1 1.6-1.35 1.35-1.65 1-1.85.65-2.05.2-2.1-.2-2.1-.65-2.05-1-1.85-1.35-1.65-1.6-1.35z" id="l"/><path fill="#a6ce38" d="M1040.4 290.7q-3.7-5.25-11.25-5.6-8.85.45-13.2 7-4.3 6.5-5.15 14.65l35.45.25-1.05-5.7q-1.1-5.3-4.8-10.6z" id="m"/></defs><use xlink:href="#a" transform="matrix(.35274 0 .01016 .29251 658.25 560.1)"/><use xlink:href="#b" transform="matrix(.31268 .0519 -.04503 .3126 731.55 477.7)"/><use xlink:href="#c" transform="matrix(2.19435 .41537 .00972 .29956 -1158.75 170.75)"/><use xlink:href="#d" transform="matrix(1.90143 0 0 1.90143 -845.05 -357.9)"/><use xlink:href="#e" transform="matrix(-.03198 .07861 .1103 .1762 1021.45 513)"/><use xlink:href="#f" transform="matrix(.0348 .16261 .1101 .1033 954.15 425.35)"/><use xlink:href="#g" transform="matrix(.13628 .16568 .01437 -.10861 910.65 548.1)"/><use xlink:href="#h" transform="matrix(.09248 .21413 .08945 .01503 910.9 433.65)"/><use xlink:href="#i" transform="matrix(.09877 .1329 .01517 -.08556 945.5 590.35)"/><use xlink:href="#j" transform="matrix(.09877 .1329 .01517 -.08556 945.5 590.35)"/><use xlink:href="#k" transform="matrix(.05069 .15031 .0861 .04886 971.45 527.95)"/><use xlink:href="#l" transform="matrix(.09877 .1329 .01517 -.08556 945.5 590.35)"/><use xlink:href="#m" transform="matrix(.09877 .1329 .01517 -.08556 945.5 590.35)"/></svg>