<svg xmlns="http://www.w3.org/2000/svg" xmlns:xlink="http://www.w3.org/1999/xlink" preserveAspectRatio="none" width="760" height="880" viewBox="614 10 760 880"><defs><path fill="#a6ce38" d="M678.4 334.85q-1.8-1.2-3.6-2.45-1.8-1.2-3.55-2.45-5.1-3.6-9.9-7.3-4.85-3.7-9.25-7.55 10.9 19.85 23.85 37.9 12.9 18 22.65 30.15 4.85 6.15 9.95 11.9 5.05 5.75 10.3 11.1-4.2 1.8-7.25 5.05-3.1 3.2-5.4 7.45-.8 1.5-1.5 3.05-.65 1.5-1.2 3.05.8 4.2 2.2 8.2 1.4 4 3.3 7.85 3.35 6.6 7.8 12.55 4.45 5.95 9.45 11.15 3.6 3.75 7.5 7.4 3.9 3.65 8.1 7.25 3.25 2.8 6.6 5.5 3.4 2.7 6.85 5.4 7.75 5.9 15.85 11.55 8.05 5.7 16.25 11.1l.3.2.2.1q.1.05.2.15l1.7 1.1 1.7 1.15q3.75 2.45 7.45 4.85 3.7 2.35 7.35 4.7l8.85 5.65q4.35 2.8 8.55 5.5l3.6 2.3q1.75 1.1 3.55 2.2 3.25 2.05 6.5 4.05 3.2 1.95 6.45 3.85 23.5 13.95 47.15 25 23.6 11.05 48 19.65.35.1.75.25.35.1.75.25 2.1.75 4.25 1.45 2.15.75 4.3 1.45.5-.95 1.1-1.85.55-.9 1.1-1.85 5.3-8.6 11.5-17.15 6.2-8.5 13.15-16.85 11.95-14.35 25.4-27.7 13.45-13.3 27.6-25h-.1l-.2-.1-.65-.15q-.3-.1-.65-.15l-4.3-1.2q-2.2-.6-4.35-1.25-12.8-3.65-25.4-7.85-12.6-4.2-25.05-8.85-7.2-.1-14.3-.25-7.1-.1-13.95-.2-6.8-.3-8.6-3.2-1.8-2.95 1.2-5.4-6-1.3-14.8-3.55t-15.95-4.8l-5.65-2.5-2.65-2.4q-.45-1.5-.35-2.55.1-1.05.7-1.75-9.05-5.05-18.2-10.3-9.2-5.25-18.4-10.35-9.55-5.25-18.85-10.85t-18.45-11.35q-1.95-.3-3.85-1.15-1.95-.85-3.3-1.7-7.2-4.55-14.5-9.05-7.35-4.45-14.75-8.95-1.75.2-3.75-.7-2.05-.9-4.1-2.25-10.05-6.3-20.55-12.8-10.45-6.55-20.9-13.3-8.15-4.35-16.55-9-8.4-4.6-16.85-9.55-.15-.05-.3-.15-.2-.1-.35-.2-5.55-3.25-11-6.6-5.45-3.4-10.75-6.9m5.05-166.55q-2.45-1.35-5.45-2.25-3.05-.95-5.9-.5-.6-.15-1.35-.1l-.95.1q-12.9 1.6-16.75 9.25-3.85 7.6-1.8 18.25 2.1 10.7 7 21.55 1.15 5.6 3.5 11.8 2.3 6.25 5.45 12.65-7.85-4.6-16.8-5.1-8.9-.5-13.6 9.6l-.15.55q-.15.5-.35.9-.35 1.1-.65 2.5l-.35 1.7q-1.25 7.25-.6 15.1.65 7.9 3.05 15.1.55 2.35 1.2 4.75.7 2.4 1.5 4.85l2.55 1.7q1.3.9 2.55 1.75 1.9 1.3 3.85 2.6l5.05 3.45q2.25 1.5 4.5 3.05l4.55 3.05 7.6 5.1 7.6 5.1v.05l5.15 3.4q4.8 3.25 9.65 6.45 4.85 3.2 9.65 6.4 11.25 7.4 22.55 14.75 11.25 7.3 22.6 14.45 4.85 2.65 9.5 5.35 4.65 2.7 9.05 5.45 10.45 6.4 21.45 12.7 11 6.25 20.75 13.2.35.25.65.5l.7.5q3.6 2.1 7.25 4.15 3.6 2.05 7.25 4.1 12.35 6.7 24.7 13.2Q862 426 874.35 432.3q27.35 14 54.25 24.4 26.85 10.4 55 18.75 2.3-.1 4.6-.15 2.3-.05 4.65-.15-7.6-5.55-15.1-11.15-7.45-5.6-14.8-11.3-62.25-48.05-116.65-100.1-54.4-52.05-101.35-107.1-12.1-14.2-23.75-28.5-11.6-14.35-22.75-28.85-3.8-4.95-7.55-9.9t-7.45-9.95z" id="a"/><path fill="#a6ce38" d="M1347.85 394.9l-2.35-1.95-6.25-.1q-7.3 2.2-14.3 4.2-7 2-13.35 3.35-.3.05-.55.1l-.6.1q-81.6 22.4-169.2 31.25-87.6 8.85-178.4 7.8-40.75 1.6-81.8 1.55-41.05-.05-82.05-2.25-6.1-.35-12.15-.7-6.1-.4-12.15-.85-2.55-.2-5.15-.4l-5.2-.4q-7.95-.65-16.1-1.4-8.15-.8-16.4-1.75-2.6.5-5.5 1.65t-4.25 3.25q-.5.2-.85.65l-.45.6q-5.75 8.05-1.3 14.65 4.4 6.6 14.8 11.75 10.35 5.15 22.4 8.85 5.5 2.7 12.2 5.1 6.7 2.4 14 4.5-1.35.5-3.15 1.3-1.75.8-3.15 1.7-1 .6-1.95 1.15l-1.8 1.2q-.1.25-.4.4l-.35.2q-5.6 6.15-.9 12.55 4.7 6.45 14.65 12.1 14.65 11.2 40.3 18.65 25.7 7.5 52.65 11.9 27 4.4 45.5 6.45 8.05.95 15.8 1.55 7.75.6 15.25.9-.7 3.35.35 6.95 1.1 3.6 3.5 7.4.85 1.4 1.9 2.75 1 1.35 2.1 2.65 12.65 9.7 30.9 14.2 18.2 4.5 37.5 6.1 19.35 1.6 35.3 2.6 0 1.25.45 2.45.5 1.2 1 2.05 8.65 12.5 23.3 17.4 14.65 4.9 30.25 5.25 17.15.75 35.7-.75 18.5-1.5 37.5-4.8 3.65-1.35 7.3-2.65 3.6-1.35 7.25-2.7 12.65-4.8 25.1-9.75 12.4-4.95 24.55-9.95 5.05-2.1 10.05-4.2 5-2.05 9.95-4.15 1.6-.65 3.15-1.3 1.55-.7 3.15-1.35 4.5-1.95 9.05-4.05 4.55-2.05 9.1-4.2 10.5-4.95 20.75-10.35 10.25-5.4 20.05-11.2 1.4-.8 2.7-1.65l2.7-1.6.3-.2.3-.2-.1-.3q-.05-.15-.15-.25-.15-.1-.35-.2-.15-.1-.35-.15-1.25-4.15-2.6-8.05-1.35-3.9-1.75-5.45-7.8-28.7-18.55-57.2-10.75-28.5-19.5-57.3-.15-.5-.35-1.55-.2-1.05-.6-2.4 8.85-2.95 16.9-6.25 8.05-3.35 15.2-7l7.35-4.7 2.15-3.55M796.3 497.5l-.5-.3q-.2-.15-.45-.3.05-.2.1-.35l.1-.4q.2.35.35.7.2.3.4.65m-19.35 4.9q.05.15.05.3-1.05-1-1.8-2.05-.75-1-1.15-2.05.6.9 1.3 1.75l1.5 1.7q.05.15.1.35z" id="b"/><path fill="#a6ce38" d="M793 728.5l11.5 6.7q11.3 6.35 30.65 14.8 19.35 8.4 43.85 15l10.25-22.7q9.2-21.4 21.05-49.5 11.85-28.05 20.8-49.35l9.4-22.45-25.4-11.05L793 728.5z" id="c"/><path fill="#a6ce38" d="M1126.45 316.6L1108 333.45q-14.65 14.1-33.35 32.25-18.65 18.15-34.45 33.25l-21.7 19.8-8.05 10.4-12.75 20.6q-15.1 25.65-35.4 58.2-20.25 32.5-41.55 58.35-21.3 25.85-39.45 31.45-17.95 5.3-28.25 17.8-10.35 12.55-10.6 22.95-.3 10.4 11.85 9.2l15.85-6.4 10.7-7.15 12.55-9.8q14.75-11.35 52.2-26.75 37.4-15.35 80.1-32.95 42.65-17.65 73.1-35.85 47.5-29.5 74.95-54.9 27.45-25.4 41.6-51.7 14.15-26.35 21.75-58.6 5.1-24.15-9.25-35.75-14.4-11.55-36.8-14.45-22.45-2.9-41.45-1.1l-15.3 1.95-7.85 2.35z" id="d"/><path fill="#a6ce38" d="M1037.75 310.3q-28.5-9.5-51.15-7.95-22.7 1.55-28.75 13.2-5.15 11.9-9.05 29.15-3.95 17.3-7.2 35.75t-6.4 34q-.95 11.1 24.45 14.2 25.4 3.15 59.95 1.7 34.55-1.45 61.15-4l28-2.85-4.85-21.15q-4.55-19.6-9.1-39.35l-5.05-21.65q-23.5-21.55-52-31.05z" id="e"/><path fill="#a6ce38" d="M1012.35 269.55q-15.25 1.75-24.45 7.2-9.2 5.5-13.5 10.45-4.35 4.65-9.75 13.8t-9.85 19.5q-4.45 10.35-5.9 18.45-.9 7.85 8.25 17.3 9.1 9.5 24.1 16.95 14.95 7.45 31.55 9.2 16.7 1.25 34-2.55 17.35-3.85 30.2-10.35 12.85-6.5 16.1-13.25-.1-7.45-4.95-25.25-4.8-17.75-14.3-34.75-9.55-17-23.7-22.1-22.55-6.3-37.8-4.6z" id="f"/><path fill="#a6ce38" d="M1099.4 333.3q11.45-10.2 19.2-22.3l-3.55-2.1-10.1-4.2q-13.4-5.25-36.75-7.1l2.95 10.5q3.05 9.8 6.7 21.3 3.65 11.5 5.55 17.3l16-13.4z" id="g"/><path fill="#0083CB" d="M1035.4 302.25l-1.9-1-2-.6-2.15-.2-2.1.2-2 .6-1.9 1-1.6 1.35-1.35 1.65-1 1.85-.65 2.05-.2 2.1.2 2.1.65 2.05 1 1.85 1.35 1.65 1.6 1.35 1.9 1 2 .6 2.1.2 2.15-.2 2-.6 1.9-1 1.6-1.35 1.35-1.65 1-1.85.65-2.05.2-2.1-.2-2.1-.65-2.05-1-1.85-1.35-1.65-1.6-1.35z" id="h"/><path fill="#a6ce38" d="M1040.4 290.7q-3.7-5.25-11.25-5.6-8.85.45-13.2 7-4.3 6.5-5.15 14.65l35.45.25-1.05-5.7q-1.1-5.3-4.8-10.6z" id="i"/><path fill="#FFF" d="M1312.05 387.9q-3.6-7.8-8.7-16.5T1292 354.55q-5.7-7.3-11.8-13.35-6.15-6.05-12.05-11.15-5.95-5.1-11.2-9.65-6.1-5.3-15.1-11.95-9-6.65-18.95-13.2-10-6.55-18.9-11.6-8.9-5.05-14.85-7.25-9.2-3.45-18.15-6.25-9-2.85-19.5-4.95t-24.25-3.25q-8.4-.8-17.1-4.9-8.7-4.1-16.45-10.2-7.8-6.1-13.45-12.85-5.6-6.75-7.9-12.85L1055.1 378.2q2.45.9 8.55 2.85 6.05 2 13.65 4.2 7.6 2.2 14.75 3.9 7.1 1.7 11.7 2.1 14.8 1.25 29.2 2.3 14.35 1.05 26.75 1.15 12.35.15 21.1-1.45 13.95-2.7 24.9-6.1 11-3.35 20.05-6.05 9-2.7 17.15-3.45 6.5-.55 13-.75 6.55-.15 12.4.65 5.85.8 10.25 3.2 5.95 3.35 12.9 7.4 6.9 4.1 13.15 8.1 6.3 4 10.3 7.15l3 2.7 1.1 1.9-.25-2.5-1.3-4.4q-1.8-5.4-5.4-13.2z" id="j"/><path fill="#0081c6" d="M1035.55 160.15l.1-1.6q.05-.85-.05-1.6l-.05-.45-.05-.2q0-.1-.1-.1l-.2-.1-.3-.2q-.45-.35-1.4-.8-.95-.5-1.5-.75-.6-.25-1.25-.4-.65-.2-1.25-.4-.85-.3-1.65-.6-.85-.35-1.65-.7-1.4-.65-2.85-.9-1.4-.3-2.9-.7l-.35-.15-.65-.2q-.8-.25-1.45-.45-.05.35-.15.85l-.05.35-.05.2q-.55 3.2-1.05 6.45-.55 3.2-1.25 6.4-1.1 5.35-1.65 11-.55 5.6-1.25 11.1-1.75 12.9-3.5 25.7-1.7 12.85-3.15 25.7-1.9 16.3-4.1 32.55-2.15 16.2-4 32.5-1.8 16.25-2.65 32.65-.2 3.1-.25 6.2-.05 3.15.55 6.2.1.3.15.6.05.25.15.55l.35.75q.25.55.45 1.05.35.6.9 1.05.6.4 1.2.3 1-.3 1.45-1.1.4-.8.5-1.8.15-1 .25-1.9 2-13.1 3.65-26.25 1.65-13.2 3.4-26.35 1-7.7 2.05-15.25 1.1-7.55 2.75-15.15 1.35-6 2.95-11.9 1.65-5.9 3.4-11.8l.15-.4.2-.75q.3-.95.55-1.75-.1.45-.15 1l-.1.45v.25q-.7 4.85-1.15 9.75-.45 4.9-1.15 9.75-1.1 7.05-2.3 14.15-1.2 7.1-1.85 14.25-.7 7.15-.3 14.3.15 1.75.15 3.2 0 1.45-.25 3.2-.25 1.55-.5 3.15-.2 1.55-.2 3.15-.05.35 0 .7 0 .35.15.7.4.75.65.55.25-.2.4-.8-.05.45-.1 1l-.05.45-.05.2q-.85 6.6-1.75 13.2-.95 6.55-1.3 13.2-.15 2.35-.35 4.75-.15 2.35 0 4.7.05.45.1.85.05.45.15.85l.05.4.2.65q.25.8.6 1.4.5-.25.95-.65l.4-.35.2-.25q1.3-1.55 1.8-4.2.55-2.7.65-5.5.1-2.85.1-4.8.1-3.05.55-6.35.45-3.3.85-6.35 1.5-11.4 3.05-22.8 1.6-11.45 2.9-22.9 1.35-11.5 2.1-22.9.7-10.15 1.95-20.25 1.2-10.05 2.6-20.15 1.35-10.05 2.45-20.15l2.3-19.6q1.2-9.85 1.85-19.65z" id="k"/><path fill="#FFF" d="M1031.55 159.6q-.45-.05-1-.1l-.45-.05h-.25l-3.4-.3q-1.75-.15-3.45-.3l-2.75-.25q-.8-.1-1.5-.15-.1.5-.15 1l-.1.7q-5.55 39.55-10.75 79.05t-9.2 79.25q-4.4 43.9-7.4 87.8-2.95 43.9-4 88.05-1 48.6.3 97.2 1.25 48.6 3.9 97.1 1.35 25.5 2.65 51l2.6 51 .05.45v.8q.05.95.1 1.75 0 .5.05 1.05v.45l.05.2q0 .9.05 1.75l.1 1.7q0 .4.05.85v.85l.05.4v.65q.05.85.1 1.55.45-.1.95-.15l.7-.1 6.6-1q3.3-.5 6.6-1.05l2.5-.35q0-.45-.05-1l-.05-.45v-.25q-2.45-40.75-4.8-81.5-2.35-40.8-4.45-81.55-4.1-79-2.3-157.95 1.85-78.95 9.6-157.65 3.2-32.15 6.85-64.15 3.65-32.05 7.85-64.05l1.8-13.6q.95-6.75 1.85-13.55l.15-.85q.05-.45.1-.85l.2-1.4q.15-1.1.25-2z" id="l"/><path fill="#FFF" d="M882.55 535.5q-2.2-9.85-7.95-16.4-5.7-6.5-16.4-5.75-13.9 1.5-33.1 6.55-19.25 5-38.85 11.4t-34.65 12q-15 5.65-20.6 8.4-10.4 5.1-19.85 11.05-9.5 5.95-16.5 13.15t-10 16.05q-3 8.9-.45 19.85 1.65 6.8 5.75 19.45 4.05 12.6 10 29.05 5.95 16.45 13.2 34.75 7.3 18.25 15.35 36.35l-.2 3.85q-.35 3.05 1 6.75t6.5 6.5q5.15 2.8 16.25 3.05 14.1 0 23.75-3.05 9.65-3.1 15-6.8l4.3-3.3 2.25-2.35q1.45-15.75 4.8-32.75 3.35-16.95 7.65-32.35 4.3-15.4 8.55-26.4 4.3-11 7.6-14.8 3.2-3.45 8.95-7.25 5.75-3.8 13.25-7.8 7.55-4.05 16.05-8.25 8.8-4.55 14.05-12 5.3-7.45 6.85-14.75 1.6-7.35-.7-11.6.55-4.5.45-13.65-.15-9.15-2.3-18.95z" id="m"/><path fill="#0081c6" d="M1137.8 562.05l-.85-2.65-.05-.05-.05-.15-.05-.05-1.5-2.15-1.95-1.85-4.3-2.9-8.95-4.6h-.1l-5.4-1.85-2.75-.6-5.65-.65H1095l-22 2.85-10.85 2.35-34.4 10.4-10.25 4.3-.05.05h-.05l-2.2 1.2-8.25 5.9-7.15 7.1-.95 1.15-.25-.75-.35-.45-1-.25-.95.5-.3.45-.05.65.3 3.1-2.3 3.55-.2.6.05.55.7.85 1 .2.5-.25.4-.5.3-.5 2.4 16.6 2.5 7.5 7.65 41.85 20.2 90 1.85 5.2 1.25 2.45.1.1.05.1 1.55 2.05 1.85 1.9 4.1 3.15 6.85 3.55 7.3 2.35 2.45.55h.05l18.75 2.55 8.15.45 11-.45 2.7-.55.05-.05h.1l11.85-4.8 9.05-4.9 4.2-3.05.15-.2.2-.15 1.35-2.3 1.05-2.5 8.15-27.3v-.05l.65-2.55 9.8-66.15.5-31.75-.55-23.7-1.15-10.55-4.6-17.4-.45-7.5z" id="n"/><path fill="#FFF" d="M1101.4 492q-12.1-13.65-27.4-26.3-15.3-12.7-30.5-20.35-15.15-7.7-26.75-6.45-14.4 2.25-24 8.65-9.6 6.45-14.75 14.95-5.15 8.45-6.2 16.75-1.1 8.3 1.55 14.2 3.55 7.85 8.4 23.2Q986.6 532 992.2 552.6q5.6 20.65 11.4 44.35 5.8 23.75 11.15 48.35 4.75 21.55 8.95 41.15 4.25 19.6 7.55 35.5 3.3 15.95 5.3 26.5l2.55 2.15 4.95 2.75q6.15 3.05 15.3 5.5 9.2 2.4 19.65 2.35 14.9-.4 23.45-2.9 8.5-2.55 12.15-5.25l2.75-2.35 1-1.5q13.75-48.15 17.35-87.6 3.6-39.4.85-69.25-2.75-29.8-8.1-49.05-5.35-19.25-9.5-27-5.45-10.65-17.55-24.3z" id="o"/><path fill="#FFF" d="M656.95 766.95l-8.05-.8q-1.6 0-2.6 1.1-1.05 1.1-1.1 2.55-.05 1.5 1.3 2.7l2.6 1.4 5.45 2.2q6.9 2.6 18.4 4.6 11.45 2 26.2 1.2 14.7-.75 31.5-6.45 11.65-4.35 21.95-12.65 10.35-8.3 18.3-17.35 8-9.05 12.6-15.55l4.8-7.25-1.05-1.4-2.9-2.8q-3.8-3.5-8.4-7.55-4.65-4-7.35-6.3-2.1 3.35-7.35 10.9Q756 723 748.5 732q-7.45 9.05-16.15 16.9-8.75 7.85-17.75 11.9-9.9 4.1-20.75 5.6-10.85 1.45-20.6 1.35-9.7-.15-16.3-.8z" id="p"/><path fill="#FFF" d="M985.85 192.35l2.2-3.4.8-2.05q-4.05-2.1-9.95-3-5.95-.85-12.2-.85-6.25.05-11.25.7-5.05.65-7.3 1.6-1.85 1.05-5.6 4.95-3.75 3.9-7.8 8.65-4.1 4.75-7 8.2l-3.05 3.65 2 1.35q1.85 1.2 3.85 2.4l1.6.9.85.3q11.4-1.85 18.85-3.15 7.4-1.3 12.05-2.6 4.65-1.25 7.75-3 3.35-2.05 7.35-6.3 3.95-4.3 6.85-8.35z" id="q"/><path fill="#FFF" d="M752.65 747.45q-.15 12.1-.35 28.95-.25 16.85-.45 32.15-.2 15.25-.3 22.5-.1 8.65.25 20.55t.85 23.55q.55 11.65.95 19.5l.45 8.35q6.15 5.05 19.85 7.2 13.65 2.1 30.5 1.65 16.9-.5 32.75-3.3 15.9-2.8 26.45-7.55l1.3-7.85q1.2-7.4 3-18.1 1.8-10.65 3.75-20.95 1.95-10.25 3.55-16.5 1.85-7.2 4.55-18.15 2.7-11 5.4-22.15 2.65-11.1 4.45-18.7l1.9-8.05q-7.45-13.9-26.4-22.45-18.9-8.55-41.85-12.5-22.9-3.95-42.4-4-19.45-.1-28.05 2.9l-.15 12.95z" id="r"/><path fill="#0083CB" d="M943.65 840.8q-1.05-2.05-1.45-3.45-.75-2.75-1.15-5.5-.35-2.8-.9-5.5l-.5-1.5-.55-.4q-.6.1-1.05 1.35-.4 1.2-.4 2.45.15 3.15 1.1 7.5.95 4.35 3.1 7.95 2.1 3.6 5.8 4.45 3.45.45 5.8-2.6 2.35-3 3.65-7.05 1.3-4.05 1.65-6.75.15-1 .2-2.9.05-1.9-.25-3.6-.3-1.75-1.25-2.3l-.2-.05q-.15 0-.2.05-.35.35-.45.85l-.15.7q-.25 1.9-.3 3.9 0 2-.35 3.95-.3 1.7-1.15 4.5-.85 2.8-2.15 5.3-1.3 2.45-3 3.1-1.75.45-3.3-.95-1.5-1.45-2.55-3.5z" id="s"/><path fill="#0081c6" d="M951.25 738.5q-.15-3.15-.55-4.95-.4-1.8-1.65-2.05-1.3-.25-3.95 1.25-.75 1.5-.85 3.3-.15 1.85 0 3.35-1.35 1.4-2.55 3.25-1.2 1.85-2.05 3.45l-1.1 2.15q-5.1 12.35-6.25 30-1.2 17.7.85 36.75t6.6 35.5q4.5 16.5 10.8 26.55.35.55.95 1.5t1.4 2q.2 1.65 1.15 2.65.9 1 3.2.35l.15-.15q.2.05.35 0 .2 0 .4-.05v-.3-.35q1.55-2.05 1.65-5.25.15-3.15-.25-5.75l-.45-2.8q-1.9-32.6-3.9-65.2t-3.95-65.2z" id="t"/><path fill="#FFF" d="M775.35 771.35l4.9 7.95q4.65 7.55 11.05 18.1 6.4 10.6 11.95 19.9 5.5 9.35 7.4 13.2 2.8 5.9 6.7 16.8 3.95 10.85 7.75 22.5 3.85 11.6 6.45 19.7l2.75 8.5q6.05 4.2 22.45 7.3 16.4 3.1 36.25 3.95 19.85.9 36.4-1.55 16.5-2.5 22.85-9.4.9-12.35.75-25.05-.2-12.65-.85-25.25-.7-12.6-1.25-24.65-.75-18.4-1.65-35-.85-16.65-1.65-29.7-.8-13.05-1.3-20.65l-.4-7.85q-19.4-5.4-41.8-2.7-22.45 2.65-45.55 10.2-23.1 7.55-44.5 16.75-21.4 9.25-38.7 16.95z" id="u"/><path fill="#0083CB" d="M943.35 838.65q-1.2-2.6-1.95-5.7-.8-3.05-1.8-5.85l-.4-.7-.3-.15q-.3.15-.45.85-.15.7-.15 1.4.2 3.1 1.2 6.95 1 3.8 2.75 6.95 1.7 3.15 4.05 4.3 4 1.55 6.85-1.1 2.85-2.65 4.45-7.45 1.6-4.75 1.75-9.5v-1.7q-.05-1-.25-1.8-.25-.75-.7-.7-.15.3-.3.65l-.15.5q-.6 2-.85 4.2-.3 2.15-.8 4.3-1.15 4.45-3.3 7.15t-4.75 2.35q-2.55-.35-4.9-4.95z" id="v"/><path fill="#FFF" d="M789.2 341.6q-3.4 5.75-11.45 18.2-8.05 12.45-17.8 27.65t-18.3 29.35q-8.55 14.1-12.85 23.2l49.1 7.45q46.65 6.55 107.9 14.7 61.2 8.1 107.35 13.7l35 3.95 12.65.65-7.8-9.85q-5.8-7.2-13.15-15.8-7.35-8.55-13.8-15.45-6.5-6.85-9.8-8.9l-35.8-15.85q-31.25-13.5-70.8-30.35-39.6-16.85-69.25-29.4l-31.2-13.25z" id="w"/><path fill="#0081c6" d="M948.5 775.95l-.85-1.6q-.65-1.15-1.55-2.5-.95-1.4-1.9-2.4-.65-.1-.8.45-.2.5-.3 1-.6 2.8-.2 4.5.4 1.75 1.45 3.25 1.05 1.5 2.45 3.6l.65 1.65q.45 1.25 1.1 2.8.65 1.5 1.45 2.65l.2-.1q.1-.1.2-.15.15-.3.15-.65 0-.35.05-.5.45-1.1.1-3.45-.35-2.4-1-4.85-.7-2.45-1.2-3.7M857.6 787q.25.25.4.3l4.75.5q4.15.25 8.55.45l5.85.3q.45.05 1.55.2 1.05.1 2.15.05 1.15-.1 1.85-.6-.2-.2-.45-.4l-.35-.25q-.4-.3-1.1-.55-.65-.25-1.6-.45.1 0 .25-.05.1-.05.2-.15 0-.15-.2-.3t-.3-.2q-.95-.7-3.2-.9-2.2-.2-4.45-.2h-3.55l-1.7-.15q-1.35-.1-2.5-.3-.25 0-.45.1-.25.1-.35.25-.45 0-.9-.05-.45 0-.8-.05-.25 0-.6.2t-.45.4l.05.1q-.4-.05-.8-.05-.35-.05-.7-.05-.55.1-1.05.45-.45.3-.35.9 0 .3.25.5m87.65-132.85q-7.2 17.5-12.4 35.65-5.15 18.15-8.3 38.65-.85 5.35-1.55 10.45-.7 5.05-1.15 9.95.4-.15.8-.25.35-.15.65-.2.3.05.65.1.4.1.5.2 1.6 1.7 3.1 6.2 1.45 4.45 2.75 9.5 1.25 5.05 2.1 8.5.65-.1 1.55-.05.85.05 1.9.25 0-2.45.9-5.25.9-2.85 2.95-4.5 2.1-1.7 5.75-.7 1.5.75 3 2t2.65 2.45q1.15 1.2 1.5 1.75 1.35 1.9 3.1 5.05 1.7 3.2 2.95 6.4 1.3 3.2 1.25 5.2 1.2-.3 2.55-.6 1.4-.3 2.9-.6l1.2-.3q1-.25 2.2-.6 1.15-.35 2.1-.75.75-.45 1.7-.65.95-.15 1.95 0 1.55-1 3.85-1.7 2.35-.7 4.6-1.1 2.2-.4 3.5-.55l2.9-.5q1.4-.25 2.85-.5 1-.6 2.05-1.05 1-.5 1.95-.85.6-.7 1.3-1.4.65-.7 1.4-1.35.5-.45 1.3-1.1.75-.7 1.7-1 .95-.3 1.95.25.1.25.15.5l.1.5q4.3-4.75 8.5-9.5t9.4-8.5q.35-.35.75-.65.4-.3.75.2.1 1.05-.5 2.15-.55 1.05-1.2 1.85l-.9 1.15q-1.5 2.1-3 4-1.55 1.95-3.15 3.75 4.35-4.45 8.3-9.1 3.95-4.6 8.2-9.5l1-1.05q.75-.7 1.8-1.5 1-.75 2-1.15.9 1.85-.55 4.65-1.45 2.8-3.35 5.1l-2.35 2.8q1.125-1.256 2.4-2.4l.4-.3q.35-.2.75-.3.6 1.6-.8 3.7-1.35 2.15-3.05 3.8l-2.05 2-.3.3-.3.3q-.5.55-1.05 1.1-.6.5-1.15 1.05-1 .9-2.1 1.8-1.05.9-2.2 1.8-1.4 1.1-2.85 2.2-1.45 1.05-2.95 2.1-.9.6-1.75 1.2-.9.6-1.75 1.2-1.05.7-2.05 1.4-1 .65-2.05 1.35-1.25.95-2.55 1.85-1.3.95-2.65 1.85-.55.35-1.1.75-.55.35-1.15.7.6.05 1.2.15.6.05 1.2.2 4.7-1.75 9-3.7 4.25-1.9 7.6-3.7 16.05-8.55 28.8-19.9 12.75-11.35 22.15-24.9 9.35-13.5 15.2-28.75 2.4-5.05 4.4-10.5 1.95-5.4 3.45-11.05 1.1-2.55 1.75-5.5.6-2.9.9-5.95 2-10.7 2.7-21.75.7-11.05.2-22.1.3-18.6-3.4-37.3-3.65-18.75-12.1-37.4l-1.6-3.5-1.6-3.55q-.3 1.85.4 4.1.75 2.2 1.05 4.3.35 2.1-1.2 3.5-2.8 2.2-4.15.5-1.35-1.65-2-4.75-.65-3.05-1.3-5.15-3.25.6-5.4-3.2-2.15-3.85-3.45-9-1.35-5.2-2.15-8.7l-.5-1.9q-.35-1.45-.8-3.25-.45-1.85-.85-3.3-.6-.65-1.55-.4l-.8.2-.45.05q-2.15-1.3-2.25-4.05-.1-2.75 1.2-6.4-20.2 13.7-37.85 32.2-17.65 18.5-31.75 38.8-14.1 20.35-23.7 39.6-9.35 18.45-16.6 35.9m143.9 35.65q.25-.9.45-1.75.2-.9.45-1.75l.15-.25.2-.2-.6 2q-.3.95-.65 1.95M705.9 525.1q-.25-.5-.55-.95-.15-.2-.35-.3-.2-.1-.4-.1-.35-.4-.6-.75l-.6-.7q-1.25-.55-.95.2.25.7 1.1 2.05-.05.15-.05.45 0 .35.05.75l-.7-1.65q-.4-1-1.05-2.15t-1.45-1.95q-.85-.55-1-.2-.1.35.1 1.15.2.8.45 1.7 2.1 8.2 4.75 16.4 2.65 8.15 5.25 16.4-1.75-3.2-3.6-6.5-1.8-3.35-3.65-7-.3-.75-1.05-2.3-.7-1.6-1.7-3.15-1-1.55-2.25-2.2-.45.1-.75.4-.35.3-.4.6l.3 1.3.95 2.05q1.2 2.5 2.65 5.05t2.15 3.65l1.2 2q.55.95 1.1 1.95-.2-.1-.4-.1t-.35.1l.05 1.7 1.05 3.25q1.65 4 3.75 8.2 2.1 4.2 2.95 5.8l.75 1.95q.5 1.55 1.35 3.3.8 1.75 2 2.95 1 5.05 1.55 10.2.6 5.1.55 10.25-.45 4.1-1.1 8.5-.6 4.4-1.55 8.5-.9 4.05-2.15 7.25-.35 2.1-.85 4.2t-1.2 4.3q-.3 1.2-.65 2.4-.3 1.2-.7 2.35l-.1.5q-.05.3-.1.55-.05.35-.15.65l-.1.7q-.75 3.55-1.5 6.9-.7 3.4-1.65 6.95-.5 1.85-1.05 3.65l-1.2 3.6q-1.45 3.2-2.7 6.5-1.3 3.35-2.3 5.2-2.25 4.05-4.05 9.85-1.85 5.8-2.6 12.35.15 1.5.35 3 .25 1.45.55 3l.05.1.05.25q0 .1.05.2.3 1.35.65 2.7.4 1.35.9 2.75.2.55.4 1.15.25.55.45 1.15l.5 1.1q.25.6.55 1.15.2.45.45.9.2.5.45.95l.25.45q.1.25.25.45.6 1.05 2.05 3.3 1.4 2.25 2.65 4.45l.9 1.9.3 1.2q0 .15-.1.45-.1.3-.5.4l-.45-.05.2.3q.15.15.25.3.85.55 2.45 1.7 1.6 1.1 3.5 2.55 1.75-1.45 2.9-3.2 1.2-1.7 1.75-2.4 8.7-8.7 13.8-14.55 5.15-5.8 7.8-11.75 2.7-5.9 4.15-14.95 5.05-17 6.3-35.25 1.3-18.25-1.7-36.75-2.95-18.5-10.75-36.2-1.65-3.7-3.5-7-1.85-3.35-3.8-6.4-.7-3.5-1.75-6.55-1.1-3.1-2.8-5.45-1.1-1.55-2.1-3.35-1-1.85-1.85-3.75l-.75-1.65q-.6-1.3-1.35-2.85-.8-1.6-1.55-2.8-.45-.4-1-.45-.55-.05-1 .35-.1.1-.15.3-.05.15-.05.4-.95-1.65-1.9-3.25t-1.95-3.15l-.65-1.05q-.55-.75-1.25-1.75-.25-.55-.5-1.05m17.65 39.2l-.1-.3.1.15v.15m-13.85-21.15q.65.55.4-.2-.2-.75-.7-1.95.6.85 1.15 1.65.55.8 1.05 1.45.65 1.2 1.25 2.4t1.2 2.35q-.55-.75-1.1-1.4-.6-.65-1.15-1.1.05.8.6 1.7l.75 1.2q1.85 4.65 3.35 9 1.55 4.35 2.8 8.55-.1-.15-.25-.35-.1-.15-.25-.3-1.7-2.15-2.8-5.1-1.1-2.9-2.05-6-1-3.1-2.3-5.85-.05-.1-.15-.25l-.2-.4q-.35-1.4-.8-2.75-.35-1.35-.8-2.65m346.9-39.75q.05.2.15.4.1-.15.15-.35.1-.15.2-.35-.15-.05-.35-.1-.15 0-.3.05.05.2.15.35m46.7-14.7l-.5.9q.55-.3.95-.7.45-.4.65-.9l-.3-.1-.3-.1-.5.9M713.05 591.6l.2.6q0-.45.05-.95v-.95q-.15.15-.25.3t-.1.4l.1.6z" id="x"/><path fill="#FFF" d="M753.55 440.15l-13.1 3.85q-12.35 3.85-27.35 11.6-15.05 7.75-23.75 19.45-8.65 11.7-2.1 27.45 5.25 10.9 11.7 23.8 6.45 12.9 12.9 29.25 6.5 16.35 11.75 37.65 1.45 6.8-.4 18.6-1.8 11.8-5.4 25.1-3.55 13.35-7.25 24.8-2.1 6.05-5.55 12.6-3.4 6.5-6.5 14-3.1 7.45-4.15 16.35-1.05 8.9 1.6 19.7 5.25 15.1 38.85 28.35 33.65 13.25 78.85 22.8 45.2 9.5 85.1 13.5 39.95 3.95 57.8.4 18.6-3.85 36.25-9.15 17.65-5.3 33.8-15.1 16.1-9.8 30-27.2 11.85-15.2 19.9-35.55 8.05-20.35 12.05-43.15 4-22.75 3.6-45.3-.35-22.6-5.35-42.25-6.15-23.1-13.65-38.95-7.5-15.9-14.65-25.6-7.1-9.7-12.1-14.35l-6.05-5.3-45.85-8.25q-42.75-7.15-98.5-16.15-55.75-9.05-98-15.8l-44.45-7.15z" id="y"/><path fill="#0081c6" d="M1049.25 310.15l-.25 2.35q-3.05 20.25-6.8 35.7-3.75 15.45-9.8 27.8-6 12.35-16.05 23.3-10 10.9-25.6 22.15-11.95 8.95-22.35 17.7-10.4 8.8-21.8 15.25-11.4 6.45-26.3 8.45-2.55.25-7.8 1.45-5.2 1.25-9.8 3.5-4.6 2.25-5.3 5.75v.2l-.5.05.2.4q.1.15.25.35v.25q.1.1.25.2l.2.2q1.45 1.55 5.15 3 3.7 1.5 7.25 2.5l4.45 1.25q9.75 2.7 21.55 3.25 11.8.55 24.8-1.55 12.95-2.05 26.35-7.3 12.3-5 22.1-13 9.75-8 16.6-17.35 6.85-9.4 10.35-18.45 4.25-11.05 8.4-25.8t7.45-31.3q3.25-16.55 4.8-32.9 1.6-16.4.7-30.55-.1-2.2-.55-5.1-.45-2.95-1.55-5.15-1.15-2.2-3.3-2.25-.5 1.3-.8 3-.25 1.7-.35 3.3-.1 1.6-.15 2.6-.05-.15-.15-.3-.1-.15-.3-.1-.55 1.35-.9 3.35-.3 2.05-.45 3.8z" id="z"/><g id="A"><path fill="#0081c6" d="M983.4 221.9q-.05-.05-.1-.25-.1-.2-.25-.35-.25-.4-.75-.4-.5.05-.85.25-.55.65-1.05 1.6-.5 1-.9 1.85l-.5 1.1q-.2.4-.45.8-.2.45-.45.85l-.25-.05q.8-2.65 1.25-4.4l.3-1.4.05-.6q-.15-.15-.45-.1-.3.1-.35.25-.45.8-.9 1.9-.4 1.05-.7 1.95l-.4 1.2-.7 2.2-.7 2.2q-.45.9-.8 1.9-.35.95-.65 1.95-.3.9-.55 1.8-.3.95-.55 1.85-.4 1-.75 2.05-.3 1-.65 2.05-.45 1.1-.95 2.1-.55 1.05-1.25 2l-.3.4q-.25.35-.3.75-.2.25-.3.6-.05.3.1.65 1 .15 2-.5 1.05-.65 2-1.75.25-.25.45-.55l.4-.5q.45-.6.8-1.15.4-.6.7-1.1 1.35-1.9 2.55-3.8 1.2-1.9 2.4-4.1l.75-1.3q.55-.95 1.1-1.95.35-.65.55-1.1l.25-.6h-.1q.5-.7.75-1.4t-.3-1.1q-.35 0-.65.35-.35.35-.6.75-.1-.15-.25-.2l-.3-.1q1.15-2.3 1.9-4.15l.55-1.5.15-.95z"/><path fill="#FFF" d="M1012.45 184.25q-2.9 1.1-4.65 4.1-4.95 8.95-9.2 16.65-4.3 7.65-8.4 14.3-4.15 6.65-8.75 12.6-.55 1-1.1 1.95l-.75 1.3q-1.2 2.2-2.4 4.1-1.2 1.9-2.55 3.8-.3.5-.7 1.1-.35.55-.8 1.15l-.4.5q-.2.3-.45.55-.95 1.1-2 1.75-1 .65-2 .5-.15-.35-.1-.65.1-.35.3-.6.05-.4.3-.75l.3-.4q.7-.95 1.25-2 .5-1 .95-2.1.35-1.05.65-2.05.35-1.05.75-2.05.25-.9.55-1.85.25-.9.55-1.8-3-1.15-7.2-2.85-4.15-1.75-8.7-3.8-4.55-2-8.7-4.15-5.15-2.85-14.4-5.6-9.25-2.8-21.85-3.75-12.6-.9-27.85 1.8-15.3 2.75-32.55 11-11.7 5.9-19.2 12.5-7.55 6.6-11.4 11.85l-4.65 6.95q-4.35 8.75-9.45 26.95t-9.7 38.5q-4.6 20.25-7.4 35.15l-2.1 11.7-.5 5.35 1.2 3.65 3.1 6.75q4.05 8.25 13.25 21.1 9.2 12.85 25.1 28.85 13.95 13.5 28.95 22.25 15 8.7 28.05 13.55 13.05 4.85 21.2 6.75 16.4 3.9 31.9 3.25 15.45-.7 28.7-4.35 13.25-3.7 23.05-8.7 9.85-5 15-9.75 11.1-10.15 19.05-25.2 7.95-15.05 12.85-33.45 4.85-18.4 6.8-38.65 1.95-20.25 1-40.9-1.3-25.55-4.5-47.65-3.2-22.05-7.2-39.55-4-17.45-7.7-29.25-3.65-11.8-5.8-16.8-1.35-2.95-4.1-3.85-2.75-.9-5.6.25z"/></g><path fill="#FFF" d="M889.05 162.7q-6.85 3.55-13.1 8.35-6.25 4.75-10.7 9.3-4.45 4.55-5.8 7.35-.9 2.55-1.35 9.55-.45 7-.6 15.1-.15 8.05-.15 13.9v6.1l2.8-.25q2.65-.25 6.15-.65 3.5-.4 6.25-.8l2.2-.4.95-.3q8.7-11.05 13.9-18.95 5.15-7.95 7.6-13.05 2.4-5.1 2.9-7.65.45-2.15 1.05-6.9.65-4.75 1.1-10.2.45-5.45.5-9.65l-.2-3.4-.55-1.8q-6.15.8-12.95 4.35z" id="B"/><path fill="#0083CB" d="M887.8 323.3q-2.1-1.35-4.65-1.55-2.55-.15-4.9.9-2.3 1.05-4.2 3.1-1.9 2.05-3.1 4.85-1.25 2.75-1.6 6.05-.3 3.3.35 6.2.65 2.95 2.1 5.2 1.45 2.3 3.55 3.65 2.1 1.4 4.65 1.6 2.55.15 4.85-.9 2.35-1.1 4.25-3.15t3.1-4.8q1.25-2.8 1.6-6.1.3-3.3-.35-6.2-.65-2.9-2.1-5.2-1.5-2.25-3.55-3.65z" id="C"/><path fill="#FFF" d="M986.25 295.45q-2.35-6.75-7.9-11.65-5.5-4.95-15.3-6.75-9.95-1.5-16.9 1.55-7 3.1-11.65 8.85-4.65 5.8-7.5 12.35-2.85 6.5-4.55 11.9 8.9 1 20.1 2.9 11.2 1.85 23 4.1 11.75 2.2 22.35 4.35.95-6.45.8-13.65-.15-7.25-2.45-13.95z" id="D"/></defs><use xlink:href="#a" transform="matrix(-.14134 -.09142 .0463 -.15701 1187.7 271.8)"/><use xlink:href="#b" transform="matrix(-.09245 -.1628 .1165 -.08069 1142.15 347.15)"/><use xlink:href="#c" transform="matrix(.097 -.11977 .1229 .17548 934.2 115.6)"/><use xlink:href="#d" transform="matrix(-.02884 -.20232 .16318 .00723 1047.7 327.2)"/><use xlink:href="#e" transform="matrix(.00702 -.13179 .11198 .03264 1015.75 211.7)"/><use xlink:href="#f" transform="matrix(.00702 -.13179 .11198 .03264 1015.75 211.7)"/><use xlink:href="#g" transform="matrix(-.08232 -.10861 .07625 -.08145 1119.45 225.65)"/><use xlink:href="#h" transform="matrix(.00702 -.13179 .11198 .03264 1015.75 211.7)"/><use xlink:href="#i" transform="matrix(.00702 -.13179 .11198 .03264 1015.75 211.7)"/><use xlink:href="#j" transform="matrix(.74315 .74976 .3021 -1.01714 212.7 -193.85)"/><use xlink:href="#k" transform="matrix(1.04947 .01494 -.01494 1.04947 35.55 28.55)"/><use xlink:href="#l" transform="matrix(1.04947 .01494 -.01494 1.04947 35.55 28.55)"/><use xlink:href="#m" transform="matrix(.64085 -.20143 .19743 .62624 119.45 397.35)"/><use xlink:href="#n" transform="matrix(-.3535 -.56514 .56857 -.355 1020.75 1376.2)"/><use xlink:href="#o" transform="matrix(-.3535 -.56514 .56857 -.355 1020.75 1376.2)"/><use xlink:href="#p" transform="matrix(-.66228 -.08736 -.06166 .66661 1489.1 301.9)"/><use xlink:href="#q" transform="matrix(.68481 .01385 .05345 .73474 248.35 238.1)"/><use xlink:href="#r" transform="matrix(.76784 .084 .07274 .8795 124.15 17.95)"/><use xlink:href="#s" transform="matrix(.74667 .20815 .07622 .82814 15.6 -40.55)"/><use xlink:href="#t" transform="matrix(.68652 -.01619 .23973 .89955 141.15 85.4)"/><use xlink:href="#u" transform="matrix(.68652 -.01619 .23973 .89955 141.15 85.4)"/><use xlink:href="#v" transform="matrix(.73521 .02727 .1885 .82411 131.35 126.6)"/><use xlink:href="#w" transform="matrix(.40302 -.04182 .13129 .63152 421.1 316.6)"/><use xlink:href="#x" transform="matrix(-.62819 -.13766 -.05153 .70456 1446.65 349.65)"/><use xlink:href="#y" transform="matrix(-.62819 -.13766 -.05153 .70456 1446.65 349.65)"/><use xlink:href="#z" transform="matrix(.81166 .05841 -.08588 .66649 176.6 203.65)"/><use xlink:href="#A" transform="matrix(.81166 .05841 -.08588 .66649 176.6 203.65)"/><use xlink:href="#B" transform="matrix(.60149 .331 -.16066 .63182 360.7 -21.15)"/><use xlink:href="#C" transform="matrix(-.58115 -.04597 -.06546 .62228 1422.75 308.25)"/><use xlink:href="#D" transform="matrix(.66397 .11958 -.11815 .6312 227.75 145.3)"/></svg>