<svg xmlns="http://www.w3.org/2000/svg" xmlns:xlink="http://www.w3.org/1999/xlink" preserveAspectRatio="none" width="760" height="880" viewBox="614 10 760 880"><defs><path fill="#a6ce38" d="M1026 343.75q-23-4.55-44.15-5.75-21.2-1.25-34.85-.9l-14.15.45-6.8 14.25q-6.4 13.4-13.6 28.5-7.2 15.05-10.05 21.15l180.85 23.65-2.35-10.4q-2.2-9.9-5.1-23-2.95-13.05-5.2-23.1l-2.45-10.85q-19.15-9.5-42.15-14z" id="a"/><path fill="#a6ce38" d="M1001.3 267.15q-15.6 1.8-25.15 7.4-9.55 5.55-13.9 10.55-4.6 5.15-13 19.85-8.4 14.7-15.2 28.7l-5.1 11.25-1.65 5.8q1.5 5.7 11.65 11.85 10.1 6.15 24.4 11.1 14.25 4.9 28.2 6.9 16.55 2.1 33.15.8 16.55-1.3 28.7-5.5 12.15-4.25 15.35-10.85l-1.4-28.15q-1.5-20.5-7.7-40.2-6.2-19.7-20.15-25-22.55-6.3-38.2-4.5z" id="b"/><path fill="#a6ce38" d="M1106.5 326.35q7.25-7.45 12.1-15.35l-3.55-2.1-10.1-4.2q-13.4-5.25-36.75-7.1l2.95 10.5q3.05 9.8 6.7 21.3 3.65 11.5 5.55 17.3 2.65-1.95 9.25-7.4 6.55-5.5 13.85-12.95z" id="c"/><path fill="#a6ce38" d="M1015.35 632l-41.8 2.3L989 819.4l26.35-187.4z" id="d"/><path fill="#a6ce38" d="M751.55 592.25l-33.1-15.45q-31.4-14.65-72.8-33.95-41.35-19.35-72.95-34.05l-33.5-15.6q-2.05 17.75-1.3 45.5.8 27.75 3.9 55.4 3.15 27.65 8.2 45.1l36.15-.25q33.95-.35 78.35-.9 44.45-.6 78.15-1.05l35.5-.45q-6.6-11.15-13.15-21.9-6.55-10.8-13.45-22.4z" id="e"/><path fill="#a6ce38" d="M925.95 432.95l-24.45 3.1-9.45 2.05q-2 9.35-5 29.7-3 20.4-7.65 47t-11.6 54.6q-6 24.9-15.5 50.9t-26.2 51.6q-16.7 25.6-44.3 49.3l12.6 1.85 23.35-2.45q28.75-4.55 70.05-17.05t86.3-32.35q52.95-24 83.6-48.35 30.65-24.3 44.3-48.7 13.65-24.4 15.6-48.55 2.15-25.45-.45-50.4-2.6-25-6.1-41.95l-4.2-18.1-33.5 2.9q-31.8 2.95-73.65 7.1-41.85 4.15-73.75 7.8z" id="f"/><path fill="#0083CB" d="M1022.3 307.6l-1.95-.6-2.05-.25-2.05.25-1.9.6-1.8 1.05-1.5 1.3-1.3 1.7-.9 1.85-.6 2-.15 2.1.15 2.05.6 2 .9 1.9 1.3 1.65 1.5 1.35 1.8 1 1.9.65 2.05.2 2.05-.2 1.95-.65 1.75-1 1.5-1.35 1.3-1.65.95-1.9.55-2 .2-2.05-.2-2.1-.55-2-.95-1.85-1.3-1.7-1.5-1.3-1.75-1.05z" id="g"/><path fill="#a6ce38" d="M1032.8 313.4l-.75-4.85q-.85-4.45-3.65-8.95-2.8-4.45-8.5-4.7-6.65.35-9.9 5.9-3.25 5.5-3.9 12.4l26.7.2z" id="h"/><path fill="#FFF" d="M1065.75 283.65q-6.8-14.8-10.85-23.2-4.1-8.35-6.55-12.95-2.45-4.55-4.4-7.85-1.9-3.35-4.4-8l-7.5 96.5 1.65 3.6 2.15 9.1q2.3 11.85 4.05 30.05 1.7 18.25 1.35 38.3-.3 20.1-4.15 37.45-2.4 10.55-8.7 25.2-6.25 14.65-16.15 31.05-9.95 16.35-23.3 32.05-10 11.55-18.65 17.3-8.65 5.75-17.95 8.65-9.3 2.95-21.35 6.05-7.25 1.85-16.35 1.85-9.1.05-17.3-.45-8.15-.45-12.55-.1t-2.25 2.85q3 3.25 10.35 10 7.4 6.75 17.85 15 10.5 8.25 22.85 15.95 12.35 7.75 25.35 12.95 9.45 3.95 17.15 6.85 7.75 2.9 15.75 3 8 .05 18.25-4.45 17.35-7.7 35.35-18.6 18-10.85 32.25-24.15 14.2-13.25 20.25-28.2 6.1-16.35 8.8-38 2.7-21.7 2.6-44.85-.15-23.15-2.5-43.9-3.5-29.55-10.3-57.5-6.8-27.95-15-51.55-8.2-23.6-15.8-40z" id="i"/><path fill="#0081c6" d="M1016.9 219.15q-.75-.25-1.5-.4-1.6-.3-2.95-.6-1.4-.35-2.9-.75-1.2-.25-2.7-.3-1.5-.05-2.85-.2l-.85-.15q-.7-.15-1.3-.25v.85l-.05.6q-.05 3.25-.05 6.5-.05 3.3-.3 6.5-.35 4.8-.1 9.8.25 5 .4 9.85.15 12.15.1 24.35-.05 12.15.25 24.3.35 15.7.1 31.4-.2 15.75-.3 31.45-.05 15.75.75 31.4.1 3 .3 6.1.25 3.1 1.25 5.95l.15.45.35.7q.4.8.85 1.5.4.5 1 .85.65.3 1.2.15 1.4-.6 1.6-1.95.15-1.35.15-2.7.75-13.5 1.15-27.1.35-13.6.55-27.15.05-6.55.3-12.9.3-6.35 1-12.85.6-5 1.3-9.95.75-4.95 1.6-9.85.1-.4.15-.8.05-.45.15-.85l.15-1q.15-.8.25-1.5v1l-.05.45v.2q-.05 4.9.15 9.75.15 4.85.05 9.75-.15 6.4-.5 12.85-.3 6.45-.2 12.85.1 6.45 1.15 12.8.3 1.65.55 3.15.25 1.5.25 3.15l-.1 2.95q-.1 1.5-.05 3 0 .3.05.75 0 .45.1.75l.45.8.35.3.25-.2.2-.7V375.75q-.1 6.45-.35 12.85-.25 6.45.05 12.9.05 2.35.15 4.75.05 2.4.8 4.7l.3.8q.3.6.65 1.05.45-.3.9-.7l.55-.55q1.25-1.7 1.45-4.35.25-2.6 0-5.35-.25-2.75-.35-4.7-.1-4.5.1-9.15t.3-9.2q.4-13.9.55-27.8.2-13.9-.4-27.8-.15-2.45-.25-4.9-.15-2.4-.2-4.85l-.2-17.35q-.1-8.7-.1-17.35-.1-11.65-.5-23.3-.45-11.65-.95-23.25-.1-2.3-.25-4.65-.15-2.35-.4-4.65 0-.4-.05-.8-.1-.35-.15-.75-.2-.8-.35-1.05-.2-.25-.55-.3-.35-.1-1.1-.3-.75-.3-1.5-.55z" id="j"/><path fill="#FFF" d="M1016.75 227.15v-1.2q-.05-.95-.05-1.8-.45.05-1 .1l-4.15.2q-1.7.1-3.4.25-.45 0-.85.05-.45 0-.9.05l-1 .05q-.85.05-1.55.1v1.7q.35 45.95.3 91.9-.05 45.95.25 91.9.3 37.8.15 75.7-.2 37.85-.35 75.7-.25 51.9-1.15 103.75-.95 51.9-2.1 103.75l-.5 20.95-.5 20.9-.05.45v.7q-.05.95-.05 1.7v.95l-.05.45v1.8q-.05.85-.05 1.65 0 .4-.05.85v.85l-.05 1.25q0 .95-.05 1.75l1.45-.1h.25q3.3-.3 6.65-.55l6.7-.5 1-.1q.8-.05 1.5-.1v-1.6q.95-43.3 1.5-86.6.55-43.35.8-86.65.55-100-.35-200-.95-100.05-2.15-200.05 0-5.05-.05-10.1t-.15-10.1z" id="k"/><path fill="#FFF" d="M1093.3 494.05q-10.65-14-24.1-27.15-13.45-13.15-27.2-21.2-13.7-8.05-25.25-6.8-14.25 2.2-21.4 8.35-7.2 6.15-9.6 14.3-2.4 8.15-2.2 16.45.15 8.25.6 14.7l2.15 16.4 5.1 27.3q6.6 32.75 15.7 74.4 9.1 41.6 17.3 79.25 8.2 37.65 12.15 58.4l2.55 2.15 4.95 2.75q6.15 3.05 15.3 5.5 9.2 2.4 19.65 2.35 14.9-.4 23.45-2.9 8.6-2.55 12.2-5.25l2.75-2.35.95-1.5q10-49.1 11.6-88.35 1.6-39.2-2-68.25-3.55-29.05-9-47.6-5.5-18.55-9.6-26.25-5.4-10.7-16.05-24.7z" id="l"/><path fill="#FFF" d="M656.95 766.95l-8.05-.8q-1.6 0-2.6 1.1-1.05 1.1-1.1 2.55-.05 1.5 1.3 2.7l2.6 1.4 5.45 2.2q6.9 2.6 18.4 4.6 11.45 2 26.2 1.2 14.7-.75 31.5-6.45 11.65-4.35 21.95-12.65 10.35-8.3 18.3-17.35 8-9.05 12.6-15.55l4.8-7.25-1.05-1.4-2.9-2.8q-3.8-3.5-8.4-7.55-4.65-4-7.35-6.3-2.1 3.35-7.35 10.9Q756 723 748.5 732q-7.45 9.05-16.15 16.9-8.75 7.85-17.75 11.9-9.9 4.1-20.75 5.6-10.85 1.45-20.6 1.35-9.7-.15-16.3-.8z" id="m"/><path fill="#0081c6" d="M990.1 184.1l-.85-.4q-5.1-1.7-9.75-2.45-4.7-.7-9.55-1.05-4.55-.35-9.15.05-4.65.35-9.45 1.15-.45.05-.85.15-.4.15-.75.3-1.15.25-2.2.9l-.8.55-.3.25q-2.7 2.15-5.1 4.75l-4.7 5.1q-3.9 4.15-7.55 8.45l-7.2 8.6q-1.05 1.35-.7 2.55.4 1.2 1.65 1.4 1.25.15 2.8-1.45l.75-.85q.35-.4.75-.85.15 1 1.1 1.8 1 .85 1.9 1.35-1.75.6-2.05 1.7-.25 1.15.75 2 1 .8 3.1.5 4-.75 8.05-1.4 4.05-.65 8.05-1.4 4.6-.85 9.15-1.85 4.5-.95 9.05-1.95.4-.05.7-.2l.6-.3q.45-.1 1-.35.5-.2 1.1-.65 2.7-1.8 5.45-3.95 2.75-2.2 5.25-4.4 3.4-3 6.35-6.35 2.95-3.3 6.15-6.55.95-.95 1-2 .05-1.1-1.15-1.95l-.45-.15-.55-.35q-.25-.15-.4-.2-.55-.2-1.2-.5z" id="n"/><path fill="#FFF" d="M985.85 192.35l2.2-3.4.8-2.05q-4.05-2.1-9.95-3-5.95-.85-12.2-.85-6.25.05-11.25.7-5.05.65-7.3 1.6-1.85 1.05-5.6 4.95-3.75 3.9-7.8 8.65-4.1 4.75-7 8.2l-3.05 3.65 2 1.35q1.85 1.2 3.85 2.4l1.6.9.85.3q11.4-1.85 18.85-3.15 7.4-1.3 12.05-2.6 4.65-1.25 7.75-3 3.35-2.05 7.35-6.3 3.95-4.3 6.85-8.35z" id="o"/><path fill="#FFF" d="M743.95 723.9l2.15 27.15q2.05 25.8 4.75 59.75 2.65 33.95 4.75 59.8l2.2 27.3q3.95 7.25 20.65 10.8 16.7 3.55 37.9 3.45 21.25-.15 38.8-3.95 17.6-3.8 23.3-11.25l3.35-23.35q3.1-22.15 7.15-51.25 4.1-29.1 7.2-51.25l3.35-23.45q-9.85-10-28.9-17.35-19.05-7.35-42.25-11.05-23.25-3.7-45.6-2.8-22.35.9-38.8 7.45z" id="p"/><path fill="#0083CB" d="M943.65 840.8q-1.05-2.05-1.45-3.45-.75-2.75-1.15-5.5-.35-2.8-.9-5.5l-.5-1.5-.55-.4q-.6.1-1.05 1.35-.4 1.2-.4 2.45.15 3.15 1.1 7.5.95 4.35 3.1 7.95 2.1 3.6 5.8 4.45 3.45.45 5.8-2.6 2.35-3 3.65-7.05 1.3-4.05 1.65-6.75.15-1 .2-2.9.05-1.9-.25-3.6-.3-1.75-1.25-2.3l-.2-.05q-.15 0-.2.05-.35.35-.45.85l-.15.7q-.25 1.9-.3 3.9 0 2-.35 3.95-.3 1.7-1.15 4.5-.85 2.8-2.15 5.3-1.3 2.45-3 3.1-1.75.45-3.3-.95-1.5-1.45-2.55-3.5z" id="q"/><path fill="#FFF" d="M803.6 759.1l4.75 21.7q4.5 20.6 10.5 47.7 5.95 27.1 10.55 47.75l4.9 21.75q6.05 4.2 22.45 7.3 16.4 3.1 36.25 3.95 19.85.9 36.4-1.55 16.5-2.5 22.85-9.4 2.05-28.3 1.35-56.85-.65-28.6-2.55-52.65-1.95-24.05-3.65-38.75l-1.7-15.3q-19.15-5.55-37.35-5.35-18.25.15-35.8 4.4-17.55 4.25-34.75 11-17.15 6.75-34.2 14.3z" id="r"/><path fill="#0083CB" d="M943.35 838.65q-1.2-2.6-1.95-5.7-.8-3.05-1.8-5.85l-.4-.7-.3-.15q-.3.15-.45.85-.15.7-.15 1.4.2 3.1 1.2 6.95 1 3.8 2.75 6.95 1.7 3.15 4.05 4.3 4 1.55 6.85-1.1 2.85-2.65 4.45-7.45 1.6-4.75 1.75-9.5v-1.7q-.05-1-.25-1.8-.25-.75-.7-.7-.15.3-.3.65l-.15.5q-.6 2-.85 4.2-.3 2.15-.8 4.3-1.15 4.45-3.3 7.15t-4.75 2.35q-2.55-.35-4.9-4.95z" id="s"/><path fill="#0081c6" d="M945.25 654.15q-7.2 17.5-12.4 35.65-5.15 18.15-8.3 38.65-1.9 11.6-2.9 22.15-1 10.55.05 21.25t5.25 22.8l.65 1.7q.45 1.25 1 2.8.6 1.55 1.1 2.95-1.05.45-2.05.9l-2 .9-1.85.8q-1.45.65-2.5 1.3 1.7.2 3.85-.25 2.2-.5 4-1.1l2.45-.8q27.6-7.55 52.15-15.95 24.55-8.45 44.95-20.65 20.4-12.25 35.55-31.3 15.1-19 23.85-47.85 6.65-22.05 9-44.65 2.35-22.65-.95-45.55t-13.6-45.75q-4.95-11.05-10.2-22-5.25-11-11.4-21.35 8.75-5.5 18.15-10 9.4-4.45 19.55-7.65.5-.15 1.7-.5 1.2-.4 2.4-1 1.2-.65 1.65-1.65-1.3-.55-2.6-.35-1.3.2-2.6.25-1.6.25-3.5.7-1.9.45-3.45.85l-2 .55q-8.1 2.75-15.95 6.6-7.9 3.85-15.5 8.7v-.05l-.5-.85q-.4-.7-1-1.1-.2-.2-.4-.25-.25-.05-.45 0 .25.65.55 1.35.35.75.7 1.55-20.75 13.6-38.9 32.35t-32.65 39.5q-14.5 20.8-24.3 40.45-9.35 18.45-16.6 35.9m-188.55-25.7l-.15-1.2q-.1-.9-.6-1.6-.1-.15-.1-.3t-.05-.3q-.25.75.1 2.6.35 1.8.75 3.45l.5 1.8q.35 1.75.65 3.55.3 1.75.55 3.5-.15-.1-.25-.15-.15-.1-.25-.2-.75-.35-1.65-.3-.95.1-1 1.05.35.8.85 1.65.55.85 1.2 1.75 0 1.5.2 2.9l.25 1.85q.5 4.2 1.1 7.9.65 3.7.85 7.85.05.85.1 3.15 0 2.3.15 4.7.15 2.4.45 3.65.05 1.25.1 2.25l.05 1.3q.6 8.8-.2 17.15-.75 8.4-1.9 16.65-.45 2.5-.8 5.05-.3 2.6-.3 5.5-.65 7.25-.25 14.65.35 7.45 2.45 15.25.3 1.1 1.15 3.25.9 2.2 2.15 4.9 2.65 7.4 7.3 13.95 4.65 6.6 11.1 11.7.35.3 1.15.9.8.6 1.8 1.1 1 .5 1.95.5-.45-1.05-1.45-2.15-1-1.15-1.9-2.05l-1.3-1.2q-.95-.95-1.8-1.95-.9-.95-1.7-1.85 1.2-1 2.55-2.5 1.3-1.55 2.35-2.85 1.05-1.35 1.45-1.9 6.05-8.75 9.75-14.7 3.65-5.9 5.3-11.4t1.6-12.85q0-7.35-1.25-18.95-1.2-12.6-4-22.7t-8.15-19.25q-5.4-9.1-14.3-18.85-3.35-3.65-6.75-7.25-3.45-3.6-7-6.9l-.1-.05q-.75-3.2-1.45-6.25-.7-3.1-1.25-5.8z" id="t"/><path fill="#FFF" d="M747.9 407.05l-8.1 1.05q-7.65 1.2-17.15 5.7-9.55 4.5-15.6 14.2-6.05 9.75-3.35 26.65 1.65 8.35 6.9 25.9 5.25 17.55 12.5 39.9 7.2 22.35 14.85 45.1 7.65 22.8 14.05 41.7 1.65 5 3.75 15.45 2.05 10.5 4 23.55 1.9 13.1 3.05 25.9 1.15 12.8.95 22.55-.25 6.1-1.25 15.65-1.05 9.5-1.55 20.9-.55 11.4.7 23.1 1.2 11.7 5.35 22.15 6.7 14 30.1 19.4 23.45 5.4 54.15 4.95 30.75-.45 59.4-4t45.9-7.45q18.8-4.05 38.6-11.95 19.75-7.95 37.45-20.6 17.65-12.65 30.15-31 14.1-21.45 21.75-47.3 7.6-25.85 8.3-53.25.7-27.45-6-53.6-6.35-23.35-17.35-44.55-11.05-21.2-22.75-37.95-11.75-16.7-20.25-26.65l-9.75-10.9-43.05-7.85q-40.05-6.7-92.3-15.2t-91.8-14.85l-41.65-6.7z" id="u"/><path fill="#0081c6" d="M1162.4 196.4q-2.35-.6-5.15.05-.25.05-.85.2-.65.1-1 .55-1.35 1-2.9 2.45-1.55 1.5-2.75 2.75l-1.45 1.7q-5.55 8.65-10.45 16.8-4.9 8.2-10.05 16.1-1.65 1.8-3 3.85-1.4 2.05-2.6 4.25-2.7 3.7-5.7 7.35-3 3.7-6.4 7.4-4.5 5.05-9.15 10.9-4.7 5.85-9.9 11l-.7.45-.7.4-.25.1q-4.2 2.25-8 4.55-3.75 2.3-7.9 3.5-4.15 1.2-9.5.2-3.55-.8-6.7-3.4-3.1-2.6-5.7-6.35-2.6-3.75-4.55-8v-1.3q-.05-.6-.05-.8-.35-3.15-1.1-6.1-.75-2.95-1.55-5.85-.3-2.95-.55-5.6-.25-2.7-.6-4.85-.3-1.75-.55-3.4-.25-1.6-.9-3.2-.55-1.7-1.5-3.1-1-1.45-2.55-2.4l-.45-.45q-.2-.15-.35-.25-3.9-2.15-9.7.1-5.8 2.2-11.95 6.2-6.1 4-11 7.15-1.05.5-1.9.95l-1.15.65q-.25.1-.45.2l-.4.2q-7.75.65-14.45-1.9-6.65-2.5-13.1-7.55-6.45-5-13.55-11.7-6.7-6.3-14.85-11.5-8.15-5.15-17.1-7.9-8.95-2.75-18-1.75-1.35.1-3.2.05-1.9-.05-3.6.2-5.55.05-10.85.65-5.35.6-10.25 1.75-5.1 1.25-10.7 3.4-5.65 2.2-11.15 4.75t-10.2 4.9q-4.9 2.45-10.9 6.95-6.05 4.45-11.6 9.9t-9.05 10.85q-.85.9-1.5 1.7-.65.8-.95 1.2-2.3 3.15-4.45 8.7-2.15 5.6-3.95 12.65-2.35 5.55-3.55 10.75-1.2 5.2-.7 11.05-1.1 8.55-1.1 15.65 0 7.15 1.4 11.45 1.8 4.65 7.1 10.45 5.3 5.85 11.3 11.45 6 5.65 9.9 9.6 7.5 8.25 12.7 14.05 5.15 5.85 11.55 10 6.35 4.2 17.55 7.45 12.25 3.6 24 6.35 11.8 2.75 23.75 4.4 11.9 1.65 24.6 1.85 6.45 0 13.1.3 6.6.2 13.1 1.4 6.45 1.15 12.5 3.95 6 2.75 11.25 4.4 5.25 1.65 10.4 3.85 5.2 2.25 10.9 6.55 2 1.55 5.5 3.95 3.45 2.45 7.8 5.2 4.3 2.8 8.85 5.35-5.25 5-10.2 10.65-4.95 5.7-8.1 11.3-3.15 5.6-3 10.25.05.6.15 1.2.1.6.3 1.15.35.8.75 1.55t.85 1.45q.2.3.45.6l.5.5-.3-.05q.3.5.7 1 .35.5.75.95 6.85.9 13.25.6 6.35-.25 12.75-1.3 6.4-1 13.25-2.4 6.3-.7 12.7-1.85 6.45-1.2 12.9-2.95.95-.2 1.9-.5 1-.25 2-.55 17.25-4.95 33.15-14.3 15.9-9.3 28.4-23.8 12.5-14.5 19.65-34.95 1.15-3.3 2.65-7.8 1.55-4.55 2.9-9.55 1.4-5 2.1-9.75 2.05-9.8 3.4-19.6 1.3-9.8 2.1-19.15.65-7.1 1.4-13.1.8-6 1.15-12.15.4-6.1-.15-13.55-.55-8.3-.75-15.85-.25-7.55-.6-14.9-.35-7.35-1.45-15-.35-4.05-.95-8.05-.65-3.95-1.65-7.8-1.15-4.45-3.05-10.35-1.9-5.85-4.9-11.2-2.95-5.4-7.25-8.25-1.85-1.65-4.2-2.25m-140.65 44.55l.1-.05v.05h-.1m-37 11.1l-.4-.15-.15-.1q.11.07.2.1.2.05.35.15z" id="v"/><path fill="#FFF" d="M1122.8 255.7q-12.8 17.7-28.05 29.6-15.25 11.9-30.8 9.35-8.3-2-13.3-8.85-4.95-6.8-7.45-15.35-2.45-8.5-3.25-15.75-.75-7.2-.75-10-.1-2.8-1.95-4.65-1.8-1.85-4.5-2.15-2.75-.3-5.5 1.7-4.35 3.3-10.4 7.4-6.1 4.05-13.1 6.85-6.95 2.75-14 2.2-3.45-.5-8.85-4.25-5.45-3.75-11.9-9.25-6.45-5.45-12.9-11.05-6.45-5.65-11.95-9.85-4.35-3.5-15.35-6.45-11-3-27.4-2.25-16.45.75-37.2 8.4-14.4 5.75-23.85 12.85-9.45 7.1-14.4 12.95l-3.95 4.8-1.85 2.85q-3.9 7.5-10.1 24.3-6.15 16.8-12.5 35.55-6.35 18.75-10.65 32.1l-4.5 13.95 2.3 7q2.15 6.55 8.1 17 5.9 10.4 17.45 22.55 11.5 12.15 30.5 23.85 23.6 13.95 47.2 22.7t43.5 13.25q19.9 4.5 32.5 5.75 38.15 4.1 68.2 2 30-2.05 51.95-9.05 21.95-7 35.85-17.7 18.65-14.25 31.8-34.95 13.2-20.7 20.3-46.1 7.1-25.35 7.6-53.75.4-33.9-1.65-56.3-2.05-22.35-4.55-34.35l-3.4-14.8q-1.5-5.4-5-7.1-3.5-1.7-6.95-.55t-4.9 4.4l-9.45 18.5q-8.2 14.95-20.95 32.65z" id="w"/><path fill="#0081c6" d="M884 161.5q-4.55 2.2-8.15 4.9-2.95 1.8-5.5 3.8-2.5 2-4.45 4.2-2.7 2.3-4.85 4.7-2.15 2.4-3.5 4.85-1.75 3.3-2.65 8.15-.9 4.85-1.25 9.85t-.45 8.7q-.1 3.25-.05 6.5 0 3.2.15 6.45l.2-.15.2-.1.05-.05.7-.4q.35-.15.7-.35l.35-.2-.2.4q.75 0 1.7-.45t1.3-.6l4.2-1.6q2.1-.75 4.25-1.5h.25l.2-.15q4.45-1.5 8.9-2.7 4.5-1.2 9.1-1.95 0-.35.15-.7t.4-.65q-2.7.5-5.55 1.15-2.9.7-5.85 1.5.25-.1.4-.15l.2-.15q2.15-1 3.7-2.35 1.55-1.35 3.75-2.45 2-.95 4.6-1.95 2.55-1.05 4.3-2.1l.6-.5v-.25q-.3-.15-.55-.6-.05-.1.05-.3.1-.25.15-.45.6-.25 1.35-.5.75-.3 1.55-.6l-.1.15-.95 1.25q-.25.35.2.3-.4.6-.95 1.15-.55.6-1.3 1.2l-.85.95q-.65.75-1.45 1.7-.75.95-1.25 1.55l.6-.2q.3-.15.6-.25.45-.2.9-.35.5-.2.95-.3l.45-.05.1-.05q.3-.05.6-.05h.6l.25.05q2.7-2.8 4.95-6.2 2.25-3.4 3.35-6.9 2.1-3.45 3.3-7.75 1.2-4.25 1.65-8.7.65-3.25 1.05-6.95.35-3.7.2-7.2-.15-3.55-.9-6.2-.2-.55-.5-1.35-.35-.85-.75-1.35l-.25-.3q-.3-.55-1-.75-.75-.15-1.35-.15l-.7.05q-4 .4-8.7 1.8-4.65 1.45-9.2 3.65m-24.25 20.35l-.05.15-.3.4q-.15.2-.35.4.2-.25.35-.5.15-.25.35-.45m40.2-24.95h-.05l.25-.05-.2.05m-.2 40.3l.15-.3q.05-.1.1-.3l.1.05q-.1.15-.15.3-.1.15-.2.25m-28.95 18.95q.25-.15.45-.3.25-.15.45-.3l.1.25h.05l-.55.2q-.25.05-.5.15m-5.95-40q.271-.232.55-.5l-.35.35-.5.5-.35.3q.3-.35.65-.65m19.55 31.7q.225-.069.4-.2.2-.1.45-.25-.2.15-.45.3-.175.088-.4.15M853.8 214v-1l.05.1q0 .428-.05.9z" id="x"/><path fill="#FFF" d="M889.05 162.7q-6.85 3.55-13.1 8.35-6.25 4.75-10.7 9.3-4.45 4.55-5.8 7.35-.9 2.55-1.35 9.55-.45 7-.6 15.1-.15 8.05-.15 13.9v6.1l2.8-.25q2.65-.25 6.15-.65 3.5-.4 6.25-.8l2.2-.4.95-.3q8.7-11.05 13.9-18.95 5.15-7.95 7.6-13.05 2.4-5.1 2.9-7.65.45-2.15 1.05-6.9.65-4.75 1.1-10.2.45-5.45.5-9.65l-.2-3.4-.55-1.8q-6.15.8-12.95 4.35z" id="y"/><path fill="#0081c6" d="M968.5 520.65l-.7 1.5q-.6 1.4-1.2 3.3l-.9 2.3q-.45 1.1-.85 2.15-.3.6-.55 1.2-.25.6-.4 1.15-.15.4-.3.75-.1.4-.25.75-.05.1-.15.35-.1.25-.25.6-.6.9-1.35 2.2-.75 1.35-1.3 2.45-.15.6 0 1.05.15.5.7.75.95-.05 1.35-.9.4-.9.65-1.45l.05-.05q.4.25.5 0l.2-.45.5-.65q2.85-3.2 5.85-6.6 2.95-3.35 5.3-6.85 1.85-2.8 4.85-6.65 2.95-3.85 6.7-8.25 3.7-4.35 7.75-8.65 1.3-1.2 2.7-2.4 1.35-1.2 2.85-2.45l2.7-2.45q2.55-2.3 6.1-5 3.6-2.65 6.9-4.05.3-.05.65-.2.3-.1.65-.2.9-.2 1.65-.2.75.05 1.35.35.2-.3.3-.6.1-.3.05-.6.15.05.25.1.1.1.2.15.4-1.35-.55-2.15-.95-.75-2.35-.75-1.1 0-2.4.35-1.25.4-2.75 1.05-5.45 2.4-11.4 6.95-5.95 4.55-11.8 10.3-5.8 5.75-10.8 11.65-.05-.25-.1-.45-.1-.2-.2-.35-.15 0-.35.15l-.2.2q2.1-6.1 5-12.15 2.9-6.1 7.5-12.3.6-.75 1.25-1.55t1.35-1.6q.75-.8 2.4-2.6t3.1-3.85q1.45-2 1.5-3.5-.35-.3-.85-.05t-.8.5q-6.95 4.65-12.85 13.45-5.85 8.8-10.3 18.2-4.45 9.45-6.95 16.05z" id="z"/><path fill="#FFF" d="M986.25 295.45q-2.35-6.75-7.9-11.65-5.5-4.95-15.3-6.75-9.95-1.5-16.9 1.55-7 3.1-11.65 8.85-4.65 5.8-7.5 12.35-2.85 6.5-4.55 11.9 8.9 1 20.1 2.9 11.2 1.85 23 4.1 11.75 2.2 22.35 4.35.95-6.45.8-13.65-.15-7.25-2.45-13.95z" id="A"/><path fill="#0081c6" d="M827.3 511l-.35-1.95-1.55-.5.05-1.7-17.15-11.4-16.45-9.2-7.45-3.3-10.35-3.35H774l-2.65-.6-13.55-1.95-5.5-.2-8.25.4-8.2 1.45-7.9 2.6-5 2.35-7 4.55-8 7.4-3.4 4.25-2.85 4.7-2.15 5.05-3.6 12.85-5.8 26.4-2.45 22.05-1.75 49.65.05 24.85 8.5 70.8v.05l2.8 15.15 4.15 14.9 1.9 4.9 2.7 4.55.1.1.05.15 1.95 2 4.7 3.25 5 2.5 10.3 3.9 16.1 3.7 8.2.95 11.05.05 10.5-2.45 14.9-5.9 11.75-6.4 2.25-1.5 4.3-3.5 1.65-2.25.05-.2.2-.3 1.1-5.5 2.85-24.85 13.7-149.55 1.5-47.6-.95-11.35z" id="B"/><path fill="#FFF" d="M836.45 489.05q2.8-7.7-1.9-15-4.65-7.35-14.75-13.65-10.05-6.3-23.4-10.85-13.4-4.5-28-6.6-11.35-1.5-21.6 1.4-10.25 2.9-18.55 8.6-8.35 5.7-14.05 12.7-5.7 7-8 13.8l-3.25 11.65-4.6 21.1q-5.3 25.85-8.35 64.5t1.05 83.95q4.15 45.25 20.4 91l1.7 1.8 4.4 3.1q5.75 3.75 16.65 6.85 10.9 3.05 26.8 2.25 10.6-.85 18.7-4.1 8.1-3.25 13.75-7.4t8.9-7.7l4.15-5q3.15-21.1 6.7-58.2l7.45-77.85q3.85-40.8 7.85-72.95l4-26.9 1.95-9.55 2-6.95z" id="C"/></defs><use xlink:href="#a" transform="matrix(-.13338 .09875 .18188 .15062 1114.6 692.45)"/><use xlink:href="#b" transform="matrix(-.10834 .1072 .10309 .1121 1116.1 697.05)"/><use xlink:href="#c" transform="matrix(-.0846 .09344 .09514 .0812 1094 717.65)"/><use xlink:href="#d" transform="matrix(-.40521 -.01082 -.00172 .14673 1474.5 776.3)"/><use xlink:href="#e" transform="matrix(-.13039 -.0027 .00446 .1323 1181.2 788.15)"/><use xlink:href="#f" transform="matrix(-.10138 .08371 .08858 .0968 1118.75 724.75)"/><use xlink:href="#g" transform="matrix(-.09038 .08759 .0901 .08702 1102.35 720.85)"/><use xlink:href="#h" transform="matrix(-.09038 .08759 .0901 .08702 1103.5 721.7)"/><use xlink:href="#i" transform="matrix(-.16486 -.53539 -.37038 .3023 1003.7 863.85)"/><use xlink:href="#j" transform="matrix(-.74017 -.70274 .51338 -.41106 1313.3 1233.35)"/><use xlink:href="#k" transform="matrix(-.74017 -.70274 .51338 -.41106 1313.3 1233.35)"/><use xlink:href="#l" transform="matrix(.47984 -.4703 -.46484 -.47845 640.2 1217.5)"/><use xlink:href="#m" transform="matrix(.66711 .03865 -.0438 .66937 325.7 206.95)"/><use xlink:href="#n" transform="matrix(.5184 -.4878 .48538 .48586 279.1 775.9)"/><use xlink:href="#o" transform="matrix(.5184 -.4878 .48538 .48586 279.1 775.9)"/><use xlink:href="#p" transform="matrix(.66449 .0626 -.18854 .6529 441.35 241.8)"/><use xlink:href="#q" transform="matrix(.62535 .1471 -.27238 .64857 486.9 171.5)"/><use xlink:href="#r" transform="matrix(.6367 -.01482 -.0026 .81131 405.45 164.15)"/><use xlink:href="#s" transform="matrix(.62617 .15874 -.16133 .75655 561.45 67.35)"/><use xlink:href="#t" transform="matrix(.67958 -.02281 -.07402 .72867 339.25 233.9)"/><use xlink:href="#u" transform="matrix(.67958 -.02281 -.07402 .72867 339.25 233.9)"/><use xlink:href="#v" transform="matrix(.68352 -.20538 .17462 .64745 221.35 463.25)"/><use xlink:href="#w" transform="matrix(.68352 -.20538 .17462 .64745 221.35 463.25)"/><use xlink:href="#x" transform="matrix(.63306 -.30496 .39285 .57924 203.5 577.7)"/><use xlink:href="#y" transform="matrix(.63306 -.30496 .39285 .57924 203.5 577.7)"/><use xlink:href="#z" transform="matrix(-.41025 .42494 .30981 .53035 1180.35 -205.7)"/><use xlink:href="#A" transform="matrix(.68404 -.20396 .17848 .658 182.2 444.5)"/><use xlink:href="#B" transform="matrix(-.68773 .2864 -.29126 -.7038 1505.45 677)"/><use xlink:href="#C" transform="matrix(-.68773 .2864 -.29126 -.7038 1505.45 677)"/></svg>