
<svg xmlns="http://www.w3.org/2000/svg" version="1.1" xmlns:xlink="http://www.w3.org/1999/xlink" preserveAspectRatio="none" x="0px" y="0px" width="760px" height="880px" viewBox="620 10 760 880">
<defs>

<g id="Symbol_20_0_Layer0_0_FILL">
<path fill="#a6ce38" stroke="none" d="
M 737.95 398.15
L 735.5 397.75
Q 734.25 397.55 733 397.4 731.75 397.2 730.5 397.05 732.55 398.2 734.45 398.45 736.35 398.65 737.95 398.15
M 943.15 582.8
Q 940.15 588.55 938.95 593.15 939.3 593.25 939.7 593.4 940.05 593.5 940.45 593.65 942.55 594.4 944.7 595.1 946.85 595.85 949 596.55 949.5 595.6 950.1 594.7 950.65 593.8 951.2 592.85 956.5 584.25 962.7 575.7 968.9 567.2 975.85 558.85 987.8 544.5 1001.25 531.15 1014.7 517.85 1028.85 506.15
L 1028.75 506.15 1028.55 506.05 1027.9 505.9
Q 1027.6 505.8 1027.25 505.75
L 1026.55 505.55
Q 1024.95 506.55 1022.55 506.45 1020.15 506.3 1017.75 504.7
L 1017.15 504.3
Q 999.25 516.55 983.65 532.55 968.05 548.5 954.4 565 952.55 567.2 949.35 572.15 946.15 577.1 943.15 582.8
M 836.85 423.2
Q 839.85 424.25 843.25 424.25 840.1 423.2 836.95 422.2 833.8 421.2 830.65 420.2 833.85 422.2 836.85 423.2
M 683.45 168.3
Q 681 166.95 678 166.05 674.95 165.1 672.1 165.55 671.5 165.4 670.75 165.45
L 669.8 165.55
Q 656.9 167.15 653.05 174.8 649.2 182.4 651.25 193.05 653.35 203.75 658.25 214.6 659.4 220.2 661.75 226.4 664.05 232.65 667.2 239.05 662.1 236.15 656.2 234.65 650.25 233.1 645 234.85 639.8 236.6 636.8 243.55
L 636.65 244.1
Q 636.5 244.6 636.3 245 635.95 246.1 635.65 247.5
L 635.3 249.2
Q 634.15 255.75 634.6 262.8 635.05 269.9 636.9 276.65 637.25 278.05 637.6 279.45 638 280.85 638.4 282.15 638.85 283.85 639.35 285.55 639.85 287.25 640.45 289
L 641.55 289.75
Q 648.05 301.75 657.8 309.9 667.5 318 676.8 324.7 676.85 325.75 677 326.9 677.1 328.05 677.3 329.25 676.25 333.8 677.7 340.15 679.25 346.55 681.15 351.2 682.9 355.6 685.75 359.85 688.6 364.15 692.2 368.2 692.75 368.15 693.3 368.1 693.85 368.05 694.45 368.05 696 368.05 697.7 368.25 699.35 368.45 701.1 368.8 702.25 369.05 703.4 369.35 704.55 369.65 705.75 369.95 710 371.15 714.1 372.45 718.25 373.75 721.9 374.45 722.75 374.6 723.65 374.8
L 725.4 375.1
Q 745.15 378.8 764.85 382.8 784.55 386.8 804.2 390.95 810.1 392.15 815.95 393.4 821.85 394.65 827.7 395.85 828.35 395.6 828.95 395.45 829.5 395.35 829.9 395.3 830.3 395.1 830.85 395.1
L 831.55 395.15
Q 843.2 396.45 856.1 401.2 869 405.95 880.3 412.35 906.1 426.65 932.2 440.75 958.35 454.85 984.2 470.4 980.45 467.55 976.7 464.5 972.9 461.5 969.15 458.25 967.55 456.85 966 455.45 964.4 454.05 962.8 452.65
L 962.8 452.6
Q 900.6 404.55 846.25 352.55 791.85 300.5 744.95 245.5 732.85 231.3 721.2 217 709.6 202.65 698.45 188.15 694.65 183.2 690.9 178.25 687.15 173.3 683.45 168.3 Z"/>
</g>

<g id="Symbol_14_0_Layer0_0_FILL">
<path fill="#a6ce38" stroke="none" d="
M 1347.85 394.9
L 1345.5 392.95 1339.25 392.85
Q 1331.95 395.05 1324.95 397.05 1317.95 399.05 1311.6 400.4 1311.3 400.45 1311.05 400.5 1310.75 400.55 1310.45 400.6 1228.85 423 1141.25 431.85 1053.65 440.7 962.85 439.65 922.1 441.25 881.05 441.2 840 441.15 799 438.95 792.9 438.6 786.85 438.25 780.75 437.85 774.7 437.4 772.15 437.2 769.55 437 766.95 436.8 764.35 436.6 756.4 435.95 748.25 435.2 740.1 434.4 731.85 433.45 729.25 433.95 726.35 435.1 723.45 436.25 722.1 438.35 721.6 438.55 721.25 439
L 720.8 439.6
Q 715.05 447.65 719.5 454.25 723.9 460.85 734.3 466 744.65 471.15 756.7 474.85 762.2 477.55 768.9 479.95 775.6 482.35 782.9 484.45 781.55 484.95 779.75 485.75 778 486.55 776.6 487.45 775.6 488.05 774.65 488.6 773.75 489.2 772.85 489.8 772.75 490.05 772.45 490.2
L 772.1 490.4
Q 766.5 496.55 771.2 502.95 775.9 509.4 785.85 515.05 800.5 526.25 826.15 533.7 851.85 541.2 878.8 545.6 905.8 550 924.3 552.05 932.35 553 940.1 553.6 947.85 554.2 955.35 554.5 954.65 557.85 955.7 561.45 956.8 565.05 959.2 568.85 960.05 570.25 961.1 571.6 962.1 572.95 963.2 574.25 975.85 583.95 994.1 588.45 1012.3 592.95 1031.6 594.55 1050.95 596.15 1066.9 597.15 1066.9 598.4 1067.35 599.6 1067.85 600.8 1068.35 601.65 1077 614.15 1091.65 619.05 1106.3 623.95 1121.9 624.3 1139.05 625.05 1157.6 623.55 1176.1 622.05 1195.1 618.75 1198.75 617.4 1202.4 616.1 1206 614.75 1209.65 613.4 1222.3 608.6 1234.75 603.65 1247.15 598.7 1259.3 593.7 1264.35 591.6 1269.35 589.5 1274.35 587.45 1279.3 585.35 1280.9 584.7 1282.45 584.05 1284 583.35 1285.6 582.7 1290.1 580.75 1294.65 578.65 1299.2 576.6 1303.75 574.45 1314.25 569.5 1324.5 564.1 1334.75 558.7 1344.55 552.9 1345.95 552.1 1347.25 551.25 1348.6 550.45 1349.95 549.65 1350.1 549.55 1350.25 549.45
L 1350.55 549.25
Q 1350.5 549.1 1350.45 548.95 1350.4 548.8 1350.3 548.7 1350.15 548.6 1349.95 548.5 1349.8 548.4 1349.6 548.35 1348.35 544.2 1347 540.3 1345.65 536.4 1345.25 534.85 1337.45 506.15 1326.7 477.65 1315.95 449.15 1307.2 420.35 1307.05 419.85 1306.85 418.8 1306.65 417.75 1306.25 416.4 1315.1 413.45 1323.15 410.15 1331.2 406.8 1338.35 403.15
L 1345.7 398.45 1347.85 394.9
M 796.3 497.5
L 795.8 497.2
Q 795.6 497.05 795.35 496.9 795.4 496.7 795.45 496.55 795.5 496.35 795.55 496.15 795.75 496.5 795.9 496.85 796.1 497.15 796.3 497.5
M 776.95 502.4
Q 777 502.55 777 502.7 775.95 501.7 775.2 500.65 774.45 499.65 774.05 498.6 774.65 499.5 775.35 500.35 776.1 501.2 776.85 502.05 776.9 502.2 776.95 502.4 Z"/>
</g>

<g id="Symbol_7_0_Layer0_0_FILL">
<path fill="#a6ce38" stroke="none" d="
M 793 728.5
L 804.5 735.2
Q 815.8 741.55 835.15 750 854.5 758.4 879 765
L 889.25 742.3
Q 898.45 720.9 910.3 692.8 922.15 664.75 931.1 643.45
L 940.5 621 915.1 609.95 793 728.5 Z"/>
</g>

<g id="Symbol_15_0_Layer0_0_FILL">
<path fill="#a6ce38" stroke="none" d="
M 1126.45 316.6
L 1108 333.45
Q 1093.35 347.55 1074.65 365.7 1056 383.85 1040.2 398.95
L 1018.5 418.75 1010.45 429.15 997.7 449.75
Q 982.6 475.4 962.3 507.95 942.05 540.45 920.75 566.3 899.45 592.15 881.3 597.75 863.35 603.05 853.05 615.55 842.7 628.1 842.45 638.5 842.15 648.9 854.3 647.7
L 870.15 641.3 880.85 634.15 893.4 624.35
Q 908.15 613 945.6 597.6 983 582.25 1025.7 564.65 1068.35 547 1098.8 528.8 1146.3 499.3 1173.75 473.9 1201.2 448.5 1215.35 422.2 1229.5 395.85 1237.1 363.6 1242.2 339.45 1227.85 327.85 1213.45 316.3 1191.05 313.4 1168.6 310.5 1149.6 312.3
L 1134.3 314.25 1126.45 316.6 Z"/>
</g>

<g id="Symbol_8_0_Layer0_0_FILL">
<path fill="#a6ce38" stroke="none" d="
M 1037.75 310.3
Q 1009.25 300.8 986.6 302.35 963.9 303.9 957.85 315.55 952.7 327.45 948.8 344.7 944.85 362 941.6 380.45 938.35 398.9 935.2 414.45 934.25 425.55 959.65 428.65 985.05 431.8 1019.6 430.35 1054.15 428.9 1080.75 426.35
L 1108.75 423.5 1103.9 402.35
Q 1099.35 382.75 1094.8 363
L 1089.75 341.35
Q 1066.25 319.8 1037.75 310.3 Z"/>
</g>

<g id="Symbol_9_0_Layer0_0_FILL">
<path fill="#a6ce38" stroke="none" d="
M 1012.35 269.55
Q 997.1 271.3 987.9 276.75 978.7 282.25 974.4 287.2 970.05 291.85 964.65 301 959.25 310.15 954.8 320.5 950.35 330.85 948.9 338.95 948 346.8 957.15 356.25 966.25 365.75 981.25 373.2 996.2 380.65 1012.8 382.4 1029.5 383.65 1046.8 379.85 1064.15 376 1077 369.5 1089.85 363 1093.1 356.25 1093 348.8 1088.15 331 1083.35 313.25 1073.85 296.25 1064.3 279.25 1050.15 274.15 1027.6 267.85 1012.35 269.55 Z"/>
</g>

<g id="Symbol_18_0_Layer0_0_FILL">
<path fill="#a6ce38" stroke="none" d="
M 1108.3 290.6
Q 1083.5 287.85 1067 286.9
L 1067.45 297.75
Q 1068.15 307.9 1069.5 319.75 1070.85 331.55 1072.5 337.35
L 1081.05 334.35 1098.85 329.25
Q 1121.25 323.1 1144.35 315 1167.5 306.85 1173.55 298.9
L 1152.75 295.9
Q 1133.1 293.3 1108.3 290.6 Z"/>
</g>

<g id="Symbol_11_0_Layer0_0_FILL">
<path fill="#0083CB" stroke="none" d="
M 1035.4 302.25
L 1033.5 301.25 1031.5 300.65 1029.35 300.45 1027.25 300.65 1025.25 301.25 1023.35 302.25 1021.75 303.6 1020.4 305.25 1019.4 307.1 1018.75 309.15 1018.55 311.25 1018.75 313.35 1019.4 315.4 1020.4 317.25 1021.75 318.9 1023.35 320.25 1025.25 321.25 1027.25 321.85 1029.35 322.05 1031.5 321.85 1033.5 321.25 1035.4 320.25 1037 318.9 1038.35 317.25 1039.35 315.4 1040 313.35 1040.2 311.25 1040 309.15 1039.35 307.1 1038.35 305.25 1037 303.6 1035.4 302.25 Z"/>
</g>

<g id="Symbol_12_0_Layer0_0_FILL">
<path fill="#a6ce38" stroke="none" d="
M 1040.4 290.7
Q 1036.7 285.45 1029.15 285.1 1020.3 285.55 1015.95 292.1 1011.65 298.6 1010.8 306.75
L 1046.25 307 1045.2 301.3
Q 1044.1 296 1040.4 290.7 Z"/>
</g>

<g id="Symbol_30_0_Layer0_0_FILL">
<path fill="#FFFFFF" stroke="none" d="
M 1346.35 244.85
L 1347.9 234.65 1348.65 231.7 1346.75 232.3 1338.85 237.7
Q 1328 245.45 1309.65 257.65 1291.3 269.85 1269.8 281.4 1248.3 292.9 1228.05 298.6 1201.85 305.35 1183.75 304.2 1165.65 303.05 1152.5 297.45 1139.35 291.8 1128.05 285.15 1120.65 280.9 1112.1 272.45 1103.6 264 1095.5 254 1087.35 244 1081.2 235.1 1075.05 226.25 1072.35 221.15
L 1060.05 382.3
Q 1063.15 383.5 1067.75 386.45 1072.3 389.4 1077.85 393.55 1083.35 397.7 1089.35 402.4 1111.7 420.3 1131.35 430.65 1151.05 441.05 1171.25 444.85 1191.45 448.7 1215.45 446.9 1234.1 445.2 1250.6 433.65 1267.1 422.15 1280.9 405.75 1294.7 389.4 1305.3 373.15 1315.9 356.95 1322.8 345.9 1328.25 336.7 1332.85 317.95 1337.45 299.2 1340.9 278.95 1344.3 258.65 1346.35 244.85 Z"/>
</g>

<g id="Symbol_31_0_Layer0_0_FILL">
<path fill="#0081c6" stroke="none" d="
M 983.35 287.8
Q 980.55 275.6 977.35 263.45 974.15 251.25 970.75 239.25 970.25 237.6 969.75 235.95 969.25 234.3 968.75 232.7 968.5 231.95 968.25 231.15 968 230.4 967.6 229.7
L 967.35 229.2 967.25 229.1 966.55 228.95
Q 965.4 228.65 963.85 228.65 962.35 228.7 961.15 228.75 959.6 228.85 958.05 228.75 956.55 228.65 955.05 228.8 954.4 228.9 953.7 229.05 953 229.15 952.35 229.25 951.95 229.3 951.6 229.35 951.2 229.35 950.85 229.4
L 949.95 229.45
Q 949.25 229.5 948.65 229.5 948.7 229.9 948.8 230.35
L 948.95 230.95
Q 949.6 234.1 950.3 237.3 951 240.5 951.5 243.7 952.25 248.45 953.6 253.15 954.95 257.85 956.15 262.5 959.1 274.75 961.9 287.1 964.65 299.4 967.65 311.65 972.05 330.25 975.7 349 979.4 367.8 983.35 386.5 984.4 391.35 985.55 396.2 986.7 401 988.1 405.8 988.3 406.6 988.6 407.4 988.85 408.15 989.2 408.9 989.4 409.3 989.6 409.65 989.8 410 990 410.35 990.2 410.65 990.7 411.35 991.25 412.05 991.8 412.65 992.3 413.05 993 413.25 993.65 413.45 994.15 413.2 995.1 412.65 995.25 411.8 995.45 410.9 995.3 409.9 995.15 408.9 995 408 993.25 394.55 990.95 381.05 988.6 367.55 986.05 354.25 984.8 347.9 983.8 341.7 982.85 335.5 982.25 329 981.85 324.1 981.55 319.2 981.3 314.3 981.05 309.4
L 981 308.55
Q 981 307.9 980.95 307.35 981.05 307.75 981.15 308.3
L 981.25 308.95
Q 982.3 313.8 983.55 318.65 984.75 323.45 985.7 328.4 986.8 334.8 987.85 341.3 988.95 347.85 990.5 354.2 992.05 360.6 994.6 366.6 995.5 368.75 995.85 370.95 996.15 373.2 996.65 375.4 996.7 375.75 996.8 376.15 996.85 376.5 997 376.85
L 997.5 378 997.95 378.5 998.25 378.4 998.5 377.5
Q 998.55 377.95 998.7 378.5
L 998.8 379.2
Q 999.8 385 1000.7 390.85 1001.55 396.7 1002.9 402.4 1003.45 404.65 1003.9 406.95 1004.35 409.3 1005.25 411.4 1005.4 411.85 1005.6 412.2 1005.8 412.6 1006.05 413
L 1006.15 413.2 1006.45 413.55
Q 1006.8 414.05 1007.2 414.35 1007.6 414 1007.95 413.55
L 1008.25 413.15 1008.4 412.9
Q 1009.35 411 1009.05 408.35 1008.75 405.7 1008 403.05 1007.25 400.4 1006.8 398.45 1005.45 391.85 1004.4 385.1 1003.35 378.35 1002.2 371.7 1000.3 360.45 997.95 349.3 995.6 338.15 992.75 327.1 992.15 324.65 991.45 322.25 990.8 319.85 990.2 317.35 988.55 309.95 986.8 302.6 985.05 295.2 983.35 287.8 Z"/>
</g>

<g id="Symbol_32_0_Layer0_0_FILL">
<path fill="#FFFFFF" stroke="none" d="
M 998.6 380.5
Q 991.05 344.7 982.75 309.1 974.45 273.45 965.85 237.8 965.75 237.4 965.65 236.95 965.55 236.55 965.45 236.15
L 965.2 235.1
Q 965 234.3 964.85 233.65
L 963.2 234.1
Q 961.55 234.6 959.9 235.1 958.25 235.55 956.6 236.05 956.2 236.2 955.75 236.3 955.35 236.4 954.95 236.55
L 953.95 236.85
Q 953.15 237.05 952.5 237.3 952.6 237.75 952.7 238.3
L 952.85 238.95
Q 961.75 276.6 970.25 314.4 978.75 352.15 986.3 390.1 993.9 428.05 999.95 466.3 1006.55 507.95 1009.8 549.9 1013 591.9 1012.4 634.05 1011.95 660.4 1010.45 686.7 1008.95 713 1006.8 739.25 1004.65 765.5 1002.25 791.75 1001.85 795.9 1001.5 800.05 1001.1 804.2 1000.7 808.35 1000.65 808.75 1000.65 809.15 1000.6 809.6 1000.55 810
L 1000.45 811.35
Q 1000.35 812.4 1000.25 813.3 1000.2 813.8 1000.15 814.3
L 1000.1 814.75 1000.1 815 999.95 816.65
Q 999.85 817.5 999.8 818.3 999.75 818.75 999.7 819.15
L 999.5 821.25
Q 999.4 822.2 999.35 823.05 999.8 823.05 1000.35 823
L 1001 823
Q 1004.35 823 1007.7 822.95 1011.05 822.9 1014.4 822.85
L 1015.4 822.85
Q 1016.2 822.85 1016.9 822.85 1016.95 822.4 1017 821.9
L 1017 821.45 1017.05 821.25
Q 1019.55 792.45 1021.85 763.65 1024.2 734.85 1025.9 706 1027.6 677.15 1028.3 648.25 1029.35 599 1025.25 549.95 1021.15 500.9 1012.55 452.4 1006.15 416.3 998.6 380.5 Z"/>
</g>

<g id="Symbol_19_0_Layer0_0_FILL">
<path fill="#FFFFFF" stroke="none" d="
M 656.95 766.95
L 648.9 766.15
Q 647.3 766.15 646.3 767.25 645.25 768.35 645.2 769.8 645.15 771.3 646.5 772.5
L 649.1 773.9 654.55 776.1
Q 661.45 778.7 672.95 780.7 684.4 782.7 699.15 781.9 713.85 781.15 730.65 775.45 742.3 771.1 752.6 762.8 762.95 754.5 770.9 745.45 778.9 736.4 783.5 729.9
L 788.3 722.65 787.25 721.25 784.35 718.45
Q 780.55 714.95 775.95 710.9 771.3 706.9 768.6 704.6 766.5 707.95 761.25 715.5 756 723 748.5 732 741.05 741.05 732.35 748.9 723.6 756.75 714.6 760.8 704.7 764.9 693.85 766.4 683 767.85 673.25 767.75 663.55 767.6 656.95 766.95 Z"/>
</g>

<g id="Symbol_21_0_Layer0_0_FILL">
<path fill="#FFFFFF" stroke="none" d="
M 1093.3 494.05
Q 1082.65 480.05 1069.2 466.9 1055.75 453.75 1042 445.7 1028.3 437.65 1016.75 438.9 1002.5 441.1 995.35 447.25 988.15 453.4 985.75 461.55 983.35 469.7 983.55 478 983.7 486.25 984.15 492.7
L 986.3 509.1 991.4 536.4
Q 998 569.15 1007.1 610.8 1016.2 652.4 1024.4 690.05 1032.6 727.7 1036.55 748.45
L 1039.1 750.6 1044.05 753.35
Q 1050.2 756.4 1059.35 758.85 1068.55 761.25 1079 761.2 1093.9 760.8 1102.45 758.3 1111.05 755.75 1114.65 753.05
L 1117.4 750.7 1118.35 749.2
Q 1128.35 700.1 1129.95 660.85 1131.55 621.65 1127.95 592.6 1124.4 563.55 1118.95 545 1113.45 526.45 1109.35 518.75 1103.95 508.05 1093.3 494.05 Z"/>
</g>

<g id="Symbol_33_0_Layer0_0_FILL">
<path fill="#0081c6" stroke="none" d="
M 974.65 183.5
L 974.1 183.2
Q 973.8 183.05 973.65 183.05 973.1 182.9 972.4 182.7
L 971.55 182.4
Q 966.35 181.25 961.6 181.05 956.9 180.85 952.05 181 947.55 181.15 943 182 938.45 182.85 933.8 184.1 933.35 184.25 932.95 184.4 932.55 184.55 932.25 184.7 931.15 185.1 930.2 185.85
L 929.45 186.45 929.15 186.75
Q 926.7 189.1 924.65 191.85 922.6 194.6 920.5 197.35 917.1 201.8 913.95 206.35 910.85 210.9 907.75 215.4 906.8 216.9 907.3 218 907.8 219.1 909.05 219.15 910.35 219.2 911.7 217.45 912.05 217 912.35 216.55 912.7 216.1 913 215.65 913.25 216.6 914.3 217.3 915.4 218 916.3 218.45 914.65 219.2 914.5 220.3 914.35 221.4 915.45 222.1 916.5 222.85 918.55 222.3 922.45 221.2 926.5 220.25 930.6 219.35 934.5 218.25 939 216.95 943.4 215.65 947.85 214.4 952.25 213 952.6 212.85 952.9 212.7 953.2 212.55 953.45 212.3 953.9 212.2 954.4 211.9 954.9 211.65 955.45 211.2 957.95 209.15 960.55 206.65 963.15 204.15 965.4 201.75 967 200.05 968.6 198.4 970.2 196.7 971.45 194.75 972.6 192.95 973.85 191.05 975.15 189.1 976 187.45 976.6 186.25 976.5 185.25 976.4 184.3 975.1 183.6
L 974.65 183.5 Z"/>
</g>

<g id="Symbol_25_0_Layer0_0_FILL">
<path fill="#FFFFFF" stroke="none" d="
M 972.45 187.3
L 973.25 185.1
Q 967.45 183.05 959.4 182.85 951.35 182.6 943.7 184.2 936.05 185.75 931.45 189
L 929.3 191.1 926.3 194.8
Q 922.8 199.25 919 204.6 915.2 209.95 912.55 213.85
L 909.7 217.95 911.75 218.9
Q 913.65 219.75 915.65 220.6
L 917.3 221.2 918.15 221.35
Q 929.2 217.9 936.2 215.85 943.2 213.8 947.45 212.15 951.7 210.55 954.55 208.4 957.65 205.85 962.05 200.85 966.5 195.8 969.9 191.15
L 972.45 187.3 Z"/>
</g>

<g id="Symbol_34_0_Layer0_0_FILL">
<path fill="#0081c6" stroke="none" d="
M 739.45 692.55
L 739.45 691.85
Q 739.4 691.25 738.8 690.95 738.25 690.25 737.45 690.3 736.6 690.3 736.05 690.7 735.25 691.95 735.25 693.8 735.25 695.7 735.55 697.3
L 735.9 699.55
Q 736.2 702.55 736.55 709.05 736.95 715.6 737.5 721.8
L 738.15 727 738.9 730.15 739 730.3
Q 739.05 731.8 739.2 733 739.35 734.15 739.4 734.6 741.65 760.75 743.45 787 745.25 813.3 747.3 839.55 749.35 865.8 752.2 891.95 752.25 892.55 752.3 893.55 752.35 894.55 752.75 895.5 753.1 896.45 754.1 896.85 754.55 896.8 754.95 896.55 755.3 896.3 755.6 895.9 756.65 897.6 758.2 899.25 759.75 900.85 761.2 902.1 762.7 903.3 763.5 903.8 765.35 904.85 768.45 906 771.55 907.1 775.3 908.05 779.05 909 782.8 909.55 781.9 911.7 780.85 913.7 779.85 915.75 778.75 917.65 778.35 918.15 777.65 919.3 776.9 920.5 777.3 921.8 778.85 921.25 780.2 919.9 781.6 918.55 782.65 917.1 783.65 915.65 784.05 914.9 784.8 913.7 785.4 912.45 786.05 911.25 786.65 910.05 789.45 910.3 791.65 910.15 793.9 910 795.25 909.35
L 796.15 909.15
Q 796.8 909.05 796.9 908.3 795.3 906.65 792.85 906.35 790.4 906.05 788.4 906.2 790.15 902.1 792.15 898.1 794.1 894.1 797.2 890 801.95 883.45 803.25 870.5 804.6 857.55 803.6 842.15 802.6 826.7 800.25 812.75 797.9 798.8 795.2 790.2 789.75 773.2 781.45 757.2 773.1 741.2 762.9 725.95 752.7 710.75 741.55 696.1
L 740.9 695.3
Q 740.4 694.7 739.9 694.1 739.8 693.65 739.65 693.25 739.55 692.85 739.45 692.55 Z"/>
</g>

<g id="Symbol_35_0_Layer0_0_FILL">
<path fill="#FFFFFF" stroke="none" d="
M 743.95 723.9
L 746.1 751.05
Q 748.15 776.85 750.85 810.8 753.5 844.75 755.6 870.6
L 757.8 897.9
Q 761.75 905.15 778.45 908.7 795.15 912.25 816.35 912.15 837.6 912 855.15 908.2 872.75 904.4 878.45 896.95
L 881.8 873.6
Q 884.9 851.45 888.95 822.35 893.05 793.25 896.15 771.1
L 899.5 747.65
Q 889.65 737.65 870.6 730.3 851.55 722.95 828.35 719.25 805.1 715.55 782.75 716.45 760.4 717.35 743.95 723.9 Z"/>
</g>

<g id="Symbol_22_0_Layer0_0_FILL">
<path fill="#0083CB" stroke="none" d="
M 943.65 840.8
Q 942.6 838.75 942.2 837.35 941.45 834.6 941.05 831.85 940.7 829.05 940.15 826.35
L 939.65 824.85 939.1 824.45
Q 938.5 824.55 938.05 825.8 937.65 827 937.65 828.25 937.8 831.4 938.75 835.75 939.7 840.1 941.85 843.7 943.95 847.3 947.65 848.15 951.1 848.6 953.45 845.55 955.8 842.55 957.1 838.5 958.4 834.45 958.75 831.75 958.9 830.75 958.95 828.85 959 826.95 958.7 825.25 958.4 823.5 957.45 822.95
L 957.25 822.9
Q 957.1 822.9 957.05 822.95 956.7 823.3 956.6 823.8
L 956.45 824.5
Q 956.2 826.4 956.15 828.4 956.15 830.4 955.8 832.35 955.5 834.05 954.65 836.85 953.8 839.65 952.5 842.15 951.2 844.6 949.5 845.25 947.75 845.7 946.2 844.3 944.7 842.85 943.65 840.8 Z"/>
</g>

<g id="Symbol_36_0_Layer0_0_FILL">
<path fill="#FFFFFF" stroke="none" d="
M 803.6 759.1
L 808.35 780.8
Q 812.85 801.4 818.85 828.5 824.8 855.6 829.4 876.25
L 834.3 898
Q 840.35 902.2 856.75 905.3 873.15 908.4 893 909.25 912.85 910.15 929.4 907.7 945.9 905.2 952.25 898.3 954.3 870 953.6 841.45 952.95 812.85 951.05 788.8 949.1 764.75 947.4 750.05
L 945.7 734.75
Q 926.55 729.2 908.35 729.4 890.1 729.55 872.55 733.8 855 738.05 837.8 744.8 820.65 751.55 803.6 759.1 Z"/>
</g>

<g id="Symbol_23_0_Layer0_0_FILL">
<path fill="#0083CB" stroke="none" d="
M 943.35 838.65
Q 942.15 836.05 941.4 832.95 940.6 829.9 939.6 827.1
L 939.2 826.4 938.9 826.25
Q 938.6 826.4 938.45 827.1 938.3 827.8 938.3 828.5 938.5 831.6 939.5 835.45 940.5 839.25 942.25 842.4 943.95 845.55 946.3 846.7 950.3 848.25 953.15 845.6 956 842.95 957.6 838.15 959.2 833.4 959.35 828.65 959.35 827.95 959.35 826.95 959.3 825.95 959.1 825.15 958.85 824.4 958.4 824.45 958.25 824.75 958.1 825.1
L 957.95 825.6
Q 957.35 827.6 957.1 829.8 956.8 831.95 956.3 834.1 955.15 838.55 953 841.25 950.85 843.95 948.25 843.6 945.7 843.25 943.35 838.65 Z"/>
</g>

<g id="Symbol_37_0_Layer0_0_FILL">
<path fill="#0081c6" stroke="none" d="
M 946.8 704.9
Q 941 718.25 936.25 731.95 931.55 745.65 927.35 760.85 926.55 763.7 925.2 767.85 923.85 772 922.5 776.65 921.1 781.3 920.15 785.75 919.95 785.65 919.75 785.6 919.5 785.6 919.25 785.7 919.45 786.8 919.25 788.1 919 789.4 918.7 790.45
L 918.35 791.8
Q 918.15 793.2 918.05 795.25 917.95 797.3 918.1 799.25 916.5 799.35 914.4 799.65 912.3 799.95 911 800.85 912.25 801.1 914.35 801.1 916.4 801.1 918.3 800.95 918.4 801.3 918.45 801.6 918.55 801.85 918.65 802.1 918.65 802.35 918.65 802.9 918.6 803.5 919.2 803.55 919.4 803.05 919.55 802.35 919.7 801.65 919.75 800.85 920.15 800.8 920.4 800.8 920.7 800.75 920.9 800.75 931.35 799.4 942.3 797.65 953.3 795.9 963.55 793.9 984.85 789.75 1005.4 781.6 1025.9 773.45 1043.6 760.85 1061.3 748.3 1074.1 730.9 1086.9 713.45 1092.8 690.75 1095.5 679.3 1096 665.35 1096.5 651.4 1095.9 637.15 1095.35 622.95 1094.8 610.75 1094.35 598.15 1091.35 584.2 1088.4 570.2 1083.1 556.6 1077.8 543.05 1070.5 531.7 1071.3 531.3 1072.15 530.9 1073 530.5 1073.85 530.1 1075.55 529.35 1076.25 529.1 1077 528.85 1076.85 528.3
L 1076.55 527.5 1075.85 526.15
Q 1075.65 525.85 1075.25 525.9 1074.9 525.9 1074.75 526.15 1073.65 526.4 1072.35 527 1071.1 527.6 1070.1 528.1
L 1068.8 528.75 1068.55 528.85
Q 1067.65 527.5 1066.65 526.25 1065.7 524.95 1064.7 523.7
L 1064.3 523.15
Q 1064 522.65 1063.6 522.35 1063.5 522.2 1063.45 522.05 1063.4 521.9 1063.15 521.9 1063.2 523.35 1064.3 525.5 1065.4 527.7 1066.65 529.6 1046.8 538.1 1031.2 555.1 1015.6 572.1 1003.1 593.55 990.6 615.05 980.15 637.05 969.65 659 960.1 677.45 952.6 691.6 946.8 704.9 Z"/>
</g>

<g id="Symbol_38_0_Layer0_0_FILL">
<path fill="#FFFFFF" stroke="none" d="
M 747.9 407.05
L 739.8 408.1
Q 732.15 409.3 722.65 413.8 713.1 418.3 707.05 428 701 437.75 703.7 454.65 705.35 463 710.6 480.55 715.85 498.1 723.1 520.45 730.3 542.8 737.95 565.55 745.6 588.35 752 607.25 753.65 612.25 755.75 622.7 757.8 633.2 759.75 646.25 761.65 659.35 762.8 672.15 763.95 684.95 763.75 694.7 763.5 700.8 762.5 710.35 761.45 719.85 760.95 731.25 760.4 742.65 761.65 754.35 762.85 766.05 767 776.5 773.7 790.5 797.1 795.9 820.55 801.3 851.25 800.85 882 800.4 910.65 796.85 939.3 793.3 956.55 789.4 970.6 786.4 985.6 782.15 1000.65 777.85 1015.25 771.4 1029.8 764.95 1042.5 755.35 1055.15 745.75 1064.45 732 1074.95 716 1080.9 696.6 1086.8 677.25 1088.75 656.15 1090.7 635.05 1089.25 613.8 1087.85 592.55 1083.7 572.8 1078.4 548.65 1068 527.2 1057.6 505.7 1046.15 489 1034.75 472.3 1026.35 462.4
L 1016.7 451.65 973.65 443.8
Q 933.6 437.1 881.35 428.6 829.1 420.1 789.55 413.75
L 747.9 407.05 Z"/>
</g>

<g id="Symbol_39_0_Layer0_0_FILL">
<path fill="#0081c6" stroke="none" d="
M 1162.4 196.4
Q 1160.05 195.8 1157.25 196.45 1157 196.5 1156.4 196.65 1155.75 196.75 1155.4 197.2 1154.05 198.2 1152.5 199.65 1150.95 201.15 1149.75 202.4
L 1148.3 204.1
Q 1142.75 212.75 1137.85 220.9 1132.95 229.1 1127.8 237 1126.15 238.8 1124.8 240.85 1123.4 242.9 1122.2 245.1 1119.5 248.8 1116.5 252.45 1113.5 256.15 1110.1 259.85 1105.6 264.9 1100.95 270.75 1096.25 276.6 1091.05 281.75
L 1090.35 282.2
Q 1090 282.4 1089.65 282.6
L 1089.4 282.7
Q 1085.2 284.95 1081.4 287.25 1077.65 289.55 1073.5 290.75 1069.35 291.95 1064 290.95 1060.45 290.15 1057.3 287.55 1054.2 284.95 1051.6 281.2 1049 277.45 1047.05 273.2 1047.05 272.45 1047.05 271.9 1047 271.3 1047 271.1 1046.65 267.95 1045.9 265 1045.15 262.05 1044.35 259.15 1044.05 256.2 1043.8 253.55 1043.55 250.85 1043.2 248.7 1042.9 246.95 1042.65 245.3 1042.4 243.7 1041.75 242.1 1041.2 240.4 1040.25 239 1039.25 237.55 1037.7 236.6 1037.45 236.35 1037.25 236.15 1037.05 236 1036.9 235.9 1033 233.75 1027.2 236 1021.4 238.2 1015.25 242.2 1009.15 246.2 1004.25 249.35 1003.2 249.85 1002.35 250.3
L 1001.2 250.95
Q 1000.95 251.05 1000.75 251.15 1000.55 251.25 1000.35 251.35 992.6 252 985.9 249.45 979.25 246.95 972.8 241.9 966.35 236.9 959.25 230.2 952.55 223.9 944.4 218.7 936.25 213.55 927.3 210.8 918.35 208.05 909.3 209.05 907.95 209.15 906.1 209.1 904.2 209.05 902.5 209.3 896.95 209.35 891.65 209.95 886.3 210.55 881.4 211.7 876.3 212.95 870.7 215.1 865.05 217.3 859.55 219.85 854.05 222.4 849.35 224.75 844.45 227.2 838.45 231.7 832.4 236.15 826.85 241.6 821.3 247.05 817.8 252.45 816.95 253.35 816.3 254.15 815.65 254.95 815.35 255.35 813.05 258.5 810.9 264.05 808.75 269.65 806.95 276.7 804.6 282.25 803.4 287.45 802.2 292.65 802.7 298.5 801.6 307.05 801.6 314.15 801.6 321.3 803 325.6 804.8 330.25 810.1 336.05 815.4 341.9 821.4 347.5 827.4 353.15 831.3 357.1 838.8 365.35 844 371.15 849.15 377 855.55 381.15 861.9 385.35 873.1 388.6 885.35 392.2 897.1 394.95 908.9 397.7 920.85 399.35 932.75 401 945.45 401.2 951.9 401.2 958.55 401.5 965.15 401.7 971.65 402.9 978.1 404.05 984.15 406.85 990.15 409.6 995.4 411.25 1000.65 412.9 1005.8 415.1 1011 417.35 1016.7 421.65 1018.7 423.2 1022.2 425.6 1025.65 428.05 1030 430.8 1034.3 433.6 1038.85 436.15 1033.6 441.15 1028.65 446.8 1023.7 452.5 1020.55 458.1 1017.4 463.7 1017.55 468.35 1017.6 468.95 1017.7 469.55 1017.8 470.15 1018 470.7 1018.35 471.5 1018.75 472.25 1019.15 473 1019.6 473.7 1019.8 474 1020.05 474.3 1020.3 474.55 1020.55 474.8
L 1020.25 474.75
Q 1020.55 475.25 1020.95 475.75 1021.3 476.25 1021.7 476.7 1028.55 477.6 1034.95 477.3 1041.3 477.05 1047.7 476 1054.1 475 1060.95 473.6 1067.25 472.9 1073.65 471.75 1080.1 470.55 1086.55 468.8 1087.5 468.6 1088.45 468.3 1089.45 468.05 1090.45 467.75 1107.7 462.8 1123.6 453.45 1139.5 444.15 1152 429.65 1164.5 415.15 1171.65 394.7 1172.8 391.4 1174.3 386.9 1175.85 382.35 1177.2 377.35 1178.6 372.35 1179.3 367.6 1181.35 357.8 1182.7 348 1184 338.2 1184.8 328.85 1185.45 321.75 1186.2 315.75 1187 309.75 1187.35 303.6 1187.75 297.5 1187.2 290.05 1186.65 281.75 1186.45 274.2 1186.2 266.65 1185.85 259.3 1185.5 251.95 1184.4 244.3 1184.05 240.25 1183.45 236.25 1182.8 232.3 1181.8 228.45 1180.65 224 1178.75 218.1 1176.85 212.25 1173.85 206.9 1170.9 201.5 1166.6 198.65 1164.75 197 1162.4 196.4
M 1021.75 240.95
L 1021.85 240.9 1021.85 240.95 1021.75 240.95
M 984.75 252.05
L 984.35 251.9 984.2 251.8
Q 984.3091796875 251.8697265625 984.4 251.9 984.6 251.95 984.75 252.05 Z"/>
</g>

<g id="Symbol_40_0_Layer0_0_FILL">
<path fill="#FFFFFF" stroke="none" d="
M 1122.8 255.7
Q 1110 273.4 1094.75 285.3 1079.5 297.2 1063.95 294.65 1055.65 292.65 1050.65 285.8 1045.7 279 1043.2 270.45 1040.75 261.95 1039.95 254.7 1039.2 247.5 1039.2 244.7 1039.1 241.9 1037.25 240.05 1035.45 238.2 1032.75 237.9 1030 237.6 1027.25 239.6 1022.9 242.9 1016.85 247 1010.75 251.05 1003.75 253.85 996.8 256.6 989.75 256.05 986.3 255.55 980.9 251.8 975.45 248.05 969 242.55 962.55 237.1 956.1 231.5 949.65 225.85 944.15 221.65 939.8 218.15 928.8 215.2 917.8 212.2 901.4 212.95 884.95 213.7 864.2 221.35 849.8 227.1 840.35 234.2 830.9 241.3 825.95 247.15
L 822 251.95 820.15 254.8
Q 816.25 262.3 810.05 279.1 803.9 295.9 797.55 314.65 791.2 333.4 786.9 346.75
L 782.4 360.7 784.7 367.7
Q 786.85 374.25 792.8 384.7 798.7 395.1 810.25 407.25 821.75 419.4 840.75 431.1 864.35 445.05 887.95 453.8 911.55 462.55 931.45 467.05 951.35 471.55 963.95 472.8 1002.1 476.9 1032.15 474.8 1062.15 472.75 1084.1 465.75 1106.05 458.75 1119.95 448.05 1138.6 433.8 1151.75 413.1 1164.95 392.4 1172.05 367 1179.15 341.65 1179.65 313.25 1180.05 279.35 1178 256.95 1175.95 234.6 1173.45 222.6
L 1170.05 207.8
Q 1168.55 202.4 1165.05 200.7 1161.55 199 1158.1 200.15 1154.65 201.3 1153.2 204.55
L 1143.75 223.05
Q 1135.55 238 1122.8 255.7 Z"/>
</g>

<g id="Symbol_41_0_Layer0_0_FILL">
<path fill="#0081c6" stroke="none" d="
M 883.55 162.15
Q 879 164.55 875.45 167.35 872.5 169.25 869.95 171.35 867.45 173.45 865.55 175.7 862.85 178.1 860.7 180.6 858.6 183.1 857.25 185.6 855.6 188.9 854.75 193.75 853.95 198.6 853.65 203.6 853.4 208.55 853.4 212.2 853.35 216.45 853.55 220.6 853.7 224.75 853.95 228.9
L 853.95 229.25
Q 853.55 229.55 853.35 229.8 853.15 230 853.45 230 853.55 229.95 853.7 229.9 853.85 229.8 854.05 229.75
L 854.05 229.8 854.2 229.7 854.2 229.65 854.5 229.5
Q 854.7 229.35 854.95 229.25 855.15 229.1 855.4 229
L 855.4 228.85 855.65 228.65
Q 863.55 221.9 872.75 215.9 881.95 209.85 890.95 204.3 891.45 204 892.6 203.55 893.7 203.05 895 202.5
L 893.9 204.1 894 204.25 894.65 204.15
Q 894.75 204.05 894.85 203.9 894.95 203.7 895.05 203.55 895.65 203.2 896.1 202.65
L 896.7 201.85 896.8 201.65
Q 897.6 201.3 898.15 200.95
L 898.5 200.7 898.65 200.45 898.65 200.15
Q 899.15 199.65 899.5 199.15
L 899.85 198.75 900 198.5
Q 902.9 194.85 904.4 189.9 905.9 184.95 906.3 179.75 906.95 176.5 907.25 172.8 907.55 169.15 907.3 165.65 907.1 162.15 906.25 159.55 906.1 159 905.75 158.25 905.4 157.45 904.95 156.95
L 904.7 156.65
Q 904.35 156.1 903.65 155.95 902.9 155.8 902.3 155.9
L 901.6 155.95
Q 897.55 156.5 892.85 158.15 888.1 159.75 883.55 162.15
M 859.4 183.4
L 859.4 183.55
Q 859.25 183.75 859.1 183.95 858.9 184.2 858.75 184.4 858.9 184.15 859.1 183.9 859.25 183.65 859.4 183.4
M 899.65 156.85
L 899.6 156.85 899.85 156.8 899.65 156.85
M 900.25 196.85
Q 900.3 196.65 900.35 196.5
L 900.5 196.2 900.55 196.25
Q 900.5 196.4 900.4 196.55 900.3 196.7 900.25 196.85
M 864.45 177.55
Q 864.616015625 177.4076171875 864.75 177.25 864.717578125 177.332421875 864.65 177.4 864.4 177.65 864.2 177.9 864.1 178 864 178.05 863.9625 178.06875 863.9 178.1 864.20390625 177.837109375 864.45 177.55
M 898.2 199.65
L 898.1 199.6
Q 898.2 199.35 898.35 199.1 898.48125 198.8810546875 898.6 198.6 898.4875 198.88125 898.4 199.1 898.3 199.35 898.2 199.65
M 854.05 216.1
Q 854.05 215.7666015625 854.05 215.4 854.05 214.95 854.05 214.5
L 854.1 214.6
Q 854.1 215 854.1 215.45 854.059375 215.775 854.05 216.1
M 854.3 227.45
Q 854.3189453125 227.72109375 854.35 228 854.4 228.4 854.45 228.85
L 854.3 228.95
Q 854.3 228.55 854.3 228.25 854.3 227.95 854.3 227.8
L 854.3 227.45 Z"/>
</g>

<g id="Symbol_26_0_Layer0_0_FILL">
<path fill="#FFFFFF" stroke="none" d="
M 889.05 162.7
Q 882.2 166.25 875.95 171.05 869.7 175.8 865.25 180.35 860.8 184.9 859.45 187.7 858.55 190.25 858.1 197.25 857.65 204.25 857.5 212.35 857.35 220.4 857.35 226.25
L 857.35 232.35 860.15 232.1
Q 862.8 231.85 866.3 231.45 869.8 231.05 872.55 230.65
L 874.75 230.25 875.7 229.95
Q 884.4 218.9 889.6 211 894.75 203.05 897.2 197.95 899.6 192.85 900.1 190.3 900.55 188.15 901.15 183.4 901.8 178.65 902.25 173.2 902.7 167.75 902.75 163.55
L 902.55 160.15 902 158.35
Q 895.85 159.15 889.05 162.7 Z"/>
</g>

<g id="Symbol_27_0_Layer0_0_FILL">
<path fill="#1D2013" stroke="none" d="
M 1009 492.75
Q 1008.85 492.65 1008.7 492.6 1008.6 492.55 1008.45 492.45
L 1008.6 492.75 1009 492.75 Z"/>

<path fill="#0081c6" stroke="none" d="
M 957.05 500.85
Q 955.1 501.3 952.4 502 949.75 502.7 947.15 503.6 948.45 502.65 949.8 501.7 951.15 500.8 952.55 499.9 963.4 492.15 975.8 490.3 988.25 488.45 1001.15 492.35 1002 492.45 1002.9 492.55 1003.8 492.65 1004.65 492.7 1005.65 492.75 1006.65 492.8 1007.6 492.8 1008.6 492.75
L 1008.45 492.45
Q 1008.6 492.55 1008.7 492.6 1008.85 492.65 1009 492.75
L 1009.15 492.75 1009.7 492.7
Q 1010 492.65 1010.3 492.65 1010.7 492.6 1011.05 492.45 1011.45 492.35 1011.8 492.2
L 1011.75 492.1
Q 1010.7 490.25 1007.85 488.7 1004.95 487.2 1001.8 486.15 998.6 485.15 996.6 484.8 995.65 484.65 994.6 484.45 993.55 484.3 992.65 484.35 986.2 483.8 979.05 485.1 971.95 486.45 965.05 489.25 958.15 492.05 952.4 495.8 950.75 497 949.2 498.3 947.65 499.6 946.2 501.05
L 946.05 501.45
Q 945.45 502 944.9 502.55 944.3 503.15 943.8 503.7 943.3 504.3 942.85 504.9 942.4 505.5 941.95 506.15 942.3 506.05 942.55 506 942.8 505.95 943 505.9 943.45 505.8 943.85 505.65 944.3 505.55 944.75 505.45 950.9 503.9 957.15 502.4 963.4 500.95 969.6 499.45 970.3 499.3 971 499.1 971.7 498.9 972.4 498.65 970.45 498.45 967.6 498.8 964.75 499.15 961.9 499.75 959.05 500.4 957.05 500.85
M 992 487.25
Q 991.75 487.2 991.5 487.15 991.6470703125 487.15 991.8 487.15 992.2 487.2 992.6 487.25 992.45 487.25 992.3 487.25 992.15 487.25 992 487.25 Z"/>
</g>

<g id="Symbol_28_0_Layer0_0_FILL">
<path fill="#FFFFFF" stroke="none" d="
M 986.25 295.45
Q 983.9 288.7 978.35 283.8 972.85 278.85 963.05 277.05 953.1 275.55 946.15 278.6 939.15 281.7 934.5 287.45 929.85 293.25 927 299.8 924.15 306.3 922.45 311.7 931.35 312.7 942.55 314.6 953.75 316.45 965.55 318.7 977.3 320.9 987.9 323.05 988.85 316.6 988.7 309.4 988.55 302.15 986.25 295.45 Z"/>
</g>

<g id="Symbol_29_0_Layer0_0_FILL">
<path fill="#FFFFFF" stroke="none" d="
M 820.1 480.65
Q 816.75 472.1 810.1 464.3 803.45 456.45 793.15 450.8 782.8 445.1 768.4 442.95 757.05 441.45 746.8 444.35 736.55 447.25 728.25 452.95 719.9 458.65 714.2 465.65 708.5 472.65 706.2 479.45
L 700.85 500 698.3 511.45
Q 692.95 536.55 688.9 574.55 684.9 612.55 686.5 658 688.1 703.45 699.6 750.9
L 701.15 752.75 705.4 756
Q 710.95 759.95 721.4 763.6 731.9 767.25 746.9 767.7 761.1 767.7 771.05 764.05 781.05 760.4 786.7 756.1
L 791.25 752.4 793.6 749.85
Q 796.85 728.7 802.05 691.45 807.2 654.15 812.4 613.25 817.6 572.3 820.9 540.15
L 823.3 513.3 823.85 497.05
Q 823.45 489.2 820.1 480.65 Z"/>
</g>

<g id="Symbol_42_0_Layer0_0_FILL">
<path fill="#0081c6" stroke="none" d="
M 469.15 639.7
L 469.15 640.1
Q 468.95 644.15 468.95 647.9 469 651.7 469.35 655.4 469.7 659.1 470.5 662.85 470.7 663.65 470.85 664.5 471.05 665.3 471.2 666.1 471.2 665.8 471.2 665.5 471.15 665.2 471.15 664.95
L 471.15 664.8 471.1 664.45
Q 471 664 470.95 663.35 470.85 662.7 470.8 661.95 470.25 658.7 469.95 655.35 469.65 652 469.7 648.4 469.75 647.8 469.8 646.35 469.9 644.9 469.95 643.15 470.05 641.45 470 640.1
L 469.95 639.05 469.8 638.5
Q 469.75 638.4 469.65 638.35 469.6 638.35 469.5 638.45 469.35 638.7 469.3 639.05 469.2 639.4 469.15 639.7 Z"/>
</g>
</defs>



<g transform="matrix( 0.1545562744140625, -0.1026458740234375, 0.0555877685546875, 0.134796142578125, 1039.45,868.55) ">
<g transform="matrix( 1, 0, 0, 1, 0,0) ">
<use xlink:href="#Symbol_20_0_Layer0_0_FILL"/>
</g>
</g>

<g transform="matrix( 0.1678619384765625, -0.0179595947265625, -0.058624267578125, 0.132232666015625, 1031.7,805) ">
<g transform="matrix( 1, 0, 0, 1, 0,0) ">
<use xlink:href="#Symbol_14_0_Layer0_0_FILL"/>
</g>
</g>

<g transform="matrix( 0.021240234375, 0.149658203125, -0.2093658447265625, 0.0327911376953125, 1267.6,690.25) ">
<g transform="matrix( 1, 0, 0, 1, 0,0) ">
<use xlink:href="#Symbol_7_0_Layer0_0_FILL"/>
</g>
</g>

<g transform="matrix( 0.1306304931640625, 0.09552001953125, -0.1378173828125, 0.1526641845703125, 1125.25,673.1) ">
<g transform="matrix( 1, 0, 0, 1, 0,0) ">
<use xlink:href="#Symbol_15_0_Layer0_0_FILL"/>
</g>
</g>

<g transform="matrix( 0.0401611328125, 0.1080474853515625, -0.1275482177734375, 0.06866455078125, 1240.25,702.15) ">
<g transform="matrix( 1, 0, 0, 1, 0,0) ">
<use xlink:href="#Symbol_8_0_Layer0_0_FILL"/>
</g>
</g>

<g transform="matrix( 0.0401611328125, 0.1080474853515625, -0.1275482177734375, 0.06866455078125, 1240.25,702.15) ">
<g transform="matrix( 1, 0, 0, 1, 0,0) ">
<use xlink:href="#Symbol_9_0_Layer0_0_FILL"/>
</g>
</g>

<g transform="matrix( 0.1173095703125, -0.0883331298828125, 0.015594482421875, 0.1189727783203125, 1113.3,889.1) ">
<g transform="matrix( 1, 0, 0, 1, 0,0) ">
<use xlink:href="#Symbol_18_0_Layer0_0_FILL"/>
</g>
</g>

<g transform="matrix( 0.0401611328125, 0.1080474853515625, -0.1275482177734375, 0.06866455078125, 1240.25,702.15) ">
<g transform="matrix( 1, 0, 0, 1, 0,0) ">
<use xlink:href="#Symbol_11_0_Layer0_0_FILL"/>
</g>
</g>

<g transform="matrix( 0.1320648193359375, -0.032989501953125, 0.0613861083984375, 0.1888275146484375, 1087.4,810.5) ">
<g transform="matrix( 1, 0, 0, 1, 0,0) ">
<use xlink:href="#Symbol_12_0_Layer0_0_FILL"/>
</g>
</g>

<g transform="matrix( 0.3694610595703125, -0.3548431396484375, -0.619049072265625, -0.1466522216796875, 521.35,748.35) ">
<g transform="matrix( 1, 0, 0, 1, 0,0) ">
<use xlink:href="#Symbol_30_0_Layer0_0_FILL"/>
</g>
</g>

<g transform="matrix( 0.3119964599609375, -0.86627197265625, 0.602874755859375, 0.3137969970703125, 229.7,1079.6) ">
<g transform="matrix( 1, 0, 0, 1, 0,0) ">
<use xlink:href="#Symbol_31_0_Layer0_0_FILL"/>
</g>
</g>

<g transform="matrix( 0.3119964599609375, -0.86627197265625, 0.602874755859375, 0.3137969970703125, 229.7,1079.6) ">
<g transform="matrix( 1, 0, 0, 1, 0,0) ">
<use xlink:href="#Symbol_32_0_Layer0_0_FILL"/>
</g>
</g>

<g transform="matrix( 0.581573486328125, -0.3275299072265625, 0.3275299072265625, 0.581573486328125, 118.3,566.1) ">
<g transform="matrix( 1, 0, 0, 1, 0,0) ">
<use xlink:href="#Symbol_19_0_Layer0_0_FILL"/>
</g>
</g>

<g transform="matrix( 0.638153076171875, -0.1957550048828125, -0.1957550048828125, -0.638153076171875, 325.2,1064.95) ">
<g transform="matrix( 1, 0, 0, 1, 0,0) ">
<use xlink:href="#Symbol_21_0_Layer0_0_FILL"/>
</g>
</g>

<g transform="matrix( 0.635894775390625, 0.1764678955078125, -0.1240234375, 0.656219482421875, 345.25,128.95) ">
<g transform="matrix( 1, 0, 0, 1, 0,0) ">
<use xlink:href="#Symbol_33_0_Layer0_0_FILL"/>
</g>
</g>

<g transform="matrix( 0.635894775390625, 0.1764678955078125, -0.1240234375, 0.656219482421875, 345.25,128.95) ">
<g transform="matrix( 1, 0, 0, 1, 0,0) ">
<use xlink:href="#Symbol_25_0_Layer0_0_FILL"/>
</g>
</g>

<g transform="matrix( 0.6671295166015625, 0.0625762939453125, -0.16375732421875, 0.6526641845703125, 416.6,242.05) ">
<g transform="matrix( 1, 0, 0, 1, 0,0) ">
<use xlink:href="#Symbol_34_0_Layer0_0_FILL"/>
</g>
</g>

<g transform="matrix( 0.6671295166015625, 0.0625762939453125, -0.16375732421875, 0.6526641845703125, 416.6,242.05) ">
<g transform="matrix( 1, 0, 0, 1, 0,0) ">
<use xlink:href="#Symbol_35_0_Layer0_0_FILL"/>
</g>
</g>

<g transform="matrix( 0.631195068359375, 0.14703369140625, -0.247802734375, 0.6483306884765625, 459.5,171.75) ">
<g transform="matrix( 1, 0, 0, 1, 0,0) ">
<use xlink:href="#Symbol_22_0_Layer0_0_FILL"/>
</g>
</g>

<g transform="matrix( 0.6309814453125, -0.0147552490234375, 0.072113037109375, 0.8105621337890625, 343.05,164.35) ">
<g transform="matrix( 1, 0, 0, 1, 0,0) ">
<use xlink:href="#Symbol_36_0_Layer0_0_FILL"/>
</g>
</g>

<g transform="matrix( 0.636505126953125, 0.15863037109375, -0.090545654296875, 0.7558441162109375, 489.1,67.7) ">
<g transform="matrix( 1, 0, 0, 1, 0,0) ">
<use xlink:href="#Symbol_23_0_Layer0_0_FILL"/>
</g>
</g>

<g transform="matrix( 0.667572021484375, 0, 0, 0.667572021484375, 285.75,266.65) ">
<g transform="matrix( 1, 0, 0, 1, 0,0) ">
<use xlink:href="#Symbol_37_0_Layer0_0_FILL"/>
</g>
</g>

<g transform="matrix( 0.667572021484375, 0, 0, 0.667572021484375, 285.75,266.65) ">
<g transform="matrix( 1, 0, 0, 1, 0,0) ">
<use xlink:href="#Symbol_38_0_Layer0_0_FILL"/>
</g>
</g>

<g transform="matrix( 0.61834716796875, 0.2296905517578125, -0.223297119140625, 0.6155853271484375, 397.05,91.4) ">
<g transform="matrix( 1, 0, 0, 1, 0,0) ">
<use xlink:href="#Symbol_39_0_Layer0_0_FILL"/>
</g>
</g>

<g transform="matrix( 0.61834716796875, 0.2296905517578125, -0.223297119140625, 0.6155853271484375, 397.05,91.4) ">
<g transform="matrix( 1, 0, 0, 1, 0,0) ">
<use xlink:href="#Symbol_40_0_Layer0_0_FILL"/>
</g>
</g>

<g transform="matrix( 0.53521728515625, 0.386260986328125, -0.34393310546875, 0.5724639892578125, 488.05,-35.1) ">
<g transform="matrix( 1, 0, 0, 1, 0,0) ">
<use xlink:href="#Symbol_41_0_Layer0_0_FILL"/>
</g>
</g>

<g transform="matrix( 0.53521728515625, 0.386260986328125, -0.34393310546875, 0.5724639892578125, 488.05,-35.1) ">
<g transform="matrix( 1, 0, 0, 1, 0,0) ">
<use xlink:href="#Symbol_26_0_Layer0_0_FILL"/>
</g>
</g>

<g transform="matrix( -0.408966064453125, -0.1836395263671875, -0.2964935302734375, 0.388580322265625, 1470.65,518.5) ">
<g transform="matrix( 1, 0, 0, 1, 0,0) ">
<use xlink:href="#Symbol_27_0_Layer0_0_FILL"/>
</g>
</g>

<g transform="matrix( 0.6179656982421875, 0.231109619140625, -0.2261962890625, 0.6262054443359375, 398.4,86.35) ">
<g transform="matrix( 1, 0, 0, 1, 0,0) ">
<use xlink:href="#Symbol_28_0_Layer0_0_FILL"/>
</g>
</g>

<g transform="matrix( 0.7408294677734375, 0.0151519775390625, 0.023712158203125, -0.755218505859375, 220.25,922.9) ">
<g transform="matrix( 1, 0, 0, 1, 0,0) ">
<use xlink:href="#Symbol_29_0_Layer0_0_FILL"/>
</g>
</g>

<g transform="matrix( 5.0337066650390625, -0.37005615234375, 0.3701934814453125, 5.0331878662109375, -1756.4,-2591.25) ">
<g transform="matrix( 1, 0, 0, 1, 0,0) ">
<use xlink:href="#Symbol_42_0_Layer0_0_FILL"/>
</g>
</g>
</svg>
