
<svg xmlns="http://www.w3.org/2000/svg" version="1.1" xmlns:xlink="http://www.w3.org/1999/xlink" preserveAspectRatio="none" x="0px" y="0px" width="760px" height="880px" viewBox="614 10 760 880">
<defs>


<g id="Symbol_13_0_Layer0_0_FILL">
<path fill="#a6ce38" stroke="none" d="
M 678.4 334.85
Q 676.6 333.65 674.8 332.4 673 331.2 671.25 329.95 666.15 326.35 661.35 322.65 656.5 318.95 652.1 315.1 663 334.95 675.95 353 688.85 371 698.6 383.15 703.45 389.3 708.55 395.05 713.6 400.8 718.85 406.15 714.65 407.95 711.6 411.2 708.5 414.4 706.2 418.65 705.4 420.15 704.7 421.7 704.05 423.2 703.5 424.75 704.3 428.95 705.7 432.95 707.1 436.95 709 440.8 712.35 447.4 716.8 453.35 721.25 459.3 726.25 464.5 729.85 468.25 733.75 471.9 737.65 475.55 741.85 479.15 745.1 481.95 748.45 484.65 751.85 487.35 755.3 490.05 763.05 495.95 771.15 501.6 779.2 507.3 787.4 512.7
L 787.7 512.9 787.9 513
Q 788 513.05 788.1 513.15 788.95 513.7 789.8 514.25
L 791.5 515.4
Q 795.25 517.85 798.95 520.25 802.65 522.6 806.3 524.95
L 815.15 530.6
Q 819.5 533.4 823.7 536.1 825.5 537.25 827.3 538.4 829.05 539.5 830.85 540.6 834.1 542.65 837.35 544.65 840.55 546.6 843.8 548.5 867.3 562.45 890.95 573.5 914.55 584.55 938.95 593.15 939.3 593.25 939.7 593.4 940.05 593.5 940.45 593.65 942.55 594.4 944.7 595.1 946.85 595.85 949 596.55 949.5 595.6 950.1 594.7 950.65 593.8 951.2 592.85 956.5 584.25 962.7 575.7 968.9 567.2 975.85 558.85 987.8 544.5 1001.25 531.15 1014.7 517.85 1028.85 506.15
L 1028.75 506.15 1028.55 506.05 1027.9 505.9
Q 1027.6 505.8 1027.25 505.75 1025.1 505.15 1022.95 504.55 1020.75 503.95 1018.6 503.3 1005.8 499.65 993.2 495.45 980.6 491.25 968.15 486.6 960.95 486.5 953.85 486.35 946.75 486.25 939.9 486.15 933.1 485.85 931.3 482.95 929.5 480 932.5 477.55 926.5 476.25 917.7 474 908.9 471.75 901.75 469.2
L 896.1 466.7 893.45 464.3
Q 893 462.8 893.1 461.75 893.2 460.7 893.8 460 884.75 454.95 875.6 449.7 866.4 444.45 857.2 439.35 847.65 434.1 838.35 428.5 829.05 422.9 819.9 417.15 817.95 416.85 816.05 416 814.1 415.15 812.75 414.3 805.55 409.75 798.25 405.25 790.9 400.8 783.5 396.3 781.75 396.5 779.75 395.6 777.7 394.7 775.65 393.35 765.6 387.05 755.1 380.55 744.65 374 734.2 367.25 726.05 362.9 717.65 358.25 709.25 353.65 700.8 348.7 700.65 348.65 700.5 348.55 700.3 348.45 700.15 348.35 694.6 345.1 689.15 341.75 683.7 338.35 678.4 334.85
M 683.45 168.3
Q 681 166.95 678 166.05 674.95 165.1 672.1 165.55 671.5 165.4 670.75 165.45
L 669.8 165.55
Q 656.9 167.15 653.05 174.8 649.2 182.4 651.25 193.05 653.35 203.75 658.25 214.6 659.4 220.2 661.75 226.4 664.05 232.65 667.2 239.05 659.35 234.45 650.4 233.95 641.5 233.45 636.8 243.55
L 636.65 244.1
Q 636.5 244.6 636.3 245 635.95 246.1 635.65 247.5
L 635.3 249.2
Q 634.05 256.45 634.7 264.3 635.35 272.2 637.75 279.4 638.3 281.75 638.95 284.15 639.65 286.55 640.45 289
L 643 290.7
Q 644.3 291.6 645.55 292.45 647.45 293.75 649.4 295.05
L 654.45 298.5
Q 656.7 300 658.95 301.55
L 663.5 304.6
Q 667.3 307.15 671.1 309.7 674.9 312.25 678.7 314.8
L 678.7 314.85 683.85 318.25
Q 688.65 321.5 693.5 324.7 698.35 327.9 703.15 331.1 714.4 338.5 725.7 345.85 736.95 353.15 748.3 360.3 753.15 362.95 757.8 365.65 762.45 368.35 766.85 371.1 777.3 377.5 788.3 383.8 799.3 390.05 809.05 397 809.4 397.25 809.7 397.5
L 810.4 398
Q 814 400.1 817.65 402.15 821.25 404.2 824.9 406.25 837.25 412.95 849.6 419.45 862 426 874.35 432.3 901.7 446.3 928.6 456.7 955.45 467.1 983.6 475.45 985.9 475.35 988.2 475.3 990.5 475.25 992.85 475.15 985.25 469.6 977.75 464 970.3 458.4 962.95 452.7 900.7 404.65 846.3 352.6 791.9 300.55 744.95 245.5 732.85 231.3 721.2 217 709.6 202.65 698.45 188.15 694.65 183.2 690.9 178.25 687.15 173.3 683.45 168.3 Z"/>
</g>

<g id="Symbol_14_0_Layer0_0_FILL">
<path fill="#a6ce38" stroke="none" d="
M 1347.85 394.9
L 1345.5 392.95 1339.25 392.85
Q 1331.95 395.05 1324.95 397.05 1317.95 399.05 1311.6 400.4 1311.3 400.45 1311.05 400.5 1310.75 400.55 1310.45 400.6 1228.85 423 1141.25 431.85 1053.65 440.7 962.85 439.65 922.1 441.25 881.05 441.2 840 441.15 799 438.95 792.9 438.6 786.85 438.25 780.75 437.85 774.7 437.4 772.15 437.2 769.55 437 766.95 436.8 764.35 436.6 756.4 435.95 748.25 435.2 740.1 434.4 731.85 433.45 729.25 433.95 726.35 435.1 723.45 436.25 722.1 438.35 721.6 438.55 721.25 439
L 720.8 439.6
Q 715.05 447.65 719.5 454.25 723.9 460.85 734.3 466 744.65 471.15 756.7 474.85 762.2 477.55 768.9 479.95 775.6 482.35 782.9 484.45 781.55 484.95 779.75 485.75 778 486.55 776.6 487.45 775.6 488.05 774.65 488.6 773.75 489.2 772.85 489.8 772.75 490.05 772.45 490.2
L 772.1 490.4
Q 766.5 496.55 771.2 502.95 775.9 509.4 785.85 515.05 800.5 526.25 826.15 533.7 851.85 541.2 878.8 545.6 905.8 550 924.3 552.05 932.35 553 940.1 553.6 947.85 554.2 955.35 554.5 954.65 557.85 955.7 561.45 956.8 565.05 959.2 568.85 960.05 570.25 961.1 571.6 962.1 572.95 963.2 574.25 975.85 583.95 994.1 588.45 1012.3 592.95 1031.6 594.55 1050.95 596.15 1066.9 597.15 1066.9 598.4 1067.35 599.6 1067.85 600.8 1068.35 601.65 1077 614.15 1091.65 619.05 1106.3 623.95 1121.9 624.3 1139.05 625.05 1157.6 623.55 1176.1 622.05 1195.1 618.75 1198.75 617.4 1202.4 616.1 1206 614.75 1209.65 613.4 1222.3 608.6 1234.75 603.65 1247.15 598.7 1259.3 593.7 1264.35 591.6 1269.35 589.5 1274.35 587.45 1279.3 585.35 1280.9 584.7 1282.45 584.05 1284 583.35 1285.6 582.7 1290.1 580.75 1294.65 578.65 1299.2 576.6 1303.75 574.45 1314.25 569.5 1324.5 564.1 1334.75 558.7 1344.55 552.9 1345.95 552.1 1347.25 551.25 1348.6 550.45 1349.95 549.65 1350.1 549.55 1350.25 549.45
L 1350.55 549.25
Q 1350.5 549.1 1350.45 548.95 1350.4 548.8 1350.3 548.7 1350.15 548.6 1349.95 548.5 1349.8 548.4 1349.6 548.35 1348.35 544.2 1347 540.3 1345.65 536.4 1345.25 534.85 1337.45 506.15 1326.7 477.65 1315.95 449.15 1307.2 420.35 1307.05 419.85 1306.85 418.8 1306.65 417.75 1306.25 416.4 1315.1 413.45 1323.15 410.15 1331.2 406.8 1338.35 403.15
L 1345.7 398.45 1347.85 394.9
M 796.3 497.5
L 795.8 497.2
Q 795.6 497.05 795.35 496.9 795.4 496.7 795.45 496.55 795.5 496.35 795.55 496.15 795.75 496.5 795.9 496.85 796.1 497.15 796.3 497.5
M 776.95 502.4
Q 777 502.55 777 502.7 775.95 501.7 775.2 500.65 774.45 499.65 774.05 498.6 774.65 499.5 775.35 500.35 776.1 501.2 776.85 502.05 776.9 502.2 776.95 502.4 Z"/>
</g>

<g id="Symbol_7_0_Layer0_0_FILL">
<path fill="#a6ce38" stroke="none" d="
M 793 728.5
L 804.5 735.2
Q 815.8 741.55 835.15 750 854.5 758.4 879 765
L 889.25 742.3
Q 898.45 720.9 910.3 692.8 922.15 664.75 931.1 643.45
L 940.5 621 915.1 609.95 793 728.5 Z"/>
</g>

<g id="Symbol_15_0_Layer0_0_FILL">
<path fill="#a6ce38" stroke="none" d="
M 1126.45 316.6
L 1108 333.45
Q 1093.35 347.55 1074.65 365.7 1056 383.85 1040.2 398.95
L 1018.5 418.75 1010.45 429.15 997.7 449.75
Q 982.6 475.4 962.3 507.95 942.05 540.45 920.75 566.3 899.45 592.15 881.3 597.75 863.35 603.05 853.05 615.55 842.7 628.1 842.45 638.5 842.15 648.9 854.3 647.7
L 870.15 641.3 880.85 634.15 893.4 624.35
Q 908.15 613 945.6 597.6 983 582.25 1025.7 564.65 1068.35 547 1098.8 528.8 1146.3 499.3 1173.75 473.9 1201.2 448.5 1215.35 422.2 1229.5 395.85 1237.1 363.6 1242.2 339.45 1227.85 327.85 1213.45 316.3 1191.05 313.4 1168.6 310.5 1149.6 312.3
L 1134.3 314.25 1126.45 316.6 Z"/>
</g>

<g id="Symbol_8_0_Layer0_0_FILL">
<path fill="#a6ce38" stroke="none" d="
M 1037.75 310.3
Q 1009.25 300.8 986.6 302.35 963.9 303.9 957.85 315.55 952.7 327.45 948.8 344.7 944.85 362 941.6 380.45 938.35 398.9 935.2 414.45 934.25 425.55 959.65 428.65 985.05 431.8 1019.6 430.35 1054.15 428.9 1080.75 426.35
L 1108.75 423.5 1103.9 402.35
Q 1099.35 382.75 1094.8 363
L 1089.75 341.35
Q 1066.25 319.8 1037.75 310.3 Z"/>
</g>

<g id="Symbol_9_0_Layer0_0_FILL">
<path fill="#a6ce38" stroke="none" d="
M 1012.35 269.55
Q 997.1 271.3 987.9 276.75 978.7 282.25 974.4 287.2 970.05 291.85 964.65 301 959.25 310.15 954.8 320.5 950.35 330.85 948.9 338.95 948 346.8 957.15 356.25 966.25 365.75 981.25 373.2 996.2 380.65 1012.8 382.4 1029.5 383.65 1046.8 379.85 1064.15 376 1077 369.5 1089.85 363 1093.1 356.25 1093 348.8 1088.15 331 1083.35 313.25 1073.85 296.25 1064.3 279.25 1050.15 274.15 1027.6 267.85 1012.35 269.55 Z"/>
</g>

<g id="Symbol_10_0_Layer0_0_FILL">
<path fill="#a6ce38" stroke="none" d="
M 1099.4 333.3
Q 1110.85 323.1 1118.6 311
L 1115.05 308.9 1104.95 304.7
Q 1091.55 299.45 1068.2 297.6
L 1071.15 308.1
Q 1074.2 317.9 1077.85 329.4 1081.5 340.9 1083.4 346.7
L 1099.4 333.3 Z"/>
</g>

<g id="Symbol_11_0_Layer0_0_FILL">
<path fill="#0083CB" stroke="none" d="
M 1035.4 302.25
L 1033.5 301.25 1031.5 300.65 1029.35 300.45 1027.25 300.65 1025.25 301.25 1023.35 302.25 1021.75 303.6 1020.4 305.25 1019.4 307.1 1018.75 309.15 1018.55 311.25 1018.75 313.35 1019.4 315.4 1020.4 317.25 1021.75 318.9 1023.35 320.25 1025.25 321.25 1027.25 321.85 1029.35 322.05 1031.5 321.85 1033.5 321.25 1035.4 320.25 1037 318.9 1038.35 317.25 1039.35 315.4 1040 313.35 1040.2 311.25 1040 309.15 1039.35 307.1 1038.35 305.25 1037 303.6 1035.4 302.25 Z"/>
</g>

<g id="Symbol_12_0_Layer0_0_FILL">
<path fill="#a6ce38" stroke="none" d="
M 1040.4 290.7
Q 1036.7 285.45 1029.15 285.1 1020.3 285.55 1015.95 292.1 1011.65 298.6 1010.8 306.75
L 1046.25 307 1045.2 301.3
Q 1044.1 296 1040.4 290.7 Z"/>
</g>

<g id="Symbol_30_0_Layer0_0_FILL">
<path fill="#FFFFFF" stroke="none" d="
M 1346.35 244.85
L 1347.9 234.65 1348.65 231.7 1346.75 232.3 1338.85 237.7
Q 1328 245.45 1309.65 257.65 1291.3 269.85 1269.8 281.4 1248.3 292.9 1228.05 298.6 1201.85 305.35 1183.75 304.2 1165.65 303.05 1152.5 297.45 1139.35 291.8 1128.05 285.15 1120.65 280.9 1112.1 272.45 1103.6 264 1095.5 254 1087.35 244 1081.2 235.1 1075.05 226.25 1072.35 221.15
L 1060.05 382.3
Q 1063.15 383.5 1067.75 386.45 1072.3 389.4 1077.85 393.55 1083.35 397.7 1089.35 402.4 1111.7 420.3 1131.35 430.65 1151.05 441.05 1171.25 444.85 1191.45 448.7 1215.45 446.9 1234.1 445.2 1250.6 433.65 1267.1 422.15 1280.9 405.75 1294.7 389.4 1305.3 373.15 1315.9 356.95 1322.8 345.9 1328.25 336.7 1332.85 317.95 1337.45 299.2 1340.9 278.95 1344.3 258.65 1346.35 244.85 Z"/>
</g>

<g id="Symbol_43_0_Layer0_0_FILL">
<path fill="#0081c6" stroke="none" d="
M 1013.75 218.25
Q 1013.1 218.25 1012.5 218.2 1011.7 218.1 1010.9 217.95 1010.1 217.8 1009.3 217.6 1007.9 217.3 1006.55 217.3 1005.15 217.35 1003.7 217.25
L 1003.3 217.25 1002.5 217.15
Q 1001.6 217.05 1000.8 216.95 1000.8 217.35 1000.8 217.85
L 1000.85 218.4
Q 1001 221.65 1001.15 224.9 1001.3 228.2 1001.25 231.45 1001.2 236.15 1001.75 241 1002.3 245.85 1002.75 250.6 1003.7 263.1 1004.4 275.65 1005.1 288.2 1006.05 300.7 1007.15 315.5 1007.7 330.3 1008.2 345.1 1008.85 359.95 1009.45 374.75 1010.7 389.5 1010.95 392.35 1011.25 395.65 1011.6 398.9 1012.45 401.6 1012.6 401.95 1012.7 402.25 1012.85 402.6 1012.95 402.9
L 1013.5 403.85
Q 1013.9 404.55 1014.3 405.1 1014.7 405.6 1015.35 405.9 1016 406.2 1016.55 406.05 1017.55 405.65 1017.85 404.75 1018.15 403.9 1018.15 402.85 1018.15 401.85 1018.15 400.95 1018.4 387.45 1018.15 373.9 1017.9 360.35 1017.5 346.9 1017.25 340.45 1017.25 334.15 1017.2 327.85 1017.6 321.4 1017.95 316.5 1018.45 311.6 1018.95 306.7 1019.5 301.85
L 1019.65 300.5
Q 1019.8 299.5 1019.9 298.6 1019.9 299.05 1019.95 299.55
L 1019.95 300.2
Q 1020.15 305.1 1020.6 309.9 1021.05 314.75 1021.2 319.7 1021.3 326.05 1021.3 332.5 1021.35 338.9 1021.8 345.3 1022.25 351.7 1023.65 357.95 1024.05 359.65 1024.3 361.05 1024.55 362.4 1024.55 364.2 1024.55 365.6 1024.5 367.1 1024.5 368.6 1024.8 370
L 1025.1 371.25 1025.45 371.85 1025.8 371.75 1026.15 370.9
Q 1026.15 371.3 1026.2 371.8
L 1026.2 372.45
Q 1026.35 379 1026.4 385.4 1026.5 391.8 1026.95 398.35 1027.1 400.7 1027.3 403.1 1027.45 405.5 1028.35 407.7
L 1028.7 408.35
Q 1028.95 408.8 1029.25 409.15 1029.7 408.85 1030.15 408.45
L 1030.65 407.85
Q 1031.85 406.1 1032 403.5 1032.1 400.9 1031.75 398.2 1031.4 395.5 1031.25 393.5 1030.9 388.25 1030.9 382.85 1030.9 377.5 1030.85 372.2 1030.65 359.2 1030.1 346.25 1029.6 333.3 1028.4 320.35 1028.2 317.95 1027.9 315.6 1027.65 313.2 1027.5 310.8 1026.95 302.55 1026.4 294.35 1025.8 286.15 1025.35 277.9 1024.65 266.5 1023.55 255.05 1022.4 243.55 1021.2 232.2 1020.95 229.9 1020.65 227.6 1020.35 225.3 1020 223 1019.95 222.3 1019.8 221.4 1019.7 220.55 1019.35 219.9
L 1019.1 219.55 1018.9 219.45 1018.2 219.3
Q 1017.4 219.05 1016.6 218.8 1015.8 218.5 1015 218.35 1014.4 218.25 1013.75 218.25 Z"/>
</g>

<g id="Symbol_44_0_Layer0_0_FILL">
<path fill="#FFFFFF" stroke="none" d="
M 1015.05 223.8
L 1014.35 223.9
Q 1012.65 224.1 1010.95 224.3 1009.25 224.55 1007.55 224.75 1007.1 224.8 1006.7 224.85
L 1004.8 225.05
Q 1004 225.15 1003.3 225.25 1003.3 225.7 1003.35 226.3
L 1003.4 227
Q 1006.85 277.7 1009.7 328.5 1012.5 379.35 1014.1 430.2 1015.7 481.05 1015.55 531.9 1015.3 583.15 1012.75 634.4 1010.15 685.6 1006.1 736.65 1004.65 755.1 1003.2 773.55 1001.8 792 1000.4 810.45
L 1000.3 811.75
Q 1000.2 812.8 1000.15 813.65 1000.1 814.1 1000.05 814.6
L 1000.05 815 1000 815.25
Q 999.95 816.05 999.9 816.85 999.8 817.65 999.75 818.45 999.75 818.85 999.7 819.3 999.65 819.75 999.65 820.15
L 999.55 821.4
Q 999.45 822.35 999.4 823.15 999.85 823.15 1000.4 823.15
L 1000.85 823.15 1001.05 823.1
Q 1004.4 823 1007.75 822.95 1011.1 822.85 1014.45 822.75 1014.85 822.75 1015.3 822.8 1015.75 822.8 1016.1 822.75
L 1016.6 822.65 1016.85 822.65 1016.9 822.7 1016.9 822.45 1017 821.85
Q 1017.3 820.45 1017.35 818.55 1017.4 816.65 1017.5 815.15 1020.95 767.75 1024.1 720.3 1027.2 672.9 1029.15 625.35 1031.6 559.9 1030.35 494.5 1029.1 429.1 1025.4 363.75 1021.7 298.4 1016.75 233.1 1016.65 231.4 1016.5 229.7 1016.4 227.95 1016.25 226.25
L 1016.2 225.2
Q 1016.1 224.4 1016.05 223.7 1015.6 223.75 1015.05 223.8 Z"/>
</g>

<g id="Symbol_21_0_Layer0_0_FILL">
<path fill="#FFFFFF" stroke="none" d="
M 1093.3 494.05
Q 1082.65 480.05 1069.2 466.9 1055.75 453.75 1042 445.7 1028.3 437.65 1016.75 438.9 1002.5 441.1 995.35 447.25 988.15 453.4 985.75 461.55 983.35 469.7 983.55 478 983.7 486.25 984.15 492.7
L 986.3 509.1 991.4 536.4
Q 998 569.15 1007.1 610.8 1016.2 652.4 1024.4 690.05 1032.6 727.7 1036.55 748.45
L 1039.1 750.6 1044.05 753.35
Q 1050.2 756.4 1059.35 758.85 1068.55 761.25 1079 761.2 1093.9 760.8 1102.45 758.3 1111.05 755.75 1114.65 753.05
L 1117.4 750.7 1118.35 749.2
Q 1128.35 700.1 1129.95 660.85 1131.55 621.65 1127.95 592.6 1124.4 563.55 1118.95 545 1113.45 526.45 1109.35 518.75 1103.95 508.05 1093.3 494.05 Z"/>
</g>

<g id="Symbol_19_0_Layer0_0_FILL">
<path fill="#FFFFFF" stroke="none" d="
M 656.95 766.95
L 648.9 766.15
Q 647.3 766.15 646.3 767.25 645.25 768.35 645.2 769.8 645.15 771.3 646.5 772.5
L 649.1 773.9 654.55 776.1
Q 661.45 778.7 672.95 780.7 684.4 782.7 699.15 781.9 713.85 781.15 730.65 775.45 742.3 771.1 752.6 762.8 762.95 754.5 770.9 745.45 778.9 736.4 783.5 729.9
L 788.3 722.65 787.25 721.25 784.35 718.45
Q 780.55 714.95 775.95 710.9 771.3 706.9 768.6 704.6 766.5 707.95 761.25 715.5 756 723 748.5 732 741.05 741.05 732.35 748.9 723.6 756.75 714.6 760.8 704.7 764.9 693.85 766.4 683 767.85 673.25 767.75 663.55 767.6 656.95 766.95 Z"/>
</g>

<g id="Symbol_50_0_Layer0_0_FILL">
<path fill="#0081c6" stroke="none" d="
M 990.1 184.1
L 989.25 183.7
Q 984.15 182 979.5 181.25 974.8 180.55 969.95 180.2 965.4 179.85 960.8 180.25 956.15 180.6 951.35 181.4 950.9 181.45 950.5 181.55 950.1 181.7 949.75 181.85 948.6 182.1 947.55 182.75
L 946.75 183.3 946.45 183.55
Q 943.75 185.7 941.35 188.3 939 190.85 936.65 193.4 932.75 197.55 929.1 201.85 925.5 206.15 921.9 210.45 920.85 211.8 921.2 213 921.6 214.2 922.85 214.4 924.1 214.55 925.65 212.95
L 926.4 212.1
Q 926.75 211.7 927.15 211.25 927.3 212.25 928.25 213.05 929.25 213.9 930.15 214.4 928.4 215 928.1 216.1 927.85 217.25 928.85 218.1 929.85 218.9 931.95 218.6 935.95 217.85 940 217.2 944.05 216.55 948.05 215.8 952.65 214.95 957.2 213.95 961.7 213 966.25 212 966.65 211.95 966.95 211.8 967.25 211.65 967.55 211.5 968 211.4 968.55 211.15 969.05 210.95 969.65 210.5 972.35 208.7 975.1 206.55 977.85 204.35 980.35 202.15 983.75 199.15 986.7 195.8 989.65 192.5 992.85 189.25 993.8 188.3 993.85 187.25 993.9 186.15 992.7 185.3
L 992.25 185.15 991.7 184.8
Q 991.45 184.65 991.3 184.6 990.75 184.4 990.1 184.1 Z"/>
</g>

<g id="Symbol_51_0_Layer0_0_FILL">
<path fill="#FFFFFF" stroke="none" d="
M 985.85 192.35
L 988.05 188.95 988.85 186.9
Q 984.8 184.8 978.9 183.9 972.95 183.05 966.7 183.05 960.45 183.1 955.45 183.75 950.4 184.4 948.15 185.35 946.3 186.4 942.55 190.3 938.8 194.2 934.75 198.95 930.65 203.7 927.75 207.15
L 924.7 210.8 926.7 212.15
Q 928.55 213.35 930.55 214.55
L 932.15 215.45 933 215.75
Q 944.4 213.9 951.85 212.6 959.25 211.3 963.9 210 968.55 208.75 971.65 207 975 204.95 979 200.7 982.95 196.4 985.85 192.35 Z"/>
</g>

<g id="Symbol_35_0_Layer0_0_FILL">
<path fill="#FFFFFF" stroke="none" d="
M 743.95 723.9
L 746.1 751.05
Q 748.15 776.85 750.85 810.8 753.5 844.75 755.6 870.6
L 757.8 897.9
Q 761.75 905.15 778.45 908.7 795.15 912.25 816.35 912.15 837.6 912 855.15 908.2 872.75 904.4 878.45 896.95
L 881.8 873.6
Q 884.9 851.45 888.95 822.35 893.05 793.25 896.15 771.1
L 899.5 747.65
Q 889.65 737.65 870.6 730.3 851.55 722.95 828.35 719.25 805.1 715.55 782.75 716.45 760.4 717.35 743.95 723.9 Z"/>
</g>

<g id="Symbol_22_0_Layer0_0_FILL">
<path fill="#0083CB" stroke="none" d="
M 943.65 840.8
Q 942.6 838.75 942.2 837.35 941.45 834.6 941.05 831.85 940.7 829.05 940.15 826.35
L 939.65 824.85 939.1 824.45
Q 938.5 824.55 938.05 825.8 937.65 827 937.65 828.25 937.8 831.4 938.75 835.75 939.7 840.1 941.85 843.7 943.95 847.3 947.65 848.15 951.1 848.6 953.45 845.55 955.8 842.55 957.1 838.5 958.4 834.45 958.75 831.75 958.9 830.75 958.95 828.85 959 826.95 958.7 825.25 958.4 823.5 957.45 822.95
L 957.25 822.9
Q 957.1 822.9 957.05 822.95 956.7 823.3 956.6 823.8
L 956.45 824.5
Q 956.2 826.4 956.15 828.4 956.15 830.4 955.8 832.35 955.5 834.05 954.65 836.85 953.8 839.65 952.5 842.15 951.2 844.6 949.5 845.25 947.75 845.7 946.2 844.3 944.7 842.85 943.65 840.8 Z"/>
</g>

<g id="Symbol_36_0_Layer0_0_FILL">
<path fill="#FFFFFF" stroke="none" d="
M 803.6 759.1
L 808.35 780.8
Q 812.85 801.4 818.85 828.5 824.8 855.6 829.4 876.25
L 834.3 898
Q 840.35 902.2 856.75 905.3 873.15 908.4 893 909.25 912.85 910.15 929.4 907.7 945.9 905.2 952.25 898.3 954.3 870 953.6 841.45 952.95 812.85 951.05 788.8 949.1 764.75 947.4 750.05
L 945.7 734.75
Q 926.55 729.2 908.35 729.4 890.1 729.55 872.55 733.8 855 738.05 837.8 744.8 820.65 751.55 803.6 759.1 Z"/>
</g>

<g id="Symbol_23_0_Layer0_0_FILL">
<path fill="#0083CB" stroke="none" d="
M 943.35 838.65
Q 942.15 836.05 941.4 832.95 940.6 829.9 939.6 827.1
L 939.2 826.4 938.9 826.25
Q 938.6 826.4 938.45 827.1 938.3 827.8 938.3 828.5 938.5 831.6 939.5 835.45 940.5 839.25 942.25 842.4 943.95 845.55 946.3 846.7 950.3 848.25 953.15 845.6 956 842.95 957.6 838.15 959.2 833.4 959.35 828.65 959.35 827.95 959.35 826.95 959.3 825.95 959.1 825.15 958.85 824.4 958.4 824.45 958.25 824.75 958.1 825.1
L 957.95 825.6
Q 957.35 827.6 957.1 829.8 956.8 831.95 956.3 834.1 955.15 838.55 953 841.25 950.85 843.95 948.25 843.6 945.7 843.25 943.35 838.65 Z"/>
</g>

<g id="Symbol_45_0_Layer0_0_FILL">
<path fill="#0081c6" stroke="none" d="
M 945.25 654.15
Q 938.05 671.65 932.85 689.8 927.7 707.95 924.55 728.45 922.65 740.05 921.65 750.6 920.65 761.15 921.7 771.85 922.75 782.55 926.95 794.65
L 927.6 796.35
Q 928.05 797.6 928.6 799.15 929.2 800.7 929.7 802.1 928.65 802.55 927.65 803 926.65 803.45 925.65 803.9
L 923.8 804.7
Q 922.35 805.35 921.3 806 923 806.2 925.15 805.75 927.35 805.25 929.15 804.65
L 931.6 803.85
Q 959.2 796.3 983.75 787.9 1008.3 779.45 1028.7 767.25 1049.1 755 1064.25 735.95 1079.35 716.95 1088.1 688.1 1094.75 666.05 1097.1 643.45 1099.45 620.8 1096.15 597.9 1092.85 575 1082.55 552.15 1077.6 541.1 1072.35 530.15 1067.1 519.15 1060.95 508.8 1069.7 503.3 1079.1 498.8 1088.5 494.35 1098.65 491.15 1099.15 491 1100.35 490.65 1101.55 490.25 1102.75 489.65 1103.95 489 1104.4 488 1103.1 487.45 1101.8 487.65 1100.5 487.85 1099.2 487.9 1097.6 488.15 1095.7 488.6 1093.8 489.05 1092.25 489.45
L 1090.25 490
Q 1082.15 492.75 1074.3 496.6 1066.4 500.45 1058.8 505.3
L 1058.8 505.25 1058.3 504.4
Q 1057.9 503.7 1057.3 503.3 1057.1 503.1 1056.9 503.05 1056.65 503 1056.45 503.05 1056.7 503.7 1057 504.4 1057.35 505.15 1057.7 505.95 1036.95 519.55 1018.8 538.3 1000.65 557.05 986.15 577.8 971.65 598.6 961.85 618.25 952.5 636.7 945.25 654.15
M 756.7 628.45
L 756.55 627.25
Q 756.45 626.35 755.95 625.65 755.85 625.5 755.85 625.35 755.85 625.2 755.8 625.05 755.55 625.8 755.9 627.65 756.25 629.45 756.65 631.1
L 757.15 632.9
Q 757.5 634.65 757.8 636.45 758.1 638.2 758.35 639.95 758.2 639.85 758.1 639.8 757.95 639.7 757.85 639.6 757.1 639.25 756.2 639.3 755.25 639.4 755.2 640.35 755.55 641.15 756.05 642 756.6 642.85 757.25 643.75 757.25 645.25 757.45 646.65
L 757.7 648.5
Q 758.2 652.7 758.8 656.4 759.45 660.1 759.65 664.25 759.7 665.1 759.75 667.4 759.75 669.7 759.9 672.1 760.05 674.5 760.35 675.75 760.4 677 760.45 678
L 760.5 679.3
Q 761.1 688.1 760.3 696.45 759.55 704.85 758.4 713.1 757.95 715.6 757.6 718.15 757.3 720.75 757.3 723.65 756.65 730.9 757.05 738.3 757.4 745.75 759.5 753.55 759.8 754.65 760.65 756.8 761.55 759 762.8 761.7 765.45 769.1 770.1 775.65 774.75 782.25 781.2 787.35 781.55 787.65 782.35 788.25 783.15 788.85 784.15 789.35 785.15 789.85 786.1 789.85 785.65 788.8 784.65 787.7 783.65 786.55 782.75 785.65
L 781.45 784.45
Q 780.5 783.5 779.65 782.5 778.75 781.55 777.95 780.65 779.15 779.65 780.5 778.15 781.8 776.6 782.85 775.3 783.9 773.95 784.3 773.4 790.35 764.65 794.05 758.7 797.7 752.8 799.35 747.3 801 741.8 800.95 734.45 800.95 727.1 799.7 715.5 798.5 702.9 795.7 692.8 792.9 682.7 787.55 673.55 782.15 664.45 773.25 654.7 769.9 651.05 766.5 647.45 763.05 643.85 759.5 640.55
L 759.4 640.5
Q 758.65 637.3 757.95 634.25 757.25 631.15 756.7 628.45 Z"/>
</g>

<g id="Symbol_46_0_Layer0_0_FILL">
<path fill="#FFFFFF" stroke="none" d="
M 747.9 407.05
L 739.8 408.1
Q 732.15 409.3 722.65 413.8 713.1 418.3 707.05 428 701 437.75 703.7 454.65 705.35 463 710.6 480.55 715.85 498.1 723.1 520.45 730.3 542.8 737.95 565.55 745.6 588.35 752 607.25 753.65 612.25 755.75 622.7 757.8 633.2 759.75 646.25 761.65 659.35 762.8 672.15 763.95 684.95 763.75 694.7 763.5 700.8 762.5 710.35 761.45 719.85 760.95 731.25 760.4 742.65 761.65 754.35 762.85 766.05 767 776.5 773.7 790.5 797.1 795.9 820.55 801.3 851.25 800.85 882 800.4 910.65 796.85 939.3 793.3 956.55 789.4 975.35 785.35 995.15 777.45 1014.9 769.5 1032.6 756.85 1050.25 744.2 1062.75 725.85 1076.85 704.4 1084.5 678.55 1092.1 652.7 1092.8 625.3 1093.5 597.85 1086.8 571.7 1080.45 548.35 1069.45 527.15 1058.4 505.95 1046.7 489.2 1034.95 472.5 1026.45 462.55
L 1016.7 451.65 973.65 443.8
Q 933.6 437.1 881.35 428.6 829.1 420.1 789.55 413.75
L 747.9 407.05 Z"/>
</g>

<g id="Symbol_39_0_Layer0_0_FILL">
<path fill="#0081c6" stroke="none" d="
M 1162.4 196.4
Q 1160.05 195.8 1157.25 196.45 1157 196.5 1156.4 196.65 1155.75 196.75 1155.4 197.2 1154.05 198.2 1152.5 199.65 1150.95 201.15 1149.75 202.4
L 1148.3 204.1
Q 1142.75 212.75 1137.85 220.9 1132.95 229.1 1127.8 237 1126.15 238.8 1124.8 240.85 1123.4 242.9 1122.2 245.1 1119.5 248.8 1116.5 252.45 1113.5 256.15 1110.1 259.85 1105.6 264.9 1100.95 270.75 1096.25 276.6 1091.05 281.75
L 1090.35 282.2
Q 1090 282.4 1089.65 282.6
L 1089.4 282.7
Q 1085.2 284.95 1081.4 287.25 1077.65 289.55 1073.5 290.75 1069.35 291.95 1064 290.95 1060.45 290.15 1057.3 287.55 1054.2 284.95 1051.6 281.2 1049 277.45 1047.05 273.2 1047.05 272.45 1047.05 271.9 1047 271.3 1047 271.1 1046.65 267.95 1045.9 265 1045.15 262.05 1044.35 259.15 1044.05 256.2 1043.8 253.55 1043.55 250.85 1043.2 248.7 1042.9 246.95 1042.65 245.3 1042.4 243.7 1041.75 242.1 1041.2 240.4 1040.25 239 1039.25 237.55 1037.7 236.6 1037.45 236.35 1037.25 236.15 1037.05 236 1036.9 235.9 1033 233.75 1027.2 236 1021.4 238.2 1015.25 242.2 1009.15 246.2 1004.25 249.35 1003.2 249.85 1002.35 250.3
L 1001.2 250.95
Q 1000.95 251.05 1000.75 251.15 1000.55 251.25 1000.35 251.35 992.6 252 985.9 249.45 979.25 246.95 972.8 241.9 966.35 236.9 959.25 230.2 952.55 223.9 944.4 218.7 936.25 213.55 927.3 210.8 918.35 208.05 909.3 209.05 907.95 209.15 906.1 209.1 904.2 209.05 902.5 209.3 896.95 209.35 891.65 209.95 886.3 210.55 881.4 211.7 876.3 212.95 870.7 215.1 865.05 217.3 859.55 219.85 854.05 222.4 849.35 224.75 844.45 227.2 838.45 231.7 832.4 236.15 826.85 241.6 821.3 247.05 817.8 252.45 816.95 253.35 816.3 254.15 815.65 254.95 815.35 255.35 813.05 258.5 810.9 264.05 808.75 269.65 806.95 276.7 804.6 282.25 803.4 287.45 802.2 292.65 802.7 298.5 801.6 307.05 801.6 314.15 801.6 321.3 803 325.6 804.8 330.25 810.1 336.05 815.4 341.9 821.4 347.5 827.4 353.15 831.3 357.1 838.8 365.35 844 371.15 849.15 377 855.55 381.15 861.9 385.35 873.1 388.6 885.35 392.2 897.1 394.95 908.9 397.7 920.85 399.35 932.75 401 945.45 401.2 951.9 401.2 958.55 401.5 965.15 401.7 971.65 402.9 978.1 404.05 984.15 406.85 990.15 409.6 995.4 411.25 1000.65 412.9 1005.8 415.1 1011 417.35 1016.7 421.65 1018.7 423.2 1022.2 425.6 1025.65 428.05 1030 430.8 1034.3 433.6 1038.85 436.15 1033.6 441.15 1028.65 446.8 1023.7 452.5 1020.55 458.1 1017.4 463.7 1017.55 468.35 1017.6 468.95 1017.7 469.55 1017.8 470.15 1018 470.7 1018.35 471.5 1018.75 472.25 1019.15 473 1019.6 473.7 1019.8 474 1020.05 474.3 1020.3 474.55 1020.55 474.8
L 1020.25 474.75
Q 1020.55 475.25 1020.95 475.75 1021.3 476.25 1021.7 476.7 1028.55 477.6 1034.95 477.3 1041.3 477.05 1047.7 476 1054.1 475 1060.95 473.6 1067.25 472.9 1073.65 471.75 1080.1 470.55 1086.55 468.8 1087.5 468.6 1088.45 468.3 1089.45 468.05 1090.45 467.75 1107.7 462.8 1123.6 453.45 1139.5 444.15 1152 429.65 1164.5 415.15 1171.65 394.7 1172.8 391.4 1174.3 386.9 1175.85 382.35 1177.2 377.35 1178.6 372.35 1179.3 367.6 1181.35 357.8 1182.7 348 1184 338.2 1184.8 328.85 1185.45 321.75 1186.2 315.75 1187 309.75 1187.35 303.6 1187.75 297.5 1187.2 290.05 1186.65 281.75 1186.45 274.2 1186.2 266.65 1185.85 259.3 1185.5 251.95 1184.4 244.3 1184.05 240.25 1183.45 236.25 1182.8 232.3 1181.8 228.45 1180.65 224 1178.75 218.1 1176.85 212.25 1173.85 206.9 1170.9 201.5 1166.6 198.65 1164.75 197 1162.4 196.4
M 1021.75 240.95
L 1021.85 240.9 1021.85 240.95 1021.75 240.95
M 984.75 252.05
L 984.35 251.9 984.2 251.8
Q 984.3091796875 251.8697265625 984.4 251.9 984.6 251.95 984.75 252.05 Z"/>
</g>

<g id="Symbol_40_0_Layer0_0_FILL">
<path fill="#FFFFFF" stroke="none" d="
M 1122.8 255.7
Q 1110 273.4 1094.75 285.3 1079.5 297.2 1063.95 294.65 1055.65 292.65 1050.65 285.8 1045.7 279 1043.2 270.45 1040.75 261.95 1039.95 254.7 1039.2 247.5 1039.2 244.7 1039.1 241.9 1037.25 240.05 1035.45 238.2 1032.75 237.9 1030 237.6 1027.25 239.6 1022.9 242.9 1016.85 247 1010.75 251.05 1003.75 253.85 996.8 256.6 989.75 256.05 986.3 255.55 980.9 251.8 975.45 248.05 969 242.55 962.55 237.1 956.1 231.5 949.65 225.85 944.15 221.65 939.8 218.15 928.8 215.2 917.8 212.2 901.4 212.95 884.95 213.7 864.2 221.35 849.8 227.1 840.35 234.2 830.9 241.3 825.95 247.15
L 822 251.95 820.15 254.8
Q 816.25 262.3 810.05 279.1 803.9 295.9 797.55 314.65 791.2 333.4 786.9 346.75
L 782.4 360.7 784.7 367.7
Q 786.85 374.25 792.8 384.7 798.7 395.1 810.25 407.25 821.75 419.4 840.75 431.1 864.35 445.05 887.95 453.8 911.55 462.55 931.45 467.05 951.35 471.55 963.95 472.8 1002.1 476.9 1032.15 474.8 1062.15 472.75 1084.1 465.75 1106.05 458.75 1119.95 448.05 1138.6 433.8 1151.75 413.1 1164.95 392.4 1172.05 367 1179.15 341.65 1179.65 313.25 1180.05 279.35 1178 256.95 1175.95 234.6 1173.45 222.6
L 1170.05 207.8
Q 1168.55 202.4 1165.05 200.7 1161.55 199 1158.1 200.15 1154.65 201.3 1153.2 204.55
L 1143.75 223.05
Q 1135.55 238 1122.8 255.7 Z"/>
</g>

<g id="Symbol_47_0_Layer0_0_FILL">
<path fill="#0081c6" stroke="none" d="
M 883.35 162.25
Q 879 164.45 875.55 167.1 872.65 168.9 870.25 170.85 867.8 172.85 865.9 175.05 863.3 177.3 861.25 179.7 859.2 182.05 857.9 184.5 856.25 187.7 855.4 192.55 854.55 197.35 854.2 202.25 853.9 207.2 853.8 210.85 853.75 214.1 853.8 217.3 853.85 220.5 853.95 223.7 854.05 223.6 854.15 223.55
L 854.3 223.45 854.4 223.4
Q 854.7 223.2 855.05 223 855.4 222.8 855.75 222.65
L 856.1 222.45 855.9 222.8
Q 856.6 222.8 857.55 222.4 858.45 221.95 858.8 221.8 860.8 221 862.85 220.25 864.9 219.45 866.95 218.75
L 867.15 218.75 867.4 218.6
Q 872.15 216.9 877.05 215.65 881.95 214.35 886.9 213.6 886.8 213.8 886.8 214 886.75 214.2 886.85 214.4 887.25 214.45 887.75 214.15 888.25 213.85 888.75 213.4 888.9 213.35 889.1 213.35
L 889.45 213.3
Q 889.75 213.3 890.3 213.3 890.85 213.25 891.1 212.75 891.2 212.35 891 212.1 890.75 211.85 890.35 211.8
L 890.55 211.6
Q 893.55 208.75 896.2 204.9 898.85 201.1 900.05 197.05 902.1 193.65 903.25 189.4 904.35 185.15 904.8 180.75 905.45 177.55 905.8 173.9 906.1 170.25 905.95 166.75 905.8 163.3 905.05 160.65 904.9 160.1 904.55 159.3 904.25 158.5 903.85 158
L 903.6 157.7
Q 903.3 157.1 902.6 156.95 901.9 156.8 901.3 156.8
L 900.65 156.85
Q 896.8 157.25 892.25 158.65 887.75 160.05 883.35 162.25
M 898.8 157.7
L 898.75 157.7 899.05 157.65 898.8 157.7
M 888.1 212.1
L 888.45 211.95 888.35 212.05 888.1 212.1
M 864.9 176.8
Q 865.146875 176.5943359375 865.4 176.35
L 865.05 176.7
Q 864.85 176.9 864.65 177.1 864.55 177.15 864.5 177.25 864.4 177.3 864.3 177.35 864.6 177.1 864.9 176.8
M 860 182.4
L 860 182.55
Q 859.85 182.75 859.7 182.95 859.57890625 183.07109375 859.5 183.2 859.5974609375 183.02109375 859.7 182.85 859.85 182.65 860 182.4
M 898.9 197.25
L 899 196.95 899.05 197
Q 899 197.15 898.9 197.25
M 893.65 203
L 892.65 204.4
Q 892.4 204.75 892.8 204.7 892.4 205.3 891.9 205.85 891.35 206.45 890.65 207.05
L 890.25 207.45 889.55 208.3
Q 888.65 209.4 887.85 210.45
L 886.95 211.65 886.95 211.75
Q 887 211.85 887.05 211.95 887.2 212.05 887.35 212.15 887.4693359375 212.18984375 887.6 212.15 887.4177734375 212.2080078125 887.25 212.25
L 887 212.3
Q 884.1 212.8 880.85 213.55 877.6 214.3 874.25 215.25 874.5 215.15 874.65 215.1 874.75 215 874.85 215 876.9 213.95 878.4 212.65 879.9 211.3 882.05 210.2 883.95 209.3 886.45 208.25 888.9 207.2 890.6 206.2
L 891.2 205.75 891.2 205.45
Q 890.9 205.3 890.65 204.9 890.6 204.8 890.7 204.55 890.8 204.35 890.8 204.15 891.4 203.9 892.15 203.6 892.85 203.3 893.65 203
M 870.8 216.3
L 871.7 215.7 871.8 216 871.85 216 871.35 216.15
Q 871.1 216.2 870.8 216.3
M 854.4 213.2
L 854.45 213.3
Q 854.45 213.6779296875 854.4 214.1 854.4 213.65 854.4 213.2 Z"/>
</g>

<g id="Symbol_26_0_Layer0_0_FILL">
<path fill="#FFFFFF" stroke="none" d="
M 889.05 162.7
Q 882.2 166.25 875.95 171.05 869.7 175.8 865.25 180.35 860.8 184.9 859.45 187.7 858.55 190.25 858.1 197.25 857.65 204.25 857.5 212.35 857.35 220.4 857.35 226.25
L 857.35 232.35 860.15 232.1
Q 862.8 231.85 866.3 231.45 869.8 231.05 872.55 230.65
L 874.75 230.25 875.7 229.95
Q 884.4 218.9 889.6 211 894.75 203.05 897.2 197.95 899.6 192.85 900.1 190.3 900.55 188.15 901.15 183.4 901.8 178.65 902.25 173.2 902.7 167.75 902.75 163.55
L 902.55 160.15 902 158.35
Q 895.85 159.15 889.05 162.7 Z"/>
</g>

<g id="Symbol_48_0_Layer0_0_FILL">
<path fill="#0081c6" stroke="none" d="
M 968.5 520.65
L 967.8 522.15
Q 967.2 523.55 966.6 525.45 966.15 526.6 965.7 527.75 965.25 528.85 964.85 529.9 964.55 530.5 964.3 531.1 964.05 531.7 963.9 532.25 963.75 532.65 963.6 533 963.5 533.4 963.35 533.75 963.3 533.85 963.2 534.1 963.1 534.35 962.95 534.7 962.35 535.6 961.6 536.9 960.85 538.25 960.3 539.35 960.15 539.95 960.3 540.4 960.45 540.9 961 541.15 961.95 541.1 962.35 540.25 962.75 539.35 963 538.8
L 963.05 538.75
Q 963.45 539 963.55 538.75
L 963.75 538.3 964.25 537.65
Q 967.1 534.45 970.1 531.05 973.05 527.7 975.4 524.2 977.25 521.4 980.25 517.55 983.2 513.7 986.95 509.3 990.65 504.95 994.7 500.65 996 499.45 997.4 498.25 998.75 497.05 1000.25 495.8
L 1002.95 493.35
Q 1005.5 491.05 1009.05 488.35 1012.65 485.7 1015.95 484.3 1016.25 484.25 1016.6 484.1 1016.9 484 1017.25 483.9 1018.15 483.7 1018.9 483.7 1019.65 483.75 1020.25 484.05 1020.45 483.75 1020.55 483.45 1020.65 483.15 1020.6 482.85 1020.75 482.9 1020.85 482.95 1020.95 483.05 1021.05 483.1 1021.45 481.75 1020.5 480.95 1019.55 480.2 1018.15 480.2 1017.05 480.2 1015.75 480.55 1014.5 480.95 1013 481.6 1007.55 484 1001.6 488.55 995.65 493.1 989.8 498.85 984 504.6 979 510.5 978.95 510.25 978.9 510.05 978.8 509.85 978.7 509.7 978.55 509.7 978.35 509.85 978.2 510 978.15 510.05 980.25 503.95 983.15 497.9 986.05 491.8 990.65 485.6 991.25 484.85 991.9 484.05 992.55 483.25 993.25 482.45 994 481.65 995.65 479.85 997.3 478.05 998.75 476 1000.2 474 1000.25 472.5 999.9 472.2 999.4 472.45 998.9 472.7 998.6 472.95 991.65 477.6 985.75 486.4 979.9 495.2 975.45 504.6 971 514.05 968.5 520.65 Z"/>
</g>

<g id="Symbol_28_0_Layer0_0_FILL">
<path fill="#FFFFFF" stroke="none" d="
M 986.25 295.45
Q 983.9 288.7 978.35 283.8 972.85 278.85 963.05 277.05 953.1 275.55 946.15 278.6 939.15 281.7 934.5 287.45 929.85 293.25 927 299.8 924.15 306.3 922.45 311.7 931.35 312.7 942.55 314.6 953.75 316.45 965.55 318.7 977.3 320.9 987.9 323.05 988.85 316.6 988.7 309.4 988.55 302.15 986.25 295.45 Z"/>
</g>

<g id="Symbol_49_0_Layer0_0_FILL">
<path fill="#0081c6" stroke="none" d="
M 821.75 510.45
L 821.85 508.75 802.7 495.55 791.05 488.7 781.3 484 771.05 480.45 771 480.45 760.3 478.2 749.35 477.2 738.35 477.75 727.55 480.2 722.35 482.25 715.05 486.25 710.65 489.55 710.6 489.55 704.65 495.05 701.1 499.25 698.2 503.9 695.9 508.85 692.05 521.7 688.05 537.05 688.05 537.1 683.05 567.15 679.9 619.55 679.45 644.35 681.15 669.05 686.4 715.35 686.4 715.4 688.4 728.05 692.7 745.6 695.7 752.95 697.1 755.15 699.2 757.4 701.45 759.2 708.75 763.4 719 767.45 732.3 771 743.15 772.65 751.5 773.05 756.9 772.55 769.85 769.05 787 761.6 793.95 757.5 798.35 754.05 800.05 751.85 800.05 751.7 800.3 751.35 800.95 748.65 805.2 718.35 821.8 571.9 824.25 521.45 823.3 510.95 821.75 510.45 Z"/>
</g>

<g id="Symbol_29_0_Layer0_0_FILL">
<path fill="#FFFFFF" stroke="none" d="
M 820.1 480.65
Q 816.75 472.1 810.1 464.3 803.45 456.45 793.15 450.8 782.8 445.1 768.4 442.95 757.05 441.45 746.8 444.35 736.55 447.25 728.25 452.95 719.9 458.65 714.2 465.65 708.5 472.65 706.2 479.45
L 700.85 500 698.3 511.45
Q 692.95 536.55 688.9 574.55 684.9 612.55 686.5 658 688.1 703.45 699.6 750.9
L 701.15 752.75 705.4 756
Q 710.95 759.95 721.4 763.6 731.9 767.25 746.9 767.7 761.1 767.7 771.05 764.05 781.05 760.4 786.7 756.1
L 791.25 752.4 793.6 749.85
Q 796.85 728.7 802.05 691.45 807.2 654.15 812.4 613.25 817.6 572.3 820.9 540.15
L 823.3 513.3 823.85 497.05
Q 823.45 489.2 820.1 480.65 Z"/>
</g>
</defs>



<g transform="matrix( -0.141510009765625, 0.0138092041015625, -0.0081787109375, -0.1372833251953125, 1306.95,751.5) ">
<g transform="matrix( 1, 0, 0, 1, 0,0) ">
<use xlink:href="#Symbol_13_0_Layer0_0_FILL"/>
</g>
</g>

<g transform="matrix( -0.1226043701171875, -0.0640869140625, 0.0711212158203125, -0.1221923828125, 1291.9,830.4) ">
<g transform="matrix( 1, 0, 0, 1, 0,0) ">
<use xlink:href="#Symbol_14_0_Layer0_0_FILL"/>
</g>
</g>

<g transform="matrix( 0.0438690185546875, -0.1390838623046875, 0.151031494140625, 0.0561370849609375, 1055.4,781.8) ">
<g transform="matrix( 1, 0, 0, 1, 0,0) ">
<use xlink:href="#Symbol_7_0_Layer0_0_FILL"/>
</g>
</g>

<g transform="matrix( -0.0824432373046875, -0.127593994140625, 0.1346893310546875, -0.0857696533203125, 1209.35,868.85) ">
<g transform="matrix( 1, 0, 0, 1, 0,0) ">
<use xlink:href="#Symbol_15_0_Layer0_0_FILL"/>
</g>
</g>

<g transform="matrix( -0.0327301025390625, -0.0974884033203125, 0.1005096435546875, -0.0391998291015625, 1149.7,804.6) ">
<g transform="matrix( 1, 0, 0, 1, 0,0) ">
<use xlink:href="#Symbol_8_0_Layer0_0_FILL"/>
</g>
</g>

<g transform="matrix( -0.0327301025390625, -0.0974884033203125, 0.1005096435546875, -0.0391998291015625, 1149.7,804.6) ">
<g transform="matrix( 1, 0, 0, 1, 0,0) ">
<use xlink:href="#Symbol_9_0_Layer0_0_FILL"/>
</g>
</g>

<g transform="matrix( -0.09857177734375, -0.0312652587890625, 0.0381927490234375, -0.1003265380859375, 1238,756.75) ">
<g transform="matrix( 1, 0, 0, 1, 0,0) ">
<use xlink:href="#Symbol_10_0_Layer0_0_FILL"/>
</g>
</g>

<g transform="matrix( -0.0327301025390625, -0.0974884033203125, 0.1005096435546875, -0.0391998291015625, 1149.7,804.6) ">
<g transform="matrix( 1, 0, 0, 1, 0,0) ">
<use xlink:href="#Symbol_11_0_Layer0_0_FILL"/>
</g>
</g>

<g transform="matrix( -0.0327301025390625, -0.0974884033203125, 0.1005096435546875, -0.0391998291015625, 1149.7,804.6) ">
<g transform="matrix( 1, 0, 0, 1, 0,0) ">
<use xlink:href="#Symbol_12_0_Layer0_0_FILL"/>
</g>
</g>

<g transform="matrix( -0.17681884765625, -0.5127716064453125, -0.314849853515625, 0.4558868408203125, 975.85,832.75) ">
<g transform="matrix( 1, 0, 0, 1, 0,0) ">
<use xlink:href="#Symbol_30_0_Layer0_0_FILL"/>
</g>
</g>

<g transform="matrix( -0.784393310546875, -0.6463775634765625, 0.48687744140625, -0.4828643798828125, 1341.55,1229.7) ">
<g transform="matrix( 1, 0, 0, 1, 0,0) ">
<use xlink:href="#Symbol_43_0_Layer0_0_FILL"/>
</g>
</g>

<g transform="matrix( -0.784393310546875, -0.6463775634765625, 0.48687744140625, -0.4828643798828125, 1341.55,1229.7) ">
<g transform="matrix( 1, 0, 0, 1, 0,0) ">
<use xlink:href="#Symbol_44_0_Layer0_0_FILL"/>
</g>
</g>

<g transform="matrix( 0.357635498046875, -0.5635986328125, -0.5635986328125, -0.357635498046875, 806.85,1244.9) ">
<g transform="matrix( 1, 0, 0, 1, 0,0) ">
<use xlink:href="#Symbol_21_0_Layer0_0_FILL"/>
</g>
</g>

<g transform="matrix( 0.6586151123046875, -0.108642578125, 0.108642578125, 0.6586151123046875, 218.25,331.95) ">
<g transform="matrix( 1, 0, 0, 1, 0,0) ">
<use xlink:href="#Symbol_19_0_Layer0_0_FILL"/>
</g>
</g>

<g transform="matrix( 0.642913818359375, -0.2792510986328125, 0.275360107421875, 0.616058349609375, 200.2,553.15) ">
<g transform="matrix( 1, 0, 0, 1, 0,0) ">
<use xlink:href="#Symbol_50_0_Layer0_0_FILL"/>
</g>
</g>

<g transform="matrix( 0.642913818359375, -0.2792510986328125, 0.275360107421875, 0.616058349609375, 200.2,553.15) ">
<g transform="matrix( 1, 0, 0, 1, 0,0) ">
<use xlink:href="#Symbol_51_0_Layer0_0_FILL"/>
</g>
</g>

<g transform="matrix( 0.6650543212890625, 0.0626068115234375, -0.183319091796875, 0.6528472900390625, 436.1,241.85) ">
<g transform="matrix( 1, 0, 0, 1, 0,0) ">
<use xlink:href="#Symbol_35_0_Layer0_0_FILL"/>
</g>
</g>

<g transform="matrix( 0.6265869140625, 0.1470794677734375, -0.2672119140625, 0.6485137939453125, 481.1,171.55) ">
<g transform="matrix( 1, 0, 0, 1, 0,0) ">
<use xlink:href="#Symbol_22_0_Layer0_0_FILL"/>
</g>
</g>

<g transform="matrix( 0.6316070556640625, -0.0147705078125, 0.01220703125, 0.8111572265625, 396.55,164.2) ">
<g transform="matrix( 1, 0, 0, 1, 0,0) ">
<use xlink:href="#Symbol_36_0_Layer0_0_FILL"/>
</g>
</g>

<g transform="matrix( 0.6243133544921875, 0.15875244140625, -0.1462860107421875, 0.7563934326171875, 549.6,67.5) ">
<g transform="matrix( 1, 0, 0, 1, 0,0) ">
<use xlink:href="#Symbol_23_0_Layer0_0_FILL"/>
</g>
</g>

<g transform="matrix( 0.6772613525390625, -0.0095672607421875, -0.06298828125, 0.7234039306640625, 328.4,229.65) ">
<g transform="matrix( 1, 0, 0, 1, 0,0) ">
<use xlink:href="#Symbol_45_0_Layer0_0_FILL"/>
</g>
</g>

<g transform="matrix( 0.6772613525390625, -0.0095672607421875, -0.06298828125, 0.7234039306640625, 328.4,229.65) ">
<g transform="matrix( 1, 0, 0, 1, 0,0) ">
<use xlink:href="#Symbol_46_0_Layer0_0_FILL"/>
</g>
</g>

<g transform="matrix( 0.681488037109375, -0.1532135009765625, 0.115386962890625, 0.6535797119140625, 233.75,415.35) ">
<g transform="matrix( 1, 0, 0, 1, 0,0) ">
<use xlink:href="#Symbol_39_0_Layer0_0_FILL"/>
</g>
</g>

<g transform="matrix( 0.681488037109375, -0.1532135009765625, 0.115386962890625, 0.6535797119140625, 233.75,415.35) ">
<g transform="matrix( 1, 0, 0, 1, 0,0) ">
<use xlink:href="#Symbol_40_0_Layer0_0_FILL"/>
</g>
</g>

<g transform="matrix( 0.6084442138671875, -0.319976806640625, 0.3287200927734375, 0.601104736328125, 231.45,587.2) ">
<g transform="matrix( 1, 0, 0, 1, 0,0) ">
<use xlink:href="#Symbol_47_0_Layer0_0_FILL"/>
</g>
</g>

<g transform="matrix( 0.6084442138671875, -0.319976806640625, 0.3287200927734375, 0.601104736328125, 231.45,587.2) ">
<g transform="matrix( 1, 0, 0, 1, 0,0) ">
<use xlink:href="#Symbol_26_0_Layer0_0_FILL"/>
</g>
</g>

<g transform="matrix( -0.450408935546875, 0.3411407470703125, 0.2230224609375, 0.5481109619140625, 1254.2,-123.35) ">
<g transform="matrix( 1, 0, 0, 1, 0,0) ">
<use xlink:href="#Symbol_48_0_Layer0_0_FILL"/>
</g>
</g>

<g transform="matrix( 0.6818695068359375, -0.1517791748046875, 0.118255615234375, 0.664306640625, 197.25,393.9) ">
<g transform="matrix( 1, 0, 0, 1, 0,0) ">
<use xlink:href="#Symbol_28_0_Layer0_0_FILL"/>
</g>
</g>

<g transform="matrix( -0.6262664794921875, 0.396026611328125, -0.4108123779296875, -0.6341552734375, 1508.35,563.5) ">
<g transform="matrix( 1, 0, 0, 1, 0,0) ">
<use xlink:href="#Symbol_49_0_Layer0_0_FILL"/>
</g>
</g>

<g transform="matrix( -0.6262664794921875, 0.396026611328125, -0.4108123779296875, -0.6341552734375, 1508.35,563.5) ">
<g transform="matrix( 1, 0, 0, 1, 0,0) ">
<use xlink:href="#Symbol_29_0_Layer0_0_FILL"/>
</g>
</g>
</svg>
