
<svg xmlns="http://www.w3.org/2000/svg" version="1.1" xmlns:xlink="http://www.w3.org/1999/xlink" preserveAspectRatio="none" x="0px" y="0px" width="760px" height="880px" viewBox="620 10 760 880">
<defs>


<g id="Symbol_52_0_Layer0_0_FILL">
<path fill="#a6ce38" stroke="none" d="
M 895.85 656.35
Q 894.15 656.15 892.45 655.95 891.85 655.85 891.25 655.8 890.6 655.75 890 655.65
L 888.9 655.55
Q 888.35 655.5 887.8 655.45 883.6 655 879.35 654.75 875.1 654.5 870.75 654.5 867.85 654.5 864.9 654.65 861.95 654.8 858.9 655.1 867.25 660.95 876.1 666.2 884.95 671.4 894.25 676 894.8 674.85 895.35 673.7 895.9 672.55 896.45 671.4 897.05 670.2 897.65 669 898.25 667.75 898.85 666.55 899.5 665.35 900.1 664.15 900.7 663 901.35 661.8
L 901.35 661.75
Q 901.6 661.3 901.8 660.9 902.05 660.45 902.3 660 902.65 659.35 903 658.65
L 903.7 657.3 899.25 656.75
Q 897.55 656.55 895.85 656.35
M 834.85 384.15
Q 834.65 384.3 834.4 384.5 826.2 391.25 815.25 402.1 804.25 412.95 796.85 423.7 795.25 425.45 793.85 427 792.5 428.6 791.4 430 784.95 437.65 779.3 446.55 773.65 455.45 771.3 464.95 771.6 464.8 771.9 464.65
L 772.5 464.4
Q 771.65 465.5 771.15 466.85 770.65 468.25 770.55 469.7
L 770.5 469.75
Q 770.45 470.25 770.45 470.8 770.4 471.35 770.35 471.85 766.75 482.4 765.6 493 764.5 503.6 765.45 512.65
L 765.55 513.6
Q 765.65 514.35 765.85 515 766.05 517.35 766.45 520.1
L 766.95 523.5
Q 773.4 556.65 792.65 586.8 811.85 616.9 840.7 641.1 844.15 640.85 847.75 640.7 851.3 640.6 854.95 640.6 857.9 640.55 861 640.65 864.05 640.75 867.2 640.9 868.55 641 869.9 641.1 871.25 641.15 872.6 641.3
L 873.85 641.4
Q 874.45 641.45 875.1 641.5
L 875.15 641.5 875.65 641.55
Q 877.95 641.75 880.55 641.95 883.2 642.2 886.05 642.45
L 886.25 642.5
Q 891.85 643 898 643.65 904.2 644.3 910.55 645.15 930.15 611.6 955.5 581.8 980.85 551.95 1009.75 529.75 1010.7 529.05 1011.8 528.25 1012.9 527.45 1014.1 526.55 1015 525.95 1015.95 525.3 1016.9 524.6 1017.9 523.95 1018.3 523.7 1018.65 523.4 1019.05 523.15 1019.45 522.9 1019.6 522.8 1019.75 522.7
L 1020.1 522.45
Q 1019.7 522 1019.35 521.5
L 1018.65 520.5
Q 1016.3 517.35 1013.9 514.15 1011.5 510.95 1009.1 507.75 1007.05 505.1 1005 502.4 1002.95 499.7 1000.9 497 1000.65 496.7 1000.4 496.4 1000.2 496.1 999.95 495.8 999.8 495.6 999.7 495.45
L 998.4 493.75
Q 998.2 493.5 998 493.25
L 992.85 486.55
Q 990.3 483.15 987.75 479.8
L 986.35 478
Q 985.7 477.1 985 476.2 984.25 475.2 983.5 474.15 982.7 473.15 981.95 472.15
L 981.85 471.95
Q 980.75 470.65 979.7 469.35 978.65 468.1 977.7 466.85 977.3 466.35 976.9 465.85 976.5 465.3 976.1 464.85 974.75 463.1 973.7 461.75 972.65 460.4 971.95 459.55 971.45 459 970.95 458.45 970.5 457.85 970 457.25 969.15 456.3 968.3 455.25 967.45 454.25 966.6 453.2 965.75 452.2 964.9 451.2 964.05 450.2 963.2 449.15 961.65 447.25 960.1 445.3 958.5 443.35 956.9 441.3 946.6 428.45 937.15 413.5 927.65 398.55 921.9 382.9 921.7 382.25 921.45 381.6 921.25 380.95 921.05 380.3 920.8 379.55 920.55 378.75 920.3 377.95 920.05 377.2 919.85 376.4 919.65 375.6 919.4 374.8 919.2 374.05
L 919.1 373.65
Q 918.7 372 918.35 370.35 918.05 368.7 917.75 367.1 917.55 365.6 917.35 364.1 917.2 362.65 917.05 361.15 916.9 359 916.9 356.9 916.85 354.75 917 352.65 917 352.25 917.05 351.8
L 917.1 350.95 917.15 350.85
Q 917.15 350.7 917.15 350.6
L 917.2 350.3
Q 917.3 349.5 917.4 348.7 917.5 347.9 917.65 347.1 917.7 346.7 917.75 346.3 917.85 345.9 917.95 345.5 908.5 346 899.45 347.85 890.35 349.65 882.6 352.9 876.4 353.1 868.4 358.05 860.4 363 853.25 368.95 846.05 374.9 842.3 378.1 842.2 378.2 841.95 378.35 841.7 378.55 841.35 378.85 840.4 379.55 839.2 380.55 838 381.55 837.1 382.5 836.55 382.75 836 383.2
L 835.3 383.8
Q 835.1 383.95 834.85 384.15
M 999.85 385.75
Q 999.5 385.35 999.1 385
L 998.4 384.25
Q 996.05 381.95 993.65 379.7 991.25 377.45 988.75 375.3
L 988.5 375.15
Q 984.35 371.55 980 368.3 975.65 365.05 971.15 362.15 962.75 356.7 953.85 352.65 944.95 348.55 935.75 346.05
L 934.8 345.8
Q 934.3 345.7 933.85 345.6
L 932.2 345.5
Q 931.5 345.3 930.8 345.15 930.05 345.05 929.4 345
L 929.1 344.8
Q 928.4 344.4 927.6 344.35 926.75 344.25 925.95 344.45 925.8 344.25 925.6 344.1 925.45 343.95 925.25 343.9 924.85 344.1 924.45 344.45 924 344.8 924 345.3 923.55 345.65 923.3 346.1 923.05 346.5 923 347 922.9 347.35 922.8 347.7 922.7 348.05 922.6 348.4
L 922.6 348.45
Q 922.35 348.95 922.1 349.55
L 921.8 350.35
Q 919.95 358.25 922.4 367.5 924.85 376.8 929.05 385.45 930.4 389.15 932.05 392.85 933.75 396.55 935.7 400.25 935.9 401.95 936.5 403.45 937.15 404.95 937.7 405.8 938.15 406.6 939.55 408.4 940.95 410.2 942.75 412.3
L 942.95 412.55 942.8 412.55
Q 942.65 412.75 942.6 413 942.5 413.25 942.6 413.45 943.8 416.3 948.25 421.75 952.75 427.15 955.25 429.55
L 955.9 430.15
Q 957.45 432.05 959.05 433.9 960.65 435.75 962.3 437.55 967.25 444.6 972.55 451.1 977.8 457.6 985.6 460.6 985.9 460.9 986.15 461.2
L 986.7 461.85
Q 987.15 462.15 987.6 462.45 988.05 462.75 988.45 462.95 990.4 464 994.35 464.6 998.25 465.2 1001.15 464.45 1003.25 464.2 1004.6 463.5 1006 462.8 1006.35 461.75 1009.8 463.25 1013.25 464.25 1016.7 465.25 1020.2 465.65 1023.95 466.45 1027.05 466.75 1030.15 467 1032.55 466.75 1034.55 466.15 1036.25 465.3 1037.95 464.5 1039.35 463.45 1039.85 462.8 1040.2 462.1 1040.55 461.35 1040.8 460.5 1040.95 459.85 1041.05 459.15 1041.15 458.45 1041.2 457.7 1041.2 456.85 1041.15 455.9 1041.1 455 1040.95 454 1040.9 453.65 1040.85 453.35 1040.8 453.05 1040.75 452.7 1040.3 450.4 1039.45 447.7 1038.6 445 1037.35 441.85 1037 441 1036.6 440.15 1036.25 439.35 1035.9 438.5 1035.7 438.1 1035.55 437.65
L 1035.2 436.85
Q 1034.35 435 1033.45 433.15 1032.55 431.3 1031.6 429.45 1030.7 427.7 1029.7 425.95 1028.75 424.2 1027.75 422.45 1027 421.15 1026.25 419.85 1025.45 418.6 1024.65 417.3 1019.45 408.9 1013.2 400.95 1006.95 393 999.85 385.75
M 928.35 348.45
L 928.05 348.25
Q 928.15 348 928.25 347.75 928.4 347.55 928.5 347.3 928.5 347.6 928.45 347.9
L 928.35 348.45 Z"/>

<path fill="#0081c6" stroke="none" d="
M 752.9 482.05
Q 756.5 478.55 760.95 475.45 765.35 472.4 770.5 469.75
L 770.55 469.7
Q 770.65 468.25 771.15 466.85 771.65 465.5 772.5 464.4
L 771.9 464.65
Q 771.6 464.8 771.3 464.95 768.75 466.2 766.35 467.55 763.9 468.85 761.6 470.25 756.65 473.3 750.2 478.95 743.75 484.55 740.7 489 740.5 489.25 740.35 489.65 740.15 490 740.55 490.25 744.75 490.15 748.15 486.95 751.55 483.75 752.9 482.05
M 834.4 384.5
Q 834.65 384.3 834.85 384.15 835.1 383.95 835.3 383.8
L 836 383.2
Q 836.55 382.75 837.1 382.5 838 381.55 839.2 380.55 840.4 379.55 841.35 378.85 826.05 380.8 811 386.1 795.95 391.45 789.95 402.75 789.8 403 789.7 403.35 789.6 403.7 789.95 403.9 792.45 403.1 795.25 400.55 798.1 398 799.15 397 804.85 392.6 814 389.55 823.15 386.45 834.4 384.5 Z"/>
</g>

<g id="Symbol_53_0_Layer0_0_FILL">
<path fill="#a6ce38" stroke="none" d="
M 1052.9 708
Q 1052.6 708.55 1052.55 708.8 1047.85 723.85 1058 738.2 1068.2 752.5 1084.45 762.15 1100.65 771.75 1114.2 772.8 1124.8 773.35 1133.6 771.65 1142.45 769.95 1150.25 766.2 1153.9 765.95 1159.5 761.75 1165.1 757.6 1169.95 753.1
L 1177 746.45
Q 1178 745.55 1179.5 744.2 1176 744.25 1172.6 744.25 1169.2 744.25 1165.8 744.2 1161.55 744.1 1157.35 743.9 1153.15 743.75 1149 743.4 1126.55 741.85 1105.45 735 1084.35 728.2 1063.1 713.8
L 1062.4 713.3
Q 1062 713.05 1061.65 712.8
L 1061.2 712.45
Q 1060.95 712.3 1060.7 712.1 1060.2 711.75 1059.7 711.4 1059.2 711.05 1058.7 710.7
L 1055.8 708.55
Q 1055.45 708.3 1055.15 708.05
L 1053.6 706.9
Q 1053.15 707.4 1052.9 708
M 1036.2 592.7
Q 1035.9 592.2 1035.6 591.65 1035.35 591.15 1035.05 590.6 1031.65 599.95 1031.05 610.15 1030.45 620.35 1031.1 629.85 1031.5 637.85 1033.6 650.25 1035.75 662.65 1039.85 675.55 1043.95 688.4 1050.2 698
L 1050.5 698.25
Q 1050.7 698.35 1050.85 698.5
L 1051.05 698.65
Q 1051.15 698.7 1051.2 698.8 1053.15 700.25 1055.1 701.65 1057.05 703.1 1059.05 704.45 1059.2 704.55 1059.3 704.6 1059.4 704.7 1059.5 704.75 1059.95 705.1 1060.45 705.4 1060.9 705.7 1061.35 706 1062.35 706.7 1063.35 707.35 1064.35 708.05 1065.35 708.7 1065.95 709.05 1066.5 709.45 1067.1 709.8 1067.7 710.2 1076.75 715.9 1085 720.25 1093.3 724.65 1099.5 727.1 1108.95 730.8 1119.45 733.1 1129.95 735.4 1141 736.7 1147.65 737.5 1154.3 738.05 1161 738.65 1167.65 739
L 1167.75 739.05
Q 1167.95 739.05 1168.15 739.05 1168.35 739.05 1168.55 739.1 1169.5 739.15 1170.45 739.2 1171.4 739.25 1172.35 739.3
L 1172.85 739.3
Q 1173.7 739.35 1174.6 739.4 1175.45 739.45 1176.3 739.5 1176.85 739.55 1177.4 739.55
L 1178.5 739.6
Q 1179.7 739.7 1180.9 739.75 1182.15 739.8 1183.35 739.85
L 1183.75 739.9 1183.9 739.7
Q 1184.55 739.55 1185.2 739.4
L 1186.55 739.05
Q 1192.25 738.9 1197.85 738.1 1203.4 737.25 1208.5 736.15 1215.45 734.6 1220.5 732 1225.55 729.35 1228.6 726 1229.3 725.7 1229.95 725.4 1230.6 725.1 1231.2 724.75 1231.35 724.6 1231.45 724.4 1231.55 724.2 1231.65 724 1231.9 723.5 1232.2 723 1232.45 722.5 1232.65 721.9 1232.6 721.5 1232.55 721.1 1232.45 720.7 1232.4 720.3 1234.95 714 1232 707.8 1229.05 701.6 1220.6 697.3 1219.5 697.45 1218.35 697.5 1217.25 697.5 1216.2 697.5 1215.25 697.5 1214.5 697.45 1213.75 697.4 1213.45 697.4 1211.85 697.35 1210.25 697.25 1208.65 697.15 1207 697 1203.9 696.75 1200.7 696.3 1197.45 695.9 1194.2 695.3
L 1193.4 695.15
Q 1192.8 695.05 1192.2 694.95 1191.6 694.8 1190.95 694.7
L 1190.2 694.55
Q 1189.85 694.45 1189.5 694.4
L 1189.2 694.35
Q 1188.25 694.15 1187.3 693.9 1186.3 693.7 1185.35 693.5 1184.25 693.25 1183.1 692.95 1181.95 692.65 1180.85 692.35 1180 692.15 1179.2 691.95 1178.35 691.7 1177.55 691.5 1173.7 690.45 1169.8 689.2 1165.9 688 1162 686.6 1135.05 677 1109.05 661.2 1083.1 645.4 1062.65 625.65 1062 625 1061.35 624.35 1060.65 623.7 1060 623.05 1059.55 622.55 1059.05 622.05 1058.55 621.55 1058.1 621.05 1057.85 620.8 1057.6 620.55
L 1057.15 620.05
Q 1055.9 618.75 1054.7 617.45 1053.5 616.15 1052.35 614.8 1051.7 614.05 1051.05 613.3 1050.4 612.55 1049.8 611.8 1048.9 610.75 1048 609.65 1047.1 608.55 1046.25 607.5 1045.2 606.1 1044.15 604.7 1043.15 603.35 1042.15 601.95 1041.95 601.65 1041.75 601.35 1041.55 601.05 1041.35 600.75
L 1041.25 600.6 1041.15 600.5 1041.15 600.45
Q 1040.8 599.95 1040.45 599.45 1040.15 599 1039.8 598.5
L 1039.45 597.9
Q 1039.25 597.65 1039.05 597.35 1038.3 596.2 1037.6 595.05 1036.9 593.85 1036.2 592.7
M 1302.55 460.8
Q 1302 460.75 1301.4 460.65 1300.8 460.6 1300.15 460.55 1299.05 459.25 1297.6 458.85 1296.15 458.45 1294.95 459.4 1294.7 459.7 1294.45 459.95 1294.2 460.25 1294.05 460.4 1288 460.7 1282.35 461.55 1276.7 462.4 1273.2 463 1272.85 463.05 1272.55 463.15 1272.2 463.2 1271.9 463.25 1266.6 462.85 1262.25 462.65 1257.9 462.45 1255.6 462.3 1220.2 459.3 1184.8 467.35 1149.35 475.4 1117.95 493.3 1086.55 511.25 1063.3 537.85
L 1061.1 540.6
Q 1059.3 542.8 1057.9 544.75 1057.45 545.25 1056.95 545.85
L 1056.35 546.65
Q 1050.75 554.05 1045.9 563.75 1041.05 573.45 1038.1 584.2 1037.8 584.65 1037.55 585.15 1037.3 585.65 1037.05 586.1
L 1037.4 586.85
Q 1038.25 588.45 1039.2 590 1040.15 591.6 1041.2 593.2 1041.35 593.4 1041.5 593.65 1041.65 593.85 1041.8 594.1
L 1041.9 594.3 1042.85 595.65
Q 1043 595.9 1043.2 596.15
L 1043.25 596.2 1043.55 596.65
Q 1043.7 596.85 1043.85 597.05 1044.6 598.15 1045.45 599.25 1046.3 600.35 1047.15 601.45 1047.75 602.25 1048.4 603.05 1049.05 603.8 1049.75 604.6 1050.7 605.75 1051.65 606.85 1052.65 608 1053.7 609.1 1055 610.55 1056.4 612 1057.75 613.4 1059.15 614.8 1061 616.65 1062.95 618.5 1064.9 620.3 1066.9 622.1 1085.95 638.8 1106.95 651.8 1128 664.8 1144.4 672.35 1155.1 677.35 1164.05 680.5 1173 683.65 1182.1 685.75 1182.45 685.85 1182.8 685.95 1183.1 686 1183.45 686.1 1183.8 686.15 1184.2 686.25 1184.55 686.35 1184.9 686.4 1185.25 686.5 1185.6 686.55
L 1186.3 686.7
Q 1187.4 686.95 1188.45 687.15 1189.55 687.4 1190.65 687.6 1190.8 687.65 1190.95 687.7
L 1191.25 687.75
Q 1192.45 688 1193.7 688.2 1194.95 688.45 1196.25 688.7 1196.65 688.75 1197.05 688.85
L 1197.85 689
Q 1198.35 689.1 1198.8 689.15 1199.3 689.25 1199.8 689.35 1208.95 681.3 1218.85 674.05 1228.75 666.75 1239.1 660.05 1248.15 655.55 1257.55 651.45 1266.95 647.4 1276.3 644.05 1279.05 643.05 1281.85 642.15 1284.6 641.25 1287.3 640.45 1289.2 639.9 1291.05 639.4 1292.9 638.9 1294.75 638.45 1295.65 637.25 1296.15 635.85 1296.6 634.45 1296.45 632.9 1296.05 632.25 1295.6 633
L 1295.1 633.95
Q 1293.2 634.3 1291.3 634.75 1289.4 635.2 1287.55 635.75 1287.6 632.9 1287.55 630.65 1287.55 628.45 1287.6 627.45 1289.6 596.2 1292.85 564.7 1296.1 533.2 1298.65 501.95 1298.9 497.55 1298.4 489.1 1297.95 480.7 1298 474.5 1298.8 473.2 1299.5 471.6 1300.15 469.95 1300.6 468.3 1301.6 467.5 1302.55 466.6 1303.45 465.65 1303.95 464.6 1303.3 464.25 1302.65 464.1 1301.95 463.95 1301.3 463.95
L 1301.3 463.55
Q 1302.2 463.6 1303.3 463.7 1304.45 463.75 1305.6 463.95 1304.85 463.2 1304.1 462.4 1303.3 461.6 1302.55 460.8
M 1204.6 689.85
Q 1202.4 689.5 1200.1 689.4 1201.3 689.6 1202.5 689.8 1203.7 690.05 1204.95 690.25
L 1206.8 690.55
Q 1207.75 690.7 1208.8 690.9 1206.8 690.25 1204.6 689.85
M 1298.65 650.05
Q 1298.45 649.75 1298.2 649.5 1296.25 650.2 1294.35 650.85 1292.4 651.55 1290.5 652.2 1292 652.05 1294.6 651.7 1297.15 651.35 1299 650.6 1298.85 650.3 1298.65 650.05 Z"/>

<path fill="#0081c6" stroke="none" d="
M 1030.25 679.95
Q 1021.8 670.65 1019.1 661.9 1018.85 660.55 1018.15 657.1 1017.4 653.65 1016 651.85 1015.6 651.85 1015.5 652.2 1015.4 652.55 1015.4 652.85 1013.85 662.8 1019.2 672.05 1024.6 681.3 1032.7 689.05 1040.9 696.8 1047.75 702.25 1049.25 703.45 1050.7 704.6 1052.15 705.75 1053.6 706.9
L 1055.15 708.05
Q 1055.45 708.3 1055.8 708.55
L 1058.7 710.7
Q 1059.2 711.05 1059.7 711.4 1060.2 711.75 1060.7 712.1 1060.95 712.3 1061.2 712.45
L 1061.65 712.8
Q 1062 713.05 1062.4 713.3
L 1063.1 713.8
Q 1084.35 728.2 1105.45 735 1126.55 741.85 1149 743.4 1153.15 743.75 1157.35 743.9 1161.55 744.1 1165.8 744.2 1169.2 744.25 1172.6 744.25 1176 744.25 1179.5 744.2 1187.2 744.05 1195.2 743.65 1203.25 743.3 1211.65 742.8
L 1215.05 742.75
Q 1217.7 742.7 1219.85 742.1 1219.9 741.8 1219.75 741.6 1219.55 741.45 1219.4 741.35
L 1217.15 740.9 1212.85 740.65
Q 1207.5 740.45 1201.9 740.5 1196.25 740.5 1194.1 740.4 1191.55 740.25 1189 740.15 1186.4 740 1183.75 739.9
L 1183.35 739.85
Q 1182.15 739.8 1180.9 739.75 1179.7 739.7 1178.5 739.6
L 1177.4 739.55
Q 1176.85 739.55 1176.3 739.5 1175.45 739.45 1174.6 739.4 1173.7 739.35 1172.85 739.3
L 1172.35 739.3
Q 1171.4 739.25 1170.45 739.2 1169.5 739.15 1168.55 739.1 1168.35 739.05 1168.15 739.05 1167.95 739.05 1167.75 739.05
L 1167.65 739
Q 1161 738.65 1154.3 738.05 1147.65 737.5 1141 736.7 1129.95 735.4 1119.45 733.1 1108.95 730.8 1099.5 727.1 1093.3 724.65 1085 720.25 1076.75 715.9 1067.7 710.2 1067.1 709.8 1066.5 709.45 1065.95 709.05 1065.35 708.7 1064.35 708.05 1063.35 707.35 1062.35 706.7 1061.35 706 1060.9 705.7 1060.45 705.4 1059.95 705.1 1059.5 704.75 1059.4 704.7 1059.3 704.6 1059.2 704.55 1059.05 704.45 1057.05 703.1 1055.1 701.65 1053.15 700.25 1051.2 698.8 1051.15 698.7 1051.05 698.65
L 1050.85 698.5
Q 1050.7 698.35 1050.5 698.25
L 1050.2 698
Q 1038.7 689.25 1030.25 679.95
M 1030.6 567.65
Q 1030.5 565.6 1029.7 561.35 1028.95 557.1 1025.85 555.1 1025.45 555.15 1025.35 555.55 1025.3 555.95 1025.3 556.25 1025.15 561.45 1026.9 569.2 1028.65 576.9 1030.7 581.75 1031.65 584 1032.75 586.2 1033.8 588.4 1035.05 590.6 1035.35 591.15 1035.6 591.65 1035.9 592.2 1036.2 592.7 1036.9 593.85 1037.6 595.05 1038.3 596.2 1039.05 597.35 1039.25 597.65 1039.45 597.9
L 1039.8 598.5
Q 1040.15 599 1040.45 599.45 1040.8 599.95 1041.15 600.45
L 1041.15 600.5 1041.25 600.6 1041.35 600.75
Q 1041.55 601.05 1041.75 601.35 1041.95 601.65 1042.15 601.95 1043.15 603.35 1044.15 604.7 1045.2 606.1 1046.25 607.5 1047.1 608.55 1048 609.65 1048.9 610.75 1049.8 611.8 1050.4 612.55 1051.05 613.3 1051.7 614.05 1052.35 614.8 1053.5 616.15 1054.7 617.45 1055.9 618.75 1057.15 620.05
L 1057.6 620.55
Q 1057.85 620.8 1058.1 621.05 1058.55 621.55 1059.05 622.05 1059.55 622.55 1060 623.05 1060.65 623.7 1061.35 624.35 1062 625 1062.65 625.65 1083.1 645.4 1109.05 661.2 1135.05 677 1162 686.6 1165.9 688 1169.8 689.2 1173.7 690.45 1177.55 691.5 1178.35 691.7 1179.2 691.95 1180 692.15 1180.85 692.35 1181.95 692.65 1183.1 692.95 1184.25 693.25 1185.35 693.5 1186.3 693.7 1187.3 693.9 1188.25 694.15 1189.2 694.35
L 1189.5 694.4
Q 1189.85 694.45 1190.2 694.55
L 1190.95 694.7
Q 1191.6 694.8 1192.2 694.95 1192.8 695.05 1193.4 695.15
L 1194.2 695.3
Q 1197.45 695.9 1200.7 696.3 1203.9 696.75 1207 697 1208.65 697.15 1210.25 697.25 1211.85 697.35 1213.45 697.4 1213.75 697.4 1214.5 697.45 1215.25 697.5 1216.2 697.5 1217.25 697.5 1218.35 697.5 1219.5 697.45 1220.6 697.3 1221.3 697.2 1221.95 697.05 1222.55 696.9 1223.05 696.65 1223.1 696.1 1222.35 695.85 1221.6 695.6 1221.25 695.45 1218.95 693.6 1215.55 692.55 1212.2 691.5 1208.8 690.9 1207.75 690.7 1206.8 690.55
L 1204.95 690.25
Q 1203.7 690.05 1202.5 689.8 1201.3 689.6 1200.1 689.4
L 1199.8 689.35
Q 1199.3 689.25 1198.8 689.15 1198.35 689.1 1197.85 689
L 1197.05 688.85
Q 1196.65 688.75 1196.25 688.7 1194.95 688.45 1193.7 688.2 1192.45 688 1191.25 687.75
L 1190.95 687.7
Q 1190.8 687.65 1190.65 687.6 1189.55 687.4 1188.45 687.15 1187.4 686.95 1186.3 686.7
L 1185.6 686.55
Q 1185.25 686.5 1184.9 686.4 1184.55 686.35 1184.2 686.25 1183.8 686.15 1183.45 686.1 1183.1 686 1182.8 685.95 1182.45 685.85 1182.1 685.75 1173 683.65 1164.05 680.5 1155.1 677.35 1144.4 672.35 1128 664.8 1106.95 651.8 1085.95 638.8 1066.9 622.1 1064.9 620.3 1062.95 618.5 1061 616.65 1059.15 614.8 1057.75 613.4 1056.4 612 1055 610.55 1053.7 609.1 1052.65 608 1051.65 606.85 1050.7 605.75 1049.75 604.6 1049.05 603.8 1048.4 603.05 1047.75 602.25 1047.15 601.45 1046.3 600.35 1045.45 599.25 1044.6 598.15 1043.85 597.05 1043.7 596.85 1043.55 596.65
L 1043.25 596.2 1043.2 596.15
Q 1043 595.9 1042.85 595.65
L 1041.9 594.3 1041.8 594.1
Q 1041.65 593.85 1041.5 593.65 1041.35 593.4 1041.2 593.2 1040.15 591.6 1039.2 590 1038.25 588.45 1037.4 586.85
L 1037.05 586.1
Q 1034.6 581.55 1033 576.95 1031.35 572.3 1030.6 567.65 Z"/>
</g>

<g id="Symbol_7_0_Layer0_0_FILL">
<path fill="#a6ce38" stroke="none" d="
M 793 728.5
L 804.5 735.2
Q 815.8 741.55 835.15 750 854.5 758.4 879 765
L 889.25 742.3
Q 898.45 720.9 910.3 692.8 922.15 664.75 931.1 643.45
L 940.5 621 915.1 609.95 793 728.5 Z"/>
</g>

<g id="Symbol_54_0_Layer0_0_FILL">
<path fill="#a6ce38" stroke="none" d="
M 1098.7 361.15
Q 1081.45 347 1054.6 350.65 1031.1 354.9 1000 370.25 968.9 385.6 933.75 407.6 898.55 429.65 862.85 453.95 848.5 464.85 842.6 494.5 836.7 524.2 835.65 560.75 834.6 597.35 834.85 629 835.05 660.6 832.95 675.45 838.55 679.85 848 682.15 857.45 684.45 873.2 685.5 881.5 666.05 903.15 643.2 924.85 620.35 953.15 600.15 981.45 580 1009.55 568.6 1036.95 556.7 1057.9 534.45 1078.85 512.15 1094.6 491.25 1110.3 470.35 1122 462.55 1130.9 456.55 1131.5 437.6 1132.15 418.65 1124.05 397 1115.95 375.3 1098.7 361.15 Z"/>
</g>

<g id="Symbol_55_0_Layer0_0_FILL">
<path fill="#a6ce38" stroke="none" d="
M 1014.75 275.85
Q 1000.7 265.35 978.7 264.45 965.05 264.3 954.95 269.2 944.9 274.05 937.95 281.55 930.95 289 926.65 296.7 922.3 305.1 918.55 323.15 914.85 341.25 912.45 357.55
L 909.7 377.1 913.4 380.25 923.7 383.7
Q 937.3 387.3 954 389.95 970.7 392.65 980.35 392.95 989.8 393 1004.8 390.4 1019.75 387.85 1032.65 383.7 1045.55 379.6 1048.75 375
L 1046.55 357.15
Q 1044.5 343.75 1041.25 328.3 1038.05 312.85 1034.4 302.15 1028.8 286.3 1014.75 275.85 Z"/>
</g>

<g id="Symbol_56_0_Layer0_0_FILL">
<path fill="#a6ce38" stroke="none" d="
M 1051.9 298
Q 1043.95 305.65 1042.2 316.25 1040.45 326.85 1044.65 335.9 1048.9 344.9 1058.95 347.7 1063.6 345.65 1073.55 338.2 1083.5 330.75 1091.75 319.05
L 1090 317.5 1085.15 314.1
Q 1078.8 309.75 1069.65 304.9 1060.45 300.05 1051.9 298 Z"/>
</g>

<g id="Symbol_137_0_Layer0_0_FILL">
<path fill="#0083CB" stroke="none" d="
M 1010.6 309.3
L 1009.6 307.45 1008.25 305.8 1006.65 304.45 1004.75 303.45 1002.75 302.85 1000.6 302.65 998.5 302.85 996.5 303.45 994.6 304.45 993 305.8 991.65 307.45 990.65 309.3 990 311.35 989.8 313.45 990 315.55 990.65 317.6 991.65 319.45 993 321.1 994.6 322.45 996.5 323.45 998.5 324.05 1000.6 324.25 1002.75 324.05 1004.75 323.45 1006.65 322.45 1008.25 321.1 1009.6 319.45 1010.6 317.6 1011.25 315.55 1011.45 313.45 1011.25 311.35 1010.6 309.3 Z"/>
</g>

<g id="Symbol_58_0_Layer0_0_FILL">
<path fill="#a6ce38" stroke="none" d="
M 1002.55 287.3
Q 993.7 287.75 989.4 294.25 985.1 300.8 984.25 308.95
L 1019.7 309.2 1018.65 303.5
Q 1017.5 298.2 1013.85 292.9 1010.15 287.65 1002.55 287.3 Z"/>
</g>

<g id="Symbol_138_0_Layer0_0_FILL">
<path fill="#FFFFFF" stroke="none" d="
M 1090.25 246.8
Q 1083.85 241.1 1079.25 234.2 1074.6 227.3 1072.35 221.15
L 1055.1 378.2
Q 1057.55 379.05 1062.85 379.5 1068.15 379.95 1074.8 380.15 1081.4 380.4 1087.8 380.6 1094.2 380.8 1098.75 381.1 1113.4 382.5 1126.85 381.7 1140.3 380.9 1152.4 375.4 1164.5 369.95 1175.1 357.25 1186.8 342.75 1197.1 326.45 1207.4 310.15 1217.7 293.85 1228.05 277.5 1239.8 262.9 1243.05 258.8 1247.25 252.7 1251.45 246.55 1255.45 240.6 1259.4 234.7 1262 231.3
L 1263.95 229.1 1264.65 229.35
Q 1264.9 226.85 1258.75 225.2 1252.55 223.55 1243.35 222.8 1234.1 222.05 1225.2 222.3 1216.3 222.6 1211.1 224 1201 227 1192.45 229.75 1183.95 232.5 1176.85 234.6 1169.75 236.65 1164 237.55 1152.55 239.3 1143.95 242.8 1135.35 246.3 1129.25 249.7 1123.2 253.1 1119.4 254.7 1111.55 257.4 1104.1 254.95 1096.65 252.5 1090.25 246.8 Z"/>
</g>

<g id="Symbol_139_0_Layer0_0_FILL">
<path fill="#0081c6" stroke="none" d="
M 1054.15 239
Q 1053.7 226.2 1053 213.5 1052.9 211.9 1052.8 210.3 1052.65 208.7 1052.45 207.1 1052.4 206.75 1052.35 206.35 1052.3 205.95 1052.2 205.6
L 1052.05 205.2 1052 204.95
Q 1052 204.85 1051.9 204.85
L 1051.7 204.8 1051.35 204.65
Q 1050.15 204 1048.6 203.7 1047.1 203.35 1045.75 203.15 1044.25 202.85 1042.8 202.45 1041.35 202 1039.85 201.9 1039.15 201.85 1038.45 201.85 1037.75 201.8 1037.05 201.7
L 1036.3 201.6
Q 1035.9 201.55 1035.55 201.5
L 1034.8 201.35
Q 1034.25 201.25 1033.75 201.15
L 1033.75 202.05 1033.7 202.4 1033.7 202.6
Q 1033.65 205.85 1033.65 209.15 1033.6 212.4 1033.35 215.65 1033.05 220.3 1033.3 225.05 1033.55 229.85 1033.7 234.55 1033.85 246.85 1033.8 259.15 1033.8 271.5 1034 283.8 1034.2 298.4 1033.85 313.05 1033.45 327.65 1033.15 342.3 1032.85 356.9 1033.25 371.5 1033.3 373.35 1033.35 375.45 1033.4 377.55 1033.6 379.6 1033.8 381.65 1034.3 383.4 1034.4 383.7 1034.5 384 1034.6 384.35 1034.75 384.65
L 1035.15 385.45
Q 1035.5 386.1 1035.85 386.65 1036.25 387.15 1036.85 387.5 1037.5 387.85 1038.05 387.7 1039.05 387.35 1039.4 386.55 1039.8 385.7 1039.85 384.7 1039.9 383.7 1039.95 382.75 1041 369.45 1041.6 356.1 1042.2 342.7 1042.6 329.35 1042.8 323 1043.15 316.85 1043.5 310.7 1044.35 304.4 1044.95 299.6 1045.75 294.85 1046.55 290.05 1047.45 285.3
L 1047.65 284.2
Q 1047.8 283.3 1047.95 282.55 1047.9 283 1047.9 283.5
L 1047.9 284.15
Q 1047.8 288.95 1047.95 293.7 1048.1 298.45 1047.95 303.3 1047.65 309.55 1047.25 316.05 1046.85 322.55 1046.95 329.05 1047.05 335.55 1048.2 341.7 1048.6 344.1 1048.55 346.2 1048.5 348.25 1048.4 350.65 1048.4 351.25 1048.35 352.15 1048.35 353.05 1048.55 353.55
L 1048.95 354.4 1049.3 354.7 1049.55 354.45 1049.8 353.8 1049.75 355.5
Q 1049.5 361.3 1049.15 367.05 1048.75 372.85 1048.8 378.6 1048.85 380.9 1048.85 383.25 1048.85 385.6 1049.15 387.85 1049.25 388.25 1049.3 388.6 1049.4 389 1049.5 389.35
L 1049.6 389.7 1049.85 390.3
Q 1050.15 391 1050.55 391.55 1051 391.3 1051.45 390.9
L 1052 390.35
Q 1053.35 388.7 1053.6 386.05 1053.85 383.4 1053.7 380.65 1053.5 377.9 1053.45 375.9 1053.6 367.7 1054.1 359.45 1054.6 351.15 1054.9 342.95 1055.25 333.15 1055.35 323.45 1055.4 313.8 1055.1 304 1055 301.5 1054.9 299.05 1054.8 296.65 1054.75 294.1 1054.75 286.7 1054.7 279.3 1054.6 271.85 1054.6 264.45 1054.6 251.75 1054.15 239 Z"/>
</g>

<g id="Symbol_140_0_Layer0_0_FILL">
<path fill="#FFFFFF" stroke="none" d="
M 1048.65 210.05
Q 1048.6 209.4 1048.6 208.8 1048.15 208.8 1047.6 208.85
L 1047.15 208.9 1046.9 208.9
Q 1045.2 209 1043.45 209.1
L 1037.3 209.5
Q 1036.45 209.55 1035.75 209.6 1035.75 210.05 1035.75 210.6
L 1035.75 211.3
Q 1036.25 273.8 1035.7 336.5 1035.1 399.2 1032.25 461.75 1029.4 524.35 1022.95 586.55 1018.6 627.5 1013.55 668.3 1008.55 709.15 1003.15 749.95 1001.9 759.55 1000.65 769.2 999.35 778.8 998.15 788.45 998.1 788.85 998.05 789.25 998 789.65 997.95 790.05
L 997.8 790.85
Q 997.75 791.5 997.65 792.05 997.6 792.45 997.55 793
L 997.45 793.65
Q 997.35 794.45 997.25 795.25 997.15 796.05 997.05 796.85
L 996.95 797.7
Q 996.9 798.1 996.8 798.55
L 996.65 799.75
Q 996.55 800.7 996.45 801.55
L 997.85 801.55 998.1 801.6
Q 1001.45 801.65 1004.8 801.75 1008.15 801.85 1011.5 801.9 1011.85 801.95 1012.35 802 1012.8 802.05 1013.15 801.95
L 1013.65 801.9 1013.9 801.95
Q 1014 802.05 1013.95 801.95
L 1013.95 801.7 1014.1 801.1
Q 1014.45 799.75 1014.6 797.85 1014.75 795.95 1014.9 794.45 1019.6 755.35 1024.45 716.25 1029.3 677.15 1033.65 638 1038 598.85 1041.2 559.6 1045.05 510.4 1046.95 461.1 1048.85 411.8 1049.35 362.45 1049.7 324.55 1049.4 286.7 1049.15 248.8 1048.65 210.95
L 1048.65 210.05 Z"/>
</g>

<g id="Symbol_109_0_Layer0_0_FILL">
<path fill="#FFFFFF" stroke="none" d="
M 882.55 535.5
Q 880.35 525.65 874.6 519.1 868.9 512.6 858.2 513.35 844.3 514.85 825.1 519.9 805.85 524.9 786.25 531.3 766.65 537.7 751.6 543.3 736.6 548.95 731 551.7 720.6 556.8 711.15 562.75 701.65 568.7 694.65 575.9 687.65 583.1 684.65 591.95 681.65 600.85 684.2 611.8 685.85 618.6 689.95 631.25 694 643.85 699.95 660.3 705.9 676.75 713.15 695.05 720.45 713.3 728.5 731.4
L 728.3 735.25
Q 727.95 738.3 729.3 742 730.65 745.7 735.8 748.5 740.95 751.3 752.05 751.55 766.15 751.55 775.8 748.5 785.45 745.4 790.8 741.7
L 795.1 738.4 797.35 736.05
Q 798.8 720.3 802.15 703.3 805.5 686.35 809.8 670.95 814.1 655.55 818.35 644.55 822.65 633.55 825.95 629.75 829.15 626.3 834.9 622.5 840.65 618.7 848.15 614.7 855.7 610.65 864.2 606.45 873 601.9 878.25 594.45 883.55 587 885.1 579.7 886.7 572.35 884.4 568.1 884.95 563.6 884.85 554.45 884.7 545.3 882.55 535.5 Z"/>
</g>

<g id="Symbol_98_0_Layer0_0_FILL">
<path fill="#0081c6" stroke="none" d="
M 1137.8 562.05
L 1136.95 559.4 1136.9 559.35 1136.85 559.2 1136.8 559.15 1135.3 557 1133.35 555.15 1129.05 552.25 1120.1 547.65 1120 547.65 1114.6 545.8 1111.85 545.2 1106.2 544.55 1095 544.55 1073 547.4 1062.15 549.75 1027.75 560.15 1017.5 564.45 1017.45 564.5 1017.4 564.5 1015.2 565.7 1006.95 571.6 999.8 578.7 998.85 579.85 998.6 579.1 998.25 578.65 997.25 578.4 996.3 578.9 996 579.35 995.95 580 996.25 583.1 993.95 586.65 993.75 587.25 993.8 587.8 994.5 588.65 995.5 588.85 996 588.6 996.4 588.1 996.7 587.6 999.1 604.2 1001.6 611.7 1009.25 653.55 1029.45 743.55 1031.3 748.75 1032.55 751.2 1032.65 751.3 1032.7 751.4 1034.25 753.45 1036.1 755.35 1040.2 758.5 1047.05 762.05 1054.35 764.4 1056.8 764.95 1056.85 764.95 1075.6 767.5 1083.75 767.95 1094.75 767.5 1097.45 766.95 1097.5 766.9 1097.6 766.9 1109.45 762.1 1118.5 757.2 1122.7 754.15 1122.85 753.95 1123.05 753.8 1124.4 751.5 1125.45 749 1133.6 721.7 1133.6 721.65 1134.25 719.1 1144.05 652.95 1144.55 621.2 1144 597.5 1142.85 586.95 1138.25 569.55 1137.8 562.05 Z"/>
</g>

<g id="Symbol_131_0_Layer0_0_FILL">
<path fill="#FFFFFF" stroke="none" d="
M 1101.4 492
Q 1089.3 478.35 1074 465.7 1058.7 453 1043.5 445.35 1028.35 437.65 1016.75 438.9 1002.35 441.15 992.75 447.55 983.15 454 978 462.5 972.85 470.95 971.8 479.25 970.7 487.55 973.35 493.45 976.9 501.3 981.75 516.65 986.6 532 992.2 552.6 997.8 573.25 1003.6 596.95 1009.4 620.7 1014.75 645.3 1019.5 666.85 1023.7 686.45 1027.95 706.05 1031.25 721.95 1034.55 737.9 1036.55 748.45
L 1039.1 750.6 1044.05 753.35
Q 1050.2 756.4 1059.35 758.85 1068.55 761.25 1079 761.2 1093.9 760.8 1102.45 758.3 1110.95 755.75 1114.6 753.05
L 1117.35 750.7 1118.35 749.2
Q 1132.1 701.05 1135.7 661.6 1139.3 622.2 1136.55 592.35 1133.8 562.55 1128.45 543.3 1123.1 524.05 1118.95 516.3 1113.5 505.65 1101.4 492 Z"/>
</g>

<g id="Symbol_19_0_Layer0_0_FILL">
<path fill="#FFFFFF" stroke="none" d="
M 656.95 766.95
L 648.9 766.15
Q 647.3 766.15 646.3 767.25 645.25 768.35 645.2 769.8 645.15 771.3 646.5 772.5
L 649.1 773.9 654.55 776.1
Q 661.45 778.7 672.95 780.7 684.4 782.7 699.15 781.9 713.85 781.15 730.65 775.45 742.3 771.1 752.6 762.8 762.95 754.5 770.9 745.45 778.9 736.4 783.5 729.9
L 788.3 722.65 787.25 721.25 784.35 718.45
Q 780.55 714.95 775.95 710.9 771.3 706.9 768.6 704.6 766.5 707.95 761.25 715.5 756 723 748.5 732 741.05 741.05 732.35 748.9 723.6 756.75 714.6 760.8 704.7 764.9 693.85 766.4 683 767.85 673.25 767.75 663.55 767.6 656.95 766.95 Z"/>
</g>

<g id="Symbol_51_0_Layer0_0_FILL">
<path fill="#FFFFFF" stroke="none" d="
M 985.85 192.35
L 988.05 188.95 988.85 186.9
Q 984.8 184.8 978.9 183.9 972.95 183.05 966.7 183.05 960.45 183.1 955.45 183.75 950.4 184.4 948.15 185.35 946.3 186.4 942.55 190.3 938.8 194.2 934.75 198.95 930.65 203.7 927.75 207.15
L 924.7 210.8 926.7 212.15
Q 928.55 213.35 930.55 214.55
L 932.15 215.45 933 215.75
Q 944.4 213.9 951.85 212.6 959.25 211.3 963.9 210 968.55 208.75 971.65 207 975 204.95 979 200.7 982.95 196.4 985.85 192.35 Z"/>
</g>

<g id="Symbol_126_0_Layer0_0_FILL">
<path fill="#FFFFFF" stroke="none" d="
M 752.65 747.45
Q 752.5 759.55 752.3 776.4 752.05 793.25 751.85 808.55 751.65 823.8 751.55 831.05 751.45 839.7 751.8 851.6 752.15 863.5 752.65 875.15 753.2 886.8 753.6 894.65
L 754.05 903
Q 760.2 908.05 773.9 910.2 787.55 912.3 804.4 911.85 821.3 911.35 837.15 908.55 853.05 905.75 863.6 901
L 864.9 893.15
Q 866.1 885.75 867.9 875.05 869.7 864.4 871.65 854.1 873.6 843.85 875.2 837.6 877.05 830.4 879.75 819.45 882.45 808.45 885.15 797.3 887.8 786.2 889.6 778.6
L 891.5 770.55
Q 884.05 756.65 865.1 748.1 846.2 739.55 823.25 735.6 800.35 731.65 780.85 731.6 761.4 731.5 752.8 734.5
L 752.65 747.45 Z"/>
</g>

<g id="Symbol_22_0_Layer0_0_FILL">
<path fill="#0083CB" stroke="none" d="
M 943.65 840.8
Q 942.6 838.75 942.2 837.35 941.45 834.6 941.05 831.85 940.7 829.05 940.15 826.35
L 939.65 824.85 939.1 824.45
Q 938.5 824.55 938.05 825.8 937.65 827 937.65 828.25 937.8 831.4 938.75 835.75 939.7 840.1 941.85 843.7 943.95 847.3 947.65 848.15 951.1 848.6 953.45 845.55 955.8 842.55 957.1 838.5 958.4 834.45 958.75 831.75 958.9 830.75 958.95 828.85 959 826.95 958.7 825.25 958.4 823.5 957.45 822.95
L 957.25 822.9
Q 957.1 822.9 957.05 822.95 956.7 823.3 956.6 823.8
L 956.45 824.5
Q 956.2 826.4 956.15 828.4 956.15 830.4 955.8 832.35 955.5 834.05 954.65 836.85 953.8 839.65 952.5 842.15 951.2 844.6 949.5 845.25 947.75 845.7 946.2 844.3 944.7 842.85 943.65 840.8 Z"/>
</g>

<g id="Symbol_101_0_Layer0_0_FILL">
<path fill="#0081c6" stroke="none" d="
M 951.25 738.5
Q 951.1 735.35 950.7 733.55 950.3 731.75 949.05 731.5 947.75 731.25 945.1 732.75 944.35 734.25 944.25 736.05 944.1 737.9 944.25 739.4 942.9 740.8 941.7 742.65 940.5 744.5 939.65 746.1
L 938.55 748.25
Q 933.45 760.6 932.3 778.25 931.1 795.95 933.15 815 935.2 834.05 939.75 850.5 944.25 867 950.55 877.05 950.9 877.6 951.5 878.55 952.1 879.5 952.9 880.55 953.1 882.2 954.05 883.2 954.95 884.2 957.25 883.55
L 957.4 883.4
Q 957.6 883.45 957.75 883.4 957.95 883.4 958.15 883.35 958.15 883.2 958.15 883.05 958.15 882.9 958.15 882.7 959.7 880.65 959.8 877.45 959.95 874.3 959.55 871.7
L 959.1 868.9
Q 957.2 836.3 955.2 803.7 953.2 771.1 951.25 738.5 Z"/>
</g>

<g id="Symbol_102_0_Layer0_0_FILL">
<path fill="#FFFFFF" stroke="none" d="
M 775.35 771.35
L 780.25 779.3
Q 784.9 786.85 791.3 797.4 797.7 808 803.25 817.3 808.75 826.65 810.65 830.5 813.45 836.4 817.35 847.3 821.3 858.15 825.1 869.8 828.95 881.4 831.55 889.5
L 834.3 898
Q 840.35 902.2 856.75 905.3 873.15 908.4 893 909.25 912.85 910.15 929.4 907.7 945.9 905.2 952.25 898.3 953.15 885.95 953 873.25 952.8 860.6 952.15 848 951.45 835.4 950.9 823.35 950.15 804.95 949.25 788.35 948.4 771.7 947.6 758.65 946.8 745.6 946.3 738
L 945.9 730.15
Q 926.5 724.75 904.1 727.45 881.65 730.1 858.55 737.65 835.45 745.2 814.05 754.4 792.65 763.65 775.35 771.35 Z"/>
</g>

<g id="Symbol_23_0_Layer0_0_FILL">
<path fill="#0083CB" stroke="none" d="
M 943.35 838.65
Q 942.15 836.05 941.4 832.95 940.6 829.9 939.6 827.1
L 939.2 826.4 938.9 826.25
Q 938.6 826.4 938.45 827.1 938.3 827.8 938.3 828.5 938.5 831.6 939.5 835.45 940.5 839.25 942.25 842.4 943.95 845.55 946.3 846.7 950.3 848.25 953.15 845.6 956 842.95 957.6 838.15 959.2 833.4 959.35 828.65 959.35 827.95 959.35 826.95 959.3 825.95 959.1 825.15 958.85 824.4 958.4 824.45 958.25 824.75 958.1 825.1
L 957.95 825.6
Q 957.35 827.6 957.1 829.8 956.8 831.95 956.3 834.1 955.15 838.55 953 841.25 950.85 843.95 948.25 843.6 945.7 843.25 943.35 838.65 Z"/>
</g>

<g id="Symbol_132_0_Layer0_0_FILL">
<path fill="#FFFFFF" stroke="none" d="
M 789.2 341.6
Q 785.8 347.35 777.75 359.8 769.7 372.25 759.95 387.45 750.2 402.65 741.65 416.8 733.1 430.9 728.8 440
L 777.9 447.45
Q 824.55 454 885.8 462.15 947 470.25 993.15 475.85
L 1028.15 479.8 1040.8 480.45 1033 470.6
Q 1027.2 463.4 1019.85 454.8 1012.5 446.25 1006.05 439.35 999.55 432.5 996.25 430.45
L 960.45 414.6
Q 929.2 401.1 889.65 384.25 850.05 367.4 820.4 354.85
L 789.2 341.6 Z"/>
</g>

<g id="Symbol_133_0_Layer0_0_FILL">
<path fill="#0081c6" stroke="none" d="
M 948.5 775.95
L 947.65 774.35
Q 947 773.2 946.1 771.85 945.15 770.45 944.2 769.45 943.55 769.35 943.4 769.9 943.2 770.4 943.1 770.9 942.5 773.7 942.9 775.4 943.3 777.15 944.35 778.65 945.4 780.15 946.8 782.25
L 947.45 783.9
Q 947.9 785.15 948.55 786.7 949.2 788.2 950 789.35 950.1 789.3 950.2 789.25 950.3 789.15 950.4 789.1 950.55 788.8 950.55 788.45 950.55 788.1 950.6 787.95 951.05 786.85 950.7 784.5 950.35 782.1 949.7 779.65 949 777.2 948.5 775.95
M 857.6 787
Q 857.85 787.25 858 787.3
L 862.75 787.8
Q 866.9 788.05 871.3 788.25
L 877.15 788.55
Q 877.6 788.6 878.7 788.75 879.75 788.85 880.85 788.8 882 788.7 882.7 788.2 882.5 788 882.25 787.8
L 881.9 787.55
Q 881.5 787.25 880.8 787 880.15 786.75 879.2 786.55 879.3 786.55 879.45 786.5 879.55 786.45 879.65 786.35 879.65 786.2 879.45 786.05 879.25 785.9 879.15 785.85 878.2 785.15 875.95 784.95 873.75 784.75 871.5 784.75 869.2 784.75 867.95 784.75
L 866.25 784.6
Q 864.9 784.5 863.75 784.3 863.5 784.3 863.3 784.4 863.05 784.5 862.95 784.65 862.5 784.65 862.05 784.6 861.6 784.6 861.25 784.55 861 784.55 860.65 784.75 860.3 784.95 860.2 785.15
L 860.25 785.25
Q 859.85 785.2 859.45 785.2 859.1 785.15 858.75 785.15 858.2 785.25 857.7 785.6 857.25 785.9 857.35 786.5 857.35 786.8 857.6 787
M 945.25 654.15
Q 938.05 671.65 932.85 689.8 927.7 707.95 924.55 728.45 923.7 733.8 923 738.9 922.3 743.95 921.85 748.85 922.25 748.7 922.65 748.6 923 748.45 923.3 748.4 923.6 748.45 923.95 748.5 924.35 748.6 924.45 748.7 926.05 750.4 927.55 754.9 929 759.35 930.3 764.4 931.55 769.45 932.4 772.9 933.05 772.8 933.95 772.85 934.8 772.9 935.85 773.1 935.85 770.65 936.75 767.85 937.65 765 939.7 763.35 941.8 761.65 945.45 762.65 946.95 763.4 948.45 764.65 949.95 765.9 951.1 767.1 952.25 768.3 952.6 768.85 953.95 770.75 955.7 773.9 957.4 777.1 958.65 780.3 959.95 783.5 959.9 785.5 961.1 785.2 962.45 784.9 963.85 784.6 965.35 784.3
L 966.55 784
Q 967.55 783.75 968.75 783.4 969.9 783.05 970.85 782.65 971.6 782.2 972.55 782 973.5 781.85 974.5 782 976.05 781 978.35 780.3 980.7 779.6 982.95 779.2 985.15 778.8 986.45 778.65 987.9 778.4 989.35 778.15 990.75 777.9 992.2 777.65 993.2 777.05 994.25 776.6 995.25 776.1 996.2 775.75 996.8 775.05 997.5 774.35 998.15 773.65 998.9 773 999.4 772.55 1000.2 771.9 1000.95 771.2 1001.9 770.9 1002.85 770.6 1003.85 771.15 1003.95 771.4 1004 771.65 1004.05 771.9 1004.1 772.15 1008.4 767.4 1012.6 762.65 1016.8 757.9 1022 754.15 1022.35 753.8 1022.75 753.5 1023.15 753.2 1023.5 753.7 1023.6 754.75 1023 755.85 1022.45 756.9 1021.8 757.7
L 1020.9 758.85
Q 1019.4 760.95 1017.9 762.85 1016.35 764.8 1014.75 766.6 1019.1 762.15 1023.05 757.5 1027 752.9 1031.25 748
L 1032.25 746.95
Q 1033 746.25 1034.05 745.45 1035.05 744.7 1036.05 744.3 1036.95 746.15 1035.5 748.95 1034.05 751.75 1032.15 754.05
L 1029.8 756.85
Q 1030.924609375 755.5935546875 1032.2 754.45
L 1032.6 754.15
Q 1032.95 753.95 1033.35 753.85 1033.95 755.45 1032.55 757.55 1031.2 759.7 1029.5 761.35
L 1027.45 763.35
Q 1027.3 763.5 1027.15 763.65 1027 763.8 1026.85 763.95 1026.35 764.5 1025.8 765.05 1025.2 765.55 1024.65 766.1 1023.65 767 1022.55 767.9 1021.5 768.8 1020.35 769.7 1018.95 770.8 1017.5 771.9 1016.05 772.95 1014.55 774 1013.65 774.6 1012.8 775.2 1011.9 775.8 1011.05 776.4 1010 777.1 1009 777.8 1008 778.45 1006.95 779.15 1005.7 780.1 1004.4 781 1003.1 781.95 1001.75 782.85 1001.2 783.2 1000.65 783.6 1000.1 783.95 999.5 784.3 1000.1 784.35 1000.7 784.45 1001.3 784.5 1001.9 784.65 1006.6 782.9 1010.9 780.95 1015.15 779.05 1018.5 777.25 1034.55 768.7 1047.3 757.35 1060.05 746 1069.45 732.45 1078.8 718.95 1084.65 703.7 1087.05 698.65 1089.05 693.2 1091 687.8 1092.5 682.15 1093.6 679.6 1094.25 676.65 1094.85 673.75 1095.15 670.7 1097.15 660 1097.85 648.95 1098.55 637.9 1098.05 626.85 1098.35 608.25 1094.65 589.55 1091 570.8 1082.55 552.15 1081.75 550.4 1080.95 548.65
L 1079.35 545.1
Q 1079.05 546.95 1079.75 549.2 1080.5 551.4 1080.8 553.5 1081.15 555.6 1079.6 557 1076.8 559.2 1075.45 557.5 1074.1 555.85 1073.45 552.75 1072.8 549.7 1072.15 547.6 1068.9 548.2 1066.75 544.4 1064.6 540.55 1063.3 535.4 1061.95 530.2 1061.15 526.7
L 1060.65 524.8
Q 1060.3 523.35 1059.85 521.55 1059.4 519.7 1059 518.25 1058.4 517.6 1057.45 517.85
L 1056.65 518.05 1056.2 518.1
Q 1054.05 516.8 1053.95 514.05 1053.85 511.3 1055.15 507.65 1034.95 521.35 1017.3 539.85 999.65 558.35 985.55 578.65 971.45 599 961.85 618.25 952.5 636.7 945.25 654.15
M 1089.15 689.8
Q 1089.4 688.9 1089.6 688.05 1089.8 687.15 1090.05 686.3
L 1090.2 686.05
Q 1090.3 685.95 1090.4 685.85 1090.1 686.85 1089.8 687.85 1089.5 688.8 1089.15 689.8
M 705.9 525.1
Q 705.65 524.6 705.35 524.15 705.2 523.95 705 523.85 704.8 523.75 704.6 523.75 704.25 523.35 704 523 703.7 522.65 703.4 522.3 702.15 521.75 702.45 522.5 702.7 523.2 703.55 524.55 703.5 524.7 703.5 525 703.5 525.35 703.55 525.75
L 702.85 524.1
Q 702.45 523.1 701.8 521.95 701.15 520.8 700.35 520 699.5 519.45 699.35 519.8 699.25 520.15 699.45 520.95 699.65 521.75 699.9 522.65 702 530.85 704.65 539.05 707.3 547.2 709.9 555.45 708.15 552.25 706.3 548.95 704.5 545.6 702.65 541.95 702.35 541.2 701.6 539.65 700.9 538.05 699.9 536.5 698.9 534.95 697.65 534.3 697.2 534.4 696.9 534.7 696.55 535 696.5 535.3
L 696.8 536.6 697.75 538.65
Q 698.95 541.15 700.4 543.7 701.85 546.25 702.55 547.35 703.15 548.35 703.75 549.35 704.3 550.3 704.85 551.3 704.65 551.2 704.45 551.2 704.25 551.2 704.1 551.3
L 704.15 553 705.2 556.25
Q 706.85 560.25 708.95 564.45 711.05 568.65 711.9 570.25
L 712.65 572.2
Q 713.15 573.75 714 575.5 714.8 577.25 716 578.45 717 583.5 717.55 588.65 718.15 593.75 718.1 598.9 717.65 603 717 607.4 716.4 611.8 715.45 615.9 714.55 619.95 713.3 623.15 712.95 625.25 712.45 627.35 711.95 629.45 711.25 631.65 710.95 632.85 710.6 634.05 710.3 635.25 709.9 636.4 709.85 636.65 709.8 636.9 709.75 637.2 709.7 637.45 709.65 637.8 709.55 638.1 709.5 638.45 709.45 638.8 708.7 642.35 707.95 645.7 707.25 649.1 706.3 652.65 705.8 654.5 705.25 656.3 704.65 658.1 704.05 659.9 702.6 663.1 701.35 666.4 700.05 669.75 699.05 671.6 696.8 675.65 695 681.45 693.15 687.25 692.4 693.8 692.55 695.3 692.75 696.8 693 698.25 693.3 699.8
L 693.35 699.9 693.4 700.15
Q 693.4 700.25 693.45 700.35 693.75 701.7 694.1 703.05 694.5 704.4 695 705.8 695.2 706.35 695.4 706.95 695.65 707.5 695.85 708.1 696.1 708.65 696.35 709.2 696.6 709.8 696.9 710.35 697.1 710.8 697.35 711.25 697.55 711.75 697.8 712.2
L 698.05 712.65
Q 698.15 712.9 698.3 713.1 698.9 714.15 700.35 716.4 701.75 718.65 703 720.85
L 703.9 722.75 704.2 723.95
Q 704.2 724.1 704.1 724.4 704 724.7 703.6 724.8
L 703.15 724.75
Q 703.25 724.9 703.35 725.05 703.5 725.2 703.6 725.35 704.45 725.9 706.05 727.05 707.65 728.15 709.55 729.6 711.3 728.15 712.45 726.4 713.65 724.7 714.2 724 722.9 715.3 728 709.45 733.15 703.65 735.8 697.7 738.5 691.8 739.95 682.75 745 665.75 746.25 647.5 747.55 629.25 744.55 610.75 741.6 592.25 733.8 574.55 732.15 570.85 730.3 567.55 728.45 564.2 726.5 561.15 725.8 557.65 724.75 554.6 723.65 551.5 721.95 549.15 720.85 547.6 719.85 545.8 718.85 543.95 718 542.05
L 717.25 540.4
Q 716.65 539.1 715.9 537.55 715.1 535.95 714.35 534.75 713.9 534.35 713.35 534.3 712.8 534.25 712.35 534.65 712.25 534.75 712.2 534.95 712.15 535.1 712.15 535.35 711.2 533.7 710.25 532.1 709.3 530.5 708.3 528.95
L 707.65 527.9
Q 707.1 527.15 706.4 526.15 706.15 525.6 705.9 525.1
M 723.55 564.3
L 723.45 564 723.55 564.15 723.55 564.3
M 709.7 543.15
Q 710.35 543.7 710.1 542.95 709.9 542.2 709.4 541 710 541.85 710.55 542.65 711.1 543.45 711.6 544.1 712.25 545.3 712.85 546.5 713.45 547.7 714.05 548.85 713.5 548.1 712.95 547.45 712.35 546.8 711.8 546.35 711.85 547.15 712.4 548.05
L 713.15 549.25
Q 715 553.9 716.5 558.25 718.05 562.6 719.3 566.8 719.2 566.65 719.05 566.45 718.95 566.3 718.8 566.15 717.1 564 716 561.05 714.9 558.15 713.95 555.05 712.95 551.95 711.65 549.2 711.6 549.1 711.5 548.95
L 711.3 548.55
Q 710.95 547.15 710.5 545.8 710.15 544.45 709.7 543.15
M 1056.6 503.4
Q 1056.65 503.6 1056.75 503.8 1056.85 503.65 1056.9 503.45 1057 503.3 1057.1 503.1 1056.95 503.05 1056.75 503 1056.6 503 1056.45 503.05 1056.5 503.25 1056.6 503.4
M 1103.3 488.7
Q 1103.05 489.15 1102.8 489.6 1103.35 489.3 1103.75 488.9 1104.2 488.5 1104.4 488 1104.25 487.95 1104.1 487.9 1103.95 487.85 1103.8 487.8 1103.55 488.25 1103.3 488.7
M 713.05 591.6
Q 713.15 591.9 713.25 592.2 713.25 591.75 713.3 591.25 713.3 590.8 713.3 590.3 713.15 590.45 713.05 590.6 712.95 590.75 712.95 591 713 591.3 713.05 591.6 Z"/>
</g>

<g id="Symbol_141_0_Layer0_0_FILL">
<path fill="#FFFFFF" stroke="none" d="
M 753.55 440.15
L 741.9 442.55
Q 730.9 445 717.6 451 704.3 456.95 696.75 467.4 689.15 477.85 695.3 493.7 699.75 503.55 706.2 517.75 712.7 531.95 718.6 550.05 724.5 568.2 727.2 589.8 727.75 594.95 726.3 603.55 724.85 612.1 722.15 622.4 719.5 632.7 716.4 642.95 713.3 653.2 710.55 661.7 708.45 667.75 705 674.3 701.6 680.8 698.5 688.3 695.4 695.75 694.35 704.65 693.3 713.55 695.95 724.35 701.2 739.45 734.8 752.7 768.45 765.95 813.65 775.5 858.85 785 898.75 789 938.7 792.95 956.55 789.4 975.15 785.55 992.8 780.25 1010.45 774.95 1026.6 765.15 1042.7 755.35 1056.6 737.95 1068.45 722.75 1076.5 702.4 1084.55 682.05 1088.55 659.25 1092.55 636.5 1092.15 613.95 1091.8 591.35 1086.8 571.7 1080.65 548.6 1073.15 532.75 1065.65 516.85 1058.5 507.15 1051.4 497.45 1046.4 492.8
L 1040.35 487.5 994.5 479.25
Q 951.75 472.1 896 463.1 840.25 454.05 798 447.3
L 753.55 440.15 Z"/>
</g>

<g id="Symbol_135_0_Layer0_0_FILL">
<path fill="#0081c6" stroke="none" d="
M 1049.25 310.15
L 1049 312.5
Q 1045.95 332.75 1042.2 348.2 1038.45 363.65 1032.4 376 1026.4 388.35 1016.35 399.3 1006.35 410.2 990.75 421.45 978.8 430.4 968.4 439.15 958 447.95 946.6 454.4 935.2 460.85 920.3 462.85 917.75 463.1 912.5 464.3 907.3 465.55 902.7 467.8 898.1 470.05 897.4 473.55
L 897.4 473.75 896.9 473.8
Q 897 474 897.1 474.2 897.2 474.35 897.35 474.55
L 897.35 474.8
Q 897.45 474.9 897.6 475 897.7 475.1 897.8 475.2 899.25 476.75 902.95 478.2 906.65 479.7 910.2 480.7
L 914.65 481.95
Q 924.4 484.65 936.2 485.2 948 485.75 961 483.65 973.95 481.6 987.35 476.35 999.65 471.35 1009.45 463.35 1019.2 455.35 1026.05 446 1032.9 436.6 1036.4 427.55 1040.65 416.5 1044.8 401.75 1048.95 387 1052.25 370.45 1055.5 353.9 1057.05 337.55 1058.65 321.15 1057.75 307 1057.65 304.8 1057.2 301.9 1056.75 298.95 1055.65 296.75 1054.5 294.55 1052.35 294.5 1051.85 295.8 1051.55 297.5 1051.3 299.2 1051.2 300.8 1051.1 302.4 1051.05 303.4 1051 303.25 1050.9 303.1 1050.8 302.95 1050.6 303 1050.05 304.35 1049.7 306.35 1049.4 308.4 1049.25 310.15 Z"/>
</g>

<g id="Symbol_136_0_Layer0_0_FILL">
<path fill="#0081c6" stroke="none" d="
M 983.4 221.9
Q 983.35 221.85 983.3 221.65 983.2 221.45 983.05 221.3 982.8 220.9 982.3 220.9 981.8 220.95 981.45 221.15 980.9 221.8 980.4 222.75 979.9 223.75 979.5 224.6
L 979 225.7
Q 978.8 226.1 978.55 226.5 978.35 226.95 978.1 227.35
L 977.85 227.3
Q 978.65 224.65 979.1 222.9
L 979.4 221.5 979.45 220.9
Q 979.3 220.75 979 220.8 978.7 220.9 978.65 221.05 978.2 221.85 977.75 222.95 977.35 224 977.05 224.9
L 976.65 226.1
Q 976.3 227.2 975.95 228.3 975.6 229.4 975.25 230.5 974.8 231.4 974.45 232.4 974.1 233.35 973.8 234.35 973.5 235.25 973.25 236.15 972.95 237.1 972.7 238 972.3 239 971.95 240.05 971.65 241.05 971.3 242.1 970.85 243.2 970.35 244.2 969.8 245.25 969.1 246.2
L 968.8 246.6
Q 968.55 246.95 968.5 247.35 968.3 247.6 968.2 247.95 968.15 248.25 968.3 248.6 969.3 248.75 970.3 248.1 971.35 247.45 972.3 246.35 972.55 246.1 972.75 245.8 972.95 245.55 973.15 245.3 973.6 244.7 973.95 244.15 974.35 243.55 974.65 243.05 976 241.15 977.2 239.25 978.4 237.35 979.6 235.15
L 980.35 233.85
Q 980.9 232.9 981.45 231.9 981.8 231.25 982 230.8
L 982.25 230.2 982.15 230.2
Q 982.65 229.5 982.9 228.8 983.15 228.1 982.6 227.7 982.25 227.7 981.95 228.05 981.6 228.4 981.35 228.8 981.25 228.65 981.1 228.6 980.95 228.55 980.8 228.5 981.95 226.2 982.7 224.35
L 983.25 222.85 983.4 221.9 Z"/>

<path fill="#FFFFFF" stroke="none" d="
M 1012.45 184.25
Q 1009.55 185.35 1007.8 188.35 1002.85 197.3 998.6 205 994.3 212.65 990.2 219.3 986.05 225.95 981.45 231.9 980.9 232.9 980.35 233.85
L 979.6 235.15
Q 978.4 237.35 977.2 239.25 976 241.15 974.65 243.05 974.35 243.55 973.95 244.15 973.6 244.7 973.15 245.3 972.95 245.55 972.75 245.8 972.55 246.1 972.3 246.35 971.35 247.45 970.3 248.1 969.3 248.75 968.3 248.6 968.15 248.25 968.2 247.95 968.3 247.6 968.5 247.35 968.55 246.95 968.8 246.6
L 969.1 246.2
Q 969.8 245.25 970.35 244.2 970.85 243.2 971.3 242.1 971.65 241.05 971.95 240.05 972.3 239 972.7 238 972.95 237.1 973.25 236.15 973.5 235.25 973.8 234.35 970.8 233.2 966.6 231.5 962.45 229.75 957.9 227.7 953.35 225.7 949.2 223.55 944.05 220.7 934.8 217.95 925.55 215.15 912.95 214.2 900.35 213.3 885.1 216 869.8 218.75 852.55 227 840.85 232.9 833.35 239.5 825.8 246.1 821.95 251.35
L 817.3 258.3
Q 812.95 267.05 807.85 285.25 802.75 303.45 798.15 323.75 793.55 344 790.75 358.9
L 788.65 370.6 788.15 375.95 789.35 379.6 792.45 386.35
Q 796.5 394.6 805.7 407.45 814.9 420.3 830.8 436.3 844.75 449.8 859.75 458.55 874.75 467.25 887.8 472.1 900.85 476.95 909 478.85 925.4 482.75 940.9 482.1 956.35 481.4 969.6 477.75 982.85 474.05 992.65 469.05 1002.5 464.05 1007.65 459.3 1018.75 449.15 1026.7 434.1 1034.65 419.05 1039.55 400.65 1044.4 382.25 1046.35 362 1048.3 341.75 1047.35 321.1 1046.05 295.55 1042.85 273.45 1039.65 251.4 1035.65 233.9 1031.65 216.45 1027.95 204.65 1024.3 192.85 1022.15 187.85 1020.8 184.9 1018.05 184 1015.3 183.1 1012.45 184.25 Z"/>
</g>

<g id="Symbol_26_0_Layer0_0_FILL">
<path fill="#FFFFFF" stroke="none" d="
M 889.05 162.7
Q 882.2 166.25 875.95 171.05 869.7 175.8 865.25 180.35 860.8 184.9 859.45 187.7 858.55 190.25 858.1 197.25 857.65 204.25 857.5 212.35 857.35 220.4 857.35 226.25
L 857.35 232.35 860.15 232.1
Q 862.8 231.85 866.3 231.45 869.8 231.05 872.55 230.65
L 874.75 230.25 875.7 229.95
Q 884.4 218.9 889.6 211 894.75 203.05 897.2 197.95 899.6 192.85 900.1 190.3 900.55 188.15 901.15 183.4 901.8 178.65 902.25 173.2 902.7 167.75 902.75 163.55
L 902.55 160.15 902 158.35
Q 895.85 159.15 889.05 162.7 Z"/>
</g>

<g id="Symbol_110_0_Layer0_0_FILL">
<path fill="#0083CB" stroke="none" d="
M 887.8 323.3
Q 885.7 321.95 883.15 321.75 880.6 321.6 878.25 322.65 875.95 323.7 874.05 325.75 872.15 327.8 870.95 330.6 869.7 333.35 869.35 336.65 869.05 339.95 869.7 342.85 870.35 345.8 871.8 348.05 873.25 350.35 875.35 351.7 877.45 353.1 880 353.3 882.55 353.45 884.85 352.4 887.2 351.3 889.1 349.25 891 347.2 892.2 344.45 893.45 341.65 893.8 338.35 894.1 335.05 893.45 332.15 892.8 329.25 891.35 326.95 889.85 324.7 887.8 323.3 Z"/>
</g>

<g id="Symbol_28_0_Layer0_0_FILL">
<path fill="#FFFFFF" stroke="none" d="
M 986.25 295.45
Q 983.9 288.7 978.35 283.8 972.85 278.85 963.05 277.05 953.1 275.55 946.15 278.6 939.15 281.7 934.5 287.45 929.85 293.25 927 299.8 924.15 306.3 922.45 311.7 931.35 312.7 942.55 314.6 953.75 316.45 965.55 318.7 977.3 320.9 987.9 323.05 988.85 316.6 988.7 309.4 988.55 302.15 986.25 295.45 Z"/>
</g>
</defs>



<g transform="matrix( -0.060455322265625, 0.09027099609375, 0.09027099609375, 0.060455322265625, 1040.65,-42.75) ">
<g transform="matrix( 1, 0, 0, 1, 0,0) ">
<use xlink:href="#Symbol_52_0_Layer0_0_FILL"/>
</g>
</g>

<g transform="matrix( -0.052825927734375, 0.1322784423828125, 0.1322784423828125, 0.052825927734375, 1045.2,-110.2) ">
<g transform="matrix( 1, 0, 0, 1, 0,0) ">
<use xlink:href="#Symbol_53_0_Layer0_0_FILL"/>
</g>
</g>

<g transform="matrix( -0.1278228759765625, 0.0649261474609375, 0.0983734130859375, 0.2549896240234375, 1122.35,-126.9) ">
<g transform="matrix( 1, 0, 0, 1, 0,0) ">
<use xlink:href="#Symbol_7_0_Layer0_0_FILL"/>
</g>
</g>

<g transform="matrix( -0.1129608154296875, 0.0867462158203125, 0.0867462158203125, 0.1129608154296875, 1109.6,-52.7) ">
<g transform="matrix( 1, 0, 0, 1, 0,0) ">
<use xlink:href="#Symbol_54_0_Layer0_0_FILL"/>
</g>
</g>

<g transform="matrix( 0.022369384765625, 0.1406707763671875, 0.1406707763671875, -0.022369384765625, 950.65,-42.65) ">
<g transform="matrix( 1, 0, 0, 1, 0,0) ">
<use xlink:href="#Symbol_55_0_Layer0_0_FILL"/>
</g>
</g>

<g transform="matrix( -0.0990142822265625, 0.102386474609375, 0.102386474609375, 0.0990142822265625, 1084.2,-46.95) ">
<g transform="matrix( 1, 0, 0, 1, 0,0) ">
<use xlink:href="#Symbol_56_0_Layer0_0_FILL"/>
</g>
</g>

<g transform="matrix( -0.0274658203125, 0.1397552490234375, 0.1397552490234375, 0.0274658203125, 1000.65,-61.45) ">
<g transform="matrix( 1, 0, 0, 1, 0,0) ">
<use xlink:href="#Symbol_137_0_Layer0_0_FILL"/>
</g>
</g>

<g transform="matrix( -0.1012725830078125, 0.1001434326171875, 0.1001434326171875, 0.1012725830078125, 1087.2,-45.35) ">
<g transform="matrix( 1, 0, 0, 1, 0,0) ">
<use xlink:href="#Symbol_58_0_Layer0_0_FILL"/>
</g>
</g>

<g transform="matrix( 1.0262298583984375, 0.24749755859375, -0.2773284912109375, -1.024169921875, -18.85,304.2) ">
<g transform="matrix( 1, 0, 0, 1, 0,0) ">
<use xlink:href="#Symbol_138_0_Layer0_0_FILL"/>
</g>
</g>

<g transform="matrix( 0.9928741455078125, -0.3402862548828125, 0.3402862548828125, 0.9928741455078125, -149.7,325.7) ">
<g transform="matrix( 1, 0, 0, 1, 0,0) ">
<use xlink:href="#Symbol_139_0_Layer0_0_FILL"/>
</g>
</g>

<g transform="matrix( 0.9928741455078125, -0.3402862548828125, 0.3402862548828125, 0.9928741455078125, -149.7,325.7) ">
<g transform="matrix( 1, 0, 0, 1, 0,0) ">
<use xlink:href="#Symbol_140_0_Layer0_0_FILL"/>
</g>
</g>

<g transform="matrix( 0.6408538818359375, -0.2014312744140625, 0.1974334716796875, 0.6262359619140625, 119,393.85) ">
<g transform="matrix( 1, 0, 0, 1, 0,0) ">
<use xlink:href="#Symbol_109_0_Layer0_0_FILL"/>
</g>
</g>

<g transform="matrix( -0.3697052001953125, -0.5546875, 0.558074951171875, -0.3712921142578125, 1034.8,1370.6) ">
<g transform="matrix( 1, 0, 0, 1, 0,0) ">
<use xlink:href="#Symbol_98_0_Layer0_0_FILL"/>
</g>
</g>

<g transform="matrix( -0.3697052001953125, -0.5546875, 0.558074951171875, -0.3712921142578125, 1034.8,1370.6) ">
<g transform="matrix( 1, 0, 0, 1, 0,0) ">
<use xlink:href="#Symbol_131_0_Layer0_0_FILL"/>
</g>
</g>

<g transform="matrix( -0.665618896484375, -0.0564727783203125, -0.030609130859375, 0.6687469482421875, 1469,275.75) ">
<g transform="matrix( 1, 0, 0, 1, 0,0) ">
<use xlink:href="#Symbol_19_0_Layer0_0_FILL"/>
</g>
</g>

<g transform="matrix( 0.635955810546875, -0.111236572265625, 0.190643310546875, 0.7113037109375, 251.7,356.3) ">
<g transform="matrix( 1, 0, 0, 1, 0,0) ">
<use xlink:href="#Symbol_51_0_Layer0_0_FILL"/>
</g>
</g>

<g transform="matrix( 0.76824951171875, 0.0839996337890625, 0.0774993896484375, 0.879547119140625, 119.5,17.9) ">
<g transform="matrix( 1, 0, 0, 1, 0,0) ">
<use xlink:href="#Symbol_126_0_Layer0_0_FILL"/>
</g>
</g>

<g transform="matrix( 0.7477569580078125, 0.208160400390625, 0.0806884765625, 0.82818603515625, 10.6,-40.6) ">
<g transform="matrix( 1, 0, 0, 1, 0,0) ">
<use xlink:href="#Symbol_22_0_Layer0_0_FILL"/>
</g>
</g>

<g transform="matrix( 0.6864013671875, -0.0161895751953125, 0.2445831298828125, 0.89959716796875, 136.85,85.35) ">
<g transform="matrix( 1, 0, 0, 1, 0,0) ">
<use xlink:href="#Symbol_101_0_Layer0_0_FILL"/>
</g>
</g>

<g transform="matrix( 0.6864013671875, -0.0161895751953125, 0.2445831298828125, 0.89959716796875, 136.85,85.35) ">
<g transform="matrix( 1, 0, 0, 1, 0,0) ">
<use xlink:href="#Symbol_102_0_Layer0_0_FILL"/>
</g>
</g>

<g transform="matrix( 0.7353363037109375, 0.0272674560546875, 0.192962646484375, 0.82415771484375, 127.3,126.55) ">
<g transform="matrix( 1, 0, 0, 1, 0,0) ">
<use xlink:href="#Symbol_23_0_Layer0_0_FILL"/>
</g>
</g>

<g transform="matrix( 0.3773345947265625, -0.060882568359375, 0.154541015625, 0.6245269775390625, 428.95,336.1) ">
<g transform="matrix( 1, 0, 0, 1, 0,0) ">
<use xlink:href="#Symbol_132_0_Layer0_0_FILL"/>
</g>
</g>

<g transform="matrix( -0.6281890869140625, -0.137664794921875, -0.0515289306640625, 0.704559326171875, 1446.2,348.95) ">
<g transform="matrix( 1, 0, 0, 1, 0,0) ">
<use xlink:href="#Symbol_133_0_Layer0_0_FILL"/>
</g>
</g>

<g transform="matrix( -0.6281890869140625, -0.137664794921875, -0.0515289306640625, 0.704559326171875, 1446.2,348.95) ">
<g transform="matrix( 1, 0, 0, 1, 0,0) ">
<use xlink:href="#Symbol_141_0_Layer0_0_FILL"/>
</g>
</g>

<g transform="matrix( 0.7669525146484375, 0.019866943359375, -0.04815673828125, 0.6697540283203125, 193.25,234.9) ">
<g transform="matrix( 1, 0, 0, 1, 0,0) ">
<use xlink:href="#Symbol_135_0_Layer0_0_FILL"/>
</g>
</g>

<g transform="matrix( 0.7669525146484375, 0.019866943359375, -0.04815673828125, 0.6697540283203125, 193.25,234.9) ">
<g transform="matrix( 1, 0, 0, 1, 0,0) ">
<use xlink:href="#Symbol_136_0_Layer0_0_FILL"/>
</g>
</g>

<g transform="matrix( 0.6161956787109375, 0.2131805419921875, -0.034820556640625, 0.6506195068359375, 305.75,76.15) ">
<g transform="matrix( 1, 0, 0, 1, 0,0) ">
<use xlink:href="#Symbol_26_0_Layer0_0_FILL"/>
</g>
</g>

<g transform="matrix( -0.5493316650390625, -0.01837158203125, -0.0311126708984375, 0.6246337890625, 1371.45,280.25) ">
<g transform="matrix( 1, 0, 0, 1, 0,0) ">
<use xlink:href="#Symbol_110_0_Layer0_0_FILL"/>
</g>
</g>

<g transform="matrix( 0.6309051513671875, 0.0879669189453125, -0.0802764892578125, 0.6360321044921875, 238.55,174.2) ">
<g transform="matrix( 1, 0, 0, 1, 0,0) ">
<use xlink:href="#Symbol_28_0_Layer0_0_FILL"/>
</g>
</g>
</svg>
