
<svg xmlns="http://www.w3.org/2000/svg" version="1.1" xmlns:xlink="http://www.w3.org/1999/xlink" preserveAspectRatio="none" x="0px" y="0px" width="760px" height="880px" viewBox="620 10 760 880">
<defs>


<g id="Symbol_81_0_Layer0_0_FILL">
<path fill="#a6ce38" stroke="none" d="
M 1026 343.75
Q 1003 339.2 981.85 338 960.65 336.75 947 337.1
L 932.85 337.55 926.05 351.8
Q 919.65 365.2 912.45 380.3 905.25 395.35 902.4 401.45
L 1083.25 425.1 1080.9 414.7
Q 1078.7 404.8 1075.8 391.7 1072.85 378.65 1070.6 368.6
L 1068.15 357.75
Q 1049 348.25 1026 343.75 Z"/>
</g>

<g id="Symbol_82_0_Layer0_0_FILL">
<path fill="#a6ce38" stroke="none" d="
M 1001.3 267.15
Q 985.7 268.95 976.15 274.55 966.6 280.1 962.25 285.1 957.65 290.25 949.25 304.95 940.85 319.65 934.05 333.65
L 928.95 344.9 927.3 350.7
Q 928.8 356.4 938.95 362.55 949.05 368.7 963.35 373.65 977.6 378.55 991.55 380.55 1008.1 382.65 1024.7 381.35 1041.25 380.05 1053.4 375.85 1065.55 371.6 1068.75 365
L 1067.35 336.85
Q 1065.85 316.35 1059.65 296.65 1053.45 276.95 1039.5 271.65 1016.95 265.35 1001.3 267.15 Z"/>
</g>

<g id="Symbol_71_0_Layer0_0_FILL">
<path fill="#a6ce38" stroke="none" d="
M 1106.5 326.35
Q 1113.75 318.9 1118.6 311
L 1115.05 308.9 1104.95 304.7
Q 1091.55 299.45 1068.2 297.6
L 1071.15 308.1
Q 1074.2 317.9 1077.85 329.4 1081.5 340.9 1083.4 346.7 1086.05 344.75 1092.65 339.3 1099.2 333.8 1106.5 326.35 Z"/>
</g>

<g id="Symbol_72_0_Layer0_0_FILL">
<path fill="#a6ce38" stroke="none" d="
M 1015.35 632
L 973.55 634.3 989 819.4 1015.35 632 Z"/>
</g>

<g id="Symbol_74_0_Layer0_0_FILL">
<path fill="#a6ce38" stroke="none" d="
M 751.55 592.25
L 718.45 576.8
Q 687.05 562.15 645.65 542.85 604.3 523.5 572.7 508.8
L 539.2 493.2
Q 537.15 510.95 537.9 538.7 538.7 566.45 541.8 594.1 544.95 621.75 550 639.2
L 586.15 638.95
Q 620.1 638.6 664.5 638.05 708.95 637.45 742.65 637
L 778.15 636.55
Q 771.55 625.4 765 614.65 758.45 603.85 751.55 592.25 Z"/>
</g>

<g id="Symbol_83_0_Layer0_0_FILL">
<path fill="#a6ce38" stroke="none" d="
M 901.15 445.75
L 891.7 448.25
Q 889.7 457.4 886.75 475.35 883.85 493.25 879.3 517.4 874.75 541.6 867.8 569.4 861.8 594.3 852.3 620.3 842.8 646.3 826.1 671.9 809.4 697.5 781.8 721.2
L 794.4 723.05 817.75 720.6
Q 846.5 716.05 887.8 703.55 929.1 691.05 974.1 671.2 1027.05 647.2 1057.7 622.85 1088.35 598.55 1102 574.15 1115.65 549.75 1117.6 525.6 1119.75 500.15 1117.15 475.2 1114.55 450.2 1111.05 433.25
L 1106.85 415.15 1073.25 419.65
Q 1041.4 424.05 999.5 430.2 957.6 436.3 925.65 441.5
L 901.15 445.75 Z"/>
</g>

<g id="Symbol_77_0_Layer0_0_FILL">
<path fill="#0083CB" stroke="none" d="
M 1022.3 307.6
L 1020.35 307 1018.3 306.75 1016.25 307 1014.35 307.6 1012.55 308.65 1011.05 309.95 1009.75 311.65 1008.85 313.5 1008.25 315.5 1008.1 317.6 1008.25 319.65 1008.85 321.65 1009.75 323.55 1011.05 325.2 1012.55 326.55 1014.35 327.55 1016.25 328.2 1018.3 328.4 1020.35 328.2 1022.3 327.55 1024.05 326.55 1025.55 325.2 1026.85 323.55 1027.8 321.65 1028.35 319.65 1028.55 317.6 1028.35 315.5 1027.8 313.5 1026.85 311.65 1025.55 309.95 1024.05 308.65 1022.3 307.6 Z"/>
</g>

<g id="Symbol_78_0_Layer0_0_FILL">
<path fill="#a6ce38" stroke="none" d="
M 1032.8 313.4
L 1032.05 308.55
Q 1031.2 304.1 1028.4 299.6 1025.6 295.15 1019.9 294.9 1013.25 295.25 1010 300.8 1006.75 306.3 1006.1 313.2
L 1032.8 313.4 Z"/>
</g>

<g id="Symbol_67_0_Layer0_0_FILL">
<path fill="#DF4444" stroke="none" d="
M 988.9 609.95
L 988.75 609.9 988.9 610
Q 989.25 610.25 989.6 610.7 990 611.15 989.6 611.35
L 990.85 611.5 991.2 611.35 990.55 610.8 988.9 609.95 Z"/>

<path fill="#FFFFFF" stroke="none" d="
M 1049.7 265.7
Q 1044.3 252.55 1040.7 245.7
L 1032.05 328.15 1032.4 329.15 1031.8 331.2 1027.75 338.2
Q 1021.85 347.2 1010.25 359.6 998.7 372 983.45 383.25 976.65 387.75 963.65 390.1 950.6 392.5 935.3 395 920.05 397.55 906.55 402.45 893.05 407.35 885.35 416.8 875.9 429.45 872.35 447.25 868.8 465.05 871.2 485.55 873.6 506.05 882 526.8 886.7 538 895.45 550.65 904.2 563.25 915.1 575.2 926 587.15 937.15 596.2 948.3 605.3 957.85 609.4 967.4 613.4 972.95 614.45 978.5 615.5 982.15 614.5 985.8 613.5 989.6 611.35 989.15 611.3 989 610.95 988.8 610.6 988.9 610
L 988.75 609.9 988.9 609.95 985.95 605.75 977.9 597.7
Q 967.25 587.7 954.05 572.5 940.8 557.3 932.75 539.5 924.7 521.65 929.55 503.75 931.05 499.75 940.5 499.05 949.95 498.3 964.35 498.9 978.7 499.5 994.95 499.5 1011.2 499.5 1026.35 497 1038.15 494.6 1046.8 487.45 1055.5 480.3 1061.35 471.45 1067.2 462.6 1070.65 455.15 1074.1 447.7 1075.4 444.75 1077.95 439.15 1077.55 424.55 1077.2 409.95 1075.15 391.05 1073.15 372.1 1070.6 353.45 1068.1 334.85 1066.35 321.2 1064.65 308.75 1059.85 293.8 1055.1 278.8 1049.7 265.7 Z"/>
</g>

<g id="Symbol_60_0_Layer0_0_FILL">
<path fill="#0081c6" stroke="none" d="
M 1016.9 219.15
Q 1016.15 218.9 1015.4 218.75 1013.8 218.45 1012.45 218.15 1011.05 217.8 1009.55 217.4 1008.35 217.15 1006.85 217.1 1005.35 217.05 1004 216.9
L 1003.15 216.75
Q 1002.45 216.6 1001.85 216.5 1001.85 216.9 1001.85 217.35
L 1001.8 217.95
Q 1001.75 221.2 1001.75 224.45 1001.7 227.75 1001.45 230.95 1001.1 235.75 1001.35 240.75 1001.6 245.75 1001.75 250.6 1001.9 262.75 1001.85 274.95 1001.8 287.1 1002.1 299.25 1002.45 314.95 1002.2 330.65 1002 346.4 1001.9 362.1 1001.85 377.85 1002.65 393.5 1002.75 396.5 1002.95 399.6 1003.2 402.7 1004.2 405.55
L 1004.35 406 1004.7 406.7
Q 1005.1 407.5 1005.55 408.2 1005.95 408.7 1006.55 409.05 1007.2 409.35 1007.75 409.2 1009.15 408.6 1009.35 407.25 1009.5 405.9 1009.5 404.55 1010.25 391.05 1010.65 377.45 1011 363.85 1011.2 350.3 1011.25 343.75 1011.5 337.4 1011.8 331.05 1012.5 324.55 1013.1 319.55 1013.8 314.6 1014.55 309.65 1015.4 304.75 1015.5 304.35 1015.55 303.95 1015.6 303.5 1015.7 303.1
L 1015.85 302.1
Q 1016 301.3 1016.1 300.6 1016.1 301.05 1016.1 301.6
L 1016.05 302.05 1016.05 302.25
Q 1016 307.15 1016.2 312 1016.35 316.85 1016.25 321.75 1016.1 328.15 1015.75 334.6 1015.45 341.05 1015.55 347.45 1015.65 353.9 1016.7 360.25 1017 361.9 1017.25 363.4 1017.5 364.9 1017.5 366.55 1017.45 368.05 1017.4 369.5 1017.3 371 1017.35 372.5 1017.35 372.8 1017.4 373.25 1017.4 373.7 1017.5 374
L 1017.95 374.8 1018.3 375.1 1018.55 374.9 1018.75 374.2
Q 1018.75 374.65 1018.75 375.15
L 1018.75 375.75
Q 1018.65 382.2 1018.4 388.6 1018.15 395.05 1018.45 401.5 1018.5 403.85 1018.6 406.25 1018.65 408.65 1019.4 410.95
L 1019.7 411.75
Q 1020 412.35 1020.35 412.8 1020.8 412.5 1021.25 412.1
L 1021.8 411.55
Q 1023.05 409.85 1023.25 407.2 1023.5 404.6 1023.25 401.85 1023 399.1 1022.9 397.15 1022.8 392.65 1023 388 1023.2 383.35 1023.3 378.8 1023.7 364.9 1023.85 351 1024.05 337.1 1023.45 323.2 1023.3 320.75 1023.2 318.3 1023.05 315.9 1023 313.45 1022.9 304.75 1022.8 296.1 1022.7 287.4 1022.7 278.75 1022.6 267.1 1022.2 255.45 1021.75 243.8 1021.25 232.2 1021.15 229.9 1021 227.55 1020.85 225.2 1020.6 222.9 1020.6 222.5 1020.55 222.1 1020.45 221.75 1020.4 221.35 1020.2 220.55 1020.05 220.3 1019.85 220.05 1019.5 220 1019.15 219.9 1018.4 219.7 1017.65 219.4 1016.9 219.15 Z"/>
</g>

<g id="Symbol_61_0_Layer0_0_FILL">
<path fill="#FFFFFF" stroke="none" d="
M 1016.75 227.15
L 1016.75 225.95
Q 1016.7 225 1016.7 224.15 1016.25 224.2 1015.7 224.25
L 1011.55 224.45
Q 1009.85 224.55 1008.15 224.7 1007.7 224.7 1007.3 224.75 1006.85 224.75 1006.4 224.8
L 1005.4 224.85
Q 1004.55 224.9 1003.85 224.95 1003.85 225.4 1003.85 225.95
L 1003.85 226.65
Q 1004.2 272.6 1004.15 318.55 1004.1 364.5 1004.4 410.45 1004.7 448.25 1004.55 486.15 1004.35 524 1004.2 561.85 1003.95 613.75 1003.05 665.6 1002.1 717.5 1000.95 769.35 1000.7 779.85 1000.45 790.3 1000.2 800.75 999.95 811.2
L 999.9 811.65 999.9 812.35
Q 999.85 813.3 999.85 814.05 999.85 814.5 999.85 815
L 999.8 815.45 999.8 815.65
Q 999.8 816.45 999.8 817.25 999.75 818.1 999.75 818.9 999.75 819.3 999.7 819.75 999.7 820.15 999.7 820.6
L 999.65 821.85
Q 999.65 822.8 999.6 823.6
L 1001.05 823.5 1001.3 823.5
Q 1004.6 823.2 1007.95 822.95 1011.3 822.7 1014.65 822.45
L 1015.65 822.35
Q 1016.45 822.3 1017.15 822.25 1017.15 821.8 1017.15 821.3
L 1017.15 820.65
Q 1018.1 777.35 1018.65 734.05 1019.2 690.7 1019.45 647.4 1020 547.4 1019.1 447.4 1018.15 347.35 1016.95 247.35 1016.95 242.3 1016.9 237.25 1016.85 232.2 1016.75 227.15 Z"/>
</g>

<g id="Symbol_68_0_Layer0_0_FILL">
<path fill="#0081c6" stroke="none" d="
M 428.55 652.2
Q 428.6 652.35 428.65 652.5 428.65 652.7 428.7 652.9 428.75 653.1 428.75 653.15 428.95 654.2 429 654.9 429.05 655.55 428.85 656.2 428.7 656.85 428.2 657.8 428.15 657.85 428.1 658 428 658.1 428 658.2 427.95 658.35 428.05 658.4
L 428.15 658.35
Q 428.1 658.55 428.05 658.7 428 658.85 428.05 658.9 428.05 658.95 428.05 659 428.05 659.05 428.15 659.05 428.3 659 428.4 658.8 428.441796875 658.7162109375 428.45 658.6 428.4728515625 658.695703125 428.5 658.75 428.85 658.65 429.1 658.2 429.3 657.75 429.4 657.3
L 429.45 656.95 429.5 656.75
Q 429.6 656.2 429.6 655.4 429.6 654.55 429.5 653.65 429.35 652.75 429.1 652 428.8 651.25 428.4 650.85 428.35 650.85 428.35 650.8 428.3 650.75 428.2 650.8 428.15 650.95 428.2 651.15 428.3 651.35 428.4 651.55 428.5 651.75 428.55 651.85 428.5 652 428.55 652.2
M 428.8 657.75
Q 428.8 657.9 428.75 658.05 428.65 658.2 428.6 658.35
L 428.5 658.45
Q 428.53828125 658.40859375 428.55 658.35 428.65 658.15 428.65 658.05
L 428.8 657.75 Z"/>
</g>

<g id="Symbol_19_0_Layer0_0_FILL">
<path fill="#FFFFFF" stroke="none" d="
M 656.95 766.95
L 648.9 766.15
Q 647.3 766.15 646.3 767.25 645.25 768.35 645.2 769.8 645.15 771.3 646.5 772.5
L 649.1 773.9 654.55 776.1
Q 661.45 778.7 672.95 780.7 684.4 782.7 699.15 781.9 713.85 781.15 730.65 775.45 742.3 771.1 752.6 762.8 762.95 754.5 770.9 745.45 778.9 736.4 783.5 729.9
L 788.3 722.65 787.25 721.25 784.35 718.45
Q 780.55 714.95 775.95 710.9 771.3 706.9 768.6 704.6 766.5 707.95 761.25 715.5 756 723 748.5 732 741.05 741.05 732.35 748.9 723.6 756.75 714.6 760.8 704.7 764.9 693.85 766.4 683 767.85 673.25 767.75 663.55 767.6 656.95 766.95 Z"/>
</g>

<g id="Symbol_84_0_Layer0_0_FILL">
<path fill="#0081c6" stroke="none" d="
M 1110.1 713.5
Q 1107.55 711.8 1105.45 710.45 1104.9 710.35 1104.35 710.75 1103.8 711.25 1103.75 711.9 1104.1 715.75 1109.1 717.65 1114.1 719.5 1116.95 719.85
L 1120.05 721.4
Q 1122.3 722.65 1124.35 721.9 1124.75 717.6 1120.55 716.85 1116.35 716.15 1113.65 715.65
L 1110.1 713.5 Z"/>
</g>

<g id="Symbol_21_0_Layer0_0_FILL">
<path fill="#FFFFFF" stroke="none" d="
M 1093.3 494.05
Q 1082.65 480.05 1069.2 466.9 1055.75 453.75 1042 445.7 1028.3 437.65 1016.75 438.9 1002.5 441.1 995.35 447.25 988.15 453.4 985.75 461.55 983.35 469.7 983.55 478 983.7 486.25 984.15 492.7
L 986.3 509.1 991.4 536.4
Q 998 569.15 1007.1 610.8 1016.2 652.4 1024.4 690.05 1032.6 727.7 1036.55 748.45
L 1039.1 750.6 1044.05 753.35
Q 1050.2 756.4 1059.35 758.85 1068.55 761.25 1079 761.2 1093.9 760.8 1102.45 758.3 1111.05 755.75 1114.65 753.05
L 1117.4 750.7 1118.35 749.2
Q 1128.35 700.1 1129.95 660.85 1131.55 621.65 1127.95 592.6 1124.4 563.55 1118.95 545 1113.45 526.45 1109.35 518.75 1103.95 508.05 1093.3 494.05 Z"/>
</g>

<g id="Symbol_50_0_Layer0_0_FILL">
<path fill="#0081c6" stroke="none" d="
M 990.1 184.1
L 989.25 183.7
Q 984.15 182 979.5 181.25 974.8 180.55 969.95 180.2 965.4 179.85 960.8 180.25 956.15 180.6 951.35 181.4 950.9 181.45 950.5 181.55 950.1 181.7 949.75 181.85 948.6 182.1 947.55 182.75
L 946.75 183.3 946.45 183.55
Q 943.75 185.7 941.35 188.3 939 190.85 936.65 193.4 932.75 197.55 929.1 201.85 925.5 206.15 921.9 210.45 920.85 211.8 921.2 213 921.6 214.2 922.85 214.4 924.1 214.55 925.65 212.95
L 926.4 212.1
Q 926.75 211.7 927.15 211.25 927.3 212.25 928.25 213.05 929.25 213.9 930.15 214.4 928.4 215 928.1 216.1 927.85 217.25 928.85 218.1 929.85 218.9 931.95 218.6 935.95 217.85 940 217.2 944.05 216.55 948.05 215.8 952.65 214.95 957.2 213.95 961.7 213 966.25 212 966.65 211.95 966.95 211.8 967.25 211.65 967.55 211.5 968 211.4 968.55 211.15 969.05 210.95 969.65 210.5 972.35 208.7 975.1 206.55 977.85 204.35 980.35 202.15 983.75 199.15 986.7 195.8 989.65 192.5 992.85 189.25 993.8 188.3 993.85 187.25 993.9 186.15 992.7 185.3
L 992.25 185.15 991.7 184.8
Q 991.45 184.65 991.3 184.6 990.75 184.4 990.1 184.1 Z"/>
</g>

<g id="Symbol_51_0_Layer0_0_FILL">
<path fill="#FFFFFF" stroke="none" d="
M 985.85 192.35
L 988.05 188.95 988.85 186.9
Q 984.8 184.8 978.9 183.9 972.95 183.05 966.7 183.05 960.45 183.1 955.45 183.75 950.4 184.4 948.15 185.35 946.3 186.4 942.55 190.3 938.8 194.2 934.75 198.95 930.65 203.7 927.75 207.15
L 924.7 210.8 926.7 212.15
Q 928.55 213.35 930.55 214.55
L 932.15 215.45 933 215.75
Q 944.4 213.9 951.85 212.6 959.25 211.3 963.9 210 968.55 208.75 971.65 207 975 204.95 979 200.7 982.95 196.4 985.85 192.35 Z"/>
</g>

<g id="Symbol_35_0_Layer0_0_FILL">
<path fill="#FFFFFF" stroke="none" d="
M 743.95 723.9
L 746.1 751.05
Q 748.15 776.85 750.85 810.8 753.5 844.75 755.6 870.6
L 757.8 897.9
Q 761.75 905.15 778.45 908.7 795.15 912.25 816.35 912.15 837.6 912 855.15 908.2 872.75 904.4 878.45 896.95
L 881.8 873.6
Q 884.9 851.45 888.95 822.35 893.05 793.25 896.15 771.1
L 899.5 747.65
Q 889.65 737.65 870.6 730.3 851.55 722.95 828.35 719.25 805.1 715.55 782.75 716.45 760.4 717.35 743.95 723.9 Z"/>
</g>

<g id="Symbol_22_0_Layer0_0_FILL">
<path fill="#0083CB" stroke="none" d="
M 943.65 840.8
Q 942.6 838.75 942.2 837.35 941.45 834.6 941.05 831.85 940.7 829.05 940.15 826.35
L 939.65 824.85 939.1 824.45
Q 938.5 824.55 938.05 825.8 937.65 827 937.65 828.25 937.8 831.4 938.75 835.75 939.7 840.1 941.85 843.7 943.95 847.3 947.65 848.15 951.1 848.6 953.45 845.55 955.8 842.55 957.1 838.5 958.4 834.45 958.75 831.75 958.9 830.75 958.95 828.85 959 826.95 958.7 825.25 958.4 823.5 957.45 822.95
L 957.25 822.9
Q 957.1 822.9 957.05 822.95 956.7 823.3 956.6 823.8
L 956.45 824.5
Q 956.2 826.4 956.15 828.4 956.15 830.4 955.8 832.35 955.5 834.05 954.65 836.85 953.8 839.65 952.5 842.15 951.2 844.6 949.5 845.25 947.75 845.7 946.2 844.3 944.7 842.85 943.65 840.8 Z"/>
</g>

<g id="Symbol_36_0_Layer0_0_FILL">
<path fill="#FFFFFF" stroke="none" d="
M 803.6 759.1
L 808.35 780.8
Q 812.85 801.4 818.85 828.5 824.8 855.6 829.4 876.25
L 834.3 898
Q 840.35 902.2 856.75 905.3 873.15 908.4 893 909.25 912.85 910.15 929.4 907.7 945.9 905.2 952.25 898.3 954.3 870 953.6 841.45 952.95 812.85 951.05 788.8 949.1 764.75 947.4 750.05
L 945.7 734.75
Q 926.55 729.2 908.35 729.4 890.1 729.55 872.55 733.8 855 738.05 837.8 744.8 820.65 751.55 803.6 759.1 Z"/>
</g>

<g id="Symbol_23_0_Layer0_0_FILL">
<path fill="#0083CB" stroke="none" d="
M 943.35 838.65
Q 942.15 836.05 941.4 832.95 940.6 829.9 939.6 827.1
L 939.2 826.4 938.9 826.25
Q 938.6 826.4 938.45 827.1 938.3 827.8 938.3 828.5 938.5 831.6 939.5 835.45 940.5 839.25 942.25 842.4 943.95 845.55 946.3 846.7 950.3 848.25 953.15 845.6 956 842.95 957.6 838.15 959.2 833.4 959.35 828.65 959.35 827.95 959.35 826.95 959.3 825.95 959.1 825.15 958.85 824.4 958.4 824.45 958.25 824.75 958.1 825.1
L 957.95 825.6
Q 957.35 827.6 957.1 829.8 956.8 831.95 956.3 834.1 955.15 838.55 953 841.25 950.85 843.95 948.25 843.6 945.7 843.25 943.35 838.65 Z"/>
</g>

<g id="Symbol_45_0_Layer0_0_FILL">
<path fill="#0081c6" stroke="none" d="
M 945.25 654.15
Q 938.05 671.65 932.85 689.8 927.7 707.95 924.55 728.45 922.65 740.05 921.65 750.6 920.65 761.15 921.7 771.85 922.75 782.55 926.95 794.65
L 927.6 796.35
Q 928.05 797.6 928.6 799.15 929.2 800.7 929.7 802.1 928.65 802.55 927.65 803 926.65 803.45 925.65 803.9
L 923.8 804.7
Q 922.35 805.35 921.3 806 923 806.2 925.15 805.75 927.35 805.25 929.15 804.65
L 931.6 803.85
Q 959.2 796.3 983.75 787.9 1008.3 779.45 1028.7 767.25 1049.1 755 1064.25 735.95 1079.35 716.95 1088.1 688.1 1094.75 666.05 1097.1 643.45 1099.45 620.8 1096.15 597.9 1092.85 575 1082.55 552.15 1077.6 541.1 1072.35 530.15 1067.1 519.15 1060.95 508.8 1069.7 503.3 1079.1 498.8 1088.5 494.35 1098.65 491.15 1099.15 491 1100.35 490.65 1101.55 490.25 1102.75 489.65 1103.95 489 1104.4 488 1103.1 487.45 1101.8 487.65 1100.5 487.85 1099.2 487.9 1097.6 488.15 1095.7 488.6 1093.8 489.05 1092.25 489.45
L 1090.25 490
Q 1082.15 492.75 1074.3 496.6 1066.4 500.45 1058.8 505.3
L 1058.8 505.25 1058.3 504.4
Q 1057.9 503.7 1057.3 503.3 1057.1 503.1 1056.9 503.05 1056.65 503 1056.45 503.05 1056.7 503.7 1057 504.4 1057.35 505.15 1057.7 505.95 1036.95 519.55 1018.8 538.3 1000.65 557.05 986.15 577.8 971.65 598.6 961.85 618.25 952.5 636.7 945.25 654.15
M 756.7 628.45
L 756.55 627.25
Q 756.45 626.35 755.95 625.65 755.85 625.5 755.85 625.35 755.85 625.2 755.8 625.05 755.55 625.8 755.9 627.65 756.25 629.45 756.65 631.1
L 757.15 632.9
Q 757.5 634.65 757.8 636.45 758.1 638.2 758.35 639.95 758.2 639.85 758.1 639.8 757.95 639.7 757.85 639.6 757.1 639.25 756.2 639.3 755.25 639.4 755.2 640.35 755.55 641.15 756.05 642 756.6 642.85 757.25 643.75 757.25 645.25 757.45 646.65
L 757.7 648.5
Q 758.2 652.7 758.8 656.4 759.45 660.1 759.65 664.25 759.7 665.1 759.75 667.4 759.75 669.7 759.9 672.1 760.05 674.5 760.35 675.75 760.4 677 760.45 678
L 760.5 679.3
Q 761.1 688.1 760.3 696.45 759.55 704.85 758.4 713.1 757.95 715.6 757.6 718.15 757.3 720.75 757.3 723.65 756.65 730.9 757.05 738.3 757.4 745.75 759.5 753.55 759.8 754.65 760.65 756.8 761.55 759 762.8 761.7 765.45 769.1 770.1 775.65 774.75 782.25 781.2 787.35 781.55 787.65 782.35 788.25 783.15 788.85 784.15 789.35 785.15 789.85 786.1 789.85 785.65 788.8 784.65 787.7 783.65 786.55 782.75 785.65
L 781.45 784.45
Q 780.5 783.5 779.65 782.5 778.75 781.55 777.95 780.65 779.15 779.65 780.5 778.15 781.8 776.6 782.85 775.3 783.9 773.95 784.3 773.4 790.35 764.65 794.05 758.7 797.7 752.8 799.35 747.3 801 741.8 800.95 734.45 800.95 727.1 799.7 715.5 798.5 702.9 795.7 692.8 792.9 682.7 787.55 673.55 782.15 664.45 773.25 654.7 769.9 651.05 766.5 647.45 763.05 643.85 759.5 640.55
L 759.4 640.5
Q 758.65 637.3 757.95 634.25 757.25 631.15 756.7 628.45 Z"/>
</g>

<g id="Symbol_46_0_Layer0_0_FILL">
<path fill="#FFFFFF" stroke="none" d="
M 747.9 407.05
L 739.8 408.1
Q 732.15 409.3 722.65 413.8 713.1 418.3 707.05 428 701 437.75 703.7 454.65 705.35 463 710.6 480.55 715.85 498.1 723.1 520.45 730.3 542.8 737.95 565.55 745.6 588.35 752 607.25 753.65 612.25 755.75 622.7 757.8 633.2 759.75 646.25 761.65 659.35 762.8 672.15 763.95 684.95 763.75 694.7 763.5 700.8 762.5 710.35 761.45 719.85 760.95 731.25 760.4 742.65 761.65 754.35 762.85 766.05 767 776.5 773.7 790.5 797.1 795.9 820.55 801.3 851.25 800.85 882 800.4 910.65 796.85 939.3 793.3 956.55 789.4 975.35 785.35 995.15 777.45 1014.9 769.5 1032.6 756.85 1050.25 744.2 1062.75 725.85 1076.85 704.4 1084.5 678.55 1092.1 652.7 1092.8 625.3 1093.5 597.85 1086.8 571.7 1080.45 548.35 1069.45 527.15 1058.4 505.95 1046.7 489.2 1034.95 472.5 1026.45 462.55
L 1016.7 451.65 973.65 443.8
Q 933.6 437.1 881.35 428.6 829.1 420.1 789.55 413.75
L 747.9 407.05 Z"/>
</g>

<g id="Symbol_39_0_Layer0_0_FILL">
<path fill="#0081c6" stroke="none" d="
M 1162.4 196.4
Q 1160.05 195.8 1157.25 196.45 1157 196.5 1156.4 196.65 1155.75 196.75 1155.4 197.2 1154.05 198.2 1152.5 199.65 1150.95 201.15 1149.75 202.4
L 1148.3 204.1
Q 1142.75 212.75 1137.85 220.9 1132.95 229.1 1127.8 237 1126.15 238.8 1124.8 240.85 1123.4 242.9 1122.2 245.1 1119.5 248.8 1116.5 252.45 1113.5 256.15 1110.1 259.85 1105.6 264.9 1100.95 270.75 1096.25 276.6 1091.05 281.75
L 1090.35 282.2
Q 1090 282.4 1089.65 282.6
L 1089.4 282.7
Q 1085.2 284.95 1081.4 287.25 1077.65 289.55 1073.5 290.75 1069.35 291.95 1064 290.95 1060.45 290.15 1057.3 287.55 1054.2 284.95 1051.6 281.2 1049 277.45 1047.05 273.2 1047.05 272.45 1047.05 271.9 1047 271.3 1047 271.1 1046.65 267.95 1045.9 265 1045.15 262.05 1044.35 259.15 1044.05 256.2 1043.8 253.55 1043.55 250.85 1043.2 248.7 1042.9 246.95 1042.65 245.3 1042.4 243.7 1041.75 242.1 1041.2 240.4 1040.25 239 1039.25 237.55 1037.7 236.6 1037.45 236.35 1037.25 236.15 1037.05 236 1036.9 235.9 1033 233.75 1027.2 236 1021.4 238.2 1015.25 242.2 1009.15 246.2 1004.25 249.35 1003.2 249.85 1002.35 250.3
L 1001.2 250.95
Q 1000.95 251.05 1000.75 251.15 1000.55 251.25 1000.35 251.35 992.6 252 985.9 249.45 979.25 246.95 972.8 241.9 966.35 236.9 959.25 230.2 952.55 223.9 944.4 218.7 936.25 213.55 927.3 210.8 918.35 208.05 909.3 209.05 907.95 209.15 906.1 209.1 904.2 209.05 902.5 209.3 896.95 209.35 891.65 209.95 886.3 210.55 881.4 211.7 876.3 212.95 870.7 215.1 865.05 217.3 859.55 219.85 854.05 222.4 849.35 224.75 844.45 227.2 838.45 231.7 832.4 236.15 826.85 241.6 821.3 247.05 817.8 252.45 816.95 253.35 816.3 254.15 815.65 254.95 815.35 255.35 813.05 258.5 810.9 264.05 808.75 269.65 806.95 276.7 804.6 282.25 803.4 287.45 802.2 292.65 802.7 298.5 801.6 307.05 801.6 314.15 801.6 321.3 803 325.6 804.8 330.25 810.1 336.05 815.4 341.9 821.4 347.5 827.4 353.15 831.3 357.1 838.8 365.35 844 371.15 849.15 377 855.55 381.15 861.9 385.35 873.1 388.6 885.35 392.2 897.1 394.95 908.9 397.7 920.85 399.35 932.75 401 945.45 401.2 951.9 401.2 958.55 401.5 965.15 401.7 971.65 402.9 978.1 404.05 984.15 406.85 990.15 409.6 995.4 411.25 1000.65 412.9 1005.8 415.1 1011 417.35 1016.7 421.65 1018.7 423.2 1022.2 425.6 1025.65 428.05 1030 430.8 1034.3 433.6 1038.85 436.15 1033.6 441.15 1028.65 446.8 1023.7 452.5 1020.55 458.1 1017.4 463.7 1017.55 468.35 1017.6 468.95 1017.7 469.55 1017.8 470.15 1018 470.7 1018.35 471.5 1018.75 472.25 1019.15 473 1019.6 473.7 1019.8 474 1020.05 474.3 1020.3 474.55 1020.55 474.8
L 1020.25 474.75
Q 1020.55 475.25 1020.95 475.75 1021.3 476.25 1021.7 476.7 1028.55 477.6 1034.95 477.3 1041.3 477.05 1047.7 476 1054.1 475 1060.95 473.6 1067.25 472.9 1073.65 471.75 1080.1 470.55 1086.55 468.8 1087.5 468.6 1088.45 468.3 1089.45 468.05 1090.45 467.75 1107.7 462.8 1123.6 453.45 1139.5 444.15 1152 429.65 1164.5 415.15 1171.65 394.7 1172.8 391.4 1174.3 386.9 1175.85 382.35 1177.2 377.35 1178.6 372.35 1179.3 367.6 1181.35 357.8 1182.7 348 1184 338.2 1184.8 328.85 1185.45 321.75 1186.2 315.75 1187 309.75 1187.35 303.6 1187.75 297.5 1187.2 290.05 1186.65 281.75 1186.45 274.2 1186.2 266.65 1185.85 259.3 1185.5 251.95 1184.4 244.3 1184.05 240.25 1183.45 236.25 1182.8 232.3 1181.8 228.45 1180.65 224 1178.75 218.1 1176.85 212.25 1173.85 206.9 1170.9 201.5 1166.6 198.65 1164.75 197 1162.4 196.4
M 1021.75 240.95
L 1021.85 240.9 1021.85 240.95 1021.75 240.95
M 984.75 252.05
L 984.35 251.9 984.2 251.8
Q 984.3091796875 251.8697265625 984.4 251.9 984.6 251.95 984.75 252.05 Z"/>
</g>

<g id="Symbol_40_0_Layer0_0_FILL">
<path fill="#FFFFFF" stroke="none" d="
M 1122.8 255.7
Q 1110 273.4 1094.75 285.3 1079.5 297.2 1063.95 294.65 1055.65 292.65 1050.65 285.8 1045.7 279 1043.2 270.45 1040.75 261.95 1039.95 254.7 1039.2 247.5 1039.2 244.7 1039.1 241.9 1037.25 240.05 1035.45 238.2 1032.75 237.9 1030 237.6 1027.25 239.6 1022.9 242.9 1016.85 247 1010.75 251.05 1003.75 253.85 996.8 256.6 989.75 256.05 986.3 255.55 980.9 251.8 975.45 248.05 969 242.55 962.55 237.1 956.1 231.5 949.65 225.85 944.15 221.65 939.8 218.15 928.8 215.2 917.8 212.2 901.4 212.95 884.95 213.7 864.2 221.35 849.8 227.1 840.35 234.2 830.9 241.3 825.95 247.15
L 822 251.95 820.15 254.8
Q 816.25 262.3 810.05 279.1 803.9 295.9 797.55 314.65 791.2 333.4 786.9 346.75
L 782.4 360.7 784.7 367.7
Q 786.85 374.25 792.8 384.7 798.7 395.1 810.25 407.25 821.75 419.4 840.75 431.1 864.35 445.05 887.95 453.8 911.55 462.55 931.45 467.05 951.35 471.55 963.95 472.8 1002.1 476.9 1032.15 474.8 1062.15 472.75 1084.1 465.75 1106.05 458.75 1119.95 448.05 1138.6 433.8 1151.75 413.1 1164.95 392.4 1172.05 367 1179.15 341.65 1179.65 313.25 1180.05 279.35 1178 256.95 1175.95 234.6 1173.45 222.6
L 1170.05 207.8
Q 1168.55 202.4 1165.05 200.7 1161.55 199 1158.1 200.15 1154.65 201.3 1153.2 204.55
L 1143.75 223.05
Q 1135.55 238 1122.8 255.7 Z"/>
</g>

<g id="Symbol_62_0_Layer0_0_FILL">
<path fill="#0081c6" stroke="none" d="
M 884 161.5
Q 879.45 163.7 875.85 166.4 872.9 168.2 870.35 170.2 867.85 172.2 865.9 174.4 863.2 176.7 861.05 179.1 858.9 181.5 857.55 183.95 855.8 187.25 854.9 192.1 854 196.95 853.65 201.95 853.3 206.95 853.2 210.65 853.1 213.9 853.15 217.15 853.15 220.35 853.3 223.6
L 853.5 223.45 853.7 223.35 853.75 223.3
Q 854.1 223.1 854.45 222.9 854.8 222.75 855.15 222.55
L 855.5 222.35 855.3 222.75
Q 856.05 222.75 857 222.3 857.95 221.85 858.3 221.7 860.4 220.9 862.5 220.1 864.6 219.35 866.75 218.6
L 867 218.6 867.2 218.45
Q 871.65 216.95 876.1 215.75 880.6 214.55 885.2 213.8 885.2 213.45 885.35 213.1 885.5 212.75 885.75 212.45 883.05 212.95 880.2 213.6 877.3 214.3 874.35 215.1 874.6 215 874.75 214.95
L 874.95 214.8
Q 877.1 213.8 878.65 212.45 880.2 211.1 882.4 210 884.4 209.05 887 208.05 889.55 207 891.3 205.95
L 891.9 205.45 891.9 205.2
Q 891.6 205.05 891.35 204.6 891.3 204.5 891.4 204.3 891.5 204.05 891.55 203.85 892.15 203.6 892.9 203.35 893.65 203.05 894.45 202.75
L 894.35 202.9 893.4 204.15
Q 893.15 204.5 893.6 204.45 893.2 205.05 892.65 205.6 892.1 206.2 891.35 206.8
L 890.5 207.75
Q 889.85 208.5 889.05 209.45 888.3 210.4 887.8 211 888.1 210.9 888.4 210.8 888.7 210.65 889 210.55 889.45 210.35 889.9 210.2 890.4 210 890.85 209.9
L 891.3 209.85 891.4 209.8
Q 891.7 209.75 892 209.75 892.35 209.75 892.6 209.75
L 892.85 209.8
Q 895.55 207 897.8 203.6 900.05 200.2 901.15 196.7 903.25 193.25 904.45 188.95 905.65 184.7 906.1 180.25 906.75 177 907.15 173.3 907.5 169.6 907.35 166.1 907.2 162.55 906.45 159.9 906.25 159.35 905.95 158.55 905.6 157.7 905.2 157.2
L 904.95 156.9
Q 904.65 156.35 903.95 156.15 903.2 156 902.6 156
L 901.9 156.05
Q 897.9 156.45 893.2 157.85 888.55 159.3 884 161.5
M 859.75 181.85
L 859.7 182
Q 859.55 182.2 859.4 182.4 859.25 182.6 859.05 182.8 859.25 182.55 859.4 182.3 859.55 182.05 859.75 181.85
M 899.95 156.9
L 899.9 156.9 900.15 156.85 899.95 156.9
M 899.75 197.2
L 899.9 196.9
Q 899.95 196.8 900 196.6
L 900.1 196.65
Q 900 196.8 899.95 196.95 899.85 197.1 899.75 197.2
M 870.8 216.15
Q 871.05 216 871.25 215.85 871.5 215.7 871.7 215.55
L 871.8 215.8 871.85 215.8 871.3 216
Q 871.05 216.05 870.8 216.15
M 864.85 176.15
Q 865.12109375 175.917578125 865.4 175.65 865.221875 175.828125 865.05 176 864.8 176.25 864.55 176.5
L 864.2 176.8
Q 864.5 176.45 864.85 176.15
M 884.4 207.85
Q 884.625 207.78125 884.8 207.65 885 207.55 885.25 207.4 885.05 207.55 884.8 207.7 884.625 207.7875 884.4 207.85
M 853.8 214
L 853.8 213 853.85 213.1
Q 853.85 213.527734375 853.8 214 Z"/>
</g>

<g id="Symbol_26_0_Layer0_0_FILL">
<path fill="#FFFFFF" stroke="none" d="
M 889.05 162.7
Q 882.2 166.25 875.95 171.05 869.7 175.8 865.25 180.35 860.8 184.9 859.45 187.7 858.55 190.25 858.1 197.25 857.65 204.25 857.5 212.35 857.35 220.4 857.35 226.25
L 857.35 232.35 860.15 232.1
Q 862.8 231.85 866.3 231.45 869.8 231.05 872.55 230.65
L 874.75 230.25 875.7 229.95
Q 884.4 218.9 889.6 211 894.75 203.05 897.2 197.95 899.6 192.85 900.1 190.3 900.55 188.15 901.15 183.4 901.8 178.65 902.25 173.2 902.7 167.75 902.75 163.55
L 902.55 160.15 902 158.35
Q 895.85 159.15 889.05 162.7 Z"/>
</g>

<g id="Symbol_48_0_Layer0_0_FILL">
<path fill="#0081c6" stroke="none" d="
M 968.5 520.65
L 967.8 522.15
Q 967.2 523.55 966.6 525.45 966.15 526.6 965.7 527.75 965.25 528.85 964.85 529.9 964.55 530.5 964.3 531.1 964.05 531.7 963.9 532.25 963.75 532.65 963.6 533 963.5 533.4 963.35 533.75 963.3 533.85 963.2 534.1 963.1 534.35 962.95 534.7 962.35 535.6 961.6 536.9 960.85 538.25 960.3 539.35 960.15 539.95 960.3 540.4 960.45 540.9 961 541.15 961.95 541.1 962.35 540.25 962.75 539.35 963 538.8
L 963.05 538.75
Q 963.45 539 963.55 538.75
L 963.75 538.3 964.25 537.65
Q 967.1 534.45 970.1 531.05 973.05 527.7 975.4 524.2 977.25 521.4 980.25 517.55 983.2 513.7 986.95 509.3 990.65 504.95 994.7 500.65 996 499.45 997.4 498.25 998.75 497.05 1000.25 495.8
L 1002.95 493.35
Q 1005.5 491.05 1009.05 488.35 1012.65 485.7 1015.95 484.3 1016.25 484.25 1016.6 484.1 1016.9 484 1017.25 483.9 1018.15 483.7 1018.9 483.7 1019.65 483.75 1020.25 484.05 1020.45 483.75 1020.55 483.45 1020.65 483.15 1020.6 482.85 1020.75 482.9 1020.85 482.95 1020.95 483.05 1021.05 483.1 1021.45 481.75 1020.5 480.95 1019.55 480.2 1018.15 480.2 1017.05 480.2 1015.75 480.55 1014.5 480.95 1013 481.6 1007.55 484 1001.6 488.55 995.65 493.1 989.8 498.85 984 504.6 979 510.5 978.95 510.25 978.9 510.05 978.8 509.85 978.7 509.7 978.55 509.7 978.35 509.85 978.2 510 978.15 510.05 980.25 503.95 983.15 497.9 986.05 491.8 990.65 485.6 991.25 484.85 991.9 484.05 992.55 483.25 993.25 482.45 994 481.65 995.65 479.85 997.3 478.05 998.75 476 1000.2 474 1000.25 472.5 999.9 472.2 999.4 472.45 998.9 472.7 998.6 472.95 991.65 477.6 985.75 486.4 979.9 495.2 975.45 504.6 971 514.05 968.5 520.65 Z"/>
</g>

<g id="Symbol_28_0_Layer0_0_FILL">
<path fill="#FFFFFF" stroke="none" d="
M 986.25 295.45
Q 983.9 288.7 978.35 283.8 972.85 278.85 963.05 277.05 953.1 275.55 946.15 278.6 939.15 281.7 934.5 287.45 929.85 293.25 927 299.8 924.15 306.3 922.45 311.7 931.35 312.7 942.55 314.6 953.75 316.45 965.55 318.7 977.3 320.9 987.9 323.05 988.85 316.6 988.7 309.4 988.55 302.15 986.25 295.45 Z"/>
</g>

<g id="Symbol_49_0_Layer0_0_FILL">
<path fill="#0081c6" stroke="none" d="
M 821.75 510.45
L 821.85 508.75 802.7 495.55 791.05 488.7 781.3 484 771.05 480.45 771 480.45 760.3 478.2 749.35 477.2 738.35 477.75 727.55 480.2 722.35 482.25 715.05 486.25 710.65 489.55 710.6 489.55 704.65 495.05 701.1 499.25 698.2 503.9 695.9 508.85 692.05 521.7 688.05 537.05 688.05 537.1 683.05 567.15 679.9 619.55 679.45 644.35 681.15 669.05 686.4 715.35 686.4 715.4 688.4 728.05 692.7 745.6 695.7 752.95 697.1 755.15 699.2 757.4 701.45 759.2 708.75 763.4 719 767.45 732.3 771 743.15 772.65 751.5 773.05 756.9 772.55 769.85 769.05 787 761.6 793.95 757.5 798.35 754.05 800.05 751.85 800.05 751.7 800.3 751.35 800.95 748.65 805.2 718.35 821.8 571.9 824.25 521.45 823.3 510.95 821.75 510.45 Z"/>
</g>

<g id="Symbol_29_0_Layer0_0_FILL">
<path fill="#FFFFFF" stroke="none" d="
M 820.1 480.65
Q 816.75 472.1 810.1 464.3 803.45 456.45 793.15 450.8 782.8 445.1 768.4 442.95 757.05 441.45 746.8 444.35 736.55 447.25 728.25 452.95 719.9 458.65 714.2 465.65 708.5 472.65 706.2 479.45
L 700.85 500 698.3 511.45
Q 692.95 536.55 688.9 574.55 684.9 612.55 686.5 658 688.1 703.45 699.6 750.9
L 701.15 752.75 705.4 756
Q 710.95 759.95 721.4 763.6 731.9 767.25 746.9 767.7 761.1 767.7 771.05 764.05 781.05 760.4 786.7 756.1
L 791.25 752.4 793.6 749.85
Q 796.85 728.7 802.05 691.45 807.2 654.15 812.4 613.25 817.6 572.3 820.9 540.15
L 823.3 513.3 823.85 497.05
Q 823.45 489.2 820.1 480.65 Z"/>
</g>
</defs>



<g transform="matrix( -0.173553466796875, 0.04461669921875, 0.1187286376953125, 0.19732666015625, 1182.55,725.8) ">
<g transform="matrix( 1, 0, 0, 1, 0,0) ">
<use xlink:href="#Symbol_81_0_Layer0_0_FILL"/>
</g>
</g>

<g transform="matrix( -0.1507568359375, 0.0587158203125, 0.060943603515625, 0.1425628662109375, 1178.75,729.5) ">
<g transform="matrix( 1, 0, 0, 1, 0,0) ">
<use xlink:href="#Symbol_82_0_Layer0_0_FILL"/>
</g>
</g>

<g transform="matrix( -0.13311767578125, 0.0064849853515625, 0.019622802734375, 0.1269683837890625, 1175.15,785.75) ">
<g transform="matrix( 1, 0, 0, 1, 0,0) ">
<use xlink:href="#Symbol_71_0_Layer0_0_FILL"/>
</g>
</g>

<g transform="matrix( -0.3934326171875, -0.0093994140625, -0.0020599365234375, 0.140869140625, 1463.25,779.65) ">
<g transform="matrix( 1, 0, 0, 1, 0,0) ">
<use xlink:href="#Symbol_72_0_Layer0_0_FILL"/>
</g>
</g>

<g transform="matrix( -0.1305694580078125, 0.0348968505859375, 0.040374755859375, 0.1211090087890625, 1161.7,764.9) ">
<g transform="matrix( 1, 0, 0, 1, 0,0) ">
<use xlink:href="#Symbol_74_0_Layer0_0_FILL"/>
</g>
</g>

<g transform="matrix( -0.11114501953125, 0.0732574462890625, 0.0841827392578125, 0.099395751953125, 1132,733.05) ">
<g transform="matrix( 1, 0, 0, 1, 0,0) ">
<use xlink:href="#Symbol_83_0_Layer0_0_FILL"/>
</g>
</g>

<g transform="matrix( -0.1250457763671875, 0.0472564697265625, 0.0574951171875, 0.11444091796875, 1155.65,746.4) ">
<g transform="matrix( 1, 0, 0, 1, 0,0) ">
<use xlink:href="#Symbol_77_0_Layer0_0_FILL"/>
</g>
</g>

<g transform="matrix( -0.1250457763671875, 0.0472564697265625, 0.0574951171875, 0.11444091796875, 1156.5,747.65) ">
<g transform="matrix( 1, 0, 0, 1, 0,0) ">
<use xlink:href="#Symbol_78_0_Layer0_0_FILL"/>
</g>
</g>

<g transform="matrix( -0.231903076171875, -0.528106689453125, -0.316162109375, 0.3363037109375, 1034.1,866.05) ">
<g transform="matrix( 1, 0, 0, 1, 0,0) ">
<use xlink:href="#Symbol_67_0_Layer0_0_FILL"/>
</g>
</g>

<g transform="matrix( -0.77630615234375, -0.6529541015625, 0.4588623046875, -0.459747314453125, 1347.9,1211.8) ">
<g transform="matrix( 1, 0, 0, 1, 0,0) ">
<use xlink:href="#Symbol_60_0_Layer0_0_FILL"/>
</g>
</g>

<g transform="matrix( -0.77630615234375, -0.6529541015625, 0.4588623046875, -0.459747314453125, 1347.9,1211.8) ">
<g transform="matrix( 1, 0, 0, 1, 0,0) ">
<use xlink:href="#Symbol_61_0_Layer0_0_FILL"/>
</g>
</g>

<g transform="matrix( 4.9486083984375, 0, 0, 4.9486083984375, -1463.25,-2713.35) ">
<g transform="matrix( 1, 0, 0, 1, 0,0) ">
<use xlink:href="#Symbol_68_0_Layer0_0_FILL"/>
</g>
</g>

<g transform="matrix( 0.66802978515625, -0.0137786865234375, 0.008819580078125, 0.6707000732421875, 283.5,247.55) ">
<g transform="matrix( 1, 0, 0, 1, 0,0) ">
<use xlink:href="#Symbol_19_0_Layer0_0_FILL"/>
</g>
</g>

<g transform="matrix( -0.1129150390625, 0.0620880126953125, 0.0598297119140625, 0.095062255859375, 1156.4,716.95) ">
<g transform="matrix( 1, 0, 0, 1, 0,0) ">
<use xlink:href="#Symbol_84_0_Layer0_0_FILL"/>
</g>
</g>

<g transform="matrix( 0.366058349609375, -0.563690185546875, -0.5581817626953125, -0.3648529052734375, 799.85,1245.8) ">
<g transform="matrix( 1, 0, 0, 1, 0,0) ">
<use xlink:href="#Symbol_21_0_Layer0_0_FILL"/>
</g>
</g>

<g transform="matrix( 0.5228271484375, -0.4767303466796875, 0.481689453125, 0.4953765869140625, 267.65,762.15) ">
<g transform="matrix( 1, 0, 0, 1, 0,0) ">
<use xlink:href="#Symbol_50_0_Layer0_0_FILL"/>
</g>
</g>

<g transform="matrix( 0.5228271484375, -0.4767303466796875, 0.481689453125, 0.4953765869140625, 267.65,762.15) ">
<g transform="matrix( 1, 0, 0, 1, 0,0) ">
<use xlink:href="#Symbol_51_0_Layer0_0_FILL"/>
</g>
</g>

<g transform="matrix( 0.6650543212890625, 0.0626068115234375, -0.183319091796875, 0.6528472900390625, 436.1,241.85) ">
<g transform="matrix( 1, 0, 0, 1, 0,0) ">
<use xlink:href="#Symbol_35_0_Layer0_0_FILL"/>
</g>
</g>

<g transform="matrix( 0.6265869140625, 0.1470794677734375, -0.2672119140625, 0.6485137939453125, 481.1,171.55) ">
<g transform="matrix( 1, 0, 0, 1, 0,0) ">
<use xlink:href="#Symbol_22_0_Layer0_0_FILL"/>
</g>
</g>

<g transform="matrix( 0.6316375732421875, -0.0147705078125, 0.009735107421875, 0.811187744140625, 398.75,164.2) ">
<g transform="matrix( 1, 0, 0, 1, 0,0) ">
<use xlink:href="#Symbol_36_0_Layer0_0_FILL"/>
</g>
</g>

<g transform="matrix( 0.623809814453125, 0.1587677001953125, -0.148590087890625, 0.7564239501953125, 552.15,67.45) ">
<g transform="matrix( 1, 0, 0, 1, 0,0) ">
<use xlink:href="#Symbol_23_0_Layer0_0_FILL"/>
</g>
</g>

<g transform="matrix( 0.665771484375, -0.0101470947265625, -0.0728912353515625, 0.727630615234375, 344.9,224.95) ">
<g transform="matrix( 1, 0, 0, 1, 0,0) ">
<use xlink:href="#Symbol_45_0_Layer0_0_FILL"/>
</g>
</g>

<g transform="matrix( 0.665771484375, -0.0101470947265625, -0.0728912353515625, 0.727630615234375, 344.9,224.95) ">
<g transform="matrix( 1, 0, 0, 1, 0,0) ">
<use xlink:href="#Symbol_46_0_Layer0_0_FILL"/>
</g>
</g>

<g transform="matrix( 0.685699462890625, -0.1911773681640625, 0.169342041015625, 0.65045166015625, 212.45,448.6) ">
<g transform="matrix( 1, 0, 0, 1, 0,0) ">
<use xlink:href="#Symbol_39_0_Layer0_0_FILL"/>
</g>
</g>

<g transform="matrix( 0.685699462890625, -0.1911773681640625, 0.169342041015625, 0.65045166015625, 212.45,448.6) ">
<g transform="matrix( 1, 0, 0, 1, 0,0) ">
<use xlink:href="#Symbol_40_0_Layer0_0_FILL"/>
</g>
</g>

<g transform="matrix( 0.63604736328125, -0.2917022705078125, 0.3883056640625, 0.5867919921875, 193.65,562.6) ">
<g transform="matrix( 1, 0, 0, 1, 0,0) ">
<use xlink:href="#Symbol_62_0_Layer0_0_FILL"/>
</g>
</g>

<g transform="matrix( 0.63604736328125, -0.2917022705078125, 0.3883056640625, 0.5867919921875, 193.65,562.6) ">
<g transform="matrix( 1, 0, 0, 1, 0,0) ">
<use xlink:href="#Symbol_26_0_Layer0_0_FILL"/>
</g>
</g>

<g transform="matrix( -0.4140777587890625, 0.4161529541015625, 0.3056182861328125, 0.5362396240234375, 1177.75,-200.1) ">
<g transform="matrix( 1, 0, 0, 1, 0,0) ">
<use xlink:href="#Symbol_48_0_Layer0_0_FILL"/>
</g>
</g>

<g transform="matrix( 0.6862030029296875, -0.18975830078125, 0.173126220703125, 0.6610870361328125, 173.45,429.05) ">
<g transform="matrix( 1, 0, 0, 1, 0,0) ">
<use xlink:href="#Symbol_28_0_Layer0_0_FILL"/>
</g>
</g>

<g transform="matrix( -0.6321563720703125, 0.3926849365234375, -0.4012451171875, -0.6416168212890625, 1511.5,566.7) ">
<g transform="matrix( 1, 0, 0, 1, 0,0) ">
<use xlink:href="#Symbol_49_0_Layer0_0_FILL"/>
</g>
</g>

<g transform="matrix( -0.6321563720703125, 0.3926849365234375, -0.4012451171875, -0.6416168212890625, 1511.5,566.7) ">
<g transform="matrix( 1, 0, 0, 1, 0,0) ">
<use xlink:href="#Symbol_29_0_Layer0_0_FILL"/>
</g>
</g>
</svg>
