<svg xmlns="http://www.w3.org/2000/svg" xmlns:xlink="http://www.w3.org/1999/xlink" preserveAspectRatio="none" width="760" height="880" viewBox="614 10 760 880"><defs><g id="a"><path fill="#a6ce38" d="M895.85 656.35l-3.4-.4q-.6-.1-1.2-.15-.65-.05-1.25-.15l-1.1-.1-1.1-.1q-4.2-.45-8.45-.7-4.25-.25-8.6-.25-2.9 0-5.85.15-2.95.15-6 .45 8.35 5.85 17.2 11.1 8.85 5.2 18.15 9.8l1.1-2.3 1.1-2.3 1.2-2.4q.6-1.25 1.2-2.45.65-1.2 1.25-2.4.6-1.15 1.25-2.35v-.05q.25-.45.45-.85l.5-.9q.35-.65.7-1.35l.7-1.35-4.45-.55-3.4-.4m-61-272.2q-.2.15-.45.35-8.2 6.75-19.15 17.6-11 10.85-18.4 21.6-1.6 1.75-3 3.3-1.35 1.6-2.45 3-6.45 7.65-12.1 16.55-5.65 8.9-8 18.4l.6-.3.6-.25q-.85 1.1-1.35 2.45-.5 1.4-.6 2.85l-.05.05q-.05.5-.05 1.05-.05.55-.1 1.05-3.6 10.55-4.75 21.15-1.1 10.6-.15 19.65l.1.95q.1.75.3 1.4.2 2.35.6 5.1l.5 3.4q6.45 33.15 25.7 63.3 19.2 30.1 48.05 54.3 3.45-.25 7.05-.4 3.55-.1 7.2-.1 2.95-.05 6.05.05 3.05.1 6.2.25l2.7.2q1.35.05 2.7.2l1.25.1q.6.05 1.25.1h.05l.5.05q2.3.2 4.9.4 2.65.25 5.5.5l.2.05q5.6.5 11.75 1.15 6.2.65 12.55 1.5 19.6-33.55 44.95-63.35 25.35-29.85 54.25-52.05.95-.7 2.05-1.5 1.1-.8 2.3-1.7.9-.6 1.85-1.25.95-.7 1.95-1.35.4-.25.75-.55l.8-.5.3-.2.35-.25q-.4-.45-.75-.95l-.7-1q-2.35-3.15-4.75-6.35l-4.8-6.4q-2.05-2.65-4.1-5.35l-4.1-5.4-.5-.6q-.2-.3-.45-.6-.15-.2-.25-.35l-1.3-1.7-.4-.5-5.15-6.7q-2.55-3.4-5.1-6.75l-1.4-1.8q-.65-.9-1.35-1.8-.75-1-1.5-2.05-.8-1-1.55-2l-.1-.2q-1.1-1.3-2.15-2.6-1.05-1.25-2-2.5l-.8-1q-.4-.55-.8-1-1.35-1.75-2.4-3.1-1.05-1.35-1.75-2.2l-1-1.1q-.45-.6-.95-1.2-.85-.95-1.7-2-.85-1-1.7-2.05l-1.7-2q-.85-1-1.7-2.05-1.55-1.9-3.1-3.85-1.6-1.95-3.2-4-10.3-12.85-19.75-27.8-9.5-14.95-15.25-30.6-.2-.65-.45-1.3l-.4-1.3q-.25-.75-.5-1.55t-.5-1.55l-.4-1.6q-.25-.8-.45-1.55l-.1-.4q-.4-1.65-.75-3.3-.3-1.65-.6-3.25l-.4-3q-.15-1.45-.3-2.95-.15-2.15-.15-4.25-.05-2.15.1-4.25 0-.4.05-.85l.05-.85.05-.1v-.25l.05-.3.2-1.6q.1-.8.25-1.6l.1-.8.2-.8q-9.45.5-18.5 2.35-9.1 1.8-16.85 5.05-6.2.2-14.2 5.15-8 4.95-15.15 10.9-7.2 5.95-10.95 9.15-.1.1-.35.25-.25.2-.6.5-.95.7-2.15 1.7t-2.1 1.95q-.55.25-1.1.7l-.7.6q-.2.15-.45.35m165 1.6q-.35-.4-.75-.75l-.7-.75q-2.35-2.3-4.75-4.55t-4.9-4.4l-.25-.15q-4.15-3.6-8.5-6.85-4.35-3.25-8.85-6.15-8.4-5.45-17.3-9.5-8.9-4.1-18.1-6.6l-.95-.25q-.5-.1-.95-.2l-1.65-.1q-.7-.2-1.4-.35-.75-.1-1.4-.15l-.3-.2q-.7-.4-1.5-.45-.85-.1-1.65.1-.15-.2-.35-.35-.15-.15-.35-.2-.4.2-.8.55-.45.35-.45.85-.45.35-.7.8-.25.4-.3.9l-.2.7-.2.7v.05q-.25.5-.5 1.1l-.3.8q-1.85 7.9.6 17.15 2.45 9.3 6.65 17.95 1.35 3.7 3 7.4 1.7 3.7 3.65 7.4.2 1.7.8 3.2.65 1.5 1.2 2.35.45.8 1.85 2.6 1.4 1.8 3.2 3.9l.2.25h-.15q-.15.2-.2.45-.1.25 0 .45 1.2 2.85 5.65 8.3 4.5 5.4 7 7.8l.65.6q1.55 1.9 3.15 3.75 1.6 1.85 3.25 3.65 4.95 7.05 10.25 13.55 5.25 6.5 13.05 9.5.3.3.55.6l.55.65.9.6q.45.3.85.5 1.95 1.05 5.9 1.65 3.9.6 6.8-.15 2.1-.25 3.45-.95 1.4-.7 1.75-1.75 3.45 1.5 6.9 2.5t6.95 1.4q3.75.8 6.85 1.1 3.1.25 5.5 0 2-.6 3.7-1.45 1.7-.8 3.1-1.85.5-.65.85-1.35.35-.75.6-1.6.15-.65.25-1.35.1-.7.15-1.45 0-.85-.05-1.8-.05-.9-.2-1.9-.05-.35-.1-.65-.05-.3-.1-.65-.45-2.3-1.3-5-.85-2.7-2.1-5.85-.35-.85-.75-1.7-.35-.8-.7-1.65-.2-.4-.35-.85l-.35-.8q-.85-1.85-1.75-3.7t-1.85-3.7q-.9-1.75-1.9-3.5-.95-1.75-1.95-3.5l-1.5-2.6q-.8-1.25-1.6-2.55-5.2-8.4-11.45-16.35-6.25-7.95-13.35-15.2m-71.5-37.3l-.3-.2.2-.5q.15-.2.25-.45 0 .3-.05.6l-.1.55z"/><path fill="#0081c6" d="M752.9 482.05q3.6-3.5 8.05-6.6 4.4-3.05 9.55-5.7l.05-.05q.1-1.45.6-2.85.5-1.35 1.35-2.45l-.6.25-.6.3q-2.55 1.25-4.95 2.6-2.45 1.3-4.75 2.7-4.95 3.05-11.4 8.7-6.45 5.6-9.5 10.05-.2.25-.35.65-.2.35.2.6 4.2-.1 7.6-3.3 3.4-3.2 4.75-4.9m81.5-97.55q.25-.2.45-.35.25-.2.45-.35l.7-.6q.55-.45 1.1-.7.9-.95 2.1-1.95 1.2-1 2.15-1.7-15.3 1.95-30.35 7.25-15.05 5.35-21.05 16.65-.15.25-.25.6t.25.55q2.5-.8 5.3-3.35 2.85-2.55 3.9-3.55 5.7-4.4 14.85-7.45 9.15-3.1 20.4-5.05z"/></g><g id="b"><path fill="#a6ce38" d="M1052.9 708q-.3.55-.35.8-4.7 15.05 5.45 29.4 10.2 14.3 26.45 23.95 16.2 9.6 29.75 10.65 10.6.55 19.4-1.15 8.85-1.7 16.65-5.45 3.65-.25 9.25-4.45 5.6-4.15 10.45-8.65l7.05-6.65 2.5-2.25q-3.5.05-6.9.05-3.4 0-6.8-.05-4.25-.1-8.45-.3-4.2-.15-8.35-.5-22.45-1.55-43.55-8.4-21.1-6.8-42.35-21.2l-.7-.5q-.4-.25-.75-.5l-.45-.35q-.25-.15-.5-.35l-1-.7-1-.7-2.9-2.15q-.35-.25-.65-.5l-1.55-1.15q-.45.5-.7 1.1m-16.7-115.3q-.3-.5-.6-1.05-.25-.5-.55-1.05-3.4 9.35-4 19.55-.6 10.2.05 19.7.4 8 2.5 20.4 2.15 12.4 6.25 25.3 4.1 12.85 10.35 22.45l.3.25q.2.1.35.25l.2.15q.1.05.15.15 1.95 1.45 3.9 2.85 1.95 1.45 3.95 2.8.15.1.25.15.1.1.2.15.45.35.95.65l.9.6q1 .7 2 1.35 1 .7 2 1.35.6.35 1.15.75.6.35 1.2.75 9.05 5.7 17.3 10.05 8.3 4.4 14.5 6.85 9.45 3.7 19.95 6t21.55 3.6q6.65.8 13.3 1.35 6.7.6 13.35.95l.1.05h.4q.2 0 .4.05l1.9.1 1.9.1h.5q.85.05 1.75.1l1.7.1q.55.05 1.1.05l1.1.05q1.2.1 2.4.15 1.25.05 2.45.1l.4.05.15-.2 1.3-.3 1.35-.35q5.7-.15 11.3-.95 5.55-.85 10.65-1.95 6.95-1.55 12-4.15 5.05-2.65 8.1-6 .7-.3 1.35-.6.65-.3 1.25-.65.15-.15.25-.35l.2-.4q.25-.5.55-1 .25-.5.45-1.1l-.1-.8q-.1-.4-.15-.8 2.55-6.3-.4-12.5-2.95-6.2-11.4-10.5-1.1.15-2.25.2h-2.15q-.95 0-1.7-.05t-1.05-.05q-1.6-.05-3.2-.15-1.6-.1-3.25-.25-3.1-.25-6.3-.7-3.25-.4-6.5-1l-.8-.15-1.2-.2q-.6-.15-1.25-.25l-.75-.15q-.35-.1-.7-.15l-.3-.05q-.95-.2-1.9-.45-1-.2-1.95-.4-1.1-.25-2.25-.55-1.15-.3-2.25-.6-.85-.2-1.65-.4-.85-.25-1.65-.45-3.85-1.05-7.75-2.3-3.9-1.2-7.8-2.6-26.95-9.6-52.95-25.4-25.95-15.8-46.4-35.55l-1.3-1.3q-.7-.65-1.35-1.3-.45-.5-.95-1-.5-.5-.95-1l-.5-.5-.45-.5q-1.25-1.3-2.45-2.6-1.2-1.3-2.35-2.65l-1.3-1.5q-.65-.75-1.25-1.5-.9-1.05-1.8-2.15-.9-1.1-1.75-2.15l-2.1-2.8q-1-1.35-2-2.75l-.4-.6-.4-.6-.1-.15-.1-.1v-.05l-.7-1q-.3-.45-.65-.95l-.35-.6q-.2-.25-.4-.55-.75-1.15-1.45-2.3-.7-1.2-1.4-2.35m266.35-131.9q-.55-.05-1.15-.15-.6-.05-1.25-.1-1.1-1.3-2.55-1.7-1.45-.4-2.65.55-.25.3-.5.55-.25.3-.4.45-6.05.3-11.7 1.15-5.65.85-9.15 1.45-.35.05-.65.15-.35.05-.65.1-5.3-.4-9.65-.6-4.35-.2-6.65-.35-35.4-3-70.8 5.05-35.45 8.05-66.85 25.95-31.4 17.95-54.65 44.55l-2.2 2.75q-1.8 2.2-3.2 4.15-.45.5-.95 1.1l-.6.8q-5.6 7.4-10.45 17.1-4.85 9.7-7.8 20.45-.3.45-.55.95-.25.5-.5.95l.35.75q.85 1.6 1.8 3.15.95 1.6 2 3.2.15.2.3.45.15.2.3.45l.1.2.95 1.35q.15.25.35.5l.05.05.3.45.3.4q.75 1.1 1.6 2.2l1.7 2.2q.6.8 1.25 1.6.65.75 1.35 1.55.95 1.15 1.9 2.25 1 1.15 2.05 2.25 1.3 1.45 2.7 2.9 1.35 1.4 2.75 2.8 1.85 1.85 3.8 3.7 1.95 1.8 3.95 3.6 19.05 16.7 40.05 29.7 21.05 13 37.45 20.55 10.7 5 19.65 8.15 8.95 3.15 18.05 5.25l.7.2q.3.05.65.15.35.05.75.15.35.1.7.15.35.1.7.15l.7.15q1.1.25 2.15.45 1.1.25 2.2.45l.3.1.3.05q1.2.25 2.45.45 1.25.25 2.55.5.4.05.8.15l.8.15q.5.1.95.15l1 .2q9.15-8.05 19.05-15.3 9.9-7.3 20.25-14 9.05-4.5 18.45-8.6 9.4-4.05 18.75-7.4 2.75-1 5.55-1.9 2.75-.9 5.45-1.7 1.9-.55 3.75-1.05t3.7-.95q.9-1.2 1.4-2.6.45-1.4.3-2.95-.4-.65-.85.1l-.5.95q-1.9.35-3.8.8-1.9.45-3.75 1 .05-2.85 0-5.1 0-2.2.05-3.2 2-31.25 5.25-62.75t5.8-62.75q.25-4.4-.25-12.85-.45-8.4-.4-14.6.8-1.3 1.5-2.9.65-1.65 1.1-3.3 1-.8 1.95-1.7.9-.95 1.4-2-.65-.35-1.3-.5-.7-.15-1.35-.15v-.4q.9.05 2 .15 1.15.05 2.3.25-.75-.75-1.5-1.55-.8-.8-1.55-1.6m-97.95 229.05q-2.2-.35-4.5-.45l2.4.4q1.2.25 2.45.45l1.85.3q.95.15 2 .35-2-.65-4.2-1.05m94.05-39.8q-.2-.3-.45-.55-1.95.7-3.85 1.35-1.95.7-3.85 1.35 1.5-.15 4.1-.5 2.55-.35 4.4-1.1-.15-.3-.35-.55z"/><path fill="#0081c6" d="M1030.25 679.95q-8.45-9.3-11.15-18.05-.25-1.35-.95-4.8-.75-3.45-2.15-5.25-.4 0-.5.35-.1.35-.1.65-1.55 9.95 3.8 19.2 5.4 9.25 13.5 17 8.2 7.75 15.05 13.2 1.5 1.2 2.95 2.35l2.9 2.3 1.55 1.15q.3.25.65.5l2.9 2.15 1 .7 1 .7q.25.2.5.35l.45.35q.35.25.75.5l.7.5q21.25 14.4 42.35 21.2 21.1 6.85 43.55 8.4 4.15.35 8.35.5 4.2.2 8.45.3 3.4.05 6.8.05t6.9-.05q7.7-.15 15.7-.55 8.05-.35 16.45-.85l3.4-.05q2.65-.05 4.8-.65.05-.3-.1-.5-.2-.15-.35-.25l-2.25-.45-4.3-.25q-5.35-.2-10.95-.15-5.65 0-7.8-.1-2.55-.15-5.1-.25-2.6-.15-5.25-.25l-.4-.05q-1.2-.05-2.45-.1-1.2-.05-2.4-.15l-1.1-.05q-.55 0-1.1-.05l-1.7-.1q-.9-.05-1.75-.1h-.5l-1.9-.1-1.9-.1q-.2-.05-.4-.05h-.4l-.1-.05q-6.65-.35-13.35-.95-6.65-.55-13.3-1.35-11.05-1.3-21.55-3.6t-19.95-6q-6.2-2.45-14.5-6.85-8.25-4.35-17.3-10.05-.6-.4-1.2-.75-.55-.4-1.15-.75-1-.65-2-1.35-1-.65-2-1.35l-.9-.6q-.5-.3-.95-.65-.1-.05-.2-.15-.1-.05-.25-.15-2-1.35-3.95-2.8-1.95-1.4-3.9-2.85-.05-.1-.15-.15l-.2-.15q-.15-.15-.35-.25l-.3-.25q-11.5-8.75-19.95-18.05m.35-112.3q-.1-2.05-.9-6.3-.75-4.25-3.85-6.25-.4.05-.5.45-.05.4-.05.7-.15 5.2 1.6 12.95 1.75 7.7 3.8 12.55.95 2.25 2.05 4.45 1.05 2.2 2.3 4.4.3.55.55 1.05.3.55.6 1.05.7 1.15 1.4 2.35.7 1.15 1.45 2.3.2.3.4.55l.35.6q.35.5.65.95l.7 1v.05l.1.1.1.15.4.6.4.6q1 1.4 2 2.75l2.1 2.8q.85 1.05 1.75 2.15.9 1.1 1.8 2.15.6.75 1.25 1.5l1.3 1.5q1.15 1.35 2.35 2.65 1.2 1.3 2.45 2.6l.45.5.5.5q.45.5.95 1 .5.5.95 1 .65.65 1.35 1.3l1.3 1.3q20.45 19.75 46.4 35.55 26 15.8 52.95 25.4 3.9 1.4 7.8 2.6 3.9 1.25 7.75 2.3.8.2 1.65.45.8.2 1.65.4 1.1.3 2.25.6t2.25.55q.95.2 1.95.4.95.25 1.9.45l.3.05q.35.05.7.15l.75.15q.65.1 1.25.25l1.2.2.8.15q3.25.6 6.5 1 3.2.45 6.3.7 1.65.15 3.25.25t3.2.15q.3 0 1.05.05t1.7.05h2.15q1.15-.05 2.25-.2.7-.1 1.35-.25.6-.15 1.1-.4.05-.55-.7-.8t-1.1-.4q-2.3-1.85-5.7-2.9-3.35-1.05-6.75-1.65-1.05-.2-2-.35l-1.85-.3q-1.25-.2-2.45-.45l-2.4-.4-.3-.05-1-.2q-.45-.05-.95-.15l-.8-.15q-.4-.1-.8-.15-1.3-.25-2.55-.5-1.25-.2-2.45-.45l-.3-.05-.3-.1q-1.1-.2-2.2-.45-1.05-.2-2.15-.45l-.7-.15q-.35-.05-.7-.15-.35-.05-.7-.15-.4-.1-.75-.15-.35-.1-.65-.15l-.7-.2q-9.1-2.1-18.05-5.25-8.95-3.15-19.65-8.15-16.4-7.55-37.45-20.55-21-13-40.05-29.7-2-1.8-3.95-3.6-1.95-1.85-3.8-3.7-1.4-1.4-2.75-2.8-1.4-1.45-2.7-2.9-1.05-1.1-2.05-2.25-.95-1.1-1.9-2.25-.7-.8-1.35-1.55-.65-.8-1.25-1.6l-1.7-2.2q-.85-1.1-1.6-2.2l-.3-.4-.3-.45-.05-.05q-.2-.25-.35-.5l-.95-1.35-.1-.2q-.15-.25-.3-.45-.15-.25-.3-.45-1.05-1.6-2-3.2-.95-1.55-1.8-3.15l-.35-.75q-2.45-4.55-4.05-9.15-1.65-4.65-2.4-9.3z"/></g><path fill="#a6ce38" d="M793 728.5l11.5 6.7q11.3 6.35 30.65 14.8 19.35 8.4 43.85 15l10.25-22.7q9.2-21.4 21.05-49.5 11.85-28.05 20.8-49.35l9.4-22.45-25.4-11.05L793 728.5z" id="c"/><path fill="#a6ce38" d="M1098.7 361.15q-17.25-14.15-44.1-10.5-23.5 4.25-54.6 19.6-31.1 15.35-66.25 37.35-35.2 22.05-70.9 46.35-14.35 10.9-20.25 40.55-5.9 29.7-6.95 66.25-1.05 36.6-.8 68.25.2 31.6-1.9 46.45 5.6 4.4 15.05 6.7 9.45 2.3 25.2 3.35 8.3-19.45 29.95-42.3 21.7-22.85 50-43.05 28.3-20.15 56.4-31.55 27.4-11.9 48.35-34.15 20.95-22.3 36.7-43.2 15.7-20.9 27.4-28.7 8.9-6 9.5-24.95.65-18.95-7.45-40.6-8.1-21.7-25.35-35.85z" id="d"/><path fill="#a6ce38" d="M1014.75 275.85q-14.05-10.5-36.05-11.4-13.65-.15-23.75 4.75-10.05 4.85-17 12.35-7 7.45-11.3 15.15-4.35 8.4-8.1 26.45-3.7 18.1-6.1 34.4l-2.75 19.55 3.7 3.15 10.3 3.45q13.6 3.6 30.3 6.25 16.7 2.7 26.35 3 9.45.05 24.45-2.55 14.95-2.55 27.85-6.7 12.9-4.1 16.1-8.7l-2.2-17.85q-2.05-13.4-5.3-28.85-3.2-15.45-6.85-26.15-5.6-15.85-19.65-26.3z" id="e"/><path fill="#a6ce38" d="M1051.9 298q-7.95 7.65-9.7 18.25-1.75 10.6 2.45 19.65 4.25 9 14.3 11.8 4.65-2.05 14.6-9.5t18.2-19.15l-1.75-1.55-4.85-3.4q-6.35-4.35-15.5-9.2-9.2-4.85-17.75-6.9z" id="f"/><path fill="#0083CB" d="M1010.6 309.3l-1-1.85-1.35-1.65-1.6-1.35-1.9-1-2-.6-2.15-.2-2.1.2-2 .6-1.9 1-1.6 1.35-1.35 1.65-1 1.85-.65 2.05-.2 2.1.2 2.1.65 2.05 1 1.85 1.35 1.65 1.6 1.35 1.9 1 2 .6 2.1.2 2.15-.2 2-.6 1.9-1 1.6-1.35 1.35-1.65 1-1.85.65-2.05.2-2.1-.2-2.1-.65-2.05z" id="g"/><path fill="#a6ce38" d="M1002.55 287.3q-8.85.45-13.15 6.95-4.3 6.55-5.15 14.7l35.45.25-1.05-5.7q-1.15-5.3-4.8-10.6-3.7-5.25-11.3-5.6z" id="h"/><g id="i"><path fill="#DF4444" d="M1203.3 468.35q.25.4.35.9l1.25.15.3-.2-.7-.5-1.75-.9q.35.2.55.55z"/><path fill="#FFF" d="M1073.9 284.75q-2.95-15-6.1-27.6-3.15-12.65-6.55-19.45l-22.8 137.5.7.75v1.25l-1.95 4.1q-3.35 5.05-9.1 12.5-5.8 7.45-11.05 15.5-5.25 8.1-7.05 15.1-2.45 10.1-5.7 23.3-3.25 13.2-4.65 27.75-1.35 14.5 1.7 28.55 3.1 14 13.3 25.7 10.35 11.15 29.35 20.5t40.4 14.5q21.4 5.15 38.9 3.7 17.5-1.45 24.85-11.9 5.4-8.25 14.7-20.85 9.3-12.65 18.9-26.15 9.65-13.5 16-24.45 6.35-10.9 5.9-15.8-4.4-.7-13.35-4t-20.2-8.75q-11.3-5.45-22.6-12.6-11.25-7.15-20.3-15.65-10.75-10.4-18.65-24.65-7.9-14.25-13.5-30.2-5.55-15.95-9.35-31.45t-6.25-28.45q-2.65-13.8-5.55-28.75z"/></g><path fill="#0081c6" d="M1016.9 219.15q-.75-.25-1.5-.4-1.6-.3-2.95-.6-1.4-.35-2.9-.75-1.2-.25-2.7-.3-1.5-.05-2.85-.2l-.85-.15q-.7-.15-1.3-.25v.85l-.05.6q-.05 3.25-.05 6.5-.05 3.3-.3 6.5-.35 4.8-.1 9.8.25 5 .4 9.85.15 12.15.1 24.35-.05 12.15.25 24.3.35 15.7.1 31.4-.2 15.75-.3 31.45-.05 15.75.75 31.4.1 3 .3 6.1.25 3.1 1.25 5.95l.15.45.35.7q.4.8.85 1.5.4.5 1 .85.65.3 1.2.15 1.4-.6 1.6-1.95.15-1.35.15-2.7.75-13.5 1.15-27.1.35-13.6.55-27.15.05-6.55.3-12.9.3-6.35 1-12.85.6-5 1.3-9.95.75-4.95 1.6-9.85.1-.4.15-.8.05-.45.15-.85l.15-1q.15-.8.25-1.5v1l-.05.45v.2q-.05 4.9.15 9.75.15 4.85.05 9.75-.15 6.4-.5 12.85-.3 6.45-.2 12.85.1 6.45 1.15 12.8.3 1.65.55 3.15.25 1.5.25 3.15l-.1 2.95q-.1 1.5-.05 3 0 .3.05.75 0 .45.1.75l.45.8.35.3.25-.2.2-.7V375.75q-.1 6.45-.35 12.85-.25 6.45.05 12.9.05 2.35.15 4.75.05 2.4.8 4.7l.3.8q.3.6.65 1.05.45-.3.9-.7l.55-.55q1.25-1.7 1.45-4.35.25-2.6 0-5.35-.25-2.75-.35-4.7-.1-4.5.1-9.15t.3-9.2q.4-13.9.55-27.8.2-13.9-.4-27.8-.15-2.45-.25-4.9-.15-2.4-.2-4.85l-.2-17.35q-.1-8.7-.1-17.35-.1-11.65-.5-23.3-.45-11.65-.95-23.25-.1-2.3-.25-4.65-.15-2.35-.4-4.65 0-.4-.05-.8-.1-.35-.15-.75-.2-.8-.35-1.05-.2-.25-.55-.3-.35-.1-1.1-.3-.75-.3-1.5-.55z" id="j"/><path fill="#FFF" d="M1016.75 227.15v-1.2q-.05-.95-.05-1.8-.45.05-1 .1l-4.15.2q-1.7.1-3.4.25-.45 0-.85.05-.45 0-.9.05l-1 .05q-.85.05-1.55.1v1.7q.35 45.95.3 91.9-.05 45.95.25 91.9.3 37.8.15 75.7-.2 37.85-.35 75.7-.25 51.9-1.15 103.75-.95 51.9-2.1 103.75l-.5 20.95-.5 20.9-.05.45v.7q-.05.95-.05 1.7v.95l-.05.45v1.8q-.05.85-.05 1.65 0 .4-.05.85v.85l-.05 1.25q0 .95-.05 1.75l1.45-.1h.25q3.3-.3 6.65-.55l6.7-.5 1-.1q.8-.05 1.5-.1v-1.6q.95-43.3 1.5-86.6.55-43.35.8-86.65.55-100-.35-200-.95-100.05-2.15-200.05 0-5.05-.05-10.1t-.15-10.1z" id="k"/><path fill="#FFF" d="M1093.3 494.05q-10.65-14-24.1-27.15-13.45-13.15-27.2-21.2-13.7-8.05-25.25-6.8-14.25 2.2-21.4 8.35-7.2 6.15-9.6 14.3-2.4 8.15-2.2 16.45.15 8.25.6 14.7l2.15 16.4 5.1 27.3q6.6 32.75 15.7 74.4 9.1 41.6 17.3 79.25 8.2 37.65 12.15 58.4l2.55 2.15 4.95 2.75q6.15 3.05 15.3 5.5 9.2 2.4 19.65 2.35 14.9-.4 23.45-2.9 8.6-2.55 12.2-5.25l2.75-2.35.95-1.5q10-49.1 11.6-88.35 1.6-39.2-2-68.25-3.55-29.05-9-47.6-5.5-18.55-9.6-26.25-5.4-10.7-16.05-24.7z" id="l"/><path fill="#FFF" d="M656.95 766.95l-8.05-.8q-1.6 0-2.6 1.1-1.05 1.1-1.1 2.55-.05 1.5 1.3 2.7l2.6 1.4 5.45 2.2q6.9 2.6 18.4 4.6 11.45 2 26.2 1.2 14.7-.75 31.5-6.45 11.65-4.35 21.95-12.65 10.35-8.3 18.3-17.35 8-9.05 12.6-15.55l4.8-7.25-1.05-1.4-2.9-2.8q-3.8-3.5-8.4-7.55-4.65-4-7.35-6.3-2.1 3.35-7.35 10.9Q756 723 748.5 732q-7.45 9.05-16.15 16.9-8.75 7.85-17.75 11.9-9.9 4.1-20.75 5.6-10.85 1.45-20.6 1.35-9.7-.15-16.3-.8z" id="m"/><path fill="#0081c6" d="M990.1 184.1l-.85-.4q-5.1-1.7-9.75-2.45-4.7-.7-9.55-1.05-4.55-.35-9.15.05-4.65.35-9.45 1.15-.45.05-.85.15-.4.15-.75.3-1.15.25-2.2.9l-.8.55-.3.25q-2.7 2.15-5.1 4.75l-4.7 5.1q-3.9 4.15-7.55 8.45l-7.2 8.6q-1.05 1.35-.7 2.55.4 1.2 1.65 1.4 1.25.15 2.8-1.45l.75-.85q.35-.4.75-.85.15 1 1.1 1.8 1 .85 1.9 1.35-1.75.6-2.05 1.7-.25 1.15.75 2 1 .8 3.1.5 4-.75 8.05-1.4 4.05-.65 8.05-1.4 4.6-.85 9.15-1.85 4.5-.95 9.05-1.95.4-.05.7-.2l.6-.3q.45-.1 1-.35.5-.2 1.1-.65 2.7-1.8 5.45-3.95 2.75-2.2 5.25-4.4 3.4-3 6.35-6.35 2.95-3.3 6.15-6.55.95-.95 1-2 .05-1.1-1.15-1.95l-.45-.15-.55-.35q-.25-.15-.4-.2-.55-.2-1.2-.5z" id="n"/><path fill="#FFF" d="M985.85 192.35l2.2-3.4.8-2.05q-4.05-2.1-9.95-3-5.95-.85-12.2-.85-6.25.05-11.25.7-5.05.65-7.3 1.6-1.85 1.05-5.6 4.95-3.75 3.9-7.8 8.65-4.1 4.75-7 8.2l-3.05 3.65 2 1.35q1.85 1.2 3.85 2.4l1.6.9.85.3q11.4-1.85 18.85-3.15 7.4-1.3 12.05-2.6 4.65-1.25 7.75-3 3.35-2.05 7.35-6.3 3.95-4.3 6.85-8.35z" id="o"/><path fill="#FFF" d="M743.95 723.9l2.15 27.15q2.05 25.8 4.75 59.75 2.65 33.95 4.75 59.8l2.2 27.3q3.95 7.25 20.65 10.8 16.7 3.55 37.9 3.45 21.25-.15 38.8-3.95 17.6-3.8 23.3-11.25l3.35-23.35q3.1-22.15 7.15-51.25 4.1-29.1 7.2-51.25l3.35-23.45q-9.85-10-28.9-17.35-19.05-7.35-42.25-11.05-23.25-3.7-45.6-2.8-22.35.9-38.8 7.45z" id="p"/><path fill="#0083CB" d="M943.65 840.8q-1.05-2.05-1.45-3.45-.75-2.75-1.15-5.5-.35-2.8-.9-5.5l-.5-1.5-.55-.4q-.6.1-1.05 1.35-.4 1.2-.4 2.45.15 3.15 1.1 7.5.95 4.35 3.1 7.95 2.1 3.6 5.8 4.45 3.45.45 5.8-2.6 2.35-3 3.65-7.05 1.3-4.05 1.65-6.75.15-1 .2-2.9.05-1.9-.25-3.6-.3-1.75-1.25-2.3l-.2-.05q-.15 0-.2.05-.35.35-.45.85l-.15.7q-.25 1.9-.3 3.9 0 2-.35 3.95-.3 1.7-1.15 4.5-.85 2.8-2.15 5.3-1.3 2.45-3 3.1-1.75.45-3.3-.95-1.5-1.45-2.55-3.5z" id="q"/><path fill="#FFF" d="M803.6 759.1l4.75 21.7q4.5 20.6 10.5 47.7 5.95 27.1 10.55 47.75l4.9 21.75q6.05 4.2 22.45 7.3 16.4 3.1 36.25 3.95 19.85.9 36.4-1.55 16.5-2.5 22.85-9.4 2.05-28.3 1.35-56.85-.65-28.6-2.55-52.65-1.95-24.05-3.65-38.75l-1.7-15.3q-19.15-5.55-37.35-5.35-18.25.15-35.8 4.4-17.55 4.25-34.75 11-17.15 6.75-34.2 14.3z" id="r"/><path fill="#0083CB" d="M943.35 838.65q-1.2-2.6-1.95-5.7-.8-3.05-1.8-5.85l-.4-.7-.3-.15q-.3.15-.45.85-.15.7-.15 1.4.2 3.1 1.2 6.95 1 3.8 2.75 6.95 1.7 3.15 4.05 4.3 4 1.55 6.85-1.1 2.85-2.65 4.45-7.45 1.6-4.75 1.75-9.5v-1.7q-.05-1-.25-1.8-.25-.75-.7-.7-.15.3-.3.65l-.15.5q-.6 2-.85 4.2-.3 2.15-.8 4.3-1.15 4.45-3.3 7.15t-4.75 2.35q-2.55-.35-4.9-4.95z" id="s"/><path fill="#0081c6" d="M945.25 654.15q-7.2 17.5-12.4 35.65-5.15 18.15-8.3 38.65-1.9 11.6-2.9 22.15-1 10.55.05 21.25t5.25 22.8l.65 1.7q.45 1.25 1 2.8.6 1.55 1.1 2.95-1.05.45-2.05.9l-2 .9-1.85.8q-1.45.65-2.5 1.3 1.7.2 3.85-.25 2.2-.5 4-1.1l2.45-.8q27.6-7.55 52.15-15.95 24.55-8.45 44.95-20.65 20.4-12.25 35.55-31.3 15.1-19 23.85-47.85 6.65-22.05 9-44.65 2.35-22.65-.95-45.55t-13.6-45.75q-4.95-11.05-10.2-22-5.25-11-11.4-21.35 8.75-5.5 18.15-10 9.4-4.45 19.55-7.65.5-.15 1.7-.5 1.2-.4 2.4-1 1.2-.65 1.65-1.65-1.3-.55-2.6-.35-1.3.2-2.6.25-1.6.25-3.5.7-1.9.45-3.45.85l-2 .55q-8.1 2.75-15.95 6.6-7.9 3.85-15.5 8.7v-.05l-.5-.85q-.4-.7-1-1.1-.2-.2-.4-.25-.25-.05-.45 0 .25.65.55 1.35.35.75.7 1.55-20.75 13.6-38.9 32.35t-32.65 39.5q-14.5 20.8-24.3 40.45-9.35 18.45-16.6 35.9m-188.55-25.7l-.15-1.2q-.1-.9-.6-1.6-.1-.15-.1-.3t-.05-.3q-.25.75.1 2.6.35 1.8.75 3.45l.5 1.8q.35 1.75.65 3.55.3 1.75.55 3.5-.15-.1-.25-.15-.15-.1-.25-.2-.75-.35-1.65-.3-.95.1-1 1.05.35.8.85 1.65.55.85 1.2 1.75 0 1.5.2 2.9l.25 1.85q.5 4.2 1.1 7.9.65 3.7.85 7.85.05.85.1 3.15 0 2.3.15 4.7.15 2.4.45 3.65.05 1.25.1 2.25l.05 1.3q.6 8.8-.2 17.15-.75 8.4-1.9 16.65-.45 2.5-.8 5.05-.3 2.6-.3 5.5-.65 7.25-.25 14.65.35 7.45 2.45 15.25.3 1.1 1.15 3.25.9 2.2 2.15 4.9 2.65 7.4 7.3 13.95 4.65 6.6 11.1 11.7.35.3 1.15.9.8.6 1.8 1.1 1 .5 1.95.5-.45-1.05-1.45-2.15-1-1.15-1.9-2.05l-1.3-1.2q-.95-.95-1.8-1.95-.9-.95-1.7-1.85 1.2-1 2.55-2.5 1.3-1.55 2.35-2.85 1.05-1.35 1.45-1.9 6.05-8.75 9.75-14.7 3.65-5.9 5.3-11.4t1.6-12.85q0-7.35-1.25-18.95-1.2-12.6-4-22.7t-8.15-19.25q-5.4-9.1-14.3-18.85-3.35-3.65-6.75-7.25-3.45-3.6-7-6.9l-.1-.05q-.75-3.2-1.45-6.25-.7-3.1-1.25-5.8z" id="t"/><path fill="#FFF" d="M747.9 407.05l-8.1 1.05q-7.65 1.2-17.15 5.7-9.55 4.5-15.6 14.2-6.05 9.75-3.35 26.65 1.65 8.35 6.9 25.9 5.25 17.55 12.5 39.9 7.2 22.35 14.85 45.1 7.65 22.8 14.05 41.7 1.65 5 3.75 15.45 2.05 10.5 4 23.55 1.9 13.1 3.05 25.9 1.15 12.8.95 22.55-.25 6.1-1.25 15.65-1.05 9.5-1.55 20.9-.55 11.4.7 23.1 1.2 11.7 5.35 22.15 6.7 14 30.1 19.4 23.45 5.4 54.15 4.95 30.75-.45 59.4-4t45.9-7.45q18.8-4.05 38.6-11.95 19.75-7.95 37.45-20.6 17.65-12.65 30.15-31 14.1-21.45 21.75-47.3 7.6-25.85 8.3-53.25.7-27.45-6-53.6-6.35-23.35-17.35-44.55-11.05-21.2-22.75-37.95-11.75-16.7-20.25-26.65l-9.75-10.9-43.05-7.85q-40.05-6.7-92.3-15.2t-91.8-14.85l-41.65-6.7z" id="u"/><path fill="#0081c6" d="M1162.4 196.4q-2.35-.6-5.15.05-.25.05-.85.2-.65.1-1 .55-1.35 1-2.9 2.45-1.55 1.5-2.75 2.75l-1.45 1.7q-5.55 8.65-10.45 16.8-4.9 8.2-10.05 16.1-1.65 1.8-3 3.85-1.4 2.05-2.6 4.25-2.7 3.7-5.7 7.35-3 3.7-6.4 7.4-4.5 5.05-9.15 10.9-4.7 5.85-9.9 11l-.7.45-.7.4-.25.1q-4.2 2.25-8 4.55-3.75 2.3-7.9 3.5-4.15 1.2-9.5.2-3.55-.8-6.7-3.4-3.1-2.6-5.7-6.35-2.6-3.75-4.55-8v-1.3q-.05-.6-.05-.8-.35-3.15-1.1-6.1-.75-2.95-1.55-5.85-.3-2.95-.55-5.6-.25-2.7-.6-4.85-.3-1.75-.55-3.4-.25-1.6-.9-3.2-.55-1.7-1.5-3.1-1-1.45-2.55-2.4l-.45-.45q-.2-.15-.35-.25-3.9-2.15-9.7.1-5.8 2.2-11.95 6.2-6.1 4-11 7.15-1.05.5-1.9.95l-1.15.65q-.25.1-.45.2l-.4.2q-7.75.65-14.45-1.9-6.65-2.5-13.1-7.55-6.45-5-13.55-11.7-6.7-6.3-14.85-11.5-8.15-5.15-17.1-7.9-8.95-2.75-18-1.75-1.35.1-3.2.05-1.9-.05-3.6.2-5.55.05-10.85.65-5.35.6-10.25 1.75-5.1 1.25-10.7 3.4-5.65 2.2-11.15 4.75t-10.2 4.9q-4.9 2.45-10.9 6.95-6.05 4.45-11.6 9.9t-9.05 10.85q-.85.9-1.5 1.7-.65.8-.95 1.2-2.3 3.15-4.45 8.7-2.15 5.6-3.95 12.65-2.35 5.55-3.55 10.75-1.2 5.2-.7 11.05-1.1 8.55-1.1 15.65 0 7.15 1.4 11.45 1.8 4.65 7.1 10.45 5.3 5.85 11.3 11.45 6 5.65 9.9 9.6 7.5 8.25 12.7 14.05 5.15 5.85 11.55 10 6.35 4.2 17.55 7.45 12.25 3.6 24 6.35 11.8 2.75 23.75 4.4 11.9 1.65 24.6 1.85 6.45 0 13.1.3 6.6.2 13.1 1.4 6.45 1.15 12.5 3.95 6 2.75 11.25 4.4 5.25 1.65 10.4 3.85 5.2 2.25 10.9 6.55 2 1.55 5.5 3.95 3.45 2.45 7.8 5.2 4.3 2.8 8.85 5.35-5.25 5-10.2 10.65-4.95 5.7-8.1 11.3-3.15 5.6-3 10.25.05.6.15 1.2.1.6.3 1.15.35.8.75 1.55t.85 1.45q.2.3.45.6l.5.5-.3-.05q.3.5.7 1 .35.5.75.95 6.85.9 13.25.6 6.35-.25 12.75-1.3 6.4-1 13.25-2.4 6.3-.7 12.7-1.85 6.45-1.2 12.9-2.95.95-.2 1.9-.5 1-.25 2-.55 17.25-4.95 33.15-14.3 15.9-9.3 28.4-23.8 12.5-14.5 19.65-34.95 1.15-3.3 2.65-7.8 1.55-4.55 2.9-9.55 1.4-5 2.1-9.75 2.05-9.8 3.4-19.6 1.3-9.8 2.1-19.15.65-7.1 1.4-13.1.8-6 1.15-12.15.4-6.1-.15-13.55-.55-8.3-.75-15.85-.25-7.55-.6-14.9-.35-7.35-1.45-15-.35-4.05-.95-8.05-.65-3.95-1.65-7.8-1.15-4.45-3.05-10.35-1.9-5.85-4.9-11.2-2.95-5.4-7.25-8.25-1.85-1.65-4.2-2.25m-140.65 44.55l.1-.05v.05h-.1m-37 11.1l-.4-.15-.15-.1q.11.07.2.1.2.05.35.15z" id="v"/><path fill="#FFF" d="M1122.8 255.7q-12.8 17.7-28.05 29.6-15.25 11.9-30.8 9.35-8.3-2-13.3-8.85-4.95-6.8-7.45-15.35-2.45-8.5-3.25-15.75-.75-7.2-.75-10-.1-2.8-1.95-4.65-1.8-1.85-4.5-2.15-2.75-.3-5.5 1.7-4.35 3.3-10.4 7.4-6.1 4.05-13.1 6.85-6.95 2.75-14 2.2-3.45-.5-8.85-4.25-5.45-3.75-11.9-9.25-6.45-5.45-12.9-11.05-6.45-5.65-11.95-9.85-4.35-3.5-15.35-6.45-11-3-27.4-2.25-16.45.75-37.2 8.4-14.4 5.75-23.85 12.85-9.45 7.1-14.4 12.95l-3.95 4.8-1.85 2.85q-3.9 7.5-10.1 24.3-6.15 16.8-12.5 35.55-6.35 18.75-10.65 32.1l-4.5 13.95 2.3 7q2.15 6.55 8.1 17 5.9 10.4 17.45 22.55 11.5 12.15 30.5 23.85 23.6 13.95 47.2 22.7t43.5 13.25q19.9 4.5 32.5 5.75 38.15 4.1 68.2 2 30-2.05 51.95-9.05 21.95-7 35.85-17.7 18.65-14.25 31.8-34.95 13.2-20.7 20.3-46.1 7.1-25.35 7.6-53.75.4-33.9-1.65-56.3-2.05-22.35-4.55-34.35l-3.4-14.8q-1.5-5.4-5-7.1-3.5-1.7-6.95-.55t-4.9 4.4l-9.45 18.5q-8.2 14.95-20.95 32.65z" id="w"/><path fill="#0081c6" d="M884 161.5q-4.55 2.2-8.15 4.9-2.95 1.8-5.5 3.8-2.5 2-4.45 4.2-2.7 2.3-4.85 4.7-2.15 2.4-3.5 4.85-1.75 3.3-2.65 8.15-.9 4.85-1.25 9.85t-.45 8.7q-.1 3.25-.05 6.5 0 3.2.15 6.45l.2-.15.2-.1.05-.05.7-.4q.35-.15.7-.35l.35-.2-.2.4q.75 0 1.7-.45t1.3-.6l4.2-1.6q2.1-.75 4.25-1.5h.25l.2-.15q4.45-1.5 8.9-2.7 4.5-1.2 9.1-1.95 0-.35.15-.7t.4-.65q-2.7.5-5.55 1.15-2.9.7-5.85 1.5.25-.1.4-.15l.2-.15q2.15-1 3.7-2.35 1.55-1.35 3.75-2.45 2-.95 4.6-1.95 2.55-1.05 4.3-2.1l.6-.5v-.25q-.3-.15-.55-.6-.05-.1.05-.3.1-.25.15-.45.6-.25 1.35-.5.75-.3 1.55-.6l-.1.15-.95 1.25q-.25.35.2.3-.4.6-.95 1.15-.55.6-1.3 1.2l-.85.95q-.65.75-1.45 1.7-.75.95-1.25 1.55l.6-.2q.3-.15.6-.25.45-.2.9-.35.5-.2.95-.3l.45-.05.1-.05q.3-.05.6-.05h.6l.25.05q2.7-2.8 4.95-6.2 2.25-3.4 3.35-6.9 2.1-3.45 3.3-7.75 1.2-4.25 1.65-8.7.65-3.25 1.05-6.95.35-3.7.2-7.2-.15-3.55-.9-6.2-.2-.55-.5-1.35-.35-.85-.75-1.35l-.25-.3q-.3-.55-1-.75-.75-.15-1.35-.15l-.7.05q-4 .4-8.7 1.8-4.65 1.45-9.2 3.65m-24.25 20.35l-.05.15-.3.4q-.15.2-.35.4.2-.25.35-.5.15-.25.35-.45m40.2-24.95h-.05l.25-.05-.2.05m-.2 40.3l.15-.3q.05-.1.1-.3l.1.05q-.1.15-.15.3-.1.15-.2.25m-28.95 18.95q.25-.15.45-.3.25-.15.45-.3l.1.25h.05l-.55.2q-.25.05-.5.15m-5.95-40q.271-.232.55-.5l-.35.35-.5.5-.35.3q.3-.35.65-.65m19.55 31.7q.225-.069.4-.2.2-.1.45-.25-.2.15-.45.3-.175.088-.4.15M853.8 214v-1l.05.1q0 .428-.05.9z" id="x"/><path fill="#FFF" d="M889.05 162.7q-6.85 3.55-13.1 8.35-6.25 4.75-10.7 9.3-4.45 4.55-5.8 7.35-.9 2.55-1.35 9.55-.45 7-.6 15.1-.15 8.05-.15 13.9v6.1l2.8-.25q2.65-.25 6.15-.65 3.5-.4 6.25-.8l2.2-.4.95-.3q8.7-11.05 13.9-18.95 5.15-7.95 7.6-13.05 2.4-5.1 2.9-7.65.45-2.15 1.05-6.9.65-4.75 1.1-10.2.45-5.45.5-9.65l-.2-3.4-.55-1.8q-6.15.8-12.95 4.35z" id="y"/><path fill="#0081c6" d="M968.5 520.65l-.7 1.5q-.6 1.4-1.2 3.3l-.9 2.3q-.45 1.1-.85 2.15-.3.6-.55 1.2-.25.6-.4 1.15-.15.4-.3.75-.1.4-.25.75-.05.1-.15.35-.1.25-.25.6-.6.9-1.35 2.2-.75 1.35-1.3 2.45-.15.6 0 1.05.15.5.7.75.95-.05 1.35-.9.4-.9.65-1.45l.05-.05q.4.25.5 0l.2-.45.5-.65q2.85-3.2 5.85-6.6 2.95-3.35 5.3-6.85 1.85-2.8 4.85-6.65 2.95-3.85 6.7-8.25 3.7-4.35 7.75-8.65 1.3-1.2 2.7-2.4 1.35-1.2 2.85-2.45l2.7-2.45q2.55-2.3 6.1-5 3.6-2.65 6.9-4.05.3-.05.65-.2.3-.1.65-.2.9-.2 1.65-.2.75.05 1.35.35.2-.3.3-.6.1-.3.05-.6.15.05.25.1.1.1.2.15.4-1.35-.55-2.15-.95-.75-2.35-.75-1.1 0-2.4.35-1.25.4-2.75 1.05-5.45 2.4-11.4 6.95-5.95 4.55-11.8 10.3-5.8 5.75-10.8 11.65-.05-.25-.1-.45-.1-.2-.2-.35-.15 0-.35.15l-.2.2q2.1-6.1 5-12.15 2.9-6.1 7.5-12.3.6-.75 1.25-1.55t1.35-1.6q.75-.8 2.4-2.6t3.1-3.85q1.45-2 1.5-3.5-.35-.3-.85-.05t-.8.5q-6.95 4.65-12.85 13.45-5.85 8.8-10.3 18.2-4.45 9.45-6.95 16.05z" id="z"/><path fill="#FFF" d="M986.25 295.45q-2.35-6.75-7.9-11.65-5.5-4.95-15.3-6.75-9.95-1.5-16.9 1.55-7 3.1-11.65 8.85-4.65 5.8-7.5 12.35-2.85 6.5-4.55 11.9 8.9 1 20.1 2.9 11.2 1.85 23 4.1 11.75 2.2 22.35 4.35.95-6.45.8-13.65-.15-7.25-2.45-13.95z" id="A"/><path fill="#0081c6" d="M821.75 510.45l.1-1.7-19.15-13.2-11.65-6.85-9.75-4.7-10.25-3.55H771l-10.7-2.25-10.95-1-11 .55-10.8 2.45-5.2 2.05-7.3 4-4.4 3.3h-.05l-5.95 5.5-3.55 4.2-2.9 4.65-2.3 4.95-3.85 12.85-4 15.35v.05l-5 30.05-3.15 52.4-.45 24.8 1.7 24.7 5.25 46.3v.05l2 12.65 4.3 17.55 3 7.35 1.4 2.2 2.1 2.25 2.25 1.8 7.3 4.2 10.25 4.05 13.3 3.55 10.85 1.65 8.35.4 5.4-.5 12.95-3.5L787 761.6l6.95-4.1 4.4-3.45 1.7-2.2v-.15l.25-.35.65-2.7 4.25-30.3 16.6-146.45 2.45-50.45-.95-10.5-1.55-.5z" id="B"/><path fill="#FFF" d="M820.1 480.65q-3.35-8.55-10-16.35-6.65-7.85-16.95-13.5-10.35-5.7-24.75-7.85-11.35-1.5-21.6 1.4-10.25 2.9-18.55 8.6-8.35 5.7-14.05 12.7-5.7 7-8 13.8L700.85 500l-2.55 11.45q-5.35 25.1-9.4 63.1-4 38-2.4 83.45t13.1 92.9l1.55 1.85 4.25 3.25q5.55 3.95 16 7.6 10.5 3.65 25.5 4.1 14.2 0 24.15-3.65 10-3.65 15.65-7.95l4.55-3.7 2.35-2.55q3.25-21.15 8.45-58.4 5.15-37.3 10.35-78.2 5.2-40.95 8.5-73.1l2.4-26.85.55-16.25q-.4-7.85-3.75-16.4z" id="C"/></defs><use xlink:href="#a" transform="matrix(-.01364 .10779 .10779 .01364 1067.5 582.2)"/><use xlink:href="#b" transform="matrix(.01196 .14192 .14192 -.01196 1041.35 519.85)"/><use xlink:href="#c" transform="matrix(-.08522 .11528 .20213 .18396 1102.85 470.4)"/><use xlink:href="#d" transform="matrix(-.06216 .12814 .12814 .06216 1124.7 542.4)"/><use xlink:href="#e" transform="matrix(.08298 .11577 .11577 -.08298 987.05 622.6)"/><use xlink:href="#f" transform="matrix(-.0427 .13588 .13588 .0427 1104.55 558.95)"/><use xlink:href="#g" transform="matrix(.03801 .13727 .13727 -.03801 1023.35 583.4)"/><use xlink:href="#h" transform="matrix(-.04573 .13489 .13489 .04573 1107.95 559.05)"/><use xlink:href="#i" transform="matrix(-.2273 -.54414 -.3191 .34653 1030.05 880.05)"/><use xlink:href="#j" transform="matrix(-.7763 -.65295 .45886 -.45975 1347.9 1211.8)"/><use xlink:href="#k" transform="matrix(-.7763 -.65295 .45886 -.45975 1347.9 1211.8)"/><use xlink:href="#l" transform="matrix(.36606 -.56369 -.55818 -.36485 799.85 1245.8)"/><use xlink:href="#m" transform="matrix(.6681 -.0138 .00882 .67075 283.45 247.55)"/><use xlink:href="#n" transform="matrix(.52283 -.47673 .48169 .49538 267.65 762.15)"/><use xlink:href="#o" transform="matrix(.52283 -.47673 .48169 .49538 267.65 762.15)"/><use xlink:href="#p" transform="matrix(.66505 .0626 -.18332 .65285 436.1 241.85)"/><use xlink:href="#q" transform="matrix(.62659 .14708 -.26721 .64851 481.1 171.55)"/><use xlink:href="#r" transform="matrix(.63164 -.01477 .00974 .81119 398.75 164.2)"/><use xlink:href="#s" transform="matrix(.62381 .15877 -.14859 .75642 552.15 67.45)"/><use xlink:href="#t" transform="matrix(.66577 -.01015 -.0729 .72763 344.9 224.95)"/><use xlink:href="#u" transform="matrix(.66577 -.01015 -.0729 .72763 344.9 224.95)"/><use xlink:href="#v" transform="matrix(.6857 -.19118 .16934 .65045 212.45 448.6)"/><use xlink:href="#w" transform="matrix(.6857 -.19118 .16934 .65045 212.45 448.6)"/><use xlink:href="#x" transform="matrix(.63605 -.2917 .3883 .5868 193.65 562.6)"/><use xlink:href="#y" transform="matrix(.63605 -.2917 .3883 .5868 193.65 562.6)"/><use xlink:href="#z" transform="matrix(-.41408 .41615 .30562 .53624 1177.75 -200.1)"/><use xlink:href="#A" transform="matrix(.6862 -.18976 .17313 .66109 173.45 429.05)"/><use xlink:href="#B" transform="matrix(-.63216 .39268 -.40125 -.64162 1511.5 566.7)"/><use xlink:href="#C" transform="matrix(-.63216 .39268 -.40125 -.64162 1511.5 566.7)"/></svg>