<svg xmlns="http://www.w3.org/2000/svg" xmlns:xlink="http://www.w3.org/1999/xlink" preserveAspectRatio="none" width="760" height="880" viewBox="614 10 760 880"><defs><path fill="#FFF" d="M656.95 766.95l-8.05-.8q-1.6 0-2.6 1.1-1.05 1.1-1.1 2.55-.05 1.5 1.3 2.7l2.6 1.4 5.45 2.2q6.9 2.6 18.4 4.6 11.45 2 26.2 1.2 14.7-.75 31.5-6.45 11.65-4.35 21.95-12.65 10.35-8.3 18.3-17.35 8-9.05 12.6-15.55l4.8-7.25-1.05-1.4-2.9-2.8q-3.8-3.5-8.4-7.55-4.65-4-7.35-6.3-2.1 3.35-7.35 10.9Q756 723 748.5 732q-7.45 9.05-16.15 16.9-8.75 7.85-17.75 11.9-9.9 4.1-20.75 5.6-10.85 1.45-20.6 1.35-9.7-.15-16.3-.8z" id="a"/><path fill="#a6ce38" d="M737.95 398.15l-2.45-.4q-1.25-.2-2.5-.35-1.25-.2-2.5-.35 2.05 1.15 3.95 1.4 1.9.2 3.5-.3m205.2 184.65q-3 5.75-4.2 10.35.35.1.75.25.35.1.75.25 2.1.75 4.25 1.45 2.15.75 4.3 1.45.5-.95 1.1-1.85.55-.9 1.1-1.85 5.3-8.6 11.5-17.15 6.2-8.5 13.15-16.85 11.95-14.35 25.4-27.7 13.45-13.3 27.6-25h-.1l-.2-.1-.65-.15q-.3-.1-.65-.15l-.7-.2q-1.6 1-4 .9-2.4-.15-4.8-1.75l-.6-.4q-17.9 12.25-33.5 28.25-15.6 15.95-29.25 32.45-1.85 2.2-5.05 7.15-3.2 4.95-6.2 10.65m-106.3-159.6q3 1.05 6.4 1.05-3.15-1.05-6.3-2.05l-6.3-2q3.2 2 6.2 3m-153.4-254.9q-2.45-1.35-5.45-2.25-3.05-.95-5.9-.5-.6-.15-1.35-.1l-.95.1q-12.9 1.6-16.75 9.25-3.85 7.6-1.8 18.25 2.1 10.7 7 21.55 1.15 5.6 3.5 11.8 2.3 6.25 5.45 12.65-5.1-2.9-11-4.4-5.95-1.55-11.2.2-5.2 1.75-8.2 8.7l-.15.55q-.15.5-.35.9-.35 1.1-.65 2.5l-.35 1.7q-1.15 6.55-.7 13.6.45 7.1 2.3 13.85l.7 2.8q.4 1.4.8 2.7.45 1.7.95 3.4.5 1.7 1.1 3.45l1.1.75q6.5 12 16.25 20.15 9.7 8.1 19 14.8.05 1.05.2 2.2.1 1.15.3 2.35-1.05 4.55.4 10.9 1.55 6.4 3.45 11.05 1.75 4.4 4.6 8.65 2.85 4.3 6.45 8.35l1.1-.1q.55-.05 1.15-.05 1.55 0 3.25.2 1.65.2 3.4.55 1.15.25 2.3.55 1.15.3 2.35.6 4.25 1.2 8.35 2.5 4.15 1.3 7.8 2 .85.15 1.75.35l1.75.3q19.75 3.7 39.45 7.7 19.7 4 39.35 8.15 5.9 1.2 11.75 2.45 5.9 1.25 11.75 2.45.65-.25 1.25-.4.55-.1.95-.15.4-.2.95-.2l.7.05q11.65 1.3 24.55 6.05t24.2 11.15q25.8 14.3 51.9 28.4 26.15 14.1 52 29.65-3.75-2.85-7.5-5.9-3.8-3-7.55-6.25-1.6-1.4-3.15-2.8l-3.2-2.8v-.05q-62.2-48.05-116.55-100.05-54.4-52.05-101.3-107.05-12.1-14.2-23.75-28.5-11.6-14.35-22.75-28.85-3.8-4.95-7.55-9.9t-7.45-9.95z" id="b"/><path fill="#a6ce38" d="M1347.85 394.9l-2.35-1.95-6.25-.1q-7.3 2.2-14.3 4.2-7 2-13.35 3.35-.3.05-.55.1l-.6.1q-81.6 22.4-169.2 31.25-87.6 8.85-178.4 7.8-40.75 1.6-81.8 1.55-41.05-.05-82.05-2.25-6.1-.35-12.15-.7-6.1-.4-12.15-.85-2.55-.2-5.15-.4l-5.2-.4q-7.95-.65-16.1-1.4-8.15-.8-16.4-1.75-2.6.5-5.5 1.65t-4.25 3.25q-.5.2-.85.65l-.45.6q-5.75 8.05-1.3 14.65 4.4 6.6 14.8 11.75 10.35 5.15 22.4 8.85 5.5 2.7 12.2 5.1 6.7 2.4 14 4.5-1.35.5-3.15 1.3-1.75.8-3.15 1.7-1 .6-1.95 1.15l-1.8 1.2q-.1.25-.4.4l-.35.2q-5.6 6.15-.9 12.55 4.7 6.45 14.65 12.1 14.65 11.2 40.3 18.65 25.7 7.5 52.65 11.9 27 4.4 45.5 6.45 8.05.95 15.8 1.55 7.75.6 15.25.9-.7 3.35.35 6.95 1.1 3.6 3.5 7.4.85 1.4 1.9 2.75 1 1.35 2.1 2.65 12.65 9.7 30.9 14.2 18.2 4.5 37.5 6.1 19.35 1.6 35.3 2.6 0 1.25.45 2.45.5 1.2 1 2.05 8.65 12.5 23.3 17.4 14.65 4.9 30.25 5.25 17.15.75 35.7-.75 18.5-1.5 37.5-4.8 3.65-1.35 7.3-2.65 3.6-1.35 7.25-2.7 12.65-4.8 25.1-9.75 12.4-4.95 24.55-9.95 5.05-2.1 10.05-4.2 5-2.05 9.95-4.15 1.6-.65 3.15-1.3 1.55-.7 3.15-1.35 4.5-1.95 9.05-4.05 4.55-2.05 9.1-4.2 10.5-4.95 20.75-10.35 10.25-5.4 20.05-11.2 1.4-.8 2.7-1.65l2.7-1.6.3-.2.3-.2-.1-.3q-.05-.15-.15-.25-.15-.1-.35-.2-.15-.1-.35-.15-1.25-4.15-2.6-8.05-1.35-3.9-1.75-5.45-7.8-28.7-18.55-57.2-10.75-28.5-19.5-57.3-.15-.5-.35-1.55-.2-1.05-.6-2.4 8.85-2.95 16.9-6.25 8.05-3.35 15.2-7l7.35-4.7 2.15-3.55M796.3 497.5l-.5-.3q-.2-.15-.45-.3.05-.2.1-.35l.1-.4q.2.35.35.7.2.3.4.65m-19.35 4.9q.05.15.05.3-1.05-1-1.8-2.05-.75-1-1.15-2.05.6.9 1.3 1.75l1.5 1.7q.05.15.1.35z" id="c"/><path fill="#a6ce38" d="M793 728.5l11.5 6.7q11.3 6.35 30.65 14.8 19.35 8.4 43.85 15l10.25-22.7q9.2-21.4 21.05-49.5 11.85-28.05 20.8-49.35l9.4-22.45-25.4-11.05L793 728.5z" id="d"/><path fill="#a6ce38" d="M1126.45 316.6L1108 333.45q-14.65 14.1-33.35 32.25-18.65 18.15-34.45 33.25l-21.7 19.8-8.05 10.4-12.75 20.6q-15.1 25.65-35.4 58.2-20.25 32.5-41.55 58.35-21.3 25.85-39.45 31.45-17.95 5.3-28.25 17.8-10.35 12.55-10.6 22.95-.3 10.4 11.85 9.2l15.85-6.4 10.7-7.15 12.55-9.8q14.75-11.35 52.2-26.75 37.4-15.35 80.1-32.95 42.65-17.65 73.1-35.85 47.5-29.5 74.95-54.9 27.45-25.4 41.6-51.7 14.15-26.35 21.75-58.6 5.1-24.15-9.25-35.75-14.4-11.55-36.8-14.45-22.45-2.9-41.45-1.1l-15.3 1.95-7.85 2.35z" id="e"/><path fill="#a6ce38" d="M1037.75 310.3q-28.5-9.5-51.15-7.95-22.7 1.55-28.75 13.2-5.15 11.9-9.05 29.15-3.95 17.3-7.2 35.75t-6.4 34q-.95 11.1 24.45 14.2 25.4 3.15 59.95 1.7 34.55-1.45 61.15-4l28-2.85-4.85-21.15q-4.55-19.6-9.1-39.35l-5.05-21.65q-23.5-21.55-52-31.05z" id="f"/><path fill="#a6ce38" d="M1012.35 269.55q-15.25 1.75-24.45 7.2-9.2 5.5-13.5 10.45-4.35 4.65-9.75 13.8t-9.85 19.5q-4.45 10.35-5.9 18.45-.9 7.85 8.25 17.3 9.1 9.5 24.1 16.95 14.95 7.45 31.55 9.2 16.7 1.25 34-2.55 17.35-3.85 30.2-10.35 12.85-6.5 16.1-13.25-.1-7.45-4.95-25.25-4.8-17.75-14.3-34.75-9.55-17-23.7-22.1-22.55-6.3-37.8-4.6z" id="g"/><path fill="#a6ce38" d="M1108.3 290.6q-24.8-2.75-41.3-3.7l.45 10.85q.7 10.15 2.05 22 1.35 11.8 3 17.6l8.55-3 17.8-5.1q22.4-6.15 45.5-14.25 23.15-8.15 29.2-16.1l-20.8-3q-19.65-2.6-44.45-5.3z" id="h"/><path fill="#0083CB" d="M1035.4 302.25l-1.9-1-2-.6-2.15-.2-2.1.2-2 .6-1.9 1-1.6 1.35-1.35 1.65-1 1.85-.65 2.05-.2 2.1.2 2.1.65 2.05 1 1.85 1.35 1.65 1.6 1.35 1.9 1 2 .6 2.1.2 2.15-.2 2-.6 1.9-1 1.6-1.35 1.35-1.65 1-1.85.65-2.05.2-2.1-.2-2.1-.65-2.05-1-1.85-1.35-1.65-1.6-1.35z" id="i"/><path fill="#a6ce38" d="M1040.4 290.7q-3.7-5.25-11.25-5.6-8.85.45-13.2 7-4.3 6.5-5.15 14.65l35.45.25-1.05-5.7q-1.1-5.3-4.8-10.6z" id="j"/><path fill="#0081c6" d="M980.15 288.4q-1.7-10.5-3.7-20.9l-3.1-16.5q-1.5-8.25-3.45-16.4l-.4-1.6q-.2-.8-.45-1.55-.1-.35-.2-.75t-.3-.7l-.5-.45-.7-.05q-.75-.2-1.45-.3-.75-.15-1.45-.25-1.25-.15-2.65-.1-1.35.05-2.7-.1-.95-.15-1.55-.2-.65-.05-1.6.05-.75.05-1.45.1-.7.1-1.4.1-.4.05-.75.05h-1.5q-.6-.05-1.05-.05.05.4.1.85l.05.6q.45 3.2.95 6.45.5 3.2.7 6.45.4 4.75 1.4 9.65 1.05 4.85 1.95 9.6 2.05 11.7 3.85 23.5 1.75 11.75 3.9 23.45 3.1 16.85 5.5 33.9 2.45 17.05 5.1 34 1.15 7.3 2.45 14.6 1.3 7.3 3 14.5.35 1.6.85 3.1.5 1.55 1.4 2.9l.55.75q.45.55.85 1.05.5.4 1.2.65.65.2 1.15 0 1.35-.8 1.3-2.3-.05-1.45-.25-2.85-1.2-13.4-2.9-26.9-1.7-13.5-3.65-26.8-1-7.2-1.7-14.25-.65-7.05-.75-14.35-.05-4.1-.05-8.2t.05-8.2v-.3l.05-.5v-1.25q.05.45.1.95l.1.65q.7 4.85 1.65 9.6.95 4.8 1.6 9.65.75 6.35 1.45 12.85t1.85 12.9q1.15 6.45 3.35 12.45.85 2.3 1.15 4.35.3 2.05.6 4.45.05.55.2 1.45.15.9.4 1.4l.55.7.4.25.2-.25.1-.7q.1.45.15 1l.1.7q.75 5.8 1.35 11.6.6 5.8 1.75 11.5.45 2.25.8 4.55.4 2.3 1.2 4.45.15.4.35.75.15.4.4.8l.35.6q.35.45.7.8.45-.3.8-.8l.5-.65q1.05-1.85.8-4.55-.2-2.65-.9-5.4-.65-2.7-1-4.7-1.7-12.45-3.2-24.9-1.5-12.5-3.4-24.9-1.9-12.4-4.65-24.7-.9-4-1.6-8.2-.7-4.15-1.4-8.25-1.8-10.45-3.5-20.9z" id="k"/><path fill="#FFF" d="M985.75 352.95q-4.85-29.2-9.75-58.4-4.9-29.25-10-58.4l-.15-.85q-.1-.65-.2-1.25l-1 .2-.7.15q-1.65.4-3.35.75-1.7.35-3.35.75-.4.1-.85.15-.4.1-.85.2l-2.5.55q.1.5.15 1.05l.15.65q7.7 46.85 15.15 93.7 7.45 46.9 14.6 93.8 5.3 34.65 9.7 69.5 4.4 34.85 7.3 69.8 2.9 35 3.75 70.1.85 43.4-.35 86.7-1.2 43.25-3.25 86.65-.05.4-.05.85 0 .45-.05.85l-.05 1.25q-.05.95-.1 1.8 0 .4-.05.95v.6l-.1 1.6-.1 1.6v.85l-.15 2.25q-.05 1.1-.1 2.05.45 0 1-.05l.7-.05q3.3-.15 6.65-.35 3.35-.15 6.7-.35l.35-.05h.65q.8-.05 1.5-.1 0-.45.05-.95v-.7q1.75-35.55 2.8-71.2 1-35.7.85-71.35-.2-35.7-2.05-71.25-2.4-42.6-7.45-85.05-5.1-42.45-11.75-84.75-6.65-42.25-13.75-84.25z" id="l"/><g id="m"><path fill="#FFF" d="M512.7 673.05l-.1.4q-.05.25-.1.45-.4 1.55-.9 3.1-.55 1.55-1.2 3-.65 1.45-1.55 2.7-.1.15-.25.3l-.2.3-.05.05q2.25 4.7 3.9 9.7 1.6 5 2.8 10.25.5 2.7 1 5.35.5 2.7 1.1 5.35l.05.4v.05l.2.4.2.15v-.1l.05.05v.35l.05.05h.05q.2-.05.3-.25.05-.2.05-.35.05-.2.1-.35 0-.2.05-.35v-.2q.25-1.8.3-3.9.05-2.05-.05-4.15-.05-2.05-.25-3.9 0-.1-.05-.35l-.1-.6-.1-2.7q-.1-1.35-.2-2.65.05-.45.05-.9t-.05-.85q-.1-.35-.25-.55-.15-1-.3-1.95-.1-1-.3-2-.2-1.25-.4-2.45-.25-1.25-.5-2.4-.35-2.15-.85-4.2-.55-2-1.3-3.75l-.05-.15v-.15q-.05-.35-.2-.8-.15-.45-.3-.8l-.15-.45q-.15-.25-.25-.55-.1-.3-.25-.6m5.2 39.5V712l.05-.6v.75q-.044.175-.05.4m-16.1-41.6l-.5.2q1.95 2.75 3.65 5.6 1.65 2.9 3.05 5.8.1-.1.15-.2l.1-.2.2-.3q-1.4-2.95-3.1-5.7-1.65-2.75-3.55-5.2m7.15-4.25q.1-.1.2-.15l.2-.1q-1.4-2.5-3.05-5-1.6-2.5-3.35-4.7-1.8-2.25-3.55-3.85-1.8-1.6-3.5-2.25l-.05-.05q0 .15.05.3l.1.3q.2.65.35 1.3l.35 1.35q.65 2.6 1.4 5.2.75 2.55 1.5 5.15.7 2.55 1.3 5.15v.1l.1.15.1.5q.05.15 0 .3 0 .1-.05.2-.1-.05-.2-.15-.05-.15-.1-.25-.05-.15-.05-.2l-.1-.3q-.1-.2-.15-.35-.05-.1-.2-.25-.1-.1-.25-.2-.5-.85-.9-1.65-.4-.8-.75-1.65-.35-.85-.65-1.85-.6-2.05-1-4-.4-2-.7-4-.25-2-.45-4.05-.1-.25-.15-.5l-.2-.7v-.05h-.2l.15.15q-.05.15-.05.4v.55l.05.05q.05 2.4.45 5.05.4 2.7 1.05 5.35.65 2.6 1.6 4.8.15.45.45 1.05.35.65.7 1.25t.65.9q.2.25.3.25.15 0 .15-.2l.3.4q.1.15.15.2l.05.1q.15-.05.25-.1.15 0 .25-.05l.4-.1.35-.15q1.2-.5 2.3-1.1 1.15-.6 2.25-1.25t2.15-1.3m.9.65l-.3.25-.1.05q.7 1.2 1.25 2.4.6 1.2 1.15 2.35 0-.2.05-.45l.1-.4q-.45-.95-1-2.05-.55-1.05-1.15-2.15z"/><path fill="#0081c6" d="M496.7 653.85l-.35-1.35q-.15-.65-.35-1.3l-.1-.3q-.05-.15-.05-.3-.15-.45-.3-.85-.1-.4-.25-.8-.15-.35-.25-.5-.15-.1-.3.05-.05.15 0 .3 0 .2.05.35l.05.1v.05q.1.3.15.6l.2.55v.05l.2.7q.05.25.15.5.6 2.35 1.25 4.65.6 2.3 1.35 4.6.45 1.35.85 2.8l.7 2.8q.35 1.45.75 2.8.05.15.15.35l.1.3q0 .05.05.2.05.1.1.25.1.1.2.15.05-.1.05-.2.05-.15 0-.3l-.1-.5-.1-.15v-.1q-.6-2.6-1.3-5.15-.75-2.6-1.5-5.15-.75-2.6-1.4-5.2m13.8 11.85l-.05.05q-.25.15-.55.35-.3.15-.55.35l-.2.1q-.1.05-.2.15-1.05.65-2.15 1.3-1.1.65-2.25 1.25-1.1.6-2.3 1.1l-.35.15-.4.1q-.1.05-.25.05-.1.05-.25.1l-.9.2-.9.2h-.6l-.15.05h-.05q-.05 0-.05.05-.05 0-.05.05h-.25l-.05.05q.15.35.6.4.45.05 1-.05.55-.15 1.05-.3.45-.15.65-.25l.5-.2q.2-.05.4-.15l.45-.15q1.2-.4 2.45-.85 1.2-.45 2.35-1 1.1-.55 2-1.15l.1-.05.3-.25q.35-.2.65-.45.3-.25.65-.45l.2-.2.1-.05-.05-.1-.15-.1-.15.05q.25-.15.3-.3 0-.15-.2-.3-.15 0-.3.05t-.3.15l-.1.05m1.65 4.75q-.05.2-.05.35v.2q-.05.15-.05.25-.05.15-.05.3l-.1.4q-.05.25-.05.45-.15.6-.25 1.2-.1.55-.15 1.15-.45 1.85-1.2 3.6t-1.8 3.5l-.2.3-.1.2q-.05.1-.15.2-.15.3-.25.6-.15.3 0 .5l-.05.25q-.05.1-.15.2-.1.1-.1.2-.05.1.05.2.2 0 .35-.25.15-.2.3-.45l.05-.15.05-.05.1-.25.05-.05.2-.3q.15-.15.25-.3.9-1.25 1.55-2.7.65-1.45 1.2-3 .5-1.55.9-3.1.05-.2.1-.45l.1-.4.2-.8.2-.8q.05-.3 0-.5 0-.2-.3-.15.05-.25 0-.45-.05-.15-.25-.2l-.05.1-.2-.05q-.1.1-.15.25m-6.35 15.9l.05-.1-.05-.05h-.05q-.1-.05-.15-.1-.15.05-.3.2l-.2.3q-.1.2-.15.25-.55.7-1.25 1.3-.7.55-1.4 1.15-.3.25-.25.4.1.15.45-.05.15-.1.35-.2.15-.05.3-.15l-.1.15q.2.1.5-.1.3-.15.55-.35l.2-.15.1-.1q.2-.2.7-.75.45-.5.85-1.05l.3-.45.05-.3q0-.05-.05-.05h-.05l-.4.2z"/></g><path fill="#FFF" d="M1093.3 494.05q-10.65-14-24.1-27.15-13.45-13.15-27.2-21.2-13.7-8.05-25.25-6.8-14.25 2.2-21.4 8.35-7.2 6.15-9.6 14.3-2.4 8.15-2.2 16.45.15 8.25.6 14.7l2.15 16.4 5.1 27.3q6.6 32.75 15.7 74.4 9.1 41.6 17.3 79.25 8.2 37.65 12.15 58.4l2.55 2.15 4.95 2.75q6.15 3.05 15.3 5.5 9.2 2.4 19.65 2.35 14.9-.4 23.45-2.9 8.6-2.55 12.2-5.25l2.75-2.35.95-1.5q10-49.1 11.6-88.35 1.6-39.2-2-68.25-3.55-29.05-9-47.6-5.5-18.55-9.6-26.25-5.4-10.7-16.05-24.7z" id="n"/><path fill="#0081c6" d="M768.2 689.25q0 1.95.35 3.65.3 1.75.45 2.45 2.65 19.05 4.55 38.15 1.9 19.1 3.95 38.15 2.05 19.1 5.2 38.1-6.85 19.2-13.3 38.9-6.4 19.75-13 39.05-4.8 1.35-9.4 2.9-4.6 1.5-7.85 3-3.2 1.5-3.85 2.8l-.45.35q-.35.35-.25.75 1.45-.05 3.2-.6 1.7-.6 3.15-1.2l1.9-.75q3.4-1.2 6.5-2.2 3.15-1 6-1.9l-.1.35q-.5 1.2-.95 2.55-.45 1.3-.25 2.3.2.95 1.75 1.05 1.1-.25 2-1.55.95-1.3 1.65-3 .75-1.75 1.25-3.3 9.8-2.8 17.1-6.25 7.25-3.5 13.35-10.55 6.05-7.05 12.25-20.6 7.85-17.25 12.9-37.05 5-19.85 5.75-40.35t-4.25-39.65q-5-19.15-17.15-35.05-3.35-4.25-7.55-6.65-4.2-2.4-9-3.6-4.75-1.2-9.85-1.9l-.45-.15q-.35-.15-.7-.1-.25-.25-.55-.25-.3.05-.6.15-.1-.4-.3-.75-.25-.4-.5-.65-.55-.15-1.15-.15-.6-.05-1.05.25-.8 1.35-.75 3.3z" id="o"/><path fill="#FFF" d="M779.25 746.9q3.15 22.15 5.15 40.7l1.3 15.35-.2 8.8q-1.2 5.2-5.8 18.4-4.6 13.25-10.15 28.3-5.55 15.1-9.65 26l-4.25 11.4q3.95 7.35 21.1 12.05 17.1 4.7 38.9 6.1 21.8 1.4 39.85-1.25 18-2.65 23.75-10l5.15-9.1q4.9-8.6 11.6-20.85 6.7-12.2 12.4-23.4t7.6-16.7q1.8-5.6 5.5-17.35 3.75-11.75 7.85-24.65 4.15-12.95 7.05-22.15l3.1-9.7q-9.95-10.3-30.9-24.1-21-13.8-46.75-26.05-25.8-12.2-50.1-17.75-24.3-5.55-40.85.65l2.7 17q2.5 16.2 5.65 38.3z" id="p"/><path fill="#0083CB" d="M943.65 840.8q-1.05-2.05-1.45-3.45-.75-2.75-1.15-5.5-.35-2.8-.9-5.5l-.5-1.5-.55-.4q-.6.1-1.05 1.35-.4 1.2-.4 2.45.15 3.15 1.1 7.5.95 4.35 3.1 7.95 2.1 3.6 5.8 4.45 3.45.45 5.8-2.6 2.35-3 3.65-7.05 1.3-4.05 1.65-6.75.15-1 .2-2.9.05-1.9-.25-3.6-.3-1.75-1.25-2.3l-.2-.05q-.15 0-.2.05-.35.35-.45.85l-.15.7q-.25 1.9-.3 3.9 0 2-.35 3.95-.3 1.7-1.15 4.5-.85 2.8-2.15 5.3-1.3 2.45-3 3.1-1.75.45-3.3-.95-1.5-1.45-2.55-3.5z" id="q"/><path fill="#FFF" d="M789.15 765.65l10.15 7.8q9.7 7.45 22.75 18.55 13.05 11.1 23.6 22.3 10.5 11.2 12.65 19 1.5 7.9-.85 18.4-2.4 10.5-6.35 20.65-3.95 10.15-7.15 16.85l-3.35 7q6.05 4.15 21.5 7.55 15.45 3.35 34.05 4.6 18.65 1.25 34.25-.95 15.55-2.2 21.85-9.1 8.85-13.95 16.35-29.3 7.55-15.3 11.85-29.6 4.35-14.35 3.5-25.3-1.35-10.5-10.55-24.35-9.2-13.8-20.8-27.1-11.65-13.25-20.3-22.05l-9.1-9.2q-19.1-5.5-36.1-3.85-17.05 1.65-33 7.85-16 6.2-32 14.4-15.95 8.2-32.95 15.85z" id="r"/><path fill="#0083CB" d="M943.35 838.65q-1.2-2.6-1.95-5.7-.8-3.05-1.8-5.85l-.4-.7-.3-.15q-.3.15-.45.85-.15.7-.15 1.4.2 3.1 1.2 6.95 1 3.8 2.75 6.95 1.7 3.15 4.05 4.3 4 1.55 6.85-1.1 2.85-2.65 4.45-7.45 1.6-4.75 1.75-9.5v-1.7q-.05-1-.25-1.8-.25-.75-.7-.7-.15.3-.3.65l-.15.5q-.6 2-.85 4.2-.3 2.15-.8 4.3-1.15 4.45-3.3 7.15t-4.75 2.35q-2.55-.35-4.9-4.95z" id="s"/><path fill="#FFF" d="M767.75 370.25q-6.5 10.05-12.3 20.9-5.4 10.3-10.9 21.95-5.5 11.65-9.95 21.85-4.45 10.15-6.7 16l43.35 4.1q41.25 3.35 95.3 7.25 54.1 3.9 94.95 6.2l30.95 1.4 8.1.05 3.2-.45q-1.65-3.05-7.75-9.25t-13.95-13.3q-7.85-7.1-14.8-12.75-6.95-5.7-10.25-7.65l-29.95-15.4q-25.65-13-57.9-29.25-32.25-16.3-56.35-28.4l-25.35-12.75q-2.35 3.95-7.75 11.7-5.4 7.75-11.95 17.8z" id="t"/><path fill="#0081c6" d="M951.65 601.5q-9.95 25.9-15.3 52.8-5.35 26.9-7.15 57.25-.3 4.4-.85 11.3-.55 6.85-.8 14.75t.3 15.4q.55 7.45 2.4 13.05-.9.2-1.85.45-.95.25-1.85.55l-.6-.25q-.5-.25-1.05-.25-.5 0-.7.75 1.3.8 3.15.9 1.85.1 3.7-.2.85 1.9 2 3.3 1.1 1.45 2.55 2.3.3.3 1.05.9.75.55 1.7.25.3-2-.55-4.05-.85-2.1-1.75-3.6 8.15-1.15 15.25-1.55 7.05-.4 14.2-1.4 7.15-.95 15.6-3.8 11.1-3.85 23.15-10.3 12-6.45 23.35-15 11.35-8.5 20.45-18.45 9.1-10 14.45-20.85 11-23.5 14.75-50.15 3.75-26.6 1.95-54.05-1.75-27.4-7.2-53.2-5.5-25.85-12.9-47.7-1.95-5.9-4.25-11.55-2.25-5.7-5.35-10.85-3.05-5.1-7.4-9.55-.3-.35-.55-.7-.3-.35-.8.2.15.95.45 2.05.35 1.1.8 2.25-.8-.05-1.6.05t-1.55.3q-2 .4-4.1 1.7-2.05 1.3-3.65 2.75-1.65 1.4-2.25 2-10.3 9.9-19.4 23.55-9.15 13.65-17.2 28.25-8.05 14.55-15.1 27.2-15.55 27.3-25.5 53.2z" id="u"/><path fill="#FFF" d="M951.75 446.7q-31.75-5.8-73.05-13.05-41.3-7.25-72.6-12.65l-32.9-5.65-3.25 4.3q-3.2 4.25-8 11.8-4.85 7.5-9.9 17.4-5.05 9.85-9 21.15-4.4 13.5-4.8 34.6-.35 21.15 2.7 46.95 3.1 25.8 9.05 53.25 3.45 15.4 9.2 31.4 5.7 16 12.05 30.75 6.35 14.7 11.55 26.25 4.45 10.3 12.9 21.9 8.45 11.6 21.1 21.95 12.65 10.35 29.7 16.75 9.45 3.5 23.1 6.5 13.6 3.05 29.9 4.65 16.3 1.65 33.7.9 17.35-.7 34.35-4.75 24.05-5.9 44.8-20.5 20.75-14.55 35.7-37.2 14.95-22.65 21.6-52.75 6.65-30.05 2.5-67-3.3-23.65-16.15-46.4-12.9-22.7-28.7-41.35-15.75-18.6-27.75-30l-13.5-12.4-34.3-6.8z" id="v"/><path fill="#0081c6" d="M1130.15 370.55q-18.05 7.8-33.15 16.05-5.9 3.2-12.25 7.55t-12.6 8.95q-6.3 4.65-11.95 8.65-3.8 2.6-10.15 7.2-6.3 4.6-12.85 10.25-6.55 5.6-10.95 11.25-4.45 5.6-4.4 10.25.1 1.6 1 3.1.85 1.5 2.3 2.6l-2.7-.3q-1.35-.2-2.7-.45-1.4-.25-3.5-.65-2.1-.45-4.2-.7-2.1-.3-3.4-.05-.25 0-.5-.05-.25-.1-.25.25.9.7 2.3 1.05 1.45.4 2.65.55l1.65.25q10.4 2.05 19.6 2.2 9.2.15 18.15-.95 8.9-1.05 18.5-2.75 7.15-.7 14.4-1.85 7.3-1.15 14.6-2.75l2.2-.5q1.1-.25 2.2-.55 19.6-4.6 37.7-13.15 18.05-8.55 32.4-21.6 14.4-13.1 22.8-31.45 1.45-3.15 3.35-7.55 1.95-4.4 3.65-9.2 1.65-4.8 2.35-9.25-.45-1-.75-2.2-.3-1.2-.45-2.5l-.05-.3q-.05-.75-.05-1.5t.05-1.4q-18.6 2.15-37.8 7.9-19.2 5.8-37.2 13.6z" id="w"/><path fill="#FFF" d="M1122.8 255.7q-12.8 17.7-28.05 29.6-15.25 11.9-30.8 9.35-8.3-2-13.3-8.85-4.95-6.8-7.45-15.35-2.45-8.5-3.25-15.75-.75-7.2-.75-10-.1-2.8-1.95-4.65-1.8-1.85-4.5-2.15-2.75-.3-5.5 1.7-4.35 3.3-10.4 7.4-6.1 4.05-13.1 6.85-6.95 2.75-14 2.2-4.6-.75-11.95-6-7.35-5.3-15.6-12.25t-15.6-12.6q-3.3-2.6-11.45-5.8-8.1-3.25-19.9-5.3-11.8-2.05-26.1-1.1-14.25.95-29.85 6.75-21.55 7.7-36.3 22.5-14.7 14.8-23.55 34.25-8.85 19.45-12.75 41.15-3.95 21.65-3.95 43.1l2.3 7q2.05 6.55 7.9 16.95 5.85 10.45 17.35 22.55 11.45 12.15 30.45 23.85 17.6 10.4 35.45 16.45 17.8 6 34.35 8.85 16.5 2.9 30.25 3.8 13.7.9 23.1 1.15 37.35 1.2 69.65-1.55 32.3-2.75 57.4-8.5 25.15-5.75 41-13.55 25.2-12.45 41.2-30.2 15.95-17.75 23.65-40.75 7.65-23 8.05-51.25.25-25.5-2.9-44.8-3.15-19.35-7.7-32.6-4.55-13.25-8.6-20.65l-3.4-5.9-2.15-3q-3.85-4.3-9.65-6.25-5.75-2-10.75-1.45-5 .5-6.5 3.65l-9.45 18.5q-8.2 14.95-20.95 32.65z" id="x"/><path fill="#FFF" d="M972.45 187.3l.8-2.2q-5.8-2.05-13.85-2.25-8.05-.25-15.7 1.35-7.65 1.55-12.25 4.8l-2.15 2.1-3 3.7q-3.5 4.45-7.3 9.8-3.8 5.35-6.45 9.25l-2.85 4.1 2.05.95q1.9.85 3.9 1.7l1.65.6.85.15q11.05-3.45 18.05-5.5t11.25-3.7q4.25-1.6 7.1-3.75 3.1-2.55 7.5-7.55 4.45-5.05 7.85-9.7l2.55-3.85z" id="y"/><path fill="#FFF" d="M889.05 162.7q-6.85 3.55-13.1 8.35-6.25 4.75-10.7 9.3-4.45 4.55-5.8 7.35-.9 2.55-1.35 9.55-.45 7-.6 15.1-.15 8.05-.15 13.9v6.1l2.8-.25q2.65-.25 6.15-.65 3.5-.4 6.25-.8l2.2-.4.95-.3q8.7-11.05 13.9-18.95 5.15-7.95 7.6-13.05 2.4-5.1 2.9-7.65.45-2.15 1.05-6.9.65-4.75 1.1-10.2.45-5.45.5-9.65l-.2-3.4-.55-1.8q-6.15.8-12.95 4.35z" id="z"/><g id="A"><path fill="#1D2013" d="M1009 492.75q-.15-.1-.3-.15-.1-.05-.25-.15l.15.3h.4z"/><path fill="#0081c6" d="M957.05 500.85q-1.95.45-4.65 1.15-2.65.7-5.25 1.6 1.3-.95 2.65-1.9 1.35-.9 2.75-1.8 10.85-7.75 23.25-9.6 12.45-1.85 25.35 2.05.85.1 1.75.2t1.75.15l2 .1q.95 0 1.95-.05l-.15-.3q.15.1.25.15.15.05.3.15h.15l.55-.05q.3-.05.6-.05.4-.05.75-.2.4-.1.75-.25l-.05-.1q-1.05-1.85-3.9-3.4-2.9-1.5-6.05-2.55-3.2-1-5.2-1.35-.95-.15-2-.35-1.05-.15-1.95-.1-6.45-.55-13.6.75-7.1 1.35-14 4.15-6.9 2.8-12.65 6.55-1.65 1.2-3.2 2.5-1.55 1.3-3 2.75l-.15.4q-.6.55-1.15 1.1-.6.6-1.1 1.15-.5.6-.95 1.2-.45.6-.9 1.25.35-.1.6-.15.25-.05.45-.1.45-.1.85-.25l.9-.2q6.15-1.55 12.4-3.05 6.25-1.45 12.45-2.95.7-.15 1.4-.35.7-.2 1.4-.45-1.95-.2-4.8.15-2.85.35-5.7.95-2.85.65-4.85 1.1m34.95-13.6l-.5-.1h.3l.8.1h-.6z"/></g><path fill="#FFF" d="M986.25 295.45q-2.35-6.75-7.9-11.65-5.5-4.95-15.3-6.75-9.95-1.5-16.9 1.55-7 3.1-11.65 8.85-4.65 5.8-7.5 12.35-2.85 6.5-4.55 11.9 8.9 1 20.1 2.9 11.2 1.85 23 4.1 11.75 2.2 22.35 4.35.95-6.45.8-13.65-.15-7.25-2.45-13.95z" id="B"/><path fill="#0081c6" d="M821.75 510.45l.1-1.7-19.15-13.2-11.65-6.85-9.75-4.7-10.25-3.55H771l-10.7-2.25-10.95-1-11 .55-10.8 2.45-5.2 2.05-7.3 4-4.4 3.3h-.05l-5.95 5.5-3.55 4.2-2.9 4.65-2.3 4.95-3.85 12.85-4 15.35v.05l-5 30.05-3.15 52.4-.45 24.8 1.7 24.7 5.25 46.3v.05l2 12.65 4.3 17.55 3 7.35 1.4 2.2 2.1 2.25 2.25 1.8 7.3 4.2 10.25 4.05 13.3 3.55 10.85 1.65 8.35.4 5.4-.5 12.95-3.5L787 761.6l6.95-4.1 4.4-3.45 1.7-2.2v-.15l.25-.35.65-2.7 4.25-30.3 16.6-146.45 2.45-50.45-.95-10.5-1.55-.5z" id="C"/><path fill="#FFF" d="M820.1 480.65q-3.35-8.55-10-16.35-6.65-7.85-16.95-13.5-10.35-5.7-24.75-7.85-11.35-1.5-21.6 1.4-10.25 2.9-18.55 8.6-8.35 5.7-14.05 12.7-5.7 7-8 13.8L700.85 500l-2.55 11.45q-5.35 25.1-9.4 63.1-4 38-2.4 83.45t13.1 92.9l1.55 1.85 4.25 3.25q5.55 3.95 16 7.6 10.5 3.65 25.5 4.1 14.2 0 24.15-3.65 10-3.65 15.65-7.95l4.55-3.7 2.35-2.55q3.25-21.15 8.45-58.4 5.15-37.3 10.35-78.2 5.2-40.95 8.5-73.1l2.4-26.85.55-16.25q-.4-7.85-3.75-16.4z" id="D"/></defs><use xlink:href="#a" transform="matrix(.548 -.38075 .38075 .548 165.65 626.75)"/><use xlink:href="#b" transform="matrix(.15456 -.10265 .05559 .1348 1039.45 868.55)"/><use xlink:href="#c" transform="matrix(.16786 -.01796 -.05862 .13223 1031.7 805)"/><use xlink:href="#d" transform="matrix(.02124 .14966 -.20937 .0328 1267.6 690.25)"/><use xlink:href="#e" transform="matrix(.13063 .09552 -.13782 .15266 1125.25 673.1)"/><use xlink:href="#f" transform="matrix(.04016 .10805 -.12755 .06866 1240.25 702.15)"/><use xlink:href="#g" transform="matrix(.04016 .10805 -.12755 .06866 1240.25 702.15)"/><use xlink:href="#h" transform="matrix(.11731 -.08833 .0156 .11897 1113.3 889.1)"/><use xlink:href="#i" transform="matrix(.04016 .10805 -.12755 .06866 1240.25 702.15)"/><use xlink:href="#j" transform="matrix(.13206 -.03299 .06139 .18883 1087.4 810.5)"/><use xlink:href="#k" transform="matrix(.62015 -.066 .066 .62015 372.1 419.15)"/><use xlink:href="#l" transform="matrix(.62015 -.066 .066 .62015 372.1 419.15)"/><use xlink:href="#m" transform="matrix(4.9486 0 0 4.9486 -1463.25 -2713.35)"/><use xlink:href="#n" transform="rotate(-26.731 1430.492 14.526) scale(.6675)"/><use xlink:href="#o" transform="matrix(.66757 -.0017 .0017 .66757 270.15 280)"/><use xlink:href="#p" transform="matrix(.66757 -.0017 .0017 .66757 270.15 280)"/><use xlink:href="#q" transform="rotate(21.465 -54.565 1299.493) scale(.66758)"/><use xlink:href="#r" transform="matrix(.66678 -.01361 .07684 .6668 302.4 294.8)"/><use xlink:href="#s" transform="matrix(.63483 .13579 -.08266 .65117 475.25 183.55)"/><use xlink:href="#t" transform="matrix(.6679 .02545 .06831 .6728 248.9 278.35)"/><use xlink:href="#u" transform="matrix(.71407 .03572 -.0001 .68436 233.95 255.35)"/><use xlink:href="#v" transform="matrix(.71407 .03572 -.0001 .68436 233.95 255.35)"/><use xlink:href="#w" transform="matrix(.55463 .39455 -.35072 .54416 489.25 24.1)"/><use xlink:href="#x" transform="matrix(.55463 .39455 -.35072 .54416 489.25 24.1)"/><use xlink:href="#y" transform="matrix(.17696 .65744 -.62643 .20224 899.65 -138.35)"/><use xlink:href="#z" transform="matrix(.17519 .65791 -.62698 .20056 895.75 -123.4)"/><use xlink:href="#A" transform="matrix(-.49925 -.4284 -.47986 .1941 1645.85 941.1)"/><use xlink:href="#B" transform="matrix(.55394 .39584 -.35583 .55382 491.7 19.5)"/><use xlink:href="#C" transform="matrix(-.4896 .45435 .61989 .63979 884.1 -57.4)"/><use xlink:href="#D" transform="matrix(-.4896 .45435 .61989 .63979 884.1 -57.4)"/></svg>