<svg xmlns="http://www.w3.org/2000/svg" xmlns:xlink="http://www.w3.org/1999/xlink" preserveAspectRatio="none" width="760" height="880" viewBox="620 10 760 880"><defs><path fill="#a6ce38" d="M678.4 334.85q-1.8-1.2-3.6-2.45-1.8-1.2-3.55-2.45-5.1-3.6-9.9-7.3-4.85-3.7-9.25-7.55 10.9 19.85 23.85 37.9 12.9 18 22.65 30.15 4.85 6.15 9.95 11.9 5.05 5.75 10.3 11.1-4.2 1.8-7.25 5.05-3.1 3.2-5.4 7.45-.8 1.5-1.5 3.05-.65 1.5-1.2 3.05.8 4.2 2.2 8.2 1.4 4 3.3 7.85 3.35 6.6 7.8 12.55 4.45 5.95 9.45 11.15 3.6 3.75 7.5 7.4 3.9 3.65 8.1 7.25 3.25 2.8 6.6 5.5 3.4 2.7 6.85 5.4 7.75 5.9 15.85 11.55 8.05 5.7 16.25 11.1l.3.2.2.1q.1.05.2.15l1.7 1.1 1.7 1.15q3.75 2.45 7.45 4.85 3.7 2.35 7.35 4.7l8.85 5.65q4.35 2.8 8.55 5.5l3.6 2.3q1.75 1.1 3.55 2.2 3.25 2.05 6.5 4.05 3.2 1.95 6.45 3.85 23.5 13.95 47.15 25 23.6 11.05 48 19.65.35.1.75.25.35.1.75.25 2.1.75 4.25 1.45 2.15.75 4.3 1.45.5-.95 1.1-1.85.55-.9 1.1-1.85 5.3-8.6 11.5-17.15 6.2-8.5 13.15-16.85 11.95-14.35 25.4-27.7 13.45-13.3 27.6-25h-.1l-.2-.1-.65-.15q-.3-.1-.65-.15l-4.3-1.2q-2.2-.6-4.35-1.25-12.8-3.65-25.4-7.85-12.6-4.2-25.05-8.85-7.2-.1-14.3-.25-7.1-.1-13.95-.2-6.8-.3-8.6-3.2-1.8-2.95 1.2-5.4-6-1.3-14.8-3.55t-15.95-4.8l-5.65-2.5-2.65-2.4q-.45-1.5-.35-2.55.1-1.05.7-1.75-9.05-5.05-18.2-10.3-9.2-5.25-18.4-10.35-9.55-5.25-18.85-10.85t-18.45-11.35q-1.95-.3-3.85-1.15-1.95-.85-3.3-1.7-7.2-4.55-14.5-9.05-7.35-4.45-14.75-8.95-1.75.2-3.75-.7-2.05-.9-4.1-2.25-10.05-6.3-20.55-12.8-10.45-6.55-20.9-13.3-8.15-4.35-16.55-9-8.4-4.6-16.85-9.55-.15-.05-.3-.15-.2-.1-.35-.2-5.55-3.25-11-6.6-5.45-3.4-10.75-6.9m5.05-166.55q-2.45-1.35-5.45-2.25-3.05-.95-5.9-.5-.6-.15-1.35-.1l-.95.1q-12.9 1.6-16.75 9.25-3.85 7.6-1.8 18.25 2.1 10.7 7 21.55 1.15 5.6 3.5 11.8 2.3 6.25 5.45 12.65-7.85-4.6-16.8-5.1-8.9-.5-13.6 9.6l-.15.55q-.15.5-.35.9-.35 1.1-.65 2.5l-.35 1.7q-1.25 7.25-.6 15.1.65 7.9 3.05 15.1.55 2.35 1.2 4.75.7 2.4 1.5 4.85l2.55 1.7q1.3.9 2.55 1.75 1.9 1.3 3.85 2.6l5.05 3.45q2.25 1.5 4.5 3.05l4.55 3.05 7.6 5.1 7.6 5.1v.05l5.15 3.4q4.8 3.25 9.65 6.45 4.85 3.2 9.65 6.4 11.25 7.4 22.55 14.75 11.25 7.3 22.6 14.45 4.85 2.65 9.5 5.35 4.65 2.7 9.05 5.45 10.45 6.4 21.45 12.7 11 6.25 20.75 13.2.35.25.65.5l.7.5q3.6 2.1 7.25 4.15 3.6 2.05 7.25 4.1 12.35 6.7 24.7 13.2Q862 426 874.35 432.3q27.35 14 54.25 24.4 26.85 10.4 55 18.75 2.3-.1 4.6-.15 2.3-.05 4.65-.15-7.6-5.55-15.1-11.15-7.45-5.6-14.8-11.3-62.25-48.05-116.65-100.1-54.4-52.05-101.35-107.1-12.1-14.2-23.75-28.5-11.6-14.35-22.75-28.85-3.8-4.95-7.55-9.9t-7.45-9.95z" id="a"/><path fill="#a6ce38" d="M1347.85 394.9l-2.35-1.95-6.25-.1q-7.3 2.2-14.3 4.2-7 2-13.35 3.35-.3.05-.55.1l-.6.1q-81.6 22.4-169.2 31.25-87.6 8.85-178.4 7.8-40.75 1.6-81.8 1.55-41.05-.05-82.05-2.25-6.1-.35-12.15-.7-6.1-.4-12.15-.85-2.55-.2-5.15-.4l-5.2-.4q-7.95-.65-16.1-1.4-8.15-.8-16.4-1.75-2.6.5-5.5 1.65t-4.25 3.25q-.5.2-.85.65l-.45.6q-5.75 8.05-1.3 14.65 4.4 6.6 14.8 11.75 10.35 5.15 22.4 8.85 5.5 2.7 12.2 5.1 6.7 2.4 14 4.5-1.35.5-3.15 1.3-1.75.8-3.15 1.7-1 .6-1.95 1.15l-1.8 1.2q-.1.25-.4.4l-.35.2q-5.6 6.15-.9 12.55 4.7 6.45 14.65 12.1 14.65 11.2 40.3 18.65 25.7 7.5 52.65 11.9 27 4.4 45.5 6.45 8.05.95 15.8 1.55 7.75.6 15.25.9-.7 3.35.35 6.95 1.1 3.6 3.5 7.4.85 1.4 1.9 2.75 1 1.35 2.1 2.65 12.65 9.7 30.9 14.2 18.2 4.5 37.5 6.1 19.35 1.6 35.3 2.6 0 1.25.45 2.45.5 1.2 1 2.05 8.65 12.5 23.3 17.4 14.65 4.9 30.25 5.25 17.15.75 35.7-.75 18.5-1.5 37.5-4.8 3.65-1.35 7.3-2.65 3.6-1.35 7.25-2.7 12.65-4.8 25.1-9.75 12.4-4.95 24.55-9.95 5.05-2.1 10.05-4.2 5-2.05 9.95-4.15 1.6-.65 3.15-1.3 1.55-.7 3.15-1.35 4.5-1.95 9.05-4.05 4.55-2.05 9.1-4.2 10.5-4.95 20.75-10.35 10.25-5.4 20.05-11.2 1.4-.8 2.7-1.65l2.7-1.6.3-.2.3-.2-.1-.3q-.05-.15-.15-.25-.15-.1-.35-.2-.15-.1-.35-.15-1.25-4.15-2.6-8.05-1.35-3.9-1.75-5.45-7.8-28.7-18.55-57.2-10.75-28.5-19.5-57.3-.15-.5-.35-1.55-.2-1.05-.6-2.4 8.85-2.95 16.9-6.25 8.05-3.35 15.2-7l7.35-4.7 2.15-3.55M796.3 497.5l-.5-.3q-.2-.15-.45-.3.05-.2.1-.35l.1-.4q.2.35.35.7.2.3.4.65m-19.35 4.9q.05.15.05.3-1.05-1-1.8-2.05-.75-1-1.15-2.05.6.9 1.3 1.75l1.5 1.7q.05.15.1.35z" id="b"/><path fill="#a6ce38" d="M793 728.5l11.5 6.7q11.3 6.35 30.65 14.8 19.35 8.4 43.85 15l10.25-22.7q9.2-21.4 21.05-49.5 11.85-28.05 20.8-49.35l9.4-22.45-25.4-11.05L793 728.5z" id="c"/><path fill="#a6ce38" d="M1126.45 316.6L1108 333.45q-14.65 14.1-33.35 32.25-18.65 18.15-34.45 33.25l-21.7 19.8-8.05 10.4-12.75 20.6q-15.1 25.65-35.4 58.2-20.25 32.5-41.55 58.35-21.3 25.85-39.45 31.45-17.95 5.3-28.25 17.8-10.35 12.55-10.6 22.95-.3 10.4 11.85 9.2l15.85-6.4 10.7-7.15 12.55-9.8q14.75-11.35 52.2-26.75 37.4-15.35 80.1-32.95 42.65-17.65 73.1-35.85 47.5-29.5 74.95-54.9 27.45-25.4 41.6-51.7 14.15-26.35 21.75-58.6 5.1-24.15-9.25-35.75-14.4-11.55-36.8-14.45-22.45-2.9-41.45-1.1l-15.3 1.95-7.85 2.35z" id="d"/><path fill="#a6ce38" d="M1037.75 310.3q-28.5-9.5-51.15-7.95-22.7 1.55-28.75 13.2-5.15 11.9-9.05 29.15-3.95 17.3-7.2 35.75t-6.4 34q-.95 11.1 24.45 14.2 25.4 3.15 59.95 1.7 34.55-1.45 61.15-4l28-2.85-4.85-21.15q-4.55-19.6-9.1-39.35l-5.05-21.65q-23.5-21.55-52-31.05z" id="e"/><path fill="#a6ce38" d="M1012.35 269.55q-15.25 1.75-24.45 7.2-9.2 5.5-13.5 10.45-4.35 4.65-9.75 13.8t-9.85 19.5q-4.45 10.35-5.9 18.45-.9 7.85 8.25 17.3 9.1 9.5 24.1 16.95 14.95 7.45 31.55 9.2 16.7 1.25 34-2.55 17.35-3.85 30.2-10.35 12.85-6.5 16.1-13.25-.1-7.45-4.95-25.25-4.8-17.75-14.3-34.75-9.55-17-23.7-22.1-22.55-6.3-37.8-4.6z" id="f"/><path fill="#a6ce38" d="M1099.4 333.3q11.45-10.2 19.2-22.3l-3.55-2.1-10.1-4.2q-13.4-5.25-36.75-7.1l2.95 10.5q3.05 9.8 6.7 21.3 3.65 11.5 5.55 17.3l16-13.4z" id="g"/><path fill="#0083CB" d="M1035.4 302.25l-1.9-1-2-.6-2.15-.2-2.1.2-2 .6-1.9 1-1.6 1.35-1.35 1.65-1 1.85-.65 2.05-.2 2.1.2 2.1.65 2.05 1 1.85 1.35 1.65 1.6 1.35 1.9 1 2 .6 2.1.2 2.15-.2 2-.6 1.9-1 1.6-1.35 1.35-1.65 1-1.85.65-2.05.2-2.1-.2-2.1-.65-2.05-1-1.85-1.35-1.65-1.6-1.35z" id="h"/><path fill="#a6ce38" d="M1040.4 290.7q-3.7-5.25-11.25-5.6-8.85.45-13.2 7-4.3 6.5-5.15 14.65l35.45.25-1.05-5.7q-1.1-5.3-4.8-10.6z" id="i"/><path fill="#FFF" d="M516.25 584.75q-.2-.1-.4-.15-.2-.05-.35.15.3.25.8.55.45.3.9.5l.55.3q3.3 2.3 5.95 5.55 2.65 3.3 4.75 7.15 2.1 3.85 3.75 7.85 1.6 4.05 2.9 7.8-.6-.35-1-.55l-.3-.15-.15-.05q-1.6-.6-2.85-1-1.3-.45-2.55-.95-1.3-.5-2.8-1.35-1.35-.8-3.1-1.5-1.8-.7-3.75-1.25t-3.8-.95q-1.85-.35-3.4-.4-.1-.05-.25-.05t-.2.15q.35.3.95.5.65.15 1.2.25l.75.1q2.15.45 3.85.95 1.7.5 3.2 1.15 1.55.6 3.1 1.35l3.5 1.75q1.5.75 2.8 1.15 1.3.45 2.55.9 1.25.45 2.6 1.3.1.25.2.4.1.1.3.05l.05-.1q.1.05.2.15.1.05.2.15.1.1.35.3.2.2.5.3.25.1.5-.05-.05-.35-.35-.7-.25-.4-.65-.7-.4-.35-.85-.65-.05-.35-.15-.7-.1-.35-.2-.65-.1-.25-.15-.35-.8-3.2-2.7-7.4-1.9-4.25-4.5-8.5-2.6-4.3-5.55-7.65-3-3.35-6.05-4.8-.15-.05-.35-.15z" id="j"/><path fill="#FFF" d="M1083.1 235.75q-7.2-8-10.75-14.6l-15 148.9q2.35.95 6.6 3.4 4.2 2.45 9.5 5.65 5.35 3.2 11 6.3 5.7 3.1 11 5.3 18 7.25 35.4 10.8 17.4 3.6 32.85 4.45 15.45.85 27.55-.15 12.1-1 19.45-2.95 5.45-1.45 12.6-8.25 7.15-6.75 14.3-17.65 7.2-10.9 12.65-24.8 5.5-13.9 7.65-29.65 1-8.05 1.5-19.75.45-11.7.9-22.95.45-11.3 1.15-18.1l.45-2.9.5-1.85.6-.75.65.35q-.95-4-4.8-3-3.9 1-11.95 5.1-8.05 4.1-21.45 9.35-13.4 5.3-33.4 9.8-17.4 3.75-31.15 3.35-13.7-.35-24.5-4.15-10.75-3.85-19.25-10.35-9-6.8-17.95-14.85t-16.1-16.05z" id="k"/><path fill="#0081c6" d="M1054.25 204.05q-.6-.15-1.25-.2-.65-.1-1.25-.2-1.5-.35-2.85-.8-1.35-.45-2.9-.6-.75-.05-1.45-.15-.75-.1-1.45-.2l-1.2-.25q-.9-.15-1.7-.35-.05.4-.05.9l-.05.35v.2q-.2 3.25-.3 6.5-.15 3.3-.5 6.5-.5 4.6-.4 9.4.05 4.8.05 9.45-.2 12.25-.65 24.55-.45 12.25-.65 24.55-.25 14.65-1.05 29.3-.8 14.6-1.5 29.25t-.6 29.3q0 2.95.05 5.95.1 3.05.85 5.9.1.3.15.6.1.3.2.55l.4.7q.35.6.6 1.1.4.5 1 .85.65.35 1.15.25 1.05-.35 1.4-1.15.4-.8.5-1.8.05-1 .1-1.95 1.35-12.7 2.25-25.45.85-12.75 1.65-25.45.35-6.3.8-12.4.45-6.15 1.4-12.4.85-5.55 1.95-11.05 1.1-5.5 2.25-10.95l.15-.8q.15-.65.25-1.2 0 .45-.05.95v.65q-.25 4.8-.25 9.55 0 4.75-.3 9.55-.5 6.15-1.1 12.65-.55 6.5-.65 13-.05 6.5.9 12.6.4 2.4.3 4.5-.1 2.05-.25 4.45-.05.55-.1 1.45-.05.95.1 1.45l.45.8.3.3.25-.2.25-.65q0 .45-.05 1v.45l-.05.25q-.35 5.75-.9 11.5t-.55 11.5q0 2.3-.05 4.65-.1 2.3.2 4.6.05.4.15.75.05.4.15.75l.3.95q.3.7.7 1.25.45-.25.9-.65l.6-.55q1.35-1.6 1.65-4.2.35-2.65.2-5.4-.1-2.75-.1-4.75.35-8.9 1.15-17.9.75-8.95 1.3-17.9.65-9.6 1.05-19.45t-.1-19.45q-.1-3.3 0-6.65.15-3.3.2-6.6.1-10.5.5-20.95.35-10.45.4-20.95.05-8.85.15-17.7.05-8.85-.4-17.65-.05-.85-.05-1.65-.05-.8-.15-1.6-.05-.35-.05-.8-.05-.4-.2-.75l-.2-.35-.2-.15-.25-.05-.45-.15q-.75-.35-1.5-.65-.8-.35-1.55-.6z" id="l"/><path fill="#FFF" d="M1053.75 209.5h-.7l-3.4.1-3.45.1h-.85q-.45 0-.85.05h-1.05q-.85.05-1.55.05 0 .5-.05 1.05v.7q-2 69.9-4.7 139.85-2.7 69.95-7.3 139.8-4.65 69.8-12.4 139.4-4.45 39.4-9.25 78.75-4.8 39.4-10 78.7l-.1.8-.1.8-.15.95q-.1.8-.2 1.45-.05.4-.1.95l-.1.65-.2 1.6-.2 1.6-.1.85q-.05.4-.15.85l-.15 1.2q-.1.95-.2 1.8h1.4l.25.05q3.35.05 6.7.15 3.35.1 6.7.15.35.05.85.1.45.05.8-.05l.5-.05.25.05q.1.1.05 0v-.25l.15-.6q.35-1.35.5-3.25.15-1.9.3-3.4 5.4-45.35 10.7-90.7 5.35-45.3 9.85-90.7 4.5-45.4 7.55-91 3.2-49.45 5.35-98.85 2.15-49.45 3.55-98.95 1.45-49.45 2.55-98.95.05-3.35.15-6.65.05-3.3.15-6.6l.05-2.6q-.5 0-1.05.05z" id="m"/><path fill="#FFF" d="M884.4 568.1l4.3-17.8q3.6-13.1 6-27.75 2.45-14.65-.15-23.95-2.6-9.3-14.2-6.45-13.6 3.9-35.25 10.5-21.7 6.6-44.7 13.95-23.05 7.3-40.75 13.35l-14.7 5.2-8.7 3.55q-13.9 6.95-25.15 18-11.3 11-17.9 24.75-6.65 13.75-6.6 28.9.15 10.9 2.6 30.1 2.5 19.25 6.9 42.95 4.45 23.75 10.55 48.2l1.45 2.1 3.85 3.8q5.1 4.7 15.1 9.15 10 4.4 25 4.9 14.1 0 23.75-3.05 9.65-3.1 15-6.8l4.3-3.3 2.25-2.35q1.45-15.75 4.8-32.75 3.35-16.95 7.65-32.35 4.3-15.4 8.55-26.4 4.3-11 7.6-14.8 3.2-3.45 8.95-7.25 5.75-3.8 13.25-7.8 7.55-4.05 16.05-8.25 8.8-4.55 14.05-12 5.3-7.45 6.85-14.75 1.6-7.35-.7-11.6z" id="n"/><path fill="#0081c6" d="M1137.8 562.05l-.85-2.65-.05-.05-.05-.15-.05-.05-1.5-2.15-1.95-1.85-4.3-2.9-8.95-4.6h-.1l-5.4-1.85-2.75-.6-5.65-.65H1095l-22 2.85-10.85 2.35-34.4 10.4-10.25 4.3-.05.05h-.05l-2.2 1.2-8.25 5.9-7.15 7.1-.95 1.15-.25-.75-.35-.45-1-.25-.95.5-.3.45-.05.65.3 3.1-2.3 3.55-.2.6.05.55.7.85 1 .2.5-.25.4-.5.3-.5 2.4 16.6 2.5 7.5 7.65 41.85 20.2 90 1.85 5.2 1.25 2.45.1.1.05.1 1.55 2.05 1.85 1.9 4.1 3.15 6.85 3.55 7.3 2.35 2.45.55h.05l18.75 2.55 8.15.45 11-.45 2.7-.55.05-.05h.1l11.85-4.8 9.05-4.9 4.2-3.05.15-.2.2-.15 1.35-2.3 1.05-2.5 8.15-27.3v-.05l.65-2.55 9.8-66.15.5-31.75-.55-23.7-1.15-10.55-4.6-17.4-.45-7.5z" id="o"/><path fill="#FFF" d="M968.35 478.2q-1.4 7.95 2.1 13.35 4.9 7.5 11 22.95 6.05 15.4 12.6 36.3 6.55 20.95 12.85 44.9 6.3 24 11.7 48.6 4.65 21.55 7.95 41.4 3.3 19.8 5.7 36 2.4 16.15 4.3 26.75l2.55 2.15 4.95 2.75q6.15 3.05 15.3 5.5 9.2 2.4 19.65 2.35 14.9-.4 23.45-2.9 8.5-2.55 12.15-5.25l2.75-2.35 1-1.5q13.75-48.15 17.35-87.6 3.6-39.4.85-69.25-2.75-29.8-8.1-49.05-5.35-19.25-9.5-27-5.45-10.65-17.55-24.3-12.1-13.65-27.4-26.3-15.3-12.7-30.5-20.35-15.15-7.7-26.75-6.45-14.45 2.25-24.75 8.55-10.35 6.35-16.3 14.55-6 8.25-7.35 16.2z" id="p"/><path fill="#FFF" d="M656.95 766.95l-8.05-.8q-1.6 0-2.6 1.1-1.05 1.1-1.1 2.55-.05 1.5 1.3 2.7l2.6 1.4 5.45 2.2q6.9 2.6 18.4 4.6 11.45 2 26.2 1.2 14.7-.75 31.5-6.45 11.65-4.35 21.95-12.65 10.35-8.3 18.3-17.35 8-9.05 12.6-15.55l4.8-7.25-1.05-1.4-2.9-2.8q-3.8-3.5-8.4-7.55-4.65-4-7.35-6.3-2.1 3.35-7.35 10.9Q756 723 748.5 732q-7.45 9.05-16.15 16.9-8.75 7.85-17.75 11.9-9.9 4.1-20.75 5.6-10.85 1.45-20.6 1.35-9.7-.15-16.3-.8z" id="q"/><path fill="#FFF" d="M985.85 192.35l2.2-3.4.8-2.05q-4.05-2.1-9.95-3-5.95-.85-12.2-.85-6.25.05-11.25.7-5.05.65-7.3 1.6-1.85 1.05-5.6 4.95-3.75 3.9-7.8 8.65-4.1 4.75-7 8.2l-3.05 3.65 2 1.35q1.85 1.2 3.85 2.4l1.6.9.85.3q11.4-1.85 18.85-3.15 7.4-1.3 12.05-2.6 4.65-1.25 7.75-3 3.35-2.05 7.35-6.3 3.95-4.3 6.85-8.35z" id="r"/><path fill="#FFF" d="M747.7 747.95q.15 13.05.3 30.8.1 17.75.15 32.9l-.25 20.25q-.2 5.4.65 16.65.9 11.25 2.15 23.65 1.25 12.45 2.3 21.3l1.05 9.5q6.15 5.05 19.85 7.2 13.65 2.1 30.5 1.65 16.9-.5 32.75-3.3 15.9-2.8 26.45-7.55l.55-7.9q.45-7.4 1.35-18.1.85-10.7 2.1-20.95 1.3-10.3 2.9-16.5 1.1-4.05 4.35-14.55 3.3-10.45 7.1-22.5 3.85-12 6.6-20.7l2.95-9.25Q884 756.6 864.3 748q-19.7-8.65-43.65-12.65-23.95-4.05-44.25-4.25-20.25-.15-28.85 2.85l.15 14z" id="s"/><path fill="#0083CB" d="M943.65 840.8q-1.05-2.05-1.45-3.45-.75-2.75-1.15-5.5-.35-2.8-.9-5.5l-.5-1.5-.55-.4q-.6.1-1.05 1.35-.4 1.2-.4 2.45.15 3.15 1.1 7.5.95 4.35 3.1 7.95 2.1 3.6 5.8 4.45 3.45.45 5.8-2.6 2.35-3 3.65-7.05 1.3-4.05 1.65-6.75.15-1 .2-2.9.05-1.9-.25-3.6-.3-1.75-1.25-2.3l-.2-.05q-.15 0-.2.05-.35.35-.45.85l-.15.7q-.25 1.9-.3 3.9 0 2-.35 3.95-.3 1.7-1.15 4.5-.85 2.8-2.15 5.3-1.3 2.45-3 3.1-1.75.45-3.3-.95-1.5-1.45-2.55-3.5z" id="t"/><path fill="#0081c6" d="M951.25 738.5q-.15-3.15-.55-4.95-.4-1.8-1.65-2.05-1.3-.25-3.95 1.25-.75 1.5-.85 3.3-.15 1.85 0 3.35-1.35 1.4-2.55 3.25-1.2 1.85-2.05 3.45l-1.1 2.15q-5.1 12.35-6.25 30-1.2 17.7.85 36.75t6.6 35.5q4.5 16.5 10.8 26.55.35.55.95 1.5t1.4 2q.2 1.65 1.15 2.65.9 1 3.2.35l.15-.15q.2.05.35 0 .2 0 .4-.05v-.3-.35q1.3-1.65 1.55-4.2.3-2.6.05-5-.2-2.45-.5-3.75 1.3-13.35 2.4-27.1 1.15-13.8 1.2-26.9.05-8.65-.5-17.8t-1.65-18.2q-1.15-9.1-2.95-17.55-.15-.6-.4-1.15-.25-.55-.6-1.1.15.15.25.3l.2.3q0-.95-.1-2.25-.15-1.25-.3-2.3l-.1-.9-.15-.5q-.2-.55-.85-.9-.65-.35-1.6-.95-.95-.6-2.1-1.8-.2-3.1-.35-6.25l-.4-6.2z" id="u"/><path fill="#FFF" d="M776.1 775.2l5.65 7.6q5.4 7.3 12.8 17.5 7.4 10.25 13.65 19.3t8.25 12.85l4.4 13.5q2.85 10.2 5.9 22.15 3.05 12 5.25 20.75l2.3 9.15q6.05 4.2 22.45 7.3 16.4 3.1 36.25 3.95 19.85.9 36.4-1.55 16.5-2.5 22.85-9.4.75-9.45 1.85-21.15 1.05-11.7 2.15-23.2 1.05-11.5 1.75-20.35.7-8.85.7-12.65l-1.2-19.8q-1.1-14.4-2.55-31.05-1.45-16.6-2.5-28.7l-1.05-12.7q-19.4-5.4-42.55-1.95t-47.2 12.05q-24.05 8.6-46.15 18.6-22.1 10.05-39.4 17.8z" id="v"/><path fill="#0083CB" d="M943.35 838.65q-1.2-2.6-1.95-5.7-.8-3.05-1.8-5.85l-.4-.7-.3-.15q-.3.15-.45.85-.15.7-.15 1.4.2 3.1 1.2 6.95 1 3.8 2.75 6.95 1.7 3.15 4.05 4.3 4 1.55 6.85-1.1 2.85-2.65 4.45-7.45 1.6-4.75 1.75-9.5v-1.7q-.05-1-.25-1.8-.25-.75-.7-.7-.15.3-.3.65l-.15.5q-.6 2-.85 4.2-.3 2.15-.8 4.3-1.15 4.45-3.3 7.15t-4.75 2.35q-2.55-.35-4.9-4.95z" id="w"/><path fill="#FFF" d="M789.2 341.6q-3.4 5.75-11.45 18.2-8.05 12.45-17.8 27.65t-18.3 29.35q-8.55 14.1-12.85 23.2l49.1 7.45q46.65 6.55 107.9 14.7 61.2 8.1 107.35 13.7l35 3.95 12.65.65-7.8-9.85q-5.8-7.2-13.15-15.8-7.35-8.55-13.8-15.45-6.5-6.85-9.8-8.9l-35.8-15.85q-31.25-13.5-70.8-30.35-39.6-16.85-69.25-29.4l-31.2-13.25z" id="x"/><path fill="#0081c6" d="M948.5 775.95l-.85-1.6q-.65-1.15-1.55-2.5-.95-1.4-1.9-2.4-.65-.1-.8.45-.2.5-.3 1-.6 2.8-.2 4.5.4 1.75 1.45 3.25 1.05 1.5 2.45 3.6l.65 1.65q.45 1.25 1.1 2.8.65 1.5 1.45 2.65l.2-.1q.1-.1.2-.15.15-.3.15-.65 0-.35.05-.5.45-1.1.1-3.45-.35-2.4-1-4.85-.7-2.45-1.2-3.7m-88.25 9.3l-1.5-.1q-.55.1-1.05.45-.45.3-.35.9 0 .3.25.5.25.25.4.3l4.75.5q4.15.25 8.55.45l5.85.3q.45.05 1.55.2 1.05.1 2.15.05 1.15-.1 1.85-.6-.2-.2-.45-.4l-.35-.25q-.4-.3-1.1-.55-.65-.25-1.6-.45.1 0 .25-.05.1-.05.2-.15 0-.15-.2-.3t-.3-.2q-.95-.7-3.2-.9-2.2-.2-4.45-.2h-3.55l-1.7-.15q-1.35-.1-2.5-.3-.25 0-.45.1-.25.1-.35.25-.45 0-.9-.05-.45 0-.8-.05-.25 0-.6.2t-.45.4l.05.1m85-131.1q-7.2 17.5-12.4 35.65-5.15 18.15-8.3 38.65-.85 5.35-1.55 10.45-.7 5.05-1.15 9.95.4-.15.8-.25.35-.15.65-.2.3.05.65.1.4.1.5.2 1.6 1.7 3.1 6.2 1.45 4.45 2.75 9.5 1.25 5.05 2.1 8.5.65-.1 1.55-.05.85.05 1.9.25 0-2.45.9-5.25.9-2.85 2.95-4.5 2.1-1.7 5.75-.7 1.5.75 3 2t2.65 2.45q1.15 1.2 1.5 1.75 1.35 1.9 3.1 5.05 1.7 3.2 2.95 6.4 1.3 3.2 1.25 5.2 1.2-.3 2.55-.6 1.4-.3 2.9-.6l2.25-.55q1.8-.5 3.25-1.1.75-.45 1.7-.65.95-.15 1.95 0 1.55-1 3.85-1.7 2.35-.7 4.6-1.1 2.2-.4 3.5-.55l2.9-.5q1.4-.25 2.85-.5 1-.6 2.05-1.05 1-.5 1.95-.85.6-.7 1.3-1.4.65-.7 1.4-1.35.5-.45 1.3-1.1.75-.7 1.7-1 .95-.3 1.95.25.1.25.15.5l.1.5q4.3-4.75 8.5-9.5t9.4-8.5q.35-.35.75-.65.4-.3.75.2.1 1.05-.5 2.15-.55 1.05-1.2 1.85l-.9 1.15q-1.5 2.1-3 4-1.55 1.95-3.15 3.75 4.35-4.45 8.3-9.1 3.95-4.6 8.2-9.5l1-1.05q.75-.7 1.8-1.5 1-.75 2-1.15.9 1.85-.55 4.65-1.45 2.8-3.35 5.1l-2.35 2.8q1.125-1.256 2.4-2.4l.4-.3q.35-.2.75-.3.6 1.6-.8 3.7-1.35 2.15-3.05 3.8l-2.05 2-.3.3-.3.3q-.5.55-1.05 1.1-.6.5-1.15 1.05-1 .9-2.1 1.8-1.05.9-2.2 1.8-1.4 1.1-2.85 2.2-1.45 1.05-2.95 2.1-.9.6-1.75 1.2-.9.6-1.75 1.2-1.05.7-2.05 1.4-1 .65-2.05 1.35-1.25.95-2.55 1.85-1.3.95-2.65 1.85-.55.35-1.1.75-.55.35-1.15.7.6.05 1.2.15.6.05 1.2.2 4.7-1.75 9-3.7 4.25-1.9 7.6-3.7 16.05-8.55 28.8-19.9 12.75-11.35 22.15-24.9 9.35-13.5 15.2-28.75 2.4-5.05 4.4-10.5 1.95-5.4 3.45-11.05 1.1-2.55 1.75-5.5.6-2.9.9-5.95 2-10.7 2.7-21.75.7-11.05.2-22.1.3-18.6-3.4-37.3-3.65-18.75-12.1-37.4l-1.6-3.5-1.6-3.55q-.3 1.85.4 4.1.75 2.2 1.05 4.3.35 2.1-1.2 3.5-2.8 2.2-4.15.5-1.35-1.65-2-4.75-.65-3.05-1.3-5.15-3.25.6-5.4-3.2-2.15-3.85-3.45-9-1.35-5.2-2.15-8.7l-.5-1.9q-.35-1.45-.8-3.25-.45-1.85-.85-3.3-.6-.65-1.55-.4l-.8.2-.45.05q-2.15-1.3-2.25-4.05-.1-2.75 1.2-6.4-20.2 13.7-37.85 32.2-17.65 18.5-31.75 38.8-14.1 20.35-23.7 39.6-9.35 18.45-16.6 35.9m143.9 35.65q.25-.9.45-1.75.2-.9.45-1.75l.15-.25.2-.2-.6 2q-.3.95-.65 1.95M705.9 525.1q-.25-.5-.55-.95-.15-.2-.35-.3-.2-.1-.4-.1-.35-.4-.6-.75l-.6-.7q-1.25-.55-.95.2.25.7 1.1 2.05-.05.15-.05.45 0 .3.05.75l-.7-1.65q-.4-1-1.05-2.15t-1.45-1.95l-.2-.15q.95 1.5 1.6 2.9l.85 1.85q.35.8.65 1.55.35.75.65 1.45.3.7.6 1.35.25.65.55 1.25.35.75.65 1.4.3.7.65 1.35.8 1.65 1.75 3.35.95 1.7 2.15 3.7.45.75.95 2 .5 1.3 1.05 3 .1.2.15.45.1.25.15.45.4.75.75 1.5t.75 1.45l-.5-.6q-.2-.35-.45-.6.35 1.2.7 2.5t.75 2.65q.4 1 .75 2.05.4 1.05.75 2.05 1.2 2.95 2.3 5.85 1.1 2.9 1.95 5.65.8 2.5 1.3 4.65.5 2.2.6 3.9.1 1.1 0 1.95-.1.9-.4 1.5-.3.65-.6 1.1-.35.45-.7.75-.35-1.7-.7-3.05-.35-1.3-.55-2.15-1.95-6.85-4.65-12.45-2.65-5.65-5.75-11.05-3.05-5.4-6.2-11.6-.3-.75-1.05-2.3-.7-1.6-1.7-3.15-1-1.55-2.25-2.2-.45.1-.75.4-.35.3-.4.6l.3 1.3.95 2.05q1.2 2.5 2.65 5.05t2.15 3.65l1.2 2q.55.95 1.1 1.95-.2-.1-.4-.1t-.35.1l.05 1.7 1.05 3.25q1.65 4 3.75 8.2 2.1 4.2 2.95 5.8l.85 2.35q.65 1.8 1.65 3.7 1.05 1.95 2.5 2.8.85 2.75 1.55 5.5.7 2.8 1.3 5.65 0 1.15-.05 2.25l-.1 2.2q-.1 1.15-.15 2.2-.1 1.1-.25 2.15 0 .4-.05.75-.05.4-.1.75-.25 1.85-.6 3.45t-.8 2.8q-.15.5-.4.95-.15.4-.4.75-.65 4.1-1.5 7.9-.85 3.75-2.05 6.75-.35 2.1-.85 4.2t-1.2 4.3q-.3 1.2-.65 2.4-.3 1.2-.7 2.35l-.1.5q-.05.3-.1.55-.05.35-.15.65l-.1.7q-.75 3.55-1.5 6.9-.7 3.4-1.65 6.95-.5 1.85-1.05 3.65l-1.2 3.6q-1.45 3.2-2.7 6.5-1.3 3.35-2.3 5.2-2.25 4.05-4.05 9.85-1.85 5.8-2.6 12.35.15 1.5.35 3 .25 1.45.55 3l.05.1.05.25q0 .1.05.2.3 1.35.65 2.7.4 1.35.9 2.75.2.55.4 1.15.25.55.45 1.15l.5 1.1q.25.6.55 1.15.2.45.45.9.2.5.45.95l.25.45q.1.25.25.45.6 1.05 2.05 3.3 1.4 2.25 2.65 4.45l.9 1.9.3 1.2q0 .15-.1.45-.1.3-.5.4l-.45-.05.2.3q.15.15.25.3.85.55 2.45 1.7 1.6 1.1 3.5 2.55 1.75-1.45 2.9-3.2 1.2-1.7 1.75-2.4 8.7-8.7 13.8-14.55 5.15-5.8 7.8-11.75 2.7-5.9 4.15-14.95 5.05-17 6.3-35.25 1.3-18.25-1.7-36.75-2.95-18.5-10.75-36.2-1.65-3.7-3.5-7-1.85-3.35-3.8-6.4-.7-3.5-1.75-6.55-1.1-3.1-2.8-5.45-1.1-1.55-2.1-3.35-1-1.85-1.85-3.75l-.75-1.65q-.6-1.3-1.35-2.85-.8-1.6-1.55-2.8-.45-.4-1-.45-.55-.05-1 .35-.1.1-.15.3-.05.15-.05.4-.95-1.65-1.9-3.25t-1.95-3.15l-.65-1.05q-.55-.75-1.25-1.75-.25-.55-.5-1.05m17.65 39.2l-.1-.3.1.15v.15m333.05-60.9q.05.2.15.4.1-.15.15-.35l.2-.35q-.15-.05-.35-.1-.15 0-.3.05.05.2.15.35m46.7-14.7l-.5.9q.55-.3.95-.7.45-.4.65-.9l-.3-.1-.3-.1-.5.9M713.05 591.6l.2.6q0-.45.05-.95v-.95q-.15.15-.25.3t-.1.4l.1.6z" id="y"/><path fill="#FFF" d="M753.55 440.15l-10.3 5.5q-9.75 5.3-22 13.4-12.25 8.1-20.3 16.8-8.05 8.7-5.2 15.7 5.2 10.2 11.5 24.85 6.35 14.7 11.8 33.25 5.5 18.5 8.15 40.15.55 5.15-.9 13.75-1.45 8.55-4.15 18.85-2.65 10.3-5.75 20.55t-5.85 18.75q-2.1 6.05-5.55 12.6-3.4 6.5-6.5 14-3.1 7.45-4.15 16.35-1.05 8.9 1.6 19.7 5.25 15.1 38.85 28.35 33.65 13.25 78.85 22.8 45.2 9.5 85.1 13.5 39.95 3.95 57.8.4 18.6-3.85 36.25-9.15 17.65-5.3 33.8-15.1 16.1-9.8 30-27.2 11.85-15.2 19.9-35.55 8.05-20.35 12.05-43.15 4-22.75 3.6-45.3-.35-22.6-5.35-42.25-6.15-23.1-13.65-38.95-7.5-15.9-14.65-25.6-7.1-9.7-12.1-14.35l-6.05-5.3-45.85-8.25q-42.75-7.15-98.5-16.15-55.75-9.05-98-15.8l-44.45-7.15z" id="z"/><path fill="#0081c6" d="M1053 294.55v-.2q-.7-6.2-1.6-12.35-.95-6.15-2-12.35.15-.55.2-1 .1-.45.1-.65.15-2.3-.2-3.6-.35-1.25-1.3-2-.35-2.2-.7-4.45-.4-2.25-.7-4.5-.8-3.3-1.65-6.6-.9-3.35-1.85-6.75-.35-1.35-.7-2.8-.4-1.45-1.05-2.15-.65-.65-1.8.2-.35 1.65 0 3.8t.9 3.95l.7 2.5q.85 3.7 1.65 7.25.8 3.55 1.5 7-.2-.4-.35-.75-.2-.3-.55-.5-.1-.1-.3-.15-.25-.05-.45.05-.15.15-.2.25-.1.1-.2.25-.85-2.2-1.85-3.45t-2-.4l-.25 1.6.3 3.1q.6 3.85 1.5 8l1.25 5.65q1.4 6.1 2.2 11.85.75 5.75 1.2 11.55.4 5.8.55 12.1.15 4.9.25 9.8t.3 9.85q.05.4.05.7.05.35.1.6-2.8 15.85-6.7 28.45-3.85 12.6-9.9 23.15-6.05 10.6-15.45 20.25-9.4 9.7-23.25 19.65-11.95 8.95-22.35 17.7-10.4 8.8-21.8 15.25-11.4 6.45-26.3 8.45-2.55.25-7.8 1.45-5.2 1.25-9.8 3.5-4.6 2.25-5.3 5.75v.2l-.5.05.2.4q.1.15.25.35v.25q.1.1.25.2l.2.2q1.45 1.55 5.15 3 3.7 1.5 7.25 2.5l4.45 1.25q9.75 2.7 21.55 3.25 11.8.55 24.8-1.55 12.95-2.05 26.35-7.3 12.3-5 22.1-13 9.75-8 16.6-17.35 6.85-9.4 10.35-18.45 3.75-9.75 7.5-22.5 3.7-12.8 6.8-27.2l.5-4 .5-4q.15-3.4.35-6.8.2-3.45.65-6.9.75-6.25.95-12.2.2-5.95.2-11.85 0-5.95.15-12.15.25-6.6-.05-12.9-.25-6.35-.95-12.5z" id="A"/><g id="B"><path fill="#0081c6" d="M983.4 221.9q-.05-.05-.1-.25-.1-.2-.25-.35-.25-.4-.75-.4-.5.05-.85.25-.55.65-1.05 1.6-.5 1-.9 1.85l-.5 1.1q-.2.4-.45.8-.2.45-.45.85l-.25-.05q.8-2.65 1.25-4.4l.3-1.4.05-.6q-.15-.15-.45-.1-.3.1-.35.25-.45.8-.9 1.9-.4 1.05-.7 1.95l-.4 1.2-.7 2.2-.7 2.2q-.45.9-.8 1.9-.35.95-.65 1.95-.3.9-.55 1.8-.3.95-.55 1.85-.4 1-.75 2.05-.3 1-.65 2.05-.45 1.1-.95 2.1-.55 1.05-1.25 2l-.3.4q-.25.35-.3.75-.2.25-.3.6-.05.3.1.65 1 .15 2-.5 1.05-.65 2-1.75.25-.25.45-.55l.4-.5q.45-.6.8-1.15.4-.6.7-1.1 1.35-1.9 2.55-3.8 1.2-1.9 2.4-4.1l.75-1.3q.55-.95 1.1-1.95.35-.65.55-1.1l.25-.6h-.1q.5-.7.75-1.4t-.3-1.1q-.35 0-.65.35-.35.35-.6.75-.1-.15-.25-.2l-.3-.1q1.15-2.3 1.9-4.15l.55-1.5.15-.95z"/><path fill="#FFF" d="M1012.45 184.25q-2.9 1.1-4.65 4.1-4.95 8.95-9.2 16.65-4.3 7.65-8.4 14.3-4.15 6.65-8.75 12.6-.55 1-1.1 1.95l-.75 1.3q-1.2 2.2-2.4 4.1-1.2 1.9-2.55 3.8-.3.5-.7 1.1-.35.55-.8 1.15l-.4.5q-.2.3-.45.55-.95 1.1-2 1.75-1 .65-2 .5-.15-.35-.1-.65.1-.35.3-.6.05-.4.3-.75l.3-.4q.7-.95 1.25-2 .5-1 .95-2.1.35-1.05.65-2.05.35-1.05.75-2.05.25-.9.55-1.85.25-.9.55-1.8-3-1.15-7.2-2.85-4.15-1.75-8.7-3.8-4.55-2-8.7-4.15-5.15-2.85-14.4-5.6-9.25-2.8-21.85-3.75-12.6-.9-27.85 1.8-15.3 2.75-32.55 11-11.7 5.9-19.2 12.5-7.55 6.6-11.4 11.85l-4.65 6.95q-4.35 8.75-9.45 26.95t-9.7 38.5q-4.6 20.25-7.4 35.15l-2.1 11.7-.5 5.35 1.2 3.65 3.1 6.75q4.05 8.25 13.25 21.1 9.2 12.85 25.1 28.85 13.95 13.5 28.95 22.25 15 8.7 28.05 13.55 13.05 4.85 21.2 6.75 16.4 3.9 31.9 3.25 15.45-.7 28.7-4.35 13.25-3.7 23.05-8.7 9.85-5 15-9.75 11.1-10.15 19.05-25.2 7.95-15.05 12.85-33.45 4.85-18.4 6.8-38.65 1.95-20.25 1-40.9-1.3-25.55-4.5-47.65-3.2-22.05-7.2-39.55-4-17.45-7.7-29.25-3.65-11.8-5.8-16.8-1.35-2.95-4.1-3.85-2.75-.9-5.6.25z"/></g><path fill="#FFF" d="M889.05 162.7q-6.85 3.55-13.1 8.35-6.25 4.75-10.7 9.3-4.45 4.55-5.8 7.35-.9 2.55-1.35 9.55-.45 7-.6 15.1-.15 8.05-.15 13.9v6.1l2.8-.25q2.65-.25 6.15-.65 3.5-.4 6.25-.8l2.2-.4.95-.3q8.7-11.05 13.9-18.95 5.15-7.95 7.6-13.05 2.4-5.1 2.9-7.65.45-2.15 1.05-6.9.65-4.75 1.1-10.2.45-5.45.5-9.65l-.2-3.4-.55-1.8q-6.15.8-12.95 4.35z" id="C"/><g id="D"><path fill="#1D2013" d="M1009 492.75q-.15-.1-.3-.15-.1-.05-.25-.15l.15.3h.4z"/><path fill="#0081c6" d="M957.05 500.85q-1.95.45-4.65 1.15-2.65.7-5.25 1.6 1.3-.95 2.65-1.9 1.35-.9 2.75-1.8 10.85-7.75 23.25-9.6 12.45-1.85 25.35 2.05.85.1 1.75.2t1.75.15l2 .1q.95 0 1.95-.05l-.15-.3q.15.1.25.15.15.05.3.15h.15l.55-.05q.3-.05.6-.05.4-.05.75-.2.4-.1.75-.25l-.05-.1q-1.05-1.85-3.9-3.4-2.9-1.5-6.05-2.55-3.2-1-5.2-1.35-.95-.15-2-.35-1.05-.15-1.95-.1-6.45-.55-13.6.75-7.1 1.35-14 4.15-6.9 2.8-12.65 6.55-1.65 1.2-3.2 2.5-1.55 1.3-3 2.75l-.15.4q-.6.55-1.15 1.1-.6.6-1.1 1.15-.5.6-.95 1.2-.45.6-.9 1.25.35-.1.6-.15.25-.05.45-.1.45-.1.85-.25l.9-.2q6.15-1.55 12.4-3.05 6.25-1.45 12.45-2.95.7-.15 1.4-.35.7-.2 1.4-.45-1.95-.2-4.8.15-2.85.35-5.7.95-2.85.65-4.85 1.1m34.95-13.6l-.5-.1h.3l.8.1h-.6z"/></g><path fill="#FFF" d="M986.25 295.45q-2.35-6.75-7.9-11.65-5.5-4.95-15.3-6.75-9.95-1.5-16.9 1.55-7 3.1-11.65 8.85-4.65 5.8-7.5 12.35-2.85 6.5-4.55 11.9 8.9 1 20.1 2.9 11.2 1.85 23 4.1 11.75 2.2 22.35 4.35.95-6.45.8-13.65-.15-7.25-2.45-13.95z" id="E"/></defs><use xlink:href="#a" transform="matrix(.03458 .12741 -.13402 .03087 1016.55 4.75)"/><use xlink:href="#b" transform="matrix(-.04344 .12369 -.1184 -.04155 1089.75 3.6)"/><use xlink:href="#c" transform="matrix(-.1435 -.01656 .03291 -.14806 1083.65 230.3)"/><use xlink:href="#d" transform="matrix(-.11346 .09732 -.10443 -.10892 1146.6 74.3)"/><use xlink:href="#e" transform="matrix(-.10219 .0065 -.01488 -.09628 1086.45 184.2)"/><use xlink:href="#f" transform="matrix(-.10219 .0065 -.01488 -.09628 1086.45 184.2)"/><use xlink:href="#g" transform="matrix(-.05309 .07872 -.08858 -.05583 1060.4 96.6)"/><use xlink:href="#h" transform="matrix(-.10219 .0065 -.01488 -.09628 1086.45 184.2)"/><use xlink:href="#i" transform="matrix(-.10219 .0065 -.01488 -.09628 1086.45 184.2)"/><use xlink:href="#j" transform="matrix(4.9486 0 0 4.9486 -1463.25 -2713.35)"/><use xlink:href="#k" transform="matrix(1.03593 .20308 -.32118 -1.01128 -34.65 339.05)"/><use xlink:href="#l" transform="rotate(-21.387 887.286 618.521) scale(1.04957)"/><use xlink:href="#m" transform="rotate(-21.387 887.286 618.521) scale(1.04957)"/><use xlink:href="#n" transform="matrix(.64085 -.20143 .19743 .62624 126.8 389.35)"/><use xlink:href="#o" transform="matrix(-.45708 -.48521 .48828 -.45921 1171.6 1352.1)"/><use xlink:href="#p" transform="matrix(-.45708 -.48521 .48828 -.45921 1171.6 1352.1)"/><use xlink:href="#q" transform="matrix(-.58275 .21094 .3129 .63016 1155.15 133.45)"/><use xlink:href="#r" transform="matrix(.26636 -.5881 .69508 .24321 515.85 933.35)"/><use xlink:href="#s" transform="matrix(.76825 .084 .0775 .87955 119.5 17.9)"/><use xlink:href="#t" transform="matrix(.88107 .20853 .09547 .82823 -132.7 -41.45)"/><use xlink:href="#u" transform="matrix(.6864 -.01619 .24458 .8996 136.85 85.35)"/><use xlink:href="#v" transform="matrix(.6864 -.01619 .24458 .8996 136.85 85.35)"/><use xlink:href="#w" transform="matrix(.74907 .02753 .19685 .82423 115.35 126.3)"/><use xlink:href="#x" transform="matrix(.38185 .01659 .0252 .64287 476.9 276.6)"/><use xlink:href="#y" transform="matrix(-.6499 -.12929 -.05313 .66084 1465.85 380.3)"/><use xlink:href="#z" transform="matrix(-.6499 -.12929 -.05313 .66084 1465.85 380.3)"/><use xlink:href="#A" transform="matrix(.74712 .1744 -.18246 .64621 266.5 129.85)"/><use xlink:href="#B" transform="matrix(.74712 .1744 -.18246 .64621 266.5 129.85)"/><use xlink:href="#C" transform="matrix(.60992 -.23055 .38963 .52222 253.5 508.75)"/><use xlink:href="#D" transform="matrix(-.32332 -.12846 -.09538 .60562 1232.9 327.75)"/><use xlink:href="#E" transform="matrix(.60013 .2136 -.2071 .6067 323.1 79.55)"/></svg>