<svg xmlns="http://www.w3.org/2000/svg" xmlns:xlink="http://www.w3.org/1999/xlink" preserveAspectRatio="none" width="760" height="880" viewBox="614 10 760 880"><defs><path fill="#FFF" d="M1325.05 341q-8.9-5.55-17.9-10.55-8.95-5-15.6-7.95-12.35-5.35-24.6-9.7-12.3-4.35-23.15-7.75-10.85-3.4-18.95-5.9-5.95-1.85-18.25-6.25-12.3-4.45-26.55-9.75-14.25-5.35-26-9.95-11.7-4.6-16.5-6.85-5.15-2.4-12.25-5.65-7.05-3.25-14.5-7.2t-13.7-8.4q-6.3-4.45-9.8-9.2l-33.5 132.8q2.45.8 8.55.3 6.1-.5 14.05-1.6 7.9-1.15 15.75-2.25 7.9-1.1 13.85-1.6 6-.4 14.35-.6 8.35-.15 17.9-.2 9.55-.1 19.2-.1 6.55.05 14.75.25 8.15.2 16.65.4 8.5.2 16 .15 7.45-.05 12.5-.55 10.3-1.1 23.6-2.4 13.3-1.3 26.6-2.55 13.3-1.25 23.65-2.1 10.35-.85 14.7-1 4.2-.1 10.45.1 6.3.15 12.95.6 6.65.4 11.8.95 5.2.6 7.15 1.3l-2.75-2.7-5.15-3.95q-6.4-4.6-15.3-10.15z" id="a"/><path fill="#0081c6" d="M1093.15 183.4q-.7-.35-1.45-.6-.75-.2-1.45-.5-.85-.3-1.6-.7-.8-.4-1.6-.75-1.3-.6-2.8-.95-1.45-.3-2.9-.8l-.8-.3q-.7-.25-1.25-.45-.05.4-.15.85l-.15.6q-.65 3.15-1.25 6.35-.65 3.2-1.45 6.35-1.2 4.55-1.85 9.35-.65 4.8-1.35 9.5-1.9 11.6-4.05 23.2-2.15 11.55-3.85 23.2-1.6 10.95-3.55 21.9l-3.9 21.9q-2 10.9-3.65 21.9-1.4 8.8-2.65 17.65-1.25 8.9-1.8 17.8-.05 1.4 0 2.85.05 1.45.45 2.85l.3.75q.3.65.45 1.2.35.55.9 1 .6.45 1.15.35 1.05-.2 1.55-1.05.45-.8.65-1.85t.35-1.95q3.3-15.7 6.1-31.55 2.8-15.8 5.8-31.6 1.75-8.85 4.4-17.45 2.7-8.6 5.7-17.1.15-.35.3-.75l.55-1.55q.2-.65.4-1.2-.1.45-.2.95l-.05.45-.05.2q-.75 4-1.25 8t-1.25 7.95q-1.35 6.85-2.9 13.9-1.55 7.05-2.6 14.1-1.1 7.1-.95 14.1.05 1.75 0 3.15-.1 1.4-.45 3.2-.3 1.4-.6 2.9-.3 1.45-.3 2.95l.1 1.1.25.5.35-.1.45-.75q-.05.45-.15.95l-.05.4-.05.2q-1.2 6.6-2.4 13-1.2 6.45-2 13.1-.3 2.4-.55 4.85-.3 2.45.15 4.85l.05.25.15.4q.2.55.4.95.4-.15.8-.4l.45-.3q1.85-1.7 2.55-4.9.75-3.15 1-6.55.25-3.45.6-5.85 2-11.7 4.2-23.3 2.15-11.65 4.2-23.3 2-11.65 3.5-23.4.3-2.4.55-4.75.25-2.35.65-4.75 1.3-8.15 2.6-16.25t2.75-16.25q1.75-10.4 3.3-20.85 1.55-10.45 3-20.9.45-3.1.85-6.2.4-3.1.7-6.2.05-.75.15-1.55.1-.85 0-1.6l-.05-.45-.05-.2q0-.1-.1-.15l-.5-.3q-.25-.2-.8-.55l-1.1-.6-.9-.45z" id="b"/><path fill="#FFF" d="M1082.3 187.3l-1.05-.1q-.8-.1-1.5-.2-.1.45-.2 1l-.1.7q-6.65 37.35-13.15 74.75-6.5 37.35-12.25 74.9-6.8 44.6-12.9 89.25-6.1 44.65-11.45 89.5-4.25 36.45-8.25 72.9t-8.05 72.85q-4.05 36.45-8.45 72.9-1.55 12.85-3.2 25.75-1.65 12.9-3.4 25.75l-.1.8q-.1.4-.15.8l-.15 1.3q-.15 1-.25 1.9-.05.4-.15.95l-.05.4v.2q-.15.8-.25 1.6l-.2 1.6q-.05.4-.1.85l-.3 2.05q-.1.95-.25 1.8h1l.45.05h.25l6.7.2 6.65.2q.4 0 .85.05.45.05.85 0l.5-.1.2.1q.1.1.05 0l.2-.85q.35-1.35.5-3.25.15-1.9.35-3.4 7.05-55.85 12.95-111.85 5.9-56 11.65-112.05 5.75-56 12.45-111.9 8.15-66.65 18.3-133 10.1-66.3 21.4-132.45.1-.45.15-.85.1-.45.15-.85l.2-1.2q.2-.95.35-1.8-.5-.05-1.05-.1l-.7-.1-3.4-.4q-1.7-.2-3.4-.45-.4-.05-.85-.1-.45-.05-.85-.1z" id="c"/><path fill="#FFF" d="M882.55 535.5q-2.2-9.85-7.95-16.4-5.7-6.5-16.4-5.75-13.95 1.45-34.05 5.2-20.15 3.7-40.95 8.4-20.75 4.7-36.7 9l-13.4 3.95-8.15 3.1q-13.7 6.85-22.25 16.85-8.55 10-12.45 22.7-3.9 12.7-3.65 27.8.1 8.05 1.55 21.1 1.4 13 4 29.35 2.65 16.35 6.25 34.45 3.65 18.1 8.25 36.35l1.45 2.1 3.85 3.8q5.1 4.7 15.1 9.15 10 4.4 25 4.9 14.1 0 23.75-3.05 9.65-3.1 15-6.8l4.3-3.3 2.25-2.35q1.45-15.75 4.8-32.75 3.35-16.95 7.65-32.35 4.3-15.4 8.55-26.4 4.3-11 7.6-14.8 3.2-3.45 8.95-7.25 5.75-3.8 13.25-7.8 7.55-4.05 16.05-8.25 8.8-4.55 14.05-12 5.3-7.45 6.85-14.75 1.6-7.35-.7-11.6.55-4.5.45-13.65-.15-9.15-2.3-18.95z" id="d"/><path fill="#0081c6" d="M1137.8 562.05l-.85-2.65-.05-.05-.05-.15-.05-.05-1.5-2.15-1.95-1.85-4.3-2.9-8.95-4.6h-.1l-5.4-1.85-2.75-.6-5.65-.65H1095l-22 2.85-10.85 2.35-34.4 10.4-10.25 4.3-.05.05h-.05l-2.2 1.2-8.25 5.9-7.15 7.1-.95 1.15-.25-.75-.35-.45-1-.25-.95.5-.3.45-.05.65.3 3.1-2.3 3.55-.2.6.05.55.7.85 1 .2.5-.25.4-.5.3-.5 2.4 16.6 2.5 7.5 7.65 41.85 20.2 90 1.85 5.2 1.25 2.45.1.1.05.1 1.55 2.05 1.85 1.9 4.1 3.15 6.85 3.55 7.3 2.35 2.45.55h.05l18.75 2.55 8.15.45 11-.45 2.7-.55.05-.05h.1l11.85-4.8 9.05-4.9 4.2-3.05.15-.2.2-.15 1.35-2.3 1.05-2.5 8.15-27.3v-.05l.65-2.55 9.8-66.15.5-31.75-.55-23.7-1.15-10.55-4.6-17.4-.45-7.5z" id="e"/><path fill="#FFF" d="M1101.4 492q-12.1-13.65-27.4-26.3-15.3-12.7-30.5-20.35-15.15-7.7-26.75-6.45-14.25 2.2-21.4 8.35-7.2 6.15-9.6 14.3-2.4 8.15-2.2 16.45.15 8.25.6 14.7.3 6.25 3.05 21.4 2.75 15.2 7.15 36.45 4.4 21.25 9.7 45.7 5.3 24.4 10.7 49.05 4.75 21.55 8.95 41.15 4.25 19.6 7.55 35.5 3.3 15.95 5.3 26.5l2.55 2.15 4.95 2.75q6.15 3.05 15.3 5.5 9.2 2.4 19.65 2.35 14.9-.4 23.45-2.9 8.5-2.55 12.15-5.25l2.75-2.35 1-1.5q13.75-48.15 17.35-87.6 3.6-39.4.85-69.25-2.75-29.8-8.1-49.05-5.35-19.25-9.5-27-5.45-10.65-17.55-24.3z" id="f"/><path fill="#FFF" d="M656.95 766.95l-8.05-.8q-1.6 0-2.6 1.1-1.05 1.1-1.1 2.55-.05 1.5 1.3 2.7l2.6 1.4 5.45 2.2q6.9 2.6 18.4 4.6 11.45 2 26.2 1.2 14.7-.75 31.5-6.45 11.65-4.35 21.95-12.65 10.35-8.3 18.3-17.35 8-9.05 12.6-15.55l4.8-7.25-1.05-1.4-2.9-2.8q-3.8-3.5-8.4-7.55-4.65-4-7.35-6.3-2.1 3.35-7.35 10.9Q756 723 748.5 732q-7.45 9.05-16.15 16.9-8.75 7.85-17.75 11.9-9.9 4.1-20.75 5.6-10.85 1.45-20.6 1.35-9.7-.15-16.3-.8z" id="g"/><path fill="#FFF" d="M985.85 192.35l2.2-3.4.8-2.05q-4.05-2.1-9.95-3-5.95-.85-12.2-.85-6.25.05-11.25.7-5.05.65-7.3 1.6-1.85 1.05-5.6 4.95-3.75 3.9-7.8 8.65-4.1 4.75-7 8.2l-3.05 3.65 2 1.35q1.85 1.2 3.85 2.4l1.6.9.85.3q11.4-1.85 18.85-3.15 7.4-1.3 12.05-2.6 4.65-1.25 7.75-3 3.35-2.05 7.35-6.3 3.95-4.3 6.85-8.35z" id="h"/><path fill="#FFF" d="M752.8 734.5l.2 26.95q.15 24.95.4 57.5.25 32.6.45 57.45l.2 26.6q6.15 5.05 19.85 7.2 13.65 2.1 30.5 1.65 16.9-.5 32.75-3.3 15.9-2.8 26.45-7.55l4.5-20.7q4.15-19.3 9.55-44.65 5.4-25.3 9.5-44.6l4.35-20.5q-7.45-13.9-26.4-22.45-18.9-8.55-41.85-12.5-22.9-3.95-42.4-4-19.45-.1-28.05 2.9z" id="i"/><path fill="#0083CB" d="M943.65 840.8q-1.05-2.05-1.45-3.45-.75-2.75-1.15-5.5-.35-2.8-.9-5.5l-.5-1.5-.55-.4q-.6.1-1.05 1.35-.4 1.2-.4 2.45.15 3.15 1.1 7.5.95 4.35 3.1 7.95 2.1 3.6 5.8 4.45 3.45.45 5.8-2.6 2.35-3 3.65-7.05 1.3-4.05 1.65-6.75.15-1 .2-2.9.05-1.9-.25-3.6-.3-1.75-1.25-2.3l-.2-.05q-.15 0-.2.05-.35.35-.45.85l-.15.7q-.25 1.9-.3 3.9 0 2-.35 3.95-.3 1.7-1.15 4.5-.85 2.8-2.15 5.3-1.3 2.45-3 3.1-1.75.45-3.3-.95-1.5-1.45-2.55-3.5z" id="j"/><path fill="#0081c6" d="M951.25 738.5q-.15-3.15-.55-4.95-.4-1.8-1.65-2.05-1.3-.25-3.95 1.25-.75 1.5-.85 3.3-.15 1.85 0 3.35-1.35 1.4-2.55 3.25-1.2 1.85-2.05 3.45l-1.1 2.15q-5.1 12.35-6.25 30-1.2 17.7.85 36.75t6.6 35.5q4.5 16.5 10.8 26.55.35.55.95 1.5t1.4 2q.2 1.65 1.15 2.65.9 1 3.2.35l.15-.15q.2.05.35 0 .2 0 .4-.05v-.3-.35q1.55-2.05 1.65-5.25.15-3.15-.25-5.75l-.45-2.8q-1.9-32.6-3.9-65.2t-3.95-65.2z" id="k"/><path fill="#FFF" d="M775.35 771.35l4.9 7.95q4.65 7.55 11.05 18.1 6.4 10.6 11.95 19.9 5.5 9.35 7.4 13.2 2.8 5.9 6.7 16.8 3.95 10.85 7.75 22.5 3.85 11.6 6.45 19.7l2.75 8.5q6.05 4.2 22.45 7.3 16.4 3.1 36.25 3.95 19.85.9 36.4-1.55 16.5-2.5 22.85-9.4.9-12.35.75-25.05-.2-12.65-.85-25.25-.7-12.6-1.25-24.65-.75-18.4-1.65-35-.85-16.65-1.65-29.7-.8-13.05-1.3-20.65l-.4-7.85q-19.4-5.4-41.8-2.7-22.45 2.65-45.55 10.2-23.1 7.55-44.5 16.75-21.4 9.25-38.7 16.95z" id="l"/><path fill="#0083CB" d="M943.35 838.65q-1.2-2.6-1.95-5.7-.8-3.05-1.8-5.85l-.4-.7-.3-.15q-.3.15-.45.85-.15.7-.15 1.4.2 3.1 1.2 6.95 1 3.8 2.75 6.95 1.7 3.15 4.05 4.3 4 1.55 6.85-1.1 2.85-2.65 4.45-7.45 1.6-4.75 1.75-9.5v-1.7q-.05-1-.25-1.8-.25-.75-.7-.7-.15.3-.3.65l-.15.5q-.6 2-.85 4.2-.3 2.15-.8 4.3-1.15 4.45-3.3 7.15t-4.75 2.35q-2.55-.35-4.9-4.95z" id="m"/><path fill="#FFF" d="M767.75 370.25q-6.5 10.05-12.3 20.9-5.4 10.3-10.9 21.95-5.5 11.65-9.95 21.85-4.45 10.15-6.7 16l43.35 4.1q41.25 3.35 95.3 7.25 54.1 3.9 94.95 6.2l30.95 1.4 8.1.05 3.2-.45q-1.65-3.05-7.75-9.25t-13.95-13.3q-7.85-7.1-14.8-12.75-6.95-5.7-10.25-7.65l-29.95-15.4q-25.65-13-57.9-29.25-32.25-16.3-56.35-28.4l-25.35-12.75q-2.35 3.95-7.75 11.7-5.4 7.75-11.95 17.8z" id="n"/><path fill="#0081c6" d="M948.5 775.95l-.85-1.6q-.65-1.15-1.55-2.5-.95-1.4-1.9-2.4-.65-.1-.8.45-.2.5-.3 1-.6 2.8-.2 4.5.4 1.75 1.45 3.25 1.05 1.5 2.45 3.6l.65 1.65q.45 1.25 1.1 2.8.65 1.5 1.45 2.65l.2-.1.2-.15q.15-.3.15-.65 0-.35.05-.5.45-1.1.1-3.45-.35-2.4-1-4.85-.7-2.45-1.2-3.7M857.6 787q.25.25.4.3l4.75.5q4.15.25 8.55.45l5.85.3q.45.05 1.55.2 1.05.1 2.15.05 1.15-.1 1.85-.6-.2-.2-.45-.4l-.35-.25q-.4-.3-1.1-.55-.65-.25-1.6-.45.1 0 .25-.05.1-.05.2-.15 0-.15-.2-.3t-.3-.2q-.95-.7-3.2-.9-2.2-.2-4.45-.2h-3.55l-1.7-.15q-1.35-.1-2.5-.3-.25 0-.45.1-.25.1-.35.25-.45 0-.9-.05-.45 0-.8-.05-.25 0-.6.2t-.45.4l.05.1-.8-.05q-.35-.05-.7-.05-.55.1-1.05.45-.45.3-.35.9 0 .3.25.5m87.65-132.85q-7.2 17.5-12.4 35.65-5.15 18.15-8.3 38.65-.85 5.35-1.55 10.45-.7 5.05-1.15 9.95.4-.15.8-.25.35-.15.65-.2.3.05.65.1.4.1.5.2 1.6 1.7 3.1 6.2 1.45 4.45 2.75 9.5 1.25 5.05 2.1 8.5.65-.1 1.55-.05.85.05 1.9.25 0-2.45.9-5.25.9-2.85 2.95-4.5 2.1-1.7 5.75-.7 1.5.75 3 2t2.65 2.45q1.15 1.2 1.5 1.75 1.35 1.9 3.1 5.05 1.7 3.2 2.95 6.4 1.3 3.2 1.25 5.2 1.2-.3 2.55-.6 1.4-.3 2.9-.6l1.2-.3q1-.25 2.2-.6 1.15-.35 2.1-.75.75-.45 1.7-.65.95-.15 1.95 0 1.55-1 3.85-1.7 2.35-.7 4.6-1.1 2.2-.4 3.5-.55l2.9-.5q1.4-.25 2.85-.5 1-.6 2.05-1.05 1-.5 1.95-.85.6-.7 1.3-1.4.65-.7 1.4-1.35.5-.45 1.3-1.1.75-.7 1.7-1 .95-.3 1.95.25.1.25.15.5l.1.5q4.3-4.75 8.5-9.5t9.4-8.5q.35-.35.75-.65.4-.3.75.2.1 1.05-.5 2.15-.55 1.05-1.2 1.85l-.9 1.15q-1.5 2.1-3 4-1.55 1.95-3.15 3.75 4.35-4.45 8.3-9.1 3.95-4.6 8.2-9.5l1-1.05q.75-.7 1.8-1.5 1-.75 2-1.15.9 1.85-.55 4.65-1.45 2.8-3.35 5.1l-2.35 2.8q1.125-1.256 2.4-2.4l.4-.3q.35-.2.75-.3.6 1.6-.8 3.7-1.35 2.15-3.05 3.8l-2.05 2-.3.3-.3.3q-.5.55-1.05 1.1-.6.5-1.15 1.05-1 .9-2.1 1.8-1.05.9-2.2 1.8-1.4 1.1-2.85 2.2-1.45 1.05-2.95 2.1-.9.6-1.75 1.2-.9.6-1.75 1.2-1.05.7-2.05 1.4-1 .65-2.05 1.35-1.25.95-2.55 1.85-1.3.95-2.65 1.85-.55.35-1.1.75-.55.35-1.15.7.6.05 1.2.15.6.05 1.2.2 4.7-1.75 9-3.7 4.25-1.9 7.6-3.7 16.05-8.55 28.8-19.9 12.75-11.35 22.15-24.9 9.35-13.5 15.2-28.75 2.4-5.05 4.4-10.5 1.95-5.4 3.45-11.05 1.1-2.55 1.75-5.5.6-2.9.9-5.95 2-10.7 2.7-21.75.7-11.05.2-22.1.3-18.6-3.4-37.3-3.65-18.75-12.1-37.4l-1.6-3.5-1.6-3.55q-.3 1.85.4 4.1.75 2.2 1.05 4.3.35 2.1-1.2 3.5-2.8 2.2-4.15.5-1.35-1.65-2-4.75-.65-3.05-1.3-5.15-3.25.6-5.4-3.2-2.15-3.85-3.45-9-1.35-5.2-2.15-8.7l-.5-1.9q-.35-1.45-.8-3.25-.45-1.85-.85-3.3-.6-.65-1.55-.4l-.8.2-.45.05q-2.15-1.3-2.25-4.05-.1-2.75 1.2-6.4-20.2 13.7-37.85 32.2-17.65 18.5-31.75 38.8-14.1 20.35-23.7 39.6-9.35 18.45-16.6 35.9m143.9 35.65q.25-.9.45-1.75.2-.9.45-1.75l.15-.25.2-.2-.6 2q-.3.95-.65 1.95m-389.6-158.1q-.3-.5-.6-.9-.15-.2-.35-.3-.2-.1-.45-.1-.3-.4-.65-.75-.3-.35-.6-.65-1.25-.5-.95.2.3.75 1.2 2.05v.5q.05.3.1.7l-.75-1.65q-.5-.95-1.2-2.05-.7-1.15-1.55-1.95-.85-.45-1-.1-.1.35.15 1.15.25.8.55 1.65 4.05 12.5 9 25 4.9 12.5 8.75 25.15 3.85 12.7 4.7 25.7-.2 4.2-.55 8.65-.4 4.45-1.05 8.6-.7 4.1-1.7 7.35-.25 2.15-.65 4.3-.35 2.15-.95 4.35-.2 1.25-.45 2.5-.25 1.2-.55 2.4l-.1.5q-.05.3-.05.55l-.1.7q-.05.35-.1.65-.55 3.6-1.05 7.05-.55 3.45-1.3 7.05-.35 1.9-.8 3.75-.45 1.85-.95 3.65-1.25 3.3-2.35 6.7-1.05 3.4-1.95 5.35-2 4.15-3.45 10.1-1.5 5.9-1.9 12.5.25 1.5.6 3 .3 1.5.7 3l.05.15q0 .1.05.2 0 .1.05.25.35 1.3.85 2.65.45 1.35 1 2.75l.5 1.1q.25.55.5 1.15.3.55.55 1.1.3.55.6 1.15l.5.9q.25.4.5.85l.3.45q.15.25.25.5.65 1 2.2 3.2 1.6 2.2 2.9 4.35l1.05 1.85.35 1.2q0 .15-.1.45-.1.3-.45.45l-.45-.05q.1.15.25.3.1.15.25.3.85.5 2.5 1.55t3.6 2.4q1.65-1.55 2.7-3.3 1.1-1.8 1.6-2.55 8.15-9.15 12.85-15.3 4.75-6.1 7.05-12.2 2.35-6.05 3.25-15.2 4-17.4 4.2-35.8.2-18.45-3.8-36.9-4.05-18.45-12.8-35.9-1.85-3.6-3.85-6.85-2.05-3.3-4.15-6.3-.9-3.45-2.15-6.5t-3.05-5.35q-1.2-1.45-2.25-3.25-1.1-1.85-2.1-3.7l-.85-1.6q-.65-1.25-1.5-2.8-.85-1.55-1.65-2.75-.5-.4-1.05-.4-.55-.05-.95.4-.1.1-.15.3-.05.15 0 .4-1.05-1.6-2.1-3.15-1.05-1.6-2.1-3.1l-.7-1-1.4-1.75-.5-1m19.75 38.6l-.1-.35.1.15v.2m337.3-66.9q.05.2.15.4.1-.15.15-.35.1-.15.2-.35-.15-.05-.35-.1-.15 0-.3.05.05.2.15.35m46.7-14.7l-.5.9q.55-.3.95-.7.45-.4.65-.9l-.3-.1-.3-.1-.5.9M710.5 598.25l.2.6v-.95-.95q-.15.15-.25.3t-.1.4q.05.3.15.6z" id="o"/><path fill="#FFF" d="M753.55 440.15l-10.25 3q-9.65 3.1-21.85 10.05-12.2 6.95-20.3 18.55-8.1 11.6-5.5 28.6 1.9 10.45 4.5 22.75 2.65 12.3 7.4 29.3t13 41.45q1.55 4.9 1.25 13.2-.35 8.35-1.8 18.45-1.5 10.1-3.35 20.35-1.9 10.25-3.5 19.05-1.4 7.3-4.25 14.8-2.8 7.5-5.1 15.6-2.35 8.1-2.4 17.1 0 9 4.15 19.3 7.15 14.35 39.7 26.4 32.55 12.05 75.25 20.35 42.75 8.3 80.55 11.4 37.8 3.1 55.5-.45 18.6-3.85 36.25-9.15 17.65-5.3 33.8-15.1 16.1-9.8 30-27.2 11.85-15.2 19.9-35.55 8.05-20.35 12.05-43.15 4-22.75 3.6-45.3-.35-22.6-5.35-42.25-6.15-23.1-13.65-38.95-7.5-15.9-14.65-25.6-7.1-9.7-12.1-14.35l-6.05-5.3-45.85-8.25q-42.75-7.15-98.5-16.15-55.75-9.05-98-15.8l-44.45-7.15z" id="p"/><path fill="#0081c6" d="M1162.4 196.4q-2.35-.6-5.15.05-.25.05-.85.2-.65.1-1 .55-1.35 1-2.9 2.45-1.55 1.5-2.75 2.75l-1.45 1.7q-5.55 8.65-10.45 16.8-4.9 8.2-10.05 16.1-1.65 1.8-3 3.85-1.4 2.05-2.6 4.25-2.7 3.7-5.7 7.35-3 3.7-6.4 7.4-4.5 5.05-9.15 10.9-4.7 5.85-9.9 11l-.7.45-.7.4-.25.1q-4.2 2.25-8 4.55-3.75 2.3-7.9 3.5-4.15 1.2-9.5.2-3.55-.8-6.7-3.4-3.1-2.6-5.7-6.35-2.6-3.75-4.55-8v-1.3q-.05-.6-.05-.8-.35-3.15-1.1-6.1-.75-2.95-1.55-5.85-.3-2.95-.55-5.6-.25-2.7-.6-4.85-.3-1.75-.55-3.4-.25-1.6-.9-3.2-.55-1.7-1.5-3.1-1-1.45-2.55-2.4l-.45-.45q-.2-.15-.35-.25-3.9-2.15-9.7.1-5.8 2.2-11.95 6.2-6.1 4-11 7.15-1.05.5-1.9.95l-1.15.65q-.25.1-.45.2l-.4.2q-7.75.65-14.45-1.9-6.65-2.5-13.1-7.55-6.45-5-13.55-11.7-2.25-2.1-4.7-4.15-2.45-2.05-5.1-3.95l-.3.2-.3.2q-.4.25-.7.6-.3.3-.55.75-.05.1-.1.25l-.1.3-.7-.25-.25.1q-.05.35.25 1l.5 1 .05.2q-1.1 4.35-2.75 5.65-1.7 1.3-3.95.65-2.3-.7-5.15-2.3l-.35 1.3q-.35 1.15-.9 1.95-2.9 3.45-4.9 2.85-2.05-.6-4.2-2.1-2.1-1.5-5.3-.75-3.55 1.1-5.75 1.4-2.15.25-4.4-.15-2.25-.4-6.1-1.3-5.75-1.25-9.5-1.3-3.8-.05-7.5.35-3.65.45-9.05.65-5.4.15-9.15 1.35-3.75 1.15-6.95 3.6-3.25 2.45-6.95 6.5-6.85 7.1-14.45 14.55-7.6 7.45-14.35 15.6-6.75 8.15-11.1 17.3-.55 1.15-1.65 3.65-1.05 2.5-2.5 5.85-1.45 3.3-3.15 7.05-.3.75-.65 1.5-.35.7-.65 1.45-.45.9-.85 1.75-.4.9-.8 1.75-.6 1.25-1.2 2.45l-1.15 2.4q.15 1.6.45 3 .25 1.4.65 2.5 1.8 4.65 7.1 10.45 5.3 5.85 11.3 11.45 6 5.65 9.9 9.6 7.5 8.25 12.7 14.05 5.15 5.85 11.55 10 6.35 4.2 17.55 7.45 12.25 3.6 24 6.35 11.8 2.75 23.75 4.4 11.9 1.65 24.6 1.85 6.45 0 13.1.3 6.6.2 13.1 1.4 6.45 1.15 12.5 3.95 6 2.75 11.25 4.4 5.25 1.65 10.4 3.85 5.2 2.25 10.9 6.55 2 1.55 5.5 3.95 3.45 2.45 7.8 5.2 4.3 2.8 8.85 5.35-5.25 5-10.2 10.65-4.95 5.7-8.1 11.3-3.15 5.6-3 10.25.05.6.15 1.2.1.6.3 1.15.35.8.75 1.55t.85 1.45q.2.3.45.6l.5.5-.3-.05q.3.5.7 1 .35.5.75.95 6.85.9 13.25.6 6.35-.25 12.75-1.3 6.4-1 13.25-2.4 6.3-.7 12.7-1.85 6.45-1.2 12.9-2.95.95-.2 1.9-.5 1-.25 2-.55 17.25-4.95 33.15-14.3 15.9-9.3 28.4-23.8 12.5-14.5 19.65-34.95 1.15-3.3 2.65-7.8 1.55-4.55 2.9-9.55 1.4-5 2.1-9.75 2.05-9.8 3.4-19.6 1.3-9.8 2.1-19.15.65-7.1 1.4-13.1.8-6 1.15-12.15.4-6.1-.15-13.55-.55-8.3-.75-15.85-.25-7.55-.6-14.9-.35-7.35-1.45-15-.35-4.05-.95-8.05-.65-3.95-1.65-7.8-1.15-4.45-3.05-10.35-1.9-5.85-4.9-11.2-2.95-5.4-7.25-8.25-1.85-1.65-4.2-2.25m-140.65 44.55l.1-.05v.05h-.1m-37 11.1l-.4-.15-.15-.1q.11.07.2.1.2.05.35.15z" id="q"/><path fill="#FFF" d="M1122.8 255.7q-12.8 17.7-28.05 29.6-15.25 11.9-30.8 9.35-8.3-2-13.3-8.85-4.95-6.8-7.45-15.35-2.45-8.5-3.25-15.75-.75-7.2-.75-10-.1-2.8-1.95-4.65-1.8-1.85-4.5-2.15-2.75-.3-5.5 1.7-4.35 3.3-10.4 7.4-6.1 4.05-13.1 6.85-6.95 2.75-14 2.2-3.45-.5-8.85-4.25-5.45-3.75-11.9-9.25-6.45-5.45-12.9-11.05-6.45-5.65-11.95-9.85-4.35-3.5-15.35-6.45-11-3-27.4-2.25-16.45.75-37.2 8.4-14.4 5.75-23.85 12.85-9.45 7.1-14.4 12.95l-3.95 4.8-1.85 2.85q-3.9 7.5-10.1 24.3-6.15 16.8-12.5 35.55-6.35 18.75-10.65 32.1l-4.5 13.95 2.3 7q2.15 6.55 8.1 17 5.9 10.4 17.45 22.55 11.5 12.15 30.5 23.85 23.6 13.95 47.2 22.7t43.5 13.25q19.9 4.5 32.5 5.75 38.15 4.1 68.2 2 30-2.05 51.95-9.05 21.95-7 35.85-17.7 18.65-14.25 31.8-34.95 13.2-20.7 20.3-46.1 7.1-25.35 7.6-53.75.4-33.9-1.65-56.3-2.05-22.35-4.55-34.35l-3.4-14.8q-1.5-5.4-5-7.1-3.5-1.7-6.95-.55t-4.9 4.4l-9.45 18.5q-8.2 14.95-20.95 32.65z" id="r"/><path fill="#FFF" d="M889.05 162.7q-6.85 3.55-13.1 8.35-6.25 4.75-10.7 9.3-4.45 4.55-5.8 7.35-.9 2.55-1.35 9.55-.45 7-.6 15.1-.15 8.05-.15 13.9v6.1l2.8-.25q2.65-.25 6.15-.65 3.5-.4 6.25-.8l2.2-.4.95-.3q8.7-11.05 13.9-18.95 5.15-7.95 7.6-13.05 2.4-5.1 2.9-7.65.45-2.15 1.05-6.9.65-4.75 1.1-10.2.45-5.45.5-9.65l-.2-3.4-.55-1.8q-6.15.8-12.95 4.35z" id="s"/><g id="t"><path fill="#1D2013" d="M1009 492.75q-.15-.1-.3-.15-.1-.05-.25-.15l.15.3h.4z"/><path fill="#0081c6" d="M957.05 500.85q-1.95.45-4.65 1.15-2.65.7-5.25 1.6 1.3-.95 2.65-1.9 1.35-.9 2.75-1.8 10.85-7.75 23.25-9.6 12.45-1.85 25.35 2.05.85.1 1.75.2t1.75.15l2 .1q.95 0 1.95-.05l-.15-.3q.15.1.25.15.15.05.3.15h.15l.55-.05q.3-.05.6-.05.4-.05.75-.2.4-.1.75-.25l-.05-.1q-1.05-1.85-3.9-3.4-2.9-1.5-6.05-2.55-3.2-1-5.2-1.35-.95-.15-2-.35-1.05-.15-1.95-.1-6.45-.55-13.6.75-7.1 1.35-14 4.15-6.9 2.8-12.65 6.55-1.65 1.2-3.2 2.5-1.55 1.3-3 2.75l-.15.4q-.6.55-1.15 1.1-.6.6-1.1 1.15-.5.6-.95 1.2-.45.6-.9 1.25.35-.1.6-.15.25-.05.45-.1.45-.1.85-.25l.9-.2q6.15-1.55 12.4-3.05 6.25-1.45 12.45-2.95.7-.15 1.4-.35.7-.2 1.4-.45-1.95-.2-4.8.15-2.85.35-5.7.95-2.85.65-4.85 1.1m34.95-13.6l-.5-.1h.3l.8.1h-.6z"/></g><path fill="#FFF" d="M986.25 295.45q-2.35-6.75-7.9-11.65-5.5-4.95-15.3-6.75-9.95-1.5-16.9 1.55-7 3.1-11.65 8.85-4.65 5.8-7.5 12.35-2.85 6.5-4.55 11.9 8.9 1 20.1 2.9 11.2 1.85 23 4.1 11.75 2.2 22.35 4.35.95-6.45.8-13.65-.15-7.25-2.45-13.95z" id="u"/></defs><use xlink:href="#a" transform="matrix(.64552 .91649 .38107 -1.0294 351.55 -323.15)"/><use xlink:href="#b" transform="matrix(1.04947 .01494 -.01494 1.04947 35.55 28.55)"/><use xlink:href="#c" transform="matrix(1.04947 .01494 -.01494 1.04947 35.55 28.55)"/><use xlink:href="#d" transform="matrix(.66025 -.15878 .11958 .70192 174.7 297.75)"/><use xlink:href="#e" transform="matrix(-.16563 .65115 .64577 .16728 786.65 -132.55)"/><use xlink:href="#f" transform="matrix(-.16563 .65115 .64577 .16728 786.65 -132.55)"/><use xlink:href="#g" transform="matrix(-.66324 -.08153 -.07684 .6664 1521.55 314.9)"/><use xlink:href="#h" transform="matrix(.50414 .38097 -.3971 .56715 576.75 -9.15)"/><use xlink:href="#i" transform="matrix(.76701 .07527 .0657 .8054 131.25 92.85)"/><use xlink:href="#j" transform="matrix(.74487 .18903 .0696 .75836 24.25 39.45)"/><use xlink:href="#k" transform="matrix(.68768 -.01595 .18892 .8092 185.95 167.05)"/><use xlink:href="#l" transform="matrix(.68768 -.01595 .18892 .8092 185.95 167.05)"/><use xlink:href="#m" transform="matrix(.73393 .02307 .14197 .7414 173.85 204.15)"/><use xlink:href="#n" transform="matrix(.64113 .24225 -.1545 .62057 372.8 101.8)"/><use xlink:href="#o" transform="matrix(-.62173 -.11977 -.08882 .7258 1474.65 326.75)"/><use xlink:href="#p" transform="matrix(-.62173 -.11977 -.08882 .7258 1474.65 326.75)"/><use xlink:href="#q" transform="matrix(.62984 .30759 -.32733 .5959 447.95 50.8)"/><use xlink:href="#r" transform="matrix(.62984 .30759 -.32733 .5959 447.95 50.8)"/><use xlink:href="#s" transform="matrix(.31433 .58694 -.50887 .4346 775.75 -154.15)"/><use xlink:href="#t" transform="matrix(-.38434 -.16168 -.19093 .52849 1434.8 467.2)"/><use xlink:href="#u" transform="matrix(.59895 .293 -.31487 .57272 453.4 61.6)"/></svg>