<svg xmlns="http://www.w3.org/2000/svg" xmlns:xlink="http://www.w3.org/1999/xlink" preserveAspectRatio="none" width="760" height="880" viewBox="620 10 760 880"><defs><path fill="#a6ce38" d="M955 467q-.05.05-.05.15 0 1.5.5 3.3.45 1.75 1.25 3.05.85 1.3 1.85 1.35 1.65 0 3.3-.35 1.65-.3 2.95-.7 1.35-.4 2-.65.05 0 .05-.05h.1l1.5.15q1.2.1 2.8.2 1.65.1 3.2.1.1 0 .15.05.05.05.05.15l.35 2.5q.25 1.85.55 4 .35 2.2.6 3.9l.25 2.1q.2 0 .4.05h.4l.1-2.15q.1-1.7.2-3.95.1-2.2.2-4.05l.1-2.5q0-.1.05-.15.05-.05.15-.05 4.55-.35 7.4-3.05 2.8-2.7 3.35-6.65.5-3.95-1.75-8.1v-.1q0-.05.05-.1l1.7-1.7q.2-.2.15-.45-.05-.2-.3-.3l-.9-.3q-.45-.2-1.1-.4l-.2-.1-.35-.25q-.5-.35-1.35-.65-.85-.3-2-.2-2.15.4-3.15 1.9t-1.6 3.2q-.55 1.7-1.45 2.7-.95.95-2.7 2.4-1.8 1.45-3.75 2.95-1.95 1.55-3.5 2.75-1.6 1.2-2.25 1.65-.15.1-.05.2.05.1.2.15.85.2 2.35.45 1.45.2 2.85.4l1.8.2q.45.05.6.3.15.25 0 .45t-.55.2q-2-.2-4.1-.55-2.15-.3-3.9-.75-2.65-.7-4.6-1.45-2-.7-3.75-1.3-.1 0-.15.05z" id="a"/><path fill="#FFF" d="M1336.05 565.75q-10.5-24.45-26.55-45.75t-38.6-39.4q-17.4-7.25-36.3-18.85-18.85-11.6-39.65-28.2-36.35-29.75-62.85-60.15-26.45-30.4-47.6-56.55-21.15-26.15-41.5-43.1-20.35-17-44.4-19.9-1.15-.1-2.4-.2-1.2-.1-2.4-.1-.65-.05-1.25-.05h-1.25q-31.75 1-63.95 20.8-32.2 19.75-68.7 45.8-36.45 26-81 45.75-44.55 19.8-101 20.8-39.35-.4-67.1-7.95-27.7-7.55-52.5-17.55-24.8-9.95-55.4-17.5-30.55-7.6-75.55-8-106.4 3.4-171.1 72.05-64.7 68.65-97.6 161.95-32.9 93.3-44 170.65l-8.15 63.25-1.85 21-.35 13.95q.1 6.8 4.3 11.75 4.15 5 10.9 5.8 2.75.25 5.95-.95 3.25-1.2 5.9-4.45 2.65-3.3 3.8-9.15 3.8-43.1 12.2-83.7 8.45-40.55 17.95-73.6 9.55-33 16.7-53.45l8.3-23.15q1.05-2.85 2.9-5.75 1.8-3 4.2-4.7 2.4-1.7 5.1-.75 3.8 1.55 3.6 4.6-.15 3.05-1.2 7.35-2.85 15.55-5.75 35.9-2.9 20.4-4.9 47.05-2 26.7-2.05 61.2.6 62 14.25 117.8 13.6 55.8 33.1 101.75 19.45 46 37.5 78.55t27.45 48.1q3.2 5.45 8.55 8.5 5.35 3.05 11.7 3.1h130.85q7.4-.15 12.5-4.9t5.75-12.1q.85-19.25 7-49.9 6.15-30.6 21.75-61.95t44.85-52.8q29.3-21.45 76.35-22.35 54.95 1 88.35 24 33.45 23 51.05 56.2 17.6 33.15 25.05 64.65 7.4 31.45 10.35 49.4 1.4 6.45 6.3 10.45 4.85 4 11.5 4.1h129.8q7.45-.2 12.3-5.15 4.9-4.95 5.1-12.45-.15-36.15 4.3-72.1 4.5-35.95 15.3-66.7t29.65-51.35q12.8-13.45 30.35-14.2 17.55-.7 41.15 8.7 3.8 1.5 8 3.05 4.15 1.6 8.6 3.3 2.45.45 4.7.8 2.25.4 4.25.75 13.8 2.35 27.45 4.15 13.65 1.8 27.4 1.85 13.75.05 27.95-2.8 29.75-6.25 54.6-18 24.8-11.8 45.65-29.5 20.8-17.7 38.6-41.7 10.2-13.7 16.35-26.15 6.2-12.45 9.75-25.35 3.55-12.9 5.8-27.9.05-.6.15-1.15l.2-1.15q.1-4.35.35-8.05l.35-4.95q1.8-15.4 1.1-29.1-.75-13.65-2.8-27.25-2.05-13.55-4.35-28.6-3.05-21.3-8.25-40.85-5.2-19.6-12.9-37.5z" id="b"/><path fill="#FFF" d="M1465.55 478.95q.6-5.1-2.05-8.75-2.65-3.65-7.05-5t-9.05.35q-11.4 4.7-26.35 10.75-14.95 6.1-32.7 11.1-21.6 6.05-43.45 7.1-21.85 1.05-45.05-4.4-23.15-5.45-48.8-18.95-3.75-1.45-6.6-2.7-2.85-1.25-4.4-2.15-18.5-10.15-38.7-17.15-20.2-7.05-40.45-10.3-17.7-2.8-33.2-2.9-15.45-.05-30.8 2-15.4 2-32.85 5.6-17.75 3.55-30.25 9.95-12.45 6.4-22.95 15.8-10.5 9.35-22.2 21.9-6.5 6.8-14.45 16.95-7.95 10.1-14.55 21.05-6.55 10.95-8.95 20.2-2.05 8.4-4 16.9-1.95 8.5-3.8 17.1-2.6 11.95-4.95 23.9-2.3 11.95-4.2 23.8-2.6 15.6-5.75 31.55-3.15 16-5.3 32.05-2.15 16.05-1.7 31.9.4 13.8 1.2 25.3.85 11.5 3.85 22.6 2.95 11.05 9.8 23.55l.15.3q10.6 18.95 22.85 32.25 12.25 13.3 27 24 14.75 10.65 32.9 21.7 5.05 3.1 9.8 5.45 4.7 2.35 9.65 4.7 2.85.85 6.35 2.2 3.5 1.4 6.5 2.65t4.25 1.85l1 .4q.7.35 1.7.8 5.75 1.1 12 2.95 6.3 1.9 13.1 4.55 23.55 9.35 57.5 20.85 33.95 11.5 74.75 21.3 40.85 9.75 85.1 13.9 44.25 4.1 88.5-1.3 76.2-10.1 136.55-41.55 60.3-31.45 105.7-82.6 45.4-51.15 76.7-120.35 16.55-36.95 27.35-75.3 10.75-38.4 17.05-74.9 6.25-36.5 9.35-67.9 3.1-31.4 4.35-54.4.2-8.65-4.7-12.55-4.9-3.95-11.45-3.3-6.6.65-11.35 5.7-21.45 24.75-50.15 57.85-28.65 33.1-61.85 62.1t-68.2 41.35q-34.95 12.4-68.9-4.3-12.05-6.7-18.05-19.45-6.05-12.8-7.75-28.55-1.7-15.75-.8-31.4.95-15.65 2.75-28.1z" id="c"/><path fill="#0081c6" d="M1045.3 556q-1.1.05-2 .55-.9.55-1.45 1.45-.55.9-.55 2.05 0 1.1.55 2 .55.9 1.45 1.45.9.5 2 .55 1.15-.05 2.05-.55.9-.55 1.4-1.45.55-.9.55-2 0-1.15-.55-2.05-.5-.9-1.4-1.45-.9-.5-2.05-.55z" id="d"/><path fill="#0081c6" d="M1005.65 543.5h-4.4v2.3q-1.3-1.45-2.75-2.15t-3.1-.7q-1.9 0-3.5.75t-2.85 2.2q-1.25 1.45-1.9 3.3-.6 1.85-.6 4.05 0 2.25.6 4.1.65 1.85 1.9 3.35 1.3 1.5 2.9 2.2 1.6.75 3.55.75 1.55 0 3-.65t2.75-1.95v2.05h4.4v-19.6m-4.1 9.85q0 1.35-.4 2.5-.35 1.15-1.1 2.05-.75.85-1.7 1.25-1 .45-2.2.45-1.1 0-2.05-.45-.95-.45-1.7-1.35-.7-.85-1.05-2-.4-1.15-.4-2.55 0-1.35.4-2.45.35-1.1 1.1-2 .75-.85 1.7-1.3.95-.45 2.05-.45 1.2 0 2.15.45.95.4 1.7 1.3t1.1 2q.4 1.15.4 2.55m-21.2-9.9q-.45.25-1 .7-.5.45-1.1 1.1v-1.75h-4.35v19.6h4.35v-10.15q0-2.8.85-4.2.9-1.4 2.7-1.4.55 0 1.15.25.65.2 1.25.65l2-4.1q-.95-.6-1.85-.9-.9-.3-1.75-.3-.65 0-1.2.15-.55.1-1.05.35m36.25 0q-.45.25-.95.7-.55.5-1.2 1.15v-1.8h-4.3v19.6h4.3V553q0-1.55.25-2.7.2-1.1.6-1.85.45-.7 1.1-1.05.65-.35 1.6-.35 1.45 0 2.15 1.3.75 1.3.75 3.9v10.85h4.35V553q0-1.6.2-2.7.2-1.15.6-1.85.4-.7 1.05-1.05.65-.35 1.55-.35.8 0 1.35.3t.9.9q.35.55.5 1.55.15 1 .15 2.4v10.9h4.35V551q0-4.05-1.55-6.05-1.6-2-4.8-2-1.75 0-3.1.75-1.4.7-2.4 2.15-.95-1.45-2.2-2.15-1.25-.75-2.85-.75-.7 0-1.3.15-.6.1-1.1.35m-96.45.05q-1.25-.55-2.9-.55-1.45 0-2.7.6-1.3.6-2.45 1.75v-1.8h-4.35v19.6h4.35v-9.45q0-1.85.25-3.1.2-1.3.65-2 .45-.75 1.25-1.15.75-.35 1.8-.35 1 0 1.7.3.7.25 1.05.8.4.55.6 1.55.2 1 .2 2.45v10.95h4.35v-12q0-2.1-.4-3.6-.4-1.45-1.2-2.4-.9-1.05-2.2-1.6m-16.9 0h-4.35v19.6h4.35v-19.6m-3.25-5.4q.5.25 1.1.25.55 0 1.05-.25.5-.2.9-.65.45-.4.65-.95.2-.5.2-1.1 0-.65-.2-1.15-.2-.5-.65-.95-.4-.4-.9-.65-.5-.2-1.1-.2-.55 0-1.05.2-.5.25-.95.65-.4.45-.6.95-.2.5-.2 1.1 0 .65.2 1.15.2.55.6.95.45.45.95.65m41.45 5.6q-1.8-.75-3.9-.75-2.05 0-3.85.75-1.8.75-3.25 2.25t-2.15 3.3q-.75 1.8-.75 3.9 0 2.25.7 4.15.75 1.85 2.15 3.35 1.45 1.5 3.2 2.25 1.8.75 3.9.75 2.1 0 3.9-.75 1.85-.75 3.3-2.2 1.45-1.5 2.2-3.35.7-1.85.7-4.05 0-2.15-.7-4-.75-1.85-2.2-3.35-1.45-1.5-3.25-2.25m1.7 9.65q0 1.4-.35 2.55-.4 1.15-1.15 2-.75.85-1.8 1.3-1 .4-2.3.4-1.25 0-2.25-.45-1.05-.4-1.8-1.25-.75-.9-1.15-2.05-.35-1.15-.35-2.6 0-1.4.4-2.5.35-1.1 1.15-1.95.75-.9 1.75-1.35 1.05-.4 2.25-.4 1.3 0 2.3.4 1 .45 1.8 1.35.75.85 1.15 1.95.35 1.15.35 2.6m19.25-9.7q-1.5-.7-3.25-.7-2.05 0-3.65.8-1.65.8-2.9 2.4-1.15 1.5-1.7 3.3-.6 1.85-.6 3.95 0 2.2.65 4.05.6 1.85 1.85 3.3 1.2 1.45 2.8 2.15 1.55.75 3.5.75 1.7 0 3.15-.7 1.5-.7 2.8-2.05v2.75q0 3-1.2 4.55-1.2 1.5-3.55 1.5-1.3 0-2.3-.45-1-.45-1.65-1.4-.3-.35-.5-.95-.2-.55-.35-1.25h-4.35q.2 1.9.9 3.4.75 1.5 2 2.6 1.2 1.05 2.75 1.6t3.45.55q2.25 0 4-.8 1.75-.75 3-2.25.7-.8 1.15-1.75.45-.95.65-2.05.1-.4.15-.9.05-.45.1-1 .05-.5.05-1.1.05-.65.05-1.35v-19.1h-4.35v2.2q-1.2-1.35-2.65-2.05m2.8 9.7q0 1.35-.3 2.45-.35 1.05-1 1.95-.75.9-1.7 1.4-1 .45-2.25.45t-2.2-.45q-1-.45-1.7-1.4-.65-.85-.95-1.95-.35-1.1-.35-2.45t.35-2.45q.3-1.1.95-1.95.7-.95 1.7-1.45.95-.45 2.2-.45 1.15 0 2.1.45.95.4 1.7 1.3.75.85 1.1 2 .35 1.1.35 2.55m-77.55-10.4q-1.4 0-2.65.55-1.3.55-2.45 1.65V534h-4.35v29.1h4.35v-9.5q0-1.8.25-3.05.2-1.3.65-2.05.45-.7 1.25-1.1.85-.35 1.95-.35.9 0 1.55.25t1.05.8q.4.55.6 1.4.2.85.2 2v11.6h4.35v-12q0-2.05-.4-3.55t-1.25-2.45q-.95-1.05-2.2-1.6-1.3-.55-2.9-.55m-19.5.55h-4.35v19.6h4.35v-10.15q0-2.8.9-4.2.9-1.4 2.65-1.4.6 0 1.2.25.6.2 1.25.65l1.95-4.1q-.9-.6-1.8-.9-.9-.3-1.8-.3-.65 0-1.2.15-.55.1-1 .35-.5.25-1 .7-.55.45-1.15 1.1v-1.75z" id="e"/></defs><use xlink:href="#a" transform="matrix(1.90143 0 0 1.90143 -845.05 -309.8)"/><use xlink:href="#b" transform="matrix(.31535 0 0 .31535 698.05 534.8)"/><use xlink:href="#c" transform="matrix(.31535 0 0 .31535 698.05 534.8)"/><use xlink:href="#d" transform="matrix(1.90143 0 0 1.90143 -845.05 -309.8)"/><use xlink:href="#e" transform="matrix(1.90143 0 0 1.90143 -845.05 -309.8)"/></svg>