<svg xmlns="http://www.w3.org/2000/svg" xmlns:xlink="http://www.w3.org/1999/xlink" preserveAspectRatio="none" width="580" height="460" viewBox="675 210 580 460"><defs><g id="a"><path fill="#0081c6" d="M1801.75 495.7h-.05l-.4.15q-.15.1-.2.15 0 .1.1.2l-.2.1.15.15.05.05.15-.2.1-.1.05-.1q.1-.05.2-.15.05-.1.15-.15h-.2l.1-.1m51.55 10.8q.15-.15-.05-.45l.1-.3-.1-.4-.2-.15-.25-.05H1848.4l-.4-.05-12.85-.1-.4.15-.05.1-.1.3.05.15q-.35.1-.45.25-.1.2.05.4-.1.2.05.35.15.2.55.2-.2.25-.05.5.15.25.65.25h1.75q.9 0 1.8-.05 2.55 0 5.05-.05 2.55 0 5.1-.05.75 0 1.5-.05h1.45q.35 0 .55-.2.2-.15.1-.45l.1-.05q.3-.05.45-.25z"/><path fill="#FFF" d="M1849.15 507.9v-.4q-2.55.05-5.1.05-2.5.05-5.05.05-.25 13.2-.15 26.45.15 13.2.2 26.45.05 13.2-.45 26.35V590q.05 2.25.05 5.05.05 2.8-.05 5.35v.7q0 .4-.05.7v1.2l-.05.2v.3q0 .15.05.35v.7q0 .45-.05 1v1.15q-2.1.35-4.2.8-2.15.4-4.2.85l-2.1.4-3.55.65-1.4.2-2.2.4h-.05l-.5.1q-1.25.2-2.55.4-1.25.25-2.55.45l-.3.05q-.15.05-.35.05l-.65.1.05.1h-.05v-.1q-.35.1-.7.15l-.7.1-.45.1q-.25.05-.45.1l-.5.1q.05.25.05.5v.45q.05.25.05.45v2.35q0 1.55.1 3.45v.7q.05.3.05.65.05.35.1.75 0 .35.05.75.3.05.6.05.25.05.55.1.35.05.75.1.35.05.75.1.45.05.95.1.45.05.95.1 2.95.3 5.85.5 2.85.2 5.05.45l3.35.4q2.45.3 5.4.65 2.9.3 5.2.5l1.9.1 1-.1q.15.05.4.1t.5.05q.4 0 .9-.05.55-.05 1.1-.15 4.95-.8 9.5-1.4 4.6-.65 9.25-1.25 4.7-.65 9.75-1.4.3-.05.65-.1.3-.1.6-.15.35-.1.65-.2.3-.05.65-.15 0-.55.05-1.2 0-.65.05-1.4v-.3-.9-.3-.25q.05-1.55.05-3.25.05-1.65 0-2.75l-.05-.3h-.65q-.35-.05-.7-.05l-1.4-.1q-.25-.05-.5-.05l-1.5-.1-6-.5-6-.6q-1.75-.3-3.85-.45-2.05-.15-3.9-.3-.75-.1-1.95-.25-1.15-.2-2.45-.3-.1-.9-.15-1.7-.05-.8-.1-1.25-.05-1.85-.1-3.8 0-1.9-.15-3.8v-.1q.3-22.05.5-44.05.15-22.05.2-44.15m45.55-31.55q.15-1.45.15-3.25 0-.75-.05-1.45 0-.7-.05-1.4h-4.4q-.2 0-.4.05h-.7q-15.7.15-31.4.75t-31.4.8q-1.1 0-2.1.05h-2.7v.6l-.2.25q-.5.5-.95 1-.45.5-.85 1-4.4 5.4-9 10.55-4.55 5.1-8.9 10.4l-.1.1h.2q-.1.05-.15.15-.1.1-.2.15l-.05.1-.1.1-.15.2-.05-.05-.05.05q-.55-.65-1.15-1.25-.55-.6-.9-.8l-.25-.05-.1-.05q-.75.2-.9 1.45-.15 1.25-.05 2.45l.1 1.35v2.1q-.05 1.45.05 2.8.15 1.4.6 1.8v.05h.05l.1.05.35-.05h.6q.2 0 .35-.05h1.5q8.3-.15 16.65-.5 8.3-.35 16.6-.55l.05-.1.4-.15 12.85.1.4.05h.35l.35-.05H1849.95l3.2-.05h1.75q.9 0 1.8-.05 2.15-.05 4.3-.05l4.35-.1H1866.2l.3-.05h1.7q.7-.05 1.4-.05l.4-.4q.2-.25.4-.45.7-.75 1.1-1.25l.35-.4.1-.15.2-.15.2-.2.15-.2.55-.55.55-.55.45-.45 9.6-9.5q4.85-4.75 9.35-9.8.65-.7 1-1.3.3-.6.35-1l.1-.3.15-.6.1-1.15z"/></g><path fill="#0081c6" d="M1059.75 494.75q-2.8.05-5.65 0-2.85-.05-5.5-.45-2.45-.35-4.55-1.15-2.1-.8-4-1.8-3.05-1.7-5.5-4.15-2.45-2.5-4.7-5.45t-4.7-6q-.35-.5-1.3-1.55-.95-1.05-1.95-1.5-1-.45-1.5.95-.3 1.4.7 3.25t2.35 3.5q1.35 1.65 2.15 2.45 3.75 4.05 7.9 7.25 4.1 3.15 8.95 4.95 4 1.4 8.45 1.55 4.45.1 9.25-.4 1.05-.05 1.7-.2.65-.2.65-.75-.1-.4-.7-.5-.65-.1-1.3-.05l-.5.05h-.25z" id="b"/><path fill="#FFF" d="M1717.8 1128.3q.9-9.55 1.05-18.6 0-.3.05-.7.05-.45-.1-.6-.25-.2-.65-.35-.45-.15-.75-.15-1 .1-1.1.6-.1.5-.15 1.45-1.3 12.85-3.25 25.1-1.95 12.25-6.25 23.7t-12.8 21.8q-9.4 11-20.95 19.75-11.5 8.75-23.4 16.9l-1.25.85q-.95.65-1.8 1.25l-1.45 1q-.7.5-1.45.95.35.45.75 1l.55.65.6.8q.35.4.65.8l1 1.35q.85 1 1.5 1.9l1-.7.7-.5q11.55-8.25 23.05-17.35 11.5-9.15 21.05-20 9.55-10.8 15.25-24.2 3.45-8.45 5.4-17.8 1.9-9.35 2.75-18.9z" id="c"/><path fill="#FFF" d="M863.2 510.3q6.3-4.05-1.75-13.95-8.05-9.85-24.4-21.4-16.4-11.55-35.05-20.6t-33.6-11.4q-11.55-1.6-25.7-.5-14.15 1.1-27.6 4.5-13.45 3.35-23.05 8.55-9.55 5.25-12.1 11.95l-5.3 20.8q-3.9 16.45-8.35 38.1-4.45 21.65-7.6 41.75-3.15 20.05-3.15 31.7.4 12.65 8.35 35.35 7.95 22.7 21 48.6 13.05 25.9 28.75 48.05t31.6 33.55l2.5.75 5.45.75q7 .75 17.3-.35 10.35-1.1 21.5-6 4.95-2.35 11.7-8.05 6.75-5.7 13.35-12.8 6.6-7.05 11.1-13.55 4.45-6.45 4.85-10.35l-1.75-6-4.8-10.75q-6.4-13.15-14.6-30.65t-13.8-34.25q-5.65-16.8-4.3-27.7 2.05-11.55 10-26.15 8-14.55 18.9-29 10.9-14.45 21.75-25.5 10.9-11 18.8-15.45m-93.7 201.8q9.2-4.25 18.8-5.55 2.9-.45 8.85-.5 5.9-.1 10.95 1.2 5.05 1.35 5.5 5-.9 1.2-2.25.8-1.35-.35-2.1-.65-10.6-2.25-23.4-.4-12.8 1.85-23 8.55-10.2 6.7-13 18.95l.1 2.95q.15 2.6-.35 5.35-.5 2.8-2.25 3.6-1.6-.75-1.95-2.35-.4-1.6-.25-3.4.1-1.85-.05-3.3.25-.4.25-.95l-.05-.65q1.8-10 8.4-17.2 6.6-7.15 15.8-11.45z" id="d"/><path fill="#0081c6" d="M960.25 533.9l-.25.75-.35-.25-.4.1-.25.35v.25l.1.2.55.8-1.95 7.25.05.45.35.25.45-.05.15-.15.1-.2 1.7-6.3 71.95 109 9.95 16.15 29.35 61.4 1.4 2.3v.05l.05.05 1.7 1.95 2 1.65 4.55 2.4 4.9 1.5 5.1.8 5.1.1 19.7-3.15 4.85-1.25 7-2.6v-.05h.05l6.8-4.1 6.1-5.1 5.35-5.95 1.55-2.15 2.7-4.6.95-2.5v-.05l.05-.05.7-5.35-.4-26.9-4-40.1v-.05l-17.65-61.4-15.4-47.5-15.25-38.35-10.3-19.55-16.05-24.8-6.4-8.65-5.8-5.6-6.7-4.55v-.05h-.05l-2.65-1.1-2.85-.4-5.7.45-8.05 2.4-7.7 3.45-19 11.7-17.35 14.05-7.9 7.95-3.55 4.3h-.05l-4.2 7.1-3.15 7.65-6.05 21.05-5.9 35z" id="e"/><path fill="#FFF" d="M902.45 582.95l9.1 6.45q5.7 4.3 17.1 14.7 5.85 5.4 14.1 13.6 8.2 8.15 16.5 16.65 8.3 8.5 14.45 14.95l14.65 16.4q5.25 5.95 11.8 13.5 6.55 7.55 12.1 14.5 5.6 6.95 7.85 11.1 2.95 5.35 8.25 14.1t10.15 17.2q4.9 8.4 6.5 12.8 1.3 3.25 6.6 3.15 5.35-.05 12.55-2.1 7.2-2 14.2-4.55 7-2.6 11.65-4.35 8.8-3.25 17.25-7.55 8.4-4.3 14.1-7.85l4.45-2.9 1.9-1.65q4.6-9.65 7.85-25.45 3.2-15.85 4.9-32.95 1.7-17.15 1.65-30.7 0-13.55-1.85-18.65-3.55-8.7-11.15-22.2-7.6-13.5-17.45-28.1-9.85-14.65-20.15-26.9-10.3-12.2-19.25-18.45-9.75-6.6-22.05-14.15-12.35-7.55-25.85-14.1-13.5-6.55-26.75-10.1-13.2-3.55-24.65-2.1-14.5 2.55-27.4 15.65-12.9 13.1-22.8 30.4-9.9 17.35-15.45 32.6-5.55 15.2-5.4 22.05l.05 4.15.5.85z" id="f"/><path fill="#FFF" d="M743.05 735.4l2.4 26.55 5.3 56.55q3.05 32.05 5.35 56.5l2.45 26.15q5.05 6.6 16.15 10.9 11.1 4.3 25.05 5.7 13.95 1.45 27.6-.6 13.6-2.05 23.65-8.2l3.25-9.65q3-9.1 7.2-23.65 4.15-14.5 7.8-31.1 2.85-13.5 5.4-29.85 2.55-16.4 4.55-31.55 2-15.2 3.15-25.05l1.2-10.35q-7.5-13.75-26.7-18.75-19.15-5.05-42.45-4.3-23.25.7-43 4.1-19.75 3.45-28.35 6.6z" id="g"/><path fill="#0081c6" d="M943.65 840.8q-1.05-2.05-1.45-3.45-.75-2.75-1.15-5.5-.35-2.8-.9-5.5l-.5-1.5-.55-.4q-.6.1-1.05 1.35-.4 1.2-.4 2.45.15 3.15 1.1 7.5.95 4.35 3.1 7.95 2.1 3.6 5.8 4.45 3.45.45 5.8-2.6 2.35-3 3.65-7.05 1.3-4.05 1.65-6.75.15-1 .2-2.9.05-1.9-.25-3.6-.3-1.75-1.25-2.3l-.2-.05q-.15 0-.2.05-.35.35-.45.85l-.15.7q-.25 1.9-.3 3.9 0 2-.35 3.95-.3 1.7-1.15 4.5-.85 2.8-2.15 5.3-1.3 2.45-3 3.1-1.75.45-3.3-.95-1.5-1.45-2.55-3.5z" id="h"/><path fill="#FFF" d="M923.4 167.5q-7.3 4.55-12.05 9.45l-3.75 4.25-1.65 2.85-.5 2.95-.15 4.9q0 5.8.3 12.55.3 6.75.65 11.65l.35 5.15 3.1.4q2.9.45 5.9.75l2.3.15 1.1-.1q6.6-9.4 10.15-14.5 3.55-5.1 5.2-8.2 1.65-3.1 2.5-6.45 1-3.95 1.75-11 .8-7.05.95-13.2l-.1-4.9-.55-2.4q-8.2 1.15-15.5 5.7z" id="i"/><path fill="#FFF" d="M849.85 162.55l-1.6-2.25q-9.45 6.35-16.05 16.6-6.6 10.3-10.05 19.9-3.45 9.65-3.4 13.95.35 2.7 3.35 8.4 3 5.75 6.9 12.05 3.85 6.35 6.8 10.85l3.05 4.7 3.85-1.85q3.6-1.65 7.2-3.5l2.8-1.55 1.2-.9q2.9-13.8 3.9-23.65.95-9.85.75-15.95-.25-6.05-.95-8.65-.75-3-2.4-9.95-1.65-6.95-3.55-13.25l-1.8-4.95z" id="j"/><path fill="#FFF" d="M661.65 767.35l-12.75-1.2q-1.6 0-2.6 1.1-1.05 1.1-1.1 2.55-.05 1.5 1.3 2.7l2.6 1.4 5.45 2.2q6.9 2.6 18.4 4.6 11.45 2 26.2 1.2 14.7-.75 31.5-6.45 11.65-4.35 21.95-12.65 10.35-8.3 18.3-17.35 8-9.05 12.6-15.55l4.8-7.25-1.05-1.4-2.9-2.8q-3.8-3.5-8.4-7.55-4.65-4-7.35-6.3-2.1 3.35-7.35 10.9Q756 723 748.5 732q-7.45 9.05-16.15 16.9-8.75 7.85-17.75 11.9-13.4 5.4-27.85 6.4-14.4 1-25.1.15z" id="k"/><path fill="#0081c6" d="M1065.35 476.45q-4.7-4.8-10.2-9.3-5.25-4.85-11.3-9.3-6-4.5-12.8-8.55l-.4-.6q-.2-.25-.4-.45-.45-.1-.8-.15-.35-.05-.6-.05l-2.65-1.4q-1.5-.8-2.65-1.45-.55-.35-1.1-.25-.55.15-.15 1.05l.55.45 1.4.95q1.85 1.25 4.5 3l.25.7q.1.4.25.85 2.75 8.15 6.25 16.05 3.45 7.95 6.35 16.05 5.6 17.2 7.45 34.5 1.85 17.3 3.35 34.5 1.55 17.25 6.15 34.15 5.65 20 5.8 40.05.1 20.1-4.5 39.8-4.55 19.65-13 38.4l-1.65 2.95q-1.4 2.45-3.1 5.95-1.75 3.5-2.85 7.05-.6.85-1.1 1.65-.45.85-.6 1.6.25.05.5.05l.5-.1q-.2 1.65 0 3.05.2 1.35 1 2.3-.5.8-.9 1.5-.35.75-.45 1.35.95 0 1.9-.95.9-.95 1.25-1.4 11.7-12.15 21.2-29.6 9.55-17.5 16.35-37.45 6.75-20 10.2-39.6 2.35-8.25 3.9-17.1 1.6-8.9 2.35-17.95 1.55-8.65 2.25-17.45.7-8.75.35-16.05-.05-1.25-.15-2.55-.1-1.3-.25-2.7-.65-9.8-3.75-21.55-3.1-11.7-8.25-22.8-5.15-11.15-11.8-19.2-3.95-5.15-8.65-10m-17.4 239.45q2.55-2.9 4.85-5.9-.9 1.3-1.85 2.6-.95 1.35-1.95 2.7-.45.45-1.4 1.6-.95 1.1-.95 2.2.15.05.4.1h.3q.1 0 .25-.15.15-.1.35-.3l.05.1.3.05q-1.1 1.5-2.2 3.05l-2.2 3q-.4.5-1.45 1.7-1.05 1.15-2.15 2.6-.25-1.35-.05-2.85t.7-2.95q.6-.5 1-1l.7-.7q2.75-2.9 5.3-5.85m32.7-63.1q-.528 1.736-1.1 3.45l1.05-3.4q.528-1.736 1.05-3.5-.475 1.75-1 3.45m-181.7 133.4l1.75.3q2.05.3 4.1.45 2.1.2 4.15.25-.2.35.25.55.45.2 1.45.35.4.05.75.1.4.05.85.1-1 .1-2 .15-1 .1-2 .15l-1.65.1q-1.25.1-2.25.55-.1 0-.3.2-.2.15-.2.3.25 1 1 1.1.75.1 1.75.05 11.55-.45 22.45-2.1 10.95-1.65 22.3-3.95.7-.1 2.35-.5 1.65-.4 2.5-1.25 0-.3-.25-.4-.2-.1-.35-.1l-.35-.05q-.35 0-.8.05-.4-.1-.85-.05-.45.05-.7.05-8.35 0-16.7.9-8.3.9-16.65 1.55-8.3.65-16.6-.2l-1.65-.2q-1.25-.15-2.35 0l-.65.75-.05.45.7.35m41.9-1.15q.2-.05.4-.15.2-.05.35-.15.4 0 .8-.05l.75-.05q-.4.05-.65.1t-.45.1l-.6.1-.6.1M746.95 525.2l-.3-2.3q-.3-1.75-.9-3.1-.25-.25-.55-.2-.3 0-.5.3l-.2 1-.1 2.05q-.05 2.5 0 5.25v3.7q-.4 8.85.15 16.75.6 7.9 1.65 15.65 1.05 7.8 2.05 16.25.65 5.45 1.6 11.1.95 5.65 1.85 11.35.05.65.15 1.25.1.6.2 1.15.4 2.55.65 5.1.3 2.5.5 4.95-.1.9-.1 1.85-.05.95.05 1.8 0 .6-.05 1.2 0 .65.1 1.3-1.2 4.65-2.2 9.3-1 4.65-1.7 9.25-1.9 10.9-4.2 21.75-2.35 10.9-3.25 21.85-.65 9.75.65 17t4.35 14q3.1 6.75 7.85 14.85.15.25.4.8t.6 1.25q0 .25.05.55.05.25.2.5l.25-.05q.45.8.95 1.45.55.7 1.1 1 .3-.15.3-.5v-.55q0-.45-.15-1.1-.2-.6-.55-1.35 1.3-1.6 2-3.7l.8-2.7q1.4-6.35 2.6-13.05 1.15-6.65 2.15-13.05 2.5-15.4 4.95-31.25 2.45-15.8 3.95-31.3 1.1-13.05-1.05-26.6-2.2-13.55-6.85-26.7.05-.6 0-1.15 0-.55-.15-1-.15 0-.3-.1-.2-.1-.25-.05l-.1.05q-3.2-8.7-7.25-16.85-4-8.15-8.55-15.45l-1.1-1.65q-.9-1.3-1.7-2.4 0-.1-.2-.2-.2-.05-.35 0 .2-4.7.4-9.45.25-4.75.1-9.8z" id="l"/><g id="m"><path fill="#FFF" d="M955.75 420.8q-32.35 1.95-74.45 4.9-42.1 3-73.95 5.35l-33.55 2.45-6.15 9q-5.85 8.75-12.75 23.3t-10.45 32.15q-3.25 18 .4 46.1 3.6 28.05 13.25 66.4-.8 6.15-2.9 18.9-2.15 12.8-4.45 27.5-2.35 14.75-3.8 26.75-1.45 12.05-.9 16.6.9 6.2 4.65 17 3.8 10.75 10.3 22.85 6.5 12.15 15.7 22.35 9.15 10.25 20.95 15.4 14.6 5.8 36.3 8.2 21.75 2.35 46.25 2.2 24.5-.2 47.4-2.1 22.9-1.9 39.9-4.7 20.25-3.4 35.8-13.2 15.5-9.75 27.6-24.6 12.1-14.8 22.1-33.25 5.6-10.1 11-23.3 5.45-13.15 10.15-28.2 4.7-15.1 8.05-30.9 3.5-16.85 5.25-33.15 1.7-16.25 1.8-30.6.1-14.35-1.4-25.35-4.1-26.05-18.75-47.6t-32.4-37.35q-17.7-15.8-31.05-24.7l-14.95-9.75h-10.05l-24.9 1.35z"/><path fill="#0081c6" d="M1027.1 329.9q-1.45 1-1.4 3 .1 2 .4 3.7-1.25.65-1.3 3-.1 2.3.25 4.5l.4 2.4q.5 5 .3 10.2-.25 5.2.6 10.6 1.2 7 .5 15.15-.65 8.15-2.75 16-2.15 7.85-5.3 13.9l-.95 1.8-.3.9.5.35 1.4.1q.95-.9 1.75-2.25l1-1.8q1.2-2.6 2.2-5.4 1-2.75 2.4-4.8 1.95-2.7 3.15-7.35 1.25-4.65 1.7-9.55.5-4.95.1-8.6-.15-1.5-.2-3-.05-1.5 0-3.05.6-2.8.6-5.4 0-2.65-.2-5.85-.2-4-.1-7.35.05-3.35.25-7.15l.1-2.05q.05-1.75-.3-3.55-.3-1.85-1.35-2.55-.2.05-.35.15-.15.05-.3.15-.25-2.2-.65-3.65-.35-1.5-.9-1.95-.15-.15-.5-.35-.35-.2-.75-.25z"/></g><path fill="#0081c6" d="M1051.6 302.65q-.5-1.15-1.7-1.2-1.2-.1-2.5.3-1.35.4-2.35.75-3.4 1.1-4.6 4.7-1.15 3.6-1.15 7.95 0 4.3.05 7.55-.1 5.4-.35 10.5-.25 5.1 0 10.55.6 10.65.5 21-.05 10.3-.45 20.95-.05 1.6 0 4.65.05 3.05.35 6.4-.2.05-.35.1-.2.1-.45.2l-.25.4q-.2.35-.6.6l-1 .7-.55.5q-.25.35-.3 1.05-.35.9-.5 1.85-.15.9-.25 1.45-.15.55-.3 1.15-.2.6-.45 1.1l-.15.5q-.15.35-.25.65-1.4-.4-2.45 1.35-1 1.75-1.6 3.75l-.65 2.2q-.6 1-1.5 1.7t-1.9 2.5q-1.05 2.15-2 3.95-1 1.8-1.95 3.5.5-1.75.45-3.2-.1-1.5-1.1-2.3-.75.55-1.35 1.75-.65 1.2-1.1 2.4-.4 1.15-.65 1.65-1.1 2.25-3.55 6.4-2.4 4.15-5 7.95-2.65 3.85-4.4 5.15l-.7.1q-.65.1-1 .5-.3.1-.25.4l.05.35q0 .15.35.3l.3.25q-.4 1.05-1.5 2.35-1.05 1.3-2.4 2.75-9 1.2-18.5 2.7-9.5 1.5-18.85 3.65-9.35 2.2-17.8 5.5-6.75 2.65-13.5 5.15-6.8 2.5-13.5 5.05l-2.1 1.05q-1.55.85-2.65 1.95-.05.25 0 .55 0 .25.1.5-.3.2-.25.5.1.25.35.55 2.5 2.7 9.3 4.05 6.8 1.4 14 1.85 7.2.5 10.9.6 16.4.45 30.7-4.6t27.05-14q3.85-2.15 7.3-4.7 3.45-2.55 6.6-5.8 5.8-5.45 10.25-12.85 4.4-7.4 7.85-17.5.2-.35.35-.7l.4-.7q5.25-9.95 8.65-22.45 3.45-12.45 5.45-25.5 2-13 3.1-24.6.15-1.15.4-3.2.2-2 .15-3.6.25-5.45-.05-10.75-.3-5.25-.85-11-.2-3.15-.55-7.15-.35-4-.95-7.9-.65-3.9-1.85-6.75z" id="n"/><g id="o"><path fill="#0081c6" d="M980.9 222.3l.4-1.3q.25-.95.1-1.7-.5-.4-.7 0-.2.45-.35 1.05-1.15 3.7-2.65 7.25-1.5 3.6-3.35 6.95-2.1 3.95-4.55 7.6-2.45 3.7-5.25 7.1-.3.3-.95 1-.7.75-.9 1.45l.15.1q-.35.3-.55.6-.25.35-.3.7.3.3.7.15.4-.15.65-.35 2.45-1.45 5.3-4.45 2.85-3.05 5.5-6.45 2.6-3.4 4.2-5.85.15-.2.45-.65.3-.5.6-1.05.2-.35.3-.75.1-.35.05-.7-.45-.25-.75.15t-.5.8q-.15.2-.25.4l-.3.4q.35-.85.45-1.65.05-.8-.35-1.4-.35-.2-.6-.1t-.45.4q1.2-2.5 2.2-4.95.95-2.45 1.7-4.75m-14.3 26.2l.25-.3h.05l-.3.3z"/><path fill="#FFF" d="M966.85 248.2l-.25.3.3-.3h-.05m45.6-63.95q-2.9 1.1-4.65 4.1-5.3 9.6-9.85 17.75-4.5 8.15-9 15.15-4.45 7-9.55 13.2-.3.55-.6 1.05-.3.45-.45.65-1.6 2.45-4.2 5.85-2.65 3.4-5.5 6.45-2.85 3-5.3 4.45-.25.2-.65.35-.4.15-.7-.15.05-.35.3-.7.2-.3.55-.6l-.15-.1q.2-.7.9-1.45.65-.7.95-1 2.8-3.4 5.25-7.1 2.45-3.65 4.55-7.6-2.9-1.1-7.15-2.85t-9-3.85q-4.7-2.1-9-4.3-6.95-3.95-20.9-7.25-14-3.3-33.35-1.7-19.3 1.55-42.4 12.4-11.7 5.9-19.2 12.5-7.55 6.6-11.4 11.85l-4.65 6.95q-4.35 8.75-9.45 26.95t-9.7 38.5q-4.6 20.25-7.4 35.15l-2.1 11.7-.5 5.35 1.2 3.65 3.1 6.75q4.05 8.25 13.25 21.1 9.2 12.85 25.1 28.85 13.95 13.5 28.95 22.25 15 8.7 28.05 13.55 13.05 4.85 21.2 6.75 22 5.1 41.9 2.45 19.95-2.6 34.85-9.1 14.9-6.45 21.9-12.9 14.8-13.7 24-35.6 9.2-21.9 13.1-48.4 3.85-26.55 2.6-54.2-1.8-34.2-6.7-61.8-4.9-27.65-10.2-46.15-5.35-18.5-8.3-25.3-1.35-2.95-4.1-3.85-2.75-.9-5.6.25z"/></g><path fill="#FFF" d="M789.2 341.6q-3.4 5.75-11.45 18.2-8.05 12.45-17.8 27.65t-18.3 29.35q-8.55 14.1-12.85 23.2l49.1 7.45q46.65 6.55 107.9 14.7 61.2 8.1 107.35 13.7l35 3.95 12.65.65-7.8-9.85q-5.8-7.2-13.15-15.8-7.35-8.55-13.8-15.45-6.5-6.85-9.8-8.9l-35.8-15.85q-31.25-13.5-70.8-30.35-39.6-16.85-69.25-29.4l-31.2-13.25z" id="p"/><path fill="#0081c6" d="M840.25 295.25q-.35.05-.6.4-.25.3-.35.8-.05.25-.1.6l-.1.7q-.05.65-.05 1.4v1.3q.05 4.3.35 6.75.3 2.5.9 4.75 1.2 4.9 3.35 8.6 2.2 3.7 5.85 4.8.65.25 1.35.25.7 0 1.15-.1 3.2-.85 5.8-3.55 2.55-2.65 4.2-6.4 1.65-3.7 2.2-7.55l.1-.7q.1-.55.1-1.2.2-1 .15-1.8-.05-.85-.4-1.4-.45.15-.65.7-.15.55-.2.8-1.2 4.15-2.2 7.35-.95 3.25-2.75 5.6-1.75 2.35-5.45 3.85-2.65.85-4.95-2.1-2.3-3-3.9-7.55-1.6-4.6-2.2-8.45l-.4-1.8-.3-1.9q-.15-1.3-.35-2.3-.25-.95-.55-1.85z" id="q"/><path fill="#FFF" d="M915.85 293.65q-.95-9.75-6.65-17.4-5.7-7.65-18.65-10.15-13.2-1.9-21.3 3.85-8.15 5.75-12.65 14.6-4.45 8.8-6.65 16.15 8.9 1.05 20.1 2.9 11.2 1.85 23 4.1 11.75 2.2 22.35 4.35 1.35-8.7.45-18.4z" id="r"/><path fill="#0081c6" d="M1055.45 790.65l-.15.85q-.05.35-.15.65-4.4 18.4-8.15 35.75-3.8 17.4-7.4 34.8-3.6 17.4-7.45 35.85-.25 1.2-.15 2.15t.45 1.65q-1.6.85-3.2 1.6-1.55.75-3.05 1.4-2.55.8-5.1 1.5t-5.2 1.25l-3.75.5q-3.2.45-6.15 1.5t-2.9 2.9q.25.3.6.35.4.05.8-.05.25.15.55.25.3.1.55.15l2.9-.15 4.6-.95q5.4-1.4 10.85-3.25 5.4-1.85 7.4-3 .55-.3 1.8-1.1 1.25-.75 2.15-1.7.55-.3 1-1.05.45-.7.7-1.9 4.1-18.25 7.85-35.6 3.75-17.4 7.4-34.8 3.65-17.4 7.45-35.65l.15-.95q.1-.9.15-2.15 0-.2.05-.4t.05-.35h-.1q-.35.1-.7.15l-.7.1q-.8.05-1.6 0t-1.55-.3z" id="s"/><path fill="#FFF" d="M899.05 742.6q2.25 9.75 5.6 24.35 3.3 14.55 6.6 29.5t5.5 25.85q1.9 9 5.65 21.75 3.8 12.7 7.95 25.25t7.1 21l3.15 8.95q10.15 5.85 23.3 8.7 13.15 2.85 26.65 3.05 13.55.2 24.85-1.85 11.35-2.1 17.9-6.15l1.75-7.8q1.75-7.4 4.45-19.4 2.75-11.95 5.85-26.1 3.05-14.2 5.8-28.15 4.05-20.55 6.9-35.15 2.8-14.6 4.3-22.55l1.45-8.5q-8.7-2.95-30.9-8.65-22.15-5.7-49.35-10.95-27.2-5.3-51-6.9-23.8-1.65-35.85 3.5l2.35 10.25z" id="t"/><path fill="#0081c6" d="M938.3 828.5q.2 3.1 1.2 6.95 1 3.8 2.75 6.95 1.7 3.15 4.05 4.3 4 1.55 6.85-1.1 2.85-2.65 4.45-7.45 1.6-4.75 1.75-9.5.05-1.1-.1-2.65-.15-1.55-.85-1.55-.15.3-.3.65l-.15.5q-.6 2-.85 4.2-.3 2.15-.8 4.3-1.15 4.45-3.3 7.15t-4.75 2.35q-2.55-.35-4.9-4.95-1.2-2.6-1.95-5.7-.8-3.05-1.8-5.85-.6-1.4-1-.55-.35.8-.3 1.95z" id="u"/><path fill="#A6CE38" d="M957.25 636.4l-56.85-.25 27.95 211.35 28.9-211.1z" id="v"/><path fill="#AED044" d="M1147.65 561.4l-4.15-4.25q-8.75-8.85-18.65-17.45-9.9-8.65-20.8-15.8 1.45 2.35 2.75 4.5 1.25 2.15 2.35 4.05l1.15 1.85q.9 1.45 1.35 2.75.05.3 0 .65-.05.35-.1.5-1.6 2.55-3.3 1.75-1.7-.8-2.9-2.75-.35-.6-.7-1.15-.4-.6-.75-1.2-1.95-1.4-3.65-4t-2.6-3.9q-2.3-2.8-4.5-5.7l-4.5-5.8q-.95-.45-1.95-.9-1-.4-2.05-.8-1-.4-1.75-.9-.75-.45-1.25-.95-2-.95-2.7-2.1-.75-1.15-.25-2.1v-.3q0-.15.05-.3.15-.55.5-.9.3-.35.85-.6l.2-.1q.1-.05.25-.1-.7-.75-2-1.8-1.3-1.1-2.8-2.35-2.65 3.7-4.9 3.5-2.25-.2-1-4.3.3-.85.7-1.75.35-.9.8-1.75l-.05-.05q-.75-.2-1.1-.85-.35-.6-.2-1.6-.6-.3-1.25-.55-.6-.25-1.25-.5-4.65-2.2-3.3-4.35 1.35-2.2 6.2-.7.55.25 1.15.5.55.25 1.1.55 2.65-3.95 5.1-7.95 2.45-4.05 4.4-8.3l.45-.95q.3-.75.65-1.7-7.35-.85-14.55.85-7.2 1.7-14.2 2.95.75 1.4.3 2.35-.45 1-1.8 1.25 2 2.5.35 3.7l-2.35.3-4-1.45q-3.35-1.75-5.95-2.75-2.55-1-5-1.55l-.35-.1q-1.2-.3-2.55-.55-1.35-.2-2.85-.45l-.7-.1-3.9-.6-.1-.05-.85-.1q-.15 0-.35-.05-.15 0-.35-.05h-.2q-1.2-.1-2.35-.2-1.15-.1-2.25-.2l-.45-.05q3.95 11.65 10.5 22.05 6.6 10.4 15.1 19.95l-.2.25q.35 1.7 2 3.05 1.7 1.3 3.15 2.1 1.2 1.35 2.5 2.65 1.25 1.3 2.55 2.6.6.75 1.75 1.85 1.2 1.1 2.55.7.1-.2.15-.4l.1-.4q21.5 15.95 43.25 29.65 21.7 13.65 47.35 25.7 1 .5 3.15 1.7 2.1 1.2 4.2 2.2 1.55 2.45 3 4 1.5 1.6 2.85 2.15.65.35 1.4.5.75.2 1.45-.6.25-2.4-1.65-5.25t-2.75-4q-2.25-3.95-4.3-8.2-2-4.25-3.9-8.8-.4-.55-.75-.95-.3-.4-.55-.65-2-2.05-4.05-4.1m158.8-233.75q.1-1.3-.1-2.7-.2-1.4-2.1-1.3-1.7 1-2.85 3.2-1.15 2.15-1.8 4.1-1.15 1.3-2.05 2.35-.9 1.1-1.3 1.55-6.15 5.95-13.4 10.85-7.25 4.9-15.25 8.6-12.05 3.4-21.4 4.9-9.3 1.5-17.75.95-29.7-6.55-54.25-21.65-24.55-15.1-48.05-32.6-.55-.4-1.1-.85-.5-.45-1-.7-10.65-9.6-21.65-18.7-11.05-9.1-22.75-17.35-4.7-3.85-9.45-7.3-4.75-3.5-9.45-6.6-8.85-6.15-21.2-8.55-12.3-2.35-22.6 7.1-1.65 1.55-3.35 3.5l-2.2 2.55q-15.7 22.25-17.85 50.75-2.15 28.55 2.45 57.55 4.6 29.05 9.15 52.7.75 4.4 2.35 13 1.55 8.6 3.8 17.85 2.2 9.3 4.75 15.65h.7q.6 0 1.25.05h1.25l1 .05q.55.05 1.05.1l1.25.05 1.5.1q.75.1 1.5.15 1.55.15 3.05.3 1.55.2 3.05.4h.25q2.35.3 4.55.65 2.2.35 4.15.75 8.65-3.15 21.1-5.35 12.45-2.2 19.4-2.05l2.4.25q1.8.25 3.25.7.4.35.9.65l.6.4q.2.2.35.4.15.2.25.4.85-.2 1.55.35.75.55 1.15 2.1l-.75 4.55-2.9 7.05q-4.05 8.3-8.15 15.5 3.3 2.65 6.4 5.95 3.15 3.25 6.05 6.9 10.75 3.15 21.7 9.1 11 6 21.1 13.45 1.9 1.45 3.7 2.85 1.85 1.45 3.65 2.9-4.95-18.2-8.55-36.55-3.6-18.3-6.3-34.5-.3-1.65-.65-5.35-.4-3.65-.85-8.35-1.9-.75-3.75-1.5-1.8-.7-3.5-1.45-9.2-4-17.35-9.35-8.1-5.3-17.9-13.75l-1.35-.9-2.7-2.25q-3.5-2.85-3-5.95.1-.15.2-.25l.2-.3q1.45-1.45 2.9-.65 1.45.75 2.9 2.05 9.1 7.45 17.15 13.95 8.05 6.5 18.55 11.5 1.4.65 2.9 1.25 1.45.65 3 1.2.2.1.5.2l.65.2q1.05.35 2.6.85 1.6.5 3.5 1.15 4.35 1.05 8.75 1.75t8.9 1.15q2.9-1.75 5.45-4.15 2.5-2.4 4.55-5.35 7.4-11.1 7.15-23.85-.2-12.7-10.6-19.05-2.25-.8-6.35-2-4.15-1.2-3.9-4.9.9-1.4 2.3-1.4 1.45.05 2.45.25 12.1 1.7 17.2 10.2 5.1 8.45 4.4 19.65-.75 11.2-6.15 21.15-1.6 2.85-3.55 5.35-1.95 2.5-4.2 4.6 14.7.35 29.45-2.45 14.8-2.8 28.95-8.6-2.15-1.9.15-3 2.25-1.15 4.55-1.5 4.95-1.2 8.25-5.35 3.3-4.15 4.6-9.5 1.05-4.3.6-8.25-.5-3.95-2.65-6.6-1.35-1.05-4.1-2.8-2.75-1.75-1.15-4.6 6.95-1.55 10.45 3.95 3.45 5.45 3.05 13.9v.15q-.2 2.55-1.55 6.45-1.35 3.95-3.7 8.05 12.85-7.4 24.15-17.35 11.3-10 20.5-22.4 6-8.1 12.25-19.05 6.25-10.9 10.5-22.35 4.25-11.4 4.25-20.9z" id="w"/><path fill="#A6CE38" d="M1072.2 375.55l-4.05-17.8q-26-12.55-57.2-16.7-31.2-4.15-54.1-4l-24 .5-6.8 14.25q-6.4 13.4-13.6 28.5-7.2 15.05-10.05 21.15l180.85 23.65-3.85-17.3q-3.6-16.05-7.2-32.25z" id="x"/><path fill="#A6CE38" d="M1001.3 267.15q-15.6 1.8-25.15 7.4-9.55 5.55-13.9 10.55-4.6 5.15-13 19.85-8.4 14.7-15.2 28.7l-5.1 11.25-1.65 5.8q1.5 5.7 11.65 11.85 10.1 6.15 24.4 11.1 14.25 4.9 28.2 6.9 16.55 2.1 33.15.8 16.55-1.3 28.7-5.5 12.15-4.25 15.35-10.85l-1.4-28.15q-1.5-20.5-7.7-40.2-6.2-19.7-20.15-25-22.55-6.3-38.2-4.5z" id="y"/><path fill="#A6CE38" d="M1099.4 333.3q11.45-10.2 19.2-22.3l-3.55-2.1-10.1-4.2q-13.4-5.25-36.75-7.1l2.95 10.5q3.05 9.8 6.7 21.3 3.65 11.5 5.55 17.3l16-13.4z" id="z"/><path fill="#A6CE38" d="M793 728.5l11.5 6.7q11.3 6.35 30.65 14.8 19.35 8.4 43.85 15l10.25-22.7q9.2-21.4 21.05-49.5 11.85-28.05 20.8-49.35l9.4-22.45-25.4-11.05L793 728.5z" id="A"/><path fill="#A6CE38" d="M925.95 432.95l-24.45 3.1-9.45 2.05q-2 9.35-5 29.7-3 20.4-7.65 47t-11.6 54.6q-8.4 37.55-26.8 76.8-18.4 39.2-59.2 75l12.6 1.85 23.35-2.45q28.75-4.55 70.05-17.05t86.3-32.35q52.95-24 83.6-48.35 30.65-24.3 44.3-48.7 13.65-24.4 15.6-48.55 2.15-25.45-.45-50.4-2.6-25-6.1-41.95l-4.2-18.1-33.5 2.9q-31.8 2.95-73.65 7.1-41.85 4.15-73.75 7.8z" id="B"/><path fill="#0081c6" d="M1010.55 296.3q-.2-.05-.3 0-2.05 2.15-.05 8.2 1.95 6.1 3.55 8.8 5.35 8.9 8.9 6.8 3.6-2.05 5.2-10.65l.55-3.3q.35-2.9-.85-4.3-.3-.1-.6 0-.25.15-.4.3l-1.2 4.65q-.75 3.9-1.3 5.55-.2.65-.95 2.15-.8 1.55-1.7 2.25-.15 0-.3-.1l-.2-.15q-2.35-1.4-4.8-7.55-2.45-6.15-3.35-8.95l-.55-1.65q-.45-1.2-1.25-2-.2 0-.4-.05z" id="C"/><path fill="#A6CE38" d="M1032.8 313.4l-.75-4.85q-.85-4.45-3.65-8.95-2.8-4.45-8.5-4.7-6.65.35-9.9 5.9-3.25 5.5-3.9 12.4l26.7.2z" id="D"/><path fill="#AED044" d="M1380 232.2l-2.1-4.65q-1.7-3.5-3.45-6.4-7.2-12.15-19.65-15.3-12.5-3.2-26.35-.8-13.85 2.4-25.15 7-9.25 3.65-18.75 7.95-9.55 4.3-19.25 9.1-23.25 10-45.95 21.55-22.65 11.5-44.95 24-.95.3-2.05.85-1.1.55-2.2 1.05-47.3 21.55-95 39.1T976.2 335.8q-13.85-1.3-28-6.1-14.2-4.8-31.7-13.35-10.85-7.95-19.8-17.6-8.9-9.6-15.55-20.65-.4-.8-1.25-2.75t-2-4.3q0-3.2-.65-6.95-.7-3.75-2.85-5.8-2.95-.7-4.05 1.5-1.05 2.15-1.6 4.2-5.25 15.1-4.65 34.25.55 19.2 4.65 38.15 4.05 18.95 9.25 33.35 8 22 20.65 40.75 12.7 18.7 29.3 33.8-1.5-7.1-1.55-13.7 0-6.6 1.1-10.65l.05-.2q3.95-13.5 12.5-21.25 8.6-7.8 18.9-3.5 1.1 4.9-4.3 6.95t-8.15 3.35q-4.9 3.65-7.85 9.8-2.9 6.15-3.55 13.2-.8 8.8 2.2 16.25 3 7.4 10.3 10.55 3.5 1.25 6.55 3.6t-1.45 4.8q19.6 12.85 41.75 21.15 22.2 8.25 46 11.5-2.5-3.85-4.25-8.3-1.75-4.5-2.75-9.45-3.3-17.1 1.7-35 4.95-17.95 17.8-30.05 12.85-12.1 33.15-11.65 1.75-.05 4.1.25 2.3.35 2.9 2.8-1.6 5.9-8.9 6.75-7.3.85-11.3 1.5-20.15 7.35-27.45 27.45-7.35 20.1-1.5 39.6 1.65 5.2 4.35 9.65 2.75 4.5 6.5 7.95 7.4.5 14.9.55 7.45 0 15-.55 3.4-.45 6.2-.85 2.8-.4 4.75-.65l1.1-.2q.5-.1.9-.15 2.8-.5 5.5-1.1 2.7-.6 5.3-1.25 19.65-5.2 36.1-13.35 16.45-8.2 35.2-17.65 3-1.65 5.8-2.5 2.75-.85 4.2 1.8.1.2.2.45t.2.55q-.95 4.95-8.05 8.6l-8.3 3.95q-20.3 10.75-36.25 17.1-15.95 6.35-32.95 10.25-3.15.75-6.45 1.45-3.3.7-6.8 1.35l-5.9 13.05q-2.6 5.7-4 8.25-10.45 19.7-22.55 41.55-12.15 21.9-25.65 44.15-1.45 1.65-2.45 3.25-1 1.6-1.5 2.25-10.15 12.55-21.35 23.75-11.2 11.2-22.8 23-1.2 1.05-2.3 2.4-1.15 1.35.3 2.65 1.45.3 3.4-.65 2-.95 4.05-2.55.35.1.8.2.45.05 1 .1l7-5.05q6.5-4.7 13.4-9.75l8.55-6.35q5.3-4.35 14.95-11.15 9.6-6.8 19.45-12.5 9.9-5.75 16.1-6.95 6.8-1.5 18.05-7.65 11.2-6.1 18.85-9.75 11.85-5.2 23.15-10.4 11.3-5.2 22.55-10.55.1.2.15.4l.1.45q9.35-3.75 18.5-7.85 9.2-4.15 18.3-8.45-.35-.15-.7-.25l-.75-.3q8.8-3.35 17.65-6.4 8.85-3.05 16.45-5.4 11.45-3.55 22.35-6.85 10.95-3.35 22.2-7.4l2.55-.85q1.2-.45 2.2-.75.95-.1 1.95-.2.95-.1 1.95-.2l.95-1.55q.55-.35.8-.75t.2-.95q7.45-12.55 13.55-23.75 6.1-11.15 9.2-17.05 20.3-36.25 43.55-80.95 23.2-44.75 35.35-90.5 12.15-45.75-.95-85z" id="E"/></defs><use xlink:href="#a" transform="matrix(1.29524 .02345 -.0238 1.27998 -1268.65 -185.9)"/><use xlink:href="#b" transform="matrix(1.33333 0 0 1.33333 -320 -180)"/><use xlink:href="#c" transform="matrix(.06343 .40239 -.4026 .05838 1433.45 -275.4)"/><use xlink:href="#d" transform="matrix(-.02757 .43636 -.42845 -.01466 1079.15 130.85)"/><use xlink:href="#e" transform="matrix(.18475 -.40723 .3684 .2383 579.35 729.45)"/><use xlink:href="#f" transform="matrix(.18475 -.40723 .3684 .2383 579.35 729.45)"/><use xlink:href="#g" transform="matrix(.53694 -.01181 -.09035 .57962 565.55 136.55)"/><use xlink:href="#h" transform="matrix(.37907 .02467 -.13432 .49185 697.35 199.45)"/><use xlink:href="#i" transform="matrix(.4272 .36252 -.30435 .3478 579.1 -57.2)"/><use xlink:href="#j" transform="matrix(.4482 .32822 -.26038 .2476 550.85 14.15)"/><use xlink:href="#k" transform="matrix(.45746 -.1469 .16005 .44003 374.3 353.4)"/><use xlink:href="#l" transform="matrix(.4562 -.00754 .05063 .46924 459.1 234.25)"/><use xlink:href="#m" transform="matrix(.4562 -.00754 .05063 .46924 459.1 234.25)"/><use xlink:href="#n" transform="matrix(.5698 .08269 -.01443 .4523 388.65 175.45)"/><use xlink:href="#o" transform="matrix(.5698 .08269 -.01443 .4523 388.65 175.45)"/><use xlink:href="#p" transform="matrix(.2929 .04158 -.09879 .43666 641.35 218.8)"/><use xlink:href="#q" transform="matrix(.59865 -.04486 -.01173 .51703 393.4 261.85)"/><use xlink:href="#r" transform="matrix(.5698 .08269 -.01443 .4523 386.75 159.35)"/><use xlink:href="#s" transform="matrix(.4706 -.01337 .02374 .53612 401.6 184.85)"/><use xlink:href="#t" transform="matrix(.4706 -.01337 .02374 .53612 401.6 184.85)"/><use xlink:href="#u" transform="matrix(.49101 .02562 -.02759 .5105 452.7 186.05)"/><use xlink:href="#v" transform="matrix(.08076 .00119 -.00168 .07867 1078.35 394.25)"/><use xlink:href="#w" transform="matrix(.07292 .06982 -.07024 .08688 1119.05 306.5)"/><use xlink:href="#x" transform="matrix(.08052 -.01605 .00584 .06616 1073.55 418)"/><use xlink:href="#y" transform="matrix(.08623 -.00606 .00206 .0918 1069.65 399.8)"/><use xlink:href="#z" transform="matrix(.09003 .03165 -.03383 .08636 1075.25 360.7)"/><use xlink:href="#A" transform="matrix(.10406 .00238 -.00958 .06554 1054.6 406.2)"/><use xlink:href="#B" transform="matrix(.06772 .00375 -.00491 .0778 1090.35 392.3)"/><use xlink:href="#C" transform="matrix(.11264 .03319 -.03308 .10912 1052.6 353.65)"/><use xlink:href="#D" transform="matrix(.09462 .01082 -.011 .09224 1060 385.5)"/><use xlink:href="#E" transform="matrix(.04501 -.04208 .04893 .04791 1070.35 448.55)"/></svg>