<svg xmlns="http://www.w3.org/2000/svg" xmlns:xlink="http://www.w3.org/1999/xlink" preserveAspectRatio="none" width="580" height="460" viewBox="675 210 580 460"><defs><g id="a"><path fill="#0081c6" d="M1801.75 495.7h-.05l-.4.15q-.15.1-.2.15 0 .1.1.2l-.2.1.15.15.05.05.15-.2.1-.1.05-.1q.1-.05.2-.15.05-.1.15-.15h-.2l.1-.1m51.55 10.8q.15-.15-.05-.45l.1-.3-.1-.4-.2-.15-.25-.05H1848.4l-.4-.05-12.85-.1-.4.15-.05.1-.1.3.05.15q-.35.1-.45.25-.1.2.05.4-.1.2.05.35.15.2.55.2-.2.25-.05.5.15.25.65.25h1.75q.9 0 1.8-.05 2.55 0 5.05-.05 2.55 0 5.1-.05.75 0 1.5-.05h1.45q.35 0 .55-.2.2-.15.1-.45l.1-.05q.3-.05.45-.25z"/><path fill="#FFF" d="M1849.15 507.9v-.4q-2.55.05-5.1.05-2.5.05-5.05.05-.25 13.2-.15 26.45.15 13.2.2 26.45.05 13.2-.45 26.35V590q.05 2.25.05 5.05.05 2.8-.05 5.35v.7q0 .4-.05.7v1.2l-.05.2v.3q0 .15.05.35v.7q0 .45-.05 1v1.15q-2.1.35-4.2.8-2.15.4-4.2.85l-2.1.4-3.55.65-1.4.2-2.2.4h-.05l-.5.1q-1.25.2-2.55.4-1.25.25-2.55.45l-.3.05q-.15.05-.35.05l-.65.1.05.1h-.05v-.1q-.35.1-.7.15l-.7.1-.45.1q-.25.05-.45.1l-.5.1q.05.25.05.5v.45q.05.25.05.45v2.35q0 1.55.1 3.45v.7q.05.3.05.65.05.35.1.75 0 .35.05.75.3.05.6.05.25.05.55.1.35.05.75.1.35.05.75.1.45.05.95.1.45.05.95.1 2.95.3 5.85.5 2.85.2 5.05.45l3.35.4q2.45.3 5.4.65 2.9.3 5.2.5l1.9.1 1-.1q.15.05.4.1t.5.05q.4 0 .9-.05.55-.05 1.1-.15 4.95-.8 9.5-1.4 4.6-.65 9.25-1.25 4.7-.65 9.75-1.4.3-.05.65-.1.3-.1.6-.15.35-.1.65-.2.3-.05.65-.15 0-.55.05-1.2 0-.65.05-1.4v-.3-.9-.3-.25q.05-1.55.05-3.25.05-1.65 0-2.75l-.05-.3h-.65q-.35-.05-.7-.05l-1.4-.1q-.25-.05-.5-.05l-1.5-.1-6-.5-6-.6q-1.75-.3-3.85-.45-2.05-.15-3.9-.3-.75-.1-1.95-.25-1.15-.2-2.45-.3-.1-.9-.15-1.7-.05-.8-.1-1.25-.05-1.85-.1-3.8 0-1.9-.15-3.8v-.1q.3-22.05.5-44.05.15-22.05.2-44.15m45.55-31.55q.15-1.45.15-3.25 0-.75-.05-1.45 0-.7-.05-1.4h-4.4q-.2 0-.4.05h-.7q-15.7.15-31.4.75t-31.4.8q-1.1 0-2.1.05h-2.7v.6l-.2.25q-.5.5-.95 1-.45.5-.85 1-4.4 5.4-9 10.55-4.55 5.1-8.9 10.4l-.1.1h.2q-.1.05-.15.15-.1.1-.2.15l-.05.1-.1.1-.15.2-.05-.05-.05.05q-.55-.65-1.15-1.25-.55-.6-.9-.8l-.25-.05-.1-.05q-.75.2-.9 1.45-.15 1.25-.05 2.45l.1 1.35v2.1q-.05 1.45.05 2.8.15 1.4.6 1.8v.05h.05l.1.05.35-.05h.6q.2 0 .35-.05h1.5q8.3-.15 16.65-.5 8.3-.35 16.6-.55l.05-.1.4-.15 12.85.1.4.05h.35l.35-.05H1849.95l3.2-.05h1.75q.9 0 1.8-.05 2.15-.05 4.3-.05l4.35-.1H1866.2l.3-.05h1.7q.7-.05 1.4-.05l.4-.4q.2-.25.4-.45.7-.75 1.1-1.25l.35-.4.1-.15.2-.15.2-.2.15-.2.55-.55.55-.55.45-.45 9.6-9.5q4.85-4.75 9.35-9.8.65-.7 1-1.3.3-.6.35-1l.1-.3.15-.6.1-1.15z"/></g><path fill="#0081c6" d="M1218.95 272.15q.25-.5.4-1 .2-.5.3-.95l1.15-2.8.35-1.8q-.1-1.35-1.25-1.75-1.2-.35-2.95-.65-.4.05-.75.2-.35.2-.65.4-1.45.75-2.45 2.35-1.05 1.55-1.6 3l-.7 1.75q-2.6 4.85-5.2 9.75t-5.15 9.8q-19.2 35.95-38.3 72.05-19.05 36.05-38.05 72.1-1.45 2.4-2.8 5-1.4 2.55-2.7 5.05-.45.9-.45 1.5.05.6.4.85.1.35.3.7.25.4.6.8.65.6 2.1 1.45 1.45.9 3.2 1.65.6.8 1.85 1.2 1.2.35 2.75-.45.2-.05.35-.15.15-.15.25-.3.15-.1.25-.25.15-.15.3-.35.65-.5 1.1-1.2.45-.75.7-1.3 1-1.6 1.8-3.05l.55-1.2.15-.75q14.1-28.05 28.05-56.4 13.95-28.3 27.5-56.55.3-.55.45-1.1.15-.5.2-1 4.1-8.3 8.15-16.65 4.1-8.35 8.15-16.65 2.9-5.85 5.8-11.65 2.9-5.85 5.85-11.65z" id="b"/><path fill="#FFF" d="M1218.85 266.5l-.8-.85q-.7-.7-1.4-.35l-15.6 29.1q-13.5 25.65-30.95 59.15t-31.5 60.65l-17.4 33.6 7.55 3.25 90.1-184.55z" id="c"/><path fill="#0081c6" d="M1080.3 454.4l-8 2-23.3 8.35-14.7 7.55-4.55 3.1h-.05l-2.1 1.7-7.4 8-10.65 15.7-18.95 36.55-.25-.3h-.4l-.35.2-.1.25.3 1.15-3.95 6.3-.05.45.25.3.4.1.2-.1.2-.15 3.35-5.4 32.5 129.8 13.1 61 4.05 15.75.95 2.5.05.05v.05l1.25 2.15 1.55 1.95 1.8 1.75 4.1 2.85 6.75 3.05 2.3.8h.05l4.65 1.35 9.65 1.65 9.8.15 13.05-1.65 10.2-2.65 4.9-2.1 2.3-1.45 1.9-1.9v-.1l.1-.1 1.2-2.45 1.7-5.35 5.9-26.9 5.7-35.3 2.8-63.55.7-47.05-3.45-54.45-.9-5.4-10.05-41.25-3.1-7.3-4.3-6.7-1.65-2.05h-.05l-2.1-1.9h-.05l-.05-.05-2.45-1.25h-.05l-2.7-.8-2.8-.45-5.5-.2-13.7 1.75z" id="d"/><path fill="#FFF" d="M961.6 465.5q-6.35 6.45-3.6 12.05l4.5 10.35 7 18.25q8.25 22.25 17.75 49.65 9.5 27.45 16.55 49.2l5.55 17.65 2.5 9.45q1.5 10.35 4.9 25.9 3.35 15.55 7.4 32.55 4 17 7.4 31.65 3.45 14.6 5.05 23.1l2.65 2.45 5.1 3.5q6.35 4.05 15.75 7.4 9.35 3.4 19.85 3.4 11.25-.45 21.6-3.8 10.35-3.3 17.05-6.9l5.05-2.95 1.9-1.8q1.85-31.45 2.05-56.1.2-24.6-.5-45.15-.7-20.5-1.6-39.6-.75-16.4-.7-40.75.1-24.35 1.65-52.25 1.6-27.9 5.4-54.95 3.75-27 10.45-48.75 2.85-10.55-8.3-8.9-11.15 1.65-29.45 9.45-18.3 7.85-36.85 15.8-18.55 7.95-30.45 10.05-14.65 2.1-29.7 6.8Q992.5 446.9 980.2 453q-12.25 6.1-18.6 12.5z" id="e"/><path fill="#FFF" d="M743.05 735.4l2.4 26.55 5.3 56.55q3.05 32.05 5.35 56.5l2.45 26.15q5.05 6.6 16.15 10.9 11.1 4.3 25.05 5.7 13.95 1.45 27.6-.6 13.6-2.05 23.65-8.2l3.25-9.65q3-9.1 7.2-23.65 4.15-14.5 7.8-31.1 2.85-13.5 5.4-29.85 2.55-16.4 4.55-31.55 2-15.2 3.15-25.05l1.2-10.35q-7.5-13.75-26.7-18.75-19.15-5.05-42.45-4.3-23.25.7-43 4.1-19.75 3.45-28.35 6.6z" id="f"/><path fill="#0081c6" d="M943.65 840.8q-1.05-2.05-1.45-3.45-.75-2.75-1.15-5.5-.35-2.8-.9-5.5l-.5-1.5-.55-.4q-.6.1-1.05 1.35-.4 1.2-.4 2.45.15 3.15 1.1 7.5.95 4.35 3.1 7.95 2.1 3.6 5.8 4.45 3.45.45 5.8-2.6 2.35-3 3.65-7.05 1.3-4.05 1.65-6.75.15-1 .2-2.9.05-1.9-.25-3.6-.3-1.75-1.25-2.3l-.2-.05q-.15 0-.2.05-.35.35-.45.85l-.15.7q-.25 1.9-.3 3.9 0 2-.35 3.95-.3 1.7-1.15 4.5-.85 2.8-2.15 5.3-1.3 2.45-3 3.1-1.75.45-3.3-.95-1.5-1.45-2.55-3.5z" id="g"/><path fill="#FFF" d="M923.4 167.5q-7.3 4.55-12.05 9.45l-3.75 4.25-1.65 2.85-.5 2.95-.15 4.9q0 5.8.3 12.55.3 6.75.65 11.65l.35 5.15 3.1.4q2.9.45 5.9.75l2.3.15 1.1-.1q6.6-9.4 10.15-14.5 3.55-5.1 5.2-8.2 1.65-3.1 2.5-6.45 1-3.95 1.75-11 .8-7.05.95-13.2l-.1-4.9-.55-2.4q-8.2 1.15-15.5 5.7z" id="h"/><path fill="#FFF" d="M849.85 162.55l-1.6-2.25q-9.45 6.35-16.05 16.6-6.6 10.3-10.05 19.9-3.45 9.65-3.4 13.95.35 2.7 3.35 8.4 3 5.75 6.9 12.05 3.85 6.35 6.8 10.85l3.05 4.7 3.85-1.85q3.6-1.65 7.2-3.5l2.8-1.55 1.2-.9q2.9-13.8 3.9-23.65.95-9.85.75-15.95-.25-6.05-.95-8.65-.75-3-2.4-9.95-1.65-6.95-3.55-13.25l-1.8-4.95z" id="i"/><path fill="#FFF" d="M661.65 767.35l-12.75-1.2q-1.6 0-2.6 1.1-1.05 1.1-1.1 2.55-.05 1.5 1.3 2.7l2.6 1.4 5.45 2.2q6.9 2.6 18.4 4.6 11.45 2 26.2 1.2 14.7-.75 31.5-6.45 11.65-4.35 21.95-12.65 10.35-8.3 18.3-17.35 8-9.05 12.6-15.55l4.8-7.25-1.05-1.4-2.9-2.8q-3.8-3.5-8.4-7.55-4.65-4-7.35-6.3-2.1 3.35-7.35 10.9Q756 723 748.5 732q-7.45 9.05-16.15 16.9-8.75 7.85-17.75 11.9-13.4 5.4-27.85 6.4-14.4 1-25.1.15z" id="j"/><path fill="#0081c6" d="M1065.35 476.45q-4.7-4.8-10.2-9.3-5.25-4.85-11.3-9.3-6-4.5-12.8-8.55l-.4-.6q-.2-.25-.4-.45-.45-.1-.8-.15-.35-.05-.6-.05-1.2-.65-2.65-1.4-1.5-.8-2.65-1.45-.55-.35-1.1-.25-.55.15-.15 1.05l.55.45 1.4.95q1.85 1.25 4.5 3l.25.7q.1.4.25.85 2.75 8.15 6.25 16.05 3.45 7.95 6.35 16.05 5.6 17.2 7.45 34.5 1.85 17.3 3.35 34.5 1.55 17.25 6.15 34.15 5.65 20 5.8 40.05.1 20.1-4.5 39.8-4.55 19.65-13 38.4l-1.65 2.95q-1.4 2.45-3.1 5.95-1.75 3.5-2.85 7.05-.6.85-1.1 1.65-.45.85-.6 1.6.25.05.5.05l.5-.1q-.2 1.65 0 3.05.2 1.35 1 2.3-.5.8-.9 1.5-.35.75-.45 1.35.95 0 1.9-.95.9-.95 1.25-1.4 11.7-12.15 21.2-29.6 9.55-17.5 16.35-37.45 6.75-20 10.2-39.6 2.35-8.25 3.9-17.1 1.6-8.9 2.35-17.95 1.55-8.65 2.25-17.45.7-8.75.35-16.05-.05-1.25-.15-2.55-.1-1.3-.25-2.7-.65-9.8-3.75-21.55-3.1-11.7-8.25-22.8-5.15-11.15-11.8-19.2-3.95-5.15-8.65-10m-17.4 239.45q2.55-2.9 4.85-5.9-.9 1.3-1.85 2.6-.95 1.35-1.95 2.7-.45.45-1.4 1.6-.95 1.1-.95 2.2.15.05.4.1h.3q.1 0 .25-.15.15-.1.35-.3l.05.1.3.05q-1.1 1.5-2.2 3.05l-2.2 3q-.4.5-1.45 1.7-1.05 1.15-2.15 2.6-.25-1.35-.05-2.85t.7-2.95q.6-.5 1-1l.7-.7q2.75-2.9 5.3-5.85m32.7-63.1q-.528 1.736-1.1 3.45l1.05-3.4q.528-1.736 1.05-3.5-.475 1.75-1 3.45m-181.7 133.4l1.75.3q2.05.3 4.1.45 2.1.2 4.15.25-.2.35.25.55.45.2 1.45.35.4.05.75.1.4.05.85.1-1 .1-2 .15l-3.65.25q-1.25.1-2.25.55-.1 0-.3.2-.2.15-.2.3.1.45.3.7.2.25.5.35l-.7.1q-.3 0-.65.05l-2 .55-.75.75q-.15.9 1.2 1.65 1.3.7 3.2.75 1.45 0 3.95-.1t5.45-.3q-.9.5-1.15 1.2-.2.75.7 1.65l1.6.15 3.35-.25q4.2-.55 8.65-1.3l5.85-1.1q3.2-.85 7.3-2 4.15-1.15 8.35-2.65 4.2-1.45 7.6-3.15 1.15-.35 2.35-.75 1.2-.4 2.4-.85 1.45-.95 2.9-1.85 1.45-.95 2.95-1.9 1.45-.9 2.95-2.25 1.45-1.3 2.95-2.8-1.7-.6-3.95.15-2.2.8-4 1.9l-2.2 1.35q-.8.45-1.6.8-.8.4-1.55.75-1.15-.2-2.35.25-1.2.4-2.1.95-.15-.05-.4 0-.2 0-.5.05-.4-.1-.85-.05-.45.05-.7.05-8.35 0-16.7.9-8.3.9-16.65 1.55-8.3.65-16.6-.2l-1.65-.2q-1.25-.15-2.35 0l-.65.75-.05.45.7.35m41.9-1.15q.2-.05.4-.15.2-.05.35-.15.4 0 .8-.05l.75-.05q-.4.05-.65.1t-.45.1l-.6.1-.6.1M751 554.8l-1.35-2.4q-.95-1.55-1.85-3.3-.9-1.75-1.35-3.1-.1 3.1.05 6.2.15 3.15.6 6.45.75 5.45 1.55 11 .8 5.5 1.6 11.05.05-.25.1-.45t.15-.3q.2-.35.6-.55.4-.2.95-.05.9 1.1 1.25 2.75l.45 2.25q.35 1.85.6 3.7.25 1.9.4 3.8-2.7-3.5-5.5-6.85-2.8-3.3-5.7-6.35l-1.4-1.45q-1.15-1.15-2.1-2.05-.05-.1-.3-.15-.2 0-.3.05-.8-4.65-1.5-9.35-.75-4.7-1.9-9.65l-.8-2.2q-.65-1.7-1.5-2.9-.25-.2-.55-.1-.3.1-.45.35v1.05l.35 2q.45 2.55 1.05 5.2l.75 3.65q1.35 8.75 3.55 16.45 2.15 7.65 4.75 15.1 2.6 7.4 5.25 15.55 1.75 5.25 3.8 10.65 2.1 5.35 4.1 10.75l.05.05q.15.65.4 1.2.2.6.45 1.1.2.6.4 1.15.2.55.4 1.15.4 2.95.8 5.85.4 2.95.85 5.9 1.1 14.35 2.15 28.7 1 14.4 1.8 28.95l.1 1.9q.05.95.15 1.9.1 9.65.7 19.15.6 9.5 1.9 18.75l.4 5.4q.25 4 .55 7.75l.25 2.9.25 1.25q.25.25.75.45.45.2 1 0 .7-.75 1.15-1.85.4-1.1.6-2.4.55 3.65 1.1 6.15l.55 2.05.5 1q.2.2.55.45.4.3.95.2 1.9-.9 1.9-4.15.05-3.25-.6-6.25l-.75-3.25q-.1-1.1-.2-2.15-.15-1.1-.25-2.2.45-1.95.45-4.3-.05-2.35-.3-4.45 2 2.7 4.4 5.55 2.35 2.85 5.1 6 .2.25.55.75.35.5.85 1.1.05.3.15.55.1.25.3.45l.25-.1q.6.75 1.25 1.3t1.25.75q.25-.2.2-.55-.05-.35-.1-.5-.1-.45-.4-1.05-.3-.6-.8-1.25.95-1.85 1.2-4l.25-2.85q.1-6.45-.1-13.25-.15-6.75-.5-13.25-.65-15.55-1.45-31.55-.75-16-2.45-31.5-1.55-13-6.4-25.95-4.85-12.9-12.1-25-.05-.6-.2-1.15-.15-.55-.4-.95-.1.05-.3-.05-.2-.05-.25 0l-.05.1q-.65-1.1-1.35-2.1l-1.3-2.1q-.2-.7-.4-1.45l-.4-1.4q-.25-1.25-.6-2.55-.3-1.3-1.5-1.5l.4-1.4q.2-.65.35-1.35.4-1.45 1.3-4.4.9-2.9 1.95-5.5-2.6-7.25-5.9-14.45-3.3-7.2-7.15-14.55m-11.25 21.8q.7 1.25 1.95 2.8 1.25 1.55 2.45 2.9 1.25 1.4 1.85 2.1 2.4 3 4.7 6 2.3 3 4.45 6l.3 3.8q.1 1.95.25 3.85-.3 2.35-.2 4.65.15 2.25.2 3.2l.1 2.3q.05 1.15.15 2.3-.3-.9-.65-1.8l-.7-1.7-.85-2.15q-.7-1.6-1.8-2.5-.55-.05-.9.2t-.5.65q-.05.15-.05.35-.05.2 0 .45l-3.8-10.6q-1.9-5.25-3.75-10.5-1.15-3.15-1.9-6.2-.75-3.1-1.3-6.1m32.05 136.5q.25 2.15.45 4.3t.4 4.35l.65 3.15q.55 2.65.9 5.9.4 3.3-.05 5.8-.45-2.55-.8-5.1-.4-2.55-.75-5.15-.25-3.3-.4-6.6-.2-3.35-.4-6.65z" id="k"/><g id="l"><path fill="#FFF" d="M955.75 420.8q-32.35 1.95-74.45 4.9-42.1 3-73.95 5.35l-33.55 2.45-8.65 4.7q-8.2 4.6-18 12.7T732 469.6q-5.35 10.55-.2 22.65 6.15 13.1 10.35 30.7 4.2 17.6 7.85 39.5 3.7 21.95 8.1 48 1.4 8.4 2.8 21.65 1.35 13.25 2.55 27.5 1.2 14.2 2.2 25.55.95 11.3 1.6 15.8.85 6.15 2.05 16.7 1.25 10.55 4.1 22.95 2.85 12.45 8.5 24.2t15.25 20.3q12.15 9.9 33.8 12.85 21.65 2.95 47.05.85 25.45-2.15 48.95-7.5 23.55-5.35 39.55-12.1 16.35-6.85 30.1-15.7 13.7-8.85 25.7-21.35 11.95-12.55 23.1-30.5 6.2-9.8 13.45-23.35 7.25-13.5 13.55-29 6.35-15.5 9.8-31.35 3.5-16.85 5.25-33.15 1.7-16.25 1.8-30.6.1-14.35-1.4-25.35-4.1-26.05-18.75-47.6t-32.4-37.35q-17.7-15.8-31.05-24.7l-14.95-9.75h-10.05l-24.9 1.35z"/><path fill="#0081c6" d="M1027.1 329.9q-1.45 1-1.4 3 .1 2 .4 3.7-1.25.65-1.3 3-.1 2.3.25 4.5l.4 2.4q.5 5 .3 10.2-.25 5.2.6 10.6 1.2 7 .5 15.15-.65 8.15-2.75 16-2.15 7.85-5.3 13.9l-.95 1.8-.3.9.5.35 1.4.1q.95-.9 1.75-2.25l1-1.8q1.2-2.6 2.2-5.4 1-2.75 2.4-4.8 1.95-2.7 3.15-7.35 1.25-4.65 1.7-9.55.5-4.95.1-8.6-.15-1.5-.2-3-.05-1.5 0-3.05.6-2.8.6-5.4 0-2.65-.2-5.85-.2-4-.1-7.35.05-3.35.25-7.15l.1-2.05q.05-1.75-.3-3.55-.3-1.85-1.35-2.55-.2.05-.35.15-.15.05-.3.15-.25-2.2-.65-3.65-.35-1.5-.9-1.95-.15-.15-.5-.35-.35-.2-.75-.25z"/></g><path fill="#0081c6" d="M1024.6 187.55q-.5-.6-1.45-1.15-.95-.55-1.9.1-.35 1.1.15 2.85t1.3 3.55q-1-1.45-2.2-2.05-1.2-.65-2.4.85-.65 1.75.35 4.2 1 2.4 2.2 4.25-.55-.3-1.2-.15-.6.1-1.2.8-.05.15-.05.3-.05.15-.05.3-.25 0-.5.05t-.5.15q-.65 1.7-.2 3.9.5 2.2 1.3 4.1.85 1.95 1.2 2.85 4.15 12.2 8.2 24.65 4.1 12.4 8 24.6 3.45 10.45 5.75 20.4t3.7 20.35l-.05.05q-3.4 1.1-4.6 4.7-1.15 3.6-1.15 7.95 0 4.3.05 7.55-.1 5.4-.35 10.5-.25 5.1 0 10.55.6 10.65.5 21-.05 10.3-.45 20.95-.05 1.6 0 4.65.05 3.05.35 6.4-.2.05-.35.1-.2.1-.45.2l-.25.4q-.2.35-.6.6l-1 .7-.55.5q-.25.35-.3 1.05-.35.9-.5 1.85-.15.9-.25 1.45-.15.55-.3 1.15-.2.6-.45 1.1l-.15.5q-.15.35-.25.65-1.4-.4-2.45 1.35-1 1.75-1.6 3.75l-.65 2.2q-.6 1-1.5 1.7t-1.9 2.5q-1.05 2.15-2 3.95-1 1.8-1.95 3.5.5-1.75.45-3.2-.1-1.5-1.1-2.3-.75.55-1.35 1.75-.65 1.2-1.1 2.4-.4 1.15-.65 1.65-1.1 2.25-3.55 6.4-2.4 4.15-5 7.95-2.65 3.85-4.4 5.15l-.7.1q-.65.1-1 .5-.3.1-.25.4l.05.35q0 .15.35.3l.3.25q-.4 1.05-1.5 2.35-1.05 1.3-2.4 2.75-9 1.2-18.5 2.7-9.5 1.5-18.85 3.65-9.35 2.2-17.8 5.5-6.75 2.65-13.5 5.15-6.8 2.5-13.5 5.05l-2.1 1.05q-1.55.85-2.65 1.95-.05.25 0 .55 0 .25.1.5-.3.2-.25.5.1.25.35.55 2.5 2.7 9.3 4.05 6.8 1.4 14 1.85 7.2.5 10.9.6 16.4.45 30.7-4.6t27.05-14q3.85-2.15 7.3-4.7 3.45-2.55 6.6-5.8 5.8-5.45 10.25-12.85 4.4-7.4 7.85-17.5.2-.35.35-.7l.4-.7q5.25-9.95 8.65-22.45 3.45-12.45 5.45-25.5 2-13 3.1-24.6.15-1.15.4-3.2.2-2 .15-3.6.25-5.45-.05-10.75-.3-5.25-.85-11-.2-2.85-.5-6.5-.3-3.6-.8-7.2.25-3.25-.25-7.15-.45-3.9-1.05-6.85l-.75-3.45q-.2-.95-.35-1.95-.2-.95-.4-1.95-1.2-9.05-2.9-18.95-1.7-9.85-3.95-19.95-2.25-10.05-5.05-19.6-1.6-8.25-3.7-17-2.15-8.75-4.85-15.85-2.65-7.15-5.8-10.5z" id="m"/><g id="n"><path fill="#0081c6" d="M980.9 222.3l.4-1.3q.25-.95.1-1.7-.5-.4-.7 0-.2.45-.35 1.05-1.15 3.7-2.65 7.25-1.5 3.6-3.35 6.95-2.1 3.95-4.55 7.6-2.45 3.7-5.25 7.1-.3.3-.95 1-.7.75-.9 1.45l.15.1q-.35.3-.55.6-.25.35-.3.7.3.3.7.15.4-.15.65-.35 2.45-1.45 5.3-4.45 2.85-3.05 5.5-6.45 2.6-3.4 4.2-5.85.15-.2.45-.65.3-.5.6-1.05.2-.35.3-.75.1-.35.05-.7-.45-.25-.75.15t-.5.8q-.15.2-.25.4l-.3.4q.35-.85.45-1.65.05-.8-.35-1.4-.35-.2-.6-.1t-.45.4q1.2-2.5 2.2-4.95.95-2.45 1.7-4.75m-14.3 26.2l.25-.3h.05l-.3.3z"/><path fill="#FFF" d="M966.85 248.2l-.25.3.3-.3h-.05m45.6-63.95q-2.9 1.1-4.65 4.1-5.3 9.6-9.85 17.75-4.5 8.15-9 15.15-4.45 7-9.55 13.2-.3.55-.6 1.05-.3.45-.45.65-1.6 2.45-4.2 5.85-2.65 3.4-5.5 6.45-2.85 3-5.3 4.45-.25.2-.65.35-.4.15-.7-.15.05-.35.3-.7.2-.3.55-.6l-.15-.1q.2-.7.9-1.45.65-.7.95-1 2.8-3.4 5.25-7.1 2.45-3.65 4.55-7.6-2.9-1.1-7.15-2.85t-9-3.85q-4.7-2.1-9-4.3-6.95-3.95-20.9-7.25-14-3.3-33.35-1.7-19.3 1.55-42.4 12.4-11.7 5.9-19.2 12.5-7.55 6.6-11.4 11.85l-4.65 6.95q-4.35 8.75-9.45 26.95t-9.7 38.5q-4.6 20.25-7.4 35.15l-2.1 11.7-.5 5.35 1.2 3.65 3.1 6.75q4.05 8.25 13.25 21.1 9.2 12.85 25.1 28.85 13.95 13.5 28.95 22.25 15 8.7 28.05 13.55 13.05 4.85 21.2 6.75 22 5.1 41.9 2.45 19.95-2.6 34.85-9.1 14.9-6.45 21.9-12.9 14.8-13.7 24-35.6 9.2-21.9 13.1-48.4 3.85-26.55 2.6-54.2-1.8-34.2-6.7-61.8-4.9-27.65-10.2-46.15-5.35-18.5-8.3-25.3-1.35-2.95-4.1-3.85-2.75-.9-5.6.25z"/></g><path fill="#FFF" d="M789.2 341.6q-3.4 5.75-11.45 18.2-8.05 12.45-17.8 27.65t-18.3 29.35q-8.55 14.1-12.85 23.2l49.1 7.45q46.65 6.55 107.9 14.7 61.2 8.1 107.35 13.7l35 3.95 12.65.65-7.8-9.85q-5.8-7.2-13.15-15.8-7.35-8.55-13.8-15.45-6.5-6.85-9.8-8.9l-35.8-15.85q-31.25-13.5-70.8-30.35-39.6-16.85-69.25-29.4l-31.2-13.25z" id="o"/><path fill="#0081c6" d="M840.25 295.25q-.35.05-.6.4-.25.3-.35.8-.05.25-.1.6l-.1.7q-.05.65-.05 1.4v1.3q.05 4.3.35 6.75.3 2.5.9 4.75 1.2 4.9 3.35 8.6 2.2 3.7 5.85 4.8.65.25 1.35.25.7 0 1.15-.1 3.2-.85 5.8-3.55 2.55-2.65 4.2-6.4 1.65-3.7 2.2-7.55l.1-.7q.1-.55.1-1.2.2-1 .15-1.8-.05-.85-.4-1.4-.45.15-.65.7-.15.55-.2.8-1.2 4.15-2.2 7.35-.95 3.25-2.75 5.6-1.75 2.35-5.45 3.85-2.65.85-4.95-2.1-2.3-3-3.9-7.55-1.6-4.6-2.2-8.45l-.4-1.8-.3-1.9q-.15-1.3-.35-2.3-.25-.95-.55-1.85z" id="p"/><path fill="#FFF" d="M915.85 293.65q-.95-9.75-6.65-17.4-5.7-7.65-18.65-10.15-13.2-1.9-21.3 3.85-8.15 5.75-12.65 14.6-4.45 8.8-6.65 16.15 8.9 1.05 20.1 2.9 11.2 1.85 23 4.1 11.75 2.2 22.35 4.35 1.35-8.7.45-18.4z" id="q"/><path fill="#0081c6" d="M967.6 494.6q-.3-.55-1-.65h-.1q-.5 0-.8.55-.25.55-.4.9-1 1.9-1.7 4.05t-2.05 4q-1.4 1.9-4.4 2.95-.15.05-.5.05h-.7q-.35-1.75-.8-3.45-.4-1.65-.85-3.3l-.7-3.55q-.65-2.95-1.9-5.85-1.3-2.85-3.45-3.25-.65.15-.9.75-.3.6-.35.85l1.25 6.85 2.6 13 1.6 8.9q1.05 10.7.8 20.5-.25 9.75-1.2 19.6-.95 9.85-2.15 20.7-.1.7-.1 2.25-.05 1.6.35 3.25.35 1.7 1.45 2.8 1.85.75 2.45-.7.55-1.4.85-3.25 2.2-10.05 3.25-21.75 1.1-11.75.9-23.8-.2-12.05-1.8-23.05.15-.05.35-.15l.3-.2q2.6-1.35 4.6-3.8 2.05-2.45 3.35-5.2 1.3-2.75 1.8-5.05l.25-1.55q.15-1.2 0-2.25-.05-.6-.3-1.15z" id="r"/><path fill="#FFF" d="M950.95 491.35q-1.6-10.5-11.65-20.75-10.1-10.25-26.15-17.5-16.05-7.25-35.65-8.7-11.8-1.25-26.85-9.15-15.1-7.9-28.85-16.85-13.8-8.95-21.7-13.25-7.9-4.35-5.4 1.55 5.2 11.85 9.7 32.05 4.45 20.2 7.95 43.55 3.5 23.4 5.75 44.75 2.2 21.35 2.9 35.5.5 9.95 1.35 24.45.85 14.5 1.95 30.9 1.1 16.35 2.3 31.9 1.25 15.5 2.55 27.45.8 8.85 1.7 21.55.85 12.7 3.35 26.75t8.15 26.95l1.9 1.85 4.9 3.25q6.3 3.95 17.5 7.8 11.2 3.9 26.25 4.65 16.05.5 27.7-1 11.65-1.55 18.3-3.85l5.25-2.25 2.5-2q2.4-8.9 3.95-28.6 1.55-19.7 2.45-43.05.9-23.3 1.3-43.05.4-19.7.5-28.6.05-9.5-.25-27.75t-.85-38.85q-.6-20.6-1.35-37.1l-1.45-22.6m-77.1 258.85q-1.05.25-1.75-.3-2.3.55-4.75 1.1-2.4.5-5 1-1 .3-2.35.5-1.3.2-2.1-1.2.95-2.3 4.7-3.75 3.7-1.5 7.4-2.25l4.35-.85q1.35-.3 4-.7 2.6-.4 6-.8 4.55-.65 7.9-.8l3.55-.1q4.9-.25 8.65.15t5.2 1.65q5.6 1.25 10.85 3.4 5.2 2.2 8.8 5.3 3.55 3.1 4.25 7.2.1.7-.15 1.5-.2.8-1.15 1.15-1.55.15-2.6-.95-1.1-1.1-1.8-2.45-.7-1.4-1.1-2-3.55-4-8.25-6.3t-10.1-3.2q-1.2-.1-2.55-.3-1.35-.15-2.55-.35-7.1-.45-14.2.45-7.1.85-13.35 2.4-.9.25-1.9.5z" id="s"/><path fill="#0081c6" d="M1055.45 790.65l-.15.85q-.05.35-.15.65-4.4 18.4-8.15 35.75-3.8 17.4-7.4 34.8-3.6 17.4-7.45 35.85-.25 1.2-.15 2.15t.45 1.65q-1.6.85-3.2 1.6-1.55.75-3.05 1.4-2.55.8-5.1 1.5t-5.2 1.25l-3.75.5q-3.2.45-6.15 1.5t-2.9 2.9q.25.3.6.35.4.05.8-.05.25.15.55.25.3.1.55.15l2.9-.15 4.6-.95q5.4-1.4 10.85-3.25 5.4-1.85 7.4-3 .55-.3 1.8-1.1 1.25-.75 2.15-1.7.55-.3 1-1.05.45-.7.7-1.9 4.1-18.25 7.85-35.6 3.75-17.4 7.4-34.8 3.65-17.4 7.45-35.65l.15-.95q.1-.9.15-2.15 0-.2.05-.4t.05-.35h-.1q-.35.1-.7.15l-.7.1q-.8.05-1.6 0t-1.55-.3z" id="t"/><path fill="#FFF" d="M899.05 742.6q2.25 9.75 5.6 24.35 3.3 14.55 6.6 29.5t5.5 25.85q1.9 9 5.65 21.75 3.8 12.7 7.95 25.25t7.1 21l3.15 8.95q10.15 5.85 23.3 8.7 13.15 2.85 26.65 3.05 13.55.2 24.85-1.85 11.35-2.1 17.9-6.15l1.75-7.8q1.75-7.4 4.45-19.4 2.75-11.95 5.85-26.1 3.05-14.2 5.8-28.15 4.05-20.55 6.9-35.15 2.8-14.6 4.3-22.55l1.45-8.5q-8.7-2.95-30.9-8.65-22.15-5.7-49.35-10.95-27.2-5.3-51-6.9-23.8-1.65-35.85 3.5l2.35 10.25z" id="u"/><path fill="#0081c6" d="M938.3 828.5q.2 3.1 1.2 6.95 1 3.8 2.75 6.95 1.7 3.15 4.05 4.3 4 1.55 6.85-1.1 2.85-2.65 4.45-7.45 1.6-4.75 1.75-9.5.05-1.1-.1-2.65-.15-1.55-.85-1.55-.15.3-.3.65l-.15.5q-.6 2-.85 4.2-.3 2.15-.8 4.3-1.15 4.45-3.3 7.15t-4.75 2.35q-2.55-.35-4.9-4.95-1.2-2.6-1.95-5.7-.8-3.05-1.8-5.85-.6-1.4-1-.55-.35.8-.3 1.95z" id="v"/><path fill="#A6CE38" d="M957.25 636.4l-56.85-.25 27.95 211.35 28.9-211.1z" id="w"/><path fill="#AED044" d="M1350.85 238.5q-2.8-4.9-10.4-7.55l-.75.1q-.65.1-1.15-.1h-.55q-.25.05-.6.05.4-1.3-.15-1.8-.65-.5-2.55-.25-2.6 1.8-4.5 5.1l-2.4 4.45q-7.25 12.6-12.5 23.35-5.25 10.75-9.9 22.15-4.65 11.45-10.15 26-1.95 3.85-4.4 12t-3.7 12.3q-2.55 7.5-6.15 15.4-3.65 7.95-7.25 17.05-1.5 3.15-3.8 8.35-2.35 5.2-4.05 9.35-5.15 11.35-10.3 21.45-5.1 10.15-10.05 19.5-1.7 3.1-4.6 8.8-2.9 5.7-4.7 9.15-8.2 12.4-17.3 24.45-9.1 12-19.1 24.2-4.65 4.75-9.45 9.3-4.75 4.5-9.55 8.75l.8.9q.4.45.75.95 4.7 6 7.6 12.85 2.9 6.9 4.2 13.6.55 4.6-2 5.25-2.55.65-3.8-3.1-1.35-5.6-4.3-12.1-2.9-6.45-6.55-11.45h-.05l-.65-.75q-.6-.6-1.3-1.55-4.65 4-9.1 7.7-4.45 3.7-8.65 7.15-2.7 1.05-5.4 2.15l-3.5 1.4q-8.45 4.4-16.5 11.35-8 7-14.95 12.6-4.6 1.9-8.15 5-3.6 3.1-6.5 8.8-9.15 10.8-10.85 23.35-1.7 12.55 6.95 26.7 2.1 3.45 7.5 10 5.45 6.55 12 11.45 6.55 4.85 12.05 3.2 2.65.9 5.15 1.4 2.55.5 3.6.7 9.7 1.45 27.1-1.95 17.45-3.4 34.35-9.55 16.9-6.2 25-13.05.85-.7 2.15-1.9 1.3-1.2 1.65-2.15.15-.65-.15-1.15-.3-.5-.75-.6Q1245.3 605 1258.5 594t24.3-24.6q11.05-13.6 21.5-33.6.8-1.35 1.6-2.75.75-1.4 1.5-2.85 5.3-9.95 10.65-21.4 5.3-11.45 10.05-23.65 2-4.15 4.05-8.3 2.1-4.1 4.25-8.25 2.65-5.05 5.45-16 2.8-11 3.1-22.5.3-11.45-4.65-17.95 7.3-19.45 10-41.05 2.75-21.65 7.8-41.45.65-2.4 1.15-4.8.45-2.4.7-4.85 3.15-17.95 1.8-34.65-1.4-16.75-6.4-34.55-1.75-7.4-4.5-12.3z" id="x"/><path fill="#A6CE38" d="M1072.2 375.55l-4.05-17.8q-26-12.55-57.2-16.7-31.2-4.15-54.1-4l-24 .5-6.8 14.25q-6.4 13.4-13.6 28.5-7.2 15.05-10.05 21.15l180.85 23.65-3.85-17.3q-3.6-16.05-7.2-32.25z" id="y"/><path fill="#A6CE38" d="M1001.3 267.15q-15.6 1.8-25.15 7.4-9.55 5.55-13.9 10.55-4.6 5.15-13 19.85-8.4 14.7-15.2 28.7l-5.1 11.25-1.65 5.8q1.5 5.7 11.65 11.85 10.1 6.15 24.4 11.1 14.25 4.9 28.2 6.9 16.55 2.1 33.15.8 16.55-1.3 28.7-5.5 12.15-4.25 15.35-10.85l-1.4-28.15q-1.5-20.5-7.7-40.2-6.2-19.7-20.15-25-22.55-6.3-38.2-4.5z" id="z"/><path fill="#A6CE38" d="M1099.4 333.3q11.45-10.2 19.2-22.3l-3.55-2.1-10.1-4.2q-13.4-5.25-36.75-7.1l2.95 10.5q3.05 9.8 6.7 21.3 3.65 11.5 5.55 17.3l16-13.4z" id="A"/><path fill="#A6CE38" d="M793 728.5l11.5 6.7q11.3 6.35 30.65 14.8 19.35 8.4 43.85 15l10.25-22.7q9.2-21.4 21.05-49.5 11.85-28.05 20.8-49.35l9.4-22.45-25.4-11.05L793 728.5z" id="B"/><path fill="#0081c6" d="M1098.25 386.4q-.5-.45-1.5-.85-.95-.45-1.9-.1-.85.7-.9 1.7-.05 1.05.4 2.2h-.1q-3.05 2.9.55 7.45l4.75 5.5q2.45 3.6 4.15 7.65 1.75 4.05 2.95 8.25-.2.05-.45.05t-.55-.1q-.45-.1-1-.35-.55-.3-1.25-.75l-.5-.4q-.3-.15-.55-.35 2.9 8.8 4.95 17.65 2.05 8.8 3.75 17.9-.8 1.05-1.35 1.9-.55.85-.8 1.3-16.1 27.1-30.25 56-14.2 28.9-26.95 57.05-6.85 14.6-12.75 32.85t-7.05 35.5q-1.85.85-3.85 1.75-1.95.85-4 1.7-3.5 1.45-10.95 5.5l-5.7 3.7-2.1 3.1.15.3q.15.25.2.45 2.85.35 6.35-1 3.5-1.35 4.9-1.9 3.9-1.35 7.65-2.75 3.75-1.4 7.35-2.95l.2 2.4q.1 1.2.25 2.35 1.25 6.05 4.05 4.85 2.8-1.2 3.25-7.05 0-1.5.05-3t.15-3.05l1.5-.7 1.5-.7q0 .15.05.3t.15.35q3.55.15 7.9-3.05l4.75-3.7q1.3-.95 2.6-1.95 1.25-.95 2.5-1.95 40.5-26.2 56.8-64.8 16.3-38.55 10-83.3v-.2l-.05-.45q0-.45-.05-1.2-.05-.7-.15-1.6.05-14.85-3.2-28.9-3.25-14.05-8.8-27.6-2.85-8.65-7.45-19.35-4.6-10.7-9.65-15.65z" id="C"/><path fill="#A6CE38" d="M925.95 432.95l-24.45 3.1-9.45 2.05q-2 9.35-5 29.7-3 20.4-7.65 47t-11.6 54.6q-8.4 37.55-26.8 76.8-18.4 39.2-59.2 75l12.6 1.85 23.35-2.45q28.75-4.55 70.05-17.05t86.3-32.35q52.95-24 83.6-48.35 30.65-24.3 44.3-48.7 13.65-24.4 15.6-48.55 2.15-25.45-.45-50.4-2.6-25-6.1-41.95l-4.2-18.1-33.5 2.9q-31.8 2.95-73.65 7.1-41.85 4.15-73.75 7.8z" id="D"/><path fill="#0081c6" d="M1010.55 296.3q-.2-.05-.3 0-2.05 2.15-.05 8.2 1.95 6.1 3.55 8.8 5.35 8.9 8.9 6.8 3.6-2.05 5.2-10.65l.55-3.3q.35-2.9-.85-4.3-.3-.1-.6 0-.25.15-.4.3l-1.2 4.65q-.75 3.9-1.3 5.55-.2.65-.95 2.15-.8 1.55-1.7 2.25-.15 0-.3-.1l-.2-.15q-2.35-1.4-4.8-7.55-2.45-6.15-3.35-8.95l-.55-1.65q-.45-1.2-1.25-2-.2 0-.4-.05z" id="E"/><path fill="#A6CE38" d="M1032.8 313.4l-.75-4.85q-.85-4.45-3.65-8.95-2.8-4.45-8.5-4.7-6.65.35-9.9 5.9-3.25 5.5-3.9 12.4l26.7.2z" id="F"/><path fill="#0081c6" d="M1298.25 438.7q.5-1.6.5-2.95-.05-1.35-2.25-1.6-3.15 1.5-4.9 6.3l-1.75 5.45q-5.45 17.45-8.35 36.1-2.95 18.65-6.6 36.55l-1.45 6.7q-1 5.75 1.7 8.3 1.8-1.65 2.4-4.75.6-3.1.75-4.3 3.05-13.6 5.65-27.1 2.6-13.45 5.25-27.3 1.7-8.35 4.3-15.95 2.6-7.6 4.75-15.45z" id="G"/><path fill="#AED044" d="M1531.85-35.95q-11.5 4.1-25.95 12.7-35.75 19.9-65.45 41.9-29.75 22-56.1 50.15-3.75 3.65-7.25 7.5-3.5 3.8-6.7 7.85-27.25 32.55-60.3 65.45-33.05 32.9-57.05 67.15-.95.2-1.9.45-1 .25-1.95.55-27.35 3.25-44.5 19.1-17.15 15.85-35.3 41.45-9.85 13.25-19.25 27.85-9.35 14.55-18 28.6-7.75 12.9-14.35 27.3-6.55 14.4-14.15 28.1-6.2 10.7-12.7 23.4-6.5 12.7-11.2 23.95-.55 1.2-.9 2.45-.4 1.3-.1 2.3-.65 1.3-1.25 2.55-.65 1.25-1.25 2.5-1.35.25-2.35.5l-1.35.35q-19.05 7.2-29.2 26-10.15 18.75-13.5 40.4-3.4 21.6-2.1 37.45 1.45 21.5 6.45 45.75t14.3 43.6q.45.85 1.15 2.05.65 1.15 1.55 2.4 8.95 25.45 22.55 49.65 13.55 24.2 31.05 42.9 1.6 1.65 3.2 3.25t3.25 3.15l3.1 2.8q1.55 1.35 3.1 2.65 1.85 1.5 3.7 2.95 1.9 1.45 3.8 2.75.25.2.55.4l.5.4q16 .15 34.45-3.75 18.45-3.95 27.1-6.85 33.95-11.25 53-30.45 19.05-19.2 26.35-43.3 6.15-10.8 7.15-18.7 1-7.85-1.25-15 1.25-14.65 3.45-32.3 2.25-17.7-.35-32.15l-1.7-5.4q-1.4-4.2-2.8-8.35.8-8.6 1.7-17.9.95-9.3 2.1-19.1 4.2-20.85 9.6-41.65 5.4-20.8 10.2-41.55.4-1.6.65-2.8.25-1.15-.55-2 6.4-18.45 13.4-36.5 7-18.1 14.9-36.05 3.6-6.55 9.75-17.35 6.15-10.85 9.4-16.9 9.85-17.9 20.8-37.1 10.95-19.2 23.8-40.1 5-7.5 11-17 5.95-9.55 9.45-15.4 11.05-16.25 20.05-30.9 9.05-14.7 18.6-27.65 3.3-4.25 9.8-12.5 6.5-8.3 12.75-16.6t8.65-12.75q17.95-25.75 31.65-46.3 13.65-20.5 25.5-40.7 11.85-20.2 24.45-44.95l4.6-8.6q3.25-6.45 3.3-11.5-1.9-2.25-3.45-2.15-1.55.1-3.3 2.35l-.6-.7q-.3-.3-.6-.55-.95-.2-1.5-.95l-.75-.85q-13.45-3.8-24.9.3m-303.2 264.6q-.1-.1-.25-.15l-.2-.1.85-.35.9-.3q-.35.2-.65.45l-.65.45m-187.4 373q-.05.5-.05 1-.1-.45-.25-.9l-.2-.95q.15 0 .25-.05.15-.05.25-.1v1z" id="H"/></defs><use xlink:href="#a" transform="matrix(1.29524 .02345 -.0238 1.27998 -1268.65 -185.9)"/><use xlink:href="#b" transform="rotate(5.264 -646.154 5937.171) scale(.43756)"/><use xlink:href="#c" transform="rotate(5.264 -646.154 5937.171) scale(.43756)"/><use xlink:href="#d" transform="matrix(.43782 .18358 .218 -.45128 386.35 454.3)"/><use xlink:href="#e" transform="matrix(.43782 .18358 .218 -.45128 386.35 454.3)"/><use xlink:href="#f" transform="matrix(.5061 -.01033 -.07903 .78674 580.55 -53.85)"/><use xlink:href="#g" transform="matrix(.35765 .03758 -.12141 .667 705.45 33)"/><use xlink:href="#h" transform="matrix(.59827 -.15964 .12296 .4308 309.6 381.45)"/><use xlink:href="#i" transform="matrix(.60944 -.03757 .00476 .45482 331.9 273.6)"/><use xlink:href="#j" transform="matrix(.47128 -.09344 .1085 .45549 400.95 291.3)"/><use xlink:href="#k" transform="matrix(.49979 -.07841 .05484 .46147 417.7 281.6)"/><use xlink:href="#l" transform="matrix(.49979 -.07841 .05484 .46147 417.7 281.6)"/><use xlink:href="#m" transform="matrix(.58298 -.2086 .17085 .41463 315.4 429.65)"/><use xlink:href="#n" transform="matrix(.58298 -.2086 .17085 .41463 315.4 429.65)"/><use xlink:href="#o" transform="matrix(.29929 -.10805 .08318 .44244 576.6 343.15)"/><use xlink:href="#p" transform="matrix(.55865 -.33784 .1999 .4716 355.2 505.1)"/><use xlink:href="#q" transform="matrix(.58298 -.2086 .17085 .41463 306.95 416.1)"/><use xlink:href="#r" transform="matrix(.33846 -.2828 -.29108 -.38524 677.3 872.7)"/><use xlink:href="#s" transform="matrix(.33846 -.2828 -.29108 -.38524 677.3 872.7)"/><use xlink:href="#t" transform="matrix(.4858 -.01305 .02942 .69875 381.6 37.1)"/><use xlink:href="#u" transform="matrix(.4858 -.01305 .02942 .69875 381.6 37.1)"/><use xlink:href="#v" transform="matrix(.50706 .04274 -.02927 .8216 439.15 -97.7)"/><use xlink:href="#w" transform="matrix(.08014 .00117 -.00168 .07806 1078.9 394.75)"/><use xlink:href="#x" transform="matrix(.10254 .01369 -.00801 .1403 1046 337.65)"/><use xlink:href="#y" transform="matrix(.0831 -.0185 .00893 .06761 1069.7 419.5)"/><use xlink:href="#z" transform="matrix(.08363 -.02913 .02667 .09013 1063 423.05)"/><use xlink:href="#A" transform="matrix(.0897 -.03896 .0346 .08842 1051.1 432.7)"/><use xlink:href="#B" transform="matrix(.1063 .00867 -.01372 .06645 1055.15 399.75)"/><use xlink:href="#C" transform="matrix(.06938 .00385 -.00504 .07973 1088.85 390.85)"/><use xlink:href="#D" transform="matrix(.06938 .00385 -.00504 .07973 1088.85 390.85)"/><use xlink:href="#E" transform="matrix(.08156 .01306 .00351 .1221 1069.55 370)"/><use xlink:href="#F" transform="matrix(.0973 .00716 -.00743 .0948 1055.7 388.1)"/><use xlink:href="#G" transform="matrix(.0493 -.03944 .04622 .05281 1065.4 449.05)"/><use xlink:href="#H" transform="matrix(.0493 -.03944 .04622 .05281 1065.4 449.05)"/></svg>