<svg xmlns="http://www.w3.org/2000/svg" xmlns:xlink="http://www.w3.org/1999/xlink" preserveAspectRatio="none" width="580" height="460" viewBox="675 210 580 460"><defs><g id="a"><path fill="#0081c6" d="M1801.75 495.7h-.05l-.4.15q-.15.1-.2.15 0 .1.1.2l-.2.1.15.15.05.05.15-.2.1-.1.05-.1q.1-.05.2-.15.05-.1.15-.15h-.2l.1-.1m51.55 10.8q.15-.15-.05-.45l.1-.3-.1-.4-.2-.15-.25-.05H1848.4l-.4-.05-12.85-.1-.4.15-.05.1-.1.3.05.15q-.35.1-.45.25-.1.2.05.4-.1.2.05.35.15.2.55.2-.2.25-.05.5.15.25.65.25h1.75q.9 0 1.8-.05 2.55 0 5.05-.05 2.55 0 5.1-.05.75 0 1.5-.05h1.45q.35 0 .55-.2.2-.15.1-.45l.1-.05q.3-.05.45-.25z"/><path fill="#FFF" d="M1849.15 507.9v-.4q-2.55.05-5.1.05-2.5.05-5.05.05-.25 13.2-.15 26.45.15 13.2.2 26.45.05 13.2-.45 26.35V590q.05 2.25.05 5.05.05 2.8-.05 5.35v.7q0 .4-.05.7v1.2l-.05.2v.3q0 .15.05.35v.7q0 .45-.05 1v1.15q-2.1.35-4.2.8-2.15.4-4.2.85l-2.1.4-3.55.65-1.4.2-2.2.4h-.05l-.5.1q-1.25.2-2.55.4-1.25.25-2.55.45l-.3.05q-.15.05-.35.05l-.65.1.05.1h-.05v-.1q-.35.1-.7.15l-.7.1-.45.1q-.25.05-.45.1l-.5.1q.05.25.05.5v.45q.05.25.05.45v2.35q0 1.55.1 3.45v.7q.05.3.05.65.05.35.1.75 0 .35.05.75.3.05.6.05.25.05.55.1.35.05.75.1.35.05.75.1.45.05.95.1.45.05.95.1 2.95.3 5.85.5 2.85.2 5.05.45l3.35.4q2.45.3 5.4.65 2.9.3 5.2.5l1.9.1 1-.1q.15.05.4.1t.5.05q.4 0 .9-.05.55-.05 1.1-.15 4.95-.8 9.5-1.4 4.6-.65 9.25-1.25 4.7-.65 9.75-1.4.3-.05.65-.1.3-.1.6-.15.35-.1.65-.2.3-.05.65-.15 0-.55.05-1.2 0-.65.05-1.4v-.3-.9-.3-.25q.05-1.55.05-3.25.05-1.65 0-2.75l-.05-.3h-.65q-.35-.05-.7-.05l-1.4-.1q-.25-.05-.5-.05l-1.5-.1-6-.5-6-.6q-1.75-.3-3.85-.45-2.05-.15-3.9-.3-.75-.1-1.95-.25-1.15-.2-2.45-.3-.1-.9-.15-1.7-.05-.8-.1-1.25-.05-1.85-.1-3.8 0-1.9-.15-3.8v-.1q.3-22.05.5-44.05.15-22.05.2-44.15m45.55-31.55q.15-1.45.15-3.25 0-.75-.05-1.45 0-.7-.05-1.4h-4.4q-.2 0-.4.05h-.7q-15.7.15-31.4.75t-31.4.8q-1.1 0-2.1.05h-2.7v.6l-.2.25q-.5.5-.95 1-.45.5-.85 1-4.4 5.4-9 10.55-4.55 5.1-8.9 10.4l-.1.1h.2q-.1.05-.15.15-.1.1-.2.15l-.05.1-.1.1-.15.2-.05-.05-.05.05q-.55-.65-1.15-1.25-.55-.6-.9-.8l-.25-.05-.1-.05q-.75.2-.9 1.45-.15 1.25-.05 2.45l.1 1.35v2.1q-.05 1.45.05 2.8.15 1.4.6 1.8v.05h.05l.1.05.35-.05h.6q.2 0 .35-.05h1.5q8.3-.15 16.65-.5 8.3-.35 16.6-.55l.05-.1.4-.15 12.85.1.4.05h.35l.35-.05H1849.95l3.2-.05h1.75q.9 0 1.8-.05 2.15-.05 4.3-.05l4.35-.1H1866.2l.3-.05h1.7q.7-.05 1.4-.05l.4-.4q.2-.25.4-.45.7-.75 1.1-1.25l.35-.4.1-.15.2-.15.2-.2.15-.2.55-.55.55-.55.45-.45 9.6-9.5q4.85-4.75 9.35-9.8.65-.7 1-1.3.3-.6.35-1l.1-.3.15-.6.1-1.15z"/></g><path fill="#0081c6" d="M1072.05 483.4q-.05-.15-.15-.2-.15-.1-.35-.15-.2 0-.5.25l-.5.5-.2.2-.15.1q-4 3.85-7.8 6.9-3.8 3.05-7.85 5-3.15 1.5-6.25 2.45-3.1.95-6.3 1.6-3.25.65-6.95 1.3-1.05.15-2.3.35-1.25.2-2.4.3-.75.05-1 .2-.25.2-.35.65-.25.95.8 1.35 1 .45 2.4.5 1.4 0 2.3-.15 6.1-1.25 10.75-2.55 4.65-1.3 8.05-2.85 2.5-1.15 4.35-2.25 1.85-1.1 3.4-2.3 2.05-1.5 3.8-3.05 1.8-1.6 3.35-3.2.9-1 1.7-2 .8-1 1.6-1.9.15-.2.35-.4.2-.2.25-.3.05-.2-.05-.35z" id="b"/><path fill="#FFF" d="M1953.6 1753.95q-.05.55-.05 1-.5 8.1-1.25 16-.7 7.9-2.6 15.85-3.05 11.9-9.05 22.45-5.95 10.6-13.5 20.3-7.55 9.7-15.35 18.9l-.4.5q-.2.3-.45.55l-.5.6q-.45.5-.8.95-.45.55-.95 1.15-.5.6-1 1.15.3.25.7.5l.45.3q.25.2.55.4l1.45 1.05q.7.55 1.3.95.25-.3.55-.65l.35-.45q8.75-10.9 17.2-22.25t14.9-23.8q5.8-11.7 7.95-23.7 2.2-12 2.25-24.95 0-1.65.05-3.3.05-1.7-.05-3.3v-.45q0-.1-.25-.25-.2-.1-.5-.15-.3-.1-.55-.05-.4.15-.45.7z" id="c"/><path fill="#FFF" d="M943.75 492.5q-1.45-10.5-9.8-21.05-8.35-10.5-22.65-18.05-14.35-7.5-33.8-9-15.45-.8-29.3 4.55-13.9 5.3-23.45 14-9.6 8.65-12.15 17.95-6.2 20.7-7.6 47.1-1.35 26.35 1.15 53.45 2.5 27.05 7.95 49.95 5.45 22.9 12.9 36.7 11.7 7.9 37.45 11.1 25.8 3.2 55.8 2.65 29.95-.55 54.4-3.9 24.4-3.35 33.4-8.5 4.6-3.2 7.65-11.85 3.05-8.7 3.95-19.6.9-10.9-.95-20.85-1.85-9.95-7-15.65-6.65-2.85-19.9-5.1-13.2-2.25-27.55-4.05-14.3-1.85-24.3-3.35l-7.5-1.5-2.65-1.4q5.45-26.3 8.9-44.65 3.4-18.4 4.7-30.25 1.25-11.9.35-18.7z" id="d"/><path fill="#0081c6" d="M1144 461.15l-5.2-2-5.4-1.05-10.9-.5-10.9.7-13.5 1.95-21.2 5.15-5.15 1.7-10.1 4.2v.05l-2.4 1.35-8.75 6.75-16.75 18.25-8.35 10.85-12.5 18.05-.5.6-.25-.4-.4-.05-.4.2-.1.2v.25l.15.9-4.95 5.7-.15.4.2.4.4.15.25-.05.2-.15 4.3-4.95 5.8 40.5 13.05 104-.4 70.2.25 2.7v.1l.7 2.45 1.2 2.3 3.2 3.95 3.85 3.3 8.6 5.25 6.95 3 12.15 3.15 9.95 1.2 7.9-.35 10.4-2.4 5-1.9 7.1-3.8 4.2-3.4V760l.05-.05 1.6-2.15 2.7-4.7 20.1-46.85 4.15-12.75v-.05l4.75-24.4 8.1-49.1 5-35.55v-.05l2.75-29.9.15-32.85-5.15-39.7-1.45-5.15-2-4.95-4-6.95-1.95-2.15-2.35-1.55z" id="e"/><path fill="#FFF" d="M968.05 499.25q-6.2 12.6-6.05 19.3.2 4.45 3.55 8.45 3.35 4.05 9.95 12.3t16.4 25.45q5.4 9.75 11.55 23.3 6.15 13.6 11.8 28.2 5.65 14.55 9.5 27.35 3.85 12.75 4.6 20.9.95 11.95 1.9 28.3t2.3 31.45q1.4 15.1 3.5 23.25 2.3 3.55 7.65 8 5.35 4.45 13.4 7.7 8 3.25 18.35 3.25 14.8-.45 22.35-3.15 7.5-2.75 10.1-5.7l2-2.45.75-1.55q5.95-16.6 12.35-35.8 6.35-19.15 11.4-37.25 5-18.05 6.8-31.35 5.4-44.65 3.9-78.55-1.5-33.95-6.45-56.35-4.9-22.4-9.7-32.5-4.95-10.6-15.55-19.7-10.6-9.05-24.2-15.6-13.6-6.55-27.5-9.55-13.9-3-25.45-1.5-14.55 2.4-28.05 12.9-13.55 10.5-24.25 24.4-10.75 13.9-16.9 26.5z" id="f"/><path fill="#FFF" d="M743.05 735.4l2.4 26.55 5.3 56.55q3.05 32.05 5.35 56.5l2.45 26.15q5.05 6.6 17.15 11 12.1 4.35 27.3 5.9 15.25 1.55 29.8-.45 14.6-1.95 24.7-8.05L863 903q5.2-6.15 12.15-14.75t12.55-16.5q5.6-7.9 6.65-11.9l.05-7.5-1.2-13.55q-1.8-16.65-4.6-36.7-2.8-20.05-5.05-34.85l-2.35-15.65q-7.45-13.8-26.3-19.4-18.85-5.55-41.65-5.6-22.85-.05-42.25 2.8-19.4 2.9-27.95 6z" id="g"/><path fill="#0081c6" d="M943.65 840.8q-1.05-2.05-1.45-3.45-.75-2.75-1.15-5.5-.35-2.8-.9-5.5l-.5-1.5-.55-.4q-.6.1-1.05 1.35-.4 1.2-.4 2.45.15 3.15 1.1 7.5.95 4.35 3.1 7.95 2.1 3.6 5.8 4.45 3.45.45 5.8-2.6 2.35-3 3.65-7.05 1.3-4.05 1.65-6.75.15-1 .2-2.9.05-1.9-.25-3.6-.3-1.75-1.25-2.3l-.2-.05q-.15 0-.2.05-.35.35-.45.85l-.15.7q-.25 1.9-.3 3.9 0 2-.35 3.95-.3 1.7-1.15 4.5-.85 2.8-2.15 5.3-1.3 2.45-3 3.1-1.75.45-3.3-.95-1.5-1.45-2.55-3.5z" id="h"/><path fill="#FFF" d="M923.4 167.5q-7.3 4.55-12.05 9.45l-3.75 4.25-1.65 2.85-.5 2.95-.15 4.9q0 5.8.3 12.55.3 6.75.65 11.65l.35 5.15 3.1.4q2.9.45 5.9.75l2.3.15 1.1-.1q6.6-9.4 10.15-14.5 3.55-5.1 5.2-8.2 1.65-3.1 2.5-6.45 1-3.95 1.75-11 .8-7.05.95-13.2l-.1-4.9-.55-2.4q-8.2 1.15-15.5 5.7z" id="i"/><path fill="#FFF" d="M849.85 162.55l-1.6-2.25q-9.45 6.35-16.05 16.6-6.6 10.3-10.05 19.9-3.45 9.65-3.4 13.95.35 2.7 3.35 8.4 3 5.75 6.9 12.05 3.85 6.35 6.8 10.85l3.05 4.7 3.85-1.85q3.6-1.65 7.2-3.5l2.8-1.55 1.2-.9q2.9-13.8 3.9-23.65.95-9.85.75-15.95-.25-6.05-.95-8.65-.75-3-2.4-9.95-1.65-6.95-3.55-13.25l-1.8-4.95z" id="j"/><path fill="#0081c6" d="M683.9 763.35q-6.6.4-13.15.5-4.2-.15-8.5-.15-4.35-.05-9 .3-.7 0-1.75.1-1.05.05-1.8.85l-.2.1q-.15.05-.25.15l-4.05 1.25-1.05.8-.35.95q-.05 2.05 2.85 4.4 2.9 2.35 6.35 4.25 3.45 1.9 5 2.6 7.9 3.4 17.3 4.6 9.4 1.2 19.6.4 10.25-.85 20.65-3.45 1.95-.2 3.65-.55 1.65-.4 2.5-.6 8.6-2.1 17.65-6.3 9.1-4.25 17.65-9.65 8.55-5.4 15.55-10.9.75-.55 1.35-1.05.55-.45.85-1 2.2-1.8 4.1-4.3 1.9-2.5 2.55-4.8.65-2.3-.95-3.4-.55-.2-1.2-.1-.65.1-1.05.6-1.8-.2-4.15 1.6-2.35 1.8-4.15 3.75l-1.95 2.1q-12.5 11.1-28.4 18.9-15.95 7.75-33.15 11-17.25 3.2-33.55.75-3.5-.55-7.35-1.8-3.9-1.25-6.9-3.2l-.65-.25q-.55-.15-.8-.55 1.15-.05 2.55-.15 1.45-.05 2.7-.1.9.1 1.5.15l.7.05q22.65 2.15 40.95-3.8 18.25-6 33.35-18.9 15.1-12.95 28.15-31.65 1.2-1.6 2.65-3.4 1.45-1.8 2.15-3.6.7-1.75-.3-3.2.5-1.3-.1-2.1-.55-.75-2.35-1.2h-.05q-.35-.5-1-.65-.7-.1-1.25.05-1.15.65-2.25 1.9t-1.9 2.35l-1.05 1.5q-7.45 9.55-14.9 18.55t-15.95 17.25q-3.35 2.45-7.5 5.1-4.15 2.65-8.35 5.05-4.2 2.35-7.75 4.05-2.4.9-4.85 1.65-2.5.75-5.05 1.35-6.75 1.45-13.35 1.85z" id="k"/><path fill="#FFF" d="M661.65 767.35l-12.75-1.2q-1.6 0-2.6 1.1-1.05 1.1-1.1 2.55-.05 1.5 1.3 2.7l2.6 1.4 5.45 2.2q6.9 2.6 18.4 4.6 11.45 2 26.2 1.2 14.7-.75 31.5-6.45 11.65-4.35 21.95-12.65 10.35-8.3 18.3-17.35 8-9.05 12.6-15.55l4.8-7.25-1.05-1.4-2.9-2.8q-3.8-3.5-8.4-7.55-4.65-4-7.35-6.3-2.1 3.35-7.35 10.9Q756 723 748.5 732q-7.45 9.05-16.15 16.9-8.75 7.85-17.75 11.9-13.4 5.4-27.85 6.4-14.4 1-25.1.15z" id="l"/><path fill="#0081c6" d="M1065.35 476.45q-4.7-4.8-10.2-9.3-5.25-4.85-11.3-9.3-6-4.5-12.8-8.55l-.4-.6q-.2-.25-.4-.45-.45-.1-.8-.15-.35-.05-.6-.05l-2.65-1.4q-1.5-.8-2.65-1.45-.55-.35-1.1-.25-.55.15-.15 1.05l.55.45 1.4.95q1.85 1.25 4.5 3l.25.7q.1.4.25.85 2.75 8.15 6.25 16.05 3.45 7.95 6.35 16.05 5.6 17.2 7.45 34.5 1.85 17.3 3.35 34.5 1.55 17.25 6.15 34.15 5.65 20 5.8 40.05.1 20.1-4.5 39.8-4.55 19.65-13 38.4l-1.65 2.95q-1.4 2.45-3.1 5.95-1.75 3.5-2.85 7.05-.6.85-1.1 1.65-.45.85-.6 1.6.25.05.5.05l.5-.1q-.2 1.65 0 3.05.2 1.35 1 2.3-.5.8-.9 1.5-.35.75-.45 1.35.95 0 1.9-.95.9-.95 1.25-1.4 11.7-12.15 21.2-29.6 9.55-17.5 16.35-37.45 6.75-20 10.2-39.6 2.35-8.25 3.9-17.1 1.6-8.9 2.35-17.95 1.55-8.65 2.25-17.45.7-8.75.35-16.05-.05-1.25-.15-2.55-.1-1.3-.25-2.7-.65-9.8-3.75-21.55-3.1-11.7-8.25-22.8-5.15-11.15-11.8-19.2-3.95-5.15-8.65-10m-17.4 239.45q2.55-2.9 4.85-5.9-.9 1.3-1.85 2.6-.95 1.35-1.95 2.7-.45.45-1.4 1.6-.95 1.1-.95 2.2.15.05.4.1h.3q.1 0 .25-.15.15-.1.35-.3l.05.1.3.05q-1.1 1.5-2.2 3.05l-2.2 3q-.4.5-1.45 1.7-1.05 1.15-2.15 2.6-.25-1.35-.05-2.85t.7-2.95q.6-.5 1-1l.7-.7q2.75-2.9 5.3-5.85m32.7-63.1q-.528 1.736-1.1 3.45l1.05-3.4q.528-1.736 1.05-3.5-.475 1.75-1 3.45m-181.7 133.4l1.75.3q2.05.3 4.1.45 2.1.2 4.15.25-.2.35.25.55.45.2 1.45.35.4.05.75.1.4.05.85.1-1 .1-2 .15-1 .1-2 .15l-1.65.1q-1.25.1-2.25.55-.1 0-.3.2-.2.15-.2.3.25 1 1 1.1.75.1 1.75.05 11.55-.45 22.45-2.1 10.95-1.65 22.3-3.95.7-.1 2.35-.5 1.65-.4 2.5-1.25 0-.3-.25-.4-.2-.1-.35-.1l-.35-.05q-.35 0-.8.05-.4-.1-.85-.05-.45.05-.7.05-8.35 0-16.7.9-8.3.9-16.65 1.55-8.3.65-16.6-.2l-1.65-.2q-1.25-.15-2.35 0l-.65.75-.05.45.7.35m41.9-1.15q.2-.05.4-.15.2-.05.35-.15.4 0 .8-.05l.75-.05q-.4.05-.65.1t-.45.1l-.6.1-.6.1M746.95 525.2l-.3-2.3q-.3-1.75-.9-3.1-.25-.25-.55-.2-.3 0-.5.3l-.2 1-.1 2.05q-.05 2.5 0 5.25v3.7q-.4 8.85.15 16.75.6 7.9 1.65 15.65 1.05 7.8 2.05 16.25.65 5.45 1.6 11.1.95 5.65 1.85 11.35.05.65.15 1.25.1.6.2 1.15.4 2.55.65 5.1.3 2.5.5 4.95-.1.9-.1 1.85-.05.95.05 1.8 0 .6-.05 1.2 0 .65.1 1.3-1.2 4.65-2.2 9.3-1 4.65-1.7 9.25-1.9 10.9-4.2 21.75-2.35 10.9-3.25 21.85-.65 9.75.65 17t4.35 14q3.1 6.75 7.85 14.85.15.25.4.8t.6 1.25q0 .25.05.55.05.25.2.5l.25-.05q.45.8.95 1.45.55.7 1.1 1 .3-.15.3-.5v-.55q0-.45-.15-1.1-.2-.6-.55-1.35 1.3-1.6 2-3.7l.8-2.7q1.4-6.35 2.6-13.05 1.15-6.65 2.15-13.05 2.5-15.4 4.95-31.25 2.45-15.8 3.95-31.3 1.1-13.05-1.05-26.6-2.2-13.55-6.85-26.7.05-.6 0-1.15 0-.55-.15-1-.15 0-.3-.1-.2-.1-.25-.05l-.1.05q-3.2-8.7-7.25-16.85-4-8.15-8.55-15.45l-1.1-1.65q-.9-1.3-1.7-2.4 0-.1-.2-.2-.2-.05-.35 0 .2-4.7.4-9.45.25-4.75.1-9.8z" id="m"/><g id="n"><path fill="#FFF" d="M955.75 420.8q-32.35 1.95-74.45 4.9-42.1 3-73.95 5.35l-33.55 2.45-6.15 9q-5.85 8.75-12.75 23.3t-10.45 32.15q-3.25 18 .4 46.1 3.6 28.05 13.25 66.4-.8 6.15-2.9 18.9-2.15 12.8-4.45 27.5-2.35 14.75-3.8 26.75-1.45 12.05-.9 16.6.9 6.2 4.65 17 3.8 10.75 10.3 22.85 6.5 12.15 15.7 22.35 9.15 10.25 20.95 15.4 14.6 5.8 36.3 8.2 21.75 2.35 46.25 2.2 24.5-.2 47.4-2.1 22.9-1.9 39.9-4.7 20.25-3.4 35.8-13.2 15.5-9.75 27.6-24.6 12.1-14.8 22.1-33.25 5.6-10.1 11-23.3 5.45-13.15 10.15-28.2 4.7-15.1 8.05-30.9 3.5-16.85 5.25-33.15 1.7-16.25 1.8-30.6.1-14.35-1.4-25.35-4.1-26.05-18.75-47.6t-32.4-37.35q-17.7-15.8-31.05-24.7l-14.95-9.75h-10.05l-24.9 1.35z"/><path fill="#0081c6" d="M1027.1 329.9q-1.45 1-1.4 3 .1 2 .4 3.7-1.25.65-1.3 3-.1 2.3.25 4.5l.4 2.4q.5 5 .3 10.2-.25 5.2.6 10.6 1.2 7 .5 15.15-.65 8.15-2.75 16-2.15 7.85-5.3 13.9l-.95 1.8-.3.9.5.35 1.4.1q.95-.9 1.75-2.25l1-1.8q1.2-2.6 2.2-5.4 1-2.75 2.4-4.8 1.95-2.7 3.15-7.35 1.25-4.65 1.7-9.55.5-4.95.1-8.6-.15-1.5-.2-3-.05-1.5 0-3.05.6-2.8.6-5.4 0-2.65-.2-5.85-.2-4-.1-7.35.05-3.35.25-7.15l.1-2.05q.05-1.75-.3-3.55-.3-1.85-1.35-2.55-.2.05-.35.15-.15.05-.3.15-.25-2.2-.65-3.65-.35-1.5-.9-1.95-.15-.15-.5-.35-.35-.2-.75-.25z"/></g><path fill="#0081c6" d="M1051.6 302.65q-.5-1.15-1.7-1.2-1.2-.1-2.5.3-1.35.4-2.35.75-3.4 1.1-4.6 4.7-1.15 3.6-1.15 7.95 0 4.3.05 7.55-.1 5.4-.35 10.5-.25 5.1 0 10.55.6 10.65.5 21-.05 10.3-.45 20.95-.05 1.6 0 4.65.05 3.05.35 6.4-.2.05-.35.1-.2.1-.45.2l-.25.4q-.2.35-.6.6l-1 .7-.55.5q-.25.35-.3 1.05-.35.9-.5 1.85-.15.9-.25 1.45-.15.55-.3 1.15-.2.6-.45 1.1l-.15.5q-.15.35-.25.65-1.4-.4-2.45 1.35-1 1.75-1.6 3.75l-.65 2.2q-.6 1-1.5 1.7t-1.9 2.5q-1.05 2.15-2 3.95-1 1.8-1.95 3.5.5-1.75.45-3.2-.1-1.5-1.1-2.3-.75.55-1.35 1.75-.65 1.2-1.1 2.4-.4 1.15-.65 1.65-1.1 2.25-3.55 6.4-2.4 4.15-5 7.95-2.65 3.85-4.4 5.15l-.7.1q-.65.1-1 .5-.3.1-.25.4l.05.35q0 .15.35.3l.3.25q-.4 1.05-1.5 2.35-1.05 1.3-2.4 2.75-9 1.2-18.5 2.7-9.5 1.5-18.85 3.65-9.35 2.2-17.8 5.5-6.75 2.65-13.5 5.15-6.8 2.5-13.5 5.05l-2.1 1.05q-1.55.85-2.65 1.95-.05.25 0 .55 0 .25.1.5-.3.2-.25.5.1.25.35.55 2.5 2.7 9.3 4.05 6.8 1.4 14 1.85 7.2.5 10.9.6 16.4.45 30.7-4.6t27.05-14q3.85-2.15 7.3-4.7 3.45-2.55 6.6-5.8 5.8-5.45 10.25-12.85 4.4-7.4 7.85-17.5.2-.35.35-.7l.4-.7q5.25-9.95 8.65-22.45 3.45-12.45 5.45-25.5 2-13 3.1-24.6.15-1.15.4-3.2.2-2 .15-3.6.25-5.45-.05-10.75-.3-5.25-.85-11-.2-3.15-.55-7.15-.35-4-.95-7.9-.65-3.9-1.85-6.75z" id="o"/><g id="p"><path fill="#0081c6" d="M980.9 222.3l.4-1.3q.25-.95.1-1.7-.5-.4-.7 0-.2.45-.35 1.05-1.15 3.7-2.65 7.25-1.5 3.6-3.35 6.95-2.1 3.95-4.55 7.6-2.45 3.7-5.25 7.1-.3.3-.95 1-.7.75-.9 1.45l.15.1q-.35.3-.55.6-.25.35-.3.7.3.3.7.15.4-.15.65-.35 2.45-1.45 5.3-4.45 2.85-3.05 5.5-6.45 2.6-3.4 4.2-5.85.15-.2.45-.65.3-.5.6-1.05.2-.35.3-.75.1-.35.05-.7-.45-.25-.75.15t-.5.8q-.15.2-.25.4l-.3.4q.35-.85.45-1.65.05-.8-.35-1.4-.35-.2-.6-.1t-.45.4q1.2-2.5 2.2-4.95.95-2.45 1.7-4.75m-14.3 26.2l.25-.3h.05l-.3.3z"/><path fill="#FFF" d="M966.85 248.2l-.25.3.3-.3h-.05m45.6-63.95q-2.9 1.1-4.65 4.1-5.3 9.6-9.85 17.75-4.5 8.15-9 15.15-4.45 7-9.55 13.2-.3.55-.6 1.05-.3.45-.45.65-1.6 2.45-4.2 5.85-2.65 3.4-5.5 6.45-2.85 3-5.3 4.45-.25.2-.65.35-.4.15-.7-.15.05-.35.3-.7.2-.3.55-.6l-.15-.1q.2-.7.9-1.45.65-.7.95-1 2.8-3.4 5.25-7.1 2.45-3.65 4.55-7.6-2.9-1.1-7.15-2.85t-9-3.85q-4.7-2.1-9-4.3-6.95-3.95-20.9-7.25-14-3.3-33.35-1.7-19.3 1.55-42.4 12.4-11.7 5.9-19.2 12.5-7.55 6.6-11.4 11.85l-4.65 6.95q-4.35 8.75-9.45 26.95t-9.7 38.5q-4.6 20.25-7.4 35.15l-2.1 11.7-.5 5.35 1.2 3.65 3.1 6.75q4.05 8.25 13.25 21.1 9.2 12.85 25.1 28.85 13.95 13.5 28.95 22.25 15 8.7 28.05 13.55 13.05 4.85 21.2 6.75 22 5.1 41.9 2.45 19.95-2.6 34.85-9.1 14.9-6.45 21.9-12.9 14.8-13.7 24-35.6 9.2-21.9 13.1-48.4 3.85-26.55 2.6-54.2-1.8-34.2-6.7-61.8-4.9-27.65-10.2-46.15-5.35-18.5-8.3-25.3-1.35-2.95-4.1-3.85-2.75-.9-5.6.25z"/></g><path fill="#FFF" d="M789.2 341.6q-3.4 5.75-11.45 18.2-8.05 12.45-17.8 27.65t-18.3 29.35q-8.55 14.1-12.85 23.2l49.1 7.45q46.65 6.55 107.9 14.7 61.2 8.1 107.35 13.7l35 3.95 12.65.65-7.8-9.85q-5.8-7.2-13.15-15.8-7.35-8.55-13.8-15.45-6.5-6.85-9.8-8.9l-35.8-15.85q-31.25-13.5-70.8-30.35-39.6-16.85-69.25-29.4l-31.2-13.25z" id="q"/><path fill="#0081c6" d="M840.25 295.25q-.35.05-.6.4-.25.3-.35.8-.05.25-.1.6l-.1.7q-.05.65-.05 1.4v1.3q.05 4.3.35 6.75.3 2.5.9 4.75 1.2 4.9 3.35 8.6 2.2 3.7 5.85 4.8.65.25 1.35.25.7 0 1.15-.1 3.2-.85 5.8-3.55 2.55-2.65 4.2-6.4 1.65-3.7 2.2-7.55l.1-.7q.1-.55.1-1.2.2-1 .15-1.8-.05-.85-.4-1.4-.45.15-.65.7-.15.55-.2.8-1.2 4.15-2.2 7.35-.95 3.25-2.75 5.6-1.75 2.35-5.45 3.85-2.65.85-4.95-2.1-2.3-3-3.9-7.55-1.6-4.6-2.2-8.45l-.4-1.8-.3-1.9q-.15-1.3-.35-2.3-.25-.95-.55-1.85z" id="r"/><path fill="#FFF" d="M915.85 293.65q-.95-9.75-6.65-17.4-5.7-7.65-18.65-10.15-13.2-1.9-21.3 3.85-8.15 5.75-12.65 14.6-4.45 8.8-6.65 16.15 8.9 1.05 20.1 2.9 11.2 1.85 23 4.1 11.75 2.2 22.35 4.35 1.35-8.7.45-18.4z" id="s"/><path fill="#0081c6" d="M1058.25 803.1q-1.25-1.8-2.3-3.55-.05.6 0 1.05v.65q.1 3.4.4 6.65.3 3.25.2 6.75-.05 1.5-.05 3-.05 1.55 0 3-.4-2.25-.9-4.55-.45-2.3-1.05-4.65-.1-.45-.25-.9-.15-.5-.35-1-.4-1.1-.9-2.3-.5-1.15-1-2.35l-.3-.7q-.15-.3-.25-.6l-.1-.2q-1.1 0-2.2-.15t-2.15-.45q-3.5 16.3-6.55 31.9-3.1 15.6-6 31.3-2.95 15.7-6.05 32.25-.25.55-.5 1.15-.2.55-.45 1.15-.95 1.35-1.95 2.65-1 1.3-2.1 2.6l-.2.25-1 .35q-2.5.55-5.05 1-2.55.45-5.2.7l-3.7.15q-3.15.15-6.1.95-2.95.75-2.85 2.6.25.3.65.4.35.05.75 0 .25.2.55.3.3.15.6.2 1.45.4 4.95-.05 3.55-.4 7.8-1.25 4.2-.9 7.75-1.85.75.35 2.1.05 1.4-.35 2.95-1.3 2 .9 4.1-.5 2.1-1.35 3.7-3.45 1.65-2.1 2.2-3.35 1-2.3 1.9-4.6.9-2.3 1.75-4.6.45-.4.9-1.05t.9-1.55q3.3-6.9 5.9-13.95 2.6-7.1 5.1-14.2 2.55-7.05 5.55-14.05l.25-.2q.1-.15.2-.45.1-.3.2-.75.2-.55.3-1.05.1-.5 0-.9.35-2.45.65-5.45.25-3.05.4-5.6l.15-3.45q-.1-5.25-.3-10.5-.2-5.3-.3-10.6v-.55q-.05-.3-.05-.7-1.4-1.85-2.7-3.7m-8.55 32.7l.05 2.5q.1 1.9.5 3.75-2.15 8.45-5.5 17-3.3 8.6-6.4 16.9 2.8-13.95 5.45-27.75 2.65-13.8 5.3-27.9.2 3.85.45 7.75t.15 7.75z" id="t"/><path fill="#FFF" d="M887.3 748.6l2.05 12.55q1.95 11.85 4.65 27.9 2.7 16 5.1 29.25l3.35 16.8 6.7 12.6q5.75 9.85 13 21.65 7.25 11.8 12.65 20.55l5.8 9.35q10.15 5.85 23.3 8.7 13.15 2.85 26.65 3.05 13.55.2 24.85-1.85 11.35-2.1 17.9-6.15l3.5-8.85q3.35-8.25 7.85-19.45 4.45-11.2 8.1-20.75l4.35-12.7.35-15.55q0-12.75-.25-28.5t-.5-27.6l-.3-12.75q-8.75-2.85-31.25-6.35-22.45-3.5-50-5.9-27.6-2.4-51.7-1.85-24.1.55-36.15 5.85z" id="u"/><path fill="#0081c6" d="M938.3 828.5q.2 3.1 1.2 6.95 1 3.8 2.75 6.95 1.7 3.15 4.05 4.3 4 1.55 6.85-1.1 2.85-2.65 4.45-7.45 1.6-4.75 1.75-9.5.05-1.1-.1-2.65-.15-1.55-.85-1.55-.15.3-.3.65l-.15.5q-.6 2-.85 4.2-.3 2.15-.8 4.3-1.15 4.45-3.3 7.15t-4.75 2.35q-2.55-.35-4.9-4.95-1.2-2.6-1.95-5.7-.8-3.05-1.8-5.85-.6-1.4-1-.55-.35.8-.3 1.95z" id="v"/><path fill="#A6CE38" d="M957.25 636.4l-56.85-.25 27.95 211.35 28.9-211.1z" id="w"/><path fill="#AED044" d="M1110.2 528.85l-.2-.1-.3-.05-.4-.2q-.25-.05-.5-.15-.25 1.1-.3 1.9-.05.75.2 1.05l.2.15q-.25.7-.15 1.35.1.65.65 1.15.25-.1.5-.15.3-.1.55-.2-.15.35-.15.75.05.35.35.75l.15-.05q3.7 15.1 13.35 34.6 9.7 19.5 23.1 36.55 13.35 17 28.2 24.75.55.3 1.35.7.75.4 1.6.65.5 1.15 1.4 1.75.9.6 2.4.2.45-1.85.5-4.45.05-2.55.1-4.1-.3-.3-.55-.75-.2-.45-.4-1.1-.8.05-1.65-.95-.9-.95-1.6-3.05-.2-.65-.45-1.3-.2-.65-.45-1.3-7.5-23.75-19.85-45.15-12.35-21.45-33.8-36.05-1.05-.7-2.15-1.35-1.05-.7-2.2-1.35l-1.4-.8q-.75-.4-1.45-.8-.3-.15-.55-.3l-.55-.25-.7-.4q-.35-.15-.65-.35l-.65-.3-.6-.3-1.65-.6q-.55-.15-1.3-.4m224.3-364.5q-.85 2.45.3 5.4 1.2 2.9 1.75 4.05 10.65 34.05 4.85 66.2-5.8 32.15-30.05 62.4-1.25 1.15-2 1.95l-.95.95q-23.5 20-49.15 36.05-25.7 16.05-50.85 33.8l-1.45 1q-1.15.8-1.85 1.65-1.85 1.35-4.1 2.95l-2.8 1.95q-1.1.85-2.45 1.95t-2.95 2.4q-9.35 6.6-15.6 12.7t-10.55 12.6l-2.5 2.9q-1.2 1.4-2.35 2.85-3 3.75-5.15 7.2-2.2 3.45-3.3 6.4-1.45 2.35-2.85 4.8-1.4 2.5-2.8 5.1-9.35 17.85-17.9 36.8-8.6 18.95-16.25 37.2-.15.25-.35.75l-.45 1.05.3.15q.7.4 1.45.85l1.5.8.95.55.9.5q.45.25.9.55.4.2.75.4l.7.45q.75.45 1.5.85l1.5.9q.45.3.9.55.45.3.9.55 1.25.8 2.45 1.6 1.25.75 2.45 1.55 18 11.8 31.25 26.55 13.25 14.8 20.95 33.4 1.65 3.9 2.95 8 1.35 4.1 2.45 8.35 6.6-22.7 17.55-46.4 10.95-23.65 23.45-46.35 12.5-22.65 23.7-42.35l-8 2.1q-6 1.65-11.9 3.2l-7.75 1.9q-2.95.45-5.55.65-2.6.2-4.85.15h-.05l-4-.45-1.25-1.05q.1-1.4 1.85-3.5.45-.45 1.15-.55.65-.05.9-.05 4.25-.6 8.15-1.2 3.9-.6 7.55-1.3 2.7-.5 5.25-1.05t5.05-1.1q8.25-1.95 16.1-4.5 7.8-2.45 16-5.6 8.4-3.95 16.75-8.4 8.4-4.45 16.45-9.35.15.15.25.3l.3.3q.5-.6 1.1-1.15.6-.5 1.3-1.05l1.85-1.35q1.9-1.45 3.75-2.85l3.7-2.9q1.4-1.05 2.8-2.15l2.7-2.2 2.05-4.05q1-2 1.85-4.2.4-.9.7-1.9.3-.95.6-2l.2-.8q.1-.45.2-.85.25-1.2.45-2.35l.4-2.3q.15-.8.25-1.6t.2-1.55q.55-4.7.1-8.7-.45-3.95-2.15-7.05-2.4-4.3-7.95-6.45-5.55-2.15-15.15-1.6-3.2.4-9.1 2.1l-7.2 1.8q-4.1-.9-3.05-2.85 1-2 2.9-2.8.45-.3 1-.6l.75-.4q5.2-2.15 10.95-2.8 5.8-.65 11.35-.35 14.6 1.1 19.75 10.55 5.15 9.45 3.65 21.75 0 .3-.05.65-.05.35-.1.65-.25 2.2-.75 4.4-.45 2.15-1.05 4.25 7-6.15 13.35-12.7 6.4-6.55 11.9-13.7 2.85-3.65 5.4-7.55 2.6-3.85 4.85-7.9 4.25-7.55 8.3-14.85 4-7.25 8.1-14.4 2.8-7.25 5.05-14.55 2.2-7.3 3.8-14.7-1-2.9-2.65-5.4-1.65-2.5-4-4.4-1.15-.9-2.55-1.65-1.35-.75-2.95-1.3-1-.4-2.1-.65t-2.3-.45q-1.4-.2-2.9-.25-1.5-.05-3.15 0l-3.75.5q-2.85.45-5.25 1.1 1 4.6-2.1 5.2-3.1.6-5.7-1.55-2.6-2.2-.05-5.95.45-.4 1-.75l.7-.5q4.3-2.2 9.55-3.2 5.25-.95 10.1-.5l.8.1q1.25.15 2.4.35 1.15.2 2.25.45 1.95.5 3.65 1.2 1.75.65 3.3 1.55 2.3 1.3 4.2 2.95 1.85 1.7 3.3 3.7 5.6-33.3-3.3-64.55-8.9-31.3-35.3-56.65-1.9-1.85-5.8-5.55-3.95-3.7-7.85-6.6-1.15-2.75-2.4-4.9-1.25-2.15-2.5-3.45-.8-.95-1.55-1.5-.8-.55-1.95.7z" id="x"/><path fill="#A6CE38" d="M1072.2 375.55l-4.05-17.8q-26-12.55-57.2-16.7-31.2-4.15-54.1-4l-24 .5-6.8 14.25q-6.4 13.4-13.6 28.5-7.2 15.05-10.05 21.15l180.85 23.65-3.85-17.3q-3.6-16.05-7.2-32.25z" id="y"/><path fill="#A6CE38" d="M1001.3 267.15q-15.6 1.8-25.15 7.4-9.55 5.55-13.9 10.55-4.6 5.15-13 19.85-8.4 14.7-15.2 28.7l-5.1 11.25-1.65 5.8q1.5 5.7 11.65 11.85 10.1 6.15 24.4 11.1 14.25 4.9 28.2 6.9 16.55 2.1 33.15.8 16.55-1.3 28.7-5.5 12.15-4.25 15.35-10.85l-1.4-28.15q-1.5-20.5-7.7-40.2-6.2-19.7-20.15-25-22.55-6.3-38.2-4.5z" id="z"/><path fill="#A6CE38" d="M1099.4 333.3q11.45-10.2 19.2-22.3l-3.55-2.1-10.1-4.2q-13.4-5.25-36.75-7.1l2.95 10.5q3.05 9.8 6.7 21.3 3.65 11.5 5.55 17.3l16-13.4z" id="A"/><path fill="#A6CE38" d="M793 728.5l11.5 6.7q11.3 6.35 30.65 14.8 19.35 8.4 43.85 15l10.25-22.7q9.2-21.4 21.05-49.5 11.85-28.05 20.8-49.35l9.4-22.45-25.4-11.05L793 728.5z" id="B"/><path fill="#A6CE38" d="M925.95 432.95l-24.45 3.1-9.45 2.05q-2 9.35-5 29.7-3 20.4-7.65 47t-11.6 54.6q-8.4 37.55-26.8 76.8-18.4 39.2-59.2 75l12.6 1.85 23.35-2.45q28.75-4.55 70.05-17.05t86.3-32.35q52.95-24 83.6-48.35 30.65-24.3 44.3-48.7 13.65-24.4 15.6-48.55 2.15-25.45-.45-50.4-2.6-25-6.1-41.95l-4.2-18.1-33.5 2.9q-31.8 2.95-73.65 7.1-41.85 4.15-73.75 7.8z" id="C"/><path fill="#0081c6" d="M1010.55 296.3q-.2-.05-.3 0-2.05 2.15-.05 8.2 1.95 6.1 3.55 8.8 5.35 8.9 8.9 6.8 3.6-2.05 5.2-10.65l.55-3.3q.35-2.9-.85-4.3-.3-.1-.6 0-.25.15-.4.3l-1.2 4.65q-.75 3.9-1.3 5.55-.2.65-.95 2.15-.8 1.55-1.7 2.25-.15 0-.3-.1l-.2-.15q-2.35-1.4-4.8-7.55-2.45-6.15-3.35-8.95l-.55-1.65q-.45-1.2-1.25-2-.2 0-.4-.05z" id="D"/><path fill="#A6CE38" d="M1032.8 313.4l-.75-4.85q-.85-4.45-3.65-8.95-2.8-4.45-8.5-4.7-6.65.35-9.9 5.9-3.25 5.5-3.9 12.4l26.7.2z" id="E"/><path fill="#AED044" d="M1010.9 351.45l-2.1-1.5q-35-26.75-71.05-50.65-36.05-23.85-68.1-54.6l-1.25-1.45q-1-1.2-2.65-3.05Q834.5 192.65 831.8 140q-2.7-52.6 20.05-110.1 1-1.9 3.4-6.9 2.35-5 1.55-8.95-1.6-2-2.85-1-1.3 1-2.65 2.65-2.2 2.35-4.5 6t-4.55 8.35Q835.7 35.25 829 41.8t-9.95 9.8q-45.1 44.8-64.6 97.55-19.55 52.7-17.4 107.2 2.6-3.45 5.75-6.4 3.2-3 7-5.4 2.5-1.6 5.25-2.9 2.8-1.3 5.85-2.35 1.7-.55 3.5-1 1.8-.45 3.7-.85.35-.05.65-.1.35-.1.65-.15 7.45-1.25 15.25-.15 7.85 1.05 14 4.3l.95.65q.8.6 1.4 1.2 3.2 6-1.2 9.85-4.35 3.85-9 3.15-4.65-.7-2.2-8.4-3.55-.8-7.85-1.25l-5.6-.4q-2.5.05-4.8.3-2.3.3-4.45.75-1.85.4-3.6.95-1.75.55-3.35 1.3-2.5 1.05-4.75 2.45-2.25 1.4-4.2 3.05-3.95 3.4-6.95 7.7-2.95 4.3-5.05 9.2 1.05 12.05 3.05 23.9 1.95 11.9 4.85 23.55 4.9 11.45 9.65 23.05 4.8 11.6 9.8 23.75 2.7 6.45 5.85 12.6 3.2 6.1 6.85 11.9 7 11.2 15.5 21.4 8.45 10.25 17.95 19.65-.55-3.4-.8-6.95-.3-3.55-.3-7.15v-1.1-1.1q.05-20.15 9.7-36.35 9.65-16.2 32.15-19.55 8.55-1.05 17.25-.6 8.65.45 16.15 3.5l1.05.55q.85.45 1.45.95 2.7 1.05 3.9 4.25 1.2 3.2-5.2 5.1l-10.6-2.3q-8.7-2.15-13.5-2.5-14.55.1-23.45 4.25-8.9 4.1-13.3 11.5-3.2 5.3-4.65 11.95-1.4 6.65-1.5 14.3v2.6l.1 2.6q.05 1.85.15 3.8.1 1.9.25 3.85.1.65.15 1.35.05.65.15 1.3.2 1.75.5 3.3.3 1.6.7 3.05.9 3.55 2 6.75 1.15 3.2 2.35 6.5 1.85 1.7 3.75 3.35 1.9 1.65 3.85 3.3l5.1 4.4q2.55 2.15 5.15 4.3.65.5 1.3 1.05.6.5 1.25 1.05.95.75 1.8 1.6.8.85 1.5 1.75.2-.3.45-.55.25-.2.5-.45 11.35 7.25 23.25 13.75t23.95 12.1q11.9 4.35 23.35 7.65 11.45 3.35 23.7 5.7 3.65.7 7.45 1.35 3.8.65 7.8 1.2 5.45.75 11.3 1.35 5.85.6 12.2 1.1.4-.05 1.4.05 1 .1 1.6.75 2.3 3.3 2.2 5.6l-2.15 1.9-6.15 1.15h-.1q-3.45.3-7.4.25-3.95-.05-8.3-.45l-17.45-4.1q-12.7-3.3-17.8-4.4 21.95 55.3 29.2 120.45 7.3 65.15 8.2 127.3-.1 1.9-.65 6.8t-.1 8.45q2.15.5 3.65-.55 1.5-1.1 2.45-3.05l11-3.6q9.5-3.05 18.9-6.15l10.65-3.6q24.05-14.1 47.05-40.45 23.05-26.4 40.85-56.4t26.25-54.9h.25q.5-.65.65-1.3.1-.6-.05-1.2.35.15.75.25.35.15.75.2.95-.85 1.25-1.95.25-1.05.05-2.2l.25-.25.45-4.6-1.35-7.75q-2.25-9.4-3.45-13.2-8.25-29.35-17.7-59.85-9.4-30.5-20.3-59.1-1.6-4.2-3.25-8.15-1.7-3.95-3.45-7.65-1.1-4.75-3.8-10.25-2.65-5.5-6.55-11.4-1.45-2.2-3-4.45-1.6-2.3-3.3-4.55-5.25-10.35-13.6-19.75-8.4-9.4-21.35-19.3-2.15-2.05-4.05-3.75-1.85-1.65-3.4-2.95l-3.95-3q-3.1-2.35-5.65-4.45-.9-1.3-2.45-2.5z" id="F"/></defs><use xlink:href="#a" transform="matrix(1.29524 .02345 -.0238 1.27998 -1268.65 -185.9)"/><use xlink:href="#b" transform="matrix(1.33333 0 0 1.33333 -320 -180)"/><use xlink:href="#c" transform="matrix(.4605 .40358 -.4087 .45488 925.55 -1121.85)"/><use xlink:href="#d" transform="matrix(.30132 .31345 -.31686 .3251 740.95 51.6)"/><use xlink:href="#e" transform="matrix(.04416 .47197 .41751 -.0051 690.25 -9.95)"/><use xlink:href="#f" transform="matrix(.04416 .47197 .41751 -.0051 690.25 -9.95)"/><use xlink:href="#g" transform="matrix(.47073 -.01085 -.10944 .58064 637.4 134.8)"/><use xlink:href="#h" transform="matrix(.33061 .02542 -.14334 .49261 756.45 201.85)"/><use xlink:href="#i" transform="matrix(.57436 .01924 -.00885 .45796 388.5 244.8)"/><use xlink:href="#j" transform="matrix(.55084 .14206 -.12025 .4468 437.75 145.75)"/><use xlink:href="#k" transform="matrix(.4806 .04324 -.03001 .46782 493.75 195.05)"/><use xlink:href="#l" transform="matrix(.4806 .04324 -.03001 .46782 493.75 195.05)"/><use xlink:href="#m" transform="matrix(.45375 .00201 .01805 .46991 486.65 238.75)"/><use xlink:href="#n" transform="matrix(.45375 .00201 .01805 .46991 486.65 238.75)"/><use xlink:href="#o" transform="matrix(.5742 -.03319 .03806 .45618 380.4 293.7)"/><use xlink:href="#p" transform="matrix(.5742 -.03319 .03806 .45618 380.4 293.7)"/><use xlink:href="#q" transform="matrix(.29976 -.04158 -.01785 .4501 621.75 304.05)"/><use xlink:href="#r" transform="matrix(.588 -.16689 .04822 .5205 395.1 379.3)"/><use xlink:href="#s" transform="matrix(.5742 -.03319 .03806 .45618 376.6 277.95)"/><use xlink:href="#t" transform="matrix(.47061 -.01347 .0237 .53888 404.5 183.15)"/><use xlink:href="#u" transform="matrix(.47061 -.01347 .0237 .53888 404.5 183.15)"/><use xlink:href="#v" transform="matrix(.54666 .01915 -.03499 .46246 407.6 237.2)"/><use xlink:href="#w" transform="matrix(.07904 .00116 -.00165 .077 1079.9 395.65)"/><use xlink:href="#x" transform="matrix(.07292 .06982 -.07024 .08688 1119.05 306.5)"/><use xlink:href="#y" transform="matrix(.08336 -.01335 .01218 .0653 1068.05 416.85)"/><use xlink:href="#z" transform="matrix(.08911 -.00876 .00536 .09006 1065.05 403.9)"/><use xlink:href="#A" transform="matrix(.09381 -.0016 -.0016 .0911 1060.2 394.45)"/><use xlink:href="#B" transform="matrix(.10022 .0281 -.02553 .06111 1067 386.8)"/><use xlink:href="#C" transform="matrix(.07098 .00394 -.00494 .0778 1087 393.35)"/><use xlink:href="#D" transform="matrix(.11543 -.00148 .00061 .112 1037.95 388.75)"/><use xlink:href="#E" transform="matrix(.09332 .0075 -.00775 .09093 1059.7 390.2)"/><use xlink:href="#F" transform="matrix(.04501 -.04208 .04893 .04791 1070.35 448.55)"/></svg>