<svg xmlns="http://www.w3.org/2000/svg" xmlns:xlink="http://www.w3.org/1999/xlink" preserveAspectRatio="none" width="580" height="460" viewBox="675 210 580 460"><defs><g id="a"><path fill="#0081c6" d="M1801.75 495.7h-.05l-.4.15q-.15.1-.2.15 0 .1.1.2l-.2.1.15.15.05.05.15-.2.1-.1.05-.1q.1-.05.2-.15.05-.1.15-.15h-.2l.1-.1m51.55 10.8q.15-.15-.05-.45l.1-.3-.1-.4-.2-.15-.25-.05H1848.4l-.4-.05-12.85-.1-.4.15-.05.1-.1.3.05.15q-.35.1-.45.25-.1.2.05.4-.1.2.05.35.15.2.55.2-.2.25-.05.5.15.25.65.25h1.75q.9 0 1.8-.05 2.55 0 5.05-.05 2.55 0 5.1-.05.75 0 1.5-.05h1.45q.35 0 .55-.2.2-.15.1-.45l.1-.05q.3-.05.45-.25z"/><path fill="#FFF" d="M1849.15 507.9v-.4q-2.55.05-5.1.05-2.5.05-5.05.05-.25 13.2-.15 26.45.15 13.2.2 26.45.05 13.2-.45 26.35V590q.05 2.25.05 5.05.05 2.8-.05 5.35v.7q0 .4-.05.7v1.2l-.05.2v.3q0 .15.05.35v.7q0 .45-.05 1v1.15q-2.1.35-4.2.8-2.15.4-4.2.85l-2.1.4-3.55.65-1.4.2-2.2.4h-.05l-.5.1q-1.25.2-2.55.4-1.25.25-2.55.45l-.3.05q-.15.05-.35.05l-.65.1.05.1h-.05v-.1q-.35.1-.7.15l-.7.1-.45.1q-.25.05-.45.1l-.5.1q.05.25.05.5v.45q.05.25.05.45v2.35q0 1.55.1 3.45v.7q.05.3.05.65.05.35.1.75 0 .35.05.75.3.05.6.05.25.05.55.1.35.05.75.1.35.05.75.1.45.05.95.1.45.05.95.1 2.95.3 5.85.5 2.85.2 5.05.45l3.35.4q2.45.3 5.4.65 2.9.3 5.2.5l1.9.1 1-.1q.15.05.4.1t.5.05q.4 0 .9-.05.55-.05 1.1-.15 4.95-.8 9.5-1.4 4.6-.65 9.25-1.25 4.7-.65 9.75-1.4.3-.05.65-.1.3-.1.6-.15.35-.1.65-.2.3-.05.65-.15 0-.55.05-1.2 0-.65.05-1.4v-.3-.9-.3-.25q.05-1.55.05-3.25.05-1.65 0-2.75l-.05-.3h-.65q-.35-.05-.7-.05l-1.4-.1q-.25-.05-.5-.05l-1.5-.1-6-.5-6-.6q-1.75-.3-3.85-.45-2.05-.15-3.9-.3-.75-.1-1.95-.25-1.15-.2-2.45-.3-.1-.9-.15-1.7-.05-.8-.1-1.25-.05-1.85-.1-3.8 0-1.9-.15-3.8v-.1q.3-22.05.5-44.05.15-22.05.2-44.15m45.55-31.55q.15-1.45.15-3.25 0-.75-.05-1.45 0-.7-.05-1.4h-4.4q-.2 0-.4.05h-.7q-15.7.15-31.4.75t-31.4.8q-1.1 0-2.1.05h-2.7v.6l-.2.25q-.5.5-.95 1-.45.5-.85 1-4.4 5.4-9 10.55-4.55 5.1-8.9 10.4l-.1.1h.2q-.1.05-.15.15-.1.1-.2.15l-.05.1-.1.1-.15.2-.05-.05-.05.05q-.55-.65-1.15-1.25-.55-.6-.9-.8l-.25-.05-.1-.05q-.75.2-.9 1.45-.15 1.25-.05 2.45l.1 1.35v2.1q-.05 1.45.05 2.8.15 1.4.6 1.8v.05h.05l.1.05.35-.05h.6q.2 0 .35-.05h1.5q8.3-.15 16.65-.5 8.3-.35 16.6-.55l.05-.1.4-.15 12.85.1.4.05h.35l.35-.05H1849.95l3.2-.05h1.75q.9 0 1.8-.05 2.15-.05 4.3-.05l4.35-.1H1866.2l.3-.05h1.7q.7-.05 1.4-.05l.4-.4q.2-.25.4-.45.7-.75 1.1-1.25l.35-.4.1-.15.2-.15.2-.2.15-.2.55-.55.55-.55.45-.45 9.6-9.5q4.85-4.75 9.35-9.8.65-.7 1-1.3.3-.6.35-1l.1-.3.15-.6.1-1.15z"/></g><path fill="#FFF" d="M949.7 654.45l3.7 8.65q2.65 6.55 8.3 12.45 5.65 5.9 15.85 6.1 5.45-.15 11.15-.7 5.7-.55 10.05-1.05l5.55-.5 11.8-5.35q26.35-4.7 42.45-11.5 16.15-6.85 26.35-14.55 10.15-7.75 18.6-15.1 7.55-6.45 12.55-15.8 5-9.35 7.55-19.25 2.6-9.95 2.9-18.15.3-8.2-1.5-12.35-3.45-7.75-9.1-19.2-5.7-11.4-13.75-25.2-8.05-13.75-18.6-28.45-11.75-16.15-25.15-30.5-13.35-14.35-27.05-25.1-13.75-10.75-26.6-16.1-13.25-4.95-18.5 2.45Q981 432.6 980.7 446q-.3 13.45 1.3 26.65 1.6 13.25 2.15 20.05 0 10.25-6.3 29.05-6.3 18.75-14.15 42.05-7.85 23.25-12.55 46.95-4.7 23.7-1.45 43.7z" id="b"/><path fill="#0081c6" d="M822.65 544.4q-2.4-11.25-5.55-22.4-3.15-11.15-7.45-22.05-1.3-3.1-2.8-4.7-1.5-1.6-3-2.85-1.45-1.2-2.55-3.25-.8-1.45-1.15-2.7-.35-1.3-.35-2.35-4.35-4.4-8.75-8.95-4.35-4.5-8.05-8.9-3.75-4.4-6.05-8.4-3.45-2.2-6.25-4.3-2.85-2.1-4.65-3.6l-.55-.75q-.35-.6-.75-1.05-.25 6.85-5.3 8.25-5.1 1.35-10.95.4-5.9-.95-8.55-1.05l-2.6 1.05-3.85 2.4q-4.55 3.1-9 6.7-4.5 3.55-6.35 5.3-3.15 2.85-6.25 3.25-3.05.4-5.05-1.15-2.05-1.55-1.95-4.65-.5.55-.95 1.1-.45.6-.95 1.15 2.85 3.35 1.9 7.5-.9 4.2-6.15 7.2-2.8 1.7-5.15 5.15-2.4 3.5-4.5 6.8-1.55 2.35-3.25 6.35-1.75 4.05-3.7 8.65-.35 1.25-.75 2.45l-.7 2.5q-.05 4.35-.85 8.75-.85 4.45-2.2 8.1-1.35 3.7-2.85 5.8-.25 1.2-.5 2.35-.3 1.15-.55 2.3-.4 2.05-1.05 5.75-.6 3.7-1.4 8.35-2.05 26.85-1.45 58.65.6 31.8 5.3 66.6 4.75 34.75 15.25 70.6l2.05 2.1 5.4 3.65q7.05 4.45 19.5 8.45 12.4 4 28.9 3.95 15.45-.45 25.8-3.25 10.3-2.8 15.9-6.15l4.45-3 2.35-2.4q4.45-13.45 8.75-35.65 4.25-22.25 8.05-49.4 3.85-27.15 6.95-55.45 3.1-28.25 5.3-53.8l-.5-9.7q-.3-4.85-.65-9.7z" id="c"/><path fill="#FFF" d="M823.5 476.15q-.1-12.8-2.45-25.8-2.4-12.95-9.55-21.6-7.15-8.65-21.5-8.4-13.05.85-26.75 8.95-13.75 8.1-26.15 19.35-12.45 11.3-21.6 21.6-9.2 10.35-13.2 15.65-7.8 10.3-16.65 24.9-8.85 14.55-16.85 29.8-8 15.25-13.25 27.6-5.25 12.3-5.9 18.05-.8 11.75 6.05 25.6 6.9 13.85 18.55 26.95 11.6 13.1 24.9 22.55 13.35 9.45 25.35 12.4 8.05 1.9 19.95 2.15 11.85.25 26.05-2.15 14.25-2.45 29.35-8.65 13.1-5.25 22.6-7 9.5-1.75 15.05-2.2l4.45-.8 2.3-1.25q2.9-20.4.55-43.4-2.35-23-7.05-45.2-4.7-22.2-8.9-40.1-4.2-17.9-5-28.1-.25-8.1-.35-20.9z" id="d"/><path fill="#FFF" d="M743.05 735.4l2.4 26.55 5.3 56.55q3.05 32.05 5.35 56.5l2.45 26.15q5.05 6.6 16.15 10.9 11.1 4.3 25.05 5.7 13.95 1.45 27.6-.6 13.6-2.05 23.65-8.2l3.25-9.65q3-9.1 7.2-23.65 4.15-14.5 7.8-31.1 2.85-13.45 5.95-28.85 3.15-15.4 5.85-29.3 2.7-13.9 4.45-22.8l1.75-9.3q-7.5-13.8-27.25-19.8t-43.75-6.55q-24-.6-44.3 1.9-20.3 2.45-28.9 5.55z" id="e"/><path fill="#0081c6" d="M943.65 840.8q-1.05-2.05-1.45-3.45-.75-2.75-1.15-5.5-.35-2.8-.9-5.5l-.5-1.5-.55-.4q-.6.1-1.05 1.35-.4 1.2-.4 2.45.15 3.15 1.1 7.5.95 4.35 3.1 7.95 2.1 3.6 5.8 4.45 3.45.45 5.8-2.6 2.35-3 3.65-7.05 1.3-4.05 1.65-6.75.15-1 .2-2.9.05-1.9-.25-3.6-.3-1.75-1.25-2.3l-.2-.05q-.15 0-.2.05-.35.35-.45.85l-.15.7q-.25 1.9-.3 3.9 0 2-.35 3.95-.3 1.7-1.15 4.5-.85 2.8-2.15 5.3-1.3 2.45-3 3.1-1.75.45-3.3-.95-1.5-1.45-2.55-3.5z" id="f"/><path fill="#FFF" d="M923.4 167.5q-7.3 4.55-12.05 9.45l-3.75 4.25-1.65 2.85-.5 2.95-.15 4.9q0 5.8.3 12.55.3 6.75.65 11.65l.35 5.15 3.1.4q2.9.45 5.9.75l2.3.15 1.1-.1q6.6-9.4 10.15-14.5 3.55-5.1 5.2-8.2 1.65-3.1 2.5-6.45 1-3.95 1.75-11 .8-7.05.95-13.2l-.1-4.9-.55-2.4q-8.2 1.15-15.5 5.7z" id="g"/><path fill="#FFF" d="M849.85 162.55l-1.6-2.25q-9.45 6.35-16.05 16.6-6.6 10.3-10.05 19.9-3.45 9.65-3.4 13.95.35 2.7 3.35 8.4 3 5.75 6.9 12.05 3.85 6.35 6.8 10.85l3.05 4.7 3.85-1.85q3.6-1.65 7.2-3.5l2.8-1.55 1.2-.9q2.9-13.8 3.9-23.65.95-9.85.75-15.95-.25-6.05-.95-8.65-.75-3-2.4-9.95-1.65-6.95-3.55-13.25l-1.8-4.95z" id="h"/><path fill="#FFF" d="M661.65 767.35l-12.75-1.2q-1.6 0-2.6 1.1-1.05 1.1-1.1 2.55-.05 1.5 1.3 2.7l2.6 1.4 5.45 2.2q6.9 2.6 18.4 4.6 11.45 2 26.2 1.2 14.7-.75 31.5-6.45 11.65-4.35 21.95-12.65 10.35-8.3 18.3-17.35 8-9.05 12.6-15.55l4.8-7.25-1.05-1.4-2.9-2.8q-3.8-3.5-8.4-7.55-4.65-4-7.35-6.3-2.1 3.35-7.35 10.9Q756 723 748.5 732q-7.45 9.05-16.15 16.9-8.75 7.85-17.75 11.9-13.4 5.4-27.85 6.4-14.4 1-25.1.15z" id="i"/><path fill="#0081c6" d="M1065.35 476.45q-4.7-4.8-10.2-9.3-5.25-4.85-11.3-9.3-6-4.5-12.8-8.55l-.4-.6q-.2-.25-.4-.45-.45-.1-.8-.15-.35-.05-.6-.05-1.2-.65-2.65-1.4-1.5-.8-2.65-1.45-.55-.35-1.1-.25-.55.15-.15 1.05l.55.45 1.4.95q1.85 1.25 4.5 3l.25.7q.1.4.25.85 2.75 8.15 6.25 16.05 3.45 7.95 6.35 16.05 5.6 17.2 7.45 34.5 1.85 17.3 3.35 34.5 1.55 17.25 6.15 34.15 5.65 20 5.8 40.05.1 20.1-4.5 39.8-4.55 19.65-13 38.4l-1.65 2.95q-1.4 2.45-3.1 5.95-1.75 3.5-2.85 7.05-.6.85-1.1 1.65-.45.85-.6 1.6.25.05.5.05l.5-.1q-.2 1.65 0 3.05.2 1.35 1 2.3-.5.8-.9 1.5-.35.75-.45 1.35.95 0 1.9-.95.9-.95 1.25-1.4 11.7-12.15 21.2-29.6 9.55-17.5 16.35-37.45 6.75-20 10.2-39.6 2.35-8.25 3.9-17.1 1.6-8.9 2.35-17.95 1.55-8.65 2.25-17.45.7-8.75.35-16.05-.05-1.25-.15-2.55-.1-1.3-.25-2.7-.65-9.8-3.75-21.55-3.1-11.7-8.25-22.8-5.15-11.15-11.8-19.2-3.95-5.15-8.65-10m-17.4 239.45q2.55-2.9 4.85-5.9-.9 1.3-1.85 2.6-.95 1.35-1.95 2.7-.45.45-1.4 1.6-.95 1.1-.95 2.2.15.05.4.1h.3q.1 0 .25-.15.15-.1.35-.3l.05.1.3.05q-1.1 1.5-2.2 3.05l-2.2 3q-.4.5-1.45 1.7-1.05 1.15-2.15 2.6-.25-1.35-.05-2.85t.7-2.95q.6-.5 1-1l.7-.7q2.75-2.9 5.3-5.85m32.7-63.1q-.528 1.736-1.1 3.45l1.05-3.4q.528-1.736 1.05-3.5-.475 1.75-1 3.45m-181.7 133.4l1.75.3q2.05.3 4.1.45 2.1.2 4.15.25-.2.35.25.55.45.2 1.45.35.4.05.75.1.4.05.85.1-1 .1-2 .15l-3.65.25q-1.25.1-2.25.55-.1 0-.3.2-.2.15-.2.3.25 1 1 1.1.75.1 1.75.05 11.55-.45 22.45-2.1 10.95-1.65 22.3-3.95.7-.1 2.35-.5 1.65-.4 2.5-1.25 0-.3-.25-.4-.2-.1-.35-.1l-.35-.05q-.35 0-.8.05-.4-.1-.85-.05-.45.05-.7.05-8.35 0-16.7.9-8.3.9-16.65 1.55-8.3.65-16.6-.2l-1.65-.2q-1.25-.15-2.35 0l-.65.75-.05.45.7.35m41.9-1.15q.2-.05.4-.15.2-.05.35-.15.4 0 .8-.05l.75-.05q-.4.05-.65.1t-.45.1l-.6.1-.6.1M746.95 525.2l-.3-2.3q-.3-1.75-.9-3.1-.25-.25-.55-.2-.3 0-.5.3l-.2 1-.1 2.05q-.05 2.5 0 5.25v3.7q-.4 8.85.15 16.75.6 7.9 1.65 15.65 1.05 7.8 2.05 16.25.65 5.45 1.6 11.1.95 5.65 1.85 11.35.05.65.15 1.25.1.6.2 1.15.4 2.55.65 5.1.3 2.5.5 4.95-.1.9-.1 1.85-.05.95.05 1.8 0 .6-.05 1.2 0 .65.1 1.3-1.2 4.65-2.2 9.3-1 4.65-1.7 9.25-1.9 10.9-4.2 21.75-2.35 10.9-3.25 21.85-.65 9.75.65 17t4.35 14q3.1 6.75 7.85 14.85.15.25.4.8t.6 1.25q0 .25.05.55.05.25.2.5l.25-.05q.45.8.95 1.45.55.7 1.1 1 .3-.15.3-.5v-.55q0-.45-.15-1.1-.2-.6-.55-1.35 1.3-1.6 2-3.7l.8-2.7q1.4-6.35 2.6-13.05 1.15-6.65 2.15-13.05 2.5-15.4 4.95-31.25 2.45-15.8 3.95-31.3 1.1-13.05-1.05-26.6-2.2-13.55-6.85-26.7.05-.6 0-1.15 0-.55-.15-1-.15 0-.3-.1-.2-.1-.25-.05l-.1.05q-3.2-8.7-7.25-16.85-4-8.15-8.55-15.45l-1.1-1.65q-.9-1.3-1.7-2.4 0-.1-.2-.2-.2-.05-.35 0 .2-4.7.4-9.45.25-4.75.1-9.8z" id="j"/><g id="k"><path fill="#FFF" d="M955.75 420.8q-32.35 1.95-74.45 4.9-42.1 3-73.95 5.35l-33.55 2.45-6.15 9q-5.85 8.75-12.75 23.3t-10.45 32.15q-3.25 18 .4 46.1 3.6 28.05 13.25 66.4-.8 6.15-2.9 18.9-2.15 12.8-4.45 27.5-2.35 14.75-3.8 26.75-1.45 12.05-.9 16.6.9 6.2 4.65 17 3.8 10.75 10.3 22.85 6.5 12.15 15.7 22.35 9.15 10.25 20.95 15.4 14.6 5.8 36.3 8.2 21.75 2.35 46.25 2.2 24.5-.2 47.4-2.1 22.9-1.9 39.9-4.7 20.25-3.4 35.8-13.2 15.5-9.75 27.6-24.6 12.1-14.8 22.1-33.25 5.6-10.1 11-23.3 5.45-13.15 10.15-28.2 4.7-15.1 8.05-30.9 3.5-16.85 5.25-33.15 1.7-16.25 1.8-30.6.1-14.35-1.4-25.35-4.1-26.05-18.75-47.6t-32.4-37.35q-17.7-15.8-31.05-24.7l-14.95-9.75h-10.05l-24.9 1.35z"/><path fill="#0081c6" d="M1027.1 329.9q-1.45 1-1.4 3 .1 2 .4 3.7-1.25.65-1.3 3-.1 2.3.25 4.5l.4 2.4q.5 5 .3 10.2-.25 5.2.6 10.6 1.2 7 .5 15.15-.65 8.15-2.75 16-2.15 7.85-5.3 13.9l-.95 1.8-.3.9.5.35 1.4.1q.95-.9 1.75-2.25l1-1.8q1.2-2.6 2.2-5.4 1-2.75 2.4-4.8 1.95-2.7 3.15-7.35 1.25-4.65 1.7-9.55.5-4.95.1-8.6-.15-1.5-.2-3-.05-1.5 0-3.05.6-2.8.6-5.4 0-2.65-.2-5.85-.2-4-.1-7.35.05-3.35.25-7.15l.1-2.05q.05-1.75-.3-3.55-.3-1.85-1.35-2.55-.2.05-.35.15-.15.05-.3.15-.25-2.2-.65-3.65-.35-1.5-.9-1.95-.15-.15-.5-.35-.35-.2-.75-.25z"/></g><path fill="#0081c6" d="M1051.6 302.65q-.5-1.15-1.7-1.2-1.2-.1-2.5.3-1.35.4-2.35.75-3.4 1.1-4.6 4.7-1.15 3.6-1.15 7.95 0 4.3.05 7.55-.1 5.4-.35 10.5-.25 5.1 0 10.55.6 10.65.5 21-.05 10.3-.45 20.95-.05 1.6 0 4.65.05 3.05.35 6.4-.2.05-.35.1-.2.1-.45.2l-.25.4q-.2.35-.6.6l-1 .7-.55.5q-.25.35-.3 1.05-.35.9-.5 1.85-.15.9-.25 1.45-.15.55-.3 1.15-.2.6-.45 1.1l-.15.5q-.15.35-.25.65-1.4-.4-2.45 1.35-1 1.75-1.6 3.75l-.65 2.2q-.6 1-1.5 1.7t-1.9 2.5q-1.05 2.15-2 3.95-1 1.8-1.95 3.5.5-1.75.45-3.2-.1-1.5-1.1-2.3-.75.55-1.35 1.75-.65 1.2-1.1 2.4-.4 1.15-.65 1.65-1.1 2.25-3.55 6.4-2.4 4.15-5 7.95-2.65 3.85-4.4 5.15l-.7.1q-.65.1-1 .5-.3.1-.25.4l.05.35q0 .15.35.3l.3.25q-.4 1.05-1.5 2.35-1.05 1.3-2.4 2.75-9 1.2-18.5 2.7-9.5 1.5-18.85 3.65-9.35 2.2-17.8 5.5-6.75 2.65-13.5 5.15-6.8 2.5-13.5 5.05l-2.1 1.05q-1.55.85-2.65 1.95-.05.25 0 .55 0 .25.1.5-.3.2-.25.5.1.25.35.55 2.5 2.7 9.3 4.05 6.8 1.4 14 1.85 7.2.5 10.9.6 16.4.45 30.7-4.6t27.05-14q3.85-2.15 7.3-4.7 3.45-2.55 6.6-5.8 5.8-5.45 10.25-12.85 4.4-7.4 7.85-17.5.2-.35.35-.7l.4-.7q5.25-9.95 8.65-22.45 3.45-12.45 5.45-25.5 2-13 3.1-24.6.15-1.15.4-3.2.2-2 .15-3.6.25-5.45-.05-10.75-.3-5.25-.85-11-.2-3.15-.55-7.15-.35-4-.95-7.9-.65-3.9-1.85-6.75z" id="l"/><g id="m"><path fill="#0081c6" d="M980.9 222.3l.4-1.3q.25-.95.1-1.7-.5-.4-.7 0-.2.45-.35 1.05-1.15 3.7-2.65 7.25-1.5 3.6-3.35 6.95-2.1 3.95-4.55 7.6-2.45 3.7-5.25 7.1-.3.3-.95 1-.7.75-.9 1.45l.15.1q-.35.3-.55.6-.25.35-.3.7.3.3.7.15.4-.15.65-.35 2.45-1.45 5.3-4.45 2.85-3.05 5.5-6.45 2.6-3.4 4.2-5.85.15-.2.45-.65.3-.5.6-1.05.2-.35.3-.75.1-.35.05-.7-.45-.25-.75.15t-.5.8q-.15.2-.25.4l-.3.4q.35-.85.45-1.65.05-.8-.35-1.4-.35-.2-.6-.1t-.45.4q1.2-2.5 2.2-4.95.95-2.45 1.7-4.75m-14.3 26.2l.25-.3h.05l-.3.3z"/><path fill="#FFF" d="M966.85 248.2l-.25.3.3-.3h-.05m45.6-63.95q-2.9 1.1-4.65 4.1-5.3 9.6-9.85 17.75-4.5 8.15-9 15.15-4.45 7-9.55 13.2-.3.55-.6 1.05-.3.45-.45.65-1.6 2.45-4.2 5.85-2.65 3.4-5.5 6.45-2.85 3-5.3 4.45-.25.2-.65.35-.4.15-.7-.15.05-.35.3-.7.2-.3.55-.6l-.15-.1q.2-.7.9-1.45.65-.7.95-1 2.8-3.4 5.25-7.1 2.45-3.65 4.55-7.6-2.9-1.1-7.15-2.85t-9-3.85q-4.7-2.1-9-4.3-6.95-3.95-20.9-7.25-14-3.3-33.35-1.7-19.3 1.55-42.4 12.4-11.7 5.9-19.2 12.5-7.55 6.6-11.4 11.85l-4.65 6.95q-4.35 8.75-9.45 26.95t-9.7 38.5q-4.6 20.25-7.4 35.15l-2.1 11.7-.5 5.35 1.2 3.65 3.1 6.75q4.05 8.25 13.25 21.1 9.2 12.85 25.1 28.85 13.95 13.5 28.95 22.25 15 8.7 28.05 13.55 13.05 4.85 21.2 6.75 22 5.1 41.9 2.45 19.95-2.6 34.85-9.1 14.9-6.45 21.9-12.9 14.8-13.7 24-35.6 9.2-21.9 13.1-48.4 3.85-26.55 2.6-54.2-1.8-34.2-6.7-61.8-4.9-27.65-10.2-46.15-5.35-18.5-8.3-25.3-1.35-2.95-4.1-3.85-2.75-.9-5.6.25z"/></g><path fill="#FFF" d="M789.2 341.6q-3.4 5.75-11.45 18.2-8.05 12.45-17.8 27.65t-18.3 29.35q-8.55 14.1-12.85 23.2l49.1 7.45q46.65 6.55 107.9 14.7 61.2 8.1 107.35 13.7l35 3.95 12.65.65-7.8-9.85q-5.8-7.2-13.15-15.8-7.35-8.55-13.8-15.45-6.5-6.85-9.8-8.9l-35.8-15.85q-31.25-13.5-70.8-30.35-39.6-16.85-69.25-29.4l-31.2-13.25z" id="n"/><path fill="#0081c6" d="M840.25 295.25q-.35.05-.6.4-.25.3-.35.8-.05.25-.1.6l-.1.7q-.05.65-.05 1.4v1.3q.05 4.3.35 6.75.3 2.5.9 4.75 1.2 4.9 3.35 8.6 2.2 3.7 5.85 4.8.65.25 1.35.25.7 0 1.15-.1 3.2-.85 5.8-3.55 2.55-2.65 4.2-6.4 1.65-3.7 2.2-7.55l.1-.7q.1-.55.1-1.2.2-1 .15-1.8-.05-.85-.4-1.4-.45.15-.65.7-.15.55-.2.8-1.2 4.15-2.2 7.35-.95 3.25-2.75 5.6-1.75 2.35-5.45 3.85-2.65.85-4.95-2.1-2.3-3-3.9-7.55-1.6-4.6-2.2-8.45l-.4-1.8-.3-1.9q-.15-1.3-.35-2.3-.25-.95-.55-1.85z" id="o"/><path fill="#FFF" d="M915.85 293.65q-.95-9.75-6.65-17.4-5.7-7.65-18.65-10.15-13.2-1.9-21.3 3.85-8.15 5.75-12.65 14.6-4.45 8.8-6.65 16.15 8.9 1.05 20.1 2.9 11.2 1.85 23 4.1 11.75 2.2 22.35 4.35 1.35-8.7.45-18.4z" id="p"/><path fill="#0081c6" d="M1057.8 788l-.65-.1q-.5-.05-.9-.1-.05 0-.15.05h-.1q-.55.45-.6.75 0 .3.35.55-.2.85-.35 1.65-.1.8-.25 1.35-4.4 18.4-8.15 35.75-3.8 17.4-7.4 34.8-3.6 17.4-7.45 35.85-.25 1.2-.15 2.15t.45 1.65q-1.6.85-3.2 1.6-1.55.75-3.05 1.4-2.55.8-5.1 1.5t-5.2 1.25l-3.75.5q-3.2.45-6.15 1.5t-2.9 2.9q.25.3.6.35.4.05.8-.05.25.15.55.25.3.1.55.15l2.9-.15 4.6-.95q5.4-1.4 10.85-3.25 5.4-1.85 7.4-3 .55-.3 1.8-1.1 1.25-.75 2.15-1.7.55-.3 1-1.05.45-.7.7-1.9 4.1-18.25 7.85-35.6 3.75-17.4 7.4-34.8 3.65-17.4 7.45-35.65l.15-.95q.1-.9.15-2.15.3-1.35-.05-2.3-.3-.95-2.15-1.15z" id="q"/><path fill="#FFF" d="M899.05 742.6q2.25 9.75 5.6 24.35 3.3 14.55 6.6 29.5t5.5 25.85q1.9 9 5.65 21.75 3.8 12.7 7.95 25.25t7.1 21l3.15 8.95q10.15 5.85 23.3 8.7 13.15 2.85 26.65 3.05 13.55.2 24.85-1.85 11.35-2.1 17.9-6.15l1.75-7.8q1.75-7.4 4.45-19.4 2.75-11.95 5.85-26.1 3.05-14.2 5.8-28.15 4.05-20.55 6.9-35.15 2.8-14.6 4.3-22.55l1.45-8.5q-8.7-2.95-30.9-8.65-22.15-5.7-49.35-10.95-27.2-5.3-51-6.9-23.8-1.65-35.85 3.5l2.35 10.25z" id="r"/><path fill="#0081c6" d="M938.3 828.5q.2 3.1 1.2 6.95 1 3.8 2.75 6.95 1.7 3.15 4.05 4.3 4 1.55 6.85-1.1 2.85-2.65 4.45-7.45 1.6-4.75 1.75-9.5.05-1.1-.1-2.65-.15-1.55-.85-1.55-.15.3-.3.65l-.15.5q-.6 2-.85 4.2-.3 2.15-.8 4.3-1.15 4.45-3.3 7.15t-4.75 2.35q-2.55-.35-4.9-4.95-1.2-2.6-1.95-5.7-.8-3.05-1.8-5.85-.6-1.4-1-.55-.35.8-.3 1.95z" id="s"/><path fill="#AED044" d="M1028.9 506.05q-.2.1-.35.2l-1.9 1.2q-.95.65-1.9 1.25-1.4.95-2.85 1.95-1.4 1-2.85 2.05l.5-.1q.5-.1 1-.15.5-.05.95-.1 1.95-1.65 3.85-3.3 1.95-1.65 3.9-3.2l-.35.2M683.45 168.3q-2.45-1.35-5.45-2.25-3.05-.95-5.9-.5-.6-.15-1.35-.1l-.95.1q-12.9 1.6-16.75 9.25-3.85 7.6-1.8 18.25 2.1 10.7 7 21.55 1.15 5.6 3.5 11.8 2.3 6.25 5.45 12.65-7.85-4.6-16.8-5.1-8.9-.5-13.6 9.6l-.15.55q-.15.5-.35.9-.35 1.1-.65 2.5l-.35 1.7q-1.25 7.25-.6 15.1t3.05 15.05q4.2 17.55 15.1 37.1 10.85 19.5 23.5 37.15 12.65 17.6 22.25 29.55 4.85 6.15 9.95 11.9 5.05 5.75 10.3 11.1-4.2 1.8-7.25 5.05-3.1 3.2-5.4 7.45-.8 1.5-1.5 3.05-.65 1.5-1.2 3.05.8 4.2 2.2 8.2 1.4 4 3.3 7.85 3.35 6.6 7.8 12.55 4.45 5.95 9.45 11.15 3.6 3.75 7.5 7.4 3.9 3.65 8.1 7.25 3.25 2.8 6.6 5.5 3.4 2.7 6.85 5.4 7.75 5.9 15.85 11.55 8.05 5.7 16.25 11.1l.3.2.2.1q.1.05.2.15l3.4 2.25q3.75 2.45 7.45 4.85 3.7 2.35 7.35 4.7l8.85 5.65q4.35 2.8 8.55 5.5l1 .15q4.35.6 8.85 1.2 4.5.55 9.1 1.05 16.2 1.65 32.65 3.4t31.2 4.8q4.3.9 8.5 1.7 4.15.8 8.3 1.45 7.25 1.2 14.45 2.15 7.25.95 14.65 1.8 4.35-7.15 8.75-13.55 4.35-6.35 6.45-10.1 7.2-14.4 15.05-23.4 7.85-9 22.75-18.4.75-.45 1.5-.95.75-.5 1.45-1.05-11.6-8.25-22.95-16.65-11.35-8.4-22.45-17-62.25-48.05-116.65-100.1-54.4-52.05-101.35-107.1-12.1-14.2-23.75-28.5-11.6-14.35-22.75-28.85-3.8-4.95-7.55-9.9t-7.45-9.95z" id="t"/><path fill="#AED044" d="M797.6 692.75l11.5 6.7q11.3 6.35 30.65 14.8 19.35 8.45 43.85 15l-1.95-12.9q-1.95-12.2.3-29.25 2.3-17.1 15.1-32.5 12.8-15.45 42.35-22.7 39.55-9.75 48.3-22.5 8.8-12.75-5.65-18-14.45-5.3-44.55 7.15-30.4 14.35-62.45 36.3-32.05 21.95-54.3 39.45l-23.15 18.45z" id="u"/><path fill="#AED044" d="M1130.95 339q-16.55-5.05-53.35-12.15-36.85-7.15-78.85-9.9-42.05-2.8-74.2 5.15-34.1 10.1-75.15 35.45-41.1 25.3-75.2 52.65-34.1 27.4-47.15 43.7-12.15 15.65-23.55 32.5t-19.4 29.5l-10.15 15.7 19.65 4.1q6.2-.35 21.05-5.5 14.8-5.1 31.85-23.1 19.6-20 52-16.55 32.4 3.5 67.25 15.5 34.8 11.95 61.7 17.6 26.25 4.7 56.45 3.35 30.2-1.35 61.5-12.45t60.9-35.6l-1-7.05 4.3-15.65q6.95-19.9 16.2-45.75 9.2-25.85 12.55-46.5 3.35-20.7-7.4-25z" id="v"/><path fill="#AED044" d="M1301.9 418.3l3.45-3.15q1-3-6.25-3.7-7.05.9-13.8 1.55-6.75.7-12.65.9h-1.05q-78.3 7.3-155.3-.15-76.95-7.45-152-25.55-34.65-6.1-68.75-13.85t-67.2-17.65q-4.9-1.45-9.75-3-4.85-1.5-9.7-3.1-2.05-.7-4.15-1.35l-4.1-1.4q-6.35-2.15-12.75-4.45-6.35-2.35-12.8-4.85-2.4 0-5.35.65-2.95.6-5.05 2.45-.55.15-1 .55l-.65.5q-12.3 10.75-5.9 22 6.35 11.3 19.3 20.4 3.35 3.75 7.8 7.45 4.45 3.7 9.55 7.2-1.35.25-3.2.7-1.8.5-3.4 1.15-1.1.4-2.15.8-1.1.45-2.1.85-.2.25-.5.35l-.4.1q-7.5 5.2-6.6 12.6.9 7.4 6.6 14.95 6.9 14.1 24.8 26.45 17.85 12.4 38.25 21.9 20.4 9.55 34.85 15.1 6.2 2.5 12.4 4.55 6.15 2.05 12.25 3.75-2.15 3.25-2.95 7.1-.75 3.85-.55 8.1.1 1.65.3 3.2.2 1.55.55 3.05 6 12.2 19.05 20.15 13.1 8 28.4 13.25 15.3 5.25 28.1 9.2-.55 1.3-.7 2.6-.2 1.3-.15 2.25 1.35 14.3 11.25 22 9.95 7.7 22.75 11 13.9 3.95 30 5.9 16.1 2 33.45 2.2 3.65-.65 7.3-1.35 3.65-.65 7.3-1.35 12.75-2.45 25.4-5.15 12.65-2.65 25.05-5.45 5.2-1.15 10.3-2.35 5.15-1.15 10.25-2.35 1.6-.35 3.2-.75 1.6-.35 3.25-.75 4.65-1.15 9.4-2.35 4.75-1.25 9.55-2.55 11-3.05 22.05-6.6t21.9-7.6q1.5-.55 3-1.15 1.5-.55 3-1.15l.35-.1.3-.15q.05-.15.05-.3.05-.15.05-.3-.1-.15-.2-.25-.1-.15-.25-.2.9-4.5 1.6-8.7.7-4.2 1.05-5.8 6.9-30.55 11.2-61.4 4.35-30.85 10.5-61.6.1-.6.4-1.7.3-1.1.65-2.5 8.7-1.35 16.95-3.2t15.9-4.2l8.3-3.4m-503.05-2.85l-.25-.4q-.1-.2-.25-.35l.25-.35q.15-.2.25-.35v1.45m-18.45 1.65q-.4-1.2-.55-2.4-.15-1.2 0-2.3.1 1 .3 2 .2 1.05.45 2.05l-.1.3q-.05.2-.1.35z" id="w"/><path fill="#AED044" d="M1014.75 275.85q-14.05-10.5-36.05-11.4-20.4.15-33.05 10.25-12.6 10.1-19 22-4.35 8.4-8.1 26.45-3.7 18.1-6.1 34.4l-2.75 19.55 3.7 3.15 10.3 3.45q13.6 3.6 30.3 6.25 16.7 2.7 26.35 3 9.45.05 24.45-2.55 14.95-2.55 27.85-6.7 12.9-4.1 16.1-8.7l-2.2-17.85q-2.05-13.4-5.3-28.85-3.2-15.45-6.85-26.15-5.6-15.85-19.65-26.3z" id="x"/><path fill="#AED044" d="M1051.9 298q-7.95 7.65-9.7 18.25-1.75 10.6 2.45 19.65 4.25 9 14.3 11.8 4.65-2.05 14.6-9.5t18.2-19.15l-1.75-1.55-4.85-3.4q-6.35-4.35-15.5-9.2-9.2-4.85-17.75-6.9z" id="y"/><path fill="#0081c6" d="M1010.6 309.3l-1-1.85-1.35-1.65-1.6-1.35-1.9-1-2-.6-2.15-.2-2.1.2-2 .6-1.9 1-1.6 1.35-1.35 1.65-1 1.85-.65 2.05-.2 2.1.2 2.1.65 2.05 1 1.85 1.35 1.65 1.6 1.35 1.9 1 2 .6 2.1.2 2.15-.2 2-.6 1.9-1 1.6-1.35 1.35-1.65 1-1.85.65-2.05.2-2.1-.2-2.1-.65-2.05z" id="z"/><path fill="#AED044" d="M1002.55 287.3q-8.85.45-13.15 6.95-4.3 6.55-5.15 14.7l35.45.25-1.05-5.7q-1.15-5.3-4.8-10.6-3.7-5.25-11.3-5.6z" id="A"/><path fill="#0081c6" d="M1152.1 584.75q-1.45 1-1.9 3.4-.5 2.45-.35 5.15.1 2.75.4 4.8l.35 2.25q.15 2 .55 6.85.4 4.8 1 10.4.6 5.6 1.35 9.9l.75 3.45.8 1.75 1.25.9.75.2q.5-.15.85.35l.5 1.1.8 2.4q1.05 3.3 2.4 4.4 1.35 1.1 2.35-.1 1-1.2 1.05-4.95v-.75q0-.55-.05-1.2-.05-.7-.25-1.2 1.3-.4 2.45.7 1.1 1.1 1.9 2.45l.7 1.05.5.5q2.9.95 4.05-.5 1.1-1.45 1.2-4.1.1-2.6-.1-5.2-.25-2.55-.1-3.9.3-2.1.3-5.6 0-3.5-.15-7.35-.1-3.8-.05-6.85.05-3.1.45-4.35v-.15l-.05-.3q-.05-.35 0-.65.05-.3.4-.4 1.4.45 2.9 1.2t3 1.25q1.5.5 2.85.05-.55-1.15-2-2-1.45-.85-2.85-1.35l-1.85-.75q-2.05-1.25-2.3-2.2-.25-.95-.4-2.2-.2-1.2-2-3.25l-3.65-3.7q-.85-.7-1.2.4t-1.55 3.4q-1.3-1.7-2.6-3.3-1.35-1.6-2.7-1.4l-1.4 1.1-.75 1.15-.7 1.6-.15-.15-.6-.15q-.75-.1-1.65-.15l-1-.15q-.25-.2-.45-.85-.2-.65-.45-1.35-.25-.75-.75-1.25-.25-.25-.85-.4-.55-.15-1 0z" id="B"/></defs><use xlink:href="#a" transform="matrix(1.29524 .02345 -.0238 1.27998 -1268.65 -185.9)"/><use xlink:href="#b" transform="matrix(-.46756 -.00325 -.00316 .47095 1326.1 225.2)"/><use xlink:href="#c" transform="matrix(-.46756 -.00325 -.00316 .47095 1326.85 227.2)"/><use xlink:href="#d" transform="matrix(-.46756 -.00325 -.00316 .47095 1326.85 227.2)"/><use xlink:href="#e" transform="matrix(-.47208 -.0032 .10678 .56271 1179.75 144.25)"/><use xlink:href="#f" transform="matrix(-.33221 -.00824 .0818 .49065 1114.7 228.6)"/><use xlink:href="#g" transform="matrix(-.5016 -.12114 -.10536 .45607 1402.45 333.05)"/><use xlink:href="#h" transform="matrix(-.50435 -.10913 -.09444 .45845 1401.5 321.55)"/><use xlink:href="#i" transform="matrix(-.46715 .03687 .03697 .46716 1301.35 185.3)"/><use xlink:href="#j" transform="matrix(-.45743 -.00812 -.00333 .4685 1318.5 229.9)"/><use xlink:href="#k" transform="matrix(-.45743 -.00812 -.00333 .4685 1318.5 229.9)"/><use xlink:href="#l" transform="matrix(-.5011 -.1232 -.10724 .45564 1402.75 335.15)"/><use xlink:href="#m" transform="matrix(-.5011 -.1232 -.10724 .45564 1402.75 335.15)"/><use xlink:href="#n" transform="matrix(-.25769 -.08885 -.05693 .45822 1188.25 306.35)"/><use xlink:href="#o" transform="matrix(-.49167 -.26064 -.12659 .51912 1376 419.45)"/><use xlink:href="#p" transform="matrix(-.5011 -.1232 -.10724 .45564 1408.65 319.8)"/><use xlink:href="#q" transform="matrix(-.47302 -.00327 -.03418 .56142 1420.85 151.45)"/><use xlink:href="#r" transform="matrix(-.47302 -.00327 -.03418 .56142 1420.85 151.45)"/><use xlink:href="#s" transform="matrix(-.47302 -.00327 -.03418 .56142 1391.1 163.3)"/><use xlink:href="#t" transform="matrix(.0435 .07092 -.08295 .03357 1148.55 204.7)"/><use xlink:href="#u" transform="matrix(.10905 .01614 -.00026 .14676 1023.9 192.9)"/><use xlink:href="#v" transform="matrix(.0825 .02373 -.0225 .0727 1073.95 246.8)"/><use xlink:href="#w" transform="matrix(.0426 .07373 -.074 .03307 1124.2 191.55)"/><use xlink:href="#x" transform="matrix(.00558 .07645 -.08533 .00124 1180.25 227.25)"/><use xlink:href="#y" transform="matrix(.07158 .04494 -.04678 .06186 1101.45 237.4)"/><use xlink:href="#z" transform="matrix(.03464 .07135 -.07817 .0275 1148.45 221.95)"/><use xlink:href="#A" transform="matrix(.0726 .04355 -.04518 .06285 1099.95 238.5)"/><use xlink:href="#B" transform="matrix(1.17252 0 0 1.17252 -165.6 -25.65)"/></svg>