<svg xmlns="http://www.w3.org/2000/svg" xmlns:xlink="http://www.w3.org/1999/xlink" preserveAspectRatio="none" width="580" height="460" viewBox="675 210 580 460"><defs><g id="a"><path fill="#0081c6" d="M1801.75 495.7h-.05l-.4.15q-.15.1-.2.15 0 .1.1.2l-.2.1.15.15.05.05.15-.2.1-.1.05-.1q.1-.05.2-.15.05-.1.15-.15h-.2l.1-.1m51.55 10.8q.15-.15-.05-.45l.1-.3-.1-.4-.2-.15-.25-.05H1848.4l-.4-.05-12.85-.1-.4.15-.05.1-.1.3.05.15q-.35.1-.45.25-.1.2.05.4-.1.2.05.35.15.2.55.2-.2.25-.05.5.15.25.65.25h1.75q.9 0 1.8-.05 2.55 0 5.05-.05 2.55 0 5.1-.05.75 0 1.5-.05h1.45q.35 0 .55-.2.2-.15.1-.45l.1-.05q.3-.05.45-.25z"/><path fill="#FFF" d="M1849.15 507.9v-.4q-2.55.05-5.1.05-2.5.05-5.05.05-.25 13.2-.15 26.45.15 13.2.2 26.45.05 13.2-.45 26.35V590q.05 2.25.05 5.05.05 2.8-.05 5.35v.7q0 .4-.05.7v1.2l-.05.2v.3q0 .15.05.35v.7q0 .45-.05 1v1.15q-2.1.35-4.2.8-2.15.4-4.2.85l-2.1.4-3.55.65-1.4.2-2.2.4h-.05l-.5.1q-1.25.2-2.55.4-1.25.25-2.55.45l-.3.05q-.15.05-.35.05l-.65.1.05.1h-.05v-.1q-.35.1-.7.15l-.7.1-.45.1q-.25.05-.45.1l-.5.1q.05.25.05.5v.45q.05.25.05.45v2.35q0 1.55.1 3.45v.7q.05.3.05.65.05.35.1.75 0 .35.05.75.3.05.6.05.25.05.55.1.35.05.75.1.35.05.75.1.45.05.95.1.45.05.95.1 2.95.3 5.85.5 2.85.2 5.05.45l3.35.4q2.45.3 5.4.65 2.9.3 5.2.5l1.9.1 1-.1q.15.05.4.1t.5.05q.4 0 .9-.05.55-.05 1.1-.15 4.95-.8 9.5-1.4 4.6-.65 9.25-1.25 4.7-.65 9.75-1.4.3-.05.65-.1.3-.1.6-.15.35-.1.65-.2.3-.05.65-.15 0-.55.05-1.2 0-.65.05-1.4v-.3-.9-.3-.25q.05-1.55.05-3.25.05-1.65 0-2.75l-.05-.3h-.65q-.35-.05-.7-.05l-1.4-.1q-.25-.05-.5-.05l-1.5-.1-6-.5-6-.6q-1.75-.3-3.85-.45-2.05-.15-3.9-.3-.75-.1-1.95-.25-1.15-.2-2.45-.3-.1-.9-.15-1.7-.05-.8-.1-1.25-.05-1.85-.1-3.8 0-1.9-.15-3.8v-.1q.3-22.05.5-44.05.15-22.05.2-44.15m45.55-31.55q.15-1.45.15-3.25 0-.75-.05-1.45 0-.7-.05-1.4h-4.4q-.2 0-.4.05h-.7q-15.7.15-31.4.75t-31.4.8q-1.1 0-2.1.05h-2.7v.6l-.2.25q-.5.5-.95 1-.45.5-.85 1-4.4 5.4-9 10.55-4.55 5.1-8.9 10.4l-.1.1h.2q-.1.05-.15.15-.1.1-.2.15l-.05.1-.1.1-.15.2-.05-.05-.05.05q-.55-.65-1.15-1.25-.55-.6-.9-.8l-.25-.05-.1-.05q-.75.2-.9 1.45-.15 1.25-.05 2.45l.1 1.35v2.1q-.05 1.45.05 2.8.15 1.4.6 1.8v.05h.05l.1.05.35-.05h.6q.2 0 .35-.05h1.5q8.3-.15 16.65-.5 8.3-.35 16.6-.55l.05-.1.4-.15 12.85.1.4.05h.35l.35-.05H1849.95l3.2-.05h1.75q.9 0 1.8-.05 2.15-.05 4.3-.05l4.35-.1H1866.2l.3-.05h1.7q.7-.05 1.4-.05l.4-.4q.2-.25.4-.45.7-.75 1.1-1.25l.35-.4.1-.15.2-.15.2-.2.15-.2.55-.55.55-.55.45-.45 9.6-9.5q4.85-4.75 9.35-9.8.65-.7 1-1.3.3-.6.35-1l.1-.3.15-.6.1-1.15z"/></g><path fill="#FFF" d="M964.05 380.8q-13.8-1.4-13.15 12.75.6 14.1 8.5 34.8 7.95 20.65 15.9 39l6.2 15.5 2.65 9.85q0 10.25-6.3 29.05-6.3 18.75-14.15 42.05-7.85 23.25-12.55 46.95-4.7 23.7-1.45 43.7l3.7 8.65q2.65 6.55 8.3 12.45 5.65 5.9 15.85 6.1 5.45-.15 11.15-.7 5.7-.55 10.05-1.05l5.55-.5 10.8-7.7q26.3-4.7 42.45-11.5 16.15-6.85 26.35-14.55 10.15-7.75 18.6-15.1 7.55-6.45 12.7-16 5.15-9.55 7.9-19.75 2.8-10.2 3.25-18.6.5-8.4-1.3-12.55-3.45-7.7-9.15-18.65-5.65-10.9-13.7-24.15-8.1-13.25-18.65-27.9-9.05-12.45-24.1-30.4-15.1-17.9-32.7-35.95-17.6-18.05-34.15-30.8-16.55-12.8-28.55-15z" id="b"/><g id="c"><path fill="#FFF" d="M826.85 525.55q-.4-8.4-3.4-26.35-3-18-9.25-38-6.2-20.05-16.25-34.55-10.05-14.45-24.55-15.85-13.35-.4-28.7 5.85-15.35 6.3-29.8 15.75-14.4 9.45-25.1 18.6-10.7 9.1-14.75 14.4-7.7 10.5-13.65 29.05-6 18.5-10.05 38.95-4.1 20.45-6.1 36.7l-1.5 13.75-.35 8.55q.55 7.65 9.2 17.55 8.6 9.9 21.85 19.75 13.25 9.85 27.6 17.4 14.4 7.55 26.45 10.45 8.1 2.05 21.6 4.85 13.45 2.75 30.15 3.8 16.7 1 34.6-2.2 13.7-2.65 21.9-7.9 8.2-5.3 13.25-13.25 5-8 9.25-18.85 1.95-5.85-2.3-17.95-4.3-12.1-11.1-27-6.8-14.85-12.45-29.1-5.7-14.25-6.55-24.4M814 586.25l-1.85-.85q-3.55-1.3-9.75-3.25t-12.5-4.8q-6.25-2.85-9.9-6.85-3.65-3.95-2.05-9.3l.15-.2q.15-.15.15-.3.35-.25.75-.35.35-.1.75.1.35.5.5 1.2.2.65.25 1.4 1-.15 2.15.6t2 1.55l1 .95 2.7 1.6q2.05 1.15 4.15 2.55 2.15 1.45 3.1 2.7l3.9 1.8q1.9.85 3.85 1.95 1.3.7 1.95 1.3.65.6.75 1.05 4 1.2 7.45 2.55 3.4 1.4 5.75 3.2.5.35 1.15.95.65.65.35 1.55-1.1.65-3.1.2-1.95-.5-3.65-1.3z"/><path fill="#0081c6" d="M812.15 585.4l1.85.85q1.7.8 3.65 1.3 2 .45 3.1-.2.3-.9-.35-1.55-.65-.6-1.15-.95-2.35-1.8-5.75-3.2-3.45-1.35-7.45-2.55-.1-.45-.75-1.05-.65-.6-1.95-1.3-1.95-1.1-3.85-1.95l-3.9-1.8q-.95-1.25-3.1-2.7-2.1-1.4-4.15-2.55l-2.7-1.6-1-.95q-.85-.8-2-1.55t-2.15-.6q-.05-.75-.25-1.4-.15-.7-.5-1.2-.4-.2-.75-.1-.4.1-.75.35 0 .15-.15.3l-.15.2q-1.6 5.35 2.05 9.3 3.65 4 9.9 6.85 6.3 2.85 12.5 4.8 6.2 1.95 9.75 3.25z"/></g><path fill="#FFF" d="M743.05 735.4l1.95 22.95q1.85 21.2 4.25 48.8 2.45 27.6 4.3 48.65l1.95 22.6q5.05 6.55 16.15 10.85 11.1 4.3 25.1 5.75 13.95 1.4 27.55-.65 13.6-2.05 23.65-8.15l6.15-5.25q5.8-4.85 13.9-12.45 8.05-7.6 15.15-16t9.95-15.75q2.25-6.9 1.7-20.1-.5-13.2-2.3-27.45-1.8-14.25-3.45-24.3l-1.8-10.6q-7.5-13.8-27.25-19.8t-43.75-6.55q-24-.6-44.3 1.9-20.3 2.45-28.9 5.55z" id="d"/><path fill="#0081c6" d="M943.65 840.8q-1.05-2.05-1.45-3.45-.75-2.75-1.15-5.5-.35-2.8-.9-5.5l-.5-1.5-.55-.4q-.6.1-1.05 1.35-.4 1.2-.4 2.45.15 3.15 1.1 7.5.95 4.35 3.1 7.95 2.1 3.6 5.8 4.45 3.45.45 5.8-2.6 2.35-3 3.65-7.05 1.3-4.05 1.65-6.75.15-1 .2-2.9.05-1.9-.25-3.6-.3-1.75-1.25-2.3l-.2-.05q-.15 0-.2.05-.35.35-.45.85l-.15.7q-.25 1.9-.3 3.9 0 2-.35 3.95-.3 1.7-1.15 4.5-.85 2.8-2.15 5.3-1.3 2.45-3 3.1-1.75.45-3.3-.95-1.5-1.45-2.55-3.5z" id="e"/><path fill="#0081c6" d="M1056.5 788.6l-.6 2.3q-1.9 5.6-3.45 11.25-1.55 5.65-3 11.3-.7 2.25-1.35 4.5-.65 2.3-1.2 4.55-.05-1.4-.5-2.5-.45-1.05-1.45-1.4-1.3.5-1.5 1.75-.2 1.25-.2 2-.35 4.35-.75 8.7t-.85 8.7l-.05.25-1.05 2.45q-.85 1.9-1.25 4.05-.45 2.15.5 3.15.25 0 .4-.05.2-.05.35-.1-.1.85-.25 1.7-.1.85-.25 1.75-1.3 9.6-2.1 19.65-.8 10.1-2.45 19.55l-.05.15q-.45-.2-.9-.45-.4-.25-.85-.55l-.8 3.6q-.35 1.8-.75 3.65-.25 1.2-.15 2.15t.45 1.65q-1.6.85-3.2 1.6-1.55.75-3.05 1.4-2.55.8-5.1 1.5t-5.2 1.25l-3.75.5q-3.2.45-6.15 1.5t-2.9 2.9q.25.3.6.35.4.05.8-.05.25.15.55.25.3.1.55.15l2.9-.15 4.6-.95q5.4-1.4 10.85-3.25 5.4-1.85 7.4-3 .55-.3 1.8-1.1 1.25-.75 2.15-1.7l.35-.25q.15.45.4.8.25.35.65.55.25.05.5-.1.25-.2.35-.25l.55-1.2.7-2.55q.75-3.2 1.45-6.6l.85-4.5q1.45-10.2 2.5-20.6 1.05-10.35 1.9-20.75.45-.55.4-1.4v-1.4q.4-5.8 1.4-11.1 1-5.35 2.45-10.4.75-2.25 1.45-4.55t1.45-4.6q.2-.5.6-1.6.45-1.1.65-2.35 1.2-3.5 2.45-7.1 1.25-3.6 2.45-7.4l.4-1q.35-.95.6-2.2.2-1.25-.05-2.25.35-.7.85-2.15.55-1.45.6-2.9.1-1.45-.9-2.25-1.45 0-2.4 1.7-.95 1.65-1.4 3.45z" id="f"/><path fill="#FFF" d="M897.85 744.15q1.05 11.15 2.75 27.15 1.65 15.95 3.5 31.05 1.9 15.05 3.5 23.45 1.55 7.05 6.65 18.9 5.1 11.9 11.15 24.3 6.05 12.45 10.5 21.1l4.7 9.15q10.15 5.85 23.3 8.7 13.15 2.85 26.65 3.05 13.55.2 24.85-1.85 11.35-2.1 17.9-6.15l1.4-9.45q1.4-8.8 3.4-21.05 1.95-12.3 3.85-23.35 1.85-11.05 2.85-16.15l3.8-16q2.95-12 6.45-26.05 3.55-14.05 6.1-24.4l2.65-11.2q-8.7-2.95-30.9-8.65-22.15-5.7-49.35-10.95-27.2-5.3-51-6.9-23.8-1.65-35.85 3.5l1.15 11.8z" id="g"/><path fill="#0081c6" d="M938.3 828.5q.2 3.1 1.2 6.95 1 3.8 2.75 6.95 1.7 3.15 4.05 4.3 4 1.55 6.85-1.1 2.85-2.65 4.45-7.45 1.6-4.75 1.75-9.5.05-1.1-.1-2.65-.15-1.55-.85-1.55-.15.3-.3.65l-.15.5q-.6 2-.85 4.2-.3 2.15-.8 4.3-1.15 4.45-3.3 7.15t-4.75 2.35q-2.55-.35-4.9-4.95-1.2-2.6-1.95-5.7-.8-3.05-1.8-5.85-.6-1.4-1-.55-.35.8-.3 1.95z" id="h"/><path fill="#FFF" d="M923.4 167.5q-7.3 4.55-12.05 9.45l-3.75 4.25-1.65 2.85-.5 2.95-.15 4.9q0 5.8.3 12.55.3 6.75.65 11.65l.35 5.15 3.1.4q2.9.45 5.9.75l2.3.15 1.1-.1q6.6-9.4 10.15-14.5 3.55-5.1 5.2-8.2 1.65-3.1 2.5-6.45 1-3.95 1.75-11 .8-7.05.95-13.2l-.1-4.9-.55-2.4q-8.2 1.15-15.5 5.7z" id="i"/><path fill="#FFF" d="M849.85 162.55l-1.6-2.25q-9.45 6.35-16.05 16.6-6.6 10.3-10.05 19.9-3.45 9.65-3.4 13.95.35 2.7 3.35 8.4 3 5.75 6.9 12.05 3.85 6.35 6.8 10.85l3.05 4.7 3.85-1.85q3.6-1.65 7.2-3.5l2.8-1.55 1.2-.9q2.9-13.8 3.9-23.65.95-9.85.75-15.95-.25-6.05-.95-8.65-.75-3-2.4-9.95-1.65-6.95-3.55-13.25l-1.8-4.95z" id="j"/><path fill="#0081c6" d="M1046.6 478.95l-2-2.35q-1.55-1.75-3.25-2.9-1.05.05-1.7.15-.65.15-.9.45-.15-.15-.35-.25l-.3-.2q-2.2-.15-1.85.65.4.8 1.8 2.55 1.1 1.55 2.2 3l2.2 3q-.5.5-.6 1.45-.15.95-.25 1.9-.9 7.3-.15 16.55.8 9.25 2.3 18.55 1.5 9.25 2.8 16.5 2.75 15.35 4.35 29.1 1.65 13.75 1.9 27.55t-1.25 29.35q-.8 9.2-.85 18.05 0 8.8.15 17.7.15 8.85-.1 18.05-.25 5.4-1.05 9.5-.8 4.05-1.35 7.7-.55 3.65 0 7.65l-.6 1.4q-.3.7-.65 1.4l-1.65 2.95q-1.4 2.45-3.1 5.95-1.75 3.5-2.85 7.05-.6.85-1.1 1.65-.45.85-.6 1.6.25.05.5.05l.5-.1q-.2 1.65 0 3.05.2 1.35 1 2.3-.5.8-.9 1.5-.35.75-.45 1.35.95 0 1.9-.95.9-.95 1.25-1.4 3.1-3.15 6-6.75 2.95-3.55 5.75-7.55.1.25.25.5.1.25.25.5-1.1 2.15-2.25 4.25t-2.25 4.05q-.4.65-1.4 2.2-1 1.5-1.75 3.35-.8 1.85-.5 3.4 2.75-.1 5.1-2.75 2.35-2.6 3.85-5.4l1.65-3.2q.15-.3.3-.55l.3-.6.3.4q.2.15.35.3-1 2.35-2.05 4.7-1 2.3-2.05 4.6-.35.7-1.3 2.25-1 1.55-1.8 3.3-.75 1.75-.65 3.05.2.1.35.1.2.05.35.05-.3.95-.45 1.8-.1.9.05 1.55 1.45-.1 2.85-1.65 1.4-1.5 2.3-3.05l.95-1.65q8.75-14.3 15-30.75 6.25-16.5 10-34.5 3.25-10.6 5.2-21.35 1.95-10.8 2.6-21.75 2.1-22.85-.8-47.05-2.95-24.2-10.85-46.95-7.9-22.75-20.75-41.3-2.3-3.95-4.8-7.7-2.45-3.75-5.1-7.35m.55 237.85q2.2-2.45 4.2-5l.1.15q-.6.85-1.2 1.65-.65.85-1.25 1.7-.45.45-1.4 1.6-.95 1.1-.95 2.2.15.05.4.1h.3q.1 0 .25-.15.15-.1.35-.3l.05.1.3.05q-1.1 1.5-2.2 3.05l-2.2 3q-.4.5-1.45 1.7-1.05 1.15-2.15 2.6-.25-1.35-.05-2.85t.7-2.95q.6-.5 1-1l.7-.7q2.35-2.45 4.5-4.95m12.7.5q-.1-.15-.15-.25-.05-.15-.15-.3.8-1.45 1.55-3 .75-1.5 1.55-3.05l-1.4 3.3-1.4 3.3M863.6 782.25l-2.05-.65q-1.75-.55-3.75-.75-1.95-.2-2.9.65-.1 1.4 1.5 2.4 1.65.95 2.7 1.4 7.65 3.7 17.7 5.85 10.05 2.15 20.4 3 10.35.8 18.95.4 5.4-.2 9.9-.95t8.9-1.9q4.4-1.15 9.5-2.6l2-.4q1.7-.35 3.4-1.05 1.65-.7 1.95-1.9 0-.15-.15-.25l-.15-.1q-.15-.15-.35-.25-.2-.1-.45-.15l.3-.1.35-.05q.7-.1 2.35-.5 1.65-.4 2.5-1.25 0-.3-.25-.4-.2-.1-.35-.1l-.35-.05q-.35 0-.8.05-.4-.1-.85-.05-.45.05-.7.05-8.35 0-16.7.9-8.3.9-16.65 1.55-8.3.65-16.6-.2l-1.65-.2q-1.25-.15-2.35 0l-.65.75-.05.45.7.35 1.75.3q2.05.3 4.1.45 2.1.2 4.15.25-.2.35.25.55.45.2 1.45.35.25.05.5.05l.5.1q-7.65.2-15.55-.55-7.9-.8-16.4-2.8-.6-.25-2.1-.6t-2.65.3q-.15.2-.25.35-.1.2-.2.35-2.65-.7-5.35-1.45-2.75-.75-5.55-1.6m77.85 2.55l.15-.05h.35l-.5.05M728.5 523.4q-1.6 3.65-3 7.4-1.45 3.75-2.7 7.7-7.6 18.55-10.75 40.55-3.15 22.05-2.15 44.9.95 22.85 5.7 44 .85 4.4 1.9 8.8 1.05 4.35 2.3 8.65 1.65 9.5 4.05 18.85 2.45 9.35 5.5 17.8 3.05 8.45 6.55 15.25l.15.5.45 1.05q.55 1.4 1.45 3.1.9 1.75 2.15 2.9-.45.1-.65.45-.2.3.25.8l1 .85.65.1q.5-.25.2-1.3.15.1.35.1.2.05.4.05.25-.5.15-1.15-.1-.65-.4-1.25.1-.05.15-.15.05-.1.1-.25l.55 1.15q1.65.4 3.25.8 1.6.45 3.3.5-.6-1.1-1.15-2.2l-1.15-2.15 1.3 2.2q.7 1.1 1.35 2.15.9 0 1.9-.2 1-.2 2-.65t2-.85q.95-.45 1.9-.8-.35-.45-.75-.9-.4-.5-.75-.95l.05-.15q.4.5.85.95.4.5.85.95 1.25-.45 2.55-.8 1.25-.4 2.55-.65-1.6-2.7-2.85-4.55l-2.2-3.5q-.3-.6-.65-1.25-.1-3.8-1-7.1-.95-3.35-2.1-7.05-1.2-3.75-2.1-8.75-2.1-12.85-3.6-25.1-1.55-12.3-4.3-25-3.25-14.35-4.9-27.25-1.65-12.9-2.25-25.9-.55-13-.45-27.55.05-6.9-.05-15.7-.05-8.8-.7-17.5-.65-8.75-2.35-15.4l-.4-1.8q-.25-.85-.7-1.3.65-1.45 1.3-2.95.7-1.5 1.35-3.05.85-1.75 1.05-2.55.2-.8-1.5-.45-.15.1-.25.25l-.25.25q-.2-.25-.75-.3-.5-.05-1.35 0-1.15 1.25-2.15 3.05l-1.25 2.35z" id="k"/><path fill="#FFF" d="M898 434q-45.45-1.35-79.8-2.25l-36.2-.95-8.55 9.7q-8.15 9.65-19.65 27.85-11.45 18.25-21.75 44.15-10.25 25.85-14.85 58.45-1.7 13.3-.9 37.55.8 24.25 4.3 52.35 3.55 28.15 10.05 53.1 6.55 24.95 16.35 39.6 4.55 6.15 19.9 12.45 15.35 6.35 37.6 11.75 22.25 5.45 47.35 8.9T901 790.6q21.9.2 45.35-3.8 23.45-3.9 44.6-10.15 21.1-6.2 36.05-12.85 14.9-6.65 19.75-11.85 5.55-6.25 12.35-23.25 6.85-17 12.8-41.3 6-24.25 8.95-52.35 2.95-28.1.7-56.55-2.85-28.3-12.65-53.2-9.8-24.9-21.7-44.1-11.85-19.15-20.95-30.35l-10.4-12.15-10.75-.9-26.85-1.15Q943.4 435.35 898 434z" id="l"/><path fill="#0081c6" d="M1051.6 302.65q-.5-1.15-1.7-1.2-1.2-.1-2.5.3-1.35.4-2.35.75-3.4 1.1-4.6 4.7-1.15 3.6-1.15 7.95 0 4.3.05 7.55-.1 5.4-.35 10.5-.25 5.1 0 10.55.6 10.65.5 21-.05 10.3-.45 20.95-.05 1.6 0 4.65.05 3.05.35 6.4-.2.05-.35.1-.2.1-.45.2l-.25.4q-.2.35-.6.6l-1 .7-.55.5q-.25.35-.3 1.05-.35.9-.5 1.85-.15.9-.25 1.45-.15.55-.3 1.15-.2.6-.45 1.1l-.15.5q-.15.35-.25.65-1.4-.4-2.45 1.35-1 1.75-1.6 3.75l-.65 2.2q-.6 1-1.5 1.7t-1.9 2.5q-1.05 2.15-2 3.95-1 1.8-1.95 3.5.5-1.75.45-3.2-.1-1.5-1.1-2.3-.75.55-1.35 1.75-.65 1.2-1.1 2.4-.4 1.15-.65 1.65-1.1 2.25-3.55 6.4-2.4 4.15-5 7.95-2.65 3.85-4.4 5.15l-.7.1q-.65.1-1 .5-.3.1-.25.4l.05.35q0 .15.35.3l.3.25q-.4 1.05-1.5 2.35-1.05 1.3-2.4 2.75-9 1.2-18.5 2.7-9.5 1.5-18.85 3.65-9.35 2.2-17.8 5.5-6.75 2.65-13.5 5.15-6.8 2.5-13.5 5.05l-2.1 1.05q-1.55.85-2.65 1.95-.05.25 0 .55 0 .25.1.5-.3.2-.25.5.1.25.35.55 2.5 2.7 9.3 4.05 6.8 1.4 14 1.85 7.2.5 10.9.6 16.4.45 30.7-4.6t27.05-14q3.85-2.15 7.3-4.7 3.45-2.55 6.6-5.8 5.8-5.45 10.25-12.85 4.4-7.4 7.85-17.5.2-.35.35-.7l.4-.7q5.25-9.95 8.65-22.45 3.45-12.45 5.45-25.5 2-13 3.1-24.6.15-1.15.4-3.2.2-2 .15-3.6.25-5.45-.05-10.75-.3-5.25-.85-11-.2-3.15-.55-7.15-.35-4-.95-7.9-.65-3.9-1.85-6.75z" id="m"/><g id="n"><path fill="#0081c6" d="M980.9 222.3l.4-1.3q.25-.95.1-1.7-.5-.4-.7 0-.2.45-.35 1.05-1.15 3.7-2.65 7.25-1.5 3.6-3.35 6.95-2.1 3.95-4.55 7.6-2.45 3.7-5.25 7.1-.3.3-.95 1-.7.75-.9 1.45l.15.1q-.35.3-.55.6-.25.35-.3.7.3.3.7.15.4-.15.65-.35 2.45-1.45 5.3-4.45 2.85-3.05 5.5-6.45 2.6-3.4 4.2-5.85.15-.2.45-.65.3-.5.6-1.05.2-.35.3-.75.1-.35.05-.7-.45-.25-.75.15t-.5.8q-.15.2-.25.4l-.3.4q.35-.85.45-1.65.05-.8-.35-1.4-.35-.2-.6-.1t-.45.4q1.2-2.5 2.2-4.95.95-2.45 1.7-4.75m-14.3 26.2l.25-.3h.05l-.3.3z"/><path fill="#FFF" d="M966.85 248.2l-.25.3.3-.3h-.05m45.6-63.95q-2.9 1.1-4.65 4.1-5.3 9.6-9.85 17.75-4.5 8.15-9 15.15-4.45 7-9.55 13.2-.3.55-.6 1.05-.3.45-.45.65-1.6 2.45-4.2 5.85-2.65 3.4-5.5 6.45-2.85 3-5.3 4.45-.25.2-.65.35-.4.15-.7-.15.05-.35.3-.7.2-.3.55-.6l-.15-.1q.2-.7.9-1.45.65-.7.95-1 2.8-3.4 5.25-7.1 2.45-3.65 4.55-7.6-2.9-1.1-7.15-2.85t-9-3.85q-4.7-2.1-9-4.3-6.95-3.95-20.9-7.25-14-3.3-33.35-1.7-19.3 1.55-42.4 12.4-11.55 5.65-18.3 10.7-6.75 5.05-10.75 10-3.95 4.95-7.3 10.3-4.2 6.45-9.6 17.45-5.45 11-10.45 23.85-5 12.85-7.95 24.85-3.3 14.7-3.2 25.95.05 11.2 1.4 17.9l1.75 7.95 1.2 3.65 3.1 6.75q4.05 8.25 13.25 21.1 9.2 12.85 25.1 28.85 13.95 13.5 28.95 22.25 15 8.7 28.05 13.55 13.05 4.85 21.2 6.75 22 5.1 41.9 2.45 19.95-2.6 34.85-9.1 14.9-6.45 21.9-12.9 14.8-13.7 24-35.6 9.2-21.9 13.1-48.4 3.85-26.55 2.6-54.2-1.8-34.2-6.7-61.8-4.9-27.65-10.2-46.15-5.35-18.5-8.3-25.3-1.35-2.95-4.1-3.85-2.75-.9-5.6.25z"/></g><path fill="#FFF" d="M789.2 341.6q-3.4 5.75-11.45 18.2-8.05 12.45-17.8 27.65t-18.3 29.35q-8.55 14.1-12.85 23.2l49.1 7.45q46.65 6.55 107.9 14.7 61.2 8.1 107.35 13.7l35 3.95 12.65.65-7.8-9.85q-5.8-7.2-13.15-15.8-7.35-8.55-13.8-15.45-6.5-6.85-9.8-8.9l-35.8-15.85q-31.25-13.5-70.8-30.35-39.6-16.85-69.25-29.4l-31.2-13.25z" id="o"/><path fill="#0081c6" d="M840.25 295.25q-.35.05-.6.4-.25.3-.35.8-.05.25-.1.6l-.1.7q-.05.65-.05 1.4v1.3q.05 4.3.35 6.75.3 2.5.9 4.75 1.2 4.9 3.35 8.6 2.2 3.7 5.85 4.8.65.25 1.35.25.7 0 1.15-.1 3.2-.85 5.8-3.55 2.55-2.65 4.2-6.4 1.65-3.7 2.2-7.55l.1-.7q.1-.55.1-1.2.2-1 .15-1.8-.05-.85-.4-1.4-.45.15-.65.7-.15.55-.2.8-1.2 4.15-2.2 7.35-.95 3.25-2.75 5.6-1.75 2.35-5.45 3.85-2.65.85-4.95-2.1-2.3-3-3.9-7.55-1.6-4.6-2.2-8.45l-.4-1.8-.3-1.9q-.15-1.3-.35-2.3-.25-.95-.55-1.85z" id="p"/><path fill="#FFF" d="M915.85 293.65q-.95-9.75-6.65-17.4-5.7-7.65-18.65-10.15-13.2-1.9-21.3 3.85-8.15 5.75-12.65 14.6-4.45 8.8-6.65 16.15 8.9 1.05 20.1 2.9 11.2 1.85 23 4.1 11.75 2.2 22.35 4.35 1.35-8.7.45-18.4z" id="q"/><path fill="#A6CE38" d="M957.25 636.4l-56.85-.25 27.95 211.35 28.9-211.1z" id="r"/><path fill="#AED044" d="M1023.65 650.35l.3-.1-.05-.4q-.05.15-.1.25t-.15.25m12.9-14.3q-.1.4-.25.8-.1.4-.25.8l-.3 1.3q-.15.6-.25 1.2.55-.75 1-1.55.4-.75.75-1.55l.05-.3-.75-.7m91.1 55.1q-.35.65-.65 1.3.25-.45.55-.95.3-.5.55-.95l.1-.4q0-.15.05-.35-.3.65-.6 1.35m11.65-148.6q-.9-2.45-1.85-4.85-15.85 31.3-38.2 54.2-22.4 22.9-56.6 42.1-.25 1.55-.75 3-.5 1.4-1.3 2.7-.85 1.3-2.05 2.5-1.2 1.2-2.9 2.25-.15.15-.35.25-.2.15-.35.25-.9.65-1.6 1.25-.7.6-1.25 1.25 1-.4 2-.75.95-.4 1.95-.8 18.1 15.15 37.4 27.9 19.3 12.7 36 28.95.3.35.9 1.1l1.4 1.75-.25.05-.3.1q.55.4 1.05.8t.95.8l.05-.15q.1-.5.25-.9t.25-.7l.1-.3q.35-1.2.8-2.35.4-1.2.9-2.35 3.75-8.75 9-17.4 5.2-8.65 9.4-17.6.2-.7.35-1.35l.35-1.15q.95-4 1.55-5.9.55-1.9 1.35-1.95 1.2-5.05 2.3-9.95 1.1-4.95 2.9-9.15 1.15-2.5 2.05-5.2.95-2.65 1.7-5.45.25-2.2.4-4.35.2-2.2.3-4.35.35-7.4.8-16.25.5-8.8.6-18.1-1.05-9.1-2.95-17.95-2-8.8-4.6-16.9-.85-2.6-1.75-5.05m197-377.55q-.7-.1-1.4-.3l-.9-.15q-3.7-.3-7.1.3-3.4.65-6.9 1.6-1.75.35-5.9 1.4-4.15 1-6.05 3.1-.05.2-.05.35 0 .15.1.3-1.2.6-2.35 1.25-1.15.65-2.15 1.2-55.45 31.95-79.35 84.55-23.9 52.55-35.25 112.5-11.35 59.9-29.05 113.85-2.85 7.85-5.75 15.2t-5.8 14.2q1.4 1.75 2.7 3.7 1.3 2 2.55 4.15 3.2 5.75 5.4 11.4 2.25 5.7 3.05 9.65 4.55 22.85 4.5 49.85-.1 27-5.1 54.15-5 27.1-15.2 50.25-.4.95-.85 1.85-.4.9-.85 1.75l1.2-.4q.55-.2.95-.35 48-16.3 82.9-49.15 34.95-32.9 43.75-80 .45-1.85.5-5.95 0-4.1-2.7-6.75-2.55-.6-5.05.15-2.55.75-4.8 2.3-1.95 1-3.75 2.3-1.75 1.3-3.4 2.8l-.4.4q-.3.2-.6.5.15-1.15.35-2.25.2-1.1.45-2.15 20.15-27.65 33.75-60.35 13.6-32.65 22.6-64.4 2.95-9.3 8-23.8t8.9-30.2q3.9-15.7 3.2-28.65.1-2.55.1-4.55-.05-2.05-.1-3.35.1-3.4-.75-6.75-.85-3.3-3.15-5.7-1.1-1.9-2.65-3.3-1.55-1.45-3.55-2-.45-.35-1.15-.55-.75-.15-1.05-.15-5.75-.5-11.1 1.7-5.35 2.25-10.05 6.25 1.7-12.2 5.65-21.55 3.95-9.35 10.85-21.05.55-.8 1.55-2.8 1.05-1.95 1.3-4.1 9.35-16.65 16.65-36.65 7.3-19.95 10.5-39.45 3.2-19.5.25-34.7-.3-2-2-5.75-1.75-3.8-5.45-5.7z" id="s"/><path fill="#A6CE38" d="M1072.2 375.55l-4.05-17.8q-26-12.55-57.2-16.7-31.2-4.15-54.1-4l-24 .5-6.8 14.25q-6.4 13.4-13.6 28.5-7.2 15.05-10.05 21.15l180.85 23.65-3.85-17.3q-3.6-16.05-7.2-32.25z" id="t"/><path fill="#A6CE38" d="M1001.3 267.15q-15.6 1.8-25.15 7.4-9.55 5.55-13.9 10.55-4.6 5.15-13 19.85-8.4 14.7-15.2 28.7l-5.1 11.25-1.65 5.8q1.5 5.7 11.65 11.85 10.1 6.15 24.4 11.1 14.25 4.9 28.2 6.9 16.55 2.1 33.15.8 16.55-1.3 28.7-5.5 12.15-4.25 15.35-10.85l-1.4-28.15q-1.5-20.5-7.7-40.2-6.2-19.7-20.15-25-22.55-6.3-38.2-4.5z" id="u"/><path fill="#A6CE38" d="M1099.4 333.3q11.45-10.2 19.2-22.3l-3.55-2.1-10.1-4.2q-13.4-5.25-36.75-7.1l2.95 10.5q3.05 9.8 6.7 21.3 3.65 11.5 5.55 17.3l16-13.4z" id="v"/><path fill="#AED044" d="M837.25 160.55q-1.55-2.4-5.55-4.1-4-1.65-5.7-2.3-3.45-1.55-6.75-2.75-3.35-1.15-7.25-1.5l-2.45.15q-4.15 1.25-6.75 4.65-2.55 3.45-3.25 5.3-6.25 14.55-7.05 34.25-.8 19.75 2.5 40.65 3.25 20.85 9.35 38.8-.2 2.15.4 4.3.65 2.1 1.05 3 4.6 12.65 6.7 22.5 2.05 9.9 1.25 22.15-4-4.7-9-7.8-5-3.1-11-3.5-.3-.05-1.1 0-.75 0-1.3.3-2.15.2-4.05 1.35-1.85 1.15-3.4 2.85-2.9 2-4.45 5.1-1.5 3.15-2.15 6.55-.35 1.25-.8 3.25-.4 2-.85 4.45-3.45 12.7-2.8 28.8.65 16.1 2.8 31.2 2.15 15.1 3.2 24.8 2.55 32.75 9.6 67.15 7.05 34.45 21.9 65.05.05 1.05 0 2.2 0 1.1-.1 2.25l-.5-.6q-.2-.25-.35-.45-1.35-1.75-2.9-3.35-1.55-1.55-3.35-2.85-1.95-1.9-4.4-3.05t-5.15-1q-3.35 2.2-4.15 6.2-.85 4.05-.75 5.95-.9 47.85 27.95 86 28.85 38.2 74.6 62.2 3.2 1.8 11.15 6.05t15.55 6.95q0 .45.25.95.2.55.95.65.5-.1 1.05-.3.5-.15 1-.4l.3.1.1-.1 1.8-1.05q1.3-.8 3.1-1.7l-.55-.2q1.05-.85 1.85-1.5.75-.65 1.1-.9 20.5-13.25 42.95-22.6 22.4-9.35 44.15-21.2.9.5 1.85 1.05.95.55 1.85 1.05-.4-.65-.95-1.4-.6-.7-1.4-1.5-.15-.15-.35-.3l-.3-.3q-1.5-1.3-2.5-2.7-.95-1.35-1.55-2.8-.55-1.4-.75-2.9-.2-1.5-.2-3.05-28.25-22.45-45.65-46.1-17.45-23.65-27.35-52.65-9.95-29-15.75-67.45-6.8-56.1-5.8-117 .95-60.9-12.5-116.65-13.45-55.75-63.45-96.4-.95-.75-2-1.55-1-.85-2.15-1.65.15-.1.2-.25.05-.15 0-.35m190.2 519.15l.3.15q-.05-.15-.05-.25-.05-.15-.05-.25l-.2.35m-9.75-14.4q-.05-.4-.05-.85l-.1-.8-.95.55.05.3q.15.85.45 1.65.25.85.7 1.65v-1.2l-.1-1.3z" id="w"/><path fill="#A6CE38" d="M793 728.5l11.5 6.7q11.3 6.35 30.65 14.8 19.35 8.4 43.85 15l10.25-22.7q9.2-21.4 21.05-49.5 11.85-28.05 20.8-49.35l9.4-22.45-25.4-11.05L793 728.5z" id="x"/><path fill="#A6CE38" d="M925.95 432.95l-24.45 3.1-9.45 2.05q-2 9.35-5 29.7-3 20.4-7.65 47t-11.6 54.6q-8.4 37.55-26.8 76.8-18.4 39.2-59.2 75l12.6 1.85 23.35-2.45q28.75-4.55 70.05-17.05t86.3-32.35q52.95-24 83.6-48.35 30.65-24.3 44.3-48.7 13.65-24.4 15.6-48.55 2.15-25.45-.45-50.4-2.6-25-6.1-41.95l-4.2-18.1-33.5 2.9q-31.8 2.95-73.65 7.1-41.85 4.15-73.75 7.8z" id="y"/><path fill="#0081c6" d="M1010.55 296.3q-.2-.05-.3 0-2.05 2.15-.05 8.2 1.95 6.1 3.55 8.8 5.35 8.9 8.9 6.8 3.6-2.05 5.2-10.65l.55-3.3q.35-2.9-.85-4.3-.3-.1-.6 0-.25.15-.4.3l-1.2 4.65q-.75 3.9-1.3 5.55-.2.65-.95 2.15-.8 1.55-1.7 2.25-.15 0-.3-.1l-.2-.15q-2.35-1.4-4.8-7.55-2.45-6.15-3.35-8.95l-.55-1.65q-.45-1.2-1.25-2-.2 0-.4-.05z" id="z"/><path fill="#A6CE38" d="M1032.8 313.4l-.75-4.85q-.85-4.45-3.65-8.95-2.8-4.45-8.5-4.7-6.65.35-9.9 5.9-3.25 5.5-3.9 12.4l26.7.2z" id="A"/></defs><use xlink:href="#a" transform="matrix(1.29524 .02345 -.0238 1.27998 -1268.65 -185.9)"/><use xlink:href="#b" transform="matrix(-.46518 -.0212 -.02682 .47116 1317.3 262.55)"/><use xlink:href="#c" transform="matrix(-.26186 .38506 .3872 .2698 973.75 52.65)"/><use xlink:href="#d" transform="matrix(-.47195 -.0028 .10197 .54448 1171.85 162.7)"/><use xlink:href="#e" transform="matrix(-.36687 .18 .30148 .37898 960.7 145.7)"/><use xlink:href="#f" transform="matrix(-.47183 -.00285 -.03886 .5421 1426.2 168.55)"/><use xlink:href="#g" transform="matrix(-.47183 -.00285 -.03886 .5421 1426.2 168.55)"/><use xlink:href="#h" transform="matrix(-.47183 -.00285 -.03886 .5421 1413.5 186.55)"/><use xlink:href="#i" transform="matrix(.489 .1036 -.1052 .45703 504.95 167.65)"/><use xlink:href="#j" transform="matrix(.42307 .26604 -.25595 .39305 596.3 47.05)"/><use xlink:href="#k" transform="matrix(-.45575 .0114 .01253 .469 1303.45 213.45)"/><use xlink:href="#l" transform="matrix(-.45575 .0114 .01253 .469 1303.45 213.45)"/><use xlink:href="#m" transform="matrix(.49698 .0537 -.05864 .46529 487.25 211.3)"/><use xlink:href="#n" transform="matrix(.49698 .0537 -.05864 .46529 487.25 211.3)"/><use xlink:href="#o" transform="matrix(.2643 .0036 -.10518 .45068 691.8 256.85)"/><use xlink:href="#p" transform="matrix(.53548 -.07887 -.0628 .53162 482.65 299.75)"/><use xlink:href="#q" transform="matrix(.49698 .0537 -.05864 .46529 487.15 194.85)"/><use xlink:href="#r" transform="matrix(.08572 .00127 -.00179 .08351 1073.8 390.15)"/><use xlink:href="#s" transform="matrix(.0793 -.00787 .01088 .08049 1065.55 392.7)"/><use xlink:href="#t" transform="matrix(.08276 -.0208 .02037 .09003 1064.85 413.1)"/><use xlink:href="#u" transform="matrix(.08449 -.02792 .02745 .08623 1060.45 421.95)"/><use xlink:href="#v" transform="matrix(.08667 -.03311 .03682 .08426 1052.25 427.05)"/><use xlink:href="#w" transform="matrix(.0765 .00505 -.00656 .08061 1080.35 378.25)"/><use xlink:href="#x" transform="matrix(.09554 .03944 -.03354 .05775 1076.2 377.45)"/><use xlink:href="#y" transform="matrix(.07104 .0028 -.0037 .07787 1086.05 393.3)"/><use xlink:href="#z" transform="matrix(.10815 -.03732 .04114 .10507 1030.15 425.3)"/><use xlink:href="#A" transform="matrix(.09334 -.00719 .00789 .0907 1053.6 404)"/></svg>