<svg xmlns="http://www.w3.org/2000/svg" xmlns:xlink="http://www.w3.org/1999/xlink" preserveAspectRatio="none" width="580" height="460" viewBox="675 210 580 460"><defs><g id="a"><path fill="#0081c6" d="M1801.75 495.7h-.05l-.4.15q-.15.1-.2.15 0 .1.1.2l-.2.1.15.15.05.05.15-.2.1-.1.05-.1q.1-.05.2-.15.05-.1.15-.15h-.2l.1-.1m51.55 10.8q.15-.15-.05-.45l.1-.3-.1-.4-.2-.15-.25-.05H1848.4l-.4-.05-12.85-.1-.4.15-.05.1-.1.3.05.15q-.35.1-.45.25-.1.2.05.4-.1.2.05.35.15.2.55.2-.2.25-.05.5.15.25.65.25h1.75q.9 0 1.8-.05 2.55 0 5.05-.05 2.55 0 5.1-.05.75 0 1.5-.05h1.45q.35 0 .55-.2.2-.15.1-.45l.1-.05q.3-.05.45-.25z"/><path fill="#FFF" d="M1849.15 507.9v-.4q-2.55.05-5.1.05-2.5.05-5.05.05-.25 13.2-.15 26.45.15 13.2.2 26.45.05 13.2-.45 26.35V590q.05 2.25.05 5.05.05 2.8-.05 5.35v.7q0 .4-.05.7v1.2l-.05.2v.3q0 .15.05.35v.7q0 .45-.05 1v1.15q-2.1.35-4.2.8-2.15.4-4.2.85l-2.1.4-3.55.65-1.4.2-2.2.4h-.05l-.5.1q-1.25.2-2.55.4-1.25.25-2.55.45l-.3.05q-.15.05-.35.05l-.65.1.05.1h-.05v-.1q-.35.1-.7.15l-.7.1-.45.1q-.25.05-.45.1l-.5.1q.05.25.05.5v.45q.05.25.05.45v2.35q0 1.55.1 3.45v.7q.05.3.05.65.05.35.1.75 0 .35.05.75.3.05.6.05.25.05.55.1.35.05.75.1.35.05.75.1.45.05.95.1.45.05.95.1 2.95.3 5.85.5 2.85.2 5.05.45l3.35.4q2.45.3 5.4.65 2.9.3 5.2.5l1.9.1 1-.1q.15.05.4.1t.5.05q.4 0 .9-.05.55-.05 1.1-.15 4.95-.8 9.5-1.4 4.6-.65 9.25-1.25 4.7-.65 9.75-1.4.3-.05.65-.1.3-.1.6-.15.35-.1.65-.2.3-.05.65-.15 0-.55.05-1.2 0-.65.05-1.4v-.3-.9-.3-.25q.05-1.55.05-3.25.05-1.65 0-2.75l-.05-.3h-.65q-.35-.05-.7-.05l-1.4-.1q-.25-.05-.5-.05l-1.5-.1-6-.5-6-.6q-1.75-.3-3.85-.45-2.05-.15-3.9-.3-.75-.1-1.95-.25-1.15-.2-2.45-.3-.1-.9-.15-1.7-.05-.8-.1-1.25-.05-1.85-.1-3.8 0-1.9-.15-3.8v-.1q.3-22.05.5-44.05.15-22.05.2-44.15m45.55-31.55q.15-1.45.15-3.25 0-.75-.05-1.45 0-.7-.05-1.4h-4.4q-.2 0-.4.05h-.7q-15.7.15-31.4.75t-31.4.8q-1.1 0-2.1.05h-2.7v.6l-.2.25q-.5.5-.95 1-.45.5-.85 1-4.4 5.4-9 10.55-4.55 5.1-8.9 10.4l-.1.1h.2q-.1.05-.15.15-.1.1-.2.15l-.05.1-.1.1-.15.2-.05-.05-.05.05q-.55-.65-1.15-1.25-.55-.6-.9-.8l-.25-.05-.1-.05q-.75.2-.9 1.45-.15 1.25-.05 2.45l.1 1.35v2.1q-.05 1.45.05 2.8.15 1.4.6 1.8v.05h.05l.1.05.35-.05h.6q.2 0 .35-.05h1.5q8.3-.15 16.65-.5 8.3-.35 16.6-.55l.05-.1.4-.15 12.85.1.4.05h.35l.35-.05H1849.95l3.2-.05h1.75q.9 0 1.8-.05 2.15-.05 4.3-.05l4.35-.1H1866.2l.3-.05h1.7q.7-.05 1.4-.05l.4-.4q.2-.25.4-.45.7-.75 1.1-1.25l.35-.4.1-.15.2-.15.2-.2.15-.2.55-.55.55-.55.45-.45 9.6-9.5q4.85-4.75 9.35-9.8.65-.7 1-1.3.3-.6.35-1l.1-.3.15-.6.1-1.15z"/></g><path fill="#FFF" d="M949.7 654.45l3.7 8.65q2.65 6.55 8.3 12.45 5.65 5.9 15.85 6.1 5.45-.15 11.15-.7 5.7-.55 10.05-1.05l5.55-.5 11.8-5.35q26.35-4.7 42.45-11.5 16.15-6.85 26.35-14.55 10.15-7.75 18.6-15.1 7.55-6.45 12.55-15.8 5-9.35 7.55-19.25 2.6-9.95 2.9-18.15.3-8.2-1.5-12.35-3.45-7.75-9.1-19.2-5.7-11.4-13.75-25.2-8.05-13.75-18.6-28.45-11.75-16.15-25.15-30.5-13.35-14.35-27.05-25.1-13.75-10.75-26.6-16.1-13.25-4.95-18.5 2.45Q981 432.6 980.7 446q-.3 13.45 1.3 26.65 1.6 13.25 2.15 20.05 0 10.25-6.3 29.05-6.3 18.75-14.15 42.05-7.85 23.25-12.55 46.95-4.7 23.7-1.45 43.7z" id="b"/><path fill="#0081c6" d="M822.65 544.4q-2.4-11.25-5.55-22.4-3.15-11.15-7.45-22.05-1.3-3.1-2.8-4.7-1.5-1.6-3-2.85-1.45-1.2-2.55-3.25-.8-1.45-1.15-2.7-.35-1.3-.35-2.35-4.35-4.4-8.75-8.95-4.35-4.5-8.05-8.9-3.75-4.4-6.05-8.4-3.45-2.2-6.25-4.3-2.85-2.1-4.65-3.6l-.55-.75q-.35-.6-.75-1.05-.25 6.85-5.3 8.25-5.1 1.35-10.95.4-5.9-.95-8.55-1.05l-2.6 1.05-3.85 2.4q-4.55 3.1-9 6.7-4.5 3.55-6.35 5.3-3.15 2.85-6.25 3.25-3.05.4-5.05-1.15-2.05-1.55-1.95-4.65-.5.55-.95 1.1-.45.6-.95 1.15 2.85 3.35 1.9 7.5-.9 4.2-6.15 7.2-2.8 1.7-5.15 5.15-2.4 3.5-4.5 6.8-1.55 2.35-3.25 6.35-1.75 4.05-3.7 8.65-.35 1.25-.75 2.45l-.7 2.5q-.05 4.35-.85 8.75-.85 4.45-2.2 8.1-1.35 3.7-2.85 5.8-.25 1.2-.5 2.35-.3 1.15-.55 2.3-.4 2.05-1.05 5.75-.6 3.7-1.4 8.35-2.05 26.85-1.45 58.65.6 31.8 5.3 66.6 4.75 34.75 15.25 70.6l2.05 2.1 5.4 3.65q7.05 4.45 19.5 8.45 12.4 4 28.9 3.95 15.45-.45 25.8-3.25 10.3-2.8 15.9-6.15l4.45-3 2.35-2.4q4.45-13.45 8.75-35.65 4.25-22.25 8.05-49.4 3.85-27.15 6.95-55.45 3.1-28.25 5.3-53.8l-.5-9.7q-.3-4.85-.65-9.7z" id="c"/><path fill="#FFF" d="M823.5 476.15q-.1-12.8-2.45-25.8-2.4-12.95-9.55-21.6-7.15-8.65-21.5-8.4-13.05.85-26.75 8.95-13.75 8.1-26.15 19.35-12.45 11.3-21.6 21.6-9.2 10.35-13.2 15.65-7.8 10.3-16.65 24.9-8.85 14.55-16.85 29.8-8 15.25-13.25 27.6-5.25 12.3-5.9 18.05-.8 11.75 6.05 25.6 6.9 13.85 18.55 26.95 11.6 13.1 24.9 22.55 13.35 9.45 25.35 12.4 8.05 1.9 19.95 2.15 11.85.25 26.05-2.15 14.25-2.45 29.35-8.65 13.1-5.25 22.6-7 9.5-1.75 15.05-2.2l4.45-.8 2.3-1.25q2.9-20.4.55-43.4-2.35-23-7.05-45.2-4.7-22.2-8.9-40.1-4.2-17.9-5-28.1-.25-8.1-.35-20.9z" id="d"/><path fill="#FFF" d="M743.05 735.4l2.4 26.55 5.3 56.55q3.05 32.05 5.35 56.5l2.45 26.15q5.05 6.6 16.15 10.9 11.1 4.3 25.05 5.7 13.95 1.45 27.6-.6 13.6-2.05 23.65-8.2l3.25-9.65q3-9.1 7.2-23.65 4.15-14.5 7.8-31.1 2.85-13.45 5.95-28.85 3.15-15.4 5.85-29.3 2.7-13.9 4.45-22.8l1.75-9.3q-7.5-13.8-27.25-19.8t-43.75-6.55q-24-.6-44.3 1.9-20.3 2.45-28.9 5.55z" id="e"/><path fill="#0081c6" d="M943.65 840.8q-1.05-2.05-1.45-3.45-.75-2.75-1.15-5.5-.35-2.8-.9-5.5l-.5-1.5-.55-.4q-.6.1-1.05 1.35-.4 1.2-.4 2.45.15 3.15 1.1 7.5.95 4.35 3.1 7.95 2.1 3.6 5.8 4.45 3.45.45 5.8-2.6 2.35-3 3.65-7.05 1.3-4.05 1.65-6.75.15-1 .2-2.9.05-1.9-.25-3.6-.3-1.75-1.25-2.3l-.2-.05q-.15 0-.2.05-.35.35-.45.85l-.15.7q-.25 1.9-.3 3.9 0 2-.35 3.95-.3 1.7-1.15 4.5-.85 2.8-2.15 5.3-1.3 2.45-3 3.1-1.75.45-3.3-.95-1.5-1.45-2.55-3.5z" id="f"/><path fill="#FFF" d="M923.4 167.5q-7.3 4.55-12.05 9.45l-3.75 4.25-1.65 2.85-.5 2.95-.15 4.9q0 5.8.3 12.55.3 6.75.65 11.65l.35 5.15 3.1.4q2.9.45 5.9.75l2.3.15 1.1-.1q6.6-9.4 10.15-14.5 3.55-5.1 5.2-8.2 1.65-3.1 2.5-6.45 1-3.95 1.75-11 .8-7.05.95-13.2l-.1-4.9-.55-2.4q-8.2 1.15-15.5 5.7z" id="g"/><path fill="#FFF" d="M849.85 162.55l-1.6-2.25q-9.45 6.35-16.05 16.6-6.6 10.3-10.05 19.9-3.45 9.65-3.4 13.95.35 2.7 3.35 8.4 3 5.75 6.9 12.05 3.85 6.35 6.8 10.85l3.05 4.7 3.85-1.85q3.6-1.65 7.2-3.5l2.8-1.55 1.2-.9q2.9-13.8 3.9-23.65.95-9.85.75-15.95-.25-6.05-.95-8.65-.75-3-2.4-9.95-1.65-6.95-3.55-13.25l-1.8-4.95z" id="h"/><path fill="#FFF" d="M661.65 767.35l-12.75-1.2q-1.6 0-2.6 1.1-1.05 1.1-1.1 2.55-.05 1.5 1.3 2.7l2.6 1.4 5.45 2.2q6.9 2.6 18.4 4.6 11.45 2 26.2 1.2 14.7-.75 31.5-6.45 11.65-4.35 21.95-12.65 10.35-8.3 18.3-17.35 8-9.05 12.6-15.55l4.8-7.25-1.05-1.4-2.9-2.8q-3.8-3.5-8.4-7.55-4.65-4-7.35-6.3-2.1 3.35-7.35 10.9Q756 723 748.5 732q-7.45 9.05-16.15 16.9-8.75 7.85-17.75 11.9-13.4 5.4-27.85 6.4-14.4 1-25.1.15z" id="i"/><path fill="#0081c6" d="M1065.35 476.45q-4.7-4.8-10.2-9.3-5.25-4.85-11.3-9.3-6-4.5-12.8-8.55l-.4-.6q-.2-.25-.4-.45-.45-.1-.8-.15-.35-.05-.6-.05-1.2-.65-2.65-1.4-1.5-.8-2.65-1.45-.55-.35-1.1-.25-.55.15-.15 1.05l.55.45 1.4.95q1.85 1.25 4.5 3l.25.7q.1.4.25.85 2.75 8.15 6.25 16.05 3.45 7.95 6.35 16.05 5.6 17.2 7.45 34.5 1.85 17.3 3.35 34.5 1.55 17.25 6.15 34.15 5.65 20 5.8 40.05.1 20.1-4.5 39.8-4.55 19.65-13 38.4l-1.65 2.95q-1.4 2.45-3.1 5.95-1.75 3.5-2.85 7.05-.6.85-1.1 1.65-.45.85-.6 1.6.25.05.5.05l.5-.1q-.2 1.65 0 3.05.2 1.35 1 2.3-.5.8-.9 1.5-.35.75-.45 1.35.95 0 1.9-.95.9-.95 1.25-1.4 11.7-12.15 21.2-29.6 9.55-17.5 16.35-37.45 6.75-20 10.2-39.6 2.35-8.25 3.9-17.1 1.6-8.9 2.35-17.95 1.55-8.65 2.25-17.45.7-8.75.35-16.05-.05-1.25-.15-2.55-.1-1.3-.25-2.7-.65-9.8-3.75-21.55-3.1-11.7-8.25-22.8-5.15-11.15-11.8-19.2-3.95-5.15-8.65-10m-17.4 239.45q2.55-2.9 4.85-5.9-.9 1.3-1.85 2.6-.95 1.35-1.95 2.7-.45.45-1.4 1.6-.95 1.1-.95 2.2.15.05.4.1h.3q.1 0 .25-.15.15-.1.35-.3l.05.1.3.05q-1.1 1.5-2.2 3.05l-2.2 3q-.4.5-1.45 1.7-1.05 1.15-2.15 2.6-.25-1.35-.05-2.85t.7-2.95q.6-.5 1-1l.7-.7q2.75-2.9 5.3-5.85m32.7-63.1q-.528 1.736-1.1 3.45l1.05-3.4q.528-1.736 1.05-3.5-.475 1.75-1 3.45m-181.7 133.4l1.75.3q2.05.3 4.1.45 2.1.2 4.15.25-.2.35.25.55.45.2 1.45.35.4.05.75.1.4.05.85.1-1 .1-2 .15l-3.65.25q-1.25.1-2.25.55-.1 0-.3.2-.2.15-.2.3.25 1 1 1.1.75.1 1.75.05 11.55-.45 22.45-2.1 10.95-1.65 22.3-3.95.7-.1 2.35-.5 1.65-.4 2.5-1.25 0-.3-.25-.4-.2-.1-.35-.1l-.35-.05q-.35 0-.8.05-.4-.1-.85-.05-.45.05-.7.05-8.35 0-16.7.9-8.3.9-16.65 1.55-8.3.65-16.6-.2l-1.65-.2q-1.25-.15-2.35 0l-.65.75-.05.45.7.35m41.9-1.15q.2-.05.4-.15.2-.05.35-.15.4 0 .8-.05l.75-.05q-.4.05-.65.1t-.45.1l-.6.1-.6.1M746.95 525.2l-.3-2.3q-.3-1.75-.9-3.1-.25-.25-.55-.2-.3 0-.5.3l-.2 1-.1 2.05q-.05 2.5 0 5.25v3.7q-.4 8.85.15 16.75.6 7.9 1.65 15.65 1.05 7.8 2.05 16.25.65 5.45 1.6 11.1.95 5.65 1.85 11.35.05.65.15 1.25.1.6.2 1.15.4 2.55.65 5.1.3 2.5.5 4.95-.1.9-.1 1.85-.05.95.05 1.8 0 .6-.05 1.2 0 .65.1 1.3-1.2 4.65-2.2 9.3-1 4.65-1.7 9.25-1.9 10.9-4.2 21.75-2.35 10.9-3.25 21.85-.65 9.75.65 17t4.35 14q3.1 6.75 7.85 14.85.15.25.4.8t.6 1.25q0 .25.05.55.05.25.2.5l.25-.05q.45.8.95 1.45.55.7 1.1 1 .3-.15.3-.5v-.55q0-.45-.15-1.1-.2-.6-.55-1.35 1.3-1.6 2-3.7l.8-2.7q1.4-6.35 2.6-13.05 1.15-6.65 2.15-13.05 2.5-15.4 4.95-31.25 2.45-15.8 3.95-31.3 1.1-13.05-1.05-26.6-2.2-13.55-6.85-26.7.05-.6 0-1.15 0-.55-.15-1-.15 0-.3-.1-.2-.1-.25-.05l-.1.05q-3.2-8.7-7.25-16.85-4-8.15-8.55-15.45l-1.1-1.65q-.9-1.3-1.7-2.4 0-.1-.2-.2-.2-.05-.35 0 .2-4.7.4-9.45.25-4.75.1-9.8z" id="j"/><g id="k"><path fill="#FFF" d="M955.75 420.8q-32.35 1.95-74.45 4.9-42.1 3-73.95 5.35l-33.55 2.45-6.15 9q-5.85 8.75-12.75 23.3t-10.45 32.15q-3.25 18 .4 46.1 3.6 28.05 13.25 66.4-.8 6.15-2.9 18.9-2.15 12.8-4.45 27.5-2.35 14.75-3.8 26.75-1.45 12.05-.9 16.6.9 6.2 4.65 17 3.8 10.75 10.3 22.85 6.5 12.15 15.7 22.35 9.15 10.25 20.95 15.4 14.6 5.8 36.3 8.2 21.75 2.35 46.25 2.2 24.5-.2 47.4-2.1 22.9-1.9 39.9-4.7 20.25-3.4 35.8-13.2 15.5-9.75 27.6-24.6 12.1-14.8 22.1-33.25 5.6-10.1 11-23.3 5.45-13.15 10.15-28.2 4.7-15.1 8.05-30.9 3.5-16.85 5.25-33.15 1.7-16.25 1.8-30.6.1-14.35-1.4-25.35-4.1-26.05-18.75-47.6t-32.4-37.35q-17.7-15.8-31.05-24.7l-14.95-9.75h-10.05l-24.9 1.35z"/><path fill="#0081c6" d="M1027.1 329.9q-1.45 1-1.4 3 .1 2 .4 3.7-1.25.65-1.3 3-.1 2.3.25 4.5l.4 2.4q.5 5 .3 10.2-.25 5.2.6 10.6 1.2 7 .5 15.15-.65 8.15-2.75 16-2.15 7.85-5.3 13.9l-.95 1.8-.3.9.5.35 1.4.1q.95-.9 1.75-2.25l1-1.8q1.2-2.6 2.2-5.4 1-2.75 2.4-4.8 1.95-2.7 3.15-7.35 1.25-4.65 1.7-9.55.5-4.95.1-8.6-.15-1.5-.2-3-.05-1.5 0-3.05.6-2.8.6-5.4 0-2.65-.2-5.85-.2-4-.1-7.35.05-3.35.25-7.15l.1-2.05q.05-1.75-.3-3.55-.3-1.85-1.35-2.55-.2.05-.35.15-.15.05-.3.15-.25-2.2-.65-3.65-.35-1.5-.9-1.95-.15-.15-.5-.35-.35-.2-.75-.25z"/></g><path fill="#0081c6" d="M1051.6 302.65q-.5-1.15-1.7-1.2-1.2-.1-2.5.3-1.35.4-2.35.75-3.4 1.1-4.6 4.7-1.15 3.6-1.15 7.95 0 4.3.05 7.55-.1 5.4-.35 10.5-.25 5.1 0 10.55.6 10.65.5 21-.05 10.3-.45 20.95-.05 1.6 0 4.65.05 3.05.35 6.4-.2.05-.35.1-.2.1-.45.2l-.25.4q-.2.35-.6.6l-1 .7-.55.5q-.25.35-.3 1.05-.35.9-.5 1.85-.15.9-.25 1.45-.15.55-.3 1.15-.2.6-.45 1.1l-.15.5q-.15.35-.25.65-1.4-.4-2.45 1.35-1 1.75-1.6 3.75l-.65 2.2q-.6 1-1.5 1.7t-1.9 2.5q-1.05 2.15-2 3.95-1 1.8-1.95 3.5.5-1.75.45-3.2-.1-1.5-1.1-2.3-.75.55-1.35 1.75-.65 1.2-1.1 2.4-.4 1.15-.65 1.65-1.1 2.25-3.55 6.4-2.4 4.15-5 7.95-2.65 3.85-4.4 5.15l-.7.1q-.65.1-1 .5-.3.1-.25.4l.05.35q0 .15.35.3l.3.25q-.4 1.05-1.5 2.35-1.05 1.3-2.4 2.75-9 1.2-18.5 2.7-9.5 1.5-18.85 3.65-9.35 2.2-17.8 5.5-6.75 2.65-13.5 5.15-6.8 2.5-13.5 5.05l-2.1 1.05q-1.55.85-2.65 1.95-.05.25 0 .55 0 .25.1.5-.3.2-.25.5.1.25.35.55 2.5 2.7 9.3 4.05 6.8 1.4 14 1.85 7.2.5 10.9.6 16.4.45 30.7-4.6t27.05-14q3.85-2.15 7.3-4.7 3.45-2.55 6.6-5.8 5.8-5.45 10.25-12.85 4.4-7.4 7.85-17.5.2-.35.35-.7l.4-.7q5.25-9.95 8.65-22.45 3.45-12.45 5.45-25.5 2-13 3.1-24.6.15-1.15.4-3.2.2-2 .15-3.6.25-5.45-.05-10.75-.3-5.25-.85-11-.2-3.15-.55-7.15-.35-4-.95-7.9-.65-3.9-1.85-6.75z" id="l"/><g id="m"><path fill="#0081c6" d="M980.9 222.3l.4-1.3q.25-.95.1-1.7-.5-.4-.7 0-.2.45-.35 1.05-1.15 3.7-2.65 7.25-1.5 3.6-3.35 6.95-2.1 3.95-4.55 7.6-2.45 3.7-5.25 7.1-.3.3-.95 1-.7.75-.9 1.45l.15.1q-.35.3-.55.6-.25.35-.3.7.3.3.7.15.4-.15.65-.35 2.45-1.45 5.3-4.45 2.85-3.05 5.5-6.45 2.6-3.4 4.2-5.85.15-.2.45-.65.3-.5.6-1.05.2-.35.3-.75.1-.35.05-.7-.45-.25-.75.15t-.5.8q-.15.2-.25.4l-.3.4q.35-.85.45-1.65.05-.8-.35-1.4-.35-.2-.6-.1t-.45.4q1.2-2.5 2.2-4.95.95-2.45 1.7-4.75m-14.3 26.2l.25-.3h.05l-.3.3z"/><path fill="#FFF" d="M966.85 248.2l-.25.3.3-.3h-.05m45.6-63.95q-2.9 1.1-4.65 4.1-5.3 9.6-9.85 17.75-4.5 8.15-9 15.15-4.45 7-9.55 13.2-.3.55-.6 1.05-.3.45-.45.65-1.6 2.45-4.2 5.85-2.65 3.4-5.5 6.45-2.85 3-5.3 4.45-.25.2-.65.35-.4.15-.7-.15.05-.35.3-.7.2-.3.55-.6l-.15-.1q.2-.7.9-1.45.65-.7.95-1 2.8-3.4 5.25-7.1 2.45-3.65 4.55-7.6-2.9-1.1-7.15-2.85t-9-3.85q-4.7-2.1-9-4.3-6.95-3.95-20.9-7.25-14-3.3-33.35-1.7-19.3 1.55-42.4 12.4-11.7 5.9-19.2 12.5-7.55 6.6-11.4 11.85l-4.65 6.95q-4.35 8.75-9.45 26.95t-9.7 38.5q-4.6 20.25-7.4 35.15l-2.1 11.7-.5 5.35 1.2 3.65 3.1 6.75q4.05 8.25 13.25 21.1 9.2 12.85 25.1 28.85 13.95 13.5 28.95 22.25 15 8.7 28.05 13.55 13.05 4.85 21.2 6.75 22 5.1 41.9 2.45 19.95-2.6 34.85-9.1 14.9-6.45 21.9-12.9 14.8-13.7 24-35.6 9.2-21.9 13.1-48.4 3.85-26.55 2.6-54.2-1.8-34.2-6.7-61.8-4.9-27.65-10.2-46.15-5.35-18.5-8.3-25.3-1.35-2.95-4.1-3.85-2.75-.9-5.6.25z"/></g><path fill="#FFF" d="M789.2 341.6q-3.4 5.75-11.45 18.2-8.05 12.45-17.8 27.65t-18.3 29.35q-8.55 14.1-12.85 23.2l49.1 7.45q46.65 6.55 107.9 14.7 61.2 8.1 107.35 13.7l35 3.95 12.65.65-7.8-9.85q-5.8-7.2-13.15-15.8-7.35-8.55-13.8-15.45-6.5-6.85-9.8-8.9l-35.8-15.85q-31.25-13.5-70.8-30.35-39.6-16.85-69.25-29.4l-31.2-13.25z" id="n"/><path fill="#0081c6" d="M840.25 295.25q-.35.05-.6.4-.25.3-.35.8-.05.25-.1.6l-.1.7q-.05.65-.05 1.4v1.3q.05 4.3.35 6.75.3 2.5.9 4.75 1.2 4.9 3.35 8.6 2.2 3.7 5.85 4.8.65.25 1.35.25.7 0 1.15-.1 3.2-.85 5.8-3.55 2.55-2.65 4.2-6.4 1.65-3.7 2.2-7.55l.1-.7q.1-.55.1-1.2.2-1 .15-1.8-.05-.85-.4-1.4-.45.15-.65.7-.15.55-.2.8-1.2 4.15-2.2 7.35-.95 3.25-2.75 5.6-1.75 2.35-5.45 3.85-2.65.85-4.95-2.1-2.3-3-3.9-7.55-1.6-4.6-2.2-8.45l-.4-1.8-.3-1.9q-.15-1.3-.35-2.3-.25-.95-.55-1.85z" id="o"/><path fill="#FFF" d="M915.85 293.65q-.95-9.75-6.65-17.4-5.7-7.65-18.65-10.15-13.2-1.9-21.3 3.85-8.15 5.75-12.65 14.6-4.45 8.8-6.65 16.15 8.9 1.05 20.1 2.9 11.2 1.85 23 4.1 11.75 2.2 22.35 4.35 1.35-8.7.45-18.4z" id="p"/><path fill="#0081c6" d="M1057.8 788l-.65-.1q-.5-.05-.9-.1-.05 0-.15.05h-.1q-.55.45-.6.75 0 .3.35.55-.2.85-.35 1.65-.1.8-.25 1.35-4.4 18.4-8.15 35.75-3.8 17.4-7.4 34.8-3.6 17.4-7.45 35.85-.25 1.2-.15 2.15t.45 1.65q-1.6.85-3.2 1.6-1.55.75-3.05 1.4-2.55.8-5.1 1.5t-5.2 1.25l-3.75.5q-3.2.45-6.15 1.5t-2.9 2.9q.25.3.6.35.4.05.8-.05.25.15.55.25.3.1.55.15l2.9-.15 4.6-.95q5.4-1.4 10.85-3.25 5.4-1.85 7.4-3 .55-.3 1.8-1.1 1.25-.75 2.15-1.7.55-.3 1-1.05.45-.7.7-1.9 4.1-18.25 7.85-35.6 3.75-17.4 7.4-34.8 3.65-17.4 7.45-35.65l.15-.95q.1-.9.15-2.15.3-1.35-.05-2.3-.3-.95-2.15-1.15z" id="q"/><path fill="#FFF" d="M899.05 742.6q2.25 9.75 5.6 24.35 3.3 14.55 6.6 29.5t5.5 25.85q1.9 9 5.65 21.75 3.8 12.7 7.95 25.25t7.1 21l3.15 8.95q10.15 5.85 23.3 8.7 13.15 2.85 26.65 3.05 13.55.2 24.85-1.85 11.35-2.1 17.9-6.15l1.75-7.8q1.75-7.4 4.45-19.4 2.75-11.95 5.85-26.1 3.05-14.2 5.8-28.15 4.05-20.55 6.9-35.15 2.8-14.6 4.3-22.55l1.45-8.5q-8.7-2.95-30.9-8.65-22.15-5.7-49.35-10.95-27.2-5.3-51-6.9-23.8-1.65-35.85 3.5l2.35 10.25z" id="r"/><path fill="#0081c6" d="M938.3 828.5q.2 3.1 1.2 6.95 1 3.8 2.75 6.95 1.7 3.15 4.05 4.3 4 1.55 6.85-1.1 2.85-2.65 4.45-7.45 1.6-4.75 1.75-9.5.05-1.1-.1-2.65-.15-1.55-.85-1.55-.15.3-.3.65l-.15.5q-.6 2-.85 4.2-.3 2.15-.8 4.3-1.15 4.45-3.3 7.15t-4.75 2.35q-2.55-.35-4.9-4.95-1.2-2.6-1.95-5.7-.8-3.05-1.8-5.85-.6-1.4-1-.55-.35.8-.3 1.95z" id="s"/><path fill="#A6CE38" d="M1015.35 632l-41.8 2.3L989 819.4l26.35-187.4z" id="t"/><path fill="#AED044" d="M1357.3 241.55q-2.75-4.9-10.4-7.6l-.75.1q-.6.1-1.1-.1-.25 0-.55.05-.3 0-.6.05.4-1.35-.2-1.85-.6-.5-2.55-.25-2.55 1.8-4.45 5.1l-2.45 4.45q-11 19.3-20.75 39.55-9.8 20.25-19.1 40.9-1.8 3.15-3.55 6.3-1.75 3.2-3.45 6.4-4.4 8.45-8.15 17.4-3.75 9-7.2 18.15-2.8 5.8-5.7 11.55-2.85 5.75-5.85 11.35-11.75 22.45-28.25 47.85-16.55 25.45-35.7 48.8-19.15 23.4-38.75 39.75-2.7 1.05-5.4 2.15l-3.5 1.4q-8.45 4.4-16.5 11.35-8 7-14.95 12.6-4.6 1.9-8.15 5-3.6 3.1-6.5 8.8-9.15 10.8-10.85 23.35-1.7 12.55 6.95 26.7 2.1 3.45 7.5 10 5.45 6.55 12 11.45 6.55 4.85 12.05 3.2 2.65.9 5.15 1.4 2.55.5 3.6.7 9.7 1.45 27.1-1.95 17.45-3.4 34.35-9.55 16.9-6.2 25-13.05.85-.7 2.15-1.9 1.3-1.2 1.65-2.15.15-.65-.15-1.15-.3-.5-.75-.6Q1245.3 605 1258.5 594t24.3-24.6q11.05-13.6 21.5-33.6.8-1.35 1.6-2.75.75-1.4 1.5-2.85 5.3-9.95 10.65-21.4 5.3-11.45 10.05-23.65 2-4.15 4.05-8.3 2.1-4.1 4.25-8.25 2.65-5.05 5.45-16 2.8-11 3.1-22.5.3-11.45-4.65-17.95 6.3-15.65 11.1-32.05 4.75-16.45 9.1-32.75.25-.9.45-1.7.2-.75.4-1.45l1.6-5.8 1.6-5.7q.7-2.4 1.15-4.85.5-2.4.75-4.85 3.15-17.9 1.75-34.65t-6.4-34.55q-1.7-7.4-4.5-12.25z" id="u"/><path fill="#A6CE38" d="M1034.75 316.8q-31.1-3.75-54.7-.3l-18 2.8-6.8 1.45-8.7 18.2q-8.1 17-17.05 35.7l-11.9 25.1 191.15 23.75-4.85-21.15q-4.55-19.6-9.1-39.35l-5.05-21.65q-23.85-20.8-55-24.55z" id="v"/><path fill="#A6CE38" d="M1012.35 269.55q-15.25 1.75-24.45 7.2-9.2 5.5-13.5 10.45-6.85 7.45-14.9 23.25-8.1 15.8-10.6 28.5-.9 7.85 8.25 17.3 9.1 9.5 24.1 16.95 14.95 7.45 31.55 9.2 16.7 1.25 34-2.55 17.35-3.85 30.2-10.35 12.85-6.5 16.1-13.25-.1-7.45-4.95-25.25-4.8-17.75-14.3-34.75-9.55-17-23.7-22.1-22.55-6.3-37.8-4.6z" id="w"/><path fill="#A6CE38" d="M1099.4 333.3q11.45-10.2 19.2-22.3l-3.55-2.1-10.1-4.2q-13.4-5.25-36.75-7.1l2.95 10.5q3.05 9.8 6.7 21.3 3.65 11.5 5.55 17.3l16-13.4z" id="x"/><path fill="#A6CE38" d="M742.65 637l35.5-.45q-6.6-11.15-13.15-21.9-6.55-10.8-13.45-22.4l-105.9-49.4Q604.3 523.5 572.7 508.8l-33.5-15.6q-2.05 17.75-1.3 45.5.8 27.75 3.9 55.4 3.15 27.65 8.2 45.1l36.15-.25q33.95-.35 78.35-.9 44.45-.6 78.15-1.05z" id="y"/><path fill="#0081c6" d="M1021.6 281.25q-1.05-1.45-2.55-.25 0 .35.05.7t.15.75q-.3-.05-.65.05-.35.1-.8.4-.15 2.75 1.15 5.75l1.8 3.95q6.2 14.45 13.9 29.65 7.65 15.2 15.7 28.75.1.15.2.35l.15.35q.35.8.95 1.95.55 1.1 1.4 1.9 1.55 3.75 3.05 7.55 1.55 3.8 3.05 7.6.35 1.15 1 2.9.65 1.8 2.05 2.15 10.8 26.4 18.5 53.35 7.7 26.9 12 54.55.4 6.7.7 13.4l.55 13.3-.2.2-.25.2q-.35 2.7-.25 5.9l.15 4.1q-.35 4.6-1 8.9-.7 4.25-1.7 8.3-.65 2.15-1.35 4.5-.7 2.3-1.35 4.8-2.55 7.55-5.75 15t-6.7 15.5q-.9 2.05-1.65 3.95-.7 1.85-1.35 3.55-6.3 9.25-12.7 19l-4.95 7.85-2.05 4.05q-.05.4-.15 1.1-.1.7.65 1.1 3.05-.45 5.6-3.2 2.55-2.7 4-5 1.65-.55 3.3-1.95 1.6-1.4 3.05-3.3.65-2.35 1.55-4.7.95-2.35 2-4.45.95-1.9 1.85-3.45.9-1.6 1.6-2.65 1-1.55 1.85-3 .85-1.45 1.6-2.85 2.4-4.8 4.2-9.55 1.8-4.75 4.25-10.15 3.25-6.9 5.8-14.5t4.4-15.6q1.15-4.95 1.95-9.9.85-5 1.4-9.95.2-1.55.35-3.1.15-1.55.25-3.05-.15-10.6-1.45-21.2-1.25-10.6-3.5-21.1-.6-23.9-9.25-46.55-8.65-22.6-20.65-43.2-3-7.85-6.35-15.55-3.3-7.65-6.95-14.5-5.35-13.4-11.25-26.4-5.9-13.05-12.75-25.4-.75-1.5-1.6-3.35-.9-1.9-2.15-2.15l-1.4-2.2q-.75-1.1-1.45-2.15-.9-1.55-2-3m3.1 12.35q-.85-1.9-1.65-3.7l1.7 3.2q.85 1.6 1.65 3.2v.5q0 .3.05.55-.9-1.9-1.75-3.75m56.3 115.7l-.25-.55-.2-.5q-.9-2.05-1.85-4.2-.9-2.15-1.8-4.35 1.1 2.3 2.1 4.75 1.05 2.4 2 4.85z" id="z"/><path fill="#A6CE38" d="M915.35 394.7l-10.65.05-28.15 35.7q-24.75 31.4-61.1 77.3t-74.6 93.6q14.95 12.75 46.9 30.1T862 658.5q42.3 9.7 88.2-.4 65.65-16.9 100.45-48.4 34.75-31.45 40.4-68.15 5.65-39.1 2-69.65-3.6-30.5-9.4-48.25l-4.6-13.6-2.15-5.15-25.6-2.25q-24.1-1.8-56.5-3.8-32.35-2-58.5-3.3l-20.95-.85z" id="A"/><path fill="#0081c6" d="M1022.3 307.6l-1.95-.6-2.05-.25-2.05.25-1.9.6-1.8 1.05-1.5 1.3-1.3 1.7-.9 1.85-.6 2-.15 2.1.15 2.05.6 2 .9 1.9 1.3 1.65 1.5 1.35 1.8 1 1.9.65 2.05.2 2.05-.2 1.95-.65 1.75-1 1.5-1.35 1.3-1.65.95-1.9.55-2 .2-2.05-.2-2.1-.55-2-.95-1.85-1.3-1.7-1.5-1.3-1.75-1.05z" id="B"/><path fill="#A6CE38" d="M1032.8 313.4l-.75-4.85q-.85-4.45-3.65-8.95-2.8-4.45-8.5-4.7-6.65.35-9.9 5.9-3.25 5.5-3.9 12.4l26.7.2z" id="C"/><path fill="#0081c6" d="M944.2 307.6l-1.8-1-1.95-.65-2-.2-2.05.2-1.95.65-1.75 1-1.55 1.35-1.25 1.65-.95 1.9-.55 2-.2 2.05.2 2.1.55 2 .95 1.85 1.25 1.7 1.55 1.3 1.75 1 1.95.65 2.05.25 2-.25 1.95-.65 1.8-1 1.5-1.3 1.3-1.7.9-1.85.55-2 .2-2.1-.2-2.05-.55-2-.9-1.9-1.3-1.65-1.5-1.35z" id="D"/><path fill="#0081c6" d="M783.8 630.7l3.5 3.3q-6.05-4.75-11.55-10.2-5.45-5.5-10.15-11.85-.7-1.2-1.8-2.65-1.15-1.5-2.6-.6.35 2.8 2.4 5.65 2.1 2.9 3.05 3.95 3.8 4.75 11.85 11.95 8.05 7.25 17.1 13.85t15.85 9.3q2.1 1.25 4.3 2.25 2.15 1.05 4.4 1.85 3.5 1.35 11.45 4.15 7.95 2.85 15.8 4.7 7.9 1.85 11.2.25.35-.15 1-.45.65-.3.7-.95-1.45-2.55-5.75-3.2l-4.9-.6q-14.6-2.8-26.6-7.75-12-4.95-23.45-15.65-4.3-4.05-9.4-8.25-5.1-4.25-9.8-8.05-.75-.75-1.65-1.45-.85-.65-1.7.6.35 3.2 2.9 6t3.85 3.85m144.8-190.4q-1.05-1.3-2.7-2.65-1.7-1.35-3.5.05.3 3 2.9 5.65 2.6 2.65 3.7 3.7 7.3 9.25 13.95 18.3 6.6 9.1 14.9 17.9 8.1 8.9 14.45 18.9 6.3 10.05 13.65 18.75 5.35 11.05 10.75 21.95 5.35 10.9 11.65 20.65.5 1.1 1.25 2.5.7 1.45 2.15.65.85-2.95-1.5-7.45l-2.85-5.2q-4-7.9-7.95-15.8-4-7.95-8-15.75l.15-.2q-.5-1.95-1.85-4.1-1.4-2.1-2.3-3.3-8-15.2-17.3-29.3Q960.9 471.4 949.4 459q-2.05-2.45-4.2-5.55-2.1-3.1-4.7-4.55-.35-.2-.7-.1t-.5.55q-.05 1.85 1.1 3.95.919 1.75 2.05 3.3-3.176-4.014-6.45-8-3.5-4.3-7.4-8.3m19.1 22.6q-2.05-2.35-4-4.75.8.9 1.4 1.65.65.7 1.05 1.1 1.5 1.7 2.95 3.35 1.45 1.7 2.8 3.3-2.15-2.25-4.2-4.65z" id="E"/><path fill="#AED044" d="M702.8 109.95q-8.2 12.1-13.5 28.1-5.25 16.05-11.65 30.4-4.95 10.95-8.5 26.25-3.5 15.25-6.4 27.6-3.4 13.65-4.55 26.1-1.15 12.45-.95 26.5.15 11.75.7 23 .6 11.3 1.7 22.95 0 6.45.45 13.1.45 6.65 1.45 13.55 1.3 9.4 2.85 18.7 1.55 9.3 3.4 18.45-.55 1-1.05 2l-1 2q-13 11.8-12.55 28.65.5 16.85 8.25 33.75 7.7 16.9 16.4 28.85.25.4.55.75.25.4.55.8 1.05 1.8 2.25 3.65 1.15 1.8 2.4 3.6 14.85 21.85 29.55 40.2 14.7 18.4 36.05 35.3 1.15.9 3.25 2.6 2.1 1.65 4.85 3.85-1.5 1.55-2.8 3.25-1.3 1.65-2.45 3.45l-.3 3.2q-.1 1.55-.2 3.15l-.2 3.2v.25q-.1 2.7 0 5.35.1 2.65.5 5.25.05.45.15.9.05.5.15.95.2.8.4 1.55t.4 1.55l.55 1.6.5 1.6q.2.7.45 1.4l.45 1.35q.55 1.75 1.1 3.45l1.1 3.3q1.25 2.75 2.75 5.6 1.55 2.8 3.4 5.75 4.2 6.7 8.95 13.35 4.75 6.6 9.7 13.1 6.4 5.7 13.5 11.65 7.15 5.9 15.15 13.3 13.05 12.35 27.05 24.75 14 12.45 28.65 22.7 12.7 8.75 25.7 17.4 13.05 8.65 26.3 16.95.65.3 1.3.7.65.4 1.25.85.25.15.45.3l4.55 2.75q1.9 1.15 3.85 2.3 1.9 1.15 3.85 2.3l1.45.85 1.4.8q1.5.9 3 1.75l3 1.7q1.1.65 2.25 1.3 1.1.6 2.25 1.25.6.3 2 1.05 1.45.75 3.2 1.7 6 1.1 11.95 2.1 6 1 11.85 1.4 7.3.6 11.4.5 4.05-.1 11.8-1.55 3.7-.65 7.35-.95l7.4-.55q1.5 2.1 5.55 3.35 4.1 1.3 10.35.6 11.9-1.4 21-4.05 9.05-2.6 16.7-6.5.1.05.2.15l.2.1q4.1 1.65 12.9-5.15 8.8-6.8 16.15-14.4l.35-.25q.85-.6 1.7-1.55.85-.95 1.7-2.2 1-1.05 1.7-1.95.75-.85 1.15-1.45 5.8-8.25 9-18 3.25-9.8 4.2-20.55 2.45-12.55 2.1-20.75-.4-8.15-3.6-21.9-4.95-27.7-14.35-45.3-9.45-17.6-38.05-28-1.5-.55-3.05-.95-1.6-.45-3.2-.7-2.05-1.4-4-2.9-2-1.45-3.95-2.9-1.1-.55-1.9-.9l-1-.6q-2.9-2.1-5.8-4.25-2.85-2.15-5.7-4.35-7.8-6.1-15.45-12.5-7.65-6.35-15.2-12.95-7.4-6.5-14.8-13.15-7.35-6.7-14.75-13.4-16-14.65-29.5-29.95-13.45-15.35-26-31.45-4-5.1-8-10.25L900 438q-8.2-10.45-16.8-21.65-8.65-11.15-17.1-22.95-4.2-5.85-8.25-11.85-4.1-6-7.95-12.1-1.85-2.9-3.6-5.85-1.8-2.95-3.5-5.9-4-5.1-7.7-10.6-3.7-5.45-6.95-11.5-4.3-7.85-8.8-15.2-4.5-7.35-8.75-14.95l-2.5-4.8q-1.25-2.4-2.45-4.8-.75-1.5-1.4-3-.7-1.55-1.35-3.1-4.15-9.75-8.8-19.25-4.7-9.5-9.6-18.85-1.3-2.8-2.55-5.65-1.25-2.8-2.45-5.65l-3.4-7.85q-9.65-23.05-18.75-46.2-9.1-23.2-14.95-48.65-1.35-8.15-4.65-19.95-3.3-11.8-11.5-15.8-1.4-.9-3.2-1.25-1.75-.3-3.95.1l-3.85.75q-2.95.65-5.35 1.45-2.4 1.3-4.45 3.7l-2.65 3.3M888 425.65l-.85-.95q-.4-.45-.85-.95-1.75-2.3-3.55-4.6l-3.5-4.6q-.45-.65-.85-1.25-.4-.6-.8-1.25 2.75 3.3 5.35 6.7 2.6 3.35 5.05 6.9m-229.2-8.05v.55q-.05.8-.05 1.6v1.6q-.4-3.6-.2-6.8.2-3.2 1.15-5.9-.35 2.1-.55 4.2-.2 2.1-.3 4.2-.05.3-.05.55m327.3 358.25q-.95.05-1.85-.15.75-.15 1.55-.3t1.6-.35l.3.2q.15.1.25.2-.85.35-1.85.4m-47.15 1.2l1.1.5q-.5-.25-1-.55-.45-.3-.9-.55l-.25.1 1.05.5m-151-103.7q1.7 1.9 3.5 3.8-1.7-2-3.35-3.9-1.7-1.9-3.4-3.7 1.6 1.9 3.25 3.8z" id="F"/></defs><use xlink:href="#a" transform="matrix(1.29524 .02345 -.0238 1.27998 -1268.65 -185.9)"/><use xlink:href="#b" transform="matrix(-.46756 -.00325 -.00316 .47095 1326.1 225.2)"/><use xlink:href="#c" transform="matrix(-.46756 -.00325 -.00316 .47095 1326.85 227.2)"/><use xlink:href="#d" transform="matrix(-.46756 -.00325 -.00316 .47095 1326.85 227.2)"/><use xlink:href="#e" transform="matrix(-.47208 -.0032 .10678 .56271 1179.75 144.25)"/><use xlink:href="#f" transform="matrix(-.33221 -.00824 .0818 .49065 1114.7 228.6)"/><use xlink:href="#g" transform="matrix(-.5016 -.12114 -.10536 .45607 1402.45 333.05)"/><use xlink:href="#h" transform="matrix(-.50435 -.10913 -.09444 .45845 1401.5 321.55)"/><use xlink:href="#i" transform="matrix(-.46715 .03687 .03697 .46716 1301.35 185.3)"/><use xlink:href="#j" transform="matrix(-.45743 -.00812 -.00333 .4685 1318.5 229.9)"/><use xlink:href="#k" transform="matrix(-.45743 -.00812 -.00333 .4685 1318.5 229.9)"/><use xlink:href="#l" transform="matrix(-.5011 -.1232 -.10724 .45564 1402.75 335.15)"/><use xlink:href="#m" transform="matrix(-.5011 -.1232 -.10724 .45564 1402.75 335.15)"/><use xlink:href="#n" transform="matrix(-.25769 -.08885 -.05693 .45822 1188.25 306.35)"/><use xlink:href="#o" transform="matrix(-.49167 -.26064 -.12659 .51912 1376 419.45)"/><use xlink:href="#p" transform="matrix(-.5011 -.1232 -.10724 .45564 1408.65 319.8)"/><use xlink:href="#q" transform="matrix(-.47302 -.00327 -.03418 .56142 1420.85 151.45)"/><use xlink:href="#r" transform="matrix(-.47302 -.00327 -.03418 .56142 1420.85 151.45)"/><use xlink:href="#s" transform="matrix(-.47302 -.00327 -.03418 .56142 1391.1 163.3)"/><use xlink:href="#t" transform="matrix(.07776 .04129 .00249 .16753 1070.1 270)"/><use xlink:href="#u" transform="matrix(.03963 -.05647 .01347 .18729 1100.85 368.35)"/><use xlink:href="#v" transform="matrix(.03957 -.04915 .02214 .26118 1102.45 356.3)"/><use xlink:href="#w" transform="matrix(.03908 -.0422 .0131 .15565 1105.65 381.8)"/><use xlink:href="#x" transform="matrix(.0387 -.02657 .01045 .15703 1106.85 363.3)"/><use xlink:href="#y" transform="matrix(.03845 .0764 -.01724 .14702 1127.45 300.55)"/><use xlink:href="#z" transform="matrix(.04161 -.00613 .0048 .1668 1108.8 350.3)"/><use xlink:href="#A" transform="matrix(.04161 -.00613 .0048 .1668 1108.8 350.3)"/><use xlink:href="#B" transform="matrix(.0378 -.03673 .01283 .15565 1107.4 374.45)"/><use xlink:href="#C" transform="matrix(.0378 -.03673 .01283 .15565 1107.4 374.45)"/><use xlink:href="#D" transform="matrix(.0314 -.0854 .0252 .13379 1108.1 432.55)"/><use xlink:href="#E" transform="matrix(.03517 .08414 -.01668 .11911 1121.5 258.05)"/><use xlink:href="#F" transform="matrix(.03517 .08414 -.01668 .11911 1121.5 258.05)"/></svg>