<svg xmlns="http://www.w3.org/2000/svg" xmlns:xlink="http://www.w3.org/1999/xlink" preserveAspectRatio="none" width="580" height="460" viewBox="675 210 580 460"><defs><g id="a"><path fill="#0081c6" d="M1801.75 495.7h-.05l-.4.15q-.15.1-.2.15 0 .1.1.2l-.2.1.15.15.05.05.15-.2.1-.1.05-.1q.1-.05.2-.15.05-.1.15-.15h-.2l.1-.1m51.55 10.8q.15-.15-.05-.45l.1-.3-.1-.4-.2-.15-.25-.05H1848.4l-.4-.05-12.85-.1-.4.15-.05.1-.1.3.05.15q-.35.1-.45.25-.1.2.05.4-.1.2.05.35.15.2.55.2-.2.25-.05.5.15.25.65.25h1.75q.9 0 1.8-.05 2.55 0 5.05-.05 2.55 0 5.1-.05.75 0 1.5-.05h1.45q.35 0 .55-.2.2-.15.1-.45l.1-.05q.3-.05.45-.25z"/><path fill="#FFF" d="M1849.15 507.9v-.4q-2.55.05-5.1.05-2.5.05-5.05.05-.25 13.2-.15 26.45.15 13.2.2 26.45.05 13.2-.45 26.35V590q.05 2.25.05 5.05.05 2.8-.05 5.35v.7q0 .4-.05.7v1.2l-.05.2v.3q0 .15.05.35v.7q0 .45-.05 1v1.15q-2.1.35-4.2.8-2.15.4-4.2.85l-2.1.4-3.55.65-1.4.2-2.2.4h-.05l-.5.1q-1.25.2-2.55.4-1.25.25-2.55.45l-.3.05q-.15.05-.35.05l-.65.1.05.1h-.05v-.1q-.35.1-.7.15l-.7.1-.45.1q-.25.05-.45.1l-.5.1q.05.25.05.5v.45q.05.25.05.45v2.35q0 1.55.1 3.45v.7q.05.3.05.65.05.35.1.75 0 .35.05.75.3.05.6.05.25.05.55.1.35.05.75.1.35.05.75.1.45.05.95.1.45.05.95.1 2.95.3 5.85.5 2.85.2 5.05.45l3.35.4q2.45.3 5.4.65 2.9.3 5.2.5l1.9.1 1-.1q.15.05.4.1t.5.05q.4 0 .9-.05.55-.05 1.1-.15 4.95-.8 9.5-1.4 4.6-.65 9.25-1.25 4.7-.65 9.75-1.4.3-.05.65-.1.3-.1.6-.15.35-.1.65-.2.3-.05.65-.15 0-.55.05-1.2 0-.65.05-1.4v-.3-.9-.3-.25q.05-1.55.05-3.25.05-1.65 0-2.75l-.05-.3h-.65q-.35-.05-.7-.05l-1.4-.1q-.25-.05-.5-.05l-1.5-.1-6-.5-6-.6q-1.75-.3-3.85-.45-2.05-.15-3.9-.3-.75-.1-1.95-.25-1.15-.2-2.45-.3-.1-.9-.15-1.7-.05-.8-.1-1.25-.05-1.85-.1-3.8 0-1.9-.15-3.8v-.1q.3-22.05.5-44.05.15-22.05.2-44.15m45.55-31.55q.15-1.45.15-3.25 0-.75-.05-1.45 0-.7-.05-1.4h-4.4q-.2 0-.4.05h-.7q-15.7.15-31.4.75t-31.4.8q-1.1 0-2.1.05h-2.7v.6l-.2.25q-.5.5-.95 1-.45.5-.85 1-4.4 5.4-9 10.55-4.55 5.1-8.9 10.4l-.1.1h.2q-.1.05-.15.15-.1.1-.2.15l-.05.1-.1.1-.15.2-.05-.05-.05.05q-.55-.65-1.15-1.25-.55-.6-.9-.8l-.25-.05-.1-.05q-.75.2-.9 1.45-.15 1.25-.05 2.45l.1 1.35v2.1q-.05 1.45.05 2.8.15 1.4.6 1.8v.05h.05l.1.05.35-.05h.6q.2 0 .35-.05h1.5q8.3-.15 16.65-.5 8.3-.35 16.6-.55l.05-.1.4-.15 12.85.1.4.05h.35l.35-.05H1849.95l3.2-.05h1.75q.9 0 1.8-.05 2.15-.05 4.3-.05l4.35-.1H1866.2l.3-.05h1.7q.7-.05 1.4-.05l.4-.4q.2-.25.4-.45.7-.75 1.1-1.25l.35-.4.1-.15.2-.15.2-.2.15-.2.55-.55.55-.55.45-.45 9.6-9.5q4.85-4.75 9.35-9.8.65-.7 1-1.3.3-.6.35-1l.1-.3.15-.6.1-1.15z"/></g><path fill="#0081c6" d="M1218.95 272.15q.25-.5.4-1 .2-.5.3-.95l1.15-2.8.35-1.8q-.1-1.35-1.25-1.75-1.2-.35-2.95-.65-.4.05-.75.2-.35.2-.65.4-1.45.75-2.45 2.35-1.05 1.55-1.6 3l-.7 1.75q-2.6 4.85-5.2 9.75t-5.15 9.8q-19.2 35.95-38.3 72.05-19.05 36.05-38.05 72.1-1.45 2.4-2.8 5-1.4 2.55-2.7 5.05-.45.9-.45 1.5.05.6.4.85.1.35.3.7.25.4.6.8.65.6 2.1 1.45 1.45.9 3.2 1.65.6.8 1.85 1.2 1.2.35 2.75-.45.2-.05.35-.15.15-.15.25-.3.15-.1.25-.25.15-.15.3-.35.65-.5 1.1-1.2.45-.75.7-1.3 1-1.6 1.8-3.05l.55-1.2.15-.75q14.1-28.05 28.05-56.4 13.95-28.3 27.5-56.55.3-.55.45-1.1.15-.5.2-1 4.1-8.3 8.15-16.65 4.1-8.35 8.15-16.65 2.9-5.85 5.8-11.65 2.9-5.85 5.85-11.65z" id="b"/><path fill="#FFF" d="M1218.85 266.5l-.8-.85q-.7-.7-1.4-.35l-15.6 29.1q-13.5 25.65-30.95 59.15t-31.5 60.65l-17.4 33.6 7.55 3.25 90.1-184.55z" id="c"/><path fill="#0081c6" d="M1145.5 468.95v-.05l-6.7-22.9-3.65-10.1-3.95-7-5.1-6.2v-.05l-.05-.05-2.15-1.7-2.55-1.2-2.7-.75-5.5-.6-8.2.4-16 3.15-15.55 5-22.35 9.95-9.25 5.7v.05h-.05l-6.1 5.6-10 13.1-5.75 9.35-16.2 31.7-1.05 2.45-.45.7-.3-.35h-.4l-.35.25-.05.2v.25l.3.9-3.95 6.4-.05.45.25.35.4.05.2-.05.2-.2 3.45-5.55 41.85 139.95 3.6 21.3 7.35 48.2.65 2.6v.05l.05.05 1.05 2.35 1.5 2.15 3.7 3.6 4.25 2.8 4.6 2.2 4.9 1.5 2.5.5h.05l12.35 1.6 12.45.5 5-.5h.05l7.75-2 2.5-.95 7.2-3.5 6.6-4.5 3.95-3.7 1.65-2.05v-.05l.05-.05 2.25-4.9 4-12.85 11.2-52.45.8-30.45-.05-49.8-3.75-68.65-4.9-26.95-1.55-5.25z" id="d"/><path fill="#FFF" d="M901.45 560.8q-6.55 16.1-6.5 22.95-.1 4.7 2.35 7.75 2.45 3.1 11.55 6.4 9.1 3.25 28.95 8.6 16 4.3 31.4 8.15 15.45 3.9 26.45 7l9 2.9 4.9 2.35 6.8 7.05q5.1 5.55 11.4 13.2 6.3 7.7 11.75 15.5 5.5 7.8 8.15 13.8 2.15 5.2 4.25 11.75 2.1 6.5 3.95 12.7 1.85 6.2 3.2 10.4 1.65 4.65 5.95 9.55 4.35 4.9 10.05 8.5 5.7 3.65 11.5 4.45 11.75 1.25 20.1-.55 8.35-1.8 12.9-4.35l3.55-2.2 1.5-1.45q6-12.4 7.25-26.4 1.3-14-.15-28.15-1.5-14.15-3.8-26.95-2.1-12.05-6.55-26.35-4.4-14.25-10-28.15-5.55-13.9-11.15-24.75-5.6-10.9-10-16.2-4.8-5.55-19-17.45-14.15-11.9-32.65-24.8t-36.15-21.4q-17.7-8.55-29.45-7.4-14.55 2.6-28.5 16.55-13.9 13.95-25.15 32.45-11.25 18.45-17.85 34.55z" id="e"/><path fill="#FFF" d="M821.85 475.4q-1.65-13.45-5.7-26.55-4.05-13.05-11.7-20.1-7.6-7-19.85-2.35-12 5.15-24.15 14.4-12.15 9.25-23.1 19.9-10.95 10.6-19.25 19.8-8.25 9.15-12.5 14.15-7.45 8.65-16.7 21.35-9.25 12.7-18 26.3-8.75 13.6-14.65 24.85-5.9 11.25-6.6 17-.8 11.75 6.15 25.5t18.6 26.75q11.7 12.95 25.05 22.35 13.4 9.35 25.4 12.3 8.1 1.9 19.95 2.2 11.85.25 26.05-2.2 14.25-2.45 29.35-8.65 13.1-5.2 22.5-6.3 9.4-1.05 14.85-.9l4.45-.25 2.25-1.1q2.9-20.4.55-43.4-2.35-23-7.05-45.2-4.7-22.2-8.9-40.1-4.2-17.9-5-28.1-.35-8.2-2-21.65z" id="f"/><path fill="#FFF" d="M743.05 735.4l2.4 26.55 5.3 56.55q3.05 32.05 5.35 56.5l2.45 26.15q5.05 6.6 16.15 10.9 11.1 4.3 25.05 5.7 13.95 1.45 27.6-.6 13.6-2.05 23.65-8.2l3.25-9.65q3-9.1 7.2-23.65 4.15-14.5 7.8-31.1 2.85-13.5 5.4-29.85 2.55-16.4 4.55-31.55 2-15.2 3.15-25.05l1.2-10.35q-7.5-13.75-26.7-18.75-19.15-5.05-42.45-4.3-23.25.7-43 4.1-19.75 3.45-28.35 6.6z" id="g"/><path fill="#0081c6" d="M943.65 840.8q-1.05-2.05-1.45-3.45-.75-2.75-1.15-5.5-.35-2.8-.9-5.5l-.5-1.5-.55-.4q-.6.1-1.05 1.35-.4 1.2-.4 2.45.15 3.15 1.1 7.5.95 4.35 3.1 7.95 2.1 3.6 5.8 4.45 3.45.45 5.8-2.6 2.35-3 3.65-7.05 1.3-4.05 1.65-6.75.15-1 .2-2.9.05-1.9-.25-3.6-.3-1.75-1.25-2.3l-.2-.05q-.15 0-.2.05-.35.35-.45.85l-.15.7q-.25 1.9-.3 3.9 0 2-.35 3.95-.3 1.7-1.15 4.5-.85 2.8-2.15 5.3-1.3 2.45-3 3.1-1.75.45-3.3-.95-1.5-1.45-2.55-3.5z" id="h"/><path fill="#FFF" d="M923.4 167.5q-7.3 4.55-12.05 9.45l-3.75 4.25-1.65 2.85-.5 2.95-.15 4.9q0 5.8.3 12.55.3 6.75.65 11.65l.35 5.15 3.1.4q2.9.45 5.9.75l2.3.15 1.1-.1q6.6-9.4 10.15-14.5 3.55-5.1 5.2-8.2 1.65-3.1 2.5-6.45 1-3.95 1.75-11 .8-7.05.95-13.2l-.1-4.9-.55-2.4q-8.2 1.15-15.5 5.7z" id="i"/><path fill="#FFF" d="M849.85 162.55l-1.6-2.25q-9.45 6.35-16.05 16.6-6.6 10.3-10.05 19.9-3.45 9.65-3.4 13.95.35 2.7 3.35 8.4 3 5.75 6.9 12.05 3.85 6.35 6.8 10.85l3.05 4.7 3.85-1.85q3.6-1.65 7.2-3.5l2.8-1.55 1.2-.9q2.9-13.8 3.9-23.65.95-9.85.75-15.95-.25-6.05-.95-8.65-.75-3-2.4-9.95-1.65-6.95-3.55-13.25l-1.8-4.95z" id="j"/><path fill="#FFF" d="M661.65 767.35l-12.75-1.2q-1.6 0-2.6 1.1-1.05 1.1-1.1 2.55-.05 1.5 1.3 2.7l2.6 1.4 5.45 2.2q6.9 2.6 18.4 4.6 11.45 2 26.2 1.2 14.7-.75 31.5-6.45 11.65-4.35 21.95-12.65 10.35-8.3 18.3-17.35 8-9.05 12.6-15.55l4.8-7.25-1.05-1.4-2.9-2.8q-3.8-3.5-8.4-7.55-4.65-4-7.35-6.3-2.1 3.35-7.35 10.9Q756 723 748.5 732q-7.45 9.05-16.15 16.9-8.75 7.85-17.75 11.9-13.4 5.4-27.85 6.4-14.4 1-25.1.15z" id="k"/><path fill="#0081c6" d="M1065.35 476.45q-4.7-4.8-10.2-9.3-5.25-4.85-11.3-9.3-6-4.5-12.8-8.55l-.4-.6q-.2-.25-.4-.45-.45-.1-.8-.15-.35-.05-.6-.05-1.2-.65-2.65-1.4-1.5-.8-2.65-1.45-.55-.35-1.1-.25-.55.15-.15 1.05l.55.45 1.4.95q1.85 1.25 4.5 3l.25.7q.1.4.25.85 2.75 8.15 6.25 16.05 3.45 7.95 6.35 16.05 5.6 17.2 7.45 34.5 1.85 17.3 3.35 34.5 1.55 17.25 6.15 34.15 5.65 20 5.8 40.05.1 20.1-4.5 39.8-4.55 19.65-13 38.4l-1.65 2.95q-1.4 2.45-3.1 5.95-1.75 3.5-2.85 7.05-.6.85-1.1 1.65-.45.85-.6 1.6.25.05.5.05l.5-.1q-.2 1.65 0 3.05.2 1.35 1 2.3-.5.8-.9 1.5-.35.75-.45 1.35.95 0 1.9-.95.9-.95 1.25-1.4 11.7-12.15 21.2-29.6 9.55-17.5 16.35-37.45 6.75-20 10.2-39.6 2.35-8.25 3.9-17.1 1.6-8.9 2.35-17.95 1.55-8.65 2.25-17.45.7-8.75.35-16.05-.05-1.25-.15-2.55-.1-1.3-.25-2.7-.65-9.8-3.75-21.55-3.1-11.7-8.25-22.8-5.15-11.15-11.8-19.2-3.95-5.15-8.65-10m-17.4 239.45q2.55-2.9 4.85-5.9-.9 1.3-1.85 2.6-.95 1.35-1.95 2.7-.45.45-1.4 1.6-.95 1.1-.95 2.2.15.05.4.1h.3q.1 0 .25-.15.15-.1.35-.3l.05.1.3.05q-1.1 1.5-2.2 3.05l-2.2 3q-.4.5-1.45 1.7-1.05 1.15-2.15 2.6-.25-1.35-.05-2.85t.7-2.95q.6-.5 1-1l.7-.7q2.75-2.9 5.3-5.85m32.7-63.1q-.528 1.736-1.1 3.45l1.05-3.4q.528-1.736 1.05-3.5-.475 1.75-1 3.45m-181.7 133.4l1.75.3q2.05.3 4.1.45 2.1.2 4.15.25-.2.35.25.55.45.2 1.45.35.4.05.75.1.4.05.85.1-1 .1-2 .15l-3.65.25q-1.25.1-2.25.55-.1 0-.3.2-.2.15-.2.3.25 1 1 1.1.75.1 1.75.05 11.55-.45 22.45-2.1 10.95-1.65 22.3-3.95.7-.1 2.35-.5 1.65-.4 2.5-1.25 0-.3-.25-.4-.2-.1-.35-.1l-.35-.05q-.35 0-.8.05-.4-.1-.85-.05-.45.05-.7.05-8.35 0-16.7.9-8.3.9-16.65 1.55-8.3.65-16.6-.2l-1.65-.2q-1.25-.15-2.35 0l-.65.75-.05.45.7.35m41.9-1.15q.2-.05.4-.15.2-.05.35-.15.4 0 .8-.05l.75-.05q-.4.05-.65.1t-.45.1l-.6.1-.6.1M746.95 525.2l-.3-2.3q-.3-1.75-.9-3.1-.25-.25-.55-.2-.3 0-.5.3l-.2 1-.1 2.05q-.05 2.5 0 5.25v3.7q-.4 8.85.15 16.75.6 7.9 1.65 15.65 1.05 7.8 2.05 16.25.65 5.45 1.6 11.1.95 5.65 1.85 11.35.05.65.15 1.25.1.6.2 1.15.4 2.55.65 5.1.3 2.5.5 4.95-.1.9-.1 1.85-.05.95.05 1.8 0 .6-.05 1.2 0 .65.1 1.3-1.2 4.65-2.2 9.3-1 4.65-1.7 9.25-1.9 10.9-4.2 21.75-2.35 10.9-3.25 21.85-.65 9.75.65 17t4.35 14q3.1 6.75 7.85 14.85.15.25.4.8t.6 1.25q0 .25.05.55.05.25.2.5l.25-.05q.45.8.95 1.45.55.7 1.1 1 .3-.15.3-.5v-.55q0-.45-.15-1.1-.2-.6-.55-1.35 1.3-1.6 2-3.7l.8-2.7q1.4-6.35 2.6-13.05 1.15-6.65 2.15-13.05 2.5-15.4 4.95-31.25 2.45-15.8 3.95-31.3 1.1-13.05-1.05-26.6-2.2-13.55-6.85-26.7.05-.6 0-1.15 0-.55-.15-1-.15 0-.3-.1-.2-.1-.25-.05l-.1.05q-3.2-8.7-7.25-16.85-4-8.15-8.55-15.45l-1.1-1.65q-.9-1.3-1.7-2.4 0-.1-.2-.2-.2-.05-.35 0 .2-4.7.4-9.45.25-4.75.1-9.8z" id="l"/><g id="m"><path fill="#FFF" d="M955.75 420.8q-32.35 1.95-74.45 4.9-42.1 3-73.95 5.35l-33.55 2.45-6.15 9q-5.85 8.75-12.75 23.3t-10.45 32.15q-3.25 18 .4 46.1 3.6 28.05 13.25 66.4-.8 6.15-2.9 18.9-2.15 12.8-4.45 27.5-2.35 14.75-3.8 26.75-1.45 12.05-.9 16.6.9 6.2 4.65 17 3.8 10.75 10.3 22.85 6.5 12.15 15.7 22.35 9.15 10.25 20.95 15.4 14.6 5.8 36.3 8.2 21.75 2.35 46.25 2.2 24.5-.2 47.4-2.1 22.9-1.9 39.9-4.7 20.25-3.4 35.8-13.2 15.5-9.75 27.6-24.6 12.1-14.8 22.1-33.25 5.6-10.1 11-23.3 5.45-13.15 10.15-28.2 4.7-15.1 8.05-30.9 3.5-16.85 5.25-33.15 1.7-16.25 1.8-30.6.1-14.35-1.4-25.35-4.1-26.05-18.75-47.6t-32.4-37.35q-17.7-15.8-31.05-24.7l-14.95-9.75h-10.05l-24.9 1.35z"/><path fill="#0081c6" d="M1027.1 329.9q-1.45 1-1.4 3 .1 2 .4 3.7-1.25.65-1.3 3-.1 2.3.25 4.5l.4 2.4q.5 5 .3 10.2-.25 5.2.6 10.6 1.2 7 .5 15.15-.65 8.15-2.75 16-2.15 7.85-5.3 13.9l-.95 1.8-.3.9.5.35 1.4.1q.95-.9 1.75-2.25l1-1.8q1.2-2.6 2.2-5.4 1-2.75 2.4-4.8 1.95-2.7 3.15-7.35 1.25-4.65 1.7-9.55.5-4.95.1-8.6-.15-1.5-.2-3-.05-1.5 0-3.05.6-2.8.6-5.4 0-2.65-.2-5.85-.2-4-.1-7.35.05-3.35.25-7.15l.1-2.05q.05-1.75-.3-3.55-.3-1.85-1.35-2.55-.2.05-.35.15-.15.05-.3.15-.25-2.2-.65-3.65-.35-1.5-.9-1.95-.15-.15-.5-.35-.35-.2-.75-.25z"/></g><path fill="#0081c6" d="M1051.6 302.65q-.5-1.15-1.7-1.2-1.2-.1-2.5.3-1.35.4-2.35.75-3.4 1.1-4.6 4.7-1.15 3.6-1.15 7.95 0 4.3.05 7.55-.1 5.4-.35 10.5-.25 5.1 0 10.55.6 10.65.5 21-.05 10.3-.45 20.95-.05 1.6 0 4.65.05 3.05.35 6.4-.2.05-.35.1-.2.1-.45.2l-.25.4q-.2.35-.6.6l-1 .7-.55.5q-.25.35-.3 1.05-.35.9-.5 1.85-.15.9-.25 1.45-.15.55-.3 1.15-.2.6-.45 1.1l-.15.5q-.15.35-.25.65-1.4-.4-2.45 1.35-1 1.75-1.6 3.75l-.65 2.2q-.6 1-1.5 1.7t-1.9 2.5q-1.05 2.15-2 3.95-1 1.8-1.95 3.5.5-1.75.45-3.2-.1-1.5-1.1-2.3-.75.55-1.35 1.75-.65 1.2-1.1 2.4-.4 1.15-.65 1.65-1.1 2.25-3.55 6.4-2.4 4.15-5 7.95-2.65 3.85-4.4 5.15l-.7.1q-.65.1-1 .5-.3.1-.25.4l.05.35q0 .15.35.3l.3.25q-.4 1.05-1.5 2.35-1.05 1.3-2.4 2.75-9 1.2-18.5 2.7-9.5 1.5-18.85 3.65-9.35 2.2-17.8 5.5-6.75 2.65-13.5 5.15-6.8 2.5-13.5 5.05l-2.1 1.05q-1.55.85-2.65 1.95-.05.25 0 .55 0 .25.1.5-.3.2-.25.5.1.25.35.55 2.5 2.7 9.3 4.05 6.8 1.4 14 1.85 7.2.5 10.9.6 16.4.45 30.7-4.6t27.05-14q3.85-2.15 7.3-4.7 3.45-2.55 6.6-5.8 5.8-5.45 10.25-12.85 4.4-7.4 7.85-17.5.2-.35.35-.7l.4-.7q5.25-9.95 8.65-22.45 3.45-12.45 5.45-25.5 2-13 3.1-24.6.15-1.15.4-3.2.2-2 .15-3.6.25-5.45-.05-10.75-.3-5.25-.85-11-.2-3.15-.55-7.15-.35-4-.95-7.9-.65-3.9-1.85-6.75z" id="n"/><g id="o"><path fill="#0081c6" d="M980.9 222.3l.4-1.3q.25-.95.1-1.7-.5-.4-.7 0-.2.45-.35 1.05-1.15 3.7-2.65 7.25-1.5 3.6-3.35 6.95-2.1 3.95-4.55 7.6-2.45 3.7-5.25 7.1-.3.3-.95 1-.7.75-.9 1.45l.15.1q-.35.3-.55.6-.25.35-.3.7.3.3.7.15.4-.15.65-.35 2.45-1.45 5.3-4.45 2.85-3.05 5.5-6.45 2.6-3.4 4.2-5.85.15-.2.45-.65.3-.5.6-1.05.2-.35.3-.75.1-.35.05-.7-.45-.25-.75.15t-.5.8q-.15.2-.25.4l-.3.4q.35-.85.45-1.65.05-.8-.35-1.4-.35-.2-.6-.1t-.45.4q1.2-2.5 2.2-4.95.95-2.45 1.7-4.75m-14.3 26.2l.25-.3h.05l-.3.3z"/><path fill="#FFF" d="M966.85 248.2l-.25.3.3-.3h-.05m45.6-63.95q-2.9 1.1-4.65 4.1-5.3 9.6-9.85 17.75-4.5 8.15-9 15.15-4.45 7-9.55 13.2-.3.55-.6 1.05-.3.45-.45.65-1.6 2.45-4.2 5.85-2.65 3.4-5.5 6.45-2.85 3-5.3 4.45-.25.2-.65.35-.4.15-.7-.15.05-.35.3-.7.2-.3.55-.6l-.15-.1q.2-.7.9-1.45.65-.7.95-1 2.8-3.4 5.25-7.1 2.45-3.65 4.55-7.6-2.9-1.1-7.15-2.85t-9-3.85q-4.7-2.1-9-4.3-6.95-3.95-20.9-7.25-14-3.3-33.35-1.7-19.3 1.55-42.4 12.4-11.7 5.9-19.2 12.5-7.55 6.6-11.4 11.85l-4.65 6.95q-4.35 8.75-9.45 26.95t-9.7 38.5q-4.6 20.25-7.4 35.15l-2.1 11.7-.5 5.35 1.2 3.65 3.1 6.75q4.05 8.25 13.25 21.1 9.2 12.85 25.1 28.85 13.95 13.5 28.95 22.25 15 8.7 28.05 13.55 13.05 4.85 21.2 6.75 22 5.1 41.9 2.45 19.95-2.6 34.85-9.1 14.9-6.45 21.9-12.9 14.8-13.7 24-35.6 9.2-21.9 13.1-48.4 3.85-26.55 2.6-54.2-1.8-34.2-6.7-61.8-4.9-27.65-10.2-46.15-5.35-18.5-8.3-25.3-1.35-2.95-4.1-3.85-2.75-.9-5.6.25z"/></g><path fill="#FFF" d="M789.2 341.6q-3.4 5.75-11.45 18.2-8.05 12.45-17.8 27.65t-18.3 29.35q-8.55 14.1-12.85 23.2l49.1 7.45q46.65 6.55 107.9 14.7 61.2 8.1 107.35 13.7l35 3.95 12.65.65-7.8-9.85q-5.8-7.2-13.15-15.8-7.35-8.55-13.8-15.45-6.5-6.85-9.8-8.9l-35.8-15.85q-31.25-13.5-70.8-30.35-39.6-16.85-69.25-29.4l-31.2-13.25z" id="p"/><path fill="#0081c6" d="M840.25 295.25q-.35.05-.6.4-.25.3-.35.8-.05.25-.1.6l-.1.7q-.05.65-.05 1.4v1.3q.05 4.3.35 6.75.3 2.5.9 4.75 1.2 4.9 3.35 8.6 2.2 3.7 5.85 4.8.65.25 1.35.25.7 0 1.15-.1 3.2-.85 5.8-3.55 2.55-2.65 4.2-6.4 1.65-3.7 2.2-7.55l.1-.7q.1-.55.1-1.2.2-1 .15-1.8-.05-.85-.4-1.4-.45.15-.65.7-.15.55-.2.8-1.2 4.15-2.2 7.35-.95 3.25-2.75 5.6-1.75 2.35-5.45 3.85-2.65.85-4.95-2.1-2.3-3-3.9-7.55-1.6-4.6-2.2-8.45l-.4-1.8-.3-1.9q-.15-1.3-.35-2.3-.25-.95-.55-1.85z" id="q"/><path fill="#FFF" d="M915.85 293.65q-.95-9.75-6.65-17.4-5.7-7.65-18.65-10.15-13.2-1.9-21.3 3.85-8.15 5.75-12.65 14.6-4.45 8.8-6.65 16.15 8.9 1.05 20.1 2.9 11.2 1.85 23 4.1 11.75 2.2 22.35 4.35 1.35-8.7.45-18.4z" id="r"/><path fill="#0081c6" d="M1055.45 790.65l-.15.85q-.05.35-.15.65-4.4 18.4-8.15 35.75-3.8 17.4-7.4 34.8-3.6 17.4-7.45 35.85-.25 1.2-.15 2.15t.45 1.65q-1.6.85-3.2 1.6-1.55.75-3.05 1.4-2.55.8-5.1 1.5t-5.2 1.25l-3.75.5q-3.2.45-6.15 1.5t-2.9 2.9q.25.3.6.35.4.05.8-.05.25.15.55.25.3.1.55.15l2.9-.15 4.6-.95q5.4-1.4 10.85-3.25 5.4-1.85 7.4-3 .55-.3 1.8-1.1 1.25-.75 2.15-1.7.55-.3 1-1.05.45-.7.7-1.9 4.1-18.25 7.85-35.6 3.75-17.4 7.4-34.8 3.65-17.4 7.45-35.65l.15-.95q.1-.9.15-2.15 0-.2.05-.4t.05-.35h-.1q-.35.1-.7.15l-.7.1q-.8.05-1.6 0t-1.55-.3z" id="s"/><path fill="#FFF" d="M899.05 742.6q2.25 9.75 5.6 24.35 3.3 14.55 6.6 29.5t5.5 25.85q1.9 9 5.65 21.75 3.8 12.7 7.95 25.25t7.1 21l3.15 8.95q10.15 5.85 23.3 8.7 13.15 2.85 26.65 3.05 13.55.2 24.85-1.85 11.35-2.1 17.9-6.15l1.75-7.8q1.75-7.4 4.45-19.4 2.75-11.95 5.85-26.1 3.05-14.2 5.8-28.15 4.05-20.55 6.9-35.15 2.8-14.6 4.3-22.55l1.45-8.5q-8.7-2.95-30.9-8.65-22.15-5.7-49.35-10.95-27.2-5.3-51-6.9-23.8-1.65-35.85 3.5l2.35 10.25z" id="t"/><path fill="#0081c6" d="M938.3 828.5q.2 3.1 1.2 6.95 1 3.8 2.75 6.95 1.7 3.15 4.05 4.3 4 1.55 6.85-1.1 2.85-2.65 4.45-7.45 1.6-4.75 1.75-9.5.05-1.1-.1-2.65-.15-1.55-.85-1.55-.15.3-.3.65l-.15.5q-.6 2-.85 4.2-.3 2.15-.8 4.3-1.15 4.45-3.3 7.15t-4.75 2.35q-2.55-.35-4.9-4.95-1.2-2.6-1.95-5.7-.8-3.05-1.8-5.85-.6-1.4-1-.55-.35.8-.3 1.95z" id="u"/><path fill="#A6CE38" d="M957.25 636.4l-56.85-.25 27.95 211.35 28.9-211.1z" id="v"/><path fill="#AED044" d="M1357.3 241.55q-2.75-4.9-10.4-7.6l-.75.1q-.6.1-1.1-.1-.25 0-.55.05-.3 0-.6.05.4-1.35-.2-1.85-.6-.5-2.55-.25-2.55 1.8-4.45 5.1l-2.45 4.45q-11 19.3-20.75 39.55-9.8 20.25-19.1 40.9-1.8 3.15-3.55 6.3-1.75 3.2-3.45 6.4-4.4 8.45-8.15 17.4-3.75 9-7.2 18.15-2.8 5.8-5.7 11.55-2.85 5.75-5.85 11.35-11.75 22.45-28.25 47.85-16.55 25.45-35.7 48.8-19.15 23.4-38.75 39.75-2.7 1.05-5.4 2.15l-3.5 1.4q-8.45 4.4-16.5 11.35-8 7-14.95 12.6-4.6 1.9-8.15 5-3.6 3.1-6.5 8.8-9.15 10.8-10.85 23.35-1.7 12.55 6.95 26.7 2.1 3.45 7.5 10 5.45 6.55 12 11.45 6.55 4.85 12.05 3.2 2.65.9 5.15 1.4 2.55.5 3.6.7 9.7 1.45 27.1-1.95 17.45-3.4 34.35-9.55 16.9-6.2 25-13.05.85-.7 2.15-1.9 1.3-1.2 1.65-2.15.15-.65-.15-1.15-.3-.5-.75-.6Q1245.3 605 1258.5 594t24.3-24.6q11.05-13.6 21.5-33.6.8-1.35 1.6-2.75.75-1.4 1.5-2.85 5.3-9.95 10.65-21.4 5.3-11.45 10.05-23.65 2-4.15 4.05-8.3 2.1-4.1 4.25-8.25 2.65-5.05 5.45-16 2.8-11 3.1-22.5.3-11.45-4.65-17.95 6.3-15.65 11.1-32.05 4.75-16.45 9.1-32.75.25-.9.45-1.7.2-.75.4-1.45l1.6-5.8 1.6-5.7q.7-2.4 1.15-4.85.5-2.4.75-4.85 3.15-17.9 1.75-34.65t-6.4-34.55q-1.7-7.4-4.5-12.25z" id="w"/><path fill="#A6CE38" d="M1072.2 375.55l-4.05-17.8q-26-12.55-57.2-16.7-31.2-4.15-54.1-4l-24 .5-6.8 14.25q-6.4 13.4-13.6 28.5-7.2 15.05-10.05 21.15l180.85 23.65-3.85-17.3q-3.6-16.05-7.2-32.25z" id="x"/><path fill="#A6CE38" d="M1001.3 267.15q-15.6 1.8-25.15 7.4-9.55 5.55-13.9 10.55-4.6 5.15-13 19.85-8.4 14.7-15.2 28.7l-5.1 11.25-1.65 5.8q1.5 5.7 11.65 11.85 10.1 6.15 24.4 11.1 14.25 4.9 28.2 6.9 16.55 2.1 33.15.8 16.55-1.3 28.7-5.5 12.15-4.25 15.35-10.85l-1.4-28.15q-1.5-20.5-7.7-40.2-6.2-19.7-20.15-25-22.55-6.3-38.2-4.5z" id="y"/><path fill="#A6CE38" d="M1099.4 333.3q11.45-10.2 19.2-22.3l-3.55-2.1-10.1-4.2q-13.4-5.25-36.75-7.1l2.95 10.5q3.05 9.8 6.7 21.3 3.65 11.5 5.55 17.3l16-13.4z" id="z"/><path fill="#A6CE38" d="M793 728.5l11.5 6.7q11.3 6.35 30.65 14.8 19.35 8.4 43.85 15l10.25-22.7q9.2-21.4 21.05-49.5 11.85-28.05 20.8-49.35l9.4-22.45-25.4-11.05L793 728.5z" id="A"/><path fill="#0081c6" d="M1098.25 386.4q-.5-.45-1.5-.85-.95-.45-1.9-.1-.85.7-.9 1.7-.05 1.05.4 2.2h-.1q-3.05 2.9.55 7.45l4.75 5.5q2.45 3.6 4.15 7.65 1.75 4.05 2.95 8.25-.2.05-.45.05t-.55-.1q-.45-.1-1-.35-.55-.3-1.25-.75l-.5-.4q-.3-.15-.55-.35 2.9 8.8 4.95 17.65 2.05 8.8 3.75 17.9-.8 1.05-1.35 1.9-.55.85-.8 1.3-16.1 27.1-30.25 56-14.2 28.9-26.95 57.05-6.85 14.6-12.75 32.85t-7.05 35.5q-1.85.85-3.85 1.75-1.95.85-4 1.7-3.5 1.45-10.95 5.5l-5.7 3.7-2.1 3.1.15.3q.15.25.2.45 2.85.35 6.35-1 3.5-1.35 4.9-1.9 3.9-1.35 7.65-2.75 3.75-1.4 7.35-2.95l.2 2.4q.1 1.2.25 2.35 1.25 6.05 4.05 4.85 2.8-1.2 3.25-7.05 0-1.5.05-3t.15-3.05l1.5-.7 1.5-.7q0 .15.05.3t.15.35q3.55.15 7.9-3.05l4.75-3.7q1.3-.95 2.6-1.95 1.25-.95 2.5-1.95 40.5-26.2 56.8-64.8 16.3-38.55 10-83.3v-.2l-.05-.45q0-.45-.05-1.2-.05-.7-.15-1.6.05-14.85-3.2-28.9-3.25-14.05-8.8-27.6-2.85-8.65-7.45-19.35-4.6-10.7-9.65-15.65z" id="B"/><path fill="#A6CE38" d="M925.95 432.95l-24.45 3.1-9.45 2.05q-2 9.35-5 29.7-3 20.4-7.65 47t-11.6 54.6q-8.4 37.55-26.8 76.8-18.4 39.2-59.2 75l12.6 1.85 23.35-2.45q28.75-4.55 70.05-17.05t86.3-32.35q52.95-24 83.6-48.35 30.65-24.3 44.3-48.7 13.65-24.4 15.6-48.55 2.15-25.45-.45-50.4-2.6-25-6.1-41.95l-4.2-18.1-33.5 2.9q-31.8 2.95-73.65 7.1-41.85 4.15-73.75 7.8z" id="C"/><path fill="#0081c6" d="M1010.55 296.3q-.2-.05-.3 0-2.05 2.15-.05 8.2 1.95 6.1 3.55 8.8 5.35 8.9 8.9 6.8 3.6-2.05 5.2-10.65l.55-3.3q.35-2.9-.85-4.3-.3-.1-.6 0-.25.15-.4.3l-1.2 4.65q-.75 3.9-1.3 5.55-.2.65-.95 2.15-.8 1.55-1.7 2.25-.15 0-.3-.1l-.2-.15q-2.35-1.4-4.8-7.55-2.45-6.15-3.35-8.95l-.55-1.65q-.45-1.2-1.25-2-.2 0-.4-.05z" id="D"/><path fill="#A6CE38" d="M1032.8 313.4l-.75-4.85q-.85-4.45-3.65-8.95-2.8-4.45-8.5-4.7-6.65.35-9.9 5.9-3.25 5.5-3.9 12.4l26.7.2z" id="E"/><path fill="#FFF" d="M1091.8 407.7l-.05-.05q-.35.35-.65 1.05l-.35 1.05q-.15.3-.4.9-.25.6-.5 1.15-.25.55-.25.85 0 .05-.05.1 0 .1.1.1.3-.3.5-.85l.7-1.8q.35-.8.65-1.55l.35-.85q0-.05-.05-.1m6.1-.6l-.3.45q-.95 1.35-2.15 2.95-1.15 1.6-1.9 3-.05.1-.15.25-.1.15-.05.25.45-.25.8-.8.4-.6.55-.85.35-.55 1.25-1.75.85-1.2 1.65-2.35l.65-1 .3-.65v-.2q-.05-.05-.2 0-.25.3-.45.7m-19.3 5.45q.5.5 1 .9.5.45.8.6.05.05.15.1.05.05.15-.05-.25-.35-.65-.75l-.4-.3-.2-.2q-.7-.65-1.45-1.4-.75-.7-1.5-1.25-.05 0-.1-.05t-.1 0q.2.45.75.95.55.5.8.7.3.25.75.75z" id="F"/><path fill="#AED044" d="M702.8 109.95q-8.2 12.1-13.5 28.1-5.25 16.05-11.65 30.4-4.95 10.95-8.5 26.25-3.5 15.25-6.4 27.6-3.4 13.65-4.55 26.1-1.15 12.45-.95 26.5.15 11.75.7 23 .6 11.3 1.7 22.95 0 6.45.45 13.1.45 6.65 1.45 13.55 1.3 9.4 2.85 18.7 1.55 9.3 3.4 18.45-.55 1-1.05 2l-1 2q-13 11.8-12.55 28.65.5 16.85 8.25 33.75 7.7 16.9 16.4 28.85.25.4.55.75.25.4.55.8 1.05 1.8 2.25 3.65 1.15 1.8 2.4 3.6 14.85 21.85 29.55 40.2 14.7 18.4 36.05 35.3 1.15.9 3.25 2.6 2.1 1.65 4.85 3.85-1.5 1.55-2.8 3.25-1.3 1.65-2.45 3.45l-.3 3.2q-.1 1.55-.2 3.15l-.2 3.2v.25q-.1 2.7 0 5.35.1 2.65.5 5.25.05.45.15.9.05.5.15.95.2.8.4 1.55t.4 1.55l.55 1.6.5 1.6q.2.7.45 1.4l.45 1.35q.55 1.75 1.1 3.45l1.1 3.3q1.25 2.75 2.75 5.6 1.55 2.8 3.4 5.75 4.2 6.7 8.95 13.35 4.75 6.6 9.7 13.1 6.4 5.7 13.5 11.65 7.15 5.9 15.15 13.3 13.05 12.35 27.05 24.75 14 12.45 28.65 22.7 12.7 8.75 25.7 17.4 13.05 8.65 26.3 16.95.65.3 1.3.7.65.4 1.25.85.25.15.45.3l4.55 2.75q1.9 1.15 3.85 2.3 1.9 1.15 3.85 2.3l1.45.85 1.4.8q1.5.9 3 1.75l3 1.7q1.1.65 2.25 1.3 1.1.6 2.25 1.25.6.3 2 1.05 1.45.75 3.2 1.7 6 1.1 11.95 2.1 6 1 11.85 1.4 7.3.6 11.4.5 4.05-.1 11.8-1.55 3.7-.65 7.35-.95l7.4-.55q1.5 2.1 5.55 3.35 4.1 1.3 10.35.6 11.9-1.4 21-4.05 9.05-2.6 16.7-6.5.1.05.2.15l.2.1q4.1 1.65 12.9-5.15 8.8-6.8 16.15-14.4l.35-.25q.85-.6 1.7-1.55.85-.95 1.7-2.2 1-1.05 1.7-1.95.75-.85 1.15-1.45 5.8-8.25 9-18 3.25-9.8 4.2-20.55 2.45-12.55 2.1-20.75-.4-8.15-3.6-21.9-4.95-27.7-14.35-45.3-9.45-17.6-38.05-28-1.5-.55-3.05-.95-1.6-.45-3.2-.7-2.05-1.4-4-2.9-2-1.45-3.95-2.9-1.1-.55-1.9-.9l-1-.6q-2.9-2.1-5.8-4.25-2.85-2.15-5.7-4.35-7.8-6.1-15.45-12.5-7.65-6.35-15.2-12.95-7.4-6.5-14.8-13.15-7.35-6.7-14.75-13.4-16-14.65-29.5-29.95-13.45-15.35-26-31.45-4-5.1-8-10.25L900 438q-8.2-10.45-16.8-21.65-8.65-11.15-17.1-22.95-4.2-5.85-8.25-11.85-4.1-6-7.95-12.1-1.85-2.9-3.6-5.85-1.8-2.95-3.5-5.9-4-5.1-7.7-10.6-3.7-5.45-6.95-11.5-4.3-7.85-8.8-15.2-4.5-7.35-8.75-14.95l-2.5-4.8q-1.25-2.4-2.45-4.8-.75-1.5-1.4-3-.7-1.55-1.35-3.1-4.15-9.75-8.8-19.25-4.7-9.5-9.6-18.85-1.3-2.8-2.55-5.65-1.25-2.8-2.45-5.65l-3.4-7.85q-9.65-23.05-18.75-46.2-9.1-23.2-14.95-48.65-1.35-8.15-4.65-19.95-3.3-11.8-11.5-15.8-1.4-.9-3.2-1.25-1.75-.3-3.95.1l-3.85.75q-2.95.65-5.35 1.45-2.4 1.3-4.45 3.7l-2.65 3.3M888 425.65l-.85-.95q-.4-.45-.85-.95-1.75-2.3-3.55-4.6l-3.5-4.6q-.45-.65-.85-1.25-.4-.6-.8-1.25 2.75 3.3 5.35 6.7 2.6 3.35 5.05 6.9m-229.2-8.05v.55q-.05.8-.05 1.6v1.6q-.4-3.6-.2-6.8.2-3.2 1.15-5.9-.35 2.1-.55 4.2-.2 2.1-.3 4.2-.05.3-.05.55m327.3 358.25q-.95.05-1.85-.15.75-.15 1.55-.3t1.6-.35l.3.2q.15.1.25.2-.85.35-1.85.4m-47.15 1.2l1.1.5q-.5-.25-1-.55-.45-.3-.9-.55l-.25.1 1.05.5m-151-103.7q1.7 1.9 3.5 3.8-1.7-2-3.35-3.9-1.7-1.9-3.4-3.7 1.6 1.9 3.25 3.8z" id="G"/></defs><use xlink:href="#a" transform="matrix(1.29524 .02345 -.0238 1.27998 -1268.65 -185.9)"/><use xlink:href="#b" transform="matrix(-.13434 .41647 -.43192 -.14114 1390.3 -7.6)"/><use xlink:href="#c" transform="matrix(-.13434 .41647 -.43192 -.14114 1390.3 -7.6)"/><use xlink:href="#d" transform="matrix(.2123 -.41304 .45026 .22795 514.95 711.15)"/><use xlink:href="#e" transform="matrix(.2123 -.41304 .45026 .22795 514.95 711.15)"/><use xlink:href="#f" transform="matrix(.46521 -.01276 .02567 .48518 474.35 230.1)"/><use xlink:href="#g" transform="matrix(.47072 -.0111 -.1099 .57336 637.85 141.65)"/><use xlink:href="#h" transform="matrix(.3313 -.01389 -.08455 .49974 702.2 226.25)"/><use xlink:href="#i" transform="matrix(.54716 -.08203 .07591 .4616 362.05 299.3)"/><use xlink:href="#j" transform="matrix(.54907 .01695 -.00757 .47108 385.9 218.7)"/><use xlink:href="#k" transform="matrix(.48242 .0112 .00111 .46878 472.2 204.75)"/><use xlink:href="#l" transform="matrix(.44623 -.04765 .01797 .46962 496.05 264.05)"/><use xlink:href="#m" transform="matrix(.44623 -.04765 .01797 .46962 496.05 264.05)"/><use xlink:href="#n" transform="matrix(.51814 -.1968 .17097 .4345 369.9 409.85)"/><use xlink:href="#o" transform="matrix(.51814 -.1968 .17097 .4345 369.9 409.85)"/><use xlink:href="#p" transform="matrix(.26328 -.12643 .11774 .4446 594.95 350.85)"/><use xlink:href="#q" transform="matrix(.49098 -.3313 .1995 .4944 408.9 489.2)"/><use xlink:href="#r" transform="matrix(.51814 -.1968 .17097 .4345 361.75 395.55)"/><use xlink:href="#s" transform="matrix(.47072 -.01205 .02618 .56874 402.1 154.55)"/><use xlink:href="#t" transform="matrix(.47072 -.01205 .02618 .56874 402.1 154.55)"/><use xlink:href="#u" transform="matrix(.47072 -.01205 .02618 .56874 431.6 166)"/><use xlink:href="#v" transform="matrix(.08171 .0012 -.0017 .0796 1077.45 393.45)"/><use xlink:href="#w" transform="matrix(.07317 .06548 -.07043 .09058 1119 309.65)"/><use xlink:href="#x" transform="matrix(.08276 -.0171 .01514 .09096 1067 409.25)"/><use xlink:href="#y" transform="matrix(.08798 -.01656 .01328 .0891 1062.45 410.7)"/><use xlink:href="#z" transform="matrix(.0933 -.00984 .00642 .09074 1056.75 401.7)"/><use xlink:href="#A" transform="matrix(.10066 .02649 -.02455 .0615 1065.9 387.35)"/><use xlink:href="#B" transform="matrix(.07104 .0028 -.0037 .07787 1086 393.6)"/><use xlink:href="#C" transform="matrix(.07104 .0028 -.0037 .07787 1086 393.6)"/><use xlink:href="#D" transform="matrix(.11485 -.01163 .01048 .11134 1034.1 398)"/><use xlink:href="#E" transform="matrix(.09361 -.00075 .00027 .09111 1055.9 397.5)"/><use xlink:href="#F" transform="matrix(1.17252 0 0 1.17252 -165.6 -25.65)"/><use xlink:href="#G" transform="matrix(.05208 -.03374 .03955 .05534 1068.9 434.95)"/></svg>