<svg xmlns="http://www.w3.org/2000/svg" viewBox="0 0 692.9 179.5"><path fill="#A6CE38" d="M170 4.3c.4-.4.2-1.1-.3-1.2-.9-.3-1.8-.6-3.2-1.1-.2 0-2.6-2.4-6.3-2-7.2 1-7 9.6-10 12.5-4.1 4-17.1 13.9-19.7 15.7-.2.2 0 .5.3.6 2.5.6 10 1.6 11.3 1.7 1.4.1 1.4 1.6 0 1.5-4.1-.4-9.2-1.2-12.9-2.1-5.7-1.5-9.6-3.2-13.4-4.4-.2 0-.4.1-.4.3 0 4.7 2.6 12.4 5.8 12.4 5.2 0 11.2-2 13.3-2.8h.2c.9.1 7.2.7 12.1.7.2 0 .3.1.3.3.2 2.5 2.8 19.2 2.8 20.2 0 1.3 1.3 1.4 1.3.1 0-1.2.9-18 1-20.5 0-.2.1-.3.3-.3 14.6-.9 21.9-15.6 14.5-28.7-.1-.1 0-.3.1-.4l2.9-2.5z"/><path d="M0 57.9h17.4v7c3.2-3.5 6-5.9 8.5-7.2 2.5-1.3 5.5-2 9-2 4.6 0 9.4 1.6 14.4 4.7l-8 16.6c-3.3-2.5-6.5-3.7-9.7-3.7-9.5 0-14.3 7.5-14.3 22.4v40.8H0V57.9zm57.8-38.1h17.4v44.7c6.2-5.8 13-8.7 20.5-8.7 8.5 0 15.3 2.9 20.5 8.6 4.3 5 6.5 13 6.5 24v48.2h-17.4V90.1c0-6.3-1.1-10.9-3.2-13.7-2.1-2.8-5.6-4.2-10.3-4.2-6.1 0-10.4 2-12.9 5.9-2.4 4-3.6 10.8-3.6 20.5v38H57.8V19.8zm100.5 38.1v78.7h-17.4V57.9h17.4zm18.2 0H194v7.3c6.1-6.3 13-9.4 20.6-9.4 8.8 0 15.6 2.9 20.5 8.6 4.2 4.9 6.4 12.9 6.4 24v48.2H224V92.7c0-7.7-1-13.1-3.1-16-2-3-5.7-4.5-11-4.5-5.8 0-9.9 2-12.3 6-2.4 3.9-3.6 10.8-3.6 20.6v37.9h-17.5V57.9zM256 96.7c0-11.4 3.9-21 11.7-29 7.8-8 17.3-12 28.5-12 11.3 0 20.8 4 28.7 12 7.8 8 11.6 17.9 11.6 29.6 0 11.8-3.9 21.7-11.7 29.6-7.9 7.9-17.5 11.9-28.9 11.9-11.3 0-20.8-4-28.4-12.1-7.7-7.9-11.5-18-11.5-30zm17.8.3c0 7.9 2 14.1 6 18.7 4.1 4.6 9.6 6.9 16.4 6.9 6.8 0 12.3-2.3 16.4-6.9 4.1-4.6 6.1-10.7 6.1-18.3 0-7.6-2-13.8-6.1-18.3-4.1-4.6-9.6-6.9-16.4-6.9-6.7 0-12.1 2.3-16.2 6.9-4.1 4.6-6.2 10.6-6.2 17.9zm152 37.7c0 3.7-.1 7-.4 9.8-.2 2.8-.6 5.3-1 7.5-1.2 5.9-3.7 11-7.3 15.3-6.8 8.2-16.2 12.3-28.1 12.3-10.1 0-18.4-2.8-24.9-8.5-6.7-5.8-10.6-13.9-11.6-24.2H370c.7 3.9 1.8 6.9 3.3 9 3.6 4.9 8.9 7.3 15.8 7.3 12.8 0 19.1-8.1 19.1-24.4v-11c-6.9 7.4-14.9 11.1-24 11.1-10.3 0-18.7-3.9-25.3-11.6-6.6-7.9-9.9-17.7-9.9-29.5 0-11.5 3.1-21.2 9.2-29.2 6.6-8.5 15.3-12.8 26.2-12.8 9.5 0 17.4 3.7 23.7 11.1V58h17.4v76.7zM409 97.4c0-7.6-2-13.7-5.9-18.3-4-4.7-9.1-7-15.3-7-6.6 0-11.8 2.6-15.7 7.7-3.5 4.6-5.2 10.5-5.2 17.7 0 7.1 1.7 13 5.2 17.6 3.8 5 9 7.5 15.7 7.5 6.7 0 11.9-2.5 15.8-7.6 3.7-4.5 5.4-10.4 5.4-17.6zm34.8-39.5h17.4v7c3.2-3.5 6-5.9 8.5-7.2 2.5-1.3 5.5-2 9-2 4.6 0 9.4 1.6 14.4 4.7l-8 16.6c-3.3-2.5-6.5-3.7-9.7-3.7-9.5 0-14.3 7.5-14.3 22.4v40.8h-17.4V57.9zm106.5 0h17.5v78.7h-17.5v-8.2c-7.2 7-14.9 10.5-23.2 10.5-10.4 0-19.1-3.9-25.9-11.8-6.8-8-10.2-18-10.2-30 0-11.8 3.4-21.6 10.2-29.5 6.8-7.9 15.2-11.8 25.4-11.8 8.8 0 16.7 3.8 23.6 11.3v-9.2zM508.9 97c0 7.5 1.9 13.7 5.8 18.4 4 4.8 9 7.2 15 7.2 6.5 0 11.7-2.3 15.7-6.9 4-4.8 6-10.9 6-18.3s-2-13.5-6-18.2c-4-4.7-9.1-7-15.5-7-6 0-11 2.4-15 7.1-4 4.7-6 10.6-6 17.7zm80.5-39.1h17.4v7.3c3.4-3.7 6.2-6.1 8.6-7.4 2.5-1.3 5.7-2 9.5-2 8.5 0 15.3 3.9 20.2 11.6 5.5-7.8 12.9-11.6 22.2-11.6 17 0 25.5 10.7 25.5 32.2v48.6h-17.5V92.9c0-7.5-.9-12.9-2.6-16-1.8-3.2-4.8-4.8-8.9-4.8-4.8 0-8.3 1.9-10.5 5.7-2.2 3.8-3.3 9.8-3.3 18.2v40.6h-17.5V93.1c0-14-3.9-21-11.6-21-4.9 0-8.5 1.9-10.7 5.7-2.2 3.8-3.4 9.8-3.4 18.1v40.6h-17.4V57.9z" fill="#FFF"/></svg>