<svg xmlns="http://www.w3.org/2000/svg" viewBox="0 0 253 164"><path fill="#A6CE38" d="M146.6 3.4c.2-.2.1-.6-.2-.7-.5-.2-1-.4-1.8-.6-.1 0-1.5-1.4-3.5-1.1-4.1.5-3.9 5.4-5.6 7.1-2.3 2.2-9.6 7.8-11.1 8.9-.1.1 0 .3.2.3 1.4.3 5.7.9 6.4 1 .8.1.8.9 0 .8-2.3-.2-5.2-.7-7.3-1.2-3.2-.8-5.4-1.8-7.6-2.5-.1 0-.2.1-.2.2 0 2.6 1.4 7 3.3 7 3 0 6.3-1.1 7.5-1.6h.1c.5 0 4.1.4 6.9.4.1 0 .2.1.2.2.1 1.4 1.6 10.9 1.6 11.4 0 .7.7.8.7 0 0-.7.5-10.1.5-11.5 0-.1.1-.2.2-.2 8.2-.5 12.4-8.8 8.2-16.2v-.2l1.5-1.5"/><path fill="#0081C6" d="M198.1 103.7c-2 0-3.6-1.6-3.6-3.6s1.6-3.6 3.6-3.6 3.6 1.6 3.6 3.6-1.6 3.6-3.6 3.6zM64.2 77.6c0-.7.3-1.3.8-1.9.5-.5 1.1-.8 1.8-.8s1.3.3 1.8.8.8 1.1.8 1.9c0 .7-.3 1.4-.8 1.9s-1.1.8-1.8.8-1.3-.3-1.8-.8-.8-1.1-.8-1.9zm183.6-18.1c-8.5 9.5-24 30.8-37.6 23.7-4.9-2.6-4.3-11.3-3.6-16.2.2-1.5-1.4-2.6-2.7-2-2.3.9-5.4 2.3-8.9 3.3-8.8 2.4-17.3 1.4-29.2-8.1C150.4 47.9 145.6 33 135 33c-12.9 0-24.6 20.1-47.5 20.1-16.1 0-19.4-7.7-37.8-7.7C6.6 45.4 1 114.2 1 121.2c0 1.3 1 2.5 2.3 2.6.8.1 2-.4 2.4-2.2 1.4-17.2 8-34.3 8.3-35.3.3-.8 1-2 1.8-1.7.8.3.5.9.4 1.8-.8 4.7-1.9 11.3-1.9 21.7 0 24.8 13.4 46.1 16.9 52.2.6 1.1 1.8 1.8 3.1 1.8H54c1.5 0 2.7-1.1 2.7-2.6.5-7.4 3.5-28.2 22.6-28.2 22.3 0 25 22.5 26.4 29.3.3 1.3 1.4 2.2 2.7 2.2H128c1.5 0 2.6-1.2 2.6-2.7 0-10.8 1.7-22.6 7.4-28.7 2.6-2.8 6-2.7 10.8-.8 9.4 3.6 28.5 10.6 46.2 8.3 23-3 38.7-16 48.1-36.9 6.7-14.8 8.2-31.9 8.8-41.1.2-2.5-2.8-2.9-4.1-1.4zM32.9 85h4v1.6c.7-.8 1.4-1.3 1.9-1.6.6-.3 1.3-.5 2-.5 1 0 2.1.4 3.3 1.1l-1.8 3.8c-.7-.6-1.5-.8-2.2-.8-2.2 0-3.2 1.7-3.2 5.1v9.2h-4V85zM46 76.4h4v10.1c1.4-1.3 3-2 4.7-2 1.9 0 3.5.7 4.6 2 1 1.1 1.5 2.9 1.5 5.4v10.9h-4V92.3c0-1.4-.2-2.5-.7-3.1-.5-.6-1.3-1-2.3-1-1.4 0-2.4.4-2.9 1.3-.7 1-.9 2.5-.9 4.7v8.6h-4V76.4zM64.8 85h4v17.8h-4V85zm8.1 0h4v1.6c1.4-1.4 2.9-2.1 4.7-2.1 2 0 3.5.7 4.7 2 1 1.1 1.4 2.9 1.4 5.4v10.9h-4v-9.9c0-1.8-.2-3-.7-3.6-.5-.7-1.3-1-2.5-1-1.3 0-2.2.5-2.8 1.4-.5.9-.8 2.4-.8 4.7v8.6h-4V85zm18 8.8c0-2.6.9-4.8 2.7-6.6 1.8-1.8 3.9-2.7 6.5-2.7s4.7.9 6.5 2.7c1.8 1.8 2.6 4 2.6 6.7s-.9 4.9-2.7 6.7c-1.8 1.8-4 2.7-6.6 2.7-2.6 0-4.7-.9-6.4-2.7-1.7-1.8-2.6-4.1-2.6-6.8zm38.1 8.6c0 .8 0 1.6-.1 2.2-.1.6-.1 1.2-.2 1.7-.3 1.3-.8 2.5-1.7 3.5-1.5 1.9-3.7 2.8-6.4 2.8-2.3 0-4.2-.6-5.6-1.9-1.5-1.3-2.4-3.1-2.6-5.5h4c.2.9.4 1.6.8 2 .8 1.1 2 1.7 3.6 1.7 2.9 0 4.3-1.8 4.3-5.5v-2.5c-1.6 1.7-3.4 2.5-5.4 2.5-2.3 0-4.2-.9-5.7-2.6-1.5-1.8-2.2-4-2.2-6.7 0-2.6.7-4.8 2.1-6.6 1.5-1.9 3.5-2.9 5.9-2.9 2.2 0 3.9.8 5.4 2.5v-2h4v17.3zm4.1-17.4h4v1.6c.7-.8 1.4-1.3 1.9-1.6.6-.3 1.3-.5 2-.5 1 0 2.1.4 3.3 1.1l-1.8 3.8c-.7-.6-1.5-.8-2.2-.8-2.2 0-3.2 1.7-3.2 5.1v9.2h-4V85zm24.9 0h4v17.8h-4V101c-1.6 1.6-3.4 2.4-5.3 2.4-2.4 0-4.3-.9-5.9-2.7-1.5-1.8-2.3-4.1-2.3-6.8s.8-4.9 2.3-6.7c1.5-1.8 3.5-2.7 5.8-2.7 2 0 3.8.9 5.4 2.6V85zm-9.4 8.9c0 1.7.4 3.1 1.3 4.2s2 1.6 3.4 1.6c1.5 0 2.6-.5 3.5-1.6.9-1.1 1.4-2.5 1.4-4.1 0-1.7-.5-3-1.4-4.1-.9-1.1-2.1-1.6-3.5-1.6s-2.5.5-3.4 1.6c-.8 1-1.3 2.4-1.3 4zm17.5-8.9h4v1.6c.8-.8 1.4-1.4 2-1.7.6-.3 1.3-.5 2.2-.5 1.9 0 3.5.9 4.6 2.6 1.2-1.8 2.9-2.6 5-2.6 3.9 0 5.8 2.4 5.8 7.3v11h-4V93c0-1.7-.2-2.9-.6-3.6-.4-.7-1.1-1.1-2-1.1-1.1 0-1.9.4-2.4 1.3s-.7 2.2-.7 4.1v9.2h-4V93c0-3.2-.9-4.8-2.6-4.8-1.1 0-1.9.4-2.4 1.3s-.8 2.2-.8 4.1v9.2h-4V85zM95 93.9c0 1.8.5 3.2 1.4 4.2.9 1 2.2 1.6 3.7 1.6s2.8-.5 3.7-1.6c.9-1 1.4-2.4 1.4-4.2 0-1.7-.5-3.1-1.4-4.1-.9-1-2.2-1.6-3.7-1.6s-2.7.5-3.7 1.6-1.4 2.4-1.4 4.1zm30.2.1c0-1.7-.4-3.1-1.3-4.1-.9-1.1-2.1-1.6-3.5-1.6-1.5 0-2.7.6-3.5 1.7-.8 1-1.2 2.4-1.2 4s.4 2.9 1.2 4c.9 1.1 2 1.7 3.5 1.7s2.7-.6 3.6-1.7c.8-1.1 1.2-2.4 1.2-4z"/></svg>