
<svg xmlns="http://www.w3.org/2000/svg" version="1.1" xmlns:xlink="http://www.w3.org/1999/xlink" preserveAspectRatio="none" x="0px" y="0px" width="760px" height="880px" viewBox="620 10 760 880">
<defs>


<g id="Symbol_69_0_Layer0_0_FILL">
<path fill="#a6ce38" stroke="none" d="
M 1034.75 316.8
Q 1003.65 313.05 980.05 316.5
L 962.05 319.3 955.25 320.75 946.55 338.95
Q 938.45 355.95 929.5 374.65
L 917.6 399.75 1108.75 423.5 1103.9 402.35
Q 1099.35 382.75 1094.8 363
L 1089.75 341.35
Q 1065.9 320.55 1034.75 316.8 Z"/>
</g>

<g id="Symbol_70_0_Layer0_0_FILL">
<path fill="#a6ce38" stroke="none" d="
M 1012.35 269.55
Q 997.1 271.3 987.9 276.75 978.7 282.25 974.4 287.2 970.05 291.85 964.65 301 959.25 310.15 954.8 320.5 950.35 330.85 948.9 338.95 948 346.8 957.15 356.25 966.25 365.75 981.25 373.2 996.2 380.65 1012.8 382.4 1029.5 383.65 1046.8 379.85 1064.15 376 1077 369.5 1089.85 363 1093.1 356.25 1093 348.8 1088.15 331 1083.35 313.25 1073.85 296.25 1064.3 279.25 1050.15 274.15 1027.6 267.85 1012.35 269.55 Z"/>
</g>

<g id="Symbol_71_0_Layer0_0_FILL">
<path fill="#a6ce38" stroke="none" d="
M 1106.5 326.35
Q 1113.75 318.9 1118.6 311
L 1115.05 308.9 1104.95 304.7
Q 1091.55 299.45 1068.2 297.6
L 1071.15 308.1
Q 1074.2 317.9 1077.85 329.4 1081.5 340.9 1083.4 346.7 1086.05 344.75 1092.65 339.3 1099.2 333.8 1106.5 326.35 Z"/>
</g>

<g id="Symbol_72_0_Layer0_0_FILL">
<path fill="#a6ce38" stroke="none" d="
M 1015.35 632
L 973.55 634.3 989 819.4 1015.35 632 Z"/>
</g>

<g id="Symbol_73_0_Layer0_0_FILL">
<path fill="#a6ce38" stroke="none" d="
M 1357.3 241.55
Q 1354.55 236.65 1346.9 233.95
L 1346.15 234.05
Q 1345.55 234.15 1345.05 233.95 1344.8 233.95 1344.5 234 1344.2 234 1343.9 234.05 1344.3 232.7 1343.7 232.2 1343.1 231.7 1341.15 231.95 1338.6 233.75 1336.7 237.05
L 1334.25 241.5
Q 1323.25 260.8 1313.5 281.05 1303.7 301.3 1294.4 321.95 1292.6 325.1 1290.85 328.25 1289.1 331.45 1287.4 334.65 1283 343.1 1279.25 352.05 1275.5 361.05 1272.05 370.2 1269.25 376 1266.35 381.75 1263.5 387.5 1260.5 393.1 1248.75 415.55 1232.25 440.95 1215.7 466.4 1196.55 489.75 1177.4 513.15 1157.8 529.5 1155.1 530.55 1152.4 531.65
L 1148.9 533.05
Q 1140.45 537.45 1132.4 544.4 1124.4 551.4 1117.45 557 1112.85 558.9 1109.3 562 1105.7 565.1 1102.8 570.8 1093.65 581.6 1091.95 594.15 1090.25 606.7 1098.9 620.85 1101 624.3 1106.4 630.85 1111.85 637.4 1118.4 642.3 1124.95 647.15 1130.45 645.5 1133.1 646.4 1135.6 646.9 1138.15 647.4 1139.2 647.6 1148.9 649.05 1166.3 645.65 1183.75 642.25 1200.65 636.1 1217.55 629.9 1225.65 623.05 1226.5 622.35 1227.8 621.15 1229.1 619.95 1229.45 619 1229.6 618.35 1229.3 617.85 1229 617.35 1228.55 617.25 1245.3 605 1258.5 594 1271.7 583 1282.8 569.4 1293.85 555.8 1304.3 535.8 1305.1 534.45 1305.9 533.05 1306.65 531.65 1307.4 530.2 1312.7 520.25 1318.05 508.8 1323.35 497.35 1328.1 485.15 1330.1 481 1332.15 476.85 1334.25 472.75 1336.4 468.6 1339.05 463.55 1341.85 452.6 1344.65 441.6 1344.95 430.1 1345.25 418.65 1340.3 412.15 1346.6 396.5 1351.4 380.1 1356.15 363.65 1360.5 347.35 1360.75 346.45 1360.95 345.65 1361.15 344.9 1361.35 344.2 1362.15 341.3 1362.95 338.4 1363.75 335.55 1364.55 332.7 1365.25 330.3 1365.7 327.85 1366.2 325.45 1366.45 323 1369.6 305.1 1368.2 288.35 1366.8 271.6 1361.8 253.8 1360.1 246.4 1357.3 241.55 Z"/>
</g>

<g id="Symbol_74_0_Layer0_0_FILL">
<path fill="#a6ce38" stroke="none" d="
M 751.55 592.25
L 718.45 576.8
Q 687.05 562.15 645.65 542.85 604.3 523.5 572.7 508.8
L 539.2 493.2
Q 537.15 510.95 537.9 538.7 538.7 566.45 541.8 594.1 544.95 621.75 550 639.2
L 586.15 638.95
Q 620.1 638.6 664.5 638.05 708.95 637.45 742.65 637
L 778.15 636.55
Q 771.55 625.4 765 614.65 758.45 603.85 751.55 592.25 Z"/>
</g>

<g id="Symbol_75_0_Layer0_0_FILL">
<path fill="#0081c6" stroke="none" d="
M 1021.6 281.25
Q 1020.55 279.8 1019.05 281 1019.05 281.35 1019.1 281.7 1019.15 282.05 1019.25 282.45 1018.95 282.4 1018.6 282.5 1018.25 282.6 1017.8 282.9 1017.65 285.65 1018.95 288.65
L 1020.75 292.6
Q 1026.95 307.05 1034.65 322.25 1042.3 337.45 1050.35 351 1050.45 351.15 1050.55 351.35 1050.65 351.55 1050.7 351.7 1051.05 352.5 1051.65 353.65 1052.2 354.75 1053.05 355.55 1054.6 359.3 1056.1 363.1 1057.65 366.9 1059.15 370.7 1059.5 371.85 1060.15 373.6 1060.8 375.4 1062.2 375.75 1073 402.15 1080.7 429.1 1088.4 456 1092.7 483.65 1093.1 490.35 1093.4 497.05
L 1093.95 510.35
Q 1093.85 510.45 1093.75 510.55
L 1093.5 510.75
Q 1093.15 513.45 1093.25 516.65
L 1093.4 520.75
Q 1093.05 525.35 1092.4 529.65 1091.7 533.9 1090.7 537.95 1090.05 540.1 1089.35 542.45 1088.65 544.75 1088 547.25 1085.45 554.8 1082.25 562.25 1079.05 569.7 1075.55 577.75 1074.65 579.8 1073.9 581.7 1073.2 583.55 1072.55 585.25 1068.55 591.15 1064.05 597.9 1059.55 604.6 1056.3 609.8
L 1053.8 613.95 1052.85 616.15
Q 1052.8 616.55 1052.7 617.25 1052.6 617.95 1053.35 618.35 1056.4 617.9 1058.95 615.15 1061.5 612.45 1062.95 610.15 1064.6 609.6 1066.25 608.2 1067.85 606.8 1069.3 604.9 1069.95 602.55 1070.85 600.2 1071.8 597.85 1072.85 595.75 1073.8 593.85 1074.7 592.3 1075.6 590.7 1076.3 589.65 1077.3 588.1 1078.15 586.65 1079 585.2 1079.75 583.8 1082.15 579 1083.95 574.25 1085.75 569.5 1088.2 564.1 1091.45 557.2 1094 549.6 1096.55 542 1098.4 534 1099.55 529.05 1100.35 524.1 1101.2 519.1 1101.75 514.15 1101.95 512.6 1102.1 511.05 1102.25 509.5 1102.35 508 1102.2 497.4 1100.9 486.8 1099.65 476.2 1097.4 465.7 1096.8 441.8 1088.15 419.15 1079.5 396.55 1067.5 375.95 1064.5 368.1 1061.15 360.4 1057.85 352.75 1054.2 345.9 1048.85 332.5 1042.95 319.5 1037.05 306.45 1030.2 294.1 1029.45 292.6 1028.6 290.75 1027.7 288.85 1026.45 288.6 1025.75 287.5 1025.05 286.4 1024.3 285.3 1023.6 284.25 1022.7 282.7 1021.6 281.25
M 1024.7 293.6
Q 1023.85 291.7 1023.05 289.9 1023.9 291.5 1024.75 293.1 1025.6 294.7 1026.4 296.3 1026.4 296.55 1026.4 296.8 1026.4 297.1 1026.45 297.35 1025.55 295.45 1024.7 293.6
M 1081 409.3
L 1080.75 408.75
Q 1080.65 408.5 1080.55 408.25 1079.65 406.2 1078.7 404.05 1077.8 401.9 1076.9 399.7 1078 402 1079 404.45 1080.05 406.85 1081 409.3 Z"/>
</g>

<g id="Symbol_76_0_Layer0_0_FILL">
<path fill="#a6ce38" stroke="none" d="
M 915.35 394.7
L 904.7 394.75 876.55 430.45
Q 851.8 461.85 815.45 507.75 779.1 553.65 740.85 601.35 755.8 614.1 787.75 631.45 819.7 648.8 862 658.5 904.3 668.2 950.2 658.1 1015.85 641.2 1050.65 609.7 1085.4 578.25 1091.05 541.55 1096.7 502.45 1093.05 471.9 1089.45 441.4 1083.65 423.65
L 1079.05 410.05 1076.9 404.9 1051.3 402.65
Q 1027.2 400.85 994.8 398.85 962.45 396.85 936.3 395.55
L 915.35 394.7 Z"/>
</g>

<g id="Symbol_105_0_Layer0_0_FILL">
<path fill="#0083CB" stroke="none" d="
M 1022.3 307.6
L 1020.35 307 1018.3 306.75 1016.25 307 1014.35 307.6 1012.55 308.65 1011.05 309.95 1009.75 311.65 1008.85 313.5 1008.25 315.5 1008.1 317.6 1008.25 319.65 1008.85 321.65 1009.75 323.55 1011.05 325.2 1012.55 326.55 1014.35 327.55 1016.25 328.2 1018.3 328.4 1020.35 328.2 1022.3 327.55 1024.05 326.55 1025.55 325.2 1026.85 323.55 1027.8 321.65 1028.35 319.65 1028.55 317.6 1028.35 315.5 1027.8 313.5 1026.85 311.65 1025.55 309.95 1024.05 308.65 1022.3 307.6 Z"/>
</g>

<g id="Symbol_78_0_Layer0_0_FILL">
<path fill="#a6ce38" stroke="none" d="
M 1032.8 313.4
L 1032.05 308.55
Q 1031.2 304.1 1028.4 299.6 1025.6 295.15 1019.9 294.9 1013.25 295.25 1010 300.8 1006.75 306.3 1006.1 313.2
L 1032.8 313.4 Z"/>
</g>

<g id="Layer0_10_FILL">
<path fill="#0083CB" stroke="none" d="
M 944.2 307.6
L 942.4 306.6 940.45 305.95 938.45 305.75 936.4 305.95 934.45 306.6 932.7 307.6 931.15 308.95 929.9 310.6 928.95 312.5 928.4 314.5 928.2 316.55 928.4 318.65 928.95 320.65 929.9 322.5 931.15 324.2 932.7 325.5 934.45 326.5 936.4 327.15 938.45 327.4 940.45 327.15 942.4 326.5 944.2 325.5 945.7 324.2 947 322.5 947.9 320.65 948.45 318.65 948.65 316.55 948.45 314.5 947.9 312.5 947 310.6 945.7 308.95 944.2 307.6 Z"/>
</g>

<g id="Symbol_106_0_Layer0_0_FILL">
<path fill="#FFFFFF" stroke="none" d="
M 1090.25 246.8
Q 1083.85 241.1 1079.25 234.2 1074.6 227.3 1072.35 221.15
L 1055.1 378.2
Q 1057.55 379.05 1062.85 379.5 1068.15 379.95 1074.8 380.15 1081.4 380.4 1087.8 380.6 1094.2 380.8 1098.75 381.1 1113.4 382.5 1126.85 381.7 1140.3 380.9 1152.4 375.4 1164.5 369.95 1175.1 357.25 1181.95 348.75 1188.6 336.95 1195.2 325.15 1201.1 313.2 1207 301.25 1211.6 292.25 1216.2 283.2 1219 280.15 1221.4 277.75 1225.45 275.85 1229.55 273.9 1234.45 273.35 1239.3 272.75 1244.1 274.3 1251.2 276.8 1258.1 280.45 1265 284.1 1269.55 287.6
L 1273 290.7 1274.25 293.05 1274 291.45 1272.95 289.35 1268.55 283.65
Q 1262.6 276.9 1253.65 268.75 1244.65 260.6 1235.8 253.65 1226.95 246.7 1221.45 243.6 1212.05 238.4 1201.2 234.45 1190.35 230.45 1179.95 228.85 1169.55 227.25 1161.5 229.25 1153.15 231.55 1146.6 235.3 1140 239.05 1134.95 243.1 1129.9 247.15 1126.05 250.35 1122.25 253.55 1119.4 254.7 1111.55 257.4 1104.1 254.95 1096.65 252.5 1090.25 246.8 Z"/>
</g>

<g id="Symbol_107_0_Layer0_0_FILL">
<path fill="#0081c6" stroke="none" d="
M 1064.5 177.45
L 1063.35 177.15
Q 1062.45 176.9 1061.65 176.65 1061.6 177.05 1061.55 177.5
L 1061.5 177.9 1061.45 178.1
Q 1061.1 181.3 1060.75 184.55 1060.35 187.8 1059.8 191 1058.95 195.8 1058.7 200.75 1058.45 205.75 1058.1 210.6 1056.95 223.35 1055.65 236.05 1054.35 248.75 1053.35 261.45 1052.2 276 1050.55 290.6 1048.9 305.2 1047.3 319.7 1046.15 330.15 1045.2 340.65 1044.25 351.15 1043.9 361.65 1043.75 363.85 1043.8 366.15 1043.8 368.4 1044.5 370.55
L 1044.85 371.35
Q 1045.15 371.95 1045.35 372.5 1045.7 373.05 1046.3 373.5 1046.9 373.95 1047.5 373.8 1048.45 373.55 1048.9 372.8 1049.3 372.05 1049.45 371.1 1049.6 370.15 1049.7 369.25 1052.3 353.3 1054.25 337.15 1056.2 321.05 1058.1 304.95 1059.35 294.85 1061.65 284.9 1063.95 274.95 1066.7 265.1
L 1066.75 264.8 1066.9 264.3
Q 1067.1 263.6 1067.25 263.05 1067.2 263.5 1067.1 264.05
L 1067.05 264.5 1067.05 264.75
Q 1066.5 269.6 1066.2 274.45 1065.85 279.35 1065.25 284.25 1064.3 291.2 1063.25 298.25 1062.2 305.35 1061.7 312.45 1061.15 319.5 1061.8 326.55 1061.95 328.85 1061.65 331.15 1061.3 333.4 1061.05 335.65 1061 336.4 1060.9 337.2 1060.85 338 1061.05 338.7
L 1061.35 339.4 1061.65 339.6
Q 1061.95 339.5 1062.15 338.75 1062.1 339.2 1062.05 339.7
L 1062 340.1 1062 340.35
Q 1061.2 346.7 1060.25 353.05 1059.3 359.35 1058.95 365.75 1058.8 368.1 1058.6 370.5 1058.4 372.9 1058.6 375.25 1058.65 375.65 1058.7 376.05 1058.75 376.45 1058.85 376.85
L 1059.1 377.7
Q 1059.3 378.35 1059.6 378.85 1060.1 378.6 1060.6 378.2
L 1061 377.9 1061.2 377.7
Q 1062.55 376.15 1063.05 373.55 1063.6 370.95 1063.7 368.2 1063.8 365.4 1063.85 363.45 1064 359.65 1064.6 355.7 1065.15 351.75 1065.7 347.95 1067.65 332.9 1069.4 317.85 1071.15 302.75 1072.15 287.6 1072.3 285.15 1072.4 282.75 1072.5 280.35 1072.7 277.9 1073.55 268.45 1074.4 259.05 1075.3 249.65 1076.15 240.25 1077.2 228.7 1078 217.1 1078.85 205.45 1079.4 193.85 1079.5 191.5 1079.6 189.2 1079.7 186.85 1079.65 184.5 1079.65 184.1 1079.65 183.7 1079.65 183.35 1079.55 182.95
L 1079.5 182.5 1079.45 182.3
Q 1079.45 182.2 1079.3 182.2
L 1078.8 181.9
Q 1077.65 181.15 1076.15 180.7 1074.6 180.2 1073.3 179.85 1072.45 179.6 1071.6 179.3 1070.8 179 1070 178.7 1068.6 178.15 1067.3 177.95 1065.95 177.75 1064.5 177.45 Z"/>
</g>

<g id="Symbol_108_0_Layer0_0_FILL">
<path fill="#FFFFFF" stroke="none" d="
M 1065.35 185.35
L 1064.3 185.3
Q 1063.5 185.25 1062.8 185.25 1062.75 185.7 1062.7 186.25
L 1062.65 186.7 1062.65 186.95
Q 1058.05 233.35 1053.5 279.8 1048.9 326.2 1044.25 372.6 1034.5 468.75 1023.7 564.75 1012.9 660.8 1001.7 756.8 1000.75 764.75 999.85 772.7 998.95 780.7 998 788.65
L 997.9 789.45
Q 997.85 789.85 997.8 790.2
L 997.7 791
Q 997.65 791.65 997.6 792.2 997.5 792.65 997.45 793.25
L 997.4 793.7 997.4 793.95
Q 997.25 794.8 997.15 795.65 997.1 796.5 997 797.4
L 996.9 798.25
Q 996.85 798.65 996.8 799.1
L 996.65 800.15
Q 996.55 800.95 996.5 801.65 996.95 801.65 997.5 801.65
L 997.9 801.7 998.15 801.7
Q 1001.5 801.7 1004.85 801.75 1008.2 801.8 1011.55 801.8
L 1011.9 801.85 1012.55 801.85
Q 1013.35 801.85 1014.05 801.85 1014.1 801.4 1014.15 800.85
L 1014.25 800.15
Q 1020.75 739.05 1027.45 677.95 1034.15 616.85 1040.55 555.75 1048.8 475.75 1056.45 395.75 1064.05 315.7 1071.2 235.65 1072.25 223.8 1073.3 212 1074.35 200.15 1075.45 188.35
L 1075.5 187.3
Q 1075.6 186.45 1075.65 185.75 1075.2 185.75 1074.65 185.7
L 1073.95 185.7
Q 1072.25 185.65 1070.5 185.55 1068.8 185.5 1067.1 185.4 1066.65 185.4 1066.2 185.4 1065.8 185.35 1065.35 185.35 Z"/>
</g>

<g id="Symbol_79_0_Layer0_0_FILL">
<path fill="#0081c6" stroke="none" d="
M 928.6 440.3
Q 927.55 439 925.9 437.65 924.2 436.3 922.4 437.7 922.7 440.7 925.3 443.35 927.9 446 929 447.05 936.3 456.3 942.95 465.35 949.55 474.45 957.85 483.25 965.95 492.15 972.3 502.15 978.6 512.2 985.95 520.9 991.3 531.95 996.7 542.85 1002.05 553.75 1008.35 563.5 1008.85 564.6 1009.6 566 1010.3 567.45 1011.75 566.65 1012.6 563.7 1010.25 559.2
L 1007.4 554
Q 1003.4 546.1 999.45 538.2 995.45 530.25 991.45 522.45
L 991.6 522.25
Q 991.1 520.3 989.75 518.15 988.35 516.05 987.45 514.85 979.45 499.65 970.15 485.55 960.9 471.4 949.4 459 947.35 456.55 945.2 453.45 943.1 450.35 940.5 448.9 940.15 448.7 939.8 448.8 939.45 448.9 939.3 449.35 939.25 451.2 940.4 453.3 941.31875 455.05 942.45 456.6 939.273828125 452.585546875 936 448.6 932.5 444.3 928.6 440.3
M 947.7 462.9
Q 945.65 460.55 943.7 458.15 944.5 459.05 945.1 459.8 945.75 460.5 946.15 460.9 947.65 462.6 949.1 464.25 950.55 465.95 951.9 467.55 949.75 465.3 947.7 462.9
M 787.3 634
Q 781.25 629.25 775.75 623.8 770.3 618.3 765.6 611.95 764.9 610.75 763.8 609.3 762.65 607.8 761.2 608.7 761.55 611.5 763.6 614.35 765.7 617.25 766.65 618.3 770.45 623.05 778.5 630.25 786.55 637.5 795.6 644.1 804.65 650.7 811.45 653.4 813.55 654.65 815.75 655.65 817.9 656.7 820.15 657.5 823.65 658.85 831.6 661.65 839.55 664.5 847.4 666.35 855.3 668.2 858.6 666.6 858.95 666.45 859.6 666.15 860.25 665.85 860.3 665.2 858.85 662.65 854.55 662
L 849.65 661.4
Q 835.05 658.6 823.05 653.65 811.05 648.7 799.6 638 795.3 633.95 790.2 629.75 785.1 625.5 780.4 621.7 779.65 620.95 778.75 620.25 777.9 619.6 777.05 620.85 777.4 624.05 779.95 626.85 782.5 629.65 783.8 630.7 784.65 631.55 785.55 632.35
L 787.3 634 Z"/>
</g>

<g id="Symbol_80_0_Layer0_0_FILL">
<path fill="#a6ce38" stroke="none" d="
M 702.8 109.95
Q 694.6 122.05 689.3 138.05 684.05 154.1 677.65 168.45 672.7 179.4 669.15 194.7 665.65 209.95 662.75 222.3 659.35 235.95 658.2 248.4 657.05 260.85 657.25 274.9 657.4 286.65 657.95 297.9 658.55 309.2 659.65 320.85 659.65 327.3 660.1 333.95 660.55 340.6 661.55 347.5 662.85 356.9 664.4 366.2 665.95 375.5 667.8 384.65 667.25 385.65 666.75 386.65 666.25 387.65 665.75 388.65 652.75 400.45 653.2 417.3 653.7 434.15 661.45 451.05 669.15 467.95 677.85 479.9 678.1 480.3 678.4 480.65 678.65 481.05 678.95 481.45 680 483.25 681.2 485.1 682.35 486.9 683.6 488.7 698.45 510.55 713.15 528.9 727.85 547.3 749.2 564.2 750.35 565.1 752.45 566.8 754.55 568.45 757.3 570.65 755.8 572.2 754.5 573.9 753.2 575.55 752.05 577.35 751.95 578.15 751.9 578.95
L 751.75 580.55
Q 751.65 582.1 751.55 583.7 751.45 585.3 751.35 586.9
L 751.35 587.15
Q 751.25 589.85 751.35 592.5 751.45 595.15 751.85 597.75 751.9 598.2 752 598.65 752.05 599.15 752.15 599.6 752.35 600.4 752.55 601.15 752.75 601.9 752.95 602.7
L 753.5 604.3
Q 753.75 605.1 754 605.9 754.2 606.6 754.45 607.3
L 754.9 608.65
Q 755.45 610.4 756 612.1 756.55 613.75 757.1 615.4 758.35 618.15 759.85 621 761.4 623.8 763.25 626.75 767.45 633.45 772.2 640.1 776.95 646.7 781.9 653.2 788.3 658.9 795.4 664.85 802.55 670.75 810.55 678.15 823.6 690.5 837.6 702.9 851.6 715.35 866.25 725.6 878.95 734.35 891.95 743 905 751.65 918.25 759.95 918.9 760.25 919.55 760.65 920.2 761.05 920.8 761.5 921.05 761.65 921.25 761.8
L 921.7 762.05
Q 922.75 762.7 923.75 763.3 924.75 763.95 925.8 764.55 927.7 765.7 929.65 766.85 931.55 768 933.5 769.15
L 936.35 770.8
Q 937.85 771.7 939.35 772.55 940.85 773.4 942.35 774.25 943.45 774.9 944.6 775.55 945.7 776.15 946.85 776.8 947.45 777.1 948.85 777.85 950.3 778.6 952.05 779.55 958.05 780.65 964 781.65 970 782.65 975.85 783.05 983.15 783.65 987.25 783.55 991.3 783.45 999.05 782 1002.75 781.35 1006.4 781.05 1010.05 780.8 1013.8 780.5 1015.3 782.6 1019.35 783.85 1023.45 785.15 1029.7 784.45 1041.6 783.05 1050.7 780.4 1059.75 777.8 1067.4 773.9 1067.5 773.95 1067.6 774.05 1067.7 774.1 1067.8 774.15 1071.9 775.8 1080.7 769 1089.5 762.2 1096.85 754.6
L 1097.2 754.35
Q 1098.05 753.75 1098.9 752.8 1099.75 751.85 1100.6 750.6 1101.6 749.55 1102.3 748.65 1103.05 747.8 1103.45 747.2 1109.25 738.95 1112.45 729.2 1115.7 719.4 1116.65 708.65 1119.1 696.1 1118.75 687.9 1118.35 679.75 1115.15 666 1111.4 647.45 1106.75 633.6 1102.1 619.75 1092.2 609.75 1082.3 599.7 1062.75 592.7 1061.25 592.15 1059.7 591.75 1058.1 591.3 1056.5 591.05 1054.45 589.65 1052.5 588.15 1050.5 586.7 1048.55 585.25 1047.45 584.7 1046.65 584.35
L 1045.65 583.75
Q 1042.75 581.65 1039.85 579.5 1037 577.35 1034.15 575.15 1026.35 569.05 1018.7 562.65 1011.05 556.3 1003.5 549.7 996.1 543.2 988.7 536.55 981.35 529.85 973.95 523.15 957.95 508.5 944.45 493.2 931 477.85 918.45 461.75 914.45 456.65 910.45 451.5 906.45 446.3 902.35 441.1
L 901.2 439.55
Q 900.6 438.8 900 438 891.8 427.55 883.2 416.35 874.55 405.2 866.1 393.4 861.9 387.55 857.85 381.55 853.75 375.55 849.9 369.45 848.05 366.55 846.3 363.6 844.5 360.65 842.8 357.7 838.8 352.6 835.1 347.1 831.4 341.65 828.15 335.6 823.85 327.75 819.35 320.4 814.85 313.05 810.6 305.45 809.35 303.05 808.1 300.65 806.85 298.25 805.65 295.85 804.9 294.35 804.25 292.85 803.55 291.3 802.9 289.75 798.75 280 794.1 270.5 789.4 261 784.5 251.65 783.2 248.85 781.95 246 780.7 243.2 779.5 240.35
L 776.1 232.5
Q 766.45 209.45 757.35 186.3 748.25 163.1 742.4 137.65 741.4 132.55 739.75 125 738.1 117.45 734.95 110.85 731.8 104.2 726.25 101.9 724.85 101 723.05 100.65 721.3 100.35 719.1 100.75
L 715.25 101.5
Q 712.3 102.15 709.9 102.95 707.5 104.25 705.45 106.65
L 702.8 109.95
M 888 425.65
L 887.15 424.7
Q 886.75 424.25 886.3 423.75 884.55 421.45 882.75 419.15 881 416.85 879.25 414.55 878.8 413.9 878.4 413.3 878 412.7 877.6 412.05 880.35 415.35 882.95 418.75 885.55 422.1 888 425.65
M 658.8 417.6
Q 658.8 417.9 658.8 418.15 658.75 418.95 658.75 419.75 658.75 420.55 658.75 421.35 658.35 417.75 658.55 414.55 658.75 411.35 659.7 408.65 659.35 410.75 659.15 412.85 658.95 414.95 658.85 417.05 658.8 417.35 658.8 417.6
M 986.1 775.85
Q 985.15 775.9 984.25 775.7 985 775.55 985.8 775.4 986.6 775.25 987.4 775.05 987.55 775.15 987.7 775.25 987.85 775.35 987.95 775.45 987.1 775.8 986.1 775.85
M 1010.3 547.7
Q 1011.35 548.6 1012.4 549.45 1011.7 548.6 1010.95 547.75 1010.25 546.95 1009.5 546.1 1009.25 546.2 1008.95 546.15 1008.65 546.1 1008.55 546.05
L 1008.2 545.95
Q 1009.25 546.85 1010.3 547.7
M 938.95 777.05
Q 939.5 777.3 940.05 777.55 939.55 777.3 939.05 777 938.6 776.7 938.15 776.45
L 937.9 776.55 938.95 777.05
M 787.95 673.35
Q 789.65 675.25 791.45 677.15 789.75 675.15 788.1 673.25 786.4 671.35 784.7 669.55 786.3 671.45 787.95 673.35 Z"/>
</g>

<g id="Symbol_109_0_Layer0_0_FILL">
<path fill="#FFFFFF" stroke="none" d="
M 882.55 535.5
Q 880.35 525.65 874.6 519.1 868.9 512.6 858.2 513.35 844.3 514.85 825.1 519.9 805.85 524.9 786.25 531.3 766.65 537.7 751.6 543.3 736.6 548.95 731 551.7 720.6 556.8 711.15 562.75 701.65 568.7 694.65 575.9 687.65 583.1 684.65 591.95 681.65 600.85 684.2 611.8 685.85 618.6 689.95 631.25 694 643.85 699.95 660.3 705.9 676.75 713.15 695.05 720.45 713.3 728.5 731.4
L 728.3 735.25
Q 727.95 738.3 729.3 742 730.65 745.7 735.8 748.5 740.95 751.3 752.05 751.55 766.15 751.55 775.8 748.5 785.45 745.4 790.8 741.7
L 795.1 738.4 797.35 736.05
Q 798.8 720.3 802.15 703.3 805.5 686.35 809.8 670.95 814.1 655.55 818.35 644.55 822.65 633.55 825.95 629.75 829.15 626.3 834.9 622.5 840.65 618.7 848.15 614.7 855.7 610.65 864.2 606.45 873 601.9 878.25 594.45 883.55 587 885.1 579.7 886.7 572.35 884.4 568.1 884.95 563.6 884.85 554.45 884.7 545.3 882.55 535.5 Z"/>
</g>

<g id="Symbol_98_0_Layer0_0_FILL">
<path fill="#0081c6" stroke="none" d="
M 1137.8 562.05
L 1136.95 559.4 1136.9 559.35 1136.85 559.2 1136.8 559.15 1135.3 557 1133.35 555.15 1129.05 552.25 1120.1 547.65 1120 547.65 1114.6 545.8 1111.85 545.2 1106.2 544.55 1095 544.55 1073 547.4 1062.15 549.75 1027.75 560.15 1017.5 564.45 1017.45 564.5 1017.4 564.5 1015.2 565.7 1006.95 571.6 999.8 578.7 998.85 579.85 998.6 579.1 998.25 578.65 997.25 578.4 996.3 578.9 996 579.35 995.95 580 996.25 583.1 993.95 586.65 993.75 587.25 993.8 587.8 994.5 588.65 995.5 588.85 996 588.6 996.4 588.1 996.7 587.6 999.1 604.2 1001.6 611.7 1009.25 653.55 1029.45 743.55 1031.3 748.75 1032.55 751.2 1032.65 751.3 1032.7 751.4 1034.25 753.45 1036.1 755.35 1040.2 758.5 1047.05 762.05 1054.35 764.4 1056.8 764.95 1056.85 764.95 1075.6 767.5 1083.75 767.95 1094.75 767.5 1097.45 766.95 1097.5 766.9 1097.6 766.9 1109.45 762.1 1118.5 757.2 1122.7 754.15 1122.85 753.95 1123.05 753.8 1124.4 751.5 1125.45 749 1133.6 721.7 1133.6 721.65 1134.25 719.1 1144.05 652.95 1144.55 621.2 1144 597.5 1142.85 586.95 1138.25 569.55 1137.8 562.05 Z"/>
</g>

<g id="Symbol_99_0_Layer0_0_FILL">
<path fill="#FFFFFF" stroke="none" d="
M 1101.4 492
Q 1089.3 478.35 1074 465.7 1058.7 453 1043.5 445.35 1028.35 437.65 1016.75 438.9 1002.5 441.1 995.35 447.25 988.15 453.4 985.75 461.55 983.35 469.7 983.55 478 983.7 486.25 984.15 492.7 984.45 498.95 987.2 514.1 989.95 529.3 994.35 550.55 998.75 571.8 1004.05 596.25 1009.35 620.65 1014.75 645.3 1019.5 666.85 1023.7 686.45 1027.95 706.05 1031.25 721.95 1034.55 737.9 1036.55 748.45
L 1039.1 750.6 1044.05 753.35
Q 1050.2 756.4 1059.35 758.85 1068.55 761.25 1079 761.2 1093.9 760.8 1102.45 758.3 1110.95 755.75 1114.6 753.05
L 1117.35 750.7 1118.35 749.2
Q 1132.1 701.05 1135.7 661.6 1139.3 622.2 1136.55 592.35 1133.8 562.55 1128.45 543.3 1123.1 524.05 1118.95 516.3 1113.5 505.65 1101.4 492 Z"/>
</g>

<g id="Symbol_19_0_Layer0_0_FILL">
<path fill="#FFFFFF" stroke="none" d="
M 656.95 766.95
L 648.9 766.15
Q 647.3 766.15 646.3 767.25 645.25 768.35 645.2 769.8 645.15 771.3 646.5 772.5
L 649.1 773.9 654.55 776.1
Q 661.45 778.7 672.95 780.7 684.4 782.7 699.15 781.9 713.85 781.15 730.65 775.45 742.3 771.1 752.6 762.8 762.95 754.5 770.9 745.45 778.9 736.4 783.5 729.9
L 788.3 722.65 787.25 721.25 784.35 718.45
Q 780.55 714.95 775.95 710.9 771.3 706.9 768.6 704.6 766.5 707.95 761.25 715.5 756 723 748.5 732 741.05 741.05 732.35 748.9 723.6 756.75 714.6 760.8 704.7 764.9 693.85 766.4 683 767.85 673.25 767.75 663.55 767.6 656.95 766.95 Z"/>
</g>

<g id="Symbol_51_0_Layer0_0_FILL">
<path fill="#FFFFFF" stroke="none" d="
M 985.85 192.35
L 988.05 188.95 988.85 186.9
Q 984.8 184.8 978.9 183.9 972.95 183.05 966.7 183.05 960.45 183.1 955.45 183.75 950.4 184.4 948.15 185.35 946.3 186.4 942.55 190.3 938.8 194.2 934.75 198.95 930.65 203.7 927.75 207.15
L 924.7 210.8 926.7 212.15
Q 928.55 213.35 930.55 214.55
L 932.15 215.45 933 215.75
Q 944.4 213.9 951.85 212.6 959.25 211.3 963.9 210 968.55 208.75 971.65 207 975 204.95 979 200.7 982.95 196.4 985.85 192.35 Z"/>
</g>

<g id="Symbol_100_0_Layer0_0_FILL">
<path fill="#FFFFFF" stroke="none" d="
M 752.8 734.5
L 753 761.45
Q 753.15 786.4 753.4 818.95 753.65 851.55 753.85 876.4
L 754.05 903
Q 760.2 908.05 773.9 910.2 787.55 912.3 804.4 911.85 821.3 911.35 837.15 908.55 853.05 905.75 863.6 901
L 868.1 880.3
Q 872.25 861 877.65 835.65 883.05 810.35 887.15 791.05
L 891.5 770.55
Q 884.05 756.65 865.1 748.1 846.2 739.55 823.25 735.6 800.35 731.65 780.85 731.6 761.4 731.5 752.8 734.5 Z"/>
</g>

<g id="Symbol_22_0_Layer0_0_FILL">
<path fill="#0083CB" stroke="none" d="
M 943.65 840.8
Q 942.6 838.75 942.2 837.35 941.45 834.6 941.05 831.85 940.7 829.05 940.15 826.35
L 939.65 824.85 939.1 824.45
Q 938.5 824.55 938.05 825.8 937.65 827 937.65 828.25 937.8 831.4 938.75 835.75 939.7 840.1 941.85 843.7 943.95 847.3 947.65 848.15 951.1 848.6 953.45 845.55 955.8 842.55 957.1 838.5 958.4 834.45 958.75 831.75 958.9 830.75 958.95 828.85 959 826.95 958.7 825.25 958.4 823.5 957.45 822.95
L 957.25 822.9
Q 957.1 822.9 957.05 822.95 956.7 823.3 956.6 823.8
L 956.45 824.5
Q 956.2 826.4 956.15 828.4 956.15 830.4 955.8 832.35 955.5 834.05 954.65 836.85 953.8 839.65 952.5 842.15 951.2 844.6 949.5 845.25 947.75 845.7 946.2 844.3 944.7 842.85 943.65 840.8 Z"/>
</g>

<g id="Symbol_101_0_Layer0_0_FILL">
<path fill="#0081c6" stroke="none" d="
M 951.25 738.5
Q 951.1 735.35 950.7 733.55 950.3 731.75 949.05 731.5 947.75 731.25 945.1 732.75 944.35 734.25 944.25 736.05 944.1 737.9 944.25 739.4 942.9 740.8 941.7 742.65 940.5 744.5 939.65 746.1
L 938.55 748.25
Q 933.45 760.6 932.3 778.25 931.1 795.95 933.15 815 935.2 834.05 939.75 850.5 944.25 867 950.55 877.05 950.9 877.6 951.5 878.55 952.1 879.5 952.9 880.55 953.1 882.2 954.05 883.2 954.95 884.2 957.25 883.55
L 957.4 883.4
Q 957.6 883.45 957.75 883.4 957.95 883.4 958.15 883.35 958.15 883.2 958.15 883.05 958.15 882.9 958.15 882.7 959.7 880.65 959.8 877.45 959.95 874.3 959.55 871.7
L 959.1 868.9
Q 957.2 836.3 955.2 803.7 953.2 771.1 951.25 738.5 Z"/>
</g>

<g id="Symbol_102_0_Layer0_0_FILL">
<path fill="#FFFFFF" stroke="none" d="
M 775.35 771.35
L 780.25 779.3
Q 784.9 786.85 791.3 797.4 797.7 808 803.25 817.3 808.75 826.65 810.65 830.5 813.45 836.4 817.35 847.3 821.3 858.15 825.1 869.8 828.95 881.4 831.55 889.5
L 834.3 898
Q 840.35 902.2 856.75 905.3 873.15 908.4 893 909.25 912.85 910.15 929.4 907.7 945.9 905.2 952.25 898.3 953.15 885.95 953 873.25 952.8 860.6 952.15 848 951.45 835.4 950.9 823.35 950.15 804.95 949.25 788.35 948.4 771.7 947.6 758.65 946.8 745.6 946.3 738
L 945.9 730.15
Q 926.5 724.75 904.1 727.45 881.65 730.1 858.55 737.65 835.45 745.2 814.05 754.4 792.65 763.65 775.35 771.35 Z"/>
</g>

<g id="Symbol_23_0_Layer0_0_FILL">
<path fill="#0083CB" stroke="none" d="
M 943.35 838.65
Q 942.15 836.05 941.4 832.95 940.6 829.9 939.6 827.1
L 939.2 826.4 938.9 826.25
Q 938.6 826.4 938.45 827.1 938.3 827.8 938.3 828.5 938.5 831.6 939.5 835.45 940.5 839.25 942.25 842.4 943.95 845.55 946.3 846.7 950.3 848.25 953.15 845.6 956 842.95 957.6 838.15 959.2 833.4 959.35 828.65 959.35 827.95 959.35 826.95 959.3 825.95 959.1 825.15 958.85 824.4 958.4 824.45 958.25 824.75 958.1 825.1
L 957.95 825.6
Q 957.35 827.6 957.1 829.8 956.8 831.95 956.3 834.1 955.15 838.55 953 841.25 950.85 843.95 948.25 843.6 945.7 843.25 943.35 838.65 Z"/>
</g>

<g id="Symbol_24_0_Layer0_0_FILL">
<path fill="#FFFFFF" stroke="none" d="
M 767.75 370.25
Q 761.25 380.3 755.45 391.15 750.05 401.45 744.55 413.1 739.05 424.75 734.6 434.95 730.15 445.1 727.9 450.95
L 771.25 455.05
Q 812.5 458.4 866.55 462.3 920.65 466.2 961.5 468.5
L 992.45 469.9 1000.55 469.95 1003.75 469.5
Q 1002.1 466.45 996 460.25 989.9 454.05 982.05 446.95 974.2 439.85 967.25 434.2 960.3 428.5 957 426.55
L 927.05 411.15
Q 901.4 398.15 869.15 381.9 836.9 365.6 812.8 353.5
L 787.45 340.75
Q 785.1 344.7 779.7 352.45 774.3 360.2 767.75 370.25 Z"/>
</g>

<g id="Symbol_103_0_Layer0_0_FILL">
<path fill="#0081c6" stroke="none" d="
M 948.5 775.95
L 947.65 774.35
Q 947 773.2 946.1 771.85 945.15 770.45 944.2 769.45 943.55 769.35 943.4 769.9 943.2 770.4 943.1 770.9 942.5 773.7 942.9 775.4 943.3 777.15 944.35 778.65 945.4 780.15 946.8 782.25
L 947.45 783.9
Q 947.9 785.15 948.55 786.7 949.2 788.2 950 789.35 950.1 789.3 950.2 789.25
L 950.4 789.1
Q 950.55 788.8 950.55 788.45 950.55 788.1 950.6 787.95 951.05 786.85 950.7 784.5 950.35 782.1 949.7 779.65 949 777.2 948.5 775.95
M 857.6 787
Q 857.85 787.25 858 787.3
L 862.75 787.8
Q 866.9 788.05 871.3 788.25
L 877.15 788.55
Q 877.6 788.6 878.7 788.75 879.75 788.85 880.85 788.8 882 788.7 882.7 788.2 882.5 788 882.25 787.8
L 881.9 787.55
Q 881.5 787.25 880.8 787 880.15 786.75 879.2 786.55 879.3 786.55 879.45 786.5 879.55 786.45 879.65 786.35 879.65 786.2 879.45 786.05 879.25 785.9 879.15 785.85 878.2 785.15 875.95 784.95 873.75 784.75 871.5 784.75 869.2 784.75 867.95 784.75
L 866.25 784.6
Q 864.9 784.5 863.75 784.3 863.5 784.3 863.3 784.4 863.05 784.5 862.95 784.65 862.5 784.65 862.05 784.6 861.6 784.6 861.25 784.55 861 784.55 860.65 784.75 860.3 784.95 860.2 785.15
L 860.25 785.25 859.45 785.2
Q 859.1 785.15 858.75 785.15 858.2 785.25 857.7 785.6 857.25 785.9 857.35 786.5 857.35 786.8 857.6 787
M 945.25 654.15
Q 938.05 671.65 932.85 689.8 927.7 707.95 924.55 728.45 923.7 733.8 923 738.9 922.3 743.95 921.85 748.85 922.25 748.7 922.65 748.6 923 748.45 923.3 748.4 923.6 748.45 923.95 748.5 924.35 748.6 924.45 748.7 926.05 750.4 927.55 754.9 929 759.35 930.3 764.4 931.55 769.45 932.4 772.9 933.05 772.8 933.95 772.85 934.8 772.9 935.85 773.1 935.85 770.65 936.75 767.85 937.65 765 939.7 763.35 941.8 761.65 945.45 762.65 946.95 763.4 948.45 764.65 949.95 765.9 951.1 767.1 952.25 768.3 952.6 768.85 953.95 770.75 955.7 773.9 957.4 777.1 958.65 780.3 959.95 783.5 959.9 785.5 961.1 785.2 962.45 784.9 963.85 784.6 965.35 784.3
L 966.55 784
Q 967.55 783.75 968.75 783.4 969.9 783.05 970.85 782.65 971.6 782.2 972.55 782 973.5 781.85 974.5 782 976.05 781 978.35 780.3 980.7 779.6 982.95 779.2 985.15 778.8 986.45 778.65 987.9 778.4 989.35 778.15 990.75 777.9 992.2 777.65 993.2 777.05 994.25 776.6 995.25 776.1 996.2 775.75 996.8 775.05 997.5 774.35 998.15 773.65 998.9 773 999.4 772.55 1000.2 771.9 1000.95 771.2 1001.9 770.9 1002.85 770.6 1003.85 771.15 1003.95 771.4 1004 771.65 1004.05 771.9 1004.1 772.15 1008.4 767.4 1012.6 762.65 1016.8 757.9 1022 754.15 1022.35 753.8 1022.75 753.5 1023.15 753.2 1023.5 753.7 1023.6 754.75 1023 755.85 1022.45 756.9 1021.8 757.7
L 1020.9 758.85
Q 1019.4 760.95 1017.9 762.85 1016.35 764.8 1014.75 766.6 1019.1 762.15 1023.05 757.5 1027 752.9 1031.25 748
L 1032.25 746.95
Q 1033 746.25 1034.05 745.45 1035.05 744.7 1036.05 744.3 1036.95 746.15 1035.5 748.95 1034.05 751.75 1032.15 754.05
L 1029.8 756.85
Q 1030.924609375 755.5935546875 1032.2 754.45
L 1032.6 754.15
Q 1032.95 753.95 1033.35 753.85 1033.95 755.45 1032.55 757.55 1031.2 759.7 1029.5 761.35
L 1027.45 763.35
Q 1027.3 763.5 1027.15 763.65 1027 763.8 1026.85 763.95 1026.35 764.5 1025.8 765.05 1025.2 765.55 1024.65 766.1 1023.65 767 1022.55 767.9 1021.5 768.8 1020.35 769.7 1018.95 770.8 1017.5 771.9 1016.05 772.95 1014.55 774 1013.65 774.6 1012.8 775.2 1011.9 775.8 1011.05 776.4 1010 777.1 1009 777.8 1008 778.45 1006.95 779.15 1005.7 780.1 1004.4 781 1003.1 781.95 1001.75 782.85 1001.2 783.2 1000.65 783.6 1000.1 783.95 999.5 784.3 1000.1 784.35 1000.7 784.45 1001.3 784.5 1001.9 784.65 1006.6 782.9 1010.9 780.95 1015.15 779.05 1018.5 777.25 1034.55 768.7 1047.3 757.35 1060.05 746 1069.45 732.45 1078.8 718.95 1084.65 703.7 1087.05 698.65 1089.05 693.2 1091 687.8 1092.5 682.15 1093.6 679.6 1094.25 676.65 1094.85 673.75 1095.15 670.7 1097.15 660 1097.85 648.95 1098.55 637.9 1098.05 626.85 1098.35 608.25 1094.65 589.55 1091 570.8 1082.55 552.15 1081.75 550.4 1080.95 548.65
L 1079.35 545.1
Q 1079.05 546.95 1079.75 549.2 1080.5 551.4 1080.8 553.5 1081.15 555.6 1079.6 557 1076.8 559.2 1075.45 557.5 1074.1 555.85 1073.45 552.75 1072.8 549.7 1072.15 547.6 1068.9 548.2 1066.75 544.4 1064.6 540.55 1063.3 535.4 1061.95 530.2 1061.15 526.7
L 1060.65 524.8
Q 1060.3 523.35 1059.85 521.55 1059.4 519.7 1059 518.25 1058.4 517.6 1057.45 517.85
L 1056.65 518.05 1056.2 518.1
Q 1054.05 516.8 1053.95 514.05 1053.85 511.3 1055.15 507.65 1034.95 521.35 1017.3 539.85 999.65 558.35 985.55 578.65 971.45 599 961.85 618.25 952.5 636.7 945.25 654.15
M 1089.15 689.8
Q 1089.4 688.9 1089.6 688.05 1089.8 687.15 1090.05 686.3
L 1090.2 686.05
Q 1090.3 685.95 1090.4 685.85 1090.1 686.85 1089.8 687.85 1089.5 688.8 1089.15 689.8
M 699.55 531.7
Q 699.25 531.2 698.95 530.8 698.8 530.6 698.6 530.5 698.4 530.4 698.15 530.4 697.85 530 697.5 529.65 697.2 529.3 696.9 529 695.65 528.5 695.95 529.2 696.25 529.95 697.15 531.25 697.15 531.45 697.15 531.75 697.2 532.05 697.25 532.45
L 696.5 530.8
Q 696 529.85 695.3 528.75 694.6 527.6 693.75 526.8 692.9 526.35 692.75 526.7 692.65 527.05 692.9 527.85 693.15 528.65 693.45 529.5 697.5 542 702.45 554.5 707.35 567 711.2 579.65 715.05 592.35 715.9 605.35 715.7 609.55 715.35 614 714.95 618.45 714.3 622.6 713.6 626.7 712.6 629.95 712.35 632.1 711.95 634.25 711.6 636.4 711 638.6 710.8 639.85 710.55 641.1 710.3 642.3 710 643.5 709.95 643.75 709.9 644 709.85 644.3 709.85 644.55
L 709.75 645.25
Q 709.7 645.6 709.65 645.9 709.1 649.5 708.6 652.95 708.05 656.4 707.3 660 706.95 661.9 706.5 663.75 706.05 665.6 705.55 667.4 704.3 670.7 703.2 674.1 702.15 677.5 701.25 679.45 699.25 683.6 697.8 689.55 696.3 695.45 695.9 702.05 696.15 703.55 696.5 705.05 696.8 706.55 697.2 708.05
L 697.25 708.2
Q 697.25 708.3 697.3 708.4 697.3 708.5 697.35 708.65 697.7 709.95 698.2 711.3 698.65 712.65 699.2 714.05 699.45 714.6 699.7 715.15 699.95 715.7 700.2 716.3 700.5 716.85 700.75 717.4 701.05 717.95 701.35 718.55 701.6 719 701.85 719.45 702.1 719.85 702.35 720.3
L 702.65 720.75
Q 702.8 721 702.9 721.25 703.55 722.25 705.1 724.45 706.7 726.65 708 728.8
L 709.05 730.65 709.4 731.85
Q 709.4 732 709.3 732.3 709.2 732.6 708.85 732.75
L 708.4 732.7
Q 708.5 732.85 708.65 733 708.75 733.15 708.9 733.3 709.75 733.8 711.4 734.85 713.05 735.9 715 737.25 716.65 735.7 717.7 733.95 718.8 732.15 719.3 731.4 727.45 722.25 732.15 716.1 736.9 710 739.2 703.9 741.55 697.85 742.45 688.7 746.45 671.3 746.65 652.9 746.85 634.45 742.85 616 738.8 597.55 730.05 580.1 728.2 576.5 726.2 573.25 724.15 569.95 722.05 566.95 721.15 563.5 719.9 560.45 718.65 557.4 716.85 555.1 715.65 553.65 714.6 551.85 713.5 550 712.5 548.15
L 711.65 546.55
Q 711 545.3 710.15 543.75 709.3 542.2 708.5 541 708 540.6 707.45 540.6 706.9 540.55 706.5 541 706.4 541.1 706.35 541.3 706.3 541.45 706.35 541.7 705.3 540.1 704.25 538.55 703.2 536.95 702.15 535.45
L 701.45 534.45
Q 700.85 533.7 700.05 532.7 699.8 532.2 699.55 531.7
M 719.3 570.3
L 719.2 569.95 719.3 570.1 719.3 570.3
M 1056.6 503.4
Q 1056.65 503.6 1056.75 503.8 1056.85 503.65 1056.9 503.45 1057 503.3 1057.1 503.1 1056.95 503.05 1056.75 503 1056.6 503 1056.45 503.05 1056.5 503.25 1056.6 503.4
M 1103.3 488.7
Q 1103.05 489.15 1102.8 489.6 1103.35 489.3 1103.75 488.9 1104.2 488.5 1104.4 488 1104.25 487.95 1104.1 487.9 1103.95 487.85 1103.8 487.8 1103.55 488.25 1103.3 488.7
M 710.5 598.25
Q 710.6 598.55 710.7 598.85 710.7 598.4 710.7 597.9 710.7 597.45 710.7 596.95 710.55 597.1 710.45 597.25 710.35 597.4 710.35 597.65 710.4 597.95 710.5 598.25 Z"/>
</g>

<g id="Symbol_104_0_Layer0_0_FILL">
<path fill="#FFFFFF" stroke="none" d="
M 753.55 440.15
L 743.3 443.15
Q 733.65 446.25 721.45 453.2 709.25 460.15 701.15 471.75 693.05 483.35 695.65 500.35 697.55 510.8 700.15 523.1 702.8 535.4 707.55 552.4 712.3 569.4 720.55 593.85 722.1 598.75 721.8 607.05 721.45 615.4 720 625.5 718.5 635.6 716.65 645.85 714.75 656.1 713.15 664.9 711.75 672.2 708.9 679.7 706.1 687.2 703.8 695.3 701.45 703.4 701.4 712.4 701.4 721.4 705.55 731.7 712.7 746.05 745.25 758.1 777.8 770.15 820.5 778.45 863.25 786.75 901.05 789.85 938.85 792.95 956.55 789.4 975.15 785.55 992.8 780.25 1010.45 774.95 1026.6 765.15 1042.7 755.35 1056.6 737.95 1068.45 722.75 1076.5 702.4 1084.55 682.05 1088.55 659.25 1092.55 636.5 1092.15 613.95 1091.8 591.35 1086.8 571.7 1080.65 548.6 1073.15 532.75 1065.65 516.85 1058.5 507.15 1051.4 497.45 1046.4 492.8
L 1040.35 487.5 994.5 479.25
Q 951.75 472.1 896 463.1 840.25 454.05 798 447.3
L 753.55 440.15 Z"/>
</g>

<g id="Symbol_95_0_Layer0_0_FILL">
<path fill="#0081c6" stroke="none" d="
M 1162.4 196.4
Q 1160.05 195.8 1157.25 196.45 1157 196.5 1156.4 196.65 1155.75 196.75 1155.4 197.2 1154.05 198.2 1152.5 199.65 1150.95 201.15 1149.75 202.4
L 1148.3 204.1
Q 1142.75 212.75 1137.85 220.9 1132.95 229.1 1127.8 237 1126.15 238.8 1124.8 240.85 1123.4 242.9 1122.2 245.1 1119.5 248.8 1116.5 252.45 1113.5 256.15 1110.1 259.85 1105.6 264.9 1100.95 270.75 1096.25 276.6 1091.05 281.75
L 1090.35 282.2
Q 1090 282.4 1089.65 282.6
L 1089.4 282.7
Q 1085.2 284.95 1081.4 287.25 1077.65 289.55 1073.5 290.75 1069.35 291.95 1064 290.95 1060.45 290.15 1057.3 287.55 1054.2 284.95 1051.6 281.2 1049 277.45 1047.05 273.2 1047.05 272.45 1047.05 271.9 1047 271.3 1047 271.1 1046.65 267.95 1045.9 265 1045.15 262.05 1044.35 259.15 1044.05 256.2 1043.8 253.55 1043.55 250.85 1043.2 248.7 1042.9 246.95 1042.65 245.3 1042.4 243.7 1041.75 242.1 1041.2 240.4 1040.25 239 1039.25 237.55 1037.7 236.6 1037.45 236.35 1037.25 236.15 1037.05 236 1036.9 235.9 1033 233.75 1027.2 236 1021.4 238.2 1015.25 242.2 1009.15 246.2 1004.25 249.35 1003.2 249.85 1002.35 250.3
L 1001.2 250.95
Q 1000.95 251.05 1000.75 251.15 1000.55 251.25 1000.35 251.35 992.6 252 985.9 249.45 979.25 246.95 972.8 241.9 966.35 236.9 959.25 230.2 957 228.1 954.55 226.05 952.1 224 949.45 222.1 949.3 222.2 949.15 222.3 949 222.4 948.85 222.5 948.45 222.75 948.15 223.1 947.85 223.4 947.6 223.85 947.55 223.95 947.5 224.1 947.45 224.25 947.4 224.4
L 946.7 224.15 946.45 224.25
Q 946.4 224.6 946.7 225.25 947 225.85 947.2 226.25
L 947.25 226.45
Q 946.15 230.8 944.5 232.1 942.8 233.4 940.55 232.75 938.25 232.05 935.4 230.45
L 935.05 231.75
Q 934.7 232.9 934.15 233.7 931.25 237.15 929.25 236.55 927.2 235.95 925.05 234.45 922.95 232.95 919.75 233.7 916.2 234.8 914 235.1 911.85 235.35 909.6 234.95 907.35 234.55 903.5 233.65 897.75 232.4 894 232.35 890.2 232.3 886.5 232.7 882.85 233.15 877.45 233.35 872.05 233.5 868.3 234.7 864.55 235.85 861.35 238.3 858.1 240.75 854.4 244.8 847.55 251.9 839.95 259.35 832.35 266.8 825.6 274.95 818.85 283.1 814.5 292.25 813.95 293.4 812.85 295.9 811.8 298.4 810.35 301.75 808.9 305.05 807.2 308.8 806.9 309.55 806.55 310.3 806.2 311 805.9 311.75 805.45 312.65 805.05 313.5 804.65 314.4 804.25 315.25 803.65 316.5 803.05 317.7 802.45 318.95 801.9 320.1 802.05 321.7 802.35 323.1 802.6 324.5 803 325.6 804.8 330.25 810.1 336.05 815.4 341.9 821.4 347.5 827.4 353.15 831.3 357.1 838.8 365.35 844 371.15 849.15 377 855.55 381.15 861.9 385.35 873.1 388.6 885.35 392.2 897.1 394.95 908.9 397.7 920.85 399.35 932.75 401 945.45 401.2 951.9 401.2 958.55 401.5 965.15 401.7 971.65 402.9 978.1 404.05 984.15 406.85 990.15 409.6 995.4 411.25 1000.65 412.9 1005.8 415.1 1011 417.35 1016.7 421.65 1018.7 423.2 1022.2 425.6 1025.65 428.05 1030 430.8 1034.3 433.6 1038.85 436.15 1033.6 441.15 1028.65 446.8 1023.7 452.5 1020.55 458.1 1017.4 463.7 1017.55 468.35 1017.6 468.95 1017.7 469.55 1017.8 470.15 1018 470.7 1018.35 471.5 1018.75 472.25 1019.15 473 1019.6 473.7 1019.8 474 1020.05 474.3 1020.3 474.55 1020.55 474.8
L 1020.25 474.75
Q 1020.55 475.25 1020.95 475.75 1021.3 476.25 1021.7 476.7 1028.55 477.6 1034.95 477.3 1041.3 477.05 1047.7 476 1054.1 475 1060.95 473.6 1067.25 472.9 1073.65 471.75 1080.1 470.55 1086.55 468.8 1087.5 468.6 1088.45 468.3 1089.45 468.05 1090.45 467.75 1107.7 462.8 1123.6 453.45 1139.5 444.15 1152 429.65 1164.5 415.15 1171.65 394.7 1172.8 391.4 1174.3 386.9 1175.85 382.35 1177.2 377.35 1178.6 372.35 1179.3 367.6 1181.35 357.8 1182.7 348 1184 338.2 1184.8 328.85 1185.45 321.75 1186.2 315.75 1187 309.75 1187.35 303.6 1187.75 297.5 1187.2 290.05 1186.65 281.75 1186.45 274.2 1186.2 266.65 1185.85 259.3 1185.5 251.95 1184.4 244.3 1184.05 240.25 1183.45 236.25 1182.8 232.3 1181.8 228.45 1180.65 224 1178.75 218.1 1176.85 212.25 1173.85 206.9 1170.9 201.5 1166.6 198.65 1164.75 197 1162.4 196.4
M 1021.75 240.95
L 1021.85 240.9 1021.85 240.95 1021.75 240.95
M 984.75 252.05
L 984.35 251.9 984.2 251.8
Q 984.3091796875 251.8697265625 984.4 251.9 984.6 251.95 984.75 252.05 Z"/>
</g>

<g id="Symbol_40_0_Layer0_0_FILL">
<path fill="#FFFFFF" stroke="none" d="
M 1122.8 255.7
Q 1110 273.4 1094.75 285.3 1079.5 297.2 1063.95 294.65 1055.65 292.65 1050.65 285.8 1045.7 279 1043.2 270.45 1040.75 261.95 1039.95 254.7 1039.2 247.5 1039.2 244.7 1039.1 241.9 1037.25 240.05 1035.45 238.2 1032.75 237.9 1030 237.6 1027.25 239.6 1022.9 242.9 1016.85 247 1010.75 251.05 1003.75 253.85 996.8 256.6 989.75 256.05 986.3 255.55 980.9 251.8 975.45 248.05 969 242.55 962.55 237.1 956.1 231.5 949.65 225.85 944.15 221.65 939.8 218.15 928.8 215.2 917.8 212.2 901.4 212.95 884.95 213.7 864.2 221.35 849.8 227.1 840.35 234.2 830.9 241.3 825.95 247.15
L 822 251.95 820.15 254.8
Q 816.25 262.3 810.05 279.1 803.9 295.9 797.55 314.65 791.2 333.4 786.9 346.75
L 782.4 360.7 784.7 367.7
Q 786.85 374.25 792.8 384.7 798.7 395.1 810.25 407.25 821.75 419.4 840.75 431.1 864.35 445.05 887.95 453.8 911.55 462.55 931.45 467.05 951.35 471.55 963.95 472.8 1002.1 476.9 1032.15 474.8 1062.15 472.75 1084.1 465.75 1106.05 458.75 1119.95 448.05 1138.6 433.8 1151.75 413.1 1164.95 392.4 1172.05 367 1179.15 341.65 1179.65 313.25 1180.05 279.35 1178 256.95 1175.95 234.6 1173.45 222.6
L 1170.05 207.8
Q 1168.55 202.4 1165.05 200.7 1161.55 199 1158.1 200.15 1154.65 201.3 1153.2 204.55
L 1143.75 223.05
Q 1135.55 238 1122.8 255.7 Z"/>
</g>

<g id="Symbol_26_0_Layer0_0_FILL">
<path fill="#FFFFFF" stroke="none" d="
M 889.05 162.7
Q 882.2 166.25 875.95 171.05 869.7 175.8 865.25 180.35 860.8 184.9 859.45 187.7 858.55 190.25 858.1 197.25 857.65 204.25 857.5 212.35 857.35 220.4 857.35 226.25
L 857.35 232.35 860.15 232.1
Q 862.8 231.85 866.3 231.45 869.8 231.05 872.55 230.65
L 874.75 230.25 875.7 229.95
Q 884.4 218.9 889.6 211 894.75 203.05 897.2 197.95 899.6 192.85 900.1 190.3 900.55 188.15 901.15 183.4 901.8 178.65 902.25 173.2 902.7 167.75 902.75 163.55
L 902.55 160.15 902 158.35
Q 895.85 159.15 889.05 162.7 Z"/>
</g>

<g id="Symbol_110_0_Layer0_0_FILL">
<path fill="#0083CB" stroke="none" d="
M 887.8 323.3
Q 885.7 321.95 883.15 321.75 880.6 321.6 878.25 322.65 875.95 323.7 874.05 325.75 872.15 327.8 870.95 330.6 869.7 333.35 869.35 336.65 869.05 339.95 869.7 342.85 870.35 345.8 871.8 348.05 873.25 350.35 875.35 351.7 877.45 353.1 880 353.3 882.55 353.45 884.85 352.4 887.2 351.3 889.1 349.25 891 347.2 892.2 344.45 893.45 341.65 893.8 338.35 894.1 335.05 893.45 332.15 892.8 329.25 891.35 326.95 889.85 324.7 887.8 323.3 Z"/>
</g>

<g id="Symbol_28_0_Layer0_0_FILL">
<path fill="#FFFFFF" stroke="none" d="
M 986.25 295.45
Q 983.9 288.7 978.35 283.8 972.85 278.85 963.05 277.05 953.1 275.55 946.15 278.6 939.15 281.7 934.5 287.45 929.85 293.25 927 299.8 924.15 306.3 922.45 311.7 931.35 312.7 942.55 314.6 953.75 316.45 965.55 318.7 977.3 320.9 987.9 323.05 988.85 316.6 988.7 309.4 988.55 302.15 986.25 295.45 Z"/>
</g>
</defs>



<g transform="matrix( -0.063873291015625, -0.0538787841796875, -0.048095703125, 0.2476806640625, 1296.7,774.45) ">
<g transform="matrix( 1, 0, 0, 1, 0,0) ">
<use xlink:href="#Symbol_69_0_Layer0_0_FILL"/>
</g>
</g>

<g transform="matrix( -0.0633544921875, -0.047119140625, -0.0284881591796875, 0.1476287841796875, 1290.25,798.45) ">
<g transform="matrix( 1, 0, 0, 1, 0,0) ">
<use xlink:href="#Symbol_70_0_Layer0_0_FILL"/>
</g>
</g>

<g transform="matrix( -0.063385009765625, -0.032012939453125, -0.024139404296875, 0.149383544921875, 1289.1,780.5) ">
<g transform="matrix( 1, 0, 0, 1, 0,0) ">
<use xlink:href="#Symbol_71_0_Layer0_0_FILL"/>
</g>
</g>

<g transform="matrix( -0.1230010986328125, 0.0346527099609375, -0.0074920654296875, 0.1476898193359375, 1340.95,727.05) ">
<g transform="matrix( 1, 0, 0, 1, 0,0) ">
<use xlink:href="#Symbol_72_0_Layer0_0_FILL"/>
</g>
</g>

<g transform="matrix( -0.06365966796875, -0.060943603515625, -0.0304718017578125, 0.178009033203125, 1298.85,786.35) ">
<g transform="matrix( 1, 0, 0, 1, 0,0) ">
<use xlink:href="#Symbol_73_0_Layer0_0_FILL"/>
</g>
</g>

<g transform="matrix( -0.0673828125, 0.0671234130859375, 0.0224609375, 0.1443634033203125, 1257.35,716.7) ">
<g transform="matrix( 1, 0, 0, 1, 0,0) ">
<use xlink:href="#Symbol_74_0_Layer0_0_FILL"/>
</g>
</g>

<g transform="matrix( -0.0691070556640625, -0.0128326416015625, -0.0151519775390625, 0.1597137451171875, 1286.3,767.6) ">
<g transform="matrix( 1, 0, 0, 1, 0,0) ">
<use xlink:href="#Symbol_75_0_Layer0_0_FILL"/>
</g>
</g>

<g transform="matrix( -0.0691070556640625, -0.0128326416015625, -0.0151519775390625, 0.1597137451171875, 1286.3,767.6) ">
<g transform="matrix( 1, 0, 0, 1, 0,0) ">
<use xlink:href="#Symbol_76_0_Layer0_0_FILL"/>
</g>
</g>

<g transform="matrix( -0.0614471435546875, -0.041656494140625, -0.0280609130859375, 0.1476593017578125, 1287.65,791.1) ">
<g transform="matrix( 1, 0, 0, 1, 0,0) ">
<use xlink:href="#Symbol_105_0_Layer0_0_FILL"/>
</g>
</g>

<g transform="matrix( -0.0614471435546875, -0.041656494140625, -0.0280609130859375, 0.1476593017578125, 1287.65,791.1) ">
<g transform="matrix( 1, 0, 0, 1, 0,0) ">
<use xlink:href="#Symbol_78_0_Layer0_0_FILL"/>
</g>
</g>

<g transform="matrix( -0.0487060546875, -0.087432861328125, -0.0477447509765625, 0.1245574951171875, 1284,846.95) ">
<use xlink:href="#Layer0_10_FILL"/>
</g>

<g transform="matrix( 0.768035888671875, 0.816558837890625, 0.2324676513671875, -1.072784423828125, 260.4,-201.9) ">
<g transform="matrix( 1, 0, 0, 1, 0,0) ">
<use xlink:href="#Symbol_106_0_Layer0_0_FILL"/>
</g>
</g>

<g transform="matrix( 1.049468994140625, 0.0149383544921875, -0.0149383544921875, 1.049468994140625, 35.55,28.55) ">
<g transform="matrix( 1, 0, 0, 1, 0,0) ">
<use xlink:href="#Symbol_107_0_Layer0_0_FILL"/>
</g>
</g>

<g transform="matrix( 1.049468994140625, 0.0149383544921875, -0.0149383544921875, 1.049468994140625, 35.55,28.55) ">
<g transform="matrix( 1, 0, 0, 1, 0,0) ">
<use xlink:href="#Symbol_108_0_Layer0_0_FILL"/>
</g>
</g>

<g transform="matrix( -0.062225341796875, 0.0751190185546875, 0.0227203369140625, 0.1174163818359375, 1269.15,676.75) ">
<g transform="matrix( 1, 0, 0, 1, 0,0) ">
<use xlink:href="#Symbol_79_0_Layer0_0_FILL"/>
</g>
</g>

<g transform="matrix( -0.062225341796875, 0.0751190185546875, 0.0227203369140625, 0.1174163818359375, 1269.15,676.75) ">
<g transform="matrix( 1, 0, 0, 1, 0,0) ">
<use xlink:href="#Symbol_80_0_Layer0_0_FILL"/>
</g>
</g>

<g transform="matrix( 0.660247802734375, -0.158782958984375, 0.1195831298828125, 0.7019195556640625, 173.75,301.45) ">
<g transform="matrix( 1, 0, 0, 1, 0,0) ">
<use xlink:href="#Symbol_109_0_Layer0_0_FILL"/>
</g>
</g>

<g transform="matrix( -0.166656494140625, 0.653472900390625, 0.6397705078125, 0.1807861328125, 792.25,-145.25) ">
<g transform="matrix( 1, 0, 0, 1, 0,0) ">
<use xlink:href="#Symbol_98_0_Layer0_0_FILL"/>
</g>
</g>

<g transform="matrix( -0.166656494140625, 0.653472900390625, 0.6397705078125, 0.1807861328125, 792.25,-145.25) ">
<g transform="matrix( 1, 0, 0, 1, 0,0) ">
<use xlink:href="#Symbol_99_0_Layer0_0_FILL"/>
</g>
</g>

<g transform="matrix( -0.668212890625, -0.0058441162109375, -0.0008544921875, 0.670806884765625, 1470.9,253.15) ">
<g transform="matrix( 1, 0, 0, 1, 0,0) ">
<use xlink:href="#Symbol_19_0_Layer0_0_FILL"/>
</g>
</g>

<g transform="matrix( 0.5613555908203125, 0.290130615234375, -0.2953643798828125, 0.626190185546875, 487.1,41.5) ">
<g transform="matrix( 1, 0, 0, 1, 0,0) ">
<use xlink:href="#Symbol_51_0_Layer0_0_FILL"/>
</g>
</g>

<g transform="matrix( 0.76708984375, 0.0775909423828125, 0.0662994384765625, 0.8242340087890625, 130.6,73.7) ">
<g transform="matrix( 1, 0, 0, 1, 0,0) ">
<use xlink:href="#Symbol_100_0_Layer0_0_FILL"/>
</g>
</g>

<g transform="matrix( 0.745025634765625, 0.194000244140625, 0.0701446533203125, 0.7761077880859375, 23.65,19) ">
<g transform="matrix( 1, 0, 0, 1, 0,0) ">
<use xlink:href="#Symbol_22_0_Layer0_0_FILL"/>
</g>
</g>

<g transform="matrix( 0.68768310546875, -0.01580810546875, 0.1895294189453125, 0.8282318115234375, 185.4,149.7) ">
<g transform="matrix( 1, 0, 0, 1, 0,0) ">
<use xlink:href="#Symbol_101_0_Layer0_0_FILL"/>
</g>
</g>

<g transform="matrix( 0.68768310546875, -0.01580810546875, 0.1895294189453125, 0.8282318115234375, 185.4,149.7) ">
<g transform="matrix( 1, 0, 0, 1, 0,0) ">
<use xlink:href="#Symbol_102_0_Layer0_0_FILL"/>
</g>
</g>

<g transform="matrix( 0.7339630126953125, 0.0241546630859375, 0.14251708984375, 0.758819580078125, 173.35,187.65) ">
<g transform="matrix( 1, 0, 0, 1, 0,0) ">
<use xlink:href="#Symbol_23_0_Layer0_0_FILL"/>
</g>
</g>

<g transform="matrix( 0.672882080078125, 0.130218505859375, -0.047210693359375, 0.6377716064453125, 304.85,185.45) ">
<g transform="matrix( 1, 0, 0, 1, 0,0) ">
<use xlink:href="#Symbol_24_0_Layer0_0_FILL"/>
</g>
</g>

<g transform="matrix( -0.62200927734375, -0.128387451171875, -0.0888824462890625, 0.7242431640625, 1474.85,332.8) ">
<g transform="matrix( 1, 0, 0, 1, 0,0) ">
<use xlink:href="#Symbol_103_0_Layer0_0_FILL"/>
</g>
</g>

<g transform="matrix( -0.62200927734375, -0.128387451171875, -0.0888824462890625, 0.7242431640625, 1474.85,332.8) ">
<g transform="matrix( 1, 0, 0, 1, 0,0) ">
<use xlink:href="#Symbol_104_0_Layer0_0_FILL"/>
</g>
</g>

<g transform="matrix( 0.672821044921875, 0.196533203125, -0.2217254638671875, 0.6427154541015625, 370.3,122.45) ">
<g transform="matrix( 1, 0, 0, 1, 0,0) ">
<use xlink:href="#Symbol_95_0_Layer0_0_FILL"/>
</g>
</g>

<g transform="matrix( 0.672821044921875, 0.196533203125, -0.2217254638671875, 0.6427154541015625, 370.3,122.45) ">
<g transform="matrix( 1, 0, 0, 1, 0,0) ">
<use xlink:href="#Symbol_40_0_Layer0_0_FILL"/>
</g>
</g>

<g transform="matrix( 0.4091644287109375, 0.5252685546875, -0.427947998046875, 0.51446533203125, 658.65,-135.05) ">
<g transform="matrix( 1, 0, 0, 1, 0,0) ">
<use xlink:href="#Symbol_26_0_Layer0_0_FILL"/>
</g>
</g>

<g transform="matrix( -0.4584503173828125, -0.1474151611328125, -0.1666107177734375, 0.6272430419921875, 1432.05,447.65) ">
<g transform="matrix( 1, 0, 0, 1, 0,0) ">
<use xlink:href="#Symbol_110_0_Layer0_0_FILL"/>
</g>
</g>

<g transform="matrix( 0.6399078369140625, 0.1873779296875, -0.2133636474609375, 0.617767333984375, 377.5,132.2) ">
<g transform="matrix( 1, 0, 0, 1, 0,0) ">
<use xlink:href="#Symbol_28_0_Layer0_0_FILL"/>
</g>
</g>
</svg>
