
<svg xmlns="http://www.w3.org/2000/svg" version="1.1" xmlns:xlink="http://www.w3.org/1999/xlink" preserveAspectRatio="none" x="0px" y="0px" width="760px" height="880px" viewBox="620 10 760 880">
<defs>


<g id="Symbol_81_0_Layer0_0_FILL">
<path fill="#a6ce38" stroke="none" d="
M 1026 343.75
Q 1003 339.2 981.85 338 960.65 336.75 947 337.1
L 932.85 337.55 926.05 351.8
Q 919.65 365.2 912.45 380.3 905.25 395.35 902.4 401.45
L 1083.25 425.1 1080.9 414.7
Q 1078.7 404.8 1075.8 391.7 1072.85 378.65 1070.6 368.6
L 1068.15 357.75
Q 1049 348.25 1026 343.75 Z"/>
</g>

<g id="Symbol_82_0_Layer0_0_FILL">
<path fill="#a6ce38" stroke="none" d="
M 1001.3 267.15
Q 985.7 268.95 976.15 274.55 966.6 280.1 962.25 285.1 957.65 290.25 949.25 304.95 940.85 319.65 934.05 333.65
L 928.95 344.9 927.3 350.7
Q 928.8 356.4 938.95 362.55 949.05 368.7 963.35 373.65 977.6 378.55 991.55 380.55 1008.1 382.65 1024.7 381.35 1041.25 380.05 1053.4 375.85 1065.55 371.6 1068.75 365
L 1067.35 336.85
Q 1065.85 316.35 1059.65 296.65 1053.45 276.95 1039.5 271.65 1016.95 265.35 1001.3 267.15 Z"/>
</g>

<g id="Symbol_71_0_Layer0_0_FILL">
<path fill="#a6ce38" stroke="none" d="
M 1106.5 326.35
Q 1113.75 318.9 1118.6 311
L 1115.05 308.9 1104.95 304.7
Q 1091.55 299.45 1068.2 297.6
L 1071.15 308.1
Q 1074.2 317.9 1077.85 329.4 1081.5 340.9 1083.4 346.7 1086.05 344.75 1092.65 339.3 1099.2 333.8 1106.5 326.35 Z"/>
</g>

<g id="Symbol_72_0_Layer0_0_FILL">
<path fill="#a6ce38" stroke="none" d="
M 1015.35 632
L 973.55 634.3 989 819.4 1015.35 632 Z"/>
</g>

<g id="Symbol_74_0_Layer0_0_FILL">
<path fill="#a6ce38" stroke="none" d="
M 751.55 592.25
L 718.45 576.8
Q 687.05 562.15 645.65 542.85 604.3 523.5 572.7 508.8
L 539.2 493.2
Q 537.15 510.95 537.9 538.7 538.7 566.45 541.8 594.1 544.95 621.75 550 639.2
L 586.15 638.95
Q 620.1 638.6 664.5 638.05 708.95 637.45 742.65 637
L 778.15 636.55
Q 771.55 625.4 765 614.65 758.45 603.85 751.55 592.25 Z"/>
</g>

<g id="Symbol_85_0_Layer0_0_FILL">
<path fill="#a6ce38" stroke="none" d="
M 925.95 432.95
L 901.5 436.05 892.05 438.1
Q 890.05 447.45 887.05 467.8 884.05 488.2 879.4 514.8 874.75 541.4 867.8 569.4 861.8 594.3 852.3 620.3 842.8 646.3 826.1 671.9 809.4 697.5 781.8 721.2
L 794.4 723.05 817.75 720.6
Q 846.5 716.05 887.8 703.55 929.1 691.05 974.1 671.2 1027.05 647.2 1057.7 622.85 1088.35 598.55 1102 574.15 1115.65 549.75 1117.6 525.6 1119.75 500.15 1117.15 475.2 1114.55 450.2 1111.05 433.25
L 1106.85 415.15 1073.35 418.05
Q 1041.55 421 999.7 425.15 957.85 429.3 925.95 432.95 Z"/>
</g>

<g id="Symbol_77_0_Layer0_0_FILL">
<path fill="#0083CB" stroke="none" d="
M 1022.3 307.6
L 1020.35 307 1018.3 306.75 1016.25 307 1014.35 307.6 1012.55 308.65 1011.05 309.95 1009.75 311.65 1008.85 313.5 1008.25 315.5 1008.1 317.6 1008.25 319.65 1008.85 321.65 1009.75 323.55 1011.05 325.2 1012.55 326.55 1014.35 327.55 1016.25 328.2 1018.3 328.4 1020.35 328.2 1022.3 327.55 1024.05 326.55 1025.55 325.2 1026.85 323.55 1027.8 321.65 1028.35 319.65 1028.55 317.6 1028.35 315.5 1027.8 313.5 1026.85 311.65 1025.55 309.95 1024.05 308.65 1022.3 307.6 Z"/>
</g>

<g id="Symbol_78_0_Layer0_0_FILL">
<path fill="#a6ce38" stroke="none" d="
M 1032.8 313.4
L 1032.05 308.55
Q 1031.2 304.1 1028.4 299.6 1025.6 295.15 1019.9 294.9 1013.25 295.25 1010 300.8 1006.75 306.3 1006.1 313.2
L 1032.8 313.4 Z"/>
</g>

<g id="Layer0_8_FILL">
<path fill="#FFFFFF" stroke="none" d="
M 1078.25 238.25
Q 1074.95 226.35 1072.35 221.15
L 1046 362.55
Q 1048.3 363.65 1051 369.85 1053.65 376.05 1056.4 384.7 1059.15 393.35 1061.7 401.75 1064.25 410.15 1066.3 415.65 1072.25 431.55 1081.9 449.9 1091.6 468.3 1108.2 489.35 1124.75 510.4 1151.35 534.3 1154.95 537.55 1162.3 542.95 1169.65 548.35 1179.35 554.5 1189.1 560.65 1199.8 566.1 1210.5 571.6 1220.8 574.95 1230.5 577.9 1242.4 579.45 1254.3 580.95 1265.4 581.5 1276.5 582.05 1283.8 582.05
L 1291.55 582 1290.5 580.3 1284.35 576.15
Q 1275.65 570.7 1261.55 561.75 1247.4 552.85 1232.55 541.8 1217.75 530.8 1206.95 519.15 1194.8 505.75 1183.25 492.1 1171.7 478.45 1162.65 466.25 1153.55 454 1148.75 444.85 1137.75 423.35 1127.25 399.95 1116.75 376.5 1108.55 354.45 1100.35 332.4 1096.2 315.05 1094.25 306.6 1091.3 293.05 1088.35 279.55 1084.95 264.85 1081.55 250.15 1078.25 238.25 Z"/>
</g>

<g id="Layer0_9_FILL">
<path fill="#0081c6" stroke="none" d="
M 1092 178.5
Q 1091.25 178.75 1090.55 179.05 1089.8 179.35 1089.05 179.6
L 1088.35 179.85
Q 1088 179.95 1087.6 180.05
L 1086.9 180.2
Q 1086.35 180.35 1085.85 180.5 1086.05 180.95 1086.3 181.5
L 1086.55 182.15
Q 1087.95 185.35 1089.35 188.55 1090.75 191.75 1091.9 195 1093.05 198 1094.55 200.85 1096.1 203.7 1097.5 206.6 1102.8 218.05 1107.4 229.85 1112 241.6 1116.35 253.5 1120.75 265.55 1124.25 277.95 1127.7 290.4 1130.6 303 1133.45 315.6 1136 328.15 1137.1 333.85 1138.2 339.55 1139.3 345.3 1140.65 350.95 1140.95 352.4 1141.45 353.8 1141.9 355.2 1142.65 356.45
L 1143.15 357.15
Q 1143.6 357.75 1143.9 358.25 1144.35 358.7 1145.05 359 1145.7 359.3 1146.25 359.05 1147.15 358.6 1147.4 357.75 1147.65 356.9 1147.6 355.9 1147.5 354.95 1147.4 354.05 1146.2 337.9 1143.5 321.95 1140.8 305.95 1136.95 290.25 1134.7 280.7 1133.1 271 1131.55 261.25 1130.1 251.55
L 1130 250.75
Q 1129.9 250.1 1129.8 249.55 1129.95 249.95 1130.1 250.45
L 1130.2 250.85 1130.3 251.1
Q 1131.85 255.85 1133.55 260.55 1135.2 265.25 1136.5 270.15 1138.1 276.5 1139.6 283.05 1141.05 289.6 1142.85 296 1144.6 302.45 1147.15 308.5 1148.15 310.85 1148.55 312.9 1148.95 314.9 1149.4 317.35 1149.55 318.1 1149.65 318.9 1149.8 319.75 1150.15 320.4
L 1150.7 321.5 1151.15 321.95 1151.4 321.7 1151.5 320.8
Q 1151.6 321.25 1151.7 321.75
L 1151.8 322.45
Q 1152.9 328.9 1153.65 335.4 1154.4 341.95 1155.6 348.4 1156 350.7 1156.35 353.1 1156.7 355.45 1157.3 357.75 1157.45 358.15 1157.6 358.55 1157.7 358.95 1157.85 359.35
L 1158.35 360.3
Q 1158.75 361.05 1159.2 361.6 1159.65 361.25 1160.05 360.8
L 1160.5 360.1
Q 1161.4 358.4 1161.4 355.65 1161.35 352.9 1160.85 350.15 1160.4 347.35 1159.9 345.55 1159.2 342.55 1158.85 339.3 1158.5 336.05 1158.1 332.95 1156 316.95 1152.6 301.15 1149.25 285.3 1144.05 270 1142.95 266.75 1141.8 263.5 1140.65 260.3 1139.5 257 1135.2 244.1 1130.3 231.5 1125.4 218.9 1119.75 206.5 1116.6 199.6 1113.2 192.7 1109.8 185.85 1106 179.25 1105.85 178.95 1105.45 178.3 1105.1 177.6 1104.65 177 1104.25 176.4 1104 176.25
L 1103.8 176.25 1103.3 176.3
Q 1102.65 176.35 1102 176.45
L 1101.45 176.55 1101.1 176.55
Q 1099.55 176.7 1098.15 177.15 1096.7 177.55 1095.15 177.85 1094.3 178 1093.55 178.1 1092.85 178.2 1092 178.5 Z"/>
</g>

<g id="Layer0_10_FILL">
<path fill="#FFFFFF" stroke="none" d="
M 1091.65 188.35
L 1091.95 189.05
Q 1104.65 216.05 1115 243.85 1125.3 271.6 1132.35 300.7 1143.8 348.5 1145.75 396.7 1147.65 444.85 1139.65 493.4 1130.85 545.05 1113.15 594.05 1095.5 643.05 1071.85 689.65 1048.2 736.25 1021.35 780.8 1017.4 787.4 1013.45 794.05 1009.5 800.65 1005.55 807.25 1005.3 807.65 1005.05 808.05 1004.8 808.45 1004.55 808.85
L 1004.1 809.65
Q 1003.7 810.3 1003.35 810.85 1003.1 811.25 1002.8 811.75
L 1002.55 812.2 1002.4 812.4
Q 1001.95 813.2 1001.45 814 1000.95 814.8 1000.5 815.55
L 999.7 816.9
Q 999.05 817.95 998.55 818.8 999 819.05 999.55 819.3
L 1000.2 819.6
Q 1002.7 820.8 1005.2 822 1007.7 823.2 1010.25 824.35 1010.65 824.5 1011.05 824.7
L 1012.9 825.6
Q 1013.75 826 1014.4 826.3 1014.65 825.85 1015 825.35
L 1015.25 824.95 1015.35 824.7
Q 1029.75 800.4 1043.9 775.95 1058.05 751.5 1071.4 726.55 1084.7 701.65 1096.6 676.05 1109.15 649 1120 621.25 1130.85 593.5 1139.25 564.95 1147.6 536.4 1152.8 506.95 1160.05 465.45 1160.75 423.9 1161.45 382.3 1154.7 340.65 1148.35 302 1136.5 265.2 1124.7 228.45 1108.1 192.95 1107.3 191.3 1106.55 189.65
L 1104.95 186.4
Q 1104.75 185.95 1104.55 185.55 1104.35 185.1 1104.15 184.65
L 1103.5 183.3
Q 1102.95 182.2 1102.55 181.25 1102.1 181.5 1101.55 181.75
L 1101.15 182 1100.9 182.1
Q 1099.3 183 1097.65 183.85 1096.05 184.7 1094.4 185.6
L 1093.1 186.3
Q 1092.05 186.85 1091.2 187.3 1091.4 187.8 1091.65 188.35 Z"/>
</g>

<g id="Symbol_21_0_Layer0_0_FILL">
<path fill="#FFFFFF" stroke="none" d="
M 1093.3 494.05
Q 1082.65 480.05 1069.2 466.9 1055.75 453.75 1042 445.7 1028.3 437.65 1016.75 438.9 1002.5 441.1 995.35 447.25 988.15 453.4 985.75 461.55 983.35 469.7 983.55 478 983.7 486.25 984.15 492.7
L 986.3 509.1 991.4 536.4
Q 998 569.15 1007.1 610.8 1016.2 652.4 1024.4 690.05 1032.6 727.7 1036.55 748.45
L 1039.1 750.6 1044.05 753.35
Q 1050.2 756.4 1059.35 758.85 1068.55 761.25 1079 761.2 1093.9 760.8 1102.45 758.3 1111.05 755.75 1114.65 753.05
L 1117.4 750.7 1118.35 749.2
Q 1128.35 700.1 1129.95 660.85 1131.55 621.65 1127.95 592.6 1124.4 563.55 1118.95 545 1113.45 526.45 1109.35 518.75 1103.95 508.05 1093.3 494.05 Z"/>
</g>

<g id="Symbol_19_0_Layer0_0_FILL">
<path fill="#FFFFFF" stroke="none" d="
M 656.95 766.95
L 648.9 766.15
Q 647.3 766.15 646.3 767.25 645.25 768.35 645.2 769.8 645.15 771.3 646.5 772.5
L 649.1 773.9 654.55 776.1
Q 661.45 778.7 672.95 780.7 684.4 782.7 699.15 781.9 713.85 781.15 730.65 775.45 742.3 771.1 752.6 762.8 762.95 754.5 770.9 745.45 778.9 736.4 783.5 729.9
L 788.3 722.65 787.25 721.25 784.35 718.45
Q 780.55 714.95 775.95 710.9 771.3 706.9 768.6 704.6 766.5 707.95 761.25 715.5 756 723 748.5 732 741.05 741.05 732.35 748.9 723.6 756.75 714.6 760.8 704.7 764.9 693.85 766.4 683 767.85 673.25 767.75 663.55 767.6 656.95 766.95 Z"/>
</g>

<g id="Symbol_51_0_Layer0_0_FILL">
<path fill="#FFFFFF" stroke="none" d="
M 985.85 192.35
L 988.05 188.95 988.85 186.9
Q 984.8 184.8 978.9 183.9 972.95 183.05 966.7 183.05 960.45 183.1 955.45 183.75 950.4 184.4 948.15 185.35 946.3 186.4 942.55 190.3 938.8 194.2 934.75 198.95 930.65 203.7 927.75 207.15
L 924.7 210.8 926.7 212.15
Q 928.55 213.35 930.55 214.55
L 932.15 215.45 933 215.75
Q 944.4 213.9 951.85 212.6 959.25 211.3 963.9 210 968.55 208.75 971.65 207 975 204.95 979 200.7 982.95 196.4 985.85 192.35 Z"/>
</g>

<g id="Symbol_89_0_Layer0_0_FILL">
<path fill="#FFFFFF" stroke="none" d="
M 737.95 751.45
Q 743.75 761.75 751.2 776.1 758.6 790.45 763.9 803.1 769.15 815.75 768.45 821 767.35 826.15 765.65 838.3 763.95 850.45 762.2 864.1 760.45 877.8 759.25 887.6
L 758 897.9
Q 761.95 905.15 778.6 908.65 795.25 912.1 816.4 911.9 837.6 911.65 855.1 907.75 872.65 903.9 878.35 896.45
L 881.65 888.8
Q 884.75 881.55 889.05 871.15 893.35 860.7 897.05 850.85 900.8 840.95 902.2 835.4
L 903.35 821
Q 903.85 809.65 904.25 796 904.65 782.35 904.85 772.3
L 905.15 761.65
Q 895.15 751.7 873.45 744.75 851.8 737.85 825.1 734.65 798.4 731.5 773.45 732.8 748.45 734.1 731.85 740.65
L 737.95 751.45 Z"/>
</g>

<g id="Symbol_22_0_Layer0_0_FILL">
<path fill="#0083CB" stroke="none" d="
M 943.65 840.8
Q 942.6 838.75 942.2 837.35 941.45 834.6 941.05 831.85 940.7 829.05 940.15 826.35
L 939.65 824.85 939.1 824.45
Q 938.5 824.55 938.05 825.8 937.65 827 937.65 828.25 937.8 831.4 938.75 835.75 939.7 840.1 941.85 843.7 943.95 847.3 947.65 848.15 951.1 848.6 953.45 845.55 955.8 842.55 957.1 838.5 958.4 834.45 958.75 831.75 958.9 830.75 958.95 828.85 959 826.95 958.7 825.25 958.4 823.5 957.45 822.95
L 957.25 822.9
Q 957.1 822.9 957.05 822.95 956.7 823.3 956.6 823.8
L 956.45 824.5
Q 956.2 826.4 956.15 828.4 956.15 830.4 955.8 832.35 955.5 834.05 954.65 836.85 953.8 839.65 952.5 842.15 951.2 844.6 949.5 845.25 947.75 845.7 946.2 844.3 944.7 842.85 943.65 840.8 Z"/>
</g>

<g id="Symbol_90_0_Layer0_0_FILL">
<path fill="#FFFFFF" stroke="none" d="
M 801.9 770.7
Q 782.4 782.6 765.2 790.45
L 778.2 797.85
Q 790.55 804.9 806.85 814.75 823.15 824.65 835.7 833.45
L 845.35 840.95 848 843.75 849.2 845.95
Q 849.7 851.5 848.5 859.8 847.3 868.1 845.45 876.4 843.6 884.7 842.15 890.3
L 840.6 896.2
Q 846.65 900.35 862.1 903.75 877.55 907.1 896.15 908.35 914.8 909.6 930.4 907.4 945.95 905.2 952.25 898.3 961.1 884.4 969.1 870 977.1 855.55 982.3 842.3 987.5 829.1 987.85 818.75
L 987.1 815.35 985.15 811 977.85 799.25
Q 968.25 785.5 955.6 769.95 942.9 754.35 933.3 743.2
L 923.2 731.4
Q 903.95 726.1 883.35 731.45 862.75 736.75 842.1 747.8 821.45 758.85 801.9 770.7 Z"/>
</g>

<g id="Symbol_23_0_Layer0_0_FILL">
<path fill="#0083CB" stroke="none" d="
M 943.35 838.65
Q 942.15 836.05 941.4 832.95 940.6 829.9 939.6 827.1
L 939.2 826.4 938.9 826.25
Q 938.6 826.4 938.45 827.1 938.3 827.8 938.3 828.5 938.5 831.6 939.5 835.45 940.5 839.25 942.25 842.4 943.95 845.55 946.3 846.7 950.3 848.25 953.15 845.6 956 842.95 957.6 838.15 959.2 833.4 959.35 828.65 959.35 827.95 959.35 826.95 959.3 825.95 959.1 825.15 958.85 824.4 958.4 824.45 958.25 824.75 958.1 825.1
L 957.95 825.6
Q 957.35 827.6 957.1 829.8 956.8 831.95 956.3 834.1 955.15 838.55 953 841.25 950.85 843.95 948.25 843.6 945.7 843.25 943.35 838.65 Z"/>
</g>

<g id="Symbol_45_0_Layer0_0_FILL">
<path fill="#0081c6" stroke="none" d="
M 945.25 654.15
Q 938.05 671.65 932.85 689.8 927.7 707.95 924.55 728.45 922.65 740.05 921.65 750.6 920.65 761.15 921.7 771.85 922.75 782.55 926.95 794.65
L 927.6 796.35
Q 928.05 797.6 928.6 799.15 929.2 800.7 929.7 802.1 928.65 802.55 927.65 803 926.65 803.45 925.65 803.9
L 923.8 804.7
Q 922.35 805.35 921.3 806 923 806.2 925.15 805.75 927.35 805.25 929.15 804.65
L 931.6 803.85
Q 959.2 796.3 983.75 787.9 1008.3 779.45 1028.7 767.25 1049.1 755 1064.25 735.95 1079.35 716.95 1088.1 688.1 1094.75 666.05 1097.1 643.45 1099.45 620.8 1096.15 597.9 1092.85 575 1082.55 552.15 1077.6 541.1 1072.35 530.15 1067.1 519.15 1060.95 508.8 1069.7 503.3 1079.1 498.8 1088.5 494.35 1098.65 491.15 1099.15 491 1100.35 490.65 1101.55 490.25 1102.75 489.65 1103.95 489 1104.4 488 1103.1 487.45 1101.8 487.65 1100.5 487.85 1099.2 487.9 1097.6 488.15 1095.7 488.6 1093.8 489.05 1092.25 489.45
L 1090.25 490
Q 1082.15 492.75 1074.3 496.6 1066.4 500.45 1058.8 505.3
L 1058.8 505.25 1058.3 504.4
Q 1057.9 503.7 1057.3 503.3 1057.1 503.1 1056.9 503.05 1056.65 503 1056.45 503.05 1056.7 503.7 1057 504.4 1057.35 505.15 1057.7 505.95 1036.95 519.55 1018.8 538.3 1000.65 557.05 986.15 577.8 971.65 598.6 961.85 618.25 952.5 636.7 945.25 654.15
M 756.7 628.45
L 756.55 627.25
Q 756.45 626.35 755.95 625.65 755.85 625.5 755.85 625.35 755.85 625.2 755.8 625.05 755.55 625.8 755.9 627.65 756.25 629.45 756.65 631.1
L 757.15 632.9
Q 757.5 634.65 757.8 636.45 758.1 638.2 758.35 639.95 758.2 639.85 758.1 639.8 757.95 639.7 757.85 639.6 757.1 639.25 756.2 639.3 755.25 639.4 755.2 640.35 755.55 641.15 756.05 642 756.6 642.85 757.25 643.75 757.25 645.25 757.45 646.65
L 757.7 648.5
Q 758.2 652.7 758.8 656.4 759.45 660.1 759.65 664.25 759.7 665.1 759.75 667.4 759.75 669.7 759.9 672.1 760.05 674.5 760.35 675.75 760.4 677 760.45 678
L 760.5 679.3
Q 761.1 688.1 760.3 696.45 759.55 704.85 758.4 713.1 757.95 715.6 757.6 718.15 757.3 720.75 757.3 723.65 756.65 730.9 757.05 738.3 757.4 745.75 759.5 753.55 759.8 754.65 760.65 756.8 761.55 759 762.8 761.7 765.45 769.1 770.1 775.65 774.75 782.25 781.2 787.35 781.55 787.65 782.35 788.25 783.15 788.85 784.15 789.35 785.15 789.85 786.1 789.85 785.65 788.8 784.65 787.7 783.65 786.55 782.75 785.65
L 781.45 784.45
Q 780.5 783.5 779.65 782.5 778.75 781.55 777.95 780.65 779.15 779.65 780.5 778.15 781.8 776.6 782.85 775.3 783.9 773.95 784.3 773.4 790.35 764.65 794.05 758.7 797.7 752.8 799.35 747.3 801 741.8 800.95 734.45 800.95 727.1 799.7 715.5 798.5 702.9 795.7 692.8 792.9 682.7 787.55 673.55 782.15 664.45 773.25 654.7 769.9 651.05 766.5 647.45 763.05 643.85 759.5 640.55
L 759.4 640.5
Q 758.65 637.3 757.95 634.25 757.25 631.15 756.7 628.45 Z"/>
</g>

<g id="Symbol_91_0_Layer0_0_FILL">
<path fill="#FFFFFF" stroke="none" d="
M 747.9 407.05
L 743.25 409.6
Q 738.85 412.1 732.8 417.05 726.75 422 721.7 429.2 716.65 436.45 715.2 445.85 714.1 454.2 713.3 470.3 712.5 486.4 711.75 507 711.05 527.6 710.25 549.4 709.45 571.25 708.4 591 708.15 596.4 709 607.9 709.8 619.4 711.55 634 713.25 648.6 715.65 663.2 718.05 677.75 720.95 689.2 722.55 695.25 726.95 706.4 731.4 717.55 737.8 730.75 744.2 743.95 751.75 756.15 759.25 768.35 767 776.5 780.65 789.7 805.2 795 829.7 800.25 858.4 800.05 887.15 799.85 913.35 796.55 939.55 793.3 956.55 789.4 975.35 785.35 995.15 777.45 1014.9 769.5 1032.6 756.85 1050.25 744.2 1062.75 725.85 1076.85 704.4 1084.5 678.55 1092.1 652.7 1092.8 625.3 1093.5 597.85 1086.8 571.7 1080.45 548.35 1069.45 527.15 1058.4 505.95 1046.7 489.2 1034.95 472.5 1026.45 462.55
L 1016.7 451.65 1004.4 449.15 973.65 443.8
Q 933.6 437.1 881.35 428.6 829.1 420.1 789.55 413.75
L 747.9 407.05 Z"/>
</g>

<g id="Symbol_39_0_Layer0_0_FILL">
<path fill="#0081c6" stroke="none" d="
M 1162.4 196.4
Q 1160.05 195.8 1157.25 196.45 1157 196.5 1156.4 196.65 1155.75 196.75 1155.4 197.2 1154.05 198.2 1152.5 199.65 1150.95 201.15 1149.75 202.4
L 1148.3 204.1
Q 1142.75 212.75 1137.85 220.9 1132.95 229.1 1127.8 237 1126.15 238.8 1124.8 240.85 1123.4 242.9 1122.2 245.1 1119.5 248.8 1116.5 252.45 1113.5 256.15 1110.1 259.85 1105.6 264.9 1100.95 270.75 1096.25 276.6 1091.05 281.75
L 1090.35 282.2
Q 1090 282.4 1089.65 282.6
L 1089.4 282.7
Q 1085.2 284.95 1081.4 287.25 1077.65 289.55 1073.5 290.75 1069.35 291.95 1064 290.95 1060.45 290.15 1057.3 287.55 1054.2 284.95 1051.6 281.2 1049 277.45 1047.05 273.2 1047.05 272.45 1047.05 271.9 1047 271.3 1047 271.1 1046.65 267.95 1045.9 265 1045.15 262.05 1044.35 259.15 1044.05 256.2 1043.8 253.55 1043.55 250.85 1043.2 248.7 1042.9 246.95 1042.65 245.3 1042.4 243.7 1041.75 242.1 1041.2 240.4 1040.25 239 1039.25 237.55 1037.7 236.6 1037.45 236.35 1037.25 236.15 1037.05 236 1036.9 235.9 1033 233.75 1027.2 236 1021.4 238.2 1015.25 242.2 1009.15 246.2 1004.25 249.35 1003.2 249.85 1002.35 250.3
L 1001.2 250.95
Q 1000.95 251.05 1000.75 251.15 1000.55 251.25 1000.35 251.35 992.6 252 985.9 249.45 979.25 246.95 972.8 241.9 966.35 236.9 959.25 230.2 952.55 223.9 944.4 218.7 936.25 213.55 927.3 210.8 918.35 208.05 909.3 209.05 907.95 209.15 906.1 209.1 904.2 209.05 902.5 209.3 896.95 209.35 891.65 209.95 886.3 210.55 881.4 211.7 876.3 212.95 870.7 215.1 865.05 217.3 859.55 219.85 854.05 222.4 849.35 224.75 844.45 227.2 838.45 231.7 832.4 236.15 826.85 241.6 821.3 247.05 817.8 252.45 816.95 253.35 816.3 254.15 815.65 254.95 815.35 255.35 813.05 258.5 810.9 264.05 808.75 269.65 806.95 276.7 804.6 282.25 803.4 287.45 802.2 292.65 802.7 298.5 801.6 307.05 801.6 314.15 801.6 321.3 803 325.6 804.8 330.25 810.1 336.05 815.4 341.9 821.4 347.5 827.4 353.15 831.3 357.1 838.8 365.35 844 371.15 849.15 377 855.55 381.15 861.9 385.35 873.1 388.6 885.35 392.2 897.1 394.95 908.9 397.7 920.85 399.35 932.75 401 945.45 401.2 951.9 401.2 958.55 401.5 965.15 401.7 971.65 402.9 978.1 404.05 984.15 406.85 990.15 409.6 995.4 411.25 1000.65 412.9 1005.8 415.1 1011 417.35 1016.7 421.65 1018.7 423.2 1022.2 425.6 1025.65 428.05 1030 430.8 1034.3 433.6 1038.85 436.15 1033.6 441.15 1028.65 446.8 1023.7 452.5 1020.55 458.1 1017.4 463.7 1017.55 468.35 1017.6 468.95 1017.7 469.55 1017.8 470.15 1018 470.7 1018.35 471.5 1018.75 472.25 1019.15 473 1019.6 473.7 1019.8 474 1020.05 474.3 1020.3 474.55 1020.55 474.8
L 1020.25 474.75
Q 1020.55 475.25 1020.95 475.75 1021.3 476.25 1021.7 476.7 1028.55 477.6 1034.95 477.3 1041.3 477.05 1047.7 476 1054.1 475 1060.95 473.6 1067.25 472.9 1073.65 471.75 1080.1 470.55 1086.55 468.8 1087.5 468.6 1088.45 468.3 1089.45 468.05 1090.45 467.75 1107.7 462.8 1123.6 453.45 1139.5 444.15 1152 429.65 1164.5 415.15 1171.65 394.7 1172.8 391.4 1174.3 386.9 1175.85 382.35 1177.2 377.35 1178.6 372.35 1179.3 367.6 1181.35 357.8 1182.7 348 1184 338.2 1184.8 328.85 1185.45 321.75 1186.2 315.75 1187 309.75 1187.35 303.6 1187.75 297.5 1187.2 290.05 1186.65 281.75 1186.45 274.2 1186.2 266.65 1185.85 259.3 1185.5 251.95 1184.4 244.3 1184.05 240.25 1183.45 236.25 1182.8 232.3 1181.8 228.45 1180.65 224 1178.75 218.1 1176.85 212.25 1173.85 206.9 1170.9 201.5 1166.6 198.65 1164.75 197 1162.4 196.4
M 1021.75 240.95
L 1021.85 240.9 1021.85 240.95 1021.75 240.95
M 984.75 252.05
L 984.35 251.9 984.2 251.8
Q 984.3091796875 251.8697265625 984.4 251.9 984.6 251.95 984.75 252.05 Z"/>
</g>

<g id="Symbol_40_0_Layer0_0_FILL">
<path fill="#FFFFFF" stroke="none" d="
M 1122.8 255.7
Q 1110 273.4 1094.75 285.3 1079.5 297.2 1063.95 294.65 1055.65 292.65 1050.65 285.8 1045.7 279 1043.2 270.45 1040.75 261.95 1039.95 254.7 1039.2 247.5 1039.2 244.7 1039.1 241.9 1037.25 240.05 1035.45 238.2 1032.75 237.9 1030 237.6 1027.25 239.6 1022.9 242.9 1016.85 247 1010.75 251.05 1003.75 253.85 996.8 256.6 989.75 256.05 986.3 255.55 980.9 251.8 975.45 248.05 969 242.55 962.55 237.1 956.1 231.5 949.65 225.85 944.15 221.65 939.8 218.15 928.8 215.2 917.8 212.2 901.4 212.95 884.95 213.7 864.2 221.35 849.8 227.1 840.35 234.2 830.9 241.3 825.95 247.15
L 822 251.95 820.15 254.8
Q 816.25 262.3 810.05 279.1 803.9 295.9 797.55 314.65 791.2 333.4 786.9 346.75
L 782.4 360.7 784.7 367.7
Q 786.85 374.25 792.8 384.7 798.7 395.1 810.25 407.25 821.75 419.4 840.75 431.1 864.35 445.05 887.95 453.8 911.55 462.55 931.45 467.05 951.35 471.55 963.95 472.8 1002.1 476.9 1032.15 474.8 1062.15 472.75 1084.1 465.75 1106.05 458.75 1119.95 448.05 1138.6 433.8 1151.75 413.1 1164.95 392.4 1172.05 367 1179.15 341.65 1179.65 313.25 1180.05 279.35 1178 256.95 1175.95 234.6 1173.45 222.6
L 1170.05 207.8
Q 1168.55 202.4 1165.05 200.7 1161.55 199 1158.1 200.15 1154.65 201.3 1153.2 204.55
L 1143.75 223.05
Q 1135.55 238 1122.8 255.7 Z"/>
</g>

<g id="Symbol_26_0_Layer0_0_FILL">
<path fill="#FFFFFF" stroke="none" d="
M 889.05 162.7
Q 882.2 166.25 875.95 171.05 869.7 175.8 865.25 180.35 860.8 184.9 859.45 187.7 858.55 190.25 858.1 197.25 857.65 204.25 857.5 212.35 857.35 220.4 857.35 226.25
L 857.35 232.35 860.15 232.1
Q 862.8 231.85 866.3 231.45 869.8 231.05 872.55 230.65
L 874.75 230.25 875.7 229.95
Q 884.4 218.9 889.6 211 894.75 203.05 897.2 197.95 899.6 192.85 900.1 190.3 900.55 188.15 901.15 183.4 901.8 178.65 902.25 173.2 902.7 167.75 902.75 163.55
L 902.55 160.15 902 158.35
Q 895.85 159.15 889.05 162.7 Z"/>
</g>

<g id="Layer0_23_FILL">
<path fill="#0081c6" stroke="none" d="
M 972.45 300.35
Q 972.3 300.45 972.15 300.6 970.45 301.5 969.1 302.85 967.8 304.15 967.4 304.75 964.3 309.9 964.45 317.95 964.6 326.05 966.6 335.4 968.6 344.75 970.95 353.85 971.75 359.4 972.25 364.8 972.75 370.25 972.3 375.85 971.85 378.3 971.45 380.75 971.05 383.2 970.7 385.65 969.65 390.9 969.1 396.85 968.5 402.8 969.45 408.55 970.4 414.3 973.9 418.85 974.45 419.95 975.1 420.9 975.75 421.85 976.5 422.65 976.7 422.95 976.95 423.2 977.15 423.4 977.35 423.5 977.35 423.55 977.5 423.6 977.6 423.7 977.75 423.75 979.9 425.45 982.85 425.6 985.85 425.75 989.7 423.8 989.95 423.7 990.2 423.6 990.45 423.45 990.65 423.3 990.85 423.2 991.1 423.05 991.3 422.95 991.55 422.8 992.45 422.25 993.2 421.6 994 420.95 994.65 420.2
L 994.95 419.85
Q 995.15 419.55 995.4 419.3 996 418.55 996.6 417.55
L 997.35 416.35
Q 998.05 415.1 999.2 412.25 1000.4 409.4 1001.3 406.25 1002.25 403.1 1002.15 401.05 1004.7 391.75 1005.9 381.1 1007.15 370.45 1007.3 360.25 1007.5 350.05 1006.9 342.15 1006.55 336.95 1004.8 330.45 1003 324 999.65 317.7 996.35 311.4 991.25 306.7 988.5 302.65 984.3 300.65 980.1 298.6 974.1 299.85
L 973.7 299.95
Q 973.5 300 973.25 300.05 973 300.1 972.75 300.15 972.6 300.25 972.45 300.35
M 974.3 368.25
L 974.25 368.25 974.2 367.8 974.3 368.25 Z"/>
</g>

<g id="Symbol_28_0_Layer0_0_FILL">
<path fill="#FFFFFF" stroke="none" d="
M 986.25 295.45
Q 983.9 288.7 978.35 283.8 972.85 278.85 963.05 277.05 953.1 275.55 946.15 278.6 939.15 281.7 934.5 287.45 929.85 293.25 927 299.8 924.15 306.3 922.45 311.7 931.35 312.7 942.55 314.6 953.75 316.45 965.55 318.7 977.3 320.9 987.9 323.05 988.85 316.6 988.7 309.4 988.55 302.15 986.25 295.45 Z"/>
</g>

<g id="Symbol_87_0_Layer0_0_FILL">
<path fill="#0081c6" stroke="none" d="
M 827.3 511
L 826.95 509.05 825.4 508.55 825.45 506.85 808.3 495.45 791.85 486.25 784.4 482.95 774.05 479.6 774 479.6 771.35 479 757.8 477.05 752.3 476.85 744.05 477.25 735.85 478.7 727.95 481.3 722.95 483.65 715.95 488.2 707.95 495.6 704.55 499.85 701.7 504.55 699.55 509.6 695.95 522.45 690.15 548.85 687.7 570.9 685.95 620.55 686 645.4 694.5 716.2 694.5 716.25 697.3 731.4 701.45 746.3 703.35 751.2 706.05 755.75 706.15 755.85 706.2 756 708.15 758 712.85 761.25 717.85 763.75 728.15 767.65 744.25 771.35 752.45 772.3 763.5 772.35 774 769.9 788.9 764 800.65 757.6 802.9 756.1 807.2 752.6 808.85 750.35 808.9 750.15 809.1 749.85 810.2 744.35 813.05 719.5 826.75 569.95 828.25 522.35 827.3 511 Z"/>
</g>

<g id="Symbol_88_0_Layer0_0_FILL">
<path fill="#FFFFFF" stroke="none" d="
M 836.45 489.05
Q 839.25 481.35 834.55 474.05 829.9 466.7 819.8 460.4 809.75 454.1 796.4 449.55 783 445.05 768.4 442.95 757.05 441.45 746.8 444.35 736.55 447.25 728.25 452.95 719.9 458.65 714.2 465.65 708.5 472.65 706.2 479.45
L 702.95 491.1 698.35 512.2
Q 693.05 538.05 690 576.7 686.95 615.35 691.05 660.65 695.2 705.9 711.45 751.65
L 713.15 753.45 717.55 756.55
Q 723.3 760.3 734.2 763.4 745.1 766.45 761 765.65 771.6 764.8 779.7 761.55 787.8 758.3 793.45 754.15 799.1 750 802.35 746.45
L 806.5 741.45
Q 809.65 720.35 813.2 683.25 816.75 646.15 820.65 605.4 824.5 564.6 828.5 532.45
L 832.5 505.55 834.45 496 836.45 489.05 Z"/>
</g>
</defs>



<g transform="matrix( -0.1333770751953125, 0.0987548828125, 0.181884765625, 0.1506195068359375, 1114.6,692.45) ">
<g transform="matrix( 1, 0, 0, 1, 0,0) ">
<use xlink:href="#Symbol_81_0_Layer0_0_FILL"/>
</g>
</g>

<g transform="matrix( -0.10833740234375, 0.107208251953125, 0.10308837890625, 0.1121063232421875, 1116.1,697.05) ">
<g transform="matrix( 1, 0, 0, 1, 0,0) ">
<use xlink:href="#Symbol_82_0_Layer0_0_FILL"/>
</g>
</g>

<g transform="matrix( -0.0845947265625, 0.09344482421875, 0.0951385498046875, 0.0811920166015625, 1094,717.65) ">
<g transform="matrix( 1, 0, 0, 1, 0,0) ">
<use xlink:href="#Symbol_71_0_Layer0_0_FILL"/>
</g>
</g>

<g transform="matrix( -0.40521240234375, -0.0108184814453125, -0.0017242431640625, 0.146728515625, 1474.5,776.3) ">
<g transform="matrix( 1, 0, 0, 1, 0,0) ">
<use xlink:href="#Symbol_72_0_Layer0_0_FILL"/>
</g>
</g>

<g transform="matrix( -0.1303863525390625, -0.0027008056640625, 0.00445556640625, 0.132293701171875, 1181.2,788.15) ">
<g transform="matrix( 1, 0, 0, 1, 0,0) ">
<use xlink:href="#Symbol_74_0_Layer0_0_FILL"/>
</g>
</g>

<g transform="matrix( -0.10137939453125, 0.083709716796875, 0.0885772705078125, 0.0968017578125, 1118.75,724.75) ">
<g transform="matrix( 1, 0, 0, 1, 0,0) ">
<use xlink:href="#Symbol_85_0_Layer0_0_FILL"/>
</g>
</g>

<g transform="matrix( -0.0903778076171875, 0.08758544921875, 0.0901031494140625, 0.0870208740234375, 1102.35,720.85) ">
<g transform="matrix( 1, 0, 0, 1, 0,0) ">
<use xlink:href="#Symbol_77_0_Layer0_0_FILL"/>
</g>
</g>

<g transform="matrix( -0.0903778076171875, 0.08758544921875, 0.0901031494140625, 0.0870208740234375, 1103.5,721.7) ">
<g transform="matrix( 1, 0, 0, 1, 0,0) ">
<use xlink:href="#Symbol_78_0_Layer0_0_FILL"/>
</g>
</g>

<g transform="matrix( 0.1507568359375, 0.6325225830078125, -0.742523193359375, -0.0474853515625, 860.55,-306.15) ">
<use xlink:href="#Layer0_8_FILL"/>
</g>

<g transform="matrix( 0.47161865234375, -0.90570068359375, 0.615966796875, 0.4344635009765625, 107.15,1252.4) ">
<use xlink:href="#Layer0_9_FILL"/>
</g>

<g transform="matrix( 0.47161865234375, -0.90570068359375, 0.615966796875, 0.4344635009765625, 107.15,1252.4) ">
<use xlink:href="#Layer0_10_FILL"/>
</g>

<g transform="matrix( 0.6251068115234375, 0.246337890625, 0.2472991943359375, -0.6195526123046875, 111.85,691.35) ">
<g transform="matrix( 1, 0, 0, 1, 0,0) ">
<use xlink:href="#Symbol_21_0_Layer0_0_FILL"/>
</g>
</g>

<g transform="matrix( 0.5980987548828125, 0.298004150390625, -0.3036346435546875, 0.5981597900390625, 582.6,91.05) ">
<g transform="matrix( 1, 0, 0, 1, 0,0) ">
<use xlink:href="#Symbol_19_0_Layer0_0_FILL"/>
</g>
</g>

<g transform="matrix( 0.42205810546875, -0.572509765625, 0.4383087158203125, 0.66015625, 427.15,978.85) ">
<g transform="matrix( 1, 0, 0, 1, 0,0) ">
<use xlink:href="#Symbol_51_0_Layer0_0_FILL"/>
</g>
</g>

<g transform="matrix( 0.6647491455078125, 0.0626068115234375, -0.1858978271484375, 0.65289306640625, 438.7,241.8) ">
<g transform="matrix( 1, 0, 0, 1, 0,0) ">
<use xlink:href="#Symbol_89_0_Layer0_0_FILL"/>
</g>
</g>

<g transform="matrix( 0.5970001220703125, 0.238861083984375, -0.3635406494140625, 0.601043701171875, 598.55,140.05) ">
<g transform="matrix( 1, 0, 0, 1, 0,0) ">
<use xlink:href="#Symbol_22_0_Layer0_0_FILL"/>
</g>
</g>

<g transform="matrix( 0.634918212890625, -0.0148162841796875, 0.1056671142578125, 0.8110809326171875, 308.7,164.35) ">
<g transform="matrix( 1, 0, 0, 1, 0,0) ">
<use xlink:href="#Symbol_90_0_Layer0_0_FILL"/>
</g>
</g>

<g transform="matrix( 0.6475372314453125, 0.15869140625, -0.060394287109375, 0.7563323974609375, 451.85,67.6) ">
<g transform="matrix( 1, 0, 0, 1, 0,0) ">
<use xlink:href="#Symbol_23_0_Layer0_0_FILL"/>
</g>
</g>

<g transform="matrix( 0.67950439453125, 0.0434722900390625, -0.157623291015625, 0.54620361328125, 399.9,337.65) ">
<g transform="matrix( 1, 0, 0, 1, 0,0) ">
<use xlink:href="#Symbol_45_0_Layer0_0_FILL"/>
</g>
</g>

<g transform="matrix( 0.67950439453125, 0.0434722900390625, -0.157623291015625, 0.54620361328125, 399.9,337.65) ">
<g transform="matrix( 1, 0, 0, 1, 0,0) ">
<use xlink:href="#Symbol_91_0_Layer0_0_FILL"/>
</g>
</g>

<g transform="matrix( 0.5765228271484375, -0.1992950439453125, 0.1793060302734375, 0.8373260498046875, 363.3,576.9) ">
<g transform="matrix( 1, 0, 0, 1, 0,0) ">
<use xlink:href="#Symbol_39_0_Layer0_0_FILL"/>
</g>
</g>

<g transform="matrix( 0.5765228271484375, -0.1992950439453125, 0.1793060302734375, 0.8373260498046875, 363.3,576.9) ">
<g transform="matrix( 1, 0, 0, 1, 0,0) ">
<use xlink:href="#Symbol_40_0_Layer0_0_FILL"/>
</g>
</g>

<g transform="matrix( 0.528717041015625, -0.3302001953125, 0.363250732421875, 0.770355224609375, 353.25,720.6) ">
<g transform="matrix( 1, 0, 0, 1, 0,0) ">
<use xlink:href="#Symbol_26_0_Layer0_0_FILL"/>
</g>
</g>

<g transform="matrix( 0.436492919921875, -0.1747894287109375, 0.0888214111328125, 0.7438812255859375, 536.45,562.7) ">
<use xlink:href="#Layer0_23_FILL"/>
</g>

<g transform="matrix( 0.5770263671875, -0.1974639892578125, 0.1830902099609375, 0.85107421875, 343.35,574.3) ">
<g transform="matrix( 1, 0, 0, 1, 0,0) ">
<use xlink:href="#Symbol_28_0_Layer0_0_FILL"/>
</g>
</g>

<g transform="matrix( -0.8741912841796875, -0.2118682861328125, 0.141357421875, -0.7518157958984375, 1475.7,1164.15) ">
<g transform="matrix( 1, 0, 0, 1, 0,0) ">
<use xlink:href="#Symbol_87_0_Layer0_0_FILL"/>
</g>
</g>

<g transform="matrix( -0.8741912841796875, -0.2118682861328125, 0.141357421875, -0.7518157958984375, 1475.7,1164.15) ">
<g transform="matrix( 1, 0, 0, 1, 0,0) ">
<use xlink:href="#Symbol_88_0_Layer0_0_FILL"/>
</g>
</g>
</svg>
