
<svg xmlns="http://www.w3.org/2000/svg" version="1.1" xmlns:xlink="http://www.w3.org/1999/xlink" preserveAspectRatio="none" x="0px" y="0px" width="760px" height="880px" viewBox="0 0 760 880">
<defs>


<g id="Symbol_6_0_Layer0_0_FILL">
<path fill="#FFFFFF" stroke="none" d="
M 1336.05 565.75
Q 1325.55 541.3 1309.5 520 1293.45 498.7 1270.9 480.6 1253.5 473.35 1234.6 461.75 1215.75 450.15 1194.95 433.55 1158.6 403.8 1132.1 373.4 1105.65 343 1084.5 316.85 1063.35 290.7 1043 273.75 1022.65 256.75 998.6 253.85 997.45 253.75 996.2 253.65 995 253.55 993.8 253.55 993.15 253.5 992.55 253.5 991.95 253.5 991.3 253.5 959.55 254.5 927.35 274.3 895.15 294.05 858.65 320.1 822.2 346.1 777.65 365.85 733.1 385.65 676.65 386.65 637.3 386.25 609.55 378.7 581.85 371.15 557.05 361.15 532.25 351.2 501.65 343.65 471.1 336.05 426.1 335.65 319.7 339.05 255 407.7 190.3 476.35 157.4 569.65 124.5 662.95 113.4 740.3
L 105.25 803.55 103.4 824.55 103.05 838.5
Q 103.15 845.3 107.35 850.25 111.5 855.25 118.25 856.05 121 856.3 124.2 855.1 127.45 853.9 130.1 850.65 132.75 847.35 133.9 841.5 137.7 798.4 146.1 757.8 154.55 717.25 164.05 684.2 173.6 651.2 180.75 630.75
L 189.05 607.6
Q 190.1 604.75 191.95 601.85 193.75 598.85 196.15 597.15 198.55 595.45 201.25 596.4 205.05 597.95 204.85 601 204.7 604.05 203.65 608.35 200.8 623.9 197.9 644.25 195 664.65 193 691.3 191 718 190.95 752.5 191.7 814.5 208.75 870.05 225.75 925.65 249.7 971.3 273.6 1017 295.05 1049.35 316.45 1081.7 326.05 1097.2 329.25 1102.65 334.6 1105.7 339.95 1108.8 346.3 1108.85
L 487.25 1108.85
Q 494.65 1108.65 499.75 1103.9 504.85 1099.15 505.5 1091.8 506.1 1072.55 507.35 1042.15 508.6 1011.75 517.8 980.7 527 949.65 551.35 928.4 575.75 907.2 622.55 906.3 677.4 907.3 708.95 930.1 740.5 952.85 755.65 985.75 770.8 1018.6 776.4 1049.9 781.95 1081.15 784.75 1099.05 786.2 1105.55 791.05 1109.5 795.95 1113.5 802.55 1113.6
L 942.45 1113.6
Q 949.9 1113.4 954.8 1108.45 959.7 1103.5 959.85 1096.05 959.8 1059.9 964.85 1024.3 969.9 988.7 981.3 958.3 992.7 927.9 1011.6 907.35 1024.4 893.9 1041.95 893.15 1059.5 892.45 1083.1 901.85 1086.9 903.35 1091.1 904.9 1095.25 906.5 1099.7 908.2 1102.15 908.65 1104.4 909 1106.65 909.4 1108.65 909.75 1122.45 912.1 1136.1 913.9 1149.75 915.7 1163.5 915.75 1177.25 915.8 1191.45 912.95 1221.2 906.7 1246.05 894.95 1270.85 883.15 1291.7 865.45 1312.5 847.75 1330.3 823.75 1340.5 810.05 1346.65 797.6 1352.85 785.15 1356.4 772.25 1359.95 759.35 1362.2 744.35 1362.25 743.75 1362.35 743.2
L 1362.55 742.05
Q 1362.65 737.7 1362.9 734
L 1363.25 729.05
Q 1365.05 713.65 1364.35 699.95 1363.6 686.3 1361.55 672.7 1359.5 659.15 1357.2 644.1 1354.15 622.8 1348.95 603.25 1343.75 583.65 1336.05 565.75 Z"/>
</g>

<g id="Symbol_3_0_Layer0_0_FILL">
<path fill="#FFFFFF" stroke="none" d="
M 1465.55 478.95
Q 1466.15 473.85 1463.5 470.2 1460.85 466.55 1456.45 465.2 1452.05 463.85 1447.4 465.55 1436 470.25 1421.05 476.3 1406.1 482.4 1388.35 487.4 1366.75 493.45 1344.9 494.5 1323.05 495.55 1299.85 490.1 1276.7 484.65 1251.05 471.15 1247.3 469.7 1244.45 468.45 1241.6 467.2 1240.05 466.3 1221.55 456.15 1201.35 449.15 1181.15 442.1 1160.9 438.85 1143.2 436.05 1127.7 435.95 1112.25 435.9 1096.9 437.95 1081.5 439.95 1064.05 443.55 1046.3 447.1 1033.8 453.5 1021.35 459.9 1010.85 469.3 1000.35 478.65 988.65 491.2 982.15 498 974.2 508.15 966.25 518.25 959.65 529.2 953.1 540.15 950.7 549.4 948.65 557.8 946.7 566.3 944.75 574.8 942.9 583.4 940.3 595.35 937.95 607.3 935.65 619.25 933.75 631.1 931.15 646.7 928 662.65 924.85 678.65 922.7 694.7 920.55 710.75 921 726.6 921.4 740.4 922.2 751.9 923.05 763.4 926.05 774.5 929 785.55 935.85 798.05
L 936 798.35
Q 946.6 817.3 958.85 830.6 971.1 843.9 985.85 854.6 1000.6 865.25 1018.75 876.3 1023.8 879.4 1028.55 881.75 1033.25 884.1 1038.2 886.45 1041.05 887.3 1044.55 888.65 1048.05 890.05 1051.05 891.3 1054.05 892.55 1055.3 893.15
L 1056.3 893.55
Q 1057 893.9 1058 894.35 1063.75 895.45 1070 897.3 1076.3 899.2 1083.1 901.85 1106.65 911.2 1140.6 922.7 1174.55 934.2 1215.35 944 1256.2 953.75 1300.45 957.9 1344.7 962 1388.95 956.6 1465.15 946.5 1525.5 915.05 1585.8 883.6 1631.2 832.45 1676.6 781.3 1707.9 712.1 1724.45 675.15 1735.25 636.8 1746 598.4 1752.3 561.9 1758.55 525.4 1761.65 494 1764.75 462.6 1766 439.6 1766.2 430.95 1761.3 427.05 1756.4 423.1 1749.85 423.75 1743.25 424.4 1738.5 429.45 1717.05 454.2 1688.35 487.3 1659.7 520.4 1626.5 549.4 1593.3 578.4 1558.3 590.75 1523.35 603.15 1489.4 586.45 1477.35 579.75 1471.35 567 1465.3 554.2 1463.6 538.45 1461.9 522.7 1462.8 507.05 1463.75 491.4 1465.55 478.95 Z"/>
</g>

<g id="Symbol_4_0_Layer0_0_FILL">
<path fill="#0987CD" stroke="none" d="
M 1045.3 556
Q 1044.2 556.05 1043.3 556.55 1042.4 557.1 1041.85 558 1041.3 558.9 1041.3 560.05 1041.3 561.15 1041.85 562.05 1042.4 562.95 1043.3 563.5 1044.2 564 1045.3 564.05 1046.45 564 1047.35 563.5 1048.25 562.95 1048.75 562.05 1049.3 561.15 1049.3 560.05 1049.3 558.9 1048.75 558 1048.25 557.1 1047.35 556.55 1046.45 556.05 1045.3 556 Z"/>
</g>

<g id="Symbol_5_0_Layer0_0_FILL">
<path fill="#0987CD" stroke="none" d="
M 1005.65 543.5
L 1001.25 543.5 1001.25 545.8
Q 999.95 544.35 998.5 543.65 997.05 542.95 995.4 542.95 993.5 542.95 991.9 543.7 990.3 544.45 989.05 545.9 987.8 547.35 987.15 549.2 986.55 551.05 986.55 553.25 986.55 555.5 987.15 557.35 987.8 559.2 989.05 560.7 990.35 562.2 991.95 562.9 993.55 563.65 995.5 563.65 997.05 563.65 998.5 563 999.95 562.35 1001.25 561.05
L 1001.25 563.1 1005.65 563.1 1005.65 543.5
M 1001.55 553.35
Q 1001.55 554.7 1001.15 555.85 1000.8 557 1000.05 557.9 999.3 558.75 998.35 559.15 997.35 559.6 996.15 559.6 995.05 559.6 994.1 559.15 993.15 558.7 992.4 557.8 991.7 556.95 991.35 555.8 990.95 554.65 990.95 553.25 990.95 551.9 991.35 550.8 991.7 549.7 992.45 548.8 993.2 547.95 994.15 547.5 995.1 547.05 996.2 547.05 997.4 547.05 998.35 547.5 999.3 547.9 1000.05 548.8 1000.8 549.7 1001.15 550.8 1001.55 551.95 1001.55 553.35
M 980.35 543.45
Q 979.9 543.7 979.35 544.15 978.85 544.6 978.25 545.25
L 978.25 543.5 973.9 543.5 973.9 563.1 978.25 563.1 978.25 552.95
Q 978.25 550.15 979.1 548.75 980 547.35 981.8 547.35 982.35 547.35 982.95 547.6 983.6 547.8 984.2 548.25
L 986.2 544.15
Q 985.25 543.55 984.35 543.25 983.45 542.95 982.6 542.95 981.95 542.95 981.4 543.1 980.85 543.2 980.35 543.45
M 1016.6 543.45
Q 1016.15 543.7 1015.65 544.15 1015.1 544.65 1014.45 545.3
L 1014.45 543.5 1010.15 543.5 1010.15 563.1 1014.45 563.1 1014.45 553
Q 1014.45 551.45 1014.7 550.3 1014.9 549.2 1015.3 548.45 1015.75 547.75 1016.4 547.4 1017.05 547.05 1018 547.05 1019.45 547.05 1020.15 548.35 1020.9 549.65 1020.9 552.25
L 1020.9 563.1 1025.25 563.1 1025.25 553
Q 1025.25 551.4 1025.45 550.3 1025.65 549.15 1026.05 548.45 1026.45 547.75 1027.1 547.4 1027.75 547.05 1028.65 547.05 1029.45 547.05 1030 547.35 1030.55 547.65 1030.9 548.25 1031.25 548.8 1031.4 549.8 1031.55 550.8 1031.55 552.2
L 1031.55 563.1 1035.9 563.1 1035.9 551
Q 1035.9 546.95 1034.35 544.95 1032.75 542.95 1029.55 542.95 1027.8 542.95 1026.45 543.7 1025.05 544.4 1024.05 545.85 1023.1 544.4 1021.85 543.7 1020.6 542.95 1019 542.95 1018.3 542.95 1017.7 543.1 1017.1 543.2 1016.6 543.45
M 920.15 543.5
Q 918.9 542.95 917.25 542.95 915.8 542.95 914.55 543.55 913.25 544.15 912.1 545.3
L 912.1 543.5 907.75 543.5 907.75 563.1 912.1 563.1 912.1 553.65
Q 912.1 551.8 912.35 550.55 912.55 549.25 913 548.55 913.45 547.8 914.25 547.4 915 547.05 916.05 547.05 917.05 547.05 917.75 547.35 918.45 547.6 918.8 548.15 919.2 548.7 919.4 549.7 919.6 550.7 919.6 552.15
L 919.6 563.1 923.95 563.1 923.95 551.1
Q 923.95 549 923.55 547.5 923.15 546.05 922.35 545.1 921.45 544.05 920.15 543.5
M 903.25 543.5
L 898.9 543.5 898.9 563.1 903.25 563.1 903.25 543.5
M 900 538.1
Q 900.5 538.35 901.1 538.35 901.65 538.35 902.15 538.1 902.65 537.9 903.05 537.45 903.5 537.05 903.7 536.5 903.9 536 903.9 535.4 903.9 534.75 903.7 534.25 903.5 533.75 903.05 533.3 902.65 532.9 902.15 532.65 901.65 532.45 901.05 532.45 900.5 532.45 900 532.65 899.5 532.9 899.05 533.3 898.65 533.75 898.45 534.25 898.25 534.75 898.25 535.35 898.25 536 898.45 536.5 898.65 537.05 899.05 537.45 899.5 537.9 900 538.1
M 941.45 543.7
Q 939.65 542.95 937.55 542.95 935.5 542.95 933.7 543.7 931.9 544.45 930.45 545.95 929 547.45 928.3 549.25 927.55 551.05 927.55 553.15 927.55 555.4 928.25 557.3 929 559.15 930.4 560.65 931.85 562.15 933.6 562.9 935.4 563.65 937.5 563.65 939.6 563.65 941.4 562.9 943.25 562.15 944.7 560.7 946.15 559.2 946.9 557.35 947.6 555.5 947.6 553.3 947.6 551.15 946.9 549.3 946.15 547.45 944.7 545.95 943.25 544.45 941.45 543.7
M 943.15 553.35
Q 943.15 554.75 942.8 555.9 942.4 557.05 941.65 557.9 940.9 558.75 939.85 559.2 938.85 559.6 937.55 559.6 936.3 559.6 935.3 559.15 934.25 558.75 933.5 557.9 932.75 557 932.35 555.85 932 554.7 932 553.25 932 551.85 932.4 550.75 932.75 549.65 933.55 548.8 934.3 547.9 935.3 547.45 936.35 547.05 937.55 547.05 938.85 547.05 939.85 547.45 940.85 547.9 941.65 548.8 942.4 549.65 942.8 550.75 943.15 551.9 943.15 553.35
M 962.4 543.65
Q 960.9 542.95 959.15 542.95 957.1 542.95 955.5 543.75 953.85 544.55 952.6 546.15 951.45 547.65 950.9 549.45 950.3 551.3 950.3 553.4 950.3 555.6 950.95 557.45 951.55 559.3 952.8 560.75 954 562.2 955.6 562.9 957.15 563.65 959.1 563.65 960.8 563.65 962.25 562.95 963.75 562.25 965.05 560.9
L 965.05 563.65
Q 965.05 566.65 963.85 568.2 962.65 569.7 960.3 569.7 959 569.7 958 569.25 957 568.8 956.35 567.85 956.05 567.5 955.85 566.9 955.65 566.35 955.5 565.65
L 951.15 565.65
Q 951.35 567.55 952.05 569.05 952.8 570.55 954.05 571.65 955.25 572.7 956.8 573.25 958.35 573.8 960.25 573.8 962.5 573.8 964.25 573 966 572.25 967.25 570.75 967.95 569.95 968.4 569 968.85 568.05 969.05 566.95 969.15 566.55 969.2 566.05 969.25 565.6 969.3 565.05 969.35 564.55 969.35 563.95 969.4 563.3 969.4 562.6
L 969.4 543.5 965.05 543.5 965.05 545.7
Q 963.85 544.35 962.4 543.65
M 965.2 553.35
Q 965.2 554.7 964.9 555.8 964.55 556.85 963.9 557.75 963.15 558.65 962.2 559.15 961.2 559.6 959.95 559.6 958.7 559.6 957.75 559.15 956.75 558.7 956.05 557.75 955.4 556.9 955.1 555.8 954.75 554.7 954.75 553.35 954.75 552 955.1 550.9 955.4 549.8 956.05 548.95 956.75 548 957.75 547.5 958.7 547.05 959.95 547.05 961.1 547.05 962.05 547.5 963 547.9 963.75 548.8 964.5 549.65 964.85 550.8 965.2 551.9 965.2 553.35
M 887.65 542.95
Q 886.25 542.95 885 543.5 883.7 544.05 882.55 545.15
L 882.55 534 878.2 534 878.2 563.1 882.55 563.1 882.55 553.6
Q 882.55 551.8 882.8 550.55 883 549.25 883.45 548.5 883.9 547.8 884.7 547.4 885.55 547.05 886.65 547.05 887.55 547.05 888.2 547.3 888.85 547.55 889.25 548.1 889.65 548.65 889.85 549.5 890.05 550.35 890.05 551.5
L 890.05 563.1 894.4 563.1 894.4 551.1
Q 894.4 549.05 894 547.55 893.6 546.05 892.75 545.1 891.8 544.05 890.55 543.5 889.25 542.95 887.65 542.95
M 868.15 543.5
L 863.8 543.5 863.8 563.1 868.15 563.1 868.15 552.95
Q 868.15 550.15 869.05 548.75 869.95 547.35 871.7 547.35 872.3 547.35 872.9 547.6 873.5 547.8 874.15 548.25
L 876.1 544.15
Q 875.2 543.55 874.3 543.25 873.4 542.95 872.5 542.95 871.85 542.95 871.3 543.1 870.75 543.2 870.3 543.45 869.8 543.7 869.3 544.15 868.75 544.6 868.15 545.25
L 868.15 543.5 Z"/>
</g>

<g id="Symbol_13_0_Layer0_0_FILL">
<path fill="#AED044" stroke="none" d="
M 678.4 334.85
Q 676.6 333.65 674.8 332.4 673 331.2 671.25 329.95 666.15 326.35 661.35 322.65 656.5 318.95 652.1 315.1 663 334.95 675.95 353 688.85 371 698.6 383.15 703.45 389.3 708.55 395.05 713.6 400.8 718.85 406.15 714.65 407.95 711.6 411.2 708.5 414.4 706.2 418.65 705.4 420.15 704.7 421.7 704.05 423.2 703.5 424.75 704.3 428.95 705.7 432.95 707.1 436.95 709 440.8 712.35 447.4 716.8 453.35 721.25 459.3 726.25 464.5 729.85 468.25 733.75 471.9 737.65 475.55 741.85 479.15 745.1 481.95 748.45 484.65 751.85 487.35 755.3 490.05 763.05 495.95 771.15 501.6 779.2 507.3 787.4 512.7
L 787.7 512.9 787.9 513
Q 788 513.05 788.1 513.15 788.95 513.7 789.8 514.25
L 791.5 515.4
Q 795.25 517.85 798.95 520.25 802.65 522.6 806.3 524.95
L 815.15 530.6
Q 819.5 533.4 823.7 536.1 825.5 537.25 827.3 538.4 829.05 539.5 830.85 540.6 834.1 542.65 837.35 544.65 840.55 546.6 843.8 548.5 867.3 562.45 890.95 573.5 914.55 584.55 938.95 593.15 939.3 593.25 939.7 593.4 940.05 593.5 940.45 593.65 942.55 594.4 944.7 595.1 946.85 595.85 949 596.55 949.5 595.6 950.1 594.7 950.65 593.8 951.2 592.85 956.5 584.25 962.7 575.7 968.9 567.2 975.85 558.85 987.8 544.5 1001.25 531.15 1014.7 517.85 1028.85 506.15
L 1028.75 506.15 1028.55 506.05 1027.9 505.9
Q 1027.6 505.8 1027.25 505.75 1025.1 505.15 1022.95 504.55 1020.75 503.95 1018.6 503.3 1005.8 499.65 993.2 495.45 980.6 491.25 968.15 486.6 960.95 486.5 953.85 486.35 946.75 486.25 939.9 486.15 933.1 485.85 931.3 482.95 929.5 480 932.5 477.55 926.5 476.25 917.7 474 908.9 471.75 901.75 469.2
L 896.1 466.7 893.45 464.3
Q 893 462.8 893.1 461.75 893.2 460.7 893.8 460 884.75 454.95 875.6 449.7 866.4 444.45 857.2 439.35 847.65 434.1 838.35 428.5 829.05 422.9 819.9 417.15 817.95 416.85 816.05 416 814.1 415.15 812.75 414.3 805.55 409.75 798.25 405.25 790.9 400.8 783.5 396.3 781.75 396.5 779.75 395.6 777.7 394.7 775.65 393.35 765.6 387.05 755.1 380.55 744.65 374 734.2 367.25 726.05 362.9 717.65 358.25 709.25 353.65 700.8 348.7 700.65 348.65 700.5 348.55 700.3 348.45 700.15 348.35 694.6 345.1 689.15 341.75 683.7 338.35 678.4 334.85
M 683.45 168.3
Q 681 166.95 678 166.05 674.95 165.1 672.1 165.55 671.5 165.4 670.75 165.45
L 669.8 165.55
Q 656.9 167.15 653.05 174.8 649.2 182.4 651.25 193.05 653.35 203.75 658.25 214.6 659.4 220.2 661.75 226.4 664.05 232.65 667.2 239.05 659.35 234.45 650.4 233.95 641.5 233.45 636.8 243.55
L 636.65 244.1
Q 636.5 244.6 636.3 245 635.95 246.1 635.65 247.5
L 635.3 249.2
Q 634.05 256.45 634.7 264.3 635.35 272.2 637.75 279.4 638.3 281.75 638.95 284.15 639.65 286.55 640.45 289
L 643 290.7
Q 644.3 291.6 645.55 292.45 647.45 293.75 649.4 295.05
L 654.45 298.5
Q 656.7 300 658.95 301.55
L 663.5 304.6
Q 667.3 307.15 671.1 309.7 674.9 312.25 678.7 314.8
L 678.7 314.85 683.85 318.25
Q 688.65 321.5 693.5 324.7 698.35 327.9 703.15 331.1 714.4 338.5 725.7 345.85 736.95 353.15 748.3 360.3 753.15 362.95 757.8 365.65 762.45 368.35 766.85 371.1 777.3 377.5 788.3 383.8 799.3 390.05 809.05 397 809.4 397.25 809.7 397.5
L 810.4 398
Q 814 400.1 817.65 402.15 821.25 404.2 824.9 406.25 837.25 412.95 849.6 419.45 862 426 874.35 432.3 901.7 446.3 928.6 456.7 955.45 467.1 983.6 475.45 985.9 475.35 988.2 475.3 990.5 475.25 992.85 475.15 985.25 469.6 977.75 464 970.3 458.4 962.95 452.7 900.7 404.65 846.3 352.6 791.9 300.55 744.95 245.5 732.85 231.3 721.2 217 709.6 202.65 698.45 188.15 694.65 183.2 690.9 178.25 687.15 173.3 683.45 168.3 Z"/>
</g>

<g id="Symbol_14_0_Layer0_0_FILL">
<path fill="#AED044" stroke="none" d="
M 1347.85 394.9
L 1345.5 392.95 1339.25 392.85
Q 1331.95 395.05 1324.95 397.05 1317.95 399.05 1311.6 400.4 1311.3 400.45 1311.05 400.5 1310.75 400.55 1310.45 400.6 1228.85 423 1141.25 431.85 1053.65 440.7 962.85 439.65 922.1 441.25 881.05 441.2 840 441.15 799 438.95 792.9 438.6 786.85 438.25 780.75 437.85 774.7 437.4 772.15 437.2 769.55 437 766.95 436.8 764.35 436.6 756.4 435.95 748.25 435.2 740.1 434.4 731.85 433.45 729.25 433.95 726.35 435.1 723.45 436.25 722.1 438.35 721.6 438.55 721.25 439
L 720.8 439.6
Q 715.05 447.65 719.5 454.25 723.9 460.85 734.3 466 744.65 471.15 756.7 474.85 762.2 477.55 768.9 479.95 775.6 482.35 782.9 484.45 781.55 484.95 779.75 485.75 778 486.55 776.6 487.45 775.6 488.05 774.65 488.6 773.75 489.2 772.85 489.8 772.75 490.05 772.45 490.2
L 772.1 490.4
Q 766.5 496.55 771.2 502.95 775.9 509.4 785.85 515.05 800.5 526.25 826.15 533.7 851.85 541.2 878.8 545.6 905.8 550 924.3 552.05 932.35 553 940.1 553.6 947.85 554.2 955.35 554.5 954.65 557.85 955.7 561.45 956.8 565.05 959.2 568.85 960.05 570.25 961.1 571.6 962.1 572.95 963.2 574.25 975.85 583.95 994.1 588.45 1012.3 592.95 1031.6 594.55 1050.95 596.15 1066.9 597.15 1066.9 598.4 1067.35 599.6 1067.85 600.8 1068.35 601.65 1077 614.15 1091.65 619.05 1106.3 623.95 1121.9 624.3 1139.05 625.05 1157.6 623.55 1176.1 622.05 1195.1 618.75 1198.75 617.4 1202.4 616.1 1206 614.75 1209.65 613.4 1222.3 608.6 1234.75 603.65 1247.15 598.7 1259.3 593.7 1264.35 591.6 1269.35 589.5 1274.35 587.45 1279.3 585.35 1280.9 584.7 1282.45 584.05 1284 583.35 1285.6 582.7 1290.1 580.75 1294.65 578.65 1299.2 576.6 1303.75 574.45 1314.25 569.5 1324.5 564.1 1334.75 558.7 1344.55 552.9 1345.95 552.1 1347.25 551.25 1348.6 550.45 1349.95 549.65 1350.1 549.55 1350.25 549.45
L 1350.55 549.25
Q 1350.5 549.1 1350.45 548.95 1350.4 548.8 1350.3 548.7 1350.15 548.6 1349.95 548.5 1349.8 548.4 1349.6 548.35 1348.35 544.2 1347 540.3 1345.65 536.4 1345.25 534.85 1337.45 506.15 1326.7 477.65 1315.95 449.15 1307.2 420.35 1307.05 419.85 1306.85 418.8 1306.65 417.75 1306.25 416.4 1315.1 413.45 1323.15 410.15 1331.2 406.8 1338.35 403.15
L 1345.7 398.45 1347.85 394.9
M 796.3 497.5
L 795.8 497.2
Q 795.6 497.05 795.35 496.9 795.4 496.7 795.45 496.55 795.5 496.35 795.55 496.15 795.75 496.5 795.9 496.85 796.1 497.15 796.3 497.5
M 776.95 502.4
Q 777 502.55 777 502.7 775.95 501.7 775.2 500.65 774.45 499.65 774.05 498.6 774.65 499.5 775.35 500.35 776.1 501.2 776.85 502.05 776.9 502.2 776.95 502.4 Z"/>
</g>

<g id="Symbol_7_0_Layer0_0_FILL">
<path fill="#AED044" stroke="none" d="
M 793 728.5
L 804.5 735.2
Q 815.8 741.55 835.15 750 854.5 758.4 879 765
L 889.25 742.3
Q 898.45 720.9 910.3 692.8 922.15 664.75 931.1 643.45
L 940.5 621 915.1 609.95 793 728.5 Z"/>
</g>

<g id="Symbol_15_0_Layer0_0_FILL">
<path fill="#AED044" stroke="none" d="
M 1126.45 316.6
L 1108 333.45
Q 1093.35 347.55 1074.65 365.7 1056 383.85 1040.2 398.95
L 1018.5 418.75 1010.45 429.15 997.7 449.75
Q 982.6 475.4 962.3 507.95 942.05 540.45 920.75 566.3 899.45 592.15 881.3 597.75 863.35 603.05 853.05 615.55 842.7 628.1 842.45 638.5 842.15 648.9 854.3 647.7
L 870.15 641.3 880.85 634.15 893.4 624.35
Q 908.15 613 945.6 597.6 983 582.25 1025.7 564.65 1068.35 547 1098.8 528.8 1146.3 499.3 1173.75 473.9 1201.2 448.5 1215.35 422.2 1229.5 395.85 1237.1 363.6 1242.2 339.45 1227.85 327.85 1213.45 316.3 1191.05 313.4 1168.6 310.5 1149.6 312.3
L 1134.3 314.25 1126.45 316.6 Z"/>
</g>

<g id="Symbol_8_0_Layer0_0_FILL">
<path fill="#AED044" stroke="none" d="
M 1037.75 310.3
Q 1009.25 300.8 986.6 302.35 963.9 303.9 957.85 315.55 952.7 327.45 948.8 344.7 944.85 362 941.6 380.45 938.35 398.9 935.2 414.45 934.25 425.55 959.65 428.65 985.05 431.8 1019.6 430.35 1054.15 428.9 1080.75 426.35
L 1108.75 423.5 1103.9 402.35
Q 1099.35 382.75 1094.8 363
L 1089.75 341.35
Q 1066.25 319.8 1037.75 310.3 Z"/>
</g>

<g id="Symbol_9_0_Layer0_0_FILL">
<path fill="#AED044" stroke="none" d="
M 1012.35 269.55
Q 997.1 271.3 987.9 276.75 978.7 282.25 974.4 287.2 970.05 291.85 964.65 301 959.25 310.15 954.8 320.5 950.35 330.85 948.9 338.95 948 346.8 957.15 356.25 966.25 365.75 981.25 373.2 996.2 380.65 1012.8 382.4 1029.5 383.65 1046.8 379.85 1064.15 376 1077 369.5 1089.85 363 1093.1 356.25 1093 348.8 1088.15 331 1083.35 313.25 1073.85 296.25 1064.3 279.25 1050.15 274.15 1027.6 267.85 1012.35 269.55 Z"/>
</g>

<g id="Symbol_10_0_Layer0_0_FILL">
<path fill="#AED044" stroke="none" d="
M 1099.4 333.3
Q 1110.85 323.1 1118.6 311
L 1115.05 308.9 1104.95 304.7
Q 1091.55 299.45 1068.2 297.6
L 1071.15 308.1
Q 1074.2 317.9 1077.85 329.4 1081.5 340.9 1083.4 346.7
L 1099.4 333.3 Z"/>
</g>

<g id="Symbol_11_0_Layer0_0_FILL">
<path fill="#0083CB" stroke="none" d="
M 1035.4 302.25
L 1033.5 301.25 1031.5 300.65 1029.35 300.45 1027.25 300.65 1025.25 301.25 1023.35 302.25 1021.75 303.6 1020.4 305.25 1019.4 307.1 1018.75 309.15 1018.55 311.25 1018.75 313.35 1019.4 315.4 1020.4 317.25 1021.75 318.9 1023.35 320.25 1025.25 321.25 1027.25 321.85 1029.35 322.05 1031.5 321.85 1033.5 321.25 1035.4 320.25 1037 318.9 1038.35 317.25 1039.35 315.4 1040 313.35 1040.2 311.25 1040 309.15 1039.35 307.1 1038.35 305.25 1037 303.6 1035.4 302.25 Z"/>
</g>

<g id="Symbol_12_0_Layer0_0_FILL">
<path fill="#AED044" stroke="none" d="
M 1040.4 290.7
Q 1036.7 285.45 1029.15 285.1 1020.3 285.55 1015.95 292.1 1011.65 298.6 1010.8 306.75
L 1046.25 307 1045.2 301.3
Q 1044.1 296 1040.4 290.7 Z"/>
</g>
</defs>



<g transform="matrix( 0.3527374267578125, 0, 0.010162353515625, 0.292510986328125, 658.25,560.1) ">
<g transform="matrix( 1, 0, 0, 1, 0,0) ">
<use xlink:href="#Symbol_6_0_Layer0_0_FILL"/>
</g>
</g>

<g transform="matrix( 0.31268310546875, 0.0518951416015625, -0.0450286865234375, 0.3126068115234375, 731.55,477.7) ">
<g transform="matrix( 1, 0, 0, 1, 0,0) ">
<use xlink:href="#Symbol_3_0_Layer0_0_FILL"/>
</g>
</g>

<g transform="matrix( 2.1943511962890625, 0.415374755859375, 0.0097198486328125, 0.299560546875, -1158.75,170.75) ">
<g transform="matrix( 1, 0, 0, 1, 0,0) ">
<use xlink:href="#Symbol_4_0_Layer0_0_FILL"/>
</g>
</g>

<g transform="matrix( 1.90142822265625, 0, 0, 1.90142822265625, -845.05,-357.9) ">
<g transform="matrix( 1, 0, 0, 1, 0,0) ">
<use xlink:href="#Symbol_5_0_Layer0_0_FILL"/>
</g>
</g>

<g transform="matrix( -0.031982421875, 0.07861328125, 0.1103057861328125, 0.1761932373046875, 1021.45,513) ">
<g transform="matrix( 1, 0, 0, 1, 0,0) ">
<use xlink:href="#Symbol_13_0_Layer0_0_FILL"/>
</g>
</g>

<g transform="matrix( 0.0348052978515625, 0.1626129150390625, 0.110107421875, 0.103302001953125, 954.15,425.35) ">
<g transform="matrix( 1, 0, 0, 1, 0,0) ">
<use xlink:href="#Symbol_14_0_Layer0_0_FILL"/>
</g>
</g>

<g transform="matrix( 0.1362762451171875, 0.165679931640625, 0.014373779296875, -0.108612060546875, 910.65,548.1) ">
<g transform="matrix( 1, 0, 0, 1, 0,0) ">
<use xlink:href="#Symbol_7_0_Layer0_0_FILL"/>
</g>
</g>

<g transform="matrix( 0.0924835205078125, 0.2141265869140625, 0.089447021484375, 0.0150299072265625, 910.9,433.65) ">
<g transform="matrix( 1, 0, 0, 1, 0,0) ">
<use xlink:href="#Symbol_15_0_Layer0_0_FILL"/>
</g>
</g>

<g transform="matrix( 0.0987701416015625, 0.132904052734375, 0.015167236328125, -0.0855560302734375, 945.5,590.35) ">
<g transform="matrix( 1, 0, 0, 1, 0,0) ">
<use xlink:href="#Symbol_8_0_Layer0_0_FILL"/>
</g>
</g>

<g transform="matrix( 0.0987701416015625, 0.132904052734375, 0.015167236328125, -0.0855560302734375, 945.5,590.35) ">
<g transform="matrix( 1, 0, 0, 1, 0,0) ">
<use xlink:href="#Symbol_9_0_Layer0_0_FILL"/>
</g>
</g>

<g transform="matrix( 0.050689697265625, 0.1503143310546875, 0.0861053466796875, 0.048858642578125, 971.45,527.95) ">
<g transform="matrix( 1, 0, 0, 1, 0,0) ">
<use xlink:href="#Symbol_10_0_Layer0_0_FILL"/>
</g>
</g>

<g transform="matrix( 0.0987701416015625, 0.132904052734375, 0.015167236328125, -0.0855560302734375, 945.5,590.35) ">
<g transform="matrix( 1, 0, 0, 1, 0,0) ">
<use xlink:href="#Symbol_11_0_Layer0_0_FILL"/>
</g>
</g>

<g transform="matrix( 0.0987701416015625, 0.132904052734375, 0.015167236328125, -0.0855560302734375, 945.5,590.35) ">
<g transform="matrix( 1, 0, 0, 1, 0,0) ">
<use xlink:href="#Symbol_12_0_Layer0_0_FILL"/>
</g>
</g>
</svg>
