
<svg xmlns="http://www.w3.org/2000/svg" version="1.1" xmlns:xlink="http://www.w3.org/1999/xlink" preserveAspectRatio="none" x="0px" y="0px" width="760px" height="880px" viewBox="0 0 760 880">
<defs>


<g id="Symbol_13_0_Layer0_0_FILL">
<path fill="#AED044" stroke="none" d="
M 678.4 334.85
Q 676.6 333.65 674.8 332.4 673 331.2 671.25 329.95 666.15 326.35 661.35 322.65 656.5 318.95 652.1 315.1 663 334.95 675.95 353 688.85 371 698.6 383.15 703.45 389.3 708.55 395.05 713.6 400.8 718.85 406.15 714.65 407.95 711.6 411.2 708.5 414.4 706.2 418.65 705.4 420.15 704.7 421.7 704.05 423.2 703.5 424.75 704.3 428.95 705.7 432.95 707.1 436.95 709 440.8 712.35 447.4 716.8 453.35 721.25 459.3 726.25 464.5 729.85 468.25 733.75 471.9 737.65 475.55 741.85 479.15 745.1 481.95 748.45 484.65 751.85 487.35 755.3 490.05 763.05 495.95 771.15 501.6 779.2 507.3 787.4 512.7
L 787.7 512.9 787.9 513
Q 788 513.05 788.1 513.15 788.95 513.7 789.8 514.25
L 791.5 515.4
Q 795.25 517.85 798.95 520.25 802.65 522.6 806.3 524.95
L 815.15 530.6
Q 819.5 533.4 823.7 536.1 825.5 537.25 827.3 538.4 829.05 539.5 830.85 540.6 834.1 542.65 837.35 544.65 840.55 546.6 843.8 548.5 867.3 562.45 890.95 573.5 914.55 584.55 938.95 593.15 939.3 593.25 939.7 593.4 940.05 593.5 940.45 593.65 942.55 594.4 944.7 595.1 946.85 595.85 949 596.55 949.5 595.6 950.1 594.7 950.65 593.8 951.2 592.85 956.5 584.25 962.7 575.7 968.9 567.2 975.85 558.85 987.8 544.5 1001.25 531.15 1014.7 517.85 1028.85 506.15
L 1028.75 506.15 1028.55 506.05 1027.9 505.9
Q 1027.6 505.8 1027.25 505.75 1025.1 505.15 1022.95 504.55 1020.75 503.95 1018.6 503.3 1005.8 499.65 993.2 495.45 980.6 491.25 968.15 486.6 960.95 486.5 953.85 486.35 946.75 486.25 939.9 486.15 933.1 485.85 931.3 482.95 929.5 480 932.5 477.55 926.5 476.25 917.7 474 908.9 471.75 901.75 469.2
L 896.1 466.7 893.45 464.3
Q 893 462.8 893.1 461.75 893.2 460.7 893.8 460 884.75 454.95 875.6 449.7 866.4 444.45 857.2 439.35 847.65 434.1 838.35 428.5 829.05 422.9 819.9 417.15 817.95 416.85 816.05 416 814.1 415.15 812.75 414.3 805.55 409.75 798.25 405.25 790.9 400.8 783.5 396.3 781.75 396.5 779.75 395.6 777.7 394.7 775.65 393.35 765.6 387.05 755.1 380.55 744.65 374 734.2 367.25 726.05 362.9 717.65 358.25 709.25 353.65 700.8 348.7 700.65 348.65 700.5 348.55 700.3 348.45 700.15 348.35 694.6 345.1 689.15 341.75 683.7 338.35 678.4 334.85
M 683.45 168.3
Q 681 166.95 678 166.05 674.95 165.1 672.1 165.55 671.5 165.4 670.75 165.45
L 669.8 165.55
Q 656.9 167.15 653.05 174.8 649.2 182.4 651.25 193.05 653.35 203.75 658.25 214.6 659.4 220.2 661.75 226.4 664.05 232.65 667.2 239.05 659.35 234.45 650.4 233.95 641.5 233.45 636.8 243.55
L 636.65 244.1
Q 636.5 244.6 636.3 245 635.95 246.1 635.65 247.5
L 635.3 249.2
Q 634.05 256.45 634.7 264.3 635.35 272.2 637.75 279.4 638.3 281.75 638.95 284.15 639.65 286.55 640.45 289
L 643 290.7
Q 644.3 291.6 645.55 292.45 647.45 293.75 649.4 295.05
L 654.45 298.5
Q 656.7 300 658.95 301.55
L 663.5 304.6
Q 667.3 307.15 671.1 309.7 674.9 312.25 678.7 314.8
L 678.7 314.85 683.85 318.25
Q 688.65 321.5 693.5 324.7 698.35 327.9 703.15 331.1 714.4 338.5 725.7 345.85 736.95 353.15 748.3 360.3 753.15 362.95 757.8 365.65 762.45 368.35 766.85 371.1 777.3 377.5 788.3 383.8 799.3 390.05 809.05 397 809.4 397.25 809.7 397.5
L 810.4 398
Q 814 400.1 817.65 402.15 821.25 404.2 824.9 406.25 837.25 412.95 849.6 419.45 862 426 874.35 432.3 901.7 446.3 928.6 456.7 955.45 467.1 983.6 475.45 985.9 475.35 988.2 475.3 990.5 475.25 992.85 475.15 985.25 469.6 977.75 464 970.3 458.4 962.95 452.7 900.7 404.65 846.3 352.6 791.9 300.55 744.95 245.5 732.85 231.3 721.2 217 709.6 202.65 698.45 188.15 694.65 183.2 690.9 178.25 687.15 173.3 683.45 168.3 Z"/>
</g>

<g id="Symbol_14_0_Layer0_0_FILL">
<path fill="#AED044" stroke="none" d="
M 1347.85 394.9
L 1345.5 392.95 1339.25 392.85
Q 1331.95 395.05 1324.95 397.05 1317.95 399.05 1311.6 400.4 1311.3 400.45 1311.05 400.5 1310.75 400.55 1310.45 400.6 1228.85 423 1141.25 431.85 1053.65 440.7 962.85 439.65 922.1 441.25 881.05 441.2 840 441.15 799 438.95 792.9 438.6 786.85 438.25 780.75 437.85 774.7 437.4 772.15 437.2 769.55 437 766.95 436.8 764.35 436.6 756.4 435.95 748.25 435.2 740.1 434.4 731.85 433.45 729.25 433.95 726.35 435.1 723.45 436.25 722.1 438.35 721.6 438.55 721.25 439
L 720.8 439.6
Q 715.05 447.65 719.5 454.25 723.9 460.85 734.3 466 744.65 471.15 756.7 474.85 762.2 477.55 768.9 479.95 775.6 482.35 782.9 484.45 781.55 484.95 779.75 485.75 778 486.55 776.6 487.45 775.6 488.05 774.65 488.6 773.75 489.2 772.85 489.8 772.75 490.05 772.45 490.2
L 772.1 490.4
Q 766.5 496.55 771.2 502.95 775.9 509.4 785.85 515.05 800.5 526.25 826.15 533.7 851.85 541.2 878.8 545.6 905.8 550 924.3 552.05 932.35 553 940.1 553.6 947.85 554.2 955.35 554.5 954.65 557.85 955.7 561.45 956.8 565.05 959.2 568.85 960.05 570.25 961.1 571.6 962.1 572.95 963.2 574.25 975.85 583.95 994.1 588.45 1012.3 592.95 1031.6 594.55 1050.95 596.15 1066.9 597.15 1066.9 598.4 1067.35 599.6 1067.85 600.8 1068.35 601.65 1077 614.15 1091.65 619.05 1106.3 623.95 1121.9 624.3 1139.05 625.05 1157.6 623.55 1176.1 622.05 1195.1 618.75 1198.75 617.4 1202.4 616.1 1206 614.75 1209.65 613.4 1222.3 608.6 1234.75 603.65 1247.15 598.7 1259.3 593.7 1264.35 591.6 1269.35 589.5 1274.35 587.45 1279.3 585.35 1280.9 584.7 1282.45 584.05 1284 583.35 1285.6 582.7 1290.1 580.75 1294.65 578.65 1299.2 576.6 1303.75 574.45 1314.25 569.5 1324.5 564.1 1334.75 558.7 1344.55 552.9 1345.95 552.1 1347.25 551.25 1348.6 550.45 1349.95 549.65 1350.1 549.55 1350.25 549.45
L 1350.55 549.25
Q 1350.5 549.1 1350.45 548.95 1350.4 548.8 1350.3 548.7 1350.15 548.6 1349.95 548.5 1349.8 548.4 1349.6 548.35 1348.35 544.2 1347 540.3 1345.65 536.4 1345.25 534.85 1337.45 506.15 1326.7 477.65 1315.95 449.15 1307.2 420.35 1307.05 419.85 1306.85 418.8 1306.65 417.75 1306.25 416.4 1315.1 413.45 1323.15 410.15 1331.2 406.8 1338.35 403.15
L 1345.7 398.45 1347.85 394.9
M 796.3 497.5
L 795.8 497.2
Q 795.6 497.05 795.35 496.9 795.4 496.7 795.45 496.55 795.5 496.35 795.55 496.15 795.75 496.5 795.9 496.85 796.1 497.15 796.3 497.5
M 776.95 502.4
Q 777 502.55 777 502.7 775.95 501.7 775.2 500.65 774.45 499.65 774.05 498.6 774.65 499.5 775.35 500.35 776.1 501.2 776.85 502.05 776.9 502.2 776.95 502.4 Z"/>
</g>

<g id="Symbol_7_0_Layer0_0_FILL">
<path fill="#AED044" stroke="none" d="
M 793 728.5
L 804.5 735.2
Q 815.8 741.55 835.15 750 854.5 758.4 879 765
L 889.25 742.3
Q 898.45 720.9 910.3 692.8 922.15 664.75 931.1 643.45
L 940.5 621 915.1 609.95 793 728.5 Z"/>
</g>

<g id="Symbol_15_0_Layer0_0_FILL">
<path fill="#AED044" stroke="none" d="
M 1126.45 316.6
L 1108 333.45
Q 1093.35 347.55 1074.65 365.7 1056 383.85 1040.2 398.95
L 1018.5 418.75 1010.45 429.15 997.7 449.75
Q 982.6 475.4 962.3 507.95 942.05 540.45 920.75 566.3 899.45 592.15 881.3 597.75 863.35 603.05 853.05 615.55 842.7 628.1 842.45 638.5 842.15 648.9 854.3 647.7
L 870.15 641.3 880.85 634.15 893.4 624.35
Q 908.15 613 945.6 597.6 983 582.25 1025.7 564.65 1068.35 547 1098.8 528.8 1146.3 499.3 1173.75 473.9 1201.2 448.5 1215.35 422.2 1229.5 395.85 1237.1 363.6 1242.2 339.45 1227.85 327.85 1213.45 316.3 1191.05 313.4 1168.6 310.5 1149.6 312.3
L 1134.3 314.25 1126.45 316.6 Z"/>
</g>

<g id="Symbol_8_0_Layer0_0_FILL">
<path fill="#AED044" stroke="none" d="
M 1037.75 310.3
Q 1009.25 300.8 986.6 302.35 963.9 303.9 957.85 315.55 952.7 327.45 948.8 344.7 944.85 362 941.6 380.45 938.35 398.9 935.2 414.45 934.25 425.55 959.65 428.65 985.05 431.8 1019.6 430.35 1054.15 428.9 1080.75 426.35
L 1108.75 423.5 1103.9 402.35
Q 1099.35 382.75 1094.8 363
L 1089.75 341.35
Q 1066.25 319.8 1037.75 310.3 Z"/>
</g>

<g id="Symbol_9_0_Layer0_0_FILL">
<path fill="#AED044" stroke="none" d="
M 1012.35 269.55
Q 997.1 271.3 987.9 276.75 978.7 282.25 974.4 287.2 970.05 291.85 964.65 301 959.25 310.15 954.8 320.5 950.35 330.85 948.9 338.95 948 346.8 957.15 356.25 966.25 365.75 981.25 373.2 996.2 380.65 1012.8 382.4 1029.5 383.65 1046.8 379.85 1064.15 376 1077 369.5 1089.85 363 1093.1 356.25 1093 348.8 1088.15 331 1083.35 313.25 1073.85 296.25 1064.3 279.25 1050.15 274.15 1027.6 267.85 1012.35 269.55 Z"/>
</g>

<g id="Symbol_10_0_Layer0_0_FILL">
<path fill="#AED044" stroke="none" d="
M 1099.4 333.3
Q 1110.85 323.1 1118.6 311
L 1115.05 308.9 1104.95 304.7
Q 1091.55 299.45 1068.2 297.6
L 1071.15 308.1
Q 1074.2 317.9 1077.85 329.4 1081.5 340.9 1083.4 346.7
L 1099.4 333.3 Z"/>
</g>

<g id="Symbol_121_0_Layer0_0_FILL">
<path fill="#0083CB" stroke="none" d="
M 1035.4 302.25
L 1033.5 301.25 1031.5 300.65 1029.35 300.45 1027.25 300.65 1025.25 301.25 1023.35 302.25 1021.75 303.6 1020.4 305.25 1019.4 307.1 1018.75 309.15 1018.55 311.25 1018.75 313.35 1019.4 315.4 1020.4 317.25 1021.75 318.9 1023.35 320.25 1025.25 321.25 1027.25 321.85 1029.35 322.05 1031.5 321.85 1033.5 321.25 1035.4 320.25 1037 318.9 1038.35 317.25 1039.35 315.4 1040 313.35 1040.2 311.25 1040 309.15 1039.35 307.1 1038.35 305.25 1037 303.6 1035.4 302.25 Z"/>
</g>

<g id="Symbol_12_0_Layer0_0_FILL">
<path fill="#AED044" stroke="none" d="
M 1040.4 290.7
Q 1036.7 285.45 1029.15 285.1 1020.3 285.55 1015.95 292.1 1011.65 298.6 1010.8 306.75
L 1046.25 307 1045.2 301.3
Q 1044.1 296 1040.4 290.7 Z"/>
</g>

<g id="Symbol_128_0_Layer0_0_FILL">
<path fill="#FFFFFF" stroke="none" d="
M 1312.05 387.9
Q 1308.45 380.1 1303.35 371.4 1298.25 362.7 1292 354.55 1286.3 347.25 1280.2 341.2 1274.05 335.15 1268.15 330.05 1262.2 324.95 1256.95 320.4 1250.85 315.1 1241.85 308.45 1232.85 301.8 1222.9 295.25 1212.9 288.7 1204 283.65 1195.1 278.6 1189.15 276.4 1179.95 272.95 1171 270.15 1162 267.3 1151.5 265.2 1141 263.1 1127.25 261.95 1118.85 261.15 1110.15 257.05 1101.45 252.95 1093.7 246.85 1085.9 240.75 1080.25 234 1074.65 227.25 1072.35 221.15
L 1055.1 378.2
Q 1057.55 379.1 1063.65 381.05 1069.7 383.05 1077.3 385.25 1084.9 387.45 1092.05 389.15 1099.15 390.85 1103.75 391.25 1118.55 392.5 1132.95 393.55 1147.3 394.6 1159.7 394.7 1172.05 394.85 1180.8 393.25 1194.75 390.55 1205.7 387.15 1216.7 383.8 1225.75 381.1 1234.75 378.4 1242.9 377.65 1249.4 377.1 1255.9 376.9 1262.45 376.75 1268.3 377.55 1274.15 378.35 1278.55 380.75 1284.5 384.1 1291.45 388.15 1298.35 392.25 1304.6 396.25 1310.9 400.25 1314.9 403.4
L 1317.9 406.1 1319 408 1318.75 405.5 1317.45 401.1
Q 1315.65 395.7 1312.05 387.9 Z"/>
</g>

<g id="Symbol_129_0_Layer0_0_FILL">
<path fill="#0987CD" stroke="none" d="
M 1035.55 160.15
Q 1035.6 159.35 1035.65 158.55 1035.7 157.7 1035.6 156.95
L 1035.55 156.5 1035.5 156.3
Q 1035.5 156.2 1035.4 156.2
L 1035.2 156.1 1034.9 155.9
Q 1034.45 155.55 1033.5 155.1 1032.55 154.6 1032 154.35 1031.4 154.1 1030.75 153.95 1030.1 153.75 1029.5 153.55 1028.65 153.25 1027.85 152.95 1027 152.6 1026.2 152.25 1024.8 151.6 1023.35 151.35 1021.95 151.05 1020.45 150.65
L 1020.1 150.5 1019.45 150.3
Q 1018.65 150.05 1018 149.85 1017.95 150.2 1017.85 150.7
L 1017.8 151.05 1017.75 151.25
Q 1017.2 154.45 1016.7 157.7 1016.15 160.9 1015.45 164.1 1014.35 169.45 1013.8 175.1 1013.25 180.7 1012.55 186.2 1010.8 199.1 1009.05 211.9 1007.35 224.75 1005.9 237.6 1004 253.9 1001.8 270.15 999.65 286.35 997.8 302.65 996 318.9 995.15 335.3 994.95 338.4 994.9 341.5 994.85 344.65 995.45 347.7 995.55 348 995.6 348.3 995.65 348.55 995.75 348.85
L 996.1 349.6
Q 996.35 350.15 996.55 350.65 996.9 351.25 997.45 351.7 998.05 352.1 998.65 352 999.65 351.7 1000.1 350.9 1000.5 350.1 1000.6 349.1 1000.75 348.1 1000.85 347.2 1002.85 334.1 1004.5 320.95 1006.15 307.75 1007.9 294.6 1008.9 286.9 1009.95 279.35 1011.05 271.8 1012.7 264.2 1014.05 258.2 1015.65 252.3 1017.3 246.4 1019.05 240.5
L 1019.2 240.1 1019.4 239.35
Q 1019.7 238.4 1019.95 237.6 1019.85 238.05 1019.8 238.6
L 1019.7 239.05 1019.7 239.3
Q 1019 244.15 1018.55 249.05 1018.1 253.95 1017.4 258.8 1016.3 265.85 1015.1 272.95 1013.9 280.05 1013.25 287.2 1012.55 294.35 1012.95 301.5 1013.1 303.25 1013.1 304.7 1013.1 306.15 1012.85 307.9 1012.6 309.45 1012.35 311.05 1012.15 312.6 1012.15 314.2 1012.1 314.55 1012.15 314.9 1012.15 315.25 1012.3 315.6 1012.7 316.35 1012.95 316.15 1013.2 315.95 1013.35 315.35 1013.3 315.8 1013.25 316.35
L 1013.2 316.8 1013.15 317
Q 1012.3 323.6 1011.4 330.2 1010.45 336.75 1010.1 343.4 1009.95 345.75 1009.75 348.15 1009.6 350.5 1009.75 352.85 1009.8 353.3 1009.85 353.7 1009.9 354.15 1010 354.55
L 1010.05 354.95 1010.25 355.6
Q 1010.5 356.4 1010.85 357 1011.35 356.75 1011.8 356.35
L 1012.2 356 1012.4 355.75
Q 1013.7 354.2 1014.2 351.55 1014.75 348.85 1014.85 346.05 1014.95 343.2 1014.95 341.25 1015.05 338.2 1015.5 334.9 1015.95 331.6 1016.35 328.55 1017.85 317.15 1019.4 305.75 1021 294.3 1022.3 282.85 1023.65 271.35 1024.4 259.95 1025.1 249.8 1026.35 239.7 1027.55 229.65 1028.95 219.55 1030.3 209.5 1031.4 199.4 1032.55 189.6 1033.7 179.8 1034.9 169.95 1035.55 160.15 Z"/>
</g>

<g id="Symbol_130_0_Layer0_0_FILL">
<path fill="#FFFFFF" stroke="none" d="
M 1031.55 159.6
Q 1031.1 159.55 1030.55 159.5
L 1030.1 159.45 1029.85 159.45
Q 1028.15 159.3 1026.45 159.15 1024.7 159 1023 158.85
L 1020.25 158.6
Q 1019.45 158.5 1018.75 158.45 1018.65 158.95 1018.6 159.45
L 1018.5 160.15
Q 1012.95 199.7 1007.75 239.2 1002.55 278.7 998.55 318.45 994.15 362.35 991.15 406.25 988.2 450.15 987.15 494.3 986.15 542.9 987.45 591.5 988.7 640.1 991.35 688.6 992.7 714.1 994 739.6 995.3 765.1 996.6 790.6
L 996.65 791.05 996.65 791.85
Q 996.7 792.8 996.75 793.6 996.75 794.1 996.8 794.65
L 996.8 795.1 996.85 795.3
Q 996.85 796.2 996.9 797.05 996.95 797.9 997 798.75 997 799.15 997.05 799.6 997.05 800.05 997.05 800.45
L 997.1 800.85 997.1 801.5
Q 997.15 802.35 997.2 803.05 997.65 802.95 998.15 802.9
L 998.85 802.8
Q 1002.15 802.3 1005.45 801.8 1008.75 801.3 1012.05 800.75
L 1014.55 800.4
Q 1014.55 799.95 1014.5 799.4
L 1014.45 798.95 1014.45 798.7
Q 1012 757.95 1009.65 717.2 1007.3 676.4 1005.2 635.65 1001.1 556.65 1002.9 477.7 1004.75 398.75 1012.5 320.05 1015.7 287.9 1019.35 255.9 1023 223.85 1027.2 191.85 1028.1 185.05 1029 178.25 1029.95 171.5 1030.85 164.7
L 1031 163.85
Q 1031.05 163.4 1031.1 163
L 1031.3 161.6
Q 1031.45 160.5 1031.55 159.6 Z"/>
</g>

<g id="Symbol_109_0_Layer0_0_FILL">
<path fill="#FFFFFF" stroke="none" d="
M 882.55 535.5
Q 880.35 525.65 874.6 519.1 868.9 512.6 858.2 513.35 844.3 514.85 825.1 519.9 805.85 524.9 786.25 531.3 766.65 537.7 751.6 543.3 736.6 548.95 731 551.7 720.6 556.8 711.15 562.75 701.65 568.7 694.65 575.9 687.65 583.1 684.65 591.95 681.65 600.85 684.2 611.8 685.85 618.6 689.95 631.25 694 643.85 699.95 660.3 705.9 676.75 713.15 695.05 720.45 713.3 728.5 731.4
L 728.3 735.25
Q 727.95 738.3 729.3 742 730.65 745.7 735.8 748.5 740.95 751.3 752.05 751.55 766.15 751.55 775.8 748.5 785.45 745.4 790.8 741.7
L 795.1 738.4 797.35 736.05
Q 798.8 720.3 802.15 703.3 805.5 686.35 809.8 670.95 814.1 655.55 818.35 644.55 822.65 633.55 825.95 629.75 829.15 626.3 834.9 622.5 840.65 618.7 848.15 614.7 855.7 610.65 864.2 606.45 873 601.9 878.25 594.45 883.55 587 885.1 579.7 886.7 572.35 884.4 568.1 884.95 563.6 884.85 554.45 884.7 545.3 882.55 535.5 Z"/>
</g>

<g id="Symbol_98_0_Layer0_0_FILL">
<path fill="#0987CD" stroke="none" d="
M 1137.8 562.05
L 1136.95 559.4 1136.9 559.35 1136.85 559.2 1136.8 559.15 1135.3 557 1133.35 555.15 1129.05 552.25 1120.1 547.65 1120 547.65 1114.6 545.8 1111.85 545.2 1106.2 544.55 1095 544.55 1073 547.4 1062.15 549.75 1027.75 560.15 1017.5 564.45 1017.45 564.5 1017.4 564.5 1015.2 565.7 1006.95 571.6 999.8 578.7 998.85 579.85 998.6 579.1 998.25 578.65 997.25 578.4 996.3 578.9 996 579.35 995.95 580 996.25 583.1 993.95 586.65 993.75 587.25 993.8 587.8 994.5 588.65 995.5 588.85 996 588.6 996.4 588.1 996.7 587.6 999.1 604.2 1001.6 611.7 1009.25 653.55 1029.45 743.55 1031.3 748.75 1032.55 751.2 1032.65 751.3 1032.7 751.4 1034.25 753.45 1036.1 755.35 1040.2 758.5 1047.05 762.05 1054.35 764.4 1056.8 764.95 1056.85 764.95 1075.6 767.5 1083.75 767.95 1094.75 767.5 1097.45 766.95 1097.5 766.9 1097.6 766.9 1109.45 762.1 1118.5 757.2 1122.7 754.15 1122.85 753.95 1123.05 753.8 1124.4 751.5 1125.45 749 1133.6 721.7 1133.6 721.65 1134.25 719.1 1144.05 652.95 1144.55 621.2 1144 597.5 1142.85 586.95 1138.25 569.55 1137.8 562.05 Z"/>
</g>

<g id="Symbol_131_0_Layer0_0_FILL">
<path fill="#FFFFFF" stroke="none" d="
M 1101.4 492
Q 1089.3 478.35 1074 465.7 1058.7 453 1043.5 445.35 1028.35 437.65 1016.75 438.9 1002.35 441.15 992.75 447.55 983.15 454 978 462.5 972.85 470.95 971.8 479.25 970.7 487.55 973.35 493.45 976.9 501.3 981.75 516.65 986.6 532 992.2 552.6 997.8 573.25 1003.6 596.95 1009.4 620.7 1014.75 645.3 1019.5 666.85 1023.7 686.45 1027.95 706.05 1031.25 721.95 1034.55 737.9 1036.55 748.45
L 1039.1 750.6 1044.05 753.35
Q 1050.2 756.4 1059.35 758.85 1068.55 761.25 1079 761.2 1093.9 760.8 1102.45 758.3 1110.95 755.75 1114.6 753.05
L 1117.35 750.7 1118.35 749.2
Q 1132.1 701.05 1135.7 661.6 1139.3 622.2 1136.55 592.35 1133.8 562.55 1128.45 543.3 1123.1 524.05 1118.95 516.3 1113.5 505.65 1101.4 492 Z"/>
</g>

<g id="Symbol_19_0_Layer0_0_FILL">
<path fill="#FFFFFF" stroke="none" d="
M 656.95 766.95
L 648.9 766.15
Q 647.3 766.15 646.3 767.25 645.25 768.35 645.2 769.8 645.15 771.3 646.5 772.5
L 649.1 773.9 654.55 776.1
Q 661.45 778.7 672.95 780.7 684.4 782.7 699.15 781.9 713.85 781.15 730.65 775.45 742.3 771.1 752.6 762.8 762.95 754.5 770.9 745.45 778.9 736.4 783.5 729.9
L 788.3 722.65 787.25 721.25 784.35 718.45
Q 780.55 714.95 775.95 710.9 771.3 706.9 768.6 704.6 766.5 707.95 761.25 715.5 756 723 748.5 732 741.05 741.05 732.35 748.9 723.6 756.75 714.6 760.8 704.7 764.9 693.85 766.4 683 767.85 673.25 767.75 663.55 767.6 656.95 766.95 Z"/>
</g>

<g id="Symbol_51_0_Layer0_0_FILL">
<path fill="#FFFFFF" stroke="none" d="
M 985.85 192.35
L 988.05 188.95 988.85 186.9
Q 984.8 184.8 978.9 183.9 972.95 183.05 966.7 183.05 960.45 183.1 955.45 183.75 950.4 184.4 948.15 185.35 946.3 186.4 942.55 190.3 938.8 194.2 934.75 198.95 930.65 203.7 927.75 207.15
L 924.7 210.8 926.7 212.15
Q 928.55 213.35 930.55 214.55
L 932.15 215.45 933 215.75
Q 944.4 213.9 951.85 212.6 959.25 211.3 963.9 210 968.55 208.75 971.65 207 975 204.95 979 200.7 982.95 196.4 985.85 192.35 Z"/>
</g>

<g id="Symbol_126_0_Layer0_0_FILL">
<path fill="#FFFFFF" stroke="none" d="
M 752.65 747.45
Q 752.5 759.55 752.3 776.4 752.05 793.25 751.85 808.55 751.65 823.8 751.55 831.05 751.45 839.7 751.8 851.6 752.15 863.5 752.65 875.15 753.2 886.8 753.6 894.65
L 754.05 903
Q 760.2 908.05 773.9 910.2 787.55 912.3 804.4 911.85 821.3 911.35 837.15 908.55 853.05 905.75 863.6 901
L 864.9 893.15
Q 866.1 885.75 867.9 875.05 869.7 864.4 871.65 854.1 873.6 843.85 875.2 837.6 877.05 830.4 879.75 819.45 882.45 808.45 885.15 797.3 887.8 786.2 889.6 778.6
L 891.5 770.55
Q 884.05 756.65 865.1 748.1 846.2 739.55 823.25 735.6 800.35 731.65 780.85 731.6 761.4 731.5 752.8 734.5
L 752.65 747.45 Z"/>
</g>

<g id="Symbol_22_0_Layer0_0_FILL">
<path fill="#0083CB" stroke="none" d="
M 943.65 840.8
Q 942.6 838.75 942.2 837.35 941.45 834.6 941.05 831.85 940.7 829.05 940.15 826.35
L 939.65 824.85 939.1 824.45
Q 938.5 824.55 938.05 825.8 937.65 827 937.65 828.25 937.8 831.4 938.75 835.75 939.7 840.1 941.85 843.7 943.95 847.3 947.65 848.15 951.1 848.6 953.45 845.55 955.8 842.55 957.1 838.5 958.4 834.45 958.75 831.75 958.9 830.75 958.95 828.85 959 826.95 958.7 825.25 958.4 823.5 957.45 822.95
L 957.25 822.9
Q 957.1 822.9 957.05 822.95 956.7 823.3 956.6 823.8
L 956.45 824.5
Q 956.2 826.4 956.15 828.4 956.15 830.4 955.8 832.35 955.5 834.05 954.65 836.85 953.8 839.65 952.5 842.15 951.2 844.6 949.5 845.25 947.75 845.7 946.2 844.3 944.7 842.85 943.65 840.8 Z"/>
</g>

<g id="Symbol_101_0_Layer0_0_FILL">
<path fill="#0987CD" stroke="none" d="
M 951.25 738.5
Q 951.1 735.35 950.7 733.55 950.3 731.75 949.05 731.5 947.75 731.25 945.1 732.75 944.35 734.25 944.25 736.05 944.1 737.9 944.25 739.4 942.9 740.8 941.7 742.65 940.5 744.5 939.65 746.1
L 938.55 748.25
Q 933.45 760.6 932.3 778.25 931.1 795.95 933.15 815 935.2 834.05 939.75 850.5 944.25 867 950.55 877.05 950.9 877.6 951.5 878.55 952.1 879.5 952.9 880.55 953.1 882.2 954.05 883.2 954.95 884.2 957.25 883.55
L 957.4 883.4
Q 957.6 883.45 957.75 883.4 957.95 883.4 958.15 883.35 958.15 883.2 958.15 883.05 958.15 882.9 958.15 882.7 959.7 880.65 959.8 877.45 959.95 874.3 959.55 871.7
L 959.1 868.9
Q 957.2 836.3 955.2 803.7 953.2 771.1 951.25 738.5 Z"/>
</g>

<g id="Symbol_102_0_Layer0_0_FILL">
<path fill="#FFFFFF" stroke="none" d="
M 775.35 771.35
L 780.25 779.3
Q 784.9 786.85 791.3 797.4 797.7 808 803.25 817.3 808.75 826.65 810.65 830.5 813.45 836.4 817.35 847.3 821.3 858.15 825.1 869.8 828.95 881.4 831.55 889.5
L 834.3 898
Q 840.35 902.2 856.75 905.3 873.15 908.4 893 909.25 912.85 910.15 929.4 907.7 945.9 905.2 952.25 898.3 953.15 885.95 953 873.25 952.8 860.6 952.15 848 951.45 835.4 950.9 823.35 950.15 804.95 949.25 788.35 948.4 771.7 947.6 758.65 946.8 745.6 946.3 738
L 945.9 730.15
Q 926.5 724.75 904.1 727.45 881.65 730.1 858.55 737.65 835.45 745.2 814.05 754.4 792.65 763.65 775.35 771.35 Z"/>
</g>

<g id="Symbol_23_0_Layer0_0_FILL">
<path fill="#0083CB" stroke="none" d="
M 943.35 838.65
Q 942.15 836.05 941.4 832.95 940.6 829.9 939.6 827.1
L 939.2 826.4 938.9 826.25
Q 938.6 826.4 938.45 827.1 938.3 827.8 938.3 828.5 938.5 831.6 939.5 835.45 940.5 839.25 942.25 842.4 943.95 845.55 946.3 846.7 950.3 848.25 953.15 845.6 956 842.95 957.6 838.15 959.2 833.4 959.35 828.65 959.35 827.95 959.35 826.95 959.3 825.95 959.1 825.15 958.85 824.4 958.4 824.45 958.25 824.75 958.1 825.1
L 957.95 825.6
Q 957.35 827.6 957.1 829.8 956.8 831.95 956.3 834.1 955.15 838.55 953 841.25 950.85 843.95 948.25 843.6 945.7 843.25 943.35 838.65 Z"/>
</g>

<g id="Symbol_132_0_Layer0_0_FILL">
<path fill="#FFFFFF" stroke="none" d="
M 789.2 341.6
Q 785.8 347.35 777.75 359.8 769.7 372.25 759.95 387.45 750.2 402.65 741.65 416.8 733.1 430.9 728.8 440
L 777.9 447.45
Q 824.55 454 885.8 462.15 947 470.25 993.15 475.85
L 1028.15 479.8 1040.8 480.45 1033 470.6
Q 1027.2 463.4 1019.85 454.8 1012.5 446.25 1006.05 439.35 999.55 432.5 996.25 430.45
L 960.45 414.6
Q 929.2 401.1 889.65 384.25 850.05 367.4 820.4 354.85
L 789.2 341.6 Z"/>
</g>

<g id="Symbol_133_0_Layer0_0_FILL">
<path fill="#0987CD" stroke="none" d="
M 948.5 775.95
L 947.65 774.35
Q 947 773.2 946.1 771.85 945.15 770.45 944.2 769.45 943.55 769.35 943.4 769.9 943.2 770.4 943.1 770.9 942.5 773.7 942.9 775.4 943.3 777.15 944.35 778.65 945.4 780.15 946.8 782.25
L 947.45 783.9
Q 947.9 785.15 948.55 786.7 949.2 788.2 950 789.35 950.1 789.3 950.2 789.25 950.3 789.15 950.4 789.1 950.55 788.8 950.55 788.45 950.55 788.1 950.6 787.95 951.05 786.85 950.7 784.5 950.35 782.1 949.7 779.65 949 777.2 948.5 775.95
M 857.6 787
Q 857.85 787.25 858 787.3
L 862.75 787.8
Q 866.9 788.05 871.3 788.25
L 877.15 788.55
Q 877.6 788.6 878.7 788.75 879.75 788.85 880.85 788.8 882 788.7 882.7 788.2 882.5 788 882.25 787.8
L 881.9 787.55
Q 881.5 787.25 880.8 787 880.15 786.75 879.2 786.55 879.3 786.55 879.45 786.5 879.55 786.45 879.65 786.35 879.65 786.2 879.45 786.05 879.25 785.9 879.15 785.85 878.2 785.15 875.95 784.95 873.75 784.75 871.5 784.75 869.2 784.75 867.95 784.75
L 866.25 784.6
Q 864.9 784.5 863.75 784.3 863.5 784.3 863.3 784.4 863.05 784.5 862.95 784.65 862.5 784.65 862.05 784.6 861.6 784.6 861.25 784.55 861 784.55 860.65 784.75 860.3 784.95 860.2 785.15
L 860.25 785.25
Q 859.85 785.2 859.45 785.2 859.1 785.15 858.75 785.15 858.2 785.25 857.7 785.6 857.25 785.9 857.35 786.5 857.35 786.8 857.6 787
M 945.25 654.15
Q 938.05 671.65 932.85 689.8 927.7 707.95 924.55 728.45 923.7 733.8 923 738.9 922.3 743.95 921.85 748.85 922.25 748.7 922.65 748.6 923 748.45 923.3 748.4 923.6 748.45 923.95 748.5 924.35 748.6 924.45 748.7 926.05 750.4 927.55 754.9 929 759.35 930.3 764.4 931.55 769.45 932.4 772.9 933.05 772.8 933.95 772.85 934.8 772.9 935.85 773.1 935.85 770.65 936.75 767.85 937.65 765 939.7 763.35 941.8 761.65 945.45 762.65 946.95 763.4 948.45 764.65 949.95 765.9 951.1 767.1 952.25 768.3 952.6 768.85 953.95 770.75 955.7 773.9 957.4 777.1 958.65 780.3 959.95 783.5 959.9 785.5 961.1 785.2 962.45 784.9 963.85 784.6 965.35 784.3
L 966.55 784
Q 967.55 783.75 968.75 783.4 969.9 783.05 970.85 782.65 971.6 782.2 972.55 782 973.5 781.85 974.5 782 976.05 781 978.35 780.3 980.7 779.6 982.95 779.2 985.15 778.8 986.45 778.65 987.9 778.4 989.35 778.15 990.75 777.9 992.2 777.65 993.2 777.05 994.25 776.6 995.25 776.1 996.2 775.75 996.8 775.05 997.5 774.35 998.15 773.65 998.9 773 999.4 772.55 1000.2 771.9 1000.95 771.2 1001.9 770.9 1002.85 770.6 1003.85 771.15 1003.95 771.4 1004 771.65 1004.05 771.9 1004.1 772.15 1008.4 767.4 1012.6 762.65 1016.8 757.9 1022 754.15 1022.35 753.8 1022.75 753.5 1023.15 753.2 1023.5 753.7 1023.6 754.75 1023 755.85 1022.45 756.9 1021.8 757.7
L 1020.9 758.85
Q 1019.4 760.95 1017.9 762.85 1016.35 764.8 1014.75 766.6 1019.1 762.15 1023.05 757.5 1027 752.9 1031.25 748
L 1032.25 746.95
Q 1033 746.25 1034.05 745.45 1035.05 744.7 1036.05 744.3 1036.95 746.15 1035.5 748.95 1034.05 751.75 1032.15 754.05
L 1029.8 756.85
Q 1030.924609375 755.5935546875 1032.2 754.45
L 1032.6 754.15
Q 1032.95 753.95 1033.35 753.85 1033.95 755.45 1032.55 757.55 1031.2 759.7 1029.5 761.35
L 1027.45 763.35
Q 1027.3 763.5 1027.15 763.65 1027 763.8 1026.85 763.95 1026.35 764.5 1025.8 765.05 1025.2 765.55 1024.65 766.1 1023.65 767 1022.55 767.9 1021.5 768.8 1020.35 769.7 1018.95 770.8 1017.5 771.9 1016.05 772.95 1014.55 774 1013.65 774.6 1012.8 775.2 1011.9 775.8 1011.05 776.4 1010 777.1 1009 777.8 1008 778.45 1006.95 779.15 1005.7 780.1 1004.4 781 1003.1 781.95 1001.75 782.85 1001.2 783.2 1000.65 783.6 1000.1 783.95 999.5 784.3 1000.1 784.35 1000.7 784.45 1001.3 784.5 1001.9 784.65 1006.6 782.9 1010.9 780.95 1015.15 779.05 1018.5 777.25 1034.55 768.7 1047.3 757.35 1060.05 746 1069.45 732.45 1078.8 718.95 1084.65 703.7 1087.05 698.65 1089.05 693.2 1091 687.8 1092.5 682.15 1093.6 679.6 1094.25 676.65 1094.85 673.75 1095.15 670.7 1097.15 660 1097.85 648.95 1098.55 637.9 1098.05 626.85 1098.35 608.25 1094.65 589.55 1091 570.8 1082.55 552.15 1081.75 550.4 1080.95 548.65
L 1079.35 545.1
Q 1079.05 546.95 1079.75 549.2 1080.5 551.4 1080.8 553.5 1081.15 555.6 1079.6 557 1076.8 559.2 1075.45 557.5 1074.1 555.85 1073.45 552.75 1072.8 549.7 1072.15 547.6 1068.9 548.2 1066.75 544.4 1064.6 540.55 1063.3 535.4 1061.95 530.2 1061.15 526.7
L 1060.65 524.8
Q 1060.3 523.35 1059.85 521.55 1059.4 519.7 1059 518.25 1058.4 517.6 1057.45 517.85
L 1056.65 518.05 1056.2 518.1
Q 1054.05 516.8 1053.95 514.05 1053.85 511.3 1055.15 507.65 1034.95 521.35 1017.3 539.85 999.65 558.35 985.55 578.65 971.45 599 961.85 618.25 952.5 636.7 945.25 654.15
M 1089.15 689.8
Q 1089.4 688.9 1089.6 688.05 1089.8 687.15 1090.05 686.3
L 1090.2 686.05
Q 1090.3 685.95 1090.4 685.85 1090.1 686.85 1089.8 687.85 1089.5 688.8 1089.15 689.8
M 705.9 525.1
Q 705.65 524.6 705.35 524.15 705.2 523.95 705 523.85 704.8 523.75 704.6 523.75 704.25 523.35 704 523 703.7 522.65 703.4 522.3 702.15 521.75 702.45 522.5 702.7 523.2 703.55 524.55 703.5 524.7 703.5 525 703.5 525.35 703.55 525.75
L 702.85 524.1
Q 702.45 523.1 701.8 521.95 701.15 520.8 700.35 520 699.5 519.45 699.35 519.8 699.25 520.15 699.45 520.95 699.65 521.75 699.9 522.65 702 530.85 704.65 539.05 707.3 547.2 709.9 555.45 708.15 552.25 706.3 548.95 704.5 545.6 702.65 541.95 702.35 541.2 701.6 539.65 700.9 538.05 699.9 536.5 698.9 534.95 697.65 534.3 697.2 534.4 696.9 534.7 696.55 535 696.5 535.3
L 696.8 536.6 697.75 538.65
Q 698.95 541.15 700.4 543.7 701.85 546.25 702.55 547.35 703.15 548.35 703.75 549.35 704.3 550.3 704.85 551.3 704.65 551.2 704.45 551.2 704.25 551.2 704.1 551.3
L 704.15 553 705.2 556.25
Q 706.85 560.25 708.95 564.45 711.05 568.65 711.9 570.25
L 712.65 572.2
Q 713.15 573.75 714 575.5 714.8 577.25 716 578.45 717 583.5 717.55 588.65 718.15 593.75 718.1 598.9 717.65 603 717 607.4 716.4 611.8 715.45 615.9 714.55 619.95 713.3 623.15 712.95 625.25 712.45 627.35 711.95 629.45 711.25 631.65 710.95 632.85 710.6 634.05 710.3 635.25 709.9 636.4 709.85 636.65 709.8 636.9 709.75 637.2 709.7 637.45 709.65 637.8 709.55 638.1 709.5 638.45 709.45 638.8 708.7 642.35 707.95 645.7 707.25 649.1 706.3 652.65 705.8 654.5 705.25 656.3 704.65 658.1 704.05 659.9 702.6 663.1 701.35 666.4 700.05 669.75 699.05 671.6 696.8 675.65 695 681.45 693.15 687.25 692.4 693.8 692.55 695.3 692.75 696.8 693 698.25 693.3 699.8
L 693.35 699.9 693.4 700.15
Q 693.4 700.25 693.45 700.35 693.75 701.7 694.1 703.05 694.5 704.4 695 705.8 695.2 706.35 695.4 706.95 695.65 707.5 695.85 708.1 696.1 708.65 696.35 709.2 696.6 709.8 696.9 710.35 697.1 710.8 697.35 711.25 697.55 711.75 697.8 712.2
L 698.05 712.65
Q 698.15 712.9 698.3 713.1 698.9 714.15 700.35 716.4 701.75 718.65 703 720.85
L 703.9 722.75 704.2 723.95
Q 704.2 724.1 704.1 724.4 704 724.7 703.6 724.8
L 703.15 724.75
Q 703.25 724.9 703.35 725.05 703.5 725.2 703.6 725.35 704.45 725.9 706.05 727.05 707.65 728.15 709.55 729.6 711.3 728.15 712.45 726.4 713.65 724.7 714.2 724 722.9 715.3 728 709.45 733.15 703.65 735.8 697.7 738.5 691.8 739.95 682.75 745 665.75 746.25 647.5 747.55 629.25 744.55 610.75 741.6 592.25 733.8 574.55 732.15 570.85 730.3 567.55 728.45 564.2 726.5 561.15 725.8 557.65 724.75 554.6 723.65 551.5 721.95 549.15 720.85 547.6 719.85 545.8 718.85 543.95 718 542.05
L 717.25 540.4
Q 716.65 539.1 715.9 537.55 715.1 535.95 714.35 534.75 713.9 534.35 713.35 534.3 712.8 534.25 712.35 534.65 712.25 534.75 712.2 534.95 712.15 535.1 712.15 535.35 711.2 533.7 710.25 532.1 709.3 530.5 708.3 528.95
L 707.65 527.9
Q 707.1 527.15 706.4 526.15 706.15 525.6 705.9 525.1
M 723.55 564.3
L 723.45 564 723.55 564.15 723.55 564.3
M 709.7 543.15
Q 710.35 543.7 710.1 542.95 709.9 542.2 709.4 541 710 541.85 710.55 542.65 711.1 543.45 711.6 544.1 712.25 545.3 712.85 546.5 713.45 547.7 714.05 548.85 713.5 548.1 712.95 547.45 712.35 546.8 711.8 546.35 711.85 547.15 712.4 548.05
L 713.15 549.25
Q 715 553.9 716.5 558.25 718.05 562.6 719.3 566.8 719.2 566.65 719.05 566.45 718.95 566.3 718.8 566.15 717.1 564 716 561.05 714.9 558.15 713.95 555.05 712.95 551.95 711.65 549.2 711.6 549.1 711.5 548.95
L 711.3 548.55
Q 710.95 547.15 710.5 545.8 710.15 544.45 709.7 543.15
M 1056.6 503.4
Q 1056.65 503.6 1056.75 503.8 1056.85 503.65 1056.9 503.45 1057 503.3 1057.1 503.1 1056.95 503.05 1056.75 503 1056.6 503 1056.45 503.05 1056.5 503.25 1056.6 503.4
M 1103.3 488.7
Q 1103.05 489.15 1102.8 489.6 1103.35 489.3 1103.75 488.9 1104.2 488.5 1104.4 488 1104.25 487.95 1104.1 487.9 1103.95 487.85 1103.8 487.8 1103.55 488.25 1103.3 488.7
M 713.05 591.6
Q 713.15 591.9 713.25 592.2 713.25 591.75 713.3 591.25 713.3 590.8 713.3 590.3 713.15 590.45 713.05 590.6 712.95 590.75 712.95 591 713 591.3 713.05 591.6 Z"/>
</g>

<g id="Symbol_134_0_Layer0_0_FILL">
<path fill="#FFFFFF" stroke="none" d="
M 753.55 440.15
L 740.45 444
Q 728.1 447.85 713.1 455.6 698.05 463.35 689.35 475.05 680.7 486.75 687.25 502.5 692.5 513.4 698.95 526.3 705.4 539.2 711.85 555.55 718.35 571.9 723.6 593.2 725.05 600 723.2 611.8 721.4 623.6 717.8 636.9 714.25 650.25 710.55 661.7 708.45 667.75 705 674.3 701.6 680.8 698.5 688.3 695.4 695.75 694.35 704.65 693.3 713.55 695.95 724.35 701.2 739.45 734.8 752.7 768.45 765.95 813.65 775.5 858.85 785 898.75 789 938.7 792.95 956.55 789.4 975.15 785.55 992.8 780.25 1010.45 774.95 1026.6 765.15 1042.7 755.35 1056.6 737.95 1068.45 722.75 1076.5 702.4 1084.55 682.05 1088.55 659.25 1092.55 636.5 1092.15 613.95 1091.8 591.35 1086.8 571.7 1080.65 548.6 1073.15 532.75 1065.65 516.85 1058.5 507.15 1051.4 497.45 1046.4 492.8
L 1040.35 487.5 994.5 479.25
Q 951.75 472.1 896 463.1 840.25 454.05 798 447.3
L 753.55 440.15 Z"/>
</g>

<g id="Symbol_135_0_Layer0_0_FILL">
<path fill="#0987CD" stroke="none" d="
M 1049.25 310.15
L 1049 312.5
Q 1045.95 332.75 1042.2 348.2 1038.45 363.65 1032.4 376 1026.4 388.35 1016.35 399.3 1006.35 410.2 990.75 421.45 978.8 430.4 968.4 439.15 958 447.95 946.6 454.4 935.2 460.85 920.3 462.85 917.75 463.1 912.5 464.3 907.3 465.55 902.7 467.8 898.1 470.05 897.4 473.55
L 897.4 473.75 896.9 473.8
Q 897 474 897.1 474.2 897.2 474.35 897.35 474.55
L 897.35 474.8
Q 897.45 474.9 897.6 475 897.7 475.1 897.8 475.2 899.25 476.75 902.95 478.2 906.65 479.7 910.2 480.7
L 914.65 481.95
Q 924.4 484.65 936.2 485.2 948 485.75 961 483.65 973.95 481.6 987.35 476.35 999.65 471.35 1009.45 463.35 1019.2 455.35 1026.05 446 1032.9 436.6 1036.4 427.55 1040.65 416.5 1044.8 401.75 1048.95 387 1052.25 370.45 1055.5 353.9 1057.05 337.55 1058.65 321.15 1057.75 307 1057.65 304.8 1057.2 301.9 1056.75 298.95 1055.65 296.75 1054.5 294.55 1052.35 294.5 1051.85 295.8 1051.55 297.5 1051.3 299.2 1051.2 300.8 1051.1 302.4 1051.05 303.4 1051 303.25 1050.9 303.1 1050.8 302.95 1050.6 303 1050.05 304.35 1049.7 306.35 1049.4 308.4 1049.25 310.15 Z"/>
</g>

<g id="Symbol_136_0_Layer0_0_FILL">
<path fill="#0987CD" stroke="none" d="
M 983.4 221.9
Q 983.35 221.85 983.3 221.65 983.2 221.45 983.05 221.3 982.8 220.9 982.3 220.9 981.8 220.95 981.45 221.15 980.9 221.8 980.4 222.75 979.9 223.75 979.5 224.6
L 979 225.7
Q 978.8 226.1 978.55 226.5 978.35 226.95 978.1 227.35
L 977.85 227.3
Q 978.65 224.65 979.1 222.9
L 979.4 221.5 979.45 220.9
Q 979.3 220.75 979 220.8 978.7 220.9 978.65 221.05 978.2 221.85 977.75 222.95 977.35 224 977.05 224.9
L 976.65 226.1
Q 976.3 227.2 975.95 228.3 975.6 229.4 975.25 230.5 974.8 231.4 974.45 232.4 974.1 233.35 973.8 234.35 973.5 235.25 973.25 236.15 972.95 237.1 972.7 238 972.3 239 971.95 240.05 971.65 241.05 971.3 242.1 970.85 243.2 970.35 244.2 969.8 245.25 969.1 246.2
L 968.8 246.6
Q 968.55 246.95 968.5 247.35 968.3 247.6 968.2 247.95 968.15 248.25 968.3 248.6 969.3 248.75 970.3 248.1 971.35 247.45 972.3 246.35 972.55 246.1 972.75 245.8 972.95 245.55 973.15 245.3 973.6 244.7 973.95 244.15 974.35 243.55 974.65 243.05 976 241.15 977.2 239.25 978.4 237.35 979.6 235.15
L 980.35 233.85
Q 980.9 232.9 981.45 231.9 981.8 231.25 982 230.8
L 982.25 230.2 982.15 230.2
Q 982.65 229.5 982.9 228.8 983.15 228.1 982.6 227.7 982.25 227.7 981.95 228.05 981.6 228.4 981.35 228.8 981.25 228.65 981.1 228.6 980.95 228.55 980.8 228.5 981.95 226.2 982.7 224.35
L 983.25 222.85 983.4 221.9 Z"/>

<path fill="#FFFFFF" stroke="none" d="
M 1012.45 184.25
Q 1009.55 185.35 1007.8 188.35 1002.85 197.3 998.6 205 994.3 212.65 990.2 219.3 986.05 225.95 981.45 231.9 980.9 232.9 980.35 233.85
L 979.6 235.15
Q 978.4 237.35 977.2 239.25 976 241.15 974.65 243.05 974.35 243.55 973.95 244.15 973.6 244.7 973.15 245.3 972.95 245.55 972.75 245.8 972.55 246.1 972.3 246.35 971.35 247.45 970.3 248.1 969.3 248.75 968.3 248.6 968.15 248.25 968.2 247.95 968.3 247.6 968.5 247.35 968.55 246.95 968.8 246.6
L 969.1 246.2
Q 969.8 245.25 970.35 244.2 970.85 243.2 971.3 242.1 971.65 241.05 971.95 240.05 972.3 239 972.7 238 972.95 237.1 973.25 236.15 973.5 235.25 973.8 234.35 970.8 233.2 966.6 231.5 962.45 229.75 957.9 227.7 953.35 225.7 949.2 223.55 944.05 220.7 934.8 217.95 925.55 215.15 912.95 214.2 900.35 213.3 885.1 216 869.8 218.75 852.55 227 840.85 232.9 833.35 239.5 825.8 246.1 821.95 251.35
L 817.3 258.3
Q 812.95 267.05 807.85 285.25 802.75 303.45 798.15 323.75 793.55 344 790.75 358.9
L 788.65 370.6 788.15 375.95 789.35 379.6 792.45 386.35
Q 796.5 394.6 805.7 407.45 814.9 420.3 830.8 436.3 844.75 449.8 859.75 458.55 874.75 467.25 887.8 472.1 900.85 476.95 909 478.85 925.4 482.75 940.9 482.1 956.35 481.4 969.6 477.75 982.85 474.05 992.65 469.05 1002.5 464.05 1007.65 459.3 1018.75 449.15 1026.7 434.1 1034.65 419.05 1039.55 400.65 1044.4 382.25 1046.35 362 1048.3 341.75 1047.35 321.1 1046.05 295.55 1042.85 273.45 1039.65 251.4 1035.65 233.9 1031.65 216.45 1027.95 204.65 1024.3 192.85 1022.15 187.85 1020.8 184.9 1018.05 184 1015.3 183.1 1012.45 184.25 Z"/>
</g>

<g id="Symbol_26_0_Layer0_0_FILL">
<path fill="#FFFFFF" stroke="none" d="
M 889.05 162.7
Q 882.2 166.25 875.95 171.05 869.7 175.8 865.25 180.35 860.8 184.9 859.45 187.7 858.55 190.25 858.1 197.25 857.65 204.25 857.5 212.35 857.35 220.4 857.35 226.25
L 857.35 232.35 860.15 232.1
Q 862.8 231.85 866.3 231.45 869.8 231.05 872.55 230.65
L 874.75 230.25 875.7 229.95
Q 884.4 218.9 889.6 211 894.75 203.05 897.2 197.95 899.6 192.85 900.1 190.3 900.55 188.15 901.15 183.4 901.8 178.65 902.25 173.2 902.7 167.75 902.75 163.55
L 902.55 160.15 902 158.35
Q 895.85 159.15 889.05 162.7 Z"/>
</g>

<g id="Symbol_110_0_Layer0_0_FILL">
<path fill="#0083CB" stroke="none" d="
M 887.8 323.3
Q 885.7 321.95 883.15 321.75 880.6 321.6 878.25 322.65 875.95 323.7 874.05 325.75 872.15 327.8 870.95 330.6 869.7 333.35 869.35 336.65 869.05 339.95 869.7 342.85 870.35 345.8 871.8 348.05 873.25 350.35 875.35 351.7 877.45 353.1 880 353.3 882.55 353.45 884.85 352.4 887.2 351.3 889.1 349.25 891 347.2 892.2 344.45 893.45 341.65 893.8 338.35 894.1 335.05 893.45 332.15 892.8 329.25 891.35 326.95 889.85 324.7 887.8 323.3 Z"/>
</g>

<g id="Symbol_28_0_Layer0_0_FILL">
<path fill="#FFFFFF" stroke="none" d="
M 986.25 295.45
Q 983.9 288.7 978.35 283.8 972.85 278.85 963.05 277.05 953.1 275.55 946.15 278.6 939.15 281.7 934.5 287.45 929.85 293.25 927 299.8 924.15 306.3 922.45 311.7 931.35 312.7 942.55 314.6 953.75 316.45 965.55 318.7 977.3 320.9 987.9 323.05 988.85 316.6 988.7 309.4 988.55 302.15 986.25 295.45 Z"/>
</g>
</defs>



<g transform="matrix( -0.1413421630859375, -0.0914154052734375, 0.046295166015625, -0.157012939453125, 1187.7,271.8) ">
<g transform="matrix( 1, 0, 0, 1, 0,0) ">
<use xlink:href="#Symbol_13_0_Layer0_0_FILL"/>
</g>
</g>

<g transform="matrix( -0.0924530029296875, -0.1627960205078125, 0.1165008544921875, -0.0806884765625, 1142.15,347.15) ">
<g transform="matrix( 1, 0, 0, 1, 0,0) ">
<use xlink:href="#Symbol_14_0_Layer0_0_FILL"/>
</g>
</g>

<g transform="matrix( 0.0970001220703125, -0.1197662353515625, 0.122894287109375, 0.17547607421875, 934.2,115.6) ">
<g transform="matrix( 1, 0, 0, 1, 0,0) ">
<use xlink:href="#Symbol_7_0_Layer0_0_FILL"/>
</g>
</g>

<g transform="matrix( -0.028839111328125, -0.2023162841796875, 0.163177490234375, 0.007232666015625, 1047.7,327.2) ">
<g transform="matrix( 1, 0, 0, 1, 0,0) ">
<use xlink:href="#Symbol_15_0_Layer0_0_FILL"/>
</g>
</g>

<g transform="matrix( 0.00701904296875, -0.1317901611328125, 0.1119842529296875, 0.0326385498046875, 1015.75,211.7) ">
<g transform="matrix( 1, 0, 0, 1, 0,0) ">
<use xlink:href="#Symbol_8_0_Layer0_0_FILL"/>
</g>
</g>

<g transform="matrix( 0.00701904296875, -0.1317901611328125, 0.1119842529296875, 0.0326385498046875, 1015.75,211.7) ">
<g transform="matrix( 1, 0, 0, 1, 0,0) ">
<use xlink:href="#Symbol_9_0_Layer0_0_FILL"/>
</g>
</g>

<g transform="matrix( -0.0823211669921875, -0.108612060546875, 0.0762481689453125, -0.081451416015625, 1119.45,225.65) ">
<g transform="matrix( 1, 0, 0, 1, 0,0) ">
<use xlink:href="#Symbol_10_0_Layer0_0_FILL"/>
</g>
</g>

<g transform="matrix( 0.00701904296875, -0.1317901611328125, 0.1119842529296875, 0.0326385498046875, 1015.75,211.7) ">
<g transform="matrix( 1, 0, 0, 1, 0,0) ">
<use xlink:href="#Symbol_121_0_Layer0_0_FILL"/>
</g>
</g>

<g transform="matrix( 0.00701904296875, -0.1317901611328125, 0.1119842529296875, 0.0326385498046875, 1015.75,211.7) ">
<g transform="matrix( 1, 0, 0, 1, 0,0) ">
<use xlink:href="#Symbol_12_0_Layer0_0_FILL"/>
</g>
</g>

<g transform="matrix( 0.7431488037109375, 0.749755859375, 0.302093505859375, -1.0171356201171875, 212.7,-193.85) ">
<g transform="matrix( 1, 0, 0, 1, 0,0) ">
<use xlink:href="#Symbol_128_0_Layer0_0_FILL"/>
</g>
</g>

<g transform="matrix( 1.049468994140625, 0.0149383544921875, -0.0149383544921875, 1.049468994140625, 35.55,28.55) ">
<g transform="matrix( 1, 0, 0, 1, 0,0) ">
<use xlink:href="#Symbol_129_0_Layer0_0_FILL"/>
</g>
</g>

<g transform="matrix( 1.049468994140625, 0.0149383544921875, -0.0149383544921875, 1.049468994140625, 35.55,28.55) ">
<g transform="matrix( 1, 0, 0, 1, 0,0) ">
<use xlink:href="#Symbol_130_0_Layer0_0_FILL"/>
</g>
</g>

<g transform="matrix( 0.6408538818359375, -0.2014312744140625, 0.1974334716796875, 0.6262359619140625, 119.45,397.35) ">
<g transform="matrix( 1, 0, 0, 1, 0,0) ">
<use xlink:href="#Symbol_109_0_Layer0_0_FILL"/>
</g>
</g>

<g transform="matrix( -0.3535003662109375, -0.5651397705078125, 0.568572998046875, -0.3549957275390625, 1020.75,1376.2) ">
<g transform="matrix( 1, 0, 0, 1, 0,0) ">
<use xlink:href="#Symbol_98_0_Layer0_0_FILL"/>
</g>
</g>

<g transform="matrix( -0.3535003662109375, -0.5651397705078125, 0.568572998046875, -0.3549957275390625, 1020.75,1376.2) ">
<g transform="matrix( 1, 0, 0, 1, 0,0) ">
<use xlink:href="#Symbol_131_0_Layer0_0_FILL"/>
</g>
</g>

<g transform="matrix( -0.6622772216796875, -0.0873565673828125, -0.0616607666015625, 0.6666107177734375, 1489.1,301.9) ">
<g transform="matrix( 1, 0, 0, 1, 0,0) ">
<use xlink:href="#Symbol_19_0_Layer0_0_FILL"/>
</g>
</g>

<g transform="matrix( 0.684814453125, 0.01385498046875, 0.0534515380859375, 0.7347412109375, 248.35,238.1) ">
<g transform="matrix( 1, 0, 0, 1, 0,0) ">
<use xlink:href="#Symbol_51_0_Layer0_0_FILL"/>
</g>
</g>

<g transform="matrix( 0.7678375244140625, 0.0839996337890625, 0.0727386474609375, 0.8795013427734375, 124.15,17.95) ">
<g transform="matrix( 1, 0, 0, 1, 0,0) ">
<use xlink:href="#Symbol_126_0_Layer0_0_FILL"/>
</g>
</g>

<g transform="matrix( 0.746673583984375, 0.2081451416015625, 0.0762176513671875, 0.8281402587890625, 15.6,-40.55) ">
<g transform="matrix( 1, 0, 0, 1, 0,0) ">
<use xlink:href="#Symbol_22_0_Layer0_0_FILL"/>
</g>
</g>

<g transform="matrix( 0.6865234375, -0.0161895751953125, 0.2397308349609375, 0.8995513916015625, 141.15,85.4) ">
<g transform="matrix( 1, 0, 0, 1, 0,0) ">
<use xlink:href="#Symbol_101_0_Layer0_0_FILL"/>
</g>
</g>

<g transform="matrix( 0.6865234375, -0.0161895751953125, 0.2397308349609375, 0.8995513916015625, 141.15,85.4) ">
<g transform="matrix( 1, 0, 0, 1, 0,0) ">
<use xlink:href="#Symbol_102_0_Layer0_0_FILL"/>
</g>
</g>

<g transform="matrix( 0.7352142333984375, 0.0272674560546875, 0.188507080078125, 0.8241119384765625, 131.35,126.6) ">
<g transform="matrix( 1, 0, 0, 1, 0,0) ">
<use xlink:href="#Symbol_23_0_Layer0_0_FILL"/>
</g>
</g>

<g transform="matrix( 0.40301513671875, -0.0418243408203125, 0.13128662109375, 0.6315155029296875, 421.1,316.6) ">
<g transform="matrix( 1, 0, 0, 1, 0,0) ">
<use xlink:href="#Symbol_132_0_Layer0_0_FILL"/>
</g>
</g>

<g transform="matrix( -0.6281890869140625, -0.137664794921875, -0.0515289306640625, 0.704559326171875, 1446.65,349.65) ">
<g transform="matrix( 1, 0, 0, 1, 0,0) ">
<use xlink:href="#Symbol_133_0_Layer0_0_FILL"/>
</g>
</g>

<g transform="matrix( -0.6281890869140625, -0.137664794921875, -0.0515289306640625, 0.704559326171875, 1446.65,349.65) ">
<g transform="matrix( 1, 0, 0, 1, 0,0) ">
<use xlink:href="#Symbol_134_0_Layer0_0_FILL"/>
</g>
</g>

<g transform="matrix( 0.8116607666015625, 0.05841064453125, -0.08587646484375, 0.6664886474609375, 176.6,203.65) ">
<g transform="matrix( 1, 0, 0, 1, 0,0) ">
<use xlink:href="#Symbol_135_0_Layer0_0_FILL"/>
</g>
</g>

<g transform="matrix( 0.8116607666015625, 0.05841064453125, -0.08587646484375, 0.6664886474609375, 176.6,203.65) ">
<g transform="matrix( 1, 0, 0, 1, 0,0) ">
<use xlink:href="#Symbol_136_0_Layer0_0_FILL"/>
</g>
</g>

<g transform="matrix( 0.6014862060546875, 0.3310089111328125, -0.1606597900390625, 0.6318206787109375, 360.7,-21.15) ">
<g transform="matrix( 1, 0, 0, 1, 0,0) ">
<use xlink:href="#Symbol_26_0_Layer0_0_FILL"/>
</g>
</g>

<g transform="matrix( -0.581146240234375, -0.0459747314453125, -0.065460205078125, 0.622283935546875, 1422.75,308.25) ">
<g transform="matrix( 1, 0, 0, 1, 0,0) ">
<use xlink:href="#Symbol_110_0_Layer0_0_FILL"/>
</g>
</g>

<g transform="matrix( 0.663970947265625, 0.1195831298828125, -0.1181488037109375, 0.631195068359375, 227.75,145.3) ">
<g transform="matrix( 1, 0, 0, 1, 0,0) ">
<use xlink:href="#Symbol_28_0_Layer0_0_FILL"/>
</g>
</g>
</svg>
