
<svg xmlns="http://www.w3.org/2000/svg" version="1.1" xmlns:xlink="http://www.w3.org/1999/xlink" preserveAspectRatio="none" x="0px" y="0px" width="760px" height="880px" viewBox="620 10 760 880">
<defs>


<g id="Layer0_0_FILL">
<path fill="#a6ce38" stroke="none" d="
M 738.25 254.35
Q 735.8 251.6 733.3 248.85 730.85 246.1 728.4 243.35 726.45 241.2 724.5 239.05 722.55 236.9 720.6 234.75 718.55 232.45 716.45 230.2 714.4 227.95 712.3 225.7 711.4 224.75 709.3 223 707.2 221.25 704.5 219 700.25 217.6 696.2 216.55 692.1 215.5 688.25 214.9 681.2 213 673.75 212.85 666.3 212.7 659.65 214.4
L 658.1 214.85
Q 656.85 215.25 655.8 215.7 655.45 215.9 655.05 216.05
L 654.5 216.25
Q 648.35 219.65 647.35 224.9 646.35 230.15 648.5 235.85 650.6 241.6 653.95 246.4 647.55 243.75 641.4 241.85 635.3 240 629.95 239.2 619.2 235.1 608.9 233.75 598.65 232.35 591.95 236.65 585.25 240.9 585.3 253.75
L 585.3 254.65
Q 585.35 255.4 585.6 256 585.5 258.85 586.7 261.75 587.95 264.65 589.5 266.95 594.6 270.25 599.7 273.65 604.8 277 609.9 280.45 624.8 290.45 639.65 300.95 654.5 311.45 669.25 322.4 723.5 362.8 776.05 409.9 828.6 457.05 878.7 511.35
L 878.7 511.05
Q 878.15 495.85 880.95 478.65 883.75 461.45 887.5 444.8 882.75 435.65 877.2 427 871.7 418.35 865.55 410.35 848.65 387.85 831.65 364.8 814.65 341.7 796.4 320.65
L 795.1 319.15
Q 786.85 310.4 778.6 301.55 770.4 292.75 762.35 283.7 760.25 281.3 758.2 278.9 756.1 276.5 754.05 274.05 752.75 272.55 751.45 271 750.2 269.45 748.95 267.95 747.9 266.7 746.85 265.4 745.8 264.05 744.7 262.65 743.15 260.7 741.55 258.6 739.9 256.55 738.25 254.35
M 740.75 245.1
L 741.7 246.3
Q 743 247.8 744.3 249.25 745.55 250.75 746.85 252.2 752.2 258.25 757.55 264.35 762.95 270.4 768.3 276.5 768.6 276.9 768.95 277.3
L 769.65 278.05
Q 773.6 282.55 777.55 287.05 781.5 291.6 785.4 296.1 802.55 313.7 819.25 331.55 835.9 349.45 850 368.75 858.5 380.25 869.9 394.25 881.3 408.25 892 423.2
L 892.1 422.7
Q 892.15 422.45 892.2 422.25 894.35 413.6 898.25 412.95 902.1 412.35 900.85 420.3 900.2 423.3 899.5 426.35 898.85 429.35 898.2 432.35 903.45 440.5 907.25 448.35 911.1 456.25 912.95 463.6
L 913.85 467.15
Q 914.5 469.85 914.3 472.15 914.2 472.7 913.85 473.35 913.45 474 913.1 474.25 912.35 474.6 911.7 474.75 911.05 474.9 910.5 474.85 911.3 476.8 912.15 478.85 913.05 480.85 913.95 482.9
L 915.75 486.7
Q 917.1 489.6 917.15 492.3 915.95 494.85 914.45 495.7
L 912.6 495.35 910 492.7
Q 908.8 491.1 907.75 489.2 906.7 487.3 905.75 485.15 904.05 484.4 903.1 482.1 902.1 479.8 901.3 477.2 899.6 472 897.6 466.85 895.55 461.7 893.3 456.65 890.9 469.5 889.3 482.4 887.7 495.25 887.15 508.2
L 887.45 513.3
Q 887.75 517.05 887.2 520.55
L 887.2 520.6
Q 887.75 521.25 888.3 521.85
L 889.6 523.25
Q 902.45 537.55 915.15 552.3 927.8 567.05 940.25 582.3 941.5 583.8 942.7 585.3 943.95 586.85 945.2 588.35 945.35 588.1 945.5 587.85 945.65 587.6 945.8 587.4 945.95 587.1 946.1 586.85 946.25 586.6 946.45 586.35 946.6 586.05 946.8 585.75
L 947.2 585.15
Q 956.5 570.35 967.5 556.1 978.5 541.9 990.65 529.1 997.65 521.75 1004.9 515.1 1012.2 508.45 1019.65 502.7 1020.45 502.05 1021.25 501.45 1022.05 500.85 1022.85 500.25 1021.9 498.2 1021 496.15 1020.05 494.1 1019.1 492.05
L 1018.45 490.65
Q 1007.5 467.2 994.3 444.7 981.1 422.2 965.25 400 963.05 396.95 960.85 393.9 958.6 390.85 956.3 387.8 955.05 386.1 953.8 384.45 952.5 382.75 951.2 381.05 948.2 377.1 945.05 373 941.9 368.9 938.7 364.7 936.05 361.25 933.4 357.75 930.7 354.3 927.95 350.75 927.35 349.95 926.7 349.15 926.05 348.35 925.45 347.55
L 925.3 347.35
Q 925.2 347.25 925.15 347.2
L 925.05 347 924.95 346.9
Q 918.9 339.2 912.6 331.6 906.35 324.05 899.85 316.85 896.95 313.6 894 310.45 891.05 307.3 888.05 304.3 884.2 300.4 880.3 296.8 876.4 293.2 872.45 289.9 867 285.3 860.85 281.35 854.75 277.35 848.15 274.5 844.35 272.85 840.4 271.75 836.45 270.65 832.45 270.15 831.05 270.75 829.7 271.5 828.35 272.25 827.05 273.15 823.35 275.7 820.7 278.95 818.05 282.15 816.8 286.4 811.15 281.6 805.2 277 799.2 272.4 792.8 268 780.9 259.65 763.55 248.7 746.25 237.8 727.25 228.45 730.8 232.7 734.25 236.95 737.65 241.15 740.75 245.1 Z"/>
</g>

<g id="Layer0_1_FILL">
<path fill="#a6ce38" stroke="none" d="
M 1515 490.4
Q 1490.8 489.1 1467.1 487.6 1443.4 486.05 1420 484.05 1401.3 480.35 1383 475.95 1364.65 471.6 1345.3 465 1329.5 459.25 1314.15 452.05 1298.8 444.9 1283.4 439.9 1282.1 439.35 1278.85 438.25 1275.6 437.15 1273.15 438.35 1271.9 441.4 1274.75 443.8 1277.6 446.15 1279.45 447.6 1282.5 450.55 1285.6 453.1 1288.65 455.7 1291.8 457.95 1290.55 457.4 1289.3 456.75 1288.1 456.15 1286.85 455.5 1285.5 454.7 1282 452.95 1278.5 451.15 1275.65 451.25 1275.05 451.7 1275.25 452.2 1275.4 452.7 1275.75 453.15 1276.9 454.75 1278.9 456.5 1280.95 458.2 1283.75 460.05
L 1283.5 460.1
Q 1283 460.4 1283 460.9 1282.95 461.45 1283.15 461.9 1283.5 462.95 1284.25 464 1285 465.05 1286.05 466.05 1278.85 464.65 1271.55 463.1 1264.3 461.6 1257.05 459.95 1256.45 459.85 1255.3 459.55 1254.1 459.3 1252.6 459.05 1252.2 457.5 1251.55 456.35 1250.85 455.2 1249.9 454.65 1249.3 455.05 1249.3 455.75 1249.3 456.5 1249.35 456.9 1249.4 457.35 1249.4 457.8 1249.4 458.25 1249.4 458.7 1248.4 458.65 1247.5 458.75 1246.6 458.85 1245.9 459.15 1246.35 459.4 1246.7 459.8
L 1247.2 460.3
Q 1247.8 460.7 1248.35 461.1 1248.9 461.5 1249.5 461.85 1249.6 464.55 1249.65 467.25 1249.65 470 1249.5 472.7
L 1249.45 473.1
Q 1249.35 473.3 1249.3 473.45
L 1249.2 473.65
Q 1245.9 483.9 1247.05 495 1248.25 506.05 1251.6 516.95 1255 527.85 1258.3 537.55 1263.25 552.7 1270 565.3 1276.8 577.85 1284.95 589.8 1288 594.9 1291.15 599.85 1294.3 604.8 1297.5 609.5 1295.75 608.35 1293.95 607.25 1292.15 606.1 1290.3 605
L 1287.4 603.3
Q 1285.05 601.9 1283.35 600.45 1284.1 599.15 1285.8 598.55 1287.5 597.9 1287.95 596.8 1286.4 597.55 1284.8 598.2 1283.25 598.85 1281.65 599.5 1281.25 599.95 1281.05 600.65 1280.85 601.3 1281 601.8
L 1282.5 603.65 1285.75 606.6
Q 1289.95 610.05 1295.7 614.35 1301.5 618.65 1306.85 622.45 1308.3 623.95 1309.7 624.9 1311.15 625.9 1312.4 626.3 1313.8 627.25 1314.85 627.95 1315.85 628.65 1316.45 629 1340.75 644.45 1371.2 657.3 1401.65 670.1 1433.4 673.95 1465.1 677.8 1493.2 666.3 1493.85 666 1495.1 665.4 1496.4 664.8 1497.9 663.95 1517.4 665.25 1535.55 659.85 1553.7 654.4 1568.4 640.45 1568.6 640.3 1569 639.85 1569.45 639.4 1570.05 638.75 1573.65 635.25 1576.5 631.6 1579.4 627.95 1580.2 625.95 1580.65 624.6 1580.75 623.25 1580.9 621.95 1580.7 620.7 1603 620.95 1623.7 616.8 1644.4 612.7 1659.7 601.85 1675 591.05 1681.1 571.1 1681.85 569.2 1682.5 567.25 1683.1 565.3 1683.55 563.3
L 1684.05 560.7
Q 1684.35 558.6 1684.25 556.2 1696.5 551.5 1705.85 545.4 1715.2 539.3 1719.25 531.95 1724.1 524.65 1723 519.65 1721.85 514.65 1716.95 511.5 1712.05 508.35 1705.65 506.7 1700.05 504 1687.85 502.45 1675.6 500.85 1663.25 500.15 1650.9 499.45 1644.9 499.4 1611.9 498.65 1579.75 495.55 1547.65 492.45 1515 490.4 Z"/>
</g>

<g id="Symbol_7_0_Layer0_0_FILL">
<path fill="#a6ce38" stroke="none" d="
M 793 728.5
L 804.5 735.2
Q 815.8 741.55 835.15 750 854.5 758.4 879 765
L 889.25 742.3
Q 898.45 720.9 910.3 692.8 922.15 664.75 931.1 643.45
L 940.5 621 915.1 609.95 793 728.5 Z"/>
</g>

<g id="Layer0_3_FILL">
<path fill="#a6ce38" stroke="none" d="
M 1103.8 327.1
Q 1081.3 340.7 1054.7 359.7 1028.1 378.75 1007.75 399.7 992.25 416.95 976 449.15 959.8 481.3 943.35 517.55 926.9 553.85 910.8 583.45 894.75 613.1 879.5 625.35 860.35 640.85 865.05 650.05 869.8 659.25 885.2 657.45 900.65 655.65 913.6 638.15 924.4 623.6 957.2 605.1 989.95 586.6 1029.25 566.85 1068.5 547.1 1098.8 528.8 1146.65 498.65 1176.85 468.35 1207 438.05 1221.95 410.45 1236.85 382.85 1238.95 360.75 1240.95 334.8 1227.75 321.85 1214.5 308.85 1194.85 305.15 1175.15 301.45 1157.85 303.3 1140.55 305.15 1134.4 308.75
L 1103.8 327.1 Z"/>
</g>

<g id="Symbol_8_0_Layer0_0_FILL">
<path fill="#a6ce38" stroke="none" d="
M 1037.75 310.3
Q 1009.25 300.8 986.6 302.35 963.9 303.9 957.85 315.55 952.7 327.45 948.8 344.7 944.85 362 941.6 380.45 938.35 398.9 935.2 414.45 934.25 425.55 959.65 428.65 985.05 431.8 1019.6 430.35 1054.15 428.9 1080.75 426.35
L 1108.75 423.5 1103.9 402.35
Q 1099.35 382.75 1094.8 363
L 1089.75 341.35
Q 1066.25 319.8 1037.75 310.3 Z"/>
</g>

<g id="Symbol_9_0_Layer0_0_FILL">
<path fill="#a6ce38" stroke="none" d="
M 1012.35 269.55
Q 997.1 271.3 987.9 276.75 978.7 282.25 974.4 287.2 970.05 291.85 964.65 301 959.25 310.15 954.8 320.5 950.35 330.85 948.9 338.95 948 346.8 957.15 356.25 966.25 365.75 981.25 373.2 996.2 380.65 1012.8 382.4 1029.5 383.65 1046.8 379.85 1064.15 376 1077 369.5 1089.85 363 1093.1 356.25 1093 348.8 1088.15 331 1083.35 313.25 1073.85 296.25 1064.3 279.25 1050.15 274.15 1027.6 267.85 1012.35 269.55 Z"/>
</g>

<g id="Symbol_10_0_Layer0_0_FILL">
<path fill="#a6ce38" stroke="none" d="
M 1099.4 333.3
Q 1110.85 323.1 1118.6 311
L 1115.05 308.9 1104.95 304.7
Q 1091.55 299.45 1068.2 297.6
L 1071.15 308.1
Q 1074.2 317.9 1077.85 329.4 1081.5 340.9 1083.4 346.7
L 1099.4 333.3 Z"/>
</g>

<g id="Layer0_7_FILL">
<path fill="#0083CB" stroke="none" d="
M 1035.4 302.25
L 1033.5 301.25 1031.5 300.65 1029.35 300.45 1027.25 300.65 1025.25 301.25 1023.35 302.25 1021.75 303.6 1020.4 305.25 1019.4 307.1 1018.75 309.15 1018.55 311.25 1018.75 313.35 1019.4 315.4 1020.4 317.25 1021.75 318.9 1023.35 320.25 1025.25 321.25 1027.25 321.85 1029.35 322.05 1031.5 321.85 1033.5 321.25 1035.4 320.25 1037 318.9 1038.35 317.25 1039.35 315.4 1040 313.35 1040.2 311.25 1040 309.15 1039.35 307.1 1038.35 305.25 1037 303.6 1035.4 302.25 Z"/>
</g>

<g id="Symbol_12_0_Layer0_0_FILL">
<path fill="#a6ce38" stroke="none" d="
M 1040.4 290.7
Q 1036.7 285.45 1029.15 285.1 1020.3 285.55 1015.95 292.1 1011.65 298.6 1010.8 306.75
L 1046.25 307 1045.2 301.3
Q 1044.1 296 1040.4 290.7 Z"/>
</g>

<g id="Layer0_9_FILL">
<path fill="#FFFFFF" stroke="none" d="
M 1303.6 521.8
Q 1315 522.55 1331.1 521.9 1347.2 521.3 1362.9 519.8 1378.55 518.3 1388.6 516.45
L 1395.95 514.55 1397.6 513.65 1397.95 512.75 1383.45 508.6
Q 1369.75 504.95 1349.15 499.3 1328.55 493.6 1307 486.85 1285.45 480.1 1269 473.2 1258 468.6 1244.9 461.4 1231.8 454.2 1217.85 444.3 1203.9 434.4 1190.4 421.75 1176.85 409.05 1165 393.45 1152.6 376.85 1142.35 359.9 1132.1 342.95 1124.35 327.95 1116.6 313 1111.7 302.4
L 1105.15 287.85
Q 1102.5 281.8 1098.1 272.65 1093.75 263.5 1088.75 253.5 1083.8 243.5 1079.4 234.85 1075 226.2 1072.35 221.15
L 1057.35 370.05
Q 1060.45 371.25 1064.1 374.5 1067.75 377.75 1071.95 382.55 1076.15 387.4 1080.9 393.25 1096.6 412.7 1110.15 427.15 1123.65 441.65 1137.3 452.55 1150.95 463.45 1166.95 472.15 1183.55 481.2 1202.85 489.7 1222.15 498.2 1241.4 505.2 1260.6 512.2 1276.85 516.6 1293.15 521 1303.6 521.8 Z"/>
</g>

<g id="Layer0_10_FILL">
<path fill="#0081c6" stroke="none" d="
M 960.65 -48.7
L 960.2 -49.2
Q 960.15 -49.25 960.05 -49.25
L 959.85 -49.2 959.45 -49.2
Q 958 -49.3 956.3 -48.85 954.65 -48.45 953.25 -48.1 952.5 -47.9 951.75 -47.75 951 -47.6 950.25 -47.5 948.65 -47.25 947.2 -46.65 945.7 -46.1 944.15 -45.55
L 943.85 -45.5 943.3 -45.35
Q 942.6 -45.15 942.05 -45 942.25 -44.55 942.45 -44
L 942.75 -43.35
Q 944.75 -38.7 946.7 -34 948.6 -29.3 950.85 -24.75 958.3 -9.85 964.75 5.6 971.2 21.1 977.25 36.65 984.55 55.35 990.6 74.5 996.65 93.6 1002.15 112.95 1007.65 132.25 1013.25 151.5 1014.15 154.65 1015.1 157.85 1016.1 161 1017.5 163.95 1017.7 164.25 1017.85 164.6 1018 164.95 1018.2 165.25
L 1018.9 166.3
Q 1019.45 167.15 1019.95 167.8 1020.4 168.35 1021.1 168.75 1021.8 169.2 1022.45 168.75 1023.35 168.1 1023.45 167 1023.55 165.9 1023.25 164.75 1023 163.6 1022.8 162.7 1019.8 146.3 1015.75 129.9 1011.7 113.5 1007.15 97.45 1004.25 87.45 1001.35 77.55 998.5 67.65 996.1 57.5 994.9 52.45 993.8 47.4 992.7 42.35 991.6 37.25
L 990.95 34.25
Q 990.75 33.15 990.55 32.25 990.7 32.7 990.85 33.15
L 991 33.55 991.05 33.8
Q 993.05 39.25 995.15 44.55 997.25 49.9 999.05 55.45 1001.65 63.65 1004 71.95 1006.4 80.3 1009.1 88.5 1011.85 96.7 1015.5 104.5 1016.8 107.35 1017.55 110.35 1018.35 113.4 1019.15 116.4 1019.25 116.8 1019.4 117.2 1019.5 117.6 1019.65 118 1019.75 118.35 1020.1 119.1 1020.45 119.9 1021.05 120.15
L 1021.05 119.95 1021.1 119.5
Q 1021.15 118.9 1021.35 119.05
L 1021.6 119.9
Q 1021.8 120.6 1021.95 121.4
L 1022.2 122.4
Q 1024.35 130.75 1026.25 139.2 1028.1 147.6 1030.45 155.9 1031.3 159.1 1032.1 162.3 1032.9 165.55 1034.3 168.6
L 1034.9 169.7
Q 1035.35 170.5 1035.9 171.15 1036.15 170.8 1036.4 170.4
L 1036.65 169.85
Q 1037.45 167.55 1037.15 164.25 1036.8 161 1035.95 157.7 1035.1 154.4 1034.4 152.1 1032.15 144.55 1030.35 136.75 1028.55 128.95 1026.7 121.25 1022.35 103.2 1016.95 85.25 1011.6 67.3 1004.45 50.15 1002.75 46.1 1001.3 41.95 999.8 37.8 998.25 33.7 993.5 21.5 988.65 9.4 983.8 -2.7 978.2 -14.55 974.35 -22.7 970.35 -31.05 966.4 -39.35 961.75 -47.1 961.5 -47.5 961.25 -47.95 960.95 -48.35 960.65 -48.7 Z"/>
</g>

<g id="Layer0_11_FILL">
<path fill="#FFFFFF" stroke="none" d="
M 958.75 -44.3
Q 958.3 -44.05 957.75 -43.8
L 957.35 -43.55 957.1 -43.45
Q 955.5 -42.55 953.85 -41.7
L 949.3 -39.25
Q 948.25 -38.65 947.4 -38.2 947.6 -37.75 947.85 -37.15
L 948.2 -36.5
Q 970.95 10.8 988 60.25 1005 109.65 1017 160.6 1029 211.55 1036.65 263.35 1044.4 316 1047.5 369.25 1050.55 422.45 1049.7 475.65 1049.1 517.75 1045.85 559.95 1042.6 602.15 1036.65 643.8 1031.05 683.75 1023.1 723.1 1015.15 762.45 1004.5 801.35 1004.05 802.95 1003.6 804.6
L 1002.45 808.7
Q 1002.3 809.1 1002.2 809.55
L 1001.95 810.4
Q 1001.75 811.1 1001.6 811.65 1001.45 812.15 1001.3 812.65
L 1001.15 813.1 1001.1 813.35
Q 1000.85 814.2 1000.6 815.05 1000.35 815.9 1000.1 816.7 999.95 817.15 999.85 817.55
L 999.25 819.55
Q 999 820.5 998.75 821.3 999.2 821.35 999.75 821.45
L 1000.4 821.6
Q 1003.75 822.2 1007.15 822.8 1010.5 823.45 1013.85 824.05
L 1014.75 824.2
Q 1015.45 824.35 1016.05 824.45 1016.15 824 1016.35 823.4
L 1016.5 822.75
Q 1027.05 786.6 1034.95 749.9 1042.85 713.15 1048.6 676 1054.3 638.85 1058.25 601.5 1062.35 562.35 1064.1 523.05 1065.8 483.75 1065.5 444.4 1065.05 367.4 1055.45 290.4 1045.9 213.45 1026.25 138.5 1006.6 63.55 975.9 -7.25 972.3 -15.55 968.5 -23.75 964.75 -31.95 960.75 -40.05 960.55 -40.45 960.35 -40.9 960.15 -41.3 959.95 -41.75
L 959.45 -42.8
Q 959.05 -43.6 958.75 -44.3 Z"/>
</g>

<g id="Symbol_92_0_Layer0_0_FILL">
<path fill="#FFFFFF" stroke="none" d="
M 1093.3 494.05
Q 1082.65 480.05 1069.2 466.9 1055.75 453.75 1042 445.7 1028.3 437.65 1016.75 438.9 1002.5 441.1 995.35 447.25 988.15 453.4 985.75 461.55 983.35 469.7 983.55 478 983.7 486.25 984.15 492.7 984.5 498.9 988.15 513.45 991.75 528.05 997.3 548.45 1002.9 568.9 1009.05 592.7 1015.25 616.5 1020.7 641.15 1025.3 662.75 1028.1 683.35 1030.9 703.95 1032.8 720.9 1034.7 737.8 1036.55 748.45
L 1039.1 750.6 1044.05 753.35
Q 1050.2 756.4 1059.35 758.85 1068.55 761.25 1079 761.2 1093.9 760.8 1102.45 758.3 1110.95 755.75 1114.6 753.05
L 1117.35 750.7 1118.35 749.2
Q 1132 701.1 1134.2 662 1136.35 622.95 1131.75 593.6 1127.1 564.25 1120.35 545.35 1113.6 526.5 1109.35 518.75 1103.95 508.05 1093.3 494.05 Z"/>
</g>

<g id="Symbol_19_0_Layer0_0_FILL">
<path fill="#FFFFFF" stroke="none" d="
M 656.95 766.95
L 648.9 766.15
Q 647.3 766.15 646.3 767.25 645.25 768.35 645.2 769.8 645.15 771.3 646.5 772.5
L 649.1 773.9 654.55 776.1
Q 661.45 778.7 672.95 780.7 684.4 782.7 699.15 781.9 713.85 781.15 730.65 775.45 742.3 771.1 752.6 762.8 762.95 754.5 770.9 745.45 778.9 736.4 783.5 729.9
L 788.3 722.65 787.25 721.25 784.35 718.45
Q 780.55 714.95 775.95 710.9 771.3 706.9 768.6 704.6 766.5 707.95 761.25 715.5 756 723 748.5 732 741.05 741.05 732.35 748.9 723.6 756.75 714.6 760.8 704.7 764.9 693.85 766.4 683 767.85 673.25 767.75 663.55 767.6 656.95 766.95 Z"/>
</g>

<g id="Symbol_51_0_Layer0_0_FILL">
<path fill="#FFFFFF" stroke="none" d="
M 985.85 192.35
L 988.05 188.95 988.85 186.9
Q 984.8 184.8 978.9 183.9 972.95 183.05 966.7 183.05 960.45 183.1 955.45 183.75 950.4 184.4 948.15 185.35 946.3 186.4 942.55 190.3 938.8 194.2 934.75 198.95 930.65 203.7 927.75 207.15
L 924.7 210.8 926.7 212.15
Q 928.55 213.35 930.55 214.55
L 932.15 215.45 933 215.75
Q 944.4 213.9 951.85 212.6 959.25 211.3 963.9 210 968.55 208.75 971.65 207 975 204.95 979 200.7 982.95 196.4 985.85 192.35 Z"/>
</g>

<g id="Layer0_15_FILL">
<path fill="#FFFFFF" stroke="none" d="
M 717.05 718.3
L 718.8 723.5
Q 720.55 728.6 724 736.8 727.4 744.95 732.4 754.4 737.35 763.85 743.8 772.75 752.75 784.7 761.45 795.9 770.15 807.05 775.75 815.3
L 779.8 822.4 780.7 825 780.85 826.95
Q 779.7 832.1 776.15 843.35 772.55 854.6 768.4 867.1 764.2 879.6 761.2 888.55
L 758 897.9
Q 762 905.2 779.65 908.85 797.25 912.5 819.7 912.5 842.15 912.55 860.7 908.85 879.2 905.15 884.95 897.75
L 890.8 890.2
Q 896.35 883 903.85 872.7 911.3 862.4 917.45 852.6 923.6 842.8 925.15 837.25
L 924.8 822.3
Q 923.95 810.45 922.45 796.15 921 781.8 919.85 771.25
L 918.65 760.05
Q 908.45 749.95 882.55 739.9 856.65 729.9 824.45 722.65 792.25 715.4 763.05 713.65 733.85 711.9 717.05 718.3 Z"/>
</g>

<g id="Symbol_22_0_Layer0_0_FILL">
<path fill="#0083CB" stroke="none" d="
M 943.65 840.8
Q 942.6 838.75 942.2 837.35 941.45 834.6 941.05 831.85 940.7 829.05 940.15 826.35
L 939.65 824.85 939.1 824.45
Q 938.5 824.55 938.05 825.8 937.65 827 937.65 828.25 937.8 831.4 938.75 835.75 939.7 840.1 941.85 843.7 943.95 847.3 947.65 848.15 951.1 848.6 953.45 845.55 955.8 842.55 957.1 838.5 958.4 834.45 958.75 831.75 958.9 830.75 958.95 828.85 959 826.95 958.7 825.25 958.4 823.5 957.45 822.95
L 957.25 822.9
Q 957.1 822.9 957.05 822.95 956.7 823.3 956.6 823.8
L 956.45 824.5
Q 956.2 826.4 956.15 828.4 956.15 830.4 955.8 832.35 955.5 834.05 954.65 836.85 953.8 839.65 952.5 842.15 951.2 844.6 949.5 845.25 947.75 845.7 946.2 844.3 944.7 842.85 943.65 840.8 Z"/>
</g>

<g id="Layer0_17_FILL">
<path fill="#FFFFFF" stroke="none" d="
M 890.1 730.25
Q 866 738.6 840.75 753.6 815.45 768.6 792.45 783.5 769.4 798.4 752.05 806.4
L 768.45 811.3
Q 784.05 816 804.65 822.75 825.25 829.55 841 835.95
L 853.15 841.65 856.5 844 858 845.95
Q 858.4 851.55 855.9 859.8 853.4 868.1 849.85 876.4 846.25 884.7 843.5 890.3
L 840.6 896.2
Q 846.65 900.35 862.1 903.75 877.55 907.1 896.15 908.35 914.8 909.6 930.4 907.4 945.95 905.2 952.25 898.3 958.9 887.9 966.05 877.3 973.15 866.75 979.5 857.15 985.8 847.5 989.95 839.95 994.05 832.35 994.65 827.85
L 989.25 817.3 985.25 810.55
Q 976.2 795.35 964.25 776.1 952.25 756.85 943.15 742.35
L 933.65 727
Q 914.15 721.9 890.1 730.25 Z"/>
</g>

<g id="Symbol_23_0_Layer0_0_FILL">
<path fill="#0083CB" stroke="none" d="
M 943.35 838.65
Q 942.15 836.05 941.4 832.95 940.6 829.9 939.6 827.1
L 939.2 826.4 938.9 826.25
Q 938.6 826.4 938.45 827.1 938.3 827.8 938.3 828.5 938.5 831.6 939.5 835.45 940.5 839.25 942.25 842.4 943.95 845.55 946.3 846.7 950.3 848.25 953.15 845.6 956 842.95 957.6 838.15 959.2 833.4 959.35 828.65 959.35 827.95 959.35 826.95 959.3 825.95 959.1 825.15 958.85 824.4 958.4 824.45 958.25 824.75 958.1 825.1
L 957.95 825.6
Q 957.35 827.6 957.1 829.8 956.8 831.95 956.3 834.1 955.15 838.55 953 841.25 950.85 843.95 948.25 843.6 945.7 843.25 943.35 838.65 Z"/>
</g>

<g id="Layer0_19_FILL">
<path fill="#0081c6" stroke="none" d="
M 945.25 654.15
Q 938.05 671.65 932.85 689.8 927.7 707.95 924.55 728.45 923.7 733.8 923 738.9 922.3 743.95 921.85 748.85 922.25 748.7 922.65 748.6 923 748.45 923.3 748.4 923.6 748.45 923.95 748.5 924.35 748.6 924.45 748.7 926.2 750.6 927.8 755.65 929.4 760.7 930.7 766.1 932 771.5 932.8 774.5 933.35 776.3 934.6 780.95 935.9 785.5 937.35 791.1 938.8 796.7 939.85 801.5 966 794.25 989.25 785.9 1012.5 777.5 1031.75 765.35 1051.05 753.15 1065.35 734.5 1079.7 715.85 1088.1 688.1 1094.75 666.05 1097.1 643.45 1099.45 620.8 1096.15 597.9 1092.85 575 1082.55 552.15 1081.75 550.4 1080.95 548.65
L 1079.35 545.1
Q 1079.05 546.95 1079.75 549.2 1080.5 551.4 1080.8 553.5 1081.15 555.6 1079.6 557 1076.8 559.2 1075.45 557.5 1074.1 555.85 1073.45 552.75 1072.8 549.7 1072.15 547.6 1068.9 548.2 1066.75 544.4 1064.6 540.55 1063.3 535.4 1061.95 530.2 1061.15 526.7
L 1060.65 524.8
Q 1060.3 523.35 1059.85 521.55 1059.4 519.7 1059 518.25 1058.4 517.6 1057.45 517.85
L 1056.65 518.05 1056.2 518.1
Q 1054.05 516.8 1053.95 514.05 1053.85 511.3 1055.15 507.65 1034.95 521.35 1017.3 539.85 999.65 558.35 985.55 578.65 971.45 599 961.85 618.25 952.5 636.7 945.25 654.15
M 729.95 618.65
Q 729.8 617.75 729.2 617.1 729.1 617 729.1 616.8 729.05 616.65 729 616.5 728.85 617.3 729.35 619.15 729.85 620.95 730.35 622.55
L 731 624.3
Q 731.5 626.05 731.9 627.8 732.35 629.55 732.8 631.3 732.65 631.25 732.5 631.2 732.35 631.1 732.25 631.05 731.5 630.75 730.6 630.95 729.7 631.15 729.75 632.1 730.1 632.9 730.7 633.7 731.3 634.5 732 635.3 732.1 636.8 732.45 638.2
L 732.85 640.05
Q 733.65 644.25 734.6 647.95 735.55 651.6 736.1 655.8 736.2 656.65 736.45 659 736.65 661.3 737 663.75 737.35 666.15 737.7 667.4 737.9 668.65 738 669.65
L 738.2 671
Q 738.5 672.95 738.75 674.9 738.95 676.85 739.1 678.8 738.15 677.85 736.85 677.35 735.6 676.8 734 676.9
L 732.95 677.1
Q 732.15 677.25 731.25 677.25 731.35 676.05 731.45 674.55 731.55 673.1 731.3 671.95 731.05 670.8 730.15 670.65 729.65 671.45 729.4 672.6 729.1 673.8 729 674.85
L 728.85 676.25
Q 728.85 676.5 728.8 676.75 728.8 676.95 728.75 677.2 728.45 678.4 728.25 679.3
L 728.05 680.1 728 680.55
Q 726.3 691.2 727.3 701 728.3 710.8 731.5 720.1 733.85 729.55 738.05 738.7 742.25 747.85 748.45 756.55 751.7 763 756.5 768.5 761.35 774 767.5 778 768.1 778.4 769.55 779.2 771.05 780 772.45 779.9 771.95 778.9 770.9 777.9 769.85 776.85 768.85 776.1
L 767.5 775
Q 766.5 774.15 765.55 773.3 764.65 772.45 763.75 771.6 764.85 770.4 766 768.7 767.2 767 768.1 765.5 769 764.05 769.3 763.45 774.5 753.8 777.6 747.3 780.7 740.85 781.8 735.05 782.95 729.3 782.3 721.85 781.7 714.35 779.5 702.8 777.25 690.15 773.65 680.25 770.05 670.35 764.05 661.75 758.05 653.15 748.55 644.4 745 641.15 741.35 637.9 737.7 634.65 733.9 631.8
L 733.85 631.75
Q 732.85 628.55 731.9 625.55 730.95 622.55 730.15 619.85
L 729.95 618.65
M 1056.6 503.4
Q 1056.65 503.6 1056.75 503.8 1056.85 503.65 1056.9 503.45 1057 503.3 1057.1 503.1 1056.95 503.05 1056.75 503 1056.6 503 1056.45 503.05 1056.5 503.25 1056.6 503.4
M 1103.3 488.7
Q 1103.05 489.15 1102.8 489.6 1103.35 489.3 1103.75 488.9 1104.2 488.5 1104.4 488 1104.25 487.95 1104.1 487.9 1103.95 487.85 1103.8 487.8 1103.55 488.25 1103.3 488.7 Z"/>
</g>

<g id="Layer0_20_FILL">
<path fill="#FFFFFF" stroke="none" d="
M 801.65 380.65
Q 790.55 384.55 777.7 393.75 764.8 402.95 752.15 415.65 739.5 428.35 728.95 442.7 718.45 457.05 712 471.2 708.6 478.8 704.55 492.75 700.5 506.65 696.85 525.3 693.15 543.9 690.85 565.55 688.55 587.2 688.65 610.2 688.8 619 691.2 631.8 693.55 644.6 697.35 658.8 701.05 673 705.3 686 709.55 699.05 713.35 708.3 718.9 721.55 727.65 734.55 736.45 747.5 747.25 759.1 758.05 770.7 769.75 779.85 785.4 791.5 809.9 796.05 834.35 800.6 861.9 800.15 889.5 799.75 914.55 796.5 939.65 793.25 956.55 789.4 975.35 785.35 995.15 777.45 1014.9 769.5 1032.6 756.85 1050.25 744.2 1062.75 725.85 1076.55 704.55 1079.75 680.25 1083 655.95 1079.3 630.1 1075.6 604.2 1068.55 578.2 1062 554.85 1046.95 534.25 1031.85 513.65 1014.8 497.75 997.7 481.8 985.15 472.45
L 975.4 465.2 962.05 456.45
Q 953.6 451.05 940.2 441.9 926.8 432.7 911.3 420.85 895.8 408.95 881.1 395.5 870.85 385.95 858.8 380.7 846.75 375.45 832.55 375.25 818.3 375.05 801.65 380.65 Z"/>
</g>

<g id="Symbol_39_0_Layer0_0_FILL">
<path fill="#0081c6" stroke="none" d="
M 1162.4 196.4
Q 1160.05 195.8 1157.25 196.45 1157 196.5 1156.4 196.65 1155.75 196.75 1155.4 197.2 1154.05 198.2 1152.5 199.65 1150.95 201.15 1149.75 202.4
L 1148.3 204.1
Q 1142.75 212.75 1137.85 220.9 1132.95 229.1 1127.8 237 1126.15 238.8 1124.8 240.85 1123.4 242.9 1122.2 245.1 1119.5 248.8 1116.5 252.45 1113.5 256.15 1110.1 259.85 1105.6 264.9 1100.95 270.75 1096.25 276.6 1091.05 281.75
L 1090.35 282.2
Q 1090 282.4 1089.65 282.6
L 1089.4 282.7
Q 1085.2 284.95 1081.4 287.25 1077.65 289.55 1073.5 290.75 1069.35 291.95 1064 290.95 1060.45 290.15 1057.3 287.55 1054.2 284.95 1051.6 281.2 1049 277.45 1047.05 273.2 1047.05 272.45 1047.05 271.9 1047 271.3 1047 271.1 1046.65 267.95 1045.9 265 1045.15 262.05 1044.35 259.15 1044.05 256.2 1043.8 253.55 1043.55 250.85 1043.2 248.7 1042.9 246.95 1042.65 245.3 1042.4 243.7 1041.75 242.1 1041.2 240.4 1040.25 239 1039.25 237.55 1037.7 236.6 1037.45 236.35 1037.25 236.15 1037.05 236 1036.9 235.9 1033 233.75 1027.2 236 1021.4 238.2 1015.25 242.2 1009.15 246.2 1004.25 249.35 1003.2 249.85 1002.35 250.3
L 1001.2 250.95
Q 1000.95 251.05 1000.75 251.15 1000.55 251.25 1000.35 251.35 992.6 252 985.9 249.45 979.25 246.95 972.8 241.9 966.35 236.9 959.25 230.2 952.55 223.9 944.4 218.7 936.25 213.55 927.3 210.8 918.35 208.05 909.3 209.05 907.95 209.15 906.1 209.1 904.2 209.05 902.5 209.3 896.95 209.35 891.65 209.95 886.3 210.55 881.4 211.7 876.3 212.95 870.7 215.1 865.05 217.3 859.55 219.85 854.05 222.4 849.35 224.75 844.45 227.2 838.45 231.7 832.4 236.15 826.85 241.6 821.3 247.05 817.8 252.45 816.95 253.35 816.3 254.15 815.65 254.95 815.35 255.35 813.05 258.5 810.9 264.05 808.75 269.65 806.95 276.7 804.6 282.25 803.4 287.45 802.2 292.65 802.7 298.5 801.6 307.05 801.6 314.15 801.6 321.3 803 325.6 804.8 330.25 810.1 336.05 815.4 341.9 821.4 347.5 827.4 353.15 831.3 357.1 838.8 365.35 844 371.15 849.15 377 855.55 381.15 861.9 385.35 873.1 388.6 885.35 392.2 897.1 394.95 908.9 397.7 920.85 399.35 932.75 401 945.45 401.2 951.9 401.2 958.55 401.5 965.15 401.7 971.65 402.9 978.1 404.05 984.15 406.85 990.15 409.6 995.4 411.25 1000.65 412.9 1005.8 415.1 1011 417.35 1016.7 421.65 1018.7 423.2 1022.2 425.6 1025.65 428.05 1030 430.8 1034.3 433.6 1038.85 436.15 1033.6 441.15 1028.65 446.8 1023.7 452.5 1020.55 458.1 1017.4 463.7 1017.55 468.35 1017.6 468.95 1017.7 469.55 1017.8 470.15 1018 470.7 1018.35 471.5 1018.75 472.25 1019.15 473 1019.6 473.7 1019.8 474 1020.05 474.3 1020.3 474.55 1020.55 474.8
L 1020.25 474.75
Q 1020.55 475.25 1020.95 475.75 1021.3 476.25 1021.7 476.7 1028.55 477.6 1034.95 477.3 1041.3 477.05 1047.7 476 1054.1 475 1060.95 473.6 1067.25 472.9 1073.65 471.75 1080.1 470.55 1086.55 468.8 1087.5 468.6 1088.45 468.3 1089.45 468.05 1090.45 467.75 1107.7 462.8 1123.6 453.45 1139.5 444.15 1152 429.65 1164.5 415.15 1171.65 394.7 1172.8 391.4 1174.3 386.9 1175.85 382.35 1177.2 377.35 1178.6 372.35 1179.3 367.6 1181.35 357.8 1182.7 348 1184 338.2 1184.8 328.85 1185.45 321.75 1186.2 315.75 1187 309.75 1187.35 303.6 1187.75 297.5 1187.2 290.05 1186.65 281.75 1186.45 274.2 1186.2 266.65 1185.85 259.3 1185.5 251.95 1184.4 244.3 1184.05 240.25 1183.45 236.25 1182.8 232.3 1181.8 228.45 1180.65 224 1178.75 218.1 1176.85 212.25 1173.85 206.9 1170.9 201.5 1166.6 198.65 1164.75 197 1162.4 196.4
M 1021.75 240.95
L 1021.85 240.9 1021.85 240.95 1021.75 240.95
M 984.75 252.05
L 984.35 251.9 984.2 251.8
Q 984.3091796875 251.8697265625 984.4 251.9 984.6 251.95 984.75 252.05 Z"/>
</g>

<g id="Symbol_40_0_Layer0_0_FILL">
<path fill="#FFFFFF" stroke="none" d="
M 1122.8 255.7
Q 1110 273.4 1094.75 285.3 1079.5 297.2 1063.95 294.65 1055.65 292.65 1050.65 285.8 1045.7 279 1043.2 270.45 1040.75 261.95 1039.95 254.7 1039.2 247.5 1039.2 244.7 1039.1 241.9 1037.25 240.05 1035.45 238.2 1032.75 237.9 1030 237.6 1027.25 239.6 1022.9 242.9 1016.85 247 1010.75 251.05 1003.75 253.85 996.8 256.6 989.75 256.05 986.3 255.55 980.9 251.8 975.45 248.05 969 242.55 962.55 237.1 956.1 231.5 949.65 225.85 944.15 221.65 939.8 218.15 928.8 215.2 917.8 212.2 901.4 212.95 884.95 213.7 864.2 221.35 849.8 227.1 840.35 234.2 830.9 241.3 825.95 247.15
L 822 251.95 820.15 254.8
Q 816.25 262.3 810.05 279.1 803.9 295.9 797.55 314.65 791.2 333.4 786.9 346.75
L 782.4 360.7 784.7 367.7
Q 786.85 374.25 792.8 384.7 798.7 395.1 810.25 407.25 821.75 419.4 840.75 431.1 864.35 445.05 887.95 453.8 911.55 462.55 931.45 467.05 951.35 471.55 963.95 472.8 1002.1 476.9 1032.15 474.8 1062.15 472.75 1084.1 465.75 1106.05 458.75 1119.95 448.05 1138.6 433.8 1151.75 413.1 1164.95 392.4 1172.05 367 1179.15 341.65 1179.65 313.25 1180.05 279.35 1178 256.95 1175.95 234.6 1173.45 222.6
L 1170.05 207.8
Q 1168.55 202.4 1165.05 200.7 1161.55 199 1158.1 200.15 1154.65 201.3 1153.2 204.55
L 1143.75 223.05
Q 1135.55 238 1122.8 255.7 Z"/>
</g>

<g id="Symbol_26_0_Layer0_0_FILL">
<path fill="#FFFFFF" stroke="none" d="
M 889.05 162.7
Q 882.2 166.25 875.95 171.05 869.7 175.8 865.25 180.35 860.8 184.9 859.45 187.7 858.55 190.25 858.1 197.25 857.65 204.25 857.5 212.35 857.35 220.4 857.35 226.25
L 857.35 232.35 860.15 232.1
Q 862.8 231.85 866.3 231.45 869.8 231.05 872.55 230.65
L 874.75 230.25 875.7 229.95
Q 884.4 218.9 889.6 211 894.75 203.05 897.2 197.95 899.6 192.85 900.1 190.3 900.55 188.15 901.15 183.4 901.8 178.65 902.25 173.2 902.7 167.75 902.75 163.55
L 902.55 160.15 902 158.35
Q 895.85 159.15 889.05 162.7 Z"/>
</g>

<g id="Symbol_27_0_Layer0_0_FILL">
<path fill="#1D2013" stroke="none" d="
M 1009 492.75
Q 1008.85 492.65 1008.7 492.6 1008.6 492.55 1008.45 492.45
L 1008.6 492.75 1009 492.75 Z"/>

<path fill="#0081c6" stroke="none" d="
M 957.05 500.85
Q 955.1 501.3 952.4 502 949.75 502.7 947.15 503.6 948.45 502.65 949.8 501.7 951.15 500.8 952.55 499.9 963.4 492.15 975.8 490.3 988.25 488.45 1001.15 492.35 1002 492.45 1002.9 492.55 1003.8 492.65 1004.65 492.7 1005.65 492.75 1006.65 492.8 1007.6 492.8 1008.6 492.75
L 1008.45 492.45
Q 1008.6 492.55 1008.7 492.6 1008.85 492.65 1009 492.75
L 1009.15 492.75 1009.7 492.7
Q 1010 492.65 1010.3 492.65 1010.7 492.6 1011.05 492.45 1011.45 492.35 1011.8 492.2
L 1011.75 492.1
Q 1010.7 490.25 1007.85 488.7 1004.95 487.2 1001.8 486.15 998.6 485.15 996.6 484.8 995.65 484.65 994.6 484.45 993.55 484.3 992.65 484.35 986.2 483.8 979.05 485.1 971.95 486.45 965.05 489.25 958.15 492.05 952.4 495.8 950.75 497 949.2 498.3 947.65 499.6 946.2 501.05
L 946.05 501.45
Q 945.45 502 944.9 502.55 944.3 503.15 943.8 503.7 943.3 504.3 942.85 504.9 942.4 505.5 941.95 506.15 942.3 506.05 942.55 506 942.8 505.95 943 505.9 943.45 505.8 943.85 505.65 944.3 505.55 944.75 505.45 950.9 503.9 957.15 502.4 963.4 500.95 969.6 499.45 970.3 499.3 971 499.1 971.7 498.9 972.4 498.65 970.45 498.45 967.6 498.8 964.75 499.15 961.9 499.75 959.05 500.4 957.05 500.85
M 992 487.25
Q 991.75 487.2 991.5 487.15 991.6470703125 487.15 991.8 487.15 992.2 487.2 992.6 487.25 992.45 487.25 992.3 487.25 992.15 487.25 992 487.25 Z"/>
</g>

<g id="Symbol_28_0_Layer0_0_FILL">
<path fill="#FFFFFF" stroke="none" d="
M 986.25 295.45
Q 983.9 288.7 978.35 283.8 972.85 278.85 963.05 277.05 953.1 275.55 946.15 278.6 939.15 281.7 934.5 287.45 929.85 293.25 927 299.8 924.15 306.3 922.45 311.7 931.35 312.7 942.55 314.6 953.75 316.45 965.55 318.7 977.3 320.9 987.9 323.05 988.85 316.6 988.7 309.4 988.55 302.15 986.25 295.45 Z"/>
</g>

<g id="Symbol_87_0_Layer0_0_FILL">
<path fill="#0081c6" stroke="none" d="
M 827.3 511
L 826.95 509.05 825.4 508.55 825.45 506.85 808.3 495.45 791.85 486.25 784.4 482.95 774.05 479.6 774 479.6 771.35 479 757.8 477.05 752.3 476.85 744.05 477.25 735.85 478.7 727.95 481.3 722.95 483.65 715.95 488.2 707.95 495.6 704.55 499.85 701.7 504.55 699.55 509.6 695.95 522.45 690.15 548.85 687.7 570.9 685.95 620.55 686 645.4 694.5 716.2 694.5 716.25 697.3 731.4 701.45 746.3 703.35 751.2 706.05 755.75 706.15 755.85 706.2 756 708.15 758 712.85 761.25 717.85 763.75 728.15 767.65 744.25 771.35 752.45 772.3 763.5 772.35 774 769.9 788.9 764 800.65 757.6 802.9 756.1 807.2 752.6 808.85 750.35 808.9 750.15 809.1 749.85 810.2 744.35 813.05 719.5 826.75 569.95 828.25 522.35 827.3 511 Z"/>
</g>

<g id="Symbol_88_0_Layer0_0_FILL">
<path fill="#FFFFFF" stroke="none" d="
M 836.45 489.05
Q 839.25 481.35 834.55 474.05 829.9 466.7 819.8 460.4 809.75 454.1 796.4 449.55 783 445.05 768.4 442.95 757.05 441.45 746.8 444.35 736.55 447.25 728.25 452.95 719.9 458.65 714.2 465.65 708.5 472.65 706.2 479.45
L 702.95 491.1 698.35 512.2
Q 693.05 538.05 690 576.7 686.95 615.35 691.05 660.65 695.2 705.9 711.45 751.65
L 713.15 753.45 717.55 756.55
Q 723.3 760.3 734.2 763.4 745.1 766.45 761 765.65 771.6 764.8 779.7 761.55 787.8 758.3 793.45 754.15 799.1 750 802.35 746.45
L 806.5 741.45
Q 809.65 720.35 813.2 683.25 816.75 646.15 820.65 605.4 824.5 564.6 828.5 532.45
L 832.5 505.55 834.45 496 836.45 489.05 Z"/>
</g>
</defs>



<g transform="matrix( 0.1101531982421875, 0.0447998046875, 0.114410400390625, -0.1458892822265625, 1006.65,835.5) ">
<use xlink:href="#Layer0_0_FILL"/>
</g>

<g transform="matrix( -0.1588134765625, 0.0759124755859375, 0.00225830078125, 0.13238525390625, 1365.8,647.7) ">
<use xlink:href="#Layer0_1_FILL"/>
</g>

<g transform="matrix( 0.009124755859375, -0.1393585205078125, -0.18878173828125, 0.0929412841796875, 1228,925.15) ">
<g transform="matrix( 1, 0, 0, 1, 0,0) ">
<use xlink:href="#Symbol_7_0_Layer0_0_FILL"/>
</g>
</g>

<g transform="matrix( 0.040191650390625, -0.1636810302734375, -0.1721954345703125, 0.046539306640625, 1189,974.55) ">
<use xlink:href="#Layer0_3_FILL"/>
</g>

<g transform="matrix( -0.052825927734375, -0.0704498291015625, -0.1130218505859375, 0.0972137451171875, 1275.35,829.6) ">
<g transform="matrix( 1, 0, 0, 1, 0,0) ">
<use xlink:href="#Symbol_8_0_Layer0_0_FILL"/>
</g>
</g>

<g transform="matrix( -0.052825927734375, -0.0704498291015625, -0.1130218505859375, 0.0972137451171875, 1275.35,829.6) ">
<g transform="matrix( 1, 0, 0, 1, 0,0) ">
<use xlink:href="#Symbol_9_0_Layer0_0_FILL"/>
</g>
</g>

<g transform="matrix( 0.0541534423828125, -0.1198577880859375, -0.112396240234375, 0.0068817138671875, 1165.2,910.3) ">
<g transform="matrix( 1, 0, 0, 1, 0,0) ">
<use xlink:href="#Symbol_10_0_Layer0_0_FILL"/>
</g>
</g>

<g transform="matrix( -0.052825927734375, -0.0704498291015625, -0.1130218505859375, 0.0972137451171875, 1275.35,829.6) ">
<use xlink:href="#Layer0_7_FILL"/>
</g>

<g transform="matrix( -0.052825927734375, -0.0704498291015625, -0.1130218505859375, 0.0972137451171875, 1275.35,829.6) ">
<g transform="matrix( 1, 0, 0, 1, 0,0) ">
<use xlink:href="#Symbol_12_0_Layer0_0_FILL"/>
</g>
</g>

<g transform="matrix( -0.4898529052734375, 0.6539764404296875, -0.5771331787109375, -0.7785186767578125, 1671.9,-155.1) ">
<use xlink:href="#Layer0_9_FILL"/>
</g>

<g transform="matrix( 0.9884490966796875, -0.256317138671875, 0.089874267578125, 0.7483978271484375, 8.2,525.45) ">
<use xlink:href="#Layer0_10_FILL"/>
</g>

<g transform="matrix( 0.9884490966796875, -0.256317138671875, 0.089874267578125, 0.7483978271484375, 8.2,525.45) ">
<use xlink:href="#Layer0_11_FILL"/>
</g>

<g transform="matrix( 0.129180908203125, 0.65936279296875, 0.6551971435546875, -0.1253814697265625, 445.6,30.7) ">
<g transform="matrix( 1, 0, 0, 1, 0,0) ">
<use xlink:href="#Symbol_92_0_Layer0_0_FILL"/>
</g>
</g>

<g transform="matrix( 0.6641845703125, 0.0733795166015625, -0.078643798828125, 0.6661834716796875, 362.75,226) ">
<g transform="matrix( 1, 0, 0, 1, 0,0) ">
<use xlink:href="#Symbol_19_0_Layer0_0_FILL"/>
</g>
</g>

<g transform="matrix( 0.3864898681640625, -0.52667236328125, 0.5652923583984375, 0.4048614501953125, 472.1,1007.85) ">
<g transform="matrix( 1, 0, 0, 1, 0,0) ">
<use xlink:href="#Symbol_51_0_Layer0_0_FILL"/>
</g>
</g>

<g transform="matrix( 0.738128662109375, 0.0610504150390625, -0.1369781494140625, 0.6521148681640625, 331.15,243.85) ">
<use xlink:href="#Layer0_15_FILL"/>
</g>

<g transform="matrix( 0.860137939453125, 0.3787384033203125, -0.30975341796875, 0.623046875, 308.85,-9.4) ">
<g transform="matrix( 1, 0, 0, 1, 0,0) ">
<use xlink:href="#Symbol_22_0_Layer0_0_FILL"/>
</g>
</g>

<g transform="matrix( 0.6876068115234375, -0.0159454345703125, 0.1924591064453125, 0.8092041015625, 182.85,167.05) ">
<use xlink:href="#Layer0_17_FILL"/>
</g>

<g transform="matrix( 0.71795654296875, 0.1571807861328125, 0.0069732666015625, 0.7548828125, 328.9,70.25) ">
<g transform="matrix( 1, 0, 0, 1, 0,0) ">
<use xlink:href="#Symbol_23_0_Layer0_0_FILL"/>
</g>
</g>

<g transform="matrix( 0.7111663818359375, 0.095611572265625, -0.169891357421875, 0.4865264892578125, 372.2,356.15) ">
<use xlink:href="#Layer0_19_FILL"/>
</g>

<g transform="matrix( 0.7111663818359375, 0.095611572265625, -0.169891357421875, 0.4865264892578125, 372.2,356.15) ">
<use xlink:href="#Layer0_20_FILL"/>
</g>

<g transform="matrix( 0.7024078369140625, 0.18878173828125, -0.217926025390625, 0.6454620361328125, 364.75,289.65) ">
<g transform="matrix( 1, 0, 0, 1, 0,0) ">
<use xlink:href="#Symbol_39_0_Layer0_0_FILL"/>
</g>
</g>

<g transform="matrix( 0.7024078369140625, 0.18878173828125, -0.217926025390625, 0.6454620361328125, 364.75,289.65) ">
<g transform="matrix( 1, 0, 0, 1, 0,0) ">
<use xlink:href="#Symbol_40_0_Layer0_0_FILL"/>
</g>
</g>

<g transform="matrix( 0.6643829345703125, -0.13726806640625, 0.2525634765625, 0.6284637451171875, 290,579.05) ">
<g transform="matrix( 1, 0, 0, 1, 0,0) ">
<use xlink:href="#Symbol_26_0_Layer0_0_FILL"/>
</g>
</g>

<g transform="matrix( -0.4235687255859375, -0.0895843505859375, -0.0919036865234375, 0.554473876953125, 1452.5,520.95) ">
<g transform="matrix( 1, 0, 0, 1, 0,0) ">
<use xlink:href="#Symbol_27_0_Layer0_0_FILL"/>
</g>
</g>

<g transform="matrix( 0.668060302734375, 0.17999267578125, -0.209716796875, 0.620391845703125, 372.4,299.3) ">
<g transform="matrix( 1, 0, 0, 1, 0,0) ">
<use xlink:href="#Symbol_28_0_Layer0_0_FILL"/>
</g>
</g>

<g transform="matrix( 0.1518096923828125, -0.7443084716796875, 0.687286376953125, 0.1865234375, 440.3,1195.75) ">
<g transform="matrix( 1, 0, 0, 1, 0,0) ">
<use xlink:href="#Symbol_87_0_Layer0_0_FILL"/>
</g>
</g>

<g transform="matrix( 0.1518096923828125, -0.7443084716796875, 0.687286376953125, 0.1865234375, 440.3,1195.75) ">
<g transform="matrix( 1, 0, 0, 1, 0,0) ">
<use xlink:href="#Symbol_88_0_Layer0_0_FILL"/>
</g>
</g>
</svg>
