
<svg xmlns="http://www.w3.org/2000/svg" version="1.1" xmlns:xlink="http://www.w3.org/1999/xlink" preserveAspectRatio="none" x="0px" y="0px" width="760px" height="880px" viewBox="620 10 760 880">
<defs>


<g id="Symbol_5_0_Layer0_0_FILL">
<path fill="#0081c6" stroke="none" d="
M 1005.65 543.5
L 1001.25 543.5 1001.25 545.8
Q 999.95 544.35 998.5 543.65 997.05 542.95 995.4 542.95 993.5 542.95 991.9 543.7 990.3 544.45 989.05 545.9 987.8 547.35 987.15 549.2 986.55 551.05 986.55 553.25 986.55 555.5 987.15 557.35 987.8 559.2 989.05 560.7 990.35 562.2 991.95 562.9 993.55 563.65 995.5 563.65 997.05 563.65 998.5 563 999.95 562.35 1001.25 561.05
L 1001.25 563.1 1005.65 563.1 1005.65 543.5
M 1001.55 553.35
Q 1001.55 554.7 1001.15 555.85 1000.8 557 1000.05 557.9 999.3 558.75 998.35 559.15 997.35 559.6 996.15 559.6 995.05 559.6 994.1 559.15 993.15 558.7 992.4 557.8 991.7 556.95 991.35 555.8 990.95 554.65 990.95 553.25 990.95 551.9 991.35 550.8 991.7 549.7 992.45 548.8 993.2 547.95 994.15 547.5 995.1 547.05 996.2 547.05 997.4 547.05 998.35 547.5 999.3 547.9 1000.05 548.8 1000.8 549.7 1001.15 550.8 1001.55 551.95 1001.55 553.35
M 980.35 543.45
Q 979.9 543.7 979.35 544.15 978.85 544.6 978.25 545.25
L 978.25 543.5 973.9 543.5 973.9 563.1 978.25 563.1 978.25 552.95
Q 978.25 550.15 979.1 548.75 980 547.35 981.8 547.35 982.35 547.35 982.95 547.6 983.6 547.8 984.2 548.25
L 986.2 544.15
Q 985.25 543.55 984.35 543.25 983.45 542.95 982.6 542.95 981.95 542.95 981.4 543.1 980.85 543.2 980.35 543.45
M 1016.6 543.45
Q 1016.15 543.7 1015.65 544.15 1015.1 544.65 1014.45 545.3
L 1014.45 543.5 1010.15 543.5 1010.15 563.1 1014.45 563.1 1014.45 553
Q 1014.45 551.45 1014.7 550.3 1014.9 549.2 1015.3 548.45 1015.75 547.75 1016.4 547.4 1017.05 547.05 1018 547.05 1019.45 547.05 1020.15 548.35 1020.9 549.65 1020.9 552.25
L 1020.9 563.1 1025.25 563.1 1025.25 553
Q 1025.25 551.4 1025.45 550.3 1025.65 549.15 1026.05 548.45 1026.45 547.75 1027.1 547.4 1027.75 547.05 1028.65 547.05 1029.45 547.05 1030 547.35 1030.55 547.65 1030.9 548.25 1031.25 548.8 1031.4 549.8 1031.55 550.8 1031.55 552.2
L 1031.55 563.1 1035.9 563.1 1035.9 551
Q 1035.9 546.95 1034.35 544.95 1032.75 542.95 1029.55 542.95 1027.8 542.95 1026.45 543.7 1025.05 544.4 1024.05 545.85 1023.1 544.4 1021.85 543.7 1020.6 542.95 1019 542.95 1018.3 542.95 1017.7 543.1 1017.1 543.2 1016.6 543.45
M 920.15 543.5
Q 918.9 542.95 917.25 542.95 915.8 542.95 914.55 543.55 913.25 544.15 912.1 545.3
L 912.1 543.5 907.75 543.5 907.75 563.1 912.1 563.1 912.1 553.65
Q 912.1 551.8 912.35 550.55 912.55 549.25 913 548.55 913.45 547.8 914.25 547.4 915 547.05 916.05 547.05 917.05 547.05 917.75 547.35 918.45 547.6 918.8 548.15 919.2 548.7 919.4 549.7 919.6 550.7 919.6 552.15
L 919.6 563.1 923.95 563.1 923.95 551.1
Q 923.95 549 923.55 547.5 923.15 546.05 922.35 545.1 921.45 544.05 920.15 543.5
M 903.25 543.5
L 898.9 543.5 898.9 563.1 903.25 563.1 903.25 543.5
M 900 538.1
Q 900.5 538.35 901.1 538.35 901.65 538.35 902.15 538.1 902.65 537.9 903.05 537.45 903.5 537.05 903.7 536.5 903.9 536 903.9 535.4 903.9 534.75 903.7 534.25 903.5 533.75 903.05 533.3 902.65 532.9 902.15 532.65 901.65 532.45 901.05 532.45 900.5 532.45 900 532.65 899.5 532.9 899.05 533.3 898.65 533.75 898.45 534.25 898.25 534.75 898.25 535.35 898.25 536 898.45 536.5 898.65 537.05 899.05 537.45 899.5 537.9 900 538.1
M 941.45 543.7
Q 939.65 542.95 937.55 542.95 935.5 542.95 933.7 543.7 931.9 544.45 930.45 545.95 929 547.45 928.3 549.25 927.55 551.05 927.55 553.15 927.55 555.4 928.25 557.3 929 559.15 930.4 560.65 931.85 562.15 933.6 562.9 935.4 563.65 937.5 563.65 939.6 563.65 941.4 562.9 943.25 562.15 944.7 560.7 946.15 559.2 946.9 557.35 947.6 555.5 947.6 553.3 947.6 551.15 946.9 549.3 946.15 547.45 944.7 545.95 943.25 544.45 941.45 543.7
M 943.15 553.35
Q 943.15 554.75 942.8 555.9 942.4 557.05 941.65 557.9 940.9 558.75 939.85 559.2 938.85 559.6 937.55 559.6 936.3 559.6 935.3 559.15 934.25 558.75 933.5 557.9 932.75 557 932.35 555.85 932 554.7 932 553.25 932 551.85 932.4 550.75 932.75 549.65 933.55 548.8 934.3 547.9 935.3 547.45 936.35 547.05 937.55 547.05 938.85 547.05 939.85 547.45 940.85 547.9 941.65 548.8 942.4 549.65 942.8 550.75 943.15 551.9 943.15 553.35
M 962.4 543.65
Q 960.9 542.95 959.15 542.95 957.1 542.95 955.5 543.75 953.85 544.55 952.6 546.15 951.45 547.65 950.9 549.45 950.3 551.3 950.3 553.4 950.3 555.6 950.95 557.45 951.55 559.3 952.8 560.75 954 562.2 955.6 562.9 957.15 563.65 959.1 563.65 960.8 563.65 962.25 562.95 963.75 562.25 965.05 560.9
L 965.05 563.65
Q 965.05 566.65 963.85 568.2 962.65 569.7 960.3 569.7 959 569.7 958 569.25 957 568.8 956.35 567.85 956.05 567.5 955.85 566.9 955.65 566.35 955.5 565.65
L 951.15 565.65
Q 951.35 567.55 952.05 569.05 952.8 570.55 954.05 571.65 955.25 572.7 956.8 573.25 958.35 573.8 960.25 573.8 962.5 573.8 964.25 573 966 572.25 967.25 570.75 967.95 569.95 968.4 569 968.85 568.05 969.05 566.95 969.15 566.55 969.2 566.05 969.25 565.6 969.3 565.05 969.35 564.55 969.35 563.95 969.4 563.3 969.4 562.6
L 969.4 543.5 965.05 543.5 965.05 545.7
Q 963.85 544.35 962.4 543.65
M 965.2 553.35
Q 965.2 554.7 964.9 555.8 964.55 556.85 963.9 557.75 963.15 558.65 962.2 559.15 961.2 559.6 959.95 559.6 958.7 559.6 957.75 559.15 956.75 558.7 956.05 557.75 955.4 556.9 955.1 555.8 954.75 554.7 954.75 553.35 954.75 552 955.1 550.9 955.4 549.8 956.05 548.95 956.75 548 957.75 547.5 958.7 547.05 959.95 547.05 961.1 547.05 962.05 547.5 963 547.9 963.75 548.8 964.5 549.65 964.85 550.8 965.2 551.9 965.2 553.35
M 887.65 542.95
Q 886.25 542.95 885 543.5 883.7 544.05 882.55 545.15
L 882.55 534 878.2 534 878.2 563.1 882.55 563.1 882.55 553.6
Q 882.55 551.8 882.8 550.55 883 549.25 883.45 548.5 883.9 547.8 884.7 547.4 885.55 547.05 886.65 547.05 887.55 547.05 888.2 547.3 888.85 547.55 889.25 548.1 889.65 548.65 889.85 549.5 890.05 550.35 890.05 551.5
L 890.05 563.1 894.4 563.1 894.4 551.1
Q 894.4 549.05 894 547.55 893.6 546.05 892.75 545.1 891.8 544.05 890.55 543.5 889.25 542.95 887.65 542.95
M 868.15 543.5
L 863.8 543.5 863.8 563.1 868.15 563.1 868.15 552.95
Q 868.15 550.15 869.05 548.75 869.95 547.35 871.7 547.35 872.3 547.35 872.9 547.6 873.5 547.8 874.15 548.25
L 876.1 544.15
Q 875.2 543.55 874.3 543.25 873.4 542.95 872.5 542.95 871.85 542.95 871.3 543.1 870.75 543.2 870.3 543.45 869.8 543.7 869.3 544.15 868.75 544.6 868.15 545.25
L 868.15 543.5 Z"/>
</g>

<g id="Layer0_1_FILL">
<path fill="#0081c6" stroke="none" d="
M 508.4 711.1
Q 507.65 710.55 506.95 709.95 506.8 709.85 506.65 709.7 506.5 709.6 506.35 709.45 506.05 709.2 505.75 708.95 505.45 708.7 505.15 708.45
L 504.95 708.25
Q 504.4 707.75 503.9 707.25 503.4 706.7 502.9 706.15
L 502.65 705.9
Q 502.6 705.8 502.5 705.7 502.4 705.6 502.3 705.65 502.25 705.55 502.2 705.45 502.1 705.35 502.05 705.45 502.05 705.6 502.15 705.75 502.2 705.95 502.3 706.05
L 502.4 706.25 502.6 706.55
Q 502.6 706.65 502.65 706.75 502.65 706.85 502.75 707 502.95 707.3 503.3 707.7 503.6 708.1 504 708.55 504.2 708.8 504.4 709 504.55 709.25 504.75 709.45
L 504.9 709.65
Q 505.2 710.15 505.65 710.7 506.1 711.25 506.65 711.9 506.8 712.05 506.95 712.25 507.1 712.4 507.25 712.55 508.3 713.75 509.6 714.9 510.85 716 512.1 716.8 513.35 717.6 514.45 717.8
L 514.5 717.8 514.65 717.85
Q 514.75 717.85 514.9 717.8 514.75 717.7 514.6 717.55 514.45 717.45 514.3 717.35
L 514.15 717.25 514.1 717.2
Q 513 716.4 511.95 715.7 510.95 715.05 510 714.3 509 713.5 508.05 712.55 508.35 712.75 508.65 712.95 508.95 713.1 509.15 713.2 509.65 713.6 510.3 714.05 510.9 714.45 511.4 714.8
L 511.8 715 512.1 715.1 512.2 715.1
Q 512.25 715.15 512.3 715.1 512.2 714.95 512 714.8 511.75 714.7 511.6 714.6
L 511.45 714.5 511.35 714.45
Q 510.9 714.2 510.5 713.95 510.05 713.65 509.65 713.35
L 509.8 713.35
Q 509.75 713.25 509.65 713.15 509.5890625 713.05859375 509.5 713 510.4853515625 713.671484375 511.35 714.2 512.25 714.75 512.95 715.05 513 715.1 513.15 715.15 513.3 715.2 513.45 715.2 513.6 715.25 513.75 715.2 513.65 715 513.45 714.8 513.25 714.6 513.05 714.45 512.85 714.3 512.75 714.25 512 713.75 511.3 713.25 510.6 712.7 509.9 712.2 509.15 711.7 508.4 711.1
M 485.9 680.05
Q 485.7 679.65 485.55 679.25 485.55 679.45 485.5 679.7 485.5 679.95 485.5 680.2 485.5 680.5 485.5 680.8 485.5 681.1 485.55 681.45 485.55 681.7 485.55 682 485.6 682.3 485.65 682.55 485.7 683.05 485.75 683.5 485.85 684 485.9 684.45 486.3 686.2 486.85 688.1 487.45 690 488.1 691.7 488.75 693.45 489.4 694.6 489.7 695.2 490.35 696.1 490.95 697 491.75 697.95 492.5 698.9 493.3 699.7 493.6 699.85 493.85 700.05 494.1 700.3 494.3 700.55 494.45 700.65 494.55 700.75 494.65 700.85 494.8 700.9
L 494.75 700.95 494.8 701.25
Q 494.85 701.35 494.85 701.5 494.8 701.65 494.75 701.75
L 494.75 701.8
Q 494.7 701.95 494.7 702.05 494.65 702.2 494.65 702.35 494.5 702.85 494.25 703.35 493.95 703.8 493.6 704.2
L 493.55 704.25
Q 493.4 704.4 493.25 704.6 493.05 704.75 492.9 704.9 492.5 705.25 492.1 705.55 491.7 705.85 491.25 706.1 491.15 706.15 491 706.25 490.85 706.3 490.75 706.4
L 490.5 706.55
Q 490.25 706.7 490 706.9 489.7 707.05 489.45 707.2 488.85 707.5 488.2 707.7 487.6 707.9 486.95 707.95 486.7 708 486.45 708 486.15 708 485.9 707.95
L 485.55 707.95 485.5 707.9
Q 485.15 707.85 484.8 707.75 484.45 707.6 484.15 707.4
L 484 707.3
Q 483.5 706.95 483.1 706.55 482.7 706.1 482.35 705.75 481.6 705 480.85 704.05 480.1 703.15 479.45 702.15 478.8 701.15 478.35 700.25 478.05 699.75 477.85 699.25 477.7 698.8 477.55 698.4 477.5 698.2 477.5 698 477.45 697.8 477.4 697.55
L 477.35 697.45 477.3 697.25 477.25 697.15
Q 476.85 695.95 476.6 694.55 476.3 693.15 476.2 691.5 476.2 691.35 476.2 691.1 476.25 690.8 476.2 690.6 476.15 690.35 476 690.35 475.9 690.55 475.85 690.85 475.8 691.15 475.8 691.45 475.75 691.7 475.75 691.85
L 475.7 691.8
Q 475.6 691.95 475.6 692.15
L 475.6 693
Q 475.55 693.35 475.5 693.7
L 475.5 694.1
Q 475.5 694.85 475.6 695.75 475.75 696.6 476 697.5 476.4 699 477 700.35 477.65 701.75 478.5 703.15 479.1 704 479.85 704.9 480.6 705.8 481.5 706.65 482.4 707.5 483.35 708.15 483.55 708.3 483.75 708.45 483.95 708.55 484.15 708.7
L 484.2 708.7 484.4 708.8
Q 484.85 708.95 485.3 709 485.8 709.05 486.25 709 487.5 709.05 488.8 708.7 490.15 708.35 491.4 707.65 492.65 707 493.65 706.05 493.85 705.9 494.05 705.75 494.25 705.6 494.45 705.45 495 704.95 495.45 704.35 495.95 703.75 496.2 703.1 496.45 702.5 496.35 701.85
L 496.4 701.85
Q 496.35 701.7 496.35 701.6 496.35 701.45 496.3 701.35
L 496.3 701.25 496.25 701.05 496.15 700.9 496.1 700.75 496.1 700.7 496.05 700.65 495.8 700.3 495.55 700.1 495.5 700.05
Q 495.25 699.8 495 699.55 494.7 699.3 494.45 699
L 494.1 698.65
Q 494 698.45 493.85 698.3 493.45 697.85 493.1 697.35 492.75 696.9 492.45 696.45 492.3 696.25 492.2 696.1 492.05 695.9 491.95 695.75 491.85 695.6 491.75 695.4 491.65 695.25 491.55 695.1 491.35 694.75 491.1 694.4 490.9 694.05 490.75 693.7 490.35 693.1 490 692.45 489.7 691.8 489.35 691.15 489.25 690.85 489.1 690.55 488.95 690.25 488.85 689.95 488.7 689.6 488.6 689.3 488.45 688.95 488.35 688.65 488.25 688.4 488.15 688.2 488.1 687.95 488.05 687.75 487.95 687.45 487.85 687.15 487.75 686.85 487.65 686.55 487.45 685.95 487.25 685.3 487.05 684.7 486.9 684 486.75 683.5 486.65 683 486.5 682.5 486.4 682 486.35 681.75 486.3 681.45 486.25 681.2 486.2 680.9 486.05 680.5 485.9 680.05
M 476.7 697.85
L 476.8 698 476.75 698 476.7 697.85
M 495 700.5
L 495.05 700.55 495.05 700.6 494.85 700.4 495 700.5 Z"/>

<path fill="#FFFFFF" stroke="none" d="
M 485.35 655.7
L 485.15 655.8
Q 484.95 655.85 484.8 655.9
L 484.4 656
Q 481.5 656.75 478.8 658.5 476.15 660.25 473.85 662.65 471.55 665.05 469.65 667.75 467.8 670.4 466.45 673 464.05 676.85 462.25 681.05 460.45 685.25 459.35 689.5 458.3 693.75 458.05 697.75 458 699 458 700.3 457.95 701.6 458 702.95 457.8 705.75 458 708.55 458.25 711.35 458.8 714.1 459.35 716.85 460.2 719.5 460.25 719.7 460.35 719.9 460.4 720.15 460.5 720.35 460.55 720.6 460.65 720.85 460.75 721.1 460.85 721.25
L 460.9 721.4 460.95 721.45
Q 461.35 722.1 462.1 722.65 462.9 723.25 463.8 723.6 464.7 723.95 465.6 723.95 466.1 724.05 466.65 724.1 467.2 724.2 467.75 724.2 468.8 724.3 469.9 724.25 471 724.15 471.95 723.8 472.95 723.4 473.7 722.75
L 473.95 722.55
Q 474.8 722 475.5 721.05 476.2 720.1 476.7 719 477.2 717.9 477.55 716.8 477.75 716.2 478 715.65 478.25 715.1 478.6 714.55 478.95 714 479.5 713.45 480.65 712.4 481.9 711.85 483.2 711.3 484.6 711.25 485.95 711.2 487.35 711.6 487.5 711.7 487.65 711.75 487.8 711.8 487.9 711.85 488.2 712.05 488.45 712.3 488.75 712.6 488.95 712.85 489.65 714.15 490.05 715.55 490.4 716.9 490.65 718.3
L 490.6 718.6
Q 490.55 719.9 490.6 721.1 490.6 722.3 490.85 723.25 491.15 724.25 491.9 724.9 492.7 725.6 494.2 725.8 494.9 725.95 495.7 726.1 496.5 726.2 497.35 726.25 498.2 726.35 499 726.3 499.4 726.3 499.8 726.3 500.2 726.35 500.55 726.3 500.95 726.25 501.25 726.2 501.55 726.1 501.7 726
L 501.8 725.9
Q 502.35 725.3 502.85 724.75 503.35 724.15 503.8 723.55 503.9 723.4 503.95 723.3 504.05 723.15 504.15 723 505.75 720.65 506.55 718.05 507.35 715.4 507.25 712.55 507.1 712.4 506.95 712.25 506.8 712.05 506.65 711.9 506.1 711.25 505.65 710.7 505.2 710.15 504.9 709.65
L 504.75 709.45
Q 504.55 709.25 504.4 709 504.2 708.8 504 708.55 503.6 708.1 503.3 707.7 502.95 707.3 502.75 707 502.65 706.85 502.65 706.75 502.6 706.65 502.6 706.55
L 502.4 706.25 502.3 706.05
Q 502.2 705.95 502.15 705.75 502.05 705.6 502.05 705.45 502.1 705.35 502.2 705.45 502.25 705.55 502.3 705.65 502.4 705.6 502.5 705.7 502.6 705.8 502.65 705.9
L 502.9 706.15
Q 503.4 706.7 503.9 707.25 504.4 707.75 504.95 708.25
L 505.15 708.45
Q 505.45 708.7 505.75 708.95 506.05 709.2 506.35 709.45 506.5 709.6 506.65 709.7 506.8 709.85 506.95 709.95 507.65 710.55 508.4 711.1 509.15 711.7 509.9 712.2 512.75 713.95 515.85 714.95 519 715.95 522.15 715.95 525.35 715.95 528.25 714.7 531.2 713.4 533.65 710.65 533.95 710.25 534.5 709.55 535 708.8 535.55 707.9 536.15 707 536.7 706.05 537.25 705.15 537.6 704.2 538 703.3 538.15 702.5 538.15 702.3 538.2 702.1 538.2 701.9 538.2 701.7
L 538.2 701.65
Q 538.2 701.55 538.15 701.45 538.15 701.3 538.05 701.25 537.85 701.15 537.6 701.05 537.35 700.95 537.15 700.85
L 537 700.8 536.9 700.75
Q 535.85 700.3 534.8 700 533.8 699.65 532.8 699.3 527.2 695.75 523.1 690.2 519 684.6 515.45 678.4 511.85 672.2 507.75 666.7 503.6 661.25 497.95 657.9 495.5 656.6 492.8 655.95 490.05 655.3 487.2 655.35
L 487.15 655.25
Q 487 655.25 486.8 655.3 486.6 655.35 486.4 655.4
L 486.15 655.5
Q 486.05 655.55 485.95 655.55
L 485.85 655.55 485.65 655.7 485.6 655.7 485.7 655.65 485.75 655.6
Q 485.85 655.55 485.95 655.5 486.05 655.45 486.15 655.4
L 485.8 655.55
Q 485.6 655.6 485.45 655.7 485.3962890625 655.7107421875 485.35 655.7
M 472.7 664.7
Q 472.9515625 664.4294921875 473.2 664.15 473.6 663.7 474.05 663.25
L 473.9 663.45
Q 473.5 663.85 473.15 664.25 472.9185546875 664.4814453125 472.7 664.7
M 485.55 679.25
Q 485.7 679.65 485.9 680.05 486.05 680.5 486.2 680.9 486.25 681.2 486.3 681.45 486.35 681.75 486.4 682 486.5 682.5 486.65 683 486.75 683.5 486.9 684 487.05 684.7 487.25 685.3 487.45 685.95 487.65 686.55 487.75 686.85 487.85 687.15 487.95 687.45 488.05 687.75 488.1 687.95 488.15 688.2 488.25 688.4 488.35 688.65 488.45 688.95 488.6 689.3 488.7 689.6 488.85 689.95 488.95 690.25 489.1 690.55 489.25 690.85 489.35 691.15 489.7 691.8 490 692.45 490.35 693.1 490.75 693.7 490.9 694.05 491.1 694.4 491.35 694.75 491.55 695.1 491.65 695.25 491.75 695.4 491.85 695.6 491.95 695.75 492.05 695.9 492.2 696.1 492.3 696.25 492.45 696.45 492.75 696.9 493.1 697.35 493.45 697.85 493.85 698.3 494 698.45 494.1 698.65
L 494.45 699
Q 494.7 699.3 495 699.55 495.25 699.8 495.5 700.05
L 495.55 700.1 495.8 700.3 496.05 700.65 496.1 700.7 496.1 700.75 496.15 700.9 496.25 701.05 496.3 701.25 496.3 701.35
Q 496.35 701.45 496.35 701.6 496.35 701.7 496.4 701.85
L 496.35 701.85
Q 496.45 702.5 496.2 703.1 495.95 703.75 495.45 704.35 495 704.95 494.45 705.45 494.25 705.6 494.05 705.75 493.85 705.9 493.65 706.05 492.65 707 491.4 707.65 490.15 708.35 488.8 708.7 487.5 709.05 486.25 709 485.8 709.05 485.3 709 484.85 708.95 484.4 708.8
L 484.2 708.7 484.15 708.7
Q 483.95 708.55 483.75 708.45 483.55 708.3 483.35 708.15 482.4 707.5 481.5 706.65 480.6 705.8 479.85 704.9 479.1 704 478.5 703.15 477.65 701.75 477 700.35 476.4 699 476 697.5 475.75 696.6 475.6 695.75 475.5 694.85 475.5 694.1
L 475.5 693.7
Q 475.55 693.35 475.6 693
L 475.6 692.15
Q 475.6 691.95 475.7 691.8
L 475.75 691.85
Q 475.75 691.7 475.8 691.45 475.8 691.15 475.85 690.85 475.9 690.55 476 690.35 476.15 690.35 476.2 690.6 476.25 690.8 476.2 691.1 476.2 691.35 476.2 691.5 476.3 693.15 476.6 694.55 476.85 695.95 477.25 697.15
L 477.3 697.25 477.35 697.45 477.4 697.55
Q 477.45 697.8 477.5 698 477.5 698.2 477.55 698.4 477.7 698.8 477.85 699.25 478.05 699.75 478.35 700.25 478.8 701.15 479.45 702.15 480.1 703.15 480.85 704.05 481.6 705 482.35 705.75 482.7 706.1 483.1 706.55 483.5 706.95 484 707.3
L 484.15 707.4
Q 484.45 707.6 484.8 707.75 485.15 707.85 485.5 707.9
L 485.55 707.95 485.9 707.95
Q 486.15 708 486.45 708 486.7 708 486.95 707.95 487.6 707.9 488.2 707.7 488.85 707.5 489.45 707.2 489.7 707.05 490 706.9 490.25 706.7 490.5 706.55
L 490.75 706.4
Q 490.85 706.3 491 706.25 491.15 706.15 491.25 706.1 491.7 705.85 492.1 705.55 492.5 705.25 492.9 704.9 493.05 704.75 493.25 704.6 493.4 704.4 493.55 704.25
L 493.6 704.2
Q 493.95 703.8 494.25 703.35 494.5 702.85 494.65 702.35 494.65 702.2 494.7 702.05 494.7 701.95 494.75 701.8
L 494.75 701.75
Q 494.8 701.65 494.85 701.5 494.85 701.35 494.8 701.25
L 494.75 700.95 494.8 700.9
Q 494.65 700.85 494.55 700.75 494.45 700.65 494.3 700.55 494.1 700.3 493.85 700.05 493.6 699.85 493.3 699.7 492.5 698.9 491.75 697.95 490.95 697 490.35 696.1 489.7 695.2 489.4 694.6 488.75 693.45 488.1 691.7 487.45 690 486.85 688.1 486.3 686.2 485.9 684.45 485.85 684 485.75 683.5 485.7 683.05 485.65 682.55 485.6 682.3 485.55 682 485.55 681.7 485.55 681.45 485.5 681.1 485.5 680.8 485.5 680.5 485.5 680.2 485.5 679.95 485.5 679.7 485.55 679.45 485.55 679.25
M 458.75 700.75
Q 458.75 701.1 458.7 701.45 458.7 701.2626953125 458.7 701.05
L 458.75 700.75 Z"/>
</g>

<g id="Symbol_14_0_Layer0_0_FILL">
<path fill="#a6ce38" stroke="none" d="
M 1347.85 394.9
L 1345.5 392.95 1339.25 392.85
Q 1331.95 395.05 1324.95 397.05 1317.95 399.05 1311.6 400.4 1311.3 400.45 1311.05 400.5 1310.75 400.55 1310.45 400.6 1228.85 423 1141.25 431.85 1053.65 440.7 962.85 439.65 922.1 441.25 881.05 441.2 840 441.15 799 438.95 792.9 438.6 786.85 438.25 780.75 437.85 774.7 437.4 772.15 437.2 769.55 437 766.95 436.8 764.35 436.6 756.4 435.95 748.25 435.2 740.1 434.4 731.85 433.45 729.25 433.95 726.35 435.1 723.45 436.25 722.1 438.35 721.6 438.55 721.25 439
L 720.8 439.6
Q 715.05 447.65 719.5 454.25 723.9 460.85 734.3 466 744.65 471.15 756.7 474.85 762.2 477.55 768.9 479.95 775.6 482.35 782.9 484.45 781.55 484.95 779.75 485.75 778 486.55 776.6 487.45 775.6 488.05 774.65 488.6 773.75 489.2 772.85 489.8 772.75 490.05 772.45 490.2
L 772.1 490.4
Q 766.5 496.55 771.2 502.95 775.9 509.4 785.85 515.05 800.5 526.25 826.15 533.7 851.85 541.2 878.8 545.6 905.8 550 924.3 552.05 932.35 553 940.1 553.6 947.85 554.2 955.35 554.5 954.65 557.85 955.7 561.45 956.8 565.05 959.2 568.85 960.05 570.25 961.1 571.6 962.1 572.95 963.2 574.25 975.85 583.95 994.1 588.45 1012.3 592.95 1031.6 594.55 1050.95 596.15 1066.9 597.15 1066.9 598.4 1067.35 599.6 1067.85 600.8 1068.35 601.65 1077 614.15 1091.65 619.05 1106.3 623.95 1121.9 624.3 1139.05 625.05 1157.6 623.55 1176.1 622.05 1195.1 618.75 1198.75 617.4 1202.4 616.1 1206 614.75 1209.65 613.4 1222.3 608.6 1234.75 603.65 1247.15 598.7 1259.3 593.7 1264.35 591.6 1269.35 589.5 1274.35 587.45 1279.3 585.35 1280.9 584.7 1282.45 584.05 1284 583.35 1285.6 582.7 1290.1 580.75 1294.65 578.65 1299.2 576.6 1303.75 574.45 1314.25 569.5 1324.5 564.1 1334.75 558.7 1344.55 552.9 1345.95 552.1 1347.25 551.25 1348.6 550.45 1349.95 549.65 1350.1 549.55 1350.25 549.45
L 1350.55 549.25
Q 1350.5 549.1 1350.45 548.95 1350.4 548.8 1350.3 548.7 1350.15 548.6 1349.95 548.5 1349.8 548.4 1349.6 548.35 1348.35 544.2 1347 540.3 1345.65 536.4 1345.25 534.85 1337.45 506.15 1326.7 477.65 1315.95 449.15 1307.2 420.35 1307.05 419.85 1306.85 418.8 1306.65 417.75 1306.25 416.4 1315.1 413.45 1323.15 410.15 1331.2 406.8 1338.35 403.15
L 1345.7 398.45 1347.85 394.9
M 796.3 497.5
L 795.8 497.2
Q 795.6 497.05 795.35 496.9 795.4 496.7 795.45 496.55 795.5 496.35 795.55 496.15 795.75 496.5 795.9 496.85 796.1 497.15 796.3 497.5
M 776.95 502.4
Q 777 502.55 777 502.7 775.95 501.7 775.2 500.65 774.45 499.65 774.05 498.6 774.65 499.5 775.35 500.35 776.1 501.2 776.85 502.05 776.9 502.2 776.95 502.4 Z"/>
</g>

<g id="Symbol_16_0_Layer0_0_FILL">
<path fill="#a6ce38" stroke="none" d="
M 793 728.5
L 805.05 742.4
Q 816.75 755.7 835.25 774 853.75 792.25 874.55 807.9 895.3 823.55 913.9 828.85
L 919.5 791.45
Q 924.3 756.1 930.35 709.65 936.4 663.2 940.95 627.95
L 945.7 590.85 918.6 600.55 793 728.5 Z"/>
</g>

<g id="Symbol_17_0_Layer0_0_FILL">
<path fill="#a6ce38" stroke="none" d="
M 1118.15 314.7
Q 1096.8 342.25 1061.25 383.3 1025.7 424.35 979 468.1 930.55 513.15 876.7 561.1 822.85 609.1 769.85 650.65 716.85 692.25 670.85 718.15 624.85 744.1 592.05 745.05 620.2 762.2 672.65 757.1 725.05 751.95 785.15 734.05 845.3 716.1 896.5 694.75 947.7 673.45 973.45 658.15 1005.4 639.5 1029.85 623.5 1054.35 607.5 1078.2 586.25 1102.05 564.95 1132 530.4 1162.35 495.9 1183.6 468.7 1204.85 441.5 1219.55 413.2 1234.2 384.95 1244.9 347.25 1247.55 335.1 1235.45 322.3 1223.3 309.55 1204.5 299.25 1185.7 289 1168.45 284.35 1151.15 279.7 1143.6 283.8
L 1135.2 293.2 1118.15 314.7 Z"/>
</g>

<g id="Symbol_8_0_Layer0_0_FILL">
<path fill="#a6ce38" stroke="none" d="
M 1037.75 310.3
Q 1009.25 300.8 986.6 302.35 963.9 303.9 957.85 315.55 952.7 327.45 948.8 344.7 944.85 362 941.6 380.45 938.35 398.9 935.2 414.45 934.25 425.55 959.65 428.65 985.05 431.8 1019.6 430.35 1054.15 428.9 1080.75 426.35
L 1108.75 423.5 1103.9 402.35
Q 1099.35 382.75 1094.8 363
L 1089.75 341.35
Q 1066.25 319.8 1037.75 310.3 Z"/>
</g>

<g id="Symbol_9_0_Layer0_0_FILL">
<path fill="#a6ce38" stroke="none" d="
M 1012.35 269.55
Q 997.1 271.3 987.9 276.75 978.7 282.25 974.4 287.2 970.05 291.85 964.65 301 959.25 310.15 954.8 320.5 950.35 330.85 948.9 338.95 948 346.8 957.15 356.25 966.25 365.75 981.25 373.2 996.2 380.65 1012.8 382.4 1029.5 383.65 1046.8 379.85 1064.15 376 1077 369.5 1089.85 363 1093.1 356.25 1093 348.8 1088.15 331 1083.35 313.25 1073.85 296.25 1064.3 279.25 1050.15 274.15 1027.6 267.85 1012.35 269.55 Z"/>
</g>

<g id="Symbol_18_0_Layer0_0_FILL">
<path fill="#a6ce38" stroke="none" d="
M 1108.3 290.6
Q 1083.5 287.85 1067 286.9
L 1067.45 297.75
Q 1068.15 307.9 1069.5 319.75 1070.85 331.55 1072.5 337.35
L 1081.05 334.35 1098.85 329.25
Q 1121.25 323.1 1144.35 315 1167.5 306.85 1173.55 298.9
L 1152.75 295.9
Q 1133.1 293.3 1108.3 290.6 Z"/>
</g>

<g id="Symbol_11_0_Layer0_0_FILL">
<path fill="#0083CB" stroke="none" d="
M 1035.4 302.25
L 1033.5 301.25 1031.5 300.65 1029.35 300.45 1027.25 300.65 1025.25 301.25 1023.35 302.25 1021.75 303.6 1020.4 305.25 1019.4 307.1 1018.75 309.15 1018.55 311.25 1018.75 313.35 1019.4 315.4 1020.4 317.25 1021.75 318.9 1023.35 320.25 1025.25 321.25 1027.25 321.85 1029.35 322.05 1031.5 321.85 1033.5 321.25 1035.4 320.25 1037 318.9 1038.35 317.25 1039.35 315.4 1040 313.35 1040.2 311.25 1040 309.15 1039.35 307.1 1038.35 305.25 1037 303.6 1035.4 302.25 Z"/>
</g>

<g id="Symbol_12_0_Layer0_0_FILL">
<path fill="#a6ce38" stroke="none" d="
M 1040.4 290.7
Q 1036.7 285.45 1029.15 285.1 1020.3 285.55 1015.95 292.1 1011.65 298.6 1010.8 306.75
L 1046.25 307 1045.2 301.3
Q 1044.1 296 1040.4 290.7 Z"/>
</g>
</defs>



<g transform="matrix( 1.90142822265625, 0, 0, 1.90142822265625, -845.05,-357.9) ">
<g transform="matrix( 1, 0, 0, 1, 0,0) ">
<use xlink:href="#Symbol_5_0_Layer0_0_FILL"/>
</g>
</g>

<g transform="matrix( 5.0337066650390625, -0.37005615234375, 0.3701934814453125, 5.0331878662109375, -1756.4,-2591.25) ">
<use xlink:href="#Layer0_1_FILL"/>
</g>

<g transform="matrix( 0.045257568359375, 0.1165924072265625, -0.0926666259765625, 0.0296173095703125, 1151.85,643.85) ">
<g transform="matrix( 1, 0, 0, 1, 0,0) ">
<use xlink:href="#Symbol_14_0_Layer0_0_FILL"/>
</g>
</g>

<g transform="matrix( -0.0332794189453125, 0.2607574462890625, -0.1053314208984375, -0.2286529541015625, 1210.6,633.6) ">
<g transform="matrix( 1, 0, 0, 1, 0,0) ">
<use xlink:href="#Symbol_16_0_Layer0_0_FILL"/>
</g>
</g>

<g transform="matrix( 0.01513671875, 0.169158935546875, -0.144989013671875, -0.0172119140625, 1214.35,639.4) ">
<g transform="matrix( 1, 0, 0, 1, 0,0) ">
<use xlink:href="#Symbol_17_0_Layer0_0_FILL"/>
</g>
</g>

<g transform="matrix( -0.035980224609375, 0.093475341796875, -0.0893707275390625, -0.0623626708984375, 1259.35,766.35) ">
<g transform="matrix( 1, 0, 0, 1, 0,0) ">
<use xlink:href="#Symbol_8_0_Layer0_0_FILL"/>
</g>
</g>

<g transform="matrix( -0.035980224609375, 0.093475341796875, -0.0893707275390625, -0.0623626708984375, 1259.35,766.35) ">
<g transform="matrix( 1, 0, 0, 1, 0,0) ">
<use xlink:href="#Symbol_9_0_Layer0_0_FILL"/>
</g>
</g>

<g transform="matrix( 0.08892822265625, 0.0634918212890625, -0.0384979248046875, 0.0916748046875, 1114.85,746.85) ">
<g transform="matrix( 1, 0, 0, 1, 0,0) ">
<use xlink:href="#Symbol_18_0_Layer0_0_FILL"/>
</g>
</g>

<g transform="matrix( -0.035980224609375, 0.093475341796875, -0.0893707275390625, -0.0623626708984375, 1259.35,766.35) ">
<g transform="matrix( 1, 0, 0, 1, 0,0) ">
<use xlink:href="#Symbol_11_0_Layer0_0_FILL"/>
</g>
</g>

<g transform="matrix( -0.035980224609375, 0.093475341796875, -0.0893707275390625, -0.0623626708984375, 1259.35,766.35) ">
<g transform="matrix( 1, 0, 0, 1, 0,0) ">
<use xlink:href="#Symbol_12_0_Layer0_0_FILL"/>
</g>
</g>
</svg>
