
<svg xmlns="http://www.w3.org/2000/svg" version="1.1" xmlns:xlink="http://www.w3.org/1999/xlink" preserveAspectRatio="none" x="0px" y="0px" width="760px" height="880px" viewBox="0 0 760 880">
<defs>


<g id="Symbol_14_0_Layer0_0_FILL">
<path fill="#AED044" stroke="none" d="
M 1347.85 394.9
L 1345.5 392.95 1339.25 392.85
Q 1331.95 395.05 1324.95 397.05 1317.95 399.05 1311.6 400.4 1311.3 400.45 1311.05 400.5 1310.75 400.55 1310.45 400.6 1228.85 423 1141.25 431.85 1053.65 440.7 962.85 439.65 922.1 441.25 881.05 441.2 840 441.15 799 438.95 792.9 438.6 786.85 438.25 780.75 437.85 774.7 437.4 772.15 437.2 769.55 437 766.95 436.8 764.35 436.6 756.4 435.95 748.25 435.2 740.1 434.4 731.85 433.45 729.25 433.95 726.35 435.1 723.45 436.25 722.1 438.35 721.6 438.55 721.25 439
L 720.8 439.6
Q 715.05 447.65 719.5 454.25 723.9 460.85 734.3 466 744.65 471.15 756.7 474.85 762.2 477.55 768.9 479.95 775.6 482.35 782.9 484.45 781.55 484.95 779.75 485.75 778 486.55 776.6 487.45 775.6 488.05 774.65 488.6 773.75 489.2 772.85 489.8 772.75 490.05 772.45 490.2
L 772.1 490.4
Q 766.5 496.55 771.2 502.95 775.9 509.4 785.85 515.05 800.5 526.25 826.15 533.7 851.85 541.2 878.8 545.6 905.8 550 924.3 552.05 932.35 553 940.1 553.6 947.85 554.2 955.35 554.5 954.65 557.85 955.7 561.45 956.8 565.05 959.2 568.85 960.05 570.25 961.1 571.6 962.1 572.95 963.2 574.25 975.85 583.95 994.1 588.45 1012.3 592.95 1031.6 594.55 1050.95 596.15 1066.9 597.15 1066.9 598.4 1067.35 599.6 1067.85 600.8 1068.35 601.65 1077 614.15 1091.65 619.05 1106.3 623.95 1121.9 624.3 1139.05 625.05 1157.6 623.55 1176.1 622.05 1195.1 618.75 1198.75 617.4 1202.4 616.1 1206 614.75 1209.65 613.4 1222.3 608.6 1234.75 603.65 1247.15 598.7 1259.3 593.7 1264.35 591.6 1269.35 589.5 1274.35 587.45 1279.3 585.35 1280.9 584.7 1282.45 584.05 1284 583.35 1285.6 582.7 1290.1 580.75 1294.65 578.65 1299.2 576.6 1303.75 574.45 1314.25 569.5 1324.5 564.1 1334.75 558.7 1344.55 552.9 1345.95 552.1 1347.25 551.25 1348.6 550.45 1349.95 549.65 1350.1 549.55 1350.25 549.45
L 1350.55 549.25
Q 1350.5 549.1 1350.45 548.95 1350.4 548.8 1350.3 548.7 1350.15 548.6 1349.95 548.5 1349.8 548.4 1349.6 548.35 1348.35 544.2 1347 540.3 1345.65 536.4 1345.25 534.85 1337.45 506.15 1326.7 477.65 1315.95 449.15 1307.2 420.35 1307.05 419.85 1306.85 418.8 1306.65 417.75 1306.25 416.4 1315.1 413.45 1323.15 410.15 1331.2 406.8 1338.35 403.15
L 1345.7 398.45 1347.85 394.9
M 796.3 497.5
L 795.8 497.2
Q 795.6 497.05 795.35 496.9 795.4 496.7 795.45 496.55 795.5 496.35 795.55 496.15 795.75 496.5 795.9 496.85 796.1 497.15 796.3 497.5
M 776.95 502.4
Q 777 502.55 777 502.7 775.95 501.7 775.2 500.65 774.45 499.65 774.05 498.6 774.65 499.5 775.35 500.35 776.1 501.2 776.85 502.05 776.9 502.2 776.95 502.4 Z"/>
</g>

<g id="Symbol_16_0_Layer0_0_FILL">
<path fill="#AED044" stroke="none" d="
M 793 728.5
L 805.05 742.4
Q 816.75 755.7 835.25 774 853.75 792.25 874.55 807.9 895.3 823.55 913.9 828.85
L 919.5 791.45
Q 924.3 756.1 930.35 709.65 936.4 663.2 940.95 627.95
L 945.7 590.85 918.6 600.55 793 728.5 Z"/>
</g>

<g id="Symbol_17_0_Layer0_0_FILL">
<path fill="#AED044" stroke="none" d="
M 1118.15 314.7
Q 1096.8 342.25 1061.25 383.3 1025.7 424.35 979 468.1 930.55 513.15 876.7 561.1 822.85 609.1 769.85 650.65 716.85 692.25 670.85 718.15 624.85 744.1 592.05 745.05 620.2 762.2 672.65 757.1 725.05 751.95 785.15 734.05 845.3 716.1 896.5 694.75 947.7 673.45 973.45 658.15 1005.4 639.5 1029.85 623.5 1054.35 607.5 1078.2 586.25 1102.05 564.95 1132 530.4 1162.35 495.9 1183.6 468.7 1204.85 441.5 1219.55 413.2 1234.2 384.95 1244.9 347.25 1247.55 335.1 1235.45 322.3 1223.3 309.55 1204.5 299.25 1185.7 289 1168.45 284.35 1151.15 279.7 1143.6 283.8
L 1135.2 293.2 1118.15 314.7 Z"/>
</g>

<g id="Symbol_8_0_Layer0_0_FILL">
<path fill="#AED044" stroke="none" d="
M 1037.75 310.3
Q 1009.25 300.8 986.6 302.35 963.9 303.9 957.85 315.55 952.7 327.45 948.8 344.7 944.85 362 941.6 380.45 938.35 398.9 935.2 414.45 934.25 425.55 959.65 428.65 985.05 431.8 1019.6 430.35 1054.15 428.9 1080.75 426.35
L 1108.75 423.5 1103.9 402.35
Q 1099.35 382.75 1094.8 363
L 1089.75 341.35
Q 1066.25 319.8 1037.75 310.3 Z"/>
</g>

<g id="Symbol_9_0_Layer0_0_FILL">
<path fill="#AED044" stroke="none" d="
M 1012.35 269.55
Q 997.1 271.3 987.9 276.75 978.7 282.25 974.4 287.2 970.05 291.85 964.65 301 959.25 310.15 954.8 320.5 950.35 330.85 948.9 338.95 948 346.8 957.15 356.25 966.25 365.75 981.25 373.2 996.2 380.65 1012.8 382.4 1029.5 383.65 1046.8 379.85 1064.15 376 1077 369.5 1089.85 363 1093.1 356.25 1093 348.8 1088.15 331 1083.35 313.25 1073.85 296.25 1064.3 279.25 1050.15 274.15 1027.6 267.85 1012.35 269.55 Z"/>
</g>

<g id="Symbol_10_0_Layer0_0_FILL">
<path fill="#AED044" stroke="none" d="
M 1099.4 333.3
Q 1110.85 323.1 1118.6 311
L 1115.05 308.9 1104.95 304.7
Q 1091.55 299.45 1068.2 297.6
L 1071.15 308.1
Q 1074.2 317.9 1077.85 329.4 1081.5 340.9 1083.4 346.7
L 1099.4 333.3 Z"/>
</g>

<g id="Symbol_121_0_Layer0_0_FILL">
<path fill="#0083CB" stroke="none" d="
M 1035.4 302.25
L 1033.5 301.25 1031.5 300.65 1029.35 300.45 1027.25 300.65 1025.25 301.25 1023.35 302.25 1021.75 303.6 1020.4 305.25 1019.4 307.1 1018.75 309.15 1018.55 311.25 1018.75 313.35 1019.4 315.4 1020.4 317.25 1021.75 318.9 1023.35 320.25 1025.25 321.25 1027.25 321.85 1029.35 322.05 1031.5 321.85 1033.5 321.25 1035.4 320.25 1037 318.9 1038.35 317.25 1039.35 315.4 1040 313.35 1040.2 311.25 1040 309.15 1039.35 307.1 1038.35 305.25 1037 303.6 1035.4 302.25 Z"/>
</g>

<g id="Symbol_12_0_Layer0_0_FILL">
<path fill="#AED044" stroke="none" d="
M 1040.4 290.7
Q 1036.7 285.45 1029.15 285.1 1020.3 285.55 1015.95 292.1 1011.65 298.6 1010.8 306.75
L 1046.25 307 1045.2 301.3
Q 1044.1 296 1040.4 290.7 Z"/>
</g>

<g id="Symbol_122_0_Layer0_0_FILL">
<path fill="#DF4444" stroke="none" d="
M 1262.95 357.3
L 1262.8 356.9 1262.8 357.6 1262.95 359.25
Q 1263.2 361.25 1263.6 363.85 1264 366.45 1264.35 368.5
L 1264.75 370.75 1264.55 368.35
Q 1264.3 366.2 1263.9 363.45 1263.5 360.7 1263.2 358.75
L 1262.95 357.3 Z"/>

<path fill="#FFFFFF" stroke="none" d="
M 1080.7 231.1
Q 1075 226.05 1072.35 221.15
L 1055.35 378.55
Q 1057.8 379.35 1064.05 379.3 1070.25 379.2 1078.6 378.75 1086.9 378.35 1095.65 378.15 1104.35 377.95 1111.7 378.55 1120.5 379.45 1131.2 384.4 1141.85 389.35 1153.05 396.25 1164.25 403.15 1174.5 410 1184.75 416.85 1192.7 421.6 1196 423.5 1202.05 425.8 1208.15 428.05 1215.8 429.85 1223.5 431.6 1231.65 432.1 1239.85 432.55 1247.3 430.85 1251.8 429.65 1255.9 425.85 1260 422 1263.3 417.05 1266.65 412.1 1268.85 407.5 1271.05 402.9 1271.8 400.1 1273.35 393.95 1272.45 386.3 1271.5 378.7 1269.45 371.7 1267.35 364.7 1265.4 360.45
L 1264.5 358.65 1263.75 357.45 1263.2 356.85 1262.8 356.9 1262.95 357.3 1263.2 358.75
Q 1263.5 360.7 1263.9 363.45 1264.3 366.2 1264.55 368.35
L 1264.75 370.75 1264.35 368.5
Q 1264 366.45 1263.6 363.85 1263.2 361.25 1262.95 359.25
L 1262.8 357.6 1262.8 356.9
Q 1262.2 360.9 1257.9 365.45 1253.6 370 1246.45 371.75 1239.3 373.55 1230.2 369.3 1221.1 365 1210.95 351.4 1206.1 344.7 1200.25 336.45 1194.35 328.25 1187.85 319.3 1181.35 310.4 1174.65 301.65 1168.05 293 1159.8 284.45 1151.6 275.9 1142.85 269 1134.05 262.1 1125.8 258.3 1118.05 254.8 1109.75 250.4 1101.5 246.05 1093.95 241.1 1086.4 236.2 1080.7 231.1 Z"/>
</g>

<g id="Symbol_123_0_Layer0_0_FILL">
<path fill="#0987CD" stroke="none" d="
M 1068.15 185.1
L 1067.35 184.8
Q 1066.65 184.6 1066.1 184.4 1066 184.8 1065.95 185.25
L 1065.9 185.65 1065.85 185.85
Q 1065.3 189.05 1064.8 192.25 1064.3 195.5 1063.55 198.65 1062.5 203.35 1062.05 208.25 1061.55 213.15 1060.95 217.95 1059.2 230.75 1057.25 243.5 1055.35 256.25 1053.7 269 1052.2 280.9 1050.3 292.75 1048.45 304.6 1046.5 316.45 1044.6 328.25 1042.9 340.15 1041.7 348.3 1040.6 356.55 1039.55 364.8 1039.15 373.05 1039.1 373.8 1039.1 374.6 1039.1 375.35 1039.2 376.1 1039.25 376.45 1039.3 376.8 1039.35 377.15 1039.4 377.5
L 1039.75 378.7
Q 1040 379.65 1040.35 380.4 1040.65 380.95 1041.25 381.4 1041.8 381.85 1042.4 381.8 1043.4 381.55 1043.85 380.85 1044.3 380.1 1044.5 379.15 1044.65 378.25 1044.8 377.35 1048.15 361.5 1050.9 345.45 1053.6 329.4 1056.25 313.4 1058 303.3 1060.8 293.4 1063.55 283.45 1066.8 273.75
L 1067.05 272.9
Q 1067.3 272.25 1067.45 271.7 1067.4 272.15 1067.3 272.7
L 1067.15 273.35
Q 1066.4 278.25 1065.8 283.15 1065.25 288.05 1064.45 292.9 1063.15 299.9 1061.75 306.9 1060.35 313.95 1059.5 321 1058.6 328.1 1058.9 335.25 1058.95 337.55 1058.55 339.8 1058.1 342.05 1057.75 344.3 1057.6 345.05 1057.5 345.85 1057.4 346.65 1057.6 347.35
L 1057.9 348.1 1058.15 348.25
Q 1058.45 348.2 1058.7 347.45 1058.65 347.85 1058.55 348.4
L 1058.45 349.05
Q 1057.4 355.35 1056.15 361.6 1054.9 367.9 1054.25 374.25 1054 376.6 1053.65 379 1053.35 381.35 1053.45 383.7 1053.45 384.15 1053.5 384.5 1053.55 384.9 1053.6 385.3
L 1053.7 385.6 1053.8 386.15
Q 1054 386.8 1054.3 387.35 1054.65 387.15 1055.05 386.9
L 1055.55 386.6
Q 1057.4 384.75 1058.1 381.75 1058.8 378.7 1059 375.45 1059.2 372.2 1059.55 369.7 1061.7 357.1 1064 344.5 1066.35 331.85 1068.3 319.2 1070.3 306.55 1071.5 293.8 1072.4 283.8 1073.8 273.85 1075.2 263.9 1076.7 253.95 1078.2 243.95 1079.4 234 1080.55 224.1 1081.8 214.15 1083 204.25 1083.65 194.3 1083.7 193.55 1083.8 192.7 1083.85 191.85 1083.65 191.15
L 1083.5 190.75 1083.3 190.6 1082.65 190.3
Q 1081.95 189.9 1081.2 189.5 1080.45 189.05 1079.7 188.75 1079.1 188.5 1078.45 188.35 1077.75 188.2 1077.15 188 1076.3 187.7 1075.5 187.35 1074.75 187 1073.95 186.6 1072.6 186.05 1071.1 185.8 1069.6 185.5 1068.15 185.1 Z"/>
</g>

<g id="Symbol_124_0_Layer0_0_FILL">
<path fill="#FFFFFF" stroke="none" d="
M 1066.7 194.05
L 1066.55 194.75
Q 1057.7 256.45 1048.4 318.1 1039.1 379.75 1030.25 441.45 1024.95 478.3 1020.05 515.15 1015.1 552 1010.95 588.95 1006.85 625.9 1004 663.05 1001.6 694.85 999.95 726.65 998.3 758.5 997.2 790.35
L 997.15 791.4
Q 997.15 792.25 997.1 792.95 997.1 793.4 997.1 793.95
L 997.1 794.4 997.05 794.65
Q 997.05 795.5 997 796.35 997 797.2 996.95 798.05 996.95 798.5 996.95 798.95
L 996.85 800.85
Q 996.85 801.7 996.8 802.4 997.25 802.35 997.8 802.3
L 998.25 802.3 998.5 802.25
Q 1001.8 802 1005.15 801.8 1008.5 801.55 1011.85 801.3
L 1012.2 801.25 1012.85 801.25
Q 1013.65 801.15 1014.35 801.1 1014.35 800.65 1014.35 800.1
L 1014.35 799.4
Q 1015.6 749.1 1018.25 698.8 1020.9 648.55 1025.9 598.45 1030.4 554.45 1035.9 510.6 1041.4 466.7 1047.7 422.95 1055.3 370.05 1062.65 317.05 1070.05 264.1 1077.3 211.15 1077.8 207.75 1078.25 204.35 1078.75 200.95 1079.2 197.55
L 1079.4 196.2
Q 1079.5 195.1 1079.65 194.15 1079.2 194.1 1078.65 194.05
L 1078.2 194.05 1077.95 194
Q 1076.25 193.85 1074.5 193.7
L 1068.35 193.15
Q 1067.5 193.1 1066.8 193.05 1066.75 193.5 1066.7 194.05 Z"/>
</g>

<g id="Symbol_125_0_Layer0_0_FILL">
<path fill="#FFFFFF" stroke="none" d="
M 882.55 535.5
Q 880.35 525.65 874.6 519.1 868.9 512.6 858.2 513.35 844.3 514.85 825.1 519.9 805.85 524.9 786.25 531.3 766.65 537.7 751.6 543.3 736.6 548.95 731 551.7 717 558.45 705.1 566.85 693.25 575.25 687.1 586.25 680.95 597.25 684.2 611.8 685.9 618.65 691.2 631.6 696.45 644.55 704.3 661.3 712.2 678 721.65 696.1 731.1 714.25 741.15 731.4
L 743.05 735.55
Q 744.7 738.75 750.65 742.9 756.55 747 769.65 750.7 779.8 753.3 785.2 752 790.6 750.7 792.85 747.4 795.1 744.15 795.85 740.8 796.55 737.5 797.35 736.05 798.8 720.3 802.15 703.3 805.5 686.35 809.8 670.95 814.1 655.55 818.35 644.55 822.65 633.55 825.95 629.75 829.15 626.3 834.9 622.5 840.65 618.7 848.15 614.7 855.7 610.65 864.2 606.45 873 601.9 878.25 594.45 883.55 587 885.1 579.7 886.7 572.35 884.4 568.1 884.95 563.6 884.85 554.45 884.7 545.3 882.55 535.5 Z"/>
</g>

<g id="Symbol_98_0_Layer0_0_FILL">
<path fill="#0987CD" stroke="none" d="
M 1137.8 562.05
L 1136.95 559.4 1136.9 559.35 1136.85 559.2 1136.8 559.15 1135.3 557 1133.35 555.15 1129.05 552.25 1120.1 547.65 1120 547.65 1114.6 545.8 1111.85 545.2 1106.2 544.55 1095 544.55 1073 547.4 1062.15 549.75 1027.75 560.15 1017.5 564.45 1017.45 564.5 1017.4 564.5 1015.2 565.7 1006.95 571.6 999.8 578.7 998.85 579.85 998.6 579.1 998.25 578.65 997.25 578.4 996.3 578.9 996 579.35 995.95 580 996.25 583.1 993.95 586.65 993.75 587.25 993.8 587.8 994.5 588.65 995.5 588.85 996 588.6 996.4 588.1 996.7 587.6 999.1 604.2 1001.6 611.7 1009.25 653.55 1029.45 743.55 1031.3 748.75 1032.55 751.2 1032.65 751.3 1032.7 751.4 1034.25 753.45 1036.1 755.35 1040.2 758.5 1047.05 762.05 1054.35 764.4 1056.8 764.95 1056.85 764.95 1075.6 767.5 1083.75 767.95 1094.75 767.5 1097.45 766.95 1097.5 766.9 1097.6 766.9 1109.45 762.1 1118.5 757.2 1122.7 754.15 1122.85 753.95 1123.05 753.8 1124.4 751.5 1125.45 749 1133.6 721.7 1133.6 721.65 1134.25 719.1 1144.05 652.95 1144.55 621.2 1144 597.5 1142.85 586.95 1138.25 569.55 1137.8 562.05 Z"/>
</g>

<g id="Symbol_99_0_Layer0_0_FILL">
<path fill="#FFFFFF" stroke="none" d="
M 1101.4 492
Q 1089.3 478.35 1074 465.7 1058.7 453 1043.5 445.35 1028.35 437.65 1016.75 438.9 1002.5 441.1 995.35 447.25 988.15 453.4 985.75 461.55 983.35 469.7 983.55 478 983.7 486.25 984.15 492.7 984.45 498.95 987.2 514.1 989.95 529.3 994.35 550.55 998.75 571.8 1004.05 596.25 1009.35 620.65 1014.75 645.3 1019.5 666.85 1023.7 686.45 1027.95 706.05 1031.25 721.95 1034.55 737.9 1036.55 748.45
L 1039.1 750.6 1044.05 753.35
Q 1050.2 756.4 1059.35 758.85 1068.55 761.25 1079 761.2 1093.9 760.8 1102.45 758.3 1110.95 755.75 1114.6 753.05
L 1117.35 750.7 1118.35 749.2
Q 1132.1 701.05 1135.7 661.6 1139.3 622.2 1136.55 592.35 1133.8 562.55 1128.45 543.3 1123.1 524.05 1118.95 516.3 1113.5 505.65 1101.4 492 Z"/>
</g>

<g id="Symbol_19_0_Layer0_0_FILL">
<path fill="#FFFFFF" stroke="none" d="
M 656.95 766.95
L 648.9 766.15
Q 647.3 766.15 646.3 767.25 645.25 768.35 645.2 769.8 645.15 771.3 646.5 772.5
L 649.1 773.9 654.55 776.1
Q 661.45 778.7 672.95 780.7 684.4 782.7 699.15 781.9 713.85 781.15 730.65 775.45 742.3 771.1 752.6 762.8 762.95 754.5 770.9 745.45 778.9 736.4 783.5 729.9
L 788.3 722.65 787.25 721.25 784.35 718.45
Q 780.55 714.95 775.95 710.9 771.3 706.9 768.6 704.6 766.5 707.95 761.25 715.5 756 723 748.5 732 741.05 741.05 732.35 748.9 723.6 756.75 714.6 760.8 704.7 764.9 693.85 766.4 683 767.85 673.25 767.75 663.55 767.6 656.95 766.95 Z"/>
</g>

<g id="Symbol_51_0_Layer0_0_FILL">
<path fill="#FFFFFF" stroke="none" d="
M 985.85 192.35
L 988.05 188.95 988.85 186.9
Q 984.8 184.8 978.9 183.9 972.95 183.05 966.7 183.05 960.45 183.1 955.45 183.75 950.4 184.4 948.15 185.35 946.3 186.4 942.55 190.3 938.8 194.2 934.75 198.95 930.65 203.7 927.75 207.15
L 924.7 210.8 926.7 212.15
Q 928.55 213.35 930.55 214.55
L 932.15 215.45 933 215.75
Q 944.4 213.9 951.85 212.6 959.25 211.3 963.9 210 968.55 208.75 971.65 207 975 204.95 979 200.7 982.95 196.4 985.85 192.35 Z"/>
</g>

<g id="Symbol_126_0_Layer0_0_FILL">
<path fill="#FFFFFF" stroke="none" d="
M 752.65 747.45
Q 752.5 759.55 752.3 776.4 752.05 793.25 751.85 808.55 751.65 823.8 751.55 831.05 751.45 839.7 751.8 851.6 752.15 863.5 752.65 875.15 753.2 886.8 753.6 894.65
L 754.05 903
Q 760.2 908.05 773.9 910.2 787.55 912.3 804.4 911.85 821.3 911.35 837.15 908.55 853.05 905.75 863.6 901
L 864.9 893.15
Q 866.1 885.75 867.9 875.05 869.7 864.4 871.65 854.1 873.6 843.85 875.2 837.6 877.05 830.4 879.75 819.45 882.45 808.45 885.15 797.3 887.8 786.2 889.6 778.6
L 891.5 770.55
Q 884.05 756.65 865.1 748.1 846.2 739.55 823.25 735.6 800.35 731.65 780.85 731.6 761.4 731.5 752.8 734.5
L 752.65 747.45 Z"/>
</g>

<g id="Symbol_22_0_Layer0_0_FILL">
<path fill="#0083CB" stroke="none" d="
M 943.65 840.8
Q 942.6 838.75 942.2 837.35 941.45 834.6 941.05 831.85 940.7 829.05 940.15 826.35
L 939.65 824.85 939.1 824.45
Q 938.5 824.55 938.05 825.8 937.65 827 937.65 828.25 937.8 831.4 938.75 835.75 939.7 840.1 941.85 843.7 943.95 847.3 947.65 848.15 951.1 848.6 953.45 845.55 955.8 842.55 957.1 838.5 958.4 834.45 958.75 831.75 958.9 830.75 958.95 828.85 959 826.95 958.7 825.25 958.4 823.5 957.45 822.95
L 957.25 822.9
Q 957.1 822.9 957.05 822.95 956.7 823.3 956.6 823.8
L 956.45 824.5
Q 956.2 826.4 956.15 828.4 956.15 830.4 955.8 832.35 955.5 834.05 954.65 836.85 953.8 839.65 952.5 842.15 951.2 844.6 949.5 845.25 947.75 845.7 946.2 844.3 944.7 842.85 943.65 840.8 Z"/>
</g>

<g id="Symbol_101_0_Layer0_0_FILL">
<path fill="#0987CD" stroke="none" d="
M 951.25 738.5
Q 951.1 735.35 950.7 733.55 950.3 731.75 949.05 731.5 947.75 731.25 945.1 732.75 944.35 734.25 944.25 736.05 944.1 737.9 944.25 739.4 942.9 740.8 941.7 742.65 940.5 744.5 939.65 746.1
L 938.55 748.25
Q 933.45 760.6 932.3 778.25 931.1 795.95 933.15 815 935.2 834.05 939.75 850.5 944.25 867 950.55 877.05 950.9 877.6 951.5 878.55 952.1 879.5 952.9 880.55 953.1 882.2 954.05 883.2 954.95 884.2 957.25 883.55
L 957.4 883.4
Q 957.6 883.45 957.75 883.4 957.95 883.4 958.15 883.35 958.15 883.2 958.15 883.05 958.15 882.9 958.15 882.7 959.7 880.65 959.8 877.45 959.95 874.3 959.55 871.7
L 959.1 868.9
Q 957.2 836.3 955.2 803.7 953.2 771.1 951.25 738.5 Z"/>
</g>

<g id="Symbol_102_0_Layer0_0_FILL">
<path fill="#FFFFFF" stroke="none" d="
M 775.35 771.35
L 780.25 779.3
Q 784.9 786.85 791.3 797.4 797.7 808 803.25 817.3 808.75 826.65 810.65 830.5 813.45 836.4 817.35 847.3 821.3 858.15 825.1 869.8 828.95 881.4 831.55 889.5
L 834.3 898
Q 840.35 902.2 856.75 905.3 873.15 908.4 893 909.25 912.85 910.15 929.4 907.7 945.9 905.2 952.25 898.3 953.15 885.95 953 873.25 952.8 860.6 952.15 848 951.45 835.4 950.9 823.35 950.15 804.95 949.25 788.35 948.4 771.7 947.6 758.65 946.8 745.6 946.3 738
L 945.9 730.15
Q 926.5 724.75 904.1 727.45 881.65 730.1 858.55 737.65 835.45 745.2 814.05 754.4 792.65 763.65 775.35 771.35 Z"/>
</g>

<g id="Symbol_23_0_Layer0_0_FILL">
<path fill="#0083CB" stroke="none" d="
M 943.35 838.65
Q 942.15 836.05 941.4 832.95 940.6 829.9 939.6 827.1
L 939.2 826.4 938.9 826.25
Q 938.6 826.4 938.45 827.1 938.3 827.8 938.3 828.5 938.5 831.6 939.5 835.45 940.5 839.25 942.25 842.4 943.95 845.55 946.3 846.7 950.3 848.25 953.15 845.6 956 842.95 957.6 838.15 959.2 833.4 959.35 828.65 959.35 827.95 959.35 826.95 959.3 825.95 959.1 825.15 958.85 824.4 958.4 824.45 958.25 824.75 958.1 825.1
L 957.95 825.6
Q 957.35 827.6 957.1 829.8 956.8 831.95 956.3 834.1 955.15 838.55 953 841.25 950.85 843.95 948.25 843.6 945.7 843.25 943.35 838.65 Z"/>
</g>

<g id="Symbol_24_0_Layer0_0_FILL">
<path fill="#FFFFFF" stroke="none" d="
M 767.75 370.25
Q 761.25 380.3 755.45 391.15 750.05 401.45 744.55 413.1 739.05 424.75 734.6 434.95 730.15 445.1 727.9 450.95
L 771.25 455.05
Q 812.5 458.4 866.55 462.3 920.65 466.2 961.5 468.5
L 992.45 469.9 1000.55 469.95 1003.75 469.5
Q 1002.1 466.45 996 460.25 989.9 454.05 982.05 446.95 974.2 439.85 967.25 434.2 960.3 428.5 957 426.55
L 927.05 411.15
Q 901.4 398.15 869.15 381.9 836.9 365.6 812.8 353.5
L 787.45 340.75
Q 785.1 344.7 779.7 352.45 774.3 360.2 767.75 370.25 Z"/>
</g>

<g id="Symbol_103_0_Layer0_0_FILL">
<path fill="#0987CD" stroke="none" d="
M 948.5 775.95
L 947.65 774.35
Q 947 773.2 946.1 771.85 945.15 770.45 944.2 769.45 943.55 769.35 943.4 769.9 943.2 770.4 943.1 770.9 942.5 773.7 942.9 775.4 943.3 777.15 944.35 778.65 945.4 780.15 946.8 782.25
L 947.45 783.9
Q 947.9 785.15 948.55 786.7 949.2 788.2 950 789.35 950.1 789.3 950.2 789.25
L 950.4 789.1
Q 950.55 788.8 950.55 788.45 950.55 788.1 950.6 787.95 951.05 786.85 950.7 784.5 950.35 782.1 949.7 779.65 949 777.2 948.5 775.95
M 857.6 787
Q 857.85 787.25 858 787.3
L 862.75 787.8
Q 866.9 788.05 871.3 788.25
L 877.15 788.55
Q 877.6 788.6 878.7 788.75 879.75 788.85 880.85 788.8 882 788.7 882.7 788.2 882.5 788 882.25 787.8
L 881.9 787.55
Q 881.5 787.25 880.8 787 880.15 786.75 879.2 786.55 879.3 786.55 879.45 786.5 879.55 786.45 879.65 786.35 879.65 786.2 879.45 786.05 879.25 785.9 879.15 785.85 878.2 785.15 875.95 784.95 873.75 784.75 871.5 784.75 869.2 784.75 867.95 784.75
L 866.25 784.6
Q 864.9 784.5 863.75 784.3 863.5 784.3 863.3 784.4 863.05 784.5 862.95 784.65 862.5 784.65 862.05 784.6 861.6 784.6 861.25 784.55 861 784.55 860.65 784.75 860.3 784.95 860.2 785.15
L 860.25 785.25 859.45 785.2
Q 859.1 785.15 858.75 785.15 858.2 785.25 857.7 785.6 857.25 785.9 857.35 786.5 857.35 786.8 857.6 787
M 945.25 654.15
Q 938.05 671.65 932.85 689.8 927.7 707.95 924.55 728.45 923.7 733.8 923 738.9 922.3 743.95 921.85 748.85 922.25 748.7 922.65 748.6 923 748.45 923.3 748.4 923.6 748.45 923.95 748.5 924.35 748.6 924.45 748.7 926.05 750.4 927.55 754.9 929 759.35 930.3 764.4 931.55 769.45 932.4 772.9 933.05 772.8 933.95 772.85 934.8 772.9 935.85 773.1 935.85 770.65 936.75 767.85 937.65 765 939.7 763.35 941.8 761.65 945.45 762.65 946.95 763.4 948.45 764.65 949.95 765.9 951.1 767.1 952.25 768.3 952.6 768.85 953.95 770.75 955.7 773.9 957.4 777.1 958.65 780.3 959.95 783.5 959.9 785.5 961.1 785.2 962.45 784.9 963.85 784.6 965.35 784.3
L 966.55 784
Q 967.55 783.75 968.75 783.4 969.9 783.05 970.85 782.65 971.6 782.2 972.55 782 973.5 781.85 974.5 782 976.05 781 978.35 780.3 980.7 779.6 982.95 779.2 985.15 778.8 986.45 778.65 987.9 778.4 989.35 778.15 990.75 777.9 992.2 777.65 993.2 777.05 994.25 776.6 995.25 776.1 996.2 775.75 996.8 775.05 997.5 774.35 998.15 773.65 998.9 773 999.4 772.55 1000.2 771.9 1000.95 771.2 1001.9 770.9 1002.85 770.6 1003.85 771.15 1003.95 771.4 1004 771.65 1004.05 771.9 1004.1 772.15 1008.4 767.4 1012.6 762.65 1016.8 757.9 1022 754.15 1022.35 753.8 1022.75 753.5 1023.15 753.2 1023.5 753.7 1023.6 754.75 1023 755.85 1022.45 756.9 1021.8 757.7
L 1020.9 758.85
Q 1019.4 760.95 1017.9 762.85 1016.35 764.8 1014.75 766.6 1019.1 762.15 1023.05 757.5 1027 752.9 1031.25 748
L 1032.25 746.95
Q 1033 746.25 1034.05 745.45 1035.05 744.7 1036.05 744.3 1036.95 746.15 1035.5 748.95 1034.05 751.75 1032.15 754.05
L 1029.8 756.85
Q 1030.924609375 755.5935546875 1032.2 754.45
L 1032.6 754.15
Q 1032.95 753.95 1033.35 753.85 1033.95 755.45 1032.55 757.55 1031.2 759.7 1029.5 761.35
L 1027.45 763.35
Q 1027.3 763.5 1027.15 763.65 1027 763.8 1026.85 763.95 1026.35 764.5 1025.8 765.05 1025.2 765.55 1024.65 766.1 1023.65 767 1022.55 767.9 1021.5 768.8 1020.35 769.7 1018.95 770.8 1017.5 771.9 1016.05 772.95 1014.55 774 1013.65 774.6 1012.8 775.2 1011.9 775.8 1011.05 776.4 1010 777.1 1009 777.8 1008 778.45 1006.95 779.15 1005.7 780.1 1004.4 781 1003.1 781.95 1001.75 782.85 1001.2 783.2 1000.65 783.6 1000.1 783.95 999.5 784.3 1000.1 784.35 1000.7 784.45 1001.3 784.5 1001.9 784.65 1006.6 782.9 1010.9 780.95 1015.15 779.05 1018.5 777.25 1034.55 768.7 1047.3 757.35 1060.05 746 1069.45 732.45 1078.8 718.95 1084.65 703.7 1087.05 698.65 1089.05 693.2 1091 687.8 1092.5 682.15 1093.6 679.6 1094.25 676.65 1094.85 673.75 1095.15 670.7 1097.15 660 1097.85 648.95 1098.55 637.9 1098.05 626.85 1098.35 608.25 1094.65 589.55 1091 570.8 1082.55 552.15 1081.75 550.4 1080.95 548.65
L 1079.35 545.1
Q 1079.05 546.95 1079.75 549.2 1080.5 551.4 1080.8 553.5 1081.15 555.6 1079.6 557 1076.8 559.2 1075.45 557.5 1074.1 555.85 1073.45 552.75 1072.8 549.7 1072.15 547.6 1068.9 548.2 1066.75 544.4 1064.6 540.55 1063.3 535.4 1061.95 530.2 1061.15 526.7
L 1060.65 524.8
Q 1060.3 523.35 1059.85 521.55 1059.4 519.7 1059 518.25 1058.4 517.6 1057.45 517.85
L 1056.65 518.05 1056.2 518.1
Q 1054.05 516.8 1053.95 514.05 1053.85 511.3 1055.15 507.65 1034.95 521.35 1017.3 539.85 999.65 558.35 985.55 578.65 971.45 599 961.85 618.25 952.5 636.7 945.25 654.15
M 1089.15 689.8
Q 1089.4 688.9 1089.6 688.05 1089.8 687.15 1090.05 686.3
L 1090.2 686.05
Q 1090.3 685.95 1090.4 685.85 1090.1 686.85 1089.8 687.85 1089.5 688.8 1089.15 689.8
M 699.55 531.7
Q 699.25 531.2 698.95 530.8 698.8 530.6 698.6 530.5 698.4 530.4 698.15 530.4 697.85 530 697.5 529.65 697.2 529.3 696.9 529 695.65 528.5 695.95 529.2 696.25 529.95 697.15 531.25 697.15 531.45 697.15 531.75 697.2 532.05 697.25 532.45
L 696.5 530.8
Q 696 529.85 695.3 528.75 694.6 527.6 693.75 526.8 692.9 526.35 692.75 526.7 692.65 527.05 692.9 527.85 693.15 528.65 693.45 529.5 697.5 542 702.45 554.5 707.35 567 711.2 579.65 715.05 592.35 715.9 605.35 715.7 609.55 715.35 614 714.95 618.45 714.3 622.6 713.6 626.7 712.6 629.95 712.35 632.1 711.95 634.25 711.6 636.4 711 638.6 710.8 639.85 710.55 641.1 710.3 642.3 710 643.5 709.95 643.75 709.9 644 709.85 644.3 709.85 644.55
L 709.75 645.25
Q 709.7 645.6 709.65 645.9 709.1 649.5 708.6 652.95 708.05 656.4 707.3 660 706.95 661.9 706.5 663.75 706.05 665.6 705.55 667.4 704.3 670.7 703.2 674.1 702.15 677.5 701.25 679.45 699.25 683.6 697.8 689.55 696.3 695.45 695.9 702.05 696.15 703.55 696.5 705.05 696.8 706.55 697.2 708.05
L 697.25 708.2
Q 697.25 708.3 697.3 708.4 697.3 708.5 697.35 708.65 697.7 709.95 698.2 711.3 698.65 712.65 699.2 714.05 699.45 714.6 699.7 715.15 699.95 715.7 700.2 716.3 700.5 716.85 700.75 717.4 701.05 717.95 701.35 718.55 701.6 719 701.85 719.45 702.1 719.85 702.35 720.3
L 702.65 720.75
Q 702.8 721 702.9 721.25 703.55 722.25 705.1 724.45 706.7 726.65 708 728.8
L 709.05 730.65 709.4 731.85
Q 709.4 732 709.3 732.3 709.2 732.6 708.85 732.75
L 708.4 732.7
Q 708.5 732.85 708.65 733 708.75 733.15 708.9 733.3 709.75 733.8 711.4 734.85 713.05 735.9 715 737.25 716.65 735.7 717.7 733.95 718.8 732.15 719.3 731.4 727.45 722.25 732.15 716.1 736.9 710 739.2 703.9 741.55 697.85 742.45 688.7 746.45 671.3 746.65 652.9 746.85 634.45 742.85 616 738.8 597.55 730.05 580.1 728.2 576.5 726.2 573.25 724.15 569.95 722.05 566.95 721.15 563.5 719.9 560.45 718.65 557.4 716.85 555.1 715.65 553.65 714.6 551.85 713.5 550 712.5 548.15
L 711.65 546.55
Q 711 545.3 710.15 543.75 709.3 542.2 708.5 541 708 540.6 707.45 540.6 706.9 540.55 706.5 541 706.4 541.1 706.35 541.3 706.3 541.45 706.35 541.7 705.3 540.1 704.25 538.55 703.2 536.95 702.15 535.45
L 701.45 534.45
Q 700.85 533.7 700.05 532.7 699.8 532.2 699.55 531.7
M 719.3 570.3
L 719.2 569.95 719.3 570.1 719.3 570.3
M 1056.6 503.4
Q 1056.65 503.6 1056.75 503.8 1056.85 503.65 1056.9 503.45 1057 503.3 1057.1 503.1 1056.95 503.05 1056.75 503 1056.6 503 1056.45 503.05 1056.5 503.25 1056.6 503.4
M 1103.3 488.7
Q 1103.05 489.15 1102.8 489.6 1103.35 489.3 1103.75 488.9 1104.2 488.5 1104.4 488 1104.25 487.95 1104.1 487.9 1103.95 487.85 1103.8 487.8 1103.55 488.25 1103.3 488.7
M 710.5 598.25
Q 710.6 598.55 710.7 598.85 710.7 598.4 710.7 597.9 710.7 597.45 710.7 596.95 710.55 597.1 710.45 597.25 710.35 597.4 710.35 597.65 710.4 597.95 710.5 598.25 Z"/>
</g>

<g id="Symbol_104_0_Layer0_0_FILL">
<path fill="#FFFFFF" stroke="none" d="
M 753.55 440.15
L 743.3 443.15
Q 733.65 446.25 721.45 453.2 709.25 460.15 701.15 471.75 693.05 483.35 695.65 500.35 697.55 510.8 700.15 523.1 702.8 535.4 707.55 552.4 712.3 569.4 720.55 593.85 722.1 598.75 721.8 607.05 721.45 615.4 720 625.5 718.5 635.6 716.65 645.85 714.75 656.1 713.15 664.9 711.75 672.2 708.9 679.7 706.1 687.2 703.8 695.3 701.45 703.4 701.4 712.4 701.4 721.4 705.55 731.7 712.7 746.05 745.25 758.1 777.8 770.15 820.5 778.45 863.25 786.75 901.05 789.85 938.85 792.95 956.55 789.4 975.15 785.55 992.8 780.25 1010.45 774.95 1026.6 765.15 1042.7 755.35 1056.6 737.95 1068.45 722.75 1076.5 702.4 1084.55 682.05 1088.55 659.25 1092.55 636.5 1092.15 613.95 1091.8 591.35 1086.8 571.7 1080.65 548.6 1073.15 532.75 1065.65 516.85 1058.5 507.15 1051.4 497.45 1046.4 492.8
L 1040.35 487.5 994.5 479.25
Q 951.75 472.1 896 463.1 840.25 454.05 798 447.3
L 753.55 440.15 Z"/>
</g>

<g id="Symbol_95_0_Layer0_0_FILL">
<path fill="#0987CD" stroke="none" d="
M 1162.4 196.4
Q 1160.05 195.8 1157.25 196.45 1157 196.5 1156.4 196.65 1155.75 196.75 1155.4 197.2 1154.05 198.2 1152.5 199.65 1150.95 201.15 1149.75 202.4
L 1148.3 204.1
Q 1142.75 212.75 1137.85 220.9 1132.95 229.1 1127.8 237 1126.15 238.8 1124.8 240.85 1123.4 242.9 1122.2 245.1 1119.5 248.8 1116.5 252.45 1113.5 256.15 1110.1 259.85 1105.6 264.9 1100.95 270.75 1096.25 276.6 1091.05 281.75
L 1090.35 282.2
Q 1090 282.4 1089.65 282.6
L 1089.4 282.7
Q 1085.2 284.95 1081.4 287.25 1077.65 289.55 1073.5 290.75 1069.35 291.95 1064 290.95 1060.45 290.15 1057.3 287.55 1054.2 284.95 1051.6 281.2 1049 277.45 1047.05 273.2 1047.05 272.45 1047.05 271.9 1047 271.3 1047 271.1 1046.65 267.95 1045.9 265 1045.15 262.05 1044.35 259.15 1044.05 256.2 1043.8 253.55 1043.55 250.85 1043.2 248.7 1042.9 246.95 1042.65 245.3 1042.4 243.7 1041.75 242.1 1041.2 240.4 1040.25 239 1039.25 237.55 1037.7 236.6 1037.45 236.35 1037.25 236.15 1037.05 236 1036.9 235.9 1033 233.75 1027.2 236 1021.4 238.2 1015.25 242.2 1009.15 246.2 1004.25 249.35 1003.2 249.85 1002.35 250.3
L 1001.2 250.95
Q 1000.95 251.05 1000.75 251.15 1000.55 251.25 1000.35 251.35 992.6 252 985.9 249.45 979.25 246.95 972.8 241.9 966.35 236.9 959.25 230.2 957 228.1 954.55 226.05 952.1 224 949.45 222.1 949.3 222.2 949.15 222.3 949 222.4 948.85 222.5 948.45 222.75 948.15 223.1 947.85 223.4 947.6 223.85 947.55 223.95 947.5 224.1 947.45 224.25 947.4 224.4
L 946.7 224.15 946.45 224.25
Q 946.4 224.6 946.7 225.25 947 225.85 947.2 226.25
L 947.25 226.45
Q 946.15 230.8 944.5 232.1 942.8 233.4 940.55 232.75 938.25 232.05 935.4 230.45
L 935.05 231.75
Q 934.7 232.9 934.15 233.7 931.25 237.15 929.25 236.55 927.2 235.95 925.05 234.45 922.95 232.95 919.75 233.7 916.2 234.8 914 235.1 911.85 235.35 909.6 234.95 907.35 234.55 903.5 233.65 897.75 232.4 894 232.35 890.2 232.3 886.5 232.7 882.85 233.15 877.45 233.35 872.05 233.5 868.3 234.7 864.55 235.85 861.35 238.3 858.1 240.75 854.4 244.8 847.55 251.9 839.95 259.35 832.35 266.8 825.6 274.95 818.85 283.1 814.5 292.25 813.95 293.4 812.85 295.9 811.8 298.4 810.35 301.75 808.9 305.05 807.2 308.8 806.9 309.55 806.55 310.3 806.2 311 805.9 311.75 805.45 312.65 805.05 313.5 804.65 314.4 804.25 315.25 803.65 316.5 803.05 317.7 802.45 318.95 801.9 320.1 802.05 321.7 802.35 323.1 802.6 324.5 803 325.6 804.8 330.25 810.1 336.05 815.4 341.9 821.4 347.5 827.4 353.15 831.3 357.1 838.8 365.35 844 371.15 849.15 377 855.55 381.15 861.9 385.35 873.1 388.6 885.35 392.2 897.1 394.95 908.9 397.7 920.85 399.35 932.75 401 945.45 401.2 951.9 401.2 958.55 401.5 965.15 401.7 971.65 402.9 978.1 404.05 984.15 406.85 990.15 409.6 995.4 411.25 1000.65 412.9 1005.8 415.1 1011 417.35 1016.7 421.65 1018.7 423.2 1022.2 425.6 1025.65 428.05 1030 430.8 1034.3 433.6 1038.85 436.15 1033.6 441.15 1028.65 446.8 1023.7 452.5 1020.55 458.1 1017.4 463.7 1017.55 468.35 1017.6 468.95 1017.7 469.55 1017.8 470.15 1018 470.7 1018.35 471.5 1018.75 472.25 1019.15 473 1019.6 473.7 1019.8 474 1020.05 474.3 1020.3 474.55 1020.55 474.8
L 1020.25 474.75
Q 1020.55 475.25 1020.95 475.75 1021.3 476.25 1021.7 476.7 1028.55 477.6 1034.95 477.3 1041.3 477.05 1047.7 476 1054.1 475 1060.95 473.6 1067.25 472.9 1073.65 471.75 1080.1 470.55 1086.55 468.8 1087.5 468.6 1088.45 468.3 1089.45 468.05 1090.45 467.75 1107.7 462.8 1123.6 453.45 1139.5 444.15 1152 429.65 1164.5 415.15 1171.65 394.7 1172.8 391.4 1174.3 386.9 1175.85 382.35 1177.2 377.35 1178.6 372.35 1179.3 367.6 1181.35 357.8 1182.7 348 1184 338.2 1184.8 328.85 1185.45 321.75 1186.2 315.75 1187 309.75 1187.35 303.6 1187.75 297.5 1187.2 290.05 1186.65 281.75 1186.45 274.2 1186.2 266.65 1185.85 259.3 1185.5 251.95 1184.4 244.3 1184.05 240.25 1183.45 236.25 1182.8 232.3 1181.8 228.45 1180.65 224 1178.75 218.1 1176.85 212.25 1173.85 206.9 1170.9 201.5 1166.6 198.65 1164.75 197 1162.4 196.4
M 1021.75 240.95
L 1021.85 240.9 1021.85 240.95 1021.75 240.95
M 984.75 252.05
L 984.35 251.9 984.2 251.8
Q 984.3091796875 251.8697265625 984.4 251.9 984.6 251.95 984.75 252.05 Z"/>
</g>

<g id="Symbol_40_0_Layer0_0_FILL">
<path fill="#FFFFFF" stroke="none" d="
M 1122.8 255.7
Q 1110 273.4 1094.75 285.3 1079.5 297.2 1063.95 294.65 1055.65 292.65 1050.65 285.8 1045.7 279 1043.2 270.45 1040.75 261.95 1039.95 254.7 1039.2 247.5 1039.2 244.7 1039.1 241.9 1037.25 240.05 1035.45 238.2 1032.75 237.9 1030 237.6 1027.25 239.6 1022.9 242.9 1016.85 247 1010.75 251.05 1003.75 253.85 996.8 256.6 989.75 256.05 986.3 255.55 980.9 251.8 975.45 248.05 969 242.55 962.55 237.1 956.1 231.5 949.65 225.85 944.15 221.65 939.8 218.15 928.8 215.2 917.8 212.2 901.4 212.95 884.95 213.7 864.2 221.35 849.8 227.1 840.35 234.2 830.9 241.3 825.95 247.15
L 822 251.95 820.15 254.8
Q 816.25 262.3 810.05 279.1 803.9 295.9 797.55 314.65 791.2 333.4 786.9 346.75
L 782.4 360.7 784.7 367.7
Q 786.85 374.25 792.8 384.7 798.7 395.1 810.25 407.25 821.75 419.4 840.75 431.1 864.35 445.05 887.95 453.8 911.55 462.55 931.45 467.05 951.35 471.55 963.95 472.8 1002.1 476.9 1032.15 474.8 1062.15 472.75 1084.1 465.75 1106.05 458.75 1119.95 448.05 1138.6 433.8 1151.75 413.1 1164.95 392.4 1172.05 367 1179.15 341.65 1179.65 313.25 1180.05 279.35 1178 256.95 1175.95 234.6 1173.45 222.6
L 1170.05 207.8
Q 1168.55 202.4 1165.05 200.7 1161.55 199 1158.1 200.15 1154.65 201.3 1153.2 204.55
L 1143.75 223.05
Q 1135.55 238 1122.8 255.7 Z"/>
</g>

<g id="Symbol_26_0_Layer0_0_FILL">
<path fill="#FFFFFF" stroke="none" d="
M 889.05 162.7
Q 882.2 166.25 875.95 171.05 869.7 175.8 865.25 180.35 860.8 184.9 859.45 187.7 858.55 190.25 858.1 197.25 857.65 204.25 857.5 212.35 857.35 220.4 857.35 226.25
L 857.35 232.35 860.15 232.1
Q 862.8 231.85 866.3 231.45 869.8 231.05 872.55 230.65
L 874.75 230.25 875.7 229.95
Q 884.4 218.9 889.6 211 894.75 203.05 897.2 197.95 899.6 192.85 900.1 190.3 900.55 188.15 901.15 183.4 901.8 178.65 902.25 173.2 902.7 167.75 902.75 163.55
L 902.55 160.15 902 158.35
Q 895.85 159.15 889.05 162.7 Z"/>
</g>

<g id="Symbol_127_0_Layer0_0_FILL">
<path fill="#0987CD" stroke="none" d="
M 952 506.4
Q 955.2 507.45 958.6 508.05 961 508.55 963.3 509 965.6 509.45 967.8 509.85 973.9 511 980.75 510.55 987.65 510.15 994.25 508 1000.85 505.85 1006.2 501.8 1006.8 501.15 1007.35 500.5 1007.9 499.8 1008.35 499.1 1008.6 498.65 1008.85 497.95 1009.1 497.25 1009.3 496.4 1009.2 496.25 1009.05 496.15 1008.9 496.05 1008.7 496.05 1008.55 495.9 1008.35 495.8 1008.15 495.7 1007.85 495.6 1007.75 495.6 1007.65 495.65 1007.6 495.65 1007.5 495.65 1000.5 500.05 992.75 502.65 984.95 505.25 976.9 505.95 974.25 506.45 971.5 506.6 968.7 506.75 966.2 506.6 965.45 506.55 964.75 506.45 964.1 506.4 963.45 506.3 958.7 505.6 953.6 504.35 948.55 503.1 943.95 501.05 943.4 500.85 942.9 500.55 942.35 500.3 941.85 500.05 941.7 499.95 941.45 499.8 941.2 499.7 940.85 499.55 940.95 499.65 941 499.75 941.1 499.85 941.2 499.95 941.95 500.75 942.8 501.5 943.65 502.2 944.6 502.85 944.75 503 944.9 503.1 945.05 503.2 945.25 503.3
L 946.1 503.8
Q 948.8 505.35 952 506.4 Z"/>
</g>

<g id="Symbol_28_0_Layer0_0_FILL">
<path fill="#FFFFFF" stroke="none" d="
M 986.25 295.45
Q 983.9 288.7 978.35 283.8 972.85 278.85 963.05 277.05 953.1 275.55 946.15 278.6 939.15 281.7 934.5 287.45 929.85 293.25 927 299.8 924.15 306.3 922.45 311.7 931.35 312.7 942.55 314.6 953.75 316.45 965.55 318.7 977.3 320.9 987.9 323.05 988.85 316.6 988.7 309.4 988.55 302.15 986.25 295.45 Z"/>
</g>
</defs>



<g transform="matrix( -0.0213775634765625, -0.280670166015625, 0.1002349853515625, -0.16107177734375, 1126.65,728.75) ">
<g transform="matrix( 1, 0, 0, 1, 0,0) ">
<use xlink:href="#Symbol_14_0_Layer0_0_FILL"/>
</g>
</g>

<g transform="matrix( 0.1186065673828125, -0.8490142822265625, 0.04095458984375, 0.6680908203125, 1028.8,853) ">
<g transform="matrix( 1, 0, 0, 1, 0,0) ">
<use xlink:href="#Symbol_16_0_Layer0_0_FILL"/>
</g>
</g>

<g transform="matrix( 0.06298828125, -0.52532958984375, 0.147857666015625, 0.016754150390625, 1012.75,881.75) ">
<g transform="matrix( 1, 0, 0, 1, 0,0) ">
<use xlink:href="#Symbol_17_0_Layer0_0_FILL"/>
</g>
</g>

<g transform="matrix( 0.109283447265625, -0.29241943359375, 0.0624542236328125, 0.249420166015625, 998.95,457.4) ">
<g transform="matrix( 1, 0, 0, 1, 0,0) ">
<use xlink:href="#Symbol_8_0_Layer0_0_FILL"/>
</g>
</g>

<g transform="matrix( 0.1066741943359375, -0.2896575927734375, 0.0679779052734375, 0.2626953125, 999.6,448.3) ">
<g transform="matrix( 1, 0, 0, 1, 0,0) ">
<use xlink:href="#Symbol_9_0_Layer0_0_FILL"/>
</g>
</g>

<g transform="matrix( -0.0279998779296875, -0.3778228759765625, 0.1247711181640625, -0.163543701171875, 1118.6,683.55) ">
<g transform="matrix( 1, 0, 0, 1, 0,0) ">
<use xlink:href="#Symbol_10_0_Layer0_0_FILL"/>
</g>
</g>

<g transform="matrix( 0.116485595703125, -0.31170654296875, 0.0665740966796875, 0.265869140625, 990,470.5) ">
<g transform="matrix( 1, 0, 0, 1, 0,0) ">
<use xlink:href="#Symbol_121_0_Layer0_0_FILL"/>
</g>
</g>

<g transform="matrix( 0.116485595703125, -0.31170654296875, 0.0665740966796875, 0.265869140625, 990,470.5) ">
<g transform="matrix( 1, 0, 0, 1, 0,0) ">
<use xlink:href="#Symbol_12_0_Layer0_0_FILL"/>
</g>
</g>

<g transform="matrix( 0.7678375244140625, 0.74273681640625, 0.2076873779296875, -1.1193695068359375, 265.4,-106.35) ">
<g transform="matrix( 1, 0, 0, 1, 0,0) ">
<use xlink:href="#Symbol_122_0_Layer0_0_FILL"/>
</g>
</g>

<g transform="matrix( 1.049468994140625, 0.0149383544921875, -0.0149383544921875, 1.049468994140625, 35.55,28.55) ">
<g transform="matrix( 1, 0, 0, 1, 0,0) ">
<use xlink:href="#Symbol_123_0_Layer0_0_FILL"/>
</g>
</g>

<g transform="matrix( 1.049468994140625, 0.0149383544921875, -0.0149383544921875, 1.049468994140625, 35.55,28.55) ">
<g transform="matrix( 1, 0, 0, 1, 0,0) ">
<use xlink:href="#Symbol_124_0_Layer0_0_FILL"/>
</g>
</g>

<g transform="matrix( 0.6776275634765625, -0.066741943359375, 0.0583343505859375, 0.6471710205078125, 181.2,258.5) ">
<g transform="matrix( 1, 0, 0, 1, 0,0) ">
<use xlink:href="#Symbol_125_0_Layer0_0_FILL"/>
</g>
</g>

<g transform="matrix( 0.2573394775390625, -0.613861083984375, 0.627227783203125, 0.245391845703125, 349.1,1144.7) ">
<g transform="matrix( 1, 0, 0, 1, 0,0) ">
<use xlink:href="#Symbol_98_0_Layer0_0_FILL"/>
</g>
</g>

<g transform="matrix( 0.2573394775390625, -0.613861083984375, 0.627227783203125, 0.245391845703125, 349.1,1144.7) ">
<g transform="matrix( 1, 0, 0, 1, 0,0) ">
<use xlink:href="#Symbol_99_0_Layer0_0_FILL"/>
</g>
</g>

<g transform="matrix( -0.6762237548828125, -0.0059356689453125, 0.0111236572265625, 0.662933349609375, 1456.6,257.6) ">
<g transform="matrix( 1, 0, 0, 1, 0,0) ">
<use xlink:href="#Symbol_19_0_Layer0_0_FILL"/>
</g>
</g>

<g transform="matrix( 0.5982666015625, 0.197418212890625, -0.164398193359375, 0.71124267578125, 416.3,124.95) ">
<g transform="matrix( 1, 0, 0, 1, 0,0) ">
<use xlink:href="#Symbol_51_0_Layer0_0_FILL"/>
</g>
</g>

<g transform="matrix( 0.76708984375, 0.0775909423828125, 0.0662994384765625, 0.8242340087890625, 130.6,73.7) ">
<g transform="matrix( 1, 0, 0, 1, 0,0) ">
<use xlink:href="#Symbol_126_0_Layer0_0_FILL"/>
</g>
</g>

<g transform="matrix( 0.745025634765625, 0.194000244140625, 0.0701446533203125, 0.7761077880859375, 22.5,19) ">
<g transform="matrix( 1, 0, 0, 1, 0,0) ">
<use xlink:href="#Symbol_22_0_Layer0_0_FILL"/>
</g>
</g>

<g transform="matrix( 0.6873626708984375, -0.01580810546875, 0.201141357421875, 0.828338623046875, 175.2,149.6) ">
<g transform="matrix( 1, 0, 0, 1, 0,0) ">
<use xlink:href="#Symbol_101_0_Layer0_0_FILL"/>
</g>
</g>

<g transform="matrix( 0.6873626708984375, -0.01580810546875, 0.201141357421875, 0.828338623046875, 175.2,149.6) ">
<g transform="matrix( 1, 0, 0, 1, 0,0) ">
<use xlink:href="#Symbol_102_0_Layer0_0_FILL"/>
</g>
</g>

<g transform="matrix( 0.7342071533203125, 0.0241546630859375, 0.1531524658203125, 0.7589263916015625, 163.65,187.55) ">
<g transform="matrix( 1, 0, 0, 1, 0,0) ">
<use xlink:href="#Symbol_23_0_Layer0_0_FILL"/>
</g>
</g>

<g transform="matrix( 0.6060333251953125, 0.1909942626953125, -0.08746337890625, 0.6240386962890625, 370.7,140.9) ">
<g transform="matrix( 1, 0, 0, 1, 0,0) ">
<use xlink:href="#Symbol_24_0_Layer0_0_FILL"/>
</g>
</g>

<g transform="matrix( -0.6417999267578125, -0.1258087158203125, -0.078857421875, 0.699798583984375, 1484.3,351.05) ">
<g transform="matrix( 1, 0, 0, 1, 0,0) ">
<use xlink:href="#Symbol_103_0_Layer0_0_FILL"/>
</g>
</g>

<g transform="matrix( -0.6417999267578125, -0.1258087158203125, -0.078857421875, 0.699798583984375, 1484.3,351.05) ">
<g transform="matrix( 1, 0, 0, 1, 0,0) ">
<use xlink:href="#Symbol_104_0_Layer0_0_FILL"/>
</g>
</g>

<g transform="matrix( 0.60137939453125, 0.2563323974609375, -0.2473297119140625, 0.6126556396484375, 434.95,84.95) ">
<g transform="matrix( 1, 0, 0, 1, 0,0) ">
<use xlink:href="#Symbol_95_0_Layer0_0_FILL"/>
</g>
</g>

<g transform="matrix( 0.60137939453125, 0.2563323974609375, -0.2473297119140625, 0.6126556396484375, 434.95,84.95) ">
<g transform="matrix( 1, 0, 0, 1, 0,0) ">
<use xlink:href="#Symbol_40_0_Layer0_0_FILL"/>
</g>
</g>

<g transform="matrix( 0.492889404296875, 0.40582275390625, -0.250732421875, 0.5947265625, 530,-37.75) ">
<g transform="matrix( 1, 0, 0, 1, 0,0) ">
<use xlink:href="#Symbol_26_0_Layer0_0_FILL"/>
</g>
</g>

<g transform="matrix( 0.327667236328125, 0.233673095703125, -0.2229461669921875, 0.5805816650390625, 741.65,26.7) ">
<g transform="matrix( 1, 0, 0, 1, 0,0) ">
<use xlink:href="#Symbol_127_0_Layer0_0_FILL"/>
</g>
</g>

<g transform="matrix( 0.571929931640625, 0.2442474365234375, -0.237945556640625, 0.5888519287109375, 427.8,93.2) ">
<g transform="matrix( 1, 0, 0, 1, 0,0) ">
<use xlink:href="#Symbol_28_0_Layer0_0_FILL"/>
</g>
</g>
</svg>
