
<svg xmlns="http://www.w3.org/2000/svg" version="1.1" xmlns:xlink="http://www.w3.org/1999/xlink" preserveAspectRatio="none" x="0px" y="0px" width="760px" height="880px" viewBox="0 0 760 880">
<defs>


<g id="Symbol_19_0_Layer0_0_FILL">
<path fill="#FFFFFF" stroke="none" d="
M 656.95 766.95
L 648.9 766.15
Q 647.3 766.15 646.3 767.25 645.25 768.35 645.2 769.8 645.15 771.3 646.5 772.5
L 649.1 773.9 654.55 776.1
Q 661.45 778.7 672.95 780.7 684.4 782.7 699.15 781.9 713.85 781.15 730.65 775.45 742.3 771.1 752.6 762.8 762.95 754.5 770.9 745.45 778.9 736.4 783.5 729.9
L 788.3 722.65 787.25 721.25 784.35 718.45
Q 780.55 714.95 775.95 710.9 771.3 706.9 768.6 704.6 766.5 707.95 761.25 715.5 756 723 748.5 732 741.05 741.05 732.35 748.9 723.6 756.75 714.6 760.8 704.7 764.9 693.85 766.4 683 767.85 673.25 767.75 663.55 767.6 656.95 766.95 Z"/>
</g>

<g id="Symbol_5_0_Layer0_0_FILL">
<path fill="#0987CD" stroke="none" d="
M 1005.65 543.5
L 1001.25 543.5 1001.25 545.8
Q 999.95 544.35 998.5 543.65 997.05 542.95 995.4 542.95 993.5 542.95 991.9 543.7 990.3 544.45 989.05 545.9 987.8 547.35 987.15 549.2 986.55 551.05 986.55 553.25 986.55 555.5 987.15 557.35 987.8 559.2 989.05 560.7 990.35 562.2 991.95 562.9 993.55 563.65 995.5 563.65 997.05 563.65 998.5 563 999.95 562.35 1001.25 561.05
L 1001.25 563.1 1005.65 563.1 1005.65 543.5
M 1001.55 553.35
Q 1001.55 554.7 1001.15 555.85 1000.8 557 1000.05 557.9 999.3 558.75 998.35 559.15 997.35 559.6 996.15 559.6 995.05 559.6 994.1 559.15 993.15 558.7 992.4 557.8 991.7 556.95 991.35 555.8 990.95 554.65 990.95 553.25 990.95 551.9 991.35 550.8 991.7 549.7 992.45 548.8 993.2 547.95 994.15 547.5 995.1 547.05 996.2 547.05 997.4 547.05 998.35 547.5 999.3 547.9 1000.05 548.8 1000.8 549.7 1001.15 550.8 1001.55 551.95 1001.55 553.35
M 980.35 543.45
Q 979.9 543.7 979.35 544.15 978.85 544.6 978.25 545.25
L 978.25 543.5 973.9 543.5 973.9 563.1 978.25 563.1 978.25 552.95
Q 978.25 550.15 979.1 548.75 980 547.35 981.8 547.35 982.35 547.35 982.95 547.6 983.6 547.8 984.2 548.25
L 986.2 544.15
Q 985.25 543.55 984.35 543.25 983.45 542.95 982.6 542.95 981.95 542.95 981.4 543.1 980.85 543.2 980.35 543.45
M 1016.6 543.45
Q 1016.15 543.7 1015.65 544.15 1015.1 544.65 1014.45 545.3
L 1014.45 543.5 1010.15 543.5 1010.15 563.1 1014.45 563.1 1014.45 553
Q 1014.45 551.45 1014.7 550.3 1014.9 549.2 1015.3 548.45 1015.75 547.75 1016.4 547.4 1017.05 547.05 1018 547.05 1019.45 547.05 1020.15 548.35 1020.9 549.65 1020.9 552.25
L 1020.9 563.1 1025.25 563.1 1025.25 553
Q 1025.25 551.4 1025.45 550.3 1025.65 549.15 1026.05 548.45 1026.45 547.75 1027.1 547.4 1027.75 547.05 1028.65 547.05 1029.45 547.05 1030 547.35 1030.55 547.65 1030.9 548.25 1031.25 548.8 1031.4 549.8 1031.55 550.8 1031.55 552.2
L 1031.55 563.1 1035.9 563.1 1035.9 551
Q 1035.9 546.95 1034.35 544.95 1032.75 542.95 1029.55 542.95 1027.8 542.95 1026.45 543.7 1025.05 544.4 1024.05 545.85 1023.1 544.4 1021.85 543.7 1020.6 542.95 1019 542.95 1018.3 542.95 1017.7 543.1 1017.1 543.2 1016.6 543.45
M 920.15 543.5
Q 918.9 542.95 917.25 542.95 915.8 542.95 914.55 543.55 913.25 544.15 912.1 545.3
L 912.1 543.5 907.75 543.5 907.75 563.1 912.1 563.1 912.1 553.65
Q 912.1 551.8 912.35 550.55 912.55 549.25 913 548.55 913.45 547.8 914.25 547.4 915 547.05 916.05 547.05 917.05 547.05 917.75 547.35 918.45 547.6 918.8 548.15 919.2 548.7 919.4 549.7 919.6 550.7 919.6 552.15
L 919.6 563.1 923.95 563.1 923.95 551.1
Q 923.95 549 923.55 547.5 923.15 546.05 922.35 545.1 921.45 544.05 920.15 543.5
M 903.25 543.5
L 898.9 543.5 898.9 563.1 903.25 563.1 903.25 543.5
M 900 538.1
Q 900.5 538.35 901.1 538.35 901.65 538.35 902.15 538.1 902.65 537.9 903.05 537.45 903.5 537.05 903.7 536.5 903.9 536 903.9 535.4 903.9 534.75 903.7 534.25 903.5 533.75 903.05 533.3 902.65 532.9 902.15 532.65 901.65 532.45 901.05 532.45 900.5 532.45 900 532.65 899.5 532.9 899.05 533.3 898.65 533.75 898.45 534.25 898.25 534.75 898.25 535.35 898.25 536 898.45 536.5 898.65 537.05 899.05 537.45 899.5 537.9 900 538.1
M 941.45 543.7
Q 939.65 542.95 937.55 542.95 935.5 542.95 933.7 543.7 931.9 544.45 930.45 545.95 929 547.45 928.3 549.25 927.55 551.05 927.55 553.15 927.55 555.4 928.25 557.3 929 559.15 930.4 560.65 931.85 562.15 933.6 562.9 935.4 563.65 937.5 563.65 939.6 563.65 941.4 562.9 943.25 562.15 944.7 560.7 946.15 559.2 946.9 557.35 947.6 555.5 947.6 553.3 947.6 551.15 946.9 549.3 946.15 547.45 944.7 545.95 943.25 544.45 941.45 543.7
M 943.15 553.35
Q 943.15 554.75 942.8 555.9 942.4 557.05 941.65 557.9 940.9 558.75 939.85 559.2 938.85 559.6 937.55 559.6 936.3 559.6 935.3 559.15 934.25 558.75 933.5 557.9 932.75 557 932.35 555.85 932 554.7 932 553.25 932 551.85 932.4 550.75 932.75 549.65 933.55 548.8 934.3 547.9 935.3 547.45 936.35 547.05 937.55 547.05 938.85 547.05 939.85 547.45 940.85 547.9 941.65 548.8 942.4 549.65 942.8 550.75 943.15 551.9 943.15 553.35
M 962.4 543.65
Q 960.9 542.95 959.15 542.95 957.1 542.95 955.5 543.75 953.85 544.55 952.6 546.15 951.45 547.65 950.9 549.45 950.3 551.3 950.3 553.4 950.3 555.6 950.95 557.45 951.55 559.3 952.8 560.75 954 562.2 955.6 562.9 957.15 563.65 959.1 563.65 960.8 563.65 962.25 562.95 963.75 562.25 965.05 560.9
L 965.05 563.65
Q 965.05 566.65 963.85 568.2 962.65 569.7 960.3 569.7 959 569.7 958 569.25 957 568.8 956.35 567.85 956.05 567.5 955.85 566.9 955.65 566.35 955.5 565.65
L 951.15 565.65
Q 951.35 567.55 952.05 569.05 952.8 570.55 954.05 571.65 955.25 572.7 956.8 573.25 958.35 573.8 960.25 573.8 962.5 573.8 964.25 573 966 572.25 967.25 570.75 967.95 569.95 968.4 569 968.85 568.05 969.05 566.95 969.15 566.55 969.2 566.05 969.25 565.6 969.3 565.05 969.35 564.55 969.35 563.95 969.4 563.3 969.4 562.6
L 969.4 543.5 965.05 543.5 965.05 545.7
Q 963.85 544.35 962.4 543.65
M 965.2 553.35
Q 965.2 554.7 964.9 555.8 964.55 556.85 963.9 557.75 963.15 558.65 962.2 559.15 961.2 559.6 959.95 559.6 958.7 559.6 957.75 559.15 956.75 558.7 956.05 557.75 955.4 556.9 955.1 555.8 954.75 554.7 954.75 553.35 954.75 552 955.1 550.9 955.4 549.8 956.05 548.95 956.75 548 957.75 547.5 958.7 547.05 959.95 547.05 961.1 547.05 962.05 547.5 963 547.9 963.75 548.8 964.5 549.65 964.85 550.8 965.2 551.9 965.2 553.35
M 887.65 542.95
Q 886.25 542.95 885 543.5 883.7 544.05 882.55 545.15
L 882.55 534 878.2 534 878.2 563.1 882.55 563.1 882.55 553.6
Q 882.55 551.8 882.8 550.55 883 549.25 883.45 548.5 883.9 547.8 884.7 547.4 885.55 547.05 886.65 547.05 887.55 547.05 888.2 547.3 888.85 547.55 889.25 548.1 889.65 548.65 889.85 549.5 890.05 550.35 890.05 551.5
L 890.05 563.1 894.4 563.1 894.4 551.1
Q 894.4 549.05 894 547.55 893.6 546.05 892.75 545.1 891.8 544.05 890.55 543.5 889.25 542.95 887.65 542.95
M 868.15 543.5
L 863.8 543.5 863.8 563.1 868.15 563.1 868.15 552.95
Q 868.15 550.15 869.05 548.75 869.95 547.35 871.7 547.35 872.3 547.35 872.9 547.6 873.5 547.8 874.15 548.25
L 876.1 544.15
Q 875.2 543.55 874.3 543.25 873.4 542.95 872.5 542.95 871.85 542.95 871.3 543.1 870.75 543.2 870.3 543.45 869.8 543.7 869.3 544.15 868.75 544.6 868.15 545.25
L 868.15 543.5 Z"/>
</g>

<g id="Symbol_20_0_Layer0_0_FILL">
<path fill="#AED044" stroke="none" d="
M 737.95 398.15
L 735.5 397.75
Q 734.25 397.55 733 397.4 731.75 397.2 730.5 397.05 732.55 398.2 734.45 398.45 736.35 398.65 737.95 398.15
M 943.15 582.8
Q 940.15 588.55 938.95 593.15 939.3 593.25 939.7 593.4 940.05 593.5 940.45 593.65 942.55 594.4 944.7 595.1 946.85 595.85 949 596.55 949.5 595.6 950.1 594.7 950.65 593.8 951.2 592.85 956.5 584.25 962.7 575.7 968.9 567.2 975.85 558.85 987.8 544.5 1001.25 531.15 1014.7 517.85 1028.85 506.15
L 1028.75 506.15 1028.55 506.05 1027.9 505.9
Q 1027.6 505.8 1027.25 505.75
L 1026.55 505.55
Q 1024.95 506.55 1022.55 506.45 1020.15 506.3 1017.75 504.7
L 1017.15 504.3
Q 999.25 516.55 983.65 532.55 968.05 548.5 954.4 565 952.55 567.2 949.35 572.15 946.15 577.1 943.15 582.8
M 836.85 423.2
Q 839.85 424.25 843.25 424.25 840.1 423.2 836.95 422.2 833.8 421.2 830.65 420.2 833.85 422.2 836.85 423.2
M 683.45 168.3
Q 681 166.95 678 166.05 674.95 165.1 672.1 165.55 671.5 165.4 670.75 165.45
L 669.8 165.55
Q 656.9 167.15 653.05 174.8 649.2 182.4 651.25 193.05 653.35 203.75 658.25 214.6 659.4 220.2 661.75 226.4 664.05 232.65 667.2 239.05 662.1 236.15 656.2 234.65 650.25 233.1 645 234.85 639.8 236.6 636.8 243.55
L 636.65 244.1
Q 636.5 244.6 636.3 245 635.95 246.1 635.65 247.5
L 635.3 249.2
Q 634.15 255.75 634.6 262.8 635.05 269.9 636.9 276.65 637.25 278.05 637.6 279.45 638 280.85 638.4 282.15 638.85 283.85 639.35 285.55 639.85 287.25 640.45 289
L 641.55 289.75
Q 648.05 301.75 657.8 309.9 667.5 318 676.8 324.7 676.85 325.75 677 326.9 677.1 328.05 677.3 329.25 676.25 333.8 677.7 340.15 679.25 346.55 681.15 351.2 682.9 355.6 685.75 359.85 688.6 364.15 692.2 368.2 692.75 368.15 693.3 368.1 693.85 368.05 694.45 368.05 696 368.05 697.7 368.25 699.35 368.45 701.1 368.8 702.25 369.05 703.4 369.35 704.55 369.65 705.75 369.95 710 371.15 714.1 372.45 718.25 373.75 721.9 374.45 722.75 374.6 723.65 374.8
L 725.4 375.1
Q 745.15 378.8 764.85 382.8 784.55 386.8 804.2 390.95 810.1 392.15 815.95 393.4 821.85 394.65 827.7 395.85 828.35 395.6 828.95 395.45 829.5 395.35 829.9 395.3 830.3 395.1 830.85 395.1
L 831.55 395.15
Q 843.2 396.45 856.1 401.2 869 405.95 880.3 412.35 906.1 426.65 932.2 440.75 958.35 454.85 984.2 470.4 980.45 467.55 976.7 464.5 972.9 461.5 969.15 458.25 967.55 456.85 966 455.45 964.4 454.05 962.8 452.65
L 962.8 452.6
Q 900.6 404.55 846.25 352.55 791.85 300.5 744.95 245.5 732.85 231.3 721.2 217 709.6 202.65 698.45 188.15 694.65 183.2 690.9 178.25 687.15 173.3 683.45 168.3 Z"/>
</g>

<g id="Symbol_14_0_Layer0_0_FILL">
<path fill="#AED044" stroke="none" d="
M 1347.85 394.9
L 1345.5 392.95 1339.25 392.85
Q 1331.95 395.05 1324.95 397.05 1317.95 399.05 1311.6 400.4 1311.3 400.45 1311.05 400.5 1310.75 400.55 1310.45 400.6 1228.85 423 1141.25 431.85 1053.65 440.7 962.85 439.65 922.1 441.25 881.05 441.2 840 441.15 799 438.95 792.9 438.6 786.85 438.25 780.75 437.85 774.7 437.4 772.15 437.2 769.55 437 766.95 436.8 764.35 436.6 756.4 435.95 748.25 435.2 740.1 434.4 731.85 433.45 729.25 433.95 726.35 435.1 723.45 436.25 722.1 438.35 721.6 438.55 721.25 439
L 720.8 439.6
Q 715.05 447.65 719.5 454.25 723.9 460.85 734.3 466 744.65 471.15 756.7 474.85 762.2 477.55 768.9 479.95 775.6 482.35 782.9 484.45 781.55 484.95 779.75 485.75 778 486.55 776.6 487.45 775.6 488.05 774.65 488.6 773.75 489.2 772.85 489.8 772.75 490.05 772.45 490.2
L 772.1 490.4
Q 766.5 496.55 771.2 502.95 775.9 509.4 785.85 515.05 800.5 526.25 826.15 533.7 851.85 541.2 878.8 545.6 905.8 550 924.3 552.05 932.35 553 940.1 553.6 947.85 554.2 955.35 554.5 954.65 557.85 955.7 561.45 956.8 565.05 959.2 568.85 960.05 570.25 961.1 571.6 962.1 572.95 963.2 574.25 975.85 583.95 994.1 588.45 1012.3 592.95 1031.6 594.55 1050.95 596.15 1066.9 597.15 1066.9 598.4 1067.35 599.6 1067.85 600.8 1068.35 601.65 1077 614.15 1091.65 619.05 1106.3 623.95 1121.9 624.3 1139.05 625.05 1157.6 623.55 1176.1 622.05 1195.1 618.75 1198.75 617.4 1202.4 616.1 1206 614.75 1209.65 613.4 1222.3 608.6 1234.75 603.65 1247.15 598.7 1259.3 593.7 1264.35 591.6 1269.35 589.5 1274.35 587.45 1279.3 585.35 1280.9 584.7 1282.45 584.05 1284 583.35 1285.6 582.7 1290.1 580.75 1294.65 578.65 1299.2 576.6 1303.75 574.45 1314.25 569.5 1324.5 564.1 1334.75 558.7 1344.55 552.9 1345.95 552.1 1347.25 551.25 1348.6 550.45 1349.95 549.65 1350.1 549.55 1350.25 549.45
L 1350.55 549.25
Q 1350.5 549.1 1350.45 548.95 1350.4 548.8 1350.3 548.7 1350.15 548.6 1349.95 548.5 1349.8 548.4 1349.6 548.35 1348.35 544.2 1347 540.3 1345.65 536.4 1345.25 534.85 1337.45 506.15 1326.7 477.65 1315.95 449.15 1307.2 420.35 1307.05 419.85 1306.85 418.8 1306.65 417.75 1306.25 416.4 1315.1 413.45 1323.15 410.15 1331.2 406.8 1338.35 403.15
L 1345.7 398.45 1347.85 394.9
M 796.3 497.5
L 795.8 497.2
Q 795.6 497.05 795.35 496.9 795.4 496.7 795.45 496.55 795.5 496.35 795.55 496.15 795.75 496.5 795.9 496.85 796.1 497.15 796.3 497.5
M 776.95 502.4
Q 777 502.55 777 502.7 775.95 501.7 775.2 500.65 774.45 499.65 774.05 498.6 774.65 499.5 775.35 500.35 776.1 501.2 776.85 502.05 776.9 502.2 776.95 502.4 Z"/>
</g>

<g id="Symbol_7_0_Layer0_0_FILL">
<path fill="#AED044" stroke="none" d="
M 793 728.5
L 804.5 735.2
Q 815.8 741.55 835.15 750 854.5 758.4 879 765
L 889.25 742.3
Q 898.45 720.9 910.3 692.8 922.15 664.75 931.1 643.45
L 940.5 621 915.1 609.95 793 728.5 Z"/>
</g>

<g id="Symbol_15_0_Layer0_0_FILL">
<path fill="#AED044" stroke="none" d="
M 1126.45 316.6
L 1108 333.45
Q 1093.35 347.55 1074.65 365.7 1056 383.85 1040.2 398.95
L 1018.5 418.75 1010.45 429.15 997.7 449.75
Q 982.6 475.4 962.3 507.95 942.05 540.45 920.75 566.3 899.45 592.15 881.3 597.75 863.35 603.05 853.05 615.55 842.7 628.1 842.45 638.5 842.15 648.9 854.3 647.7
L 870.15 641.3 880.85 634.15 893.4 624.35
Q 908.15 613 945.6 597.6 983 582.25 1025.7 564.65 1068.35 547 1098.8 528.8 1146.3 499.3 1173.75 473.9 1201.2 448.5 1215.35 422.2 1229.5 395.85 1237.1 363.6 1242.2 339.45 1227.85 327.85 1213.45 316.3 1191.05 313.4 1168.6 310.5 1149.6 312.3
L 1134.3 314.25 1126.45 316.6 Z"/>
</g>

<g id="Symbol_8_0_Layer0_0_FILL">
<path fill="#AED044" stroke="none" d="
M 1037.75 310.3
Q 1009.25 300.8 986.6 302.35 963.9 303.9 957.85 315.55 952.7 327.45 948.8 344.7 944.85 362 941.6 380.45 938.35 398.9 935.2 414.45 934.25 425.55 959.65 428.65 985.05 431.8 1019.6 430.35 1054.15 428.9 1080.75 426.35
L 1108.75 423.5 1103.9 402.35
Q 1099.35 382.75 1094.8 363
L 1089.75 341.35
Q 1066.25 319.8 1037.75 310.3 Z"/>
</g>

<g id="Symbol_9_0_Layer0_0_FILL">
<path fill="#AED044" stroke="none" d="
M 1012.35 269.55
Q 997.1 271.3 987.9 276.75 978.7 282.25 974.4 287.2 970.05 291.85 964.65 301 959.25 310.15 954.8 320.5 950.35 330.85 948.9 338.95 948 346.8 957.15 356.25 966.25 365.75 981.25 373.2 996.2 380.65 1012.8 382.4 1029.5 383.65 1046.8 379.85 1064.15 376 1077 369.5 1089.85 363 1093.1 356.25 1093 348.8 1088.15 331 1083.35 313.25 1073.85 296.25 1064.3 279.25 1050.15 274.15 1027.6 267.85 1012.35 269.55 Z"/>
</g>

<g id="Symbol_18_0_Layer0_0_FILL">
<path fill="#AED044" stroke="none" d="
M 1108.3 290.6
Q 1083.5 287.85 1067 286.9
L 1067.45 297.75
Q 1068.15 307.9 1069.5 319.75 1070.85 331.55 1072.5 337.35
L 1081.05 334.35 1098.85 329.25
Q 1121.25 323.1 1144.35 315 1167.5 306.85 1173.55 298.9
L 1152.75 295.9
Q 1133.1 293.3 1108.3 290.6 Z"/>
</g>

<g id="Symbol_11_0_Layer0_0_FILL">
<path fill="#0083CB" stroke="none" d="
M 1035.4 302.25
L 1033.5 301.25 1031.5 300.65 1029.35 300.45 1027.25 300.65 1025.25 301.25 1023.35 302.25 1021.75 303.6 1020.4 305.25 1019.4 307.1 1018.75 309.15 1018.55 311.25 1018.75 313.35 1019.4 315.4 1020.4 317.25 1021.75 318.9 1023.35 320.25 1025.25 321.25 1027.25 321.85 1029.35 322.05 1031.5 321.85 1033.5 321.25 1035.4 320.25 1037 318.9 1038.35 317.25 1039.35 315.4 1040 313.35 1040.2 311.25 1040 309.15 1039.35 307.1 1038.35 305.25 1037 303.6 1035.4 302.25 Z"/>
</g>

<g id="Symbol_12_0_Layer0_0_FILL">
<path fill="#AED044" stroke="none" d="
M 1040.4 290.7
Q 1036.7 285.45 1029.15 285.1 1020.3 285.55 1015.95 292.1 1011.65 298.6 1010.8 306.75
L 1046.25 307 1045.2 301.3
Q 1044.1 296 1040.4 290.7 Z"/>
</g>

<g id="Layer0_11_FILL">
<path fill="#0987CD" stroke="none" d="
M 980.15 288.4
Q 978.45 277.9 976.45 267.5 974.9 259.25 973.35 251 971.85 242.75 969.9 234.6 969.7 233.8 969.5 233 969.3 232.2 969.05 231.45 968.95 231.1 968.85 230.7 968.75 230.3 968.55 230
L 968.05 229.55 967.35 229.5
Q 966.6 229.3 965.9 229.2 965.15 229.05 964.45 228.95 963.2 228.8 961.8 228.85 960.45 228.9 959.1 228.75 958.15 228.6 957.55 228.55 956.9 228.5 955.95 228.6 955.2 228.65 954.5 228.7 953.8 228.8 953.1 228.8 952.7 228.85 952.35 228.85 951.95 228.85 951.6 228.85
L 950.85 228.85
Q 950.25 228.8 949.8 228.8 949.85 229.2 949.9 229.65
L 949.95 230.25
Q 950.4 233.45 950.9 236.7 951.4 239.9 951.6 243.15 952 247.9 953 252.8 954.05 257.65 954.95 262.4 957 274.1 958.8 285.9 960.55 297.65 962.7 309.35 965.8 326.2 968.2 343.25 970.65 360.3 973.3 377.25 974.45 384.55 975.75 391.85 977.05 399.15 978.75 406.35 979.1 407.95 979.6 409.45 980.1 411 981 412.35
L 981.55 413.1
Q 982 413.65 982.4 414.15 982.9 414.55 983.6 414.8 984.25 415 984.75 414.8 986.1 414 986.05 412.5 986 411.05 985.8 409.65 984.6 396.25 982.9 382.75 981.2 369.25 979.25 355.95 978.25 348.75 977.55 341.7 976.9 334.65 976.8 327.35 976.75 323.25 976.75 319.15 976.75 315.05 976.8 310.95
L 976.8 310.65 976.85 310.15
Q 976.85 309.45 976.85 308.9 976.9 309.35 976.95 309.85
L 977.05 310.5
Q 977.75 315.35 978.7 320.1 979.65 324.9 980.3 329.75 981.05 336.1 981.75 342.6 982.45 349.1 983.6 355.5 984.75 361.95 986.95 367.95 987.8 370.25 988.1 372.3 988.4 374.35 988.7 376.75 988.75 377.3 988.9 378.2 989.05 379.1 989.3 379.6
L 989.85 380.3 990.25 380.55 990.45 380.3 990.55 379.6
Q 990.65 380.05 990.7 380.6
L 990.8 381.3
Q 991.55 387.1 992.15 392.9 992.75 398.7 993.9 404.4 994.35 406.65 994.7 408.95 995.1 411.25 995.9 413.4 996.05 413.8 996.25 414.15 996.4 414.55 996.65 414.95
L 997 415.55
Q 997.35 416 997.7 416.35 998.15 416.05 998.5 415.55
L 999 414.9
Q 1000.05 413.05 999.8 410.35 999.6 407.7 998.9 404.95 998.25 402.25 997.9 400.25 996.2 387.8 994.7 375.35 993.2 362.85 991.3 350.45 989.4 338.05 986.65 325.75 985.75 321.75 985.05 317.55 984.35 313.4 983.65 309.3 981.85 298.85 980.15 288.4 Z"/>
</g>

<g id="Layer0_12_FILL">
<path fill="#FFFFFF" stroke="none" d="
M 985.75 352.95
Q 980.9 323.75 976 294.55 971.1 265.3 966 236.15
L 965.85 235.3
Q 965.75 234.65 965.65 234.05 965.15 234.15 964.65 234.25
L 963.95 234.4
Q 962.3 234.8 960.6 235.15 958.9 235.5 957.25 235.9 956.85 236 956.4 236.05 956 236.15 955.55 236.25
L 953.05 236.8
Q 953.15 237.3 953.2 237.85
L 953.35 238.5
Q 961.05 285.35 968.5 332.2 975.95 379.1 983.1 426 988.4 460.65 992.8 495.5 997.2 530.35 1000.1 565.3 1003 600.3 1003.85 635.4 1004.7 678.8 1003.5 722.1 1002.3 765.35 1000.25 808.75 1000.2 809.15 1000.2 809.6 1000.2 810.05 1000.15 810.45
L 1000.1 811.7
Q 1000.05 812.65 1000 813.5 1000 813.9 999.95 814.45
L 999.95 815.05
Q 999.9 815.85 999.85 816.65
L 999.75 818.25
Q 999.75 818.7 999.75 819.1
L 999.6 821.35
Q 999.55 822.45 999.5 823.4 999.95 823.4 1000.5 823.35
L 1001.2 823.3
Q 1004.5 823.15 1007.85 822.95 1011.2 822.8 1014.55 822.6
L 1014.9 822.55 1015.55 822.55
Q 1016.35 822.5 1017.05 822.45 1017.05 822 1017.1 821.5
L 1017.1 820.8
Q 1018.85 785.25 1019.9 749.6 1020.9 713.9 1020.75 678.25 1020.55 642.55 1018.7 607 1016.3 564.4 1011.25 521.95 1006.15 479.5 999.5 437.2 992.85 394.95 985.75 352.95 Z"/>
</g>

<g id="Layer0_13_FILL">
<path fill="#FFFFFF" stroke="none" d="
M 512.7 673.05
Q 512.65 673.25 512.6 673.45 512.55 673.7 512.5 673.9 512.1 675.45 511.6 677 511.05 678.55 510.4 680 509.75 681.45 508.85 682.7 508.75 682.85 508.6 683 508.5 683.15 508.4 683.3
L 508.35 683.35
Q 510.6 688.05 512.25 693.05 513.85 698.05 515.05 703.3 515.55 706 516.05 708.65 516.55 711.35 517.15 714
L 517.2 714.4 517.2 714.45 517.4 714.85 517.6 715 517.6 714.9 517.65 714.95 517.65 715.3 517.7 715.35 517.75 715.35
Q 517.95 715.3 518.05 715.1 518.1 714.9 518.1 714.75 518.15 714.55 518.2 714.4 518.2 714.2 518.25 714.05
L 518.25 713.85
Q 518.5 712.05 518.55 709.95 518.6 707.9 518.5 705.8 518.45 703.75 518.25 701.9 518.25 701.8 518.2 701.55 518.15 701.25 518.1 700.95 518.05 699.6 518 698.25 517.9 696.9 517.8 695.6 517.85 695.15 517.85 694.7 517.85 694.25 517.8 693.85 517.7 693.5 517.55 693.3 517.4 692.3 517.25 691.35 517.15 690.35 516.95 689.35 516.75 688.1 516.55 686.9 516.3 685.65 516.05 684.5 515.7 682.35 515.2 680.3 514.65 678.3 513.9 676.55
L 513.85 676.4 513.85 676.25
Q 513.8 675.9 513.65 675.45 513.5 675 513.35 674.65
L 513.2 674.2
Q 513.05 673.95 512.95 673.65 512.85 673.35 512.7 673.05
M 517.9 712.55
Q 517.9 712.269140625 517.9 712
L 517.95 711.4 517.95 711.9
Q 517.95 711.95 517.95 712.15 517.90625 712.325 517.9 712.55
M 501.8 670.95
L 501.3 671.15
Q 503.25 673.9 504.95 676.75 506.6 679.65 508 682.55 508.1 682.45 508.15 682.35 508.2 682.25 508.25 682.15
L 508.45 681.85
Q 507.05 678.9 505.35 676.15 503.7 673.4 501.8 670.95
M 508.95 666.7
Q 509.05 666.6 509.15 666.55 509.25 666.5 509.35 666.45 507.95 663.95 506.3 661.45 504.7 658.95 502.95 656.75 501.15 654.5 499.4 652.9 497.6 651.3 495.9 650.65
L 495.85 650.6
Q 495.85 650.75 495.9 650.9 495.95 651.05 496 651.2 496.2 651.85 496.35 652.5
L 496.7 653.85
Q 497.35 656.45 498.1 659.05 498.85 661.6 499.6 664.2 500.3 666.75 500.9 669.35
L 500.9 669.45 501 669.6
Q 501.05 669.85 501.1 670.1 501.15 670.25 501.1 670.4 501.1 670.5 501.05 670.6 500.95 670.55 500.85 670.45 500.8 670.3 500.75 670.2 500.7 670.05 500.7 670 500.65 669.85 500.6 669.7 500.5 669.5 500.45 669.35 500.4 669.25 500.25 669.1 500.15 669 500 668.9 499.5 668.05 499.1 667.25 498.7 666.45 498.35 665.6 498 664.75 497.7 663.75 497.1 661.7 496.7 659.75 496.3 657.75 496 655.75 495.75 653.75 495.55 651.7 495.45 651.45 495.4 651.2
L 495.2 650.5 495.2 650.45 495 650.45 495.15 650.6
Q 495.1 650.75 495.1 651 495.1 651.25 495.1 651.4
L 495.1 651.55 495.15 651.6
Q 495.2 654 495.6 656.65 496 659.35 496.65 662 497.3 664.6 498.25 666.8 498.4 667.25 498.7 667.85 499.05 668.5 499.4 669.1 499.75 669.7 500.05 670 500.25 670.25 500.35 670.25 500.5 670.25 500.5 670.05 500.65 670.25 500.8 670.45 500.9 670.6 500.95 670.65
L 501 670.75
Q 501.15 670.7 501.25 670.65 501.4 670.65 501.5 670.6 501.7 670.55 501.9 670.5
L 502.25 670.35
Q 503.45 669.85 504.55 669.25 505.7 668.65 506.8 668 507.9 667.35 508.95 666.7
M 509.85 667.35
L 509.55 667.6 509.45 667.65
Q 510.15 668.85 510.7 670.05 511.3 671.25 511.85 672.4 511.85 672.2 511.9 671.95 511.95 671.75 512 671.55 511.55 670.6 511 669.5 510.45 668.45 509.85 667.35 Z"/>

<path fill="#0987CD" stroke="none" d="
M 496.7 653.85
L 496.35 652.5
Q 496.2 651.85 496 651.2 495.95 651.05 495.9 650.9 495.85 650.75 495.85 650.6 495.7 650.15 495.55 649.75 495.45 649.35 495.3 648.95 495.15 648.6 495.05 648.45 494.9 648.35 494.75 648.5 494.7 648.65 494.75 648.8 494.75 649 494.8 649.15
L 494.85 649.25 494.85 649.3
Q 494.95 649.6 495 649.9
L 495.2 650.45 495.2 650.5 495.4 651.2
Q 495.45 651.45 495.55 651.7 496.15 654.05 496.8 656.35 497.4 658.65 498.15 660.95 498.6 662.3 499 663.75 499.35 665.15 499.7 666.55 500.05 668 500.45 669.35 500.5 669.5 500.6 669.7 500.65 669.85 500.7 670 500.7 670.05 500.75 670.2 500.8 670.3 500.85 670.45 500.95 670.55 501.05 670.6 501.1 670.5 501.1 670.4 501.15 670.25 501.1 670.1 501.05 669.85 501 669.6
L 500.9 669.45 500.9 669.35
Q 500.3 666.75 499.6 664.2 498.85 661.6 498.1 659.05 497.35 656.45 496.7 653.85
M 510.5 665.7
L 510.45 665.75
Q 510.2 665.9 509.9 666.1 509.6 666.25 509.35 666.45 509.25 666.5 509.15 666.55 509.05 666.6 508.95 666.7 507.9 667.35 506.8 668 505.7 668.65 504.55 669.25 503.45 669.85 502.25 670.35
L 501.9 670.5
Q 501.7 670.55 501.5 670.6 501.4 670.65 501.25 670.65 501.15 670.7 501 670.75 500.55 670.85 500.1 670.95 499.65 671.05 499.2 671.15 499.1 671.15 498.95 671.15 498.75 671.15 498.6 671.15
L 498.45 671.2 498.4 671.2
Q 498.35 671.2 498.35 671.25 498.3 671.25 498.3 671.3
L 498.05 671.3 498 671.35
Q 498.15 671.7 498.6 671.75 499.05 671.8 499.6 671.7 500.15 671.55 500.65 671.4 501.1 671.25 501.3 671.15
L 501.8 670.95
Q 502 670.9 502.2 670.8
L 502.65 670.65
Q 503.85 670.25 505.1 669.8 506.3 669.35 507.45 668.8 508.55 668.25 509.45 667.65
L 509.55 667.6 509.85 667.35
Q 510.2 667.15 510.5 666.9 510.8 666.65 511.15 666.45
L 511.35 666.25 511.45 666.2 511.4 666.1 511.25 666 511.1 666.05
Q 511.35 665.9 511.4 665.75 511.4 665.6 511.2 665.45 511.05 665.45 510.9 665.5 510.75 665.55 510.6 665.65
L 510.5 665.7
M 512.15 670.45
Q 512.1 670.65 512.1 670.8 512.1 670.95 512.1 671 512.05 671.15 512.05 671.25 512 671.4 512 671.55 511.95 671.75 511.9 671.95 511.85 672.2 511.85 672.4 511.7 673 511.6 673.6 511.5 674.15 511.45 674.75 511 676.6 510.25 678.35 509.5 680.1 508.45 681.85
L 508.25 682.15
Q 508.2 682.25 508.15 682.35 508.1 682.45 508 682.55 507.85 682.85 507.75 683.15 507.6 683.45 507.75 683.65
L 507.7 683.9
Q 507.65 684 507.55 684.1 507.45 684.2 507.45 684.3 507.4 684.4 507.5 684.5 507.7 684.5 507.85 684.25 508 684.05 508.15 683.8
L 508.2 683.65 508.25 683.6 508.35 683.35 508.4 683.3
Q 508.5 683.15 508.6 683 508.75 682.85 508.85 682.7 509.75 681.45 510.4 680 511.05 678.55 511.6 677 512.1 675.45 512.5 673.9 512.55 673.7 512.6 673.45 512.65 673.25 512.7 673.05 512.8 672.65 512.9 672.25 513 671.85 513.1 671.45 513.15 671.15 513.1 670.95 513.1 670.75 512.8 670.8 512.85 670.55 512.8 670.35 512.75 670.2 512.55 670.15
L 512.5 670.25 512.3 670.2
Q 512.2 670.3 512.15 670.45
M 505.8 686.35
L 505.85 686.25 505.8 686.2 505.75 686.2
Q 505.65 686.15 505.6 686.1 505.45 686.15 505.3 686.3 505.2 686.45 505.1 686.6 505 686.8 504.95 686.85 504.4 687.55 503.7 688.15 503 688.7 502.3 689.3 502 689.55 502.05 689.7 502.15 689.85 502.5 689.65 502.65 689.55 502.85 689.45 503 689.4 503.15 689.3
L 503.05 689.45
Q 503.25 689.55 503.55 689.35 503.85 689.2 504.1 689
L 504.3 688.85 504.4 688.75
Q 504.6 688.55 505.1 688 505.55 687.5 505.95 686.95
L 506.25 686.5 506.3 686.2
Q 506.3 686.15 506.25 686.15
L 506.2 686.15 505.8 686.35 Z"/>
</g>

<g id="Symbol_21_0_Layer0_0_FILL">
<path fill="#FFFFFF" stroke="none" d="
M 1093.3 494.05
Q 1082.65 480.05 1069.2 466.9 1055.75 453.75 1042 445.7 1028.3 437.65 1016.75 438.9 1002.5 441.1 995.35 447.25 988.15 453.4 985.75 461.55 983.35 469.7 983.55 478 983.7 486.25 984.15 492.7
L 986.3 509.1 991.4 536.4
Q 998 569.15 1007.1 610.8 1016.2 652.4 1024.4 690.05 1032.6 727.7 1036.55 748.45
L 1039.1 750.6 1044.05 753.35
Q 1050.2 756.4 1059.35 758.85 1068.55 761.25 1079 761.2 1093.9 760.8 1102.45 758.3 1111.05 755.75 1114.65 753.05
L 1117.4 750.7 1118.35 749.2
Q 1128.35 700.1 1129.95 660.85 1131.55 621.65 1127.95 592.6 1124.4 563.55 1118.95 545 1113.45 526.45 1109.35 518.75 1103.95 508.05 1093.3 494.05 Z"/>
</g>

<g id="Layer0_15_FILL">
<path fill="#0987CD" stroke="none" d="
M 768.2 689.25
Q 768.2 691.2 768.55 692.9 768.85 694.65 769 695.35 771.65 714.4 773.55 733.5 775.45 752.6 777.5 771.65 779.55 790.75 782.7 809.75 775.85 828.95 769.4 848.65 763 868.4 756.4 887.7 751.6 889.05 747 890.6 742.4 892.1 739.15 893.6 735.95 895.1 735.3 896.4
L 734.85 896.75
Q 734.5 897.1 734.6 897.5 736.05 897.45 737.8 896.9 739.5 896.3 740.95 895.7
L 742.85 894.95
Q 746.25 893.75 749.35 892.75 752.5 891.75 755.35 890.85
L 755.25 891.2
Q 754.75 892.4 754.3 893.75 753.85 895.05 754.05 896.05 754.25 897 755.8 897.1 756.9 896.85 757.8 895.55 758.75 894.25 759.45 892.55 760.2 890.8 760.7 889.25 770.5 886.45 777.8 883 785.05 879.5 791.15 872.45 797.2 865.4 803.4 851.85 811.25 834.6 816.3 814.8 821.3 794.95 822.05 774.45 822.8 753.95 817.8 734.8 812.8 715.65 800.65 699.75 797.3 695.5 793.1 693.1 788.9 690.7 784.1 689.5 779.35 688.3 774.25 687.6
L 773.8 687.45
Q 773.45 687.3 773.1 687.35 772.85 687.1 772.55 687.1 772.25 687.15 771.95 687.25 771.85 686.85 771.65 686.5 771.4 686.1 771.15 685.85 770.6 685.7 770 685.7 769.4 685.65 768.95 685.95 768.15 687.3 768.2 689.25 Z"/>
</g>

<g id="Layer0_16_FILL">
<path fill="#FFFFFF" stroke="none" d="
M 779.25 746.9
Q 782.4 769.05 784.4 787.6
L 785.7 802.95 785.5 811.75
Q 784.3 816.95 779.7 830.15 775.1 843.4 769.55 858.45 764 873.55 759.9 884.45
L 755.65 895.85
Q 759.6 903.2 776.75 907.9 793.85 912.6 815.65 914 837.45 915.4 855.5 912.75 873.5 910.1 879.25 902.75
L 884.4 893.65
Q 889.3 885.05 896 872.8 902.7 860.6 908.4 849.4 914.1 838.2 916 832.7 917.8 827.1 921.5 815.35 925.25 803.6 929.35 790.7 933.5 777.75 936.4 768.55
L 939.5 758.85
Q 929.55 748.55 908.6 734.75 887.6 720.95 861.85 708.7 836.05 696.5 811.75 690.95 787.45 685.4 770.9 691.6
L 773.6 708.6
Q 776.1 724.8 779.25 746.9 Z"/>
</g>

<g id="Symbol_22_0_Layer0_0_FILL">
<path fill="#0083CB" stroke="none" d="
M 943.65 840.8
Q 942.6 838.75 942.2 837.35 941.45 834.6 941.05 831.85 940.7 829.05 940.15 826.35
L 939.65 824.85 939.1 824.45
Q 938.5 824.55 938.05 825.8 937.65 827 937.65 828.25 937.8 831.4 938.75 835.75 939.7 840.1 941.85 843.7 943.95 847.3 947.65 848.15 951.1 848.6 953.45 845.55 955.8 842.55 957.1 838.5 958.4 834.45 958.75 831.75 958.9 830.75 958.95 828.85 959 826.95 958.7 825.25 958.4 823.5 957.45 822.95
L 957.25 822.9
Q 957.1 822.9 957.05 822.95 956.7 823.3 956.6 823.8
L 956.45 824.5
Q 956.2 826.4 956.15 828.4 956.15 830.4 955.8 832.35 955.5 834.05 954.65 836.85 953.8 839.65 952.5 842.15 951.2 844.6 949.5 845.25 947.75 845.7 946.2 844.3 944.7 842.85 943.65 840.8 Z"/>
</g>

<g id="Layer0_18_FILL">
<path fill="#FFFFFF" stroke="none" d="
M 789.15 765.65
L 799.3 773.45
Q 809 780.9 822.05 792 835.1 803.1 845.65 814.3 856.15 825.5 858.3 833.3 859.8 841.2 857.45 851.7 855.05 862.2 851.1 872.35 847.15 882.5 843.95 889.2
L 840.6 896.2
Q 846.65 900.35 862.1 903.75 877.55 907.1 896.15 908.35 914.8 909.6 930.4 907.4 945.95 905.2 952.25 898.3 961.1 884.35 968.6 869 976.15 853.7 980.45 839.4 984.8 825.05 983.95 814.1 982.6 803.6 973.4 789.75 964.2 775.95 952.6 762.65 940.95 749.4 932.3 740.6
L 923.2 731.4
Q 904.1 725.9 887.1 727.55 870.05 729.2 854.1 735.4 838.1 741.6 822.1 749.8 806.15 758 789.15 765.65 Z"/>
</g>

<g id="Symbol_23_0_Layer0_0_FILL">
<path fill="#0083CB" stroke="none" d="
M 943.35 838.65
Q 942.15 836.05 941.4 832.95 940.6 829.9 939.6 827.1
L 939.2 826.4 938.9 826.25
Q 938.6 826.4 938.45 827.1 938.3 827.8 938.3 828.5 938.5 831.6 939.5 835.45 940.5 839.25 942.25 842.4 943.95 845.55 946.3 846.7 950.3 848.25 953.15 845.6 956 842.95 957.6 838.15 959.2 833.4 959.35 828.65 959.35 827.95 959.35 826.95 959.3 825.95 959.1 825.15 958.85 824.4 958.4 824.45 958.25 824.75 958.1 825.1
L 957.95 825.6
Q 957.35 827.6 957.1 829.8 956.8 831.95 956.3 834.1 955.15 838.55 953 841.25 950.85 843.95 948.25 843.6 945.7 843.25 943.35 838.65 Z"/>
</g>

<g id="Symbol_24_0_Layer0_0_FILL">
<path fill="#FFFFFF" stroke="none" d="
M 767.75 370.25
Q 761.25 380.3 755.45 391.15 750.05 401.45 744.55 413.1 739.05 424.75 734.6 434.95 730.15 445.1 727.9 450.95
L 771.25 455.05
Q 812.5 458.4 866.55 462.3 920.65 466.2 961.5 468.5
L 992.45 469.9 1000.55 469.95 1003.75 469.5
Q 1002.1 466.45 996 460.25 989.9 454.05 982.05 446.95 974.2 439.85 967.25 434.2 960.3 428.5 957 426.55
L 927.05 411.15
Q 901.4 398.15 869.15 381.9 836.9 365.6 812.8 353.5
L 787.45 340.75
Q 785.1 344.7 779.7 352.45 774.3 360.2 767.75 370.25 Z"/>
</g>

<g id="Layer0_21_FILL">
<path fill="#0987CD" stroke="none" d="
M 951.65 601.5
Q 941.7 627.4 936.35 654.3 931 681.2 929.2 711.55 928.9 715.95 928.35 722.85 927.8 729.7 927.55 737.6 927.3 745.5 927.85 753 928.4 760.45 930.25 766.05 929.35 766.25 928.4 766.5 927.45 766.75 926.55 767.05
L 925.95 766.8
Q 925.45 766.55 924.9 766.55 924.4 766.55 924.2 767.3 925.5 768.1 927.35 768.2 929.2 768.3 931.05 768 931.9 769.9 933.05 771.3 934.15 772.75 935.6 773.6 935.9 773.9 936.65 774.5 937.4 775.05 938.35 774.75 938.65 772.75 937.8 770.7 936.95 768.6 936.05 767.1 944.2 765.95 951.3 765.55 958.35 765.15 965.5 764.15 972.65 763.2 981.1 760.35 992.2 756.5 1004.25 750.05 1016.25 743.6 1027.6 735.05 1038.95 726.55 1048.05 716.6 1057.15 706.6 1062.5 695.75 1073.5 672.25 1077.25 645.6 1081 619 1079.2 591.55 1077.45 564.15 1072 538.35 1066.5 512.5 1059.1 490.65 1057.15 484.75 1054.85 479.1 1052.6 473.4 1049.5 468.25 1046.45 463.15 1042.1 458.7 1041.8 458.35 1041.55 458 1041.25 457.65 1040.75 458.2 1040.9 459.15 1041.2 460.25 1041.55 461.35 1042 462.5 1041.2 462.45 1040.4 462.55 1039.6 462.65 1038.85 462.85 1036.85 463.25 1034.75 464.55 1032.7 465.85 1031.1 467.3 1029.45 468.7 1028.85 469.3 1018.55 479.2 1009.45 492.85 1000.3 506.5 992.25 521.1 984.2 535.65 977.15 548.3 961.6 575.6 951.65 601.5 Z"/>
</g>

<g id="Layer0_22_FILL">
<path fill="#FFFFFF" stroke="none" d="
M 951.75 446.7
Q 920 440.9 878.7 433.65 837.4 426.4 806.1 421
L 773.2 415.35 769.95 419.65
Q 766.75 423.9 761.95 431.45 757.1 438.95 752.05 448.85 747 458.7 743.05 470 738.65 483.5 738.25 504.6 737.9 525.75 740.95 551.55 744.05 577.35 750 604.8 753.45 620.2 759.2 636.2 764.9 652.2 771.25 666.95 777.6 681.65 782.8 693.2 787.25 703.5 795.7 715.1 804.15 726.7 816.8 737.05 829.45 747.4 846.5 753.8 855.95 757.3 869.6 760.3 883.2 763.35 899.5 764.95 915.8 766.6 933.2 765.85 950.55 765.15 967.55 761.1 991.6 755.2 1012.35 740.6 1033.1 726.05 1048.05 703.4 1063 680.75 1069.65 650.65 1076.3 620.6 1072.15 583.65 1068.85 560 1056 537.25 1043.1 514.55 1027.3 495.9 1011.55 477.3 999.55 465.9
L 986.05 453.5 951.75 446.7 Z"/>
</g>

<g id="Layer0_23_FILL">
<path fill="#0987CD" stroke="none" d="
M 1130.15 370.55
Q 1112.1 378.35 1097 386.6 1091.1 389.8 1084.75 394.15 1078.4 398.5 1072.15 403.1 1065.85 407.75 1060.2 411.75 1056.4 414.35 1050.05 418.95 1043.75 423.55 1037.2 429.2 1030.65 434.8 1026.25 440.45 1021.8 446.05 1021.85 450.7 1021.95 452.3 1022.85 453.8 1023.7 455.3 1025.15 456.4 1023.8 456.25 1022.45 456.1 1021.1 455.9 1019.75 455.65 1018.35 455.4 1016.25 455 1014.15 454.55 1012.05 454.3 1009.95 454 1008.65 454.25 1008.4 454.25 1008.15 454.2 1007.9 454.1 1007.9 454.45 1008.8 455.15 1010.2 455.5 1011.65 455.9 1012.85 456.05
L 1014.5 456.3
Q 1024.9 458.35 1034.1 458.5 1043.3 458.65 1052.25 457.55 1061.15 456.5 1070.75 454.8 1077.9 454.1 1085.15 452.95 1092.45 451.8 1099.75 450.2 1100.85 449.95 1101.95 449.7 1103.05 449.45 1104.15 449.15 1123.75 444.55 1141.85 436 1159.9 427.45 1174.25 414.4 1188.65 401.3 1197.05 382.95 1198.5 379.8 1200.4 375.4 1202.35 371 1204.05 366.2 1205.7 361.4 1206.4 356.95 1205.95 355.95 1205.65 354.75 1205.35 353.55 1205.2 352.25
L 1205.15 351.95
Q 1205.1 351.2 1205.1 350.45 1205.1 349.7 1205.15 349.05 1186.55 351.2 1167.35 356.95 1148.15 362.75 1130.15 370.55 Z"/>
</g>

<g id="Layer0_24_FILL">
<path fill="#FFFFFF" stroke="none" d="
M 1122.8 255.7
Q 1110 273.4 1094.75 285.3 1079.5 297.2 1063.95 294.65 1055.65 292.65 1050.65 285.8 1045.7 279 1043.2 270.45 1040.75 261.95 1039.95 254.7 1039.2 247.5 1039.2 244.7 1039.1 241.9 1037.25 240.05 1035.45 238.2 1032.75 237.9 1030 237.6 1027.25 239.6 1022.9 242.9 1016.85 247 1010.75 251.05 1003.75 253.85 996.8 256.6 989.75 256.05 985.15 255.3 977.8 250.05 970.45 244.75 962.2 237.8 953.95 230.85 946.6 225.2 943.3 222.6 935.15 219.4 927.05 216.15 915.25 214.1 903.45 212.05 889.15 213 874.9 213.95 859.3 219.75 837.75 227.45 823 242.25 808.3 257.05 799.45 276.5 790.6 295.95 786.7 317.65 782.75 339.3 782.75 360.75
L 785.05 367.75
Q 787.1 374.3 792.95 384.7 798.8 395.15 810.3 407.25 821.75 419.4 840.75 431.1 858.35 441.5 876.2 447.55 894 453.55 910.55 456.4 927.05 459.3 940.8 460.2 954.5 461.1 963.9 461.35 1001.25 462.55 1033.55 459.8 1065.85 457.05 1090.95 451.3 1116.1 445.55 1131.95 437.75 1157.15 425.3 1173.15 407.55 1189.1 389.8 1196.8 366.8 1204.45 343.8 1204.85 315.55 1205.1 290.05 1201.95 270.75 1198.8 251.4 1194.25 238.15 1189.7 224.9 1185.65 217.5
L 1182.25 211.6 1180.1 208.6
Q 1176.25 204.3 1170.45 202.35 1164.7 200.35 1159.7 200.9 1154.7 201.4 1153.2 204.55
L 1143.75 223.05
Q 1135.55 238 1122.8 255.7 Z"/>
</g>

<g id="Symbol_25_0_Layer0_0_FILL">
<path fill="#FFFFFF" stroke="none" d="
M 972.45 187.3
L 973.25 185.1
Q 967.45 183.05 959.4 182.85 951.35 182.6 943.7 184.2 936.05 185.75 931.45 189
L 929.3 191.1 926.3 194.8
Q 922.8 199.25 919 204.6 915.2 209.95 912.55 213.85
L 909.7 217.95 911.75 218.9
Q 913.65 219.75 915.65 220.6
L 917.3 221.2 918.15 221.35
Q 929.2 217.9 936.2 215.85 943.2 213.8 947.45 212.15 951.7 210.55 954.55 208.4 957.65 205.85 962.05 200.85 966.5 195.8 969.9 191.15
L 972.45 187.3 Z"/>
</g>

<g id="Symbol_26_0_Layer0_0_FILL">
<path fill="#FFFFFF" stroke="none" d="
M 889.05 162.7
Q 882.2 166.25 875.95 171.05 869.7 175.8 865.25 180.35 860.8 184.9 859.45 187.7 858.55 190.25 858.1 197.25 857.65 204.25 857.5 212.35 857.35 220.4 857.35 226.25
L 857.35 232.35 860.15 232.1
Q 862.8 231.85 866.3 231.45 869.8 231.05 872.55 230.65
L 874.75 230.25 875.7 229.95
Q 884.4 218.9 889.6 211 894.75 203.05 897.2 197.95 899.6 192.85 900.1 190.3 900.55 188.15 901.15 183.4 901.8 178.65 902.25 173.2 902.7 167.75 902.75 163.55
L 902.55 160.15 902 158.35
Q 895.85 159.15 889.05 162.7 Z"/>
</g>

<g id="Symbol_27_0_Layer0_0_FILL">
<path fill="#1D2013" stroke="none" d="
M 1009 492.75
Q 1008.85 492.65 1008.7 492.6 1008.6 492.55 1008.45 492.45
L 1008.6 492.75 1009 492.75 Z"/>

<path fill="#0987CD" stroke="none" d="
M 957.05 500.85
Q 955.1 501.3 952.4 502 949.75 502.7 947.15 503.6 948.45 502.65 949.8 501.7 951.15 500.8 952.55 499.9 963.4 492.15 975.8 490.3 988.25 488.45 1001.15 492.35 1002 492.45 1002.9 492.55 1003.8 492.65 1004.65 492.7 1005.65 492.75 1006.65 492.8 1007.6 492.8 1008.6 492.75
L 1008.45 492.45
Q 1008.6 492.55 1008.7 492.6 1008.85 492.65 1009 492.75
L 1009.15 492.75 1009.7 492.7
Q 1010 492.65 1010.3 492.65 1010.7 492.6 1011.05 492.45 1011.45 492.35 1011.8 492.2
L 1011.75 492.1
Q 1010.7 490.25 1007.85 488.7 1004.95 487.2 1001.8 486.15 998.6 485.15 996.6 484.8 995.65 484.65 994.6 484.45 993.55 484.3 992.65 484.35 986.2 483.8 979.05 485.1 971.95 486.45 965.05 489.25 958.15 492.05 952.4 495.8 950.75 497 949.2 498.3 947.65 499.6 946.2 501.05
L 946.05 501.45
Q 945.45 502 944.9 502.55 944.3 503.15 943.8 503.7 943.3 504.3 942.85 504.9 942.4 505.5 941.95 506.15 942.3 506.05 942.55 506 942.8 505.95 943 505.9 943.45 505.8 943.85 505.65 944.3 505.55 944.75 505.45 950.9 503.9 957.15 502.4 963.4 500.95 969.6 499.45 970.3 499.3 971 499.1 971.7 498.9 972.4 498.65 970.45 498.45 967.6 498.8 964.75 499.15 961.9 499.75 959.05 500.4 957.05 500.85
M 992 487.25
Q 991.75 487.2 991.5 487.15 991.6470703125 487.15 991.8 487.15 992.2 487.2 992.6 487.25 992.45 487.25 992.3 487.25 992.15 487.25 992 487.25 Z"/>
</g>

<g id="Symbol_28_0_Layer0_0_FILL">
<path fill="#FFFFFF" stroke="none" d="
M 986.25 295.45
Q 983.9 288.7 978.35 283.8 972.85 278.85 963.05 277.05 953.1 275.55 946.15 278.6 939.15 281.7 934.5 287.45 929.85 293.25 927 299.8 924.15 306.3 922.45 311.7 931.35 312.7 942.55 314.6 953.75 316.45 965.55 318.7 977.3 320.9 987.9 323.05 988.85 316.6 988.7 309.4 988.55 302.15 986.25 295.45 Z"/>
</g>

<g id="Layer0_29_FILL">
<path fill="#0987CD" stroke="none" d="
M 821.75 510.45
L 821.85 508.75 802.7 495.55 791.05 488.7 781.3 484 771.05 480.45 771 480.45 760.3 478.2 749.35 477.2 738.35 477.75 727.55 480.2 722.35 482.25 715.05 486.25 710.65 489.55 710.6 489.55 704.65 495.05 701.1 499.25 698.2 503.9 695.9 508.85 692.05 521.7 688.05 537.05 688.05 537.1 683.05 567.15 679.9 619.55 679.45 644.35 681.15 669.05 686.4 715.35 686.4 715.4 688.4 728.05 692.7 745.6 695.7 752.95 697.1 755.15 699.2 757.4 701.45 759.2 708.75 763.4 719 767.45 732.3 771 743.15 772.65 751.5 773.05 756.9 772.55 769.85 769.05 787 761.6 793.95 757.5 798.35 754.05 800.05 751.85 800.05 751.7 800.3 751.35 800.95 748.65 805.2 718.35 821.8 571.9 824.25 521.45 823.3 510.95 821.75 510.45 Z"/>
</g>

<g id="Symbol_29_0_Layer0_0_FILL">
<path fill="#FFFFFF" stroke="none" d="
M 820.1 480.65
Q 816.75 472.1 810.1 464.3 803.45 456.45 793.15 450.8 782.8 445.1 768.4 442.95 757.05 441.45 746.8 444.35 736.55 447.25 728.25 452.95 719.9 458.65 714.2 465.65 708.5 472.65 706.2 479.45
L 700.85 500 698.3 511.45
Q 692.95 536.55 688.9 574.55 684.9 612.55 686.5 658 688.1 703.45 699.6 750.9
L 701.15 752.75 705.4 756
Q 710.95 759.95 721.4 763.6 731.9 767.25 746.9 767.7 761.1 767.7 771.05 764.05 781.05 760.4 786.7 756.1
L 791.25 752.4 793.6 749.85
Q 796.85 728.7 802.05 691.45 807.2 654.15 812.4 613.25 817.6 572.3 820.9 540.15
L 823.3 513.3 823.85 497.05
Q 823.45 489.2 820.1 480.65 Z"/>
</g>
</defs>



<g transform="matrix( 0.548004150390625, -0.3807525634765625, 0.3807525634765625, 0.548004150390625, 165.65,626.75) ">
<g transform="matrix( 1, 0, 0, 1, 0,0) ">
<use xlink:href="#Symbol_19_0_Layer0_0_FILL"/>
</g>
</g>

<g transform="matrix( 1.90142822265625, 0, 0, 1.90142822265625, -845.05,-513.45) ">
<g transform="matrix( 1, 0, 0, 1, 0,0) ">
<use xlink:href="#Symbol_5_0_Layer0_0_FILL"/>
</g>
</g>

<g transform="matrix( 0.1545562744140625, -0.1026458740234375, 0.0555877685546875, 0.134796142578125, 1039.45,868.55) ">
<g transform="matrix( 1, 0, 0, 1, 0,0) ">
<use xlink:href="#Symbol_20_0_Layer0_0_FILL"/>
</g>
</g>

<g transform="matrix( 0.1678619384765625, -0.0179595947265625, -0.058624267578125, 0.132232666015625, 1031.7,805) ">
<g transform="matrix( 1, 0, 0, 1, 0,0) ">
<use xlink:href="#Symbol_14_0_Layer0_0_FILL"/>
</g>
</g>

<g transform="matrix( 0.021240234375, 0.149658203125, -0.2093658447265625, 0.0327911376953125, 1267.6,690.25) ">
<g transform="matrix( 1, 0, 0, 1, 0,0) ">
<use xlink:href="#Symbol_7_0_Layer0_0_FILL"/>
</g>
</g>

<g transform="matrix( 0.1306304931640625, 0.09552001953125, -0.1378173828125, 0.1526641845703125, 1125.25,673.1) ">
<g transform="matrix( 1, 0, 0, 1, 0,0) ">
<use xlink:href="#Symbol_15_0_Layer0_0_FILL"/>
</g>
</g>

<g transform="matrix( 0.0401611328125, 0.1080474853515625, -0.1275482177734375, 0.06866455078125, 1240.25,702.15) ">
<g transform="matrix( 1, 0, 0, 1, 0,0) ">
<use xlink:href="#Symbol_8_0_Layer0_0_FILL"/>
</g>
</g>

<g transform="matrix( 0.0401611328125, 0.1080474853515625, -0.1275482177734375, 0.06866455078125, 1240.25,702.15) ">
<g transform="matrix( 1, 0, 0, 1, 0,0) ">
<use xlink:href="#Symbol_9_0_Layer0_0_FILL"/>
</g>
</g>

<g transform="matrix( 0.1173095703125, -0.0883331298828125, 0.015594482421875, 0.1189727783203125, 1113.3,889.1) ">
<g transform="matrix( 1, 0, 0, 1, 0,0) ">
<use xlink:href="#Symbol_18_0_Layer0_0_FILL"/>
</g>
</g>

<g transform="matrix( 0.0401611328125, 0.1080474853515625, -0.1275482177734375, 0.06866455078125, 1240.25,702.15) ">
<g transform="matrix( 1, 0, 0, 1, 0,0) ">
<use xlink:href="#Symbol_11_0_Layer0_0_FILL"/>
</g>
</g>

<g transform="matrix( 0.1320648193359375, -0.032989501953125, 0.0613861083984375, 0.1888275146484375, 1087.4,810.5) ">
<g transform="matrix( 1, 0, 0, 1, 0,0) ">
<use xlink:href="#Symbol_12_0_Layer0_0_FILL"/>
</g>
</g>

<g transform="matrix( 0.620147705078125, -0.0659942626953125, 0.0659942626953125, 0.620147705078125, 372.1,419.15) ">
<use xlink:href="#Layer0_11_FILL"/>
</g>

<g transform="matrix( 0.620147705078125, -0.0659942626953125, 0.0659942626953125, 0.620147705078125, 372.1,419.15) ">
<use xlink:href="#Layer0_12_FILL"/>
</g>

<g transform="matrix( 4.9486083984375, 0, 0, 4.9486083984375, -1463.25,-2713.35) ">
<use xlink:href="#Layer0_13_FILL"/>
</g>

<g transform="matrix( 0.596160888671875, -0.3002471923828125, 0.3002471923828125, 0.596160888671875, 146.35,645) ">
<g transform="matrix( 1, 0, 0, 1, 0,0) ">
<use xlink:href="#Symbol_21_0_Layer0_0_FILL"/>
</g>
</g>

<g transform="matrix( 0.667572021484375, -0.0016937255859375, 0.0016937255859375, 0.667572021484375, 270.15,280) ">
<use xlink:href="#Layer0_15_FILL"/>
</g>

<g transform="matrix( 0.667572021484375, -0.0016937255859375, 0.0016937255859375, 0.667572021484375, 270.15,280) ">
<use xlink:href="#Layer0_16_FILL"/>
</g>

<g transform="matrix( 0.62127685546875, 0.244293212890625, -0.244293212890625, 0.62127685546875, 471.75,110.1) ">
<g transform="matrix( 1, 0, 0, 1, 0,0) ">
<use xlink:href="#Symbol_22_0_Layer0_0_FILL"/>
</g>
</g>

<g transform="matrix( 0.666778564453125, -0.01361083984375, 0.07684326171875, 0.66680908203125, 302.4,294.8) ">
<use xlink:href="#Layer0_18_FILL"/>
</g>

<g transform="matrix( 0.63482666015625, 0.1357879638671875, -0.0826568603515625, 0.6511688232421875, 475.25,183.55) ">
<g transform="matrix( 1, 0, 0, 1, 0,0) ">
<use xlink:href="#Symbol_23_0_Layer0_0_FILL"/>
</g>
</g>

<g transform="matrix( 0.66790771484375, 0.02545166015625, 0.0683135986328125, 0.6728057861328125, 248.9,278.35) ">
<g transform="matrix( 1, 0, 0, 1, 0,0) ">
<use xlink:href="#Symbol_24_0_Layer0_0_FILL"/>
</g>
</g>

<g transform="matrix( 0.7140655517578125, 0.0357208251953125, -0.0001068115234375, 0.684356689453125, 233.95,255.35) ">
<use xlink:href="#Layer0_21_FILL"/>
</g>

<g transform="matrix( 0.7140655517578125, 0.0357208251953125, -0.0001068115234375, 0.684356689453125, 233.95,255.35) ">
<use xlink:href="#Layer0_22_FILL"/>
</g>

<g transform="matrix( 0.55462646484375, 0.3945465087890625, -0.3507232666015625, 0.544158935546875, 489.25,24.1) ">
<use xlink:href="#Layer0_23_FILL"/>
</g>

<g transform="matrix( 0.55462646484375, 0.3945465087890625, -0.3507232666015625, 0.544158935546875, 489.25,24.1) ">
<use xlink:href="#Layer0_24_FILL"/>
</g>

<g transform="matrix( 0.1769561767578125, 0.657440185546875, -0.626434326171875, 0.202239990234375, 899.65,-138.35) ">
<g transform="matrix( 1, 0, 0, 1, 0,0) ">
<use xlink:href="#Symbol_25_0_Layer0_0_FILL"/>
</g>
</g>

<g transform="matrix( 0.1751861572265625, 0.6579132080078125, -0.626983642578125, 0.2005615234375, 895.75,-123.4) ">
<g transform="matrix( 1, 0, 0, 1, 0,0) ">
<use xlink:href="#Symbol_26_0_Layer0_0_FILL"/>
</g>
</g>

<g transform="matrix( -0.4992523193359375, -0.42840576171875, -0.4798583984375, 0.1941070556640625, 1645.85,941.1) ">
<g transform="matrix( 1, 0, 0, 1, 0,0) ">
<use xlink:href="#Symbol_27_0_Layer0_0_FILL"/>
</g>
</g>

<g transform="matrix( 0.5539398193359375, 0.395843505859375, -0.3558349609375, 0.5538177490234375, 491.7,19.5) ">
<g transform="matrix( 1, 0, 0, 1, 0,0) ">
<use xlink:href="#Symbol_28_0_Layer0_0_FILL"/>
</g>
</g>

<g transform="matrix( -0.489593505859375, 0.454345703125, 0.6198883056640625, 0.6397857666015625, 884.1,-57.4) ">
<use xlink:href="#Layer0_29_FILL"/>
</g>

<g transform="matrix( -0.489593505859375, 0.454345703125, 0.6198883056640625, 0.6397857666015625, 884.1,-57.4) ">
<g transform="matrix( 1, 0, 0, 1, 0,0) ">
<use xlink:href="#Symbol_29_0_Layer0_0_FILL"/>
</g>
</g>
</svg>
