<svg xmlns="http://www.w3.org/2000/svg" xmlns:xlink="http://www.w3.org/1999/xlink" preserveAspectRatio="none" width="760" height="880" viewBox="620 10 760 880"><defs><path fill="#a6ce38" d="M1028.9 506.05q-.2.1-.35.2l-1.9 1.2q-.95.65-1.9 1.25-1.4.95-2.85 1.95-1.4 1-2.85 2.05l.5-.1q.5-.1 1-.15.5-.05.95-.1 1.95-1.65 3.85-3.3 1.95-1.65 3.9-3.2l-.35.2M683.45 168.3q-2.45-1.35-5.45-2.25-3.05-.95-5.9-.5-.6-.15-1.35-.1l-.95.1q-12.9 1.6-16.75 9.25-3.85 7.6-1.8 18.25 2.1 10.7 7 21.55 1.15 5.6 3.5 11.8 2.3 6.25 5.45 12.65-7.85-4.6-16.8-5.1-8.9-.5-13.6 9.6l-.15.55q-.15.5-.35.9-.35 1.1-.65 2.5l-.35 1.7q-1.25 7.25-.6 15.1t3.05 15.05q4.2 17.55 15.1 37.1 10.85 19.5 23.5 37.15 12.65 17.6 22.25 29.55 4.85 6.15 9.95 11.9 5.05 5.75 10.3 11.1-4.2 1.8-7.25 5.05-3.1 3.2-5.4 7.45-.8 1.5-1.5 3.05-.65 1.5-1.2 3.05.8 4.2 2.2 8.2 1.4 4 3.3 7.85 3.35 6.6 7.8 12.55 4.45 5.95 9.45 11.15 3.6 3.75 7.5 7.4 3.9 3.65 8.1 7.25 3.25 2.8 6.6 5.5 3.4 2.7 6.85 5.4 7.75 5.9 15.85 11.55 8.05 5.7 16.25 11.1l.3.2.2.1q.1.05.2.15l3.4 2.25q3.75 2.45 7.45 4.85 3.7 2.35 7.35 4.7l8.85 5.65q4.35 2.8 8.55 5.5l.5.05.5.1q4.35.6 8.85 1.2 4.5.55 9.1 1.05 16.2 1.65 32.65 3.4t31.2 4.8q4.3.9 8.5 1.7 4.15.8 8.3 1.45 7.25 1.2 14.45 2.15 7.25.95 14.65 1.8 4.35-7.15 8.75-13.55 4.35-6.35 6.45-10.1 7.2-14.4 15.05-23.4 7.85-9 22.75-18.4.75-.45 1.5-.95.75-.5 1.45-1.05-11.6-8.25-22.95-16.65-11.35-8.4-22.45-17-62.25-48.05-116.65-100.1-54.4-52.05-101.35-107.1-12.1-14.2-23.75-28.5-11.6-14.35-22.75-28.85-3.8-4.95-7.55-9.9t-7.45-9.95z" id="a"/><path fill="#a6ce38" d="M1301.9 418.3l3.45-3.15q1-3-6.25-3.7-7.05.9-13.8 1.55-6.75.7-12.65.9h-1.05q-78.3 7.3-155.3-.15-76.95-7.45-152-25.55-34.65-6.1-68.75-13.85t-67.2-17.65q-4.9-1.45-9.75-3-4.85-1.5-9.7-3.1-2.05-.7-4.15-1.35l-4.1-1.4q-6.35-2.15-12.75-4.45-6.35-2.35-12.8-4.85-2.4 0-5.35.65-2.95.6-5.05 2.45-.55.15-1 .55l-.65.5q-8.55 7.05-7.95 14.6.6 7.5 6.85 14.65t14.5 13.15q3.35 3.75 7.8 7.45 4.45 3.7 9.55 7.2-1.35.25-3.2.7-1.8.5-3.4 1.15-1.1.4-2.15.8-1.1.45-2.1.85-.2.25-.5.35l-.4.1q-7.5 5.2-6.6 12.6.9 7.4 6.6 14.95 6.9 14.1 24.8 26.45 17.85 12.4 38.25 21.9 20.4 9.55 34.85 15.1 6.2 2.5 12.4 4.55 6.15 2.05 12.25 3.75-2.15 3.25-2.95 7.1-.75 3.85-.55 8.1.1 1.65.3 3.2.2 1.55.55 3.05 6 12.2 19.05 20.15 13.1 8 28.4 13.25 15.3 5.25 28.1 9.2-.55 1.3-.7 2.6-.2 1.3-.15 2.25 1.35 14.3 11.25 22 9.95 7.7 22.75 11 13.9 3.95 30 5.9 16.1 2 33.45 2.2 3.65-.65 7.3-1.35 3.65-.65 7.3-1.35 12.75-2.45 25.4-5.15 12.65-2.65 25.05-5.45 5.2-1.15 10.3-2.35 5.15-1.15 10.25-2.35 1.6-.35 3.2-.75 1.6-.35 3.25-.75 4.65-1.15 9.4-2.35 4.75-1.25 9.55-2.55 11-3.05 22.05-6.6t21.9-7.6q1.5-.55 3-1.15 1.5-.55 3-1.15l.35-.1.3-.15q.05-.15.05-.3.05-.15.05-.3-.1-.15-.2-.25-.1-.15-.25-.2.9-4.5 1.6-8.7.7-4.2 1.05-5.8 6.9-30.55 11.2-61.4 4.35-30.85 10.5-61.6.1-.6.4-1.7.3-1.1.65-2.5 8.7-1.35 16.95-3.2t15.9-4.2l8.3-3.4m-503.05-2.85l-.25-.4q-.1-.2-.25-.35.15-.2.25-.35l.25-.35v1.45m-19-3.05q.1 1 .3 2 .2 1.05.45 2.05l-.1.3q-.05.2-.1.35-.4-1.2-.55-2.4-.15-1.2 0-2.3z" id="b"/><path fill="#a6ce38" d="M793 728.5l11.5 6.7q11.3 6.35 30.65 14.8 19.35 8.4 43.85 15l10.25-22.7q9.2-21.4 21.05-49.5 11.85-28.05 20.8-49.35l9.4-22.45-25.4-11.05L793 728.5z" id="c"/><path fill="#a6ce38" d="M1098.7 361.15q-17.25-14.15-44.1-10.5-23.5 4.25-54.6 19.6-31.1 15.35-66.25 37.35-35.2 22.05-70.9 46.35-14.35 10.9-20.25 40.55-5.9 29.7-6.95 66.25-1.05 36.6-.8 68.25.2 31.6-1.9 46.45 5.6 4.4 15.05 6.7 9.45 2.3 25.2 3.35 8.3-19.45 29.95-42.3 21.7-22.85 50-43.05 28.3-20.15 56.4-31.55 27.4-11.9 48.35-34.15 20.95-22.3 36.7-43.2 15.7-20.9 27.4-28.7 8.9-6 9.5-24.95.65-18.95-7.45-40.6-8.1-21.7-25.35-35.85z" id="d"/><path fill="#a6ce38" d="M1014.75 275.85q-14.05-10.5-36.05-11.4-13.65-.15-23.75 4.75-10.05 4.85-17 12.35-7 7.45-11.3 15.15-4.35 8.4-8.1 26.45-3.7 18.1-6.1 34.4l-2.75 19.55 3.7 3.15 10.3 3.45q13.6 3.6 30.3 6.25 16.7 2.7 26.35 3 9.45.05 24.45-2.55 14.95-2.55 27.85-6.7 12.9-4.1 16.1-8.7l-2.2-17.85q-2.05-13.4-5.3-28.85-3.2-15.45-6.85-26.15-5.6-15.85-19.65-26.3z" id="e"/><path fill="#a6ce38" d="M1051.9 298q-7.95 7.65-9.7 18.25-1.75 10.6 2.45 19.65 4.25 9 14.3 11.8 4.65-2.05 14.6-9.5t18.2-19.15l-1.75-1.55-4.85-3.4q-6.35-4.35-15.5-9.2-9.2-4.85-17.75-6.9z" id="f"/><path fill="#0083CB" d="M1010.6 309.3l-1-1.85-1.35-1.65-1.6-1.35-1.9-1-2-.6-2.15-.2-2.1.2-2 .6-1.9 1-1.6 1.35-1.35 1.65-1 1.85-.65 2.05-.2 2.1.2 2.1.65 2.05 1 1.85 1.35 1.65 1.6 1.35 1.9 1 2 .6 2.1.2 2.15-.2 2-.6 1.9-1 1.6-1.35 1.35-1.65 1-1.85.65-2.05.2-2.1-.2-2.1-.65-2.05z" id="g"/><path fill="#a6ce38" d="M1002.55 287.3q-8.85.45-13.15 6.95-4.3 6.55-5.15 14.7l35.45.25-1.05-5.7q-1.15-5.3-4.8-10.6-3.7-5.25-11.3-5.6z" id="h"/><path fill="#FFF" d="M1121.25 254.55q-14.95-3.4-28.7-6.55-13.75-3.2-23.7-7.55l-2.9 39.65-2.6 53.35-6 36.6.3.15q.2.05.35.1.45-.3.95-.65l1-.6q3.85-3.35 8.45-5.8 4.6-2.45 8.2-3.85l4.4-1.65q8.35-2.9 15.2-6.4 6.9-3.45 14-6.55 7.05-3.1 16.05-5 17.85-6.5 29.6-15.1t17.45-17.75q5.7-9.1 5.5-17.25-.25-8.15-6.3-13.7-9.35-8.05-22.85-13.05-13.45-5.05-28.4-8.4m4.95 121.95q-.15-.3-.25-.55-.1-.3-.2-.55-.15.35-.25.7t-.1.7q.15-.1.35-.2.2-.05.45-.1z" id="i"/><path fill="#0081c6" d="M1177.15 15.25l-1.35-.35q-1-.3-1.85-.6-.05.35-.15.85l-.05.35-.05.2q-.5 3.2-.95 6.45-.45 3.25-1.15 6.4-1 4.6-1.4 9.5-.45 4.85-.95 9.55-1.55 12.15-3.55 24.3-2.05 12.15-3.95 24.25-2.85 17.95-6.55 35.75-3.65 17.85-7.6 35.65-3.9 17.75-7.4 35.6-.8 3.8-1.55 7.9-.8 4.1-.9 7.95v1.35q.05.7.1 1.35l.1.35.1.6q.15.7.25 1.3.2.65.65 1.3.5.65 1.2.55 1.05-.2 1.6-1 .55-.85.85-1.9l.5-1.95q5.6-19.35 10.2-39t9.05-39.3q2.2-9.5 5.15-18.85 2.95-9.35 6.15-18.6.15-.4.3-.85.15-.45.3-.85l.35-1.05q.3-.85.55-1.55l-.2.9-.05.4-.05.2q-1.05 5.45-1.85 10.95-.85 5.45-2 10.9-1.7 7.4-3.5 14.9-1.85 7.5-3.2 15.1-1.4 7.55-1.85 15.15-.1 2.5-.5 4.65-.4 2.1-1 4.55-.2.65-.5 1.9-.3 1.2-.5 2.4t-.1 1.8l.3.85.25.25.25-.25.3-.7q-.1.45-.2 1.05l-.2.65q-2.4 9.9-4.95 19.75-2.55 9.85-4.3 19.85-.15.8-.25 1.65-.1.85-.15 1.7v.75q-.05.4 0 .8l.05 1q.1.75.3 1.4.35-.15.75-.4l.5-.35q2.05-1.9 3.15-5.25 1.15-3.35 1.75-7 .6-3.65 1.1-6.35 1.4-6.45 3.1-12.9 1.7-6.5 3.35-12.9 3.8-15.5 7.15-31 3.3-15.45 5.85-31.2.35-2.45.65-4.9.35-2.45.75-4.9 1.6-8.85 3.05-17.8 1.5-8.9 2.9-17.8 1.9-12.2 3.35-24.6 1.45-12.4 2.5-24.75.2-2.3.4-4.7.2-2.35.1-4.7v-.7l-.05-.45q0-.35-.3-.5-.3-.15-1.05-.5t-1.45-.75q-.7-.4-1.45-.65-.65-.25-1.35-.4-.7-.2-1.35-.4-.85-.3-1.6-.7l-1.6-.7q-.7-.25-1.4-.35-.75-.1-1.45-.25l-.75-.15-.7-.2z" id="j"/><path fill="#FFF" d="M1179.05 23.2l-2.75-.2q-.8-.05-1.5-.1-.05.45-.15 1l-.1.7q-4.1 30.85-9.1 61.55-4.95 30.65-11.25 61.15-5.4 25.85-11.2 51.65-5.8 25.8-12.3 51.4-11.45 44.95-23.75 89.6-12.3 44.65-24.9 89.25-12.6 44.55-25 89.25-10.15 36.4-19.3 73.2-9.15 36.8-16.75 73.95-7.65 37.1-13.2 74.55-2.55 17.35-4.45 34.8-1.85 17.4-3.05 34.9l-.1 1.35q-.05 1.1-.15 2.05 0 .45-.05.95v.45l-.05.25q-.05.8-.1 1.65 0 .8-.05 1.65-.05.4-.05.85-.05.4-.05.85l-.1 1.4q-.05 1.1-.15 2.05.5-.05 1-.05l.45-.05h.25l6.7-.3q3.3-.15 6.65-.3l1.05-.05q.8-.05 1.45-.05.05-.5.05-1l.05-.45v-.25q2.45-48.6 10.1-96.85 7.65-48.25 18.65-95.9 11.05-47.7 23.55-94.6 12.3-46.2 25.2-92.25 12.85-46.05 25.5-92.2 14.4-52.45 27.1-105.35 12.75-52.95 22.9-106.4 10.1-53.4 16.8-107.45l.2-1.7.2-1.7.15-1.05q.1-.85.2-1.55-.5 0-1.05-.05l-.45-.05h-.25q-1.7-.15-3.4-.25-1.7-.15-3.45-.3z" id="k"/><g id="l"><path fill="#0081c6" d="M531.4 629.1q-.15.7-.3 1.5l-.3 1.6q-.15.85-.15 1.55v.2q-.05.15 0 .25t.15.15l.2-.2q0 .25-.05.5 0 .25-.05.5v.3q-.05.15-.05.3t.15.2q.1-.1.2-.25l.1-.4.05-.2.05.15q.15-.1.25-.35l.1-.5v-.25l.4-3.4q.2-1.7.3-3.4.05-.2 0-.35 0-.15-.2-.05-.1.1-.15.25-.05.2-.05.35-.05.1-.1.3-.05.15-.05.25l-.05.15v.2l-.2-.1q-.1.1-.15.25-.05.15-.05.3l-.05.1v.1z"/><path fill="#FFF" d="M530.65 610.35v.1q-.2-.1-.45-.15-.2-.05-.35-.05h-.2q-3.7-.8-7.4-1.95-3.65-1.1-7.3-2.4-3.65-1.3-7.2-2.65-.4-.1-.75-.3-.35-.2-.75-.3-.05 0-.1-.05-.1 0-.1.05-.05 0-.1.05v.05l.05.05-.15.1q0 .25.2.45t.4.3q.25.15.35.2 1.3.95 2.6 1.95 1.3 1.05 2.65 1.95 2.05 1.45 4 3l3.9 3.2q1.95 1.65 3.9 3.25l2.1 2q1.05 1.05 2 2.2l.15.2q.15.2.25.4t.25.35q.05.1.15.2.1.1.25-.05.1-.15.1-.35.05-.2.05-.4.05-.2.05-.25.05-.3.05-.6.05-.3.1-.55l.6-3.8q.3-1.9.7-3.8l.15-.75.1-1q0-.5-.1-.65l-.05-.05q-.05 0-.1.05z"/></g><path fill="#FFF" d="M1093.3 494.05q-10.65-14-24.1-27.15-13.45-13.15-27.2-21.2-13.7-8.05-25.25-6.8-14.25 2.2-21.4 8.35-7.2 6.15-9.6 14.3-2.4 8.15-2.2 16.45.15 8.25.6 14.7.35 6.2 4 20.75 3.6 14.6 9.15 35 5.6 20.45 11.75 44.25 6.2 23.8 11.65 48.45 4.6 21.6 7.4 42.2 2.8 20.6 4.7 37.55 1.9 16.9 3.75 27.55l2.55 2.15 4.95 2.75q6.15 3.05 15.3 5.5 9.2 2.4 19.65 2.35 14.9-.4 23.45-2.9 8.5-2.55 12.15-5.25l2.75-2.35 1-1.5q13.65-48.1 15.85-87.2 2.15-39.05-2.45-68.4-4.65-29.35-11.4-48.25-6.75-18.85-11-26.6-5.4-10.7-16.05-24.7z" id="m"/><path fill="#FFF" d="M656.95 766.95l-8.05-.8q-1.6 0-2.6 1.1-1.05 1.1-1.1 2.55-.05 1.5 1.3 2.7l2.6 1.4 5.45 2.2q6.9 2.6 18.4 4.6 11.45 2 26.2 1.2 14.7-.75 31.5-6.45 11.65-4.35 21.95-12.65 10.35-8.3 18.3-17.35 8-9.05 12.6-15.55l4.8-7.25-1.05-1.4-2.9-2.8q-3.8-3.5-8.4-7.55-4.65-4-7.35-6.3-2.1 3.35-7.35 10.9Q756 723 748.5 732q-7.45 9.05-16.15 16.9-8.75 7.85-17.75 11.9-9.9 4.1-20.75 5.6-10.85 1.45-20.6 1.35-9.7-.15-16.3-.8z" id="n"/><path fill="#FFF" d="M985.85 192.35l2.2-3.4.8-2.05q-4.05-2.1-9.95-3-5.95-.85-12.2-.85-6.25.05-11.25.7-5.05.65-7.3 1.6-1.85 1.05-5.6 4.95-3.75 3.9-7.8 8.65-4.1 4.75-7 8.2l-3.05 3.65 2 1.35q1.85 1.2 3.85 2.4l1.6.9.85.3q11.4-1.85 18.85-3.15 7.4-1.3 12.05-2.6 4.65-1.25 7.75-3 3.35-2.05 7.35-6.3 3.95-4.3 6.85-8.35z" id="o"/><path fill="#FFF" d="M737.95 751.45q5.8 10.3 13.25 24.65 7.4 14.35 12.7 27 5.25 12.65 4.55 17.9-1.1 5.15-2.8 17.3-1.7 12.15-3.45 25.8-1.75 13.7-2.95 23.5L758 897.9q3.95 7.25 20.6 10.75 16.65 3.45 37.8 3.25 21.2-.25 38.7-4.15 17.55-3.85 23.25-11.3l3.3-7.65q3.1-7.25 7.4-17.65 4.3-10.45 8-20.3 3.75-9.9 5.15-15.45l1.15-14.4q.5-11.35.9-25t.6-23.7l.3-10.65q-10-9.95-31.7-16.9-21.65-6.9-48.35-10.1-26.7-3.15-51.65-1.85-25 1.3-41.6 7.85l6.1 10.8z" id="p"/><path fill="#0083CB" d="M943.65 840.8q-1.05-2.05-1.45-3.45-.75-2.75-1.15-5.5-.35-2.8-.9-5.5l-.5-1.5-.55-.4q-.6.1-1.05 1.35-.4 1.2-.4 2.45.15 3.15 1.1 7.5.95 4.35 3.1 7.95 2.1 3.6 5.8 4.45 3.45.45 5.8-2.6 2.35-3 3.65-7.05 1.3-4.05 1.65-6.75.15-1 .2-2.9.05-1.9-.25-3.6-.3-1.75-1.25-2.3l-.2-.05q-.15 0-.2.05-.35.35-.45.85l-.15.7q-.25 1.9-.3 3.9 0 2-.35 3.95-.3 1.7-1.15 4.5-.85 2.8-2.15 5.3-1.3 2.45-3 3.1-1.75.45-3.3-.95-1.5-1.45-2.55-3.5z" id="q"/><path fill="#FFF" d="M801.9 770.7q-19.5 11.9-36.7 19.75l13 7.4q12.35 7.05 28.65 16.9 16.3 9.9 28.85 18.7l9.65 7.5 2.65 2.8 1.2 2.2q.5 5.55-.7 13.85t-3.05 16.6q-1.85 8.3-3.3 13.9l-1.55 5.9q6.05 4.15 21.5 7.55 15.45 3.35 34.05 4.6 18.65 1.25 34.25-.95 15.55-2.2 21.85-9.1 8.85-13.9 16.85-28.3 8-14.45 13.2-27.7 5.2-13.2 5.55-23.55l-.75-3.4-1.95-4.35-7.3-11.75q-9.6-13.75-22.25-29.3-12.7-15.6-22.3-26.75l-10.1-11.8q-19.25-5.3-39.85.05-20.6 5.3-41.25 16.35t-40.2 22.9z" id="r"/><path fill="#0083CB" d="M943.35 838.65q-1.2-2.6-1.95-5.7-.8-3.05-1.8-5.85l-.4-.7-.3-.15q-.3.15-.45.85-.15.7-.15 1.4.2 3.1 1.2 6.95 1 3.8 2.75 6.95 1.7 3.15 4.05 4.3 4 1.55 6.85-1.1 2.85-2.65 4.45-7.45 1.6-4.75 1.75-9.5v-1.7q-.05-1-.25-1.8-.25-.75-.7-.7-.15.3-.3.65l-.15.5q-.6 2-.85 4.2-.3 2.15-.8 4.3-1.15 4.45-3.3 7.15t-4.75 2.35q-2.55-.35-4.9-4.95z" id="s"/><path fill="#FFF" d="M767.75 370.25q-6.5 10.05-12.3 20.9-5.4 10.3-10.9 21.95-5.5 11.65-9.95 21.85-4.45 10.15-6.7 16l43.35 4.1q41.25 3.35 95.3 7.25 54.1 3.9 94.95 6.2l30.95 1.4 8.1.05 3.2-.45q-1.65-3.05-7.75-9.25t-13.95-13.3q-7.85-7.1-14.8-12.75-6.95-5.7-10.25-7.65l-29.95-15.4q-25.65-13-57.9-29.25-32.25-16.3-56.35-28.4l-25.35-12.75q-2.35 3.95-7.75 11.7-5.4 7.75-11.95 17.8z" id="t"/><path fill="#0081c6" d="M945.25 654.15q-7.2 17.5-12.4 35.65-5.15 18.15-8.3 38.65-.85 5.35-1.55 10.45-.7 5.05-1.15 9.95.4-.15.8-.25.35-.15.65-.2.3.05.65.1.4.1.5.2 1.75 1.9 3.35 6.95 1.6 5.05 2.9 10.45 1.3 5.4 2.1 8.4.35 1.25 1.15 4 .75 2.8 1.75 6.45 1 3.7 2 7.6 2.15-.55 4.9-1.05 2.75-.5 5.45-.9 3.55-2.45 7.55-3.8 4-1.4 9.75-2.5l2.25-.55q1.8-.5 3.25-1.1.75-.45 1.7-.65.95-.15 1.95 0 1.55-1 3.85-1.7 2.35-.7 4.6-1.1 2.2-.4 3.5-.55 12.15-1.9 23.75-5.5t22.7-8.6q12.55-8.15 23-18.95 10.5-10.85 18.6-25 8.1-14.2 13.6-32.5 6.65-22.05 9-44.65 2.35-22.65-.95-45.55t-13.6-45.75l-1.6-3.5-1.6-3.55q-.3 1.85.4 4.1.75 2.2 1.05 4.3.35 2.1-1.2 3.5-2.8 2.2-4.15.5-1.35-1.65-2-4.75-.65-3.05-1.3-5.15-3.25.6-5.4-3.2-2.15-3.85-3.45-9-1.35-5.2-2.15-8.7l-.5-1.9q-.35-1.45-.8-3.25-.45-1.85-.85-3.3-.6-.65-1.55-.4l-.8.2-.45.05q-2.15-1.3-2.25-4.05-.1-2.75 1.2-6.4-20.2 13.7-37.85 32.2-17.65 18.5-31.75 38.8-14.1 20.35-23.7 39.6-9.35 18.45-16.6 35.9m-215.3-35.5q-.15-.9-.75-1.55-.1-.1-.1-.3l-.1-.3q-.15.8.35 2.65.5 1.8 1 3.4l.65 1.75q.5 1.75.9 3.5l.9 3.5-.3-.1q-.15-.1-.25-.15-.75-.3-1.65-.1-.9.2-.85 1.15.35.8.95 1.6t1.3 1.6q.1 1.5.45 2.9l.4 1.85q.8 4.2 1.75 7.9.95 3.65 1.5 7.85.1.85.35 3.2.2 2.3.55 4.75.35 2.4.7 3.65.2 1.25.3 2.25l.2 1.35q.3 1.95.55 3.9.2 1.95.35 3.9-.95-.95-2.25-1.45-1.25-.55-2.85-.45l-1.05.2q-.8.15-1.7.15.1-1.2.2-2.7.1-1.45-.15-2.6-.25-1.15-1.15-1.3-.5.8-.75 1.95-.3 1.2-.4 2.25l-.15 1.4q0 .25-.05.5 0 .2-.05.45-.3 1.2-.5 2.1l-.2.8-.05.45q-1.7 10.65-.7 20.45 1 9.8 4.2 19.1 2.35 9.45 6.55 18.6 4.2 9.15 10.4 17.85 3.25 6.45 8.05 11.95 4.85 5.5 11 9.5.6.4 2.05 1.2 1.5.8 2.9.7-.5-1-1.55-2-1.05-1.05-2.05-1.8l-1.35-1.1q-1-.85-1.95-1.7l-1.8-1.7q1.1-1.2 2.25-2.9 1.2-1.7 2.1-3.2.9-1.45 1.2-2.05 5.2-9.65 8.3-16.15 3.1-6.45 4.2-12.25 1.15-5.75.5-13.2-.6-7.5-2.8-19.05-2.25-12.65-5.85-22.55-3.6-9.9-9.6-18.5t-15.5-17.35q-3.55-3.25-7.2-6.5-3.65-3.25-7.45-6.1l-.05-.05q-1-3.2-1.95-6.2t-1.75-5.7l-.2-1.2M1056.6 503.4q.05.2.15.4.1-.15.15-.35l.2-.35q-.15-.05-.35-.1-.15 0-.3.05.05.2.15.35m46.7-14.7l-.5.9q.55-.3.95-.7.45-.4.65-.9l-.3-.1-.3-.1-.5.9z" id="u"/><path fill="#FFF" d="M747.9 407.05l-4.65 2.55q-4.4 2.5-10.45 7.45-6.05 4.95-11.1 12.15-5.05 7.25-6.5 16.65-1.1 8.35-1.9 24.45-.8 16.1-1.55 36.7-.7 20.6-1.5 42.4-.8 21.85-1.85 41.6-.25 5.4.6 16.9.8 11.5 2.55 26.1 1.7 14.6 4.1 29.2 2.4 14.55 5.3 26 1.6 6.05 6 17.2 4.45 11.15 10.85 24.35 6.4 13.2 13.95 25.4 7.5 12.2 15.25 20.35 13.65 13.2 38.2 18.5 24.5 5.25 53.2 5.05 28.75-.2 54.95-3.5 26.2-3.25 43.2-7.15 18.8-4.05 38.6-11.95 19.75-7.95 37.45-20.6 17.65-12.65 30.15-31 14.1-21.45 21.75-47.3 7.6-25.85 8.3-53.25.7-27.45-6-53.6-6.35-23.35-17.35-44.55-11.05-21.2-22.75-37.95-11.75-16.7-20.25-26.65l-9.75-10.9-12.3-2.5-30.75-5.35q-40.05-6.7-92.3-15.2t-91.8-14.85l-41.65-6.7z" id="v"/><path fill="#0081c6" d="M1162.4 196.4q-2.35-.6-5.15.05-.25.05-.85.2-.65.1-1 .55-1.35 1-2.9 2.45-1.55 1.5-2.75 2.75l-1.45 1.7q-5.55 8.65-10.45 16.8-4.9 8.2-10.05 16.1-1.65 1.8-3 3.85-1.4 2.05-2.6 4.25-2.7 3.7-5.7 7.35-3 3.7-6.4 7.4-4.5 5.05-9.15 10.9-4.7 5.85-9.9 11l-.7.45-.7.4-.25.1q-4.2 2.25-8 4.55-3.75 2.3-7.9 3.5-4.15 1.2-9.5.2-3.55-.8-6.7-3.4-3.1-2.6-5.7-6.35-2.6-3.75-4.55-8v-1.3q-.05-.6-.05-.8-.35-3.15-1.1-6.1-.75-2.95-1.55-5.85-.3-2.95-.55-5.6-.25-2.7-.6-4.85-.3-1.75-.55-3.4-.25-1.6-.9-3.2-.55-1.7-1.5-3.1-1-1.45-2.55-2.4l-.45-.45q-.2-.15-.35-.25-3.9-2.15-9.7.1-5.8 2.2-11.95 6.2-6.1 4-11 7.15-1.05.5-1.9.95l-1.15.65q-.25.1-.45.2l-.4.2q-7.75.65-14.45-1.9-6.65-2.5-13.1-7.55-6.45-5-13.55-11.7-2.25-2.1-4.7-4.15-2.45-2.05-5.1-3.95l-.3.2-.3.2q-.4.25-.7.6-.3.3-.55.75-.05.1-.1.25l-.1.3-.7-.25-.25.1q-.05.35.25 1l.5 1 .05.2q-1.1 4.35-2.75 5.65-1.7 1.3-3.95.65-2.3-.7-5.15-2.3l-.35 1.3q-.35 1.15-.9 1.95-2.9 3.45-4.9 2.85-2.05-.6-4.2-2.1-2.1-1.5-5.3-.75-3.55 1.1-5.75 1.4-2.15.25-4.4-.15-2.25-.4-6.1-1.3-5.75-1.25-9.5-1.3-3.8-.05-7.5.35-3.65.45-9.05.65-5.4.15-9.15 1.35-3.75 1.15-6.95 3.6-3.25 2.45-6.95 6.5-6.85 7.1-14.45 14.55-7.6 7.45-14.35 15.6-6.75 8.15-11.1 17.3-.55 1.15-1.65 3.65-1.05 2.5-2.5 5.85-1.45 3.3-3.15 7.05-.3.75-.65 1.5-.35.7-.65 1.45-.45.9-.85 1.75-.4.9-.8 1.75-.6 1.25-1.2 2.45l-1.15 2.4q.15 1.6.45 3 .25 1.4.65 2.5 1.8 4.65 7.1 10.45 5.3 5.85 11.3 11.45 6 5.65 9.9 9.6 7.5 8.25 12.7 14.05 5.15 5.85 11.55 10 6.35 4.2 17.55 7.45 12.25 3.6 24 6.35 11.8 2.75 23.75 4.4 11.9 1.65 24.6 1.85 6.45 0 13.1.3 6.6.2 13.1 1.4 6.45 1.15 12.5 3.95 6 2.75 11.25 4.4 5.25 1.65 10.4 3.85 5.2 2.25 10.9 6.55 2 1.55 5.5 3.95 3.45 2.45 7.8 5.2 4.3 2.8 8.85 5.35-5.25 5-10.2 10.65-4.95 5.7-8.1 11.3-3.15 5.6-3 10.25.05.6.15 1.2.1.6.3 1.15.35.8.75 1.55t.85 1.45q.2.3.45.6l.5.5-.3-.05q.3.5.7 1 .35.5.75.95 6.85.9 13.25.6 6.35-.25 12.75-1.3 6.4-1 13.25-2.4 6.3-.7 12.7-1.85 6.45-1.2 12.9-2.95.95-.2 1.9-.5 1-.25 2-.55 17.25-4.95 33.15-14.3 15.9-9.3 28.4-23.8 12.5-14.5 19.65-34.95 1.15-3.3 2.65-7.8 1.55-4.55 2.9-9.55 1.4-5 2.1-9.75 2.05-9.8 3.4-19.6 1.3-9.8 2.1-19.15.65-7.1 1.4-13.1.8-6 1.15-12.15.4-6.1-.15-13.55-.55-8.3-.75-15.85-.25-7.55-.6-14.9-.35-7.35-1.45-15-.35-4.05-.95-8.05-.65-3.95-1.65-7.8-1.15-4.45-3.05-10.35-1.9-5.85-4.9-11.2-2.95-5.4-7.25-8.25-1.85-1.65-4.2-2.25m-140.65 44.55l.1-.05v.05h-.1m-37 11.1l-.4-.15-.15-.1q.11.07.2.1.2.05.35.15z" id="w"/><path fill="#FFF" d="M1122.8 255.7q-12.8 17.7-28.05 29.6-15.25 11.9-30.8 9.35-8.3-2-13.3-8.85-4.95-6.8-7.45-15.35-2.45-8.5-3.25-15.75-.75-7.2-.75-10-.1-2.8-1.95-4.65-1.8-1.85-4.5-2.15-2.75-.3-5.5 1.7-4.35 3.3-10.4 7.4-6.1 4.05-13.1 6.85-6.95 2.75-14 2.2-3.45-.5-8.85-4.25-5.45-3.75-11.9-9.25-6.45-5.45-12.9-11.05-6.45-5.65-11.95-9.85-4.35-3.5-15.35-6.45-11-3-27.4-2.25-16.45.75-37.2 8.4-14.4 5.75-23.85 12.85-9.45 7.1-14.4 12.95l-3.95 4.8-1.85 2.85q-3.9 7.5-10.1 24.3-6.15 16.8-12.5 35.55-6.35 18.75-10.65 32.1l-4.5 13.95 2.3 7q2.15 6.55 8.1 17 5.9 10.4 17.45 22.55 11.5 12.15 30.5 23.85 23.6 13.95 47.2 22.7t43.5 13.25q19.9 4.5 32.5 5.75 38.15 4.1 68.2 2 30-2.05 51.95-9.05 21.95-7 35.85-17.7 18.65-14.25 31.8-34.95 13.2-20.7 20.3-46.1 7.1-25.35 7.6-53.75.4-33.9-1.65-56.3-2.05-22.35-4.55-34.35l-3.4-14.8q-1.5-5.4-5-7.1-3.5-1.7-6.95-.55t-4.9 4.4l-9.45 18.5q-8.2 14.95-20.95 32.65z" id="x"/><path fill="#FFF" d="M889.05 162.7q-6.85 3.55-13.1 8.35-6.25 4.75-10.7 9.3-4.45 4.55-5.8 7.35-.9 2.55-1.35 9.55-.45 7-.6 15.1-.15 8.05-.15 13.9v6.1l2.8-.25q2.65-.25 6.15-.65 3.5-.4 6.25-.8l2.2-.4.95-.3q8.7-11.05 13.9-18.95 5.15-7.95 7.6-13.05 2.4-5.1 2.9-7.65.45-2.15 1.05-6.9.65-4.75 1.1-10.2.45-5.45.5-9.65l-.2-3.4-.55-1.8q-6.15.8-12.95 4.35z" id="y"/><g id="z"><path fill="#1D2013" d="M1009 492.75q-.15-.1-.3-.15-.1-.05-.25-.15l.15.3h.4z"/><path fill="#0081c6" d="M957.05 500.85q-1.95.45-4.65 1.15-2.65.7-5.25 1.6 1.3-.95 2.65-1.9 1.35-.9 2.75-1.8 10.85-7.75 23.25-9.6 12.45-1.85 25.35 2.05.85.1 1.75.2t1.75.15l2 .1q.95 0 1.95-.05l-.15-.3q.15.1.25.15.15.05.3.15h.15l.55-.05q.3-.05.6-.05.4-.05.75-.2.4-.1.75-.25l-.05-.1q-1.05-1.85-3.9-3.4-2.9-1.5-6.05-2.55-3.2-1-5.2-1.35-.95-.15-2-.35-1.05-.15-1.95-.1-6.45-.55-13.6.75-7.1 1.35-14 4.15-6.9 2.8-12.65 6.55-1.65 1.2-3.2 2.5-1.55 1.3-3 2.75l-.15.4q-.6.55-1.15 1.1-.6.6-1.1 1.15-.5.6-.95 1.2-.45.6-.9 1.25.35-.1.6-.15.25-.05.45-.1.45-.1.85-.25l.9-.2q6.15-1.55 12.4-3.05 6.25-1.45 12.45-2.95.7-.15 1.4-.35.7-.2 1.4-.45-1.95-.2-4.8.15-2.85.35-5.7.95-2.85.65-4.85 1.1m34.95-13.6l-.5-.1h.3l.8.1h-.6z"/></g><path fill="#FFF" d="M986.25 295.45q-2.35-6.75-7.9-11.65-5.5-4.95-15.3-6.75-9.95-1.5-16.9 1.55-7 3.1-11.65 8.85-4.65 5.8-7.5 12.35-2.85 6.5-4.55 11.9 8.9 1 20.1 2.9 11.2 1.85 23 4.1 11.75 2.2 22.35 4.35.95-6.45.8-13.65-.15-7.25-2.45-13.95z" id="A"/><path fill="#0081c6" d="M825.1 513l-.4-1.95-1.55-.5.1-1.7-19.4-12.9-14.1-7.9-4.9-2.3-12.75-4.6h-.05l-13.2-2.65-8.1-.7-5.45-.05-10.85 1.2-7.9 2.15-7.5 3.4-6.85 4.5v.05h-.05l-2.05 1.7-5.85 5.75-3.2 4.45-2.55 4.9-1.85 5.1-5.95 23.2v.05l-4.05 24.95-.9 11.15-1.65 50.25 1.1 27.35 7.9 59.15 3.9 18.15 4.4 12.65 2.75 4.7.1.1.05.15 2 2 4.65 3.25 7.45 3.65 13 4.5 16.1 3.35 11.1.85 2.75-.15 8.2-1.4 18.2-6.2L800 746.4l4.65-3.4 1.8-2.2.05-.2.2-.35.65-2.7 5.15-44.05 11.75-121.55 1.65-50.45-.8-8.5z" id="B"/><path fill="#FFF" d="M852.3 480.25q-12.55-5.9-32.45-4.6-19.9 1.3-41.05 6.5-21.1 5.2-37.4 11.1l-13.55 5.25-8.15 3.95q-6.6 4.35-11.75 13.95t-8.7 22.15q-3.55 12.55-5.35 25.75-1.75 13.2-1.6 24.7.05 8.2.65 24.4.55 16.2 2.05 36.7 1.5 20.55 4.3 41.8 2.8 21.3 7.35 39.7l1.45 2.1 3.85 3.8q5.1 4.7 15.1 9.15 10 4.4 25 4.9 14.1 0 23.75-3.05 9.65-3.1 15-6.8l4.3-3.3 2.25-2.35q1.45-15.75 4.8-32.75 3.35-16.95 7.65-32.35 4.3-15.4 8.55-26.4 4.3-11 7.6-14.8 3.2-3.45 8.95-7.25 5.75-3.8 13.25-7.8 7.55-4.05 16.05-8.25 6.5-3.45 9.45-10.85 2.95-7.4 3.3-16.1.4-8.7-.8-16-1.2-7.3-3.05-10.55-.4-10.5.85-20.65 1.3-10.15 1.05-19.5-.2-9.4-5.1-17.65-4.85-8.25-17.6-14.9z" id="C"/></defs><use xlink:href="#a" transform="matrix(-.09096 .00748 .04855 .08694 1264.85 700.9)"/><use xlink:href="#b" transform="matrix(-.0989 -.00082 .02441 .1066 1316.95 715.85)"/><use xlink:href="#c" transform="matrix(-.11046 -.09673 -.1932 .1677 1430.9 780.65)"/><use xlink:href="#d" transform="matrix(-.11017 -.0305 -.03993 .12675 1328.55 742.05)"/><use xlink:href="#e" transform="matrix(-.07362 .1099 .09116 .07011 1230.95 627.8)"/><use xlink:href="#f" transform="matrix(-.11711 .00995 -.0041 .12999 1307.15 705.95)"/><use xlink:href="#g" transform="matrix(-.10052 .07901 .0602 .1037 1270 645.25)"/><use xlink:href="#h" transform="matrix(-.11699 .00705 -.00671 .13017 1307.85 708.85)"/><use xlink:href="#i" transform="matrix(.70027 .65363 .2524 -1.10538 346.75 -16.1)"/><use xlink:href="#j" transform="matrix(.98845 -.25632 .08987 .7484 8.2 525.45)"/><use xlink:href="#k" transform="matrix(.98845 -.25632 .08987 .7484 8.2 525.45)"/><use xlink:href="#l" transform="matrix(4.9486 0 0 4.9486 -1463.25 -2713.35)"/><use xlink:href="#m" transform="matrix(-.11833 .6614 .65613 .12036 741.1 -130.4)"/><use xlink:href="#n" transform="matrix(.56232 -.361 .35817 .56718 99.75 611.6)"/><use xlink:href="#o" transform="matrix(.39384 .49414 -.5254 .45088 721.15 7.7)"/><use xlink:href="#p" transform="matrix(.73813 .06105 -.13698 .65211 331.15 243.85)"/><use xlink:href="#q" transform="matrix(.86014 .37874 -.30975 .62305 286.75 -10.85)"/><use xlink:href="#r" transform="matrix(.6876 -.01595 .19246 .8092 182.85 167.05)"/><use xlink:href="#s" transform="matrix(.71796 .15718 .00697 .75488 326.85 71.6)"/><use xlink:href="#t" transform="matrix(.51802 .44875 -.3593 .52904 571.6 21.2)"/><use xlink:href="#u" transform="matrix(.68 .06982 -.1315 .54237 361.1 310.2)"/><use xlink:href="#v" transform="matrix(.68 .06982 -.1315 .54237 361.1 310.2)"/><use xlink:href="#w" transform="matrix(.53383 .45425 -.46497 .49605 581.45 33.9)"/><use xlink:href="#x" transform="matrix(.53383 .45425 -.46497 .49605 581.45 33.9)"/><use xlink:href="#y" transform="matrix(.15887 .6466 -.6008 .29474 949.9 -83.35)"/><use xlink:href="#z" transform="matrix(-.33221 -.25198 -.3161 .46458 1434.15 682.1)"/><use xlink:href="#A" transform="matrix(.50752 .43245 -.44713 .47668 584.05 45.7)"/><use xlink:href="#B" transform="matrix(.64586 -.21004 .17422 .69048 184.3 407.95)"/><use xlink:href="#C" transform="matrix(.64586 -.21004 .17422 .69048 184.3 407.95)"/></svg>