<svg xmlns="http://www.w3.org/2000/svg" xmlns:xlink="http://www.w3.org/1999/xlink" preserveAspectRatio="none" width="760" height="880" viewBox="614 10 760 880"><defs><path fill="#a6ce38" d="M678.4 334.85q-1.8-1.2-3.6-2.45-1.8-1.2-3.55-2.45-5.1-3.6-9.9-7.3-4.85-3.7-9.25-7.55 10.9 19.85 23.85 37.9 12.9 18 22.65 30.15 4.85 6.15 9.95 11.9 5.05 5.75 10.3 11.1-4.2 1.8-7.25 5.05-3.1 3.2-5.4 7.45-.8 1.5-1.5 3.05-.65 1.5-1.2 3.05.8 4.2 2.2 8.2 1.4 4 3.3 7.85 3.35 6.6 7.8 12.55 4.45 5.95 9.45 11.15 3.6 3.75 7.5 7.4 3.9 3.65 8.1 7.25 3.25 2.8 6.6 5.5 3.4 2.7 6.85 5.4 7.75 5.9 15.85 11.55 8.05 5.7 16.25 11.1l.3.2.2.1q.1.05.2.15l1.7 1.1 1.7 1.15q3.75 2.45 7.45 4.85 3.7 2.35 7.35 4.7l8.85 5.65q4.35 2.8 8.55 5.5l3.6 2.3q1.75 1.1 3.55 2.2 3.25 2.05 6.5 4.05 3.2 1.95 6.45 3.85 23.5 13.95 47.15 25 23.6 11.05 48 19.65.35.1.75.25.35.1.75.25 2.1.75 4.25 1.45 2.15.75 4.3 1.45.5-.95 1.1-1.85.55-.9 1.1-1.85 5.3-8.6 11.5-17.15 6.2-8.5 13.15-16.85 11.95-14.35 25.4-27.7 13.45-13.3 27.6-25h-.1l-.2-.1-.65-.15q-.3-.1-.65-.15l-4.3-1.2q-2.2-.6-4.35-1.25-12.8-3.65-25.4-7.85-12.6-4.2-25.05-8.85-7.2-.1-14.3-.25-7.1-.1-13.95-.2-6.8-.3-8.6-3.2-1.8-2.95 1.2-5.4-6-1.3-14.8-3.55t-15.95-4.8l-5.65-2.5-2.65-2.4q-.45-1.5-.35-2.55.1-1.05.7-1.75-9.05-5.05-18.2-10.3-9.2-5.25-18.4-10.35-9.55-5.25-18.85-10.85t-18.45-11.35q-1.95-.3-3.85-1.15-1.95-.85-3.3-1.7-7.2-4.55-14.5-9.05-7.35-4.45-14.75-8.95-1.75.2-3.75-.7-2.05-.9-4.1-2.25-10.05-6.3-20.55-12.8-10.45-6.55-20.9-13.3-8.15-4.35-16.55-9-8.4-4.6-16.85-9.55-.15-.05-.3-.15-.2-.1-.35-.2-5.55-3.25-11-6.6-5.45-3.4-10.75-6.9m5.05-166.55q-2.45-1.35-5.45-2.25-3.05-.95-5.9-.5-.6-.15-1.35-.1l-.95.1q-12.9 1.6-16.75 9.25-3.85 7.6-1.8 18.25 2.1 10.7 7 21.55 1.15 5.6 3.5 11.8 2.3 6.25 5.45 12.65-7.85-4.6-16.8-5.1-8.9-.5-13.6 9.6l-.15.55q-.15.5-.35.9-.35 1.1-.65 2.5l-.35 1.7q-1.25 7.25-.6 15.1.65 7.9 3.05 15.1.55 2.35 1.2 4.75.7 2.4 1.5 4.85l2.55 1.7q1.3.9 2.55 1.75 1.9 1.3 3.85 2.6l5.05 3.45q2.25 1.5 4.5 3.05l4.55 3.05 7.6 5.1 7.6 5.1v.05l5.15 3.4q4.8 3.25 9.65 6.45 4.85 3.2 9.65 6.4 11.25 7.4 22.55 14.75 11.25 7.3 22.6 14.45 4.85 2.65 9.5 5.35 4.65 2.7 9.05 5.45 10.45 6.4 21.45 12.7 11 6.25 20.75 13.2.35.25.65.5l.7.5q3.6 2.1 7.25 4.15 3.6 2.05 7.25 4.1 12.35 6.7 24.7 13.2Q862 426 874.35 432.3q27.35 14 54.25 24.4 26.85 10.4 55 18.75 2.3-.1 4.6-.15 2.3-.05 4.65-.15-7.6-5.55-15.1-11.15-7.45-5.6-14.8-11.3-62.25-48.05-116.65-100.1-54.4-52.05-101.35-107.1-12.1-14.2-23.75-28.5-11.6-14.35-22.75-28.85-3.8-4.95-7.55-9.9t-7.45-9.95z" id="a"/><path fill="#a6ce38" d="M1347.85 394.9l-2.35-1.95-6.25-.1q-7.3 2.2-14.3 4.2-7 2-13.35 3.35-.3.05-.55.1l-.6.1q-81.6 22.4-169.2 31.25-87.6 8.85-178.4 7.8-40.75 1.6-81.8 1.55-41.05-.05-82.05-2.25-6.1-.35-12.15-.7-6.1-.4-12.15-.85-2.55-.2-5.15-.4l-5.2-.4q-7.95-.65-16.1-1.4-8.15-.8-16.4-1.75-2.6.5-5.5 1.65t-4.25 3.25q-.5.2-.85.65l-.45.6q-5.75 8.05-1.3 14.65 4.4 6.6 14.8 11.75 10.35 5.15 22.4 8.85 5.5 2.7 12.2 5.1 6.7 2.4 14 4.5-1.35.5-3.15 1.3-1.75.8-3.15 1.7-1 .6-1.95 1.15l-1.8 1.2q-.1.25-.4.4l-.35.2q-5.6 6.15-.9 12.55 4.7 6.45 14.65 12.1 14.65 11.2 40.3 18.65 25.7 7.5 52.65 11.9 27 4.4 45.5 6.45 8.05.95 15.8 1.55 7.75.6 15.25.9-.7 3.35.35 6.95 1.1 3.6 3.5 7.4.85 1.4 1.9 2.75 1 1.35 2.1 2.65 12.65 9.7 30.9 14.2 18.2 4.5 37.5 6.1 19.35 1.6 35.3 2.6 0 1.25.45 2.45.5 1.2 1 2.05 8.65 12.5 23.3 17.4 14.65 4.9 30.25 5.25 17.15.75 35.7-.75 18.5-1.5 37.5-4.8 3.65-1.35 7.3-2.65 3.6-1.35 7.25-2.7 12.65-4.8 25.1-9.75 12.4-4.95 24.55-9.95 5.05-2.1 10.05-4.2 5-2.05 9.95-4.15 1.6-.65 3.15-1.3 1.55-.7 3.15-1.35 4.5-1.95 9.05-4.05 4.55-2.05 9.1-4.2 10.5-4.95 20.75-10.35 10.25-5.4 20.05-11.2 1.4-.8 2.7-1.65l2.7-1.6.3-.2.3-.2-.1-.3q-.05-.15-.15-.25-.15-.1-.35-.2-.15-.1-.35-.15-1.25-4.15-2.6-8.05-1.35-3.9-1.75-5.45-7.8-28.7-18.55-57.2-10.75-28.5-19.5-57.3-.15-.5-.35-1.55-.2-1.05-.6-2.4 8.85-2.95 16.9-6.25 8.05-3.35 15.2-7l7.35-4.7 2.15-3.55M796.3 497.5l-.5-.3q-.2-.15-.45-.3.05-.2.1-.35l.1-.4q.2.35.35.7.2.3.4.65m-19.35 4.9q.05.15.05.3-1.05-1-1.8-2.05-.75-1-1.15-2.05.6.9 1.3 1.75l1.5 1.7q.05.15.1.35z" id="b"/><path fill="#a6ce38" d="M793 728.5l11.5 6.7q11.3 6.35 30.65 14.8 19.35 8.4 43.85 15l10.25-22.7q9.2-21.4 21.05-49.5 11.85-28.05 20.8-49.35l9.4-22.45-25.4-11.05L793 728.5z" id="c"/><path fill="#a6ce38" d="M1126.45 316.6L1108 333.45q-14.65 14.1-33.35 32.25-18.65 18.15-34.45 33.25l-21.7 19.8-8.05 10.4-12.75 20.6q-15.1 25.65-35.4 58.2-20.25 32.5-41.55 58.35-21.3 25.85-39.45 31.45-17.95 5.3-28.25 17.8-10.35 12.55-10.6 22.95-.3 10.4 11.85 9.2l15.85-6.4 10.7-7.15 12.55-9.8q14.75-11.35 52.2-26.75 37.4-15.35 80.1-32.95 42.65-17.65 73.1-35.85 47.5-29.5 74.95-54.9 27.45-25.4 41.6-51.7 14.15-26.35 21.75-58.6 5.1-24.15-9.25-35.75-14.4-11.55-36.8-14.45-22.45-2.9-41.45-1.1l-15.3 1.95-7.85 2.35z" id="d"/><path fill="#a6ce38" d="M1037.75 310.3q-28.5-9.5-51.15-7.95-22.7 1.55-28.75 13.2-5.15 11.9-9.05 29.15-3.95 17.3-7.2 35.75t-6.4 34q-.95 11.1 24.45 14.2 25.4 3.15 59.95 1.7 34.55-1.45 61.15-4l28-2.85-4.85-21.15q-4.55-19.6-9.1-39.35l-5.05-21.65q-23.5-21.55-52-31.05z" id="e"/><path fill="#a6ce38" d="M1012.35 269.55q-15.25 1.75-24.45 7.2-9.2 5.5-13.5 10.45-4.35 4.65-9.75 13.8t-9.85 19.5q-4.45 10.35-5.9 18.45-.9 7.85 8.25 17.3 9.1 9.5 24.1 16.95 14.95 7.45 31.55 9.2 16.7 1.25 34-2.55 17.35-3.85 30.2-10.35 12.85-6.5 16.1-13.25-.1-7.45-4.95-25.25-4.8-17.75-14.3-34.75-9.55-17-23.7-22.1-22.55-6.3-37.8-4.6z" id="f"/><path fill="#a6ce38" d="M1099.4 333.3q11.45-10.2 19.2-22.3l-3.55-2.1-10.1-4.2q-13.4-5.25-36.75-7.1l2.95 10.5q3.05 9.8 6.7 21.3 3.65 11.5 5.55 17.3l16-13.4z" id="g"/><path fill="#0083CB" d="M1035.4 302.25l-1.9-1-2-.6-2.15-.2-2.1.2-2 .6-1.9 1-1.6 1.35-1.35 1.65-1 1.85-.65 2.05-.2 2.1.2 2.1.65 2.05 1 1.85 1.35 1.65 1.6 1.35 1.9 1 2 .6 2.1.2 2.15-.2 2-.6 1.9-1 1.6-1.35 1.35-1.65 1-1.85.65-2.05.2-2.1-.2-2.1-.65-2.05-1-1.85-1.35-1.65-1.6-1.35z" id="h"/><path fill="#a6ce38" d="M1040.4 290.7q-3.7-5.25-11.25-5.6-8.85.45-13.2 7-4.3 6.5-5.15 14.65l35.45.25-1.05-5.7q-1.1-5.3-4.8-10.6z" id="i"/><path fill="#FFF" d="M1366.55 410.85l2.65-5.9 1.35-4.45.1-3.05-1.1-1.65.55 1.65-2.3 1.2-12.85.85q-18.45-.1-47.2-2.85-28.75-2.8-55.75-7.15-27-4.35-40.25-9.1-10.45-4.15-23.35-13.4-12.95-9.25-26.25-21.35-13.35-12.05-25.15-24.7-11.75-12.6-20-23.45-5.2-6.85-12.95-17.6-7.8-10.75-16-22.45-8.15-11.75-14.7-21.6-6.5-9.85-9.25-14.95l-11 160.15q3.2 1.45 8.6 8 5.45 6.6 11.4 14.75t10.8 14.3q13.45 17 30.75 37.3 17.25 20.3 36.7 39.5 19.45 19.25 39.5 33.05 20 13.8 39 17.8 19.15 3.5 33.6-1.4 14.45-4.9 25.5-15.75t20.05-25.25q5.9-9.05 17.1-25.9 11.2-16.85 22.6-35.1 11.4-18.25 17.85-31.5z" id="j"/><path fill="#0081c6" d="M1013.75 218.25q-.65 0-1.25-.05-.8-.1-1.6-.25t-1.6-.35q-1.4-.3-2.75-.3-1.4.05-2.85-.05h-.4l-.8-.1q-.9-.1-1.7-.2v.9l.05.55.3 6.5q.15 3.3.1 6.55-.05 4.7.5 9.55.55 4.85 1 9.6.95 12.5 1.65 25.05t1.65 25.05q1.1 14.8 1.65 29.6.5 14.8 1.15 29.65.6 14.8 1.85 29.55.25 2.85.55 6.15.35 3.25 1.2 5.95.15.35.25.65.15.35.25.65l.55.95q.4.7.8 1.25.4.5 1.05.8.65.3 1.2.15 1-.4 1.3-1.3.3-.85.3-1.9v-1.9q.25-13.5 0-27.05t-.65-27q-.25-6.45-.25-12.75-.05-6.3.35-12.75.35-4.9.85-9.8t1.05-9.75l.15-1.35q.15-1 .25-1.9 0 .45.05.95v.65q.2 4.9.65 9.7.45 4.85.6 9.8.1 6.35.1 12.8.05 6.4.5 12.8t1.85 12.65q.4 1.7.65 3.1.25 1.35.25 3.15 0 1.4-.05 2.9 0 1.5.3 2.9l.3 1.25.35.6.35-.1.35-.85q0 .4.05.9v.65q.15 6.55.2 12.95.1 6.4.55 12.95.15 2.35.35 4.75.15 2.4 1.05 4.6l.35.65q.25.45.55.8.45-.3.9-.7l.5-.6q1.2-1.75 1.35-4.35.1-2.6-.25-5.3-.35-2.7-.5-4.7-.35-5.25-.35-10.65 0-5.35-.05-10.65-.2-13-.75-25.95-.5-12.95-1.7-25.9-.2-2.4-.5-4.75-.25-2.4-.4-4.8-.55-8.25-1.1-16.45-.6-8.2-1.05-16.45-.7-11.4-1.8-22.85-1.15-11.5-2.35-22.85-.25-2.3-.55-4.6-.3-2.3-.65-4.6-.05-.7-.2-1.6-.1-.85-.45-1.5l-.25-.35-.2-.1-.7-.15-1.6-.5q-.8-.3-1.6-.45-.6-.1-1.25-.1z" id="k"/><path fill="#FFF" d="M1015.05 223.8l-.7.1-3.4.4q-1.7.25-3.4.45-.45.05-.85.1l-1.9.2q-.8.1-1.5.2 0 .45.05 1.05l.05.7q3.45 50.7 6.3 101.5 2.8 50.85 4.4 101.7 1.6 50.85 1.45 101.7-.25 51.25-2.8 102.5-2.6 51.2-6.65 102.25l-2.9 36.9-2.8 36.9-.1 1.3q-.1 1.05-.15 1.9-.05.45-.1.95v.4l-.05.25-.1 1.6q-.1.8-.15 1.6 0 .4-.05.85-.05.45-.05.85l-.1 1.25q-.1.95-.15 1.75h1.45l.2-.05q3.35-.1 6.7-.15l6.7-.2q.4 0 .85.05.45 0 .8-.05l.5-.1h.25l.05.05v-.25l.1-.6q.3-1.4.35-3.3.05-1.9.15-3.4 3.45-47.4 6.6-94.85 3.1-47.4 5.05-94.95 2.45-65.45 1.2-130.85-1.25-65.4-4.95-130.75t-8.65-130.65q-.1-1.7-.25-3.4-.1-1.75-.25-3.45l-.05-1.05q-.1-.8-.15-1.5-.45.05-1 .1z" id="l"/><path fill="#FFF" d="M1093.3 494.05q-10.65-14-24.1-27.15-13.45-13.15-27.2-21.2-13.7-8.05-25.25-6.8-14.25 2.2-21.4 8.35-7.2 6.15-9.6 14.3-2.4 8.15-2.2 16.45.15 8.25.6 14.7l2.15 16.4 5.1 27.3q6.6 32.75 15.7 74.4 9.1 41.6 17.3 79.25 8.2 37.65 12.15 58.4l2.55 2.15 4.95 2.75q6.15 3.05 15.3 5.5 9.2 2.4 19.65 2.35 14.9-.4 23.45-2.9 8.6-2.55 12.2-5.25l2.75-2.35.95-1.5q10-49.1 11.6-88.35 1.6-39.2-2-68.25-3.55-29.05-9-47.6-5.5-18.55-9.6-26.25-5.4-10.7-16.05-24.7z" id="m"/><path fill="#FFF" d="M656.95 766.95l-8.05-.8q-1.6 0-2.6 1.1-1.05 1.1-1.1 2.55-.05 1.5 1.3 2.7l2.6 1.4 5.45 2.2q6.9 2.6 18.4 4.6 11.45 2 26.2 1.2 14.7-.75 31.5-6.45 11.65-4.35 21.95-12.65 10.35-8.3 18.3-17.35 8-9.05 12.6-15.55l4.8-7.25-1.05-1.4-2.9-2.8q-3.8-3.5-8.4-7.55-4.65-4-7.35-6.3-2.1 3.35-7.35 10.9Q756 723 748.5 732q-7.45 9.05-16.15 16.9-8.75 7.85-17.75 11.9-9.9 4.1-20.75 5.6-10.85 1.45-20.6 1.35-9.7-.15-16.3-.8z" id="n"/><path fill="#0081c6" d="M990.1 184.1l-.85-.4q-5.1-1.7-9.75-2.45-4.7-.7-9.55-1.05-4.55-.35-9.15.05-4.65.35-9.45 1.15-.45.05-.85.15-.4.15-.75.3-1.15.25-2.2.9l-.8.55-.3.25q-2.7 2.15-5.1 4.75l-4.7 5.1q-3.9 4.15-7.55 8.45l-7.2 8.6q-1.05 1.35-.7 2.55.4 1.2 1.65 1.4 1.25.15 2.8-1.45l.75-.85q.35-.4.75-.85.15 1 1.1 1.8 1 .85 1.9 1.35-1.75.6-2.05 1.7-.25 1.15.75 2 1 .8 3.1.5 4-.75 8.05-1.4 4.05-.65 8.05-1.4 4.6-.85 9.15-1.85 4.5-.95 9.05-1.95.4-.05.7-.2l.6-.3q.45-.1 1-.35.5-.2 1.1-.65 2.7-1.8 5.45-3.95 2.75-2.2 5.25-4.4 3.4-3 6.35-6.35 2.95-3.3 6.15-6.55.95-.95 1-2 .05-1.1-1.15-1.95l-.45-.15-.55-.35q-.25-.15-.4-.2-.55-.2-1.2-.5z" id="o"/><path fill="#FFF" d="M985.85 192.35l2.2-3.4.8-2.05q-4.05-2.1-9.95-3-5.95-.85-12.2-.85-6.25.05-11.25.7-5.05.65-7.3 1.6-1.85 1.05-5.6 4.95-3.75 3.9-7.8 8.65-4.1 4.75-7 8.2l-3.05 3.65 2 1.35q1.85 1.2 3.85 2.4l1.6.9.85.3q11.4-1.85 18.85-3.15 7.4-1.3 12.05-2.6 4.65-1.25 7.75-3 3.35-2.05 7.35-6.3 3.95-4.3 6.85-8.35z" id="p"/><path fill="#FFF" d="M743.95 723.9l2.15 27.15q2.05 25.8 4.75 59.75 2.65 33.95 4.75 59.8l2.2 27.3q3.95 7.25 20.65 10.8 16.7 3.55 37.9 3.45 21.25-.15 38.8-3.95 17.6-3.8 23.3-11.25l3.35-23.35q3.1-22.15 7.15-51.25 4.1-29.1 7.2-51.25l3.35-23.45q-9.85-10-28.9-17.35-19.05-7.35-42.25-11.05-23.25-3.7-45.6-2.8-22.35.9-38.8 7.45z" id="q"/><path fill="#0083CB" d="M943.65 840.8q-1.05-2.05-1.45-3.45-.75-2.75-1.15-5.5-.35-2.8-.9-5.5l-.5-1.5-.55-.4q-.6.1-1.05 1.35-.4 1.2-.4 2.45.15 3.15 1.1 7.5.95 4.35 3.1 7.95 2.1 3.6 5.8 4.45 3.45.45 5.8-2.6 2.35-3 3.65-7.05 1.3-4.05 1.65-6.75.15-1 .2-2.9.05-1.9-.25-3.6-.3-1.75-1.25-2.3l-.2-.05q-.15 0-.2.05-.35.35-.45.85l-.15.7q-.25 1.9-.3 3.9 0 2-.35 3.95-.3 1.7-1.15 4.5-.85 2.8-2.15 5.3-1.3 2.45-3 3.1-1.75.45-3.3-.95-1.5-1.45-2.55-3.5z" id="r"/><path fill="#FFF" d="M803.6 759.1l4.75 21.7q4.5 20.6 10.5 47.7 5.95 27.1 10.55 47.75l4.9 21.75q6.05 4.2 22.45 7.3 16.4 3.1 36.25 3.95 19.85.9 36.4-1.55 16.5-2.5 22.85-9.4 2.05-28.3 1.35-56.85-.65-28.6-2.55-52.65-1.95-24.05-3.65-38.75l-1.7-15.3q-19.15-5.55-37.35-5.35-18.25.15-35.8 4.4-17.55 4.25-34.75 11-17.15 6.75-34.2 14.3z" id="s"/><path fill="#0083CB" d="M943.35 838.65q-1.2-2.6-1.95-5.7-.8-3.05-1.8-5.85l-.4-.7-.3-.15q-.3.15-.45.85-.15.7-.15 1.4.2 3.1 1.2 6.95 1 3.8 2.75 6.95 1.7 3.15 4.05 4.3 4 1.55 6.85-1.1 2.85-2.65 4.45-7.45 1.6-4.75 1.75-9.5v-1.7q-.05-1-.25-1.8-.25-.75-.7-.7-.15.3-.3.65l-.15.5q-.6 2-.85 4.2-.3 2.15-.8 4.3-1.15 4.45-3.3 7.15t-4.75 2.35q-2.55-.35-4.9-4.95z" id="t"/><path fill="#0081c6" d="M945.25 654.15q-7.2 17.5-12.4 35.65-5.15 18.15-8.3 38.65-1.9 11.6-2.9 22.15-1 10.55.05 21.25t5.25 22.8l.65 1.7q.45 1.25 1 2.8.6 1.55 1.1 2.95-1.05.45-2.05.9l-2 .9-1.85.8q-1.45.65-2.5 1.3 1.7.2 3.85-.25 2.2-.5 4-1.1l2.45-.8q27.6-7.55 52.15-15.95 24.55-8.45 44.95-20.65 20.4-12.25 35.55-31.3 15.1-19 23.85-47.85 6.65-22.05 9-44.65 2.35-22.65-.95-45.55t-13.6-45.75q-4.95-11.05-10.2-22-5.25-11-11.4-21.35 8.75-5.5 18.15-10 9.4-4.45 19.55-7.65.5-.15 1.7-.5 1.2-.4 2.4-1 1.2-.65 1.65-1.65-1.3-.55-2.6-.35-1.3.2-2.6.25-1.6.25-3.5.7-1.9.45-3.45.85l-2 .55q-8.1 2.75-15.95 6.6-7.9 3.85-15.5 8.7v-.05l-.5-.85q-.4-.7-1-1.1-.2-.2-.4-.25-.25-.05-.45 0 .25.65.55 1.35.35.75.7 1.55-20.75 13.6-38.9 32.35t-32.65 39.5q-14.5 20.8-24.3 40.45-9.35 18.45-16.6 35.9m-188.55-25.7l-.15-1.2q-.1-.9-.6-1.6-.1-.15-.1-.3t-.05-.3q-.25.75.1 2.6.35 1.8.75 3.45l.5 1.8q.35 1.75.65 3.55.3 1.75.55 3.5-.15-.1-.25-.15-.15-.1-.25-.2-.75-.35-1.65-.3-.95.1-1 1.05.35.8.85 1.65.55.85 1.2 1.75 0 1.5.2 2.9l.25 1.85q.5 4.2 1.1 7.9.65 3.7.85 7.85.05.85.1 3.15 0 2.3.15 4.7.15 2.4.45 3.65.05 1.25.1 2.25l.05 1.3q.6 8.8-.2 17.15-.75 8.4-1.9 16.65-.45 2.5-.8 5.05-.3 2.6-.3 5.5-.65 7.25-.25 14.65.35 7.45 2.45 15.25.3 1.1 1.15 3.25.9 2.2 2.15 4.9 2.65 7.4 7.3 13.95 4.65 6.6 11.1 11.7.35.3 1.15.9.8.6 1.8 1.1 1 .5 1.95.5-.45-1.05-1.45-2.15-1-1.15-1.9-2.05l-1.3-1.2q-.95-.95-1.8-1.95-.9-.95-1.7-1.85 1.2-1 2.55-2.5 1.3-1.55 2.35-2.85 1.05-1.35 1.45-1.9 6.05-8.75 9.75-14.7 3.65-5.9 5.3-11.4t1.6-12.85q0-7.35-1.25-18.95-1.2-12.6-4-22.7t-8.15-19.25q-5.4-9.1-14.3-18.85-3.35-3.65-6.75-7.25-3.45-3.6-7-6.9l-.1-.05q-.75-3.2-1.45-6.25-.7-3.1-1.25-5.8z" id="u"/><path fill="#FFF" d="M747.9 407.05l-8.1 1.05q-7.65 1.2-17.15 5.7-9.55 4.5-15.6 14.2-6.05 9.75-3.35 26.65 1.65 8.35 6.9 25.9 5.25 17.55 12.5 39.9 7.2 22.35 14.85 45.1 7.65 22.8 14.05 41.7 1.65 5 3.75 15.45 2.05 10.5 4 23.55 1.9 13.1 3.05 25.9 1.15 12.8.95 22.55-.25 6.1-1.25 15.65-1.05 9.5-1.55 20.9-.55 11.4.7 23.1 1.2 11.7 5.35 22.15 6.7 14 30.1 19.4 23.45 5.4 54.15 4.95 30.75-.45 59.4-4t45.9-7.45q18.8-4.05 38.6-11.95 19.75-7.95 37.45-20.6 17.65-12.65 30.15-31 14.1-21.45 21.75-47.3 7.6-25.85 8.3-53.25.7-27.45-6-53.6-6.35-23.35-17.35-44.55-11.05-21.2-22.75-37.95-11.75-16.7-20.25-26.65l-9.75-10.9-43.05-7.85q-40.05-6.7-92.3-15.2t-91.8-14.85l-41.65-6.7z" id="v"/><path fill="#0081c6" d="M1162.4 196.4q-2.35-.6-5.15.05-.25.05-.85.2-.65.1-1 .55-1.35 1-2.9 2.45-1.55 1.5-2.75 2.75l-1.45 1.7q-5.55 8.65-10.45 16.8-4.9 8.2-10.05 16.1-1.65 1.8-3 3.85-1.4 2.05-2.6 4.25-2.7 3.7-5.7 7.35-3 3.7-6.4 7.4-4.5 5.05-9.15 10.9-4.7 5.85-9.9 11l-.7.45-.7.4-.25.1q-4.2 2.25-8 4.55-3.75 2.3-7.9 3.5-4.15 1.2-9.5.2-3.55-.8-6.7-3.4-3.1-2.6-5.7-6.35-2.6-3.75-4.55-8v-1.3q-.05-.6-.05-.8-.35-3.15-1.1-6.1-.75-2.95-1.55-5.85-.3-2.95-.55-5.6-.25-2.7-.6-4.85-.3-1.75-.55-3.4-.25-1.6-.9-3.2-.55-1.7-1.5-3.1-1-1.45-2.55-2.4l-.45-.45q-.2-.15-.35-.25-3.9-2.15-9.7.1-5.8 2.2-11.95 6.2-6.1 4-11 7.15-1.05.5-1.9.95l-1.15.65q-.25.1-.45.2l-.4.2q-7.75.65-14.45-1.9-6.65-2.5-13.1-7.55-6.45-5-13.55-11.7-6.7-6.3-14.85-11.5-8.15-5.15-17.1-7.9-8.95-2.75-18-1.75-1.35.1-3.2.05-1.9-.05-3.6.2-5.55.05-10.85.65-5.35.6-10.25 1.75-5.1 1.25-10.7 3.4-5.65 2.2-11.15 4.75t-10.2 4.9q-4.9 2.45-10.9 6.95-6.05 4.45-11.6 9.9t-9.05 10.85q-.85.9-1.5 1.7-.65.8-.95 1.2-2.3 3.15-4.45 8.7-2.15 5.6-3.95 12.65-2.35 5.55-3.55 10.75-1.2 5.2-.7 11.05-1.1 8.55-1.1 15.65 0 7.15 1.4 11.45 1.8 4.65 7.1 10.45 5.3 5.85 11.3 11.45 6 5.65 9.9 9.6 7.5 8.25 12.7 14.05 5.15 5.85 11.55 10 6.35 4.2 17.55 7.45 12.25 3.6 24 6.35 11.8 2.75 23.75 4.4 11.9 1.65 24.6 1.85 6.45 0 13.1.3 6.6.2 13.1 1.4 6.45 1.15 12.5 3.95 6 2.75 11.25 4.4 5.25 1.65 10.4 3.85 5.2 2.25 10.9 6.55 2 1.55 5.5 3.95 3.45 2.45 7.8 5.2 4.3 2.8 8.85 5.35-5.25 5-10.2 10.65-4.95 5.7-8.1 11.3-3.15 5.6-3 10.25.05.6.15 1.2.1.6.3 1.15.35.8.75 1.55t.85 1.45q.2.3.45.6l.5.5-.3-.05q.3.5.7 1 .35.5.75.95 6.85.9 13.25.6 6.35-.25 12.75-1.3 6.4-1 13.25-2.4 6.3-.7 12.7-1.85 6.45-1.2 12.9-2.95.95-.2 1.9-.5 1-.25 2-.55 17.25-4.95 33.15-14.3 15.9-9.3 28.4-23.8 12.5-14.5 19.65-34.95 1.15-3.3 2.65-7.8 1.55-4.55 2.9-9.55 1.4-5 2.1-9.75 2.05-9.8 3.4-19.6 1.3-9.8 2.1-19.15.65-7.1 1.4-13.1.8-6 1.15-12.15.4-6.1-.15-13.55-.55-8.3-.75-15.85-.25-7.55-.6-14.9-.35-7.35-1.45-15-.35-4.05-.95-8.05-.65-3.95-1.65-7.8-1.15-4.45-3.05-10.35-1.9-5.85-4.9-11.2-2.95-5.4-7.25-8.25-1.85-1.65-4.2-2.25m-140.65 44.55l.1-.05v.05h-.1m-37 11.1l-.4-.15-.15-.1q.11.07.2.1.2.05.35.15z" id="w"/><path fill="#FFF" d="M1122.8 255.7q-12.8 17.7-28.05 29.6-15.25 11.9-30.8 9.35-8.3-2-13.3-8.85-4.95-6.8-7.45-15.35-2.45-8.5-3.25-15.75-.75-7.2-.75-10-.1-2.8-1.95-4.65-1.8-1.85-4.5-2.15-2.75-.3-5.5 1.7-4.35 3.3-10.4 7.4-6.1 4.05-13.1 6.85-6.95 2.75-14 2.2-3.45-.5-8.85-4.25-5.45-3.75-11.9-9.25-6.45-5.45-12.9-11.05-6.45-5.65-11.95-9.85-4.35-3.5-15.35-6.45-11-3-27.4-2.25-16.45.75-37.2 8.4-14.4 5.75-23.85 12.85-9.45 7.1-14.4 12.95l-3.95 4.8-1.85 2.85q-3.9 7.5-10.1 24.3-6.15 16.8-12.5 35.55-6.35 18.75-10.65 32.1l-4.5 13.95 2.3 7q2.15 6.55 8.1 17 5.9 10.4 17.45 22.55 11.5 12.15 30.5 23.85 23.6 13.95 47.2 22.7t43.5 13.25q19.9 4.5 32.5 5.75 38.15 4.1 68.2 2 30-2.05 51.95-9.05 21.95-7 35.85-17.7 18.65-14.25 31.8-34.95 13.2-20.7 20.3-46.1 7.1-25.35 7.6-53.75.4-33.9-1.65-56.3-2.05-22.35-4.55-34.35l-3.4-14.8q-1.5-5.4-5-7.1-3.5-1.7-6.95-.55t-4.9 4.4l-9.45 18.5q-8.2 14.95-20.95 32.65z" id="x"/><path fill="#0081c6" d="M876.15 165.9q-2.85 1.8-5.3 3.8-2.45 2-4.3 4.2-2.55 2.3-4.6 4.7-2 2.4-3.3 4.85-1.65 3.25-2.5 8.15-.8 4.9-1.15 9.95-.3 5.05-.35 8.75-.05 2.05 0 4.1 0 2.05.05 4.05l.2-.1q.15 0 .25-.05l.1-.05q.35-.1.75-.2.35-.15.7-.25.5-.1.9-.2t.65-.15l.65-.15q.55-.15 1-.2.35-.05.8-.05l.55.05q1.35.15 2.6-.05 1.3-.2 2.7-.25.5.05.9.1.45.05.8.15l.2.05q.3.1.5.2.25.15.45.25.1.1.2.15l.15.15q4.4-1.45 8.85-2.55 4.5-1.1 9.05-1.7l-.25.35q-.45.75-.55 1.15-.1.4.25.6l-.4.4-.4.4-.7.85-.1.5q.1.35.9.1.75-.3 1.65-1.15.75-.8 1.5-1.7.75-.85 1.55-1.85h.05q.1-.15.15-.25.1-.15.2-.25.05-.05.1-.15.1-.15.25-.25l-.05-.05q1.25-1.6 2.45-3.4 1.2-1.75 2.3-3.6 1.25-1.8 2.25-3.7 1-1.95 1.65-3.85.05-.2.15-.4.1-.2.15-.4.05-.15.15-.3.05-.15.05-.2 1.9-3.4 2.95-7.65 1.1-4.2 1.5-8.6.6-3.25.9-6.95.35-3.75.2-7.3-.2-3.5-.95-6.25-.15-.5-.5-1.35-.3-.8-.7-1.35-.05-.1-.15-.15l-.1-.2q-.35-.55-1-.75-.7-.15-1.3-.15l-.65.05q-3.85.35-8.35 1.7-4.5 1.4-8.85 3.55-4.35 2.2-7.8 4.85M865 176.25l.6-.6q.3-.3.65-.6l-.45.45-.5.5-.3.25m7.15 39.7q-.25.05-.5.15.2-.15.45-.3l.4-.3.1.25h.1q-.3.1-.55.2m-11.4-34.65l-.05.15q-.15.25-.3.45-.175.175-.3.4.125-.237.3-.5.15-.25.35-.5m38.75-24.7h-.25l.35-.05-.1.05m.05 40.45l.1-.3.05.05q-.05.15-.15.25m-8.05 6.9q.6-.25 1.35-.55.7-.25 1.5-.55l-1 1.4q-.25.35.15.3-.4.6-.9 1.2-.5.55-1.2 1.15l-1.1 1.3q-.9 1.1-1.75 2.15l-.85 1.2.05.15q0 .1.05.2.15.1.3.15.15.05.35.05-.25.05-.45.1h-.25q-2.9.5-6.1 1.25-3.25.7-6.6 1.65.25-.1.4-.2l.2-.1q2.05-1.05 3.55-2.35 1.5-1.35 3.6-2.45 1.9-.9 4.4-1.9 2.45-1.05 4.15-2.05l.55-.5v-.25q-.3-.15-.55-.6 0-.1.05-.35.1-.2.1-.4m-36.2 9.8q-.037.375-.05.75v-.75-1.05l.05.1v.95z" id="y"/><path fill="#FFF" d="M889.05 162.7q-6.85 3.55-13.1 8.35-6.25 4.75-10.7 9.3-4.45 4.55-5.8 7.35-.9 2.55-1.35 9.55-.45 7-.6 15.1-.15 8.05-.15 13.9v6.1l2.8-.25q2.65-.25 6.15-.65 3.5-.4 6.25-.8l2.2-.4.95-.3q8.7-11.05 13.9-18.95 5.15-7.95 7.6-13.05 2.4-5.1 2.9-7.65.45-2.15 1.05-6.9.65-4.75 1.1-10.2.45-5.45.5-9.65l-.2-3.4-.55-1.8q-6.15.8-12.95 4.35z" id="z"/><path fill="#0081c6" d="M968.5 520.65l-.7 1.5q-.6 1.4-1.2 3.3l-.9 2.3q-.45 1.1-.85 2.15-.3.6-.55 1.2-.25.6-.4 1.15-.15.4-.3.75-.1.4-.25.75-.05.1-.15.35-.1.25-.25.6-.6.9-1.35 2.2-.75 1.35-1.3 2.45-.15.6 0 1.05.15.5.7.75.95-.05 1.35-.9.4-.9.65-1.45l.05-.05q.4.25.5 0l.2-.45.5-.65q2.85-3.2 5.85-6.6 2.95-3.35 5.3-6.85 1.85-2.8 4.85-6.65 2.95-3.85 6.7-8.25 3.7-4.35 7.75-8.65 1.3-1.2 2.7-2.4 1.35-1.2 2.85-2.45l2.7-2.45q2.55-2.3 6.1-5 3.6-2.65 6.9-4.05.3-.05.65-.2.3-.1.65-.2.9-.2 1.65-.2.75.05 1.35.35.2-.3.3-.6.1-.3.05-.6.15.05.25.1.1.1.2.15.4-1.35-.55-2.15-.95-.75-2.35-.75-1.1 0-2.4.35-1.25.4-2.75 1.05-5.45 2.4-11.4 6.95-5.95 4.55-11.8 10.3-5.8 5.75-10.8 11.65-.05-.25-.1-.45-.1-.2-.2-.35-.15 0-.35.15l-.2.2q2.1-6.1 5-12.15 2.9-6.1 7.5-12.3.6-.75 1.25-1.55t1.35-1.6q.75-.8 2.4-2.6t3.1-3.85q1.45-2 1.5-3.5-.35-.3-.85-.05t-.8.5q-6.95 4.65-12.85 13.45-5.85 8.8-10.3 18.2-4.45 9.45-6.95 16.05z" id="A"/><path fill="#FFF" d="M986.25 295.45q-2.35-6.75-7.9-11.65-5.5-4.95-15.3-6.75-9.95-1.5-16.9 1.55-7 3.1-11.65 8.85-4.65 5.8-7.5 12.35-2.85 6.5-4.55 11.9 8.9 1 20.1 2.9 11.2 1.85 23 4.1 11.75 2.2 22.35 4.35.95-6.45.8-13.65-.15-7.25-2.45-13.95z" id="B"/><path fill="#0081c6" d="M821.75 510.45l.1-1.7-19.15-13.2-11.65-6.85-9.75-4.7-10.25-3.55H771l-10.7-2.25-10.95-1-11 .55-10.8 2.45-5.2 2.05-7.3 4-4.4 3.3h-.05l-5.95 5.5-3.55 4.2-2.9 4.65-2.3 4.95-3.85 12.85-4 15.35v.05l-5 30.05-3.15 52.4-.45 24.8 1.7 24.7 5.25 46.3v.05l2 12.65 4.3 17.55 3 7.35 1.4 2.2 2.1 2.25 2.25 1.8 7.3 4.2 10.25 4.05 13.3 3.55 10.85 1.65 8.35.4 5.4-.5 12.95-3.5L787 761.6l6.95-4.1 4.4-3.45 1.7-2.2v-.15l.25-.35.65-2.7 4.25-30.3 16.6-146.45 2.45-50.45-.95-10.5-1.55-.5z" id="C"/><path fill="#FFF" d="M820.1 480.65q-3.35-8.55-10-16.35-6.65-7.85-16.95-13.5-10.35-5.7-24.75-7.85-11.35-1.5-21.6 1.4-10.25 2.9-18.55 8.6-8.35 5.7-14.05 12.7-5.7 7-8 13.8L700.85 500l-2.55 11.45q-5.35 25.1-9.4 63.1-4 38-2.4 83.45t13.1 92.9l1.55 1.85 4.25 3.25q5.55 3.95 16 7.6 10.5 3.65 25.5 4.1 14.2 0 24.15-3.65 10-3.65 15.65-7.95l4.55-3.7 2.35-2.55q3.25-21.15 8.45-58.4 5.15-37.3 10.35-78.2 5.2-40.95 8.5-73.1l2.4-26.85.55-16.25q-.4-7.85-3.75-16.4z" id="D"/></defs><use xlink:href="#a" transform="matrix(-.14151 .0138 -.00818 -.13728 1306.95 751.5)"/><use xlink:href="#b" transform="matrix(-.1226 -.06409 .07112 -.1222 1291.9 830.4)"/><use xlink:href="#c" transform="matrix(.04387 -.13908 .15103 .05614 1055.4 781.8)"/><use xlink:href="#d" transform="matrix(-.08244 -.1276 .13469 -.08577 1209.35 868.85)"/><use xlink:href="#e" transform="matrix(-.03273 -.09749 .10051 -.0392 1149.7 804.6)"/><use xlink:href="#f" transform="matrix(-.03273 -.09749 .10051 -.0392 1149.7 804.6)"/><use xlink:href="#g" transform="matrix(-.09857 -.03127 .0382 -.10033 1238 756.75)"/><use xlink:href="#h" transform="matrix(-.03273 -.09749 .10051 -.0392 1149.7 804.6)"/><use xlink:href="#i" transform="matrix(-.03273 -.09749 .10051 -.0392 1149.7 804.6)"/><use xlink:href="#j" transform="matrix(-.17268 -.50504 -.30235 .44722 964.9 823.35)"/><use xlink:href="#k" transform="matrix(-.7844 -.64638 .48688 -.48286 1341.55 1229.7)"/><use xlink:href="#l" transform="matrix(-.7844 -.64638 .48688 -.48286 1341.55 1229.7)"/><use xlink:href="#m" transform="matrix(.35764 -.5636 -.5636 -.35764 806.85 1244.9)"/><use xlink:href="#n" transform="matrix(.66786 -.01973 .01883 .66664 275.55 257.3)"/><use xlink:href="#o" transform="matrix(.3278 -.61957 .59976 .30925 425.4 937.9)"/><use xlink:href="#p" transform="matrix(.3278 -.61957 .59976 .30925 425.4 937.9)"/><use xlink:href="#q" transform="matrix(.66505 .0626 -.18332 .65285 436.1 241.85)"/><use xlink:href="#r" transform="matrix(.62659 .14708 -.26721 .64851 481.1 171.55)"/><use xlink:href="#s" transform="matrix(.6316 -.01477 .0122 .81116 396.55 164.2)"/><use xlink:href="#t" transform="matrix(.62431 .15875 -.14629 .7564 549.6 67.5)"/><use xlink:href="#u" transform="matrix(.67726 -.00957 -.06299 .7234 328.4 229.65)"/><use xlink:href="#v" transform="matrix(.67726 -.00957 -.06299 .7234 328.4 229.65)"/><use xlink:href="#w" transform="matrix(.68149 -.15321 .11539 .65358 233.75 415.35)"/><use xlink:href="#x" transform="matrix(.68149 -.15321 .11539 .65358 233.75 415.35)"/><use xlink:href="#y" transform="matrix(.492 -.48094 .542 .42732 285.75 766.1)"/><use xlink:href="#z" transform="matrix(.492 -.48094 .542 .42732 285.75 766.1)"/><use xlink:href="#A" transform="matrix(-.4504 .34114 .22302 .54811 1254.2 -123.35)"/><use xlink:href="#B" transform="matrix(.68187 -.15178 .11826 .6643 197.25 393.9)"/><use xlink:href="#C" transform="matrix(-.62627 .39603 -.41081 -.63416 1508.35 563.5)"/><use xlink:href="#D" transform="matrix(-.62627 .39603 -.41081 -.63416 1508.35 563.5)"/></svg>