<svg xmlns="http://www.w3.org/2000/svg" xmlns:xlink="http://www.w3.org/1999/xlink" preserveAspectRatio="none" width="760" height="880" viewBox="614 10 760 880"><defs><path fill="#a6ce38" d="M737.95 398.15l-2.45-.4q-1.25-.2-2.5-.35-1.25-.2-2.5-.35 2.05 1.15 3.95 1.4 1.9.2 3.5-.3m205.2 184.65q-3 5.75-4.2 10.35.35.1.75.25.35.1.75.25 2.1.75 4.25 1.45 2.15.75 4.3 1.45.5-.95 1.1-1.85.55-.9 1.1-1.85 5.3-8.6 11.5-17.15 6.2-8.5 13.15-16.85 11.95-14.35 25.4-27.7 13.45-13.3 27.6-25h-.1l-.2-.1-.65-.15q-.3-.1-.65-.15l-.7-.2q-1.6 1-4 .9-2.4-.15-4.8-1.75l-.6-.4q-17.9 12.25-33.5 28.25-15.6 15.95-29.25 32.45-1.85 2.2-5.05 7.15-3.2 4.95-6.2 10.65m-106.3-159.6q3 1.05 6.4 1.05-3.15-1.05-6.3-2.05l-6.3-2q3.2 2 6.2 3m-153.4-254.9q-2.45-1.35-5.45-2.25-3.05-.95-5.9-.5-.6-.15-1.35-.1l-.95.1q-12.9 1.6-16.75 9.25-3.85 7.6-1.8 18.25 2.1 10.7 7 21.55 1.15 5.6 3.5 11.8 2.3 6.25 5.45 12.65-5.1-2.9-11-4.4-5.95-1.55-11.2.2-5.2 1.75-8.2 8.7l-.15.55q-.15.5-.35.9-.35 1.1-.65 2.5l-.35 1.7q-1.15 6.55-.7 13.6.45 7.1 2.3 13.85l.7 2.8q.4 1.4.8 2.7.45 1.7.95 3.4.5 1.7 1.1 3.45l1.1.75q6.5 12 16.25 20.15 9.7 8.1 19 14.8.05 1.05.2 2.2.1 1.15.3 2.35-1.05 4.55.4 10.9 1.55 6.4 3.45 11.05 1.75 4.4 4.6 8.65 2.85 4.3 6.45 8.35l1.1-.1q.55-.05 1.15-.05 1.55 0 3.25.2 1.65.2 3.4.55 1.15.25 2.3.55 1.15.3 2.35.6 4.25 1.2 8.35 2.5 4.15 1.3 7.8 2 .85.15 1.75.35l1.75.3q19.75 3.7 39.45 7.7 19.7 4 39.35 8.15 5.9 1.2 11.75 2.45 5.9 1.25 11.75 2.45.65-.25 1.25-.4.55-.1.95-.15.4-.2.95-.2l.7.05q11.65 1.3 24.55 6.05t24.2 11.15q25.8 14.3 51.9 28.4 26.15 14.1 52 29.65-3.75-2.85-7.5-5.9-3.8-3-7.55-6.25-1.6-1.4-3.15-2.8l-3.2-2.8v-.05q-62.2-48.05-116.55-100.05-54.4-52.05-101.3-107.05-12.1-14.2-23.75-28.5-11.6-14.35-22.75-28.85-3.8-4.95-7.55-9.9t-7.45-9.95z" id="a"/><path fill="#a6ce38" d="M1347.85 394.9l-2.35-1.95-6.25-.1q-7.3 2.2-14.3 4.2-7 2-13.35 3.35-.3.05-.55.1l-.6.1q-81.6 22.4-169.2 31.25-87.6 8.85-178.4 7.8-40.75 1.6-81.8 1.55-41.05-.05-82.05-2.25-6.1-.35-12.15-.7-6.1-.4-12.15-.85-2.55-.2-5.15-.4l-5.2-.4q-7.95-.65-16.1-1.4-8.15-.8-16.4-1.75-2.6.5-5.5 1.65t-4.25 3.25q-.5.2-.85.65l-.45.6q-5.75 8.05-1.3 14.65 4.4 6.6 14.8 11.75 10.35 5.15 22.4 8.85 5.5 2.7 12.2 5.1 6.7 2.4 14 4.5-1.35.5-3.15 1.3-1.75.8-3.15 1.7-1 .6-1.95 1.15l-1.8 1.2q-.1.25-.4.4l-.35.2q-5.6 6.15-.9 12.55 4.7 6.45 14.65 12.1 14.65 11.2 40.3 18.65 25.7 7.5 52.65 11.9 27 4.4 45.5 6.45 8.05.95 15.8 1.55 7.75.6 15.25.9-.7 3.35.35 6.95 1.1 3.6 3.5 7.4.85 1.4 1.9 2.75 1 1.35 2.1 2.65 12.65 9.7 30.9 14.2 18.2 4.5 37.5 6.1 19.35 1.6 35.3 2.6 0 1.25.45 2.45.5 1.2 1 2.05 8.65 12.5 23.3 17.4 14.65 4.9 30.25 5.25 17.15.75 35.7-.75 18.5-1.5 37.5-4.8 3.65-1.35 7.3-2.65 3.6-1.35 7.25-2.7 12.65-4.8 25.1-9.75 12.4-4.95 24.55-9.95 5.05-2.1 10.05-4.2 5-2.05 9.95-4.15 1.6-.65 3.15-1.3 1.55-.7 3.15-1.35 4.5-1.95 9.05-4.05 4.55-2.05 9.1-4.2 10.5-4.95 20.75-10.35 10.25-5.4 20.05-11.2 1.4-.8 2.7-1.65l2.7-1.6.3-.2.3-.2-.1-.3q-.05-.15-.15-.25-.15-.1-.35-.2-.15-.1-.35-.15-1.25-4.15-2.6-8.05-1.35-3.9-1.75-5.45-7.8-28.7-18.55-57.2-10.75-28.5-19.5-57.3-.15-.5-.35-1.55-.2-1.05-.6-2.4 8.85-2.95 16.9-6.25 8.05-3.35 15.2-7l7.35-4.7 2.15-3.55M796.3 497.5l-.5-.3q-.2-.15-.45-.3.05-.2.1-.35l.1-.4q.2.35.35.7.2.3.4.65m-19.35 4.9q.05.15.05.3-1.05-1-1.8-2.05-.75-1-1.15-2.05.6.9 1.3 1.75l1.5 1.7q.05.15.1.35z" id="b"/><path fill="#a6ce38" d="M793 728.5l11.5 6.7q11.3 6.35 30.65 14.8 19.35 8.4 43.85 15l10.25-22.7q9.2-21.4 21.05-49.5 11.85-28.05 20.8-49.35l9.4-22.45-25.4-11.05L793 728.5z" id="c"/><path fill="#a6ce38" d="M1126.45 316.6L1108 333.45q-14.65 14.1-33.35 32.25-18.65 18.15-34.45 33.25l-21.7 19.8-8.05 10.4-12.75 20.6q-15.1 25.65-35.4 58.2-20.25 32.5-41.55 58.35-21.3 25.85-39.45 31.45-17.95 5.3-28.25 17.8-10.35 12.55-10.6 22.95-.3 10.4 11.85 9.2l15.85-6.4 10.7-7.15 12.55-9.8q14.75-11.35 52.2-26.75 37.4-15.35 80.1-32.95 42.65-17.65 73.1-35.85 47.5-29.5 74.95-54.9 27.45-25.4 41.6-51.7 14.15-26.35 21.75-58.6 5.1-24.15-9.25-35.75-14.4-11.55-36.8-14.45-22.45-2.9-41.45-1.1l-15.3 1.95-7.85 2.35z" id="d"/><path fill="#a6ce38" d="M1037.75 310.3q-28.5-9.5-51.15-7.95-22.7 1.55-28.75 13.2-5.15 11.9-9.05 29.15-3.95 17.3-7.2 35.75t-6.4 34q-.95 11.1 24.45 14.2 25.4 3.15 59.95 1.7 34.55-1.45 61.15-4l28-2.85-4.85-21.15q-4.55-19.6-9.1-39.35l-5.05-21.65q-23.5-21.55-52-31.05z" id="e"/><path fill="#a6ce38" d="M1012.35 269.55q-15.25 1.75-24.45 7.2-9.2 5.5-13.5 10.45-4.35 4.65-9.75 13.8t-9.85 19.5q-4.45 10.35-5.9 18.45-.9 7.85 8.25 17.3 9.1 9.5 24.1 16.95 14.95 7.45 31.55 9.2 16.7 1.25 34-2.55 17.35-3.85 30.2-10.35 12.85-6.5 16.1-13.25-.1-7.45-4.95-25.25-4.8-17.75-14.3-34.75-9.55-17-23.7-22.1-22.55-6.3-37.8-4.6z" id="f"/><path fill="#a6ce38" d="M1108.3 290.6q-24.8-2.75-41.3-3.7l.45 10.85q.7 10.15 2.05 22 1.35 11.8 3 17.6l8.55-3 17.8-5.1q22.4-6.15 45.5-14.25 23.15-8.15 29.2-16.1l-20.8-3q-19.65-2.6-44.45-5.3z" id="g"/><path fill="#0083CB" d="M1035.4 302.25l-1.9-1-2-.6-2.15-.2-2.1.2-2 .6-1.9 1-1.6 1.35-1.35 1.65-1 1.85-.65 2.05-.2 2.1.2 2.1.65 2.05 1 1.85 1.35 1.65 1.6 1.35 1.9 1 2 .6 2.1.2 2.15-.2 2-.6 1.9-1 1.6-1.35 1.35-1.65 1-1.85.65-2.05.2-2.1-.2-2.1-.65-2.05-1-1.85-1.35-1.65-1.6-1.35z" id="h"/><path fill="#a6ce38" d="M1040.4 290.7q-3.7-5.25-11.25-5.6-8.85.45-13.2 7-4.3 6.5-5.15 14.65l35.45.25-1.05-5.7q-1.1-5.3-4.8-10.6z" id="i"/><path fill="#FFF" d="M1346.35 244.85l1.55-10.2.75-2.95-1.9.6-7.9 5.4q-10.85 7.75-29.2 19.95t-39.85 23.75q-21.5 11.5-41.75 17.2-26.2 6.75-44.3 5.6-18.1-1.15-31.25-6.75-13.15-5.65-24.45-12.3-7.4-4.25-15.95-12.7-8.5-8.45-16.6-18.45-8.15-10-14.3-18.9-6.15-8.85-8.85-13.95l-12.3 161.15q3.1 1.2 7.7 4.15 4.55 2.95 10.1 7.1 5.5 4.15 11.5 8.85 22.35 17.9 42 28.25 19.7 10.4 39.9 14.2 20.2 3.85 44.2 2.05 18.65-1.7 35.15-13.25 16.5-11.5 30.3-27.9 13.8-16.35 24.4-32.6 10.6-16.2 17.5-27.25 5.45-9.2 10.05-27.95 4.6-18.75 8.05-39 3.4-20.3 5.45-34.1z" id="j"/><path fill="#0081c6" d="M983.35 287.8q-2.8-12.2-6-24.35-3.2-12.2-6.6-24.2l-1-3.3q-.5-1.65-1-3.25-.25-.75-.5-1.55-.25-.75-.65-1.45l-.25-.5-.1-.1-.7-.15q-1.15-.3-2.7-.3-1.5.05-2.7.1-1.55.1-3.1 0-1.5-.1-3 .05-.65.1-1.35.25-.7.1-1.35.2-.4.05-.75.1-.4 0-.75.05l-.9.05q-.7.05-1.3.05.05.4.15.85l.15.6q.65 3.15 1.35 6.35.7 3.2 1.2 6.4.75 4.75 2.1 9.45 1.35 4.7 2.55 9.35 2.95 12.25 5.75 24.6 2.75 12.3 5.75 24.55 4.4 18.6 8.05 37.35 3.7 18.8 7.65 37.5 1.05 4.85 2.2 9.7 1.15 4.8 2.55 9.6.2.8.5 1.6.25.75.6 1.5.2.4.4.75l.4.7q.2.3.7 1 .55.7 1.1 1.3.5.4 1.2.6.65.2 1.15-.05.95-.55 1.1-1.4.2-.9.05-1.9-.15-1-.3-1.9-1.75-13.45-4.05-26.95-2.35-13.5-4.9-26.8-1.25-6.35-2.25-12.55-.95-6.2-1.55-12.7-.4-4.9-.7-9.8l-.5-9.8-.05-.85q0-.65-.05-1.2.1.4.2.95l.1.65q1.05 4.85 2.3 9.7 1.2 4.8 2.15 9.75 1.1 6.4 2.15 12.9 1.1 6.55 2.65 12.9 1.55 6.4 4.1 12.4.9 2.15 1.25 4.35.3 2.25.8 4.45.05.35.15.75.05.35.2.7l.5 1.15.45.5.3-.1.25-.9q.05.45.2 1l.1.7q1 5.8 1.9 11.65.85 5.85 2.2 11.55.55 2.25 1 4.55.45 2.35 1.35 4.45.15.45.35.8.2.4.45.8l.1.2.3.35q.35.5.75.8.4-.35.75-.8l.3-.4.15-.25q.95-1.9.65-4.55-.3-2.65-1.05-5.3t-1.2-4.6q-1.35-6.6-2.4-13.35-1.05-6.75-2.2-13.4-1.9-11.25-4.25-22.4-2.35-11.15-5.2-22.2-.6-2.45-1.3-4.85-.65-2.4-1.25-4.9-1.65-7.4-3.4-14.75-1.75-7.4-3.45-14.8z" id="k"/><path fill="#FFF" d="M998.6 380.5q-7.55-35.8-15.85-71.4-8.3-35.65-16.9-71.3-.1-.4-.2-.85l-.2-.8-.25-1.05q-.2-.8-.35-1.45l-1.65.45-3.3 1q-1.65.45-3.3.95-.4.15-.85.25-.4.1-.8.25l-1 .3q-.8.2-1.45.45.1.45.2 1l.15.65q8.9 37.65 17.4 75.45 8.5 37.75 16.05 75.7 7.6 37.95 13.65 76.2 6.6 41.65 9.85 83.6 3.2 42 2.6 84.15-.45 26.35-1.95 52.65-1.5 26.3-3.65 52.55-2.15 26.25-4.55 52.5-.4 4.15-.75 8.3l-.8 8.3q-.05.4-.05.8-.05.45-.1.85l-.1 1.35q-.1 1.05-.2 1.95l-.1 1-.05.45v.25l-.15 1.65q-.1.85-.15 1.65-.05.45-.1.85l-.2 2.1q-.1.95-.15 1.8.45 0 1-.05h.65q3.35 0 6.7-.05l6.7-.1h2.5q.05-.45.1-.95v-.45l.05-.2q2.5-28.8 4.8-57.6 2.35-28.8 4.05-57.65 1.7-28.85 2.4-57.75 1.05-49.25-3.05-98.3t-12.7-97.55q-6.4-36.1-13.95-71.9z" id="l"/><path fill="#FFF" d="M656.95 766.95l-8.05-.8q-1.6 0-2.6 1.1-1.05 1.1-1.1 2.55-.05 1.5 1.3 2.7l2.6 1.4 5.45 2.2q6.9 2.6 18.4 4.6 11.45 2 26.2 1.2 14.7-.75 31.5-6.45 11.65-4.35 21.95-12.65 10.35-8.3 18.3-17.35 8-9.05 12.6-15.55l4.8-7.25-1.05-1.4-2.9-2.8q-3.8-3.5-8.4-7.55-4.65-4-7.35-6.3-2.1 3.35-7.35 10.9Q756 723 748.5 732q-7.45 9.05-16.15 16.9-8.75 7.85-17.75 11.9-9.9 4.1-20.75 5.6-10.85 1.45-20.6 1.35-9.7-.15-16.3-.8z" id="m"/><path fill="#FFF" d="M1093.3 494.05q-10.65-14-24.1-27.15-13.45-13.15-27.2-21.2-13.7-8.05-25.25-6.8-14.25 2.2-21.4 8.35-7.2 6.15-9.6 14.3-2.4 8.15-2.2 16.45.15 8.25.6 14.7l2.15 16.4 5.1 27.3q6.6 32.75 15.7 74.4 9.1 41.6 17.3 79.25 8.2 37.65 12.15 58.4l2.55 2.15 4.95 2.75q6.15 3.05 15.3 5.5 9.2 2.4 19.65 2.35 14.9-.4 23.45-2.9 8.6-2.55 12.2-5.25l2.75-2.35.95-1.5q10-49.1 11.6-88.35 1.6-39.2-2-68.25-3.55-29.05-9-47.6-5.5-18.55-9.6-26.25-5.4-10.7-16.05-24.7z" id="n"/><path fill="#0081c6" d="M974.65 183.5l-.55-.3q-.3-.15-.45-.15-.55-.15-1.25-.35l-.85-.3q-5.2-1.15-9.95-1.35-4.7-.2-9.55-.05-4.5.15-9.05 1-4.55.85-9.2 2.1-.45.15-.85.3-.4.15-.7.3-1.1.4-2.05 1.15l-.75.6-.3.3q-2.45 2.35-4.5 5.1-2.05 2.75-4.15 5.5-3.4 4.45-6.55 9-3.1 4.55-6.2 9.05-.95 1.5-.45 2.6.5 1.1 1.75 1.15 1.3.05 2.65-1.7.35-.45.65-.9.35-.45.65-.9.25.95 1.3 1.65 1.1.7 2 1.15-1.65.75-1.8 1.85-.15 1.1.95 1.8 1.05.75 3.1.2 3.9-1.1 7.95-2.05 4.1-.9 8-2 4.5-1.3 8.9-2.6 4.45-1.25 8.85-2.65.35-.15.65-.3.3-.15.55-.4.45-.1.95-.4.5-.25 1.05-.7 2.5-2.05 5.1-4.55 2.6-2.5 4.85-4.9 1.6-1.7 3.2-3.35 1.6-1.7 2.85-3.65 1.15-1.8 2.4-3.7 1.3-1.95 2.15-3.6.6-1.2.5-2.2-.1-.95-1.4-1.65l-.45-.1z" id="o"/><path fill="#FFF" d="M972.45 187.3l.8-2.2q-5.8-2.05-13.85-2.25-8.05-.25-15.7 1.35-7.65 1.55-12.25 4.8l-2.15 2.1-3 3.7q-3.5 4.45-7.3 9.8-3.8 5.35-6.45 9.25l-2.85 4.1 2.05.95q1.9.85 3.9 1.7l1.65.6.85.15q11.05-3.45 18.05-5.5t11.25-3.7q4.25-1.6 7.1-3.75 3.1-2.55 7.5-7.55 4.45-5.05 7.85-9.7l2.55-3.85z" id="p"/><path fill="#0081c6" d="M739.45 692.55v-.7q-.05-.6-.65-.9-.55-.7-1.35-.65-.85 0-1.4.4-.8 1.25-.8 3.1 0 1.9.3 3.5l.35 2.25q.3 3 .65 9.5.4 6.55.95 12.75l.65 5.2.75 3.15.1.15q.05 1.5.2 2.7.15 1.15.2 1.6 2.25 26.15 4.05 52.4 1.8 26.3 3.85 52.55 2.05 26.25 4.9 52.4.05.6.1 1.6t.45 1.95q.35.95 1.35 1.35.45-.05.85-.3.35-.25.65-.65 1.05 1.7 2.6 3.35 1.55 1.6 3 2.85 1.5 1.2 2.3 1.7 1.85 1.05 4.95 2.2 3.1 1.1 6.85 2.05 3.75.95 7.5 1.5-.9 2.15-1.95 4.15-1 2.05-2.1 3.95-.4.5-1.1 1.65-.75 1.2-.35 2.5 1.55-.55 2.9-1.9 1.4-1.35 2.45-2.8 1-1.45 1.4-2.2.75-1.2 1.35-2.45.65-1.2 1.25-2.4 2.8.25 5 .1 2.25-.15 3.6-.8l.9-.2q.65-.1.75-.85-1.6-1.65-4.05-1.95-2.45-.3-4.45-.15 1.75-4.1 3.75-8.1 1.95-4 5.05-8.1 4.75-6.55 6.05-19.5 1.35-12.95.35-28.35-1-15.45-3.35-29.4t-5.05-22.55q-5.45-17-13.75-33-8.35-16-18.55-31.25-10.2-15.2-21.35-29.85l-.65-.8-1-1.2q-.1-.45-.25-.85-.1-.4-.2-.7z" id="q"/><path fill="#FFF" d="M743.95 723.9l2.15 27.15q2.05 25.8 4.75 59.75 2.65 33.95 4.75 59.8l2.2 27.3q3.95 7.25 20.65 10.8 16.7 3.55 37.9 3.45 21.25-.15 38.8-3.95 17.6-3.8 23.3-11.25l3.35-23.35q3.1-22.15 7.15-51.25 4.1-29.1 7.2-51.25l3.35-23.45q-9.85-10-28.9-17.35-19.05-7.35-42.25-11.05-23.25-3.7-45.6-2.8-22.35.9-38.8 7.45z" id="r"/><path fill="#0083CB" d="M943.65 840.8q-1.05-2.05-1.45-3.45-.75-2.75-1.15-5.5-.35-2.8-.9-5.5l-.5-1.5-.55-.4q-.6.1-1.05 1.35-.4 1.2-.4 2.45.15 3.15 1.1 7.5.95 4.35 3.1 7.95 2.1 3.6 5.8 4.45 3.45.45 5.8-2.6 2.35-3 3.65-7.05 1.3-4.05 1.65-6.75.15-1 .2-2.9.05-1.9-.25-3.6-.3-1.75-1.25-2.3l-.2-.05q-.15 0-.2.05-.35.35-.45.85l-.15.7q-.25 1.9-.3 3.9 0 2-.35 3.95-.3 1.7-1.15 4.5-.85 2.8-2.15 5.3-1.3 2.45-3 3.1-1.75.45-3.3-.95-1.5-1.45-2.55-3.5z" id="s"/><path fill="#FFF" d="M803.6 759.1l4.75 21.7q4.5 20.6 10.5 47.7 5.95 27.1 10.55 47.75l4.9 21.75q6.05 4.2 22.45 7.3 16.4 3.1 36.25 3.95 19.85.9 36.4-1.55 16.5-2.5 22.85-9.4 2.05-28.3 1.35-56.85-.65-28.6-2.55-52.65-1.95-24.05-3.65-38.75l-1.7-15.3q-19.15-5.55-37.35-5.35-18.25.15-35.8 4.4-17.55 4.25-34.75 11-17.15 6.75-34.2 14.3z" id="t"/><path fill="#0083CB" d="M943.35 838.65q-1.2-2.6-1.95-5.7-.8-3.05-1.8-5.85l-.4-.7-.3-.15q-.3.15-.45.85-.15.7-.15 1.4.2 3.1 1.2 6.95 1 3.8 2.75 6.95 1.7 3.15 4.05 4.3 4 1.55 6.85-1.1 2.85-2.65 4.45-7.45 1.6-4.75 1.75-9.5v-1.7q-.05-1-.25-1.8-.25-.75-.7-.7-.15.3-.3.65l-.15.5q-.6 2-.85 4.2-.3 2.15-.8 4.3-1.15 4.45-3.3 7.15t-4.75 2.35q-2.55-.35-4.9-4.95z" id="u"/><path fill="#0081c6" d="M946.8 704.9q-5.8 13.35-10.55 27.05-4.7 13.7-8.9 28.9-.8 2.85-2.15 7-1.35 4.15-2.7 8.8-1.4 4.65-2.35 9.1-.2-.1-.4-.15-.25 0-.5.1.2 1.1 0 2.4-.25 1.3-.55 2.35l-.35 1.35q-.2 1.4-.3 3.45-.1 2.05.05 4-1.6.1-3.7.4-2.1.3-3.4 1.2 1.25.25 3.35.25 2.05 0 3.95-.15.1.35.15.65l.2.5v.8q-.05.6.55.65.2-.5.35-1.2.15-.7.2-1.5.4-.05.65-.05.3-.05.5-.05 10.45-1.35 21.4-3.1 11-1.75 21.25-3.75 21.3-4.15 41.85-12.3 20.5-8.15 38.2-20.75 17.7-12.55 30.5-29.95 12.8-17.45 18.7-40.15 2.7-11.45 3.2-25.4t-.1-28.2q-.55-14.2-1.1-26.4-.45-12.6-3.45-26.55-2.95-14-8.25-27.6-5.3-13.55-12.6-24.9.8-.4 1.65-.8l1.7-.8q1.7-.75 2.4-1 .75-.25.6-.8l-.3-.8-.7-1.35q-.2-.3-.6-.25-.35 0-.5.25-1.1.25-2.4.85-1.25.6-2.25 1.1l-1.3.65-.25.1q-.9-1.35-1.9-2.6-.95-1.3-1.95-2.55l-.4-.55q-.3-.5-.7-.8-.1-.15-.15-.3-.05-.15-.3-.15.05 1.45 1.15 3.6 1.1 2.2 2.35 4.1-19.85 8.5-35.45 25.5-15.6 17-28.1 38.45-12.5 21.5-22.95 43.5-10.5 21.95-20.05 40.4-7.5 14.15-13.3 27.45z" id="v"/><path fill="#FFF" d="M747.9 407.05l-8.1 1.05q-7.65 1.2-17.15 5.7-9.55 4.5-15.6 14.2-6.05 9.75-3.35 26.65 1.65 8.35 6.9 25.9 5.25 17.55 12.5 39.9 7.2 22.35 14.85 45.1 7.65 22.8 14.05 41.7 1.65 5 3.75 15.45 2.05 10.5 4 23.55 1.9 13.1 3.05 25.9 1.15 12.8.95 22.55-.25 6.1-1.25 15.65-1.05 9.5-1.55 20.9-.55 11.4.7 23.1 1.2 11.7 5.35 22.15 6.7 14 30.1 19.4 23.45 5.4 54.15 4.95 30.75-.45 59.4-4t45.9-7.45q14.05-3 29.05-7.25 15.05-4.3 29.65-10.75 14.55-6.45 27.25-16.05 12.65-9.6 21.95-23.35 10.5-16 16.45-35.4 5.9-19.35 7.85-40.45 1.95-21.1.5-42.35-1.4-21.25-5.55-41-5.3-24.15-15.7-45.6-10.4-21.5-21.85-38.2-11.4-16.7-19.8-26.6l-9.65-10.75-43.05-7.85q-40.05-6.7-92.3-15.2t-91.8-14.85l-41.65-6.7z" id="w"/><path fill="#0081c6" d="M1162.4 196.4q-2.35-.6-5.15.05-.25.05-.85.2-.65.1-1 .55-1.35 1-2.9 2.45-1.55 1.5-2.75 2.75l-1.45 1.7q-5.55 8.65-10.45 16.8-4.9 8.2-10.05 16.1-1.65 1.8-3 3.85-1.4 2.05-2.6 4.25-2.7 3.7-5.7 7.35-3 3.7-6.4 7.4-4.5 5.05-9.15 10.9-4.7 5.85-9.9 11l-.7.45-.7.4-.25.1q-4.2 2.25-8 4.55-3.75 2.3-7.9 3.5-4.15 1.2-9.5.2-3.55-.8-6.7-3.4-3.1-2.6-5.7-6.35-2.6-3.75-4.55-8v-1.3q-.05-.6-.05-.8-.35-3.15-1.1-6.1-.75-2.95-1.55-5.85-.3-2.95-.55-5.6-.25-2.7-.6-4.85-.3-1.75-.55-3.4-.25-1.6-.9-3.2-.55-1.7-1.5-3.1-1-1.45-2.55-2.4l-.45-.45q-.2-.15-.35-.25-3.9-2.15-9.7.1-5.8 2.2-11.95 6.2-6.1 4-11 7.15-1.05.5-1.9.95l-1.15.65q-.25.1-.45.2l-.4.2q-7.75.65-14.45-1.9-6.65-2.5-13.1-7.55-6.45-5-13.55-11.7-6.7-6.3-14.85-11.5-8.15-5.15-17.1-7.9-8.95-2.75-18-1.75-1.35.1-3.2.05-1.9-.05-3.6.2-5.55.05-10.85.65-5.35.6-10.25 1.75-5.1 1.25-10.7 3.4-5.65 2.2-11.15 4.75t-10.2 4.9q-4.9 2.45-10.9 6.95-6.05 4.45-11.6 9.9t-9.05 10.85q-.85.9-1.5 1.7-.65.8-.95 1.2-2.3 3.15-4.45 8.7-2.15 5.6-3.95 12.65-2.35 5.55-3.55 10.75-1.2 5.2-.7 11.05-1.1 8.55-1.1 15.65 0 7.15 1.4 11.45 1.8 4.65 7.1 10.45 5.3 5.85 11.3 11.45 6 5.65 9.9 9.6 7.5 8.25 12.7 14.05 5.15 5.85 11.55 10 6.35 4.2 17.55 7.45 12.25 3.6 24 6.35 11.8 2.75 23.75 4.4 11.9 1.65 24.6 1.85 6.45 0 13.1.3 6.6.2 13.1 1.4 6.45 1.15 12.5 3.95 6 2.75 11.25 4.4 5.25 1.65 10.4 3.85 5.2 2.25 10.9 6.55 2 1.55 5.5 3.95 3.45 2.45 7.8 5.2 4.3 2.8 8.85 5.35-5.25 5-10.2 10.65-4.95 5.7-8.1 11.3-3.15 5.6-3 10.25.05.6.15 1.2.1.6.3 1.15.35.8.75 1.55t.85 1.45q.2.3.45.6l.5.5-.3-.05q.3.5.7 1 .35.5.75.95 6.85.9 13.25.6 6.35-.25 12.75-1.3 6.4-1 13.25-2.4 6.3-.7 12.7-1.85 6.45-1.2 12.9-2.95.95-.2 1.9-.5 1-.25 2-.55 17.25-4.95 33.15-14.3 15.9-9.3 28.4-23.8 12.5-14.5 19.65-34.95 1.15-3.3 2.65-7.8 1.55-4.55 2.9-9.55 1.4-5 2.1-9.75 2.05-9.8 3.4-19.6 1.3-9.8 2.1-19.15.65-7.1 1.4-13.1.8-6 1.15-12.15.4-6.1-.15-13.55-.55-8.3-.75-15.85-.25-7.55-.6-14.9-.35-7.35-1.45-15-.35-4.05-.95-8.05-.65-3.95-1.65-7.8-1.15-4.45-3.05-10.35-1.9-5.85-4.9-11.2-2.95-5.4-7.25-8.25-1.85-1.65-4.2-2.25m-140.65 44.55l.1-.05v.05h-.1m-37 11.1l-.4-.15-.15-.1q.11.07.2.1.2.05.35.15z" id="x"/><path fill="#FFF" d="M1122.8 255.7q-12.8 17.7-28.05 29.6-15.25 11.9-30.8 9.35-8.3-2-13.3-8.85-4.95-6.8-7.45-15.35-2.45-8.5-3.25-15.75-.75-7.2-.75-10-.1-2.8-1.95-4.65-1.8-1.85-4.5-2.15-2.75-.3-5.5 1.7-4.35 3.3-10.4 7.4-6.1 4.05-13.1 6.85-6.95 2.75-14 2.2-3.45-.5-8.85-4.25-5.45-3.75-11.9-9.25-6.45-5.45-12.9-11.05-6.45-5.65-11.95-9.85-4.35-3.5-15.35-6.45-11-3-27.4-2.25-16.45.75-37.2 8.4-14.4 5.75-23.85 12.85-9.45 7.1-14.4 12.95l-3.95 4.8-1.85 2.85q-3.9 7.5-10.1 24.3-6.15 16.8-12.5 35.55-6.35 18.75-10.65 32.1l-4.5 13.95 2.3 7q2.15 6.55 8.1 17 5.9 10.4 17.45 22.55 11.5 12.15 30.5 23.85 23.6 13.95 47.2 22.7t43.5 13.25q19.9 4.5 32.5 5.75 38.15 4.1 68.2 2 30-2.05 51.95-9.05 21.95-7 35.85-17.7 18.65-14.25 31.8-34.95 13.2-20.7 20.3-46.1 7.1-25.35 7.6-53.75.4-33.9-1.65-56.3-2.05-22.35-4.55-34.35l-3.4-14.8q-1.5-5.4-5-7.1-3.5-1.7-6.95-.55t-4.9 4.4l-9.45 18.5q-8.2 14.95-20.95 32.65z" id="y"/><path fill="#0081c6" d="M883.55 162.15q-4.55 2.4-8.1 5.2-2.95 1.9-5.5 4-2.5 2.1-4.4 4.35-2.7 2.4-4.85 4.9-2.1 2.5-3.45 5-1.65 3.3-2.5 8.15-.8 4.85-1.1 9.85-.25 4.95-.25 8.6-.05 4.25.15 8.4.15 4.15.4 8.3v.35q-.4.3-.6.55-.2.2.1.2.1-.05.25-.1.15-.1.35-.15v.05l.15-.1v-.05l.3-.15q.2-.15.45-.25.2-.15.45-.25v-.15l.25-.2q7.9-6.75 17.1-12.75 9.2-6.05 18.2-11.6.5-.3 1.65-.75 1.1-.5 2.4-1.05l-1.1 1.6.1.15.65-.1q.1-.1.2-.25.1-.2.2-.35.6-.35 1.05-.9l.6-.8.1-.2q.8-.35 1.35-.7l.35-.25.15-.25v-.3q.5-.5.85-1l.35-.4.15-.25q2.9-3.65 4.4-8.6 1.5-4.95 1.9-10.15.65-3.25.95-6.95.3-3.65.05-7.15-.2-3.5-1.05-6.1-.15-.55-.5-1.3-.35-.8-.8-1.3l-.25-.3q-.35-.55-1.05-.7-.75-.15-1.35-.05l-.7.05q-4.05.55-8.75 2.2-4.75 1.6-9.3 4M859.4 183.4v.15l-.3.4q-.2.25-.35.45.15-.25.35-.5l.3-.5m40.25-26.55h-.05l.25-.05-.2.05m.6 40q.05-.2.1-.35l.15-.3.05.05q-.05.15-.15.3-.1.15-.15.3m-35.8-19.3q.166-.142.3-.3-.032.082-.1.15-.25.25-.45.5-.1.1-.2.15l-.1.05q.304-.263.55-.55m33.75 22.1l-.1-.05q.1-.25.25-.5.131-.219.25-.5l-.2.5q-.1.25-.2.55m-44.15 16.45v-.7-.9l.05.1v.85q-.04.325-.05.65m.25 11.35q.019.271.05.55.05.4.1.85l-.15.1v-.7-.8z" id="z"/><path fill="#FFF" d="M889.05 162.7q-6.85 3.55-13.1 8.35-6.25 4.75-10.7 9.3-4.45 4.55-5.8 7.35-.9 2.55-1.35 9.55-.45 7-.6 15.1-.15 8.05-.15 13.9v6.1l2.8-.25q2.65-.25 6.15-.65 3.5-.4 6.25-.8l2.2-.4.95-.3q8.7-11.05 13.9-18.95 5.15-7.95 7.6-13.05 2.4-5.1 2.9-7.65.45-2.15 1.05-6.9.65-4.75 1.1-10.2.45-5.45.5-9.65l-.2-3.4-.55-1.8q-6.15.8-12.95 4.35z" id="A"/><g id="B"><path fill="#1D2013" d="M1009 492.75q-.15-.1-.3-.15-.1-.05-.25-.15l.15.3h.4z"/><path fill="#0081c6" d="M957.05 500.85q-1.95.45-4.65 1.15-2.65.7-5.25 1.6 1.3-.95 2.65-1.9 1.35-.9 2.75-1.8 10.85-7.75 23.25-9.6 12.45-1.85 25.35 2.05.85.1 1.75.2t1.75.15l2 .1q.95 0 1.95-.05l-.15-.3q.15.1.25.15.15.05.3.15h.15l.55-.05q.3-.05.6-.05.4-.05.75-.2.4-.1.75-.25l-.05-.1q-1.05-1.85-3.9-3.4-2.9-1.5-6.05-2.55-3.2-1-5.2-1.35-.95-.15-2-.35-1.05-.15-1.95-.1-6.45-.55-13.6.75-7.1 1.35-14 4.15-6.9 2.8-12.65 6.55-1.65 1.2-3.2 2.5-1.55 1.3-3 2.75l-.15.4q-.6.55-1.15 1.1-.6.6-1.1 1.15-.5.6-.95 1.2-.45.6-.9 1.25.35-.1.6-.15.25-.05.45-.1.45-.1.85-.25l.9-.2q6.15-1.55 12.4-3.05 6.25-1.45 12.45-2.95.7-.15 1.4-.35.7-.2 1.4-.45-1.95-.2-4.8.15-2.85.35-5.7.95-2.85.65-4.85 1.1m34.95-13.6l-.5-.1h.3l.8.1h-.6z"/></g><path fill="#FFF" d="M986.25 295.45q-2.35-6.75-7.9-11.65-5.5-4.95-15.3-6.75-9.95-1.5-16.9 1.55-7 3.1-11.65 8.85-4.65 5.8-7.5 12.35-2.85 6.5-4.55 11.9 8.9 1 20.1 2.9 11.2 1.85 23 4.1 11.75 2.2 22.35 4.35.95-6.45.8-13.65-.15-7.25-2.45-13.95z" id="C"/><path fill="#FFF" d="M820.1 480.65q-3.35-8.55-10-16.35-6.65-7.85-16.95-13.5-10.35-5.7-24.75-7.85-11.35-1.5-21.6 1.4-10.25 2.9-18.55 8.6-8.35 5.7-14.05 12.7-5.7 7-8 13.8L700.85 500l-2.55 11.45q-5.35 25.1-9.4 63.1-4 38-2.4 83.45t13.1 92.9l1.55 1.85 4.25 3.25q5.55 3.95 16 7.6 10.5 3.65 25.5 4.1 14.2 0 24.15-3.65 10-3.65 15.65-7.95l4.55-3.7 2.35-2.55q3.25-21.15 8.45-58.4 5.15-37.3 10.35-78.2 5.2-40.95 8.5-73.1l2.4-26.85.55-16.25q-.4-7.85-3.75-16.4z" id="D"/><path fill="#0081c6" d="M469.15 639.7v.4q-.2 4.05-.2 7.8.05 3.8.4 7.5.35 3.7 1.15 7.45.2.8.35 1.65.2.8.35 1.6v-.6q-.05-.3-.05-.55v-.15l-.05-.35q-.1-.45-.15-1.1-.1-.65-.15-1.4-.55-3.25-.85-6.6-.3-3.35-.25-6.95.05-.6.1-2.05.1-1.45.15-3.2.1-1.7.05-3.05l-.05-1.05-.15-.55q-.05-.1-.15-.15-.05 0-.15.1-.15.25-.2.6-.1.35-.15.65z" id="E"/></defs><use xlink:href="#a" transform="matrix(.15456 -.10265 .05559 .1348 1039.45 868.55)"/><use xlink:href="#b" transform="matrix(.16786 -.01796 -.05862 .13223 1031.7 805)"/><use xlink:href="#c" transform="matrix(.02124 .14966 -.20937 .0328 1267.6 690.25)"/><use xlink:href="#d" transform="matrix(.13063 .09552 -.13782 .15266 1125.25 673.1)"/><use xlink:href="#e" transform="matrix(.04016 .10805 -.12755 .06866 1240.25 702.15)"/><use xlink:href="#f" transform="matrix(.04016 .10805 -.12755 .06866 1240.25 702.15)"/><use xlink:href="#g" transform="matrix(.11731 -.08833 .0156 .11897 1113.3 889.1)"/><use xlink:href="#h" transform="matrix(.04016 .10805 -.12755 .06866 1240.25 702.15)"/><use xlink:href="#i" transform="matrix(.13206 -.03299 .06139 .18883 1087.4 810.5)"/><use xlink:href="#j" transform="matrix(.36946 -.35484 -.61905 -.14665 521.35 748.35)"/><use xlink:href="#k" transform="matrix(.312 -.86627 .60287 .3138 229.7 1079.6)"/><use xlink:href="#l" transform="matrix(.312 -.86627 .60287 .3138 229.7 1079.6)"/><use xlink:href="#m" transform="rotate(-29.387 1138.56 57.48) scale(.66746)"/><use xlink:href="#n" transform="scale(.6675 -.6675) rotate(17.054 5564.213 827.026)"/><use xlink:href="#o" transform="matrix(.6359 .17647 -.12402 .65622 345.25 128.95)"/><use xlink:href="#p" transform="matrix(.6359 .17647 -.12402 .65622 345.25 128.95)"/><use xlink:href="#q" transform="matrix(.66713 .06258 -.16376 .65266 416.6 242.05)"/><use xlink:href="#r" transform="matrix(.66713 .06258 -.16376 .65266 416.6 242.05)"/><use xlink:href="#s" transform="matrix(.6312 .14703 -.2478 .64833 459.5 171.75)"/><use xlink:href="#t" transform="matrix(.63098 -.01476 .07211 .81056 343.05 164.35)"/><use xlink:href="#u" transform="matrix(.6365 .15863 -.09055 .75584 489.1 67.7)"/><use xlink:href="#v" transform="translate(285.75 266.65) scale(.66757)"/><use xlink:href="#w" transform="translate(285.75 266.65) scale(.66757)"/><use xlink:href="#x" transform="matrix(.61835 .2297 -.2233 .61559 397.05 91.4)"/><use xlink:href="#y" transform="matrix(.61835 .2297 -.2233 .61559 397.05 91.4)"/><use xlink:href="#z" transform="matrix(.53522 .38626 -.34393 .57246 488.05 -35.1)"/><use xlink:href="#A" transform="matrix(.53522 .38626 -.34393 .57246 488.05 -35.1)"/><use xlink:href="#B" transform="matrix(-.40897 -.18364 -.2965 .38858 1470.65 518.5)"/><use xlink:href="#C" transform="matrix(.61797 .23111 -.2262 .6262 398.4 86.35)"/><use xlink:href="#D" transform="matrix(.74083 .01515 .02371 -.75522 220.25 922.9)"/><use xlink:href="#E" transform="matrix(5.0337 -.37006 .3702 5.03319 -1756.4 -2591.25)"/></svg>