<svg xmlns="http://www.w3.org/2000/svg" xmlns:xlink="http://www.w3.org/1999/xlink" preserveAspectRatio="none" width="760" height="880" viewBox="620 10 760 880"><defs><path fill="#a6ce38" d="M738.25 254.35q-2.45-2.75-4.95-5.5l-4.9-5.5-3.9-4.3-3.9-4.3q-2.05-2.3-4.15-4.55-2.05-2.25-4.15-4.5-.9-.95-3-2.7l-4.8-4q-4.25-1.4-8.3-2.45-4.1-1.05-7.95-1.65-7.05-1.9-14.5-2.05-7.45-.15-14.1 1.55l-1.55.45q-1.25.4-2.3.85-.35.2-.75.35l-.55.2q-6.15 3.4-7.15 8.65t1.15 10.95q2.1 5.75 5.45 10.55-6.4-2.65-12.55-4.55-6.1-1.85-11.45-2.65-10.75-4.1-21.05-5.45-10.25-1.4-16.95 2.9-6.7 4.25-6.65 17.1v.9q.05.75.3 1.35-.1 2.85 1.1 5.75 1.25 2.9 2.8 5.2 5.1 3.3 10.2 6.7 5.1 3.35 10.2 6.8 14.9 10 29.75 20.5t29.6 21.45q54.25 40.4 106.8 87.5 52.55 47.15 102.65 101.45v-.3q-.55-15.2 2.25-32.4t6.55-33.85q-4.75-9.15-10.3-17.8-5.5-8.65-11.65-16.65-16.9-22.5-33.9-45.55-17-23.1-35.25-44.15l-1.3-1.5q-8.25-8.75-16.5-17.6-8.2-8.8-16.25-17.85-2.1-2.4-4.15-4.8-2.1-2.4-4.15-4.85-1.3-1.5-2.6-3.05-1.25-1.55-2.5-3.05-1.05-1.25-2.1-2.55-1.05-1.35-2.15-2.75-1.55-1.95-3.15-4.05-1.65-2.05-3.3-4.25m2.5-9.25l.95 1.2q1.3 1.5 2.6 2.95 1.25 1.5 2.55 2.95 5.35 6.05 10.7 12.15 5.4 6.05 10.75 12.15.3.4.65.8l.7.75 7.9 9q3.95 4.55 7.85 9.05 17.15 17.6 33.85 35.45 16.65 17.9 30.75 37.2 8.5 11.5 19.9 25.5 11.4 14 22.1 28.95l.1-.5q.05-.25.1-.45 2.15-8.65 6.05-9.3 3.85-.6 2.6 7.35-.65 3-1.35 6.05l-1.3 6q5.25 8.15 9.05 16 3.85 7.9 5.7 15.25l.9 3.55q.65 2.7.45 5-.1.55-.45 1.2-.4.65-.75.9-.75.35-1.4.5-.65.15-1.2.1.8 1.95 1.65 4 .9 2 1.8 4.05l1.8 3.8q1.35 2.9 1.4 5.6-1.2 2.55-2.7 3.4l-1.85-.35-2.6-2.65q-1.2-1.6-2.25-3.5t-2-4.05q-1.7-.75-2.65-3.05-1-2.3-1.8-4.9-1.7-5.2-3.7-10.35-2.05-5.15-4.3-10.2-2.4 12.85-4 25.75-1.6 12.85-2.15 25.8l.3 5.1q.3 3.75-.25 7.25v.05q.55.65 1.1 1.25l1.3 1.4q12.85 14.3 25.55 29.05 12.65 14.75 25.1 30 1.25 1.5 2.45 3 1.25 1.55 2.5 3.05l.3-.5q.15-.25.3-.45.15-.3.3-.55.15-.25.35-.5.15-.3.35-.6l.4-.6q9.3-14.8 20.3-29.05 11-14.2 23.15-27 7-7.35 14.25-14 7.3-6.65 14.75-12.4.8-.65 1.6-1.25l1.6-1.2q-.95-2.05-1.85-4.1l-1.9-4.1-.65-1.4q-10.95-23.45-24.15-45.95-13.2-22.5-29.05-44.7l-4.4-6.1q-2.25-3.05-4.55-6.1-1.25-1.7-2.5-3.35l-2.6-3.4q-3-3.95-6.15-8.05-3.15-4.1-6.35-8.3-2.65-3.45-5.3-6.95-2.7-3.45-5.45-7-.6-.8-1.25-1.6t-1.25-1.6l-.15-.2-.15-.15-.1-.2-.1-.1q-6.05-7.7-12.35-15.3-6.25-7.55-12.75-14.75-2.9-3.25-5.85-6.4-2.95-3.15-5.95-6.15-3.85-3.9-7.75-7.5t-7.85-6.9q-5.45-4.6-11.6-8.55-6.1-4-12.7-6.85-3.8-1.65-7.75-2.75t-7.95-1.6q-1.4.6-2.75 1.35-1.35.75-2.65 1.65-3.7 2.55-6.35 5.8-2.65 3.2-3.9 7.45-5.65-4.8-11.6-9.4-6-4.6-12.4-9-11.9-8.35-29.25-19.3-17.3-10.9-36.3-20.25 3.55 4.25 7 8.5 3.4 4.2 6.5 8.15z" id="a"/><path fill="#a6ce38" d="M1515 490.4q-24.2-1.3-47.9-2.8-23.7-1.55-47.1-3.55-18.7-3.7-37-8.1-18.35-4.35-37.7-10.95-15.8-5.75-31.15-12.95-15.35-7.15-30.75-12.15-1.3-.55-4.55-1.65-3.25-1.1-5.7.1-1.25 3.05 1.6 5.45 2.85 2.35 4.7 3.8 3.05 2.95 6.15 5.5 3.05 2.6 6.2 4.85-1.25-.55-2.5-1.2-1.2-.6-2.45-1.25-1.35-.8-4.85-2.55-3.5-1.8-6.35-1.7-.6.45-.4.95.15.5.5.95 1.15 1.6 3.15 3.35 2.05 1.7 4.85 3.55l-.25.05q-.5.3-.5.8-.05.55.15 1 .35 1.05 1.1 2.1.75 1.05 1.8 2.05-7.2-1.4-14.5-2.95-7.25-1.5-14.5-3.15-.6-.1-1.75-.4-1.2-.25-2.7-.5-.4-1.55-1.05-2.7-.7-1.15-1.65-1.7-.6.4-.6 1.1 0 .75.05 1.15.05.45.05.9v.9q-1-.05-1.9.05-.9.1-1.6.4.45.25.8.65l.5.5q.6.4 1.15.8.55.4 1.15.75.1 2.7.15 5.4 0 2.75-.15 5.45l-.05.4q-.1.2-.15.35l-.1.2q-3.3 10.25-2.15 21.35 1.2 11.05 4.55 21.95 3.4 10.9 6.7 20.6 4.95 15.15 11.7 27.75 6.8 12.55 14.95 24.5 3.05 5.1 6.2 10.05 3.15 4.95 6.35 9.65-1.75-1.15-3.55-2.25-1.8-1.15-3.65-2.25l-2.9-1.7q-2.35-1.4-4.05-2.85.75-1.3 2.45-1.9 1.7-.65 2.15-1.75-1.55.75-3.15 1.4-1.55.65-3.15 1.3-.4.45-.6 1.15-.2.65-.05 1.15l1.5 1.85 3.25 2.95q4.2 3.45 9.95 7.75 5.8 4.3 11.15 8.1 1.45 1.5 2.85 2.45 1.45 1 2.7 1.4 1.4.95 2.45 1.65 1 .7 1.6 1.05 24.3 15.45 54.75 28.3 30.45 12.8 62.2 16.65 31.7 3.85 59.8-7.65.65-.3 1.9-.9 1.3-.6 2.8-1.45 19.5 1.3 37.65-4.1 18.15-5.45 32.85-19.4.2-.15.6-.6.45-.45 1.05-1.1 3.6-3.5 6.45-7.15 2.9-3.65 3.7-5.65.45-1.35.55-2.7.15-1.3-.05-2.55 22.3.25 43-3.9 20.7-4.1 36-14.95 15.3-10.8 21.4-30.75.75-1.9 1.4-3.85.6-1.95 1.05-3.95l.5-2.6q.3-2.1.2-4.5 12.25-4.7 21.6-10.8 9.35-6.1 13.4-13.45 4.85-7.3 3.75-12.3-1.15-5-6.05-8.15-4.9-3.15-11.3-4.8-5.6-2.7-17.8-4.25-12.25-1.6-24.6-2.3-12.35-.7-18.35-.75-33-.75-65.15-3.85-32.1-3.1-64.75-5.15z" id="b"/><path fill="#a6ce38" d="M793 728.5l11.5 6.7q11.3 6.35 30.65 14.8 19.35 8.4 43.85 15l10.25-22.7q9.2-21.4 21.05-49.5 11.85-28.05 20.8-49.35l9.4-22.45-25.4-11.05L793 728.5z" id="c"/><path fill="#a6ce38" d="M1103.8 327.1q-22.5 13.6-49.1 32.6-26.6 19.05-46.95 40-15.5 17.25-31.75 49.45-16.2 32.15-32.65 68.4-16.45 36.3-32.55 65.9-16.05 29.65-31.3 41.9-19.15 15.5-14.45 24.7 4.75 9.2 20.15 7.4 15.45-1.8 28.4-19.3 10.8-14.55 43.6-33.05 32.75-18.5 72.05-38.25 39.25-19.75 69.55-38.05 47.85-30.15 78.05-60.45 30.15-30.3 45.1-57.9 14.9-27.6 17-49.7 2-25.95-11.2-38.9-13.25-13-32.9-16.7-19.7-3.7-37-1.85t-23.45 5.45l-30.6 18.35z" id="d"/><path fill="#a6ce38" d="M1037.75 310.3q-28.5-9.5-51.15-7.95-22.7 1.55-28.75 13.2-5.15 11.9-9.05 29.15-3.95 17.3-7.2 35.75t-6.4 34q-.95 11.1 24.45 14.2 25.4 3.15 59.95 1.7 34.55-1.45 61.15-4l28-2.85-4.85-21.15q-4.55-19.6-9.1-39.35l-5.05-21.65q-23.5-21.55-52-31.05z" id="e"/><path fill="#a6ce38" d="M1012.35 269.55q-15.25 1.75-24.45 7.2-9.2 5.5-13.5 10.45-4.35 4.65-9.75 13.8t-9.85 19.5q-4.45 10.35-5.9 18.45-.9 7.85 8.25 17.3 9.1 9.5 24.1 16.95 14.95 7.45 31.55 9.2 16.7 1.25 34-2.55 17.35-3.85 30.2-10.35 12.85-6.5 16.1-13.25-.1-7.45-4.95-25.25-4.8-17.75-14.3-34.75-9.55-17-23.7-22.1-22.55-6.3-37.8-4.6z" id="f"/><path fill="#a6ce38" d="M1099.4 333.3q11.45-10.2 19.2-22.3l-3.55-2.1-10.1-4.2q-13.4-5.25-36.75-7.1l2.95 10.5q3.05 9.8 6.7 21.3 3.65 11.5 5.55 17.3l16-13.4z" id="g"/><path fill="#0083CB" d="M1035.4 302.25l-1.9-1-2-.6-2.15-.2-2.1.2-2 .6-1.9 1-1.6 1.35-1.35 1.65-1 1.85-.65 2.05-.2 2.1.2 2.1.65 2.05 1 1.85 1.35 1.65 1.6 1.35 1.9 1 2 .6 2.1.2 2.15-.2 2-.6 1.9-1 1.6-1.35 1.35-1.65 1-1.85.65-2.05.2-2.1-.2-2.1-.65-2.05-1-1.85-1.35-1.65-1.6-1.35z" id="h"/><path fill="#a6ce38" d="M1040.4 290.7q-3.7-5.25-11.25-5.6-8.85.45-13.2 7-4.3 6.5-5.15 14.65l35.45.25-1.05-5.7q-1.1-5.3-4.8-10.6z" id="i"/><path fill="#FFF" d="M1303.6 521.8q11.4.75 27.5.1 16.1-.6 31.8-2.1 15.65-1.5 25.7-3.35l7.35-1.9 1.65-.9.35-.9-14.5-4.15q-13.7-3.65-34.3-9.3-20.6-5.7-42.15-12.45-21.55-6.75-38-13.65-11-4.6-24.1-11.8-13.1-7.2-27.05-17.1-13.95-9.9-27.45-22.55-13.55-12.7-25.4-28.3-12.4-16.6-22.65-33.55-10.25-16.95-18-31.95-7.75-14.95-12.65-25.55l-6.55-14.55q-2.65-6.05-7.05-15.2-4.35-9.15-9.35-19.15-4.95-10-9.35-18.65-4.4-8.65-7.05-13.7l-15 148.9q3.1 1.2 6.75 4.45t7.85 8.05q4.2 4.85 8.95 10.7 15.7 19.45 29.25 33.9 13.5 14.5 27.15 25.4 13.65 10.9 29.65 19.6 16.6 9.05 35.9 17.55 19.3 8.5 38.55 15.5 19.2 7 35.45 11.4 16.3 4.4 26.75 5.2z" id="j"/><path fill="#0081c6" d="M960.65-48.7l-.45-.5q-.05-.05-.15-.05l-.2.05h-.4q-1.45-.1-3.15.35-1.65.4-3.05.75-.75.2-1.5.35-.75.15-1.5.25-1.6.25-3.05.85-1.5.55-3.05 1.1l-.3.05-.55.15q-.7.2-1.25.35.2.45.4 1l.3.65q2 4.65 3.95 9.35 1.9 4.7 4.15 9.25 7.45 14.9 13.9 30.35 6.45 15.5 12.5 31.05 7.3 18.7 13.35 37.85 6.05 19.1 11.55 38.45 5.5 19.3 11.1 38.55.9 3.15 1.85 6.35 1 3.15 2.4 6.1.2.3.35.65.15.35.35.65l.7 1.05q.55.85 1.05 1.5.45.55 1.15.95.7.45 1.35 0 .9-.65 1-1.75.1-1.1-.2-2.25-.25-1.15-.45-2.05-3-16.4-7.05-32.8t-8.6-32.45q-2.9-10-5.8-19.9-2.85-9.9-5.25-20.05-1.2-5.05-2.3-10.1-1.1-5.05-2.2-10.15l-.65-3q-.2-1.1-.4-2l.3.9.15.4.05.25q2 5.45 4.1 10.75 2.1 5.35 3.9 10.9 2.6 8.2 4.95 16.5 2.4 8.35 5.1 16.55 2.75 8.2 6.4 16 1.3 2.85 2.05 5.85.8 3.05 1.6 6.05.1.4.25.8.1.4.25.8.1.35.45 1.1.35.8.95 1.05v-.2l.05-.45q.05-.6.25-.45l.25.85q.2.7.35 1.5l.25 1q2.15 8.35 4.05 16.8 1.85 8.4 4.2 16.7.85 3.2 1.65 6.4.8 3.25 2.2 6.3l.6 1.1q.45.8 1 1.45.25-.35.5-.75l.25-.55q.8-2.3.5-5.6-.35-3.25-1.2-6.55t-1.55-5.6q-2.25-7.55-4.05-15.35-1.8-7.8-3.65-15.5-4.35-18.05-9.75-36-5.35-17.95-12.5-35.1-1.7-4.05-3.15-8.2-1.5-4.15-3.05-8.25-4.75-12.2-9.6-24.3-4.85-12.1-10.45-23.95-3.85-8.15-7.85-16.5-3.95-8.3-8.6-16.05-.25-.4-.5-.85-.3-.4-.6-.75z" id="k"/><path fill="#FFF" d="M958.75-44.3q-.45.25-1 .5l-.4.25-.25.1q-1.6.9-3.25 1.75l-4.55 2.45q-1.05.6-1.9 1.05.2.45.45 1.05l.35.65q22.75 47.3 39.8 96.75 17 49.4 29 100.35 12 50.95 19.65 102.75 7.75 52.65 10.85 105.9 3.05 53.2 2.2 106.4-.6 42.1-3.85 84.3-3.25 42.2-9.2 83.85-5.6 39.95-13.55 79.3-7.95 39.35-18.6 78.25-.45 1.6-.9 3.25l-1.15 4.1q-.15.4-.25.85l-.25.85q-.2.7-.35 1.25l-.3 1-.15.45-.05.25-.5 1.7q-.25.85-.5 1.65-.15.45-.25.85l-.6 2q-.25.95-.5 1.75.45.05 1 .15l.65.15q3.35.6 6.75 1.2 3.35.65 6.7 1.25l.9.15q.7.15 1.3.25.1-.45.3-1.05l.15-.65q10.55-36.15 18.45-72.85 7.9-36.75 13.65-73.9 5.7-37.15 9.65-74.5 4.1-39.15 5.85-78.45 1.7-39.3 1.4-78.65-.45-77-10.05-154-9.55-76.95-29.2-151.9T975.9-7.25q-3.6-8.3-7.4-16.5-3.75-8.2-7.75-16.3-.2-.4-.4-.85-.2-.4-.4-.85l-.5-1.05q-.4-.8-.7-1.5z" id="l"/><path fill="#FFF" d="M1093.3 494.05q-10.65-14-24.1-27.15-13.45-13.15-27.2-21.2-13.7-8.05-25.25-6.8-14.25 2.2-21.4 8.35-7.2 6.15-9.6 14.3-2.4 8.15-2.2 16.45.15 8.25.6 14.7.35 6.2 4 20.75 3.6 14.6 9.15 35 5.6 20.45 11.75 44.25 6.2 23.8 11.65 48.45 4.6 21.6 7.4 42.2 2.8 20.6 4.7 37.55 1.9 16.9 3.75 27.55l2.55 2.15 4.95 2.75q6.15 3.05 15.3 5.5 9.2 2.4 19.65 2.35 14.9-.4 23.45-2.9 8.5-2.55 12.15-5.25l2.75-2.35 1-1.5q13.65-48.1 15.85-87.2 2.15-39.05-2.45-68.4-4.65-29.35-11.4-48.25-6.75-18.85-11-26.6-5.4-10.7-16.05-24.7z" id="m"/><path fill="#FFF" d="M656.95 766.95l-8.05-.8q-1.6 0-2.6 1.1-1.05 1.1-1.1 2.55-.05 1.5 1.3 2.7l2.6 1.4 5.45 2.2q6.9 2.6 18.4 4.6 11.45 2 26.2 1.2 14.7-.75 31.5-6.45 11.65-4.35 21.95-12.65 10.35-8.3 18.3-17.35 8-9.05 12.6-15.55l4.8-7.25-1.05-1.4-2.9-2.8q-3.8-3.5-8.4-7.55-4.65-4-7.35-6.3-2.1 3.35-7.35 10.9Q756 723 748.5 732q-7.45 9.05-16.15 16.9-8.75 7.85-17.75 11.9-9.9 4.1-20.75 5.6-10.85 1.45-20.6 1.35-9.7-.15-16.3-.8z" id="n"/><path fill="#FFF" d="M985.85 192.35l2.2-3.4.8-2.05q-4.05-2.1-9.95-3-5.95-.85-12.2-.85-6.25.05-11.25.7-5.05.65-7.3 1.6-1.85 1.05-5.6 4.95-3.75 3.9-7.8 8.65-4.1 4.75-7 8.2l-3.05 3.65 2 1.35q1.85 1.2 3.85 2.4l1.6.9.85.3q11.4-1.85 18.85-3.15 7.4-1.3 12.05-2.6 4.65-1.25 7.75-3 3.35-2.05 7.35-6.3 3.95-4.3 6.85-8.35z" id="o"/><path fill="#FFF" d="M717.05 718.3l1.75 5.2q1.75 5.1 5.2 13.3 3.4 8.15 8.4 17.6 4.95 9.45 11.4 18.35 8.95 11.95 17.65 23.15 8.7 11.15 14.3 19.4l4.05 7.1.9 2.6.15 1.95q-1.15 5.15-4.7 16.4-3.6 11.25-7.75 23.75-4.2 12.5-7.2 21.45l-3.2 9.35q4 7.3 21.65 10.95 17.6 3.65 40.05 3.65 22.45.05 41-3.65 18.5-3.7 24.25-11.1l5.85-7.55q5.55-7.2 13.05-17.5 7.45-10.3 13.6-20.1 6.15-9.8 7.7-15.35l-.35-14.95q-.85-11.85-2.35-26.15-1.45-14.35-2.6-24.9l-1.2-11.2q-10.2-10.1-36.1-20.15-25.9-10-58.1-17.25t-61.4-9q-29.2-1.75-46 4.65z" id="p"/><path fill="#0083CB" d="M943.65 840.8q-1.05-2.05-1.45-3.45-.75-2.75-1.15-5.5-.35-2.8-.9-5.5l-.5-1.5-.55-.4q-.6.1-1.05 1.35-.4 1.2-.4 2.45.15 3.15 1.1 7.5.95 4.35 3.1 7.95 2.1 3.6 5.8 4.45 3.45.45 5.8-2.6 2.35-3 3.65-7.05 1.3-4.05 1.65-6.75.15-1 .2-2.9.05-1.9-.25-3.6-.3-1.75-1.25-2.3l-.2-.05q-.15 0-.2.05-.35.35-.45.85l-.15.7q-.25 1.9-.3 3.9 0 2-.35 3.95-.3 1.7-1.15 4.5-.85 2.8-2.15 5.3-1.3 2.45-3 3.1-1.75.45-3.3-.95-1.5-1.45-2.55-3.5z" id="q"/><path fill="#FFF" d="M890.1 730.25q-24.1 8.35-49.35 23.35-25.3 15-48.3 29.9-23.05 14.9-40.4 22.9l16.4 4.9q15.6 4.7 36.2 11.45 20.6 6.8 36.35 13.2l12.15 5.7 3.35 2.35 1.5 1.95q.4 5.6-2.1 13.85-2.5 8.3-6.05 16.6-3.6 8.3-6.35 13.9l-2.9 5.9q6.05 4.15 21.5 7.55 15.45 3.35 34.05 4.6 18.65 1.25 34.25-.95 15.55-2.2 21.85-9.1 6.65-10.4 13.8-21 7.1-10.55 13.45-20.15 6.3-9.65 10.45-17.2 4.1-7.6 4.7-12.1l-5.4-10.55-4-6.75q-9.05-15.2-21-34.45-12-19.25-21.1-33.75l-9.5-15.35q-19.5-5.1-43.55 3.25z" id="r"/><path fill="#0083CB" d="M943.35 838.65q-1.2-2.6-1.95-5.7-.8-3.05-1.8-5.85l-.4-.7-.3-.15q-.3.15-.45.85-.15.7-.15 1.4.2 3.1 1.2 6.95 1 3.8 2.75 6.95 1.7 3.15 4.05 4.3 4 1.55 6.85-1.1 2.85-2.65 4.45-7.45 1.6-4.75 1.75-9.5v-1.7q-.05-1-.25-1.8-.25-.75-.7-.7-.15.3-.3.65l-.15.5q-.6 2-.85 4.2-.3 2.15-.8 4.3-1.15 4.45-3.3 7.15t-4.75 2.35q-2.55-.35-4.9-4.95z" id="s"/><path fill="#0081c6" d="M945.25 654.15q-7.2 17.5-12.4 35.65-5.15 18.15-8.3 38.65-.85 5.35-1.55 10.45-.7 5.05-1.15 9.95.4-.15.8-.25.35-.15.65-.2.3.05.65.1.4.1.5.2 1.75 1.9 3.35 6.95 1.6 5.05 2.9 10.45 1.3 5.4 2.1 8.4.55 1.8 1.8 6.45 1.3 4.55 2.75 10.15 1.45 5.6 2.5 10.4 26.15-7.25 49.4-15.6 23.25-8.4 42.5-20.55 19.3-12.2 33.6-30.85 14.35-18.65 22.75-46.4 6.65-22.05 9-44.65 2.35-22.65-.95-45.55t-13.6-45.75l-1.6-3.5-1.6-3.55q-.3 1.85.4 4.1.75 2.2 1.05 4.3.35 2.1-1.2 3.5-2.8 2.2-4.15.5-1.35-1.65-2-4.75-.65-3.05-1.3-5.15-3.25.6-5.4-3.2-2.15-3.85-3.45-9-1.35-5.2-2.15-8.7l-.5-1.9q-.35-1.45-.8-3.25-.45-1.85-.85-3.3-.6-.65-1.55-.4l-.8.2-.45.05q-2.15-1.3-2.25-4.05-.1-2.75 1.2-6.4-20.2 13.7-37.85 32.2-17.65 18.5-31.75 38.8-14.1 20.35-23.7 39.6-9.35 18.45-16.6 35.9m-215.3-35.5q-.15-.9-.75-1.55-.1-.1-.1-.3l-.1-.3q-.15.8.35 2.65.5 1.8 1 3.4l.65 1.75q.5 1.75.9 3.5l.9 3.5-.3-.1q-.15-.1-.25-.15-.75-.3-1.65-.1-.9.2-.85 1.15.35.8.95 1.6t1.3 1.6q.1 1.5.45 2.9l.4 1.85q.8 4.2 1.75 7.9.95 3.65 1.5 7.85.1.85.35 3.2.2 2.3.55 4.75.35 2.4.7 3.65.2 1.25.3 2.25l.2 1.35q.3 1.95.55 3.9.2 1.95.35 3.9-.95-.95-2.25-1.45-1.25-.55-2.85-.45l-1.05.2q-.8.15-1.7.15.1-1.2.2-2.7.1-1.45-.15-2.6-.25-1.15-1.15-1.3-.5.8-.75 1.95-.3 1.2-.4 2.25l-.15 1.4q0 .25-.05.5 0 .2-.05.45-.3 1.2-.5 2.1l-.2.8-.05.45q-1.7 10.65-.7 20.45 1 9.8 4.2 19.1 2.35 9.45 6.55 18.6 4.2 9.15 10.4 17.85 3.25 6.45 8.05 11.95 4.85 5.5 11 9.5.6.4 2.05 1.2 1.5.8 2.9.7-.5-1-1.55-2-1.05-1.05-2.05-1.8l-1.35-1.1q-1-.85-1.95-1.7l-1.8-1.7q1.1-1.2 2.25-2.9 1.2-1.7 2.1-3.2.9-1.45 1.2-2.05 5.2-9.65 8.3-16.15 3.1-6.45 4.2-12.25 1.15-5.75.5-13.2-.6-7.5-2.8-19.05-2.25-12.65-5.85-22.55-3.6-9.9-9.6-18.5t-15.5-17.35q-3.55-3.25-7.2-6.5-3.65-3.25-7.45-6.1l-.05-.05q-1-3.2-1.95-6.2t-1.75-5.7l-.2-1.2M1056.6 503.4q.05.2.15.4.1-.15.15-.35.1-.15.2-.35-.15-.05-.35-.1-.15 0-.3.05.05.2.15.35m46.7-14.7l-.5.9q.55-.3.95-.7.45-.4.65-.9l-.3-.1-.3-.1-.5.9z" id="t"/><path fill="#FFF" d="M801.65 380.65q-11.1 3.9-23.95 13.1-12.9 9.2-25.55 21.9t-23.2 27.05q-10.5 14.35-16.95 28.5-3.4 7.6-7.45 21.55-4.05 13.9-7.7 32.55-3.7 18.6-6 40.25t-2.2 44.65q.15 8.8 2.55 21.6 2.35 12.8 6.15 27 3.7 14.2 7.95 27.2 4.25 13.05 8.05 22.3 5.55 13.25 14.3 26.25 8.8 12.95 19.6 24.55 10.8 11.6 22.5 20.75 15.65 11.65 40.15 16.2 24.45 4.55 52 4.1 27.6-.4 52.65-3.65 25.1-3.25 42-7.1 18.8-4.05 38.6-11.95 19.75-7.95 37.45-20.6 17.65-12.65 30.15-31 13.8-21.3 17-45.6 3.25-24.3-.45-50.15-3.7-25.9-10.75-51.9-6.55-23.35-21.6-43.95-15.1-20.6-32.15-36.5-17.1-15.95-29.65-25.3l-9.75-7.25-13.35-8.75q-8.45-5.4-21.85-14.55-13.4-9.2-28.9-21.05-15.5-11.9-30.2-25.35-10.25-9.55-22.3-14.8t-26.25-5.45q-14.25-.2-30.9 5.4z" id="u"/><path fill="#0081c6" d="M1162.4 196.4q-2.35-.6-5.15.05-.25.05-.85.2-.65.1-1 .55-1.35 1-2.9 2.45-1.55 1.5-2.75 2.75l-1.45 1.7q-5.55 8.65-10.45 16.8-4.9 8.2-10.05 16.1-1.65 1.8-3 3.85-1.4 2.05-2.6 4.25-2.7 3.7-5.7 7.35-3 3.7-6.4 7.4-4.5 5.05-9.15 10.9-4.7 5.85-9.9 11l-.7.45-.7.4-.25.1q-4.2 2.25-8 4.55-3.75 2.3-7.9 3.5-4.15 1.2-9.5.2-3.55-.8-6.7-3.4-3.1-2.6-5.7-6.35-2.6-3.75-4.55-8v-1.3q-.05-.6-.05-.8-.35-3.15-1.1-6.1-.75-2.95-1.55-5.85-.3-2.95-.55-5.6-.25-2.7-.6-4.85-.3-1.75-.55-3.4-.25-1.6-.9-3.2-.55-1.7-1.5-3.1-1-1.45-2.55-2.4l-.45-.45q-.2-.15-.35-.25-3.9-2.15-9.7.1-5.8 2.2-11.95 6.2-6.1 4-11 7.15-1.05.5-1.9.95l-1.15.65q-.25.1-.45.2l-.4.2q-7.75.65-14.45-1.9-6.65-2.5-13.1-7.55-6.45-5-13.55-11.7-6.7-6.3-14.85-11.5-8.15-5.15-17.1-7.9-8.95-2.75-18-1.75-1.35.1-3.2.05-1.9-.05-3.6.2-5.55.05-10.85.65-5.35.6-10.25 1.75-5.1 1.25-10.7 3.4-5.65 2.2-11.15 4.75t-10.2 4.9q-4.9 2.45-10.9 6.95-6.05 4.45-11.6 9.9t-9.05 10.85q-.85.9-1.5 1.7-.65.8-.95 1.2-2.3 3.15-4.45 8.7-2.15 5.6-3.95 12.65-2.35 5.55-3.55 10.75-1.2 5.2-.7 11.05-1.1 8.55-1.1 15.65 0 7.15 1.4 11.45 1.8 4.65 7.1 10.45 5.3 5.85 11.3 11.45 6 5.65 9.9 9.6 7.5 8.25 12.7 14.05 5.15 5.85 11.55 10 6.35 4.2 17.55 7.45 12.25 3.6 24 6.35 11.8 2.75 23.75 4.4 11.9 1.65 24.6 1.85 6.45 0 13.1.3 6.6.2 13.1 1.4 6.45 1.15 12.5 3.95 6 2.75 11.25 4.4 5.25 1.65 10.4 3.85 5.2 2.25 10.9 6.55 2 1.55 5.5 3.95 3.45 2.45 7.8 5.2 4.3 2.8 8.85 5.35-5.25 5-10.2 10.65-4.95 5.7-8.1 11.3-3.15 5.6-3 10.25.05.6.15 1.2.1.6.3 1.15.35.8.75 1.55t.85 1.45q.2.3.45.6l.5.5-.3-.05q.3.5.7 1 .35.5.75.95 6.85.9 13.25.6 6.35-.25 12.75-1.3 6.4-1 13.25-2.4 6.3-.7 12.7-1.85 6.45-1.2 12.9-2.95.95-.2 1.9-.5 1-.25 2-.55 17.25-4.95 33.15-14.3 15.9-9.3 28.4-23.8 12.5-14.5 19.65-34.95 1.15-3.3 2.65-7.8 1.55-4.55 2.9-9.55 1.4-5 2.1-9.75 2.05-9.8 3.4-19.6 1.3-9.8 2.1-19.15.65-7.1 1.4-13.1.8-6 1.15-12.15.4-6.1-.15-13.55-.55-8.3-.75-15.85-.25-7.55-.6-14.9-.35-7.35-1.45-15-.35-4.05-.95-8.05-.65-3.95-1.65-7.8-1.15-4.45-3.05-10.35-1.9-5.85-4.9-11.2-2.95-5.4-7.25-8.25-1.85-1.65-4.2-2.25m-140.65 44.55l.1-.05v.05h-.1m-37 11.1l-.4-.15-.15-.1q.11.07.2.1.2.05.35.15z" id="v"/><path fill="#FFF" d="M1122.8 255.7q-12.8 17.7-28.05 29.6-15.25 11.9-30.8 9.35-8.3-2-13.3-8.85-4.95-6.8-7.45-15.35-2.45-8.5-3.25-15.75-.75-7.2-.75-10-.1-2.8-1.95-4.65-1.8-1.85-4.5-2.15-2.75-.3-5.5 1.7-4.35 3.3-10.4 7.4-6.1 4.05-13.1 6.85-6.95 2.75-14 2.2-3.45-.5-8.85-4.25-5.45-3.75-11.9-9.25-6.45-5.45-12.9-11.05-6.45-5.65-11.95-9.85-4.35-3.5-15.35-6.45-11-3-27.4-2.25-16.45.75-37.2 8.4-14.4 5.75-23.85 12.85-9.45 7.1-14.4 12.95l-3.95 4.8-1.85 2.85q-3.9 7.5-10.1 24.3-6.15 16.8-12.5 35.55-6.35 18.75-10.65 32.1l-4.5 13.95 2.3 7q2.15 6.55 8.1 17 5.9 10.4 17.45 22.55 11.5 12.15 30.5 23.85 23.6 13.95 47.2 22.7t43.5 13.25q19.9 4.5 32.5 5.75 38.15 4.1 68.2 2 30-2.05 51.95-9.05 21.95-7 35.85-17.7 18.65-14.25 31.8-34.95 13.2-20.7 20.3-46.1 7.1-25.35 7.6-53.75.4-33.9-1.65-56.3-2.05-22.35-4.55-34.35l-3.4-14.8q-1.5-5.4-5-7.1-3.5-1.7-6.95-.55t-4.9 4.4l-9.45 18.5q-8.2 14.95-20.95 32.65z" id="w"/><path fill="#FFF" d="M889.05 162.7q-6.85 3.55-13.1 8.35-6.25 4.75-10.7 9.3-4.45 4.55-5.8 7.35-.9 2.55-1.35 9.55-.45 7-.6 15.1-.15 8.05-.15 13.9v6.1l2.8-.25q2.65-.25 6.15-.65 3.5-.4 6.25-.8l2.2-.4.95-.3q8.7-11.05 13.9-18.95 5.15-7.95 7.6-13.05 2.4-5.1 2.9-7.65.45-2.15 1.05-6.9.65-4.75 1.1-10.2.45-5.45.5-9.65l-.2-3.4-.55-1.8q-6.15.8-12.95 4.35z" id="x"/><g id="y"><path fill="#1D2013" d="M1009 492.75q-.15-.1-.3-.15-.1-.05-.25-.15l.15.3h.4z"/><path fill="#0081c6" d="M957.05 500.85q-1.95.45-4.65 1.15-2.65.7-5.25 1.6 1.3-.95 2.65-1.9 1.35-.9 2.75-1.8 10.85-7.75 23.25-9.6 12.45-1.85 25.35 2.05.85.1 1.75.2t1.75.15l2 .1q.95 0 1.95-.05l-.15-.3q.15.1.25.15.15.05.3.15h.15l.55-.05q.3-.05.6-.05.4-.05.75-.2.4-.1.75-.25l-.05-.1q-1.05-1.85-3.9-3.4-2.9-1.5-6.05-2.55-3.2-1-5.2-1.35-.95-.15-2-.35-1.05-.15-1.95-.1-6.45-.55-13.6.75-7.1 1.35-14 4.15-6.9 2.8-12.65 6.55-1.65 1.2-3.2 2.5-1.55 1.3-3 2.75l-.15.4q-.6.55-1.15 1.1-.6.6-1.1 1.15-.5.6-.95 1.2-.45.6-.9 1.25.35-.1.6-.15.25-.05.45-.1.45-.1.85-.25l.9-.2q6.15-1.55 12.4-3.05 6.25-1.45 12.45-2.95.7-.15 1.4-.35.7-.2 1.4-.45-1.95-.2-4.8.15-2.85.35-5.7.95-2.85.65-4.85 1.1m34.95-13.6l-.5-.1h.3l.8.1h-.6z"/></g><path fill="#FFF" d="M986.25 295.45q-2.35-6.75-7.9-11.65-5.5-4.95-15.3-6.75-9.95-1.5-16.9 1.55-7 3.1-11.65 8.85-4.65 5.8-7.5 12.35-2.85 6.5-4.55 11.9 8.9 1 20.1 2.9 11.2 1.85 23 4.1 11.75 2.2 22.35 4.35.95-6.45.8-13.65-.15-7.25-2.45-13.95z" id="z"/><path fill="#0081c6" d="M827.3 511l-.35-1.95-1.55-.5.05-1.7-17.15-11.4-16.45-9.2-7.45-3.3-10.35-3.35H774l-2.65-.6-13.55-1.95-5.5-.2-8.25.4-8.2 1.45-7.9 2.6-5 2.35-7 4.55-8 7.4-3.4 4.25-2.85 4.7-2.15 5.05-3.6 12.85-5.8 26.4-2.45 22.05-1.75 49.65.05 24.85 8.5 70.8v.05l2.8 15.15 4.15 14.9 1.9 4.9 2.7 4.55.1.1.05.15 1.95 2 4.7 3.25 5 2.5 10.3 3.9 16.1 3.7 8.2.95 11.05.05 10.5-2.45 14.9-5.9 11.75-6.4 2.25-1.5 4.3-3.5 1.65-2.25.05-.2.2-.3 1.1-5.5 2.85-24.85 13.7-149.55 1.5-47.6-.95-11.35z" id="A"/><path fill="#FFF" d="M836.45 489.05q2.8-7.7-1.9-15-4.65-7.35-14.75-13.65-10.05-6.3-23.4-10.85-13.4-4.5-28-6.6-11.35-1.5-21.6 1.4-10.25 2.9-18.55 8.6-8.35 5.7-14.05 12.7-5.7 7-8 13.8l-3.25 11.65-4.6 21.1q-5.3 25.85-8.35 64.5t1.05 83.95q4.15 45.25 20.4 91l1.7 1.8 4.4 3.1q5.75 3.75 16.65 6.85 10.9 3.05 26.8 2.25 10.6-.85 18.7-4.1 8.1-3.25 13.75-7.4t8.9-7.7l4.15-5q3.15-21.1 6.7-58.2l7.45-77.85q3.85-40.8 7.85-72.95l4-26.9 1.95-9.55 2-6.95z" id="B"/></defs><use xlink:href="#a" transform="matrix(.11015 .0448 .11441 -.14589 1006.65 835.5)"/><use xlink:href="#b" transform="matrix(-.15881 .07591 .00226 .13239 1365.8 647.7)"/><use xlink:href="#c" transform="matrix(.00912 -.13936 -.18878 .09294 1228 925.15)"/><use xlink:href="#d" transform="matrix(.0402 -.16368 -.1722 .04654 1189 974.55)"/><use xlink:href="#e" transform="matrix(-.05283 -.07045 -.11302 .09721 1275.35 829.6)"/><use xlink:href="#f" transform="matrix(-.05283 -.07045 -.11302 .09721 1275.35 829.6)"/><use xlink:href="#g" transform="matrix(.05415 -.11986 -.1124 .00688 1165.2 910.3)"/><use xlink:href="#h" transform="matrix(-.05283 -.07045 -.11302 .09721 1275.35 829.6)"/><use xlink:href="#i" transform="matrix(-.05283 -.07045 -.11302 .09721 1275.35 829.6)"/><use xlink:href="#j" transform="matrix(-.48985 .65398 -.57713 -.77852 1671.9 -155.1)"/><use xlink:href="#k" transform="matrix(.98845 -.25632 .08987 .7484 8.2 525.45)"/><use xlink:href="#l" transform="matrix(.98845 -.25632 .08987 .7484 8.2 525.45)"/><use xlink:href="#m" transform="matrix(.12918 .65936 .6552 -.12538 445.6 30.7)"/><use xlink:href="#n" transform="matrix(.66418 .07338 -.07864 .66618 362.75 226)"/><use xlink:href="#o" transform="matrix(.38649 -.52667 .5653 .40486 472.1 1007.85)"/><use xlink:href="#p" transform="matrix(.73813 .06105 -.13698 .65211 331.15 243.85)"/><use xlink:href="#q" transform="matrix(.86014 .37874 -.30975 .62305 308.85 -9.4)"/><use xlink:href="#r" transform="matrix(.6876 -.01595 .19246 .8092 182.85 167.05)"/><use xlink:href="#s" transform="matrix(.71796 .15718 .00697 .75488 328.9 70.25)"/><use xlink:href="#t" transform="matrix(.71117 .09561 -.1699 .48653 372.2 356.15)"/><use xlink:href="#u" transform="matrix(.71117 .09561 -.1699 .48653 372.2 356.15)"/><use xlink:href="#v" transform="matrix(.7024 .18878 -.21793 .64546 364.75 289.65)"/><use xlink:href="#w" transform="matrix(.7024 .18878 -.21793 .64546 364.75 289.65)"/><use xlink:href="#x" transform="matrix(.66438 -.13727 .25256 .62846 290 579.05)"/><use xlink:href="#y" transform="matrix(-.42357 -.08958 -.0919 .55447 1452.5 520.95)"/><use xlink:href="#z" transform="matrix(.66806 .18 -.20972 .6204 372.4 299.3)"/><use xlink:href="#A" transform="matrix(.15181 -.7443 .68729 .18652 440.3 1195.75)"/><use xlink:href="#B" transform="matrix(.15181 -.7443 .68729 .18652 440.3 1195.75)"/></svg>