<svg xmlns="http://www.w3.org/2000/svg" xmlns:xlink="http://www.w3.org/1999/xlink" preserveAspectRatio="none" width="760" height="880" viewBox="620 10 760 880"><defs><path fill="#a6ce38" d="M1026 343.75q-23-4.55-44.15-5.75-21.2-1.25-34.85-.9l-14.15.45-6.8 14.25q-6.4 13.4-13.6 28.5-7.2 15.05-10.05 21.15l180.85 23.65-2.35-10.4q-2.2-9.9-5.1-23-2.95-13.05-5.2-23.1l-2.45-10.85q-19.15-9.5-42.15-14z" id="a"/><path fill="#a6ce38" d="M1001.3 267.15q-15.6 1.8-25.15 7.4-9.55 5.55-13.9 10.55-4.6 5.15-13 19.85-8.4 14.7-15.2 28.7l-5.1 11.25-1.65 5.8q1.5 5.7 11.65 11.85 10.1 6.15 24.4 11.1 14.25 4.9 28.2 6.9 16.55 2.1 33.15.8 16.55-1.3 28.7-5.5 12.15-4.25 15.35-10.85l-1.4-28.15q-1.5-20.5-7.7-40.2-6.2-19.7-20.15-25-22.55-6.3-38.2-4.5z" id="b"/><path fill="#a6ce38" d="M1106.5 326.35q7.25-7.45 12.1-15.35l-3.55-2.1-10.1-4.2q-13.4-5.25-36.75-7.1l2.95 10.5q3.05 9.8 6.7 21.3 3.65 11.5 5.55 17.3 2.65-1.95 9.25-7.4 6.55-5.5 13.85-12.95z" id="c"/><path fill="#a6ce38" d="M1015.35 632l-41.8 2.3L989 819.4l26.35-187.4z" id="d"/><path fill="#a6ce38" d="M1037.75 310.3q-28.5-9.5-51.15-7.95-22.7 1.55-28.75 13.2-5.15 11.9-9.05 29.15-3.95 17.3-7.2 35.75t-6.4 34q-.95 11.1 24.45 14.2 25.4 3.15 59.95 1.7 34.55-1.45 61.15-4l28-2.85-4.85-21.15q-4.55-19.6-9.1-39.35l-5.05-21.65q-23.5-21.55-52-31.05z" id="e"/><path fill="#a6ce38" d="M1012.35 269.55q-15.25 1.75-24.45 7.2-9.2 5.5-13.5 10.45-4.35 4.65-9.75 13.8t-9.85 19.5q-4.45 10.35-5.9 18.45-.9 7.85 8.25 17.3 9.1 9.5 24.1 16.95 14.95 7.45 31.55 9.2 16.7 1.25 34-2.55 17.35-3.85 30.2-10.35 12.85-6.5 16.1-13.25-.1-7.45-4.95-25.25-4.8-17.75-14.3-34.75-9.55-17-23.7-22.1-22.55-6.3-37.8-4.6z" id="f"/><path fill="#a6ce38" d="M1040.4 290.7q-3.7-5.25-11.25-5.6-8.85.45-13.2 7-4.3 6.5-5.15 14.65l35.45.25-1.05-5.7q-1.1-5.3-4.8-10.6z" id="g"/><path fill="#a6ce38" d="M751.55 592.25l-33.1-15.45q-31.4-14.65-72.8-33.95-41.35-19.35-72.95-34.05l-33.5-15.6q-2.05 17.75-1.3 45.5.8 27.75 3.9 55.4 3.15 27.65 8.2 45.1l36.15-.25q33.95-.35 78.35-.9 44.45-.6 78.15-1.05l35.5-.45q-6.6-11.15-13.15-21.9-6.55-10.8-13.45-22.4z" id="h"/><path fill="#a6ce38" d="M901.15 445.75l-9.45 2.5q-2 9.15-4.95 27.1-2.9 17.9-7.45 42.05-4.55 24.2-11.5 52-6 24.9-15.5 50.9t-26.2 51.6q-16.7 25.6-44.3 49.3l12.6 1.85 23.35-2.45q28.75-4.55 70.05-17.05t86.3-32.35q52.95-24 83.6-48.35 30.65-24.3 44.3-48.7 13.65-24.4 15.6-48.55 2.15-25.45-.45-50.4-2.6-25-6.1-41.95l-4.2-18.1-33.6 4.5q-31.85 4.4-73.75 10.55-41.9 6.1-73.85 11.3l-24.5 4.25z" id="i"/><path fill="#0083CB" d="M1022.3 307.6l-1.95-.6-2.05-.25-2.05.25-1.9.6-1.8 1.05-1.5 1.3-1.3 1.7-.9 1.85-.6 2-.15 2.1.15 2.05.6 2 .9 1.9 1.3 1.65 1.5 1.35 1.8 1 1.9.65 2.05.2 2.05-.2 1.95-.65 1.75-1 1.5-1.35 1.3-1.65.95-1.9.55-2 .2-2.05-.2-2.1-.55-2-.95-1.85-1.3-1.7-1.5-1.3-1.75-1.05z" id="j"/><path fill="#a6ce38" d="M1032.8 313.4l-.75-4.85q-.85-4.45-3.65-8.95-2.8-4.45-8.5-4.7-6.65.35-9.9 5.9-3.25 5.5-3.9 12.4l26.7.2z" id="k"/><g id="l"><path fill="#DF4444" d="M1255.9 370.2v.7l.15 1.6q.25 2.05.65 4.65.4 2.6.75 4.6l.4 2.3-.2-2.4q-.3-2.15-.65-4.9-.4-2.75-.75-4.7l-.35-1.85z"/><path fill="#FFF" d="M1081.2 230.6q-6.15-4.6-8.85-9.45l-17 157.4q2.45.8 8.45.8 6 .05 14-.25t16.45-.35q8.45-.05 15.85.7 6.9.75 16.7 3.3 9.8 2.5 20.85 6.25t21.75 8.2q10.7 4.45 19.4 9.05 5.25 2.8 12.15 5.65 6.85 2.85 14.45 5.1 7.6 2.25 15.1 3.3 7.45 1 13.85.2 4.7-.7 7.9-2.2 3.2-1.55 5.3-3.5 2.05-2 3.35-4.05 3.3-5.35 3.25-12.45-.05-7.15-1.85-13.85-1.8-6.7-3.8-10.8l-1.65-2.95-.55-.55-.4.05.35 1.85q.35 1.95.75 4.7.35 2.75.65 4.9l.2 2.4-.4-2.3q-.35-2-.75-4.6-.4-2.6-.65-4.65l-.15-1.6v-.7q-.6 3.8-5.1 5.25-4.45 1.45-11.75-.1t-16.45-6.8q-9.1-5.3-19-15.05-8.6-8.75-17.9-20.6-9.35-11.85-19.25-24.95-9.85-13.05-20.2-25.45-10.3-12.35-20.9-22.15-6.4-5.65-14.35-10.7-8-5-15.85-9.7-7.85-4.7-13.95-9.35z"/></g><path fill="#0081c6" d="M1070.05 179.2l-1.15-.3q-.9-.2-1.7-.45-.05.4-.1.85l-.05.4v.2q-.4 3.2-.8 6.45-.35 3.25-.9 6.45-.9 5.55-1.2 11.3-.3 5.8-.75 11.45-1.1 11.9-2.3 23.85-1.2 11.9-2.25 23.85-1.4 16.15-3.35 32.3-1.9 16.2-3.65 32.35-1.75 16.2-2.65 32.4-.1 1.8-.25 3.95-.1 2.1.05 4.15.1 2.1.65 3.85l.15.25.2.5q.3.65.5 1.2.35.55.95 1 .6.4 1.15.3 1-.25 1.45-1 .4-.75.55-1.7.15-.95.25-1.8 2.6-16.05 4.65-32.1l4-32.2q1.35-10.1 3.65-20.05 2.3-9.9 5.05-19.75l.05-.3.15-.55q.2-.65.35-1.2-.05.45-.1 1l-.1.45v.2q-.55 4.9-.9 9.75-.35 4.9-.9 9.75-.95 7-2.05 14.05-1.05 7.05-1.6 14.15-.55 7.05 0 14.15.2 2.3-.15 4.55-.3 2.25-.55 4.55-.1.7-.2 1.5-.05.8.15 1.5l.3.75.3.15q.3-.05.5-.85-.05.45-.1.95l-.05.45v.25q-.85 6.3-1.8 12.65-.95 6.3-1.35 12.7-.2 2.35-.4 4.75t0 4.75q0 .4.05.8.1.4.15.8l.25.8q.2.7.5 1.2.5-.25 1-.65l.4-.3.2-.2q1.35-1.55 1.9-4.15.55-2.6.65-5.35.1-2.75.15-4.7.2-3.8.8-7.75.6-4 1.15-7.75 2.05-15.05 3.9-30.1 1.85-15.1 2.75-30.25l.4-6.4q.2-3.15.45-6.4 1.2-13.45 2.5-26.85 1.3-13.45 2.2-26.9l1.2-16.4q.65-8.25.85-16.45 0-.85.05-1.65v-1.7-.75q-.05-.4-.1-.75-.05-.8-.2-1.1-.15-.25-.5-.35-.4-.15-1.1-.45-.7-.3-1.45-.65-.7-.35-1.45-.6-.7-.15-1.45-.35-.7-.15-1.45-.4-.8-.25-1.6-.65-.75-.4-1.55-.65-.7-.2-1.45-.25-.75-.05-1.4-.15-.4-.1-.75-.15-.35-.1-.75-.2z" id="m"/><path fill="#FFF" d="M1068.2 188.5v.25q-4.65 45.8-9.15 91.6-4.5 45.75-9.4 91.55-6.65 61.75-13.95 123.4-7.35 61.7-15.35 123.3-5.5 42.2-11.15 84.35-5.65 42.2-10.95 84.45-.05.4-.1.85-.05.45-.1.85l-.15 1.25q-.15.95-.25 1.8-.05.45-.15 1l-.05.45v.25q-.15.85-.25 1.7l-.2 1.7-.1.85q-.1.45-.15.9l-.1 1q-.1.85-.2 1.55h1l.4.05h.25q3.35.1 6.7.15 3.35.05 6.7.15l1 .05h1.5q.05-.45.1-1l.1-.7q8.65-69.35 17.15-138.7 8.55-69.35 16.5-138.75 8-69.4 14.95-138.95 4.75-48.1 9.2-96.2 4.4-48.1 8.9-96.25 0-.4.05-.85.05-.45.1-.85l.05-.9q.05-.65.1-1.25-.45 0-1-.05h-.7q-1.7-.1-3.45-.15-1.7-.05-3.4-.15l-.85-.05h-.9l-.35-.05h-.65q-.85-.05-1.55-.05-.05.45-.1 1l-.05.45z" id="n"/><path fill="#FFF" d="M882.55 535.5q-2.2-9.85-7.95-16.4-5.7-6.5-16.4-5.75-13.9 1.5-33.1 6.55-19.25 5-38.85 11.4t-34.65 12q-15 5.65-20.6 8.4-10.4 5.1-19.85 11.05-9.5 5.95-16.5 13.15t-10 16.05q-3 8.9-.45 19.85 1.65 6.8 5.75 19.45 4.05 12.6 10 29.05 5.95 16.45 13.2 34.75 7.3 18.25 15.35 36.35l-.2 3.85q-.35 3.05 1 6.75t6.5 6.5q5.15 2.8 16.25 3.05 14.1 0 23.75-3.05 9.65-3.1 15-6.8l4.3-3.3 2.25-2.35q1.45-15.75 4.8-32.75 3.35-16.95 7.65-32.35 4.3-15.4 8.55-26.4 4.3-11 7.6-14.8 3.2-3.45 8.95-7.25 5.75-3.8 13.25-7.8 7.55-4.05 16.05-8.25 8.8-4.55 14.05-12 5.3-7.45 6.85-14.75 1.6-7.35-.7-11.6.55-4.5.45-13.65-.15-9.15-2.3-18.95z" id="o"/><path fill="#0081c6" d="M1137.8 562.05l-.85-2.65-.05-.05-.05-.15-.05-.05-1.5-2.15-1.95-1.85-4.3-2.9-8.95-4.6h-.1l-5.4-1.85-2.75-.6-5.65-.65H1095l-22 2.85-10.85 2.35-34.4 10.4-10.25 4.3-.05.05h-.05l-2.2 1.2-8.25 5.9-7.15 7.1-.95 1.15-.25-.75-.35-.45-1-.25-.95.5-.3.45-.05.65.3 3.1-2.3 3.55-.2.6.05.55.7.85 1 .2.5-.25.4-.5.3-.5 2.4 16.6 2.5 7.5 7.65 41.85 20.2 90 1.85 5.2 1.25 2.45.1.1.05.1 1.55 2.05 1.85 1.9 4.1 3.15 6.85 3.55 7.3 2.35 2.45.55h.05l18.75 2.55 8.15.45 11-.45 2.7-.55.05-.05h.1l11.85-4.8 9.05-4.9 4.2-3.05.15-.2.2-.15 1.35-2.3 1.05-2.5 8.15-27.3v-.05l.65-2.55 9.8-66.15.5-31.75-.55-23.7-1.15-10.55-4.6-17.4-.45-7.5z" id="p"/><path fill="#FFF" d="M1101.4 492q-12.1-13.65-27.4-26.3-15.3-12.7-30.5-20.35-15.15-7.7-26.75-6.45-14.25 2.2-21.4 8.35-7.2 6.15-9.6 14.3-2.4 8.15-2.2 16.45.15 8.25.6 14.7.3 6.25 3.05 21.4 2.75 15.2 7.15 36.45 4.4 21.25 9.7 45.7 5.3 24.4 10.7 49.05 4.75 21.55 8.95 41.15 4.25 19.6 7.55 35.5 3.3 15.95 5.3 26.5l2.55 2.15 4.95 2.75q6.15 3.05 15.3 5.5 9.2 2.4 19.65 2.35 14.9-.4 23.45-2.9 8.5-2.55 12.15-5.25l2.75-2.35 1-1.5q13.75-48.15 17.35-87.6 3.6-39.4.85-69.25-2.75-29.8-8.1-49.05-5.35-19.25-9.5-27-5.45-10.65-17.55-24.3z" id="q"/><path fill="#FFF" d="M656.95 766.95l-8.05-.8q-1.6 0-2.6 1.1-1.05 1.1-1.1 2.55-.05 1.5 1.3 2.7l2.6 1.4 5.45 2.2q6.9 2.6 18.4 4.6 11.45 2 26.2 1.2 14.7-.75 31.5-6.45 11.65-4.35 21.95-12.65 10.35-8.3 18.3-17.35 8-9.05 12.6-15.55l4.8-7.25-1.05-1.4-2.9-2.8q-3.8-3.5-8.4-7.55-4.65-4-7.35-6.3-2.1 3.35-7.35 10.9Q756 723 748.5 732q-7.45 9.05-16.15 16.9-8.75 7.85-17.75 11.9-9.9 4.1-20.75 5.6-10.85 1.45-20.6 1.35-9.7-.15-16.3-.8z" id="r"/><path fill="#FFF" d="M985.85 192.35l2.2-3.4.8-2.05q-4.05-2.1-9.95-3-5.95-.85-12.2-.85-6.25.05-11.25.7-5.05.65-7.3 1.6-1.85 1.05-5.6 4.95-3.75 3.9-7.8 8.65-4.1 4.75-7 8.2l-3.05 3.65 2 1.35q1.85 1.2 3.85 2.4l1.6.9.85.3q11.4-1.85 18.85-3.15 7.4-1.3 12.05-2.6 4.65-1.25 7.75-3 3.35-2.05 7.35-6.3 3.95-4.3 6.85-8.35z" id="s"/><path fill="#FFF" d="M752.8 734.5l.2 26.95q.15 24.95.4 57.5.25 32.6.45 57.45l.2 26.6q6.15 5.05 19.85 7.2 13.65 2.1 30.5 1.65 16.9-.5 32.75-3.3 15.9-2.8 26.45-7.55l4.5-20.7q4.15-19.3 9.55-44.65 5.4-25.3 9.5-44.6l4.35-20.5q-7.45-13.9-26.4-22.45-18.9-8.55-41.85-12.5-22.9-3.95-42.4-4-19.45-.1-28.05 2.9z" id="t"/><path fill="#0083CB" d="M943.65 840.8q-1.05-2.05-1.45-3.45-.75-2.75-1.15-5.5-.35-2.8-.9-5.5l-.5-1.5-.55-.4q-.6.1-1.05 1.35-.4 1.2-.4 2.45.15 3.15 1.1 7.5.95 4.35 3.1 7.95 2.1 3.6 5.8 4.45 3.45.45 5.8-2.6 2.35-3 3.65-7.05 1.3-4.05 1.65-6.75.15-1 .2-2.9.05-1.9-.25-3.6-.3-1.75-1.25-2.3l-.2-.05q-.15 0-.2.05-.35.35-.45.85l-.15.7q-.25 1.9-.3 3.9 0 2-.35 3.95-.3 1.7-1.15 4.5-.85 2.8-2.15 5.3-1.3 2.45-3 3.1-1.75.45-3.3-.95-1.5-1.45-2.55-3.5z" id="u"/><path fill="#0081c6" d="M951.25 738.5q-.15-3.15-.55-4.95-.4-1.8-1.65-2.05-1.3-.25-3.95 1.25-.75 1.5-.85 3.3-.15 1.85 0 3.35-1.35 1.4-2.55 3.25-1.2 1.85-2.05 3.45l-1.1 2.15q-5.1 12.35-6.25 30-1.2 17.7.85 36.75t6.6 35.5q4.5 16.5 10.8 26.55.35.55.95 1.5t1.4 2q.2 1.65 1.15 2.65.9 1 3.2.35l.15-.15q.2.05.35 0 .2 0 .4-.05v-.3-.35q1.55-2.05 1.65-5.25.15-3.15-.25-5.75l-.45-2.8q-1.9-32.6-3.9-65.2t-3.95-65.2z" id="v"/><path fill="#FFF" d="M775.35 771.35l4.9 7.95q4.65 7.55 11.05 18.1 6.4 10.6 11.95 19.9 5.5 9.35 7.4 13.2 2.8 5.9 6.7 16.8 3.95 10.85 7.75 22.5 3.85 11.6 6.45 19.7l2.75 8.5q6.05 4.2 22.45 7.3 16.4 3.1 36.25 3.95 19.85.9 36.4-1.55 16.5-2.5 22.85-9.4.9-12.35.75-25.05-.2-12.65-.85-25.25-.7-12.6-1.25-24.65-.75-18.4-1.65-35-.85-16.65-1.65-29.7-.8-13.05-1.3-20.65l-.4-7.85q-19.4-5.4-41.8-2.7-22.45 2.65-45.55 10.2-23.1 7.55-44.5 16.75-21.4 9.25-38.7 16.95z" id="w"/><path fill="#0083CB" d="M943.35 838.65q-1.2-2.6-1.95-5.7-.8-3.05-1.8-5.85l-.4-.7-.3-.15q-.3.15-.45.85-.15.7-.15 1.4.2 3.1 1.2 6.95 1 3.8 2.75 6.95 1.7 3.15 4.05 4.3 4 1.55 6.85-1.1 2.85-2.65 4.45-7.45 1.6-4.75 1.75-9.5v-1.7q-.05-1-.25-1.8-.25-.75-.7-.7-.15.3-.3.65l-.15.5q-.6 2-.85 4.2-.3 2.15-.8 4.3-1.15 4.45-3.3 7.15t-4.75 2.35q-2.55-.35-4.9-4.95z" id="x"/><path fill="#FFF" d="M767.75 370.25q-6.5 10.05-12.3 20.9-5.4 10.3-10.9 21.95-5.5 11.65-9.95 21.85-4.45 10.15-6.7 16l43.35 4.1q41.25 3.35 95.3 7.25 54.1 3.9 94.95 6.2l30.95 1.4 8.1.05 3.2-.45q-1.65-3.05-7.75-9.25t-13.95-13.3q-7.85-7.1-14.8-12.75-6.95-5.7-10.25-7.65l-29.95-15.4q-25.65-13-57.9-29.25-32.25-16.3-56.35-28.4l-25.35-12.75q-2.35 3.95-7.75 11.7-5.4 7.75-11.95 17.8z" id="y"/><path fill="#0081c6" d="M948.5 775.95l-.85-1.6q-.65-1.15-1.55-2.5-.95-1.4-1.9-2.4-.65-.1-.8.45-.2.5-.3 1-.6 2.8-.2 4.5.4 1.75 1.45 3.25 1.05 1.5 2.45 3.6l.65 1.65q.45 1.25 1.1 2.8.65 1.5 1.45 2.65l.2-.1.2-.15q.15-.3.15-.65 0-.35.05-.5.45-1.1.1-3.45-.35-2.4-1-4.85-.7-2.45-1.2-3.7M857.6 787q.25.25.4.3l4.75.5q4.15.25 8.55.45l5.85.3q.45.05 1.55.2 1.05.1 2.15.05 1.15-.1 1.85-.6-.2-.2-.45-.4l-.35-.25q-.4-.3-1.1-.55-.65-.25-1.6-.45.1 0 .25-.05.1-.05.2-.15 0-.15-.2-.3t-.3-.2q-.95-.7-3.2-.9-2.2-.2-4.45-.2h-3.55l-1.7-.15q-1.35-.1-2.5-.3-.25 0-.45.1-.25.1-.35.25-.45 0-.9-.05-.45 0-.8-.05-.25 0-.6.2t-.45.4l.05.1-.8-.05q-.35-.05-.7-.05-.55.1-1.05.45-.45.3-.35.9 0 .3.25.5m87.65-132.85q-7.2 17.5-12.4 35.65-5.15 18.15-8.3 38.65-.85 5.35-1.55 10.45-.7 5.05-1.15 9.95.4-.15.8-.25.35-.15.65-.2.3.05.65.1.4.1.5.2 1.6 1.7 3.1 6.2 1.45 4.45 2.75 9.5 1.25 5.05 2.1 8.5.65-.1 1.55-.05.85.05 1.9.25 0-2.45.9-5.25.9-2.85 2.95-4.5 2.1-1.7 5.75-.7 1.5.75 3 2t2.65 2.45q1.15 1.2 1.5 1.75 1.35 1.9 3.1 5.05 1.7 3.2 2.95 6.4 1.3 3.2 1.25 5.2 1.2-.3 2.55-.6 1.4-.3 2.9-.6l1.2-.3q1-.25 2.2-.6 1.15-.35 2.1-.75.75-.45 1.7-.65.95-.15 1.95 0 1.55-1 3.85-1.7 2.35-.7 4.6-1.1 2.2-.4 3.5-.55l2.9-.5q1.4-.25 2.85-.5 1-.6 2.05-1.05 1-.5 1.95-.85.6-.7 1.3-1.4.65-.7 1.4-1.35.5-.45 1.3-1.1.75-.7 1.7-1 .95-.3 1.95.25.1.25.15.5l.1.5q4.3-4.75 8.5-9.5t9.4-8.5q.35-.35.75-.65.4-.3.75.2.1 1.05-.5 2.15-.55 1.05-1.2 1.85l-.9 1.15q-1.5 2.1-3 4-1.55 1.95-3.15 3.75 4.35-4.45 8.3-9.1 3.95-4.6 8.2-9.5l1-1.05q.75-.7 1.8-1.5 1-.75 2-1.15.9 1.85-.55 4.65-1.45 2.8-3.35 5.1l-2.35 2.8q1.125-1.256 2.4-2.4l.4-.3q.35-.2.75-.3.6 1.6-.8 3.7-1.35 2.15-3.05 3.8l-2.05 2-.3.3-.3.3q-.5.55-1.05 1.1-.6.5-1.15 1.05-1 .9-2.1 1.8-1.05.9-2.2 1.8-1.4 1.1-2.85 2.2-1.45 1.05-2.95 2.1-.9.6-1.75 1.2-.9.6-1.75 1.2-1.05.7-2.05 1.4-1 .65-2.05 1.35-1.25.95-2.55 1.85-1.3.95-2.65 1.85-.55.35-1.1.75-.55.35-1.15.7.6.05 1.2.15.6.05 1.2.2 4.7-1.75 9-3.7 4.25-1.9 7.6-3.7 16.05-8.55 28.8-19.9 12.75-11.35 22.15-24.9 9.35-13.5 15.2-28.75 2.4-5.05 4.4-10.5 1.95-5.4 3.45-11.05 1.1-2.55 1.75-5.5.6-2.9.9-5.95 2-10.7 2.7-21.75.7-11.05.2-22.1.3-18.6-3.4-37.3-3.65-18.75-12.1-37.4l-1.6-3.5-1.6-3.55q-.3 1.85.4 4.1.75 2.2 1.05 4.3.35 2.1-1.2 3.5-2.8 2.2-4.15.5-1.35-1.65-2-4.75-.65-3.05-1.3-5.15-3.25.6-5.4-3.2-2.15-3.85-3.45-9-1.35-5.2-2.15-8.7l-.5-1.9q-.35-1.45-.8-3.25-.45-1.85-.85-3.3-.6-.65-1.55-.4l-.8.2-.45.05q-2.15-1.3-2.25-4.05-.1-2.75 1.2-6.4-20.2 13.7-37.85 32.2-17.65 18.5-31.75 38.8-14.1 20.35-23.7 39.6-9.35 18.45-16.6 35.9m143.9 35.65q.25-.9.45-1.75.2-.9.45-1.75l.15-.25.2-.2-.6 2q-.3.95-.65 1.95m-389.6-158.1q-.3-.5-.6-.9-.15-.2-.35-.3-.2-.1-.45-.1-.3-.4-.65-.75-.3-.35-.6-.65-1.25-.5-.95.2.3.75 1.2 2.05v.5q.05.3.1.7l-.75-1.65q-.5-.95-1.2-2.05-.7-1.15-1.55-1.95-.85-.45-1-.1-.1.35.15 1.15.25.8.55 1.65 4.05 12.5 9 25 4.9 12.5 8.75 25.15 3.85 12.7 4.7 25.7-.2 4.2-.55 8.65-.4 4.45-1.05 8.6-.7 4.1-1.7 7.35-.25 2.15-.65 4.3-.35 2.15-.95 4.35-.2 1.25-.45 2.5-.25 1.2-.55 2.4l-.1.5q-.05.3-.05.55l-.1.7q-.05.35-.1.65-.55 3.6-1.05 7.05-.55 3.45-1.3 7.05-.35 1.9-.8 3.75-.45 1.85-.95 3.65-1.25 3.3-2.35 6.7-1.05 3.4-1.95 5.35-2 4.15-3.45 10.1-1.5 5.9-1.9 12.5.25 1.5.6 3 .3 1.5.7 3l.05.15q0 .1.05.2 0 .1.05.25.35 1.3.85 2.65.45 1.35 1 2.75l.5 1.1q.25.55.5 1.15.3.55.55 1.1.3.55.6 1.15l.5.9q.25.4.5.85l.3.45q.15.25.25.5.65 1 2.2 3.2 1.6 2.2 2.9 4.35l1.05 1.85.35 1.2q0 .15-.1.45-.1.3-.45.45l-.45-.05q.1.15.25.3.1.15.25.3.85.5 2.5 1.55t3.6 2.4q1.65-1.55 2.7-3.3 1.1-1.8 1.6-2.55 8.15-9.15 12.85-15.3 4.75-6.1 7.05-12.2 2.35-6.05 3.25-15.2 4-17.4 4.2-35.8.2-18.45-3.8-36.9-4.05-18.45-12.8-35.9-1.85-3.6-3.85-6.85-2.05-3.3-4.15-6.3-.9-3.45-2.15-6.5t-3.05-5.35q-1.2-1.45-2.25-3.25-1.1-1.85-2.1-3.7l-.85-1.6q-.65-1.25-1.5-2.8-.85-1.55-1.65-2.75-.5-.4-1.05-.4-.55-.05-.95.4-.1.1-.15.3-.05.15 0 .4-1.05-1.6-2.1-3.15-1.05-1.6-2.1-3.1l-.7-1-1.4-1.75-.5-1m19.75 38.6l-.1-.35.1.15v.2m337.3-66.9q.05.2.15.4.1-.15.15-.35.1-.15.2-.35-.15-.05-.35-.1-.15 0-.3.05.05.2.15.35m46.7-14.7l-.5.9q.55-.3.95-.7.45-.4.65-.9l-.3-.1-.3-.1-.5.9M710.5 598.25l.2.6v-.95-.95q-.15.15-.25.3t-.1.4q.05.3.15.6z" id="z"/><path fill="#FFF" d="M753.55 440.15l-10.25 3q-9.65 3.1-21.85 10.05-12.2 6.95-20.3 18.55-8.1 11.6-5.5 28.6 1.9 10.45 4.5 22.75 2.65 12.3 7.4 29.3t13 41.45q1.55 4.9 1.25 13.2-.35 8.35-1.8 18.45-1.5 10.1-3.35 20.35-1.9 10.25-3.5 19.05-1.4 7.3-4.25 14.8-2.8 7.5-5.1 15.6-2.35 8.1-2.4 17.1 0 9 4.15 19.3 7.15 14.35 39.7 26.4 32.55 12.05 75.25 20.35 42.75 8.3 80.55 11.4 37.8 3.1 55.5-.45 18.6-3.85 36.25-9.15 17.65-5.3 33.8-15.1 16.1-9.8 30-27.2 11.85-15.2 19.9-35.55 8.05-20.35 12.05-43.15 4-22.75 3.6-45.3-.35-22.6-5.35-42.25-6.15-23.1-13.65-38.95-7.5-15.9-14.65-25.6-7.1-9.7-12.1-14.35l-6.05-5.3-45.85-8.25q-42.75-7.15-98.5-16.15-55.75-9.05-98-15.8l-44.45-7.15z" id="A"/><path fill="#0081c6" d="M1162.4 196.4q-2.35-.6-5.15.05-.25.05-.85.2-.65.1-1 .55-1.35 1-2.9 2.45-1.55 1.5-2.75 2.75l-1.45 1.7q-5.55 8.65-10.45 16.8-4.9 8.2-10.05 16.1-1.65 1.8-3 3.85-1.4 2.05-2.6 4.25-2.7 3.7-5.7 7.35-3 3.7-6.4 7.4-4.5 5.05-9.15 10.9-4.7 5.85-9.9 11l-.7.45-.7.4-.25.1q-4.2 2.25-8 4.55-3.75 2.3-7.9 3.5-4.15 1.2-9.5.2-3.55-.8-6.7-3.4-3.1-2.6-5.7-6.35-2.6-3.75-4.55-8v-1.3q-.05-.6-.05-.8-.35-3.15-1.1-6.1-.75-2.95-1.55-5.85-.3-2.95-.55-5.6-.25-2.7-.6-4.85-.3-1.75-.55-3.4-.25-1.6-.9-3.2-.55-1.7-1.5-3.1-1-1.45-2.55-2.4l-.45-.45q-.2-.15-.35-.25-3.9-2.15-9.7.1-5.8 2.2-11.95 6.2-6.1 4-11 7.15-1.05.5-1.9.95l-1.15.65q-.25.1-.45.2l-.4.2q-7.75.65-14.45-1.9-6.65-2.5-13.1-7.55-6.45-5-13.55-11.7-2.25-2.1-4.7-4.15-2.45-2.05-5.1-3.95l-.3.2-.3.2q-.4.25-.7.6-.3.3-.55.75-.05.1-.1.25l-.1.3-.7-.25-.25.1q-.05.35.25 1l.5 1 .05.2q-1.1 4.35-2.75 5.65-1.7 1.3-3.95.65-2.3-.7-5.15-2.3l-.35 1.3q-.35 1.15-.9 1.95-2.9 3.45-4.9 2.85-2.05-.6-4.2-2.1-2.1-1.5-5.3-.75-3.55 1.1-5.75 1.4-2.15.25-4.4-.15-2.25-.4-6.1-1.3-5.75-1.25-9.5-1.3-3.8-.05-7.5.35-3.65.45-9.05.65-5.4.15-9.15 1.35-3.75 1.15-6.95 3.6-3.25 2.45-6.95 6.5-6.85 7.1-14.45 14.55-7.6 7.45-14.35 15.6-6.75 8.15-11.1 17.3-.55 1.15-1.65 3.65-1.05 2.5-2.5 5.85-1.45 3.3-3.15 7.05-.3.75-.65 1.5-.35.7-.65 1.45-.45.9-.85 1.75-.4.9-.8 1.75-.6 1.25-1.2 2.45l-1.15 2.4q.15 1.6.45 3 .25 1.4.65 2.5 1.8 4.65 7.1 10.45 5.3 5.85 11.3 11.45 6 5.65 9.9 9.6 7.5 8.25 12.7 14.05 5.15 5.85 11.55 10 6.35 4.2 17.55 7.45 12.25 3.6 24 6.35 11.8 2.75 23.75 4.4 11.9 1.65 24.6 1.85 6.45 0 13.1.3 6.6.2 13.1 1.4 6.45 1.15 12.5 3.95 6 2.75 11.25 4.4 5.25 1.65 10.4 3.85 5.2 2.25 10.9 6.55 2 1.55 5.5 3.95 3.45 2.45 7.8 5.2 4.3 2.8 8.85 5.35-5.25 5-10.2 10.65-4.95 5.7-8.1 11.3-3.15 5.6-3 10.25.05.6.15 1.2.1.6.3 1.15.35.8.75 1.55t.85 1.45q.2.3.45.6l.5.5-.3-.05q.3.5.7 1 .35.5.75.95 6.85.9 13.25.6 6.35-.25 12.75-1.3 6.4-1 13.25-2.4 6.3-.7 12.7-1.85 6.45-1.2 12.9-2.95.95-.2 1.9-.5 1-.25 2-.55 17.25-4.95 33.15-14.3 15.9-9.3 28.4-23.8 12.5-14.5 19.65-34.95 1.15-3.3 2.65-7.8 1.55-4.55 2.9-9.55 1.4-5 2.1-9.75 2.05-9.8 3.4-19.6 1.3-9.8 2.1-19.15.65-7.1 1.4-13.1.8-6 1.15-12.15.4-6.1-.15-13.55-.55-8.3-.75-15.85-.25-7.55-.6-14.9-.35-7.35-1.45-15-.35-4.05-.95-8.05-.65-3.95-1.65-7.8-1.15-4.45-3.05-10.35-1.9-5.85-4.9-11.2-2.95-5.4-7.25-8.25-1.85-1.65-4.2-2.25m-140.65 44.55l.1-.05v.05h-.1m-37 11.1l-.4-.15-.15-.1q.11.07.2.1.2.05.35.15z" id="B"/><path fill="#FFF" d="M1122.8 255.7q-12.8 17.7-28.05 29.6-15.25 11.9-30.8 9.35-8.3-2-13.3-8.85-4.95-6.8-7.45-15.35-2.45-8.5-3.25-15.75-.75-7.2-.75-10-.1-2.8-1.95-4.65-1.8-1.85-4.5-2.15-2.75-.3-5.5 1.7-4.35 3.3-10.4 7.4-6.1 4.05-13.1 6.85-6.95 2.75-14 2.2-3.45-.5-8.85-4.25-5.45-3.75-11.9-9.25-6.45-5.45-12.9-11.05-6.45-5.65-11.95-9.85-4.35-3.5-15.35-6.45-11-3-27.4-2.25-16.45.75-37.2 8.4-14.4 5.75-23.85 12.85-9.45 7.1-14.4 12.95l-3.95 4.8-1.85 2.85q-3.9 7.5-10.1 24.3-6.15 16.8-12.5 35.55-6.35 18.75-10.65 32.1l-4.5 13.95 2.3 7q2.15 6.55 8.1 17 5.9 10.4 17.45 22.55 11.5 12.15 30.5 23.85 23.6 13.95 47.2 22.7t43.5 13.25q19.9 4.5 32.5 5.75 38.15 4.1 68.2 2 30-2.05 51.95-9.05 21.95-7 35.85-17.7 18.65-14.25 31.8-34.95 13.2-20.7 20.3-46.1 7.1-25.35 7.6-53.75.4-33.9-1.65-56.3-2.05-22.35-4.55-34.35l-3.4-14.8q-1.5-5.4-5-7.1-3.5-1.7-6.95-.55t-4.9 4.4l-9.45 18.5q-8.2 14.95-20.95 32.65z" id="C"/><path fill="#FFF" d="M889.05 162.7q-6.85 3.55-13.1 8.35-6.25 4.75-10.7 9.3-4.45 4.55-5.8 7.35-.9 2.55-1.35 9.55-.45 7-.6 15.1-.15 8.05-.15 13.9v6.1l2.8-.25q2.65-.25 6.15-.65 3.5-.4 6.25-.8l2.2-.4.95-.3q8.7-11.05 13.9-18.95 5.15-7.95 7.6-13.05 2.4-5.1 2.9-7.65.45-2.15 1.05-6.9.65-4.75 1.1-10.2.45-5.45.5-9.65l-.2-3.4-.55-1.8q-6.15.8-12.95 4.35z" id="D"/><path fill="#0083CB" d="M887.8 323.3q-2.1-1.35-4.65-1.55-2.55-.15-4.9.9-2.3 1.05-4.2 3.1-1.9 2.05-3.1 4.85-1.25 2.75-1.6 6.05-.3 3.3.35 6.2.65 2.95 2.1 5.2 1.45 2.3 3.55 3.65 2.1 1.4 4.65 1.6 2.55.15 4.85-.9 2.35-1.1 4.25-3.15t3.1-4.8q1.25-2.8 1.6-6.1.3-3.3-.35-6.2-.65-2.9-2.1-5.2-1.5-2.25-3.55-3.65z" id="E"/><path fill="#FFF" d="M986.25 295.45q-2.35-6.75-7.9-11.65-5.5-4.95-15.3-6.75-9.95-1.5-16.9 1.55-7 3.1-11.65 8.85-4.65 5.8-7.5 12.35-2.85 6.5-4.55 11.9 8.9 1 20.1 2.9 11.2 1.85 23 4.1 11.75 2.2 22.35 4.35.95-6.45.8-13.65-.15-7.25-2.45-13.95z" id="F"/></defs><use xlink:href="#a" transform="matrix(-.17697 .01367 .07947 .21533 1346.5 740.25)"/><use xlink:href="#b" transform="matrix(-.15736 .03156 .03325 .15123 1342.1 743.25)"/><use xlink:href="#c" transform="matrix(-.13176 .00766 .02066 .1269 1321.75 772.1)"/><use xlink:href="#d" transform="matrix(-.39343 -.0094 -.00206 .14087 1604.75 775.8)"/><use xlink:href="#e" transform="matrix(.30614 0 0 .30614 -4957.25 -1096)"/><use xlink:href="#f" transform="matrix(.30614 0 0 .30614 -4957.25 -1096)"/><use xlink:href="#g" transform="matrix(.30614 0 0 .30614 -4957.25 -1096)"/><use xlink:href="#h" transform="matrix(-.13454 -.01314 -.00444 .12933 1333.35 792.2)"/><use xlink:href="#i" transform="matrix(-.12396 .05261 .06458 .11574 1298.45 738.35)"/><use xlink:href="#j" transform="matrix(-.13026 .02475 .03503 .12291 1316.55 755.9)"/><use xlink:href="#k" transform="matrix(-.13026 .02475 .03503 .12291 1316.8 754.9)"/><use xlink:href="#l" transform="matrix(.76784 .74274 .20769 -1.11937 275.8 -108)"/><use xlink:href="#m" transform="matrix(1.04947 .01494 -.01494 1.04947 35.55 28.55)"/><use xlink:href="#n" transform="matrix(1.04947 .01494 -.01494 1.04947 35.55 28.55)"/><use xlink:href="#o" transform="matrix(.66026 -.16187 .11958 .70134 173.7 307.2)"/><use xlink:href="#p" transform="matrix(-.16667 .65459 .6398 .1764 792.25 -141.3)"/><use xlink:href="#q" transform="matrix(-.16667 .65459 .6398 .1764 792.25 -141.3)"/><use xlink:href="#r" transform="matrix(-.66821 -.00584 -.00085 .6708 1470.85 255)"/><use xlink:href="#s" transform="matrix(.6184 .1299 -.11766 .68228 395.3 181.5)"/><use xlink:href="#t" transform="matrix(.76709 .0776 .0663 .82423 130.6 73.7)"/><use xlink:href="#u" transform="matrix(.74503 .194 .07014 .7761 23.65 19)"/><use xlink:href="#v" transform="matrix(.68768 -.0158 .18953 .82823 185.4 149.7)"/><use xlink:href="#w" transform="matrix(.68768 -.0158 .18953 .82823 185.4 149.7)"/><use xlink:href="#x" transform="matrix(.73396 .02415 .14252 .75882 173.35 187.65)"/><use xlink:href="#y" transform="matrix(.67247 .13234 -.04922 .63762 307.05 185.2)"/><use xlink:href="#z" transform="matrix(-.622 -.1306 -.08888 .72395 1474.8 336.4)"/><use xlink:href="#A" transform="matrix(-.622 -.1306 -.08888 .72395 1474.8 336.4)"/><use xlink:href="#B" transform="matrix(.6722 .19865 -.22377 .64201 372.7 122.45)"/><use xlink:href="#C" transform="matrix(.6722 .19865 -.22377 .64201 372.7 122.45)"/><use xlink:href="#D" transform="matrix(.49516 .44511 -.3308 .58171 562.15 -78.45)"/><use xlink:href="#E" transform="matrix(-.56871 -.10722 -.16173 .61377 1528.7 418.65)"/><use xlink:href="#F" transform="matrix(.63931 .1894 -.21532 .61708 379.85 132.2)"/></svg>