<svg xmlns="http://www.w3.org/2000/svg" xmlns:xlink="http://www.w3.org/1999/xlink" preserveAspectRatio="none" width="760" height="880" viewBox="620 10 760 880"><defs><g id="a"><path fill="#a6ce38" d="M1511.6 683.8q.7-5.4 1.3-10.8.55-5.4 1-10.8-2.75 13.05-8.55 26.15-5.85 13.1-15.4 26.35l-7.25 10.1q-5.7 8.2-8 15.2-2.35 7 6.2 5.35 5.55-1.65 11.8-9.55 6.3-7.85 12.05-18.1.25-1.1.5-2.25t.5-2.25q.75-3.4 1.45-6.85.75-3.4 1.45-6.85.8-3.9 1.5-7.8.75-3.95 1.45-7.9m-27.95-201.95q-2.4-.9-4.2.75-.65 3.05 2.5 7.6l3.75 5.2q2.4 4.05 4.35 8.95 1.9 4.9 3.45 10.5.2 4.75 1.55 9.55l1.75 6v.15q3.55 23.3 3.8 47.85.25 24.6-.5 42.65-.15 4-.25 8-.1 4.05-.15 8.1-1.4 3-2.25 6-.85 2.95-.05 4.45v.45q0 .4.4.4.45-.1.9-.3.45-.2.9-.45l-.1 20.35q-.05 10.2-.15 20.3-.1.75-.25 2.25-.1 1.5.95 2.3 1.8-1.8 3-5.3 1.25-3.55 1.65-5 3.75-11.3 6.4-23.25 2.7-12 4.3-24.4l.1-3.6q0-1.8.05-3.6 0-4.6-.05-9.2t-.2-9.15v-1q-.05-.5-.05-1-.65-17.65-2.8-35.25-2.15-17.65-5.85-35.3-2.45-11.55-5.5-23.15-3.1-11.6-6.9-23.35-1.3-1.5-2.75-2.95-1.45-1.4-3-2.8l-.25-.15q-.25-.15-.45-.3-1.7-1.4-4.1-2.3m63.2-240.65q-1.6-2.1-3.35-4-2.7-4.25-5.85-8-3.1-3.8-6.7-6.95l-.4-.4q-.3-.25-.65-.5-2.75-2.65-5.85-4.8-3.15-2.15-6.75-3.7-6.55-4-13.85-4.7-7.3-.65-12.9 1.9l-2.9 1.8q-2.15 1.45-3.6 3.05-.45.3-.8.75l-.4.6q-2 3-2.9 6.35-.9 3.35-.9 6.95-.15.6-.25 1.25t-.15 1.3l.35 1.3q.15.6.35 1.25v-.35q.05.2.05.4.05.25.1.45 1.7 6 3.75 11.7 2.05 5.75 4.7 11.35.55 1.1 1.15 2.2.6 1.1 1.2 2.15.5 1.3 1.05 2.55.55 1.3 1.15 2.5 1.55 3.3 3.65 7.8 2.1 4.5 4.45 9-.8.7-1.6 1.5t-1.5 1.75l-.3.2-.15.15q-.5.55-1 1.35-.45.75-.9 1.7-.35.6-.65 1.2-.35.6-.65 1.2-.9 1.55-1.55 3.3-.65 1.7-1.15 3.6-.65 2.15-1.05 4.2-.4 2.1-.55 3.95 0 .3-.05.9v1.35q-.35 3.5-.4 7.05 0 3.55.15 7.05.15 4.1.8 8.1.65 4.05 1.6 8 .25-.15.5-.35.25-.15.5-.35.15 3.75 2.9 9.4l3.35 6.6q2.75 5.3 5.3 10.7 2.55 5.4 4.95 10.95-2.15 2-3.6 4.6-1.45 2.55-2 3.75-7.05 14.8-8.25 33.2-1.2 18.45.05 35.95 2.95 4.4 5.6 9.05 2.65 4.65 5.05 9.45 2.15 4.4 4.1 8.9 1.9 4.5 3.65 9.1 5.7 11.3 10.1 23.2 4.4 11.9 7.45 24.2.85 3.4 1.6 6.85.75 3.4 1.4 6.85.35 1.8.65 3.6l.6 3.6q.75 4.8 1.3 9.65.55 4.8.9 9.65.35 5.05.55 10.15.15 5.1.1 10.15 11.35-31.95 18.9-65.85 7.55-33.9 11.3-68.7.8-7.55 1.4-15.05.65-7.55 1.1-15.1.05-.5.05-1 .05-.5.05-1 .35-5.7.55-11.45.25-5.7.35-11.4.15-6.15.15-12.3t-.1-12.25l-.1-3.65-.1-3.6q-.35-11-1.05-21.9-.75-10.9-1.85-21.65-.45-4.6-1.05-9.25-.55-4.6-1.15-9.15l-.25-1.65q-.1-.85-.2-1.65-.95-6.75-2-14t-2.25-14.7q-1.1-6.7-2.4-13.4-1.25-6.7-2.8-13.35-1.05-2.25-2.25-4.35-1.15-2.15-2.35-4.2-.6-.95-1.15-1.85-.55-.9-1.15-1.75-1.55-2.3-3.2-4.4m31.5 93.9q-2.7-17.4-7-35.5 3.35 21.55 5.05 43.7 1.75 22.15 2 44.4.1 7.25 0 14.5-.05 7.25-.3 14.45-.15 4.55-.35 9.05-.2 4.5-.45 9-.35 6.35-.8 12.7-.5 6.3-1.1 12.55-.05.65-.1 1.35-.05.65-.15 1.3-.45 4.95-1 9.85-.55 4.85-1.2 9.65l-.6 4.7q-.3 2.35-.65 4.7-.45 3.25-.95 6.5-.5 3.25-1.05 6.45-5 29.95-13.05 56.45-8.05 26.45-18.8 52.25-.2 3.3-.5 6.55-.3 3.3-.7 6.55.05 1.25.05 2.45.05 1.25.05 2.5-.7 3.65-1.55 7.3-.85 3.65-1.8 7.4-.55 2.2-1.2 4.45-.6 2.3-1.3 4.7-1 3.55-1.9 6.95-.9 3.35-1.8 6.6l-.45 1.65q-.2.85-.45 1.65-.6 2.3-1.25 4.5-.6 2.25-1.25 4.45-.1.35-.25.7l-.2.75q-.05.2-.15.4-.05.25-.1.45-.15.4-.25.75l-.25.75q-.45 1.45-.9 2.85-.45 1.4-.95 2.8-1 2.85-2.1 5.7-1.15 2.85-2.4 5.8-.15.35-.3.65l-.3.7q-.5 1.05-1 2.15-.5 1.1-1.05 2.2l-.4.8-.4.8q-.2.45-.45.9-.2.45-.45.9-.45.65-1.15 1.95-.7 1.3.15 2.55l.2.1q.1.05.25.1l.4.15q.55.1 1.15-.05.6-.15 1.25-.5.05-.05.15-.1l.2-.1q.7-.5 1.5-1.15.75-.7 1.55-1.5l.15-.2q.8-.9 1.55-1.85.8-.95 1.5-1.95l.45-.6.4-.6q1.65-2.4 2.75-4.2l1.3-2.15q1.7-2.5 3.45-5.25 1.75-2.75 3.45-5.7 2.95-5.05 5.85-10.55 2.9-5.5 5.6-11.2 5.95-8.3 10.8-16.05 4.85-7.75 8.2-14.25 4.2-8.2 7.55-17.2 3.35-9 5.9-18.65.1-.2.15-.4.1-.15.15-.3 4.5-12.15 6.4-30.4 1.9-18.25 2.95-31.8 3.85-41.55 2.85-86.45-.95-44.9-6.2-86.4-1.65-13.75-4.4-31.1m-50.15 349.75q.2-1.25.6-2.8.4-1.5.85-2.85-.2 1.15-.4 2.25-.15 1.1-.2 2.05-.2.35-.45.75-.2.35-.4.6m6.05-11.7l1.15-3.55-.05.65q-.05.3-.05.6-.3.6-.55 1.2l-.5 1.1m-80.3-228.9l1.55.15q.2-.55.3-1.1.1-.55.15-1.1-.4.45-.9.95l-1.1 1.1z"/><path fill="#0083CB" d="M1535.4 669.6l-1.15 3.55.5-1.1q.25-.6.55-1.2 0-.3.05-.6l.05-.65m-6.6 12.45q-.4 1.55-.6 2.8.2-.25.4-.6.25-.4.45-.75.05-.95.2-2.05.2-1.1.4-2.25-.45 1.35-.85 2.85m17.15-466.2l-.5-.15q-.4-.15-.6-.5-.6-.2-1.2-.05-.6.15-.8.85.65 1.9 1.75 4.05l1.35 2.65q1.1 2.45 2.1 5.05 1 2.55 1.9 5.25l1.1 3.1 1 3.2q1.35 4.45 2.6 9.1 1.25 4.6 2.3 9.35 1.55 6.65 2.8 13.35 1.3 6.7 2.4 13.4 1.2 7.45 2.25 14.7 1.05 7.25 2 14 .1.8.2 1.65l.25 1.65q.6 4.55 1.15 9.15.6 4.65 1.05 9.25 1.1 10.75 1.85 21.65.7 10.9 1.05 21.9l.1 3.6.1 3.65q.1 6.1.1 12.25t-.15 12.3q-.1 5.7-.35 11.4-.2 5.75-.55 11.45 0 .5-.05 1 0 .5-.05 1-.45 7.55-1.1 15.1-.6 7.5-1.4 15.05-3.75 34.8-11.3 68.7-7.55 33.9-18.9 65.85.05-5.05-.1-10.15-.2-5.1-.55-10.15-.35-4.85-.9-9.65-.55-4.85-1.3-9.65l-.6-3.6q-.3-1.8-.65-3.6-.65-3.45-1.4-6.85-.75-3.45-1.6-6.85-3.05-12.3-7.45-24.2-4.4-11.9-10.1-23.2-1.75-4.6-3.65-9.1-1.95-4.5-4.1-8.9-2.4-4.8-5.05-9.45-2.65-4.65-5.6-9.05-3-4.55-6.35-8.8-3.35-4.3-7-8.25-.1-.1-.35-.3-.25-.2-.55-.15-.2.25-.35.6-.15.3-.2.65l-.2-.1q-.1-.05-.25-.1-1.4-1.4-3.1-2.65-1.7-1.25-3.6-1.15 1.2 1.8 2.5 3.9l1.65 2.75q1.4 2.85 2.7 6.15 1.25 3.35 2.45 6.95-.15-.05-.25.05t-.15.2q.2.35.45.75t.55.85q1.6 5.25 3.2 10.45 1.55 5.2 3.15 9.75 1.2 3.35 2.35 6.7 1.1 3.4 2.2 6.7 3.8 11.75 6.9 23.35 3.05 11.6 5.5 23.15 3.7 17.65 5.85 35.3 2.15 17.6 2.8 35.25 0 .5.05 1v1q.15 4.55.2 9.15.05 4.6.05 9.2-.05 1.8-.05 3.6l-.1 3.6q-.15 6.75-.55 13.6-.35 6.8-.95 13.65-.45 5.4-1 10.8-.6 5.4-1.3 10.8-.7 3.95-1.45 7.9-.7 3.9-1.5 7.8-.7 3.45-1.45 6.85-.7 3.45-1.45 6.85-.25 1.1-.5 2.25t-.5 2.25q-4.4 19.1-9.45 37.55-5 18.5-10.3 36.1-.4.9-1 2.7-.6 1.75.4 2.95 1.75-1.85 2.95-5l1.6-4.3q2.2-5.45 4.3-11.1 2.15-5.65 4.15-11.5-.15 1.35-.35 2.7-.15 1.35-.3 2.65-.15.65-.35 1.95-.15 1.25.65 2.15 2.1-1.35 3.6-4.9 1.5-3.5 2.1-5.1.3-.8.6-1.55l.6-1.5v.2q-.1.55-.35 1.95-.2 1.45.6 2.35 1.85-1.5 3.35-4.6 1.5-3.15 2.05-4.4 8.75-17.1 14.35-33.8 5.6-16.7 8.6-33.35-1.7 2.95-3.45 5.7-1.75 2.75-3.45 5.25l-1.3 2.15q-1.1 1.8-2.75 4.2l-.4.6-.45.6q-.7 1-1.5 1.95-.75.95-1.55 1.85l-.15.2q-.8.8-1.55 1.5-.8.65-1.5 1.15l-.2.1q-.1.05-.15.1-.65.35-1.25.5-.6.15-1.15.05l-.4-.15q-.15-.05-.25-.1l-.2-.1q-.85-1.25-.15-2.55.7-1.3 1.15-1.95.25-.45.45-.9.25-.45.45-.9l.4-.8.4-.8q.55-1.1 1.05-2.2t1-2.15l.3-.7q.15-.3.3-.65 1.25-2.95 2.4-5.8 1.1-2.85 2.1-5.7.5-1.4.95-2.8.45-1.4.9-2.85l.25-.75q.1-.35.25-.75.05-.2.1-.45.1-.2.15-.4l.2-.75q.15-.35.25-.7.65-2.2 1.25-4.45.65-2.2 1.25-4.5.25-.8.45-1.65l.45-1.65q.9-3.25 1.8-6.6.9-3.4 1.9-6.95.7-2.4 1.3-4.7.65-2.25 1.2-4.45.95-3.75 1.8-7.4.85-3.65 1.55-7.3 0-1.25-.05-2.5 0-1.2-.05-2.45.4-3.25.7-6.55.3-3.25.5-6.55 10.75-25.8 18.8-52.25 8.05-26.5 13.05-56.45.55-3.2 1.05-6.45t.95-6.5q.35-2.35.65-4.7l.6-4.7q.65-4.8 1.2-9.65.55-4.9 1-9.85.1-.65.15-1.3.05-.7.1-1.35.6-6.25 1.1-12.55.45-6.35.8-12.7.25-4.5.45-9t.35-9.05q.25-7.2.3-14.45.1-7.25 0-14.5-.25-22.25-2-44.4-1.7-22.15-5.05-43.7-2.7-17.35-6.55-34-3.8-16.7-8.8-32.35-1.45-4.75-3.9-9.45-2.4-4.75-6.15-7.95m17.15 1.1q1.25-1.05 1.15-1.8-.8.8-1.75 1.55-.9.7-1.5 1.7.85-.4 2.1-1.45z"/><path fill="#0081c6" d="M1552.05 239.3l-1-3.2-1.1-3.1q.2 3.15.25 6.3 0 3.15-.15 6.3.6.85 1.15 1.75.55.9 1.15 1.85.05-2.5 0-5-.1-2.45-.3-4.9m-66.65 24.85q-.1.2-.05.35.8 1.55 1.5 3.3.7 1.75 2.15 2.6.55-1.6-.95-3.2-1.55-1.55-2.35-3.15-.2-.05-.3.1z"/></g><path fill="#FFF" d="M1336.05 565.75q-10.5-24.45-26.55-45.75t-38.6-39.4q-17.4-7.25-36.3-18.85-18.85-11.6-39.65-28.2-36.35-29.75-62.85-60.15-26.45-30.4-47.6-56.55-21.15-26.15-41.5-43.1-20.35-17-44.4-19.9-1.15-.1-2.4-.2-1.2-.1-2.4-.1-.65-.05-1.25-.05h-1.25q-31.75 1-63.95 20.8-32.2 19.75-68.7 45.8-36.45 26-81 45.75-44.55 19.8-101 20.8-39.35-.4-67.1-7.95-27.7-7.55-52.5-17.55-24.8-9.95-55.4-17.5-30.55-7.6-75.55-8-106.4 3.4-171.1 72.05-64.7 68.65-97.6 161.95-32.9 93.3-44 170.65l-8.15 63.25-1.85 21-.35 13.95q.1 6.8 4.3 11.75 4.15 5 10.9 5.8 2.75.25 5.95-.95 3.25-1.2 5.9-4.45 2.65-3.3 3.8-9.15 3.8-43.1 12.2-83.7 8.45-40.55 17.95-73.6 9.55-33 16.7-53.45l8.3-23.15q1.05-2.85 2.9-5.75 1.8-3 4.2-4.7 2.4-1.7 5.1-.75 3.8 1.55 3.6 4.6-.15 3.05-1.2 7.35-2.85 15.55-5.75 35.9-2.9 20.4-4.9 47.05-2 26.7-2.05 61.2.75 62 17.8 117.55 17 55.6 40.95 101.25 23.9 45.7 45.35 78.05 21.4 32.35 31 47.85 3.2 5.45 8.55 8.5 5.35 3.1 11.7 3.15h140.95q7.4-.2 12.5-4.95t5.75-12.1q.6-19.25 1.85-49.65t10.45-61.45q9.2-31.05 33.55-52.3 24.4-21.2 71.2-22.1 54.85 1 86.4 23.8 31.55 22.75 46.7 55.65 15.15 32.85 20.75 64.15 5.55 31.25 8.35 49.15 1.45 6.5 6.3 10.45 4.9 4 11.5 4.1h139.9q7.45-.2 12.35-5.15 4.9-4.95 5.05-12.4-.05-36.15 5-71.75t16.45-66q11.4-30.4 30.3-50.95 12.8-13.45 30.35-14.2 17.55-.7 41.15 8.7 3.8 1.5 8 3.05 4.15 1.6 8.6 3.3 2.45.45 4.7.8 2.25.4 4.25.75 13.8 2.35 27.45 4.15 13.65 1.8 27.4 1.85 13.75.05 27.95-2.8 29.75-6.25 54.6-18 24.8-11.8 45.65-29.5 20.8-17.7 38.6-41.7 10.2-13.7 16.35-26.15 6.2-12.45 9.75-25.35 3.55-12.9 5.8-27.9.05-.6.15-1.15l.2-1.15q.1-4.35.35-8.05l.35-4.95q1.8-15.4 1.1-29.1-.75-13.65-2.8-27.25-2.05-13.55-4.35-28.6-3.05-21.3-8.25-40.85-5.2-19.6-12.9-37.5z" id="b"/><path fill="#FFF" d="M1465.55 478.95q.6-5.1-2.05-8.75-2.65-3.65-7.05-5t-9.05.35q-11.4 4.7-26.35 10.75-14.95 6.1-32.7 11.1-21.6 6.05-43.45 7.1-21.85 1.05-45.05-4.4-23.15-5.45-48.8-18.95-3.75-1.45-6.6-2.7-2.85-1.25-4.4-2.15-18.5-10.15-38.7-17.15-20.2-7.05-40.45-10.3-17.7-2.8-33.2-2.9-15.45-.05-30.8 2-15.4 2-32.85 5.6-17.75 3.55-30.25 9.95-12.45 6.4-22.95 15.8-10.5 9.35-22.2 21.9-6.5 6.8-14.45 16.95-7.95 10.1-14.55 21.05-6.55 10.95-8.95 20.2-2.05 8.4-4 16.9-1.95 8.5-3.8 17.1-2.6 11.95-4.95 23.9-2.3 11.95-4.2 23.8-2.6 15.6-5.75 31.55-3.15 16-5.3 32.05-2.15 16.05-1.7 31.9.4 13.8 1.2 25.3.85 11.5 3.85 22.6 2.95 11.05 9.8 23.55l.15.3q10.6 18.95 22.85 32.25 12.25 13.3 27 24 14.75 10.65 32.9 21.7 5.05 3.1 9.8 5.45 4.7 2.35 9.65 4.7 2.85.85 6.35 2.2 3.5 1.4 6.5 2.65t4.25 1.85l1 .4q.7.35 1.7.8 5.75 1.1 12 2.95 6.3 1.9 13.1 4.55 23.55 9.35 57.5 20.85 33.95 11.5 74.75 21.3 40.85 9.75 85.1 13.9 44.25 4.1 88.5-1.3 76.2-10.1 136.55-41.55 60.3-31.45 105.7-82.6 45.4-51.15 76.7-120.35 16.55-36.95 27.35-75.3 10.75-38.4 17.05-74.9 6.25-36.5 9.35-67.9 3.1-31.4 4.35-54.4.2-8.65-4.7-12.55-4.9-3.95-11.45-3.3-6.6.65-11.35 5.7-21.45 24.75-50.15 57.85-28.65 33.1-61.85 62.1t-68.2 41.35q-34.95 12.4-68.9-4.3-12.05-6.7-18.05-19.45-6.05-12.8-7.75-28.55-1.7-15.75-.8-31.4.95-15.65 2.75-28.1z" id="c"/><path fill="#0081c6" d="M1045.3 556q-1.1.05-2 .55-.9.55-1.45 1.45-.55.9-.55 2.05 0 1.1.55 2 .55.9 1.45 1.45.9.5 2 .55 1.15-.05 2.05-.55.9-.55 1.4-1.45.55-.9.55-2 0-1.15-.55-2.05-.5-.9-1.4-1.45-.9-.5-2.05-.55z" id="d"/><path fill="#0081c6" d="M1005.65 543.5h-4.4v2.3q-1.3-1.45-2.75-2.15t-3.1-.7q-1.9 0-3.5.75t-2.85 2.2q-1.25 1.45-1.9 3.3-.6 1.85-.6 4.05 0 2.25.6 4.1.65 1.85 1.9 3.35 1.3 1.5 2.9 2.2 1.6.75 3.55.75 1.55 0 3-.65t2.75-1.95v2.05h4.4v-19.6m-4.1 9.85q0 1.35-.4 2.5-.35 1.15-1.1 2.05-.75.85-1.7 1.25-1 .45-2.2.45-1.1 0-2.05-.45-.95-.45-1.7-1.35-.7-.85-1.05-2-.4-1.15-.4-2.55 0-1.35.4-2.45.35-1.1 1.1-2 .75-.85 1.7-1.3.95-.45 2.05-.45 1.2 0 2.15.45.95.4 1.7 1.3t1.1 2q.4 1.15.4 2.55m-21.2-9.9q-.45.25-1 .7-.5.45-1.1 1.1v-1.75h-4.35v19.6h4.35v-10.15q0-2.8.85-4.2.9-1.4 2.7-1.4.55 0 1.15.25.65.2 1.25.65l2-4.1q-.95-.6-1.85-.9-.9-.3-1.75-.3-.65 0-1.2.15-.55.1-1.05.35m36.25 0q-.45.25-.95.7-.55.5-1.2 1.15v-1.8h-4.3v19.6h4.3V553q0-1.55.25-2.7.2-1.1.6-1.85.45-.7 1.1-1.05.65-.35 1.6-.35 1.45 0 2.15 1.3.75 1.3.75 3.9v10.85h4.35V553q0-1.6.2-2.7.2-1.15.6-1.85.4-.7 1.05-1.05.65-.35 1.55-.35.8 0 1.35.3t.9.9q.35.55.5 1.55.15 1 .15 2.4v10.9h4.35V551q0-4.05-1.55-6.05-1.6-2-4.8-2-1.75 0-3.1.75-1.4.7-2.4 2.15-.95-1.45-2.2-2.15-1.25-.75-2.85-.75-.7 0-1.3.15-.6.1-1.1.35m-96.45.05q-1.25-.55-2.9-.55-1.45 0-2.7.6-1.3.6-2.45 1.75v-1.8h-4.35v19.6h4.35v-9.45q0-1.85.25-3.1.2-1.3.65-2 .45-.75 1.25-1.15.75-.35 1.8-.35 1 0 1.7.3.7.25 1.05.8.4.55.6 1.55.2 1 .2 2.45v10.95h4.35v-12q0-2.1-.4-3.6-.4-1.45-1.2-2.4-.9-1.05-2.2-1.6m-16.9 0h-4.35v19.6h4.35v-19.6m-3.25-5.4q.5.25 1.1.25.55 0 1.05-.25.5-.2.9-.65.45-.4.65-.95.2-.5.2-1.1 0-.65-.2-1.15-.2-.5-.65-.95-.4-.4-.9-.65-.5-.2-1.1-.2-.55 0-1.05.2-.5.25-.95.65-.4.45-.6.95-.2.5-.2 1.1 0 .65.2 1.15.2.55.6.95.45.45.95.65m41.45 5.6q-1.8-.75-3.9-.75-2.05 0-3.85.75-1.8.75-3.25 2.25t-2.15 3.3q-.75 1.8-.75 3.9 0 2.25.7 4.15.75 1.85 2.15 3.35 1.45 1.5 3.2 2.25 1.8.75 3.9.75 2.1 0 3.9-.75 1.85-.75 3.3-2.2 1.45-1.5 2.2-3.35.7-1.85.7-4.05 0-2.15-.7-4-.75-1.85-2.2-3.35-1.45-1.5-3.25-2.25m1.7 9.65q0 1.4-.35 2.55-.4 1.15-1.15 2-.75.85-1.8 1.3-1 .4-2.3.4-1.25 0-2.25-.45-1.05-.4-1.8-1.25-.75-.9-1.15-2.05-.35-1.15-.35-2.6 0-1.4.4-2.5.35-1.1 1.15-1.95.75-.9 1.75-1.35 1.05-.4 2.25-.4 1.3 0 2.3.4 1 .45 1.8 1.35.75.85 1.15 1.95.35 1.15.35 2.6m19.25-9.7q-1.5-.7-3.25-.7-2.05 0-3.65.8-1.65.8-2.9 2.4-1.15 1.5-1.7 3.3-.6 1.85-.6 3.95 0 2.2.65 4.05.6 1.85 1.85 3.3 1.2 1.45 2.8 2.15 1.55.75 3.5.75 1.7 0 3.15-.7 1.5-.7 2.8-2.05v2.75q0 3-1.2 4.55-1.2 1.5-3.55 1.5-1.3 0-2.3-.45-1-.45-1.65-1.4-.3-.35-.5-.95-.2-.55-.35-1.25h-4.35q.2 1.9.9 3.4.75 1.5 2 2.6 1.2 1.05 2.75 1.6t3.45.55q2.25 0 4-.8 1.75-.75 3-2.25.7-.8 1.15-1.75.45-.95.65-2.05.1-.4.15-.9.05-.45.1-1 .05-.5.05-1.1.05-.65.05-1.35v-19.1h-4.35v2.2q-1.2-1.35-2.65-2.05m2.8 9.7q0 1.35-.3 2.45-.35 1.05-1 1.95-.75.9-1.7 1.4-1 .45-2.25.45t-2.2-.45q-1-.45-1.7-1.4-.65-.85-.95-1.95-.35-1.1-.35-2.45t.35-2.45q.3-1.1.95-1.95.7-.95 1.7-1.45.95-.45 2.2-.45 1.15 0 2.1.45.95.4 1.7 1.3.75.85 1.1 2 .35 1.1.35 2.55m-77.55-10.4q-1.4 0-2.65.55-1.3.55-2.45 1.65V534h-4.35v29.1h4.35v-9.5q0-1.8.25-3.05.2-1.3.65-2.05.45-.7 1.25-1.1.85-.35 1.95-.35.9 0 1.55.25t1.05.8q.4.55.6 1.4.2.85.2 2v11.6h4.35v-12q0-2.05-.4-3.55t-1.25-2.45q-.95-1.05-2.2-1.6-1.3-.55-2.9-.55m-19.5.55h-4.35v19.6h4.35v-10.15q0-2.8.9-4.2.9-1.4 2.65-1.4.6 0 1.2.25.6.2 1.25.65l1.95-4.1q-.9-.6-1.8-.9-.9-.3-1.8-.3-.65 0-1.2.15-.55.1-1 .35-.5.25-1 .7-.55.45-1.15 1.1v-1.75z" id="e"/><g id="f"><path fill="#0081c6" d="M1276.35 503.75q-.15.15-.2.35.5 1.95.8 4.15.3 2.2 1.75 3.5 1.05-1.65-.25-3.85-1.25-2.2-1.75-4.2-.2-.1-.35.05z"/><path fill="#a6ce38" d="M1326.5 454.75q-6.3-6.4-14.35-9.15t-15.05-1.4l-3.75 1.2q-2.85 1.05-4.95 2.45-.55.2-1.05.6l-.65.55q-3.05 2.85-5 6.35-1.95 3.55-2.95 7.6-.35.7-.6 1.4l-.6 1.4.05 1.5q.05.8.05 1.55l.15-.35q-.05.25-.05.45-.05.25-.05.5.25 7.2 1 14.25.7 7.05 2.15 14.1.35 1.4.7 2.75.35 1.4.75 2.8.2 1.6.5 3.15.25 1.6.6 3.15.85 4.1 1.95 9.75t2.55 11.4q-1.15.55-2.25 1.25t-2.15 1.5q-.2.15-.4.2l-.2.15q-.75.5-1.5 1.2-.75.75-1.45 1.7-.6.55-1.1 1.15-.55.6-1.1 1.25-1.45 1.5-2.7 3.3-1.25 1.8-2.3 3.8-1.3 2.2-2.3 4.4-1 2.2-1.7 4.25-.1.3-.3 1-.2.65-.35 1.5-1.35 3.85-2.4 7.85-1 4-1.8 8-1.25 6.2-1.55 12.5-.35 6.35-.1 12.7-40.85 17.8-88.3 22.3-47.5 4.5-95.8 3.95-48.3-.5-91.5 2.15-1.8 0-5.95.3-4.15.35-6.25 2.5.5 1.75 2.15 1.9 1.6.2 2.65.2 1 .15 1.95.3 1 .15 2 .25-1 .8-1.7 1.55-.7.7-1 1.1-6.65 9-12.15 19.35-5.5 10.3-10.35 21.25l-1.35-.05-1.3-.1-4-.25q-3.05-.2-5.25.3.85 1.05 2.65 1.45 1.8.45 2.6.6l2.6.6 2.6.6q-3.65 8.3-7.2 16.5-3.55 8.2-7.2 16.05-2.05 4.25-6.15 12.8-4.1 8.55-7.9 18.4-3.8 9.85-4.95 18.15-.75-.2-1.5-.35-.7-.2-1.35-.4l-1 .25 1.6.4q.55.15 1.1.25l1.1.3q-.15 1.1-.15 2.1-.05 1-.05 1.95-.25-.15-.45-.25l-.45-.3q-.75.15-.3.55.45.45 1.3 1 .15 1.9.7 3.4.55 1.5 1.6 2.6 2.25 2.4 4.2 3.4 1.95 1 3.6.8 7.25 8.15 19.3 13.8 12.1 5.65 26.3 9.25 47.4 27.2 90.25 20.8 42.85-6.45 82.1-49.5 2.3-2.6 3.55-5.85 1.25-3.25 1.55-6.35 4.2-2.1 8.2-4.5 4.05-2.4 7.8-5.25 3.4-.6 6.9-2.15 3.5-1.55 6.25-3 34.65-17.6 69.45-48.2 34.8-30.6 59.85-70.55 25-39.95 30.45-85.65 3.55-14.2 3.6-30.25 0-16.05-5.15-30.45-5.1-14.4-17-23.7M943.35 775.6q2.2 1.5 3.75 2.65l.2.15.2.2q-1.65-.85-3.3-1.65l-3.3-1.7q-.7-.55-1.4-1.05-.7-.55-1.4-1.15l.3-.4.3-.4q2.4 1.8 4.65 3.35m44.45-142.5l-.05-.2q.15 0 .3.05h.25q-.1.05-.25.1-.1 0-.25.05m26.15 78.75l3.75.75q.8.1 2.45.5 1.65.4 2.45 1.4-3.1.85-7.25-.55t-6.85-3q2.55.4 5.45.9z"/></g><path fill="#a6ce38" d="M793 728.5l11.5 6.7q11.3 6.35 30.65 14.8 19.35 8.4 43.85 15l10.25-22.7q9.2-21.4 21.05-49.5 11.85-28.05 20.8-49.35l9.4-22.45-25.4-11.05L793 728.5z" id="g"/><path fill="#a6ce38" d="M1127.1 328.15l-5.5 6.2-9.3 12.8q-11.25 16.1-25.4 36.95-14.15 20.85-26.45 38l-10.65 14-7.4 7.95-7.95 10.55-12.25 20.95q-14.45 26.2-32.75 59-18.3 32.75-35.65 57.95-17.4 25.15-29.05 28.5l-10.25 3.25-1.9 4q2.2 4.35 13.9 9.85 11.7 5.45 25.65 11.65 20.85-3.95 59.9-19.75 39-15.8 81.15-36.5 42.15-20.7 72.4-39.3 47.65-30.9 70.3-75.05 22.65-44.1 24.9-90.4 2.2-46.3-11.5-83.55-9.95-24.75-28.45-26.1-18.5-1.4-38.85 9.7t-35.75 23.65l-19.15 15.7z" id="h"/><path fill="#a6ce38" d="M1037.75 310.3q-28.5-9.5-51.15-7.95-22.7 1.55-28.75 13.2-5.15 11.9-9.05 29.15-3.95 17.3-7.2 35.75t-6.4 34q-.95 11.1 24.45 14.2 25.4 3.15 59.95 1.7 34.55-1.45 61.15-4l28-2.85-4.85-21.15q-4.55-19.6-9.1-39.35l-5.05-21.65q-23.5-21.55-52-31.05z" id="i"/><path fill="#a6ce38" d="M1012.35 269.55q-15.25 1.75-24.45 7.2-9.2 5.5-13.5 10.45-4.35 4.65-9.75 13.8t-9.85 19.5q-4.45 10.35-5.9 18.45-.9 7.85 8.25 17.3 9.1 9.5 24.1 16.95 14.95 7.45 31.55 9.2 16.7 1.25 34-2.55 17.35-3.85 30.2-10.35 12.85-6.5 16.1-13.25-.1-7.45-4.95-25.25-4.8-17.75-14.3-34.75-9.55-17-23.7-22.1-22.55-6.3-37.8-4.6z" id="j"/><path fill="#a6ce38" d="M1099.4 333.3q11.45-10.2 19.2-22.3l-3.55-2.1-10.1-4.2q-13.4-5.25-36.75-7.1l2.95 10.5q3.05 9.8 6.7 21.3 3.65 11.5 5.55 17.3l16-13.4z" id="k"/><path fill="#0083CB" d="M1035.4 302.25l-1.9-1-2-.6-2.15-.2-2.1.2-2 .6-1.9 1-1.6 1.35-1.35 1.65-1 1.85-.65 2.05-.2 2.1.2 2.1.65 2.05 1 1.85 1.35 1.65 1.6 1.35 1.9 1 2 .6 2.1.2 2.15-.2 2-.6 1.9-1 1.6-1.35 1.35-1.65 1-1.85.65-2.05.2-2.1-.2-2.1-.65-2.05-1-1.85-1.35-1.65-1.6-1.35z" id="l"/><path fill="#a6ce38" d="M1040.4 290.7q-3.7-5.25-11.25-5.6-8.85.45-13.2 7-4.3 6.5-5.15 14.65l35.45.25-1.05-5.7q-1.1-5.3-4.8-10.6z" id="m"/></defs><use xlink:href="#a" transform="matrix(.08537 -.0477 -.05585 -.07722 945.25 724.8)"/><use xlink:href="#b" transform="matrix(.35274 0 .01016 .29251 658.25 560.1)"/><use xlink:href="#c" transform="matrix(.31268 .0519 -.04503 .3126 731.55 477.7)"/><use xlink:href="#d" transform="matrix(2.19435 .41537 .00972 .29956 -1158.75 170.75)"/><use xlink:href="#e" transform="matrix(1.90143 0 0 1.90143 -845.05 -318.7)"/><use xlink:href="#f" transform="matrix(-.01414 -.10571 .0872 -.05138 986.4 740.8)"/><use xlink:href="#g" transform="matrix(.0371 -.10312 -.12445 -.03285 1043.35 708.7)"/><use xlink:href="#h" transform="matrix(.11578 -.0334 -.0334 -.11578 912.2 698.5)"/><use xlink:href="#i" transform="matrix(.07599 -.03813 -.03813 -.07599 975.3 686.7)"/><use xlink:href="#j" transform="matrix(.07599 -.03813 -.03813 -.07599 975.3 686.7)"/><use xlink:href="#k" transform="matrix(-.00087 .08502 .08502 .00087 1013.15 535.15)"/><use xlink:href="#l" transform="matrix(.07599 -.03813 -.03813 -.07599 975.3 686.7)"/><use xlink:href="#m" transform="matrix(.07599 -.03813 -.03813 -.07599 975.3 686.7)"/></svg>