<svg xmlns="http://www.w3.org/2000/svg" xmlns:xlink="http://www.w3.org/1999/xlink" preserveAspectRatio="none" width="760" height="880" viewBox="614 10 760 880"><defs><path fill="#a6ce38" d="M1034.75 316.8q-31.1-3.75-54.7-.3l-18 2.8-6.8 1.45-8.7 18.2q-8.1 17-17.05 35.7l-11.9 25.1 191.15 23.75-4.85-21.15q-4.55-19.6-9.1-39.35l-5.05-21.65q-23.85-20.8-55-24.55z" id="a"/><path fill="#a6ce38" d="M1012.35 269.55q-15.25 1.75-24.45 7.2-9.2 5.5-13.5 10.45-4.35 4.65-9.75 13.8t-9.85 19.5q-4.45 10.35-5.9 18.45-.9 7.85 8.25 17.3 9.1 9.5 24.1 16.95 14.95 7.45 31.55 9.2 16.7 1.25 34-2.55 17.35-3.85 30.2-10.35 12.85-6.5 16.1-13.25-.1-7.45-4.95-25.25-4.8-17.75-14.3-34.75-9.55-17-23.7-22.1-22.55-6.3-37.8-4.6z" id="b"/><path fill="#a6ce38" d="M1106.5 326.35q7.25-7.45 12.1-15.35l-3.55-2.1-10.1-4.2q-13.4-5.25-36.75-7.1l2.95 10.5q3.05 9.8 6.7 21.3 3.65 11.5 5.55 17.3 2.65-1.95 9.25-7.4 6.55-5.5 13.85-12.95z" id="c"/><path fill="#a6ce38" d="M1015.35 632l-41.8 2.3L989 819.4l26.35-187.4z" id="d"/><path fill="#a6ce38" d="M1357.3 241.55q-2.75-4.9-10.4-7.6l-.75.1q-.6.1-1.1-.1-.25 0-.55.05-.3 0-.6.05.4-1.35-.2-1.85-.6-.5-2.55-.25-2.55 1.8-4.45 5.1l-2.45 4.45q-11 19.3-20.75 39.55-9.8 20.25-19.1 40.9-1.8 3.15-3.55 6.3-1.75 3.2-3.45 6.4-4.4 8.45-8.15 17.4-3.75 9-7.2 18.15-2.8 5.8-5.7 11.55-2.85 5.75-5.85 11.35-11.75 22.45-28.25 47.85-16.55 25.45-35.7 48.8-19.15 23.4-38.75 39.75-2.7 1.05-5.4 2.15l-3.5 1.4q-8.45 4.4-16.5 11.35-8 7-14.95 12.6-4.6 1.9-8.15 5-3.6 3.1-6.5 8.8-9.15 10.8-10.85 23.35-1.7 12.55 6.95 26.7 2.1 3.45 7.5 10 5.45 6.55 12 11.45 6.55 4.85 12.05 3.2 2.65.9 5.15 1.4 2.55.5 3.6.7 9.7 1.45 27.1-1.95 17.45-3.4 34.35-9.55 16.9-6.2 25-13.05.85-.7 2.15-1.9 1.3-1.2 1.65-2.15.15-.65-.15-1.15-.3-.5-.75-.6Q1245.3 605 1258.5 594t24.3-24.6q11.05-13.6 21.5-33.6.8-1.35 1.6-2.75.75-1.4 1.5-2.85 5.3-9.95 10.65-21.4 5.3-11.45 10.05-23.65 2-4.15 4.05-8.3 2.1-4.1 4.25-8.25 2.65-5.05 5.45-16 2.8-11 3.1-22.5.3-11.45-4.65-17.95 6.3-15.65 11.1-32.05 4.75-16.45 9.1-32.75.25-.9.45-1.7.2-.75.4-1.45l1.6-5.8 1.6-5.7q.7-2.4 1.15-4.85.5-2.4.75-4.85 3.15-17.9 1.75-34.65t-6.4-34.55q-1.7-7.4-4.5-12.25z" id="e"/><path fill="#a6ce38" d="M751.55 592.25l-33.1-15.45q-31.4-14.65-72.8-33.95-41.35-19.35-72.95-34.05l-33.5-15.6q-2.05 17.75-1.3 45.5.8 27.75 3.9 55.4 3.15 27.65 8.2 45.1l36.15-.25q33.95-.35 78.35-.9 44.45-.6 78.15-1.05l35.5-.45q-6.6-11.15-13.15-21.9-6.55-10.8-13.45-22.4z" id="f"/><path fill="#0081c6" d="M1021.6 281.25q-1.05-1.45-2.55-.25 0 .35.05.7t.15.75q-.3-.05-.65.05-.35.1-.8.4-.15 2.75 1.15 5.75l1.8 3.95q6.2 14.45 13.9 29.65 7.65 15.2 15.7 28.75.1.15.2.35.1.2.15.35.35.8.95 1.95.55 1.1 1.4 1.9 1.55 3.75 3.05 7.55 1.55 3.8 3.05 7.6.35 1.15 1 2.9.65 1.8 2.05 2.15 10.8 26.4 18.5 53.35 7.7 26.9 12 54.55.4 6.7.7 13.4l.55 13.3-.2.2-.25.2q-.35 2.7-.25 5.9l.15 4.1q-.35 4.6-1 8.9-.7 4.25-1.7 8.3-.65 2.15-1.35 4.5-.7 2.3-1.35 4.8-2.55 7.55-5.75 15t-6.7 15.5q-.9 2.05-1.65 3.95-.7 1.85-1.35 3.55-4 5.9-8.5 12.65-4.5 6.7-7.75 11.9l-2.5 4.15-.95 2.2q-.05.4-.15 1.1-.1.7.65 1.1 3.05-.45 5.6-3.2 2.55-2.7 4-5 1.65-.55 3.3-1.95 1.6-1.4 3.05-3.3.65-2.35 1.55-4.7.95-2.35 2-4.45.95-1.9 1.85-3.45.9-1.6 1.6-2.65 1-1.55 1.85-3 .85-1.45 1.6-2.85 2.4-4.8 4.2-9.55 1.8-4.75 4.25-10.15 3.25-6.9 5.8-14.5t4.4-15.6q1.15-4.95 1.95-9.9.85-5 1.4-9.95.2-1.55.35-3.1.15-1.55.25-3.05-.15-10.6-1.45-21.2-1.25-10.6-3.5-21.1-.6-23.9-9.25-46.55-8.65-22.6-20.65-43.2-3-7.85-6.35-15.55-3.3-7.65-6.95-14.5-5.35-13.4-11.25-26.4-5.9-13.05-12.75-25.4-.75-1.5-1.6-3.35-.9-1.9-2.15-2.15l-1.4-2.2q-.75-1.1-1.45-2.15-.9-1.55-2-3m3.1 12.35q-.85-1.9-1.65-3.7l1.7 3.2q.85 1.6 1.65 3.2v.5q0 .3.05.55-.9-1.9-1.75-3.75m56.3 115.7l-.25-.55-.2-.5q-.9-2.05-1.85-4.2-.9-2.15-1.8-4.35 1.1 2.3 2.1 4.75 1.05 2.4 2 4.85z" id="g"/><path fill="#a6ce38" d="M915.35 394.7l-10.65.05-28.15 35.7q-24.75 31.4-61.1 77.3t-74.6 93.6q14.95 12.75 46.9 30.1T862 658.5q42.3 9.7 88.2-.4 65.65-16.9 100.45-48.4 34.75-31.45 40.4-68.15 5.65-39.1 2-69.65-3.6-30.5-9.4-48.25l-4.6-13.6-2.15-5.15-25.6-2.25q-24.1-1.8-56.5-3.8-32.35-2-58.5-3.3l-20.95-.85z" id="h"/><path fill="#0083CB" d="M1022.3 307.6l-1.95-.6-2.05-.25-2.05.25-1.9.6-1.8 1.05-1.5 1.3-1.3 1.7-.9 1.85-.6 2-.15 2.1.15 2.05.6 2 .9 1.9 1.3 1.65 1.5 1.35 1.8 1 1.9.65 2.05.2 2.05-.2 1.95-.65 1.75-1 1.5-1.35 1.3-1.65.95-1.9.55-2 .2-2.05-.2-2.1-.55-2-.95-1.85-1.3-1.7-1.5-1.3-1.75-1.05z" id="i"/><path fill="#a6ce38" d="M1032.8 313.4l-.75-4.85q-.85-4.45-3.65-8.95-2.8-4.45-8.5-4.7-6.65.35-9.9 5.9-3.25 5.5-3.9 12.4l26.7.2z" id="j"/><path fill="#0083CB" d="M944.2 307.6l-1.8-1-1.95-.65-2-.2-2.05.2-1.95.65-1.75 1-1.55 1.35-1.25 1.65-.95 1.9-.55 2-.2 2.05.2 2.1.55 2 .95 1.85 1.25 1.7 1.55 1.3 1.75 1 1.95.65 2.05.25 2-.25 1.95-.65 1.8-1 1.5-1.3 1.3-1.7.9-1.85.55-2 .2-2.1-.2-2.05-.55-2-.9-1.9-1.3-1.65-1.5-1.35z" id="k"/><path fill="#FFF" d="M1090.25 246.8q-6.4-5.7-11-12.6-4.65-6.9-6.9-13.05L1055.1 378.2q2.45.85 7.75 1.3 5.3.45 11.95.65 6.6.25 13 .45t10.95.5q14.65 1.4 28.1.6 13.45-.8 25.55-6.3 12.1-5.45 22.7-18.15 6.85-8.5 13.5-20.3 6.6-11.8 12.5-23.75t10.5-20.95q4.6-9.05 7.4-12.1 2.4-2.4 6.45-4.3 4.1-1.95 9-2.5 4.85-.6 9.65.95 7.1 2.5 14 6.15 6.9 3.65 11.45 7.15l3.45 3.1 1.25 2.35-.25-1.6-1.05-2.1-4.4-5.7q-5.95-6.75-14.9-14.9-9-8.15-17.85-15.1-8.85-6.95-14.35-10.05-9.4-5.2-20.25-9.15-10.85-4-21.25-5.6-10.4-1.6-18.45.4-8.35 2.3-14.9 6.05-6.6 3.75-11.65 7.8-5.05 4.05-8.9 7.25-3.8 3.2-6.65 4.35-7.85 2.7-15.3.25-7.45-2.45-13.85-8.15z" id="l"/><path fill="#0081c6" d="M1064.5 177.45l-1.15-.3q-.9-.25-1.7-.5-.05.4-.1.85l-.05.4-.05.2q-.35 3.2-.7 6.45-.4 3.25-.95 6.45-.85 4.8-1.1 9.75-.25 5-.6 9.85-1.15 12.75-2.45 25.45-1.3 12.7-2.3 25.4-1.15 14.55-2.8 29.15-1.65 14.6-3.25 29.1-1.15 10.45-2.1 20.95-.95 10.5-1.3 21-.15 2.2-.1 4.5 0 2.25.7 4.4l.35.8q.3.6.5 1.15.35.55.95 1 .6.45 1.2.3.95-.25 1.4-1 .4-.75.55-1.7.15-.95.25-1.85 2.6-15.95 4.55-32.1 1.95-16.1 3.85-32.2 1.25-10.1 3.55-20.05 2.3-9.95 5.05-19.8l.05-.3.15-.5q.2-.7.35-1.25-.05.45-.15 1l-.05.45v.25q-.55 4.85-.85 9.7-.35 4.9-.95 9.8-.95 6.95-2 14-1.05 7.1-1.55 14.2-.55 7.05.1 14.1.15 2.3-.15 4.6-.35 2.25-.6 4.5-.05.75-.15 1.55-.05.8.15 1.5l.3.7.3.2q.3-.1.5-.85-.05.45-.1.95l-.05.4v.25q-.8 6.35-1.75 12.7-.95 6.3-1.3 12.7-.15 2.35-.35 4.75-.2 2.4 0 4.75l.1.8q.05.4.15.8l.25.85q.2.65.5 1.15.5-.25 1-.65l.4-.3.2-.2q1.35-1.55 1.85-4.15.55-2.6.65-5.35.1-2.8.15-4.75.15-3.8.75-7.75.55-3.95 1.1-7.75 1.95-15.05 3.7-30.1 1.75-15.1 2.75-30.25.15-2.45.25-4.85.1-2.4.3-4.85.85-9.45 1.7-18.85.9-9.4 1.75-18.8 1.05-11.55 1.85-23.15.85-11.65 1.4-23.25.1-2.35.2-4.65.1-2.35.05-4.7v-.8q0-.35-.1-.75l-.05-.45-.05-.2q0-.1-.15-.1l-.5-.3q-1.15-.75-2.65-1.2-1.55-.5-2.85-.85-.85-.25-1.7-.55l-1.6-.6q-1.4-.55-2.7-.75-1.35-.2-2.8-.5z" id="m"/><path fill="#FFF" d="M1065.35 185.35l-1.05-.05q-.8-.05-1.5-.05-.05.45-.1 1l-.05.45v.25q-4.6 46.4-9.15 92.85-4.6 46.4-9.25 92.8-9.75 96.15-20.55 192.15-10.8 96.05-22 192.05-.95 7.95-1.85 15.9-.9 8-1.85 15.95l-.1.8q-.05.4-.1.75l-.1.8q-.05.65-.1 1.2-.1.45-.15 1.05l-.05.45v.25q-.15.85-.25 1.7-.05.85-.15 1.75l-.1.85q-.05.4-.1.85l-.15 1.05q-.1.8-.15 1.5h1l.4.05h.25q3.35 0 6.7.05t6.7.05l.35.05h2.15q.05-.45.1-1l.1-.7q6.5-61.1 13.2-122.2 6.7-61.1 13.1-122.2 8.25-80 15.9-160 7.6-80.05 14.75-160.1 1.05-11.85 2.1-23.65 1.05-11.85 2.15-23.65l.05-1.05q.1-.85.15-1.55-.45 0-1-.05h-.7q-1.7-.05-3.45-.15-1.7-.05-3.4-.15h-.9q-.4-.05-.85-.05z" id="n"/><path fill="#0081c6" d="M928.6 440.3q-1.05-1.3-2.7-2.65-1.7-1.35-3.5.05.3 3 2.9 5.65 2.6 2.65 3.7 3.7 7.3 9.25 13.95 18.3 6.6 9.1 14.9 17.9 8.1 8.9 14.45 18.9 6.3 10.05 13.65 18.75 5.35 11.05 10.75 21.95 5.35 10.9 11.65 20.65.5 1.1 1.25 2.5.7 1.45 2.15.65.85-2.95-1.5-7.45l-2.85-5.2q-4-7.9-7.95-15.8-4-7.95-8-15.75l.15-.2q-.5-1.95-1.85-4.1-1.4-2.1-2.3-3.3-8-15.2-17.3-29.3Q960.9 471.4 949.4 459q-2.05-2.45-4.2-5.55-2.1-3.1-4.7-4.55-.35-.2-.7-.1t-.5.55q-.05 1.85 1.1 3.95.919 1.75 2.05 3.3-3.176-4.014-6.45-8-3.5-4.3-7.4-8.3m19.1 22.6q-2.05-2.35-4-4.75.8.9 1.4 1.65.65.7 1.05 1.1 1.5 1.7 2.95 3.35 1.45 1.7 2.8 3.3-2.15-2.25-4.2-4.65M787.3 634q-6.05-4.75-11.55-10.2-5.45-5.5-10.15-11.85-.7-1.2-1.8-2.65-1.15-1.5-2.6-.6.35 2.8 2.4 5.65 2.1 2.9 3.05 3.95 3.8 4.75 11.85 11.95 8.05 7.25 17.1 13.85t15.85 9.3q2.1 1.25 4.3 2.25 2.15 1.05 4.4 1.85 3.5 1.35 11.45 4.15 7.95 2.85 15.8 4.7 7.9 1.85 11.2.25.35-.15 1-.45.65-.3.7-.95-1.45-2.55-5.75-3.2l-4.9-.6q-14.6-2.8-26.6-7.75-12-4.95-23.45-15.65-4.3-4.05-9.4-8.25-5.1-4.25-9.8-8.05-.75-.75-1.65-1.45-.85-.65-1.7.6.35 3.2 2.9 6t3.85 3.85q.85.85 1.75 1.65l1.75 1.65z" id="o"/><path fill="#a6ce38" d="M702.8 109.95q-8.2 12.1-13.5 28.1-5.25 16.05-11.65 30.4-4.95 10.95-8.5 26.25-3.5 15.25-6.4 27.6-3.4 13.65-4.55 26.1-1.15 12.45-.95 26.5.15 11.75.7 23 .6 11.3 1.7 22.95 0 6.45.45 13.1.45 6.65 1.45 13.55 1.3 9.4 2.85 18.7 1.55 9.3 3.4 18.45-.55 1-1.05 2l-1 2q-13 11.8-12.55 28.65.5 16.85 8.25 33.75 7.7 16.9 16.4 28.85.25.4.55.75.25.4.55.8 1.05 1.8 2.25 3.65 1.15 1.8 2.4 3.6 14.85 21.85 29.55 40.2 14.7 18.4 36.05 35.3 1.15.9 3.25 2.6 2.1 1.65 4.85 3.85-1.5 1.55-2.8 3.25-1.3 1.65-2.45 3.45-.1.8-.15 1.6l-.15 1.6q-.1 1.55-.2 3.15l-.2 3.2v.25q-.1 2.7 0 5.35.1 2.65.5 5.25.05.45.15.9.05.5.15.95.2.8.4 1.55t.4 1.55l.55 1.6.5 1.6q.2.7.45 1.4l.45 1.35q.55 1.75 1.1 3.45l1.1 3.3q1.25 2.75 2.75 5.6 1.55 2.8 3.4 5.75 4.2 6.7 8.95 13.35 4.75 6.6 9.7 13.1 6.4 5.7 13.5 11.65 7.15 5.9 15.15 13.3 13.05 12.35 27.05 24.75 14 12.45 28.65 22.7 12.7 8.75 25.7 17.4 13.05 8.65 26.3 16.95.65.3 1.3.7.65.4 1.25.85.25.15.45.3l.45.25q1.05.65 2.05 1.25 1 .65 2.05 1.25 1.9 1.15 3.85 2.3 1.9 1.15 3.85 2.3l2.85 1.65q1.5.9 3 1.75l3 1.7q1.1.65 2.25 1.3 1.1.6 2.25 1.25.6.3 2 1.05 1.45.75 3.2 1.7 6 1.1 11.95 2.1 6 1 11.85 1.4 7.3.6 11.4.5 4.05-.1 11.8-1.55 3.7-.65 7.35-.95 3.65-.25 7.4-.55 1.5 2.1 5.55 3.35 4.1 1.3 10.35.6 11.9-1.4 21-4.05 9.05-2.6 16.7-6.5.1.05.2.15l.2.1q4.1 1.65 12.9-5.15 8.8-6.8 16.15-14.4l.35-.25q.85-.6 1.7-1.55.85-.95 1.7-2.2 1-1.05 1.7-1.95.75-.85 1.15-1.45 5.8-8.25 9-18 3.25-9.8 4.2-20.55 2.45-12.55 2.1-20.75-.4-8.15-3.6-21.9-3.75-18.55-8.4-32.4-4.65-13.85-14.55-23.85-9.9-10.05-29.45-17.05-1.5-.55-3.05-.95-1.6-.45-3.2-.7-2.05-1.4-4-2.9-2-1.45-3.95-2.9-1.1-.55-1.9-.9l-1-.6q-2.9-2.1-5.8-4.25-2.85-2.15-5.7-4.35-7.8-6.1-15.45-12.5-7.65-6.35-15.2-12.95-7.4-6.5-14.8-13.15-7.35-6.7-14.75-13.4-16-14.65-29.5-29.95-13.45-15.35-26-31.45-4-5.1-8-10.25-4-5.2-8.1-10.4l-1.15-1.55q-.6-.75-1.2-1.55-8.2-10.45-16.8-21.65-8.65-11.15-17.1-22.95-4.2-5.85-8.25-11.85-4.1-6-7.95-12.1-1.85-2.9-3.6-5.85-1.8-2.95-3.5-5.9-4-5.1-7.7-10.6-3.7-5.45-6.95-11.5-4.3-7.85-8.8-15.2-4.5-7.35-8.75-14.95l-2.5-4.8q-1.25-2.4-2.45-4.8-.75-1.5-1.4-3-.7-1.55-1.35-3.1-4.15-9.75-8.8-19.25-4.7-9.5-9.6-18.85-1.3-2.8-2.55-5.65-1.25-2.8-2.45-5.65l-3.4-7.85q-9.65-23.05-18.75-46.2-9.1-23.2-14.95-48.65-1-5.1-2.65-12.65-1.65-7.55-4.8-14.15-3.15-6.65-8.7-8.95-1.4-.9-3.2-1.25-1.75-.3-3.95.1l-3.85.75q-2.95.65-5.35 1.45-2.4 1.3-4.45 3.7l-2.65 3.3M888 425.65l-.85-.95q-.4-.45-.85-.95-1.75-2.3-3.55-4.6l-3.5-4.6q-.45-.65-.85-1.25-.4-.6-.8-1.25 2.75 3.3 5.35 6.7 2.6 3.35 5.05 6.9m-229.2-8.05v.55q-.05.8-.05 1.6v1.6q-.4-3.6-.2-6.8.2-3.2 1.15-5.9-.35 2.1-.55 4.2-.2 2.1-.3 4.2-.05.3-.05.55m327.3 358.25q-.95.05-1.85-.15.75-.15 1.55-.3t1.6-.35l.3.2q.15.1.25.2-.85.35-1.85.4m24.2-228.15q1.05.9 2.1 1.75-.7-.85-1.45-1.7-.7-.8-1.45-1.65-.25.1-.55.05-.3-.05-.4-.1l-.35-.1q1.05.9 2.1 1.75m-71.35 229.35l1.1.5q-.5-.25-1-.55-.45-.3-.9-.55l-.25.1 1.05.5m-151-103.7q1.7 1.9 3.5 3.8-1.7-2-3.35-3.9-1.7-1.9-3.4-3.7 1.6 1.9 3.25 3.8z" id="p"/><path fill="#FFF" d="M882.55 535.5q-2.2-9.85-7.95-16.4-5.7-6.5-16.4-5.75-13.9 1.5-33.1 6.55-19.25 5-38.85 11.4t-34.65 12q-15 5.65-20.6 8.4-10.4 5.1-19.85 11.05-9.5 5.95-16.5 13.15t-10 16.05q-3 8.9-.45 19.85 1.65 6.8 5.75 19.45 4.05 12.6 10 29.05 5.95 16.45 13.2 34.75 7.3 18.25 15.35 36.35l-.2 3.85q-.35 3.05 1 6.75t6.5 6.5q5.15 2.8 16.25 3.05 14.1 0 23.75-3.05 9.65-3.1 15-6.8l4.3-3.3 2.25-2.35q1.45-15.75 4.8-32.75 3.35-16.95 7.65-32.35 4.3-15.4 8.55-26.4 4.3-11 7.6-14.8 3.2-3.45 8.95-7.25 5.75-3.8 13.25-7.8 7.55-4.05 16.05-8.25 8.8-4.55 14.05-12 5.3-7.45 6.85-14.75 1.6-7.35-.7-11.6.55-4.5.45-13.65-.15-9.15-2.3-18.95z" id="q"/><path fill="#0081c6" d="M1137.8 562.05l-.85-2.65-.05-.05-.05-.15-.05-.05-1.5-2.15-1.95-1.85-4.3-2.9-8.95-4.6h-.1l-5.4-1.85-2.75-.6-5.65-.65H1095l-22 2.85-10.85 2.35-34.4 10.4-10.25 4.3-.05.05h-.05l-2.2 1.2-8.25 5.9-7.15 7.1-.95 1.15-.25-.75-.35-.45-1-.25-.95.5-.3.45-.05.65.3 3.1-2.3 3.55-.2.6.05.55.7.85 1 .2.5-.25.4-.5.3-.5 2.4 16.6 2.5 7.5 7.65 41.85 20.2 90 1.85 5.2 1.25 2.45.1.1.05.1 1.55 2.05 1.85 1.9 4.1 3.15 6.85 3.55 7.3 2.35 2.45.55h.05l18.75 2.55 8.15.45 11-.45 2.7-.55.05-.05h.1l11.85-4.8 9.05-4.9 4.2-3.05.15-.2.2-.15 1.35-2.3 1.05-2.5 8.15-27.3v-.05l.65-2.55 9.8-66.15.5-31.75-.55-23.7-1.15-10.55-4.6-17.4-.45-7.5z" id="r"/><path fill="#FFF" d="M1101.4 492q-12.1-13.65-27.4-26.3-15.3-12.7-30.5-20.35-15.15-7.7-26.75-6.45-14.25 2.2-21.4 8.35-7.2 6.15-9.6 14.3-2.4 8.15-2.2 16.45.15 8.25.6 14.7.3 6.25 3.05 21.4 2.75 15.2 7.15 36.45 4.4 21.25 9.7 45.7 5.3 24.4 10.7 49.05 4.75 21.55 8.95 41.15 4.25 19.6 7.55 35.5 3.3 15.95 5.3 26.5l2.55 2.15 4.95 2.75q6.15 3.05 15.3 5.5 9.2 2.4 19.65 2.35 14.9-.4 23.45-2.9 8.5-2.55 12.15-5.25l2.75-2.35 1-1.5q13.75-48.15 17.35-87.6 3.6-39.4.85-69.25-2.75-29.8-8.1-49.05-5.35-19.25-9.5-27-5.45-10.65-17.55-24.3z" id="s"/><path fill="#FFF" d="M656.95 766.95l-8.05-.8q-1.6 0-2.6 1.1-1.05 1.1-1.1 2.55-.05 1.5 1.3 2.7l2.6 1.4 5.45 2.2q6.9 2.6 18.4 4.6 11.45 2 26.2 1.2 14.7-.75 31.5-6.45 11.65-4.35 21.95-12.65 10.35-8.3 18.3-17.35 8-9.05 12.6-15.55l4.8-7.25-1.05-1.4-2.9-2.8q-3.8-3.5-8.4-7.55-4.65-4-7.35-6.3-2.1 3.35-7.35 10.9Q756 723 748.5 732q-7.45 9.05-16.15 16.9-8.75 7.85-17.75 11.9-9.9 4.1-20.75 5.6-10.85 1.45-20.6 1.35-9.7-.15-16.3-.8z" id="t"/><path fill="#FFF" d="M985.85 192.35l2.2-3.4.8-2.05q-4.05-2.1-9.95-3-5.95-.85-12.2-.85-6.25.05-11.25.7-5.05.65-7.3 1.6-1.85 1.05-5.6 4.95-3.75 3.9-7.8 8.65-4.1 4.75-7 8.2l-3.05 3.65 2 1.35q1.85 1.2 3.85 2.4l1.6.9.85.3q11.4-1.85 18.85-3.15 7.4-1.3 12.05-2.6 4.65-1.25 7.75-3 3.35-2.05 7.35-6.3 3.95-4.3 6.85-8.35z" id="u"/><path fill="#FFF" d="M752.8 734.5l.2 26.95q.15 24.95.4 57.5.25 32.6.45 57.45l.2 26.6q6.15 5.05 19.85 7.2 13.65 2.1 30.5 1.65 16.9-.5 32.75-3.3 15.9-2.8 26.45-7.55l4.5-20.7q4.15-19.3 9.55-44.65 5.4-25.3 9.5-44.6l4.35-20.5q-7.45-13.9-26.4-22.45-18.9-8.55-41.85-12.5-22.9-3.95-42.4-4-19.45-.1-28.05 2.9z" id="v"/><path fill="#0083CB" d="M943.65 840.8q-1.05-2.05-1.45-3.45-.75-2.75-1.15-5.5-.35-2.8-.9-5.5l-.5-1.5-.55-.4q-.6.1-1.05 1.35-.4 1.2-.4 2.45.15 3.15 1.1 7.5.95 4.35 3.1 7.95 2.1 3.6 5.8 4.45 3.45.45 5.8-2.6 2.35-3 3.65-7.05 1.3-4.05 1.65-6.75.15-1 .2-2.9.05-1.9-.25-3.6-.3-1.75-1.25-2.3l-.2-.05q-.15 0-.2.05-.35.35-.45.85l-.15.7q-.25 1.9-.3 3.9 0 2-.35 3.95-.3 1.7-1.15 4.5-.85 2.8-2.15 5.3-1.3 2.45-3 3.1-1.75.45-3.3-.95-1.5-1.45-2.55-3.5z" id="w"/><path fill="#0081c6" d="M951.25 738.5q-.15-3.15-.55-4.95-.4-1.8-1.65-2.05-1.3-.25-3.95 1.25-.75 1.5-.85 3.3-.15 1.85 0 3.35-1.35 1.4-2.55 3.25-1.2 1.85-2.05 3.45l-1.1 2.15q-5.1 12.35-6.25 30-1.2 17.7.85 36.75t6.6 35.5q4.5 16.5 10.8 26.55.35.55.95 1.5t1.4 2q.2 1.65 1.15 2.65.9 1 3.2.35l.15-.15q.2.05.35 0 .2 0 .4-.05v-.3-.35q1.55-2.05 1.65-5.25.15-3.15-.25-5.75l-.45-2.8q-1.9-32.6-3.9-65.2t-3.95-65.2z" id="x"/><path fill="#FFF" d="M775.35 771.35l4.9 7.95q4.65 7.55 11.05 18.1 6.4 10.6 11.95 19.9 5.5 9.35 7.4 13.2 2.8 5.9 6.7 16.8 3.95 10.85 7.75 22.5 3.85 11.6 6.45 19.7l2.75 8.5q6.05 4.2 22.45 7.3 16.4 3.1 36.25 3.95 19.85.9 36.4-1.55 16.5-2.5 22.85-9.4.9-12.35.75-25.05-.2-12.65-.85-25.25-.7-12.6-1.25-24.65-.75-18.4-1.65-35-.85-16.65-1.65-29.7-.8-13.05-1.3-20.65l-.4-7.85q-19.4-5.4-41.8-2.7-22.45 2.65-45.55 10.2-23.1 7.55-44.5 16.75-21.4 9.25-38.7 16.95z" id="y"/><path fill="#0083CB" d="M943.35 838.65q-1.2-2.6-1.95-5.7-.8-3.05-1.8-5.85l-.4-.7-.3-.15q-.3.15-.45.85-.15.7-.15 1.4.2 3.1 1.2 6.95 1 3.8 2.75 6.95 1.7 3.15 4.05 4.3 4 1.55 6.85-1.1 2.85-2.65 4.45-7.45 1.6-4.75 1.75-9.5v-1.7q-.05-1-.25-1.8-.25-.75-.7-.7-.15.3-.3.65l-.15.5q-.6 2-.85 4.2-.3 2.15-.8 4.3-1.15 4.45-3.3 7.15t-4.75 2.35q-2.55-.35-4.9-4.95z" id="z"/><path fill="#FFF" d="M767.75 370.25q-6.5 10.05-12.3 20.9-5.4 10.3-10.9 21.95-5.5 11.65-9.95 21.85-4.45 10.15-6.7 16l43.35 4.1q41.25 3.35 95.3 7.25 54.1 3.9 94.95 6.2l30.95 1.4 8.1.05 3.2-.45q-1.65-3.05-7.75-9.25t-13.95-13.3q-7.85-7.1-14.8-12.75-6.95-5.7-10.25-7.65l-29.95-15.4q-25.65-13-57.9-29.25-32.25-16.3-56.35-28.4l-25.35-12.75q-2.35 3.95-7.75 11.7-5.4 7.75-11.95 17.8z" id="A"/><path fill="#0081c6" d="M948.5 775.95l-.85-1.6q-.65-1.15-1.55-2.5-.95-1.4-1.9-2.4-.65-.1-.8.45-.2.5-.3 1-.6 2.8-.2 4.5.4 1.75 1.45 3.25 1.05 1.5 2.45 3.6l.65 1.65q.45 1.25 1.1 2.8.65 1.5 1.45 2.65l.2-.1.2-.15q.15-.3.15-.65 0-.35.05-.5.45-1.1.1-3.45-.35-2.4-1-4.85-.7-2.45-1.2-3.7M857.6 787q.25.25.4.3l4.75.5q4.15.25 8.55.45l5.85.3q.45.05 1.55.2 1.05.1 2.15.05 1.15-.1 1.85-.6-.2-.2-.45-.4l-.35-.25q-.4-.3-1.1-.55-.65-.25-1.6-.45.1 0 .25-.05.1-.05.2-.15 0-.15-.2-.3t-.3-.2q-.95-.7-3.2-.9-2.2-.2-4.45-.2h-3.55l-1.7-.15q-1.35-.1-2.5-.3-.25 0-.45.1-.25.1-.35.25-.45 0-.9-.05-.45 0-.8-.05-.25 0-.6.2t-.45.4l.05.1-.8-.05q-.35-.05-.7-.05-.55.1-1.05.45-.45.3-.35.9 0 .3.25.5m87.65-132.85q-7.2 17.5-12.4 35.65-5.15 18.15-8.3 38.65-.85 5.35-1.55 10.45-.7 5.05-1.15 9.95.4-.15.8-.25.35-.15.65-.2.3.05.65.1.4.1.5.2 1.6 1.7 3.1 6.2 1.45 4.45 2.75 9.5 1.25 5.05 2.1 8.5.65-.1 1.55-.05.85.05 1.9.25 0-2.45.9-5.25.9-2.85 2.95-4.5 2.1-1.7 5.75-.7 1.5.75 3 2t2.65 2.45q1.15 1.2 1.5 1.75 1.35 1.9 3.1 5.05 1.7 3.2 2.95 6.4 1.3 3.2 1.25 5.2 1.2-.3 2.55-.6 1.4-.3 2.9-.6l1.2-.3q1-.25 2.2-.6 1.15-.35 2.1-.75.75-.45 1.7-.65.95-.15 1.95 0 1.55-1 3.85-1.7 2.35-.7 4.6-1.1 2.2-.4 3.5-.55l2.9-.5q1.4-.25 2.85-.5 1-.6 2.05-1.05 1-.5 1.95-.85.6-.7 1.3-1.4.65-.7 1.4-1.35.5-.45 1.3-1.1.75-.7 1.7-1 .95-.3 1.95.25.1.25.15.5l.1.5q4.3-4.75 8.5-9.5t9.4-8.5q.35-.35.75-.65.4-.3.75.2.1 1.05-.5 2.15-.55 1.05-1.2 1.85l-.9 1.15q-1.5 2.1-3 4-1.55 1.95-3.15 3.75 4.35-4.45 8.3-9.1 3.95-4.6 8.2-9.5l1-1.05q.75-.7 1.8-1.5 1-.75 2-1.15.9 1.85-.55 4.65-1.45 2.8-3.35 5.1l-2.35 2.8q1.125-1.256 2.4-2.4l.4-.3q.35-.2.75-.3.6 1.6-.8 3.7-1.35 2.15-3.05 3.8l-2.05 2-.3.3-.3.3q-.5.55-1.05 1.1-.6.5-1.15 1.05-1 .9-2.1 1.8-1.05.9-2.2 1.8-1.4 1.1-2.85 2.2-1.45 1.05-2.95 2.1-.9.6-1.75 1.2-.9.6-1.75 1.2-1.05.7-2.05 1.4-1 .65-2.05 1.35-1.25.95-2.55 1.85-1.3.95-2.65 1.85-.55.35-1.1.75-.55.35-1.15.7.6.05 1.2.15.6.05 1.2.2 4.7-1.75 9-3.7 4.25-1.9 7.6-3.7 16.05-8.55 28.8-19.9 12.75-11.35 22.15-24.9 9.35-13.5 15.2-28.75 2.4-5.05 4.4-10.5 1.95-5.4 3.45-11.05 1.1-2.55 1.75-5.5.6-2.9.9-5.95 2-10.7 2.7-21.75.7-11.05.2-22.1.3-18.6-3.4-37.3-3.65-18.75-12.1-37.4l-1.6-3.5-1.6-3.55q-.3 1.85.4 4.1.75 2.2 1.05 4.3.35 2.1-1.2 3.5-2.8 2.2-4.15.5-1.35-1.65-2-4.75-.65-3.05-1.3-5.15-3.25.6-5.4-3.2-2.15-3.85-3.45-9-1.35-5.2-2.15-8.7l-.5-1.9q-.35-1.45-.8-3.25-.45-1.85-.85-3.3-.6-.65-1.55-.4l-.8.2-.45.05q-2.15-1.3-2.25-4.05-.1-2.75 1.2-6.4-20.2 13.7-37.85 32.2-17.65 18.5-31.75 38.8-14.1 20.35-23.7 39.6-9.35 18.45-16.6 35.9m143.9 35.65q.25-.9.45-1.75.2-.9.45-1.75l.15-.25.2-.2-.6 2q-.3.95-.65 1.95m-389.6-158.1q-.3-.5-.6-.9-.15-.2-.35-.3-.2-.1-.45-.1-.3-.4-.65-.75-.3-.35-.6-.65-1.25-.5-.95.2.3.75 1.2 2.05v.5q.05.3.1.7l-.75-1.65q-.5-.95-1.2-2.05-.7-1.15-1.55-1.95-.85-.45-1-.1-.1.35.15 1.15.25.8.55 1.65 4.05 12.5 9 25 4.9 12.5 8.75 25.15 3.85 12.7 4.7 25.7-.2 4.2-.55 8.65-.4 4.45-1.05 8.6-.7 4.1-1.7 7.35-.25 2.15-.65 4.3-.35 2.15-.95 4.35-.2 1.25-.45 2.5-.25 1.2-.55 2.4l-.1.5q-.05.3-.05.55l-.1.7q-.05.35-.1.65-.55 3.6-1.05 7.05-.55 3.45-1.3 7.05-.35 1.9-.8 3.75-.45 1.85-.95 3.65-1.25 3.3-2.35 6.7-1.05 3.4-1.95 5.35-2 4.15-3.45 10.1-1.5 5.9-1.9 12.5.25 1.5.6 3 .3 1.5.7 3l.05.15q0 .1.05.2 0 .1.05.25.35 1.3.85 2.65.45 1.35 1 2.75l.5 1.1q.25.55.5 1.15.3.55.55 1.1.3.55.6 1.15l.5.9q.25.4.5.85l.3.45q.15.25.25.5.65 1 2.2 3.2 1.6 2.2 2.9 4.35l1.05 1.85.35 1.2q0 .15-.1.45-.1.3-.45.45l-.45-.05q.1.15.25.3.1.15.25.3.85.5 2.5 1.55t3.6 2.4q1.65-1.55 2.7-3.3 1.1-1.8 1.6-2.55 8.15-9.15 12.85-15.3 4.75-6.1 7.05-12.2 2.35-6.05 3.25-15.2 4-17.4 4.2-35.8.2-18.45-3.8-36.9-4.05-18.45-12.8-35.9-1.85-3.6-3.85-6.85-2.05-3.3-4.15-6.3-.9-3.45-2.15-6.5t-3.05-5.35q-1.2-1.45-2.25-3.25-1.1-1.85-2.1-3.7l-.85-1.6q-.65-1.25-1.5-2.8-.85-1.55-1.65-2.75-.5-.4-1.05-.4-.55-.05-.95.4-.1.1-.15.3-.05.15 0 .4-1.05-1.6-2.1-3.15-1.05-1.6-2.1-3.1l-.7-1-1.4-1.75-.5-1m19.75 38.6l-.1-.35.1.15v.2m337.3-66.9q.05.2.15.4.1-.15.15-.35.1-.15.2-.35-.15-.05-.35-.1-.15 0-.3.05.05.2.15.35m46.7-14.7l-.5.9q.55-.3.95-.7.45-.4.65-.9l-.3-.1-.3-.1-.5.9M710.5 598.25l.2.6v-.95-.95q-.15.15-.25.3t-.1.4q.05.3.15.6z" id="B"/><path fill="#FFF" d="M753.55 440.15l-10.25 3q-9.65 3.1-21.85 10.05-12.2 6.95-20.3 18.55-8.1 11.6-5.5 28.6 1.9 10.45 4.5 22.75 2.65 12.3 7.4 29.3t13 41.45q1.55 4.9 1.25 13.2-.35 8.35-1.8 18.45-1.5 10.1-3.35 20.35-1.9 10.25-3.5 19.05-1.4 7.3-4.25 14.8-2.8 7.5-5.1 15.6-2.35 8.1-2.4 17.1 0 9 4.15 19.3 7.15 14.35 39.7 26.4 32.55 12.05 75.25 20.35 42.75 8.3 80.55 11.4 37.8 3.1 55.5-.45 18.6-3.85 36.25-9.15 17.65-5.3 33.8-15.1 16.1-9.8 30-27.2 11.85-15.2 19.9-35.55 8.05-20.35 12.05-43.15 4-22.75 3.6-45.3-.35-22.6-5.35-42.25-6.15-23.1-13.65-38.95-7.5-15.9-14.65-25.6-7.1-9.7-12.1-14.35l-6.05-5.3-45.85-8.25q-42.75-7.15-98.5-16.15-55.75-9.05-98-15.8l-44.45-7.15z" id="C"/><path fill="#0081c6" d="M1162.4 196.4q-2.35-.6-5.15.05-.25.05-.85.2-.65.1-1 .55-1.35 1-2.9 2.45-1.55 1.5-2.75 2.75l-1.45 1.7q-5.55 8.65-10.45 16.8-4.9 8.2-10.05 16.1-1.65 1.8-3 3.85-1.4 2.05-2.6 4.25-2.7 3.7-5.7 7.35-3 3.7-6.4 7.4-4.5 5.05-9.15 10.9-4.7 5.85-9.9 11l-.7.45-.7.4-.25.1q-4.2 2.25-8 4.55-3.75 2.3-7.9 3.5-4.15 1.2-9.5.2-3.55-.8-6.7-3.4-3.1-2.6-5.7-6.35-2.6-3.75-4.55-8v-1.3q-.05-.6-.05-.8-.35-3.15-1.1-6.1-.75-2.95-1.55-5.85-.3-2.95-.55-5.6-.25-2.7-.6-4.85-.3-1.75-.55-3.4-.25-1.6-.9-3.2-.55-1.7-1.5-3.1-1-1.45-2.55-2.4l-.45-.45q-.2-.15-.35-.25-3.9-2.15-9.7.1-5.8 2.2-11.95 6.2-6.1 4-11 7.15-1.05.5-1.9.95l-1.15.65q-.25.1-.45.2l-.4.2q-7.75.65-14.45-1.9-6.65-2.5-13.1-7.55-6.45-5-13.55-11.7-2.25-2.1-4.7-4.15-2.45-2.05-5.1-3.95l-.3.2-.3.2q-.4.25-.7.6-.3.3-.55.75-.05.1-.1.25l-.1.3-.7-.25-.25.1q-.05.35.25 1l.5 1 .05.2q-1.1 4.35-2.75 5.65-1.7 1.3-3.95.65-2.3-.7-5.15-2.3l-.35 1.3q-.35 1.15-.9 1.95-2.9 3.45-4.9 2.85-2.05-.6-4.2-2.1-2.1-1.5-5.3-.75-3.55 1.1-5.75 1.4-2.15.25-4.4-.15-2.25-.4-6.1-1.3-5.75-1.25-9.5-1.3-3.8-.05-7.5.35-3.65.45-9.05.65-5.4.15-9.15 1.35-3.75 1.15-6.95 3.6-3.25 2.45-6.95 6.5-6.85 7.1-14.45 14.55-7.6 7.45-14.35 15.6-6.75 8.15-11.1 17.3-.55 1.15-1.65 3.65-1.05 2.5-2.5 5.85-1.45 3.3-3.15 7.05-.3.75-.65 1.5-.35.7-.65 1.45-.45.9-.85 1.75-.4.9-.8 1.75-.6 1.25-1.2 2.45l-1.15 2.4q.15 1.6.45 3 .25 1.4.65 2.5 1.8 4.65 7.1 10.45 5.3 5.85 11.3 11.45 6 5.65 9.9 9.6 7.5 8.25 12.7 14.05 5.15 5.85 11.55 10 6.35 4.2 17.55 7.45 12.25 3.6 24 6.35 11.8 2.75 23.75 4.4 11.9 1.65 24.6 1.85 6.45 0 13.1.3 6.6.2 13.1 1.4 6.45 1.15 12.5 3.95 6 2.75 11.25 4.4 5.25 1.65 10.4 3.85 5.2 2.25 10.9 6.55 2 1.55 5.5 3.95 3.45 2.45 7.8 5.2 4.3 2.8 8.85 5.35-5.25 5-10.2 10.65-4.95 5.7-8.1 11.3-3.15 5.6-3 10.25.05.6.15 1.2.1.6.3 1.15.35.8.75 1.55t.85 1.45q.2.3.45.6l.5.5-.3-.05q.3.5.7 1 .35.5.75.95 6.85.9 13.25.6 6.35-.25 12.75-1.3 6.4-1 13.25-2.4 6.3-.7 12.7-1.85 6.45-1.2 12.9-2.95.95-.2 1.9-.5 1-.25 2-.55 17.25-4.95 33.15-14.3 15.9-9.3 28.4-23.8 12.5-14.5 19.65-34.95 1.15-3.3 2.65-7.8 1.55-4.55 2.9-9.55 1.4-5 2.1-9.75 2.05-9.8 3.4-19.6 1.3-9.8 2.1-19.15.65-7.1 1.4-13.1.8-6 1.15-12.15.4-6.1-.15-13.55-.55-8.3-.75-15.85-.25-7.55-.6-14.9-.35-7.35-1.45-15-.35-4.05-.95-8.05-.65-3.95-1.65-7.8-1.15-4.45-3.05-10.35-1.9-5.85-4.9-11.2-2.95-5.4-7.25-8.25-1.85-1.65-4.2-2.25m-140.65 44.55l.1-.05v.05h-.1m-37 11.1l-.4-.15-.15-.1q.11.07.2.1.2.05.35.15z" id="D"/><path fill="#FFF" d="M1122.8 255.7q-12.8 17.7-28.05 29.6-15.25 11.9-30.8 9.35-8.3-2-13.3-8.85-4.95-6.8-7.45-15.35-2.45-8.5-3.25-15.75-.75-7.2-.75-10-.1-2.8-1.95-4.65-1.8-1.85-4.5-2.15-2.75-.3-5.5 1.7-4.35 3.3-10.4 7.4-6.1 4.05-13.1 6.85-6.95 2.75-14 2.2-3.45-.5-8.85-4.25-5.45-3.75-11.9-9.25-6.45-5.45-12.9-11.05-6.45-5.65-11.95-9.85-4.35-3.5-15.35-6.45-11-3-27.4-2.25-16.45.75-37.2 8.4-14.4 5.75-23.85 12.85-9.45 7.1-14.4 12.95l-3.95 4.8-1.85 2.85q-3.9 7.5-10.1 24.3-6.15 16.8-12.5 35.55-6.35 18.75-10.65 32.1l-4.5 13.95 2.3 7q2.15 6.55 8.1 17 5.9 10.4 17.45 22.55 11.5 12.15 30.5 23.85 23.6 13.95 47.2 22.7t43.5 13.25q19.9 4.5 32.5 5.75 38.15 4.1 68.2 2 30-2.05 51.95-9.05 21.95-7 35.85-17.7 18.65-14.25 31.8-34.95 13.2-20.7 20.3-46.1 7.1-25.35 7.6-53.75.4-33.9-1.65-56.3-2.05-22.35-4.55-34.35l-3.4-14.8q-1.5-5.4-5-7.1-3.5-1.7-6.95-.55t-4.9 4.4l-9.45 18.5q-8.2 14.95-20.95 32.65z" id="E"/><path fill="#FFF" d="M889.05 162.7q-6.85 3.55-13.1 8.35-6.25 4.75-10.7 9.3-4.45 4.55-5.8 7.35-.9 2.55-1.35 9.55-.45 7-.6 15.1-.15 8.05-.15 13.9v6.1l2.8-.25q2.65-.25 6.15-.65 3.5-.4 6.25-.8l2.2-.4.95-.3q8.7-11.05 13.9-18.95 5.15-7.95 7.6-13.05 2.4-5.1 2.9-7.65.45-2.15 1.05-6.9.65-4.75 1.1-10.2.45-5.45.5-9.65l-.2-3.4-.55-1.8q-6.15.8-12.95 4.35z" id="F"/><path fill="#0083CB" d="M887.8 323.3q-2.1-1.35-4.65-1.55-2.55-.15-4.9.9-2.3 1.05-4.2 3.1-1.9 2.05-3.1 4.85-1.25 2.75-1.6 6.05-.3 3.3.35 6.2.65 2.95 2.1 5.2 1.45 2.3 3.55 3.65 2.1 1.4 4.65 1.6 2.55.15 4.85-.9 2.35-1.1 4.25-3.15t3.1-4.8q1.25-2.8 1.6-6.1.3-3.3-.35-6.2-.65-2.9-2.1-5.2-1.5-2.25-3.55-3.65z" id="G"/><path fill="#FFF" d="M986.25 295.45q-2.35-6.75-7.9-11.65-5.5-4.95-15.3-6.75-9.95-1.5-16.9 1.55-7 3.1-11.65 8.85-4.65 5.8-7.5 12.35-2.85 6.5-4.55 11.9 8.9 1 20.1 2.9 11.2 1.85 23 4.1 11.75 2.2 22.35 4.35.95-6.45.8-13.65-.15-7.25-2.45-13.95z" id="H"/></defs><use xlink:href="#a" transform="matrix(-.06387 -.05388 -.0481 .24768 1296.7 774.45)"/><use xlink:href="#b" transform="matrix(-.06335 -.04712 -.02849 .14763 1290.25 798.45)"/><use xlink:href="#c" transform="matrix(-.06339 -.03201 -.02414 .14938 1289.1 780.5)"/><use xlink:href="#d" transform="matrix(-.123 .03465 -.0075 .14769 1340.95 727.05)"/><use xlink:href="#e" transform="matrix(-.06366 -.06094 -.03047 .178 1298.85 786.35)"/><use xlink:href="#f" transform="matrix(-.06738 .06712 .02246 .14436 1257.35 716.7)"/><use xlink:href="#g" transform="matrix(-.0691 -.01283 -.01515 .15971 1286.3 767.6)"/><use xlink:href="#h" transform="matrix(-.0691 -.01283 -.01515 .15971 1286.3 767.6)"/><use xlink:href="#i" transform="matrix(-.06145 -.04166 -.02806 .14766 1287.65 791.1)"/><use xlink:href="#j" transform="matrix(-.06145 -.04166 -.02806 .14766 1287.65 791.1)"/><use xlink:href="#k" transform="matrix(-.0487 -.08743 -.04774 .12456 1284 846.95)"/><use xlink:href="#l" transform="matrix(.76804 .81656 .23247 -1.07278 260.4 -201.9)"/><use xlink:href="#m" transform="matrix(1.04947 .01494 -.01494 1.04947 35.55 28.55)"/><use xlink:href="#n" transform="matrix(1.04947 .01494 -.01494 1.04947 35.55 28.55)"/><use xlink:href="#o" transform="matrix(-.06223 .07512 .02272 .11742 1269.15 676.75)"/><use xlink:href="#p" transform="matrix(-.06223 .07512 .02272 .11742 1269.15 676.75)"/><use xlink:href="#q" transform="matrix(.66025 -.15878 .11958 .70192 173.75 301.45)"/><use xlink:href="#r" transform="matrix(-.16666 .65347 .63977 .18079 792.25 -145.25)"/><use xlink:href="#s" transform="matrix(-.16666 .65347 .63977 .18079 792.25 -145.25)"/><use xlink:href="#t" transform="matrix(-.66821 -.00584 -.00085 .6708 1470.9 253.15)"/><use xlink:href="#u" transform="matrix(.56136 .29013 -.29536 .62619 487.1 41.5)"/><use xlink:href="#v" transform="matrix(.76709 .0776 .0663 .82423 130.6 73.7)"/><use xlink:href="#w" transform="matrix(.74503 .194 .07014 .7761 23.65 19)"/><use xlink:href="#x" transform="matrix(.68768 -.0158 .18953 .82823 185.4 149.7)"/><use xlink:href="#y" transform="matrix(.68768 -.0158 .18953 .82823 185.4 149.7)"/><use xlink:href="#z" transform="matrix(.73396 .02415 .14252 .75882 173.35 187.65)"/><use xlink:href="#A" transform="matrix(.67288 .13022 -.04721 .63777 304.85 185.45)"/><use xlink:href="#B" transform="matrix(-.622 -.12839 -.08888 .72424 1474.85 332.8)"/><use xlink:href="#C" transform="matrix(-.622 -.12839 -.08888 .72424 1474.85 332.8)"/><use xlink:href="#D" transform="matrix(.67282 .19653 -.22173 .64272 370.3 122.45)"/><use xlink:href="#E" transform="matrix(.67282 .19653 -.22173 .64272 370.3 122.45)"/><use xlink:href="#F" transform="matrix(.40916 .52527 -.42795 .51447 658.65 -135.05)"/><use xlink:href="#G" transform="matrix(-.45845 -.14742 -.16661 .62724 1432.05 447.65)"/><use xlink:href="#H" transform="matrix(.6399 .18738 -.21336 .61777 377.5 132.2)"/></svg>