
<svg xmlns="http://www.w3.org/2000/svg" version="1.1" xmlns:xlink="http://www.w3.org/1999/xlink" preserveAspectRatio="none" x="0px" y="0px" width="760px" height="880px" viewBox="614 10 760 880">
<defs>


<g id="Symbol_21_0_Layer0_0_FILL">
<path fill="#FFFFFF" stroke="none" d="
M 1131.55 490.6
Q 1119.35 482.3 1104.25 480.6 1089.2 478.95 1074.95 482.65 1060.7 486.3 1051.1 494 1041.45 501.7 1040.2 512.05 1040.65 525.3 1035.25 546.9 1029.8 568.5 1022.45 594.8 1015.15 621.15 1010 648.75 1004.85 676.35 1006 701.65 1012.75 715.85 1021 724.05 1029.3 732.25 1039 735.7 1048.7 739.15 1059.75 739.05 1070.95 738.95 1081.25 734.4 1091.55 729.9 1099.25 721.95 1106.95 714.05 1110.35 703.85
L 1120.95 665.15
Q 1128.6 635.25 1135.45 598.15 1142.3 561 1142.7 530.65 1143.15 500.25 1131.55 490.6 Z"/>
</g>

<g id="Symbol_36_0_Layer0_0_FILL">
<path fill="#0075c9" stroke="none" d="
M 901.9 778.15
Q 901.9 777.7 901.45 777.45 901.2 777.35 901 777.65 900.8 777.9 900.85 778.1 900.7 778.8 900.6 779.6
L 900.5 780.65
Q 900.45 780.9 900.4 781.15 900.35 781.45 900.3 781.7 899.1 795.8 896.45 810.5 893.8 825.25 890.5 839.25 887.15 853.25 883.85 865.05 883.6 866.25 883.4 867.5 883.15 868.75 882.9 869.95
L 882.6 871.95
Q 882.35 873.5 882.15 874.95
L 881.95 876.7 881.95 876.95
Q 881.95 877.15 882.05 877.3 883.35 877.35 884.25 875.6 885.15 873.9 885.6 872.1
L 886.1 870
Q 889.8 858.45 892.45 846.3 895.1 834.2 897.15 821.9 899.25 809.55 901.3 797.5 902.05 793 902.1 788.3 902.15 783.65 901.9 779.05 901.95 778.55 901.9 778.15
M 765.65 585.45
Q 766.6 584.4 767.5 583.25 768.4 582.15 769.2 580.9 771.5 577.15 774.05 574.25 776.6 571.35 780.05 568.6 783.95 565.45 788.05 563.5 792.15 561.5 796.95 560.15 797.9 559.9 799.6 559.35 801.2 558.75 802.2 557.8 803.2 556.85 802.15 555.45
L 801.9 555.25 801.3 554.9
Q 800.55 554.5 799.8 554.7 799.35 554.8 798.85 555
L 798.2 555.25
Q 794.55 556.55 791.15 557.7 787.75 558.8 784.25 560.7 778.7 563.85 774.25 568.1 769.75 572.35 766.5 577.7 761.9 584.3 758.1 591.2 754.25 598.15 751.15 606.25 744.85 622.75 741.3 640.05 737.75 657.35 736.8 675.05 735.8 692.7 737.35 710.2 738.4 722.45 739.1 734.7 739.8 746.95 740.65 759.25 741.15 766 742.3 772.8 743.5 779.6 744.85 786.25
L 745 787.35
Q 745.1 788.15 745.5 788.7 746.15 788.35 746.45 787.65 746.8 786.95 746.85 786.05 746.75 784.95 746.6 783.85 746.5 782.75 746.4 781.65 745.7 775.95 745.15 770.2 744.7673828125 765.8390625 744.4 761.45 744.3125 760.1375 744.2 758.8 743.1 747.9 742.3 739.6 741.5 731.25 741.05 726.55
L 740.6 721.8
Q 740.85 721.65 741.15 721.55 741.4 721.45 741.7 721.35 741.5 718 741.25 714.65 741 711.3 740.75 708 739.1 687.9 741.05 666.15 743 644.4 749.05 623.55 755.05 602.7 765.65 585.45 Z"/>

<path fill="#FFFFFF" stroke="none" d="
M 741.7 721.35
Q 741.4 721.45 741.15 721.55 740.85 721.65 740.6 721.8
L 741.05 726.55
Q 741.5 731.25 742.3 739.6 743.1 747.9 744.2 758.8 744.3125 760.1375 744.4 761.45 744.8375 765.525 745.25 769.8 745.8 775.55 746.4 781.65 746.5 782.75 746.6 783.85 746.75 784.95 746.85 786.05 748.7 805.15 750.6 824.7 752.5 844.2 754.15 860.75 755.75 877.25 756.75 887.4
L 757.8 897.9
Q 761.7 905.15 777.7 908.9 793.7 912.6 814 912.75 834.3 912.85 851.15 909.2 868 905.6 873.7 898.15
L 875.15 893.85
Q 876.55 889.7 878.8 882.3 881.1 874.85 883.85 865.05 887.15 853.25 890.5 839.25 893.8 825.25 896.45 810.5 899.1 795.8 900.3 781.7 901.05 772.25 900.95 763.6 900.8 755 899.5 747.65 895.6 729.45 877.25 720.45 858.95 711.45 833.65 709.65 808.3 707.85 783.45 711.3 758.65 714.7 741.7 721.35 Z"/>
</g>

<g id="Symbol_27_0_Layer0_0_FILL">
<path fill="#0075c9" stroke="none" d="
M 943.65 840.8
Q 942.6 838.75 942.2 837.35 941.45 834.6 941.05 831.85 940.7 829.05 940.15 826.35
L 939.65 824.85 939.1 824.45
Q 938.5 824.55 938.05 825.8 937.65 827 937.65 828.25 937.8 831.4 938.75 835.75 939.7 840.1 941.85 843.7 943.95 847.3 947.65 848.15 951.1 848.6 953.45 845.55 955.8 842.55 957.1 838.5 958.4 834.45 958.75 831.75 958.9 830.75 958.95 828.85 959 826.95 958.7 825.25 958.4 823.5 957.45 822.95
L 957.25 822.9
Q 957.1 822.9 957.05 822.95 956.7 823.3 956.6 823.8
L 956.45 824.5
Q 956.2 826.4 956.15 828.4 956.15 830.4 955.8 832.35 955.5 834.05 954.65 836.85 953.8 839.65 952.5 842.15 951.2 844.6 949.5 845.25 947.75 845.7 946.2 844.3 944.7 842.85 943.65 840.8 Z"/>
</g>

<g id="Symbol_68_0_Layer0_0_FILL">
<path fill="#FFFFFF" stroke="none" d="
M 867.9 724.3
L 853.15 719.9 848.45 717.85 845.6 715.95 843.8 744.4
Q 842.1 771.4 839.85 806.95 837.6 842.5 835.95 869.55
L 834.3 898
Q 840.25 902.25 856 906.15 871.7 910 891.4 911.5 911.1 912.95 929.1 910.1 947.05 907.2 957.6 897.95 966.5 883.5 974.1 861.85 981.75 840.25 987.95 817.6 994.2 795 999 777.6 1003.8 760.15 1007.15 754.1 988.75 749.4 963.1 744.3 937.5 739.15 911.85 734.05 886.25 728.9 867.9 724.3 Z"/>
</g>

<g id="Symbol_25_0_Layer0_0_FILL">
<path fill="#0075c9" stroke="none" d="
M 943.35 838.65
Q 942.15 836.05 941.4 832.95 940.6 829.9 939.6 827.1
L 939.2 826.4 938.9 826.25
Q 938.6 826.4 938.45 827.1 938.3 827.8 938.3 828.5 938.5 831.6 939.5 835.45 940.5 839.25 942.25 842.4 943.95 845.55 946.3 846.7 950.3 848.25 953.15 845.6 956 842.95 957.6 838.15 959.2 833.4 959.35 828.65 959.35 827.95 959.35 826.95 959.3 825.95 959.1 825.15 958.85 824.4 958.4 824.45 958.25 824.75 958.1 825.1
L 957.95 825.6
Q 957.35 827.6 957.1 829.8 956.8 831.95 956.3 834.1 955.15 838.55 953 841.25 950.85 843.95 948.25 843.6 945.7 843.25 943.35 838.65 Z"/>
</g>

<g id="Symbol_69_0_Layer0_0_FILL">
<path fill="#FFFFFF" stroke="none" d="
M 769.15 671.25
Q 768.4 672.35 769 674.1 769.65 675.7 770.85 676.15 772.1 676.65 773.6 676.5 775.1 676.4 776.5 676.2
L 777.25 676.15
Q 777.6 676.1 778 676.1
L 778.4 676.05 779.1 676.05
Q 780 676 780.75 675.9 781.1 675.9 781.5 675.85
L 782.05 675.85
Q 789.7 675.15 796.9 674.6 804.05 674.1 811.2 674.6 818.3 675.1 825.85 677.5 834.25 680.35 842.8 682 851.35 683.65 859.95 683.35 868.6 683.05 877.15 680 878.75 679.4 880.35 678.8 882 678.15 883.55 677.5 884.3 677.2 885.15 676.85 886 676.5 886.35 675.85
L 886.35 675.3 886.2 674.3
Q 885.95 673.05 885.6 671.75
L 885.2 670
Q 884.2 665.95 883.1 661.95 881.95 657.9 880.85 653.85
L 880.2 651.55
Q 880 650.9 879.85 650.3 879.4 650.5 878.85 650.75
L 878.2 651
Q 874 652.85 870 654.4 866.05 655.95 861.95 657 857.85 658 853.2 658.25 847.15 658.4 841.1 658.05 835.05 657.7 829 657.6 820.25 657.4 812.05 657.75 803.85 658.15 795.25 660.35 789.75 661.8 784.45 663.9 779.15 665.95 773.95 668.3 772.7 668.8 771.3 669.5 769.9 670.15 769.15 671.25 Z"/>
</g>

<g id="Symbol_61_0_Layer0_0_FILL">
<path fill="#0075c9" stroke="none" d="
M 1025.45 481.1
L 1024.85 480.3
Q 1024.35 479.65 1023.8 479.35 1023.75 478.85 1023.25 478.7 1022.75 478.6 1022.35 478.8 1022.05 479.75 1022.4 480.7 1022.7 481.7 1023.15 482.5 1023.65 483.25 1023.8 483.55 1029.55 493.45 1035.7 502.85 1041.85 512.3 1047.7 522 1053.5 531.75 1058.25 542.45 1063.1 553.4 1067 563.05 1070.95 572.7 1073.6 582.45 1073.6 582.65 1073.6 582.85 1073.6 583.05 1073.6 583.2
L 1073.6 583.65
Q 1073.6 583.85 1073.6 584.05 1075.05 589.7 1076 595.2 1076.95 600.7 1077.35 606.05 1077.75 611.25 1077.95 616.45 1078.1 621.7 1078.1 626.9
L 1078.1 627.4
Q 1078.1 627.6 1078.1 627.9 1078.1 631.15 1077.95 634.4 1077.85 637.7 1077.7 640.95 1077.35 646.25 1076.85 651.5 1076.3 656.8 1075.55 661.95 1074.95 665.85 1074.25 669.7 1073.55 673.55 1072.7 677.3 1071.75 681.5 1070.65 685.65 1069.55 689.75 1068.25 693.75 1065.95 701 1063.1 707.85 1060.25 714.7 1056.8 721.1 1050.1 733.7 1041.4 746.05 1032.7 758.4 1021.95 769.35 1011.2 780.3 998.4 788.55 995.8 790.25 993.1 791.8 990.4 793.3 987.6 794.7 975.15 800.9 961 803.5 946.85 806.15 931 804.25 926.65 803.7 922.5 803.1 918.4 802.55 914.45 801.9 907.35 800.8 900.9 799.55 894.5 798.35 888.65 797.05 886.9 796.65 885.2 796.25 883.55 795.85 881.9 795.4 883.4 796.45 884.7 797.3
L 886.55 798.4
Q 887.6 799.05 888.75 799.65 889.9 800.2 891.15 800.8
L 891.45 800.95
Q 891.9 801.15 892.3 801.35 892.75 801.55 893.2 801.7 897.6 803.55 902.3 805 907.05 806.5 911.4 807.55 916.85 808.3 921.8 808.8 926.75 809.25 930.9 809.55 942.5 810.4 952.1 809.7 961.7 809 970.4 806.75 971.55 806.5 972.65 806.15 973.8 805.85 974.95 805.5 977.75 804.7 980.55 803.7 983.35 802.7 986.15 801.55 987.95 800.6 989.7 799.65 991.5 798.75 993.25 797.8 994.3 797.3 995.3 796.8 996.35 796.3 997.4 795.8
L 997.65 795.7 997.9 795.55 998.05 795.4
Q 998.15 795.3 998.25 795.2 1002.95 791.9 1007.25 788.55 1011.55 785.2 1015.25 782.2 1030.55 769.7 1043 752.55 1055.45 735.45 1064.65 715.4 1073.8 695.4 1079.35 674.3 1080.45 670.75 1081.25 667.15 1082.1 663.55 1082.7 659.85 1084.9 648.85 1086 638.05 1087.05 627.25 1086.95 617 1086.95 615.55 1086.8 612.95 1086.65 610.35 1086.35 607.2 1086.05 604 1085.5 600.9 1084.75 593.8 1083.5 587.4 1082.25 581 1080.6 575.65 1077.8 566.75 1073.9 557.65 1069.95 548.55 1065.45 539.7 1061 530.8 1056.5 522.65 1053.15 516.4 1048.3 509.1 1043.5 501.85 1038.15 495 1032.8 488.2 1027.8 483.2 1027.2 482.65 1026.6 482.15 1026 481.65 1025.45 481.1
M 769.55 406.05
Q 770.1 405.15 769.95 404.25 769.7 403.45 769.05 403.3 768.45 403.15 767.9 403.5 766.7 404.1 765.7 405.3
L 764.4 406.95
Q 758.9 414.1 755.75 424.05 752.6 434 751.35 445.1 750.05 456.2 750.2 466.85 750.4 477.55 751.5 486.2 754.05 505 759.15 523.35 764.25 541.65 770.6 559.4 773.15 566.3 776.55 573.4 779.95 580.55 783.1 587.5 780 576.35 775.2 560.85 770.4 545.3 765.7 527.3 761 509.3 758.2 490.65 755.4 472 756.25 454.7 756.8 446.15 758.95 437.75 761.15 429.35 764.45 421.15 765.1 417.45 766.1 414.05 767.1 410.6 768.55 407.65 769 406.9 769.55 406.05
M 761.8 678.9
Q 761.25 677 760.4 675.15 759.6 673.3 759.7 671.25 759.85 670.35 759.8 669.9 759.75 669.4 758.65 669.4
L 758.2 669.55
Q 757.85 669.7 757.5 669.8 756.85 670.45 756.5 671.5 756.15 672.5 756.15 673 756.1 675.55 756.65 678.35 757.2 681.2 757.5 683.9 758.55 696.3 761.95 707.75 765.35 719.25 771.8 729.1 778.2 739 788.2 746.65 788.8 747.1 790.15 747.95 791.55 748.8 793.15 749.6 794.75 750.35 796.05 750.6 788.9 744.6 783.1 738.45 777.3 732.35 774.1 726.75 771.05 721.3 769.4 716.1 767.8 710.85 767.35 705.75 767 704.6 766.65 703.45 766.35 702.25 766.05 701 764.75 695.55 763.9 689.95 763.05 684.35 761.8 678.9
M 768.2 679.45
Q 767.85 679.05 767.4 679.3 766.95 679.5 766.8 680.1 766.7 680.9 767.2 681.3 767.75 681.7 768.3 681.55 768.85 681.45 768.95 680.65 768.9 680.45 768.7 680.1 768.45 679.75 768.2 679.45 Z"/>

<path fill="#FFFFFF" stroke="none" d="
M 793.95 364.65
Q 790.15 372.1 784.9 381.1 779.7 390.1 774.3 400.2 768.9 410.3 764.45 421.15 761.15 429.35 758.95 437.75 756.8 446.15 756.25 454.7 755.4 472 758.2 490.65 761 509.3 765.7 527.3 770.4 545.3 775.2 560.85 780 576.35 783.1 587.5
L 783.25 588
Q 783.3 588.25 783.4 588.5 782.65 593.6 781.45 603.25 780.3 612.95 778.7 625 777.15 637 775.25 649.25 773.35 661.5 771.2 671.8 769.2 680.85 767.9 689.2 766.65 697.6 767.35 705.75 767.8 710.85 769.4 716.1 771.05 721.3 774.1 726.75 777.3 732.35 783.1 738.45 788.9 744.6 796.05 750.6 801.5 755.25 807.15 759.5 812.8 763.75 818.05 767.4 823.3 771.05 827.6 773.8 832.75 777.15 840.15 780.85 847.55 784.5 857.85 788.25 868.1 791.95 881.9 795.4 883.55 795.85 885.2 796.25 886.9 796.65 888.65 797.05 894.5 798.35 900.9 799.55 907.35 800.8 914.45 801.9 918.4 802.55 922.5 803.1 926.65 803.7 931 804.25 946.85 806.15 961 803.5 975.15 800.9 987.6 794.7 990.4 793.3 993.1 791.8 995.8 790.25 998.4 788.55 1011.2 780.3 1021.95 769.35 1032.7 758.4 1041.4 746.05 1050.1 733.7 1056.8 721.1 1060.25 714.7 1063.1 707.85 1065.95 701 1068.25 693.75 1069.55 689.75 1070.65 685.65 1071.75 681.5 1072.7 677.3 1073.55 673.55 1074.25 669.7 1074.95 665.85 1075.55 661.95 1076.3 656.8 1076.85 651.5 1077.35 646.25 1077.7 640.95 1077.85 637.7 1077.95 634.4 1078.1 631.15 1078.1 627.9 1078.1 627.6 1078.1 627.4
L 1078.1 626.9
Q 1078.1 621.7 1077.95 616.45 1077.75 611.25 1077.35 606.05 1076.95 600.7 1076 595.2 1075.05 589.7 1073.6 584.05 1067.1 560.35 1054.85 537.05 1042.6 513.75 1029.25 494.4 1015.95 475 1006.3 463.1
L 995.45 450.2 967.25 428.45
Q 940.85 408.45 904.6 386 868.4 363.55 837.05 354.25 805.7 345 793.95 364.65 Z"/>
</g>

<g id="Symbol_62_0_Layer0_0_FILL">
<path fill="#0075c9" stroke="none" d="
M 1164.9 393.25
Q 1164.9 392.6 1164.7 391.9 1164.55 391.2 1163.8 391.25 1163.2 391.6 1163 392.35 1162.75 393.15 1162.65 393.5 1160.65 398.8 1157.7 404.15 1154.75 409.5 1151.25 414.55 1147.75 419.6 1144.05 424.1 1138.7 430.95 1132.7 436.95 1126.65 442.95 1119.95 448.05 1116.55 450.65 1112.65 453.05 1108.8 455.45 1104.4 457.65 1101.15 459.25 1097.6 460.8 1094.05 462.3 1090.2 463.7 1084.05 465.9 1077.15 467.75 1070.2 469.6 1062.6 471.05 1046.75 474.1 1027.75 475.1 1008.75 476.1 986.65 474.75
L 986.2 474.75
Q 986 474.75 985.85 474.7 985.65 474.7 985.45 474.7
L 986.9 474.9
Q 991.9 475.5 996.9 475.95 1001.9 476.45 1006.9 476.7
L 1007.85 476.8
Q 1008.05 476.8 1008.25 476.8
L 1008.6 476.8
Q 1030.95 477.95 1053.15 475.4 1075.35 472.8 1096.5 466.2 1098 465.55 1099.5 464.9 1101 464.25 1102.5 463.6 1107.3 461.45 1111.85 459.2 1116.4 457 1120.8 454.65 1122.55 453.5 1124.3 452.3 1126.05 451.1 1127.8 449.85 1134 445.35 1139.9 440.25 1145.8 435.1 1151.35 429.45
L 1150.3 429.7 1148.7 430.45
Q 1146.85 431.45 1144.65 432.9 1148.8 428.4 1152.6 423.4 1156.35 418.45 1159.75 413.05 1162.5 408.6 1163.8 403.6 1165.1 398.55 1164.9 393.25 Z"/>

<path fill="#FFFFFF" stroke="none" d="
M 1122.8 255.7
Q 1110 273.4 1094.75 285.3 1079.5 297.2 1063.95 294.65 1055.65 292.65 1050.65 285.8 1045.7 279 1043.2 270.45 1040.75 261.95 1039.95 254.7 1039.2 247.5 1039.2 244.7 1039.1 241.9 1037.25 240.05 1035.45 238.2 1032.75 237.9 1030 237.6 1027.25 239.6 1022.9 242.9 1016.85 247 1010.75 251.05 1003.75 253.85 996.8 256.6 989.75 256.05 986.3 255.55 980.9 251.8 975.45 248.05 969 242.55 962.55 237.1 956.1 231.5 949.65 225.85 944.15 221.65 939.8 218.15 928.8 215.2 917.8 212.2 901.4 212.95 884.95 213.7 864.2 221.35 849.8 227.1 840.35 234.2 830.9 241.3 825.95 247.15
L 822 251.95 820.15 254.8
Q 816.25 262.3 810.05 279.1 803.9 295.9 797.55 314.65 791.2 333.4 786.9 346.75
L 782.4 360.7 784.7 367.7
Q 786.85 374.25 792.8 384.7 798.7 395.1 810.25 407.25 821.75 419.4 840.75 431.1 864.35 445.05 887.95 453.8 911.55 462.55 931.45 467.05 951.35 471.55 963.95 472.8 969.5 473.45 974.9 473.9 980.25 474.35 985.45 474.7 985.65 474.7 985.85 474.7 986 474.75 986.2 474.75
L 986.65 474.75
Q 1008.75 476.1 1027.75 475.1 1046.75 474.1 1062.6 471.05 1070.2 469.6 1077.15 467.75 1084.05 465.9 1090.2 463.7 1094.05 462.3 1097.6 460.8 1101.15 459.25 1104.4 457.65 1108.8 455.45 1112.65 453.05 1116.55 450.65 1119.95 448.05 1126.65 442.95 1132.7 436.95 1138.7 430.95 1144.05 424.1 1155.2 409.65 1163.05 392.1 1170.85 374.55 1175.1 354.65 1179.3 334.75 1179.65 313.25 1180.05 279.35 1178 256.95 1175.95 234.6 1173.45 222.6
L 1170.05 207.8
Q 1168.55 202.4 1165.05 200.7 1161.55 199 1158.1 200.15 1154.65 201.3 1153.2 204.55
L 1143.75 223.05
Q 1135.55 238 1122.8 255.7 Z"/>
</g>

<g id="Symbol_28_0_Layer0_0_FILL">
<path fill="#0075c9" stroke="none" d="
M 1017.45 346.15
Q 1018.85 343.35 1019.4 339.95 1019.9 336.55 1019.4 333.5 1018.95 330.45 1017.65 328.05 1016.3 325.6 1014.3 324.05 1012.3 322.55 1009.75 322.2 1007.25 321.9 1004.85 322.9 1002.45 323.85 1000.45 325.9 998.4 327.9 997 330.7 995.65 333.55 995.1 336.9 994.55 340.3 995.05 343.35 995.55 346.4 996.85 348.85 998.15 351.3 1000.15 352.8 1002.2 354.35 1004.7 354.65 1007.25 354.95 1009.65 354 1012 353 1014.05 351 1016.05 349 1017.45 346.15 Z"/>
</g>

<g id="Symbol_29_0_Layer0_0_FILL">
<path fill="#0075c9" stroke="none" d="
M 1030.1 321.85
Q 1021.85 320.25 1013.45 318.7 1005.05 317.2 997.2 315.9 996.25 316.35 996.65 317.05 997.05 317.75 998.8 318.2 1005.4 319.7 1012.25 320.7 1019.1 321.75 1025.8 322.95 1026.4 323.05 1027.6 323.05 1028.8 323.05 1029.65 322.8 1030.5 322.55 1030.1 321.85 Z"/>

<path fill="#FFFFFF" stroke="none" d="
M 1003.4 280.35
Q 996.4 283.45 991.75 289.2 987.1 295 984.25 301.55 981.4 308.05 979.7 313.45 983.55 313.9 988 314.5 992.4 315.15 997.2 315.9 1005.05 317.2 1013.45 318.7 1021.85 320.25 1030.1 321.85 1034 322.6 1037.8 323.35 1041.6 324.1 1045.15 324.8 1046.1 318.35 1045.95 311.15 1045.8 303.9 1043.5 297.2 1041.15 290.45 1035.6 285.55 1030.1 280.6 1020.3 278.8 1010.35 277.3 1003.4 280.35 Z"/>
</g>

<g id="Symbol_30_0_Layer0_0_FILL">
<path fill="#0075c9" stroke="none" d="
M 829.15 132.95
L 827.9 133
Q 818.8 134.15 809.85 139.5 800.9 144.8 793.1 152.1 785.3 159.4 779.75 166.3 775.65 171.4 773.2 176.3 770.8 181.15 769.2 186.3 767.95 189.45 766.95 192.9 765.95 196.4 765.2 200.1
L 764.75 201.5
Q 764.55 202.25 764.6 202.95 763.45 209.2 762.8 215.35 762.1 221.5 761.8 227 761.2 237.2 762.25 247.6 763.25 258 765.4 268.35 767.5 278.7 770.15 288.65
L 770.7 290.25
Q 771.15 291.45 771.8 292.8 770.45 297.35 769.5 301.4 768.6 305.4 768.1 309.55 767.6 313.65 767.45 318.45 767.35 319.6 767.2 320.8 767.05 322 767.2 323.15 767.2 323.3 767.25 323.7 767.3 324.1 767.65 324.3 768.5 325.7 770.15 327 771.8 328.3 773.35 329.3 774.9 330.3 775.6 330.7 778.5 332.65 782 332.8 785.55 333 789.25 332.1 789.45 331.5 789.7 331 789.95 330.5 790.35 330.1 790.4 330 790.5 329.9 790.6 329.8 790.65 329.7 789.05 330.05 787.45 330.2 785.85 330.4 784.35 330.45 783.4 330.5 782.4 330.35 781.4 330.2 780.45 329.95
L 780 330 779.45 329.6
Q 776.75 328.55 774.4 326.75 772.05 325 770.25 322.9
L 769.7 322.5 769.65 322.15
Q 769.55 322.05 769.45 321.95 769.35 321.8 769.2 321.7 769.3 321.25 769.35 320.8 769.45 320.4 769.45 320 769.25 317.25 770.05 311.05 770.8 304.85 773.65 294.85 773.85 294.3 774 293.7 774.2 293.1 774.4 292.5
L 774.25 291.6
Q 774.05 290.9 773.8 289.7 772.8 285.55 771.05 277.9 769.3 270.25 767.65 261.75 766.05 253.25 765.45 246.55 765.1 242.8 764.7 235.65 764.35 228.45 765.05 218.95 765.8 209.45 768.7 198.75 769.3 196.75 769.95 194.75 770.6 192.75 771.4 190.7 774.35 182.9 779.15 175.2 783.95 167.5 791 160.3 798.1 153.1 807.85 146.85 811.4 144.2 814.9 142.15 818.4 140.1 821.75 138.8 822.5 138.5 823.45 138.2 824.45 137.95 825.5 137.6 826.6 137.15 827.75 136.7 828.9 136.2 830.1 135.75 830.85 135.25 831.05 134.65 831.25 134 830.75 133.25 830.05 132.9 829.15 132.95
M 993.1 245.5
L 992.95 245.4
Q 992.8 245.5 992.65 245.6 992.45 245.7 992.3 245.8
L 992 246.05 993.1 245.5
M 988.5 220.1
Q 983.3 209.2 977.05 198.4 970.8 187.55 964.75 177 961.55 171.25 957.15 164.8 952.8 158.35 947.45 152.15 942.15 145.95 936.2 141 935.7 140 934.55 138.9 933.4 137.85 932.25 137 931.1 136.15 930.55 135.8 922.6 130.4 913.05 127.05 903.5 123.75 893.45 122.3 883.4 120.9 873.9 121.15
L 872.85 121.15
Q 872.05 121.15 871.45 121.4 871.05 121.35 870.55 121.45
L 869.95 121.5
Q 869.4 121.6 868.85 121.75 868.3 121.85 867.75 121.95
L 864.2 123.2
Q 861.45 124.25 859.8 125.55 858.1 126.85 860.5 127.8 875.15 125.8 887.15 127.05 899.15 128.35 908.65 131.8 918.15 135.3 925.25 139.8 925.9 140.05 926.55 140.35 927.2 140.6 927.85 140.85 928.25 141.3 928.7 141.75 929.1 142.2 929.55 142.65 935.4 146.9 939.35 150.8 943.3 154.75 945.45 157.5 948.55 161.35 954 169.65 959.5 177.95 965.8 187.95 972.1 197.9 977.65 206.9 983.2 215.9 986.4 221.15 987.7 223.2 988.35 224.35
L 989.05 225.45 1004.05 232.5 1004.25 232.75 1004.6 233.5
Q 1005.1 234.45 1005.4 236.05 1005.65 237.65 1005 239.55 1004.4 241 1002.7 242.3 1001.05 243.65 999.15 244.65 997.2 245.65 995.9 246.25 996.1 246.55 996.25 246.95 996.35 247.3 996.45 247.75 997.05 247.65 997.7 247.65 998.3 247.65 998.95 247.75 1002.15 246.4 1004.8 244.75 1007.45 243.1 1008.45 241.5 1011.25 236.2 1007.95 232.35 1004.6 228.45 999 225.95 993.35 223.45 989.3 222.15 989.15 221.7 988.95 221.15 988.75 220.65 988.5 220.1 Z"/>

<path fill="#0075c9" stroke="none" d="
M 975.7 245.95
L 991.5 244 993.45 242.6
Q 994.8 241.6 996.1 240.45 997.35 239.35 997.5 238.7
L 996.3 237.75 993.3 237.35 981.85 238.05
Q 966.75 239.8 940.1 246.75 913.45 253.75 878.1 267 862.3 273.05 846.55 280.55 830.85 288.05 817.3 295.85 803.8 303.65 794.55 310.6 785.25 317.55 782.4 322.5
L 782.35 322.55
Q 784.1 323.8 785.65 324.9 787.15 326.05 788.1 326.7
L 789.05 326.7 804 315.55
Q 816.15 306.95 837.25 295.35 858.35 283.7 888 272.05 920.05 259.9 941.75 253.9 963.45 247.9 975.7 245.95 Z"/>

<path fill="#FFFFFF" stroke="none" d="
M 986.4 221.15
Q 983.2 215.9 977.65 206.9 972.1 197.9 965.8 187.95 959.5 177.95 954 169.65 948.55 161.35 945.45 157.5 943.3 154.75 939.35 150.8 935.4 146.9 929.55 142.65 928.55 141.95 927.45 141.2 926.4 140.5 925.25 139.8 918.15 135.3 908.65 131.8 899.15 128.35 887.15 127.05 875.15 125.8 860.5 127.8 854.25 128.7 847.5 130.35 840.7 132.05 833.45 134.55 832.6 134.85 831.75 135.15 830.9 135.45 830.1 135.75 828.9 136.2 827.75 136.7 826.6 137.15 825.5 137.6 820.6 139.7 816.2 142 811.8 144.35 807.85 146.85 798.1 153.1 791 160.3 783.95 167.5 779.15 175.2 774.35 182.9 771.4 190.7 770.6 192.75 769.95 194.75 769.3 196.75 768.7 198.75 765.8 209.45 765.05 218.95 764.35 228.45 764.7 235.65 765.1 242.8 765.45 246.55 766.05 253.25 767.65 261.75 769.3 270.25 771.05 277.9 772.8 285.55 773.8 289.7 774.05 290.9 774.25 291.6
L 774.4 292.5
Q 774.2 293.1 774 293.7 773.85 294.3 773.65 294.85 770.8 304.85 770.05 311.05 769.25 317.25 769.45 320 769.5 320.85 769.55 321.4 769.6 321.95 769.65 322.15
L 769.7 322.5 770.25 322.9 779.45 329.6 780 330 780.45 329.95 789 328.7 790.8 326.7 789.05 326.7 788.1 326.7 786.6 326.7 785.2 326.35
Q 783.9 326 782.85 325.1 781.8 324.2 782.35 322.55
L 782.4 322.5
Q 785.25 317.55 794.55 310.6 803.8 303.65 817.3 295.85 830.85 288.05 846.55 280.55 862.3 273.05 878.1 267 913.45 253.75 940.1 246.75 966.75 239.8 981.85 238.05
L 993.3 237.35 996.3 237.75 997.5 238.7
Q 997.35 239.35 996.1 240.45 994.8 241.6 993.45 242.6
L 991.5 244 991.3 244.15 992.95 245.4 993.1 245.5 994.7 246.75 995 246.6
Q 995.35 246.5 995.9 246.25 997.2 245.65 999.15 244.65 1001.05 243.65 1002.7 242.3 1004.4 241 1005 239.55 1005.65 237.65 1005.4 236.05 1005.1 234.45 1004.6 233.5
L 1004.25 232.75 1004.05 232.5 989.05 225.45 988.35 224.35
Q 987.7 223.2 986.4 221.15 Z"/>
</g>

<g id="Symbol_46_0_Layer0_0_FILL">
<path fill="#82bc00" stroke="none" d="
M 957.25 636.4
L 900.4 636.15 928.35 847.5 957.25 636.4 Z"/>
</g>

<g id="Symbol_47_0_Layer0_0_FILL">
<path fill="#82bc00" stroke="none" d="
M 1015.35 632
L 973.55 634.3 989 819.4 1015.35 632 Z"/>
</g>

<g id="Symbol_48_0_Layer0_0_FILL">
<path fill="#0075c9" stroke="none" d="
M 826.75 19.9
L 827.1 20.3
Q 829.3 21.95 830.85 23.6
L 832.55 25.4
Q 859.85 53 878.75 89.15 897.7 125.35 910.4 162.4 919.25 188.25 919.65 219.35 920.05 250.45 913.75 281.1 907.45 311.75 896.1 336.2 894.4 339.9 891.65 345.45 888.85 351 885.55 356.65 882.95 361 880.3 364.4 877.7 367.85 875.2 369.5 874.6 369.9 874 370.2 873.45 370.55 872.9 370.75 872.35 371 871.9 371.15 871.4 371.35 870.95 371.4 870.7 371.7 870.45 371.9 870.2 372.15 869.95 372.3
L 869.6 372.65
Q 869.3 372.9 869.1 373.2 868.85 372.8 868.5 372.15 868.2 371.5 867.95 370.85 867.8 370.75 867.7 370.65 867.6 370.6 867.5 370.45 866.65 369.55 866.15 367.95 865.65 366.4 865.45 364.35 865.45 364.2 865.4 364.1 865.4 363.95 865.4 363.8 865.25 363.4 865.15 363.05 865.05 362.65 864.9 362.25 863.45 355.8 862.7 349.55 861.9 343.3 861.6 339.6 861.45 338.6 861.35 337.65 861.25 336.7 861.1 335.75 858.8 325.45 855.6 315.35 852.35 305.25 848.45 294.75 847.7 293.9 846.75 293.8 845.8 293.7 844.6 294.65
L 844.05 295.6
Q 843.7 296.3 843.4 296.9 842.1 294.95 840.95 293.65 839.75 292.35 838.9 292.05 838.35 291.9 838.1 292.1 837.9 292.3 838.05 292.8 838.35 293.55 838.95 294.25
L 839.75 295.2
Q 844.7 302.95 847.95 313.45 851.25 323.9 852.9 332.85 854.05 339.4 855.4 348.2 856.75 356.95 858.9 365.35 861.05 373.75 864.75 379.15 865.75 380.5 866.7 381.1 867.7 381.7 868.7 381.65 868.75 382.3 869 382.85 869.3 383.4 869.8 383.8 871.85 384.9 874.65 382 877.45 379.1 879.85 375.35 882.25 371.55 883.1 370.05 909.6 327.95 919.95 280.85 930.3 233.8 921.15 184.7 915.8 156.7 905.2 129.45 894.6 102.25 878.3 78.2 871.05 67.4 864.1 56.15 857.15 44.95 849.8 34.3 845.65 28.5 840.25 23.8 834.9 19.1 828.75 15.3 826.8 14 825.85 14.05 824.9 14.1 824.65 15.7 824.8 16.8 825.45 17.95 826.1 19.1 826.45 19.5 826.6 19.7 826.75 19.9 Z"/>

<path fill="#82bc00" stroke="none" d="
M 819.95 20.15
Q 819.6 20.7 819.5 21.25 818.25 21.3 816.85 22.35 815.4 23.35 814 25.55 812.85 27.35 811.7 29.2 810.5 31 809.4 32.85
L 808.95 33.55
Q 808.6 34.1 808.65 34.6 808 35.6 807.25 36.75
L 806.35 38.25
Q 794.5 57.55 785.85 77.85 777.2 98.1 769.25 118.75 767.85 122.4 766.75 126.05 765.65 129.65 764 133.1 761.25 130.6 758.4 128.55 755.5 126.55 754.15 126.95 753.95 127.05 753.65 127.3 753.35 127.55 753.35 127.85 753.45 129.15 754.85 130.2 756.2 131.3 756.85 131.75 758.1 132.9 759.35 134.15 760.6 135.4 761.85 136.8 761.75 136.95 761.65 137.1 761.55 137.2 761.45 137.35
L 760.75 138.05
Q 760.2 138.55 760.15 139.2 761.1 139.4 761.95 139.35 762.85 139.25 763.65 138.9 768.55 144.8 773.05 151.4 777.6 157.95 781.45 163.65 802.25 194.25 818.65 226.55 835.05 258.8 848.1 293.85
L 848.45 294.75
Q 852.35 305.25 855.6 315.35 858.8 325.45 861.1 335.75 862.6 342.4 863.65 349.25 864.75 356.1 865.35 363.4
L 865.4 363.8
Q 865.4 363.95 865.4 364.1 865.45 364.2 865.45 364.35 865.65 366.4 866.15 367.95 866.65 369.55 867.5 370.45 867.6 370.6 867.7 370.65 867.8 370.75 867.95 370.85 868.5 371.3 869.25 371.45 870 371.6 870.95 371.4 871.4 371.35 871.9 371.15 872.35 371 872.9 370.75 873.45 370.55 874 370.2 874.6 369.9 875.2 369.5 877.7 367.85 880.3 364.4 882.95 361 885.55 356.65 888.85 351 891.65 345.45 894.4 339.9 896.1 336.2 907.45 311.75 913.75 281.1 920.05 250.45 919.65 219.35 919.25 188.25 910.4 162.4 897.7 125.35 878.75 89.15 859.85 53 832.55 25.4
L 830.85 23.6
Q 829.3 21.95 827.1 20.3 825.45 19.1 823.8 18.65 822.15 18.15 820.9 19.05 820.3 19.6 819.95 20.15 Z"/>
</g>

<g id="Symbol_38_0_Layer0_0_FILL">
<path fill="#82bc00" stroke="none" d="
M 1014.75 275.85
Q 1000.7 265.35 978.7 264.45 965.05 264.3 954.95 269.2 944.9 274.05 937.95 281.55 930.95 289 926.65 296.7 922.3 305.1 918.55 323.15 914.85 341.25 912.45 357.55
L 909.7 377.1 913.4 380.25 923.7 383.7
Q 937.3 387.3 954 389.95 970.7 392.65 980.35 392.95 989.8 393 1004.8 390.4 1019.75 387.85 1032.65 383.7 1045.55 379.6 1048.75 375
L 1046.55 357.15
Q 1044.5 343.75 1041.25 328.3 1038.05 312.85 1034.4 302.15 1028.8 286.3 1014.75 275.85 Z"/>
</g>

<g id="Symbol_39_0_Layer0_0_FILL">
<path fill="#82bc00" stroke="none" d="
M 1051.9 298
Q 1043.95 305.65 1042.2 316.25 1040.45 326.85 1044.65 335.9 1048.9 344.9 1058.95 347.7 1063.6 345.65 1073.55 338.2 1083.5 330.75 1091.75 319.05
L 1090 317.5 1085.15 314.1
Q 1078.8 309.75 1069.65 304.9 1060.45 300.05 1051.9 298 Z"/>
</g>

<g id="Symbol_23_0_Layer0_0_FILL">
<path fill="#82bc00" stroke="none" d="
M 793 728.5
L 804.5 735.2
Q 815.8 741.55 835.15 750 854.5 758.4 879 765
L 889.25 742.3
Q 898.45 720.9 910.3 692.8 922.15 664.75 931.1 643.45
L 940.5 621 915.1 609.95 793 728.5 Z"/>
</g>

<g id="Symbol_49_0_Layer0_0_FILL">
<path fill="#82bc00" stroke="none" d="
M 1053.7 364.6
Q 1038.75 364 1010.1 364.3 981.5 364.6 953.35 365.25 925.25 365.95 911.8 366.55
L 912.55 376.1 916.65 395.85
Q 922.45 420.7 928.7 458.05 934.95 495.4 935.3 537.3 933.95 586.6 928.35 611.8 922.75 636.95 926.6 647.1 930.4 657.25 957.35 661.55 986.15 666.35 1016.6 642.9 1047.05 619.4 1072.55 570.25 1085.6 544.85 1092.45 506.25 1099.25 467.65 1091.65 428.95 1084 390.3 1053.7 364.6 Z"/>
</g>

<g id="Symbol_70_0_Layer0_0_FILL">
<path fill="#0075c9" stroke="none" d="
M 1010.6 309.3
L 1009.6 307.45 1008.25 305.8 1006.65 304.45 1004.75 303.45 1002.75 302.85 1000.6 302.65 998.5 302.85 996.5 303.45 994.6 304.45 993 305.8 991.65 307.45 990.65 309.3 990 311.35 989.8 313.45 990 315.55 990.65 317.6 991.65 319.45 993 321.1 994.6 322.45 996.5 323.45 998.5 324.05 1000.6 324.25 1002.75 324.05 1004.75 323.45 1006.65 322.45 1008.25 321.1 1009.6 319.45 1010.6 317.6 1011.25 315.55 1011.45 313.45 1011.25 311.35 1010.6 309.3 Z"/>
</g>

<g id="Symbol_42_0_Layer0_0_FILL">
<path fill="#82bc00" stroke="none" d="
M 1002.55 287.3
Q 993.7 287.75 989.4 294.25 985.1 300.8 984.25 308.95
L 1019.7 309.2 1018.65 303.5
Q 1017.5 298.2 1013.85 292.9 1010.15 287.65 1002.55 287.3 Z"/>
</g>

<g id="Symbol_43_0_Layer0_0_FILL">
<path fill="#0075c9" stroke="none" d="
M 922.45 560
Q 922.9 558.9 923.3 557.8 918.5 563.6 912.15 570.85 905.8 578.1 898.25 586.2 890.75 594.35 882.5 602.85 880.7 605 879.3 606.95 877.95 608.95 877.8 609.9 877.75 610.25 877.75 610.55 877.8 610.85 878.3 610.85 878.8 610.8 879.3 610.15 879.85 609.5 880.2 608.85
L 880.55 608.15
Q 883.05 604.8 886.15 601.8 889.3 598.75 892.55 595.8 895.85 592.85 898.7 589.75 903.55 584.45 908.3 579.4 913 574.35 917.4 568.9 918.4 567.25 919.45 565.55 920.5 563.85 921.5 562.2
L 921.5 562.15
Q 922 561.05 922.45 560
M 845.55 455.25
L 844.75 455.85
Q 832.2 464.6 820.6 473.55 809 482.55 797.55 492.45 785 503.2 773.2 514.3 761.4 525.4 750.95 537.65 740.5 549.95 731.95 564.25 730.5 566.65 728.2 570.55 725.9 574.45 724.05 578.45 722.25 582.5 722.2 585.25 722.2 585.5 722.1 585.95 722 586.4 722.55 586.6 723.3 586.45 724.1 585.7 724.85 584.9 725.45 584.05 726.05 583.2 726.3 582.8 726.95 581.95 727.55 581.05 728.15 580.2 728.75 579.35 728.15 578.55 727.65 577.85 727.15 577.15 726.65 576.45 727.4 574.45 730.45 570.25 733.5 566 738.4 560.05 743.35 554.05 749.75 546.8 750.55 545.7 751.4 544.65 752.25 543.6 753.15 542.6 760.6 533.85 768.9 525.4 777.25 516.95 785.95 508.9 795.4 499.65 805.05 490.95 814.7 482.25 824.05 474.85 833.35 467.45 841.8 461.95 842.8 461.1 844.4 459.65 845.95 458.2 847.1 456.8 848.25 455.4 848 454.7 847.75 454.3 847.4 454.25 847 454.25 846.85 454.5 846.2 454.75 845.55 455.25 Z"/>

<path fill="#FFFFFF" stroke="none" d="
M 914.05 484
Q 909.85 479.15 902.05 473.85 894.25 468.5 884.85 464.1 875.4 459.65 866.3 457.5 857.2 455.35 850.4 456.9 848.3 458 846.15 459.25 844 460.55 841.8 461.95 833.35 467.45 824.05 474.85 814.7 482.25 805.05 490.95 795.4 499.65 785.95 508.9 775.85 518.75 766.65 528.45 757.45 538.1 749.75 546.8 743.35 554.05 738.4 560.05 733.5 566 730.45 570.25 727.4 574.45 726.65 576.45 727.15 577.15 727.65 577.85 728.15 578.55 728.75 579.35 736.1 589.45 748.15 604.1 760.2 618.8 773 633.2 785.8 647.65 795.5 656.95
L 803.4 663.75 806.05 665.3 807.8 665.6
Q 817.3 661.15 829.7 651.5 842.1 641.85 855.7 629.15 869.35 616.4 882.5 602.85 890.75 594.35 898.25 586.2 905.8 578.1 912.15 570.85 918.5 563.6 923.3 557.8 927.7 552.5 930.45 548.85 933.2 545.2 933.95 543.6 935.6 533.5 932.75 522.05 929.85 510.6 924.65 500.45 919.45 490.3 914.05 484 Z"/>
</g>

<g id="Symbol_31_0_Layer0_0_FILL">
<path fill="#FFFFFF" stroke="none" d="
M 698.35 280.75
Q 694.95 275.8 691.55 270.8 668.2 236.85 645.85 204.3 623.45 171.75 605.2 145.3 587 118.8 576.15 103.05
L 565 86.9 547.4 97.9 758 424.15
Q 758.35 425.7 759.2 427.2 760 428.65 760.7 429.65
L 761.45 430.75
Q 763 433.6 764.35 436.6 765.65 439.6 767.2 442.6 771.2 450.15 775.55 457.6 779.95 465 784.35 472.45 787.1 477.65 789.9 482.85 792.65 488.05 795.2 493.35 795.6 494.15 796 495 796.35 495.85 796.75 496.75 797.1 498.55 797.7 500.1
L 798.5 502.05
Q 811.05 537 823.2 572.1 835.4 607.15 848.1 642.05 848.5 643.05 849.1 643.6 849.65 644.15 850.25 644.2 852.4 646.5 855 648.7 857.55 650.95 859.3 652.9 860.1 653.9 861.95 655.75 863.8 657.6 865.65 658.2 867.5 658.8 868.3 656.15 868.35 656 868.35 655.85 868.4 655.7 868.35 655.55 870.35 654.35 872.2 652.95 874.05 651.55 874.9 650.9 879.85 647.3 884.3 643.2 888.75 639.1 893.3 635.1 897.85 631.05 902.95 627.8 905.4 626.1 907.45 623.7 909.5 621.3 912.1 619.3
L 914.95 617.25
Q 917.05 615.7 919.35 613.7 921.6 611.7 922.85 609.9
L 922.75 609.65
Q 922.7 609.55 922.6 609.45 922.55 609.35 922.5 609.25 922.1 608.5 921.7 607.75 921.3 607 920.9 606.25 920.2 604.85 919.5 603.35 918.85 601.9 918.2 600.4 916.15 597.35 914.3 594.75 912.4 592.2 911.6 591
L 907.65 585.1
Q 907.4 584.9 907.15 584.6 906.9 584.3 906.7 583.95 896 568.05 885.45 552.1 874.85 536.1 864.35 520.1 847.95 497.8 832.2 475.05 816.45 452.3 801.4 429.2 798.1 424.15 794.35 418.95 790.6 413.7 786.85 408.9 787.05 409.45 787.2 410 787.35 410.55 787.35 411 786.5 409.75 785.6 408.45
L 783.75 405.7
Q 776.85 395.45 767.5 381.75 758.15 368 746.95 351.65 735.75 335.3 723.35 317.15
L 714.35 304
Q 709.75 297.35 705.15 290.6 701.75 285.7 698.35 280.75
M 769.1 408.6
L 766.2 410.05 572.15 111.75 574.25 110.15 769.1 408.6
M 831.4 584.55
Q 830.85 583.05 830.35 581.55 829.8 580 829.3 578.5 824.9 565.8 820.5 553.35 816.15 540.9 812.2 529.9 808.25 518.85 805.15 510.45 804.95 510 804.8 509.55
L 804.5 508.7
Q 802.85 504.35 801.6 501.1 800.3 497.8 799.4 495.75 799.15 495.15 798.85 494.5 798.55 493.85 798.25 493.2 798.15 493.05 798.1 492.85 798 492.7 797.95 492.55 795.8 488.1 792.85 482.6 789.85 477.05 786.45 471.1 783 465.1 779.5 459.2 774.85 451.3 770.8 444.65 766.75 438.05 764.3 434.05
L 761.7 429.9
Q 762.5 428.8 763.3 427.7 764.1 426.6 764.9 425.55 766.7 423.25 769.1 421.1 771.5 418.9 775.1 416.8 778.7 414.7 784 412.65 784.45 412.45 784.95 412.3 785.45 412.1 785.95 411.9 786.25 411.8 786.6 411.7 786.9 411.55 787.25 411.45
L 787.55 411.35 808.4 442.05
Q 826.3 468.4 849.85 503.05 873.35 537.65 893.25 566.9
L 920.1 606.35
Q 921.1 607.85 921.6 608.6
L 922.1 609.4 865.25 657.3 865.1 657.15
Q 864.9 657 864.6 656.7 864.45 656.6 864.35 656.5 864.2 656.35 864.05 656.2 862.35 654.7 859.6 652.15 856.85 649.6 854.5 647.2
L 852.65 645.15 851.75 643.8
Q 851.75 643.7 851.7 643.6 851.65 643.45 851.6 643.35 849.7 637.85 846.65 628.8 843.55 619.8 839.65 608.45 835.75 597.1 831.4 584.55
M 917.9 609.7
L 918 609.6 909.3 597.9 856.95 643.55 865.65 653.65 917.9 609.7 Z"/>

<path fill="#0075c9" stroke="none" d="
M 830.35 581.55
Q 830.85 583.05 831.4 584.55 835.75 597.1 839.65 608.45 843.55 619.8 846.65 628.8 849.7 637.85 851.6 643.35 851.65 643.45 851.7 643.6 851.75 643.7 851.75 643.8
L 852.65 645.15 854.5 647.2
Q 856.85 649.6 859.6 652.15 862.35 654.7 864.05 656.2 864.2 656.35 864.35 656.5 864.45 656.6 864.6 656.7 864.9 657 865.1 657.15
L 865.25 657.3 922.1 609.4 921.6 608.6
Q 921.1 607.85 920.1 606.35
L 893.25 566.9
Q 873.35 537.65 849.85 503.05 826.3 468.4 808.4 442.05
L 787.55 411.35 787.25 411.45
Q 786.9 411.55 786.6 411.7 786.25 411.8 785.95 411.9 785.45 412.1 784.95 412.3 784.45 412.45 784 412.65 778.7 414.7 775.1 416.8 771.5 418.9 769.1 421.1 766.7 423.25 764.9 425.55 764.1 426.6 763.3 427.7 762.5 428.8 761.7 429.9
L 764.3 434.05
Q 766.75 438.05 770.8 444.65 774.85 451.3 779.5 459.2 783 465.1 786.45 471.1 789.85 477.05 792.85 482.6 795.8 488.1 797.95 492.55 798 492.7 798.1 492.85 798.15 493.05 798.25 493.2 798.55 493.85 798.85 494.5 799.15 495.15 799.4 495.75 800.3 497.8 801.6 501.1 802.85 504.35 804.5 508.7
L 804.8 509.55
Q 804.95 510 805.15 510.45 808.25 518.85 812.2 529.9 816.15 540.9 820.5 553.35 824.9 565.8 829.3 578.5 829.8 580 830.35 581.55
M 918 609.6
L 917.9 609.7 865.65 653.65 856.95 643.55 909.3 597.9 918 609.6
M 766.2 410.05
L 769.1 408.6 574.25 110.15 572.15 111.75 766.2 410.05 Z"/>

<path fill="#0075c9" stroke="none" d="
M 669.4 237.8
L 670.05 238.7
Q 675.1 246.55 680.7 254.15 686.3 261.75 691.1 270 691.2 270.2 691.3 270.4 691.45 270.6 691.55 270.8 694.95 275.8 698.35 280.75 701.75 285.7 705.15 290.6 708.15 294.6 711.05 298.65 714 302.65 716.65 306.75 718.3 309.35 720 311.95 721.65 314.55 723.35 317.15 735.75 335.3 746.95 351.65 758.15 368 767.5 381.75 776.85 395.45 783.75 405.7
L 785.6 408.45
Q 786.5 409.75 787.35 411 787.35 410.55 787.2 410 787.05 409.45 786.85 408.9 786.7 408.5 786.55 408.2 786.45 407.85 786.35 407.6 786.05 407.25 785.7 406.75
L 785.3 406.1
Q 779.1 396.65 772.7 387.35 766.3 378.05 760.35 368.4 751.25 353.6 741.85 338.95 732.45 324.3 722.55 309.95 714.3 298.1 705.95 286.4 697.55 274.75 689.75 262.6 685.35 255.8 680.35 249.35 675.35 242.85 670.6 236.2 670.35 235.75 669.8 235 669.25 234.3 668.4 234.35 668.1 235.05 668.5 236 668.9 237 669.4 237.8 Z"/>
</g>

<g id="Symbol_67_0_Layer0_0_FILL">
<path fill="#0075c9" stroke="none" d="
M 827.2 565.35
Q 826.9 565.3 826.85 565.5 833.2 571.65 839 577.4 844.8 583.2 849.3 587.75 850.55 588.95 851.6 590.05 852.7 591.15 853.65 592.1 859.25 597.65 867.4 607.6 875.55 617.55 884.85 631.3 894.2 645 903.45 661.85 905.2 665 906.85 668.25 908.55 671.5 910.2 674.9 911.2 676.85 912.15 678.85 913.1 680.9 914.05 682.95 914.1 683.1 914.1 683.25 914.15 683.4 914.15 683.55
L 914.2 683.95
Q 914.25 684.1 914.3 684.2 914.35 684.35 914.4 684.5
L 914.35 684.95
Q 914.95 693.85 910.5 702.85 906.05 711.85 899.15 719.55 892.3 727.3 885.75 732.25 880.45 736.3 872.45 740.2 864.4 744.15 855.15 746.85 845.9 749.5 836.8 749.9
L 836 749.9
Q 835.35625 749.95 834.7 749.95 833.6 749.95 832.55 749.85 830.6 749.75 828.75 749.5 826.9 749.25 825.15 748.8 824.8 748.65 824.4 748.35 824 748.1 823.5 747.75 823.15 747.65 822.7 747.6 822.3 747.5 821.9 747.45 821.85 747.4 821.75 747.3 821.7 747.25 821.6 747.15 820.65 746.1 819.65 745.05 818.65 744 817.65 742.95 810.4 736.6 799.15 725.55 787.9 714.5 774.85 700.7 761.85 686.9 749.3 672.2 748.65 671.45 748 670.7 747.35 669.9 746.7 669.15 746.05 668.4 745.45 667.7 744.85 666.95 744.25 666.2 742.1 663.7 740.1 661.15 738.05 658.65 736.05 656.15 734.9 654.65 733.75 653.2 732.6 651.75 731.5 650.3 727 644.35 723.15 638.8 719.3 633.2 716.35 628.15 715.45 626.65 714.6 625.15 713.8 623.7 713.1 622.3 713 622.15 712.95 622
L 712.8 621.7
Q 712.05 620.25 711.45 618.85 710.8 617.5 710.3 616.15 709.1 612.85 709.9 609.85 710.65 606.85 712.35 604.25 714.05 601.65 715.55 599.6 721.25 591.4 726.45 583.85 731.7 576.3 736.6 569.6 737.1 568.3 737.7 567 738.35 565.7 739.3 564.45 740.5 562.85 741.4 560.9 742.3 559 742.25 557 742.3 556.9 742.3 556.7 742.3 556.55 742.15 556.45 742.15 556.15 742 555.95 741.8 555.8 741.55 555.7 741.3 556.05 741.05 556.6 740.8 557.15 740.65 557.4 740.05 558.2 739.1 558.85 738.15 559.5 737.05 560.15 731.6 568.1 726.25 576.1 720.9 584.05 715.35 591.9 712.45 596 709.95 600.2 707.45 604.35 705.3 608.65 705.1 609.35 704.95 610 704.8 610.7 704.7 611.4 705.25 613 705.9 614.6 706.5 616.2 707.25 617.75
L 707.35 618
Q 708.15 619.75 709.1 621.5 710 623.2 711 624.9 711.2 625.25 711.35 625.55 711.55 625.85 711.75 626.2 715.2 631.85 719.05 637.1 722.9 642.3 726.5 646.9 727.25 647.9 728.05 648.9 728.85 649.95 729.65 650.95 731.05 652.65 732.45 654.35 733.85 656.1 735.25 657.8 736.85 659.75 738.45 661.65 740 663.55 741.6 665.5
L 741.9 665.85
Q 742 666 742.15 666.2 742.3 666.35 742.4 666.5 742.55 666.65 742.7 666.8 743.5 667.8 744.25 668.8 745.05 669.8 745.85 670.8 747.35 672.7 748.8 674.6 750.3 676.5 751.7 678.45 759.25 687.05 766.9 695.65 774.5 704.2 782.3 712.7 786.65 717.4 791.45 722.1 796.2 726.8 800.75 731.3 804.55 735.05 808.4 738.7 812.2 742.35 816.05 745.95 816.55 746.3 817.1 746.6 817.6 746.95 818.1 747.3 818.6 747.6 819.1 747.9 819.6 748.25 820.05 748.55 820.9 749.1 821.7 749.65 822.5 750.15 823.3 750.7 823.75 751.05 824.25 751.35 824.7 751.7 825.2 752.05 825.5 752.25 825.75 752.45
L 826.35 752.85
Q 829.05 753.65 831.75 754 834.45 754.35 836.3 754.25
L 836.8 754.1
Q 837.25 754 837.6 754.05 838.25 754.1 838.95 754
L 839.85 753.85
Q 850.6 752.3 861 748.65 871.4 745 880.9 739.35 890.4 733.7 898.45 726.2 903.35 721.6 906.9 715.95 910.5 710.3 913 704.05 915.5 697.8 917.25 691.35 917.3 691.25 917.35 691.1 917.35 691 917.4 690.85 917.7 691.05 918 691 918.25 690.9 918.5 690.4
L 918.55 690.1
Q 918.55 689.9 918.55 689.65 918.45 689.35 918.35 689
L 918.3 688.5
Q 917.35 684.4 915.6 680.2 913.85 676.05 911.75 671.95 909.65 667.9 907.65 664.1 904.5 658.15 900.9 652.4 897.3 646.65 893.35 641.1 888.85 634.1 884 627.45 879.2 620.75 874.15 614.5 871.4 611.15 868.85 607.95 866.3 604.7 863.7 601.55 862.8 600.4 861.9 599.2 860.95 598.05 860.05 596.85 855.05 590.4 849.1 584.55 843.1 578.75 837.2 573 835.1 571 832.7 569.3 830.3 567.6 828 565.8 827.45 565.4 827.2 565.35
M 893.5 682.5
Q 896.95 682.1 901.3 681.9 901.6 681.9 902.2 681.8 902.85 681.7 903.2 681.3 902.7 680.95 901.9 680.85
L 901.25 680.75 900.8 680.75
Q 895.3 679.8 890.6 680.45 885.95 681.1 881.55 683 877.15 684.95 872.45 687.85 863.85 693.05 856.5 698.1 849.15 703.15 842.75 709.2 836.35 715.25 830.6 723.4 829.65 724.7 828 726.75 826.4 728.8 825.1 730.95 823.8 733.1 823.7 734.7
L 823.75 735.15
Q 823.85 735 824.1 734.7 824.35 734.25 824.75 733.8
L 825.05 733.45 825.2 733.2
Q 827.3 730.1 829.5 727.55 831.65 725.05 834.3 722.4 837.5 719.1 840.45 715.6 843.4 712.15 846.85 708.95 851.45 704.9 856.9 700.95 862.35 697 868.15 693.45 873.9 689.9 879.45 687 883.35 684.95 886.65 683.95 890 682.9 893.5 682.5 Z"/>

<path fill="#FFFFFF" stroke="none" d="
M 849.3 587.75
Q 844.8 583.2 839 577.4 833.2 571.65 826.85 565.5 820.05 558.95 813.5 553 806.95 547.05 801.55 542.75 796.15 538.5 792.8 537 782.4 532.55 773.2 535.55 764 538.55 755.05 547.45 746.1 556.35 736.6 569.6 731.7 576.3 726.45 583.85 721.25 591.4 715.55 599.6 714.05 601.65 712.35 604.25 710.65 606.85 709.9 609.85 709.1 612.85 710.3 616.15 710.8 617.5 711.45 618.85 712.05 620.25 712.8 621.7
L 712.95 622
Q 713 622.15 713.1 622.3 713.8 623.7 714.6 625.15 715.45 626.65 716.35 628.15 719.3 633.2 723.15 638.8 727 644.35 731.5 650.3 732.6 651.75 733.75 653.2 734.9 654.65 736.05 656.15 738.05 658.65 740.1 661.15 742.1 663.7 744.25 666.2 744.85 666.95 745.45 667.7 746.05 668.4 746.7 669.15 747.35 669.9 748 670.7 748.65 671.45 749.3 672.2 761.85 686.9 774.85 700.7 787.9 714.5 799.15 725.55 810.4 736.6 817.65 742.95 819.5 744.55 820.95 745.75 822.45 746.95 823.5 747.75 824 748.1 824.4 748.35 824.8 748.65 825.15 748.8 826.9 749.25 828.75 749.5 830.6 749.75 832.55 749.85 833.6 749.9 834.65 749.9 835.3412109375 749.9314453125 836 749.9
L 836.8 749.9
Q 845.9 749.5 855.15 746.85 864.4 744.15 872.45 740.2 880.45 736.3 885.75 732.25 892.3 727.3 899.15 719.55 906.05 711.85 910.5 702.85 914.95 693.85 914.35 684.95 914.3 684.7 914.3 684.45 914.25 684.2 914.2 683.95
L 914.15 683.55
Q 914.15 683.4 914.1 683.25 914.1 683.1 914.05 682.95 913.1 680.9 912.15 678.85 911.2 676.85 910.2 674.9 908.55 671.5 906.85 668.25 905.2 665 903.45 661.85 894.2 645 884.85 631.3 875.55 617.55 867.4 607.6 859.25 597.65 853.65 592.1 852.7 591.15 851.6 590.05 850.55 588.95 849.3 587.75
M 901.3 681.9
Q 896.95 682.1 893.5 682.5 890 682.9 886.65 683.95 883.35 684.95 879.45 687 873.9 689.9 868.15 693.45 862.35 697 856.9 700.95 851.45 704.9 846.85 708.95 843.4 712.15 840.45 715.6 837.5 719.1 834.3 722.4 831.65 725.05 829.5 727.55 827.3 730.1 825.2 733.2
L 825.05 733.45 824.75 733.8
Q 824.35 734.25 824.1 734.7 823.85 735 823.75 735.15
L 823.7 734.7
Q 823.8 733.1 825.1 730.95 826.4 728.8 828 726.75 829.65 724.7 830.6 723.4 836.35 715.25 842.75 709.2 849.15 703.15 856.5 698.1 863.85 693.05 872.45 687.85 877.15 684.95 881.55 683 885.95 681.1 890.6 680.45 895.3 679.8 900.8 680.75
L 901.25 680.75 901.9 680.85
Q 902.7 680.95 903.2 681.3 902.85 681.7 902.2 681.8 901.6 681.9 901.3 681.9 Z"/>
</g>
</defs>



<g transform="matrix( -0.5071563720703125, -0.4334716796875, 0.4334716796875, -0.5071563720703125, 1283.8,1382.25) ">
<g transform="matrix( 1, 0, 0, 1, 0,0) ">
<use xlink:href="#Symbol_21_0_Layer0_0_FILL"/>
</g>
</g>

<g transform="matrix( 0.071929931640625, -0.638671875, 0.690582275390625, 0.0665283203125, 575.45,1209.95) ">
<g transform="matrix( 1, 0, 0, 1, 0,0) ">
<use xlink:href="#Symbol_36_0_Layer0_0_FILL"/>
</g>
</g>

<g transform="matrix( 0.088958740234375, -0.4235687255859375, 0.8540802001953125, 0.0441131591796875, 412.8,1069.45) ">
<g transform="matrix( 1, 0, 0, 1, 0,0) ">
<use xlink:href="#Symbol_27_0_Layer0_0_FILL"/>
</g>
</g>

<g transform="matrix( 0.667572021484375, 0, 0, 0.667572021484375, 457,269.45) ">
<g transform="matrix( 1, 0, 0, 1, 0,0) ">
<use xlink:href="#Symbol_68_0_Layer0_0_FILL"/>
</g>
</g>

<g transform="matrix( 0.542999267578125, 0.1893310546875, -0.2315521240234375, 0.6660308837890625, 780,92.65) ">
<g transform="matrix( 1, 0, 0, 1, 0,0) ">
<use xlink:href="#Symbol_25_0_Layer0_0_FILL"/>
</g>
</g>

<g transform="matrix( 0.667572021484375, 0, 0, 0.667572021484375, 451.75,297.9) ">
<g transform="matrix( 1, 0, 0, 1, 0,0) ">
<use xlink:href="#Symbol_69_0_Layer0_0_FILL"/>
</g>
</g>

<g transform="matrix( 0.6625213623046875, -0.082000732421875, 0.082000732421875, 0.6625213623046875, 453.2,335.45) ">
<g transform="matrix( 1, 0, 0, 1, 0,0) ">
<use xlink:href="#Symbol_61_0_Layer0_0_FILL"/>
</g>
</g>

<g transform="matrix( 0.6674957275390625, -0.009918212890625, 0.009918212890625, 0.6674957275390625, 483.6,280.45) ">
<g transform="matrix( 1, 0, 0, 1, 0,0) ">
<use xlink:href="#Symbol_62_0_Layer0_0_FILL"/>
</g>
</g>

<g transform="matrix( 0.6674957275390625, -0.009918212890625, 0.00860595703125, 0.5790863037109375, 493,312.75) ">
<g transform="matrix( 1, 0, 0, 1, 0,0) ">
<use xlink:href="#Symbol_28_0_Layer0_0_FILL"/>
</g>
</g>

<g transform="matrix( 0.6458740234375, 0.1688385009765625, -0.1688385009765625, 0.6458740234375, 568.4,119.25) ">
<g transform="matrix( 1, 0, 0, 1, 0,0) ">
<use xlink:href="#Symbol_29_0_Layer0_0_FILL"/>
</g>
</g>

<g transform="matrix( 0.6117706298828125, 0.022216796875, -0.022216796875, 0.6117706298828125, 541.15,267.95) ">
<g transform="matrix( 1, 0, 0, 1, 0,0) ">
<use xlink:href="#Symbol_30_0_Layer0_0_FILL"/>
</g>
</g>

<g transform="matrix( 0.1231536865234375, 0.066009521484375, -0.066009521484375, 0.1231536865234375, 995.15,210.55) ">
<g transform="matrix( 1, 0, 0, 1, 0,0) ">
<use xlink:href="#Symbol_46_0_Layer0_0_FILL"/>
</g>
</g>

<g transform="matrix( 0.1396331787109375, 0.005218505859375, -0.005218505859375, 0.1396331787109375, 937.4,254.55) ">
<g transform="matrix( 1, 0, 0, 1, 0,0) ">
<use xlink:href="#Symbol_47_0_Layer0_0_FILL"/>
</g>
</g>

<g transform="matrix( 0.07208251953125, 0.0995941162109375, -0.0995941162109375, 0.07208251953125, 1018.1,244.6) ">
<g transform="matrix( 1, 0, 0, 1, 0,0) ">
<use xlink:href="#Symbol_48_0_Layer0_0_FILL"/>
</g>
</g>

<g transform="matrix( 0.1393585205078125, -0.010162353515625, 0.010162353515625, 0.1393585205078125, 929.3,279.25) ">
<g transform="matrix( 1, 0, 0, 1, 0,0) ">
<use xlink:href="#Symbol_38_0_Layer0_0_FILL"/>
</g>
</g>

<g transform="matrix( 0.138671875, -0.0172119140625, 0.0172119140625, 0.138671875, 924.4,288.4) ">
<g transform="matrix( 1, 0, 0, 1, 0,0) ">
<use xlink:href="#Symbol_39_0_Layer0_0_FILL"/>
</g>
</g>

<g transform="matrix( 0.0349578857421875, -0.1314239501953125, -0.153228759765625, -0.0753021240234375, 1119.35,522.95) ">
<g transform="matrix( 1, 0, 0, 1, 0,0) ">
<use xlink:href="#Symbol_23_0_Layer0_0_FILL"/>
</g>
</g>

<g transform="matrix( 0.13629150390625, 0.03082275390625, -0.03082275390625, 0.13629150390625, 947.2,237.55) ">
<g transform="matrix( 1, 0, 0, 1, 0,0) ">
<use xlink:href="#Symbol_49_0_Layer0_0_FILL"/>
</g>
</g>

<g transform="matrix( 0.1089630126953125, 0.0874786376953125, -0.0874786376953125, 0.1089630126953125, 988.95,190.25) ">
<g transform="matrix( 1, 0, 0, 1, 0,0) ">
<use xlink:href="#Symbol_70_0_Layer0_0_FILL"/>
</g>
</g>

<g transform="matrix( 0.128753662109375, 0.054290771484375, -0.054290771484375, 0.128753662109375, 958.85,217.65) ">
<g transform="matrix( 1, 0, 0, 1, 0,0) ">
<use xlink:href="#Symbol_42_0_Layer0_0_FILL"/>
</g>
</g>

<g transform="matrix( 0.59735107421875, -0.3344879150390625, 0.3020782470703125, 0.62799072265625, 389,567.85) ">
<g transform="matrix( 1, 0, 0, 1, 0,0) ">
<use xlink:href="#Symbol_43_0_Layer0_0_FILL"/>
</g>
</g>

<g transform="matrix( 0.6671295166015625, 0.03643798828125, -0.03643798828125, 0.6671295166015625, 561.5,274.9) ">
<g transform="matrix( 1, 0, 0, 1, 0,0) ">
<use xlink:href="#Symbol_31_0_Layer0_0_FILL"/>
</g>
</g>

<g transform="matrix( 0.6161956787109375, -0.258880615234375, 0.258880615234375, 0.6161956787109375, 401.95,498.35) ">
<g transform="matrix( 1, 0, 0, 1, 0,0) ">
<use xlink:href="#Symbol_67_0_Layer0_0_FILL"/>
</g>
</g>
</svg>
