
<svg xmlns="http://www.w3.org/2000/svg" version="1.1" xmlns:xlink="http://www.w3.org/1999/xlink" preserveAspectRatio="none" x="0px" y="0px" width="760px" height="880px" viewBox="614 10 760 880">
<defs>


<g id="Symbol_10_0_Layer0_0_FILL">
<path fill="#0081C6" stroke="none" d="
M 1005.65 543.5
L 1001.25 543.5 1001.25 545.8
Q 999.95 544.35 998.5 543.65 997.05 542.95 995.4 542.95 993.5 542.95 991.9 543.7 990.3 544.45 989.05 545.9 987.8 547.35 987.15 549.2 986.55 551.05 986.55 553.25 986.55 555.5 987.15 557.35 987.8 559.2 989.05 560.7 990.35 562.2 991.95 562.9 993.55 563.65 995.5 563.65 997.05 563.65 998.5 563 999.95 562.35 1001.25 561.05
L 1001.25 563.1 1005.65 563.1 1005.65 543.5
M 1001.55 553.35
Q 1001.55 554.7 1001.15 555.85 1000.8 557 1000.05 557.9 999.3 558.75 998.35 559.15 997.35 559.6 996.15 559.6 995.05 559.6 994.1 559.15 993.15 558.7 992.4 557.8 991.7 556.95 991.35 555.8 990.95 554.65 990.95 553.25 990.95 551.9 991.35 550.8 991.7 549.7 992.45 548.8 993.2 547.95 994.15 547.5 995.1 547.05 996.2 547.05 997.4 547.05 998.35 547.5 999.3 547.9 1000.05 548.8 1000.8 549.7 1001.15 550.8 1001.55 551.95 1001.55 553.35
M 980.35 543.45
Q 979.9 543.7 979.35 544.15 978.85 544.6 978.25 545.25
L 978.25 543.5 973.9 543.5 973.9 563.1 978.25 563.1 978.25 552.95
Q 978.25 550.15 979.1 548.75 980 547.35 981.8 547.35 982.35 547.35 982.95 547.6 983.6 547.8 984.2 548.25
L 986.2 544.15
Q 985.25 543.55 984.35 543.25 983.45 542.95 982.6 542.95 981.95 542.95 981.4 543.1 980.85 543.2 980.35 543.45
M 1016.6 543.45
Q 1016.15 543.7 1015.65 544.15 1015.1 544.65 1014.45 545.3
L 1014.45 543.5 1010.15 543.5 1010.15 563.1 1014.45 563.1 1014.45 553
Q 1014.45 551.45 1014.7 550.3 1014.9 549.2 1015.3 548.45 1015.75 547.75 1016.4 547.4 1017.05 547.05 1018 547.05 1019.45 547.05 1020.15 548.35 1020.9 549.65 1020.9 552.25
L 1020.9 563.1 1025.25 563.1 1025.25 553
Q 1025.25 551.4 1025.45 550.3 1025.65 549.15 1026.05 548.45 1026.45 547.75 1027.1 547.4 1027.75 547.05 1028.65 547.05 1029.45 547.05 1030 547.35 1030.55 547.65 1030.9 548.25 1031.25 548.8 1031.4 549.8 1031.55 550.8 1031.55 552.2
L 1031.55 563.1 1035.9 563.1 1035.9 551
Q 1035.9 546.95 1034.35 544.95 1032.75 542.95 1029.55 542.95 1027.8 542.95 1026.45 543.7 1025.05 544.4 1024.05 545.85 1023.1 544.4 1021.85 543.7 1020.6 542.95 1019 542.95 1018.3 542.95 1017.7 543.1 1017.1 543.2 1016.6 543.45
M 920.15 543.5
Q 918.9 542.95 917.25 542.95 915.8 542.95 914.55 543.55 913.25 544.15 912.1 545.3
L 912.1 543.5 907.75 543.5 907.75 563.1 912.1 563.1 912.1 553.65
Q 912.1 551.8 912.35 550.55 912.55 549.25 913 548.55 913.45 547.8 914.25 547.4 915 547.05 916.05 547.05 917.05 547.05 917.75 547.35 918.45 547.6 918.8 548.15 919.2 548.7 919.4 549.7 919.6 550.7 919.6 552.15
L 919.6 563.1 923.95 563.1 923.95 551.1
Q 923.95 549 923.55 547.5 923.15 546.05 922.35 545.1 921.45 544.05 920.15 543.5
M 903.25 543.5
L 898.9 543.5 898.9 563.1 903.25 563.1 903.25 543.5
M 900 538.1
Q 900.5 538.35 901.1 538.35 901.65 538.35 902.15 538.1 902.65 537.9 903.05 537.45 903.5 537.05 903.7 536.5 903.9 536 903.9 535.4 903.9 534.75 903.7 534.25 903.5 533.75 903.05 533.3 902.65 532.9 902.15 532.65 901.65 532.45 901.05 532.45 900.5 532.45 900 532.65 899.5 532.9 899.05 533.3 898.65 533.75 898.45 534.25 898.25 534.75 898.25 535.35 898.25 536 898.45 536.5 898.65 537.05 899.05 537.45 899.5 537.9 900 538.1
M 941.45 543.7
Q 939.65 542.95 937.55 542.95 935.5 542.95 933.7 543.7 931.9 544.45 930.45 545.95 929 547.45 928.3 549.25 927.55 551.05 927.55 553.15 927.55 555.4 928.25 557.3 929 559.15 930.4 560.65 931.85 562.15 933.6 562.9 935.4 563.65 937.5 563.65 939.6 563.65 941.4 562.9 943.25 562.15 944.7 560.7 946.15 559.2 946.9 557.35 947.6 555.5 947.6 553.3 947.6 551.15 946.9 549.3 946.15 547.45 944.7 545.95 943.25 544.45 941.45 543.7
M 943.15 553.35
Q 943.15 554.75 942.8 555.9 942.4 557.05 941.65 557.9 940.9 558.75 939.85 559.2 938.85 559.6 937.55 559.6 936.3 559.6 935.3 559.15 934.25 558.75 933.5 557.9 932.75 557 932.35 555.85 932 554.7 932 553.25 932 551.85 932.4 550.75 932.75 549.65 933.55 548.8 934.3 547.9 935.3 547.45 936.35 547.05 937.55 547.05 938.85 547.05 939.85 547.45 940.85 547.9 941.65 548.8 942.4 549.65 942.8 550.75 943.15 551.9 943.15 553.35
M 962.4 543.65
Q 960.9 542.95 959.15 542.95 957.1 542.95 955.5 543.75 953.85 544.55 952.6 546.15 951.45 547.65 950.9 549.45 950.3 551.3 950.3 553.4 950.3 555.6 950.95 557.45 951.55 559.3 952.8 560.75 954 562.2 955.6 562.9 957.15 563.65 959.1 563.65 960.8 563.65 962.25 562.95 963.75 562.25 965.05 560.9
L 965.05 563.65
Q 965.05 566.65 963.85 568.2 962.65 569.7 960.3 569.7 959 569.7 958 569.25 957 568.8 956.35 567.85 956.05 567.5 955.85 566.9 955.65 566.35 955.5 565.65
L 951.15 565.65
Q 951.35 567.55 952.05 569.05 952.8 570.55 954.05 571.65 955.25 572.7 956.8 573.25 958.35 573.8 960.25 573.8 962.5 573.8 964.25 573 966 572.25 967.25 570.75 967.95 569.95 968.4 569 968.85 568.05 969.05 566.95 969.15 566.55 969.2 566.05 969.25 565.6 969.3 565.05 969.35 564.55 969.35 563.95 969.4 563.3 969.4 562.6
L 969.4 543.5 965.05 543.5 965.05 545.7
Q 963.85 544.35 962.4 543.65
M 965.2 553.35
Q 965.2 554.7 964.9 555.8 964.55 556.85 963.9 557.75 963.15 558.65 962.2 559.15 961.2 559.6 959.95 559.6 958.7 559.6 957.75 559.15 956.75 558.7 956.05 557.75 955.4 556.9 955.1 555.8 954.75 554.7 954.75 553.35 954.75 552 955.1 550.9 955.4 549.8 956.05 548.95 956.75 548 957.75 547.5 958.7 547.05 959.95 547.05 961.1 547.05 962.05 547.5 963 547.9 963.75 548.8 964.5 549.65 964.85 550.8 965.2 551.9 965.2 553.35
M 887.65 542.95
Q 886.25 542.95 885 543.5 883.7 544.05 882.55 545.15
L 882.55 534 878.2 534 878.2 563.1 882.55 563.1 882.55 553.6
Q 882.55 551.8 882.8 550.55 883 549.25 883.45 548.5 883.9 547.8 884.7 547.4 885.55 547.05 886.65 547.05 887.55 547.05 888.2 547.3 888.85 547.55 889.25 548.1 889.65 548.65 889.85 549.5 890.05 550.35 890.05 551.5
L 890.05 563.1 894.4 563.1 894.4 551.1
Q 894.4 549.05 894 547.55 893.6 546.05 892.75 545.1 891.8 544.05 890.55 543.5 889.25 542.95 887.65 542.95
M 868.15 543.5
L 863.8 543.5 863.8 563.1 868.15 563.1 868.15 552.95
Q 868.15 550.15 869.05 548.75 869.95 547.35 871.7 547.35 872.3 547.35 872.9 547.6 873.5 547.8 874.15 548.25
L 876.1 544.15
Q 875.2 543.55 874.3 543.25 873.4 542.95 872.5 542.95 871.85 542.95 871.3 543.1 870.75 543.2 870.3 543.45 869.8 543.7 869.3 544.15 868.75 544.6 868.15 545.25
L 868.15 543.5 Z"/>
</g>

<g id="Symbol_46_0_Layer0_0_FILL">
<path fill="#a6ce38" stroke="none" d="
M 957.25 636.4
L 900.4 636.15 928.35 847.5 957.25 636.4 Z"/>
</g>

<g id="Symbol_118_0_Layer0_0_FILL">
<path fill="#a6ce38" stroke="none" d="
M 1015.35 632
L 973.55 634.3 989 819.4 1015.35 632 Z"/>
</g>

<g id="Symbol_22_0_Layer0_0_FILL">
<path fill="#a6ce38" stroke="none" d="
M 805.2 277
Q 799.2 272.4 792.8 268 780.5 259.35 762.5 248.05 744.45 236.75 724.85 227.3 705.25 217.9 688.25 214.9 681.2 213 673.75 212.85 666.3 212.7 659.65 214.4
L 658.1 214.85
Q 656.85 215.25 655.8 215.7 655.45 215.9 655.05 216.05
L 654.5 216.25
Q 648.35 219.65 647.35 224.9 646.35 230.15 648.5 235.85 650.6 241.6 653.95 246.4 647.55 243.75 641.4 241.85 635.3 240 629.95 239.2 619.2 235.1 608.9 233.75 598.65 232.35 591.95 236.65 585.25 240.9 585.3 253.75
L 585.3 254.65
Q 585.35 255.4 585.6 256 585.5 258.85 586.7 261.75 587.95 264.65 589.5 266.95 594.6 270.25 599.7 273.65 604.8 277 609.9 280.45 624.8 290.45 639.65 300.95 654.5 311.45 669.25 322.4 726.45 364.95 781.75 415.1 837.1 465.2 889.6 523.25 902.45 537.55 915.15 552.3 927.8 567.05 940.25 582.3 941.5 583.8 942.7 585.3
L 945.2 588.35
Q 945.35 588.1 945.5 587.85 945.65 587.6 945.8 587.4 945.95 587.1 946.1 586.85 946.25 586.6 946.45 586.35 946.6 586.05 946.8 585.75
L 947.2 585.15
Q 956.5 570.35 967.5 556.1 978.5 541.9 990.65 529.1 997.65 521.75 1004.9 515.1 1012.2 508.45 1019.65 502.7 1020.45 502.05 1021.25 501.45 1022.05 500.85 1022.85 500.25 1021.9 498.2 1021 496.15 1020.05 494.1 1019.1 492.05
L 1018.45 490.65
Q 1007.5 467.2 994.3 444.7 981.1 422.2 965.25 400 963.05 396.95 960.85 393.9 958.6 390.85 956.3 387.8 955.05 386.1 953.8 384.45 952.5 382.75 951.2 381.05 948.2 377.1 945.05 373 941.9 368.9 938.7 364.7 936.05 361.25 933.4 357.75 930.7 354.3 927.95 350.75
L 926.7 349.15
Q 926.05 348.35 925.45 347.55
L 925.3 347.35
Q 925.2 347.25 925.15 347.2
L 925.05 347 924.95 346.9
Q 918.9 339.2 912.6 331.6 906.35 324.05 899.85 316.85 896.95 313.6 894 310.45 891.05 307.3 888.05 304.3 884.2 300.4 880.3 296.8 876.4 293.2 872.45 289.9 867 285.3 860.85 281.35 854.75 277.35 848.15 274.5 844.35 272.85 840.4 271.75 836.45 270.65 832.45 270.15 831.05 270.75 829.7 271.5 828.35 272.25 827.05 273.15 823.35 275.7 820.7 278.95 818.05 282.15 816.8 286.4 811.15 281.6 805.2 277 Z"/>
</g>

<g id="Symbol_14_0_Layer0_0_FILL">
<path fill="#a6ce38" stroke="none" d="
M 1037.75 310.3
Q 1009.25 300.8 986.6 302.35 963.9 303.9 957.85 315.55 952.7 327.45 948.8 344.7 944.85 362 941.6 380.45 938.35 398.9 935.2 414.45 934.25 425.55 959.65 428.65 985.05 431.8 1019.6 430.35 1054.15 428.9 1080.75 426.35
L 1108.75 423.5 1103.9 402.35
Q 1099.35 382.75 1094.8 363
L 1089.75 341.35
Q 1066.25 319.8 1037.75 310.3 Z"/>
</g>

<g id="Symbol_15_0_Layer0_0_FILL">
<path fill="#a6ce38" stroke="none" d="
M 1012.35 269.55
Q 997.1 271.3 987.9 276.75 978.7 282.25 974.4 287.2 970.05 291.85 964.65 301 959.25 310.15 954.8 320.5 950.35 330.85 948.9 338.95 948 346.8 957.15 356.25 966.25 365.75 981.25 373.2 996.2 380.65 1012.8 382.4 1029.5 383.65 1046.8 379.85 1064.15 376 1077 369.5 1089.85 363 1093.1 356.25 1093 348.8 1088.15 331 1083.35 313.25 1073.85 296.25 1064.3 279.25 1050.15 274.15 1027.6 267.85 1012.35 269.55 Z"/>
</g>

<g id="Symbol_16_0_Layer0_0_FILL">
<path fill="#a6ce38" stroke="none" d="
M 1106.5 326.35
Q 1113.75 318.9 1118.6 311
L 1115.05 308.9 1104.95 304.7
Q 1091.55 299.45 1068.2 297.6
L 1071.15 308.1
Q 1074.2 317.9 1077.85 329.4 1081.5 340.9 1083.4 346.7 1086.05 344.75 1092.65 339.3 1099.2 333.8 1106.5 326.35 Z"/>
</g>

<g id="Symbol_23_0_Layer0_0_FILL">
<path fill="#a6ce38" stroke="none" d="
M 793 728.5
L 804.5 735.2
Q 815.8 741.55 835.15 750 854.5 758.4 879 765
L 889.25 742.3
Q 898.45 720.9 910.3 692.8 922.15 664.75 931.1 643.45
L 940.5 621 915.1 609.95 793 728.5 Z"/>
</g>

<g id="Symbol_24_0_Layer0_0_FILL">
<path fill="#0081C6" stroke="none" d="
M 1211.3 293.2
Q 1208.75 293.35 1209.55 295 1210.3 296.65 1212.2 298.5 1214.05 300.3 1214.85 300.9 1217.8 303.2 1221.05 305.2 1224.35 307.2 1227.35 309.6
L 1227.75 309.9
Q 1227.95 310.1 1228.15 310.25
L 1227.95 310.25
Q 1224.75 310.35 1225.85 311.95 1227 313.55 1229.45 315.3
L 1232.85 317.65
Q 1236.2 320 1239.6 323.05 1243 326.15 1245.8 329.1 1254.85 338.4 1259.55 350.55 1264.2 362.65 1260.85 375.55 1259.1 381.6 1256.55 386.7 1254 391.75 1250.5 396.85 1250.05 397.5 1249.45 398.7 1248.8 399.85 1248.9 400.75 1248.5 401.5 1248.35 402.5 1248.2 403.5 1248.4 404.75 1248.9 407.9 1249.3 410.7 1249.7 413.55 1249.65 416.85 1249.5 419.4 1249.2 421.9 1248.85 424.4 1248.9 426.9 1243.25 424.55 1237.9 421.85 1232.6 419.15 1227.2 416 1226.55 415.65 1224.9 414.85 1223.25 414.05 1221.55 413.55 1225.3 408 1228.5 402.2 1231.75 396.35 1234.2 390.35
L 1235.1 387.3
Q 1235.7 384.95 1235.55 383.35 1235.35 381.7 1233.3 383.05 1224.85 404.6 1203.35 428.2 1181.85 451.85 1146.1 478.15 1141.45 481.85 1136.95 485.7 1132.45 489.6 1128.15 493.7 1126.9 494.95 1127 495.95 1127.05 496.95 1129.15 496.25
L 1129.7 495.7
Q 1130.15 495.25 1130.65 495.15
L 1133.55 493.5
Q 1154.65 481.3 1174.8 464.45 1194.95 447.55 1210.15 428.95 1212.7 425.8 1215.15 422.55 1217.6 419.3 1219.95 415.9 1220 416 1220.1 416.1 1220.15 416.2 1220.25 416.3 1223.65 420.55 1229.95 424 1236.25 427.4 1241.4 429.55 1243 430.25 1245.35 431.05 1247.7 431.85 1250.05 432.3 1250.75 433.45 1251.65 433.55 1252.6 433.7 1253.45 433.1 1253.65 433 1253.85 432.75 1254.05 432.55 1254.15 432.3
L 1254.3 432.25
Q 1254.45 432.25 1254.7 432.15 1254.95 432.1 1255.05 431.85 1255.75 430.85 1255.75 430.35 1255.75 429.8 1254.95 429.4 1256.1 422.85 1256.35 415.75 1256.65 408.65 1254.55 402.45 1254.3 401.7 1253.95 401.1 1253.6 400.55 1253.2 400.15 1253.5 399.9 1253.85 399.6
L 1254.3 399.2
Q 1260.9 392.85 1265.05 382.5 1269.15 372.1 1268.5 362.85 1267.55 352.6 1264.05 344.35 1260.55 336.1 1254.25 328.4 1252.65 325.8 1250.7 323.35 1248.8 320.9 1246.55 318.5 1241.3 312.7 1236.05 307.75 1230.85 302.85 1224.1 298.5 1221.1 296.5 1218.05 294.9 1215 293.25 1211.3 293.2 Z"/>

<path fill="#a6ce38" stroke="none" d="
M 1102.1 325.75
Q 1078.05 338.15 1051.25 357 1024.45 375.85 1007.75 399.7 987.85 430.5 973.2 468.2 958.55 505.9 949 543.65 939.45 581.35 934.85 612.2 930.2 643.1 930.35 660.25
L 931.05 680.6 932.95 691.65
Q 935.45 698.1 941.8 690.2 948.2 682.3 959.95 664.05 969.8 648.75 990.35 620.2 1010.85 591.65 1037.9 561.85 1064.9 532.05 1094.25 513 1108.75 504 1121.7 495.25 1134.65 486.55 1146.1 478.15 1181.85 451.85 1203.35 428.2 1224.85 404.6 1233.3 383.05 1235.55 377.35 1236.95 371.8 1238.35 366.2 1238.95 360.75 1240.95 334.8 1227.75 321.85 1214.5 308.85 1194.85 305.15 1175.15 301.45 1157.85 303.3 1140.55 305.15 1134.4 308.75
L 1102.1 325.75 Z"/>
</g>

<g id="Symbol_119_0_Layer0_0_FILL">
<path fill="#0081C6" stroke="none" d="
M 1035.4 302.25
L 1033.5 301.25 1031.5 300.65 1029.35 300.45 1027.25 300.65 1025.25 301.25 1023.35 302.25 1021.75 303.6 1020.4 305.25 1019.4 307.1 1018.75 309.15 1018.55 311.25 1018.75 313.35 1019.4 315.4 1020.4 317.25 1021.75 318.9 1023.35 320.25 1025.25 321.25 1027.25 321.85 1029.35 322.05 1031.5 321.85 1033.5 321.25 1035.4 320.25 1037 318.9 1038.35 317.25 1039.35 315.4 1040 313.35 1040.2 311.25 1040 309.15 1039.35 307.1 1038.35 305.25 1037 303.6 1035.4 302.25 Z"/>
</g>

<g id="Symbol_20_0_Layer0_0_FILL">
<path fill="#a6ce38" stroke="none" d="
M 1040.4 290.7
Q 1036.7 285.45 1029.15 285.1 1020.3 285.55 1015.95 292.1 1011.65 298.6 1010.8 306.75
L 1046.25 307 1045.2 301.3
Q 1044.1 296 1040.4 290.7 Z"/>
</g>

<g id="Layer0_11_FILL">
<path fill="#0081C6" stroke="none" d="
M 947.85 435.45
L 951.95 435.8
Q 963.45 435.85 974.9 437 986.3 438.1 997.75 439.65 1046.2 439.2 1093.7 435.95 1141.25 432.7 1187.45 426.1 1176 426.3 1164.5 426.65 1153 427.05 1141.45 427.75 1115.8 429.45 1089.5 430.65 1063.2 431.9 1037.2 431.7 1019.8 431.15 1002.05 429.35 984.35 427.5 967.05 428.3 961.4 428.6 955.95 429.45 950.45 430.3 945.05 432.4
L 944.2 432.7
Q 943.55 432.9 943.15 433.25 944.5 435 947.85 435.45 Z"/>

<path fill="#a6ce38" stroke="none" d="
M 1300.25 423.6
Q 1298.45 421.95 1296.8 419.45 1294.8 416.45 1293.05 412.95 1291.3 409.45 1289.85 406.1 1264.85 412.4 1239.2 417.35 1213.6 422.35 1187.45 426.1 1141.25 432.7 1093.7 435.95 1046.2 439.2 997.75 439.65 989.05 439.75 980.3 439.75 971.6 439.75 962.85 439.65 922.1 441.25 881.05 441.2 840 441.15 799 438.95 792.9 438.6 786.85 438.25 780.75 437.85 774.7 437.4 772.15 437.2 769.55 437 766.95 436.8 764.35 436.6 756.4 435.95 748.25 435.2 740.1 434.4 731.85 433.45 729.25 433.95 726.35 435.1 723.45 436.25 722.1 438.35 721.6 438.55 721.25 439
L 720.8 439.6
Q 715.05 447.65 719.5 454.25 723.9 460.85 734.3 466 744.65 471.15 756.7 474.85 762.2 477.55 768.9 479.95 775.6 482.35 782.9 484.45 781.55 484.95 779.75 485.75 778 486.55 776.6 487.45 775.6 488.05 774.65 488.6 773.75 489.2 772.85 489.8 772.75 490.05 772.45 490.2
L 772.1 490.4
Q 766.5 496.55 771.2 502.95 775.9 509.4 785.85 515.05 800.5 526.25 826.15 533.7 851.85 541.2 878.8 545.6 905.8 550 924.3 552.05 932.35 553 940.1 553.6 947.85 554.2 955.35 554.5 954.65 557.85 955.7 561.45 956.8 565.05 959.2 568.85 960.05 570.25 961.1 571.6 962.1 572.95 963.2 574.25 975.85 583.95 994.1 588.45 1012.3 592.95 1031.6 594.55 1050.95 596.15 1066.9 597.15 1066.9 598.4 1067.35 599.6 1067.85 600.8 1068.35 601.65 1077 614.15 1091.65 619.05 1106.3 623.95 1121.9 624.3 1139.05 625.05 1157.6 623.55 1176.1 622.05 1195.1 618.75 1198.75 617.4 1202.4 616.1 1206 614.75 1209.65 613.4 1222.3 608.6 1234.75 603.65 1247.15 598.7 1259.3 593.7 1264.35 591.6 1269.35 589.5 1274.35 587.45 1279.3 585.35 1280.9 584.7 1282.45 584.05 1284 583.35 1285.6 582.7 1290.1 580.75 1294.65 578.65 1299.2 576.6 1303.75 574.45 1314.25 569.5 1324.5 564.1 1334.75 558.7 1344.55 552.9 1345.95 552.1 1347.25 551.25 1348.6 550.45 1349.95 549.65 1350.1 549.55 1350.25 549.45
L 1350.55 549.25
Q 1350.5 549.1 1350.45 548.95 1350.4 548.8 1350.3 548.7 1350.15 548.6 1349.95 548.5 1349.8 548.4 1349.6 548.35 1348.35 544.2 1347 540.3 1345.65 536.4 1345.25 534.85 1337.75 507.15 1327.4 479.65 1317.1 452.15 1308.4 424.4 1307.25 425.4 1306.1 425.75 1304.95 426.05 1303.85 425.75 1302 425.3 1300.25 423.6
M 796.3 497.5
L 795.8 497.2
Q 795.6 497.05 795.35 496.9 795.4 496.7 795.45 496.55 795.5 496.35 795.55 496.15 795.75 496.5 795.9 496.85 796.1 497.15 796.3 497.5
M 776.95 502.4
Q 777 502.55 777 502.7 775.95 501.7 775.2 500.65 774.45 499.65 774.05 498.6 774.65 499.5 775.35 500.35 776.1 501.2 776.85 502.05 776.9 502.2 776.95 502.4 Z"/>
</g>

<g id="Layer0_12_FILL">
<path fill="#FFFFFF" stroke="none" d="
M 890.7 542.95
L 889.3 544.3
Q 883.1 550.6 877.9 557.1 872.7 563.6 866.95 569.7 861.25 575.85 853.45 581.1 837.75 591.1 818.9 596.75 800.05 602.35 779.75 605.05 759.45 607.75 739.45 609.1 719.45 610.4 701.45 611.8 678.6 613.55 654.35 617.25 630.1 620.95 607.95 629.4 585.8 637.8 569.25 653.65 552.75 669.5 545.4 695.5 539.1 720.3 542.9 744.05 546.7 767.8 556.8 790.5 566.9 813.25 579.4 835.05 591.9 856.85 602.85 877.8 608.1 887.8 614.15 897.6 620.2 907.4 625.85 917.3 627.85 920.8 630.2 922.2 632.6 923.55 634.6 923.1 636.65 922.6 637.6 920.5 641.05 921.7 644.7 922.65 648.35 923.6 652.1 924.35 653.75 925.2 655.75 925.7 657.7 926.2 659.25 926.4
L 661.15 926.65
Q 671.05 927.85 681.6 928.6 692.2 929.4 702.8 929.45 713.35 929.5 723.15 928.5 727.75 928 732.75 926.75 737.75 925.5 742.7 923.95 747.65 922.35 752.15 920.85 755.55 919.7 756.35 918.15 757.15 916.65 757.1 914.5 757.1 912.35 758.1 909.35 759.65 905.5 762 901.7 764.35 897.95 766.75 894.1 769.2 890.3 771.05 886.35 773.75 880.1 777.05 875.35 780.35 870.55 785.35 868.4 790.35 866.2 798.15 867.8 806.3 869.7 814.6 875.1 822.85 880.55 830.55 888 838.2 895.45 844.55 903.4 850.9 911.4 855.2 918.4 857.4 921.75 859.95 922.3 862.5 922.8 864.2 921.2 866.9 921.7 869.1 921.85
L 871.65 922
Q 882.2 922.6 892.75 921.5 903.3 920.4 913.65 918
L 913.85 918.1
Q 914.3 918.15 914.75 917.95 915.25 917.7 915.8 917.35 917.1 916.8 918.1 915.9 919.1 915.05 919.2 914.05 919.5 913.7 919.65 913.5
L 919.85 913.3
Q 926.45 904 930.85 891.8 935.2 879.55 938.2 866.2 941.25 852.85 943.85 840.15 944.6 840 945.45 839.65 946.3 839.3 947.25 838.75 949.45 837.5 951.7 835.55 953.95 833.6 956.2 831.55 958.5 829.5 960.8 827.9 975.25 818.35 990.55 810.7 1005.9 803.05 1021.25 795.6 1036.6 788.15 1051.1 779.1 1065.6 770 1078.4 757.6 1099.85 736.15 1115.1 708.65 1130.35 681.15 1139.7 650.2 1149.05 619.3 1152.85 587.55 1156.65 555.85 1155.2 526.05 1154.8 519.3 1153.55 512.05 1152.3 504.8 1150.75 497.55 1149.2 490.35 1147.8 483.55 1147.7 482.65 1147.5 480.7 1147.25 478.75 1146.6 477.1 1145.9 475.45 1144.4 475.45 1143.85 476.2 1143.75 477.35 1143.65 478.45 1143.7 479.45 1143.8 480.4 1143.8 480.8 1144.05 484.9 1144.3 489.05 1144.55 493.15 1144.8 497.25 1143.75 497.5 1142.95 497.7
L 1141.9 498
Q 1114.4 505.8 1086.4 512.05 1058.45 518.3 1030.55 524.35 1013.55 528 996.4 530.55 979.3 533.15 962.15 535.55 944.95 537.95 927.9 541.05 918.6 542.75 908.8 544.85 899.05 546.95 889.9 549.35 889.75 549.4 889.6 549.4 889.45 549.45 889.25 549.5 889.6 548.95 889.95 548.4
L 890.65 547.35
Q 891.05 546.75 891.85 545.5 892.6 544.25 893.3 543.05 894 541.8 894.1 541.2 894.15 540.1 893.6 540.15 893.05 540.15 892.6 540.8 891.8 541.85 890.7 542.95 Z"/>
</g>

<g id="Layer0_13_FILL">
<path fill="#FFFFFF" stroke="none" d="
M 1069.85 243.05
Q 1069.75 239.75 1066.8 236.65 1063.8 233.6 1059.85 232.15 1055.9 230.65 1052.95 232.25 1048.25 235.05 1041.55 236.05 1034.85 237.05 1026.05 237.1 1017.25 237.15 1006.2 236.95 993.2 236.7 983.75 233.9 974.35 231.1 966.55 226.75 958.8 222.4 950.75 217.5
L 946.05 215.3 938.2 212.65
Q 928.75 209.8 914.65 209.15 900.6 208.55 883.6 213.2 863.1 219.4 850.1 226.55 837.05 233.7 830.4 239.6
L 825.1 244.65 822.4 248
Q 815.75 258.8 809.4 274.95 803.05 291.1 797.85 307.35 792.65 323.55 789.55 334.55
L 786.4 346 787.1 357.7
Q 787.75 368.65 791.9 384.8 796.05 400.95 806.85 417.3 817.65 433.7 838.1 445.3 858.15 456.05 872.95 462.65 887.75 469.2 899.05 472.9 910.35 476.6 919.85 478.8 929.4 481.05 938.85 483.15 964.7 488.8 990.85 486.9 1017.05 485 1041.3 478.6 1065.55 472.15 1085.55 464.15 1092.3 461.5 1098.4 458.9 1104.5 456.3 1109.8 453.85 1113.6 452.15 1116.95 450.6 1120.3 449 1123.2 447.6 1139.5 439.7 1153.9 426.8 1168.3 413.85 1179.55 397.05 1190.75 380.25 1197.55 360.65 1204.35 341.05 1205.4 319.85 1206.7 285.8 1204.5 263.65 1202.3 241.45 1199.3 229.85
L 1195.25 215.95
Q 1194.25 213.2 1191.85 211.85 1189.45 210.45 1186.65 211 1183.9 211.5 1181.75 214.45 1179.95 217.15 1175.7 224.6 1171.5 232 1164.05 243.5 1156.65 255.05 1145.25 270.05 1138 279.35 1128.95 283.75 1119.9 288.1 1109.55 288.4 1099.2 288.65 1088.1 285.7 1080.85 283.6 1076.95 277.85 1073.1 272.05 1071.6 265 1070.1 257.95 1069.9 251.85 1069.75 245.8 1069.85 243.05 Z"/>

<path fill="#0081C6" stroke="none" d="
M 1119.2 453.5
Q 1120.5 452.9 1121.8 452.4 1123.1 451.85 1124.4 451.25 1124.6 451.15 1125 451 1125.35 450.8 1125.35 450.45 1124.55 450.2 1123.5 450.5 1122.4 450.75 1122 450.9 1118.95 451.7 1115.95 452.4 1112.9 453.15 1109.8 453.85 1104.5 456.3 1098.4 458.9 1092.3 461.5 1085.55 464.15 1094.6 462.5 1102.8 460.05 1111 457.6 1119.2 453.5 Z"/>
</g>

<g id="Symbol_28_0_Layer0_0_FILL">
<path fill="#0081C6" stroke="none" d="
M 1017.45 346.15
Q 1018.85 343.35 1019.4 339.95 1019.9 336.55 1019.4 333.5 1018.95 330.45 1017.65 328.05 1016.3 325.6 1014.3 324.05 1012.3 322.55 1009.75 322.2 1007.25 321.9 1004.85 322.9 1002.45 323.85 1000.45 325.9 998.4 327.9 997 330.7 995.65 333.55 995.1 336.9 994.55 340.3 995.05 343.35 995.55 346.4 996.85 348.85 998.15 351.3 1000.15 352.8 1002.2 354.35 1004.7 354.65 1007.25 354.95 1009.65 354 1012 353 1014.05 351 1016.05 349 1017.45 346.15 Z"/>
</g>

<g id="Symbol_29_0_Layer0_0_FILL">
<path fill="#0081C6" stroke="none" d="
M 1030.1 321.85
Q 1021.85 320.25 1013.45 318.7 1005.05 317.2 997.2 315.9 996.25 316.35 996.65 317.05 997.05 317.75 998.8 318.2 1005.4 319.7 1012.25 320.7 1019.1 321.75 1025.8 322.95 1026.4 323.05 1027.6 323.05 1028.8 323.05 1029.65 322.8 1030.5 322.55 1030.1 321.85 Z"/>

<path fill="#FFFFFF" stroke="none" d="
M 1003.4 280.35
Q 996.4 283.45 991.75 289.2 987.1 295 984.25 301.55 981.4 308.05 979.7 313.45 983.55 313.9 988 314.5 992.4 315.15 997.2 315.9 1005.05 317.2 1013.45 318.7 1021.85 320.25 1030.1 321.85 1034 322.6 1037.8 323.35 1041.6 324.1 1045.15 324.8 1046.1 318.35 1045.95 311.15 1045.8 303.9 1043.5 297.2 1041.15 290.45 1035.6 285.55 1030.1 280.6 1020.3 278.8 1010.35 277.3 1003.4 280.35 Z"/>
</g>

<g id="Layer0_16_FILL">
<path fill="#FFFFFF" stroke="none" d="
M 991.5 244
L 991.3 244.15 994.7 246.75 997.05 245.7
Q 999.25 244.7 1001.7 243.05 1004.15 241.45 1005 239.55 1005.65 237.65 1005.4 236.05 1005.1 234.45 1004.6 233.5
L 1004.25 232.75 1004.05 232.5 989.05 225.45 983.6 216.5
Q 978.3 207.9 970.8 195.85 963.3 183.85 956.25 173.05 949.25 162.3 945.45 157.5 941.95 152.8 933.55 145.7 925.1 138.55 911.4 132.85 897.7 127.1 878.3 126.6 858.9 126.05 833.45 134.55 804.6 145.3 789.8 161.55 775 177.8 769.8 195.15 764.65 212.45 764.65 226.45 764.65 240.4 765.45 246.55 765.95 252.55 767.35 260.05 768.75 267.6 770.35 274.8 772 282 773.15 286.9
L 774.4 292.5
Q 771.2 303 770.25 309.65 769.3 316.3 769.45 319.4
L 769.7 322.5 780 330 789 328.7 790.8 326.7 789.05 326.7 788.1 326.7 786.6 326.7 785.2 326.35
Q 783.9 326 782.85 325.1 781.8 324.2 782.35 322.55
L 782.4 322.5
Q 785.25 317.55 794.55 310.6 803.8 303.65 817.3 295.85 830.85 288.05 846.55 280.55 862.3 273.05 878.1 267 913.45 253.75 940.1 246.75 966.75 239.8 981.85 238.05
L 993.3 237.35 996.3 237.75 997.5 238.7
Q 997.35 239.35 996.1 240.45 994.8 241.6 993.45 242.6
L 991.5 244 Z"/>

<path fill="#0081C6" stroke="none" d="
M 975.7 245.95
L 991.5 244 993.45 242.6
Q 994.8 241.6 996.1 240.45 997.35 239.35 997.5 238.7
L 996.3 237.75 993.3 237.35 981.85 238.05
Q 966.75 239.8 940.1 246.75 913.45 253.75 878.1 267 862.3 273.05 846.55 280.55 830.85 288.05 817.3 295.85 803.8 303.65 794.55 310.6 785.25 317.55 782.4 322.5
L 782.35 322.55
Q 784.1 323.8 785.65 324.9 787.15 326.05 788.1 326.7
L 789.05 326.7 804 315.55
Q 816.15 306.95 837.25 295.35 858.35 283.7 888 272.05 920.05 259.9 941.75 253.9 963.45 247.9 975.7 245.95 Z"/>
</g>
</defs>



<g transform="matrix( 1.90142822265625, 0, 0, 1.90142822265625, -845.05,-573.6) ">
<g transform="matrix( 1, 0, 0, 1, 0,0) ">
<use xlink:href="#Symbol_10_0_Layer0_0_FILL"/>
</g>
</g>

<g transform="matrix( -0.16583251953125, 0.018310546875, 0.018310546875, 0.16583251953125, 1193.35,392.8) ">
<g transform="matrix( 1, 0, 0, 1, 0,0) ">
<use xlink:href="#Symbol_46_0_Layer0_0_FILL"/>
</g>
</g>

<g transform="matrix( -0.16583251953125, 0.018310546875, 0.018310546875, 0.16583251953125, 1193.35,392.8) ">
<g transform="matrix( 1, 0, 0, 1, 0,0) ">
<use xlink:href="#Symbol_118_0_Layer0_0_FILL"/>
</g>
</g>

<g transform="matrix( -0.029693603515625, 0.1641693115234375, 0.1641693115234375, 0.029693603515625, 916.7,234.8) ">
<g transform="matrix( 1, 0, 0, 1, 0,0) ">
<use xlink:href="#Symbol_22_0_Layer0_0_FILL"/>
</g>
</g>

<g transform="matrix( 0.01995849609375, 0.1296234130859375, 0.1296234130859375, -0.01995849609375, 892.6,265.35) ">
<g transform="matrix( 1, 0, 0, 1, 0,0) ">
<use xlink:href="#Symbol_14_0_Layer0_0_FILL"/>
</g>
</g>

<g transform="matrix( 0.01995849609375, 0.1296234130859375, 0.1296234130859375, -0.01995849609375, 892.6,265.35) ">
<g transform="matrix( 1, 0, 0, 1, 0,0) ">
<use xlink:href="#Symbol_15_0_Layer0_0_FILL"/>
</g>
</g>

<g transform="matrix( -0.0854949951171875, 0.0948638916015625, 0.0948638916015625, 0.0854949951171875, 1012.35,266.25) ">
<g transform="matrix( 1, 0, 0, 1, 0,0) ">
<use xlink:href="#Symbol_16_0_Layer0_0_FILL"/>
</g>
</g>

<g transform="matrix( -0.1096954345703125, -0.12860107421875, -0.1392669677734375, 0.141510009765625, 1167.55,488.05) ">
<g transform="matrix( 1, 0, 0, 1, 0,0) ">
<use xlink:href="#Symbol_23_0_Layer0_0_FILL"/>
</g>
</g>

<g transform="matrix( -0.1710662841796875, -0.0727386474609375, -0.0727386474609375, 0.1710662841796875, 1191.15,416.8) ">
<g transform="matrix( 1, 0, 0, 1, 0,0) ">
<use xlink:href="#Symbol_24_0_Layer0_0_FILL"/>
</g>
</g>

<g transform="matrix( 0.01995849609375, 0.1296234130859375, 0.1296234130859375, -0.01995849609375, 892.6,265.35) ">
<g transform="matrix( 1, 0, 0, 1, 0,0) ">
<use xlink:href="#Symbol_119_0_Layer0_0_FILL"/>
</g>
</g>

<g transform="matrix( -0.091339111328125, 0.0941009521484375, 0.0941009521484375, 0.091339111328125, 1018.85,267.7) ">
<g transform="matrix( 1, 0, 0, 1, 0,0) ">
<use xlink:href="#Symbol_20_0_Layer0_0_FILL"/>
</g>
</g>

<g transform="matrix( 0.03216552734375, 0.1549224853515625, 0.1549224853515625, -0.03216552734375, 861.9,232.55) ">
<use xlink:href="#Layer0_11_FILL"/>
</g>

<g transform="matrix( 0.667572021484375, -0.001220703125, 0.001220703125, 0.667572021484375, 353.95,251.75) ">
<use xlink:href="#Layer0_12_FILL"/>
</g>

<g transform="matrix( 0.3646697998046875, -0.5591583251953125, 0.5591583251953125, 0.3646697998046875, 502.1,988.3) ">
<use xlink:href="#Layer0_13_FILL"/>
</g>

<g transform="matrix( 0.3646697998046875, -0.5591583251953125, 0.4850921630859375, 0.3163604736328125, 534.15,998.5) ">
<g transform="matrix( 1, 0, 0, 1, 0,0) ">
<use xlink:href="#Symbol_28_0_Layer0_0_FILL"/>
</g>
</g>

<g transform="matrix( 0.2259368896484375, -0.628173828125, 0.628173828125, 0.2259368896484375, 642.05,1110.55) ">
<g transform="matrix( 1, 0, 0, 1, 0,0) ">
<use xlink:href="#Symbol_29_0_Layer0_0_FILL"/>
</g>
</g>

<g transform="matrix( 0.2963104248046875, -0.5356903076171875, 0.5356903076171875, 0.2963104248046875, 562.55,990.05) ">
<use xlink:href="#Layer0_16_FILL"/>
</g>
</svg>
