
<svg xmlns="http://www.w3.org/2000/svg" version="1.1" xmlns:xlink="http://www.w3.org/1999/xlink" preserveAspectRatio="none" x="0px" y="0px" width="760px" height="880px" viewBox="614 10 760 880">
<defs>


<g id="Symbol_21_0_Layer0_0_FILL">
<path fill="#FFFFFF" stroke="none" d="
M 1131.55 490.6
Q 1119.35 482.3 1104.25 480.6 1089.2 478.95 1074.95 482.65 1060.7 486.3 1051.1 494 1041.45 501.7 1040.2 512.05 1040.65 525.3 1035.25 546.9 1029.8 568.5 1022.45 594.8 1015.15 621.15 1010 648.75 1004.85 676.35 1006 701.65 1012.75 715.85 1021 724.05 1029.3 732.25 1039 735.7 1048.7 739.15 1059.75 739.05 1070.95 738.95 1081.25 734.4 1091.55 729.9 1099.25 721.95 1106.95 714.05 1110.35 703.85
L 1120.95 665.15
Q 1128.6 635.25 1135.45 598.15 1142.3 561 1142.7 530.65 1143.15 500.25 1131.55 490.6 Z"/>
</g>

<g id="Symbol_10_0_Layer0_0_FILL">
<path fill="#0075c9" stroke="none" d="
M 1005.65 543.5
L 1001.25 543.5 1001.25 545.8
Q 999.95 544.35 998.5 543.65 997.05 542.95 995.4 542.95 993.5 542.95 991.9 543.7 990.3 544.45 989.05 545.9 987.8 547.35 987.15 549.2 986.55 551.05 986.55 553.25 986.55 555.5 987.15 557.35 987.8 559.2 989.05 560.7 990.35 562.2 991.95 562.9 993.55 563.65 995.5 563.65 997.05 563.65 998.5 563 999.95 562.35 1001.25 561.05
L 1001.25 563.1 1005.65 563.1 1005.65 543.5
M 1001.55 553.35
Q 1001.55 554.7 1001.15 555.85 1000.8 557 1000.05 557.9 999.3 558.75 998.35 559.15 997.35 559.6 996.15 559.6 995.05 559.6 994.1 559.15 993.15 558.7 992.4 557.8 991.7 556.95 991.35 555.8 990.95 554.65 990.95 553.25 990.95 551.9 991.35 550.8 991.7 549.7 992.45 548.8 993.2 547.95 994.15 547.5 995.1 547.05 996.2 547.05 997.4 547.05 998.35 547.5 999.3 547.9 1000.05 548.8 1000.8 549.7 1001.15 550.8 1001.55 551.95 1001.55 553.35
M 980.35 543.45
Q 979.9 543.7 979.35 544.15 978.85 544.6 978.25 545.25
L 978.25 543.5 973.9 543.5 973.9 563.1 978.25 563.1 978.25 552.95
Q 978.25 550.15 979.1 548.75 980 547.35 981.8 547.35 982.35 547.35 982.95 547.6 983.6 547.8 984.2 548.25
L 986.2 544.15
Q 985.25 543.55 984.35 543.25 983.45 542.95 982.6 542.95 981.95 542.95 981.4 543.1 980.85 543.2 980.35 543.45
M 1016.6 543.45
Q 1016.15 543.7 1015.65 544.15 1015.1 544.65 1014.45 545.3
L 1014.45 543.5 1010.15 543.5 1010.15 563.1 1014.45 563.1 1014.45 553
Q 1014.45 551.45 1014.7 550.3 1014.9 549.2 1015.3 548.45 1015.75 547.75 1016.4 547.4 1017.05 547.05 1018 547.05 1019.45 547.05 1020.15 548.35 1020.9 549.65 1020.9 552.25
L 1020.9 563.1 1025.25 563.1 1025.25 553
Q 1025.25 551.4 1025.45 550.3 1025.65 549.15 1026.05 548.45 1026.45 547.75 1027.1 547.4 1027.75 547.05 1028.65 547.05 1029.45 547.05 1030 547.35 1030.55 547.65 1030.9 548.25 1031.25 548.8 1031.4 549.8 1031.55 550.8 1031.55 552.2
L 1031.55 563.1 1035.9 563.1 1035.9 551
Q 1035.9 546.95 1034.35 544.95 1032.75 542.95 1029.55 542.95 1027.8 542.95 1026.45 543.7 1025.05 544.4 1024.05 545.85 1023.1 544.4 1021.85 543.7 1020.6 542.95 1019 542.95 1018.3 542.95 1017.7 543.1 1017.1 543.2 1016.6 543.45
M 920.15 543.5
Q 918.9 542.95 917.25 542.95 915.8 542.95 914.55 543.55 913.25 544.15 912.1 545.3
L 912.1 543.5 907.75 543.5 907.75 563.1 912.1 563.1 912.1 553.65
Q 912.1 551.8 912.35 550.55 912.55 549.25 913 548.55 913.45 547.8 914.25 547.4 915 547.05 916.05 547.05 917.05 547.05 917.75 547.35 918.45 547.6 918.8 548.15 919.2 548.7 919.4 549.7 919.6 550.7 919.6 552.15
L 919.6 563.1 923.95 563.1 923.95 551.1
Q 923.95 549 923.55 547.5 923.15 546.05 922.35 545.1 921.45 544.05 920.15 543.5
M 903.25 543.5
L 898.9 543.5 898.9 563.1 903.25 563.1 903.25 543.5
M 900 538.1
Q 900.5 538.35 901.1 538.35 901.65 538.35 902.15 538.1 902.65 537.9 903.05 537.45 903.5 537.05 903.7 536.5 903.9 536 903.9 535.4 903.9 534.75 903.7 534.25 903.5 533.75 903.05 533.3 902.65 532.9 902.15 532.65 901.65 532.45 901.05 532.45 900.5 532.45 900 532.65 899.5 532.9 899.05 533.3 898.65 533.75 898.45 534.25 898.25 534.75 898.25 535.35 898.25 536 898.45 536.5 898.65 537.05 899.05 537.45 899.5 537.9 900 538.1
M 941.45 543.7
Q 939.65 542.95 937.55 542.95 935.5 542.95 933.7 543.7 931.9 544.45 930.45 545.95 929 547.45 928.3 549.25 927.55 551.05 927.55 553.15 927.55 555.4 928.25 557.3 929 559.15 930.4 560.65 931.85 562.15 933.6 562.9 935.4 563.65 937.5 563.65 939.6 563.65 941.4 562.9 943.25 562.15 944.7 560.7 946.15 559.2 946.9 557.35 947.6 555.5 947.6 553.3 947.6 551.15 946.9 549.3 946.15 547.45 944.7 545.95 943.25 544.45 941.45 543.7
M 943.15 553.35
Q 943.15 554.75 942.8 555.9 942.4 557.05 941.65 557.9 940.9 558.75 939.85 559.2 938.85 559.6 937.55 559.6 936.3 559.6 935.3 559.15 934.25 558.75 933.5 557.9 932.75 557 932.35 555.85 932 554.7 932 553.25 932 551.85 932.4 550.75 932.75 549.65 933.55 548.8 934.3 547.9 935.3 547.45 936.35 547.05 937.55 547.05 938.85 547.05 939.85 547.45 940.85 547.9 941.65 548.8 942.4 549.65 942.8 550.75 943.15 551.9 943.15 553.35
M 962.4 543.65
Q 960.9 542.95 959.15 542.95 957.1 542.95 955.5 543.75 953.85 544.55 952.6 546.15 951.45 547.65 950.9 549.45 950.3 551.3 950.3 553.4 950.3 555.6 950.95 557.45 951.55 559.3 952.8 560.75 954 562.2 955.6 562.9 957.15 563.65 959.1 563.65 960.8 563.65 962.25 562.95 963.75 562.25 965.05 560.9
L 965.05 563.65
Q 965.05 566.65 963.85 568.2 962.65 569.7 960.3 569.7 959 569.7 958 569.25 957 568.8 956.35 567.85 956.05 567.5 955.85 566.9 955.65 566.35 955.5 565.65
L 951.15 565.65
Q 951.35 567.55 952.05 569.05 952.8 570.55 954.05 571.65 955.25 572.7 956.8 573.25 958.35 573.8 960.25 573.8 962.5 573.8 964.25 573 966 572.25 967.25 570.75 967.95 569.95 968.4 569 968.85 568.05 969.05 566.95 969.15 566.55 969.2 566.05 969.25 565.6 969.3 565.05 969.35 564.55 969.35 563.95 969.4 563.3 969.4 562.6
L 969.4 543.5 965.05 543.5 965.05 545.7
Q 963.85 544.35 962.4 543.65
M 965.2 553.35
Q 965.2 554.7 964.9 555.8 964.55 556.85 963.9 557.75 963.15 558.65 962.2 559.15 961.2 559.6 959.95 559.6 958.7 559.6 957.75 559.15 956.75 558.7 956.05 557.75 955.4 556.9 955.1 555.8 954.75 554.7 954.75 553.35 954.75 552 955.1 550.9 955.4 549.8 956.05 548.95 956.75 548 957.75 547.5 958.7 547.05 959.95 547.05 961.1 547.05 962.05 547.5 963 547.9 963.75 548.8 964.5 549.65 964.85 550.8 965.2 551.9 965.2 553.35
M 887.65 542.95
Q 886.25 542.95 885 543.5 883.7 544.05 882.55 545.15
L 882.55 534 878.2 534 878.2 563.1 882.55 563.1 882.55 553.6
Q 882.55 551.8 882.8 550.55 883 549.25 883.45 548.5 883.9 547.8 884.7 547.4 885.55 547.05 886.65 547.05 887.55 547.05 888.2 547.3 888.85 547.55 889.25 548.1 889.65 548.65 889.85 549.5 890.05 550.35 890.05 551.5
L 890.05 563.1 894.4 563.1 894.4 551.1
Q 894.4 549.05 894 547.55 893.6 546.05 892.75 545.1 891.8 544.05 890.55 543.5 889.25 542.95 887.65 542.95
M 868.15 543.5
L 863.8 543.5 863.8 563.1 868.15 563.1 868.15 552.95
Q 868.15 550.15 869.05 548.75 869.95 547.35 871.7 547.35 872.3 547.35 872.9 547.6 873.5 547.8 874.15 548.25
L 876.1 544.15
Q 875.2 543.55 874.3 543.25 873.4 542.95 872.5 542.95 871.85 542.95 871.3 543.1 870.75 543.2 870.3 543.45 869.8 543.7 869.3 544.15 868.75 544.6 868.15 545.25
L 868.15 543.5 Z"/>
</g>

<g id="Layer0_2_FILL">
<path fill="#FFFFFF" stroke="none" d="
M 853.7 718.3
L 854.7 727.3
Q 855.6 736.1 856.5 750.7 857.35 765.3 857.3 783.05 857.25 800.8 855.35 819 853.55 834.7 850.15 848.85 846.75 863 843.1 874.05 839.45 885.1 836.9 891.5
L 834.3 898 838.35 900.1 844.2 902.05 861.3 905.7
Q 882 909.15 907.7 910.05 933.4 910.95 954.65 907.5 975.95 904.1 983.35 894.6 990.65 883.95 998.9 868.75 1007.1 853.55 1015.7 833.5 1022.15 817.8 1023.9 802.15 1025.6 786.55 1024.95 773 1024.35 759.45 1023.75 749.95 1023.15 740.45 1024.95 736.9 1006.45 732.35 979.4 730.15 952.3 727.9 924.8 726.6 897.3 725.3 877.5 723.6
L 861.65 721.4 856.65 719.95 853.7 718.3 Z"/>
</g>

<g id="Symbol_25_0_Layer0_0_FILL">
<path fill="#0075c9" stroke="none" d="
M 943.35 838.65
Q 942.15 836.05 941.4 832.95 940.6 829.9 939.6 827.1
L 939.2 826.4 938.9 826.25
Q 938.6 826.4 938.45 827.1 938.3 827.8 938.3 828.5 938.5 831.6 939.5 835.45 940.5 839.25 942.25 842.4 943.95 845.55 946.3 846.7 950.3 848.25 953.15 845.6 956 842.95 957.6 838.15 959.2 833.4 959.35 828.65 959.35 827.95 959.35 826.95 959.3 825.95 959.1 825.15 958.85 824.4 958.4 824.45 958.25 824.75 958.1 825.1
L 957.95 825.6
Q 957.35 827.6 957.1 829.8 956.8 831.95 956.3 834.1 955.15 838.55 953 841.25 950.85 843.95 948.25 843.6 945.7 843.25 943.35 838.65 Z"/>
</g>

<g id="Layer0_4_FILL">
<path fill="#0075c9" stroke="none" d="
M 1025.45 481.1
L 1024.85 480.3
Q 1024.35 479.65 1023.8 479.35 1023.75 478.85 1023.25 478.7 1022.75 478.6 1022.35 478.8 1022.05 479.75 1022.4 480.7 1022.7 481.7 1023.15 482.5 1023.65 483.25 1023.8 483.55 1029.55 493.45 1035.7 502.85 1041.85 512.3 1047.7 522 1053.5 531.75 1058.25 542.45 1063.6 554.5 1067.8 565.05 1072 575.6 1074.65 586.55 1077.25 597.55 1077.95 610.85 1078.1 613.35 1078.15 615.9 1078.2 618.4 1078.2 620.95 1078.45 626.8 1078.5 632.75 1078.55 638.75 1078.45 644.75 1078.3 651.5 1077.9 658.25 1077.45 664.95 1076.75 671.6 1076.4 674.85 1075.95 678.05 1075.5 681.3 1075 684.45 1076.15 682.55 1077.15 680.35 1078.15 678.2 1079 675.45 1080.9 669.4 1082.1 663.15 1083.3 656.9 1083.9 650.6 1086.35 638.15 1086.55 624.55 1086.8 610.9 1085.2 598.15 1083.6 585.45 1080.6 575.65 1077.8 566.75 1073.9 557.65 1069.95 548.55 1065.45 539.7 1061 530.8 1056.5 522.65 1053.15 516.4 1048.3 509.1 1043.5 501.85 1038.15 495 1032.8 488.2 1027.8 483.2 1027.2 482.65 1026.6 482.15 1026 481.65 1025.45 481.1
M 768.7 680.1
Q 768.45 679.75 768.2 679.45 767.85 679.05 767.4 679.3 766.95 679.5 766.8 680.1 766.7 680.9 767.2 681.3 767.75 681.7 768.3 681.55 768.85 681.45 768.95 680.65 768.9 680.45 768.7 680.1 Z"/>

<path fill="#FFFFFF" stroke="none" d="
M 788.6 365.35
Q 783.6 374.15 779.6 380.95 775.6 387.8 770.25 394.4 766.1 399.65 761.1 408.35 756.15 417.05 750.75 427.15 745.4 437.2 739.9 446.6 734.45 455.95 729.2 462.45 724.45 469.1 729.9 483.75 735.3 498.35 745.8 517.65 756.3 536.9 766.75 557.45 777.15 578 782.4 596.45 781.55 601.5 777.9 609.25 774.3 617.05 769.5 626.6 764.7 636.15 760.35 646.5 756 656.85 753.75 667.05 751.85 674.4 744.2 683.55 736.6 692.7 727.4 703.8 718.15 714.9 711.45 728.2 704.7 741.55 704.5 757.25 705.25 772.85 717.85 782.05 730.45 791.3 748.15 795.95 765.85 800.65 781.9 802.45 797.95 804.25 805.55 804.95 819.45 806.65 837.9 809.2 856.3 811.75 880.05 815 903.75 818.2 933.45 821.95 956.3 824.45 975.75 816.7 995.25 809 1011.25 794.6 1027.3 780.25 1039.7 762.9 1052.15 745.6 1060.95 729 1066.05 719.4 1069.5 708.1 1072.95 696.8 1075 684.45 1075.5 681.3 1075.95 678.05 1076.4 674.85 1076.75 671.6 1077.45 664.95 1077.9 658.25 1078.3 651.5 1078.45 644.75 1078.55 638.75 1078.5 632.75 1078.45 626.8 1078.2 620.95 1078.05 617.15 1077.85 613.4 1077.65 609.7 1077.35 606.05 1074.95 580.6 1062.85 553.8 1050.7 527 1035.5 503.85 1020.3 480.65 1008.6 466
L 995.45 450.2 969.45 425.75
Q 945.1 403.25 911.15 377.2 877.15 351.1 846.6 338.55 816.05 326 801.9 344.05 793.65 356.55 788.6 365.35
M 768.2 679.45
Q 768.45 679.75 768.7 680.1 768.9 680.45 768.95 680.65 768.85 681.45 768.3 681.55 767.75 681.7 767.2 681.3 766.7 680.9 766.8 680.1 766.95 679.5 767.4 679.3 767.85 679.05 768.2 679.45 Z"/>
</g>

<g id="Symbol_35_0_Layer0_0_FILL">
<path fill="#0075c9" stroke="none" d="
M 952.1 449.05
L 953.15 449.3
Q 958.4 451.3 963.85 453 969.25 454.7 974.6 456.45 978 457.55 981.6 458.55 985.15 459.55 988.65 460.6 998.95 463.7 1009.6 465.25 1020.25 466.8 1031.05 467.75 1035.2 468.15 1039.85 468.2 1044.5 468.25 1048.7 468.2 1057.55 468 1066.95 466.9 1076.3 465.85 1085 464.25 1094.25 462.6 1102.55 460.15 1110.85 457.65 1119.2 453.5 1120.5 452.9 1121.8 452.4 1123.1 451.85 1124.4 451.25 1124.6 451.15 1125 451 1125.35 450.8 1125.35 450.45 1124.55 450.2 1123.5 450.5 1122.4 450.75 1122 450.9 1118.45 451.8 1114.9 452.65 1111.35 453.55 1107.75 454.35 1093 460.2 1075.3 463.1 1057.6 465.95 1034.8 464.6 1012 463.3 982 456.45 975.6 454.95 967.4 452.75 959.25 450.55 949.55 447.55 949.8 447.85 950.1 448.1 950.4 448.35 950.65 448.5 951.3 448.85 952.1 449.05 Z"/>

<path fill="#FFFFFF" stroke="none" d="
M 1063.95 246.95
Q 1063.95 243.75 1062.1 241.65 1060.25 239.55 1057.45 239.1 1054.6 238.6 1051.75 240.25 1047.1 243.25 1041.15 247.05 1035.25 250.8 1027.2 253.6 1019.2 256.4 1008.2 256.4 998.4 256.1 990.4 251.55 982.45 247 975.75 240.45 969.05 233.9 962.95 227.6 956.85 221.3 950.75 217.5
L 946.05 215.3 938.2 212.65
Q 928.75 209.8 914.65 209.15 900.6 208.55 883.6 213.2 863.1 219.4 850.1 226.55 837.05 233.7 830.4 239.6
L 825.1 244.65 822.4 248
Q 815.75 258.8 809.4 274.95 803.05 291.1 797.85 307.35 792.65 323.55 789.55 334.55
L 786.4 346 789.6 351.75
Q 792.6 357 799.85 365.75 807.15 374.45 820.3 385.2 833.45 395.9 854.05 407.2 872.05 416.9 889 424.5 905.95 432.1 921.25 437.8 936.5 443.5 949.55 447.55 959.25 450.55 967.4 452.75 975.6 454.95 982 456.45 1012 463.3 1034.8 464.6 1057.6 465.95 1075.3 463.1 1093 460.2 1107.75 454.35 1111.7 452.8 1115.55 451.1 1119.4 449.4 1123.2 447.6 1139.45 439.6 1152.6 425 1165.7 410.35 1175.3 391.3 1184.85 372.2 1190.4 350.9 1195.9 329.6 1196.9 308.3 1198.3 274.4 1196.75 253.95 1195.25 233.45 1192.95 223.55
L 1189.7 211.5
Q 1188.65 208.75 1186.25 207.35 1183.85 206 1181.1 206.55 1178.3 207.05 1176.15 209.95 1174.4 212.7 1170.5 220.15 1166.7 227.6 1159.6 239.15 1152.55 250.7 1141.2 265.7 1133.9 275.25 1124 282.85 1114.1 290.5 1102.9 294 1091.75 297.5 1080.55 294.8 1073.3 292.65 1069.7 286.1 1066.05 279.6 1064.9 271.5 1063.7 263.45 1063.75 256.6 1063.8 249.75 1063.95 246.95 Z"/>
</g>

<g id="Symbol_28_0_Layer0_0_FILL">
<path fill="#0075c9" stroke="none" d="
M 1017.45 346.15
Q 1018.85 343.35 1019.4 339.95 1019.9 336.55 1019.4 333.5 1018.95 330.45 1017.65 328.05 1016.3 325.6 1014.3 324.05 1012.3 322.55 1009.75 322.2 1007.25 321.9 1004.85 322.9 1002.45 323.85 1000.45 325.9 998.4 327.9 997 330.7 995.65 333.55 995.1 336.9 994.55 340.3 995.05 343.35 995.55 346.4 996.85 348.85 998.15 351.3 1000.15 352.8 1002.2 354.35 1004.7 354.65 1007.25 354.95 1009.65 354 1012 353 1014.05 351 1016.05 349 1017.45 346.15 Z"/>
</g>

<g id="Symbol_29_0_Layer0_0_FILL">
<path fill="#0075c9" stroke="none" d="
M 1030.1 321.85
Q 1021.85 320.25 1013.45 318.7 1005.05 317.2 997.2 315.9 996.25 316.35 996.65 317.05 997.05 317.75 998.8 318.2 1005.4 319.7 1012.25 320.7 1019.1 321.75 1025.8 322.95 1026.4 323.05 1027.6 323.05 1028.8 323.05 1029.65 322.8 1030.5 322.55 1030.1 321.85 Z"/>

<path fill="#FFFFFF" stroke="none" d="
M 1003.4 280.35
Q 996.4 283.45 991.75 289.2 987.1 295 984.25 301.55 981.4 308.05 979.7 313.45 983.55 313.9 988 314.5 992.4 315.15 997.2 315.9 1005.05 317.2 1013.45 318.7 1021.85 320.25 1030.1 321.85 1034 322.6 1037.8 323.35 1041.6 324.1 1045.15 324.8 1046.1 318.35 1045.95 311.15 1045.8 303.9 1043.5 297.2 1041.15 290.45 1035.6 285.55 1030.1 280.6 1020.3 278.8 1010.35 277.3 1003.4 280.35 Z"/>
</g>

<g id="Symbol_30_0_Layer0_0_FILL">
<path fill="#0075c9" stroke="none" d="
M 829.15 132.95
L 827.9 133
Q 818.8 134.15 809.85 139.5 800.9 144.8 793.1 152.1 785.3 159.4 779.75 166.3 775.65 171.4 773.2 176.3 770.8 181.15 769.2 186.3 767.95 189.45 766.95 192.9 765.95 196.4 765.2 200.1
L 764.75 201.5
Q 764.55 202.25 764.6 202.95 763.45 209.2 762.8 215.35 762.1 221.5 761.8 227 761.2 237.2 762.25 247.6 763.25 258 765.4 268.35 767.5 278.7 770.15 288.65
L 770.7 290.25
Q 771.15 291.45 771.8 292.8 770.45 297.35 769.5 301.4 768.6 305.4 768.1 309.55 767.6 313.65 767.45 318.45 767.35 319.6 767.2 320.8 767.05 322 767.2 323.15 767.2 323.3 767.25 323.7 767.3 324.1 767.65 324.3 768.5 325.7 770.15 327 771.8 328.3 773.35 329.3 774.9 330.3 775.6 330.7 778.5 332.65 782 332.8 785.55 333 789.25 332.1 789.45 331.5 789.7 331 789.95 330.5 790.35 330.1 790.4 330 790.5 329.9 790.6 329.8 790.65 329.7 789.05 330.05 787.45 330.2 785.85 330.4 784.35 330.45 783.4 330.5 782.4 330.35 781.4 330.2 780.45 329.95
L 780 330 779.45 329.6
Q 776.75 328.55 774.4 326.75 772.05 325 770.25 322.9
L 769.7 322.5 769.65 322.15
Q 769.55 322.05 769.45 321.95 769.35 321.8 769.2 321.7 769.3 321.25 769.35 320.8 769.45 320.4 769.45 320 769.25 317.25 770.05 311.05 770.8 304.85 773.65 294.85 773.85 294.3 774 293.7 774.2 293.1 774.4 292.5
L 774.25 291.6
Q 774.05 290.9 773.8 289.7 772.8 285.55 771.05 277.9 769.3 270.25 767.65 261.75 766.05 253.25 765.45 246.55 765.1 242.8 764.7 235.65 764.35 228.45 765.05 218.95 765.8 209.45 768.7 198.75 769.3 196.75 769.95 194.75 770.6 192.75 771.4 190.7 774.35 182.9 779.15 175.2 783.95 167.5 791 160.3 798.1 153.1 807.85 146.85 811.4 144.2 814.9 142.15 818.4 140.1 821.75 138.8 822.5 138.5 823.45 138.2 824.45 137.95 825.5 137.6 826.6 137.15 827.75 136.7 828.9 136.2 830.1 135.75 830.85 135.25 831.05 134.65 831.25 134 830.75 133.25 830.05 132.9 829.15 132.95
M 993.1 245.5
L 992.95 245.4
Q 992.8 245.5 992.65 245.6 992.45 245.7 992.3 245.8
L 992 246.05 993.1 245.5
M 988.5 220.1
Q 983.3 209.2 977.05 198.4 970.8 187.55 964.75 177 961.55 171.25 957.15 164.8 952.8 158.35 947.45 152.15 942.15 145.95 936.2 141 935.7 140 934.55 138.9 933.4 137.85 932.25 137 931.1 136.15 930.55 135.8 922.6 130.4 913.05 127.05 903.5 123.75 893.45 122.3 883.4 120.9 873.9 121.15
L 872.85 121.15
Q 872.05 121.15 871.45 121.4 871.05 121.35 870.55 121.45
L 869.95 121.5
Q 869.4 121.6 868.85 121.75 868.3 121.85 867.75 121.95
L 864.2 123.2
Q 861.45 124.25 859.8 125.55 858.1 126.85 860.5 127.8 875.15 125.8 887.15 127.05 899.15 128.35 908.65 131.8 918.15 135.3 925.25 139.8 925.9 140.05 926.55 140.35 927.2 140.6 927.85 140.85 928.25 141.3 928.7 141.75 929.1 142.2 929.55 142.65 935.4 146.9 939.35 150.8 943.3 154.75 945.45 157.5 948.55 161.35 954 169.65 959.5 177.95 965.8 187.95 972.1 197.9 977.65 206.9 983.2 215.9 986.4 221.15 987.7 223.2 988.35 224.35
L 989.05 225.45 1004.05 232.5 1004.25 232.75 1004.6 233.5
Q 1005.1 234.45 1005.4 236.05 1005.65 237.65 1005 239.55 1004.4 241 1002.7 242.3 1001.05 243.65 999.15 244.65 997.2 245.65 995.9 246.25 996.1 246.55 996.25 246.95 996.35 247.3 996.45 247.75 997.05 247.65 997.7 247.65 998.3 247.65 998.95 247.75 1002.15 246.4 1004.8 244.75 1007.45 243.1 1008.45 241.5 1011.25 236.2 1007.95 232.35 1004.6 228.45 999 225.95 993.35 223.45 989.3 222.15 989.15 221.7 988.95 221.15 988.75 220.65 988.5 220.1 Z"/>

<path fill="#0075c9" stroke="none" d="
M 975.7 245.95
L 991.5 244 993.45 242.6
Q 994.8 241.6 996.1 240.45 997.35 239.35 997.5 238.7
L 996.3 237.75 993.3 237.35 981.85 238.05
Q 966.75 239.8 940.1 246.75 913.45 253.75 878.1 267 862.3 273.05 846.55 280.55 830.85 288.05 817.3 295.85 803.8 303.65 794.55 310.6 785.25 317.55 782.4 322.5
L 782.35 322.55
Q 784.1 323.8 785.65 324.9 787.15 326.05 788.1 326.7
L 789.05 326.7 804 315.55
Q 816.15 306.95 837.25 295.35 858.35 283.7 888 272.05 920.05 259.9 941.75 253.9 963.45 247.9 975.7 245.95 Z"/>

<path fill="#FFFFFF" stroke="none" d="
M 986.4 221.15
Q 983.2 215.9 977.65 206.9 972.1 197.9 965.8 187.95 959.5 177.95 954 169.65 948.55 161.35 945.45 157.5 943.3 154.75 939.35 150.8 935.4 146.9 929.55 142.65 928.55 141.95 927.45 141.2 926.4 140.5 925.25 139.8 918.15 135.3 908.65 131.8 899.15 128.35 887.15 127.05 875.15 125.8 860.5 127.8 854.25 128.7 847.5 130.35 840.7 132.05 833.45 134.55 832.6 134.85 831.75 135.15 830.9 135.45 830.1 135.75 828.9 136.2 827.75 136.7 826.6 137.15 825.5 137.6 820.6 139.7 816.2 142 811.8 144.35 807.85 146.85 798.1 153.1 791 160.3 783.95 167.5 779.15 175.2 774.35 182.9 771.4 190.7 770.6 192.75 769.95 194.75 769.3 196.75 768.7 198.75 765.8 209.45 765.05 218.95 764.35 228.45 764.7 235.65 765.1 242.8 765.45 246.55 766.05 253.25 767.65 261.75 769.3 270.25 771.05 277.9 772.8 285.55 773.8 289.7 774.05 290.9 774.25 291.6
L 774.4 292.5
Q 774.2 293.1 774 293.7 773.85 294.3 773.65 294.85 770.8 304.85 770.05 311.05 769.25 317.25 769.45 320 769.5 320.85 769.55 321.4 769.6 321.95 769.65 322.15
L 769.7 322.5 770.25 322.9 779.45 329.6 780 330 780.45 329.95 789 328.7 790.8 326.7 789.05 326.7 788.1 326.7 786.6 326.7 785.2 326.35
Q 783.9 326 782.85 325.1 781.8 324.2 782.35 322.55
L 782.4 322.5
Q 785.25 317.55 794.55 310.6 803.8 303.65 817.3 295.85 830.85 288.05 846.55 280.55 862.3 273.05 878.1 267 913.45 253.75 940.1 246.75 966.75 239.8 981.85 238.05
L 993.3 237.35 996.3 237.75 997.5 238.7
Q 997.35 239.35 996.1 240.45 994.8 241.6 993.45 242.6
L 991.5 244 991.3 244.15 992.95 245.4 993.1 245.5 994.7 246.75 995 246.6
Q 995.35 246.5 995.9 246.25 997.2 245.65 999.15 244.65 1001.05 243.65 1002.7 242.3 1004.4 241 1005 239.55 1005.65 237.65 1005.4 236.05 1005.1 234.45 1004.6 233.5
L 1004.25 232.75 1004.05 232.5 989.05 225.45 988.35 224.35
Q 987.7 223.2 986.4 221.15 Z"/>
</g>

<g id="Layer0_9_FILL">
<path fill="#0075c9" stroke="none" d="
M 611.6 824.65
L 613.35 824.8
Q 617.5 825.65 621.45 826.65 625.35 827.7 629.7 828.25 646.45 829.95 663.1 829.2 679.7 828.5 696.3 827 712.95 825.55 729.8 825.1 732.05 825.05 735.5 825.15 739 825.25 742.8 825.2 746.6 825.2 749.85 824.8 753.1 830.25 753.8 836.45 754.5 842.7 754.1 849.15 753.65 855.6 753.55 861.75 753.55 868.7 753.15 875.25 752.75 881.8 752.15 888.85 751.55 897.95 755.05 902.8 758.55 907.7 764.75 910.3 770.9 912.9 778.2 915.2
L 781.75 916.45
Q 782.4 916.55 782.15 914.75 781.25 914.05 780.1 913.35
L 778.6 912.45
Q 774.15 909.9 769.2 907.3 764.2 904.65 760.15 901.65 757.05 899.05 756.55 893.55 756 888.05 756.65 881.85 757.25 875.65 757.6 871.05 757.5 863.55 757.3 855.85 757.1 848.15 756.8 841.45 756.45 834.8 755.95 830.35 755.4 828.65 754.75 827.05 754.05 825.45 753.25 824.1 753.4 824.05 753.5 824 753.65 823.95 753.75 823.9 753.35 823.3 752.85 822.5 752.3 821.75 751.65 820.8 751.3 820.8 751.05 820.75 750.8 820.75 750.7 820.75 750.55 820.75 750.35 820.75 750.2 820.75 750.05 820.75 749.8 820.6 749.6 820.5 749.35 820.4 749.1 820.3 748.5 820.15 748 820.1 747.5 820.1 747.5 820.65
L 747.5 820.85
Q 743.7 821.05 739.9 821.25 736.15 821.5 732.25 821.45 721.55 821.25 710.55 822.05 699.55 822.9 688.5 823.95 677.5 825 666.7 825.55 653.95 826.2 641.3 825.7 628.6 825.2 616.1 823 615.15 822.8 613.75 822.65 612.3 822.5 611.05 822.75 609.8 823 609.35 824.05 610.3 824.6 611.6 824.65
M 862.5 721.25
Q 862.85 722.35 863.35 723.3
L 864 724.35
Q 866.35 729.75 869.15 734.9 871.95 740 874.7 745.25 877.45 750.15 880.2 755.85 882.95 761.55 885.55 767.6 885.85 768.35 886.15 769.05 886.45 769.8 886.75 770.55 889.15 776.25 891.3 781.9 893.45 787.55 895.3 792.85 896 793.85 896.75 793.75
L 897.45 793.2 898.1 791.8 898.15 791.1
Q 898.2 790.55 898.1 790.15 897.8 789.1 897.35 787.85
L 896.8 786.25
Q 895.4 782.55 893.8 779.05 892.2 775.55 890.6 772.05 890.55 771.5 890.35 770.9 890.2 770.3 889.8 769.65 889.55 769.1 889.25 768.55
L 888.7 767.5
Q 888.5 766.9 888.25 766.3 888.05 765.75 887.85 765.15 887.05 762.85 885.5 759 884 755.1 882.1 751.25 880.2 747.35 878.35 744.95 876.45 740.9 874.35 736.9 872.2 732.9 869.65 729 868.95 727.9 867.95 726.05 867 724.2 865.95 722.45 864.95 720.7 864.2 719.9 863.95 719.65 863.5 719.5 863.05 719.3 862.65 719.5 862.2 720.15 862.5 721.25 Z"/>

<path fill="#FFFFFF" stroke="none" d="
M 775.35 760.1
Q 743.3 774.4 723.85 786.6 704.4 798.85 714.35 800.3 724.9 801.2 732.3 804.7 739.7 808.25 744.45 812.7 749.15 817.2 751.65 820.8 752.3 821.75 752.85 822.5 753.35 823.3 753.75 823.9 754.3 824.75 754.65 825.25
L 755.1 825.7
Q 755.35 826.45 755.55 827.6 755.75 828.8 755.95 830.35 756.45 834.8 756.8 841.45 757.1 848.15 757.3 855.85 757.5 863.55 757.6 871.05 757.7 878.4 757.75 884.45 757.8 890.5 757.8 894.15
L 757.8 897.9
Q 761.75 905.15 778.45 908.7 795.15 912.25 816.35 912.15 837.6 912 855.15 908.2 872.75 904.4 878.45 896.95
L 882.15 886.05
Q 885.6 875.65 890.2 861.45 894.75 847.25 898.3 835.2
L 901.05 825.25 902.15 819.35
Q 902.25 817.55 901.45 813.7 900.6 809.85 899.05 804.5 897.45 799.2 895.3 792.85 893.45 787.55 891.3 781.9 889.15 776.25 886.75 770.55 886.45 769.8 886.15 769.05 885.85 768.35 885.55 767.6 882.95 761.55 880.2 755.85 877.45 750.15 874.7 745.25 873.55 743.2 872.4 741.35 871.25 739.45 870.15 737.8
L 865.35 735 857.95 734.15 847.9 735.15 835.3 738.05
Q 807.4 745.8 775.35 760.1 Z"/>
</g>

<g id="Symbol_27_0_Layer0_0_FILL">
<path fill="#0075c9" stroke="none" d="
M 943.65 840.8
Q 942.6 838.75 942.2 837.35 941.45 834.6 941.05 831.85 940.7 829.05 940.15 826.35
L 939.65 824.85 939.1 824.45
Q 938.5 824.55 938.05 825.8 937.65 827 937.65 828.25 937.8 831.4 938.75 835.75 939.7 840.1 941.85 843.7 943.95 847.3 947.65 848.15 951.1 848.6 953.45 845.55 955.8 842.55 957.1 838.5 958.4 834.45 958.75 831.75 958.9 830.75 958.95 828.85 959 826.95 958.7 825.25 958.4 823.5 957.45 822.95
L 957.25 822.9
Q 957.1 822.9 957.05 822.95 956.7 823.3 956.6 823.8
L 956.45 824.5
Q 956.2 826.4 956.15 828.4 956.15 830.4 955.8 832.35 955.5 834.05 954.65 836.85 953.8 839.65 952.5 842.15 951.2 844.6 949.5 845.25 947.75 845.7 946.2 844.3 944.7 842.85 943.65 840.8 Z"/>
</g>

<g id="Symbol_46_0_Layer0_0_FILL">
<path fill="#82bc00" stroke="none" d="
M 957.25 636.4
L 900.4 636.15 928.35 847.5 957.25 636.4 Z"/>
</g>

<g id="Symbol_118_0_Layer0_0_FILL">
<path fill="#82bc00" stroke="none" d="
M 1015.35 632
L 973.55 634.3 989 819.4 1015.35 632 Z"/>
</g>

<g id="Symbol_48_0_Layer0_0_FILL">
<path fill="#0075c9" stroke="none" d="
M 826.75 19.9
L 827.1 20.3
Q 829.3 21.95 830.85 23.6
L 832.55 25.4
Q 859.85 53 878.75 89.15 897.7 125.35 910.4 162.4 919.25 188.25 919.65 219.35 920.05 250.45 913.75 281.1 907.45 311.75 896.1 336.2 894.4 339.9 891.65 345.45 888.85 351 885.55 356.65 882.95 361 880.3 364.4 877.7 367.85 875.2 369.5 874.6 369.9 874 370.2 873.45 370.55 872.9 370.75 872.35 371 871.9 371.15 871.4 371.35 870.95 371.4 870.7 371.7 870.45 371.9 870.2 372.15 869.95 372.3
L 869.6 372.65
Q 869.3 372.9 869.1 373.2 868.85 372.8 868.5 372.15 868.2 371.5 867.95 370.85 867.8 370.75 867.7 370.65 867.6 370.6 867.5 370.45 866.65 369.55 866.15 367.95 865.65 366.4 865.45 364.35 865.45 364.2 865.4 364.1 865.4 363.95 865.4 363.8 865.25 363.4 865.15 363.05 865.05 362.65 864.9 362.25 863.45 355.8 862.7 349.55 861.9 343.3 861.6 339.6 861.45 338.6 861.35 337.65 861.25 336.7 861.1 335.75 858.8 325.45 855.6 315.35 852.35 305.25 848.45 294.75 847.7 293.9 846.75 293.8 845.8 293.7 844.6 294.65
L 844.05 295.6
Q 843.7 296.3 843.4 296.9 842.1 294.95 840.95 293.65 839.75 292.35 838.9 292.05 838.35 291.9 838.1 292.1 837.9 292.3 838.05 292.8 838.35 293.55 838.95 294.25
L 839.75 295.2
Q 844.7 302.95 847.95 313.45 851.25 323.9 852.9 332.85 854.05 339.4 855.4 348.2 856.75 356.95 858.9 365.35 861.05 373.75 864.75 379.15 865.75 380.5 866.7 381.1 867.7 381.7 868.7 381.65 868.75 382.3 869 382.85 869.3 383.4 869.8 383.8 871.85 384.9 874.65 382 877.45 379.1 879.85 375.35 882.25 371.55 883.1 370.05 909.6 327.95 919.95 280.85 930.3 233.8 921.15 184.7 915.8 156.7 905.2 129.45 894.6 102.25 878.3 78.2 871.05 67.4 864.1 56.15 857.15 44.95 849.8 34.3 845.65 28.5 840.25 23.8 834.9 19.1 828.75 15.3 826.8 14 825.85 14.05 824.9 14.1 824.65 15.7 824.8 16.8 825.45 17.95 826.1 19.1 826.45 19.5 826.6 19.7 826.75 19.9 Z"/>

<path fill="#82bc00" stroke="none" d="
M 819.95 20.15
Q 819.6 20.7 819.5 21.25 818.25 21.3 816.85 22.35 815.4 23.35 814 25.55 812.85 27.35 811.7 29.2 810.5 31 809.4 32.85
L 808.95 33.55
Q 808.6 34.1 808.65 34.6 808 35.6 807.25 36.75
L 806.35 38.25
Q 794.5 57.55 785.85 77.85 777.2 98.1 769.25 118.75 767.85 122.4 766.75 126.05 765.65 129.65 764 133.1 761.25 130.6 758.4 128.55 755.5 126.55 754.15 126.95 753.95 127.05 753.65 127.3 753.35 127.55 753.35 127.85 753.45 129.15 754.85 130.2 756.2 131.3 756.85 131.75 758.1 132.9 759.35 134.15 760.6 135.4 761.85 136.8 761.75 136.95 761.65 137.1 761.55 137.2 761.45 137.35
L 760.75 138.05
Q 760.2 138.55 760.15 139.2 761.1 139.4 761.95 139.35 762.85 139.25 763.65 138.9 768.55 144.8 773.05 151.4 777.6 157.95 781.45 163.65 802.25 194.25 818.65 226.55 835.05 258.8 848.1 293.85
L 848.45 294.75
Q 852.35 305.25 855.6 315.35 858.8 325.45 861.1 335.75 862.6 342.4 863.65 349.25 864.75 356.1 865.35 363.4
L 865.4 363.8
Q 865.4 363.95 865.4 364.1 865.45 364.2 865.45 364.35 865.65 366.4 866.15 367.95 866.65 369.55 867.5 370.45 867.6 370.6 867.7 370.65 867.8 370.75 867.95 370.85 868.5 371.3 869.25 371.45 870 371.6 870.95 371.4 871.4 371.35 871.9 371.15 872.35 371 872.9 370.75 873.45 370.55 874 370.2 874.6 369.9 875.2 369.5 877.7 367.85 880.3 364.4 882.95 361 885.55 356.65 888.85 351 891.65 345.45 894.4 339.9 896.1 336.2 907.45 311.75 913.75 281.1 920.05 250.45 919.65 219.35 919.25 188.25 910.4 162.4 897.7 125.35 878.75 89.15 859.85 53 832.55 25.4
L 830.85 23.6
Q 829.3 21.95 827.1 20.3 825.45 19.1 823.8 18.65 822.15 18.15 820.9 19.05 820.3 19.6 819.95 20.15 Z"/>
</g>

<g id="Layer0_14_FILL">
<path fill="#82bc00" stroke="none" d="
M 1031.3 268.85
Q 1028.65 247.1 1017.1 232.6 1005.55 218.1 984.95 216.6 972.05 216.2 961.7 222.8 951.35 229.35 943.55 239.5 935.75 249.65 930.4 260.1 924.85 271.55 918.35 296.25 911.85 320.95 906.9 343.3
L 901.05 370 904 374.35 913.2 379.15
Q 925.45 384.25 940.8 388.15 956.1 392 965.2 392.5 974.05 393.55 987.9 401.7 1001.75 409.9 1013.85 415.9 1025.95 421.95 1029.7 416.55
L 1030.9 392.85
Q 1031.65 373.9 1032.2 349.1 1032.75 324.3 1032.65 302.15 1032.55 280 1031.3 268.85 Z"/>
</g>

<g id="Symbol_39_0_Layer0_0_FILL">
<path fill="#82bc00" stroke="none" d="
M 1051.9 298
Q 1043.95 305.65 1042.2 316.25 1040.45 326.85 1044.65 335.9 1048.9 344.9 1058.95 347.7 1063.6 345.65 1073.55 338.2 1083.5 330.75 1091.75 319.05
L 1090 317.5 1085.15 314.1
Q 1078.8 309.75 1069.65 304.9 1060.45 300.05 1051.9 298 Z"/>
</g>

<g id="Symbol_23_0_Layer0_0_FILL">
<path fill="#82bc00" stroke="none" d="
M 793 728.5
L 804.5 735.2
Q 815.8 741.55 835.15 750 854.5 758.4 879 765
L 889.25 742.3
Q 898.45 720.9 910.3 692.8 922.15 664.75 931.1 643.45
L 940.5 621 915.1 609.95 793 728.5 Z"/>
</g>

<g id="Symbol_57_0_Layer0_0_FILL">
<path fill="#82bc00" stroke="none" d="
M 1045.1 289.1
Q 1017.8 286.95 992.85 286.7 967.9 286.45 958.25 292.05 959.8 312.85 958.4 354 956.95 395.15 954.9 443.45 952.85 491.75 952.45 534.1 951.7 571.35 945.15 594.85 938.6 618.3 933.7 631.6 928.75 644.85 932.85 651.45
L 941 657.25 948.15 659.6 957.35 661.55
Q 986.15 666.35 1016.6 642.9 1047.05 619.4 1072.55 570.25 1079.4 557.15 1088.75 535.4 1098.15 513.7 1106.5 486.4 1114.85 459.1 1118.55 429.3 1121.7 402.3 1119.8 376.55 1117.9 350.75 1110.4 328.75 1102.9 306.75 1089.15 291.15 1072.4 291.2 1045.1 289.1 Z"/>
</g>

<g id="Symbol_117_0_Layer0_0_FILL">
<path fill="#0075c9" stroke="none" d="
M 1010.6 309.3
L 1009.6 307.45 1008.25 305.8 1006.65 304.45 1004.75 303.45 1002.75 302.85 1000.6 302.65 998.5 302.85 996.5 303.45 994.6 304.45 993 305.8 991.65 307.45 990.65 309.3 990 311.35 989.8 313.45 990 315.55 990.65 317.6 991.65 319.45 993 321.1 994.6 322.45 996.5 323.45 998.5 324.05 1000.6 324.25 1002.75 324.05 1004.75 323.45 1006.65 322.45 1008.25 321.1 1009.6 319.45 1010.6 317.6 1011.25 315.55 1011.45 313.45 1011.25 311.35 1010.6 309.3 Z"/>
</g>

<g id="Symbol_42_0_Layer0_0_FILL">
<path fill="#82bc00" stroke="none" d="
M 1002.55 287.3
Q 993.7 287.75 989.4 294.25 985.1 300.8 984.25 308.95
L 1019.7 309.2 1018.65 303.5
Q 1017.5 298.2 1013.85 292.9 1010.15 287.65 1002.55 287.3 Z"/>
</g>

<g id="Layer0_20_FILL">
<path fill="#0075c9" stroke="none" d="
M 944.75 543.65
Q 946.95 541.8 947.4 540.55
L 947.5 540.3
Q 947.65 540.05 947.75 539.9 947.25 539.3 946.6 539.4 945.95 539.5 945.25 539.85 944.55 540.2 943.9 540.25 943.35 540.75 942.5 541.1
L 941.4 541.55
Q 938.55 543.2 935.65 545.05 932.8 546.95 929.9 548.85 927.45 551.6 923.75 555.25 920.05 558.9 915.35 563.25 917.15 562.05 918.95 560.9 920.7 559.7 922.5 558.5 917.85 563.25 913.55 568.45 909.3 573.65 904.75 578.65 900.3 583.5 896 588.3 891.7 593.1 887.05 597.8 886 598.8 883.85 601.25 881.7 603.7 879.85 606.2 878 608.7 877.8 609.9 877.75 610.25 877.75 610.55 877.8 610.85 878.3 610.85 878.8 610.8 879.3 610.15 879.85 609.5 880.2 608.85
L 880.55 608.15
Q 883.05 604.8 886.15 601.8 889.3 598.75 892.55 595.8 895.85 592.85 898.7 589.75 903.55 584.45 908.3 579.4 913 574.35 917.4 568.9 918.4 567.25 919.45 565.55 920.5 563.85 921.5 562.2
L 921.5 562.15
Q 921.95 561.15 922.4 560.1 922.8 559.1 923.25 558.05 926.45 555.95 929.75 553.85 933.05 551.75 936.35 549.65 937.6 548.85 940.1 547.2 942.55 545.5 944.75 543.65
M 830.9 460.5
Q 824.25 464.15 818.35 467.5 806.25 474.4 794.7 482.95 783.1 491.5 772.2 500.9 761.3 510.35 751.15 519.85 740.05 530.2 729.1 543.25 718.2 556.25 709.45 570.75 700.75 585.25 696.3 600.05 695.95 600.95 695.8 602.1 695.65 603.3 696.75 603.75 697.45 603.35 697.95 602.45 698.5 601.6 698.8 600.7 699.15 599.85 699.25 599.5 702.95 591.6 706.55 583.9 710.15 576.25 715 568.85 719.9 561.55 725.3 554.7 730.65 547.8 736.45 541.25 743.5 531.5 752.35 522.65 761.15 513.85 771.15 505.9 781.15 497.95 791.65 490.9 794.9 488.45 798.15 486.05 801.4 483.65 804.7 481.3 817.3 472.4 830.85 465.5 844.4 458.6 858.5 452.4
L 860.85 451.3
Q 862.6 450.55 864.2 449.7
L 865.45 448.9 866 448.35
Q 866.05 448.25 866.15 447.95 866.2 447.65 866.05 447.4 865.35 446.6 864.5 446.65 863.6 446.7 862.7 447.05 861.75 447.45 860.95 447.6 860.25 448.05 859.2 448.3
L 857.8 448.55
Q 851.25 450.45 844.4 453.65 837.55 456.8 830.9 460.5 Z"/>

<path fill="#FFFFFF" stroke="none" d="
M 914.05 484
Q 909.85 479.15 902.05 473.85 894.25 468.5 884.85 464.1 875.4 459.65 866.3 457.5 857.2 455.35 850.4 456.9 842.05 461.25 832.45 466.5 822.8 471.75 812.45 477.85 802.1 483.95 791.65 490.9 781.15 497.95 771.15 505.9 761.15 513.85 752.35 522.65 743.5 531.5 736.45 541.25 730.3 549.75 725.95 558.9 721.65 568.1 719.5 577.95 726.05 587.15 738.35 599.5 750.7 611.85 764.3 623.6 777.95 635.35 788.35 642.7
L 796.9 648.05 799.7 649.15 801.6 649.3
Q 812.25 644.35 827 634.35 841.7 624.35 857.9 611.8 874.1 599.2 889.1 586.45 904.1 573.75 915.35 563.25 920.05 558.9 923.75 555.25 927.45 551.6 929.9 548.85 931.5 547.1 932.5 545.75 933.55 544.45 933.95 543.6 935.6 533.5 932.75 522.05 929.85 510.6 924.65 500.45 919.45 490.3 914.05 484 Z"/>
</g>

<g id="Symbol_31_0_Layer0_0_FILL">
<path fill="#FFFFFF" stroke="none" d="
M 698.35 280.75
Q 694.95 275.8 691.55 270.8 668.2 236.85 645.85 204.3 623.45 171.75 605.2 145.3 587 118.8 576.15 103.05
L 565 86.9 547.4 97.9 758 424.15
Q 758.35 425.7 759.2 427.2 760 428.65 760.7 429.65
L 761.45 430.75
Q 763 433.6 764.35 436.6 765.65 439.6 767.2 442.6 771.2 450.15 775.55 457.6 779.95 465 784.35 472.45 787.1 477.65 789.9 482.85 792.65 488.05 795.2 493.35 795.6 494.15 796 495 796.35 495.85 796.75 496.75 797.1 498.55 797.7 500.1
L 798.5 502.05
Q 811.05 537 823.2 572.1 835.4 607.15 848.1 642.05 848.5 643.05 849.1 643.6 849.65 644.15 850.25 644.2 852.4 646.5 855 648.7 857.55 650.95 859.3 652.9 860.1 653.9 861.95 655.75 863.8 657.6 865.65 658.2 867.5 658.8 868.3 656.15 868.35 656 868.35 655.85 868.4 655.7 868.35 655.55 870.35 654.35 872.2 652.95 874.05 651.55 874.9 650.9 879.85 647.3 884.3 643.2 888.75 639.1 893.3 635.1 897.85 631.05 902.95 627.8 905.4 626.1 907.45 623.7 909.5 621.3 912.1 619.3
L 914.95 617.25
Q 917.05 615.7 919.35 613.7 921.6 611.7 922.85 609.9
L 922.75 609.65
Q 922.7 609.55 922.6 609.45 922.55 609.35 922.5 609.25 922.1 608.5 921.7 607.75 921.3 607 920.9 606.25 920.2 604.85 919.5 603.35 918.85 601.9 918.2 600.4 916.15 597.35 914.3 594.75 912.4 592.2 911.6 591
L 907.65 585.1
Q 907.4 584.9 907.15 584.6 906.9 584.3 906.7 583.95 896 568.05 885.45 552.1 874.85 536.1 864.35 520.1 847.95 497.8 832.2 475.05 816.45 452.3 801.4 429.2 798.1 424.15 794.35 418.95 790.6 413.7 786.85 408.9 787.05 409.45 787.2 410 787.35 410.55 787.35 411 786.5 409.75 785.6 408.45
L 783.75 405.7
Q 776.85 395.45 767.5 381.75 758.15 368 746.95 351.65 735.75 335.3 723.35 317.15
L 714.35 304
Q 709.75 297.35 705.15 290.6 701.75 285.7 698.35 280.75
M 769.1 408.6
L 766.2 410.05 572.15 111.75 574.25 110.15 769.1 408.6
M 831.4 584.55
Q 830.85 583.05 830.35 581.55 829.8 580 829.3 578.5 824.9 565.8 820.5 553.35 816.15 540.9 812.2 529.9 808.25 518.85 805.15 510.45 804.95 510 804.8 509.55
L 804.5 508.7
Q 802.85 504.35 801.6 501.1 800.3 497.8 799.4 495.75 799.15 495.15 798.85 494.5 798.55 493.85 798.25 493.2 798.15 493.05 798.1 492.85 798 492.7 797.95 492.55 795.8 488.1 792.85 482.6 789.85 477.05 786.45 471.1 783 465.1 779.5 459.2 774.85 451.3 770.8 444.65 766.75 438.05 764.3 434.05
L 761.7 429.9
Q 762.5 428.8 763.3 427.7 764.1 426.6 764.9 425.55 766.7 423.25 769.1 421.1 771.5 418.9 775.1 416.8 778.7 414.7 784 412.65 784.45 412.45 784.95 412.3 785.45 412.1 785.95 411.9 786.25 411.8 786.6 411.7 786.9 411.55 787.25 411.45
L 787.55 411.35 808.4 442.05
Q 826.3 468.4 849.85 503.05 873.35 537.65 893.25 566.9
L 920.1 606.35
Q 921.1 607.85 921.6 608.6
L 922.1 609.4 865.25 657.3 865.1 657.15
Q 864.9 657 864.6 656.7 864.45 656.6 864.35 656.5 864.2 656.35 864.05 656.2 862.35 654.7 859.6 652.15 856.85 649.6 854.5 647.2
L 852.65 645.15 851.75 643.8
Q 851.75 643.7 851.7 643.6 851.65 643.45 851.6 643.35 849.7 637.85 846.65 628.8 843.55 619.8 839.65 608.45 835.75 597.1 831.4 584.55
M 917.9 609.7
L 918 609.6 909.3 597.9 856.95 643.55 865.65 653.65 917.9 609.7 Z"/>

<path fill="#0075c9" stroke="none" d="
M 830.35 581.55
Q 830.85 583.05 831.4 584.55 835.75 597.1 839.65 608.45 843.55 619.8 846.65 628.8 849.7 637.85 851.6 643.35 851.65 643.45 851.7 643.6 851.75 643.7 851.75 643.8
L 852.65 645.15 854.5 647.2
Q 856.85 649.6 859.6 652.15 862.35 654.7 864.05 656.2 864.2 656.35 864.35 656.5 864.45 656.6 864.6 656.7 864.9 657 865.1 657.15
L 865.25 657.3 922.1 609.4 921.6 608.6
Q 921.1 607.85 920.1 606.35
L 893.25 566.9
Q 873.35 537.65 849.85 503.05 826.3 468.4 808.4 442.05
L 787.55 411.35 787.25 411.45
Q 786.9 411.55 786.6 411.7 786.25 411.8 785.95 411.9 785.45 412.1 784.95 412.3 784.45 412.45 784 412.65 778.7 414.7 775.1 416.8 771.5 418.9 769.1 421.1 766.7 423.25 764.9 425.55 764.1 426.6 763.3 427.7 762.5 428.8 761.7 429.9
L 764.3 434.05
Q 766.75 438.05 770.8 444.65 774.85 451.3 779.5 459.2 783 465.1 786.45 471.1 789.85 477.05 792.85 482.6 795.8 488.1 797.95 492.55 798 492.7 798.1 492.85 798.15 493.05 798.25 493.2 798.55 493.85 798.85 494.5 799.15 495.15 799.4 495.75 800.3 497.8 801.6 501.1 802.85 504.35 804.5 508.7
L 804.8 509.55
Q 804.95 510 805.15 510.45 808.25 518.85 812.2 529.9 816.15 540.9 820.5 553.35 824.9 565.8 829.3 578.5 829.8 580 830.35 581.55
M 918 609.6
L 917.9 609.7 865.65 653.65 856.95 643.55 909.3 597.9 918 609.6
M 766.2 410.05
L 769.1 408.6 574.25 110.15 572.15 111.75 766.2 410.05 Z"/>

<path fill="#0075c9" stroke="none" d="
M 669.4 237.8
L 670.05 238.7
Q 675.1 246.55 680.7 254.15 686.3 261.75 691.1 270 691.2 270.2 691.3 270.4 691.45 270.6 691.55 270.8 694.95 275.8 698.35 280.75 701.75 285.7 705.15 290.6 708.15 294.6 711.05 298.65 714 302.65 716.65 306.75 718.3 309.35 720 311.95 721.65 314.55 723.35 317.15 735.75 335.3 746.95 351.65 758.15 368 767.5 381.75 776.85 395.45 783.75 405.7
L 785.6 408.45
Q 786.5 409.75 787.35 411 787.35 410.55 787.2 410 787.05 409.45 786.85 408.9 786.7 408.5 786.55 408.2 786.45 407.85 786.35 407.6 786.05 407.25 785.7 406.75
L 785.3 406.1
Q 779.1 396.65 772.7 387.35 766.3 378.05 760.35 368.4 751.25 353.6 741.85 338.95 732.45 324.3 722.55 309.95 714.3 298.1 705.95 286.4 697.55 274.75 689.75 262.6 685.35 255.8 680.35 249.35 675.35 242.85 670.6 236.2 670.35 235.75 669.8 235 669.25 234.3 668.4 234.35 668.1 235.05 668.5 236 668.9 237 669.4 237.8 Z"/>
</g>

<g id="Layer0_22_FILL">
<path fill="#0075c9" stroke="none" d="
M 828 565.8
L 827.4 565.45 827 565.35
Q 826.75 565.4 826.8 565.85 832.8 571.4 838.6 577.15 844.45 582.85 849.3 587.75 850.5 588.9 851.55 590 852.65 591.1 853.65 592.1 859.25 597.65 867.4 607.6 875.55 617.55 884.85 631.3 894.2 645 903.45 661.85 905.2 665 906.85 668.25 908.55 671.5 910.2 674.9 911.2 676.85 912.15 678.85 913.1 680.9 914.05 682.95 914.1 683.1 914.1 683.25 914.15 683.4 914.15 683.55
L 914.2 683.95
Q 914.25 684.1 914.3 684.2 914.35 684.35 914.4 684.5
L 914.35 684.95
Q 914.95 693.85 910.5 702.85 906.05 711.85 899.15 719.55 892.3 727.3 885.75 732.25 880.45 736.3 872.45 740.2 864.4 744.15 855.15 746.85 845.9 749.5 836.8 749.9
L 836 749.9
Q 835.35625 749.95 834.7 749.95 833.6 749.95 832.55 749.85 830.6 749.75 828.75 749.5 826.9 749.25 825.15 748.8 824.85 748.65 824.45 748.4 824.1 748.15 823.65 747.75 822.6 747.5 821.55 747.45 820.45 747.4 820.1 747.9
L 820.1 748.65 820.85 749.8
Q 822.3 751.4 825.15 752.45 828.05 753.45 831.1 753.9 834.2 754.35 836.3 754.25
L 836.8 754.1
Q 837.25 754 837.6 754.05 838.25 754.1 838.95 754
L 839.85 753.85
Q 850.6 752.3 861 748.65 871.4 745 880.9 739.35 890.4 733.7 898.45 726.2 903.35 721.6 906.9 715.95 910.5 710.3 913 704.05 915.5 697.8 917.25 691.35 917.3 691.25 917.35 691.1 917.35 691 917.4 690.85 917.7 691.05 918 691 918.25 690.9 918.5 690.4
L 918.55 690.1
Q 918.55 689.9 918.55 689.65 918.45 689.35 918.35 689
L 918.3 688.5
Q 917.35 684.4 915.6 680.2 913.85 676.05 911.75 671.95 909.65 667.9 907.65 664.1 904.5 658.15 900.9 652.4 897.3 646.65 893.35 641.1 888.85 634.1 884 627.45 879.2 620.75 874.15 614.5 871.4 611.15 868.85 607.95 866.3 604.7 863.7 601.55 862.8 600.4 861.9 599.2 860.95 598.05 860.05 596.85 855.05 590.4 849.1 584.55 843.1 578.75 837.2 573 835.1 571 832.7 569.3 830.3 567.6 828 565.8
M 893.5 682.5
Q 896.95 682.1 901.3 681.9 901.6 681.9 902.2 681.8 902.85 681.7 903.2 681.3 902.7 680.95 901.9 680.85
L 901.25 680.75 900.8 680.75
Q 895.3 679.8 890.6 680.45 885.95 681.1 881.55 683 877.15 684.95 872.45 687.85 863.85 693.05 856.5 698.1 849.15 703.15 842.75 709.2 836.35 715.25 830.6 723.4 829.65 724.7 828 726.75 826.4 728.8 825.1 730.95 823.8 733.1 823.7 734.7
L 823.75 735.15
Q 823.85 735 824.1 734.7 824.35 734.25 824.75 733.8
L 825.05 733.45 825.2 733.2
Q 827.3 730.1 829.5 727.55 831.65 725.05 834.3 722.4 837.5 719.1 840.45 715.6 843.4 712.15 846.85 708.95 851.45 704.9 856.9 700.95 862.35 697 868.15 693.45 873.9 689.9 879.45 687 883.35 684.95 886.65 683.95 890 682.9 893.5 682.5 Z"/>

<path fill="#FFFFFF" stroke="none" d="
M 826.8 565.85
Q 822.1 561.5 817.7 557.75 813.25 554 809.45 551.3 805.6 548.55 802.75 547.25 792.2 542.5 780.7 540.35 769.2 538.25 757.25 540.4 745.3 542.55 733.45 550.7 721.6 558.85 710.35 574.8 708.8 576.8 707.7 581.6 706.6 586.35 707.4 594.35 708.2 602.3 712.4 613.85 716.1 622.9 731.05 642.45 746 662.05 765.2 684.55 784.35 707.05 800.75 724.8
L 814.65 739.4 823.65 747.75
Q 824.1 748.15 824.45 748.4 824.85 748.65 825.15 748.8 826.9 749.25 828.75 749.5 830.6 749.75 832.55 749.85 833.6 749.9 834.65 749.9 835.3412109375 749.9314453125 836 749.9
L 836.8 749.9
Q 845.9 749.5 855.15 746.85 864.4 744.15 872.45 740.2 880.45 736.3 885.75 732.25 892.3 727.3 899.15 719.55 906.05 711.85 910.5 702.85 914.95 693.85 914.35 684.95 914.3 684.7 914.3 684.45 914.25 684.2 914.2 683.95
L 914.15 683.55
Q 914.15 683.4 914.1 683.25 914.1 683.1 914.05 682.95 913.1 680.9 912.15 678.85 911.2 676.85 910.2 674.9 908.55 671.5 906.85 668.25 905.2 665 903.45 661.85 894.2 645 884.85 631.3 875.55 617.55 867.4 607.6 859.25 597.65 853.65 592.1 852.65 591.1 851.55 590 850.5 588.9 849.3 587.75 844.45 582.85 838.6 577.15 832.8 571.4 826.8 565.85
M 901.3 681.9
Q 896.95 682.1 893.5 682.5 890 682.9 886.65 683.95 883.35 684.95 879.45 687 873.9 689.9 868.15 693.45 862.35 697 856.9 700.95 851.45 704.9 846.85 708.95 843.4 712.15 840.45 715.6 837.5 719.1 834.3 722.4 831.65 725.05 829.5 727.55 827.3 730.1 825.2 733.2
L 825.05 733.45 824.75 733.8
Q 824.35 734.25 824.1 734.7 823.85 735 823.75 735.15
L 823.7 734.7
Q 823.8 733.1 825.1 730.95 826.4 728.8 828 726.75 829.65 724.7 830.6 723.4 836.35 715.25 842.75 709.2 849.15 703.15 856.5 698.1 863.85 693.05 872.45 687.85 877.15 684.95 881.55 683 885.95 681.1 890.6 680.45 895.3 679.8 900.8 680.75
L 901.25 680.75 901.9 680.85
Q 902.7 680.95 903.2 681.3 902.85 681.7 902.2 681.8 901.6 681.9 901.3 681.9 Z"/>
</g>
</defs>



<g transform="matrix( 0.18829345703125, -0.6400299072265625, 0.6400299072265625, 0.18829345703125, 408.3,1181.95) ">
<g transform="matrix( 1, 0, 0, 1, 0,0) ">
<use xlink:href="#Symbol_21_0_Layer0_0_FILL"/>
</g>
</g>

<g transform="matrix( 1.90142822265625, 0, 0, 1.90142822265625, -845.05,-573.6) ">
<g transform="matrix( 1, 0, 0, 1, 0,0) ">
<use xlink:href="#Symbol_10_0_Layer0_0_FILL"/>
</g>
</g>

<g transform="matrix( 0.68023681640625, 0.0013275146484375, -0.1577301025390625, 0.6548309326171875, 404.55,270.05) ">
<use xlink:href="#Layer0_2_FILL"/>
</g>

<g transform="matrix( 0.508575439453125, 0.186798095703125, -0.3933258056640625, 0.6528472900390625, 775.45,97.3) ">
<g transform="matrix( 1, 0, 0, 1, 0,0) ">
<use xlink:href="#Symbol_25_0_Layer0_0_FILL"/>
</g>
</g>

<g transform="matrix( 0.667572021484375, -0.001220703125, 0.001220703125, 0.667572021484375, 346.2,247.4) ">
<use xlink:href="#Layer0_4_FILL"/>
</g>

<g transform="matrix( 0.607635498046875, -0.2764739990234375, 0.2764739990234375, 0.607635498046875, 338.7,567.45) ">
<g transform="matrix( 1, 0, 0, 1, 0,0) ">
<use xlink:href="#Symbol_35_0_Layer0_0_FILL"/>
</g>
</g>

<g transform="matrix( 0.607635498046875, -0.2764739990234375, 0.2398529052734375, 0.5271453857421875, 360.25,593.25) ">
<g transform="matrix( 1, 0, 0, 1, 0,0) ">
<use xlink:href="#Symbol_28_0_Layer0_0_FILL"/>
</g>
</g>

<g transform="matrix( 0.66351318359375, -0.0735015869140625, 0.0735015869140625, 0.66351318359375, 356.55,354.1) ">
<g transform="matrix( 1, 0, 0, 1, 0,0) ">
<use xlink:href="#Symbol_29_0_Layer0_0_FILL"/>
</g>
</g>

<g transform="matrix( 0.5373382568359375, -0.293304443359375, 0.293304443359375, 0.5373382568359375, 388.8,601.35) ">
<g transform="matrix( 1, 0, 0, 1, 0,0) ">
<use xlink:href="#Symbol_30_0_Layer0_0_FILL"/>
</g>
</g>

<g transform="matrix( 0.6644134521484375, 0.065155029296875, -0.065155029296875, 0.6644134521484375, 490.75,194.85) ">
<use xlink:href="#Layer0_9_FILL"/>
</g>

<g transform="matrix( 0.4408721923828125, 0.0828857421875, -0.0409088134765625, 0.8214874267578125, 635.9,37.55) ">
<g transform="matrix( 1, 0, 0, 1, 0,0) ">
<use xlink:href="#Symbol_27_0_Layer0_0_FILL"/>
</g>
</g>

<g transform="matrix( 0.1386566162109375, -0.0173187255859375, 0.0173187255859375, 0.1386566162109375, 772.45,308.05) ">
<g transform="matrix( 1, 0, 0, 1, 0,0) ">
<use xlink:href="#Symbol_46_0_Layer0_0_FILL"/>
</g>
</g>

<g transform="matrix( 0.1386566162109375, -0.0173187255859375, 0.0173187255859375, 0.1386566162109375, 773.6,312.6) ">
<g transform="matrix( 1, 0, 0, 1, 0,0) ">
<use xlink:href="#Symbol_118_0_Layer0_0_FILL"/>
</g>
</g>

<g transform="matrix( 0.117828369140625, 0.079498291015625, -0.079498291015625, 0.117828369140625, 829.85,272.25) ">
<g transform="matrix( 1, 0, 0, 1, 0,0) ">
<use xlink:href="#Symbol_48_0_Layer0_0_FILL"/>
</g>
</g>

<g transform="matrix( 0.1212310791015625, -0.0743255615234375, 0.0743255615234375, 0.1212310791015625, 770.75,363.6) ">
<use xlink:href="#Layer0_14_FILL"/>
</g>

<g transform="matrix( 0.0816192626953125, -0.116455078125, 0.116455078125, 0.0816192626953125, 789.75,414.75) ">
<g transform="matrix( 1, 0, 0, 1, 0,0) ">
<use xlink:href="#Symbol_39_0_Layer0_0_FILL"/>
</g>
</g>

<g transform="matrix( 0.097503662109375, -0.0986785888671875, -0.1110687255859375, -0.1968231201171875, 892.2,598.8) ">
<g transform="matrix( 1, 0, 0, 1, 0,0) ">
<use xlink:href="#Symbol_23_0_Layer0_0_FILL"/>
</g>
</g>

<g transform="matrix( 0.1370849609375, -0.027099609375, 0.027099609375, 0.1370849609375, 767.3,324.65) ">
<g transform="matrix( 1, 0, 0, 1, 0,0) ">
<use xlink:href="#Symbol_57_0_Layer0_0_FILL"/>
</g>
</g>

<g transform="matrix( 0.08612060546875, -0.1135101318359375, 0.126617431640625, 0.0910797119140625, 782.85,407.6) ">
<g transform="matrix( 1, 0, 0, 1, 0,0) ">
<use xlink:href="#Symbol_117_0_Layer0_0_FILL"/>
</g>
</g>

<g transform="matrix( 0.104522705078125, -0.096832275390625, 0.1029815673828125, 0.11712646484375, 771.85,383.05) ">
<g transform="matrix( 1, 0, 0, 1, 0,0) ">
<use xlink:href="#Symbol_42_0_Layer0_0_FILL"/>
</g>
</g>

<g transform="matrix( 0.26837158203125, 0.6298370361328125, -0.6568145751953125, 0.23284912109375, 1023.4,-90) ">
<use xlink:href="#Layer0_20_FILL"/>
</g>

<g transform="matrix( 0.61749267578125, 0.2551116943359375, -0.2551116943359375, 0.61749267578125, 536.25,120.4) ">
<g transform="matrix( 1, 0, 0, 1, 0,0) ">
<use xlink:href="#Symbol_31_0_Layer0_0_FILL"/>
</g>
</g>

<g transform="matrix( 0.5665435791015625, 0.3546142578125, -0.3546142578125, 0.5665435791015625, 621.05,-74.95) ">
<use xlink:href="#Layer0_22_FILL"/>
</g>
</svg>
