
<svg xmlns="http://www.w3.org/2000/svg" version="1.1" xmlns:xlink="http://www.w3.org/1999/xlink" preserveAspectRatio="none" x="0px" y="0px" width="760px" height="880px" viewBox="614 10 760 880">
<defs>


<g id="Symbol_94_0_Layer0_0_FILL">
<path fill="#0075c9" stroke="none" d="
M 808.35 674.6
Q 808.45 674.3 808.6 674 809.95 670.7 811.2 667.4 812.45 664.1 813.5 660.7 817.05 648.85 821.35 637.55 825.7 626.25 831.05 614.8 833.4 609.9 836.5 605.55 839.55 601.2 842.7 596.95 843 596.65 843.55 595.85 844.1 595.05 843.95 594.3 843.3 593.85 842.45 594.5 841.55 595.1 840.8 595.9
L 840 596.85
Q 835.95 601 832.55 606.1 829.1 611.15 826.3 616.7 823.45 622.25 821.35 627.8 817.25 638.55 813.7 649.1 810.15 659.65 807.3 670.55 807.05 671.5 806.8 672.45 806.6 673.4 806.35 674.35 805.95 676.2 806.65 676.6 807.3 676.95 808.1 675.2
L 808.35 674.6
M 898.45 662.95
L 897.45 662.4
Q 896.7 661.95 896 661.6 895.35 661.15 894.55 660.75
L 893.55 660.25
Q 879.75 653.65 867.35 654.5 854.95 655.4 845 662.95 835.05 670.55 828.6 684.15
L 827.75 685.75
Q 827.1 687.05 826.75 688.45 826.35 689.85 827.05 690.3 827.45 690.5 827.7 690.15 827.95 689.75 828.15 689.45 829.75 687.1 831.35 684.35 832.9 681.6 834.45 679.1 838.6 672.45 844.2 667.3 849.75 662.15 856.7 659.2 863.6 656.25 871.9 656.2 878 656.25 884.65 658.2 891.35 660.15 897.35 663.55 903.4 667 907.55 671.5 907.8 671.8 908.5 672.65 909.15 673.5 910 673.75 910.3 673.4 910.05 672.95 909.8 672.55 909.6 672.25 908.5 670.4 906.55 668.7 904.6 667 902.4 665.55 900.25 664.05 898.45 662.95 Z"/>

<path fill="#FFFFFF" stroke="none" d="
M 866.65 589.95
Q 861.55 583.55 851.9 572.95 842.25 562.4 831.15 551.1 820.1 539.85 810.7 531.35 801.25 522.85 796.6 520.65 786.15 516.3 776.3 521.8 766.5 527.3 756.75 539.45 747.05 551.65 736.85 567.45 726.7 583.25 715.55 599.6
L 715.75 600.35 717 601.2 722.65 602.95
Q 730.35 604.85 741.25 606.95 752.1 609.05 760.8 611.4
L 767.75 613.75 769.8 614.95 770.95 616.2
Q 774.75 625.2 781.7 634.05 788.7 642.85 795.85 651.9 803 660.95 807.3 670.55 810.15 659.65 813.7 649.1 817.25 638.55 821.35 627.8 823.45 622.25 826.3 616.7 829.1 611.15 832.55 606.1 835.95 601 840 596.85
L 840.8 595.9
Q 841.55 595.1 842.45 594.5 843.3 593.85 843.95 594.3 844.1 595.05 843.55 595.85 843 596.65 842.7 596.95 839.55 601.2 836.5 605.55 833.4 609.9 831.05 614.8 825.7 626.25 821.35 637.55 817.05 648.85 813.5 660.7 812.45 664.1 811.2 667.4 809.95 670.7 808.6 674 808.8 674.6 808.95 675.15 809.15 675.75 809.3 676.35 811.95 686.9 814.95 697.5 817.95 708.1 823 717.55 828.05 727.05 836.85 734.25 843.65 739.5 851.95 740.9 860.2 742.3 868.5 741 876.8 739.75 883.6 736.9 890.45 734.05 894.3 730.8 897.95 727.85 903 721.65 908.05 715.5 911.8 706.3 915.55 697.05 915.4 685 915.3 672.95 908.65 658.2 905 650.4 899.7 640.95 894.4 631.5 888.4 621.85 882.45 612.25 876.8 603.9 871.1 595.55 866.65 589.95
M 897.45 662.4
L 898.45 662.95
Q 900.25 664.05 902.4 665.55 904.6 667 906.55 668.7 908.5 670.4 909.6 672.25 909.8 672.55 910.05 672.95 910.3 673.4 910 673.75 909.15 673.5 908.5 672.65 907.8 671.8 907.55 671.5 903.4 667 897.35 663.55 891.35 660.15 884.65 658.2 878 656.25 871.9 656.2 863.6 656.25 856.7 659.2 849.75 662.15 844.2 667.3 838.6 672.45 834.45 679.1 832.9 681.6 831.35 684.35 829.75 687.1 828.15 689.45 827.95 689.75 827.7 690.15 827.45 690.5 827.05 690.3 826.35 689.85 826.75 688.45 827.1 687.05 827.75 685.75
L 828.6 684.15
Q 835.05 670.55 845 662.95 854.95 655.4 867.35 654.5 879.75 653.65 893.55 660.25
L 894.55 660.75
Q 895.35 661.15 896 661.6 896.7 661.95 897.45 662.4 Z"/>
</g>

<g id="Symbol_31_0_Layer0_0_FILL">
<path fill="#FFFFFF" stroke="none" d="
M 698.35 280.75
Q 694.95 275.8 691.55 270.8 668.2 236.85 645.85 204.3 623.45 171.75 605.2 145.3 587 118.8 576.15 103.05
L 565 86.9 547.4 97.9 758 424.15
Q 758.35 425.7 759.2 427.2 760 428.65 760.7 429.65
L 761.45 430.75
Q 763 433.6 764.35 436.6 765.65 439.6 767.2 442.6 771.2 450.15 775.55 457.6 779.95 465 784.35 472.45 787.1 477.65 789.9 482.85 792.65 488.05 795.2 493.35 795.6 494.15 796 495 796.35 495.85 796.75 496.75 797.1 498.55 797.7 500.1
L 798.5 502.05
Q 811.05 537 823.2 572.1 835.4 607.15 848.1 642.05 848.5 643.05 849.1 643.6 849.65 644.15 850.25 644.2 852.4 646.5 855 648.7 857.55 650.95 859.3 652.9 860.1 653.9 861.95 655.75 863.8 657.6 865.65 658.2 867.5 658.8 868.3 656.15 868.35 656 868.35 655.85 868.4 655.7 868.35 655.55 870.35 654.35 872.2 652.95 874.05 651.55 874.9 650.9 879.85 647.3 884.3 643.2 888.75 639.1 893.3 635.1 897.85 631.05 902.95 627.8 905.4 626.1 907.45 623.7 909.5 621.3 912.1 619.3
L 914.95 617.25
Q 917.05 615.7 919.35 613.7 921.6 611.7 922.85 609.9
L 922.75 609.65
Q 922.7 609.55 922.6 609.45 922.55 609.35 922.5 609.25 922.1 608.5 921.7 607.75 921.3 607 920.9 606.25 920.2 604.85 919.5 603.35 918.85 601.9 918.2 600.4 916.15 597.35 914.3 594.75 912.4 592.2 911.6 591
L 907.65 585.1
Q 907.4 584.9 907.15 584.6 906.9 584.3 906.7 583.95 896 568.05 885.45 552.1 874.85 536.1 864.35 520.1 847.95 497.8 832.2 475.05 816.45 452.3 801.4 429.2 798.1 424.15 794.35 418.95 790.6 413.7 786.85 408.9 787.05 409.45 787.2 410 787.35 410.55 787.35 411 786.5 409.75 785.6 408.45
L 783.75 405.7
Q 776.85 395.45 767.5 381.75 758.15 368 746.95 351.65 735.75 335.3 723.35 317.15
L 714.35 304
Q 709.75 297.35 705.15 290.6 701.75 285.7 698.35 280.75
M 769.1 408.6
L 766.2 410.05 572.15 111.75 574.25 110.15 769.1 408.6
M 831.4 584.55
Q 830.85 583.05 830.35 581.55 829.8 580 829.3 578.5 824.9 565.8 820.5 553.35 816.15 540.9 812.2 529.9 808.25 518.85 805.15 510.45 804.95 510 804.8 509.55
L 804.5 508.7
Q 802.85 504.35 801.6 501.1 800.3 497.8 799.4 495.75 799.15 495.15 798.85 494.5 798.55 493.85 798.25 493.2 798.15 493.05 798.1 492.85 798 492.7 797.95 492.55 795.8 488.1 792.85 482.6 789.85 477.05 786.45 471.1 783 465.1 779.5 459.2 774.85 451.3 770.8 444.65 766.75 438.05 764.3 434.05
L 761.7 429.9
Q 762.5 428.8 763.3 427.7 764.1 426.6 764.9 425.55 766.7 423.25 769.1 421.1 771.5 418.9 775.1 416.8 778.7 414.7 784 412.65 784.45 412.45 784.95 412.3 785.45 412.1 785.95 411.9 786.25 411.8 786.6 411.7 786.9 411.55 787.25 411.45
L 787.55 411.35 808.4 442.05
Q 826.3 468.4 849.85 503.05 873.35 537.65 893.25 566.9
L 920.1 606.35
Q 921.1 607.85 921.6 608.6
L 922.1 609.4 865.25 657.3 865.1 657.15
Q 864.9 657 864.6 656.7 864.45 656.6 864.35 656.5 864.2 656.35 864.05 656.2 862.35 654.7 859.6 652.15 856.85 649.6 854.5 647.2
L 852.65 645.15 851.75 643.8
Q 851.75 643.7 851.7 643.6 851.65 643.45 851.6 643.35 849.7 637.85 846.65 628.8 843.55 619.8 839.65 608.45 835.75 597.1 831.4 584.55
M 917.9 609.7
L 918 609.6 909.3 597.9 856.95 643.55 865.65 653.65 917.9 609.7 Z"/>

<path fill="#0075c9" stroke="none" d="
M 830.35 581.55
Q 830.85 583.05 831.4 584.55 835.75 597.1 839.65 608.45 843.55 619.8 846.65 628.8 849.7 637.85 851.6 643.35 851.65 643.45 851.7 643.6 851.75 643.7 851.75 643.8
L 852.65 645.15 854.5 647.2
Q 856.85 649.6 859.6 652.15 862.35 654.7 864.05 656.2 864.2 656.35 864.35 656.5 864.45 656.6 864.6 656.7 864.9 657 865.1 657.15
L 865.25 657.3 922.1 609.4 921.6 608.6
Q 921.1 607.85 920.1 606.35
L 893.25 566.9
Q 873.35 537.65 849.85 503.05 826.3 468.4 808.4 442.05
L 787.55 411.35 787.25 411.45
Q 786.9 411.55 786.6 411.7 786.25 411.8 785.95 411.9 785.45 412.1 784.95 412.3 784.45 412.45 784 412.65 778.7 414.7 775.1 416.8 771.5 418.9 769.1 421.1 766.7 423.25 764.9 425.55 764.1 426.6 763.3 427.7 762.5 428.8 761.7 429.9
L 764.3 434.05
Q 766.75 438.05 770.8 444.65 774.85 451.3 779.5 459.2 783 465.1 786.45 471.1 789.85 477.05 792.85 482.6 795.8 488.1 797.95 492.55 798 492.7 798.1 492.85 798.15 493.05 798.25 493.2 798.55 493.85 798.85 494.5 799.15 495.15 799.4 495.75 800.3 497.8 801.6 501.1 802.85 504.35 804.5 508.7
L 804.8 509.55
Q 804.95 510 805.15 510.45 808.25 518.85 812.2 529.9 816.15 540.9 820.5 553.35 824.9 565.8 829.3 578.5 829.8 580 830.35 581.55
M 918 609.6
L 917.9 609.7 865.65 653.65 856.95 643.55 909.3 597.9 918 609.6
M 766.2 410.05
L 769.1 408.6 574.25 110.15 572.15 111.75 766.2 410.05 Z"/>

<path fill="#0075c9" stroke="none" d="
M 669.4 237.8
L 670.05 238.7
Q 675.1 246.55 680.7 254.15 686.3 261.75 691.1 270 691.2 270.2 691.3 270.4 691.45 270.6 691.55 270.8 694.95 275.8 698.35 280.75 701.75 285.7 705.15 290.6 708.15 294.6 711.05 298.65 714 302.65 716.65 306.75 718.3 309.35 720 311.95 721.65 314.55 723.35 317.15 735.75 335.3 746.95 351.65 758.15 368 767.5 381.75 776.85 395.45 783.75 405.7
L 785.6 408.45
Q 786.5 409.75 787.35 411 787.35 410.55 787.2 410 787.05 409.45 786.85 408.9 786.7 408.5 786.55 408.2 786.45 407.85 786.35 407.6 786.05 407.25 785.7 406.75
L 785.3 406.1
Q 779.1 396.65 772.7 387.35 766.3 378.05 760.35 368.4 751.25 353.6 741.85 338.95 732.45 324.3 722.55 309.95 714.3 298.1 705.95 286.4 697.55 274.75 689.75 262.6 685.35 255.8 680.35 249.35 675.35 242.85 670.6 236.2 670.35 235.75 669.8 235 669.25 234.3 668.4 234.35 668.1 235.05 668.5 236 668.9 237 669.4 237.8 Z"/>
</g>

<g id="Symbol_53_0_Layer0_0_FILL">
<path fill="#0075c9" stroke="none" d="
M 1025.45 481.1
L 1024.85 480.3
Q 1024.35 479.65 1023.8 479.35 1023.75 478.85 1023.25 478.7 1022.75 478.6 1022.35 478.8 1022.05 479.75 1022.4 480.7 1022.7 481.7 1023.15 482.5 1023.65 483.25 1023.8 483.55 1029.55 493.45 1035.7 502.85 1041.85 512.3 1047.7 522 1053.5 531.75 1058.25 542.45 1063.6 554.5 1067.8 565.05 1072 575.6 1074.65 586.55 1077.25 597.55 1077.95 610.85 1078.2 616.05 1078.2 621.25 1078.2 626.45 1077.9 631.7 1077.55 642.55 1076.1 653.1 1074.7 663.6 1072.05 673.55 1072 673.9 1072 674.2 1072 674.5 1072 674.8 1072 675.25 1071.95 675.75 1071.95 676.25 1072.05 676.65 1070.75 680.4 1069.3 684 1067.8 687.65 1066.15 691.15 1063.2 698.35 1059.45 704.95 1055.7 711.6 1051.05 717.6 1042.3 728.95 1031.9 738.05 1021.5 747.15 1009.7 754.1 1008.4 755.6 1008.95 756.4
L 1010.25 756.85 1013.1 756.55
Q 1014.9 756.2 1016.65 755.7 1018.4 755.25 1020.1 754.35
L 1020.65 754
Q 1021.1 753.75 1021.45 753.45 1022.1 753.1 1022.8 752.6
L 1023.4 752.2 1023.7 751.95
Q 1030.25 747.45 1035.85 742.65 1041.45 737.9 1046.6 732.55 1051.7 727.15 1056.75 720.85 1058.9 718.15 1060.6 715.85 1062.25 713.5 1063.7 711 1065.15 708.55 1066.7 705.4 1069.4 700 1071.8 695.1 1074.2 690.15 1076.2 684.25 1078.55 677.3 1080.25 670.65 1082 663.95 1083.1 656.75 1083.4 654.9 1084 651.85 1084.55 648.8 1084.8 645.6 1086.65 633.65 1086.6 620.95 1086.55 608.25 1084.95 596.5 1083.4 584.75 1080.6 575.65 1077.8 566.75 1073.9 557.65 1069.95 548.55 1065.45 539.7 1061 530.8 1056.5 522.65 1053.15 516.4 1048.3 509.1 1043.5 501.85 1038.15 495 1032.8 488.2 1027.8 483.2 1027.2 482.65 1026.6 482.15 1026 481.65 1025.45 481.1 Z"/>

<path fill="#FFFFFF" stroke="none" d="
M 840.45 352.9
Q 839.4 361.9 840.35 370.7 841.3 379.6 841.25 388.6 841.2 397.65 837.15 407.25 828 416.45 820.75 427.05 813.45 437.6 806.95 448 800.4 458.35 793.55 466.95 788.2 473.65 781.75 489.15 775.3 504.65 770.15 525.1 765 545.55 763.55 566.95 762.1 588.4 766.7 606.9 773.95 613.85 778.55 617.2 783.1 620.6 785.25 622.3 787.35 624 787.4 625.9 787.4 627.8 785.55 631.85 784.25 639.35 780.8 647.7 777.4 656.05 773.8 664.7 770.2 673.35 768.55 681.85 766.85 690.3 769.1 698 771.65 705.85 777.5 715.3 783.4 724.75 791.15 733.9 798.95 743 807.15 749.9 815.4 756.8 822.65 759.5 856.5 771.7 889.8 775.5 923.05 779.3 953.6 774.1 984.1 768.95 1009.7 754.1 1021.5 747.15 1031.9 738.05 1042.3 728.95 1051.05 717.6 1055.7 711.6 1059.45 704.95 1063.2 698.35 1066.15 691.15 1067.9 686.9 1069.35 682.5 1070.85 678.1 1072.05 673.55 1074.7 663.6 1076.1 653.1 1077.55 642.55 1077.9 631.7 1078.1 625.35 1078 618.9 1077.85 612.5 1077.35 606.05 1074.95 580.6 1062.85 553.8 1050.7 527 1035.5 503.85 1020.3 480.65 1008.6 466
L 995.45 450.2 976.55 424.25
Q 959 400.3 934 372.35 908.95 344.4 885.15 330.4 861.4 316.45 847.65 334.4 841.55 343.9 840.45 352.9 Z"/>
</g>

<g id="Symbol_35_0_Layer0_0_FILL">
<path fill="#0075c9" stroke="none" d="
M 952.1 449.05
L 953.15 449.3
Q 958.4 451.3 963.85 453 969.25 454.7 974.6 456.45 978 457.55 981.6 458.55 985.15 459.55 988.65 460.6 998.95 463.7 1009.6 465.25 1020.25 466.8 1031.05 467.75 1035.2 468.15 1039.85 468.2 1044.5 468.25 1048.7 468.2 1057.55 468 1066.95 466.9 1076.3 465.85 1085 464.25 1094.25 462.6 1102.55 460.15 1110.85 457.65 1119.2 453.5 1120.5 452.9 1121.8 452.4 1123.1 451.85 1124.4 451.25 1124.6 451.15 1125 451 1125.35 450.8 1125.35 450.45 1124.55 450.2 1123.5 450.5 1122.4 450.75 1122 450.9 1118.45 451.8 1114.9 452.65 1111.35 453.55 1107.75 454.35 1093 460.2 1075.3 463.1 1057.6 465.95 1034.8 464.6 1012 463.3 982 456.45 975.6 454.95 967.4 452.75 959.25 450.55 949.55 447.55 949.8 447.85 950.1 448.1 950.4 448.35 950.65 448.5 951.3 448.85 952.1 449.05 Z"/>

<path fill="#FFFFFF" stroke="none" d="
M 1063.95 246.95
Q 1063.95 243.75 1062.1 241.65 1060.25 239.55 1057.45 239.1 1054.6 238.6 1051.75 240.25 1047.1 243.25 1041.15 247.05 1035.25 250.8 1027.2 253.6 1019.2 256.4 1008.2 256.4 998.4 256.1 990.4 251.55 982.45 247 975.75 240.45 969.05 233.9 962.95 227.6 956.85 221.3 950.75 217.5
L 946.05 215.3 938.2 212.65
Q 928.75 209.8 914.65 209.15 900.6 208.55 883.6 213.2 863.1 219.4 850.1 226.55 837.05 233.7 830.4 239.6
L 825.1 244.65 822.4 248
Q 815.75 258.8 809.4 274.95 803.05 291.1 797.85 307.35 792.65 323.55 789.55 334.55
L 786.4 346 789.6 351.75
Q 792.6 357 799.85 365.75 807.15 374.45 820.3 385.2 833.45 395.9 854.05 407.2 872.05 416.9 889 424.5 905.95 432.1 921.25 437.8 936.5 443.5 949.55 447.55 959.25 450.55 967.4 452.75 975.6 454.95 982 456.45 1012 463.3 1034.8 464.6 1057.6 465.95 1075.3 463.1 1093 460.2 1107.75 454.35 1111.7 452.8 1115.55 451.1 1119.4 449.4 1123.2 447.6 1139.45 439.6 1152.6 425 1165.7 410.35 1175.3 391.3 1184.85 372.2 1190.4 350.9 1195.9 329.6 1196.9 308.3 1198.3 274.4 1196.75 253.95 1195.25 233.45 1192.95 223.55
L 1189.7 211.5
Q 1188.65 208.75 1186.25 207.35 1183.85 206 1181.1 206.55 1178.3 207.05 1176.15 209.95 1174.4 212.7 1170.5 220.15 1166.7 227.6 1159.6 239.15 1152.55 250.7 1141.2 265.7 1133.9 275.25 1124 282.85 1114.1 290.5 1102.9 294 1091.75 297.5 1080.55 294.8 1073.3 292.65 1069.7 286.1 1066.05 279.6 1064.9 271.5 1063.7 263.45 1063.75 256.6 1063.8 249.75 1063.95 246.95 Z"/>
</g>

<g id="Symbol_28_0_Layer0_0_FILL">
<path fill="#0075c9" stroke="none" d="
M 1017.45 346.15
Q 1018.85 343.35 1019.4 339.95 1019.9 336.55 1019.4 333.5 1018.95 330.45 1017.65 328.05 1016.3 325.6 1014.3 324.05 1012.3 322.55 1009.75 322.2 1007.25 321.9 1004.85 322.9 1002.45 323.85 1000.45 325.9 998.4 327.9 997 330.7 995.65 333.55 995.1 336.9 994.55 340.3 995.05 343.35 995.55 346.4 996.85 348.85 998.15 351.3 1000.15 352.8 1002.2 354.35 1004.7 354.65 1007.25 354.95 1009.65 354 1012 353 1014.05 351 1016.05 349 1017.45 346.15 Z"/>
</g>

<g id="Symbol_29_0_Layer0_0_FILL">
<path fill="#0075c9" stroke="none" d="
M 1030.1 321.85
Q 1021.85 320.25 1013.45 318.7 1005.05 317.2 997.2 315.9 996.25 316.35 996.65 317.05 997.05 317.75 998.8 318.2 1005.4 319.7 1012.25 320.7 1019.1 321.75 1025.8 322.95 1026.4 323.05 1027.6 323.05 1028.8 323.05 1029.65 322.8 1030.5 322.55 1030.1 321.85 Z"/>

<path fill="#FFFFFF" stroke="none" d="
M 1003.4 280.35
Q 996.4 283.45 991.75 289.2 987.1 295 984.25 301.55 981.4 308.05 979.7 313.45 983.55 313.9 988 314.5 992.4 315.15 997.2 315.9 1005.05 317.2 1013.45 318.7 1021.85 320.25 1030.1 321.85 1034 322.6 1037.8 323.35 1041.6 324.1 1045.15 324.8 1046.1 318.35 1045.95 311.15 1045.8 303.9 1043.5 297.2 1041.15 290.45 1035.6 285.55 1030.1 280.6 1020.3 278.8 1010.35 277.3 1003.4 280.35 Z"/>
</g>

<g id="Symbol_30_0_Layer0_0_FILL">
<path fill="#0075c9" stroke="none" d="
M 829.15 132.95
L 827.9 133
Q 818.8 134.15 809.85 139.5 800.9 144.8 793.1 152.1 785.3 159.4 779.75 166.3 775.65 171.4 773.2 176.3 770.8 181.15 769.2 186.3 767.95 189.45 766.95 192.9 765.95 196.4 765.2 200.1
L 764.75 201.5
Q 764.55 202.25 764.6 202.95 763.45 209.2 762.8 215.35 762.1 221.5 761.8 227 761.2 237.2 762.25 247.6 763.25 258 765.4 268.35 767.5 278.7 770.15 288.65
L 770.7 290.25
Q 771.15 291.45 771.8 292.8 770.45 297.35 769.5 301.4 768.6 305.4 768.1 309.55 767.6 313.65 767.45 318.45 767.35 319.6 767.2 320.8 767.05 322 767.2 323.15 767.2 323.3 767.25 323.7 767.3 324.1 767.65 324.3 768.5 325.7 770.15 327 771.8 328.3 773.35 329.3 774.9 330.3 775.6 330.7 778.5 332.65 782 332.8 785.55 333 789.25 332.1 789.45 331.5 789.7 331 789.95 330.5 790.35 330.1 790.4 330 790.5 329.9 790.6 329.8 790.65 329.7 789.05 330.05 787.45 330.2 785.85 330.4 784.35 330.45 783.4 330.5 782.4 330.35 781.4 330.2 780.45 329.95
L 780 330 779.45 329.6
Q 776.75 328.55 774.4 326.75 772.05 325 770.25 322.9
L 769.7 322.5 769.65 322.15
Q 769.55 322.05 769.45 321.95 769.35 321.8 769.2 321.7 769.3 321.25 769.35 320.8 769.45 320.4 769.45 320 769.25 317.25 770.05 311.05 770.8 304.85 773.65 294.85 773.85 294.3 774 293.7 774.2 293.1 774.4 292.5
L 774.25 291.6
Q 774.05 290.9 773.8 289.7 772.8 285.55 771.05 277.9 769.3 270.25 767.65 261.75 766.05 253.25 765.45 246.55 765.1 242.8 764.7 235.65 764.35 228.45 765.05 218.95 765.8 209.45 768.7 198.75 769.3 196.75 769.95 194.75 770.6 192.75 771.4 190.7 774.35 182.9 779.15 175.2 783.95 167.5 791 160.3 798.1 153.1 807.85 146.85 811.4 144.2 814.9 142.15 818.4 140.1 821.75 138.8 822.5 138.5 823.45 138.2 824.45 137.95 825.5 137.6 826.6 137.15 827.75 136.7 828.9 136.2 830.1 135.75 830.85 135.25 831.05 134.65 831.25 134 830.75 133.25 830.05 132.9 829.15 132.95
M 993.1 245.5
L 992.95 245.4
Q 992.8 245.5 992.65 245.6 992.45 245.7 992.3 245.8
L 992 246.05 993.1 245.5
M 988.5 220.1
Q 983.3 209.2 977.05 198.4 970.8 187.55 964.75 177 961.55 171.25 957.15 164.8 952.8 158.35 947.45 152.15 942.15 145.95 936.2 141 935.7 140 934.55 138.9 933.4 137.85 932.25 137 931.1 136.15 930.55 135.8 922.6 130.4 913.05 127.05 903.5 123.75 893.45 122.3 883.4 120.9 873.9 121.15
L 872.85 121.15
Q 872.05 121.15 871.45 121.4 871.05 121.35 870.55 121.45
L 869.95 121.5
Q 869.4 121.6 868.85 121.75 868.3 121.85 867.75 121.95
L 864.2 123.2
Q 861.45 124.25 859.8 125.55 858.1 126.85 860.5 127.8 875.15 125.8 887.15 127.05 899.15 128.35 908.65 131.8 918.15 135.3 925.25 139.8 925.9 140.05 926.55 140.35 927.2 140.6 927.85 140.85 928.25 141.3 928.7 141.75 929.1 142.2 929.55 142.65 935.4 146.9 939.35 150.8 943.3 154.75 945.45 157.5 948.55 161.35 954 169.65 959.5 177.95 965.8 187.95 972.1 197.9 977.65 206.9 983.2 215.9 986.4 221.15 987.7 223.2 988.35 224.35
L 989.05 225.45 1004.05 232.5 1004.25 232.75 1004.6 233.5
Q 1005.1 234.45 1005.4 236.05 1005.65 237.65 1005 239.55 1004.4 241 1002.7 242.3 1001.05 243.65 999.15 244.65 997.2 245.65 995.9 246.25 996.1 246.55 996.25 246.95 996.35 247.3 996.45 247.75 997.05 247.65 997.7 247.65 998.3 247.65 998.95 247.75 1002.15 246.4 1004.8 244.75 1007.45 243.1 1008.45 241.5 1011.25 236.2 1007.95 232.35 1004.6 228.45 999 225.95 993.35 223.45 989.3 222.15 989.15 221.7 988.95 221.15 988.75 220.65 988.5 220.1 Z"/>

<path fill="#0075c9" stroke="none" d="
M 975.7 245.95
L 991.5 244 993.45 242.6
Q 994.8 241.6 996.1 240.45 997.35 239.35 997.5 238.7
L 996.3 237.75 993.3 237.35 981.85 238.05
Q 966.75 239.8 940.1 246.75 913.45 253.75 878.1 267 862.3 273.05 846.55 280.55 830.85 288.05 817.3 295.85 803.8 303.65 794.55 310.6 785.25 317.55 782.4 322.5
L 782.35 322.55
Q 784.1 323.8 785.65 324.9 787.15 326.05 788.1 326.7
L 789.05 326.7 804 315.55
Q 816.15 306.95 837.25 295.35 858.35 283.7 888 272.05 920.05 259.9 941.75 253.9 963.45 247.9 975.7 245.95 Z"/>

<path fill="#FFFFFF" stroke="none" d="
M 986.4 221.15
Q 983.2 215.9 977.65 206.9 972.1 197.9 965.8 187.95 959.5 177.95 954 169.65 948.55 161.35 945.45 157.5 943.3 154.75 939.35 150.8 935.4 146.9 929.55 142.65 928.55 141.95 927.45 141.2 926.4 140.5 925.25 139.8 918.15 135.3 908.65 131.8 899.15 128.35 887.15 127.05 875.15 125.8 860.5 127.8 854.25 128.7 847.5 130.35 840.7 132.05 833.45 134.55 832.6 134.85 831.75 135.15 830.9 135.45 830.1 135.75 828.9 136.2 827.75 136.7 826.6 137.15 825.5 137.6 820.6 139.7 816.2 142 811.8 144.35 807.85 146.85 798.1 153.1 791 160.3 783.95 167.5 779.15 175.2 774.35 182.9 771.4 190.7 770.6 192.75 769.95 194.75 769.3 196.75 768.7 198.75 765.8 209.45 765.05 218.95 764.35 228.45 764.7 235.65 765.1 242.8 765.45 246.55 766.05 253.25 767.65 261.75 769.3 270.25 771.05 277.9 772.8 285.55 773.8 289.7 774.05 290.9 774.25 291.6
L 774.4 292.5
Q 774.2 293.1 774 293.7 773.85 294.3 773.65 294.85 770.8 304.85 770.05 311.05 769.25 317.25 769.45 320 769.5 320.85 769.55 321.4 769.6 321.95 769.65 322.15
L 769.7 322.5 770.25 322.9 779.45 329.6 780 330 780.45 329.95 789 328.7 790.8 326.7 789.05 326.7 788.1 326.7 786.6 326.7 785.2 326.35
Q 783.9 326 782.85 325.1 781.8 324.2 782.35 322.55
L 782.4 322.5
Q 785.25 317.55 794.55 310.6 803.8 303.65 817.3 295.85 830.85 288.05 846.55 280.55 862.3 273.05 878.1 267 913.45 253.75 940.1 246.75 966.75 239.8 981.85 238.05
L 993.3 237.35 996.3 237.75 997.5 238.7
Q 997.35 239.35 996.1 240.45 994.8 241.6 993.45 242.6
L 991.5 244 991.3 244.15 992.95 245.4 993.1 245.5 994.7 246.75 995 246.6
Q 995.35 246.5 995.9 246.25 997.2 245.65 999.15 244.65 1001.05 243.65 1002.7 242.3 1004.4 241 1005 239.55 1005.65 237.65 1005.4 236.05 1005.1 234.45 1004.6 233.5
L 1004.25 232.75 1004.05 232.5 989.05 225.45 988.35 224.35
Q 987.7 223.2 986.4 221.15 Z"/>
</g>

<g id="Symbol_52_0_Layer0_0_FILL">
<path fill="#FFFFFF" stroke="none" d="
M 931.25 731.85
L 925.55 731.55 923.1 732.75
Q 923.1 737.15 925.3 742.9 927.45 748.65 929.55 756.6 931.65 764.55 931.35 775.45 931.1 786.4 926.2 801.1 918.8 806.05 909.5 810.2 900.25 814.35 890.05 819.2 879.85 824.1 869.7 831.25 871.85 836.85 879.3 848.35 886.7 859.85 897.2 872.6 907.65 885.35 918.95 894.7 930.3 904.1 940.25 905.45 955.7 904.6 971.45 900.65 987.2 896.7 1001.8 890.9 1016.4 885.1 1028.35 878.8 1035.2 875.1 1048.1 865.75 1061 856.35 1074.9 844.65 1088.8 833 1098.6 822.4 1108.4 811.8 1109 805.75
L 1106.75 802.15 1101.2 797.7 1092.35 792.35 1080.25 786.15
Q 1052.75 772.9 1016.45 759 980.1 745.15 952.45 737
L 931.25 731.85 Z"/>
</g>

<g id="Symbol_95_0_Layer0_0_FILL">
<path fill="#FFFFFF" stroke="none" d="
M 850.6 712.25
L 851.4 712.55
Q 851.95 712.75 852.5 712.9 852.85 713.05 853.3 713.2
L 853.9 713.4
Q 859.25 715.05 864.6 716.65 869.9 718.3 875.05 720.4 880.15 722.5 884.95 725.65 889.15 728.5 893.2 731.1 897.25 733.65 902 735.65 909.05 738.55 915.6 739.5 922.2 740.45 928.8 739.65 935.45 738.9 942.6 736.6 943.35 736.4 944.3 736.15 945.3 735.85 945.9 735.45 946.45 735.05 946.4 734.3 946.35 733.55 946.25 732.85 945.65 727.45 944.7 722.1 943.75 716.8 942.75 711.45
L 942.65 711.1 942.55 710.45
Q 942.4 709.65 942.25 708.95 941.8 709.1 941.25 709.3
L 940.55 709.5
Q 935.8 711.1 931.4 712.35 927 713.6 922.5 714.05 918 714.5 912.95 713.7 905.5 712.35 898.35 710.05 891.15 707.75 883.95 705.65 875.25 703.3 867.1 702.9 858.95 702.55 850.05 703.35 848.75 703.45 847.3 703.5 845.85 703.6 844.65 704.1 843.45 704.6 842.8 706.05 841.95 708.35 843.35 709.55 844.75 710.75 846.9 711.3 849.1 711.85 850.6 712.25 Z"/>
</g>

<g id="Symbol_96_0_Layer0_0_FILL">
<path fill="#0075c9" stroke="none" d="
M 600.7 703.9
L 600.4 705
Q 598.15 714.05 598.55 723.8 598.95 733.5 601.95 742.7 604.95 751.85 610.55 759.25 611.45 760.45 613.6 762.8 615.7 765.15 618 767.15 620.25 769.2 621.6 769.35 623.5 769.35 623.05 768.25 622.6 767.15 621.4 765.9
L 619.7 764.35
Q 611.15 757.15 607.25 748.1 603.35 739.05 602.5 728.9 601.6 718.75 602.15 708.2 602.2 707.15 602.2 706.1 602.2 705 602.15 704
L 602.15 703.55
Q 602.15 703.2 602 702.95 602 702.7 601.8 702.55 601.6 702.4 601.35 702.55 600.95 703.05 600.7 703.9
M 862.5 721.25
Q 862.85 722.35 863.35 723.3
L 864 724.35
Q 866.35 729.75 869.15 734.9 871.95 740 874.7 745.25 877.8 750.75 880.85 757.2 883.9 763.65 886.75 770.55 886.95 770.85 887.15 771.15 887.3 771.45 887.5 771.75 888.7 773.65 889.6 773.75 890.45 773.85 890.6 772.7 890.75 771.55 889.8 769.65 886.3 762.8 883.3 755.9 880.3 749.05 877.05 742.3 873.85 735.55 869.65 729 868.95 727.9 867.95 726.05 867 724.2 865.95 722.45 864.95 720.7 864.2 719.9 863.95 719.65 863.5 719.5 863.05 719.3 862.65 719.5 862.2 720.15 862.5 721.25
M 632.8 782.05
Q 632.3 781.95 631.95 781.8 631.45 781.55 631 781.8 630.55 782 630.55 782.7
L 630.85 783.1 631.6 783.65
Q 632.55 784.25 633.9 784.95 635.25 785.65 636.45 786.2 635.95 786.15 635.6 786.4 635.25 786.6 635.2 787.25
L 635.7 787.95 636.95 788.85
Q 638.6 789.85 640.5 790.75 642.35 791.65 643.1 791.95 652.55 795.5 662.65 798.1 672.8 800.75 682.65 802.55 688.55 803.6 694.35 804.05 700.1 804.45 706.25 804.7 708.95 804.8 711.45 804.55 713.95 804.3 716.55 804 716.8 803.95 717.2 804 717.6 804.05 718.1 804.1 725.15 805.2 730.7 808 736.25 810.85 741.15 815 746.1 819.15 751.25 824.3 751.6 824.65 752.35 825.55 753.05 826.4 753.85 827.35 754.05 830.9 754.25 834.45 754.5 837.95 754.8 841.5 755.4 847.4 755.5 853.4 755.65 859.4 755.75 865.4 755.85 869.9 755.35 874.2 754.85 878.55 754.2 882.85 753.6 887.1 753.4 891.45 753.4 893.2 754.15 893.7 754.9 894.2 755.55 892.55 756.2 890.6 756.75 888.55 757.3 886.55 757.75 884.5 757.7 875.8 757.5 865 757.35 854.15 756.9 844.4 756.5 834.6 755.75 829.05 755.6 827.95 755.45 827.1 755.3 826.25 755.1 825.7
L 754.9 825.55 754.6 825.15
Q 754.2 824.55 753.55 823.6 752.75 822.35 751.5 820.65 750.3 818.9 748.55 816.9 745.75 814.25 742.7 811.9 739.7 809.5 736.65 807.65 731.65 804.5 726.85 802.9 722.05 801.25 716.2 800.55
L 715.95 800.45 715.15 800.4
Q 714.75 800.35 714.35 800.3 713.7 800.3 713.2 800.2 712.7 800.1 712.3 800
L 712.05 799.95
Q 700.75 799.45 690.3 798.15 679.85 796.85 669 794.05 662.95 792.4 657.05 790.25 651.2 788.05 645.3 785.9 639.45 783.7 633.4 782.1
L 632.8 782.05 Z"/>

<path fill="#FFFFFF" stroke="none" d="
M 778.7 758.65
Q 747.4 772.35 726.95 784.7
L 713.05 794.7 711.05 797.9 712.3 800
Q 712.7 800.1 713.2 800.2 713.7 800.3 714.35 800.3 714.75 800.35 715.15 800.4
L 715.95 800.45
Q 724.25 801.3 730.5 803.95 736.75 806.55 741.2 810.05 745.65 813.5 748.55 816.9 750.3 818.9 751.5 820.65 752.75 822.35 753.55 823.6 754.2 824.55 754.6 825.15
L 754.9 825.55 755.1 825.7
Q 755.3 826.25 755.45 827.1 755.6 827.95 755.75 829.05 756.5 834.6 756.9 844.4 757.35 854.15 757.5 865 757.7 875.8 757.75 884.5 757.8 890.5 757.8 894.15
L 757.8 897.9
Q 761.75 905.15 778.45 908.7 795.15 912.25 816.35 912.15 837.6 912 855.15 908.2 872.75 904.4 878.45 896.95
L 882.15 886.05
Q 885.6 875.65 890.2 861.45 894.75 847.25 898.3 835.2
L 901.05 825.25 902.15 819.35
Q 902.25 816.4 900.25 808.9 898.25 801.45 894.75 791.35 891.25 781.25 886.75 770.55 883.9 763.65 880.85 757.2 877.8 750.75 874.7 745.25 873.55 743.2 872.4 741.35 871.25 739.45 870.15 737.8
L 865.55 735.05 858.45 734.1 848.85 735 836.7 737.7
Q 810 744.9 778.7 758.65 Z"/>
</g>

<g id="Symbol_27_0_Layer0_0_FILL">
<path fill="#0075c9" stroke="none" d="
M 943.65 840.8
Q 942.6 838.75 942.2 837.35 941.45 834.6 941.05 831.85 940.7 829.05 940.15 826.35
L 939.65 824.85 939.1 824.45
Q 938.5 824.55 938.05 825.8 937.65 827 937.65 828.25 937.8 831.4 938.75 835.75 939.7 840.1 941.85 843.7 943.95 847.3 947.65 848.15 951.1 848.6 953.45 845.55 955.8 842.55 957.1 838.5 958.4 834.45 958.75 831.75 958.9 830.75 958.95 828.85 959 826.95 958.7 825.25 958.4 823.5 957.45 822.95
L 957.25 822.9
Q 957.1 822.9 957.05 822.95 956.7 823.3 956.6 823.8
L 956.45 824.5
Q 956.2 826.4 956.15 828.4 956.15 830.4 955.8 832.35 955.5 834.05 954.65 836.85 953.8 839.65 952.5 842.15 951.2 844.6 949.5 845.25 947.75 845.7 946.2 844.3 944.7 842.85 943.65 840.8 Z"/>
</g>

<g id="Symbol_46_0_Layer0_0_FILL">
<path fill="#82bc00" stroke="none" d="
M 957.25 636.4
L 900.4 636.15 928.35 847.5 957.25 636.4 Z"/>
</g>

<g id="Symbol_47_0_Layer0_0_FILL">
<path fill="#82bc00" stroke="none" d="
M 1015.35 632
L 973.55 634.3 989 819.4 1015.35 632 Z"/>
</g>

<g id="Symbol_48_0_Layer0_0_FILL">
<path fill="#0075c9" stroke="none" d="
M 826.75 19.9
L 827.1 20.3
Q 829.3 21.95 830.85 23.6
L 832.55 25.4
Q 859.85 53 878.75 89.15 897.7 125.35 910.4 162.4 919.25 188.25 919.65 219.35 920.05 250.45 913.75 281.1 907.45 311.75 896.1 336.2 894.4 339.9 891.65 345.45 888.85 351 885.55 356.65 882.95 361 880.3 364.4 877.7 367.85 875.2 369.5 874.6 369.9 874 370.2 873.45 370.55 872.9 370.75 872.35 371 871.9 371.15 871.4 371.35 870.95 371.4 870.7 371.7 870.45 371.9 870.2 372.15 869.95 372.3
L 869.6 372.65
Q 869.3 372.9 869.1 373.2 868.85 372.8 868.5 372.15 868.2 371.5 867.95 370.85 867.8 370.75 867.7 370.65 867.6 370.6 867.5 370.45 866.65 369.55 866.15 367.95 865.65 366.4 865.45 364.35 865.45 364.2 865.4 364.1 865.4 363.95 865.4 363.8 865.25 363.4 865.15 363.05 865.05 362.65 864.9 362.25 863.45 355.8 862.7 349.55 861.9 343.3 861.6 339.6 861.45 338.6 861.35 337.65 861.25 336.7 861.1 335.75 858.8 325.45 855.6 315.35 852.35 305.25 848.45 294.75 847.7 293.9 846.75 293.8 845.8 293.7 844.6 294.65
L 844.05 295.6
Q 843.7 296.3 843.4 296.9 842.1 294.95 840.95 293.65 839.75 292.35 838.9 292.05 838.35 291.9 838.1 292.1 837.9 292.3 838.05 292.8 838.35 293.55 838.95 294.25
L 839.75 295.2
Q 844.7 302.95 847.95 313.45 851.25 323.9 852.9 332.85 854.05 339.4 855.4 348.2 856.75 356.95 858.9 365.35 861.05 373.75 864.75 379.15 865.75 380.5 866.7 381.1 867.7 381.7 868.7 381.65 868.75 382.3 869 382.85 869.3 383.4 869.8 383.8 871.85 384.9 874.65 382 877.45 379.1 879.85 375.35 882.25 371.55 883.1 370.05 909.6 327.95 919.95 280.85 930.3 233.8 921.15 184.7 915.8 156.7 905.2 129.45 894.6 102.25 878.3 78.2 871.05 67.4 864.1 56.15 857.15 44.95 849.8 34.3 845.65 28.5 840.25 23.8 834.9 19.1 828.75 15.3 826.8 14 825.85 14.05 824.9 14.1 824.65 15.7 824.8 16.8 825.45 17.95 826.1 19.1 826.45 19.5 826.6 19.7 826.75 19.9 Z"/>

<path fill="#82bc00" stroke="none" d="
M 819.95 20.15
Q 819.6 20.7 819.5 21.25 818.25 21.3 816.85 22.35 815.4 23.35 814 25.55 812.85 27.35 811.7 29.2 810.5 31 809.4 32.85
L 808.95 33.55
Q 808.6 34.1 808.65 34.6 808 35.6 807.25 36.75
L 806.35 38.25
Q 794.5 57.55 785.85 77.85 777.2 98.1 769.25 118.75 767.85 122.4 766.75 126.05 765.65 129.65 764 133.1 761.25 130.6 758.4 128.55 755.5 126.55 754.15 126.95 753.95 127.05 753.65 127.3 753.35 127.55 753.35 127.85 753.45 129.15 754.85 130.2 756.2 131.3 756.85 131.75 758.1 132.9 759.35 134.15 760.6 135.4 761.85 136.8 761.75 136.95 761.65 137.1 761.55 137.2 761.45 137.35
L 760.75 138.05
Q 760.2 138.55 760.15 139.2 761.1 139.4 761.95 139.35 762.85 139.25 763.65 138.9 768.55 144.8 773.05 151.4 777.6 157.95 781.45 163.65 802.25 194.25 818.65 226.55 835.05 258.8 848.1 293.85
L 848.45 294.75
Q 852.35 305.25 855.6 315.35 858.8 325.45 861.1 335.75 862.6 342.4 863.65 349.25 864.75 356.1 865.35 363.4
L 865.4 363.8
Q 865.4 363.95 865.4 364.1 865.45 364.2 865.45 364.35 865.65 366.4 866.15 367.95 866.65 369.55 867.5 370.45 867.6 370.6 867.7 370.65 867.8 370.75 867.95 370.85 868.5 371.3 869.25 371.45 870 371.6 870.95 371.4 871.4 371.35 871.9 371.15 872.35 371 872.9 370.75 873.45 370.55 874 370.2 874.6 369.9 875.2 369.5 877.7 367.85 880.3 364.4 882.95 361 885.55 356.65 888.85 351 891.65 345.45 894.4 339.9 896.1 336.2 907.45 311.75 913.75 281.1 920.05 250.45 919.65 219.35 919.25 188.25 910.4 162.4 897.7 125.35 878.75 89.15 859.85 53 832.55 25.4
L 830.85 23.6
Q 829.3 21.95 827.1 20.3 825.45 19.1 823.8 18.65 822.15 18.15 820.9 19.05 820.3 19.6 819.95 20.15 Z"/>
</g>

<g id="Symbol_56_0_Layer0_0_FILL">
<path fill="#82bc00" stroke="none" d="
M 1031.3 268.85
Q 1028.65 247.1 1017.1 232.6 1005.55 218.1 984.95 216.6 972.05 216.2 961.7 222.8 951.35 229.35 943.55 239.5 935.75 249.65 930.4 260.1 924.85 271.55 918.35 296.25 911.85 320.95 906.9 343.3
L 901.05 370 904 374.35 913.2 379.15
Q 925.45 384.25 940.8 388.15 956.1 392 965.2 392.5 974.1 392.65 988.7 389.3 1003.3 385.95 1016.15 380.5 1029 375 1032.75 368.75
L 1033.7 344.25
Q 1033.95 325.9 1033.45 304.7 1032.95 283.55 1031.3 268.85 Z"/>
</g>

<g id="Symbol_39_0_Layer0_0_FILL">
<path fill="#82bc00" stroke="none" d="
M 1051.9 298
Q 1043.95 305.65 1042.2 316.25 1040.45 326.85 1044.65 335.9 1048.9 344.9 1058.95 347.7 1063.6 345.65 1073.55 338.2 1083.5 330.75 1091.75 319.05
L 1090 317.5 1085.15 314.1
Q 1078.8 309.75 1069.65 304.9 1060.45 300.05 1051.9 298 Z"/>
</g>

<g id="Symbol_23_0_Layer0_0_FILL">
<path fill="#82bc00" stroke="none" d="
M 793 728.5
L 804.5 735.2
Q 815.8 741.55 835.15 750 854.5 758.4 879 765
L 889.25 742.3
Q 898.45 720.9 910.3 692.8 922.15 664.75 931.1 643.45
L 940.5 621 915.1 609.95 793 728.5 Z"/>
</g>

<g id="Symbol_97_0_Layer0_0_FILL">
<path fill="#82bc00" stroke="none" d="
M 1045.1 289.1
Q 1017.8 286.95 992.85 286.7 967.9 286.45 958.25 292.05 960.3 313.25 964.1 355.6 967.95 398 970.15 443.65 972.4 489.3 969.75 520.4 966.75 550.55 960.55 572.7 954.4 594.85 945.5 602.9 936.6 610.9 925.35 598.65 913.55 586.75 906.25 592.95 898.9 599.1 903.15 613.3 907.45 627.5 930.6 639.65 954.7 650.9 981.05 646.2 1007.45 641.55 1031.5 622.25 1055.5 602.95 1072.55 570.25 1079.4 557.15 1088.75 535.4 1098.15 513.7 1106.5 486.4 1114.85 459.1 1118.55 429.3 1121.7 402.3 1119.8 376.55 1117.9 350.75 1110.4 328.75 1102.9 306.75 1089.15 291.15 1072.4 291.2 1045.1 289.1 Z"/>
</g>

<g id="Symbol_92_0_Layer0_0_FILL">
<path fill="#0075c9" stroke="none" d="
M 1010.6 309.3
L 1009.6 307.45 1008.25 305.8 1006.65 304.45 1004.75 303.45 1002.75 302.85 1000.6 302.65 998.5 302.85 996.5 303.45 994.6 304.45 993 305.8 991.65 307.45 990.65 309.3 990 311.35 989.8 313.45 990 315.55 990.65 317.6 991.65 319.45 993 321.1 994.6 322.45 996.5 323.45 998.5 324.05 1000.6 324.25 1002.75 324.05 1004.75 323.45 1006.65 322.45 1008.25 321.1 1009.6 319.45 1010.6 317.6 1011.25 315.55 1011.45 313.45 1011.25 311.35 1010.6 309.3 Z"/>
</g>

<g id="Symbol_42_0_Layer0_0_FILL">
<path fill="#82bc00" stroke="none" d="
M 1002.55 287.3
Q 993.7 287.75 989.4 294.25 985.1 300.8 984.25 308.95
L 1019.7 309.2 1018.65 303.5
Q 1017.5 298.2 1013.85 292.9 1010.15 287.65 1002.55 287.3 Z"/>
</g>

<g id="Symbol_73_0_Layer0_0_FILL">
<path fill="#0075c9" stroke="none" d="
M 1005.1 528.7
L 1004.65 530.05
Q 1002.4 538.6 1001.4 547.9 1000.4 557.25 999.5 566.2 998.3 576.65 998.35 587.7 998.45 598.75 999.8 609.6 1001.2 620.45 1004.05 630.35 1004.1 630.5 1004.15 630.6
L 1004.25 630.9 1004.25 631 1003.9 631.1
Q 998.45 632.15 990.45 633.1 982.5 634.05 973.3 634.3
L 973.25 634.55
Q 973.35 634.7 973.5 634.8 973.6 634.95 973.75 635.05 973.6 635.15 973.55 635.3 973.45 635.5 973.45 635.75 974.2 636.9 976.05 637.5 977.95 638.05 979.6 638.25
L 981.4 638.4
Q 984.55 638.6 988.5 638.3 992.5 637.95 996.9 637.1 1001.25 636.25 1005.55 635 1005.8 636.3 1006.15 637.7 1006.55 639.05 1007 640.5 1008.65 645.55 1010.95 650.75 1013.25 655.9 1015.8 660.8 1016.85 663.2 1018.05 665.5 1019.25 667.85 1020.55 670.1 1021.6 671.75 1022.7 673.35 1023.8 675 1024.9 676.6 1025.9 677.65 1026.9 678.7 1027.9 679.75 1028.9 680.85 1029 680.9 1029.05 680.95 1029.15 681.05 1029.25 681.1 1031.05 682.6 1032.85 684 1034.65 685.45 1036.3 686.95 1036.4 687.05 1036.5 687.15
L 1036.7 687.35 1036.65 687.15
Q 1038.2 688.2 1039.6 689 1040.95 689.75 1041.9 690.2 1045.75 692.05 1050.3 693.05 1054.9 694.05 1059.6 694.55 1064.35 695.05 1068.6 695.35 1081.95 696.35 1095.6 692.55 1109.3 688.75 1119.65 679.95 1129.95 671.1 1133.2 657.05 1133.6 655.2 1134.2 652.45 1134.8 649.65 1134.85 646.95 1134.9 644.25 1133.7 642.65
L 1133.5 642.5
Q 1133.35 642.4 1133.2 642.3 1132.5 642.05 1132.1 642.2 1131.65 642.3 1131.45 642.7 1131.3 647 1130.9 650.9 1130.5 654.8 1129.85 658.25 1127.85 664.9 1122.45 671.55 1117.1 678.2 1107.25 683.3 1097.4 688.4 1082 690.5 1064.35 692.55 1051.8 689.35 1039.25 686.2 1031.3 679.05 1030.65 678.45 1030 677.8 1029.35 677.2 1028.7 676.55 1028.55 676.35 1028.4 676.2 1028.25 676.05 1028.1 675.85
L 1027.95 675.65
Q 1025.4 671.1 1022.6 666.15 1019.8 661.2 1016.95 655.4 1014.05 649.6 1011.25 642.5 1011.25 642.2 1011.2 641.95 1011.15 641.65 1011.1 641.4 1011 640.95 1010.9 640.55 1010.75 640.2 1010.75 640.05 1010.35 638.45 1010 636.9 1009.65 635.35 1009.3 633.8 1009.2 633.35 1009.1 632.9
L 1008.9 632
Q 1008.75 631.4 1008.65 630.8 1008.5 630.25 1008.35 629.65
L 1008.3 629.35
Q 1007.65 626.4 1007.1 623.5 1006.5 620.6 1006 617.7 1004.35 608.65 1003.45 599.45 1002.55 590.2 1002.7 580.35 1002.85 567.8 1003.5 554.9 1004.15 542 1006.4 529.85 1006.8 528.35 1007.15 527.6 1007.45 526.85 1006.25 527.15 1005.45 527.7 1005.1 528.7
M 1062.85 648.7
Q 1059.75 649.65 1056.65 651 1052.8 652.65 1049.55 654.5 1046.3 656.35 1042.95 658.85 1039.9 661.05 1037.6 663.1 1035.3 665.2 1033.2 668.4 1032.85 668.9 1032 670.2 1031.1 671.45 1030.45 672.75 1035.55 666.5 1042.4 661.85 1049.25 657.15 1057.05 654.45 1060.35 653.05 1063.8 651.95 1067.25 650.85 1070.7 650 1076.75 648.45 1083.35 648.2 1089.95 647.95 1096.55 648.9 1103.1 649.85 1109.05 651.95 1112.25 653.05 1115.25 654.25 1118.2 655.4 1121.1 657.15 1121.85 657.6 1122.8 658.15 1123.75 658.7 1124.55 658.95 1124.7 659.05 1124.95 659.1 1125.2 659.2 1125.25 658.95 1125.15 658.45 1124.6 658.05 1124.05 657.6 1123.75 657.45 1120.1 654.75 1115.95 652.7 1111.85 650.65 1107.45 649.05
L 1107.3 649
Q 1107.15 648.95 1107.05 648.9 1106.7 648.75 1106.3 648.6
L 1105.8 648.45
Q 1096.9 645.65 1087.55 645.15 1078.25 644.6 1069.2 646.85 1065.95 647.7 1062.85 648.7
M 941.8 504.3
Q 942.1 504.2 942.45 504.1 943.4 503.9 944 503.4 944.65 502.95 943.4 502.1
L 943.15 502.05
Q 942.9 502 942.7 502 942.05 502.15 941.25 502.3
L 940.1 502.55
Q 939.85 502.55 939.6 502.6 939.35 502.6 939.05 502.65 935.3 503.4 930.95 506.95 926.65 510.5 922.85 514.9 919.1 519.25 917.05 522.55
L 916.85 523
Q 916.65 523.3 916.5 523.65 916.05 524.25 915.65 524.95
L 915.1 525.9
Q 910.6 534.05 908.15 543.3 905.65 552.5 905.75 562.05 905.8 571.6 908.95 580.7 909.55 582.4 910.2 583.4 910.8 584.4 911.45 584.65 911.25 583.5 911.05 582.35 910.85 581.2 910.65 580.05
L 910.4 578.3
Q 909.8 574.25 909.55 570.35 909.25 566.45 909.3 562.7 909.3 561.65 909.35 560.55 909.35 559.5 909.45 558.5 909.7 554.6 910.35 551.05 911 547.5 912.1 544.25
L 912.2 543.85
Q 912.3 543.7 912.35 543.5 914.25 538.05 916.4 533.55 918.5 529.1 920.95 525.35 923.85 520.9 927.35 517.3 930.85 513.75 935 510.9 936.1 509.9 937.15 509.1 938.25 508.35 939.25 507.95 939.8 507.75 940.35 507.5 940.9 507.25 941 506.85 941.05 506.45 940.2 505.9
L 939.95 505.85
Q 940.3 505.5 940.6 505.2 940.9 504.85 941.15 504.55 941.45 504.4 941.8 504.3
M 1227.85 541.6
Q 1227.5 540.75 1226.75 542.25 1226.45 543.05 1226.2 544.15 1225.9 545.25 1226.75 545.8 1227.65 545.35 1227.9 543.9 1228.15 542.4 1227.85 541.6 Z"/>

<path fill="#FFFFFF" stroke="none" d="
M 946.4 504.5
Q 940.1 507.4 935 510.9 930.85 513.75 927.35 517.3 923.85 520.9 920.95 525.35 918.5 529.1 916.4 533.55 914.25 538.05 912.35 543.5 912.3 543.7 912.2 543.85
L 912.1 544.25
Q 911 547.5 910.35 551.05 909.7 554.6 909.45 558.5 909.35 559.5 909.35 560.55 909.3 561.65 909.3 562.7 909.25 566.45 909.55 570.35 909.8 574.25 910.4 578.3
L 910.65 580.05
Q 910.85 581.2 911.05 582.35 911.25 583.5 911.45 584.65 912.95 592.5 915.35 600.45 917.7 608.45 920.75 616.2 924 623.8 932.2 627.85 940.4 631.95 951.25 633.3 962.1 634.7 973.3 634.3 982.5 634.05 990.45 633.1 998.45 632.15 1003.9 631.1
L 1004.25 631 1004.25 630.9 1004.15 630.6
Q 1004.1 630.5 1004.05 630.35 1001.2 620.45 999.8 609.6 998.45 598.75 998.35 587.7 998.3 576.65 999.5 566.2 1000.4 557.25 1001.4 547.9 1002.4 538.6 1004.65 530.05
L 1005.1 528.7
Q 1005.45 527.7 1006.25 527.15 1007.45 526.85 1007.15 527.6 1006.8 528.35 1006.4 529.85 1004.15 542 1003.5 554.9 1002.85 567.8 1002.7 580.35 1002.55 590.2 1003.45 599.45 1004.35 608.65 1006 617.7 1006.5 620.6 1007.1 623.5 1007.65 626.4 1008.3 629.35
L 1008.35 629.65
Q 1008.5 630.25 1008.65 630.8 1008.75 631.4 1008.9 632
L 1009.1 632.9
Q 1009.2 633.35 1009.3 633.8 1009.65 635.35 1010 636.9 1010.35 638.45 1010.75 640.05 1010.75 640.2 1010.9 640.55 1011 640.95 1011.1 641.4 1011.15 641.65 1011.2 641.95 1011.25 642.2 1011.25 642.5 1014.05 649.6 1016.95 655.4 1019.8 661.2 1022.6 666.15 1025.4 671.1 1027.95 675.65
L 1028.1 675.85
Q 1028.25 676.05 1028.4 676.2 1028.55 676.35 1028.7 676.55 1029.35 677.2 1030 677.8 1030.65 678.45 1031.3 679.05 1039.25 686.2 1051.8 689.35 1064.35 692.55 1082 690.5 1097.4 688.4 1107.25 683.3 1117.1 678.2 1122.45 671.55 1127.85 664.9 1129.85 658.25 1130.5 654.8 1130.9 650.9 1131.3 647 1131.45 642.7 1132.05 623.25 1128.9 599.45 1125.75 575.65 1120.35 552.7 1114.95 529.75 1108.85 512.9 1102.75 496.1 1097.4 490.65 1091.25 485.15 1077.5 483.1 1063.75 481.05 1046.05 481.85 1028.35 482.65 1010.35 485.65 992.35 488.6 977.7 493.2 968.25 496.2 960.45 498.9 952.7 501.6 946.4 504.5
M 1056.65 651
Q 1059.75 649.65 1062.85 648.7 1065.95 647.7 1069.2 646.85 1078.25 644.6 1087.55 645.15 1096.9 645.65 1105.8 648.45
L 1106.3 648.6
Q 1106.7 648.75 1107.05 648.9 1107.15 648.95 1107.3 649
L 1107.45 649.05
Q 1111.85 650.65 1115.95 652.7 1120.1 654.75 1123.75 657.45 1124.05 657.6 1124.6 658.05 1125.15 658.45 1125.25 658.95 1125.2 659.2 1124.95 659.1 1124.7 659.05 1124.55 658.95 1123.75 658.7 1122.8 658.15 1121.85 657.6 1121.1 657.15 1118.2 655.4 1115.25 654.25 1112.25 653.05 1109.05 651.95 1103.1 649.85 1096.55 648.9 1089.95 647.95 1083.35 648.2 1076.75 648.45 1070.7 650 1067.25 650.85 1063.8 651.95 1060.35 653.05 1057.05 654.45 1049.25 657.15 1042.4 661.85 1035.55 666.5 1030.45 672.75 1031.1 671.45 1032 670.2 1032.85 668.9 1033.2 668.4 1035.3 665.2 1037.6 663.1 1039.9 661.05 1042.95 658.85 1046.3 656.35 1049.55 654.5 1052.8 652.65 1056.65 651 Z"/>
</g>
</defs>



<g transform="matrix( -0.6041259765625, -0.2832183837890625, -0.2832183837890625, 0.6041259765625, 1503.2,504.7) ">
<g transform="matrix( 1, 0, 0, 1, 0,0) ">
<use xlink:href="#Symbol_94_0_Layer0_0_FILL"/>
</g>
</g>

<g transform="matrix( -0.6512603759765625, -0.14508056640625, -0.14508056640625, 0.6512603759765625, 1468.7,432.2) ">
<g transform="matrix( 1, 0, 0, 1, 0,0) ">
<use xlink:href="#Symbol_31_0_Layer0_0_FILL"/>
</g>
</g>

<g transform="matrix( -0.6876373291015625, -0.1092529296875, -0.1140899658203125, 0.6584320068359375, 1641.55,382.2) ">
<g transform="matrix( 1, 0, 0, 1, 0,0) ">
<use xlink:href="#Symbol_53_0_Layer0_0_FILL"/>
</g>
</g>

<g transform="matrix( -0.6335296630859375, -0.210235595703125, -0.210235595703125, 0.6335296630859375, 1598,520.3) ">
<g transform="matrix( 1, 0, 0, 1, 0,0) ">
<use xlink:href="#Symbol_35_0_Layer0_0_FILL"/>
</g>
</g>

<g transform="matrix( -0.6335296630859375, -0.210235595703125, -0.182373046875, 0.5496063232421875, 1564.25,547.45) ">
<g transform="matrix( 1, 0, 0, 1, 0,0) ">
<use xlink:href="#Symbol_28_0_Layer0_0_FILL"/>
</g>
</g>

<g transform="matrix( -0.6671295166015625, 0.0225677490234375, 0.0225677490234375, 0.6671295166015625, 1535.75,282.75) ">
<g transform="matrix( 1, 0, 0, 1, 0,0) ">
<use xlink:href="#Symbol_29_0_Layer0_0_FILL"/>
</g>
</g>

<g transform="matrix( -0.5673980712890625, -0.229644775390625, -0.229644775390625, 0.5673980712890625, 1553.65,554.55) ">
<g transform="matrix( 1, 0, 0, 1, 0,0) ">
<use xlink:href="#Symbol_30_0_Layer0_0_FILL"/>
</g>
</g>

<g transform="matrix( -0.6675567626953125, -0.0045318603515625, -0.0045318603515625, 0.6675567626953125, 1600.2,254.85) ">
<g transform="matrix( 1, 0, 0, 1, 0,0) ">
<use xlink:href="#Symbol_52_0_Layer0_0_FILL"/>
</g>
</g>

<g transform="matrix( -0.667572021484375, 0, 0, 0.667572021484375, 1647.7,277.7) ">
<g transform="matrix( 1, 0, 0, 1, 0,0) ">
<use xlink:href="#Symbol_95_0_Layer0_0_FILL"/>
</g>
</g>

<g transform="matrix( -0.667388916015625, 0.016937255859375, 0.016937255859375, 0.667388916015625, 1422.9,249.25) ">
<g transform="matrix( 1, 0, 0, 1, 0,0) ">
<use xlink:href="#Symbol_96_0_Layer0_0_FILL"/>
</g>
</g>

<g transform="matrix( -0.57781982421875, 0.126129150390625, 0.0813446044921875, 0.818634033203125, 1331,12.85) ">
<g transform="matrix( 1, 0, 0, 1, 0,0) ">
<use xlink:href="#Symbol_27_0_Layer0_0_FILL"/>
</g>
</g>

<g transform="matrix( -0.1397247314453125, 0.002166748046875, 0.002166748046875, 0.1397247314453125, 1165.15,313.2) ">
<g transform="matrix( 1, 0, 0, 1, 0,0) ">
<use xlink:href="#Symbol_46_0_Layer0_0_FILL"/>
</g>
</g>

<g transform="matrix( -0.131134033203125, -0.048248291015625, -0.048248291015625, 0.131134033203125, 1193.45,369.15) ">
<g transform="matrix( 1, 0, 0, 1, 0,0) ">
<use xlink:href="#Symbol_47_0_Layer0_0_FILL"/>
</g>
</g>

<g transform="matrix( -0.129791259765625, 0.057952880859375, 0.057952880859375, 0.129791259765625, 1136.6,322.5) ">
<g transform="matrix( 1, 0, 0, 1, 0,0) ">
<use xlink:href="#Symbol_48_0_Layer0_0_FILL"/>
</g>
</g>

<g transform="matrix( -0.119171142578125, -0.07757568359375, -0.07757568359375, 0.119171142578125, 1182.45,406.35) ">
<g transform="matrix( 1, 0, 0, 1, 0,0) ">
<use xlink:href="#Symbol_56_0_Layer0_0_FILL"/>
</g>
</g>

<g transform="matrix( -0.1367034912109375, -0.0391387939453125, -0.0391387939453125, 0.1367034912109375, 1194.75,357.7) ">
<g transform="matrix( 1, 0, 0, 1, 0,0) ">
<use xlink:href="#Symbol_39_0_Layer0_0_FILL"/>
</g>
</g>

<g transform="matrix( -0.099822998046875, -0.092376708984375, 0.0892333984375, -0.1455535888671875, 1080.8,594.55) ">
<g transform="matrix( 1, 0, 0, 1, 0,0) ">
<use xlink:href="#Symbol_23_0_Layer0_0_FILL"/>
</g>
</g>

<g transform="matrix( -0.13629150390625, -0.030792236328125, -0.030792236328125, 0.13629150390625, 1188.4,363.4) ">
<g transform="matrix( 1, 0, 0, 1, 0,0) ">
<use xlink:href="#Symbol_97_0_Layer0_0_FILL"/>
</g>
</g>

<g transform="matrix( -0.1397857666015625, 0.0275726318359375, 0.0262603759765625, 0.15374755859375, 1174.5,287.9) ">
<g transform="matrix( 1, 0, 0, 1, 0,0) ">
<use xlink:href="#Symbol_92_0_Layer0_0_FILL"/>
</g>
</g>

<g transform="matrix( -0.1328887939453125, 0.051422119140625, 0.06005859375, 0.1439361572265625, 1157.3,267.25) ">
<g transform="matrix( 1, 0, 0, 1, 0,0) ">
<use xlink:href="#Symbol_42_0_Layer0_0_FILL"/>
</g>
</g>

<g transform="matrix( 0.38653564453125, 0.5450592041015625, -0.5450592041015625, 0.38653564453125, 958.1,-132.05) ">
<g transform="matrix( 1, 0, 0, 1, 0,0) ">
<use xlink:href="#Symbol_73_0_Layer0_0_FILL"/>
</g>
</g>
</svg>
