
<svg xmlns="http://www.w3.org/2000/svg" version="1.1" xmlns:xlink="http://www.w3.org/1999/xlink" preserveAspectRatio="none" x="0px" y="0px" width="760px" height="880px" viewBox="614 10 760 880">
<defs>


<g id="Symbol_6_0_Layer0_0_FILL">
<path fill="#82bc00" stroke="none" d="
M 955 467
Q 954.95 467.05 954.95 467.15 954.95 468.65 955.45 470.45 955.9 472.2 956.7 473.5 957.55 474.8 958.55 474.85 960.2 474.85 961.85 474.5 963.5 474.2 964.8 473.8 966.15 473.4 966.8 473.15 966.85 473.15 966.85 473.1 966.9 473.1 966.95 473.1
L 968.45 473.25
Q 969.65 473.35 971.25 473.45 972.9 473.55 974.45 473.55 974.55 473.55 974.6 473.6 974.65 473.65 974.65 473.75
L 975 476.25
Q 975.25 478.1 975.55 480.25 975.9 482.45 976.15 484.15
L 976.4 486.25
Q 976.6 486.25 976.8 486.3 977 486.3 977.2 486.3
L 977.3 484.15
Q 977.4 482.45 977.5 480.2 977.6 478 977.7 476.15
L 977.8 473.65
Q 977.8 473.55 977.85 473.5 977.9 473.45 978 473.45 982.55 473.1 985.4 470.4 988.2 467.7 988.75 463.75 989.25 459.8 987 455.65 987 455.6 987 455.55 987 455.5 987.05 455.45
L 988.75 453.75
Q 988.95 453.55 988.9 453.3 988.85 453.1 988.6 453 988.15 452.85 987.7 452.7 987.25 452.5 986.6 452.3
L 986.4 452.2 986.05 451.95
Q 985.55 451.6 984.7 451.3 983.85 451 982.7 451.1 980.55 451.5 979.55 453 978.55 454.5 977.95 456.2 977.4 457.9 976.5 458.9 975.55 459.85 973.8 461.3 972 462.75 970.05 464.25 968.1 465.8 966.55 467 964.95 468.2 964.3 468.65 964.15 468.75 964.25 468.85 964.3 468.95 964.45 469 965.3 469.2 966.8 469.45 968.25 469.65 969.65 469.85
L 971.45 470.05
Q 971.9 470.1 972.05 470.35 972.2 470.6 972.05 470.8 971.9 471 971.5 471 969.5 470.8 967.4 470.45 965.25 470.15 963.5 469.7 960.85 469 958.9 468.25 956.9 467.55 955.15 466.95 955.05 466.95 955 467 Z"/>
</g>

<g id="Symbol_7_0_Layer0_0_FILL">
<path fill="#FFFFFF" stroke="none" d="
M 1336.05 565.75
Q 1325.55 541.3 1309.5 520 1293.45 498.7 1270.9 480.6 1253.5 473.35 1234.6 461.75 1215.75 450.15 1194.95 433.55 1158.6 403.8 1132.1 373.4 1105.65 343 1084.5 316.85 1063.35 290.7 1043 273.75 1022.65 256.75 998.6 253.85 997.45 253.75 996.2 253.65 995 253.55 993.8 253.55 993.15 253.5 992.55 253.5 991.95 253.5 991.3 253.5 959.55 254.5 927.35 274.3 895.15 294.05 858.65 320.1 822.2 346.1 777.65 365.85 733.1 385.65 676.65 386.65 637.3 386.25 609.55 378.7 581.85 371.15 557.05 361.15 532.25 351.2 501.65 343.65 471.1 336.05 426.1 335.65 319.7 339.05 255 407.7 190.3 476.35 157.4 569.65 124.5 662.95 113.4 740.3
L 105.25 803.55 103.4 824.55 103.05 838.5
Q 103.15 845.3 107.35 850.25 111.5 855.25 118.25 856.05 121 856.3 124.2 855.1 127.45 853.9 130.1 850.65 132.75 847.35 133.9 841.5 137.7 798.4 146.1 757.8 154.55 717.25 164.05 684.2 173.6 651.2 180.75 630.75
L 189.05 607.6
Q 190.1 604.75 191.95 601.85 193.75 598.85 196.15 597.15 198.55 595.45 201.25 596.4 205.05 597.95 204.85 601 204.7 604.05 203.65 608.35 200.8 623.9 197.9 644.25 195 664.65 193 691.3 191 718 190.95 752.5 191.55 814.5 205.2 870.3 218.8 926.1 238.3 972.05 257.75 1018.05 275.8 1050.6 293.85 1083.15 303.25 1098.7 306.45 1104.15 311.8 1107.2 317.15 1110.25 323.5 1110.3
L 454.35 1110.3
Q 461.75 1110.15 466.85 1105.4 471.95 1100.65 472.6 1093.3 473.45 1074.05 479.6 1043.4 485.75 1012.8 501.35 981.45 516.95 950.1 546.2 928.65 575.5 907.2 622.55 906.3 677.5 907.3 710.9 930.3 744.35 953.3 761.95 986.5 779.55 1019.65 787 1051.15 794.4 1082.6 797.35 1100.55 798.75 1107 803.65 1111 808.5 1115 815.15 1115.1
L 944.95 1115.1
Q 952.4 1114.9 957.25 1109.95 962.15 1105 962.35 1097.5 962.2 1061.35 966.65 1025.4 971.15 989.45 981.95 958.7 992.75 927.95 1011.6 907.35 1024.4 893.9 1041.95 893.15 1059.5 892.45 1083.1 901.85 1086.9 903.35 1091.1 904.9 1095.25 906.5 1099.7 908.2 1102.15 908.65 1104.4 909 1106.65 909.4 1108.65 909.75 1122.45 912.1 1136.1 913.9 1149.75 915.7 1163.5 915.75 1177.25 915.8 1191.45 912.95 1221.2 906.7 1246.05 894.95 1270.85 883.15 1291.7 865.45 1312.5 847.75 1330.3 823.75 1340.5 810.05 1346.65 797.6 1352.85 785.15 1356.4 772.25 1359.95 759.35 1362.2 744.35 1362.25 743.75 1362.35 743.2
L 1362.55 742.05
Q 1362.65 737.7 1362.9 734
L 1363.25 729.05
Q 1365.05 713.65 1364.35 699.95 1363.6 686.3 1361.55 672.7 1359.5 659.15 1357.2 644.1 1354.15 622.8 1348.95 603.25 1343.75 583.65 1336.05 565.75 Z"/>
</g>

<g id="Symbol_8_0_Layer0_0_FILL">
<path fill="#FFFFFF" stroke="none" d="
M 1465.55 478.95
Q 1466.15 473.85 1463.5 470.2 1460.85 466.55 1456.45 465.2 1452.05 463.85 1447.4 465.55 1436 470.25 1421.05 476.3 1406.1 482.4 1388.35 487.4 1366.75 493.45 1344.9 494.5 1323.05 495.55 1299.85 490.1 1276.7 484.65 1251.05 471.15 1247.3 469.7 1244.45 468.45 1241.6 467.2 1240.05 466.3 1221.55 456.15 1201.35 449.15 1181.15 442.1 1160.9 438.85 1143.2 436.05 1127.7 435.95 1112.25 435.9 1096.9 437.95 1081.5 439.95 1064.05 443.55 1046.3 447.1 1033.8 453.5 1021.35 459.9 1010.85 469.3 1000.35 478.65 988.65 491.2 982.15 498 974.2 508.15 966.25 518.25 959.65 529.2 953.1 540.15 950.7 549.4 948.65 557.8 946.7 566.3 944.75 574.8 942.9 583.4 940.3 595.35 937.95 607.3 935.65 619.25 933.75 631.1 931.15 646.7 928 662.65 924.85 678.65 922.7 694.7 920.55 710.75 921 726.6 921.4 740.4 922.2 751.9 923.05 763.4 926.05 774.5 929 785.55 935.85 798.05
L 936 798.35
Q 946.6 817.3 958.85 830.6 971.1 843.9 985.85 854.6 1000.6 865.25 1018.75 876.3 1023.8 879.4 1028.55 881.75 1033.25 884.1 1038.2 886.45 1041.05 887.3 1044.55 888.65 1048.05 890.05 1051.05 891.3 1054.05 892.55 1055.3 893.15
L 1056.3 893.55
Q 1057 893.9 1058 894.35 1063.75 895.45 1070 897.3 1076.3 899.2 1083.1 901.85 1106.65 911.2 1140.6 922.7 1174.55 934.2 1215.35 944 1256.2 953.75 1300.45 957.9 1344.7 962 1388.95 956.6 1465.15 946.5 1525.5 915.05 1585.8 883.6 1631.2 832.45 1676.6 781.3 1707.9 712.1 1724.45 675.15 1735.25 636.8 1746 598.4 1752.3 561.9 1758.55 525.4 1761.65 494 1764.75 462.6 1766 439.6 1766.2 430.95 1761.3 427.05 1756.4 423.1 1749.85 423.75 1743.25 424.4 1738.5 429.45 1717.05 454.2 1688.35 487.3 1659.7 520.4 1626.5 549.4 1593.3 578.4 1558.3 590.75 1523.35 603.15 1489.4 586.45 1477.35 579.75 1471.35 567 1465.3 554.2 1463.6 538.45 1461.9 522.7 1462.8 507.05 1463.75 491.4 1465.55 478.95 Z"/>
</g>

<g id="Symbol_9_0_Layer0_0_FILL">
<path fill="#0075c9" stroke="none" d="
M 1045.3 556
Q 1044.2 556.05 1043.3 556.55 1042.4 557.1 1041.85 558 1041.3 558.9 1041.3 560.05 1041.3 561.15 1041.85 562.05 1042.4 562.95 1043.3 563.5 1044.2 564 1045.3 564.05 1046.45 564 1047.35 563.5 1048.25 562.95 1048.75 562.05 1049.3 561.15 1049.3 560.05 1049.3 558.9 1048.75 558 1048.25 557.1 1047.35 556.55 1046.45 556.05 1045.3 556 Z"/>
</g>

<g id="Symbol_10_0_Layer0_0_FILL">
<path fill="#0075c9" stroke="none" d="
M 1005.65 543.5
L 1001.25 543.5 1001.25 545.8
Q 999.95 544.35 998.5 543.65 997.05 542.95 995.4 542.95 993.5 542.95 991.9 543.7 990.3 544.45 989.05 545.9 987.8 547.35 987.15 549.2 986.55 551.05 986.55 553.25 986.55 555.5 987.15 557.35 987.8 559.2 989.05 560.7 990.35 562.2 991.95 562.9 993.55 563.65 995.5 563.65 997.05 563.65 998.5 563 999.95 562.35 1001.25 561.05
L 1001.25 563.1 1005.65 563.1 1005.65 543.5
M 1001.55 553.35
Q 1001.55 554.7 1001.15 555.85 1000.8 557 1000.05 557.9 999.3 558.75 998.35 559.15 997.35 559.6 996.15 559.6 995.05 559.6 994.1 559.15 993.15 558.7 992.4 557.8 991.7 556.95 991.35 555.8 990.95 554.65 990.95 553.25 990.95 551.9 991.35 550.8 991.7 549.7 992.45 548.8 993.2 547.95 994.15 547.5 995.1 547.05 996.2 547.05 997.4 547.05 998.35 547.5 999.3 547.9 1000.05 548.8 1000.8 549.7 1001.15 550.8 1001.55 551.95 1001.55 553.35
M 980.35 543.45
Q 979.9 543.7 979.35 544.15 978.85 544.6 978.25 545.25
L 978.25 543.5 973.9 543.5 973.9 563.1 978.25 563.1 978.25 552.95
Q 978.25 550.15 979.1 548.75 980 547.35 981.8 547.35 982.35 547.35 982.95 547.6 983.6 547.8 984.2 548.25
L 986.2 544.15
Q 985.25 543.55 984.35 543.25 983.45 542.95 982.6 542.95 981.95 542.95 981.4 543.1 980.85 543.2 980.35 543.45
M 1016.6 543.45
Q 1016.15 543.7 1015.65 544.15 1015.1 544.65 1014.45 545.3
L 1014.45 543.5 1010.15 543.5 1010.15 563.1 1014.45 563.1 1014.45 553
Q 1014.45 551.45 1014.7 550.3 1014.9 549.2 1015.3 548.45 1015.75 547.75 1016.4 547.4 1017.05 547.05 1018 547.05 1019.45 547.05 1020.15 548.35 1020.9 549.65 1020.9 552.25
L 1020.9 563.1 1025.25 563.1 1025.25 553
Q 1025.25 551.4 1025.45 550.3 1025.65 549.15 1026.05 548.45 1026.45 547.75 1027.1 547.4 1027.75 547.05 1028.65 547.05 1029.45 547.05 1030 547.35 1030.55 547.65 1030.9 548.25 1031.25 548.8 1031.4 549.8 1031.55 550.8 1031.55 552.2
L 1031.55 563.1 1035.9 563.1 1035.9 551
Q 1035.9 546.95 1034.35 544.95 1032.75 542.95 1029.55 542.95 1027.8 542.95 1026.45 543.7 1025.05 544.4 1024.05 545.85 1023.1 544.4 1021.85 543.7 1020.6 542.95 1019 542.95 1018.3 542.95 1017.7 543.1 1017.1 543.2 1016.6 543.45
M 920.15 543.5
Q 918.9 542.95 917.25 542.95 915.8 542.95 914.55 543.55 913.25 544.15 912.1 545.3
L 912.1 543.5 907.75 543.5 907.75 563.1 912.1 563.1 912.1 553.65
Q 912.1 551.8 912.35 550.55 912.55 549.25 913 548.55 913.45 547.8 914.25 547.4 915 547.05 916.05 547.05 917.05 547.05 917.75 547.35 918.45 547.6 918.8 548.15 919.2 548.7 919.4 549.7 919.6 550.7 919.6 552.15
L 919.6 563.1 923.95 563.1 923.95 551.1
Q 923.95 549 923.55 547.5 923.15 546.05 922.35 545.1 921.45 544.05 920.15 543.5
M 903.25 543.5
L 898.9 543.5 898.9 563.1 903.25 563.1 903.25 543.5
M 900 538.1
Q 900.5 538.35 901.1 538.35 901.65 538.35 902.15 538.1 902.65 537.9 903.05 537.45 903.5 537.05 903.7 536.5 903.9 536 903.9 535.4 903.9 534.75 903.7 534.25 903.5 533.75 903.05 533.3 902.65 532.9 902.15 532.65 901.65 532.45 901.05 532.45 900.5 532.45 900 532.65 899.5 532.9 899.05 533.3 898.65 533.75 898.45 534.25 898.25 534.75 898.25 535.35 898.25 536 898.45 536.5 898.65 537.05 899.05 537.45 899.5 537.9 900 538.1
M 941.45 543.7
Q 939.65 542.95 937.55 542.95 935.5 542.95 933.7 543.7 931.9 544.45 930.45 545.95 929 547.45 928.3 549.25 927.55 551.05 927.55 553.15 927.55 555.4 928.25 557.3 929 559.15 930.4 560.65 931.85 562.15 933.6 562.9 935.4 563.65 937.5 563.65 939.6 563.65 941.4 562.9 943.25 562.15 944.7 560.7 946.15 559.2 946.9 557.35 947.6 555.5 947.6 553.3 947.6 551.15 946.9 549.3 946.15 547.45 944.7 545.95 943.25 544.45 941.45 543.7
M 943.15 553.35
Q 943.15 554.75 942.8 555.9 942.4 557.05 941.65 557.9 940.9 558.75 939.85 559.2 938.85 559.6 937.55 559.6 936.3 559.6 935.3 559.15 934.25 558.75 933.5 557.9 932.75 557 932.35 555.85 932 554.7 932 553.25 932 551.85 932.4 550.75 932.75 549.65 933.55 548.8 934.3 547.9 935.3 547.45 936.35 547.05 937.55 547.05 938.85 547.05 939.85 547.45 940.85 547.9 941.65 548.8 942.4 549.65 942.8 550.75 943.15 551.9 943.15 553.35
M 962.4 543.65
Q 960.9 542.95 959.15 542.95 957.1 542.95 955.5 543.75 953.85 544.55 952.6 546.15 951.45 547.65 950.9 549.45 950.3 551.3 950.3 553.4 950.3 555.6 950.95 557.45 951.55 559.3 952.8 560.75 954 562.2 955.6 562.9 957.15 563.65 959.1 563.65 960.8 563.65 962.25 562.95 963.75 562.25 965.05 560.9
L 965.05 563.65
Q 965.05 566.65 963.85 568.2 962.65 569.7 960.3 569.7 959 569.7 958 569.25 957 568.8 956.35 567.85 956.05 567.5 955.85 566.9 955.65 566.35 955.5 565.65
L 951.15 565.65
Q 951.35 567.55 952.05 569.05 952.8 570.55 954.05 571.65 955.25 572.7 956.8 573.25 958.35 573.8 960.25 573.8 962.5 573.8 964.25 573 966 572.25 967.25 570.75 967.95 569.95 968.4 569 968.85 568.05 969.05 566.95 969.15 566.55 969.2 566.05 969.25 565.6 969.3 565.05 969.35 564.55 969.35 563.95 969.4 563.3 969.4 562.6
L 969.4 543.5 965.05 543.5 965.05 545.7
Q 963.85 544.35 962.4 543.65
M 965.2 553.35
Q 965.2 554.7 964.9 555.8 964.55 556.85 963.9 557.75 963.15 558.65 962.2 559.15 961.2 559.6 959.95 559.6 958.7 559.6 957.75 559.15 956.75 558.7 956.05 557.75 955.4 556.9 955.1 555.8 954.75 554.7 954.75 553.35 954.75 552 955.1 550.9 955.4 549.8 956.05 548.95 956.75 548 957.75 547.5 958.7 547.05 959.95 547.05 961.1 547.05 962.05 547.5 963 547.9 963.75 548.8 964.5 549.65 964.85 550.8 965.2 551.9 965.2 553.35
M 887.65 542.95
Q 886.25 542.95 885 543.5 883.7 544.05 882.55 545.15
L 882.55 534 878.2 534 878.2 563.1 882.55 563.1 882.55 553.6
Q 882.55 551.8 882.8 550.55 883 549.25 883.45 548.5 883.9 547.8 884.7 547.4 885.55 547.05 886.65 547.05 887.55 547.05 888.2 547.3 888.85 547.55 889.25 548.1 889.65 548.65 889.85 549.5 890.05 550.35 890.05 551.5
L 890.05 563.1 894.4 563.1 894.4 551.1
Q 894.4 549.05 894 547.55 893.6 546.05 892.75 545.1 891.8 544.05 890.55 543.5 889.25 542.95 887.65 542.95
M 868.15 543.5
L 863.8 543.5 863.8 563.1 868.15 563.1 868.15 552.95
Q 868.15 550.15 869.05 548.75 869.95 547.35 871.7 547.35 872.3 547.35 872.9 547.6 873.5 547.8 874.15 548.25
L 876.1 544.15
Q 875.2 543.55 874.3 543.25 873.4 542.95 872.5 542.95 871.85 542.95 871.3 543.1 870.75 543.2 870.3 543.45 869.8 543.7 869.3 544.15 868.75 544.6 868.15 545.25
L 868.15 543.5 Z"/>
</g>
</defs>



<g transform="matrix( 1.658905029296875, 0, 0, 2.064361572265625, -608.2,-389.25) ">
<g transform="matrix( 1, 0, 0, 1, 0,0) ">
<use xlink:href="#Symbol_6_0_Layer0_0_FILL"/>
</g>
</g>

<g transform="matrix( 0.3153533935546875, 0, 0, 0.3153533935546875, 698.05,534.8) ">
<g transform="matrix( 1, 0, 0, 1, 0,0) ">
<use xlink:href="#Symbol_7_0_Layer0_0_FILL"/>
</g>
</g>

<g transform="matrix( 0.3153533935546875, 0, 0, 0.3153533935546875, 698.05,534.8) ">
<g transform="matrix( 1, 0, 0, 1, 0,0) ">
<use xlink:href="#Symbol_8_0_Layer0_0_FILL"/>
</g>
</g>

<g transform="matrix( 2.6149749755859375, 0.121978759765625, -0.1097412109375, 0.3444671630859375, -1529.1,440.35) ">
<g transform="matrix( 1, 0, 0, 1, 0,0) ">
<use xlink:href="#Symbol_9_0_Layer0_0_FILL"/>
</g>
</g>

<g transform="matrix( 1.90142822265625, 0, 0, 1.90142822265625, -845.05,-306.6) ">
<g transform="matrix( 1, 0, 0, 1, 0,0) ">
<use xlink:href="#Symbol_10_0_Layer0_0_FILL"/>
</g>
</g>
</svg>
