
<svg xmlns="http://www.w3.org/2000/svg" version="1.1" xmlns:xlink="http://www.w3.org/1999/xlink" preserveAspectRatio="none" x="0px" y="0px" width="760px" height="880px" viewBox="614 10 760 880">
<defs>


<g id="Symbol_21_0_Layer0_0_FILL">
<path fill="#FFFFFF" stroke="none" d="
M 1131.55 490.6
Q 1119.35 482.3 1104.25 480.6 1089.2 478.95 1074.95 482.65 1060.7 486.3 1051.1 494 1041.45 501.7 1040.2 512.05 1040.65 525.3 1035.25 546.9 1029.8 568.5 1022.45 594.8 1015.15 621.15 1010 648.75 1004.85 676.35 1006 701.65 1012.75 715.85 1021 724.05 1029.3 732.25 1039 735.7 1048.7 739.15 1059.75 739.05 1070.95 738.95 1081.25 734.4 1091.55 729.9 1099.25 721.95 1106.95 714.05 1110.35 703.85
L 1120.95 665.15
Q 1128.6 635.25 1135.45 598.15 1142.3 561 1142.7 530.65 1143.15 500.25 1131.55 490.6 Z"/>
</g>

<g id="Symbol_52_0_Layer0_0_FILL">
<path fill="#FFFFFF" stroke="none" d="
M 931.25 731.85
L 925.55 731.55 923.1 732.75
Q 923.1 737.15 925.3 742.9 927.45 748.65 929.55 756.6 931.65 764.55 931.35 775.45 931.1 786.4 926.2 801.1 918.8 806.05 909.5 810.2 900.25 814.35 890.05 819.2 879.85 824.1 869.7 831.25 871.85 836.85 879.3 848.35 886.7 859.85 897.2 872.6 907.65 885.35 918.95 894.7 930.3 904.1 940.25 905.45 955.7 904.6 971.45 900.65 987.2 896.7 1001.8 890.9 1016.4 885.1 1028.35 878.8 1035.2 875.1 1048.1 865.75 1061 856.35 1074.9 844.65 1088.8 833 1098.6 822.4 1108.4 811.8 1109 805.75
L 1106.75 802.15 1101.2 797.7 1092.35 792.35 1080.25 786.15
Q 1052.75 772.9 1016.45 759 980.1 745.15 952.45 737
L 931.25 731.85 Z"/>
</g>

<g id="Symbol_53_0_Layer0_0_FILL">
<path fill="#0075c9" stroke="none" d="
M 1025.45 481.1
L 1024.85 480.3
Q 1024.35 479.65 1023.8 479.35 1023.75 478.85 1023.25 478.7 1022.75 478.6 1022.35 478.8 1022.05 479.75 1022.4 480.7 1022.7 481.7 1023.15 482.5 1023.65 483.25 1023.8 483.55 1029.55 493.45 1035.7 502.85 1041.85 512.3 1047.7 522 1053.5 531.75 1058.25 542.45 1063.6 554.5 1067.8 565.05 1072 575.6 1074.65 586.55 1077.25 597.55 1077.95 610.85 1078.2 616.05 1078.2 621.25 1078.2 626.45 1077.9 631.7 1077.55 642.55 1076.1 653.1 1074.7 663.6 1072.05 673.55 1072 673.9 1072 674.2 1072 674.5 1072 674.8 1072 675.25 1071.95 675.75 1071.95 676.25 1072.05 676.65 1070.75 680.4 1069.3 684 1067.8 687.65 1066.15 691.15 1063.2 698.35 1059.45 704.95 1055.7 711.6 1051.05 717.6 1042.3 728.95 1031.9 738.05 1021.5 747.15 1009.7 754.1 1008.4 755.6 1008.95 756.4
L 1010.25 756.85 1013.1 756.55
Q 1014.9 756.2 1016.65 755.7 1018.4 755.25 1020.1 754.35
L 1020.65 754
Q 1021.1 753.75 1021.45 753.45 1022.1 753.1 1022.8 752.6
L 1023.4 752.2 1023.7 751.95
Q 1030.25 747.45 1035.85 742.65 1041.45 737.9 1046.6 732.55 1051.7 727.15 1056.75 720.85 1058.9 718.15 1060.6 715.85 1062.25 713.5 1063.7 711 1065.15 708.55 1066.7 705.4 1069.4 700 1071.8 695.1 1074.2 690.15 1076.2 684.25 1078.55 677.3 1080.25 670.65 1082 663.95 1083.1 656.75 1083.4 654.9 1084 651.85 1084.55 648.8 1084.8 645.6 1086.65 633.65 1086.6 620.95 1086.55 608.25 1084.95 596.5 1083.4 584.75 1080.6 575.65 1077.8 566.75 1073.9 557.65 1069.95 548.55 1065.45 539.7 1061 530.8 1056.5 522.65 1053.15 516.4 1048.3 509.1 1043.5 501.85 1038.15 495 1032.8 488.2 1027.8 483.2 1027.2 482.65 1026.6 482.15 1026 481.65 1025.45 481.1 Z"/>

<path fill="#FFFFFF" stroke="none" d="
M 840.45 352.9
Q 839.4 361.9 840.35 370.7 841.3 379.6 841.25 388.6 841.2 397.65 837.15 407.25 828 416.45 820.75 427.05 813.45 437.6 806.95 448 800.4 458.35 793.55 466.95 788.2 473.65 781.75 489.15 775.3 504.65 770.15 525.1 765 545.55 763.55 566.95 762.1 588.4 766.7 606.9 773.95 613.85 778.55 617.2 783.1 620.6 785.25 622.3 787.35 624 787.4 625.9 787.4 627.8 785.55 631.85 784.25 639.35 780.8 647.7 777.4 656.05 773.8 664.7 770.2 673.35 768.55 681.85 766.85 690.3 769.1 698 771.65 705.85 777.5 715.3 783.4 724.75 791.15 733.9 798.95 743 807.15 749.9 815.4 756.8 822.65 759.5 856.5 771.7 889.8 775.5 923.05 779.3 953.6 774.1 984.1 768.95 1009.7 754.1 1021.5 747.15 1031.9 738.05 1042.3 728.95 1051.05 717.6 1055.7 711.6 1059.45 704.95 1063.2 698.35 1066.15 691.15 1067.9 686.9 1069.35 682.5 1070.85 678.1 1072.05 673.55 1074.7 663.6 1076.1 653.1 1077.55 642.55 1077.9 631.7 1078.1 625.35 1078 618.9 1077.85 612.5 1077.35 606.05 1074.95 580.6 1062.85 553.8 1050.7 527 1035.5 503.85 1020.3 480.65 1008.6 466
L 995.45 450.2 976.55 424.25
Q 959 400.3 934 372.35 908.95 344.4 885.15 330.4 861.4 316.45 847.65 334.4 841.55 343.9 840.45 352.9 Z"/>
</g>

<g id="Symbol_35_0_Layer0_0_FILL">
<path fill="#0075c9" stroke="none" d="
M 952.1 449.05
L 953.15 449.3
Q 958.4 451.3 963.85 453 969.25 454.7 974.6 456.45 978 457.55 981.6 458.55 985.15 459.55 988.65 460.6 998.95 463.7 1009.6 465.25 1020.25 466.8 1031.05 467.75 1035.2 468.15 1039.85 468.2 1044.5 468.25 1048.7 468.2 1057.55 468 1066.95 466.9 1076.3 465.85 1085 464.25 1094.25 462.6 1102.55 460.15 1110.85 457.65 1119.2 453.5 1120.5 452.9 1121.8 452.4 1123.1 451.85 1124.4 451.25 1124.6 451.15 1125 451 1125.35 450.8 1125.35 450.45 1124.55 450.2 1123.5 450.5 1122.4 450.75 1122 450.9 1118.45 451.8 1114.9 452.65 1111.35 453.55 1107.75 454.35 1093 460.2 1075.3 463.1 1057.6 465.95 1034.8 464.6 1012 463.3 982 456.45 975.6 454.95 967.4 452.75 959.25 450.55 949.55 447.55 949.8 447.85 950.1 448.1 950.4 448.35 950.65 448.5 951.3 448.85 952.1 449.05 Z"/>

<path fill="#FFFFFF" stroke="none" d="
M 1063.95 246.95
Q 1063.95 243.75 1062.1 241.65 1060.25 239.55 1057.45 239.1 1054.6 238.6 1051.75 240.25 1047.1 243.25 1041.15 247.05 1035.25 250.8 1027.2 253.6 1019.2 256.4 1008.2 256.4 998.4 256.1 990.4 251.55 982.45 247 975.75 240.45 969.05 233.9 962.95 227.6 956.85 221.3 950.75 217.5
L 946.05 215.3 938.2 212.65
Q 928.75 209.8 914.65 209.15 900.6 208.55 883.6 213.2 863.1 219.4 850.1 226.55 837.05 233.7 830.4 239.6
L 825.1 244.65 822.4 248
Q 815.75 258.8 809.4 274.95 803.05 291.1 797.85 307.35 792.65 323.55 789.55 334.55
L 786.4 346 789.6 351.75
Q 792.6 357 799.85 365.75 807.15 374.45 820.3 385.2 833.45 395.9 854.05 407.2 872.05 416.9 889 424.5 905.95 432.1 921.25 437.8 936.5 443.5 949.55 447.55 959.25 450.55 967.4 452.75 975.6 454.95 982 456.45 1012 463.3 1034.8 464.6 1057.6 465.95 1075.3 463.1 1093 460.2 1107.75 454.35 1111.7 452.8 1115.55 451.1 1119.4 449.4 1123.2 447.6 1139.45 439.6 1152.6 425 1165.7 410.35 1175.3 391.3 1184.85 372.2 1190.4 350.9 1195.9 329.6 1196.9 308.3 1198.3 274.4 1196.75 253.95 1195.25 233.45 1192.95 223.55
L 1189.7 211.5
Q 1188.65 208.75 1186.25 207.35 1183.85 206 1181.1 206.55 1178.3 207.05 1176.15 209.95 1174.4 212.7 1170.5 220.15 1166.7 227.6 1159.6 239.15 1152.55 250.7 1141.2 265.7 1133.9 275.25 1124 282.85 1114.1 290.5 1102.9 294 1091.75 297.5 1080.55 294.8 1073.3 292.65 1069.7 286.1 1066.05 279.6 1064.9 271.5 1063.7 263.45 1063.75 256.6 1063.8 249.75 1063.95 246.95 Z"/>
</g>

<g id="Symbol_28_0_Layer0_0_FILL">
<path fill="#0075c9" stroke="none" d="
M 1017.45 346.15
Q 1018.85 343.35 1019.4 339.95 1019.9 336.55 1019.4 333.5 1018.95 330.45 1017.65 328.05 1016.3 325.6 1014.3 324.05 1012.3 322.55 1009.75 322.2 1007.25 321.9 1004.85 322.9 1002.45 323.85 1000.45 325.9 998.4 327.9 997 330.7 995.65 333.55 995.1 336.9 994.55 340.3 995.05 343.35 995.55 346.4 996.85 348.85 998.15 351.3 1000.15 352.8 1002.2 354.35 1004.7 354.65 1007.25 354.95 1009.65 354 1012 353 1014.05 351 1016.05 349 1017.45 346.15 Z"/>
</g>

<g id="Symbol_29_0_Layer0_0_FILL">
<path fill="#0075c9" stroke="none" d="
M 1030.1 321.85
Q 1021.85 320.25 1013.45 318.7 1005.05 317.2 997.2 315.9 996.25 316.35 996.65 317.05 997.05 317.75 998.8 318.2 1005.4 319.7 1012.25 320.7 1019.1 321.75 1025.8 322.95 1026.4 323.05 1027.6 323.05 1028.8 323.05 1029.65 322.8 1030.5 322.55 1030.1 321.85 Z"/>

<path fill="#FFFFFF" stroke="none" d="
M 1003.4 280.35
Q 996.4 283.45 991.75 289.2 987.1 295 984.25 301.55 981.4 308.05 979.7 313.45 983.55 313.9 988 314.5 992.4 315.15 997.2 315.9 1005.05 317.2 1013.45 318.7 1021.85 320.25 1030.1 321.85 1034 322.6 1037.8 323.35 1041.6 324.1 1045.15 324.8 1046.1 318.35 1045.95 311.15 1045.8 303.9 1043.5 297.2 1041.15 290.45 1035.6 285.55 1030.1 280.6 1020.3 278.8 1010.35 277.3 1003.4 280.35 Z"/>
</g>

<g id="Symbol_30_0_Layer0_0_FILL">
<path fill="#0075c9" stroke="none" d="
M 829.15 132.95
L 827.9 133
Q 818.8 134.15 809.85 139.5 800.9 144.8 793.1 152.1 785.3 159.4 779.75 166.3 775.65 171.4 773.2 176.3 770.8 181.15 769.2 186.3 767.95 189.45 766.95 192.9 765.95 196.4 765.2 200.1
L 764.75 201.5
Q 764.55 202.25 764.6 202.95 763.45 209.2 762.8 215.35 762.1 221.5 761.8 227 761.2 237.2 762.25 247.6 763.25 258 765.4 268.35 767.5 278.7 770.15 288.65
L 770.7 290.25
Q 771.15 291.45 771.8 292.8 770.45 297.35 769.5 301.4 768.6 305.4 768.1 309.55 767.6 313.65 767.45 318.45 767.35 319.6 767.2 320.8 767.05 322 767.2 323.15 767.2 323.3 767.25 323.7 767.3 324.1 767.65 324.3 768.5 325.7 770.15 327 771.8 328.3 773.35 329.3 774.9 330.3 775.6 330.7 778.5 332.65 782 332.8 785.55 333 789.25 332.1 789.45 331.5 789.7 331 789.95 330.5 790.35 330.1 790.4 330 790.5 329.9 790.6 329.8 790.65 329.7 789.05 330.05 787.45 330.2 785.85 330.4 784.35 330.45 783.4 330.5 782.4 330.35 781.4 330.2 780.45 329.95
L 780 330 779.45 329.6
Q 776.75 328.55 774.4 326.75 772.05 325 770.25 322.9
L 769.7 322.5 769.65 322.15
Q 769.55 322.05 769.45 321.95 769.35 321.8 769.2 321.7 769.3 321.25 769.35 320.8 769.45 320.4 769.45 320 769.25 317.25 770.05 311.05 770.8 304.85 773.65 294.85 773.85 294.3 774 293.7 774.2 293.1 774.4 292.5
L 774.25 291.6
Q 774.05 290.9 773.8 289.7 772.8 285.55 771.05 277.9 769.3 270.25 767.65 261.75 766.05 253.25 765.45 246.55 765.1 242.8 764.7 235.65 764.35 228.45 765.05 218.95 765.8 209.45 768.7 198.75 769.3 196.75 769.95 194.75 770.6 192.75 771.4 190.7 774.35 182.9 779.15 175.2 783.95 167.5 791 160.3 798.1 153.1 807.85 146.85 811.4 144.2 814.9 142.15 818.4 140.1 821.75 138.8 822.5 138.5 823.45 138.2 824.45 137.95 825.5 137.6 826.6 137.15 827.75 136.7 828.9 136.2 830.1 135.75 830.85 135.25 831.05 134.65 831.25 134 830.75 133.25 830.05 132.9 829.15 132.95
M 993.1 245.5
L 992.95 245.4
Q 992.8 245.5 992.65 245.6 992.45 245.7 992.3 245.8
L 992 246.05 993.1 245.5
M 988.5 220.1
Q 983.3 209.2 977.05 198.4 970.8 187.55 964.75 177 961.55 171.25 957.15 164.8 952.8 158.35 947.45 152.15 942.15 145.95 936.2 141 935.7 140 934.55 138.9 933.4 137.85 932.25 137 931.1 136.15 930.55 135.8 922.6 130.4 913.05 127.05 903.5 123.75 893.45 122.3 883.4 120.9 873.9 121.15
L 872.85 121.15
Q 872.05 121.15 871.45 121.4 871.05 121.35 870.55 121.45
L 869.95 121.5
Q 869.4 121.6 868.85 121.75 868.3 121.85 867.75 121.95
L 864.2 123.2
Q 861.45 124.25 859.8 125.55 858.1 126.85 860.5 127.8 875.15 125.8 887.15 127.05 899.15 128.35 908.65 131.8 918.15 135.3 925.25 139.8 925.9 140.05 926.55 140.35 927.2 140.6 927.85 140.85 928.25 141.3 928.7 141.75 929.1 142.2 929.55 142.65 935.4 146.9 939.35 150.8 943.3 154.75 945.45 157.5 948.55 161.35 954 169.65 959.5 177.95 965.8 187.95 972.1 197.9 977.65 206.9 983.2 215.9 986.4 221.15 987.7 223.2 988.35 224.35
L 989.05 225.45 1004.05 232.5 1004.25 232.75 1004.6 233.5
Q 1005.1 234.45 1005.4 236.05 1005.65 237.65 1005 239.55 1004.4 241 1002.7 242.3 1001.05 243.65 999.15 244.65 997.2 245.65 995.9 246.25 996.1 246.55 996.25 246.95 996.35 247.3 996.45 247.75 997.05 247.65 997.7 247.65 998.3 247.65 998.95 247.75 1002.15 246.4 1004.8 244.75 1007.45 243.1 1008.45 241.5 1011.25 236.2 1007.95 232.35 1004.6 228.45 999 225.95 993.35 223.45 989.3 222.15 989.15 221.7 988.95 221.15 988.75 220.65 988.5 220.1 Z"/>

<path fill="#0075c9" stroke="none" d="
M 975.7 245.95
L 991.5 244 993.45 242.6
Q 994.8 241.6 996.1 240.45 997.35 239.35 997.5 238.7
L 996.3 237.75 993.3 237.35 981.85 238.05
Q 966.75 239.8 940.1 246.75 913.45 253.75 878.1 267 862.3 273.05 846.55 280.55 830.85 288.05 817.3 295.85 803.8 303.65 794.55 310.6 785.25 317.55 782.4 322.5
L 782.35 322.55
Q 784.1 323.8 785.65 324.9 787.15 326.05 788.1 326.7
L 789.05 326.7 804 315.55
Q 816.15 306.95 837.25 295.35 858.35 283.7 888 272.05 920.05 259.9 941.75 253.9 963.45 247.9 975.7 245.95 Z"/>

<path fill="#FFFFFF" stroke="none" d="
M 986.4 221.15
Q 983.2 215.9 977.65 206.9 972.1 197.9 965.8 187.95 959.5 177.95 954 169.65 948.55 161.35 945.45 157.5 943.3 154.75 939.35 150.8 935.4 146.9 929.55 142.65 928.55 141.95 927.45 141.2 926.4 140.5 925.25 139.8 918.15 135.3 908.65 131.8 899.15 128.35 887.15 127.05 875.15 125.8 860.5 127.8 854.25 128.7 847.5 130.35 840.7 132.05 833.45 134.55 832.6 134.85 831.75 135.15 830.9 135.45 830.1 135.75 828.9 136.2 827.75 136.7 826.6 137.15 825.5 137.6 820.6 139.7 816.2 142 811.8 144.35 807.85 146.85 798.1 153.1 791 160.3 783.95 167.5 779.15 175.2 774.35 182.9 771.4 190.7 770.6 192.75 769.95 194.75 769.3 196.75 768.7 198.75 765.8 209.45 765.05 218.95 764.35 228.45 764.7 235.65 765.1 242.8 765.45 246.55 766.05 253.25 767.65 261.75 769.3 270.25 771.05 277.9 772.8 285.55 773.8 289.7 774.05 290.9 774.25 291.6
L 774.4 292.5
Q 774.2 293.1 774 293.7 773.85 294.3 773.65 294.85 770.8 304.85 770.05 311.05 769.25 317.25 769.45 320 769.5 320.85 769.55 321.4 769.6 321.95 769.65 322.15
L 769.7 322.5 770.25 322.9 779.45 329.6 780 330 780.45 329.95 789 328.7 790.8 326.7 789.05 326.7 788.1 326.7 786.6 326.7 785.2 326.35
Q 783.9 326 782.85 325.1 781.8 324.2 782.35 322.55
L 782.4 322.5
Q 785.25 317.55 794.55 310.6 803.8 303.65 817.3 295.85 830.85 288.05 846.55 280.55 862.3 273.05 878.1 267 913.45 253.75 940.1 246.75 966.75 239.8 981.85 238.05
L 993.3 237.35 996.3 237.75 997.5 238.7
Q 997.35 239.35 996.1 240.45 994.8 241.6 993.45 242.6
L 991.5 244 991.3 244.15 992.95 245.4 993.1 245.5 994.7 246.75 995 246.6
Q 995.35 246.5 995.9 246.25 997.2 245.65 999.15 244.65 1001.05 243.65 1002.7 242.3 1004.4 241 1005 239.55 1005.65 237.65 1005.4 236.05 1005.1 234.45 1004.6 233.5
L 1004.25 232.75 1004.05 232.5 989.05 225.45 988.35 224.35
Q 987.7 223.2 986.4 221.15 Z"/>
</g>

<g id="Symbol_54_0_Layer0_0_FILL">
<path fill="#FFFFFF" stroke="none" d="
M 849.95 690.15
Q 848.35 690.35 847.45 691.45 846.5 692.55 846.55 693.9 846.55 695.3 847.75 696.45 848.85 697.35 850.55 697.7 852.25 698.1 853.6 698.45
L 854.6 698.85
Q 855.35 699.15 856 699.45 856.35 699.6 856.8 699.8
L 857.4 700.05
Q 862.65 702.2 867.5 704.3 872.35 706.45 876.9 709.15 881.45 711.85 885.8 715.7 889.5 719.05 893.05 722.35 896.65 725.7 900.6 728.8 906.25 733.2 911.9 736.1 917.55 739.05 923.75 740.2 929.9 741.4 937.15 740.5 938.75 740.3 940.3 740.1 941.9 739.85 943.45 739.55
L 944.35 739.4 944.8 739.2 945.05 738.75 945.15 737.85
Q 945.5 734.95 945.4 731.7 945.3 728.5 945.25 725.5 945.2 723.2 945.15 720.9 945.05 718.55 945 716.25
L 944.95 714.7 944.9 714.4 944.9 713.85
Q 944.9 713.15 944.85 712.55 944.45 712.6 943.95 712.7
L 943.35 712.8
Q 940.3 713.3 937.25 713.75 934.15 714.2 931.05 714.55 927.15 714.9 922.95 713.45 918.8 712 914.8 709.8 910.8 707.6 907.4 705.75 899.6 701.6 891.95 697.75 884.35 693.9 876.3 691.55 868.25 689.2 859 689.5 856.75 689.6 854.5 689.75 852.2 689.9 849.95 690.15 Z"/>
</g>

<g id="Symbol_55_0_Layer0_0_FILL">
<path fill="#0075c9" stroke="none" d="
M 600.7 703.9
L 600.4 705
Q 598.15 714.05 598.55 723.8 598.95 733.5 601.95 742.7 604.95 751.85 610.55 759.25 611.35 760.3 613.15 762.3 614.95 764.35 617 766.3 619.1 768.25 620.65 769.05 626 774.85 633.2 779.9 640.35 784.95 648.1 789.05 655.9 793.15 663.1 796.1 668.4 798.25 674.2 799.5 680 800.75 685.95 801.5 691.9 802.25 697.65 802.85 703.1 803.45 708.4 803.7 713.7 803.95 719 804.55 724.25 805.1 729.6 806.7 735.2 808.45 740.1 811.7 744.95 814.95 748.65 819.5 752.4 824 754.5 829.55 756.1 834.35 754.3 840.85 752.5 847.3 749.65 853.75 746.85 860.2 745.3 865 745.05 865.8 744.75 866.7 744.45 867.6 744.4 868.4 744.35 868.55 744.35 868.9 744.3 869.25 744.65 869.4 745.25 869.65 746.05 868.7 746.85 867.7 747.55 866.55
L 748.3 865.25
Q 749.95 862.55 751.55 859.05 753.15 855.6 754.5 851.8 755.9 848.05 756.9 844.5 756.65 837.65 756.2 832.7 755.75 827.7 755.1 825.7
L 752.2 821.55
Q 749.65 817.65 744.3 812.6 738.95 807.55 730.2 803.8 723.85 802 717.1 801.35 710.35 800.65 703.6 800.25 696.8 799.85 690.4 798.95 686.1 798.35 682.1 797.85 678.1 797.35 674.1 796.55 670.15 795.75 665.95 794.25 654.05 789.7 643.5 783.2 632.9 776.7 623.1 768.65 623.1 768 622.4 767.05 621.65 766.15 620.85 765.35
L 619.7 764.35
Q 611.15 757.15 607.25 748.1 603.35 739.05 602.5 728.9 601.6 718.75 602.15 708.2 602.2 707.15 602.2 706.1 602.2 705 602.15 704
L 602.15 703.55
Q 602.15 703.2 602 702.95 602 702.7 601.8 702.55 601.6 702.4 601.35 702.55 600.95 703.05 600.7 703.9
M 862.5 721.25
Q 862.85 722.35 863.35 723.3
L 864 724.35
Q 866.35 729.75 869.15 734.9 871.95 740 874.7 745.25 877.8 750.75 880.85 757.2 883.9 763.65 886.75 770.55 886.95 770.85 887.15 771.15 887.3 771.45 887.5 771.75 888.7 773.65 889.6 773.75 890.45 773.85 890.6 772.7 890.75 771.55 889.8 769.65 886.3 762.8 883.3 755.9 880.3 749.05 877.05 742.3 873.85 735.55 869.65 729 868.95 727.9 867.95 726.05 867 724.2 865.95 722.45 864.95 720.7 864.2 719.9 863.95 719.65 863.5 719.5 863.05 719.3 862.65 719.5 862.2 720.15 862.5 721.25 Z"/>

<path fill="#FFFFFF" stroke="none" d="
M 775.35 760.1
Q 743.3 774.4 723.85 786.6 704.4 798.85 714.35 800.3 718.9 800.65 722.85 801.55 726.8 802.45 730.2 803.8 738.95 807.55 744.3 812.6 749.65 817.65 752.2 821.55
L 755.1 825.7
Q 755.75 827.7 756.2 832.7 756.65 837.65 756.9 844.5 757.3 852.75 757.45 861.95 757.65 871.1 757.7 879.25 757.8 887.4 757.8 892.55
L 757.8 897.9
Q 761.75 905.15 778.45 908.7 795.15 912.25 816.35 912.15 837.6 912 855.15 908.2 872.75 904.4 878.45 896.95
L 882.15 886.05
Q 885.6 875.65 890.2 861.45 894.75 847.25 898.3 835.2
L 901.05 825.25 902.15 819.35
Q 902.25 816.4 900.25 808.9 898.25 801.45 894.75 791.35 891.25 781.25 886.75 770.55 883.9 763.65 880.85 757.2 877.8 750.75 874.7 745.25 873.55 743.2 872.4 741.35 871.25 739.45 870.15 737.8
L 865.35 735 857.95 734.15 847.9 735.15 835.3 738.05
Q 807.4 745.8 775.35 760.1 Z"/>
</g>

<g id="Symbol_43_0_Layer0_0_FILL">
<path fill="#0075c9" stroke="none" d="
M 922.45 560
Q 922.9 558.9 923.3 557.8 918.5 563.6 912.15 570.85 905.8 578.1 898.25 586.2 890.75 594.35 882.5 602.85 880.7 605 879.3 606.95 877.95 608.95 877.8 609.9 877.75 610.25 877.75 610.55 877.8 610.85 878.3 610.85 878.8 610.8 879.3 610.15 879.85 609.5 880.2 608.85
L 880.55 608.15
Q 883.05 604.8 886.15 601.8 889.3 598.75 892.55 595.8 895.85 592.85 898.7 589.75 903.55 584.45 908.3 579.4 913 574.35 917.4 568.9 918.4 567.25 919.45 565.55 920.5 563.85 921.5 562.2
L 921.5 562.15
Q 922 561.05 922.45 560
M 845.55 455.25
L 844.75 455.85
Q 832.2 464.6 820.6 473.55 809 482.55 797.55 492.45 785 503.2 773.2 514.3 761.4 525.4 750.95 537.65 740.5 549.95 731.95 564.25 730.5 566.65 728.2 570.55 725.9 574.45 724.05 578.45 722.25 582.5 722.2 585.25 722.2 585.5 722.1 585.95 722 586.4 722.55 586.6 723.3 586.45 724.1 585.7 724.85 584.9 725.45 584.05 726.05 583.2 726.3 582.8 726.95 581.95 727.55 581.05 728.15 580.2 728.75 579.35 728.15 578.55 727.65 577.85 727.15 577.15 726.65 576.45 727.4 574.45 730.45 570.25 733.5 566 738.4 560.05 743.35 554.05 749.75 546.8 750.55 545.7 751.4 544.65 752.25 543.6 753.15 542.6 760.6 533.85 768.9 525.4 777.25 516.95 785.95 508.9 795.4 499.65 805.05 490.95 814.7 482.25 824.05 474.85 833.35 467.45 841.8 461.95 842.8 461.1 844.4 459.65 845.95 458.2 847.1 456.8 848.25 455.4 848 454.7 847.75 454.3 847.4 454.25 847 454.25 846.85 454.5 846.2 454.75 845.55 455.25 Z"/>

<path fill="#FFFFFF" stroke="none" d="
M 914.05 484
Q 909.85 479.15 902.05 473.85 894.25 468.5 884.85 464.1 875.4 459.65 866.3 457.5 857.2 455.35 850.4 456.9 848.3 458 846.15 459.25 844 460.55 841.8 461.95 833.35 467.45 824.05 474.85 814.7 482.25 805.05 490.95 795.4 499.65 785.95 508.9 775.85 518.75 766.65 528.45 757.45 538.1 749.75 546.8 743.35 554.05 738.4 560.05 733.5 566 730.45 570.25 727.4 574.45 726.65 576.45 727.15 577.15 727.65 577.85 728.15 578.55 728.75 579.35 736.1 589.45 748.15 604.1 760.2 618.8 773 633.2 785.8 647.65 795.5 656.95
L 803.4 663.75 806.05 665.3 807.8 665.6
Q 817.3 661.15 829.7 651.5 842.1 641.85 855.7 629.15 869.35 616.4 882.5 602.85 890.75 594.35 898.25 586.2 905.8 578.1 912.15 570.85 918.5 563.6 923.3 557.8 927.7 552.5 930.45 548.85 933.2 545.2 933.95 543.6 935.6 533.5 932.75 522.05 929.85 510.6 924.65 500.45 919.45 490.3 914.05 484 Z"/>
</g>

<g id="Symbol_31_0_Layer0_0_FILL">
<path fill="#FFFFFF" stroke="none" d="
M 698.35 280.75
Q 694.95 275.8 691.55 270.8 668.2 236.85 645.85 204.3 623.45 171.75 605.2 145.3 587 118.8 576.15 103.05
L 565 86.9 547.4 97.9 758 424.15
Q 758.35 425.7 759.2 427.2 760 428.65 760.7 429.65
L 761.45 430.75
Q 763 433.6 764.35 436.6 765.65 439.6 767.2 442.6 771.2 450.15 775.55 457.6 779.95 465 784.35 472.45 787.1 477.65 789.9 482.85 792.65 488.05 795.2 493.35 795.6 494.15 796 495 796.35 495.85 796.75 496.75 797.1 498.55 797.7 500.1
L 798.5 502.05
Q 811.05 537 823.2 572.1 835.4 607.15 848.1 642.05 848.5 643.05 849.1 643.6 849.65 644.15 850.25 644.2 852.4 646.5 855 648.7 857.55 650.95 859.3 652.9 860.1 653.9 861.95 655.75 863.8 657.6 865.65 658.2 867.5 658.8 868.3 656.15 868.35 656 868.35 655.85 868.4 655.7 868.35 655.55 870.35 654.35 872.2 652.95 874.05 651.55 874.9 650.9 879.85 647.3 884.3 643.2 888.75 639.1 893.3 635.1 897.85 631.05 902.95 627.8 905.4 626.1 907.45 623.7 909.5 621.3 912.1 619.3
L 914.95 617.25
Q 917.05 615.7 919.35 613.7 921.6 611.7 922.85 609.9
L 922.75 609.65
Q 922.7 609.55 922.6 609.45 922.55 609.35 922.5 609.25 922.1 608.5 921.7 607.75 921.3 607 920.9 606.25 920.2 604.85 919.5 603.35 918.85 601.9 918.2 600.4 916.15 597.35 914.3 594.75 912.4 592.2 911.6 591
L 907.65 585.1
Q 907.4 584.9 907.15 584.6 906.9 584.3 906.7 583.95 896 568.05 885.45 552.1 874.85 536.1 864.35 520.1 847.95 497.8 832.2 475.05 816.45 452.3 801.4 429.2 798.1 424.15 794.35 418.95 790.6 413.7 786.85 408.9 787.05 409.45 787.2 410 787.35 410.55 787.35 411 786.5 409.75 785.6 408.45
L 783.75 405.7
Q 776.85 395.45 767.5 381.75 758.15 368 746.95 351.65 735.75 335.3 723.35 317.15
L 714.35 304
Q 709.75 297.35 705.15 290.6 701.75 285.7 698.35 280.75
M 769.1 408.6
L 766.2 410.05 572.15 111.75 574.25 110.15 769.1 408.6
M 831.4 584.55
Q 830.85 583.05 830.35 581.55 829.8 580 829.3 578.5 824.9 565.8 820.5 553.35 816.15 540.9 812.2 529.9 808.25 518.85 805.15 510.45 804.95 510 804.8 509.55
L 804.5 508.7
Q 802.85 504.35 801.6 501.1 800.3 497.8 799.4 495.75 799.15 495.15 798.85 494.5 798.55 493.85 798.25 493.2 798.15 493.05 798.1 492.85 798 492.7 797.95 492.55 795.8 488.1 792.85 482.6 789.85 477.05 786.45 471.1 783 465.1 779.5 459.2 774.85 451.3 770.8 444.65 766.75 438.05 764.3 434.05
L 761.7 429.9
Q 762.5 428.8 763.3 427.7 764.1 426.6 764.9 425.55 766.7 423.25 769.1 421.1 771.5 418.9 775.1 416.8 778.7 414.7 784 412.65 784.45 412.45 784.95 412.3 785.45 412.1 785.95 411.9 786.25 411.8 786.6 411.7 786.9 411.55 787.25 411.45
L 787.55 411.35 808.4 442.05
Q 826.3 468.4 849.85 503.05 873.35 537.65 893.25 566.9
L 920.1 606.35
Q 921.1 607.85 921.6 608.6
L 922.1 609.4 865.25 657.3 865.1 657.15
Q 864.9 657 864.6 656.7 864.45 656.6 864.35 656.5 864.2 656.35 864.05 656.2 862.35 654.7 859.6 652.15 856.85 649.6 854.5 647.2
L 852.65 645.15 851.75 643.8
Q 851.75 643.7 851.7 643.6 851.65 643.45 851.6 643.35 849.7 637.85 846.65 628.8 843.55 619.8 839.65 608.45 835.75 597.1 831.4 584.55
M 917.9 609.7
L 918 609.6 909.3 597.9 856.95 643.55 865.65 653.65 917.9 609.7 Z"/>

<path fill="#0075c9" stroke="none" d="
M 830.35 581.55
Q 830.85 583.05 831.4 584.55 835.75 597.1 839.65 608.45 843.55 619.8 846.65 628.8 849.7 637.85 851.6 643.35 851.65 643.45 851.7 643.6 851.75 643.7 851.75 643.8
L 852.65 645.15 854.5 647.2
Q 856.85 649.6 859.6 652.15 862.35 654.7 864.05 656.2 864.2 656.35 864.35 656.5 864.45 656.6 864.6 656.7 864.9 657 865.1 657.15
L 865.25 657.3 922.1 609.4 921.6 608.6
Q 921.1 607.85 920.1 606.35
L 893.25 566.9
Q 873.35 537.65 849.85 503.05 826.3 468.4 808.4 442.05
L 787.55 411.35 787.25 411.45
Q 786.9 411.55 786.6 411.7 786.25 411.8 785.95 411.9 785.45 412.1 784.95 412.3 784.45 412.45 784 412.65 778.7 414.7 775.1 416.8 771.5 418.9 769.1 421.1 766.7 423.25 764.9 425.55 764.1 426.6 763.3 427.7 762.5 428.8 761.7 429.9
L 764.3 434.05
Q 766.75 438.05 770.8 444.65 774.85 451.3 779.5 459.2 783 465.1 786.45 471.1 789.85 477.05 792.85 482.6 795.8 488.1 797.95 492.55 798 492.7 798.1 492.85 798.15 493.05 798.25 493.2 798.55 493.85 798.85 494.5 799.15 495.15 799.4 495.75 800.3 497.8 801.6 501.1 802.85 504.35 804.5 508.7
L 804.8 509.55
Q 804.95 510 805.15 510.45 808.25 518.85 812.2 529.9 816.15 540.9 820.5 553.35 824.9 565.8 829.3 578.5 829.8 580 830.35 581.55
M 918 609.6
L 917.9 609.7 865.65 653.65 856.95 643.55 909.3 597.9 918 609.6
M 766.2 410.05
L 769.1 408.6 574.25 110.15 572.15 111.75 766.2 410.05 Z"/>

<path fill="#0075c9" stroke="none" d="
M 669.4 237.8
L 670.05 238.7
Q 675.1 246.55 680.7 254.15 686.3 261.75 691.1 270 691.2 270.2 691.3 270.4 691.45 270.6 691.55 270.8 694.95 275.8 698.35 280.75 701.75 285.7 705.15 290.6 708.15 294.6 711.05 298.65 714 302.65 716.65 306.75 718.3 309.35 720 311.95 721.65 314.55 723.35 317.15 735.75 335.3 746.95 351.65 758.15 368 767.5 381.75 776.85 395.45 783.75 405.7
L 785.6 408.45
Q 786.5 409.75 787.35 411 787.35 410.55 787.2 410 787.05 409.45 786.85 408.9 786.7 408.5 786.55 408.2 786.45 407.85 786.35 407.6 786.05 407.25 785.7 406.75
L 785.3 406.1
Q 779.1 396.65 772.7 387.35 766.3 378.05 760.35 368.4 751.25 353.6 741.85 338.95 732.45 324.3 722.55 309.95 714.3 298.1 705.95 286.4 697.55 274.75 689.75 262.6 685.35 255.8 680.35 249.35 675.35 242.85 670.6 236.2 670.35 235.75 669.8 235 669.25 234.3 668.4 234.35 668.1 235.05 668.5 236 668.9 237 669.4 237.8 Z"/>
</g>

<g id="Symbol_46_0_Layer0_0_FILL">
<path fill="#82bc00" stroke="none" d="
M 957.25 636.4
L 900.4 636.15 928.35 847.5 957.25 636.4 Z"/>
</g>

<g id="Symbol_47_0_Layer0_0_FILL">
<path fill="#82bc00" stroke="none" d="
M 1015.35 632
L 973.55 634.3 989 819.4 1015.35 632 Z"/>
</g>

<g id="Symbol_48_0_Layer0_0_FILL">
<path fill="#0075c9" stroke="none" d="
M 826.75 19.9
L 827.1 20.3
Q 829.3 21.95 830.85 23.6
L 832.55 25.4
Q 859.85 53 878.75 89.15 897.7 125.35 910.4 162.4 919.25 188.25 919.65 219.35 920.05 250.45 913.75 281.1 907.45 311.75 896.1 336.2 894.4 339.9 891.65 345.45 888.85 351 885.55 356.65 882.95 361 880.3 364.4 877.7 367.85 875.2 369.5 874.6 369.9 874 370.2 873.45 370.55 872.9 370.75 872.35 371 871.9 371.15 871.4 371.35 870.95 371.4 870.7 371.7 870.45 371.9 870.2 372.15 869.95 372.3
L 869.6 372.65
Q 869.3 372.9 869.1 373.2 868.85 372.8 868.5 372.15 868.2 371.5 867.95 370.85 867.8 370.75 867.7 370.65 867.6 370.6 867.5 370.45 866.65 369.55 866.15 367.95 865.65 366.4 865.45 364.35 865.45 364.2 865.4 364.1 865.4 363.95 865.4 363.8 865.25 363.4 865.15 363.05 865.05 362.65 864.9 362.25 863.45 355.8 862.7 349.55 861.9 343.3 861.6 339.6 861.45 338.6 861.35 337.65 861.25 336.7 861.1 335.75 858.8 325.45 855.6 315.35 852.35 305.25 848.45 294.75 847.7 293.9 846.75 293.8 845.8 293.7 844.6 294.65
L 844.05 295.6
Q 843.7 296.3 843.4 296.9 842.1 294.95 840.95 293.65 839.75 292.35 838.9 292.05 838.35 291.9 838.1 292.1 837.9 292.3 838.05 292.8 838.35 293.55 838.95 294.25
L 839.75 295.2
Q 844.7 302.95 847.95 313.45 851.25 323.9 852.9 332.85 854.05 339.4 855.4 348.2 856.75 356.95 858.9 365.35 861.05 373.75 864.75 379.15 865.75 380.5 866.7 381.1 867.7 381.7 868.7 381.65 868.75 382.3 869 382.85 869.3 383.4 869.8 383.8 871.85 384.9 874.65 382 877.45 379.1 879.85 375.35 882.25 371.55 883.1 370.05 909.6 327.95 919.95 280.85 930.3 233.8 921.15 184.7 915.8 156.7 905.2 129.45 894.6 102.25 878.3 78.2 871.05 67.4 864.1 56.15 857.15 44.95 849.8 34.3 845.65 28.5 840.25 23.8 834.9 19.1 828.75 15.3 826.8 14 825.85 14.05 824.9 14.1 824.65 15.7 824.8 16.8 825.45 17.95 826.1 19.1 826.45 19.5 826.6 19.7 826.75 19.9 Z"/>

<path fill="#82bc00" stroke="none" d="
M 819.95 20.15
Q 819.6 20.7 819.5 21.25 818.25 21.3 816.85 22.35 815.4 23.35 814 25.55 812.85 27.35 811.7 29.2 810.5 31 809.4 32.85
L 808.95 33.55
Q 808.6 34.1 808.65 34.6 808 35.6 807.25 36.75
L 806.35 38.25
Q 794.5 57.55 785.85 77.85 777.2 98.1 769.25 118.75 767.85 122.4 766.75 126.05 765.65 129.65 764 133.1 761.25 130.6 758.4 128.55 755.5 126.55 754.15 126.95 753.95 127.05 753.65 127.3 753.35 127.55 753.35 127.85 753.45 129.15 754.85 130.2 756.2 131.3 756.85 131.75 758.1 132.9 759.35 134.15 760.6 135.4 761.85 136.8 761.75 136.95 761.65 137.1 761.55 137.2 761.45 137.35
L 760.75 138.05
Q 760.2 138.55 760.15 139.2 761.1 139.4 761.95 139.35 762.85 139.25 763.65 138.9 768.55 144.8 773.05 151.4 777.6 157.95 781.45 163.65 802.25 194.25 818.65 226.55 835.05 258.8 848.1 293.85
L 848.45 294.75
Q 852.35 305.25 855.6 315.35 858.8 325.45 861.1 335.75 862.6 342.4 863.65 349.25 864.75 356.1 865.35 363.4
L 865.4 363.8
Q 865.4 363.95 865.4 364.1 865.45 364.2 865.45 364.35 865.65 366.4 866.15 367.95 866.65 369.55 867.5 370.45 867.6 370.6 867.7 370.65 867.8 370.75 867.95 370.85 868.5 371.3 869.25 371.45 870 371.6 870.95 371.4 871.4 371.35 871.9 371.15 872.35 371 872.9 370.75 873.45 370.55 874 370.2 874.6 369.9 875.2 369.5 877.7 367.85 880.3 364.4 882.95 361 885.55 356.65 888.85 351 891.65 345.45 894.4 339.9 896.1 336.2 907.45 311.75 913.75 281.1 920.05 250.45 919.65 219.35 919.25 188.25 910.4 162.4 897.7 125.35 878.75 89.15 859.85 53 832.55 25.4
L 830.85 23.6
Q 829.3 21.95 827.1 20.3 825.45 19.1 823.8 18.65 822.15 18.15 820.9 19.05 820.3 19.6 819.95 20.15 Z"/>
</g>

<g id="Symbol_56_0_Layer0_0_FILL">
<path fill="#82bc00" stroke="none" d="
M 1031.3 268.85
Q 1028.65 247.1 1017.1 232.6 1005.55 218.1 984.95 216.6 972.05 216.2 961.7 222.8 951.35 229.35 943.55 239.5 935.75 249.65 930.4 260.1 924.85 271.55 918.35 296.25 911.85 320.95 906.9 343.3
L 901.05 370 904 374.35 913.2 379.15
Q 925.45 384.25 940.8 388.15 956.1 392 965.2 392.5 974.1 392.65 988.7 389.3 1003.3 385.95 1016.15 380.5 1029 375 1032.75 368.75
L 1033.7 344.25
Q 1033.95 325.9 1033.45 304.7 1032.95 283.55 1031.3 268.85 Z"/>
</g>

<g id="Symbol_39_0_Layer0_0_FILL">
<path fill="#82bc00" stroke="none" d="
M 1051.9 298
Q 1043.95 305.65 1042.2 316.25 1040.45 326.85 1044.65 335.9 1048.9 344.9 1058.95 347.7 1063.6 345.65 1073.55 338.2 1083.5 330.75 1091.75 319.05
L 1090 317.5 1085.15 314.1
Q 1078.8 309.75 1069.65 304.9 1060.45 300.05 1051.9 298 Z"/>
</g>

<g id="Symbol_23_0_Layer0_0_FILL">
<path fill="#82bc00" stroke="none" d="
M 793 728.5
L 804.5 735.2
Q 815.8 741.55 835.15 750 854.5 758.4 879 765
L 889.25 742.3
Q 898.45 720.9 910.3 692.8 922.15 664.75 931.1 643.45
L 940.5 621 915.1 609.95 793 728.5 Z"/>
</g>

<g id="Symbol_57_0_Layer0_0_FILL">
<path fill="#82bc00" stroke="none" d="
M 1045.1 289.1
Q 1017.8 286.95 992.85 286.7 967.9 286.45 958.25 292.05 959.8 312.85 958.4 354 956.95 395.15 954.9 443.45 952.85 491.75 952.45 534.1 951.7 571.35 945.15 594.85 938.6 618.3 933.7 631.6 928.75 644.85 932.85 651.45
L 941 657.25 948.15 659.6 957.35 661.55
Q 986.15 666.35 1016.6 642.9 1047.05 619.4 1072.55 570.25 1079.4 557.15 1088.75 535.4 1098.15 513.7 1106.5 486.4 1114.85 459.1 1118.55 429.3 1121.7 402.3 1119.8 376.55 1117.9 350.75 1110.4 328.75 1102.9 306.75 1089.15 291.15 1072.4 291.2 1045.1 289.1 Z"/>
</g>

<g id="Symbol_41_0_Layer0_0_FILL">
<path fill="#0075c9" stroke="none" d="
M 1010.6 309.3
L 1009.6 307.45 1008.25 305.8 1006.65 304.45 1004.75 303.45 1002.75 302.85 1000.6 302.65 998.5 302.85 996.5 303.45 994.6 304.45 993 305.8 991.65 307.45 990.65 309.3 990 311.35 989.8 313.45 990 315.55 990.65 317.6 991.65 319.45 993 321.1 994.6 322.45 996.5 323.45 998.5 324.05 1000.6 324.25 1002.75 324.05 1004.75 323.45 1006.65 322.45 1008.25 321.1 1009.6 319.45 1010.6 317.6 1011.25 315.55 1011.45 313.45 1011.25 311.35 1010.6 309.3 Z"/>
</g>

<g id="Symbol_42_0_Layer0_0_FILL">
<path fill="#82bc00" stroke="none" d="
M 1002.55 287.3
Q 993.7 287.75 989.4 294.25 985.1 300.8 984.25 308.95
L 1019.7 309.2 1018.65 303.5
Q 1017.5 298.2 1013.85 292.9 1010.15 287.65 1002.55 287.3 Z"/>
</g>

<g id="Symbol_58_0_Layer0_0_FILL">
<path fill="#0075c9" stroke="none" d="
M 827.2 565.35
Q 826.9 565.3 826.85 565.5 833.2 571.65 839 577.4 844.8 583.2 849.3 587.75 850.55 588.95 851.6 590.05 852.7 591.15 853.65 592.1 859.25 597.65 867.4 607.6 875.55 617.55 884.85 631.3 894.2 645 903.45 661.85 905.2 665 906.85 668.25 908.55 671.5 910.2 674.9 911.2 676.85 912.15 678.85 913.1 680.9 914.05 682.95 914.1 683.1 914.1 683.25 914.15 683.4 914.15 683.55
L 914.2 683.95
Q 914.25 684.1 914.3 684.2 914.35 684.35 914.4 684.5
L 914.35 684.95
Q 914.95 693.85 910.5 702.85 906.05 711.85 899.15 719.55 892.3 727.3 885.75 732.25 880.45 736.3 872.45 740.2 864.4 744.15 855.15 746.85 845.9 749.5 836.8 749.9
L 836 749.9
Q 835.35625 749.95 834.7 749.95 833.6 749.95 832.55 749.85 830.6 749.75 828.75 749.5 826.9 749.25 825.15 748.8 824.85 748.65 824.4 748.35 824 748.1 823.5 747.75 823.15 747.65 822.75 747.6 822.3 747.5 821.9 747.45 821.85 747.4 821.75 747.3 821.7 747.25 821.6 747.15 820.65 746.1 819.65 745.05 818.65 744 817.65 742.95 811.2 737.35 801.55 727.9 791.85 718.5 780.5 706.65 769.1 694.75 757.65 681.8 746.15 668.85 736.05 656.15 735.9 656.5 735.75 656.85 735.55 657.2 735.4 657.55 735.25 657.9 735.05 658.25 734.85 658.6 734.65 658.95 746.45 672.55 758.3 685.95 770.15 699.4 782.3 712.7 786.65 717.4 791.45 722.1 796.2 726.8 800.75 731.3 805 735.5 809.35 739.6 813.65 743.7 817.95 747.75 817.9 747.9 817.9 748.15 817.95 748.35 818 748.6 818.6 749.2 819.4 749.85
L 820.4 750.6
Q 821.15 751.15 822.1 751.9 823.05 752.7 823.9 753
L 824.35 753.15
Q 824.65 753.3 824.95 753.2 825.15 753.05 825.2 752.9 825.3 752.7 825.25 752.45 828.1 753.45 831.15 753.9 834.25 754.35 836.3 754.25
L 836.8 754.1
Q 837.25 754 837.6 754.05 838.25 754.1 838.95 754
L 839.85 753.85
Q 850.6 752.3 861 748.65 871.4 745 880.9 739.35 890.4 733.7 898.45 726.2 903.35 721.6 906.9 715.95 910.5 710.3 913 704.05 915.5 697.8 917.25 691.35 917.3 691.25 917.35 691.1 917.35 691 917.4 690.85 917.7 691.05 918 691 918.25 690.9 918.5 690.4
L 918.55 690.1
Q 918.55 689.9 918.55 689.65 918.45 689.35 918.35 689
L 918.3 688.5
Q 917.35 684.4 915.6 680.2 913.85 676.05 911.75 671.95 909.65 667.9 907.65 664.1 904.5 658.15 900.9 652.4 897.3 646.65 893.35 641.1 888.85 634.1 884 627.45 879.2 620.75 874.15 614.5 871.4 611.15 868.85 607.95 866.3 604.7 863.7 601.55 862.8 600.4 861.9 599.2 860.95 598.05 860.05 596.85 855.05 590.4 849.1 584.55 843.1 578.75 837.2 573 835.1 571 832.7 569.3 830.3 567.6 828 565.8 827.45 565.4 827.2 565.35
M 893.5 682.5
Q 896.95 682.1 901.3 681.9 901.6 681.9 902.2 681.8 902.85 681.7 903.2 681.3 902.7 680.95 901.9 680.85
L 901.25 680.75 900.8 680.75
Q 895.3 679.8 890.6 680.45 885.95 681.1 881.55 683 877.15 684.95 872.45 687.85 863.85 693.05 856.5 698.1 849.15 703.15 842.75 709.2 836.35 715.25 830.6 723.4 829.65 724.7 828 726.75 826.4 728.8 825.1 730.95 823.8 733.1 823.7 734.7
L 823.75 735.15
Q 823.85 735 824.1 734.7 824.35 734.25 824.75 733.8
L 825.05 733.45 825.2 733.2
Q 827.3 730.1 829.5 727.55 831.65 725.05 834.3 722.4 837.5 719.1 840.45 715.6 843.4 712.15 846.85 708.95 851.45 704.9 856.9 700.95 862.35 697 868.15 693.45 873.9 689.9 879.45 687 883.35 684.95 886.65 683.95 890 682.9 893.5 682.5 Z"/>

<path fill="#FFFFFF" stroke="none" d="
M 849.3 587.75
Q 844.8 583.2 839 577.4 833.2 571.65 826.85 565.5 820.05 558.95 813.5 553 806.95 547.05 801.55 542.75 796.15 538.5 792.8 537 782.35 532.5 773.1 535.6 763.85 538.65 754.85 547.65 745.85 556.65 736.25 570 726.65 583.4 715.55 599.6 714.05 601.65 712.35 604.25 710.65 606.85 709.9 609.85 709.1 612.85 710.3 616.15 713.45 624.15 720.2 634.4 726.95 644.65 736.05 656.15 746.15 668.85 757.65 681.8 769.1 694.75 780.5 706.65 791.85 718.5 801.55 727.9 811.2 737.35 817.65 742.95 819.5 744.55 820.95 745.75 822.45 746.95 823.5 747.75 824 748.1 824.4 748.35 824.85 748.65 825.15 748.8 826.9 749.25 828.75 749.5 830.6 749.75 832.55 749.85 833.6 749.9 834.65 749.9 835.3412109375 749.9314453125 836 749.9
L 836.8 749.9
Q 845.9 749.5 855.15 746.85 864.4 744.15 872.45 740.2 880.45 736.3 885.75 732.25 892.3 727.3 899.15 719.55 906.05 711.85 910.5 702.85 914.95 693.85 914.35 684.95 914.3 684.7 914.3 684.45 914.25 684.2 914.2 683.95
L 914.15 683.55
Q 914.15 683.4 914.1 683.25 914.1 683.1 914.05 682.95 913.1 680.9 912.15 678.85 911.2 676.85 910.2 674.9 908.55 671.5 906.85 668.25 905.2 665 903.45 661.85 894.2 645 884.85 631.3 875.55 617.55 867.4 607.6 859.25 597.65 853.65 592.1 852.7 591.15 851.6 590.05 850.55 588.95 849.3 587.75
M 901.3 681.9
Q 896.95 682.1 893.5 682.5 890 682.9 886.65 683.95 883.35 684.95 879.45 687 873.9 689.9 868.15 693.45 862.35 697 856.9 700.95 851.45 704.9 846.85 708.95 843.4 712.15 840.45 715.6 837.5 719.1 834.3 722.4 831.65 725.05 829.5 727.55 827.3 730.1 825.2 733.2
L 825.05 733.45 824.75 733.8
Q 824.35 734.25 824.1 734.7 823.85 735 823.75 735.15
L 823.7 734.7
Q 823.8 733.1 825.1 730.95 826.4 728.8 828 726.75 829.65 724.7 830.6 723.4 836.35 715.25 842.75 709.2 849.15 703.15 856.5 698.1 863.85 693.05 872.45 687.85 877.15 684.95 881.55 683 885.95 681.1 890.6 680.45 895.3 679.8 900.8 680.75
L 901.25 680.75 901.9 680.85
Q 902.7 680.95 903.2 681.3 902.85 681.7 902.2 681.8 901.6 681.9 901.3 681.9 Z"/>
</g>
</defs>



<g transform="matrix( 0.447540283203125, -0.494781494140625, 0.494781494140625, 0.447540283203125, 286.4,914.3) ">
<g transform="matrix( 1, 0, 0, 1, 0,0) ">
<use xlink:href="#Symbol_21_0_Layer0_0_FILL"/>
</g>
</g>

<g transform="matrix( 0.6642303466796875, 0.064788818359375, -0.064788818359375, 0.6642303466796875, 360.65,189.95) ">
<g transform="matrix( 1, 0, 0, 1, 0,0) ">
<use xlink:href="#Symbol_52_0_Layer0_0_FILL"/>
</g>
</g>

<g transform="matrix( 0.6876373291015625, -0.1092529296875, 0.1140899658203125, 0.6584320068359375, 304.15,387.35) ">
<g transform="matrix( 1, 0, 0, 1, 0,0) ">
<use xlink:href="#Symbol_53_0_Layer0_0_FILL"/>
</g>
</g>

<g transform="matrix( 0.6335296630859375, -0.210235595703125, 0.210235595703125, 0.6335296630859375, 347.75,525.5) ">
<g transform="matrix( 1, 0, 0, 1, 0,0) ">
<use xlink:href="#Symbol_35_0_Layer0_0_FILL"/>
</g>
</g>

<g transform="matrix( 0.6335296630859375, -0.210235595703125, 0.182373046875, 0.5496063232421875, 381.45,552.65) ">
<g transform="matrix( 1, 0, 0, 1, 0,0) ">
<use xlink:href="#Symbol_28_0_Layer0_0_FILL"/>
</g>
</g>

<g transform="matrix( 0.6671295166015625, 0.0225677490234375, -0.0225677490234375, 0.6671295166015625, 410,287.95) ">
<g transform="matrix( 1, 0, 0, 1, 0,0) ">
<use xlink:href="#Symbol_29_0_Layer0_0_FILL"/>
</g>
</g>

<g transform="matrix( 0.583770751953125, -0.1841278076171875, 0.1841278076171875, 0.583770751953125, 398.05,508.15) ">
<g transform="matrix( 1, 0, 0, 1, 0,0) ">
<use xlink:href="#Symbol_30_0_Layer0_0_FILL"/>
</g>
</g>

<g transform="matrix( 0.667572021484375, 0, 0, 0.667572021484375, 298,282.85) ">
<g transform="matrix( 1, 0, 0, 1, 0,0) ">
<use xlink:href="#Symbol_54_0_Layer0_0_FILL"/>
</g>
</g>

<g transform="matrix( 0.667388916015625, 0.016937255859375, -0.016937255859375, 0.667388916015625, 522.8,254.45) ">
<g transform="matrix( 1, 0, 0, 1, 0,0) ">
<use xlink:href="#Symbol_55_0_Layer0_0_FILL"/>
</g>
</g>

<g transform="matrix( 0.6106414794921875, -0.3087158203125, 0.275054931640625, 0.639862060546875, 269.5,558.15) ">
<g transform="matrix( 1, 0, 0, 1, 0,0) ">
<use xlink:href="#Symbol_43_0_Layer0_0_FILL"/>
</g>
</g>

<g transform="matrix( 0.66748046875, -0.018707275390625, 0.018707275390625, 0.66748046875, 400.45,340.35) ">
<g transform="matrix( 1, 0, 0, 1, 0,0) ">
<use xlink:href="#Symbol_31_0_Layer0_0_FILL"/>
</g>
</g>

<g transform="matrix( 0.138458251953125, 0.018829345703125, -0.018829345703125, 0.138458251953125, 819.95,299.85) ">
<g transform="matrix( 1, 0, 0, 1, 0,0) ">
<use xlink:href="#Symbol_46_0_Layer0_0_FILL"/>
</g>
</g>

<g transform="matrix( 0.135955810546875, -0.0322418212890625, 0.0322418212890625, 0.135955810546875, 782.45,345.1) ">
<g transform="matrix( 1, 0, 0, 1, 0,0) ">
<use xlink:href="#Symbol_47_0_Layer0_0_FILL"/>
</g>
</g>

<g transform="matrix( 0.1359710693359375, 0.041412353515625, -0.041412353515625, 0.1359710693359375, 816.65,335.3) ">
<g transform="matrix( 1, 0, 0, 1, 0,0) ">
<use xlink:href="#Symbol_48_0_Layer0_0_FILL"/>
</g>
</g>

<g transform="matrix( 0.0940704345703125, -0.1066436767578125, 0.1066436767578125, 0.0940704345703125, 788.15,439.95) ">
<g transform="matrix( 1, 0, 0, 1, 0,0) ">
<use xlink:href="#Symbol_56_0_Layer0_0_FILL"/>
</g>
</g>

<g transform="matrix( 0.1259918212890625, -0.0659332275390625, 0.0659332275390625, 0.1259918212890625, 763.3,388.7) ">
<g transform="matrix( 1, 0, 0, 1, 0,0) ">
<use xlink:href="#Symbol_39_0_Layer0_0_FILL"/>
</g>
</g>

<g transform="matrix( 0.0714569091796875, -0.1157073974609375, -0.1249237060546875, -0.1163787841796875, 942.2,595.7) ">
<g transform="matrix( 1, 0, 0, 1, 0,0) ">
<use xlink:href="#Symbol_23_0_Layer0_0_FILL"/>
</g>
</g>

<g transform="matrix( 0.1230926513671875, -0.0661468505859375, 0.0661468505859375, 0.1230926513671875, 770.95,400.4) ">
<g transform="matrix( 1, 0, 0, 1, 0,0) ">
<use xlink:href="#Symbol_57_0_Layer0_0_FILL"/>
</g>
</g>

<g transform="matrix( 0.1420745849609375, -0.010833740234375, 0.0158233642578125, 0.1551666259765625, 764.1,323.7) ">
<g transform="matrix( 1, 0, 0, 1, 0,0) ">
<use xlink:href="#Symbol_41_0_Layer0_0_FILL"/>
</g>
</g>

<g transform="matrix( 0.1417999267578125, 0.0139923095703125, -0.01934814453125, 0.154754638671875, 775.15,299.2) ">
<g transform="matrix( 1, 0, 0, 1, 0,0) ">
<use xlink:href="#Symbol_42_0_Layer0_0_FILL"/>
</g>
</g>

<g transform="matrix( 0.61956787109375, -0.249969482421875, 0.249969482421875, 0.61956787109375, 278.15,509.95) ">
<g transform="matrix( 1, 0, 0, 1, 0,0) ">
<use xlink:href="#Symbol_58_0_Layer0_0_FILL"/>
</g>
</g>
</svg>
