
<svg xmlns="http://www.w3.org/2000/svg" version="1.1" xmlns:xlink="http://www.w3.org/1999/xlink" preserveAspectRatio="none" x="0px" y="0px" width="760px" height="880px" viewBox="614 10 760 880">
<defs>


<g id="Symbol_21_0_Layer0_0_FILL">
<path fill="#FFFFFF" stroke="none" d="
M 1131.55 490.6
Q 1119.35 482.3 1104.25 480.6 1089.2 478.95 1074.95 482.65 1060.7 486.3 1051.1 494 1041.45 501.7 1040.2 512.05 1040.65 525.3 1035.25 546.9 1029.8 568.5 1022.45 594.8 1015.15 621.15 1010 648.75 1004.85 676.35 1006 701.65 1012.75 715.85 1021 724.05 1029.3 732.25 1039 735.7 1048.7 739.15 1059.75 739.05 1070.95 738.95 1081.25 734.4 1091.55 729.9 1099.25 721.95 1106.95 714.05 1110.35 703.85
L 1120.95 665.15
Q 1128.6 635.25 1135.45 598.15 1142.3 561 1142.7 530.65 1143.15 500.25 1131.55 490.6 Z"/>
</g>

<g id="Layer0_1_FILL">
<path fill="#FFFFFF" stroke="none" d="
M 886.2 715.8
Q 859.05 716.25 842.5 718.6 844.5 748.4 844.8 778.2 845.1 808 843.8 838.4 842.5 868.85 839.7 900.55
L 846.45 904.2 859.25 908.25
Q 875.05 912.4 896.5 914.45 918 916.55 938.75 913.8 959.55 911.05 973.25 900.75 982.4 886.1 990.65 864.05 998.85 842 1007.45 817.15 1016.1 792.25 1026.3 769.1 1036.55 745.9 1049.7 728.9 1031.35 724.25 1003.3 721.15 975.25 718.1 944.3 716.75 913.35 715.35 886.2 715.8 Z"/>
</g>

<g id="Symbol_25_0_Layer0_0_FILL">
<path fill="#0081C6" stroke="none" d="
M 943.35 838.65
Q 942.15 836.05 941.4 832.95 940.6 829.9 939.6 827.1
L 939.2 826.4 938.9 826.25
Q 938.6 826.4 938.45 827.1 938.3 827.8 938.3 828.5 938.5 831.6 939.5 835.45 940.5 839.25 942.25 842.4 943.95 845.55 946.3 846.7 950.3 848.25 953.15 845.6 956 842.95 957.6 838.15 959.2 833.4 959.35 828.65 959.35 827.95 959.35 826.95 959.3 825.95 959.1 825.15 958.85 824.4 958.4 824.45 958.25 824.75 958.1 825.1
L 957.95 825.6
Q 957.35 827.6 957.1 829.8 956.8 831.95 956.3 834.1 955.15 838.55 953 841.25 950.85 843.95 948.25 843.6 945.7 843.25 943.35 838.65 Z"/>
</g>

<g id="Layer0_3_FILL">
<path fill="#FFFFFF" stroke="none" d="
M 917.35 691.3
Q 917.25 690.6 917.1 690.05 916.65 690.2 916.1 690.35
L 915.4 690.6
Q 902.65 694.6 889.65 697.7 876.65 700.8 863.65 703.85 858.7 705.1 853 706.3 847.3 707.55 841.6 707.9 835.85 708.25 830.8 706.95 828.85 706.4 828.05 705.4 827.25 704.45 827.05 703.05 826.85 701.65 826.75 699.85 826.45 697.45 824.85 696.3 823.25 695.2 821.05 696.45 819.85 697.3 819.45 698.85 819 700.35 818.75 701.7 818.65 702.1 818.6 702.5 818.5 702.9 818.4 703.3
L 818.25 703.6 818.05 704.2
Q 817.8 704.9 817.65 705.5 817.6 705.85 817.5 706.3
L 817.45 706.85
Q 816.9 712.95 820.3 716.8 823.7 720.65 828.95 722.7 834.2 724.8 839.25 725.5 848.5 726.9 857.3 726.85 866.1 726.85 875.35 725.65 884 724.55 892.7 723.15 901.35 721.75 909.9 719.85 912.4 719.3 914.85 718.55 917.3 717.85 919.65 717
L 920.6 716.7 921.1 716.4 921.25 715.95 921.3 714.95
Q 921.2 712.05 920.6 708.85 920.05 705.7 919.5 702.8 919.05 700.5 918.65 698.2 918.25 695.95 917.8 693.65
L 917.35 691.3 Z"/>
</g>

<g id="Layer0_4_FILL">
<path fill="#FFFFFF" stroke="none" d="
M 849.75 362.85
L 847.8 363.65 846.45 364.95
Q 843.3 372.05 833.85 382.8 824.4 393.6 812.7 405.7 801 417.8 791 428.9 781 440 776.7 447.8 772.7 456 769.8 475.9 766.85 495.8 765.4 520.25 763.95 544.75 764.5 566.65 765 588.5 767.9 600.7 770.7 612.45 770.1 627.05 769.45 641.6 767.15 656.95 764.8 672.35 762.4 686.4 760 700.45 759.25 711.2 757.7 743.5 769.5 764.15 781.25 784.8 802 796 822.8 807.15 848.25 811 873.75 814.8 899.65 813.45 909.45 812.95 918.85 811.95 928.25 810.95 937.05 809.5 939.65 809.1 942.15 808.65 944.65 808.2 947.05 807.7 980.05 801.05 1004.75 784.25 1029.45 767.5 1046.1 743.15 1062.75 718.8 1071.7 689.5 1074.95 678.9 1077.2 667.85 1079.45 656.85 1080.7 645.5 1080.9 644.1 1081 642.65 1081.15 641.25 1081.3 639.8 1083.55 614.1 1080.95 588.15 1078.35 562.15 1070.95 537.3 1063.6 512.45 1051.65 490.2 1043.55 475.05 1033.35 461.7 1023.15 448.35 1010.95 437.2
L 985.7 422.8
Q 962.15 409.6 931 393.7 899.8 377.75 875.15 368.3
L 864.1 364.5 855.65 362.7 849.75 362.85 Z"/>

<path fill="#0081C6" stroke="none" d="
M 937.65 812.05
Q 937.75 810.65 937.05 809.5 928.25 810.95 918.85 811.95 909.45 812.95 899.65 813.45 904.7 814.5 909.75 815.55 914.8 816.6 919.85 817.65 923.2 817.7 926.5 817.55 929.85 817.35 932.45 816.7 935.1 816.05 936.35 814.75 937.5 813.4 937.65 812.05
M 1051.95 489.95
L 1051.65 490.2
Q 1063.6 512.45 1070.95 537.3 1078.35 562.15 1080.95 588.15 1083.55 614.1 1081.3 639.8 1081.15 641.25 1081 642.65 1080.9 644.1 1080.7 645.5 1079.45 656.85 1077.2 667.85 1074.95 678.9 1071.7 689.5
L 1071.85 689.5
Q 1073.95 689.15 1075.45 687 1076.95 684.85 1078 682 1079.05 679.2 1079.65 676.85
L 1079.8 676.15
Q 1079.95 675.55 1080.05 675.05 1080.3 674.5 1080.4 673.8
L 1080.55 673.25 1080.6 672.95
Q 1081.5 669.5 1082.25 666.3 1083.05 663.05 1083.65 659.5 1087.45 635.75 1087.5 612.4 1087.6 589.1 1083.95 567.15 1078.45 547.1 1070.4 527.7 1062.4 508.3 1051.95 489.95 Z"/>
</g>

<g id="Symbol_62_0_Layer0_0_FILL">
<path fill="#0081C6" stroke="none" d="
M 1164.9 393.25
Q 1164.9 392.6 1164.7 391.9 1164.55 391.2 1163.8 391.25 1163.2 391.6 1163 392.35 1162.75 393.15 1162.65 393.5 1160.65 398.8 1157.7 404.15 1154.75 409.5 1151.25 414.55 1147.75 419.6 1144.05 424.1 1138.7 430.95 1132.7 436.95 1126.65 442.95 1119.95 448.05 1116.55 450.65 1112.65 453.05 1108.8 455.45 1104.4 457.65 1101.15 459.25 1097.6 460.8 1094.05 462.3 1090.2 463.7 1084.05 465.9 1077.15 467.75 1070.2 469.6 1062.6 471.05 1046.75 474.1 1027.75 475.1 1008.75 476.1 986.65 474.75
L 986.2 474.75
Q 986 474.75 985.85 474.7 985.65 474.7 985.45 474.7
L 986.9 474.9
Q 991.9 475.5 996.9 475.95 1001.9 476.45 1006.9 476.7
L 1007.85 476.8
Q 1008.05 476.8 1008.25 476.8
L 1008.6 476.8
Q 1030.95 477.95 1053.15 475.4 1075.35 472.8 1096.5 466.2 1098 465.55 1099.5 464.9 1101 464.25 1102.5 463.6 1107.3 461.45 1111.85 459.2 1116.4 457 1120.8 454.65 1122.55 453.5 1124.3 452.3 1126.05 451.1 1127.8 449.85 1134 445.35 1139.9 440.25 1145.8 435.1 1151.35 429.45
L 1150.3 429.7 1148.7 430.45
Q 1146.85 431.45 1144.65 432.9 1148.8 428.4 1152.6 423.4 1156.35 418.45 1159.75 413.05 1162.5 408.6 1163.8 403.6 1165.1 398.55 1164.9 393.25 Z"/>

<path fill="#FFFFFF" stroke="none" d="
M 1122.8 255.7
Q 1110 273.4 1094.75 285.3 1079.5 297.2 1063.95 294.65 1055.65 292.65 1050.65 285.8 1045.7 279 1043.2 270.45 1040.75 261.95 1039.95 254.7 1039.2 247.5 1039.2 244.7 1039.1 241.9 1037.25 240.05 1035.45 238.2 1032.75 237.9 1030 237.6 1027.25 239.6 1022.9 242.9 1016.85 247 1010.75 251.05 1003.75 253.85 996.8 256.6 989.75 256.05 986.3 255.55 980.9 251.8 975.45 248.05 969 242.55 962.55 237.1 956.1 231.5 949.65 225.85 944.15 221.65 939.8 218.15 928.8 215.2 917.8 212.2 901.4 212.95 884.95 213.7 864.2 221.35 849.8 227.1 840.35 234.2 830.9 241.3 825.95 247.15
L 822 251.95 820.15 254.8
Q 816.25 262.3 810.05 279.1 803.9 295.9 797.55 314.65 791.2 333.4 786.9 346.75
L 782.4 360.7 784.7 367.7
Q 786.85 374.25 792.8 384.7 798.7 395.1 810.25 407.25 821.75 419.4 840.75 431.1 864.35 445.05 887.95 453.8 911.55 462.55 931.45 467.05 951.35 471.55 963.95 472.8 969.5 473.45 974.9 473.9 980.25 474.35 985.45 474.7 985.65 474.7 985.85 474.7 986 474.75 986.2 474.75
L 986.65 474.75
Q 1008.75 476.1 1027.75 475.1 1046.75 474.1 1062.6 471.05 1070.2 469.6 1077.15 467.75 1084.05 465.9 1090.2 463.7 1094.05 462.3 1097.6 460.8 1101.15 459.25 1104.4 457.65 1108.8 455.45 1112.65 453.05 1116.55 450.65 1119.95 448.05 1126.65 442.95 1132.7 436.95 1138.7 430.95 1144.05 424.1 1155.2 409.65 1163.05 392.1 1170.85 374.55 1175.1 354.65 1179.3 334.75 1179.65 313.25 1180.05 279.35 1178 256.95 1175.95 234.6 1173.45 222.6
L 1170.05 207.8
Q 1168.55 202.4 1165.05 200.7 1161.55 199 1158.1 200.15 1154.65 201.3 1153.2 204.55
L 1143.75 223.05
Q 1135.55 238 1122.8 255.7 Z"/>
</g>

<g id="Symbol_28_0_Layer0_0_FILL">
<path fill="#0081C6" stroke="none" d="
M 1017.45 346.15
Q 1018.85 343.35 1019.4 339.95 1019.9 336.55 1019.4 333.5 1018.95 330.45 1017.65 328.05 1016.3 325.6 1014.3 324.05 1012.3 322.55 1009.75 322.2 1007.25 321.9 1004.85 322.9 1002.45 323.85 1000.45 325.9 998.4 327.9 997 330.7 995.65 333.55 995.1 336.9 994.55 340.3 995.05 343.35 995.55 346.4 996.85 348.85 998.15 351.3 1000.15 352.8 1002.2 354.35 1004.7 354.65 1007.25 354.95 1009.65 354 1012 353 1014.05 351 1016.05 349 1017.45 346.15 Z"/>
</g>

<g id="Symbol_29_0_Layer0_0_FILL">
<path fill="#0081C6" stroke="none" d="
M 1030.1 321.85
Q 1021.85 320.25 1013.45 318.7 1005.05 317.2 997.2 315.9 996.25 316.35 996.65 317.05 997.05 317.75 998.8 318.2 1005.4 319.7 1012.25 320.7 1019.1 321.75 1025.8 322.95 1026.4 323.05 1027.6 323.05 1028.8 323.05 1029.65 322.8 1030.5 322.55 1030.1 321.85 Z"/>

<path fill="#FFFFFF" stroke="none" d="
M 1003.4 280.35
Q 996.4 283.45 991.75 289.2 987.1 295 984.25 301.55 981.4 308.05 979.7 313.45 983.55 313.9 988 314.5 992.4 315.15 997.2 315.9 1005.05 317.2 1013.45 318.7 1021.85 320.25 1030.1 321.85 1034 322.6 1037.8 323.35 1041.6 324.1 1045.15 324.8 1046.1 318.35 1045.95 311.15 1045.8 303.9 1043.5 297.2 1041.15 290.45 1035.6 285.55 1030.1 280.6 1020.3 278.8 1010.35 277.3 1003.4 280.35 Z"/>
</g>

<g id="Symbol_30_0_Layer0_0_FILL">
<path fill="#0081C6" stroke="none" d="
M 829.15 132.95
L 827.9 133
Q 818.8 134.15 809.85 139.5 800.9 144.8 793.1 152.1 785.3 159.4 779.75 166.3 775.65 171.4 773.2 176.3 770.8 181.15 769.2 186.3 767.95 189.45 766.95 192.9 765.95 196.4 765.2 200.1
L 764.75 201.5
Q 764.55 202.25 764.6 202.95 763.45 209.2 762.8 215.35 762.1 221.5 761.8 227 761.2 237.2 762.25 247.6 763.25 258 765.4 268.35 767.5 278.7 770.15 288.65
L 770.7 290.25
Q 771.15 291.45 771.8 292.8 770.45 297.35 769.5 301.4 768.6 305.4 768.1 309.55 767.6 313.65 767.45 318.45 767.35 319.6 767.2 320.8 767.05 322 767.2 323.15 767.2 323.3 767.25 323.7 767.3 324.1 767.65 324.3 768.5 325.7 770.15 327 771.8 328.3 773.35 329.3 774.9 330.3 775.6 330.7 778.5 332.65 782 332.8 785.55 333 789.25 332.1 789.45 331.5 789.7 331 789.95 330.5 790.35 330.1 790.4 330 790.5 329.9 790.6 329.8 790.65 329.7 789.05 330.05 787.45 330.2 785.85 330.4 784.35 330.45 783.4 330.5 782.4 330.35 781.4 330.2 780.45 329.95
L 780 330 779.45 329.6
Q 776.75 328.55 774.4 326.75 772.05 325 770.25 322.9
L 769.7 322.5 769.65 322.15
Q 769.55 322.05 769.45 321.95 769.35 321.8 769.2 321.7 769.3 321.25 769.35 320.8 769.45 320.4 769.45 320 769.25 317.25 770.05 311.05 770.8 304.85 773.65 294.85 773.85 294.3 774 293.7 774.2 293.1 774.4 292.5
L 774.25 291.6
Q 774.05 290.9 773.8 289.7 772.8 285.55 771.05 277.9 769.3 270.25 767.65 261.75 766.05 253.25 765.45 246.55 765.1 242.8 764.7 235.65 764.35 228.45 765.05 218.95 765.8 209.45 768.7 198.75 769.3 196.75 769.95 194.75 770.6 192.75 771.4 190.7 774.35 182.9 779.15 175.2 783.95 167.5 791 160.3 798.1 153.1 807.85 146.85 811.4 144.2 814.9 142.15 818.4 140.1 821.75 138.8 822.5 138.5 823.45 138.2 824.45 137.95 825.5 137.6 826.6 137.15 827.75 136.7 828.9 136.2 830.1 135.75 830.85 135.25 831.05 134.65 831.25 134 830.75 133.25 830.05 132.9 829.15 132.95
M 993.1 245.5
L 992.95 245.4
Q 992.8 245.5 992.65 245.6 992.45 245.7 992.3 245.8
L 992 246.05 993.1 245.5
M 988.5 220.1
Q 983.3 209.2 977.05 198.4 970.8 187.55 964.75 177 961.55 171.25 957.15 164.8 952.8 158.35 947.45 152.15 942.15 145.95 936.2 141 935.7 140 934.55 138.9 933.4 137.85 932.25 137 931.1 136.15 930.55 135.8 922.6 130.4 913.05 127.05 903.5 123.75 893.45 122.3 883.4 120.9 873.9 121.15
L 872.85 121.15
Q 872.05 121.15 871.45 121.4 871.05 121.35 870.55 121.45
L 869.95 121.5
Q 869.4 121.6 868.85 121.75 868.3 121.85 867.75 121.95
L 864.2 123.2
Q 861.45 124.25 859.8 125.55 858.1 126.85 860.5 127.8 875.15 125.8 887.15 127.05 899.15 128.35 908.65 131.8 918.15 135.3 925.25 139.8 925.9 140.05 926.55 140.35 927.2 140.6 927.85 140.85 928.25 141.3 928.7 141.75 929.1 142.2 929.55 142.65 935.4 146.9 939.35 150.8 943.3 154.75 945.45 157.5 948.55 161.35 954 169.65 959.5 177.95 965.8 187.95 972.1 197.9 977.65 206.9 983.2 215.9 986.4 221.15 987.7 223.2 988.35 224.35
L 989.05 225.45 1004.05 232.5 1004.25 232.75 1004.6 233.5
Q 1005.1 234.45 1005.4 236.05 1005.65 237.65 1005 239.55 1004.4 241 1002.7 242.3 1001.05 243.65 999.15 244.65 997.2 245.65 995.9 246.25 996.1 246.55 996.25 246.95 996.35 247.3 996.45 247.75 997.05 247.65 997.7 247.65 998.3 247.65 998.95 247.75 1002.15 246.4 1004.8 244.75 1007.45 243.1 1008.45 241.5 1011.25 236.2 1007.95 232.35 1004.6 228.45 999 225.95 993.35 223.45 989.3 222.15 989.15 221.7 988.95 221.15 988.75 220.65 988.5 220.1 Z"/>

<path fill="#0081C6" stroke="none" d="
M 975.7 245.95
L 991.5 244 993.45 242.6
Q 994.8 241.6 996.1 240.45 997.35 239.35 997.5 238.7
L 996.3 237.75 993.3 237.35 981.85 238.05
Q 966.75 239.8 940.1 246.75 913.45 253.75 878.1 267 862.3 273.05 846.55 280.55 830.85 288.05 817.3 295.85 803.8 303.65 794.55 310.6 785.25 317.55 782.4 322.5
L 782.35 322.55
Q 784.1 323.8 785.65 324.9 787.15 326.05 788.1 326.7
L 789.05 326.7 804 315.55
Q 816.15 306.95 837.25 295.35 858.35 283.7 888 272.05 920.05 259.9 941.75 253.9 963.45 247.9 975.7 245.95 Z"/>

<path fill="#FFFFFF" stroke="none" d="
M 986.4 221.15
Q 983.2 215.9 977.65 206.9 972.1 197.9 965.8 187.95 959.5 177.95 954 169.65 948.55 161.35 945.45 157.5 943.3 154.75 939.35 150.8 935.4 146.9 929.55 142.65 928.55 141.95 927.45 141.2 926.4 140.5 925.25 139.8 918.15 135.3 908.65 131.8 899.15 128.35 887.15 127.05 875.15 125.8 860.5 127.8 854.25 128.7 847.5 130.35 840.7 132.05 833.45 134.55 832.6 134.85 831.75 135.15 830.9 135.45 830.1 135.75 828.9 136.2 827.75 136.7 826.6 137.15 825.5 137.6 820.6 139.7 816.2 142 811.8 144.35 807.85 146.85 798.1 153.1 791 160.3 783.95 167.5 779.15 175.2 774.35 182.9 771.4 190.7 770.6 192.75 769.95 194.75 769.3 196.75 768.7 198.75 765.8 209.45 765.05 218.95 764.35 228.45 764.7 235.65 765.1 242.8 765.45 246.55 766.05 253.25 767.65 261.75 769.3 270.25 771.05 277.9 772.8 285.55 773.8 289.7 774.05 290.9 774.25 291.6
L 774.4 292.5
Q 774.2 293.1 774 293.7 773.85 294.3 773.65 294.85 770.8 304.85 770.05 311.05 769.25 317.25 769.45 320 769.5 320.85 769.55 321.4 769.6 321.95 769.65 322.15
L 769.7 322.5 770.25 322.9 779.45 329.6 780 330 780.45 329.95 789 328.7 790.8 326.7 789.05 326.7 788.1 326.7 786.6 326.7 785.2 326.35
Q 783.9 326 782.85 325.1 781.8 324.2 782.35 322.55
L 782.4 322.5
Q 785.25 317.55 794.55 310.6 803.8 303.65 817.3 295.85 830.85 288.05 846.55 280.55 862.3 273.05 878.1 267 913.45 253.75 940.1 246.75 966.75 239.8 981.85 238.05
L 993.3 237.35 996.3 237.75 997.5 238.7
Q 997.35 239.35 996.1 240.45 994.8 241.6 993.45 242.6
L 991.5 244 991.3 244.15 992.95 245.4 993.1 245.5 994.7 246.75 995 246.6
Q 995.35 246.5 995.9 246.25 997.2 245.65 999.15 244.65 1001.05 243.65 1002.7 242.3 1004.4 241 1005 239.55 1005.65 237.65 1005.4 236.05 1005.1 234.45 1004.6 233.5
L 1004.25 232.75 1004.05 232.5 989.05 225.45 988.35 224.35
Q 987.7 223.2 986.4 221.15 Z"/>
</g>

<g id="Symbol_46_0_Layer0_0_FILL">
<path fill="#a6ce38" stroke="none" d="
M 957.25 636.4
L 900.4 636.15 928.35 847.5 957.25 636.4 Z"/>
</g>

<g id="Symbol_64_0_Layer0_0_FILL">
<path fill="#a6ce38" stroke="none" d="
M 1058.4 706.4
L 1005.45 685.75 1007.35 780.65 966.3 858.2 1050.4 793.3 1058.4 706.4 Z"/>
</g>

<g id="Symbol_38_0_Layer0_0_FILL">
<path fill="#a6ce38" stroke="none" d="
M 1014.75 275.85
Q 1000.7 265.35 978.7 264.45 965.05 264.3 954.95 269.2 944.9 274.05 937.95 281.55 930.95 289 926.65 296.7 922.3 305.1 918.55 323.15 914.85 341.25 912.45 357.55
L 909.7 377.1 913.4 380.25 923.7 383.7
Q 937.3 387.3 954 389.95 970.7 392.65 980.35 392.95 989.8 393 1004.8 390.4 1019.75 387.85 1032.65 383.7 1045.55 379.6 1048.75 375
L 1046.55 357.15
Q 1044.5 343.75 1041.25 328.3 1038.05 312.85 1034.4 302.15 1028.8 286.3 1014.75 275.85 Z"/>
</g>

<g id="Symbol_39_0_Layer0_0_FILL">
<path fill="#a6ce38" stroke="none" d="
M 1051.9 298
Q 1043.95 305.65 1042.2 316.25 1040.45 326.85 1044.65 335.9 1048.9 344.9 1058.95 347.7 1063.6 345.65 1073.55 338.2 1083.5 330.75 1091.75 319.05
L 1090 317.5 1085.15 314.1
Q 1078.8 309.75 1069.65 304.9 1060.45 300.05 1051.9 298 Z"/>
</g>

<g id="Layer0_13_FILL">
<path fill="#a6ce38" stroke="none" d="
M 910.85 427.9
Q 910.65 427.75 910.4 427.7 910.2 427.7 910 427.75 909.95 429.6 909.85 431.35 909.75 433.1 909.6 434.8
L 910.8 431.55
Q 911.65 429.25 910.85 427.9
M 838.75 539.6
Q 838.15 540.35 837.5 541.1 832.3 547.45 827.55 554.65 822.85 561.85 820.7 569.35 820.55 570 820.4 570.65 820.25 571.3 820.15 571.95 819.55 575.4 819.95 578.85 820.35 582.25 821.95 585.55 825.65 579.45 829.1 573.1 832.5 566.8 836.2 560.6
L 840.75 554.4
Q 844.15 549.6 845.8 543.9 847.4 538.2 843.2 534
L 843.1 534.15 842.95 534.3 842.95 534.35 842.8 534.5
Q 842.15 535.35 841.45 536.25 840.7 537.15 839.95 538.05
L 838.75 539.6
M 1038.85 352.65
Q 1030.35 347.3 1020.25 343 1005.15 336.45 987.35 331.15 969.55 325.85 953.25 324.2
L 951.65 323.95
Q 950.35 323.8 949.25 323.9 946.55 323.9 941.2 323.8 935.85 323.7 931.55 324.95 928.95 325.4 927.65 328.1 926.35 330.8 925.85 333.7 922.5 352.5 922.05 372 921.55 391.5 918.45 410.35 917 417.75 914.55 424.75 912.1 431.75 909.25 438.55 909.05 439.95 908.9 441.3 908.7 442.65 908.5 443.95
L 908.5 444
Q 908.15 446.35 907.8 448.6
L 907.1 453.05
Q 906.9 454.05 906.75 455.05 906.6 456.05 906.45 457.05 906.4 457.65 906.3 458.3 906.2 458.9 906.15 459.55 905.95 461.15 905.8 462.75 905.65 464.35 905.55 466 905.55 466.35 905.55 466.75 905.55 467.15 905.55 467.55 905.55 467.65 905.6 467.75
L 905.7 468
Q 906.15 469.3 906.7 470.6 907.25 471.9 907.9 473.2 907.95 473.35 908 473.5 908.1 473.65 908.15 473.8 908.45 474.4 908.8 475 909.15 475.65 909.45 476.25 909.75 476.75 910 477.25 910.3 477.7 910.6 478.2 911.7 484.1 913.8 490.35 915.85 496.6 918.75 503.85 923.4 515.85 929.65 526.5 935.9 537.15 944.05 545.95 943.8 546.95 943.4 547.8 942.95 548.65 942.4 549.4 942.35 549.45 942.25 549.55 942.2 549.65 942.15 549.7 943.5 550.8 944.8 551.8 946.1 552.8 947.35 553.7 947.15 553.95 946.95 554.3 946.8 554.6 946.6 555.05 945.85 556.6 944.75 558.25 943.7 559.85 943 561.65 941.4 566.45 938.7 570.15 936 573.85 932.5 576.7 928.55 578.9 924.75 581.2 920.95 583.5 917.35 585.9 916.85 586.2 916.3 586.45 915.75 586.7 915.25 586.95 908.3 590.2 898.25 596.75 888.2 603.35 879.9 611.5 880.1 611.25 880.2 610.95 880.35 610.7 880.45 610.4 879.85 609.9 879.1 610.2 878.4 610.5 878.05 610.65 870.3 612 862.75 610 855.2 607.95 847.85 605.9 843.9 604.9 840.55 603.85 837.2 602.8 834.35 601.6 833.15 601 832 600.4 830.8 599.8 829.55 599.15 828.8 598.7 828.05 598.2 827.35 597.75 826.6 597.2 825.8 596.4 825 595.6 824.2 594.75 823.5 593.9 823.35 593.8 823.25 593.65 823.15 593.55 823.05 593.45 820.05 591.35 817.95 587.85 815.85 584.3 815.15 581.3 814.7 579.4 814.6 577.45 814.5 575.5 814.7 573.55 814.85 572 815.15 570.4 815.5 568.85 815.95 567.25 816.5 565.45 817.2 563.6 817.95 561.75 818.85 559.9 819.7 558.05 820.75 556.25 821.75 554.4 822.85 552.65 824.1 550.7 825.4 548.75 826.7 546.85 828.05 545 828.6 544.25 829.15 543.55 829.7 542.8 830.25 542.1 831 541.05 831.8 540 832.6 539 833.4 538 834.15 537.1 834.85 536.2 835.55 535.3 836.25 534.45 836.45 534.2 836.65 533.95 836.85 533.7 837.05 533.45 833.45 533.9 830.2 535.5 826.95 537.1 824.1 539.55
L 824 539.6
Q 822.6 540.6 821.35 541.6 820.1 542.6 818.9 543.65 805 551.5 795.75 563.9 786.45 576.3 784.2 592.45 783.75 596.1 784.05 599.4 784.4 602.7 785.4 605.7 785.25 605.6 785.15 605.5 785 605.45 784.9 605.35 784.7 605.35 784.45 605.25 784.2 605.15 784.05 605.3 783.4 607.05 785.2 608.95 787 610.85 788.5 612.3
L 789.25 613.1
Q 792 617 795.8 620.2 799.6 623.45 804.1 626.15 820.1 640.7 840.75 647.35 861.45 654 882.85 656.4 885.9 656.8 891.5 657.5 897.1 658.15 902.55 658.45 908 658.75 910.6 658.05 910.7 658 910.85 658 910.95 657.95 911.1 657.9 914.1 657.9 916.95 657.75 919.8 657.6 922.45 657.35 934.5 656.15 946.8 653.9 959.15 651.65 971.5 648.4 969.1 649.35 966.7 650.2 964.25 651.1 961.8 651.85 961.2 651.95 960.3 652.15 959.45 652.3 959.45 652.85 960.45 652.9 961.6 652.7
L 963.1 652.4
Q 967.85 650.95 972.5 649.2 977.15 647.45 981.75 645.55 992.55 642.35 1003 638.5 1013.5 634.65 1023.4 630.25 1029.25 628.85 1034.5 626.3 1039.8 623.8 1044.45 619.25 1066.45 605.45 1081.35 586.35 1096.2 567.25 1103.45 544.65 1108.5 533.85 1111.95 522.85 1115.35 511.9 1116.85 501.2 1117 500 1117.15 498.8 1117.25 497.65 1117.35 496.5 1119.9 476 1114.7 456 1109.55 436 1098.9 414.6 1091.3 399.15 1080.15 386.75 1069 374.35 1055.2 364.9 1047.3 357.95 1038.85 352.65
M 946.2 339.8
Q 946 339.4 945.75 339.05 946.6 339.25 947.45 339.45 948.25 339.65 949.1 339.85 948.45 340 947.8 340.2 947.15 340.4 946.55 340.65 946.4 340.25 946.2 339.8
M 908.3 468.65
L 908.25 468.25
Q 908.25 468 908.25 467.8
L 908.45 467.75
Q 908.4 467.95 908.35 468.2
L 908.3 468.65
M 958.4 564.3
Q 955.85 565.35 953.2 566.55 953.8 564.3 953.55 562.1 953.3 559.9 952.1 557.85 951.8 557.4 951.55 556.95
L 951 556
Q 953.2 557.15 955.7 558.2 958.15 559.25 960.85 560.15
L 961.65 560.65
Q 962.05 560.9 962.45 561.15
L 962.95 561.75
Q 963.15 562 963.4 562.3 960.95 563.25 958.4 564.3
M 937.9 337.75
L 937.75 335.95
Q 938.1 336.15 938.5 336.3 938.85 336.45 939.2 336.6 938.75 336.8 938.45 337.1 938.1 337.4 937.9 337.75 Z"/>

<path fill="#0081C6" stroke="none" d="
M 853.9 519.75
L 855.15 519.2
Q 856.05 518.85 856.6 518.25 856.65 518 856.5 517.85 856.4 517.7 856.25 517.55 855.8 517.3 855.1 517.25 854.4 517.2 854.1 517.25 850.45 518.1 847.05 521.55 843.65 524.95 841.45 527.95 840.45 529.2 839.35 530.6 838.25 532 837.05 533.45 836.85 533.7 836.65 533.95 836.45 534.2 836.25 534.45 835.55 535.3 834.85 536.2 834.15 537.1 833.4 538 832.6 539 831.8 540 831 541.05 830.25 542.1 829.7 542.8 829.15 543.55 828.6 544.25 828.05 545 826.7 546.85 825.4 548.75 824.1 550.7 822.85 552.65 821.75 554.4 820.75 556.25 819.7 558.05 818.85 559.9 817.95 561.75 817.2 563.6 816.5 565.45 815.95 567.25 815.5 568.85 815.15 570.4 814.85 572 814.7 573.55 814.5 575.5 814.6 577.45 814.7 579.4 815.15 581.3 815.85 584.3 817.95 587.85 820.05 591.35 823.05 593.45 824.3 594.2 825.6 594.55 826.9 594.85 828.25 594.5 828.2 593.55 827.35 592.7 826.55 591.9 826.15 591.55 824.8 590.1 823.75 588.6 822.7 587.1 821.95 585.55 820.35 582.25 819.95 578.85 819.55 575.4 820.15 571.95 820.25 571.3 820.4 570.65 820.55 570 820.7 569.35 822.85 561.85 827.55 554.65 832.3 547.45 837.5 541.1 838.15 540.35 838.75 539.6
L 839.95 538.05
Q 840.7 537.15 841.45 536.25 842.15 535.35 842.8 534.5
L 842.95 534.35 842.95 534.3 843.1 534.15 843.2 534
Q 845.45 530.85 848.55 526.35 851.6 521.85 853.9 519.75 Z"/>
</g>

<g id="Symbol_106_0_Layer0_0_FILL">
<path fill="#0081C6" stroke="none" d="
M 1010.6 309.3
L 1009.6 307.45 1008.25 305.8 1006.65 304.45 1004.75 303.45 1002.75 302.85 1000.6 302.65 998.5 302.85 996.5 303.45 994.6 304.45 993 305.8 991.65 307.45 990.65 309.3 990 311.35 989.8 313.45 990 315.55 990.65 317.6 991.65 319.45 993 321.1 994.6 322.45 996.5 323.45 998.5 324.05 1000.6 324.25 1002.75 324.05 1004.75 323.45 1006.65 322.45 1008.25 321.1 1009.6 319.45 1010.6 317.6 1011.25 315.55 1011.45 313.45 1011.25 311.35 1010.6 309.3 Z"/>
</g>

<g id="Symbol_42_0_Layer0_0_FILL">
<path fill="#a6ce38" stroke="none" d="
M 1002.55 287.3
Q 993.7 287.75 989.4 294.25 985.1 300.8 984.25 308.95
L 1019.7 309.2 1018.65 303.5
Q 1017.5 298.2 1013.85 292.9 1010.15 287.65 1002.55 287.3 Z"/>
</g>

<g id="Symbol_86_0_Layer0_0_FILL">
<path fill="#0081C6" stroke="none" d="
M 839.45 476.85
Q 825.1 469.8 812.05 461.3 806.5 457.65 801.6 453.75 796.65 449.9 792.65 445.85 789.1 442.3 786.4 438.65 783.7 435 782.05 431.25
L 781.95 431.15 781.9 431.1 780.65 430.35
Q 779.6 429.75 778.6 429.4 777.95 428.8 776.9 428.3 775.9 427.8 775.05 428.35 774.4 428.85 774.65 429.5 774.95 430.1 775.15 430.55 777.15 436.65 780.3 441.5 783.4 446.35 787.45 451.15 790.3 454.55 793.8 457.65 797.3 460.8 801.35 463.65 802.2 464.75 802.9 465.55 803.65 466.35 804.2 466.85 819.15 479.25 837.95 487.3 856.7 495.35 875.3 500.95 878.75 502.1 882.5 503.5 886.25 504.95 889.9 506.05 889.15 510.95 889.6 515.85 890.1 520.75 891.5 524.15 895.9 534.45 905.85 542.95 915.75 551.4 927.5 557.9 939.3 564.4 949.3 568.6 952.4 569.95 955.05 570.85 957.75 571.8 960.35 572.4 959.8 583.05 963.25 589.1 966.75 595.15 974.05 600.2 975.7 602.7 978.55 604.55 981.45 606.4 985.15 607.75 988.4 609.6 993.1 611.25 997.85 612.9 1000.7 611.4 1002.05 611.85 1003.1 612.05 1004.2 612.2 1004.85 612.05
L 1004.9 612
Q 1007.6 612.4 1009.95 612.7 1012.3 613 1014.15 613.25 1037.6 616.75 1061.4 615.85 1085.25 614.9 1108.9 610.9 1109 611.25 1109.2 611.55 1109.45 611.9 1109.75 612.25 1110.25 612.7 1110.35 612.15
L 1110.4 611.4
Q 1110.8 611.1 1111.35 610.85 1111.9 610.55 1112.55 610.3 1118.1 609.3 1123.6 608.25 1129.1 607.15 1134.55 606 1137 605.7 1139.05 605.4 1141.1 605.15 1142.55 604.95 1164.05 602.3 1188 597.95 1211.95 593.65 1230.2 581.25 1231.8 580.05 1234.55 576.85 1237.3 573.65 1237.1 572 1236.95 571.75 1236.55 571.55 1236.15 571.4 1235.75 571.4
L 1235.7 571.85 1235.4 572
Q 1235.2 572.05 1235.05 572.1 1233.55 572.7 1232.05 573.25 1230.55 573.85 1229.05 574.4 1228.3 574.7 1227.55 574.95
L 1226.05 575.55
Q 1221.6 577.5 1217.3 579.45 1213.05 581.4 1208.7 583.3 1205.65 583.75 1202.6 584.25 1199.55 584.75 1196.55 585.3 1195.5 585.45 1194.45 585.65 1193.35 585.85 1192.35 586 1179.9 588.3 1167.55 590.8 1155.2 593.3 1142.85 595.8 1131.85 598.05 1120.75 600.1 1109.7 602.15 1098.55 603.9 1097.45 604.05 1096.35 604.2 1095.3 604.35 1094.2 604.5 1092.9 604.7 1091.6 604.85 1090.3 605.05 1089 605.2 1068 607.8 1047.8 607.4 1027.6 607 1006.8 603.75 1004.5 603.35 1002.15 603 999.85 602.6 997.5 602.15
L 997.2 602.1
Q 997.1 602.1 996.95 602.05 993.4 599.8 990.55 597.25 987.7 594.65 985.45 591.65 982.2 588.4 980 584.25 977.8 580.1 977 575 976.95 574.7 976.9 574.4 976.85 574.1 976.85 573.85 976.8 573.55 976.8 573.25 976.75 573 976.75 572.7 976.7 572.5 976.7 572.3 976.7 572.1 976.65 571.9 976.65 571.25 976.7 570.4 976.75 569.55 976.95 568.65
L 977 568.45
Q 976.8 568.4 976.6 568.35
L 976.15 568.3 976.1 568.15
Q 976.05 567.9 975.8 567.6 975.55 567.35 975.2 567.05 975.1 566.85 975.05 566.65 974.95 566.4 974.85 566.2 973.9 565.9 972.95 565.6
L 966.45 563.5
Q 964.15 562.8 961.75 562 958.3 560.9 954.8 559.7 951.25 558.55 947.7 557.25 943.75 555.8 939.8 554.15 935.9 552.55 932.1 550.75 927.9 548.75 924.05 546.45 920.15 544.2 916.65 541.6 913.55 539.3 910.9 536.75 908.2 534.2 906.05 531.3 904.85 529.7 903.8 528 902.8 526.25 901.95 524.45 901.6 522.95 901.4 521.4 901.2 519.85 901.1 518.2 901.05 516.4 901.1 514.6 901.2 512.85 901.45 511.15 901.55 510.65 901.65 510.2 901.75 509.7 901.85 509.25 902 508.7 902.15 508.15 902.35 507.6 902.55 507.1 902.55 506.65 902.55 506.2 902.6 505.75 902.6 505.35 902.75 505.15 902.75 504.9 902.8 504.7 902.7 504.45 902.75 503.95 902.8 503.5 902.85 503 902.95 502.5 902.65 502.45 902.35 502.35
L 901.75 502.2
Q 901.1 502 900.5 501.8 899.85 501.6 899.25 501.45 899.05 501.4 898.85 501.3
L 898.5 501.2
Q 897.95 501.05 897.45 500.9
L 896.1 500.45 895.85 500.4
Q 895.25 500.2 894.7 500
L 892.15 499.2
Q 889.15 498.15 886.05 497.05 883 495.9 879.95 494.7 876.95 493.5 873.55 492.15 870.1 490.75 866.35 489.15 853.8 483.9 839.45 476.85
M 974.8 385.05
Q 977.05 387.65 983.3 389.35 989.55 391.1 993.15 391.95 1009.25 396.35 1025.5 400 1041.75 403.6 1058.15 406.6 1068.45 408.45 1078.8 410.1 1089.15 411.75 1099.55 413.2 1107.95 414.35 1116.2 415.25 1124.5 416.15 1132.65 416.8 1138.2 417.3 1143.75 417.65 1149.25 418 1154.8 418.25 1170.4 419 1186.2 419.15 1202 419.25 1218.25 418.85 1229.45 418.55 1240.6 417.95 1251.8 417.4 1263 416.85
L 1267.65 416.6
Q 1271.35 416.3 1272.6 414.85 1272.45 414.35 1271.95 414.35
L 1271.3 414.3
Q 1271.1 414.25 1270.85 414.15 1270.65 414.1 1270.4 414 1269.35 413.7 1268.1 413.55 1266.85 413.35 1265.5 413.25 1266.05 413.15 1266.6 413 1267.15 412.9 1267.75 412.8 1269.5 412.4 1272.9 411 1276.25 409.55 1277.05 408.05 1277.4 407.05 1277.1 406.7 1276.85 406.35 1275.9 406.5 1275 406.4 1273.95 406.25
L 1272.6 406.1
Q 1266.45 405.75 1258.3 407.1 1250.2 408.5 1243.8 409.35 1217.85 412.3 1190.25 413.05 1162.7 413.8 1135.7 411.9 1127.65 411.15 1119.5 410.2 1111.35 409.25 1103.15 408.15
L 1102.5 408.05
Q 1079.7 404.95 1057.05 400.7 1034.4 396.45 1012.5 391 1004.6 388.85 995.55 386.1 986.5 383.3 978.7 382.95
L 977.55 382.8
Q 976.65 382.65 975.85 382.8 975.45 383.15 974.9 383.2 974.3 383.3 974.05 383.8 974.05 384.3 974.35 384.65
L 974.8 385.05 Z"/>

<path fill="#a6ce38" stroke="none" d="
M 1301.9 418.3
L 1305.35 415.15
Q 1306.35 412.15 1299.1 411.45 1292.05 412.35 1285.3 413 1278.55 413.7 1272.65 413.9 1272.35 413.9 1272.1 413.9
L 1271.6 413.9
Q 1271.3 413.95 1271 413.95 1270.7 414 1270.4 414 1270.65 414.1 1270.85 414.15 1271.1 414.25 1271.3 414.3
L 1271.95 414.35
Q 1272.45 414.35 1272.6 414.85 1271.35 416.3 1267.65 416.6
L 1263 416.85
Q 1251.8 417.4 1240.6 417.95 1229.45 418.55 1218.25 418.85 1202 419.25 1186.2 419.15 1170.4 419 1154.8 418.25 1149.25 418 1143.75 417.65 1138.2 417.3 1132.65 416.8 1124.5 416.15 1116.2 415.25 1107.95 414.35 1099.55 413.2 1089.15 411.75 1078.8 410.1 1068.45 408.45 1058.15 406.6 1034.5 402.95 1011.05 398.35 987.55 393.7 964.3 388.2 929.65 382.1 895.55 374.35 861.45 366.6 828.35 356.7 823.45 355.25 818.6 353.7 813.75 352.2 808.9 350.6 806.85 349.9 804.75 349.25 802.7 348.55 800.65 347.85 794.3 345.7 787.9 343.4 781.55 341.05 775.1 338.55 772.7 338.55 769.75 339.2 766.8 339.8 764.7 341.65 764.15 341.8 763.7 342.2
L 763.05 342.7
Q 754.5 349.75 755.1 357.3 755.7 364.8 761.95 371.95 768.2 379.1 776.45 385.1 779.8 388.85 784.25 392.55 788.7 396.25 793.8 399.75 792.45 400 790.6 400.45 788.8 400.95 787.2 401.6 786.1 402 785.05 402.4 783.95 402.85 782.95 403.25 782.75 403.5 782.45 403.6
L 782.05 403.7
Q 774.55 408.9 775.45 416.25 776.35 423.6 781.95 431.15
L 782.05 431.25
Q 783.7 435 786.4 438.65 789.1 442.3 792.65 445.85 796.65 449.9 801.6 453.75 806.5 457.65 812.05 461.3 825.1 469.8 839.45 476.85 853.8 483.9 866.35 489.15 870.1 490.75 873.55 492.15 876.95 493.5 879.95 494.7 883 495.9 886.05 497.05 889.15 498.15 892.15 499.2
L 894.7 500
Q 895.25 500.2 895.85 500.4
L 896.1 500.45 897.45 500.9
Q 897.95 501.05 898.5 501.2
L 898.85 501.3
Q 899.05 501.4 899.25 501.45 899.85 501.6 900.5 501.8 901.1 502 901.75 502.2
L 902.35 502.35
Q 902.65 502.45 902.95 502.5
L 903.8 502.75
Q 904.2 502.9 904.6 503 903.95 503.95 903.45 505 902.95 506 902.55 507.1 902.35 507.6 902.15 508.15 902 508.7 901.85 509.25 901.75 509.7 901.65 510.2 901.55 510.65 901.45 511.15 901.2 512.85 901.1 514.6 901.05 516.4 901.1 518.2 901.2 519.85 901.4 521.4 901.6 522.95 901.95 524.45 902.8 526.25 903.8 528 904.85 529.7 906.05 531.3 908.2 534.2 910.9 536.75 913.55 539.3 916.65 541.6 920.15 544.2 924.05 546.45 927.9 548.75 932.1 550.75 935.9 552.55 939.8 554.15 943.75 555.8 947.7 557.25 951.25 558.55 954.8 559.7 958.3 560.9 961.75 562 964.15 562.8 966.45 563.5
L 972.95 565.6
Q 973.9 565.9 974.85 566.2
L 977.5 567.05
Q 977.35 567.4 977.25 567.75 977.1 568.1 977 568.45
L 976.95 568.65
Q 976.75 569.55 976.7 570.4 976.65 571.25 976.65 571.9 976.7 572.1 976.7 572.3 976.7 572.5 976.75 572.7 976.75 573 976.8 573.25 976.8 573.55 976.85 573.85 976.85 574.1 976.9 574.4 976.95 574.7 977 575 977.8 580.1 980 584.25 982.2 588.4 985.45 591.65 989.75 595.85 995.25 598.8 1000.75 601.75 1006.8 603.75 1027.6 607 1047.8 607.4 1068 607.8 1089 605.2 1090.3 605.05 1091.6 604.85 1092.9 604.7 1094.2 604.5 1095.3 604.35 1096.35 604.2 1097.45 604.05 1098.55 603.9 1109.7 602.15 1120.75 600.1 1131.85 598.05 1142.85 595.8 1155.2 593.3 1167.55 590.8 1179.9 588.3 1192.35 586 1193.35 585.85 1194.45 585.65 1195.5 585.45 1196.55 585.3 1203.95 583.05 1211.35 580.65 1218.7 578.2 1226.05 575.55
L 1227.55 574.95
Q 1228.3 574.7 1229.05 574.4 1230.55 573.85 1232.05 573.25 1233.55 572.7 1235.05 572.1 1235.2 572.05 1235.4 572
L 1235.7 571.85 1235.75 571.4 1235.8 571.25
Q 1235.7 571.1 1235.6 571 1235.5 570.85 1235.35 570.8 1236.25 566.3 1236.95 562.1 1237.65 557.9 1238 556.3 1244.9 525.75 1249.2 494.9 1253.55 464.05 1259.7 433.3 1259.8 432.7 1260.1 431.6 1260.4 430.5 1260.75 429.1 1269.45 427.75 1277.7 425.9 1285.95 424.05 1293.6 421.7
L 1301.9 418.3
M 798.85 415.45
L 798.6 415.05
Q 798.5 414.85 798.35 414.7 798.5 414.5 798.6 414.35
L 798.85 414
Q 798.85 414.35 798.85 414.7 798.85 415.1 798.85 415.45
M 780.4 417.1
Q 780 415.9 779.85 414.7 779.7 413.5 779.85 412.4 779.95 413.4 780.15 414.4 780.35 415.45 780.6 416.45 780.55 416.6 780.5 416.75 780.45 416.95 780.4 417.1 Z"/>
</g>

<g id="Symbol_88_0_Layer0_0_FILL">
<path fill="#0081C6" stroke="none" d="
M 839.6 427.1
Q 829.65 416.6 817.3 408.15 805 399.65 791.2 396.3 777.4 392.9 762.95 397.65 761.8 397.55 760.55 397.85 759.3 398.1 758.4 398.4
L 757.75 398.65 757.45 398.8
Q 748.8 402.4 742.05 408.45 735.25 414.55 729.45 421.75 723.65 428.95 717.95 435.95 711.15 444.2 704.75 452.95 698.35 461.7 692.15 470.7 691.05 472.2 689.9 473.75 688.8 475.35 687.7 477 683.8 483.05 679.95 488.9 676.1 494.75 672.05 500.55 666.7 505.8 662.55 512.8 658.4 519.8 655.2 527.45 652 535.05 649.6 542.2 647.05 549.6 645.9 557.75 644.75 565.95 644.65 574.1 644.45 575.85 644.3 577.65 644.15 579.45 643.95 581.2 643.55 586 643.7 591.1 643.85 596.25 643.95 601.1 644 602.1 644 603.15 644 604.15 644.05 605.2 643.8 612.25 644.5 619.3 645.2 626.35 646.55 632.9 647.1 635.7 647.9 638.6 648.7 641.45 649.65 644.3
L 649.75 644.65
Q 650.6 648.4 651.75 652.1 652.95 655.8 654.5 659.5 656.3 663.55 658.4 668 660.55 672.4 663.1 676.7 665.6 681 668.5 684.7 670.8 688.15 673.3 691.55 675.85 694.95 678.5 698.2 679.1 699 679.8 699.7 680.5 700.35 681.1 699.55 681.1 698.95 680.75 698.3
L 680.3 697.4
Q 679.55 696.2 678.85 695.05 678.15 693.85 677.45 692.7 675.85 690.8 674.4 688.8 672.95 686.85 671.55 684.8 670.3 682.9 669.15 681 667.95 679.1 666.85 677.15 663.8 671.8 661.3 666.1 658.8 660.4 656.75 654.45 656.3 653.3 655.85 652.15 655.4 650.95 655 649.8 654.4 647.65 653.85 645.5 653.35 643.35 652.9 641.15 652.55 639.75 652.25 638.35 651.9 637 651.6 635.55 650.8 631.75 650.2 627.85 649.55 624 649.05 620.1 648.45 615 648.1 609.85 647.7 604.75 647.6 599.6 647.6 599.15 647.55 598.75 647.55 598.35 647.55 597.9 647.5 594.95 647.55 592 647.55 589 647.65 586.05 647.8 582.75 648 579.5 648.2 576.25 648.5 573 648.6 571.35 648.8 569.65 648.95 568 649.15 566.35 649.75 561.35 650.5 556.4 651.3 551.45 652.25 546.6
L 652.35 546.3
Q 654 538.25 659.35 527.5 664.65 516.8 672.5 504.5 680.3 492.25 689.5 479.55 690.45 478.25 691.4 476.95 692.35 475.65 693.3 474.35 704.15 459.7 714.9 446.5 725.6 433.3 734.4 423.35 743.25 413.4 748.4 408.45 749.7 407.2 750.7 406.35 751.7 405.55 752.35 405.15 754.25 404 756.35 403.05 758.4 402.15 760.65 401.5 765.9 399.95 771.75 399.65 777.65 399.35 783.95 400.3 788.45 400.75 793.4 402.1 798.3 403.5 803.85 405.85 805.2 406.45 806.55 407.1 807.95 407.75 809.3 408.5 816.4 412 823.1 416.75 829.8 421.55 835.8 427.45 845.45 437.15 850.95 447.5 856.45 457.85 858.75 468.3 859.2 470.35 859.55 472.4 859.9 474.45 860.15 476.5 860.9 482.4 860.95 488.15 860.95 493.9 860.45 499.4 859.9 502.75 858.9 507.2 857.9 511.7 856.55 517.15
L 855.4 521.8
Q 855.194921875 522.7634765625 854.95 523.7 854.15 527 853.2 530.25 849.9 542.85 845.65 557.8 841.45 572.75 836.65 588.9 831.9 605.1 826.95 621.4 823.95 631.2 819.7 642 815.5 652.85 810 663.7 810.6 663.1 811.05 662.55
L 811.7 661.85
Q 814.6 658.3 816.95 653.95 819.3 649.6 821.3 645.05 823.35 640.5 825.3 636.25 828.45 629.6 830.85 622.1 833.2 614.6 835.25 606.95 837.25 599.3 839.3 592.15 844.25 575.35 849.2 558.5 854.2 541.65 858.7 524.7 860.95 516.4 862.7 507.3 864.4 498.2 864.35 489.1 864.25 479.95 861.15 471.65
L 861.15 471.25
Q 860.85 463.65 857.65 455.5 854.5 447.35 849.65 439.95 844.85 432.5 839.6 427.1
M 816 491.6
L 817.3 491.95
Q 818.3 492.15 819.25 492.2 819.7 492.2 820.15 492.4
L 820.75 492.6
Q 823.85 493.25 827.45 493.45 831.05 493.65 834.6 493.45 838.15 493.2 841.15 492.65 841.6 492.6 842.55 492.45 843.55 492.3 844.55 491.95 845.55 491.55 846 490.9 845.85 490.5 845.2 490.45 844.55 490.35 844.2 490.35 842.65 490.15 841.05 490.2 839.4 490.25 837.85 490.25 827.85 490.35 819.65 489.1 811.45 487.8 803.95 484.4 796.4 480.95 788.4 474.7 779.9 468.15 774 461.7 768.05 455.2 764.55 447.3 761.05 439.35 759.85 428.5 759.5 425 759.55 421.45 759.6 417.9 759.25 414.5 759.2 413.95 758.95 412.7 758.7 411.45 757.95 410.75 757.3 410.75 757.45 411.2 757.55 411.65 757.6 412 756.85 419.75 757.1 427.45 757.35 435.15 759.3 442.5 761.3 449.85 765.8 456.5 771.5 464.75 779.65 471.85 787.75 479 797.1 484.15 806.5 489.3 816 491.6
M 869.5 761.9
Q 869.55 762.85 869.7 763.6
L 869.8 763.55
Q 869.8 762.75 869.8 761.9 869.8 761 869.8 760.1 869.5 760.95 869.5 761.9 Z"/>

<path fill="#FFFFFF" stroke="none" d="
M 835.8 427.45
Q 829.8 421.55 823.1 416.75 816.4 412 809.3 408.5 802.95 405.35 796.55 403.3 790.15 401.25 783.95 400.3 777.65 399.35 771.75 399.65 765.9 399.95 760.65 401.5 758.4 402.15 756.35 403.05 754.25 404 752.35 405.15 751.7 405.55 750.7 406.35 749.7 407.2 748.4 408.45 743.25 413.4 734.4 423.35 725.6 433.3 714.9 446.5 704.15 459.7 693.3 474.35 692.35 475.65 691.4 476.95 690.45 478.25 689.5 479.55 680.3 492.25 672.5 504.5 664.65 516.8 659.35 527.5 654 538.25 652.35 546.3
L 652.25 546.6
Q 651.3 551.45 650.5 556.4 649.75 561.35 649.15 566.35 648.95 568 648.8 569.65 648.6 571.35 648.5 573 648.2 576.25 648 579.5 647.8 582.75 647.65 586.05 647.55 589 647.55 592 647.5 594.95 647.55 597.9 647.55 598.35 647.55 598.75 647.6 599.15 647.6 599.6 647.7 604.75 648.1 609.85 648.45 615 649.05 620.1 649.55 624 650.2 627.85 650.8 631.75 651.6 635.55 651.9 637 652.25 638.35 652.55 639.75 652.9 641.15 653.7 644.55 654.7 647.85 655.65 651.2 656.75 654.45 658.8 660.4 661.3 666.1 663.8 671.8 666.85 677.15 667.95 679.1 669.15 681 670.3 682.9 671.55 684.8 672.95 686.85 674.4 688.8 675.85 690.8 677.45 692.7 683.1 699.7 689.95 705.7 696.85 711.7 705.05 716.5 722.95 726.8 738.55 726.1 754.15 725.35 767.35 716.6 780.55 707.8 791.25 693.85 801.95 679.95 810 663.7 815.5 652.85 819.7 642 823.95 631.2 826.95 621.4 831.9 605.1 836.65 588.9 841.45 572.75 845.65 557.8 849.9 542.85 853.2 530.25 854.15 526.75 855 523.45 855.2125 522.625 855.4 521.8
L 856.55 517.15
Q 857.9 511.7 858.9 507.2 859.9 502.75 860.45 499.4 860.95 493.9 860.95 488.15 860.9 482.4 860.15 476.5 859.9 474.45 859.55 472.4 859.2 470.35 858.75 468.3 856.45 457.85 850.95 447.5 845.45 437.15 835.8 427.45
M 817.3 491.95
L 816 491.6
Q 806.5 489.3 797.1 484.15 787.75 479 779.65 471.85 771.5 464.75 765.8 456.5 761.3 449.85 759.3 442.5 757.35 435.15 757.1 427.45 756.85 419.75 757.6 412 757.55 411.65 757.45 411.2 757.3 410.75 757.95 410.75 758.7 411.45 758.95 412.7 759.2 413.95 759.25 414.5 759.6 417.9 759.55 421.45 759.5 425 759.85 428.5 761.05 439.35 764.55 447.3 768.05 455.2 774 461.7 779.9 468.15 788.4 474.7 796.4 480.95 803.95 484.4 811.45 487.8 819.65 489.1 827.85 490.35 837.85 490.25 839.4 490.25 841.05 490.2 842.65 490.15 844.2 490.35 844.55 490.35 845.2 490.45 845.85 490.5 846 490.9 845.55 491.55 844.55 491.95 843.55 492.3 842.55 492.45 841.6 492.6 841.15 492.65 838.15 493.2 834.6 493.45 831.05 493.65 827.45 493.45 823.85 493.25 820.75 492.6
L 820.15 492.4
Q 819.7 492.2 819.25 492.2 818.3 492.15 817.3 491.95 Z"/>
</g>

<g id="Symbol_27_0_Layer0_0_FILL">
<path fill="#0081C6" stroke="none" d="
M 943.65 840.8
Q 942.6 838.75 942.2 837.35 941.45 834.6 941.05 831.85 940.7 829.05 940.15 826.35
L 939.65 824.85 939.1 824.45
Q 938.5 824.55 938.05 825.8 937.65 827 937.65 828.25 937.8 831.4 938.75 835.75 939.7 840.1 941.85 843.7 943.95 847.3 947.65 848.15 951.1 848.6 953.45 845.55 955.8 842.55 957.1 838.5 958.4 834.45 958.75 831.75 958.9 830.75 958.95 828.85 959 826.95 958.7 825.25 958.4 823.5 957.45 822.95
L 957.25 822.9
Q 957.1 822.9 957.05 822.95 956.7 823.3 956.6 823.8
L 956.45 824.5
Q 956.2 826.4 956.15 828.4 956.15 830.4 955.8 832.35 955.5 834.05 954.65 836.85 953.8 839.65 952.5 842.15 951.2 844.6 949.5 845.25 947.75 845.7 946.2 844.3 944.7 842.85 943.65 840.8 Z"/>
</g>

<g id="Symbol_75_0_Layer0_0_FILL">
<path fill="#0081C6" stroke="none" d="
M 922.45 560
Q 922.9 558.9 923.3 557.8 918.5 563.6 912.15 570.85 905.8 578.1 898.25 586.2 890.75 594.35 882.5 602.85 880.7 605 879.3 606.95 877.95 608.95 877.8 609.9 877.75 610.25 877.75 610.55 877.8 610.85 878.3 610.85 878.8 610.8 879.3 610.15 879.85 609.5 880.2 608.85
L 880.55 608.15
Q 883.05 604.8 886.15 601.8 889.3 598.75 892.55 595.8 895.85 592.85 898.7 589.75 903.55 584.45 908.3 579.4 913 574.35 917.4 568.9 918.4 567.25 919.45 565.55 920.5 563.85 921.5 562.2
L 921.5 562.15
Q 922 561.05 922.45 560
M 850.45 454.65
Q 846.9 455.5 843.8 457 840.75 458.55 837.75 460.65 837 461.25 837.25 461.6 837.5 461.95 838.35 461.65 838.75 461.55 839.1 461.4 839.45 461.25 839.85 461.1 841.2 460.25 843 459.55 844.75 458.8 846.65 458.25 847.75 457.8 848.9 457.45 850 457.05 851.2 456.75
L 851.3 456.7
Q 852.25 456.45 853.3 456.25 854.3 456.1 855.35 456 859.65 455.5 864.4 455.8 869.2 456.1 873.6 457.5 874.8 457.75 876.05 458 877.25 458.3 878.45 458.65
L 878.4 458.6
Q 877.15 457.9 875.85 457.3 874.6 456.65 873.3 456.1 869.65 454.8 865.5 454.2 861.35 453.65 857.45 453.75 853.5 453.9 850.45 454.65 Z"/>

<path fill="#FFFFFF" stroke="none" d="
M 914.05 484
Q 910.15 479.5 903.3 474.5 896.45 469.45 888.05 465.05 879.65 460.65 871.1 458.1 862.6 455.5 855.35 456 854.3 456.1 853.3 456.25 852.25 456.45 851.3 456.7
L 851.2 456.75
Q 833.9 464.6 813.35 481.95 792.8 499.3 773.7 519.35 754.6 539.45 741.65 555.4
L 731.45 568.65 726.65 576.45
Q 733.2 585.75 745.4 600.75 757.6 615.75 771 630.95 784.45 646.2 794.75 656.2
L 803.15 663.55 805.95 665.25 807.8 665.6
Q 817.3 661.15 829.7 651.5 842.1 641.85 855.7 629.15 869.35 616.4 882.5 602.85 890.75 594.35 898.25 586.2 905.8 578.1 912.15 570.85 918.5 563.6 923.3 557.8 927.7 552.5 930.45 548.85 933.2 545.2 933.95 543.6 935.6 533.5 932.75 522.05 929.85 510.6 924.65 500.45 919.45 490.3 914.05 484 Z"/>
</g>

<g id="Symbol_31_0_Layer0_0_FILL">
<path fill="#FFFFFF" stroke="none" d="
M 698.35 280.75
Q 694.95 275.8 691.55 270.8 668.2 236.85 645.85 204.3 623.45 171.75 605.2 145.3 587 118.8 576.15 103.05
L 565 86.9 547.4 97.9 758 424.15
Q 758.35 425.7 759.2 427.2 760 428.65 760.7 429.65
L 761.45 430.75
Q 763 433.6 764.35 436.6 765.65 439.6 767.2 442.6 771.2 450.15 775.55 457.6 779.95 465 784.35 472.45 787.1 477.65 789.9 482.85 792.65 488.05 795.2 493.35 795.6 494.15 796 495 796.35 495.85 796.75 496.75 797.1 498.55 797.7 500.1
L 798.5 502.05
Q 811.05 537 823.2 572.1 835.4 607.15 848.1 642.05 848.5 643.05 849.1 643.6 849.65 644.15 850.25 644.2 852.4 646.5 855 648.7 857.55 650.95 859.3 652.9 860.1 653.9 861.95 655.75 863.8 657.6 865.65 658.2 867.5 658.8 868.3 656.15 868.35 656 868.35 655.85 868.4 655.7 868.35 655.55 870.35 654.35 872.2 652.95 874.05 651.55 874.9 650.9 879.85 647.3 884.3 643.2 888.75 639.1 893.3 635.1 897.85 631.05 902.95 627.8 905.4 626.1 907.45 623.7 909.5 621.3 912.1 619.3
L 914.95 617.25
Q 917.05 615.7 919.35 613.7 921.6 611.7 922.85 609.9
L 922.75 609.65
Q 922.7 609.55 922.6 609.45 922.55 609.35 922.5 609.25 922.1 608.5 921.7 607.75 921.3 607 920.9 606.25 920.2 604.85 919.5 603.35 918.85 601.9 918.2 600.4 916.15 597.35 914.3 594.75 912.4 592.2 911.6 591
L 907.65 585.1
Q 907.4 584.9 907.15 584.6 906.9 584.3 906.7 583.95 896 568.05 885.45 552.1 874.85 536.1 864.35 520.1 847.95 497.8 832.2 475.05 816.45 452.3 801.4 429.2 798.1 424.15 794.35 418.95 790.6 413.7 786.85 408.9 787.05 409.45 787.2 410 787.35 410.55 787.35 411 786.5 409.75 785.6 408.45
L 783.75 405.7
Q 776.85 395.45 767.5 381.75 758.15 368 746.95 351.65 735.75 335.3 723.35 317.15
L 714.35 304
Q 709.75 297.35 705.15 290.6 701.75 285.7 698.35 280.75
M 769.1 408.6
L 766.2 410.05 572.15 111.75 574.25 110.15 769.1 408.6
M 831.4 584.55
Q 830.85 583.05 830.35 581.55 829.8 580 829.3 578.5 824.9 565.8 820.5 553.35 816.15 540.9 812.2 529.9 808.25 518.85 805.15 510.45 804.95 510 804.8 509.55
L 804.5 508.7
Q 802.85 504.35 801.6 501.1 800.3 497.8 799.4 495.75 799.15 495.15 798.85 494.5 798.55 493.85 798.25 493.2 798.15 493.05 798.1 492.85 798 492.7 797.95 492.55 795.8 488.1 792.85 482.6 789.85 477.05 786.45 471.1 783 465.1 779.5 459.2 774.85 451.3 770.8 444.65 766.75 438.05 764.3 434.05
L 761.7 429.9
Q 762.5 428.8 763.3 427.7 764.1 426.6 764.9 425.55 766.7 423.25 769.1 421.1 771.5 418.9 775.1 416.8 778.7 414.7 784 412.65 784.45 412.45 784.95 412.3 785.45 412.1 785.95 411.9 786.25 411.8 786.6 411.7 786.9 411.55 787.25 411.45
L 787.55 411.35 808.4 442.05
Q 826.3 468.4 849.85 503.05 873.35 537.65 893.25 566.9
L 920.1 606.35
Q 921.1 607.85 921.6 608.6
L 922.1 609.4 865.25 657.3 865.1 657.15
Q 864.9 657 864.6 656.7 864.45 656.6 864.35 656.5 864.2 656.35 864.05 656.2 862.35 654.7 859.6 652.15 856.85 649.6 854.5 647.2
L 852.65 645.15 851.75 643.8
Q 851.75 643.7 851.7 643.6 851.65 643.45 851.6 643.35 849.7 637.85 846.65 628.8 843.55 619.8 839.65 608.45 835.75 597.1 831.4 584.55
M 917.9 609.7
L 918 609.6 909.3 597.9 856.95 643.55 865.65 653.65 917.9 609.7 Z"/>

<path fill="#0081C6" stroke="none" d="
M 830.35 581.55
Q 830.85 583.05 831.4 584.55 835.75 597.1 839.65 608.45 843.55 619.8 846.65 628.8 849.7 637.85 851.6 643.35 851.65 643.45 851.7 643.6 851.75 643.7 851.75 643.8
L 852.65 645.15 854.5 647.2
Q 856.85 649.6 859.6 652.15 862.35 654.7 864.05 656.2 864.2 656.35 864.35 656.5 864.45 656.6 864.6 656.7 864.9 657 865.1 657.15
L 865.25 657.3 922.1 609.4 921.6 608.6
Q 921.1 607.85 920.1 606.35
L 893.25 566.9
Q 873.35 537.65 849.85 503.05 826.3 468.4 808.4 442.05
L 787.55 411.35 787.25 411.45
Q 786.9 411.55 786.6 411.7 786.25 411.8 785.95 411.9 785.45 412.1 784.95 412.3 784.45 412.45 784 412.65 778.7 414.7 775.1 416.8 771.5 418.9 769.1 421.1 766.7 423.25 764.9 425.55 764.1 426.6 763.3 427.7 762.5 428.8 761.7 429.9
L 764.3 434.05
Q 766.75 438.05 770.8 444.65 774.85 451.3 779.5 459.2 783 465.1 786.45 471.1 789.85 477.05 792.85 482.6 795.8 488.1 797.95 492.55 798 492.7 798.1 492.85 798.15 493.05 798.25 493.2 798.55 493.85 798.85 494.5 799.15 495.15 799.4 495.75 800.3 497.8 801.6 501.1 802.85 504.35 804.5 508.7
L 804.8 509.55
Q 804.95 510 805.15 510.45 808.25 518.85 812.2 529.9 816.15 540.9 820.5 553.35 824.9 565.8 829.3 578.5 829.8 580 830.35 581.55
M 918 609.6
L 917.9 609.7 865.65 653.65 856.95 643.55 909.3 597.9 918 609.6
M 766.2 410.05
L 769.1 408.6 574.25 110.15 572.15 111.75 766.2 410.05 Z"/>

<path fill="#0081C6" stroke="none" d="
M 669.4 237.8
L 670.05 238.7
Q 675.1 246.55 680.7 254.15 686.3 261.75 691.1 270 691.2 270.2 691.3 270.4 691.45 270.6 691.55 270.8 694.95 275.8 698.35 280.75 701.75 285.7 705.15 290.6 708.15 294.6 711.05 298.65 714 302.65 716.65 306.75 718.3 309.35 720 311.95 721.65 314.55 723.35 317.15 735.75 335.3 746.95 351.65 758.15 368 767.5 381.75 776.85 395.45 783.75 405.7
L 785.6 408.45
Q 786.5 409.75 787.35 411 787.35 410.55 787.2 410 787.05 409.45 786.85 408.9 786.7 408.5 786.55 408.2 786.45 407.85 786.35 407.6 786.05 407.25 785.7 406.75
L 785.3 406.1
Q 779.1 396.65 772.7 387.35 766.3 378.05 760.35 368.4 751.25 353.6 741.85 338.95 732.45 324.3 722.55 309.95 714.3 298.1 705.95 286.4 697.55 274.75 689.75 262.6 685.35 255.8 680.35 249.35 675.35 242.85 670.6 236.2 670.35 235.75 669.8 235 669.25 234.3 668.4 234.35 668.1 235.05 668.5 236 668.9 237 669.4 237.8 Z"/>
</g>

<g id="Symbol_110_0_Layer0_0_FILL">
<path fill="#0081C6" stroke="none" d="
M 759.35 655.55
Q 758.35 653.25 757.45 650.9 757.35 652.1 757 653.15 756.7 654.15 756.05 654.15 755.85 654.15 755.7 654 755.618359375 653.938671875 755.55 653.85 757.337109375 658.3388671875 759.2 662.8 761.15 667.35 762.85 671.6 764.15 675.05 765.5 677.6 766.85 680.2 769.25 683.05 769.75 683.65 770.1 684.2 770.45 684.75 770.7 685.2 774.6 689.5 779.5 693.25 784.4 697 789.9 699.85 795.45 702.7 801.3 704.2 801.15 704.1 801 703.9 800.85 703.75 800.75 703.6 800.6 703.3 800.55 703 800.55 702.65 800.85 702.45 801.4 702.4 802 702.6
L 802.5 702.75 802.8 702.8
Q 803.95 702.9 805.3 702.75 806.65 702.6 808.05 702.65 813.85 703 819.1 702.3 824.4 701.65 829.2 700.05 816.9 702.9 806.8 701.25 796.75 699.6 788.95 695.3 781.15 690.95 775.8 685.7 772.9 682.9 769.1 676.2 765.3 669.55 761.3 659.95 760.3 657.8 759.35 655.55
M 804.95 704.95
Q 806.1 705.15 807.3 705.3 809.05 705.35 810.75 705.4 812.5 705.4 814.2 705.4 815 705.35 815.8 705.2 816.6 705.1 817.4 704.95 813.95 704.95 810.15 704.85 806.35 704.75 802.55 704.5 803.75 704.8 804.95 704.95
M 853.75 579.7
Q 853.6 579.05 853.4 578.45 853.25 577.85 853.05 577.2 852.5 575.8 851.9 574.35 851.3 572.9 850.7 571.5 851.5 573.55 852.25 575.6 853 577.65 853.75 579.7
M 837.1 532.05
Q 838.9 536.2 840.45 540.5 842 544.8 843.95 548.95 844.55 550.15 845.1 551.4 845.7 552.6 846.25 553.8
L 845.8 552.45
Q 845.6 551.75 845.35 551.05 844.7 549.05 843.35 545 841.95 540.95 840.25 537.15 838.6 533.3 837.1 532.05
M 798.85 627.8
Q 797.15 628.7 795.3 629.65 785.4 638.35 780.4 649.55 775.4 660.7 773.8 673.5 773.95 675 774.15 676.15 774.35 677.3 774.65 677.8 774.75 678 774.9 678.35 775.05 678.75 775.45 678.8 776.05 678.3 776.4 677.4 776.75 676.45 776.9 675.55 777.05 674.6 777.15 674.25 778.9 665.25 781.15 658 783.35 650.8 787.5 645 791.65 639.25 799.25 634.65 804.15 630.6 810.15 628 816.1 625.4 823.15 624.55
L 824.8 624.45
Q 826.1 624.4 827.7 624.4 829.35 624.4 830.65 624.5 831.35 624.4 832.05 624.5
L 832.9 624.65
Q 834.75 624.85 836.6 625.15 838.4 625.4 840.25 625.8 841.1 625.95 842 626.15 842.85 626.35 843.75 626.55 850.6 627.65 856.9 630.25 863.2 632.9 869.3 636.75
L 869.8 637.05
Q 870.15 637.25 870.7 637.6 870.5 636.8 870.05 635.9 869.55 635.05 868.85 634.1
L 868.7 633.9
Q 861.75 627.75 854.35 624.05 846.95 620.4 838.3 619.4 829.7 618.4 818.95 620.2 814.8 621.05 810.65 622.55 806.45 624 802.3 626.1 800.6 626.95 798.85 627.8 Z"/>

<path fill="#0081C6" stroke="none" d="
M 833.65 529.15
Q 833.9 530.5 834.15 531.7 834.25 532.05 834.3 532.35 834.35 532.6 834.4 532.75 834.5 533.1 834.6 533.45 834.7 533.8 834.85 534.15 836 537.8 837.55 541.55 839.05 545.3 840.65 548.6 843.35 554.25 845.85 560 848.35 565.7 850.7 571.5 851.3 572.9 851.9 574.35 852.5 575.8 853.05 577.2 853.65 578.65 854.25 580.1 854.85 581.5 855.45 582.95 855.5 583.5 855.55 584 855.6 584.5 855.7 585 855.8 585.7 855.95 586.4 856.1 587.1 856.3 587.8 856.35 588.15 856.45 588.55 856.55 588.9 856.7 589.25 857.35 591.4 858.15 593.55 858.95 595.65 859.85 598.05 860.85 600.85 861.95 603.7 863.05 606.5 864.15 609.35 866.85 616 869.2 622.7 871.55 629.45 873 636.3
L 873 636.35
Q 873.8 640.25 873.85 643.55 873.85 646.85 873.4 650.15 872.95 653.4 872.25 657.25 871.4 662.15 869.25 667 867.15 671.85 864 676.15 860.85 680.4 856.95 683.6 850.25 689.1 843.5 693.35 836.7 697.55 829.3 700.05
L 829.2 700.05
Q 824.4 701.65 819.1 702.3 813.85 703 808.05 702.65 806.65 702.6 805.3 702.75 803.95 702.9 802.8 702.8
L 802.5 702.75 802 702.6
Q 801.4 702.4 800.85 702.45 800.55 702.65 800.55 703 800.6 703.3 800.75 703.6 800.85 703.75 801 703.9 801.15 704.1 801.3 704.2
L 801.55 704.45
Q 801.8 704.45 802.05 704.5 802.3 704.5 802.55 704.5 806.35 704.75 810.15 704.85 813.95 704.95 817.4 704.95 818.85 704.95 820.2 704.95 821.55 704.95 822.75 704.95 823.35 704.95 823.9 704.95 824.5 704.95 825.05 704.95 828.65 703.9 832.25 702.9 835.85 701.9 839.4 700.9 841.3 700 843.15 698.95 845 697.95 846.85 696.8 853.9 692.6 859.6 687.6 865.3 682.55 869.95 675.7 872.6 671.75 874.05 668.15 875.5 664.6 876.35 660.8 877.2 657.05 878 652.4 879.5 643.8 877.85 635.4 876.2 627.05 873.1 618.95 870.3 611.2 867.4 603.4 864.5 595.55 861.45 587.85 861.15 587.1 860.25 585.35 859.35 583.55 858.3 581.8 857.25 580.1 856.6 579.4 854.2 572.9 851.65 566.5 849.1 560.1 846.25 553.8 845.7 552.6 845.1 551.4 844.55 550.15 843.95 548.95 842 544.8 840.45 540.5 838.9 536.2 837.1 532.05 836.9 531.65 836.7 531.25 836.5 530.85 836.35 530.4
L 835.9 529.4
Q 835.5 528.6 834.95 527.8 834.4 527.05 833.8 527 833.65 527.1 833.6 527.25 833.5 527.4 833.5 527.5
L 833.5 528.05 833.65 529.15
M 743.35 579.45
Q 742.8 573.6 742.6 567.45 742.45 561.25 743.05 555.85 742.55 559.1 742.2 562.4 741.8 565.65 741.55 568.95 741.1 575.2 741 581.55 740.9 587.9 741.3 594.15 741.85 595.9 742.05 597.6 742.3 599.3 742.4 600.45
L 742.4 601.35 742.45 601.65
Q 743.05 608.2 744.55 615.05 746 621.9 747.9 628.7 749 632.8 750.15 636.7 751.25 640.65 752.35 644.4 752.95 646.65 753.8 649 754.6 651.3 755.5 653.7 755.53515625 653.7888671875 755.55 653.85 755.618359375 653.938671875 755.7 654 755.85 654.15 756.05 654.15 756.7 654.15 757 653.15 757.35 652.1 757.45 650.9 757.5 650.75 757.5 650.55 757.5 650.4 757.5 650.25 756 646.1 754.55 641.7 753.1 637.25 751.75 632.6 751.15 630.6 750.6 628.5 750.05 626.45 749.5 624.35 746.7 613.2 745 601.75 743.35 590.35 743.35 579.45 Z"/>

<path fill="#FFFFFF" stroke="none" d="
M 837.55 541.55
Q 836 537.8 834.85 534.15 834.7 533.8 834.6 533.45 834.5 533.1 834.4 532.75 834.35 532.6 834.3 532.35 834.25 532.05 834.15 531.7 831.35 525.65 828.45 520.15 825.6 514.6 822.75 509.75 803.9 515.25 788.4 521.7 772.9 528.2 762.75 534.65 752.55 541.1 749.8 546.45 746.4 553.4 744.9 561.8 743.35 570.15 743.35 579.45 743.35 590.35 745 601.75 746.7 613.2 749.5 624.35 750.05 626.45 750.6 628.5 751.15 630.6 751.75 632.6 753.1 637.25 754.55 641.7 756 646.1 757.5 650.25 758.45 652.8 759.4 655.25 760.35 657.65 761.3 659.95 765.3 669.55 769.1 676.2 772.9 682.9 775.8 685.7 781.15 690.95 788.95 695.3 796.75 699.6 806.8 701.25 816.9 702.9 829.2 700.05
L 829.3 700.05
Q 836.7 697.55 843.5 693.35 850.25 689.1 856.95 683.6 860.85 680.4 864 676.15 867.15 671.85 869.25 667 871.4 662.15 872.25 657.25 872.95 653.4 873.4 650.15 873.85 646.85 873.85 643.55 873.8 640.25 873 636.35
L 873 636.3
Q 871.05 630.15 868.85 623.4 866.6 616.6 864.15 609.35 863.05 606.5 861.95 603.7 860.85 600.85 859.85 598.05 858.95 595.65 858.15 593.55 857.35 591.4 856.7 589.25 856.55 588.9 856.45 588.55 856.35 588.15 856.3 587.8 856.1 587.1 855.95 586.4 855.8 585.7 855.7 585 855.2 583.65 854.75 582.35 854.25 581 853.75 579.7 853 577.65 852.25 575.6 851.5 573.55 850.7 571.5 848.35 565.7 845.85 560 843.35 554.25 840.65 548.6 839.05 545.3 837.55 541.55
M 795.3 629.65
Q 797.15 628.7 798.85 627.8 800.6 626.95 802.3 626.1 806.45 624 810.65 622.55 814.8 621.05 818.95 620.2 829.7 618.4 838.3 619.4 846.95 620.4 854.35 624.05 861.75 627.75 868.7 633.9
L 868.85 634.1
Q 869.55 635.05 870.05 635.9 870.5 636.8 870.7 637.6 870.15 637.25 869.8 637.05
L 869.3 636.75
Q 863.2 632.9 856.9 630.25 850.6 627.65 843.75 626.55 842.85 626.35 842 626.15 841.1 625.95 840.25 625.8 838.4 625.4 836.6 625.15 834.75 624.85 832.9 624.65
L 832.05 624.5
Q 831.35 624.4 830.65 624.5 829.35 624.4 827.7 624.4 826.1 624.4 824.8 624.45
L 823.15 624.55
Q 816.1 625.4 810.15 628 804.15 630.6 799.25 634.65 791.65 639.25 787.5 645 783.35 650.8 781.15 658 778.9 665.25 777.15 674.25 777.05 674.6 776.9 675.55 776.75 676.45 776.4 677.4 776.05 678.3 775.45 678.8 775.05 678.75 774.9 678.35 774.75 678 774.65 677.8 774.35 677.3 774.15 676.15 773.95 675 773.8 673.5 775.4 660.7 780.4 649.55 785.4 638.35 795.3 629.65 Z"/>
</g>
</defs>



<g transform="matrix( -0.219390869140625, 0.6542205810546875, 0.6203155517578125, 0.2028656005859375, 886.7,-226.2) ">
<g transform="matrix( 1, 0, 0, 1, 0,0) ">
<use xlink:href="#Symbol_21_0_Layer0_0_FILL"/>
</g>
</g>

<g transform="matrix( -0.6129608154296875, 0.0309600830078125, -0.1211395263671875, 0.6753997802734375, 1557.95,225.1) ">
<use xlink:href="#Layer0_1_FILL"/>
</g>

<g transform="matrix( -0.625274658203125, 0.1579742431640625, 0.0178680419921875, 0.6515960693359375, 1487.5,124.4) ">
<g transform="matrix( 1, 0, 0, 1, 0,0) ">
<use xlink:href="#Symbol_25_0_Layer0_0_FILL"/>
</g>
</g>

<g transform="matrix( 0.667572021484375, 0.0017852783203125, -0.0017852783203125, 0.667572021484375, 234.3,281.65) ">
<use xlink:href="#Layer0_3_FILL"/>
</g>

<g transform="matrix( 0.655609130859375, -0.06072998046875, 0.0305328369140625, 0.699432373046875, 279.2,266.5) ">
<use xlink:href="#Layer0_4_FILL"/>
</g>

<g transform="matrix( 0.6256103515625, 0.1011505126953125, -0.1104888916015625, 0.6582489013671875, 392.45,161.3) ">
<g transform="matrix( 1, 0, 0, 1, 0,0) ">
<use xlink:href="#Symbol_62_0_Layer0_0_FILL"/>
</g>
</g>

<g transform="matrix( 0.6586761474609375, 0.10858154296875, -0.0941925048828125, 0.5714263916015625, 368.95,185.85) ">
<g transform="matrix( 1, 0, 0, 1, 0,0) ">
<use xlink:href="#Symbol_28_0_Layer0_0_FILL"/>
</g>
</g>

<g transform="matrix( 0.640380859375, 0.1886138916015625, -0.1886138916015625, 0.640380859375, 414.25,89.5) ">
<g transform="matrix( 1, 0, 0, 1, 0,0) ">
<use xlink:href="#Symbol_29_0_Layer0_0_FILL"/>
</g>
</g>

<g transform="matrix( 0.61138916015625, -0.0310821533203125, 0.0310821533203125, 0.61138916015625, 352.55,294.45) ">
<g transform="matrix( 1, 0, 0, 1, 0,0) ">
<use xlink:href="#Symbol_30_0_Layer0_0_FILL"/>
</g>
</g>

<g transform="matrix( 0.1232452392578125, 0.06585693359375, -0.06585693359375, 0.1232452392578125, 801.55,194.4) ">
<g transform="matrix( 1, 0, 0, 1, 0,0) ">
<use xlink:href="#Symbol_46_0_Layer0_0_FILL"/>
</g>
</g>

<g transform="matrix( 0.1138916015625, -0.0522308349609375, 0.0522308349609375, 0.1138916015625, 722.65,305.55) ">
<g transform="matrix( 1, 0, 0, 1, 0,0) ">
<use xlink:href="#Symbol_64_0_Layer0_0_FILL"/>
</g>
</g>

<g transform="matrix( 0.1174163818359375, -0.0757598876953125, 0.0757598876953125, 0.1174163818359375, 724.2,348.25) ">
<g transform="matrix( 1, 0, 0, 1, 0,0) ">
<use xlink:href="#Symbol_38_0_Layer0_0_FILL"/>
</g>
</g>

<g transform="matrix( -0.137664794921875, -0.03155517578125, 0.03155517578125, -0.137664794921875, 992.35,387.75) ">
<g transform="matrix( 1, 0, 0, 1, 0,0) ">
<use xlink:href="#Symbol_39_0_Layer0_0_FILL"/>
</g>
</g>

<g transform="matrix( 0.0859375, 0.11016845703125, -0.11016845703125, 0.0859375, 831.35,182.15) ">
<use xlink:href="#Layer0_13_FILL"/>
</g>

<g transform="matrix( 0.057952880859375, 0.1271514892578125, -0.1271514892578125, 0.057952880859375, 845.25,163.25) ">
<g transform="matrix( 1, 0, 0, 1, 0,0) ">
<use xlink:href="#Symbol_106_0_Layer0_0_FILL"/>
</g>
</g>

<g transform="matrix( 0.139404296875, -0.0096282958984375, 0.0096282958984375, 0.139404296875, 721.15,275) ">
<g transform="matrix( 1, 0, 0, 1, 0,0) ">
<use xlink:href="#Symbol_42_0_Layer0_0_FILL"/>
</g>
</g>

<g transform="matrix( 0.0944976806640625, 0.0310211181640625, -0.0310211181640625, 0.0944976806640625, 767.5,250.95) ">
<g transform="matrix( 1, 0, 0, 1, 0,0) ">
<use xlink:href="#Symbol_86_0_Layer0_0_FILL"/>
</g>
</g>

<g transform="matrix( 0.0055389404296875, -0.6759033203125, -0.66900634765625, 0.0075531005859375, 1282.55,1233.05) ">
<g transform="matrix( 1, 0, 0, 1, 0,0) ">
<use xlink:href="#Symbol_88_0_Layer0_0_FILL"/>
</g>
</g>

<g transform="matrix( -0.03582763671875, -0.45196533203125, -0.8229522705078125, -0.0306396484375, 1454.65,1100.45) ">
<g transform="matrix( 1, 0, 0, 1, 0,0) ">
<use xlink:href="#Symbol_27_0_Layer0_0_FILL"/>
</g>
</g>

<g transform="matrix( 0.670196533203125, -0.1435546875, 0.1035003662109375, 0.68994140625, 202.6,313.5) ">
<g transform="matrix( 1, 0, 0, 1, 0,0) ">
<use xlink:href="#Symbol_75_0_Layer0_0_FILL"/>
</g>
</g>

<g transform="matrix( 0.646087646484375, 0.17352294921875, -0.17352294921875, 0.646087646484375, 401.95,118.3) ">
<g transform="matrix( 1, 0, 0, 1, 0,0) ">
<use xlink:href="#Symbol_31_0_Layer0_0_FILL"/>
</g>
</g>

<g transform="matrix( -0.19171142578125, 0.64117431640625, 0.64117431640625, 0.19171142578125, 584.85,-16.4) ">
<g transform="matrix( 1, 0, 0, 1, 0,0) ">
<use xlink:href="#Symbol_110_0_Layer0_0_FILL"/>
</g>
</g>
</svg>
