
<svg xmlns="http://www.w3.org/2000/svg" version="1.1" xmlns:xlink="http://www.w3.org/1999/xlink" preserveAspectRatio="none" x="0px" y="0px" width="760px" height="880px" viewBox="614 10 760 880">
<defs>


<g id="Symbol_75_0_Layer0_0_FILL">
<path fill="#0081C6" stroke="none" d="
M 922.45 560
Q 922.9 558.9 923.3 557.8 918.5 563.6 912.15 570.85 905.8 578.1 898.25 586.2 890.75 594.35 882.5 602.85 880.7 605 879.3 606.95 877.95 608.95 877.8 609.9 877.75 610.25 877.75 610.55 877.8 610.85 878.3 610.85 878.8 610.8 879.3 610.15 879.85 609.5 880.2 608.85
L 880.55 608.15
Q 883.05 604.8 886.15 601.8 889.3 598.75 892.55 595.8 895.85 592.85 898.7 589.75 903.55 584.45 908.3 579.4 913 574.35 917.4 568.9 918.4 567.25 919.45 565.55 920.5 563.85 921.5 562.2
L 921.5 562.15
Q 922 561.05 922.45 560
M 850.45 454.65
Q 846.9 455.5 843.8 457 840.75 458.55 837.75 460.65 837 461.25 837.25 461.6 837.5 461.95 838.35 461.65 838.75 461.55 839.1 461.4 839.45 461.25 839.85 461.1 841.2 460.25 843 459.55 844.75 458.8 846.65 458.25 847.75 457.8 848.9 457.45 850 457.05 851.2 456.75
L 851.3 456.7
Q 852.25 456.45 853.3 456.25 854.3 456.1 855.35 456 859.65 455.5 864.4 455.8 869.2 456.1 873.6 457.5 874.8 457.75 876.05 458 877.25 458.3 878.45 458.65
L 878.4 458.6
Q 877.15 457.9 875.85 457.3 874.6 456.65 873.3 456.1 869.65 454.8 865.5 454.2 861.35 453.65 857.45 453.75 853.5 453.9 850.45 454.65 Z"/>

<path fill="#FFFFFF" stroke="none" d="
M 914.05 484
Q 910.15 479.5 903.3 474.5 896.45 469.45 888.05 465.05 879.65 460.65 871.1 458.1 862.6 455.5 855.35 456 854.3 456.1 853.3 456.25 852.25 456.45 851.3 456.7
L 851.2 456.75
Q 833.9 464.6 813.35 481.95 792.8 499.3 773.7 519.35 754.6 539.45 741.65 555.4
L 731.45 568.65 726.65 576.45
Q 733.2 585.75 745.4 600.75 757.6 615.75 771 630.95 784.45 646.2 794.75 656.2
L 803.15 663.55 805.95 665.25 807.8 665.6
Q 817.3 661.15 829.7 651.5 842.1 641.85 855.7 629.15 869.35 616.4 882.5 602.85 890.75 594.35 898.25 586.2 905.8 578.1 912.15 570.85 918.5 563.6 923.3 557.8 927.7 552.5 930.45 548.85 933.2 545.2 933.95 543.6 935.6 533.5 932.75 522.05 929.85 510.6 924.65 500.45 919.45 490.3 914.05 484 Z"/>
</g>

<g id="Symbol_67_0_Layer0_0_FILL">
<path fill="#0081C6" stroke="none" d="
M 827.2 565.35
Q 826.9 565.3 826.85 565.5 833.2 571.65 839 577.4 844.8 583.2 849.3 587.75 850.55 588.95 851.6 590.05 852.7 591.15 853.65 592.1 859.25 597.65 867.4 607.6 875.55 617.55 884.85 631.3 894.2 645 903.45 661.85 905.2 665 906.85 668.25 908.55 671.5 910.2 674.9 911.2 676.85 912.15 678.85 913.1 680.9 914.05 682.95 914.1 683.1 914.1 683.25 914.15 683.4 914.15 683.55
L 914.2 683.95
Q 914.25 684.1 914.3 684.2 914.35 684.35 914.4 684.5
L 914.35 684.95
Q 914.95 693.85 910.5 702.85 906.05 711.85 899.15 719.55 892.3 727.3 885.75 732.25 880.45 736.3 872.45 740.2 864.4 744.15 855.15 746.85 845.9 749.5 836.8 749.9
L 836 749.9
Q 835.35625 749.95 834.7 749.95 833.6 749.95 832.55 749.85 830.6 749.75 828.75 749.5 826.9 749.25 825.15 748.8 824.8 748.65 824.4 748.35 824 748.1 823.5 747.75 823.15 747.65 822.7 747.6 822.3 747.5 821.9 747.45 821.85 747.4 821.75 747.3 821.7 747.25 821.6 747.15 820.65 746.1 819.65 745.05 818.65 744 817.65 742.95 810.4 736.6 799.15 725.55 787.9 714.5 774.85 700.7 761.85 686.9 749.3 672.2 748.65 671.45 748 670.7 747.35 669.9 746.7 669.15 746.05 668.4 745.45 667.7 744.85 666.95 744.25 666.2 742.1 663.7 740.1 661.15 738.05 658.65 736.05 656.15 734.9 654.65 733.75 653.2 732.6 651.75 731.5 650.3 727 644.35 723.15 638.8 719.3 633.2 716.35 628.15 715.45 626.65 714.6 625.15 713.8 623.7 713.1 622.3 713 622.15 712.95 622
L 712.8 621.7
Q 712.05 620.25 711.45 618.85 710.8 617.5 710.3 616.15 709.1 612.85 709.9 609.85 710.65 606.85 712.35 604.25 714.05 601.65 715.55 599.6 721.25 591.4 726.45 583.85 731.7 576.3 736.6 569.6 737.1 568.3 737.7 567 738.35 565.7 739.3 564.45 740.5 562.85 741.4 560.9 742.3 559 742.25 557 742.3 556.9 742.3 556.7 742.3 556.55 742.15 556.45 742.15 556.15 742 555.95 741.8 555.8 741.55 555.7 741.3 556.05 741.05 556.6 740.8 557.15 740.65 557.4 740.05 558.2 739.1 558.85 738.15 559.5 737.05 560.15 731.6 568.1 726.25 576.1 720.9 584.05 715.35 591.9 712.45 596 709.95 600.2 707.45 604.35 705.3 608.65 705.1 609.35 704.95 610 704.8 610.7 704.7 611.4 705.25 613 705.9 614.6 706.5 616.2 707.25 617.75
L 707.35 618
Q 708.15 619.75 709.1 621.5 710 623.2 711 624.9 711.2 625.25 711.35 625.55 711.55 625.85 711.75 626.2 715.2 631.85 719.05 637.1 722.9 642.3 726.5 646.9 727.25 647.9 728.05 648.9 728.85 649.95 729.65 650.95 731.05 652.65 732.45 654.35 733.85 656.1 735.25 657.8 736.85 659.75 738.45 661.65 740 663.55 741.6 665.5
L 741.9 665.85
Q 742 666 742.15 666.2 742.3 666.35 742.4 666.5 742.55 666.65 742.7 666.8 743.5 667.8 744.25 668.8 745.05 669.8 745.85 670.8 747.35 672.7 748.8 674.6 750.3 676.5 751.7 678.45 759.25 687.05 766.9 695.65 774.5 704.2 782.3 712.7 786.65 717.4 791.45 722.1 796.2 726.8 800.75 731.3 804.55 735.05 808.4 738.7 812.2 742.35 816.05 745.95 816.55 746.3 817.1 746.6 817.6 746.95 818.1 747.3 818.6 747.6 819.1 747.9 819.6 748.25 820.05 748.55 820.9 749.1 821.7 749.65 822.5 750.15 823.3 750.7 823.75 751.05 824.25 751.35 824.7 751.7 825.2 752.05 825.5 752.25 825.75 752.45
L 826.35 752.85
Q 829.05 753.65 831.75 754 834.45 754.35 836.3 754.25
L 836.8 754.1
Q 837.25 754 837.6 754.05 838.25 754.1 838.95 754
L 839.85 753.85
Q 850.6 752.3 861 748.65 871.4 745 880.9 739.35 890.4 733.7 898.45 726.2 903.35 721.6 906.9 715.95 910.5 710.3 913 704.05 915.5 697.8 917.25 691.35 917.3 691.25 917.35 691.1 917.35 691 917.4 690.85 917.7 691.05 918 691 918.25 690.9 918.5 690.4
L 918.55 690.1
Q 918.55 689.9 918.55 689.65 918.45 689.35 918.35 689
L 918.3 688.5
Q 917.35 684.4 915.6 680.2 913.85 676.05 911.75 671.95 909.65 667.9 907.65 664.1 904.5 658.15 900.9 652.4 897.3 646.65 893.35 641.1 888.85 634.1 884 627.45 879.2 620.75 874.15 614.5 871.4 611.15 868.85 607.95 866.3 604.7 863.7 601.55 862.8 600.4 861.9 599.2 860.95 598.05 860.05 596.85 855.05 590.4 849.1 584.55 843.1 578.75 837.2 573 835.1 571 832.7 569.3 830.3 567.6 828 565.8 827.45 565.4 827.2 565.35
M 893.5 682.5
Q 896.95 682.1 901.3 681.9 901.6 681.9 902.2 681.8 902.85 681.7 903.2 681.3 902.7 680.95 901.9 680.85
L 901.25 680.75 900.8 680.75
Q 895.3 679.8 890.6 680.45 885.95 681.1 881.55 683 877.15 684.95 872.45 687.85 863.85 693.05 856.5 698.1 849.15 703.15 842.75 709.2 836.35 715.25 830.6 723.4 829.65 724.7 828 726.75 826.4 728.8 825.1 730.95 823.8 733.1 823.7 734.7
L 823.75 735.15
Q 823.85 735 824.1 734.7 824.35 734.25 824.75 733.8
L 825.05 733.45 825.2 733.2
Q 827.3 730.1 829.5 727.55 831.65 725.05 834.3 722.4 837.5 719.1 840.45 715.6 843.4 712.15 846.85 708.95 851.45 704.9 856.9 700.95 862.35 697 868.15 693.45 873.9 689.9 879.45 687 883.35 684.95 886.65 683.95 890 682.9 893.5 682.5 Z"/>

<path fill="#FFFFFF" stroke="none" d="
M 849.3 587.75
Q 844.8 583.2 839 577.4 833.2 571.65 826.85 565.5 820.05 558.95 813.5 553 806.95 547.05 801.55 542.75 796.15 538.5 792.8 537 782.4 532.55 773.2 535.55 764 538.55 755.05 547.45 746.1 556.35 736.6 569.6 731.7 576.3 726.45 583.85 721.25 591.4 715.55 599.6 714.05 601.65 712.35 604.25 710.65 606.85 709.9 609.85 709.1 612.85 710.3 616.15 710.8 617.5 711.45 618.85 712.05 620.25 712.8 621.7
L 712.95 622
Q 713 622.15 713.1 622.3 713.8 623.7 714.6 625.15 715.45 626.65 716.35 628.15 719.3 633.2 723.15 638.8 727 644.35 731.5 650.3 732.6 651.75 733.75 653.2 734.9 654.65 736.05 656.15 738.05 658.65 740.1 661.15 742.1 663.7 744.25 666.2 744.85 666.95 745.45 667.7 746.05 668.4 746.7 669.15 747.35 669.9 748 670.7 748.65 671.45 749.3 672.2 761.85 686.9 774.85 700.7 787.9 714.5 799.15 725.55 810.4 736.6 817.65 742.95 819.5 744.55 820.95 745.75 822.45 746.95 823.5 747.75 824 748.1 824.4 748.35 824.8 748.65 825.15 748.8 826.9 749.25 828.75 749.5 830.6 749.75 832.55 749.85 833.6 749.9 834.65 749.9 835.3412109375 749.9314453125 836 749.9
L 836.8 749.9
Q 845.9 749.5 855.15 746.85 864.4 744.15 872.45 740.2 880.45 736.3 885.75 732.25 892.3 727.3 899.15 719.55 906.05 711.85 910.5 702.85 914.95 693.85 914.35 684.95 914.3 684.7 914.3 684.45 914.25 684.2 914.2 683.95
L 914.15 683.55
Q 914.15 683.4 914.1 683.25 914.1 683.1 914.05 682.95 913.1 680.9 912.15 678.85 911.2 676.85 910.2 674.9 908.55 671.5 906.85 668.25 905.2 665 903.45 661.85 894.2 645 884.85 631.3 875.55 617.55 867.4 607.6 859.25 597.65 853.65 592.1 852.7 591.15 851.6 590.05 850.55 588.95 849.3 587.75
M 901.3 681.9
Q 896.95 682.1 893.5 682.5 890 682.9 886.65 683.95 883.35 684.95 879.45 687 873.9 689.9 868.15 693.45 862.35 697 856.9 700.95 851.45 704.9 846.85 708.95 843.4 712.15 840.45 715.6 837.5 719.1 834.3 722.4 831.65 725.05 829.5 727.55 827.3 730.1 825.2 733.2
L 825.05 733.45 824.75 733.8
Q 824.35 734.25 824.1 734.7 823.85 735 823.75 735.15
L 823.7 734.7
Q 823.8 733.1 825.1 730.95 826.4 728.8 828 726.75 829.65 724.7 830.6 723.4 836.35 715.25 842.75 709.2 849.15 703.15 856.5 698.1 863.85 693.05 872.45 687.85 877.15 684.95 881.55 683 885.95 681.1 890.6 680.45 895.3 679.8 900.8 680.75
L 901.25 680.75 901.9 680.85
Q 902.7 680.95 903.2 681.3 902.85 681.7 902.2 681.8 901.6 681.9 901.3 681.9 Z"/>
</g>

<g id="Symbol_31_0_Layer0_0_FILL">
<path fill="#FFFFFF" stroke="none" d="
M 698.35 280.75
Q 694.95 275.8 691.55 270.8 668.2 236.85 645.85 204.3 623.45 171.75 605.2 145.3 587 118.8 576.15 103.05
L 565 86.9 547.4 97.9 758 424.15
Q 758.35 425.7 759.2 427.2 760 428.65 760.7 429.65
L 761.45 430.75
Q 763 433.6 764.35 436.6 765.65 439.6 767.2 442.6 771.2 450.15 775.55 457.6 779.95 465 784.35 472.45 787.1 477.65 789.9 482.85 792.65 488.05 795.2 493.35 795.6 494.15 796 495 796.35 495.85 796.75 496.75 797.1 498.55 797.7 500.1
L 798.5 502.05
Q 811.05 537 823.2 572.1 835.4 607.15 848.1 642.05 848.5 643.05 849.1 643.6 849.65 644.15 850.25 644.2 852.4 646.5 855 648.7 857.55 650.95 859.3 652.9 860.1 653.9 861.95 655.75 863.8 657.6 865.65 658.2 867.5 658.8 868.3 656.15 868.35 656 868.35 655.85 868.4 655.7 868.35 655.55 870.35 654.35 872.2 652.95 874.05 651.55 874.9 650.9 879.85 647.3 884.3 643.2 888.75 639.1 893.3 635.1 897.85 631.05 902.95 627.8 905.4 626.1 907.45 623.7 909.5 621.3 912.1 619.3
L 914.95 617.25
Q 917.05 615.7 919.35 613.7 921.6 611.7 922.85 609.9
L 922.75 609.65
Q 922.7 609.55 922.6 609.45 922.55 609.35 922.5 609.25 922.1 608.5 921.7 607.75 921.3 607 920.9 606.25 920.2 604.85 919.5 603.35 918.85 601.9 918.2 600.4 916.15 597.35 914.3 594.75 912.4 592.2 911.6 591
L 907.65 585.1
Q 907.4 584.9 907.15 584.6 906.9 584.3 906.7 583.95 896 568.05 885.45 552.1 874.85 536.1 864.35 520.1 847.95 497.8 832.2 475.05 816.45 452.3 801.4 429.2 798.1 424.15 794.35 418.95 790.6 413.7 786.85 408.9 787.05 409.45 787.2 410 787.35 410.55 787.35 411 786.5 409.75 785.6 408.45
L 783.75 405.7
Q 776.85 395.45 767.5 381.75 758.15 368 746.95 351.65 735.75 335.3 723.35 317.15
L 714.35 304
Q 709.75 297.35 705.15 290.6 701.75 285.7 698.35 280.75
M 769.1 408.6
L 766.2 410.05 572.15 111.75 574.25 110.15 769.1 408.6
M 831.4 584.55
Q 830.85 583.05 830.35 581.55 829.8 580 829.3 578.5 824.9 565.8 820.5 553.35 816.15 540.9 812.2 529.9 808.25 518.85 805.15 510.45 804.95 510 804.8 509.55
L 804.5 508.7
Q 802.85 504.35 801.6 501.1 800.3 497.8 799.4 495.75 799.15 495.15 798.85 494.5 798.55 493.85 798.25 493.2 798.15 493.05 798.1 492.85 798 492.7 797.95 492.55 795.8 488.1 792.85 482.6 789.85 477.05 786.45 471.1 783 465.1 779.5 459.2 774.85 451.3 770.8 444.65 766.75 438.05 764.3 434.05
L 761.7 429.9
Q 762.5 428.8 763.3 427.7 764.1 426.6 764.9 425.55 766.7 423.25 769.1 421.1 771.5 418.9 775.1 416.8 778.7 414.7 784 412.65 784.45 412.45 784.95 412.3 785.45 412.1 785.95 411.9 786.25 411.8 786.6 411.7 786.9 411.55 787.25 411.45
L 787.55 411.35 808.4 442.05
Q 826.3 468.4 849.85 503.05 873.35 537.65 893.25 566.9
L 920.1 606.35
Q 921.1 607.85 921.6 608.6
L 922.1 609.4 865.25 657.3 865.1 657.15
Q 864.9 657 864.6 656.7 864.45 656.6 864.35 656.5 864.2 656.35 864.05 656.2 862.35 654.7 859.6 652.15 856.85 649.6 854.5 647.2
L 852.65 645.15 851.75 643.8
Q 851.75 643.7 851.7 643.6 851.65 643.45 851.6 643.35 849.7 637.85 846.65 628.8 843.55 619.8 839.65 608.45 835.75 597.1 831.4 584.55
M 917.9 609.7
L 918 609.6 909.3 597.9 856.95 643.55 865.65 653.65 917.9 609.7 Z"/>

<path fill="#0081C6" stroke="none" d="
M 830.35 581.55
Q 830.85 583.05 831.4 584.55 835.75 597.1 839.65 608.45 843.55 619.8 846.65 628.8 849.7 637.85 851.6 643.35 851.65 643.45 851.7 643.6 851.75 643.7 851.75 643.8
L 852.65 645.15 854.5 647.2
Q 856.85 649.6 859.6 652.15 862.35 654.7 864.05 656.2 864.2 656.35 864.35 656.5 864.45 656.6 864.6 656.7 864.9 657 865.1 657.15
L 865.25 657.3 922.1 609.4 921.6 608.6
Q 921.1 607.85 920.1 606.35
L 893.25 566.9
Q 873.35 537.65 849.85 503.05 826.3 468.4 808.4 442.05
L 787.55 411.35 787.25 411.45
Q 786.9 411.55 786.6 411.7 786.25 411.8 785.95 411.9 785.45 412.1 784.95 412.3 784.45 412.45 784 412.65 778.7 414.7 775.1 416.8 771.5 418.9 769.1 421.1 766.7 423.25 764.9 425.55 764.1 426.6 763.3 427.7 762.5 428.8 761.7 429.9
L 764.3 434.05
Q 766.75 438.05 770.8 444.65 774.85 451.3 779.5 459.2 783 465.1 786.45 471.1 789.85 477.05 792.85 482.6 795.8 488.1 797.95 492.55 798 492.7 798.1 492.85 798.15 493.05 798.25 493.2 798.55 493.85 798.85 494.5 799.15 495.15 799.4 495.75 800.3 497.8 801.6 501.1 802.85 504.35 804.5 508.7
L 804.8 509.55
Q 804.95 510 805.15 510.45 808.25 518.85 812.2 529.9 816.15 540.9 820.5 553.35 824.9 565.8 829.3 578.5 829.8 580 830.35 581.55
M 918 609.6
L 917.9 609.7 865.65 653.65 856.95 643.55 909.3 597.9 918 609.6
M 766.2 410.05
L 769.1 408.6 574.25 110.15 572.15 111.75 766.2 410.05 Z"/>

<path fill="#0081C6" stroke="none" d="
M 669.4 237.8
L 670.05 238.7
Q 675.1 246.55 680.7 254.15 686.3 261.75 691.1 270 691.2 270.2 691.3 270.4 691.45 270.6 691.55 270.8 694.95 275.8 698.35 280.75 701.75 285.7 705.15 290.6 708.15 294.6 711.05 298.65 714 302.65 716.65 306.75 718.3 309.35 720 311.95 721.65 314.55 723.35 317.15 735.75 335.3 746.95 351.65 758.15 368 767.5 381.75 776.85 395.45 783.75 405.7
L 785.6 408.45
Q 786.5 409.75 787.35 411 787.35 410.55 787.2 410 787.05 409.45 786.85 408.9 786.7 408.5 786.55 408.2 786.45 407.85 786.35 407.6 786.05 407.25 785.7 406.75
L 785.3 406.1
Q 779.1 396.65 772.7 387.35 766.3 378.05 760.35 368.4 751.25 353.6 741.85 338.95 732.45 324.3 722.55 309.95 714.3 298.1 705.95 286.4 697.55 274.75 689.75 262.6 685.35 255.8 680.35 249.35 675.35 242.85 670.6 236.2 670.35 235.75 669.8 235 669.25 234.3 668.4 234.35 668.1 235.05 668.5 236 668.9 237 669.4 237.8 Z"/>
</g>

<g id="Symbol_79_0_Layer0_0_FILL">
<path fill="#FFFFFF" stroke="none" d="
M 886.2 715.8
Q 859.05 716.25 842.5 718.6 844.55 748.3 845.7 776.8 846.85 805.3 846.35 834.45 845.9 863.55 843.15 895.15
L 850 898.1 862.65 901.65
Q 878.2 905.5 899.15 908.1 920.05 910.7 940.15 909.45 960.25 908.25 973.25 900.75 982.4 886.1 990.65 864.05 998.85 842 1007.45 817.15 1016.1 792.25 1026.3 769.1 1036.55 745.9 1049.7 728.9 1031.35 724.25 1003.3 721.15 975.25 718.1 944.3 716.75 913.35 715.35 886.2 715.8 Z"/>
</g>

<g id="Symbol_25_0_Layer0_0_FILL">
<path fill="#0081C6" stroke="none" d="
M 943.35 838.65
Q 942.15 836.05 941.4 832.95 940.6 829.9 939.6 827.1
L 939.2 826.4 938.9 826.25
Q 938.6 826.4 938.45 827.1 938.3 827.8 938.3 828.5 938.5 831.6 939.5 835.45 940.5 839.25 942.25 842.4 943.95 845.55 946.3 846.7 950.3 848.25 953.15 845.6 956 842.95 957.6 838.15 959.2 833.4 959.35 828.65 959.35 827.95 959.35 826.95 959.3 825.95 959.1 825.15 958.85 824.4 958.4 824.45 958.25 824.75 958.1 825.1
L 957.95 825.6
Q 957.35 827.6 957.1 829.8 956.8 831.95 956.3 834.1 955.15 838.55 953 841.25 950.85 843.95 948.25 843.6 945.7 843.25 943.35 838.65 Z"/>
</g>

<g id="Symbol_80_0_Layer0_0_FILL">
<path fill="#FFFFFF" stroke="none" d="
M 907.45 655.85
L 906.4 654.65
Q 905.6 653.7 904.95 652.85 904.5 653.3 904 653.85
L 903.4 654.55
Q 900.35 657.9 897.4 660.85 894.45 663.85 891.1 666.25 887.75 668.7 883.45 670.4 876.4 673.1 869.15 674.15 861.9 675.15 854.45 674.6 846.9 674.05 839.25 673.2 831.6 672.35 824.25 670.75 821.9 670.3 820.45 671.7 819 673.1 819.7 675.5 820.3 676.85 822 677.85 823.65 678.85 824.95 679.65
L 825.25 679.85 825.75 680.3
Q 826.4 680.85 827 681.3 827.4 681.6 827.95 682
L 828.35 682.25 828.55 682.45
Q 833.15 685.4 838.75 687.5 844.35 689.6 850.2 691.1 856.05 692.6 861.35 693.75 867.5 695.2 873.2 695.65 878.85 696.15 885.2 695.15 895.6 693.5 903.75 688.95 911.85 684.45 918.95 676.6 919.4 676.2 920.25 675.3 921.15 674.35 921.35 673.9
L 921.2 673.35 920.65 672.45
Q 919.95 671.35 919.1 670.3
L 917.95 668.85
Q 915.4 665.55 912.75 662.3 910.1 659.05 907.45 655.85 Z"/>
</g>

<g id="Layer0_6_FILL">
<path fill="#FFFFFF" stroke="none" d="
M 884.55 383.25
L 865.2 378.45 858.85 378.25 854.75 379.5
Q 847.5 385.75 838.85 388.95 830.2 392.2 819.05 396.5 807.9 400.85 793.2 410.4 778.45 420 759.1 439 757.45 448.3 756.4 469.2 755.3 490.1 755.15 515.3 755 540.55 756.15 562.85 757.35 585.2 760.25 597.4 763.1 609.15 763.65 624.25 764.15 639.3 763.3 655.3 762.45 671.3 761.2 685.9 759.95 700.45 759.25 711.2 757.7 743.5 769.5 764.15 781.25 784.8 802 796 822.8 807.15 848.25 811 873.75 814.8 899.65 813.45 909.45 812.95 918.85 811.95 928.25 810.95 937.05 809.5 939.65 809.1 942.15 808.65 944.65 808.2 947.05 807.7 980.05 801.05 1004.75 784.25 1029.45 767.5 1046.1 743.15 1062.75 718.8 1071.7 689.5 1074.95 678.9 1077.2 667.85 1079.45 656.85 1080.7 645.5 1080.9 644.1 1081 642.65 1081.15 641.25 1081.3 639.8 1083.55 614.1 1080.95 588.15 1078.35 562.15 1070.95 537.3 1063.6 512.45 1051.65 490.2 1043.55 475.05 1033.35 461.7 1023.15 448.35 1010.95 437.2
L 987.8 425.95
Q 966.25 415.8 937.3 403.35 908.35 390.95 884.55 383.25 Z"/>

<path fill="#0081C6" stroke="none" d="
M 937.65 812.05
Q 937.75 810.65 937.05 809.5 928.25 810.95 918.85 811.95 909.45 812.95 899.65 813.45 904.7 814.5 909.75 815.55 914.8 816.6 919.85 817.65 923.2 817.7 926.5 817.55 929.85 817.35 932.45 816.7 935.1 816.05 936.35 814.75 937.5 813.4 937.65 812.05
M 1051.95 489.95
L 1051.65 490.2
Q 1063.6 512.45 1070.95 537.3 1078.35 562.15 1080.95 588.15 1083.55 614.1 1081.3 639.8 1081.15 641.25 1081 642.65 1080.9 644.1 1080.7 645.5 1079.45 656.85 1077.2 667.85 1074.95 678.9 1071.7 689.5
L 1071.85 689.5
Q 1073.95 689.15 1075.45 687 1076.95 684.85 1078 682 1079.05 679.2 1079.65 676.85
L 1079.8 676.15
Q 1079.95 675.55 1080.05 675.05 1080.3 674.5 1080.4 673.8
L 1080.55 673.25 1080.6 672.95
Q 1081.5 669.5 1082.25 666.3 1083.05 663.05 1083.65 659.5 1087.45 635.75 1087.5 612.4 1087.6 589.1 1083.95 567.15 1078.45 547.1 1070.4 527.7 1062.4 508.3 1051.95 489.95 Z"/>
</g>

<g id="Symbol_82_0_Layer0_0_FILL">
<path fill="#FFFFFF" stroke="none" d="
M 1012.45 184.25
Q 1009.55 185.35 1007.8 188.35 1002.25 198.35 997.6 206.75 992.9 215.2 988.2 222.4 983.55 229.6 978.1 236
L 972.55 233.85
Q 967.9 232.05 961.5 229.3 955.1 226.55 949.2 223.55 944.05 220.7 934.8 217.95 925.55 215.15 912.95 214.2 900.35 213.3 885.1 216 869.8 218.75 852.55 227 840.85 232.9 833.35 239.5 825.8 246.1 821.95 251.35
L 817.3 258.3
Q 812.95 267.05 807.85 285.25 802.75 303.45 798.15 323.75 793.55 344 790.75 358.9
L 788.65 370.6 788.15 375.95 789.35 379.6 792.45 386.35
Q 796.5 394.6 805.7 407.45 814.9 420.3 830.8 436.3 844.75 449.8 859.75 458.55 874.75 467.25 887.8 472.1 900.85 476.95 909 478.85 910.45 479.2 911.9 479.55 913.4 479.85 914.85 480.15 930.45 483 944.95 481.85 959.5 480.75 971.9 477.1 984.3 473.4 993.5 468.6 1002.7 463.8 1007.65 459.3 1012.65 454.75 1017 449.15 1021.4 443.5 1025.1 436.95 1025.95 435.5 1026.7 434.05 1027.5 432.55 1028.25 431.05 1028.8 430 1029.3 428.9 1029.8 427.8 1030.3 426.7 1034.25 418.1 1037.25 408.5 1040.25 398.9 1042.4 388.55 1044.85 376.5 1046.15 363.85 1047.45 351.15 1047.6 338.2 1047.65 333.9 1047.6 329.65 1047.55 325.4 1047.35 321.1 1045.55 286.9 1040.65 259.3 1035.75 231.65 1030.45 213.15 1025.1 194.65 1022.15 187.85 1020.8 184.9 1018.05 184 1015.3 183.1 1012.45 184.25 Z"/>

<path fill="#0081C6" stroke="none" d="
M 1048.45 343.55
Q 1048.25 340.85 1047.6 338.2 1047.45 351.15 1046.15 363.85 1044.85 376.5 1042.4 388.55 1040.25 398.9 1037.25 408.5 1034.25 418.1 1030.3 426.7 1029.8 427.8 1029.3 428.9 1028.8 430 1028.25 431.05 1027.5 432.55 1026.7 434.05 1025.95 435.5 1025.1 436.95 1021.4 443.5 1017 449.15 1012.65 454.75 1007.65 459.3 1002.7 463.8 993.5 468.6 984.3 473.4 971.9 477.1 959.5 480.75 944.95 481.85 930.45 483 914.85 480.15 915.35 480.35 915.85 480.55 916.35 480.8 916.85 480.95
L 917.4 481.3
Q 917.8 481.55 918.25 481.45 919 481.7 919.85 481.85
L 920.55 482.05 920.95 482.1
Q 928.15 483.15 936.15 483.25 944.15 483.3 952.2 482.65 960.2 482 967.5 480.95 985.2 478.3 998.85 469.75 1012.45 461.15 1022.2 448.05 1031.95 434.95 1038.05 418.65 1039.05 415.9 1039.85 413.2 1040.6 410.45 1041.2 407.7 1045.3 393.5 1047.05 378.85 1048.85 364.2 1048.7 349.45 1048.7 346.3 1048.45 343.55 Z"/>
</g>

<g id="Symbol_28_0_Layer0_0_FILL">
<path fill="#0081C6" stroke="none" d="
M 1017.45 346.15
Q 1018.85 343.35 1019.4 339.95 1019.9 336.55 1019.4 333.5 1018.95 330.45 1017.65 328.05 1016.3 325.6 1014.3 324.05 1012.3 322.55 1009.75 322.2 1007.25 321.9 1004.85 322.9 1002.45 323.85 1000.45 325.9 998.4 327.9 997 330.7 995.65 333.55 995.1 336.9 994.55 340.3 995.05 343.35 995.55 346.4 996.85 348.85 998.15 351.3 1000.15 352.8 1002.2 354.35 1004.7 354.65 1007.25 354.95 1009.65 354 1012 353 1014.05 351 1016.05 349 1017.45 346.15 Z"/>
</g>

<g id="Symbol_29_0_Layer0_0_FILL">
<path fill="#0081C6" stroke="none" d="
M 1030.1 321.85
Q 1021.85 320.25 1013.45 318.7 1005.05 317.2 997.2 315.9 996.25 316.35 996.65 317.05 997.05 317.75 998.8 318.2 1005.4 319.7 1012.25 320.7 1019.1 321.75 1025.8 322.95 1026.4 323.05 1027.6 323.05 1028.8 323.05 1029.65 322.8 1030.5 322.55 1030.1 321.85 Z"/>

<path fill="#FFFFFF" stroke="none" d="
M 1003.4 280.35
Q 996.4 283.45 991.75 289.2 987.1 295 984.25 301.55 981.4 308.05 979.7 313.45 983.55 313.9 988 314.5 992.4 315.15 997.2 315.9 1005.05 317.2 1013.45 318.7 1021.85 320.25 1030.1 321.85 1034 322.6 1037.8 323.35 1041.6 324.1 1045.15 324.8 1046.1 318.35 1045.95 311.15 1045.8 303.9 1043.5 297.2 1041.15 290.45 1035.6 285.55 1030.1 280.6 1020.3 278.8 1010.35 277.3 1003.4 280.35 Z"/>
</g>

<g id="Symbol_83_0_Layer0_0_FILL">
<path fill="#0081C6" stroke="none" d="
M 770.7 182.95
L 770.25 183.75
Q 767.5 189.95 765.8 197.4 764.05 204.9 763.15 212.55 762.2 220.2 761.8 227 761.2 237.2 762.25 247.6 763.25 258 765.4 268.35 767.5 278.7 770.15 288.65
L 770.7 290.25
Q 771.15 291.45 771.8 292.8 770.45 297.35 769.5 301.4 768.6 305.4 768.1 309.55 767.6 313.65 767.45 318.45 767.35 319.6 767.2 320.8 767.05 322 767.2 323.15 767.2 323.3 767.25 323.7 767.3 324.1 767.65 324.3 768.5 325.7 770.15 327 771.8 328.3 773.35 329.3 774.9 330.3 775.6 330.7 778.5 332.65 782 332.8 785.55 333 789.25 332.1 789.45 331.5 789.7 331 789.95 330.5 790.35 330.1 790.4 330 790.5 329.9 790.6 329.8 790.65 329.7 789.05 330.05 787.45 330.2 785.85 330.4 784.35 330.45 783.4 330.5 782.4 330.35 781.4 330.2 780.45 329.95
L 780 330 779.45 329.6
Q 776.75 328.55 774.4 326.75 772.05 325 770.25 322.9
L 769.7 322.5 769.65 322.15
Q 769.55 322.05 769.45 321.95 769.35 321.8 769.2 321.7 769.3 321.25 769.35 320.8 769.45 320.4 769.45 320 769.25 317.25 770.05 311.05 770.8 304.85 773.65 294.85 773.85 294.3 774 293.7 774.2 293.1 774.4 292.5
L 774.25 291.6
Q 774.05 290.9 773.8 289.7 772.8 285.55 771.05 277.9 769.3 270.25 767.65 261.75 766.05 253.25 765.45 246.55 765.05 242.3 764.65 233.8 764.3 225.3 765.6 214.15 766.85 202.95 771.4 190.7 771.75 188.8 772.1 186.95 772.4 185.1 772.7 183.2 772.9 182.6 772.95 181.75 773.05 180.9 772.25 180.6 771.85 180.65 771.6 181 771.3 181.3 771.3 181.7 771.05 182.3 770.7 182.95
M 1022.65 209.65
L 1023.3 208.5 1023.5 207.75
Q 1023.4 207.3 1023.1 207.4 1022.75 207.5 1022.6 207.75 1021.85 208.35 1021.05 209.1
L 1020.05 210.1
Q 1015.65 214.3 1012.35 218.3 1009.05 222.3 1005.7 226.9 1002.7 225.6 999.5 224.6 996.25 223.65 993.05 222.65 992.9 222.4 992.75 222.15 992.55 221.9 992.35 221.6 989.6 217.95 987.2 214.25 984.8 210.5 982.25 206.75 978.8 201.55 975.7 196.2 972.55 190.85 968.85 185.9 966.65 183.15 964.2 180.1 961.75 177.05 959.95 174.1 959.8 173.8 959.4 173.2 959.05 172.55 958.45 172.3 957.6 172.15 957.2 172.6
L 957.1 173.45 957.55 175.05
Q 962.8 183.15 968.35 192 973.95 200.85 978.7 208.6 983.45 216.3 986.35 221 987 222.1 987.5 222.9 988 223.75 988.35 224.35 988.7 224.9 988.9 225.2
L 989.05 225.45 999.2 230.25
Q 1000.05 230.5 1000.9 230.7 1001.7 230.95 1002.5 231.15 1002.45 231.25 1002.35 231.35 1002.25 231.5 1002.15 231.6 1001.5 232.45 1000.85 233.25 1000.15 234.05 999.5 234.85 998.85 235.65 998.15 236.45 997.5 237.2 996.85 237.95 995.45 239.5 994 241.05 992.55 242.55 991.1 244 982.9 252.15 973.75 259.1 964.55 266.05 954.75 272.15 953.35 273 951.8 274.1 950.25 275.2 949.25 276.5 949 276.75 948.75 277.15 948.45 277.5 948.75 277.85 949.85 277.95 951.2 277.15 952.55 276.35 953.1 275.95 959.35 272.45 965.35 269.1 971.3 265.75 977.15 261.45 981.75 258 986.15 254.3 990.5 250.65 994.6 246.7 997.45 244 1000.1 241.15 1002.75 238.35 1005.25 235.35 1006.05 234.45 1006.8 233.5 1007.55 232.55 1008.3 231.6 1008.7 231.4 1008.9 231.15 1009.1 230.85 1009.15 230.5 1011.95 226.8 1014.5 222.85 1017.1 218.9 1019.35 214.7 1019.75 214 1020.75 212.55 1021.75 211.1 1022.65 209.65 Z"/>

<path fill="#FFFFFF" stroke="none" d="
M 994.7 246.75
L 997.05 245.7
Q 999.25 244.7 1001.7 243.05 1004.15 241.45 1005 239.55 1005.4 238.4 1005.45 237.3 1005.45 236.25 1005.25 235.35 1002.75 238.35 1000.1 241.15 997.45 244 994.6 246.7
L 994.7 246.75
M 986.35 221
Q 983.45 216.3 978.7 208.6 973.95 200.85 968.35 192 962.8 183.15 957.55 175.05 953.7 169.15 950.6 164.55 947.45 159.95 945.45 157.5 941.95 152.8 933.55 145.7 925.1 138.55 911.4 132.85 897.7 127.1 878.3 126.6 858.9 126.05 833.45 134.55 815.35 141.1 803 150.1 790.65 159.15 783.05 169.55 775.4 179.95 771.4 190.7 766.85 202.95 765.6 214.15 764.3 225.3 764.65 233.8 765.05 242.3 765.45 246.55 766.05 253.25 767.65 261.75 769.3 270.25 771.05 277.9 772.8 285.55 773.8 289.7 774.05 290.9 774.25 291.6
L 774.4 292.5
Q 774.2 293.1 774 293.7 773.85 294.3 773.65 294.85 770.8 304.85 770.05 311.05 769.25 317.25 769.45 320 769.5 320.85 769.55 321.4 769.6 321.95 769.65 322.15
L 769.7 322.5 770.25 322.9 779.45 329.6 780 330 780.45 329.95 789 328.7 790.8 326.7 789.05 326.7 788.1 326.7 786.6 326.7 785.2 326.35
Q 783.9 326 782.85 325.1 781.8 324.2 782.35 322.55
L 782.4 322.5
Q 785.25 317.55 794.55 310.6 803.8 303.65 817.3 295.85 830.85 288.05 846.55 280.55 862.3 273.05 878.1 267 911.2 254.55 936.8 247.65 962.35 240.8 977.95 238.55
L 990.5 237.3 996.85 237.95
Q 997.5 237.2 998.15 236.45 998.85 235.65 999.5 234.85 1000.15 234.05 1000.85 233.25 1001.5 232.45 1002.15 231.6
L 999.2 230.25 989.05 225.45 988.9 225.2
Q 988.7 224.9 988.35 224.35 988 223.75 987.5 222.9 987 222.1 986.35 221 Z"/>

<path fill="#0081C6" stroke="none" d="
M 990.5 237.3
L 977.95 238.55
Q 962.35 240.8 936.8 247.65 911.2 254.55 878.1 267 862.3 273.05 846.55 280.55 830.85 288.05 817.3 295.85 803.8 303.65 794.55 310.6 785.25 317.55 782.4 322.5
L 782.35 322.55
Q 784.1 323.8 785.65 324.9 787.15 326.05 788.1 326.7
L 789.05 326.7 804 315.55
Q 816.15 306.95 837.25 295.35 858.35 283.7 888 272.05 919.5 260.1 941 254.1 962.5 248.15 974.8 246.1
L 991.1 244
Q 992.55 242.55 994 241.05 995.45 239.5 996.85 237.95
L 990.5 237.3 Z"/>
</g>

<g id="Symbol_63_0_Layer0_0_FILL">
<path fill="#a6ce38" stroke="none" d="
M 922.7 683.45
L 958.6 771.3 948.2 858.45 1003.35 767.65 979.55 683.65 922.7 683.45 Z"/>
</g>

<g id="Symbol_64_0_Layer0_0_FILL">
<path fill="#a6ce38" stroke="none" d="
M 1058.4 706.4
L 1005.45 685.75 1007.35 780.65 966.3 858.2 1050.4 793.3 1058.4 706.4 Z"/>
</g>

<g id="Symbol_48_0_Layer0_0_FILL">
<path fill="#0081C6" stroke="none" d="
M 826.75 19.9
L 827.1 20.3
Q 829.3 21.95 830.85 23.6
L 832.55 25.4
Q 859.85 53 878.75 89.15 897.7 125.35 910.4 162.4 919.25 188.25 919.65 219.35 920.05 250.45 913.75 281.1 907.45 311.75 896.1 336.2 894.4 339.9 891.65 345.45 888.85 351 885.55 356.65 882.95 361 880.3 364.4 877.7 367.85 875.2 369.5 874.6 369.9 874 370.2 873.45 370.55 872.9 370.75 872.35 371 871.9 371.15 871.4 371.35 870.95 371.4 870.7 371.7 870.45 371.9 870.2 372.15 869.95 372.3
L 869.6 372.65
Q 869.3 372.9 869.1 373.2 868.85 372.8 868.5 372.15 868.2 371.5 867.95 370.85 867.8 370.75 867.7 370.65 867.6 370.6 867.5 370.45 866.65 369.55 866.15 367.95 865.65 366.4 865.45 364.35 865.45 364.2 865.4 364.1 865.4 363.95 865.4 363.8 865.25 363.4 865.15 363.05 865.05 362.65 864.9 362.25 863.45 355.8 862.7 349.55 861.9 343.3 861.6 339.6 861.45 338.6 861.35 337.65 861.25 336.7 861.1 335.75 858.8 325.45 855.6 315.35 852.35 305.25 848.45 294.75 847.7 293.9 846.75 293.8 845.8 293.7 844.6 294.65
L 844.05 295.6
Q 843.7 296.3 843.4 296.9 842.1 294.95 840.95 293.65 839.75 292.35 838.9 292.05 838.35 291.9 838.1 292.1 837.9 292.3 838.05 292.8 838.35 293.55 838.95 294.25
L 839.75 295.2
Q 844.7 302.95 847.95 313.45 851.25 323.9 852.9 332.85 854.05 339.4 855.4 348.2 856.75 356.95 858.9 365.35 861.05 373.75 864.75 379.15 865.75 380.5 866.7 381.1 867.7 381.7 868.7 381.65 868.75 382.3 869 382.85 869.3 383.4 869.8 383.8 871.85 384.9 874.65 382 877.45 379.1 879.85 375.35 882.25 371.55 883.1 370.05 909.6 327.95 919.95 280.85 930.3 233.8 921.15 184.7 915.8 156.7 905.2 129.45 894.6 102.25 878.3 78.2 871.05 67.4 864.1 56.15 857.15 44.95 849.8 34.3 845.65 28.5 840.25 23.8 834.9 19.1 828.75 15.3 826.8 14 825.85 14.05 824.9 14.1 824.65 15.7 824.8 16.8 825.45 17.95 826.1 19.1 826.45 19.5 826.6 19.7 826.75 19.9 Z"/>

<path fill="#a6ce38" stroke="none" d="
M 819.95 20.15
Q 819.6 20.7 819.5 21.25 818.25 21.3 816.85 22.35 815.4 23.35 814 25.55 812.85 27.35 811.7 29.2 810.5 31 809.4 32.85
L 808.95 33.55
Q 808.6 34.1 808.65 34.6 808 35.6 807.25 36.75
L 806.35 38.25
Q 794.5 57.55 785.85 77.85 777.2 98.1 769.25 118.75 767.85 122.4 766.75 126.05 765.65 129.65 764 133.1 761.25 130.6 758.4 128.55 755.5 126.55 754.15 126.95 753.95 127.05 753.65 127.3 753.35 127.55 753.35 127.85 753.45 129.15 754.85 130.2 756.2 131.3 756.85 131.75 758.1 132.9 759.35 134.15 760.6 135.4 761.85 136.8 761.75 136.95 761.65 137.1 761.55 137.2 761.45 137.35
L 760.75 138.05
Q 760.2 138.55 760.15 139.2 761.1 139.4 761.95 139.35 762.85 139.25 763.65 138.9 768.55 144.8 773.05 151.4 777.6 157.95 781.45 163.65 802.25 194.25 818.65 226.55 835.05 258.8 848.1 293.85
L 848.45 294.75
Q 852.35 305.25 855.6 315.35 858.8 325.45 861.1 335.75 862.6 342.4 863.65 349.25 864.75 356.1 865.35 363.4
L 865.4 363.8
Q 865.4 363.95 865.4 364.1 865.45 364.2 865.45 364.35 865.65 366.4 866.15 367.95 866.65 369.55 867.5 370.45 867.6 370.6 867.7 370.65 867.8 370.75 867.95 370.85 868.5 371.3 869.25 371.45 870 371.6 870.95 371.4 871.4 371.35 871.9 371.15 872.35 371 872.9 370.75 873.45 370.55 874 370.2 874.6 369.9 875.2 369.5 877.7 367.85 880.3 364.4 882.95 361 885.55 356.65 888.85 351 891.65 345.45 894.4 339.9 896.1 336.2 907.45 311.75 913.75 281.1 920.05 250.45 919.65 219.35 919.25 188.25 910.4 162.4 897.7 125.35 878.75 89.15 859.85 53 832.55 25.4
L 830.85 23.6
Q 829.3 21.95 827.1 20.3 825.45 19.1 823.8 18.65 822.15 18.15 820.9 19.05 820.3 19.6 819.95 20.15 Z"/>
</g>

<g id="Symbol_15_0_Layer0_0_FILL">
<path fill="#a6ce38" stroke="none" d="
M 1012.35 269.55
Q 997.1 271.3 987.9 276.75 978.7 282.25 974.4 287.2 970.05 291.85 964.65 301 959.25 310.15 954.8 320.5 950.35 330.85 948.9 338.95 948 346.8 957.15 356.25 966.25 365.75 981.25 373.2 996.2 380.65 1012.8 382.4 1029.5 383.65 1046.8 379.85 1064.15 376 1077 369.5 1089.85 363 1093.1 356.25 1093 348.8 1088.15 331 1083.35 313.25 1073.85 296.25 1064.3 279.25 1050.15 274.15 1027.6 267.85 1012.35 269.55 Z"/>
</g>

<g id="Symbol_16_0_Layer0_0_FILL">
<path fill="#a6ce38" stroke="none" d="
M 1106.5 326.35
Q 1113.75 318.9 1118.6 311
L 1115.05 308.9 1104.95 304.7
Q 1091.55 299.45 1068.2 297.6
L 1071.15 308.1
Q 1074.2 317.9 1077.85 329.4 1081.5 340.9 1083.4 346.7 1086.05 344.75 1092.65 339.3 1099.2 333.8 1106.5 326.35 Z"/>
</g>

<g id="Symbol_17_0_Layer0_0_FILL">
<path fill="#a6ce38" stroke="none" d="
M 751.55 592.25
L 718.45 576.8
Q 687.05 562.15 645.65 542.85 604.3 523.5 572.7 508.8
L 539.2 493.2
Q 537.15 510.95 537.9 538.7 538.7 566.45 541.8 594.1 544.95 621.75 550 639.2
L 586.15 638.95
Q 620.1 638.6 664.5 638.05 708.95 637.45 742.65 637
L 778.15 636.55
Q 771.55 625.4 765 614.65 758.45 603.85 751.55 592.25 Z"/>
</g>

<g id="Symbol_65_0_Layer0_0_FILL">
<path fill="#a6ce38" stroke="none" d="
M 1049.25 340.6
Q 1033.55 342.25 1010.15 360.15 986.75 378.05 962.4 396.5 938.05 415 919.55 418.45 937.2 464.45 918.7 497.5 900.2 530.55 857.25 551.65 814.25 572.75 758.6 582.95 702.9 593.1 646.15 593.4 681.65 617.4 725.5 632.7 769.35 648 824.65 653.35 879.9 658.7 949.6 652.8 1020.4 646.15 1060.55 627.6 1100.7 609.05 1117.85 584.5 1134.95 559.95 1136.7 535.3 1138.75 509.4 1127.15 471.75 1115.55 434.1 1094.95 398 1074.3 361.9 1049.25 340.6 Z"/>
</g>

<g id="Layer0_18_FILL">
<path fill="#0081C6" stroke="none" d="
M 1035.4 302.25
L 1033.5 301.25 1031.5 300.65 1029.35 300.45 1027.25 300.65 1025.25 301.25 1023.35 302.25 1021.75 303.6 1020.4 305.25 1019.4 307.1 1018.75 309.15 1018.55 311.25 1018.75 313.35 1019.4 315.4 1020.4 317.25 1021.75 318.9 1023.35 320.25 1025.25 321.25 1027.25 321.85 1029.35 322.05 1031.5 321.85 1033.5 321.25 1035.4 320.25 1037 318.9 1038.35 317.25 1039.35 315.4 1040 313.35 1040.2 311.25 1040 309.15 1039.35 307.1 1038.35 305.25 1037 303.6 1035.4 302.25 Z"/>
</g>

<g id="Symbol_20_0_Layer0_0_FILL">
<path fill="#a6ce38" stroke="none" d="
M 1040.4 290.7
Q 1036.7 285.45 1029.15 285.1 1020.3 285.55 1015.95 292.1 1011.65 298.6 1010.8 306.75
L 1046.25 307 1045.2 301.3
Q 1044.1 296 1040.4 290.7 Z"/>
</g>

<g id="Symbol_88_0_Layer0_0_FILL">
<path fill="#0081C6" stroke="none" d="
M 839.6 427.1
Q 829.65 416.6 817.3 408.15 805 399.65 791.2 396.3 777.4 392.9 762.95 397.65 761.8 397.55 760.55 397.85 759.3 398.1 758.4 398.4
L 757.75 398.65 757.45 398.8
Q 748.8 402.4 742.05 408.45 735.25 414.55 729.45 421.75 723.65 428.95 717.95 435.95 711.15 444.2 704.75 452.95 698.35 461.7 692.15 470.7 691.05 472.2 689.9 473.75 688.8 475.35 687.7 477 683.8 483.05 679.95 488.9 676.1 494.75 672.05 500.55 666.7 505.8 662.55 512.8 658.4 519.8 655.2 527.45 652 535.05 649.6 542.2 647.05 549.6 645.9 557.75 644.75 565.95 644.65 574.1 644.45 575.85 644.3 577.65 644.15 579.45 643.95 581.2 643.55 586 643.7 591.1 643.85 596.25 643.95 601.1 644 602.1 644 603.15 644 604.15 644.05 605.2 643.8 612.25 644.5 619.3 645.2 626.35 646.55 632.9 647.1 635.7 647.9 638.6 648.7 641.45 649.65 644.3
L 649.75 644.65
Q 650.6 648.4 651.75 652.1 652.95 655.8 654.5 659.5 656.3 663.55 658.4 668 660.55 672.4 663.1 676.7 665.6 681 668.5 684.7 670.8 688.15 673.3 691.55 675.85 694.95 678.5 698.2 679.1 699 679.8 699.7 680.5 700.35 681.1 699.55 681.1 698.95 680.75 698.3
L 680.3 697.4
Q 679.55 696.2 678.85 695.05 678.15 693.85 677.45 692.7 675.85 690.8 674.4 688.8 672.95 686.85 671.55 684.8 670.3 682.9 669.15 681 667.95 679.1 666.85 677.15 663.8 671.8 661.3 666.1 658.8 660.4 656.75 654.45 656.3 653.3 655.85 652.15 655.4 650.95 655 649.8 654.4 647.65 653.85 645.5 653.35 643.35 652.9 641.15 652.55 639.75 652.25 638.35 651.9 637 651.6 635.55 650.8 631.75 650.2 627.85 649.55 624 649.05 620.1 648.45 615 648.1 609.85 647.7 604.75 647.6 599.6 647.6 599.15 647.55 598.75 647.55 598.35 647.55 597.9 647.5 594.95 647.55 592 647.55 589 647.65 586.05 647.8 582.75 648 579.5 648.2 576.25 648.5 573 648.6 571.35 648.8 569.65 648.95 568 649.15 566.35 649.75 561.35 650.5 556.4 651.3 551.45 652.25 546.6
L 652.35 546.3
Q 654 538.25 659.35 527.5 664.65 516.8 672.5 504.5 680.3 492.25 689.5 479.55 690.45 478.25 691.4 476.95 692.35 475.65 693.3 474.35 704.15 459.7 714.9 446.5 725.6 433.3 734.4 423.35 743.25 413.4 748.4 408.45 749.7 407.2 750.7 406.35 751.7 405.55 752.35 405.15 754.25 404 756.35 403.05 758.4 402.15 760.65 401.5 765.9 399.95 771.75 399.65 777.65 399.35 783.95 400.3 788.45 400.75 793.4 402.1 798.3 403.5 803.85 405.85 805.2 406.45 806.55 407.1 807.95 407.75 809.3 408.5 816.4 412 823.1 416.75 829.8 421.55 835.8 427.45 845.45 437.15 850.95 447.5 856.45 457.85 858.75 468.3 859.2 470.35 859.55 472.4 859.9 474.45 860.15 476.5 860.9 482.4 860.95 488.15 860.95 493.9 860.45 499.4 859.9 502.75 858.9 507.2 857.9 511.7 856.55 517.15
L 855.4 521.8
Q 855.194921875 522.7634765625 854.95 523.7 854.15 527 853.2 530.25 849.9 542.85 845.65 557.8 841.45 572.75 836.65 588.9 831.9 605.1 826.95 621.4 823.95 631.2 819.7 642 815.5 652.85 810 663.7 810.6 663.1 811.05 662.55
L 811.7 661.85
Q 814.6 658.3 816.95 653.95 819.3 649.6 821.3 645.05 823.35 640.5 825.3 636.25 828.45 629.6 830.85 622.1 833.2 614.6 835.25 606.95 837.25 599.3 839.3 592.15 844.25 575.35 849.2 558.5 854.2 541.65 858.7 524.7 860.95 516.4 862.7 507.3 864.4 498.2 864.35 489.1 864.25 479.95 861.15 471.65
L 861.15 471.25
Q 860.85 463.65 857.65 455.5 854.5 447.35 849.65 439.95 844.85 432.5 839.6 427.1
M 816 491.6
L 817.3 491.95
Q 818.3 492.15 819.25 492.2 819.7 492.2 820.15 492.4
L 820.75 492.6
Q 823.85 493.25 827.45 493.45 831.05 493.65 834.6 493.45 838.15 493.2 841.15 492.65 841.6 492.6 842.55 492.45 843.55 492.3 844.55 491.95 845.55 491.55 846 490.9 845.85 490.5 845.2 490.45 844.55 490.35 844.2 490.35 842.65 490.15 841.05 490.2 839.4 490.25 837.85 490.25 827.85 490.35 819.65 489.1 811.45 487.8 803.95 484.4 796.4 480.95 788.4 474.7 779.9 468.15 774 461.7 768.05 455.2 764.55 447.3 761.05 439.35 759.85 428.5 759.5 425 759.55 421.45 759.6 417.9 759.25 414.5 759.2 413.95 758.95 412.7 758.7 411.45 757.95 410.75 757.3 410.75 757.45 411.2 757.55 411.65 757.6 412 756.85 419.75 757.1 427.45 757.35 435.15 759.3 442.5 761.3 449.85 765.8 456.5 771.5 464.75 779.65 471.85 787.75 479 797.1 484.15 806.5 489.3 816 491.6
M 869.5 761.9
Q 869.55 762.85 869.7 763.6
L 869.8 763.55
Q 869.8 762.75 869.8 761.9 869.8 761 869.8 760.1 869.5 760.95 869.5 761.9 Z"/>

<path fill="#FFFFFF" stroke="none" d="
M 835.8 427.45
Q 829.8 421.55 823.1 416.75 816.4 412 809.3 408.5 802.95 405.35 796.55 403.3 790.15 401.25 783.95 400.3 777.65 399.35 771.75 399.65 765.9 399.95 760.65 401.5 758.4 402.15 756.35 403.05 754.25 404 752.35 405.15 751.7 405.55 750.7 406.35 749.7 407.2 748.4 408.45 743.25 413.4 734.4 423.35 725.6 433.3 714.9 446.5 704.15 459.7 693.3 474.35 692.35 475.65 691.4 476.95 690.45 478.25 689.5 479.55 680.3 492.25 672.5 504.5 664.65 516.8 659.35 527.5 654 538.25 652.35 546.3
L 652.25 546.6
Q 651.3 551.45 650.5 556.4 649.75 561.35 649.15 566.35 648.95 568 648.8 569.65 648.6 571.35 648.5 573 648.2 576.25 648 579.5 647.8 582.75 647.65 586.05 647.55 589 647.55 592 647.5 594.95 647.55 597.9 647.55 598.35 647.55 598.75 647.6 599.15 647.6 599.6 647.7 604.75 648.1 609.85 648.45 615 649.05 620.1 649.55 624 650.2 627.85 650.8 631.75 651.6 635.55 651.9 637 652.25 638.35 652.55 639.75 652.9 641.15 653.7 644.55 654.7 647.85 655.65 651.2 656.75 654.45 658.8 660.4 661.3 666.1 663.8 671.8 666.85 677.15 667.95 679.1 669.15 681 670.3 682.9 671.55 684.8 672.95 686.85 674.4 688.8 675.85 690.8 677.45 692.7 683.1 699.7 689.95 705.7 696.85 711.7 705.05 716.5 722.95 726.8 738.55 726.1 754.15 725.35 767.35 716.6 780.55 707.8 791.25 693.85 801.95 679.95 810 663.7 815.5 652.85 819.7 642 823.95 631.2 826.95 621.4 831.9 605.1 836.65 588.9 841.45 572.75 845.65 557.8 849.9 542.85 853.2 530.25 854.15 526.75 855 523.45 855.2125 522.625 855.4 521.8
L 856.55 517.15
Q 857.9 511.7 858.9 507.2 859.9 502.75 860.45 499.4 860.95 493.9 860.95 488.15 860.9 482.4 860.15 476.5 859.9 474.45 859.55 472.4 859.2 470.35 858.75 468.3 856.45 457.85 850.95 447.5 845.45 437.15 835.8 427.45
M 817.3 491.95
L 816 491.6
Q 806.5 489.3 797.1 484.15 787.75 479 779.65 471.85 771.5 464.75 765.8 456.5 761.3 449.85 759.3 442.5 757.35 435.15 757.1 427.45 756.85 419.75 757.6 412 757.55 411.65 757.45 411.2 757.3 410.75 757.95 410.75 758.7 411.45 758.95 412.7 759.2 413.95 759.25 414.5 759.6 417.9 759.55 421.45 759.5 425 759.85 428.5 761.05 439.35 764.55 447.3 768.05 455.2 774 461.7 779.9 468.15 788.4 474.7 796.4 480.95 803.95 484.4 811.45 487.8 819.65 489.1 827.85 490.35 837.85 490.25 839.4 490.25 841.05 490.2 842.65 490.15 844.2 490.35 844.55 490.35 845.2 490.45 845.85 490.5 846 490.9 845.55 491.55 844.55 491.95 843.55 492.3 842.55 492.45 841.6 492.6 841.15 492.65 838.15 493.2 834.6 493.45 831.05 493.65 827.45 493.45 823.85 493.25 820.75 492.6
L 820.15 492.4
Q 819.7 492.2 819.25 492.2 818.3 492.15 817.3 491.95 Z"/>
</g>

<g id="Symbol_27_0_Layer0_0_FILL">
<path fill="#0081C6" stroke="none" d="
M 943.65 840.8
Q 942.6 838.75 942.2 837.35 941.45 834.6 941.05 831.85 940.7 829.05 940.15 826.35
L 939.65 824.85 939.1 824.45
Q 938.5 824.55 938.05 825.8 937.65 827 937.65 828.25 937.8 831.4 938.75 835.75 939.7 840.1 941.85 843.7 943.95 847.3 947.65 848.15 951.1 848.6 953.45 845.55 955.8 842.55 957.1 838.5 958.4 834.45 958.75 831.75 958.9 830.75 958.95 828.85 959 826.95 958.7 825.25 958.4 823.5 957.45 822.95
L 957.25 822.9
Q 957.1 822.9 957.05 822.95 956.7 823.3 956.6 823.8
L 956.45 824.5
Q 956.2 826.4 956.15 828.4 956.15 830.4 955.8 832.35 955.5 834.05 954.65 836.85 953.8 839.65 952.5 842.15 951.2 844.6 949.5 845.25 947.75 845.7 946.2 844.3 944.7 842.85 943.65 840.8 Z"/>
</g>

<g id="Symbol_73_0_Layer0_0_FILL">
<path fill="#0081C6" stroke="none" d="
M 1005.1 528.7
L 1004.65 530.05
Q 1002.4 538.6 1001.4 547.9 1000.4 557.25 999.5 566.2 998.3 576.65 998.35 587.7 998.45 598.75 999.8 609.6 1001.2 620.45 1004.05 630.35 1004.1 630.5 1004.15 630.6
L 1004.25 630.9 1004.25 631 1003.9 631.1
Q 998.45 632.15 990.45 633.1 982.5 634.05 973.3 634.3
L 973.25 634.55
Q 973.35 634.7 973.5 634.8 973.6 634.95 973.75 635.05 973.6 635.15 973.55 635.3 973.45 635.5 973.45 635.75 974.2 636.9 976.05 637.5 977.95 638.05 979.6 638.25
L 981.4 638.4
Q 984.55 638.6 988.5 638.3 992.5 637.95 996.9 637.1 1001.25 636.25 1005.55 635 1005.8 636.3 1006.15 637.7 1006.55 639.05 1007 640.5 1008.65 645.55 1010.95 650.75 1013.25 655.9 1015.8 660.8 1016.85 663.2 1018.05 665.5 1019.25 667.85 1020.55 670.1 1021.6 671.75 1022.7 673.35 1023.8 675 1024.9 676.6 1025.9 677.65 1026.9 678.7 1027.9 679.75 1028.9 680.85 1029 680.9 1029.05 680.95 1029.15 681.05 1029.25 681.1 1031.05 682.6 1032.85 684 1034.65 685.45 1036.3 686.95 1036.4 687.05 1036.5 687.15
L 1036.7 687.35 1036.65 687.15
Q 1038.2 688.2 1039.6 689 1040.95 689.75 1041.9 690.2 1045.75 692.05 1050.3 693.05 1054.9 694.05 1059.6 694.55 1064.35 695.05 1068.6 695.35 1081.95 696.35 1095.6 692.55 1109.3 688.75 1119.65 679.95 1129.95 671.1 1133.2 657.05 1133.6 655.2 1134.2 652.45 1134.8 649.65 1134.85 646.95 1134.9 644.25 1133.7 642.65
L 1133.5 642.5
Q 1133.35 642.4 1133.2 642.3 1132.5 642.05 1132.1 642.2 1131.65 642.3 1131.45 642.7 1131.3 647 1130.9 650.9 1130.5 654.8 1129.85 658.25 1127.85 664.9 1122.45 671.55 1117.1 678.2 1107.25 683.3 1097.4 688.4 1082 690.5 1064.35 692.55 1051.8 689.35 1039.25 686.2 1031.3 679.05 1030.65 678.45 1030 677.8 1029.35 677.2 1028.7 676.55 1028.55 676.35 1028.4 676.2 1028.25 676.05 1028.1 675.85
L 1027.95 675.65
Q 1025.4 671.1 1022.6 666.15 1019.8 661.2 1016.95 655.4 1014.05 649.6 1011.25 642.5 1011.25 642.2 1011.2 641.95 1011.15 641.65 1011.1 641.4 1011 640.95 1010.9 640.55 1010.75 640.2 1010.75 640.05 1010.35 638.45 1010 636.9 1009.65 635.35 1009.3 633.8 1009.2 633.35 1009.1 632.9
L 1008.9 632
Q 1008.75 631.4 1008.65 630.8 1008.5 630.25 1008.35 629.65
L 1008.3 629.35
Q 1007.65 626.4 1007.1 623.5 1006.5 620.6 1006 617.7 1004.35 608.65 1003.45 599.45 1002.55 590.2 1002.7 580.35 1002.85 567.8 1003.5 554.9 1004.15 542 1006.4 529.85 1006.8 528.35 1007.15 527.6 1007.45 526.85 1006.25 527.15 1005.45 527.7 1005.1 528.7
M 1062.85 648.7
Q 1059.75 649.65 1056.65 651 1052.8 652.65 1049.55 654.5 1046.3 656.35 1042.95 658.85 1039.9 661.05 1037.6 663.1 1035.3 665.2 1033.2 668.4 1032.85 668.9 1032 670.2 1031.1 671.45 1030.45 672.75 1035.55 666.5 1042.4 661.85 1049.25 657.15 1057.05 654.45 1060.35 653.05 1063.8 651.95 1067.25 650.85 1070.7 650 1076.75 648.45 1083.35 648.2 1089.95 647.95 1096.55 648.9 1103.1 649.85 1109.05 651.95 1112.25 653.05 1115.25 654.25 1118.2 655.4 1121.1 657.15 1121.85 657.6 1122.8 658.15 1123.75 658.7 1124.55 658.95 1124.7 659.05 1124.95 659.1 1125.2 659.2 1125.25 658.95 1125.15 658.45 1124.6 658.05 1124.05 657.6 1123.75 657.45 1120.1 654.75 1115.95 652.7 1111.85 650.65 1107.45 649.05
L 1107.3 649
Q 1107.15 648.95 1107.05 648.9 1106.7 648.75 1106.3 648.6
L 1105.8 648.45
Q 1096.9 645.65 1087.55 645.15 1078.25 644.6 1069.2 646.85 1065.95 647.7 1062.85 648.7
M 941.8 504.3
Q 942.1 504.2 942.45 504.1 943.4 503.9 944 503.4 944.65 502.95 943.4 502.1
L 943.15 502.05
Q 942.9 502 942.7 502 942.05 502.15 941.25 502.3
L 940.1 502.55
Q 939.85 502.55 939.6 502.6 939.35 502.6 939.05 502.65 935.3 503.4 930.95 506.95 926.65 510.5 922.85 514.9 919.1 519.25 917.05 522.55
L 916.85 523
Q 916.65 523.3 916.5 523.65 916.05 524.25 915.65 524.95
L 915.1 525.9
Q 910.6 534.05 908.15 543.3 905.65 552.5 905.75 562.05 905.8 571.6 908.95 580.7 909.55 582.4 910.2 583.4 910.8 584.4 911.45 584.65 911.25 583.5 911.05 582.35 910.85 581.2 910.65 580.05
L 910.4 578.3
Q 909.8 574.25 909.55 570.35 909.25 566.45 909.3 562.7 909.3 561.65 909.35 560.55 909.35 559.5 909.45 558.5 909.7 554.6 910.35 551.05 911 547.5 912.1 544.25
L 912.2 543.85
Q 912.3 543.7 912.35 543.5 914.25 538.05 916.4 533.55 918.5 529.1 920.95 525.35 923.85 520.9 927.35 517.3 930.85 513.75 935 510.9 936.1 509.9 937.15 509.1 938.25 508.35 939.25 507.95 939.8 507.75 940.35 507.5 940.9 507.25 941 506.85 941.05 506.45 940.2 505.9
L 939.95 505.85
Q 940.3 505.5 940.6 505.2 940.9 504.85 941.15 504.55 941.45 504.4 941.8 504.3
M 1227.85 541.6
Q 1227.5 540.75 1226.75 542.25 1226.45 543.05 1226.2 544.15 1225.9 545.25 1226.75 545.8 1227.65 545.35 1227.9 543.9 1228.15 542.4 1227.85 541.6 Z"/>

<path fill="#FFFFFF" stroke="none" d="
M 946.4 504.5
Q 940.1 507.4 935 510.9 930.85 513.75 927.35 517.3 923.85 520.9 920.95 525.35 918.5 529.1 916.4 533.55 914.25 538.05 912.35 543.5 912.3 543.7 912.2 543.85
L 912.1 544.25
Q 911 547.5 910.35 551.05 909.7 554.6 909.45 558.5 909.35 559.5 909.35 560.55 909.3 561.65 909.3 562.7 909.25 566.45 909.55 570.35 909.8 574.25 910.4 578.3
L 910.65 580.05
Q 910.85 581.2 911.05 582.35 911.25 583.5 911.45 584.65 912.95 592.5 915.35 600.45 917.7 608.45 920.75 616.2 924 623.8 932.2 627.85 940.4 631.95 951.25 633.3 962.1 634.7 973.3 634.3 982.5 634.05 990.45 633.1 998.45 632.15 1003.9 631.1
L 1004.25 631 1004.25 630.9 1004.15 630.6
Q 1004.1 630.5 1004.05 630.35 1001.2 620.45 999.8 609.6 998.45 598.75 998.35 587.7 998.3 576.65 999.5 566.2 1000.4 557.25 1001.4 547.9 1002.4 538.6 1004.65 530.05
L 1005.1 528.7
Q 1005.45 527.7 1006.25 527.15 1007.45 526.85 1007.15 527.6 1006.8 528.35 1006.4 529.85 1004.15 542 1003.5 554.9 1002.85 567.8 1002.7 580.35 1002.55 590.2 1003.45 599.45 1004.35 608.65 1006 617.7 1006.5 620.6 1007.1 623.5 1007.65 626.4 1008.3 629.35
L 1008.35 629.65
Q 1008.5 630.25 1008.65 630.8 1008.75 631.4 1008.9 632
L 1009.1 632.9
Q 1009.2 633.35 1009.3 633.8 1009.65 635.35 1010 636.9 1010.35 638.45 1010.75 640.05 1010.75 640.2 1010.9 640.55 1011 640.95 1011.1 641.4 1011.15 641.65 1011.2 641.95 1011.25 642.2 1011.25 642.5 1014.05 649.6 1016.95 655.4 1019.8 661.2 1022.6 666.15 1025.4 671.1 1027.95 675.65
L 1028.1 675.85
Q 1028.25 676.05 1028.4 676.2 1028.55 676.35 1028.7 676.55 1029.35 677.2 1030 677.8 1030.65 678.45 1031.3 679.05 1039.25 686.2 1051.8 689.35 1064.35 692.55 1082 690.5 1097.4 688.4 1107.25 683.3 1117.1 678.2 1122.45 671.55 1127.85 664.9 1129.85 658.25 1130.5 654.8 1130.9 650.9 1131.3 647 1131.45 642.7 1132.05 623.25 1128.9 599.45 1125.75 575.65 1120.35 552.7 1114.95 529.75 1108.85 512.9 1102.75 496.1 1097.4 490.65 1091.25 485.15 1077.5 483.1 1063.75 481.05 1046.05 481.85 1028.35 482.65 1010.35 485.65 992.35 488.6 977.7 493.2 968.25 496.2 960.45 498.9 952.7 501.6 946.4 504.5
M 1056.65 651
Q 1059.75 649.65 1062.85 648.7 1065.95 647.7 1069.2 646.85 1078.25 644.6 1087.55 645.15 1096.9 645.65 1105.8 648.45
L 1106.3 648.6
Q 1106.7 648.75 1107.05 648.9 1107.15 648.95 1107.3 649
L 1107.45 649.05
Q 1111.85 650.65 1115.95 652.7 1120.1 654.75 1123.75 657.45 1124.05 657.6 1124.6 658.05 1125.15 658.45 1125.25 658.95 1125.2 659.2 1124.95 659.1 1124.7 659.05 1124.55 658.95 1123.75 658.7 1122.8 658.15 1121.85 657.6 1121.1 657.15 1118.2 655.4 1115.25 654.25 1112.25 653.05 1109.05 651.95 1103.1 649.85 1096.55 648.9 1089.95 647.95 1083.35 648.2 1076.75 648.45 1070.7 650 1067.25 650.85 1063.8 651.95 1060.35 653.05 1057.05 654.45 1049.25 657.15 1042.4 661.85 1035.55 666.5 1030.45 672.75 1031.1 671.45 1032 670.2 1032.85 668.9 1033.2 668.4 1035.3 665.2 1037.6 663.1 1039.9 661.05 1042.95 658.85 1046.3 656.35 1049.55 654.5 1052.8 652.65 1056.65 651 Z"/>
</g>
</defs>



<g transform="matrix( 0.0750579833984375, -0.6792449951171875, -0.6948089599609375, -0.033355712890625, 1326.35,1162.45) ">
<g transform="matrix( 1, 0, 0, 1, 0,0) ">
<use xlink:href="#Symbol_75_0_Layer0_0_FILL"/>
</g>
</g>

<g transform="matrix( -0.630401611328125, -0.2186737060546875, -0.2186737060546875, 0.630401611328125, 1574.2,409.55) ">
<g transform="matrix( 1, 0, 0, 1, 0,0) ">
<use xlink:href="#Symbol_67_0_Layer0_0_FILL"/>
</g>
</g>

<g transform="matrix( -0.6144561767578125, 0.2605438232421875, 0.2605438232421875, 0.6144561767578125, 1307.65,94.25) ">
<g transform="matrix( 1, 0, 0, 1, 0,0) ">
<use xlink:href="#Symbol_31_0_Layer0_0_FILL"/>
</g>
</g>

<g transform="matrix( 0.61370849609375, -0.0061187744140625, 0.161712646484375, 0.6668548583984375, 346.45,276.25) ">
<g transform="matrix( 1, 0, 0, 1, 0,0) ">
<use xlink:href="#Symbol_79_0_Layer0_0_FILL"/>
</g>
</g>

<g transform="matrix( 0.6336669921875, 0.119903564453125, 0.021514892578125, 0.6514892578125, 410.75,171.5) ">
<g transform="matrix( 1, 0, 0, 1, 0,0) ">
<use xlink:href="#Symbol_25_0_Layer0_0_FILL"/>
</g>
</g>

<g transform="matrix( -0.6662445068359375, 0.0421142578125, 0.0421142578125, 0.6662445068359375, 1671.1,252.75) ">
<g transform="matrix( 1, 0, 0, 1, 0,0) ">
<use xlink:href="#Symbol_80_0_Layer0_0_FILL"/>
</g>
</g>

<g transform="matrix( -0.649871826171875, -0.1056976318359375, -0.078582763671875, 0.6956787109375, 1692.25,320.65) ">
<use xlink:href="#Layer0_6_FILL"/>
</g>

<g transform="matrix( -0.606414794921875, 0.1840667724609375, 0.19769287109375, 0.63751220703125, 1521.8,126.2) ">
<g transform="matrix( 1, 0, 0, 1, 0,0) ">
<use xlink:href="#Symbol_82_0_Layer0_0_FILL"/>
</g>
</g>

<g transform="matrix( -0.6381988525390625, 0.19586181640625, 0.1699066162109375, 0.55364990234375, 1612.6,121.05) ">
<g transform="matrix( 1, 0, 0, 1, 0,0) ">
<use xlink:href="#Symbol_28_0_Layer0_0_FILL"/>
</g>
</g>

<g transform="matrix( -0.6093292236328125, 0.2727203369140625, 0.2727203369140625, 0.6093292236328125, 1554.85,31.65) ">
<g transform="matrix( 1, 0, 0, 1, 0,0) ">
<use xlink:href="#Symbol_29_0_Layer0_0_FILL"/>
</g>
</g>

<g transform="matrix( -0.6053924560546875, 0.0908355712890625, 0.0908355712890625, 0.6053924560546875, 1554.1,216.85) ">
<g transform="matrix( 1, 0, 0, 1, 0,0) ">
<use xlink:href="#Symbol_83_0_Layer0_0_FILL"/>
</g>
</g>

<g transform="matrix( -0.1034698486328125, -0.038970947265625, -0.038970947265625, 0.1034698486328125, 1186.05,330.45) ">
<g transform="matrix( 1, 0, 0, 1, 0,0) ">
<use xlink:href="#Symbol_63_0_Layer0_0_FILL"/>
</g>
</g>

<g transform="matrix( -0.0825042724609375, -0.0736083984375, -0.0736083984375, 0.0825042724609375, 1189.65,380.35) ">
<g transform="matrix( 1, 0, 0, 1, 0,0) ">
<use xlink:href="#Symbol_64_0_Layer0_0_FILL"/>
</g>
</g>

<g transform="matrix( -0.057220458984375, 0.0977325439453125, 0.0977325439453125, 0.057220458984375, 1093.65,270.2) ">
<g transform="matrix( 1, 0, 0, 1, 0,0) ">
<use xlink:href="#Symbol_48_0_Layer0_0_FILL"/>
</g>
</g>

<g transform="matrix( -0.08502197265625, -0.0706787109375, -0.0706787109375, 0.08502197265625, 1170.25,384.4) ">
<g transform="matrix( 1, 0, 0, 1, 0,0) ">
<use xlink:href="#Symbol_15_0_Layer0_0_FILL"/>
</g>
</g>

<g transform="matrix( -0.046600341796875, -0.0970611572265625, -0.0970611572265625, 0.046600341796875, 1140.65,423.95) ">
<g transform="matrix( 1, 0, 0, 1, 0,0) ">
<use xlink:href="#Symbol_16_0_Layer0_0_FILL"/>
</g>
</g>

<g transform="matrix( -0.1067352294921875, 0.0238800048828125, 0.02392578125, 0.1010894775390625, 1151.1,287.5) ">
<g transform="matrix( 1, 0, 0, 1, 0,0) ">
<use xlink:href="#Symbol_17_0_Layer0_0_FILL"/>
</g>
</g>

<g transform="matrix( -0.106658935546875, -0.0048675537109375, -0.0048675537109375, 0.106658935546875, 1165.65,306.1) ">
<g transform="matrix( 1, 0, 0, 1, 0,0) ">
<use xlink:href="#Symbol_65_0_Layer0_0_FILL"/>
</g>
</g>

<g transform="matrix( -0.08502197265625, -0.0706787109375, -0.0706787109375, 0.08502197265625, 1170.25,384.4) ">
<use xlink:href="#Layer0_18_FILL"/>
</g>

<g transform="matrix( -0.0347900390625, -0.104949951171875, -0.104949951171875, 0.0347900390625, 1129.3,435.65) ">
<g transform="matrix( 1, 0, 0, 1, 0,0) ">
<use xlink:href="#Symbol_20_0_Layer0_0_FILL"/>
</g>
</g>

<g transform="matrix( 0.1435546875, -0.6605072021484375, 0.6508941650390625, 0.154815673828125, 557.2,1131.1) ">
<g transform="matrix( 1, 0, 0, 1, 0,0) ">
<use xlink:href="#Symbol_88_0_Layer0_0_FILL"/>
</g>
</g>

<g transform="matrix( 0.134552001953125, -0.432952880859375, 0.809478759765625, 0.1514892578125, 418.55,963.8) ">
<g transform="matrix( 1, 0, 0, 1, 0,0) ">
<use xlink:href="#Symbol_27_0_Layer0_0_FILL"/>
</g>
</g>

<g transform="matrix( 0.5107269287109375, 0.4659271240234375, -0.4442901611328125, 0.479766845703125, 888.55,-162) ">
<g transform="matrix( 1, 0, 0, 1, 0,0) ">
<use xlink:href="#Symbol_73_0_Layer0_0_FILL"/>
</g>
</g>
</svg>
