
<svg xmlns="http://www.w3.org/2000/svg" version="1.1" xmlns:xlink="http://www.w3.org/1999/xlink" preserveAspectRatio="none" x="0px" y="0px" width="760px" height="880px" viewBox="614 10 760 880">
<defs>


<g id="Symbol_75_0_Layer0_0_FILL">
<path fill="#0075c9" stroke="none" d="
M 922.45 560
Q 922.9 558.9 923.3 557.8 918.5 563.6 912.15 570.85 905.8 578.1 898.25 586.2 890.75 594.35 882.5 602.85 880.7 605 879.3 606.95 877.95 608.95 877.8 609.9 877.75 610.25 877.75 610.55 877.8 610.85 878.3 610.85 878.8 610.8 879.3 610.15 879.85 609.5 880.2 608.85
L 880.55 608.15
Q 883.05 604.8 886.15 601.8 889.3 598.75 892.55 595.8 895.85 592.85 898.7 589.75 903.55 584.45 908.3 579.4 913 574.35 917.4 568.9 918.4 567.25 919.45 565.55 920.5 563.85 921.5 562.2
L 921.5 562.15
Q 922 561.05 922.45 560
M 850.45 454.65
Q 846.9 455.5 843.8 457 840.75 458.55 837.75 460.65 837 461.25 837.25 461.6 837.5 461.95 838.35 461.65 838.75 461.55 839.1 461.4 839.45 461.25 839.85 461.1 841.2 460.25 843 459.55 844.75 458.8 846.65 458.25 847.75 457.8 848.9 457.45 850 457.05 851.2 456.75
L 851.3 456.7
Q 852.25 456.45 853.3 456.25 854.3 456.1 855.35 456 859.65 455.5 864.4 455.8 869.2 456.1 873.6 457.5 874.8 457.75 876.05 458 877.25 458.3 878.45 458.65
L 878.4 458.6
Q 877.15 457.9 875.85 457.3 874.6 456.65 873.3 456.1 869.65 454.8 865.5 454.2 861.35 453.65 857.45 453.75 853.5 453.9 850.45 454.65 Z"/>

<path fill="#FFFFFF" stroke="none" d="
M 914.05 484
Q 910.15 479.5 903.3 474.5 896.45 469.45 888.05 465.05 879.65 460.65 871.1 458.1 862.6 455.5 855.35 456 854.3 456.1 853.3 456.25 852.25 456.45 851.3 456.7
L 851.2 456.75
Q 833.9 464.6 813.35 481.95 792.8 499.3 773.7 519.35 754.6 539.45 741.65 555.4
L 731.45 568.65 726.65 576.45
Q 733.2 585.75 745.4 600.75 757.6 615.75 771 630.95 784.45 646.2 794.75 656.2
L 803.15 663.55 805.95 665.25 807.8 665.6
Q 817.3 661.15 829.7 651.5 842.1 641.85 855.7 629.15 869.35 616.4 882.5 602.85 890.75 594.35 898.25 586.2 905.8 578.1 912.15 570.85 918.5 563.6 923.3 557.8 927.7 552.5 930.45 548.85 933.2 545.2 933.95 543.6 935.6 533.5 932.75 522.05 929.85 510.6 924.65 500.45 919.45 490.3 914.05 484 Z"/>
</g>

<g id="Symbol_111_0_Layer0_0_FILL">
<path fill="#0075c9" stroke="none" d="
M 1059.45 442.05
Q 1058.7 441.7 1057.75 441.3 1068.3 448.8 1077.25 456.6 1086.25 464.4 1093.8 472.7 1088.8 466.8 1083.25 461.15 1077.7 455.55 1071.95 450.8 1066.2 446.05 1060.65 442.7 1060.2 442.4 1059.45 442.05 Z"/>

<path fill="#FFFFFF" stroke="none" d="
M 969.4 447.6
Q 962.9 453.7 957.1 463.9 951.25 474.1 947.45 486.95 943.65 499.8 943.15 513.95 942.6 528.1 946.6 542.15 950.45 553.9 960.05 562.3 969.7 570.7 981.35 576.5 992.95 582.3 1002.7 586.2 1012.45 590.05 1016.45 592.75 1016.85 600.7 1015.25 613.6 1013.6 626.45 1011.2 641.35 1008.8 656.25 1006.95 670.15 1005.1 684.1 1005.1 694.1 1006.75 699.95 1014.05 706.85 1021.3 713.8 1031.5 719.5 1041.75 725.2 1052.3 727.45 1062.8 729.4 1073.1 728.55 1083.35 727.7 1091 725.3 1098.65 722.85 1101.25 720.05 1109.95 699.4 1117.35 676.4 1124.8 653.4 1130.05 630.55 1135.25 607.65 1137.3 587.35 1139.35 567.1 1137.2 551.85 1132.15 535.9 1125.85 522 1119.6 508.15 1111.7 495.9 1103.8 483.7 1093.8 472.7 1086.25 464.4 1077.25 456.6 1068.3 448.8 1057.75 441.3 1051.95 437.2 1045.7 433.15 1039.4 429.1 1032.55 425.05 1028.3 422.7 1020.5 423.6 1012.65 424.5 1003.3 427.9 993.9 431.3 984.9 436.4 975.95 441.5 969.4 447.6 Z"/>
</g>

<g id="Symbol_112_0_Layer0_0_FILL">
<path fill="#FFFFFF" stroke="none" d="
M 882.2 715.4
Q 852 714.95 835.3 717.3 842.85 748.3 846.35 777.15 849.85 806.05 848.4 834.7 847 863.4 839.75 893.85 848.65 899.3 865.3 904.15 881.95 909 902 911.35 922 913.65 940.9 911.5 959.85 909.35 973.25 900.75 982.55 886.1 993.3 864.6 1004.05 843.1 1015.65 819 1027.3 794.9 1039.3 772.45 1051.25 750 1063.05 733.5 1044.5 728.8 1013.4 724.85 982.3 720.9 947.35 718.35 912.35 715.85 882.2 715.4 Z"/>
</g>

<g id="Symbol_25_0_Layer0_0_FILL">
<path fill="#0075c9" stroke="none" d="
M 943.35 838.65
Q 942.15 836.05 941.4 832.95 940.6 829.9 939.6 827.1
L 939.2 826.4 938.9 826.25
Q 938.6 826.4 938.45 827.1 938.3 827.8 938.3 828.5 938.5 831.6 939.5 835.45 940.5 839.25 942.25 842.4 943.95 845.55 946.3 846.7 950.3 848.25 953.15 845.6 956 842.95 957.6 838.15 959.2 833.4 959.35 828.65 959.35 827.95 959.35 826.95 959.3 825.95 959.1 825.15 958.85 824.4 958.4 824.45 958.25 824.75 958.1 825.1
L 957.95 825.6
Q 957.35 827.6 957.1 829.8 956.8 831.95 956.3 834.1 955.15 838.55 953 841.25 950.85 843.95 948.25 843.6 945.7 843.25 943.35 838.65 Z"/>
</g>

<g id="Symbol_113_0_Layer0_0_FILL">
<path fill="#FFFFFF" stroke="none" d="
M 809.1 666.55
Q 807.9 665.65 806.55 664.85 805.25 664.05 803.95 664.15 802.65 664.25 801.5 666.05 800.7 667.5 801.25 668.9 801.85 670.3 802.75 671.5 803.05 671.9 803.35 672.35 803.7 672.75 804 673.2
L 804.7 674.3
Q 805.3 675.25 805.8 676.05 806 676.35 806.3 676.75
L 806.65 677.2
Q 811.3 683.05 818.15 686.25 824.95 689.45 832.55 690.9 840.15 692.35 847.25 692.95 853.25 693.5 859.65 693.1 866 692.7 872.3 691.75 878.65 690.8 884.6 689.8 889.35 689 894.05 687.95 898.75 686.9 903.35 685.4 904.1 685.2 905 684.9 905.85 684.65 906.25 684.05
L 906.3 683.5 906.25 682.45
Q 906.1 681.2 905.9 679.9
L 905.65 678.1
Q 904.95 673.5 904.1 668.9 903.25 664.3 902.4 659.75
L 902.25 659.05
Q 902.15 658.5 902.05 658 901.6 658.15 901.05 658.35
L 900.35 658.55
Q 888.75 662.25 876.9 665.15 865.05 668.05 853.2 670.95 844.4 673.25 835.65 673.6 826.9 673.95 818.1 671 815.7 670.15 813.45 669.1 811.2 668 809.1 666.55 Z"/>
</g>

<g id="Symbol_114_0_Layer0_0_FILL">
<path fill="#0075c9" stroke="none" d="
M 1024 443.2
L 1022.85 442.15
Q 1021.85 441.25 1020.55 440.5 1019.2 439.7 1018.1 439.95 1017.5 440.7 1017.85 441.5 1018.25 442.35 1018.95 443.1 1019.7 443.85 1020.15 444.3 1024.75 449.55 1029 454.95 1033.25 460.3 1037.1 465.85 1050 482.95 1059.45 502.1 1068.9 521.25 1074.7 541.7 1080.55 562.15 1082.55 583.2 1084.35 593.2 1085.35 603.1 1086.35 613 1086.4 622.65 1086.3 628.55 1085.25 634.55 1084.15 640.55 1083.4 646.45 1082.65 652.35 1083.55 658.05
L 1083.7 659.15
Q 1083.85 660 1083.85 660.7 1083.95 661.55 1084.35 661.95 1084.75 662.3 1085.75 661.9 1087.3 661.1 1088.25 657.4 1089.2 653.75 1089.75 649.75 1090.3 645.75 1090.65 644 1093.15 632.9 1093.15 621.05 1093.15 609.25 1091.5 597.4 1089.85 585.55 1087.35 574.4 1083.85 558.15 1078.4 540.3 1072.95 522.45 1065.25 504.75 1057.55 487.05 1047.3 471.25 1037.05 455.4 1024 443.2
M 754.55 704.7
Q 754.3 704.35 753.9 704.15 753.45 703.95 753.05 704.2 752.65 704.7 752.9 705.3 753.2 705.85 753.35 706.15 754.85 709.45 756.45 712.8 758.05 716.15 760 719.25 762.95 723.85 766.8 729.05 770.7 734.25 775.3 739.55 784 747.25 793.5 754.05 803.05 760.85 813.95 766.35
L 814.25 766.15
Q 814.4 765.85 814.3 765.6 814.25 765.3 814 765.1
L 813.1 764.5
Q 812.65 764.2 812.15 763.85 809.95 762.55 807.8 761 805.65 759.5 803.55 757.8 792.1 749.25 782.55 739.35 773.05 729.4 766.1 718.4 763.65 715.65 761.3 712.9 758.9 710.15 756.6 707.35
L 755.75 706.3
Q 755.1 705.45 754.55 704.7
M 1081.8 642.85
Q 1081.4 640.3 1080.9 637.75
L 1080.9 638
Q 1080.85 638.1 1080.85 638.25 1080.7 639.95 1080.7 641.65 1080.65 643.35 1080.75 645.15 1080.7 645.8 1080.7 647 1080.75 648.25 1081.7 648.7 1082 648.65 1082.25 648.45 1082.5 648.2 1082.7 647.9 1082.25 645.35 1081.8 642.85
M 743.95 491.75
Q 743.7 492.3 743.4 492.85 743.1 493.35 742.8 493.9 742.55 495.05 742.1 496.25 741.65 497.45 741.35 498.4 738.75 506.75 737.95 515 737.1 523.2 737.05 531.95 736.85 540.35 736.15 549.45 735.5 558.55 735.75 567.55 736 576.55 738.5 584.6
L 738.6 584.95 738.9 585.7
Q 739.2 586.7 739.8 587.8 740.4 588.9 741.2 589.4 740.4 572.3 740.35 555.35 740.35 538.35 741.2 522.25 742.1 506.15 743.95 491.75 Z"/>

<path fill="#FFFFFF" stroke="none" d="
M 849.5 378.4
Q 842.25 384.6 831.2 389.15 820.15 393.65 807.3 399.25 794.5 404.8 781.95 414.05 769.35 423.35 759.1 439 753.65 447.7 749.9 461.2 746.15 474.7 743.95 491.75 742.1 506.15 741.2 522.25 740.35 538.35 740.35 555.35 740.4 572.3 741.2 589.4 742.1 608.4 743.9 626.5 745.65 644.6 748.2 660.7 750.65 676.8 753.75 689.8 755.55 697.2 758.65 704.4 761.8 711.55 766.1 718.4 773.05 729.4 782.55 739.35 792.1 749.25 803.55 757.8 805.65 759.4 807.8 760.9 809.95 762.4 812.15 763.85 812.65 764.2 813.1 764.5
L 814 765.1
Q 833.5 777.65 855.25 785.5 877 793.35 898.5 795.25 920.05 797.2 938.9 792.05 981.9 779.65 1011.55 756.5 1041.2 733.4 1058.3 703 1075.45 672.55 1080.85 638.25 1080.85 638.1 1080.9 638
L 1080.9 637.75
Q 1083.05 624.3 1083.45 610.6 1083.85 596.9 1082.55 583.2 1080.55 562.15 1074.7 541.7 1068.9 521.25 1059.45 502.1 1050 482.95 1037.1 465.85 1031.25 458.15 1024.7 450.95 1018.15 443.75 1010.95 437.2
L 986.85 425.85
Q 964.45 415.55 934.45 403 904.4 390.45 879.9 382.55
L 860.05 377.55 853.6 377.25 849.5 378.4 Z"/>
</g>

<g id="Symbol_115_0_Layer0_0_FILL">
<path fill="#0075c9" stroke="none" d="
M 814.8 747.7
Q 828.05 750.8 840.55 756.5 850.9 760.25 860 765.6 869.1 770.95 875.85 778.2 878.25 780.8 880.25 783.65 882.25 786.5 883.85 789.65 884 790 884.3 790.8 884.6 791.65 885.1 792.45 885.6 793.25 886.35 793.5 887.4 792.45 887.4 791.1 887.45 789.75 887.05 788.35 886.6 786.9 886.3 785.65 885.8 785 885.35 784.1
L 884.85 782.95
Q 882.95 779.15 880.6 775.85 878.3 772.5 875.6 769.7 875.3 769.4 874.95 769.15 874.65 768.9 874.35 768.65 860.65 757.95 847.15 752.25 833.6 746.55 819.05 744.7 804.55 742.8 787.8 743.55 801.55 744.65 814.8 747.7
M 858.15 852.3
L 857.4 852.05
Q 856.85 851.85 856.4 852 855.7 851.7 854.85 851.6
L 853.8 851.45
Q 834.3 848.3 816.15 852.3 798.05 856.35 782.05 868 778.2 870.8 775.15 875.05 772.05 879.25 771.9 883.8 771.8 888.35 776.85 892.1 777.65 892.65 778.55 893.05 779.45 893.45 780.45 893.55
L 781 893.65
Q 781.4 893.7 781.75 893.65 781.6 892.85 780.6 892.4 779.65 891.9 779.2 891.65 775.55 888.9 775.25 885.4 774.95 881.9 776.8 878.55 778.65 875.15 781.4 872.8 792.3 863.5 806.25 858.45 820.2 853.45 835.1 853 850 852.5 863.75 856.8 868.1 858.1 871.85 860.65 875.6 863.2 877.75 867 879.95 870.75 879.5 875.75 879.45 876 879.3 876.5 879.1 877 879.4 877.25 880.6 876.75 880.85 874.8 881.1 872.8 880.9 870.85
L 880.65 868.5
Q 879.4 863.4 875.8 860.25 872.2 857.1 867.45 855.25 862.7 853.4 858.15 852.3 Z"/>

<path fill="#FFFFFF" stroke="none" d="
M 713.5 711.05
L 690.5 716.25 677.45 719.65
Q 694.75 722.55 705.8 728.65 716.85 734.7 722.8 741.8 728.7 748.85 730.6 754.7 737 773.3 741 786.8 745.05 800.3 748.45 813.1 751.85 825.95 756.35 842.6 760.8 859.25 768.1 884.15 772.85 893.55 788.1 897.1 803.3 900.65 822.55 898.95 841.8 897.3 858.7 891 875.55 884.7 883.7 874.35
L 883.45 865.8
Q 883.2 857.55 882.4 843.7 881.6 829.85 880 812.85 878.45 795.85 875.85 778.2 869.1 770.95 860 765.6 850.9 760.25 840.55 756.5 828.05 750.8 814.8 747.7 801.55 744.65 787.8 743.55 804.55 742.8 819.05 744.7 833.6 746.55 847.15 752.25 860.65 757.95 874.35 768.65 872.4 757.25 869.9 746.75 867.45 736.2 864.3 727.2 860.65 707.5 834.9 702.55 809.1 697.6 775.3 701.25 741.45 704.9 713.5 711.05
M 857.4 852.05
L 858.15 852.3
Q 862.7 853.4 867.45 855.25 872.2 857.1 875.8 860.25 879.4 863.4 880.65 868.5
L 880.9 870.85
Q 881.1 872.8 880.85 874.8 880.6 876.75 879.4 877.25 879.1 877 879.3 876.5 879.45 876 879.5 875.75 879.95 870.75 877.75 867 875.6 863.2 871.85 860.65 868.1 858.1 863.75 856.8 850 852.5 835.1 853 820.2 853.45 806.25 858.45 792.3 863.5 781.4 872.8 778.65 875.15 776.8 878.55 774.95 881.9 775.25 885.4 775.55 888.9 779.2 891.65 779.65 891.9 780.6 892.4 781.6 892.85 781.75 893.65 781.4 893.7 781 893.65
L 780.45 893.55
Q 779.45 893.45 778.55 893.05 777.65 892.65 776.85 892.1 771.8 888.35 771.9 883.8 772.05 879.25 775.15 875.05 778.2 870.8 782.05 868 798.05 856.35 816.15 852.3 834.3 848.3 853.8 851.45
L 854.85 851.6
Q 855.7 851.7 856.4 852 856.85 851.85 857.4 852.05 Z"/>
</g>

<g id="Symbol_27_0_Layer0_0_FILL">
<path fill="#0075c9" stroke="none" d="
M 943.65 840.8
Q 942.6 838.75 942.2 837.35 941.45 834.6 941.05 831.85 940.7 829.05 940.15 826.35
L 939.65 824.85 939.1 824.45
Q 938.5 824.55 938.05 825.8 937.65 827 937.65 828.25 937.8 831.4 938.75 835.75 939.7 840.1 941.85 843.7 943.95 847.3 947.65 848.15 951.1 848.6 953.45 845.55 955.8 842.55 957.1 838.5 958.4 834.45 958.75 831.75 958.9 830.75 958.95 828.85 959 826.95 958.7 825.25 958.4 823.5 957.45 822.95
L 957.25 822.9
Q 957.1 822.9 957.05 822.95 956.7 823.3 956.6 823.8
L 956.45 824.5
Q 956.2 826.4 956.15 828.4 956.15 830.4 955.8 832.35 955.5 834.05 954.65 836.85 953.8 839.65 952.5 842.15 951.2 844.6 949.5 845.25 947.75 845.7 946.2 844.3 944.7 842.85 943.65 840.8 Z"/>
</g>

<g id="Symbol_31_0_Layer0_0_FILL">
<path fill="#FFFFFF" stroke="none" d="
M 698.35 280.75
Q 694.95 275.8 691.55 270.8 668.2 236.85 645.85 204.3 623.45 171.75 605.2 145.3 587 118.8 576.15 103.05
L 565 86.9 547.4 97.9 758 424.15
Q 758.35 425.7 759.2 427.2 760 428.65 760.7 429.65
L 761.45 430.75
Q 763 433.6 764.35 436.6 765.65 439.6 767.2 442.6 771.2 450.15 775.55 457.6 779.95 465 784.35 472.45 787.1 477.65 789.9 482.85 792.65 488.05 795.2 493.35 795.6 494.15 796 495 796.35 495.85 796.75 496.75 797.1 498.55 797.7 500.1
L 798.5 502.05
Q 811.05 537 823.2 572.1 835.4 607.15 848.1 642.05 848.5 643.05 849.1 643.6 849.65 644.15 850.25 644.2 852.4 646.5 855 648.7 857.55 650.95 859.3 652.9 860.1 653.9 861.95 655.75 863.8 657.6 865.65 658.2 867.5 658.8 868.3 656.15 868.35 656 868.35 655.85 868.4 655.7 868.35 655.55 870.35 654.35 872.2 652.95 874.05 651.55 874.9 650.9 879.85 647.3 884.3 643.2 888.75 639.1 893.3 635.1 897.85 631.05 902.95 627.8 905.4 626.1 907.45 623.7 909.5 621.3 912.1 619.3
L 914.95 617.25
Q 917.05 615.7 919.35 613.7 921.6 611.7 922.85 609.9
L 922.75 609.65
Q 922.7 609.55 922.6 609.45 922.55 609.35 922.5 609.25 922.1 608.5 921.7 607.75 921.3 607 920.9 606.25 920.2 604.85 919.5 603.35 918.85 601.9 918.2 600.4 916.15 597.35 914.3 594.75 912.4 592.2 911.6 591
L 907.65 585.1
Q 907.4 584.9 907.15 584.6 906.9 584.3 906.7 583.95 896 568.05 885.45 552.1 874.85 536.1 864.35 520.1 847.95 497.8 832.2 475.05 816.45 452.3 801.4 429.2 798.1 424.15 794.35 418.95 790.6 413.7 786.85 408.9 787.05 409.45 787.2 410 787.35 410.55 787.35 411 786.5 409.75 785.6 408.45
L 783.75 405.7
Q 776.85 395.45 767.5 381.75 758.15 368 746.95 351.65 735.75 335.3 723.35 317.15
L 714.35 304
Q 709.75 297.35 705.15 290.6 701.75 285.7 698.35 280.75
M 769.1 408.6
L 766.2 410.05 572.15 111.75 574.25 110.15 769.1 408.6
M 831.4 584.55
Q 830.85 583.05 830.35 581.55 829.8 580 829.3 578.5 824.9 565.8 820.5 553.35 816.15 540.9 812.2 529.9 808.25 518.85 805.15 510.45 804.95 510 804.8 509.55
L 804.5 508.7
Q 802.85 504.35 801.6 501.1 800.3 497.8 799.4 495.75 799.15 495.15 798.85 494.5 798.55 493.85 798.25 493.2 798.15 493.05 798.1 492.85 798 492.7 797.95 492.55 795.8 488.1 792.85 482.6 789.85 477.05 786.45 471.1 783 465.1 779.5 459.2 774.85 451.3 770.8 444.65 766.75 438.05 764.3 434.05
L 761.7 429.9
Q 762.5 428.8 763.3 427.7 764.1 426.6 764.9 425.55 766.7 423.25 769.1 421.1 771.5 418.9 775.1 416.8 778.7 414.7 784 412.65 784.45 412.45 784.95 412.3 785.45 412.1 785.95 411.9 786.25 411.8 786.6 411.7 786.9 411.55 787.25 411.45
L 787.55 411.35 808.4 442.05
Q 826.3 468.4 849.85 503.05 873.35 537.65 893.25 566.9
L 920.1 606.35
Q 921.1 607.85 921.6 608.6
L 922.1 609.4 865.25 657.3 865.1 657.15
Q 864.9 657 864.6 656.7 864.45 656.6 864.35 656.5 864.2 656.35 864.05 656.2 862.35 654.7 859.6 652.15 856.85 649.6 854.5 647.2
L 852.65 645.15 851.75 643.8
Q 851.75 643.7 851.7 643.6 851.65 643.45 851.6 643.35 849.7 637.85 846.65 628.8 843.55 619.8 839.65 608.45 835.75 597.1 831.4 584.55
M 917.9 609.7
L 918 609.6 909.3 597.9 856.95 643.55 865.65 653.65 917.9 609.7 Z"/>

<path fill="#0075c9" stroke="none" d="
M 830.35 581.55
Q 830.85 583.05 831.4 584.55 835.75 597.1 839.65 608.45 843.55 619.8 846.65 628.8 849.7 637.85 851.6 643.35 851.65 643.45 851.7 643.6 851.75 643.7 851.75 643.8
L 852.65 645.15 854.5 647.2
Q 856.85 649.6 859.6 652.15 862.35 654.7 864.05 656.2 864.2 656.35 864.35 656.5 864.45 656.6 864.6 656.7 864.9 657 865.1 657.15
L 865.25 657.3 922.1 609.4 921.6 608.6
Q 921.1 607.85 920.1 606.35
L 893.25 566.9
Q 873.35 537.65 849.85 503.05 826.3 468.4 808.4 442.05
L 787.55 411.35 787.25 411.45
Q 786.9 411.55 786.6 411.7 786.25 411.8 785.95 411.9 785.45 412.1 784.95 412.3 784.45 412.45 784 412.65 778.7 414.7 775.1 416.8 771.5 418.9 769.1 421.1 766.7 423.25 764.9 425.55 764.1 426.6 763.3 427.7 762.5 428.8 761.7 429.9
L 764.3 434.05
Q 766.75 438.05 770.8 444.65 774.85 451.3 779.5 459.2 783 465.1 786.45 471.1 789.85 477.05 792.85 482.6 795.8 488.1 797.95 492.55 798 492.7 798.1 492.85 798.15 493.05 798.25 493.2 798.55 493.85 798.85 494.5 799.15 495.15 799.4 495.75 800.3 497.8 801.6 501.1 802.85 504.35 804.5 508.7
L 804.8 509.55
Q 804.95 510 805.15 510.45 808.25 518.85 812.2 529.9 816.15 540.9 820.5 553.35 824.9 565.8 829.3 578.5 829.8 580 830.35 581.55
M 918 609.6
L 917.9 609.7 865.65 653.65 856.95 643.55 909.3 597.9 918 609.6
M 766.2 410.05
L 769.1 408.6 574.25 110.15 572.15 111.75 766.2 410.05 Z"/>

<path fill="#0075c9" stroke="none" d="
M 669.4 237.8
L 670.05 238.7
Q 675.1 246.55 680.7 254.15 686.3 261.75 691.1 270 691.2 270.2 691.3 270.4 691.45 270.6 691.55 270.8 694.95 275.8 698.35 280.75 701.75 285.7 705.15 290.6 708.15 294.6 711.05 298.65 714 302.65 716.65 306.75 718.3 309.35 720 311.95 721.65 314.55 723.35 317.15 735.75 335.3 746.95 351.65 758.15 368 767.5 381.75 776.85 395.45 783.75 405.7
L 785.6 408.45
Q 786.5 409.75 787.35 411 787.35 410.55 787.2 410 787.05 409.45 786.85 408.9 786.7 408.5 786.55 408.2 786.45 407.85 786.35 407.6 786.05 407.25 785.7 406.75
L 785.3 406.1
Q 779.1 396.65 772.7 387.35 766.3 378.05 760.35 368.4 751.25 353.6 741.85 338.95 732.45 324.3 722.55 309.95 714.3 298.1 705.95 286.4 697.55 274.75 689.75 262.6 685.35 255.8 680.35 249.35 675.35 242.85 670.6 236.2 670.35 235.75 669.8 235 669.25 234.3 668.4 234.35 668.1 235.05 668.5 236 668.9 237 669.4 237.8 Z"/>
</g>

<g id="Symbol_110_0_Layer0_0_FILL">
<path fill="#0075c9" stroke="none" d="
M 759.35 655.55
Q 758.35 653.25 757.45 650.9 757.35 652.1 757 653.15 756.7 654.15 756.05 654.15 755.85 654.15 755.7 654 755.618359375 653.938671875 755.55 653.85 757.337109375 658.3388671875 759.2 662.8 761.15 667.35 762.85 671.6 764.15 675.05 765.5 677.6 766.85 680.2 769.25 683.05 769.75 683.65 770.1 684.2 770.45 684.75 770.7 685.2 774.6 689.5 779.5 693.25 784.4 697 789.9 699.85 795.45 702.7 801.3 704.2 801.15 704.1 801 703.9 800.85 703.75 800.75 703.6 800.6 703.3 800.55 703 800.55 702.65 800.85 702.45 801.4 702.4 802 702.6
L 802.5 702.75 802.8 702.8
Q 803.95 702.9 805.3 702.75 806.65 702.6 808.05 702.65 813.85 703 819.1 702.3 824.4 701.65 829.2 700.05 816.9 702.9 806.8 701.25 796.75 699.6 788.95 695.3 781.15 690.95 775.8 685.7 772.9 682.9 769.1 676.2 765.3 669.55 761.3 659.95 760.3 657.8 759.35 655.55
M 804.95 704.95
Q 806.1 705.15 807.3 705.3 809.05 705.35 810.75 705.4 812.5 705.4 814.2 705.4 815 705.35 815.8 705.2 816.6 705.1 817.4 704.95 813.95 704.95 810.15 704.85 806.35 704.75 802.55 704.5 803.75 704.8 804.95 704.95
M 853.75 579.7
Q 853.6 579.05 853.4 578.45 853.25 577.85 853.05 577.2 852.5 575.8 851.9 574.35 851.3 572.9 850.7 571.5 851.5 573.55 852.25 575.6 853 577.65 853.75 579.7
M 837.1 532.05
Q 838.9 536.2 840.45 540.5 842 544.8 843.95 548.95 844.55 550.15 845.1 551.4 845.7 552.6 846.25 553.8
L 845.8 552.45
Q 845.6 551.75 845.35 551.05 844.7 549.05 843.35 545 841.95 540.95 840.25 537.15 838.6 533.3 837.1 532.05
M 798.85 627.8
Q 797.15 628.7 795.3 629.65 785.4 638.35 780.4 649.55 775.4 660.7 773.8 673.5 773.95 675 774.15 676.15 774.35 677.3 774.65 677.8 774.75 678 774.9 678.35 775.05 678.75 775.45 678.8 776.05 678.3 776.4 677.4 776.75 676.45 776.9 675.55 777.05 674.6 777.15 674.25 778.9 665.25 781.15 658 783.35 650.8 787.5 645 791.65 639.25 799.25 634.65 804.15 630.6 810.15 628 816.1 625.4 823.15 624.55
L 824.8 624.45
Q 826.1 624.4 827.7 624.4 829.35 624.4 830.65 624.5 831.35 624.4 832.05 624.5
L 832.9 624.65
Q 834.75 624.85 836.6 625.15 838.4 625.4 840.25 625.8 841.1 625.95 842 626.15 842.85 626.35 843.75 626.55 850.6 627.65 856.9 630.25 863.2 632.9 869.3 636.75
L 869.8 637.05
Q 870.15 637.25 870.7 637.6 870.5 636.8 870.05 635.9 869.55 635.05 868.85 634.1
L 868.7 633.9
Q 861.75 627.75 854.35 624.05 846.95 620.4 838.3 619.4 829.7 618.4 818.95 620.2 814.8 621.05 810.65 622.55 806.45 624 802.3 626.1 800.6 626.95 798.85 627.8 Z"/>

<path fill="#0075c9" stroke="none" d="
M 833.65 529.15
Q 833.9 530.5 834.15 531.7 834.25 532.05 834.3 532.35 834.35 532.6 834.4 532.75 834.5 533.1 834.6 533.45 834.7 533.8 834.85 534.15 836 537.8 837.55 541.55 839.05 545.3 840.65 548.6 843.35 554.25 845.85 560 848.35 565.7 850.7 571.5 851.3 572.9 851.9 574.35 852.5 575.8 853.05 577.2 853.65 578.65 854.25 580.1 854.85 581.5 855.45 582.95 855.5 583.5 855.55 584 855.6 584.5 855.7 585 855.8 585.7 855.95 586.4 856.1 587.1 856.3 587.8 856.35 588.15 856.45 588.55 856.55 588.9 856.7 589.25 857.35 591.4 858.15 593.55 858.95 595.65 859.85 598.05 860.85 600.85 861.95 603.7 863.05 606.5 864.15 609.35 866.85 616 869.2 622.7 871.55 629.45 873 636.3
L 873 636.35
Q 873.8 640.25 873.85 643.55 873.85 646.85 873.4 650.15 872.95 653.4 872.25 657.25 871.4 662.15 869.25 667 867.15 671.85 864 676.15 860.85 680.4 856.95 683.6 850.25 689.1 843.5 693.35 836.7 697.55 829.3 700.05
L 829.2 700.05
Q 824.4 701.65 819.1 702.3 813.85 703 808.05 702.65 806.65 702.6 805.3 702.75 803.95 702.9 802.8 702.8
L 802.5 702.75 802 702.6
Q 801.4 702.4 800.85 702.45 800.55 702.65 800.55 703 800.6 703.3 800.75 703.6 800.85 703.75 801 703.9 801.15 704.1 801.3 704.2
L 801.55 704.45
Q 801.8 704.45 802.05 704.5 802.3 704.5 802.55 704.5 806.35 704.75 810.15 704.85 813.95 704.95 817.4 704.95 818.85 704.95 820.2 704.95 821.55 704.95 822.75 704.95 823.35 704.95 823.9 704.95 824.5 704.95 825.05 704.95 828.65 703.9 832.25 702.9 835.85 701.9 839.4 700.9 841.3 700 843.15 698.95 845 697.95 846.85 696.8 853.9 692.6 859.6 687.6 865.3 682.55 869.95 675.7 872.6 671.75 874.05 668.15 875.5 664.6 876.35 660.8 877.2 657.05 878 652.4 879.5 643.8 877.85 635.4 876.2 627.05 873.1 618.95 870.3 611.2 867.4 603.4 864.5 595.55 861.45 587.85 861.15 587.1 860.25 585.35 859.35 583.55 858.3 581.8 857.25 580.1 856.6 579.4 854.2 572.9 851.65 566.5 849.1 560.1 846.25 553.8 845.7 552.6 845.1 551.4 844.55 550.15 843.95 548.95 842 544.8 840.45 540.5 838.9 536.2 837.1 532.05 836.9 531.65 836.7 531.25 836.5 530.85 836.35 530.4
L 835.9 529.4
Q 835.5 528.6 834.95 527.8 834.4 527.05 833.8 527 833.65 527.1 833.6 527.25 833.5 527.4 833.5 527.5
L 833.5 528.05 833.65 529.15
M 743.35 579.45
Q 742.8 573.6 742.6 567.45 742.45 561.25 743.05 555.85 742.55 559.1 742.2 562.4 741.8 565.65 741.55 568.95 741.1 575.2 741 581.55 740.9 587.9 741.3 594.15 741.85 595.9 742.05 597.6 742.3 599.3 742.4 600.45
L 742.4 601.35 742.45 601.65
Q 743.05 608.2 744.55 615.05 746 621.9 747.9 628.7 749 632.8 750.15 636.7 751.25 640.65 752.35 644.4 752.95 646.65 753.8 649 754.6 651.3 755.5 653.7 755.53515625 653.7888671875 755.55 653.85 755.618359375 653.938671875 755.7 654 755.85 654.15 756.05 654.15 756.7 654.15 757 653.15 757.35 652.1 757.45 650.9 757.5 650.75 757.5 650.55 757.5 650.4 757.5 650.25 756 646.1 754.55 641.7 753.1 637.25 751.75 632.6 751.15 630.6 750.6 628.5 750.05 626.45 749.5 624.35 746.7 613.2 745 601.75 743.35 590.35 743.35 579.45 Z"/>

<path fill="#FFFFFF" stroke="none" d="
M 837.55 541.55
Q 836 537.8 834.85 534.15 834.7 533.8 834.6 533.45 834.5 533.1 834.4 532.75 834.35 532.6 834.3 532.35 834.25 532.05 834.15 531.7 831.35 525.65 828.45 520.15 825.6 514.6 822.75 509.75 803.9 515.25 788.4 521.7 772.9 528.2 762.75 534.65 752.55 541.1 749.8 546.45 746.4 553.4 744.9 561.8 743.35 570.15 743.35 579.45 743.35 590.35 745 601.75 746.7 613.2 749.5 624.35 750.05 626.45 750.6 628.5 751.15 630.6 751.75 632.6 753.1 637.25 754.55 641.7 756 646.1 757.5 650.25 758.45 652.8 759.4 655.25 760.35 657.65 761.3 659.95 765.3 669.55 769.1 676.2 772.9 682.9 775.8 685.7 781.15 690.95 788.95 695.3 796.75 699.6 806.8 701.25 816.9 702.9 829.2 700.05
L 829.3 700.05
Q 836.7 697.55 843.5 693.35 850.25 689.1 856.95 683.6 860.85 680.4 864 676.15 867.15 671.85 869.25 667 871.4 662.15 872.25 657.25 872.95 653.4 873.4 650.15 873.85 646.85 873.85 643.55 873.8 640.25 873 636.35
L 873 636.3
Q 871.05 630.15 868.85 623.4 866.6 616.6 864.15 609.35 863.05 606.5 861.95 603.7 860.85 600.85 859.85 598.05 858.95 595.65 858.15 593.55 857.35 591.4 856.7 589.25 856.55 588.9 856.45 588.55 856.35 588.15 856.3 587.8 856.1 587.1 855.95 586.4 855.8 585.7 855.7 585 855.2 583.65 854.75 582.35 854.25 581 853.75 579.7 853 577.65 852.25 575.6 851.5 573.55 850.7 571.5 848.35 565.7 845.85 560 843.35 554.25 840.65 548.6 839.05 545.3 837.55 541.55
M 795.3 629.65
Q 797.15 628.7 798.85 627.8 800.6 626.95 802.3 626.1 806.45 624 810.65 622.55 814.8 621.05 818.95 620.2 829.7 618.4 838.3 619.4 846.95 620.4 854.35 624.05 861.75 627.75 868.7 633.9
L 868.85 634.1
Q 869.55 635.05 870.05 635.9 870.5 636.8 870.7 637.6 870.15 637.25 869.8 637.05
L 869.3 636.75
Q 863.2 632.9 856.9 630.25 850.6 627.65 843.75 626.55 842.85 626.35 842 626.15 841.1 625.95 840.25 625.8 838.4 625.4 836.6 625.15 834.75 624.85 832.9 624.65
L 832.05 624.5
Q 831.35 624.4 830.65 624.5 829.35 624.4 827.7 624.4 826.1 624.4 824.8 624.45
L 823.15 624.55
Q 816.1 625.4 810.15 628 804.15 630.6 799.25 634.65 791.65 639.25 787.5 645 783.35 650.8 781.15 658 778.9 665.25 777.15 674.25 777.05 674.6 776.9 675.55 776.75 676.45 776.4 677.4 776.05 678.3 775.45 678.8 775.05 678.75 774.9 678.35 774.75 678 774.65 677.8 774.35 677.3 774.15 676.15 773.95 675 773.8 673.5 775.4 660.7 780.4 649.55 785.4 638.35 795.3 629.65 Z"/>
</g>

<g id="Symbol_82_0_Layer0_0_FILL">
<path fill="#FFFFFF" stroke="none" d="
M 1012.45 184.25
Q 1009.55 185.35 1007.8 188.35 1002.25 198.35 997.6 206.75 992.9 215.2 988.2 222.4 983.55 229.6 978.1 236
L 972.55 233.85
Q 967.9 232.05 961.5 229.3 955.1 226.55 949.2 223.55 944.05 220.7 934.8 217.95 925.55 215.15 912.95 214.2 900.35 213.3 885.1 216 869.8 218.75 852.55 227 840.85 232.9 833.35 239.5 825.8 246.1 821.95 251.35
L 817.3 258.3
Q 812.95 267.05 807.85 285.25 802.75 303.45 798.15 323.75 793.55 344 790.75 358.9
L 788.65 370.6 788.15 375.95 789.35 379.6 792.45 386.35
Q 796.5 394.6 805.7 407.45 814.9 420.3 830.8 436.3 844.75 449.8 859.75 458.55 874.75 467.25 887.8 472.1 900.85 476.95 909 478.85 910.45 479.2 911.9 479.55 913.4 479.85 914.85 480.15 930.45 483 944.95 481.85 959.5 480.75 971.9 477.1 984.3 473.4 993.5 468.6 1002.7 463.8 1007.65 459.3 1012.65 454.75 1017 449.15 1021.4 443.5 1025.1 436.95 1025.95 435.5 1026.7 434.05 1027.5 432.55 1028.25 431.05 1028.8 430 1029.3 428.9 1029.8 427.8 1030.3 426.7 1034.25 418.1 1037.25 408.5 1040.25 398.9 1042.4 388.55 1044.85 376.5 1046.15 363.85 1047.45 351.15 1047.6 338.2 1047.65 333.9 1047.6 329.65 1047.55 325.4 1047.35 321.1 1045.55 286.9 1040.65 259.3 1035.75 231.65 1030.45 213.15 1025.1 194.65 1022.15 187.85 1020.8 184.9 1018.05 184 1015.3 183.1 1012.45 184.25 Z"/>

<path fill="#0075c9" stroke="none" d="
M 1048.45 343.55
Q 1048.25 340.85 1047.6 338.2 1047.45 351.15 1046.15 363.85 1044.85 376.5 1042.4 388.55 1040.25 398.9 1037.25 408.5 1034.25 418.1 1030.3 426.7 1029.8 427.8 1029.3 428.9 1028.8 430 1028.25 431.05 1027.5 432.55 1026.7 434.05 1025.95 435.5 1025.1 436.95 1021.4 443.5 1017 449.15 1012.65 454.75 1007.65 459.3 1002.7 463.8 993.5 468.6 984.3 473.4 971.9 477.1 959.5 480.75 944.95 481.85 930.45 483 914.85 480.15 915.35 480.35 915.85 480.55 916.35 480.8 916.85 480.95
L 917.4 481.3
Q 917.8 481.55 918.25 481.45 919 481.7 919.85 481.85
L 920.55 482.05 920.95 482.1
Q 928.15 483.15 936.15 483.25 944.15 483.3 952.2 482.65 960.2 482 967.5 480.95 985.2 478.3 998.85 469.75 1012.45 461.15 1022.2 448.05 1031.95 434.95 1038.05 418.65 1039.05 415.9 1039.85 413.2 1040.6 410.45 1041.2 407.7 1045.3 393.5 1047.05 378.85 1048.85 364.2 1048.7 349.45 1048.7 346.3 1048.45 343.55 Z"/>
</g>

<g id="Symbol_28_0_Layer0_0_FILL">
<path fill="#0075c9" stroke="none" d="
M 1017.45 346.15
Q 1018.85 343.35 1019.4 339.95 1019.9 336.55 1019.4 333.5 1018.95 330.45 1017.65 328.05 1016.3 325.6 1014.3 324.05 1012.3 322.55 1009.75 322.2 1007.25 321.9 1004.85 322.9 1002.45 323.85 1000.45 325.9 998.4 327.9 997 330.7 995.65 333.55 995.1 336.9 994.55 340.3 995.05 343.35 995.55 346.4 996.85 348.85 998.15 351.3 1000.15 352.8 1002.2 354.35 1004.7 354.65 1007.25 354.95 1009.65 354 1012 353 1014.05 351 1016.05 349 1017.45 346.15 Z"/>
</g>

<g id="Symbol_29_0_Layer0_0_FILL">
<path fill="#0075c9" stroke="none" d="
M 1030.1 321.85
Q 1021.85 320.25 1013.45 318.7 1005.05 317.2 997.2 315.9 996.25 316.35 996.65 317.05 997.05 317.75 998.8 318.2 1005.4 319.7 1012.25 320.7 1019.1 321.75 1025.8 322.95 1026.4 323.05 1027.6 323.05 1028.8 323.05 1029.65 322.8 1030.5 322.55 1030.1 321.85 Z"/>

<path fill="#FFFFFF" stroke="none" d="
M 1003.4 280.35
Q 996.4 283.45 991.75 289.2 987.1 295 984.25 301.55 981.4 308.05 979.7 313.45 983.55 313.9 988 314.5 992.4 315.15 997.2 315.9 1005.05 317.2 1013.45 318.7 1021.85 320.25 1030.1 321.85 1034 322.6 1037.8 323.35 1041.6 324.1 1045.15 324.8 1046.1 318.35 1045.95 311.15 1045.8 303.9 1043.5 297.2 1041.15 290.45 1035.6 285.55 1030.1 280.6 1020.3 278.8 1010.35 277.3 1003.4 280.35 Z"/>
</g>

<g id="Symbol_83_0_Layer0_0_FILL">
<path fill="#0075c9" stroke="none" d="
M 770.7 182.95
L 770.25 183.75
Q 767.5 189.95 765.8 197.4 764.05 204.9 763.15 212.55 762.2 220.2 761.8 227 761.2 237.2 762.25 247.6 763.25 258 765.4 268.35 767.5 278.7 770.15 288.65
L 770.7 290.25
Q 771.15 291.45 771.8 292.8 770.45 297.35 769.5 301.4 768.6 305.4 768.1 309.55 767.6 313.65 767.45 318.45 767.35 319.6 767.2 320.8 767.05 322 767.2 323.15 767.2 323.3 767.25 323.7 767.3 324.1 767.65 324.3 768.5 325.7 770.15 327 771.8 328.3 773.35 329.3 774.9 330.3 775.6 330.7 778.5 332.65 782 332.8 785.55 333 789.25 332.1 789.45 331.5 789.7 331 789.95 330.5 790.35 330.1 790.4 330 790.5 329.9 790.6 329.8 790.65 329.7 789.05 330.05 787.45 330.2 785.85 330.4 784.35 330.45 783.4 330.5 782.4 330.35 781.4 330.2 780.45 329.95
L 780 330 779.45 329.6
Q 776.75 328.55 774.4 326.75 772.05 325 770.25 322.9
L 769.7 322.5 769.65 322.15
Q 769.55 322.05 769.45 321.95 769.35 321.8 769.2 321.7 769.3 321.25 769.35 320.8 769.45 320.4 769.45 320 769.25 317.25 770.05 311.05 770.8 304.85 773.65 294.85 773.85 294.3 774 293.7 774.2 293.1 774.4 292.5
L 774.25 291.6
Q 774.05 290.9 773.8 289.7 772.8 285.55 771.05 277.9 769.3 270.25 767.65 261.75 766.05 253.25 765.45 246.55 765.05 242.3 764.65 233.8 764.3 225.3 765.6 214.15 766.85 202.95 771.4 190.7 771.75 188.8 772.1 186.95 772.4 185.1 772.7 183.2 772.9 182.6 772.95 181.75 773.05 180.9 772.25 180.6 771.85 180.65 771.6 181 771.3 181.3 771.3 181.7 771.05 182.3 770.7 182.95
M 1022.65 209.65
L 1023.3 208.5 1023.5 207.75
Q 1023.4 207.3 1023.1 207.4 1022.75 207.5 1022.6 207.75 1021.85 208.35 1021.05 209.1
L 1020.05 210.1
Q 1015.65 214.3 1012.35 218.3 1009.05 222.3 1005.7 226.9 1002.7 225.6 999.5 224.6 996.25 223.65 993.05 222.65 992.9 222.4 992.75 222.15 992.55 221.9 992.35 221.6 989.6 217.95 987.2 214.25 984.8 210.5 982.25 206.75 978.8 201.55 975.7 196.2 972.55 190.85 968.85 185.9 966.65 183.15 964.2 180.1 961.75 177.05 959.95 174.1 959.8 173.8 959.4 173.2 959.05 172.55 958.45 172.3 957.6 172.15 957.2 172.6
L 957.1 173.45 957.55 175.05
Q 962.8 183.15 968.35 192 973.95 200.85 978.7 208.6 983.45 216.3 986.35 221 987 222.1 987.5 222.9 988 223.75 988.35 224.35 988.7 224.9 988.9 225.2
L 989.05 225.45 999.2 230.25
Q 1000.05 230.5 1000.9 230.7 1001.7 230.95 1002.5 231.15 1002.45 231.25 1002.35 231.35 1002.25 231.5 1002.15 231.6 1001.5 232.45 1000.85 233.25 1000.15 234.05 999.5 234.85 998.85 235.65 998.15 236.45 997.5 237.2 996.85 237.95 995.45 239.5 994 241.05 992.55 242.55 991.1 244 982.9 252.15 973.75 259.1 964.55 266.05 954.75 272.15 953.35 273 951.8 274.1 950.25 275.2 949.25 276.5 949 276.75 948.75 277.15 948.45 277.5 948.75 277.85 949.85 277.95 951.2 277.15 952.55 276.35 953.1 275.95 959.35 272.45 965.35 269.1 971.3 265.75 977.15 261.45 981.75 258 986.15 254.3 990.5 250.65 994.6 246.7 997.45 244 1000.1 241.15 1002.75 238.35 1005.25 235.35 1006.05 234.45 1006.8 233.5 1007.55 232.55 1008.3 231.6 1008.7 231.4 1008.9 231.15 1009.1 230.85 1009.15 230.5 1011.95 226.8 1014.5 222.85 1017.1 218.9 1019.35 214.7 1019.75 214 1020.75 212.55 1021.75 211.1 1022.65 209.65 Z"/>

<path fill="#FFFFFF" stroke="none" d="
M 994.7 246.75
L 997.05 245.7
Q 999.25 244.7 1001.7 243.05 1004.15 241.45 1005 239.55 1005.4 238.4 1005.45 237.3 1005.45 236.25 1005.25 235.35 1002.75 238.35 1000.1 241.15 997.45 244 994.6 246.7
L 994.7 246.75
M 986.35 221
Q 983.45 216.3 978.7 208.6 973.95 200.85 968.35 192 962.8 183.15 957.55 175.05 953.7 169.15 950.6 164.55 947.45 159.95 945.45 157.5 941.95 152.8 933.55 145.7 925.1 138.55 911.4 132.85 897.7 127.1 878.3 126.6 858.9 126.05 833.45 134.55 815.35 141.1 803 150.1 790.65 159.15 783.05 169.55 775.4 179.95 771.4 190.7 766.85 202.95 765.6 214.15 764.3 225.3 764.65 233.8 765.05 242.3 765.45 246.55 766.05 253.25 767.65 261.75 769.3 270.25 771.05 277.9 772.8 285.55 773.8 289.7 774.05 290.9 774.25 291.6
L 774.4 292.5
Q 774.2 293.1 774 293.7 773.85 294.3 773.65 294.85 770.8 304.85 770.05 311.05 769.25 317.25 769.45 320 769.5 320.85 769.55 321.4 769.6 321.95 769.65 322.15
L 769.7 322.5 770.25 322.9 779.45 329.6 780 330 780.45 329.95 789 328.7 790.8 326.7 789.05 326.7 788.1 326.7 786.6 326.7 785.2 326.35
Q 783.9 326 782.85 325.1 781.8 324.2 782.35 322.55
L 782.4 322.5
Q 785.25 317.55 794.55 310.6 803.8 303.65 817.3 295.85 830.85 288.05 846.55 280.55 862.3 273.05 878.1 267 911.2 254.55 936.8 247.65 962.35 240.8 977.95 238.55
L 990.5 237.3 996.85 237.95
Q 997.5 237.2 998.15 236.45 998.85 235.65 999.5 234.85 1000.15 234.05 1000.85 233.25 1001.5 232.45 1002.15 231.6
L 999.2 230.25 989.05 225.45 988.9 225.2
Q 988.7 224.9 988.35 224.35 988 223.75 987.5 222.9 987 222.1 986.35 221 Z"/>

<path fill="#0075c9" stroke="none" d="
M 990.5 237.3
L 977.95 238.55
Q 962.35 240.8 936.8 247.65 911.2 254.55 878.1 267 862.3 273.05 846.55 280.55 830.85 288.05 817.3 295.85 803.8 303.65 794.55 310.6 785.25 317.55 782.4 322.5
L 782.35 322.55
Q 784.1 323.8 785.65 324.9 787.15 326.05 788.1 326.7
L 789.05 326.7 804 315.55
Q 816.15 306.95 837.25 295.35 858.35 283.7 888 272.05 919.5 260.1 941 254.1 962.5 248.15 974.8 246.1
L 991.1 244
Q 992.55 242.55 994 241.05 995.45 239.5 996.85 237.95
L 990.5 237.3 Z"/>
</g>

<g id="Symbol_46_0_Layer0_0_FILL">
<path fill="#82bc00" stroke="none" d="
M 957.25 636.4
L 900.4 636.15 928.35 847.5 957.25 636.4 Z"/>
</g>

<g id="Symbol_47_0_Layer0_0_FILL">
<path fill="#82bc00" stroke="none" d="
M 1015.35 632
L 973.55 634.3 989 819.4 1015.35 632 Z"/>
</g>

<g id="Symbol_116_0_Layer0_0_FILL">
<path fill="#82bc00" stroke="none" d="
M 468.15 -65.05
Q 464.05 -62.25 461.25 -56.25 458.5 -50.3 460.95 -45.75 460.1 -45.8 459.5 -45.8
L 458.8 -45.7
Q 458.65 -45.65 458.35 -45.6 458 -45.55 458 -45.25 458.5 -44.05 459.7 -43.1 460.9 -42.15 461.45 -41.85 466.55 -39.25 472.35 -38.3 478.15 -37.3 483.75 -34.85 495.35 -29.2 505.7 -23.3 516.05 -17.35 526.1 -9.7 545.1 4.85 563 24.15 580.95 43.45 594.85 66.1 608.75 88.75 615.8 113.4 616.25 128.35 612.85 141.9 609.5 155.5 603.45 171.65 599.05 185.6 594 197.7 589 209.85 576.4 218.6 572.6 221.15 568.9 223.4 565.2 225.65 560.95 227.3 560.7 227.35 560.1 227.4 559.5 227.5 559.3 228.05 560.85 229.85 564.6 229.55
L 569.4 229
Q 570.4 228.9 571.35 228.65 572.35 228.45 573.25 228.2 574.05 237.05 571.85 248.4 569.65 259.7 567.35 268.25 563.15 286.65 560.25 305.75 557.35 324.8 551.7 342.65 551.25 343.95 550.75 345.65 550.25 347.4 550.2 349.05 547.5 349.45 544.8 349.8 542.1 350.15 539.4 350.45 538.9 350.4 538 350.45 537.1 350.45 536.8 351.3 537.85 352.5 539.95 352.85 542.05 353.2 543.05 353.25 566.85 355.25 591.6 347.25 616.4 339.3 637.15 327.65 659.15 315.15 675.2 293.7 691.2 272.2 701.6 246.85 712 221.55 717.15 197.55 721.8 174.9 720.85 149.5 719.95 124.1 716.3 101.15 713.8 81.3 706.3 63.6 698.75 45.85 680.8 34.9
L 678.85 33.95
Q 677.35 33.2 676.1 32.9 675.2 32.75 674.1 32.5
L 672.75 32.15
Q 671.6 31.95 670.3 32.1 669 32.25 667.95 32.65 654.6 11 635.75 -6.1 616.9 -23.2 593.4 -33.45
L 592.9 -33.7
Q 592.55 -33.85 592.2 -34 591.25 -34.45 590.1 -34.9
L 588.65 -35.5
Q 584.45 -37.25 578.1 -39.3 571.7 -41.35 566.75 -40.6 560.85 -44.45 554.85 -47.7 548.85 -50.95 542.85 -53.5
L 541.85 -53.8
Q 541.05 -54.05 540.4 -54.45 539.55 -54.85 538.45 -55.35
L 537.15 -55.95
Q 528.05 -59.95 515.4 -64.1 502.75 -68.3 490.05 -69.35 477.35 -70.4 468.15 -65.05 Z"/>
</g>

<g id="Symbol_38_0_Layer0_0_FILL">
<path fill="#82bc00" stroke="none" d="
M 1014.75 275.85
Q 1000.7 265.35 978.7 264.45 965.05 264.3 954.95 269.2 944.9 274.05 937.95 281.55 930.95 289 926.65 296.7 922.3 305.1 918.55 323.15 914.85 341.25 912.45 357.55
L 909.7 377.1 913.4 380.25 923.7 383.7
Q 937.3 387.3 954 389.95 970.7 392.65 980.35 392.95 989.8 393 1004.8 390.4 1019.75 387.85 1032.65 383.7 1045.55 379.6 1048.75 375
L 1046.55 357.15
Q 1044.5 343.75 1041.25 328.3 1038.05 312.85 1034.4 302.15 1028.8 286.3 1014.75 275.85 Z"/>
</g>

<g id="Symbol_39_0_Layer0_0_FILL">
<path fill="#82bc00" stroke="none" d="
M 1051.9 298
Q 1043.95 305.65 1042.2 316.25 1040.45 326.85 1044.65 335.9 1048.9 344.9 1058.95 347.7 1063.6 345.65 1073.55 338.2 1083.5 330.75 1091.75 319.05
L 1090 317.5 1085.15 314.1
Q 1078.8 309.75 1069.65 304.9 1060.45 300.05 1051.9 298 Z"/>
</g>

<g id="Symbol_84_0_Layer0_0_FILL">
<path fill="#82bc00" stroke="none" d="
M 803.8 673.1
L 802.3 676.6 799.45 685.65
Q 796 697.45 800.6 711.3 805.2 725.2 828.6 732.2
L 842.15 709.65
Q 855.05 688.75 881.1 665 907.15 641.2 947.2 630.9
L 978.45 620.45 988 614.7 993.45 608.65
Q 1000.35 596.15 984.05 591.1 967.75 586.05 937.5 598.55 907.2 612.55 876.65 629.75 846.1 646.95 825.35 659.7
L 803.8 673.1 Z"/>
</g>

<g id="Symbol_85_0_Layer0_0_FILL">
<path fill="#0075c9" stroke="none" d="
M 1033.05 333.7
Q 1037.3 335.75 1041.45 337.85 1069.45 347.7 1089.5 368.05 1109.6 388.4 1122 414.65 1134.4 440.85 1139.4 468.3 1141.1 477.35 1141.95 486.25 1142.8 495.1 1142.9 503.55 1142.95 510.8 1142.4 517.65 1141.85 524.5 1140.75 530.85 1139.6 540.55 1138.15 550 1136.7 559.45 1135.45 568.45 1135.1 570.45 1134.55 573.55 1134 576.6 1134.2 578.4 1134.2 578.65 1134.25 579.15 1134.3 579.65 1134.85 579.85 1136.5 579.15 1137.15 576.3
L 1137.8 572.75
Q 1138.65 569.55 1139.5 566.3 1140.35 563.1 1140.95 559.85
L 1140.95 558.9
Q 1140.95 558.2 1141.2 557.6 1141.55 556.5 1141.7 555.2
L 1141.9 553.5
Q 1144.25 540.75 1145.5 523.85 1146.75 506.9 1145 490.45 1145.35 482.65 1144.35 474.75 1143.3 466.85 1141.5 459.65
L 1141.3 458.8
Q 1141.15 458.15 1141 457.55 1141.1 456.9 1140.85 456.05
L 1140.55 454.95
Q 1135.45 433.75 1126.35 414.55 1117.25 395.3 1103.9 378.4 1098.45 371.3 1093 365.1 1087.55 358.85 1080.6 353.1 1075.05 348.35 1070.05 344.55 1065.05 340.75 1058.2 337.95 1047 333.1 1036.95 328.4 1026.9 323.75 1014.95 322.25 1010 320.85 1005.05 319.95 1000.1 319 994.35 318.6 976.3 317.2 957.75 319.15 939.2 321.05 922.4 328.2 905.65 335.35 892.95 349.65 886.15 357.5 880 367.2 873.8 376.9 869.8 386.6 869.6 387.05 869.3 387.85 868.95 388.65 869.45 389.15 870.95 388.85 872.3 386.45
L 873.8 383.6
Q 889.2 357.65 909.8 343.85 930.45 330 960.9 327.05 975.75 325.6 991.1 326.2 1006.4 326.75 1020.95 329.15 1021.85 329.3 1022.75 329.5 1023.6 329.65 1024.5 329.9 1028.85 331.65 1033.05 333.7 Z"/>

<path fill="#82bc00" stroke="none" d="
M 1041.45 337.85
Q 1031.35 334.45 1020.2 332.8 1009.05 331.15 996.85 331.5 986.6 332.8 984.2 351.15 981.85 369.5 982.4 393.8 982.95 418.1 981.55 437.05 980.1 456.05 971.75 458.5 970.85 461.2 977.25 463.4 983.65 465.6 990.55 480.25 997.4 494.9 997.8 535.1 996.65 572.35 983.4 595.65 970.1 619 956.35 632.1
L 945.35 643.5 939.9 651.6 942.95 657.3 948.7 659.6 957.35 661.55
Q 972.2 663.9 998.55 655.75 1024.85 647.65 1053.95 631.25 1083.05 614.8 1106.2 592.25 1129.4 569.7 1137.9 543.2 1138.75 540.3 1139.5 537.2 1140.2 534.1 1140.75 530.85 1141.85 524.5 1142.4 517.65 1142.95 510.8 1142.9 503.55 1142.8 495.1 1141.95 486.25 1141.1 477.35 1139.4 468.3 1134.4 440.85 1122 414.65 1109.6 388.4 1089.5 368.05 1069.45 347.7 1041.45 337.85 Z"/>
</g>

<g id="Symbol_106_0_Layer0_0_FILL">
<path fill="#0075c9" stroke="none" d="
M 1010.6 309.3
L 1009.6 307.45 1008.25 305.8 1006.65 304.45 1004.75 303.45 1002.75 302.85 1000.6 302.65 998.5 302.85 996.5 303.45 994.6 304.45 993 305.8 991.65 307.45 990.65 309.3 990 311.35 989.8 313.45 990 315.55 990.65 317.6 991.65 319.45 993 321.1 994.6 322.45 996.5 323.45 998.5 324.05 1000.6 324.25 1002.75 324.05 1004.75 323.45 1006.65 322.45 1008.25 321.1 1009.6 319.45 1010.6 317.6 1011.25 315.55 1011.45 313.45 1011.25 311.35 1010.6 309.3 Z"/>
</g>

<g id="Symbol_42_0_Layer0_0_FILL">
<path fill="#82bc00" stroke="none" d="
M 1002.55 287.3
Q 993.7 287.75 989.4 294.25 985.1 300.8 984.25 308.95
L 1019.7 309.2 1018.65 303.5
Q 1017.5 298.2 1013.85 292.9 1010.15 287.65 1002.55 287.3 Z"/>
</g>

<g id="Symbol_86_0_Layer0_0_FILL">
<path fill="#0075c9" stroke="none" d="
M 839.45 476.85
Q 825.1 469.8 812.05 461.3 806.5 457.65 801.6 453.75 796.65 449.9 792.65 445.85 789.1 442.3 786.4 438.65 783.7 435 782.05 431.25
L 781.95 431.15 781.9 431.1 780.65 430.35
Q 779.6 429.75 778.6 429.4 777.95 428.8 776.9 428.3 775.9 427.8 775.05 428.35 774.4 428.85 774.65 429.5 774.95 430.1 775.15 430.55 777.15 436.65 780.3 441.5 783.4 446.35 787.45 451.15 790.3 454.55 793.8 457.65 797.3 460.8 801.35 463.65 802.2 464.75 802.9 465.55 803.65 466.35 804.2 466.85 819.15 479.25 837.95 487.3 856.7 495.35 875.3 500.95 878.75 502.1 882.5 503.5 886.25 504.95 889.9 506.05 889.15 510.95 889.6 515.85 890.1 520.75 891.5 524.15 895.9 534.45 905.85 542.95 915.75 551.4 927.5 557.9 939.3 564.4 949.3 568.6 952.4 569.95 955.05 570.85 957.75 571.8 960.35 572.4 959.8 583.05 963.25 589.1 966.75 595.15 974.05 600.2 975.7 602.7 978.55 604.55 981.45 606.4 985.15 607.75 988.4 609.6 993.1 611.25 997.85 612.9 1000.7 611.4 1002.05 611.85 1003.1 612.05 1004.2 612.2 1004.85 612.05
L 1004.9 612
Q 1007.6 612.4 1009.95 612.7 1012.3 613 1014.15 613.25 1037.6 616.75 1061.4 615.85 1085.25 614.9 1108.9 610.9 1109 611.25 1109.2 611.55 1109.45 611.9 1109.75 612.25 1110.25 612.7 1110.35 612.15
L 1110.4 611.4
Q 1110.8 611.1 1111.35 610.85 1111.9 610.55 1112.55 610.3 1118.1 609.3 1123.6 608.25 1129.1 607.15 1134.55 606 1137 605.7 1139.05 605.4 1141.1 605.15 1142.55 604.95 1164.05 602.3 1188 597.95 1211.95 593.65 1230.2 581.25 1231.8 580.05 1234.55 576.85 1237.3 573.65 1237.1 572 1236.95 571.75 1236.55 571.55 1236.15 571.4 1235.75 571.4
L 1235.7 571.85 1235.4 572
Q 1235.2 572.05 1235.05 572.1 1233.55 572.7 1232.05 573.25 1230.55 573.85 1229.05 574.4 1228.3 574.7 1227.55 574.95
L 1226.05 575.55
Q 1221.6 577.5 1217.3 579.45 1213.05 581.4 1208.7 583.3 1205.65 583.75 1202.6 584.25 1199.55 584.75 1196.55 585.3 1195.5 585.45 1194.45 585.65 1193.35 585.85 1192.35 586 1179.9 588.3 1167.55 590.8 1155.2 593.3 1142.85 595.8 1131.85 598.05 1120.75 600.1 1109.7 602.15 1098.55 603.9 1097.45 604.05 1096.35 604.2 1095.3 604.35 1094.2 604.5 1092.9 604.7 1091.6 604.85 1090.3 605.05 1089 605.2 1068 607.8 1047.8 607.4 1027.6 607 1006.8 603.75 1004.5 603.35 1002.15 603 999.85 602.6 997.5 602.15
L 997.2 602.1
Q 997.1 602.1 996.95 602.05 993.4 599.8 990.55 597.25 987.7 594.65 985.45 591.65 982.2 588.4 980 584.25 977.8 580.1 977 575 976.95 574.7 976.9 574.4 976.85 574.1 976.85 573.85 976.8 573.55 976.8 573.25 976.75 573 976.75 572.7 976.7 572.5 976.7 572.3 976.7 572.1 976.65 571.9 976.65 571.25 976.7 570.4 976.75 569.55 976.95 568.65
L 977 568.45
Q 976.8 568.4 976.6 568.35
L 976.15 568.3 976.1 568.15
Q 976.05 567.9 975.8 567.6 975.55 567.35 975.2 567.05 975.1 566.85 975.05 566.65 974.95 566.4 974.85 566.2 973.9 565.9 972.95 565.6
L 966.45 563.5
Q 964.15 562.8 961.75 562 958.3 560.9 954.8 559.7 951.25 558.55 947.7 557.25 943.75 555.8 939.8 554.15 935.9 552.55 932.1 550.75 927.9 548.75 924.05 546.45 920.15 544.2 916.65 541.6 913.55 539.3 910.9 536.75 908.2 534.2 906.05 531.3 904.85 529.7 903.8 528 902.8 526.25 901.95 524.45 901.6 522.95 901.4 521.4 901.2 519.85 901.1 518.2 901.05 516.4 901.1 514.6 901.2 512.85 901.45 511.15 901.55 510.65 901.65 510.2 901.75 509.7 901.85 509.25 902 508.7 902.15 508.15 902.35 507.6 902.55 507.1 902.55 506.65 902.55 506.2 902.6 505.75 902.6 505.35 902.75 505.15 902.75 504.9 902.8 504.7 902.7 504.45 902.75 503.95 902.8 503.5 902.85 503 902.95 502.5 902.65 502.45 902.35 502.35
L 901.75 502.2
Q 901.1 502 900.5 501.8 899.85 501.6 899.25 501.45 899.05 501.4 898.85 501.3
L 898.5 501.2
Q 897.95 501.05 897.45 500.9
L 896.1 500.45 895.85 500.4
Q 895.25 500.2 894.7 500
L 892.15 499.2
Q 889.15 498.15 886.05 497.05 883 495.9 879.95 494.7 876.95 493.5 873.55 492.15 870.1 490.75 866.35 489.15 853.8 483.9 839.45 476.85
M 974.8 385.05
Q 977.05 387.65 983.3 389.35 989.55 391.1 993.15 391.95 1009.25 396.35 1025.5 400 1041.75 403.6 1058.15 406.6 1068.45 408.45 1078.8 410.1 1089.15 411.75 1099.55 413.2 1107.95 414.35 1116.2 415.25 1124.5 416.15 1132.65 416.8 1138.2 417.3 1143.75 417.65 1149.25 418 1154.8 418.25 1170.4 419 1186.2 419.15 1202 419.25 1218.25 418.85 1229.45 418.55 1240.6 417.95 1251.8 417.4 1263 416.85
L 1267.65 416.6
Q 1271.35 416.3 1272.6 414.85 1272.45 414.35 1271.95 414.35
L 1271.3 414.3
Q 1271.1 414.25 1270.85 414.15 1270.65 414.1 1270.4 414 1269.35 413.7 1268.1 413.55 1266.85 413.35 1265.5 413.25 1266.05 413.15 1266.6 413 1267.15 412.9 1267.75 412.8 1269.5 412.4 1272.9 411 1276.25 409.55 1277.05 408.05 1277.4 407.05 1277.1 406.7 1276.85 406.35 1275.9 406.5 1275 406.4 1273.95 406.25
L 1272.6 406.1
Q 1266.45 405.75 1258.3 407.1 1250.2 408.5 1243.8 409.35 1217.85 412.3 1190.25 413.05 1162.7 413.8 1135.7 411.9 1127.65 411.15 1119.5 410.2 1111.35 409.25 1103.15 408.15
L 1102.5 408.05
Q 1079.7 404.95 1057.05 400.7 1034.4 396.45 1012.5 391 1004.6 388.85 995.55 386.1 986.5 383.3 978.7 382.95
L 977.55 382.8
Q 976.65 382.65 975.85 382.8 975.45 383.15 974.9 383.2 974.3 383.3 974.05 383.8 974.05 384.3 974.35 384.65
L 974.8 385.05 Z"/>

<path fill="#82bc00" stroke="none" d="
M 1301.9 418.3
L 1305.35 415.15
Q 1306.35 412.15 1299.1 411.45 1292.05 412.35 1285.3 413 1278.55 413.7 1272.65 413.9 1272.35 413.9 1272.1 413.9
L 1271.6 413.9
Q 1271.3 413.95 1271 413.95 1270.7 414 1270.4 414 1270.65 414.1 1270.85 414.15 1271.1 414.25 1271.3 414.3
L 1271.95 414.35
Q 1272.45 414.35 1272.6 414.85 1271.35 416.3 1267.65 416.6
L 1263 416.85
Q 1251.8 417.4 1240.6 417.95 1229.45 418.55 1218.25 418.85 1202 419.25 1186.2 419.15 1170.4 419 1154.8 418.25 1149.25 418 1143.75 417.65 1138.2 417.3 1132.65 416.8 1124.5 416.15 1116.2 415.25 1107.95 414.35 1099.55 413.2 1089.15 411.75 1078.8 410.1 1068.45 408.45 1058.15 406.6 1034.5 402.95 1011.05 398.35 987.55 393.7 964.3 388.2 929.65 382.1 895.55 374.35 861.45 366.6 828.35 356.7 823.45 355.25 818.6 353.7 813.75 352.2 808.9 350.6 806.85 349.9 804.75 349.25 802.7 348.55 800.65 347.85 794.3 345.7 787.9 343.4 781.55 341.05 775.1 338.55 772.7 338.55 769.75 339.2 766.8 339.8 764.7 341.65 764.15 341.8 763.7 342.2
L 763.05 342.7
Q 754.5 349.75 755.1 357.3 755.7 364.8 761.95 371.95 768.2 379.1 776.45 385.1 779.8 388.85 784.25 392.55 788.7 396.25 793.8 399.75 792.45 400 790.6 400.45 788.8 400.95 787.2 401.6 786.1 402 785.05 402.4 783.95 402.85 782.95 403.25 782.75 403.5 782.45 403.6
L 782.05 403.7
Q 774.55 408.9 775.45 416.25 776.35 423.6 781.95 431.15
L 782.05 431.25
Q 783.7 435 786.4 438.65 789.1 442.3 792.65 445.85 796.65 449.9 801.6 453.75 806.5 457.65 812.05 461.3 825.1 469.8 839.45 476.85 853.8 483.9 866.35 489.15 870.1 490.75 873.55 492.15 876.95 493.5 879.95 494.7 883 495.9 886.05 497.05 889.15 498.15 892.15 499.2
L 894.7 500
Q 895.25 500.2 895.85 500.4
L 896.1 500.45 897.45 500.9
Q 897.95 501.05 898.5 501.2
L 898.85 501.3
Q 899.05 501.4 899.25 501.45 899.85 501.6 900.5 501.8 901.1 502 901.75 502.2
L 902.35 502.35
Q 902.65 502.45 902.95 502.5
L 903.8 502.75
Q 904.2 502.9 904.6 503 903.95 503.95 903.45 505 902.95 506 902.55 507.1 902.35 507.6 902.15 508.15 902 508.7 901.85 509.25 901.75 509.7 901.65 510.2 901.55 510.65 901.45 511.15 901.2 512.85 901.1 514.6 901.05 516.4 901.1 518.2 901.2 519.85 901.4 521.4 901.6 522.95 901.95 524.45 902.8 526.25 903.8 528 904.85 529.7 906.05 531.3 908.2 534.2 910.9 536.75 913.55 539.3 916.65 541.6 920.15 544.2 924.05 546.45 927.9 548.75 932.1 550.75 935.9 552.55 939.8 554.15 943.75 555.8 947.7 557.25 951.25 558.55 954.8 559.7 958.3 560.9 961.75 562 964.15 562.8 966.45 563.5
L 972.95 565.6
Q 973.9 565.9 974.85 566.2
L 977.5 567.05
Q 977.35 567.4 977.25 567.75 977.1 568.1 977 568.45
L 976.95 568.65
Q 976.75 569.55 976.7 570.4 976.65 571.25 976.65 571.9 976.7 572.1 976.7 572.3 976.7 572.5 976.75 572.7 976.75 573 976.8 573.25 976.8 573.55 976.85 573.85 976.85 574.1 976.9 574.4 976.95 574.7 977 575 977.8 580.1 980 584.25 982.2 588.4 985.45 591.65 989.75 595.85 995.25 598.8 1000.75 601.75 1006.8 603.75 1027.6 607 1047.8 607.4 1068 607.8 1089 605.2 1090.3 605.05 1091.6 604.85 1092.9 604.7 1094.2 604.5 1095.3 604.35 1096.35 604.2 1097.45 604.05 1098.55 603.9 1109.7 602.15 1120.75 600.1 1131.85 598.05 1142.85 595.8 1155.2 593.3 1167.55 590.8 1179.9 588.3 1192.35 586 1193.35 585.85 1194.45 585.65 1195.5 585.45 1196.55 585.3 1203.95 583.05 1211.35 580.65 1218.7 578.2 1226.05 575.55
L 1227.55 574.95
Q 1228.3 574.7 1229.05 574.4 1230.55 573.85 1232.05 573.25 1233.55 572.7 1235.05 572.1 1235.2 572.05 1235.4 572
L 1235.7 571.85 1235.75 571.4 1235.8 571.25
Q 1235.7 571.1 1235.6 571 1235.5 570.85 1235.35 570.8 1236.25 566.3 1236.95 562.1 1237.65 557.9 1238 556.3 1244.9 525.75 1249.2 494.9 1253.55 464.05 1259.7 433.3 1259.8 432.7 1260.1 431.6 1260.4 430.5 1260.75 429.1 1269.45 427.75 1277.7 425.9 1285.95 424.05 1293.6 421.7
L 1301.9 418.3
M 798.85 415.45
L 798.6 415.05
Q 798.5 414.85 798.35 414.7 798.5 414.5 798.6 414.35
L 798.85 414
Q 798.85 414.35 798.85 414.7 798.85 415.1 798.85 415.45
M 780.4 417.1
Q 780 415.9 779.85 414.7 779.7 413.5 779.85 412.4 779.95 413.4 780.15 414.4 780.35 415.45 780.6 416.45 780.55 416.6 780.5 416.75 780.45 416.95 780.4 417.1 Z"/>
</g>
</defs>



<g transform="matrix( 0.238494873046875, -0.641082763671875, -0.6663665771484375, -0.2017974853515625, 1002.7,1193) ">
<g transform="matrix( 1, 0, 0, 1, 0,0) ">
<use xlink:href="#Symbol_75_0_Layer0_0_FILL"/>
</g>
</g>

<g transform="matrix( 0.5854949951171875, -0.3658905029296875, 0.3419342041015625, 0.5563507080078125, 211.9,661.3) ">
<g transform="matrix( 1, 0, 0, 1, 0,0) ">
<use xlink:href="#Symbol_111_0_Layer0_0_FILL"/>
</g>
</g>

<g transform="matrix( -0.6152496337890625, -0.006500244140625, 0.0061187744140625, 0.7086944580078125, 1445.35,231.25) ">
<g transform="matrix( 1, 0, 0, 1, 0,0) ">
<use xlink:href="#Symbol_112_0_Layer0_0_FILL"/>
</g>
</g>

<g transform="matrix( -0.608489990234375, -0.1099395751953125, -0.1352386474609375, 0.69207763671875, 1563.6,341.9) ">
<g transform="matrix( 1, 0, 0, 1, 0,0) ">
<use xlink:href="#Symbol_25_0_Layer0_0_FILL"/>
</g>
</g>

<g transform="matrix( -0.6653594970703125, -0.0543670654296875, -0.0543670654296875, 0.6653594970703125, 1529.05,344.6) ">
<g transform="matrix( 1, 0, 0, 1, 0,0) ">
<use xlink:href="#Symbol_113_0_Layer0_0_FILL"/>
</g>
</g>

<g transform="matrix( -0.60015869140625, -0.155517578125, -0.1347808837890625, 0.68682861328125, 1505.55,368.15) ">
<g transform="matrix( 1, 0, 0, 1, 0,0) ">
<use xlink:href="#Symbol_114_0_Layer0_0_FILL"/>
</g>
</g>

<g transform="matrix( -0.04107666015625, -0.6560211181640625, -0.7341766357421875, 0.019989013671875, 1375.45,1222.05) ">
<g transform="matrix( 1, 0, 0, 1, 0,0) ">
<use xlink:href="#Symbol_115_0_Layer0_0_FILL"/>
</g>
</g>

<g transform="matrix( -0.042755126953125, -0.43792724609375, -0.5464324951171875, -0.01416015625, 1236.3,1096.6) ">
<g transform="matrix( 1, 0, 0, 1, 0,0) ">
<use xlink:href="#Symbol_27_0_Layer0_0_FILL"/>
</g>
</g>

<g transform="matrix( 0.6156158447265625, 0.25836181640625, -0.25836181640625, 0.6156158447265625, 440.95,62.5) ">
<g transform="matrix( 1, 0, 0, 1, 0,0) ">
<use xlink:href="#Symbol_31_0_Layer0_0_FILL"/>
</g>
</g>

<g transform="matrix( 0.637939453125, -0.0689239501953125, 0.0743560791015625, 0.613006591796875, 222.75,267.65) ">
<g transform="matrix( 1, 0, 0, 1, 0,0) ">
<use xlink:href="#Symbol_110_0_Layer0_0_FILL"/>
</g>
</g>

<g transform="matrix( 0.6471099853515625, 0.1655120849609375, -0.1655120849609375, 0.6471099853515625, 380.9,122.2) ">
<g transform="matrix( 1, 0, 0, 1, 0,0) ">
<use xlink:href="#Symbol_82_0_Layer0_0_FILL"/>
</g>
</g>

<g transform="matrix( 0.6471099853515625, 0.1655120849609375, -0.143585205078125, 0.5613861083984375, 321.35,131.6) ">
<g transform="matrix( 1, 0, 0, 1, 0,0) ">
<use xlink:href="#Symbol_28_0_Layer0_0_FILL"/>
</g>
</g>

<g transform="matrix( 0.6219024658203125, 0.2436981201171875, -0.2436981201171875, 0.6219024658203125, 374.85,39.5) ">
<g transform="matrix( 1, 0, 0, 1, 0,0) ">
<use xlink:href="#Symbol_29_0_Layer0_0_FILL"/>
</g>
</g>

<g transform="matrix( 0.6028594970703125, 0.108306884765625, -0.108306884765625, 0.6028594970703125, 398.3,183.75) ">
<g transform="matrix( 1, 0, 0, 1, 0,0) ">
<use xlink:href="#Symbol_83_0_Layer0_0_FILL"/>
</g>
</g>

<g transform="matrix( -0.0773162841796875, 0.116485595703125, 0.116485595703125, 0.0773162841796875, 860.65,186.5) ">
<g transform="matrix( 1, 0, 0, 1, 0,0) ">
<use xlink:href="#Symbol_46_0_Layer0_0_FILL"/>
</g>
</g>

<g transform="matrix( -0.1358642578125, 0.032958984375, 0.032958984375, 0.1358642578125, 970.95,228.4) ">
<g transform="matrix( 1, 0, 0, 1, 0,0) ">
<use xlink:href="#Symbol_47_0_Layer0_0_FILL"/>
</g>
</g>

<g transform="matrix( -0.118499755859375, 0.0216064453125, 0.0216064453125, 0.118499755859375, 915.65,295.25) ">
<g transform="matrix( 1, 0, 0, 1, 0,0) ">
<use xlink:href="#Symbol_116_0_Layer0_0_FILL"/>
</g>
</g>

<g transform="matrix( -0.1137847900390625, -0.0812225341796875, -0.0812225341796875, 0.1137847900390625, 990.85,357.3) ">
<g transform="matrix( 1, 0, 0, 1, 0,0) ">
<use xlink:href="#Symbol_38_0_Layer0_0_FILL"/>
</g>
</g>

<g transform="matrix( 0.1390533447265625, -0.0250701904296875, -0.0250701904296875, -0.1390533447265625, 721,384.2) ">
<g transform="matrix( 1, 0, 0, 1, 0,0) ">
<use xlink:href="#Symbol_39_0_Layer0_0_FILL"/>
</g>
</g>

<g transform="matrix( -0.1360626220703125, 0.001495361328125, -0.0352325439453125, -0.167144775390625, 1023.15,442.65) ">
<g transform="matrix( 1, 0, 0, 1, 0,0) ">
<use xlink:href="#Symbol_84_0_Layer0_0_FILL"/>
</g>
</g>

<g transform="matrix( -0.091064453125, 0.1060791015625, 0.1060791015625, 0.091064453125, 896.7,178.95) ">
<g transform="matrix( 1, 0, 0, 1, 0,0) ">
<use xlink:href="#Symbol_85_0_Layer0_0_FILL"/>
</g>
</g>

<g transform="matrix( -0.063873291015625, 0.124359130859375, 0.124359130859375, 0.063873291015625, 878.55,166.75) ">
<g transform="matrix( 1, 0, 0, 1, 0,0) ">
<use xlink:href="#Symbol_106_0_Layer0_0_FILL"/>
</g>
</g>

<g transform="matrix( -0.1388702392578125, -0.0161590576171875, -0.0161590576171875, 0.1388702392578125, 997.35,284.25) ">
<g transform="matrix( 1, 0, 0, 1, 0,0) ">
<use xlink:href="#Symbol_42_0_Layer0_0_FILL"/>
</g>
</g>

<g transform="matrix( -0.0897216796875, 0.02947998046875, 0.02947998046875, 0.0897216796875, 951.4,253.2) ">
<g transform="matrix( 1, 0, 0, 1, 0,0) ">
<use xlink:href="#Symbol_86_0_Layer0_0_FILL"/>
</g>
</g>
</svg>
