
<svg xmlns="http://www.w3.org/2000/svg" version="1.1" xmlns:xlink="http://www.w3.org/1999/xlink" preserveAspectRatio="none" x="0px" y="0px" width="760px" height="880px" viewBox="614 10 760 880">
<defs>


<g id="Symbol_26_0_Layer0_0_FILL">
<path fill="#FFFFFF" stroke="none" d="
M 711.25 715
L 688.95 718.35 681.75 718.6 677.15 717.9
Q 689.9 726.75 697.6 733.7 705.3 740.6 710.35 748.5 715.4 756.35 720.1 768.05 724.8 779.7 731.55 798.05 736.85 812.4 742.95 831.5 749 850.6 754.45 868.95 759.85 887.3 763.35 899.5
L 766.95 912.15
Q 772.85 918.8 788.2 920.2 803.5 921.55 821.95 918.85 840.35 916.1 855.5 910.4 870.7 904.7 876.25 897.2
L 876.5 885.9
Q 876.7 874.95 876.6 857.1 876.5 839.2 875.6 818.05 875.1 806.85 874.25 795.45 873.4 784.1 872.1 773.15 870.55 759.6 868.25 747.6 865.9 735.65 862.7 726.25 858.95 706.7 832.85 703.3 806.8 699.95 772.8 704.85 738.75 709.75 711.25 715 Z"/>

<path fill="#0075c9" stroke="none" d="
M 873.6 772.65
Q 873 773 872.1 773.15 873.4 784.1 874.25 795.45 875.1 806.85 875.6 818.05 875.6 817.55 875.65 817.2 875.65 816.8 875.65 816.6 876.05 809.7 876.2 802.05 876.4 794.35 876 786.6 875.6 778.85 874.4 771.8 874.15 772.3 873.6 772.65 Z"/>
</g>

<g id="Symbol_27_0_Layer0_0_FILL">
<path fill="#0075c9" stroke="none" d="
M 943.65 840.8
Q 942.6 838.75 942.2 837.35 941.45 834.6 941.05 831.85 940.7 829.05 940.15 826.35
L 939.65 824.85 939.1 824.45
Q 938.5 824.55 938.05 825.8 937.65 827 937.65 828.25 937.8 831.4 938.75 835.75 939.7 840.1 941.85 843.7 943.95 847.3 947.65 848.15 951.1 848.6 953.45 845.55 955.8 842.55 957.1 838.5 958.4 834.45 958.75 831.75 958.9 830.75 958.95 828.85 959 826.95 958.7 825.25 958.4 823.5 957.45 822.95
L 957.25 822.9
Q 957.1 822.9 957.05 822.95 956.7 823.3 956.6 823.8
L 956.45 824.5
Q 956.2 826.4 956.15 828.4 956.15 830.4 955.8 832.35 955.5 834.05 954.65 836.85 953.8 839.65 952.5 842.15 951.2 844.6 949.5 845.25 947.75 845.7 946.2 844.3 944.7 842.85 943.65 840.8 Z"/>
</g>

<g id="Symbol_75_0_Layer0_0_FILL">
<path fill="#0075c9" stroke="none" d="
M 922.45 560
Q 922.9 558.9 923.3 557.8 918.5 563.6 912.15 570.85 905.8 578.1 898.25 586.2 890.75 594.35 882.5 602.85 880.7 605 879.3 606.95 877.95 608.95 877.8 609.9 877.75 610.25 877.75 610.55 877.8 610.85 878.3 610.85 878.8 610.8 879.3 610.15 879.85 609.5 880.2 608.85
L 880.55 608.15
Q 883.05 604.8 886.15 601.8 889.3 598.75 892.55 595.8 895.85 592.85 898.7 589.75 903.55 584.45 908.3 579.4 913 574.35 917.4 568.9 918.4 567.25 919.45 565.55 920.5 563.85 921.5 562.2
L 921.5 562.15
Q 922 561.05 922.45 560
M 850.45 454.65
Q 846.9 455.5 843.8 457 840.75 458.55 837.75 460.65 837 461.25 837.25 461.6 837.5 461.95 838.35 461.65 838.75 461.55 839.1 461.4 839.45 461.25 839.85 461.1 841.2 460.25 843 459.55 844.75 458.8 846.65 458.25 847.75 457.8 848.9 457.45 850 457.05 851.2 456.75
L 851.3 456.7
Q 852.25 456.45 853.3 456.25 854.3 456.1 855.35 456 859.65 455.5 864.4 455.8 869.2 456.1 873.6 457.5 874.8 457.75 876.05 458 877.25 458.3 878.45 458.65
L 878.4 458.6
Q 877.15 457.9 875.85 457.3 874.6 456.65 873.3 456.1 869.65 454.8 865.5 454.2 861.35 453.65 857.45 453.75 853.5 453.9 850.45 454.65 Z"/>

<path fill="#FFFFFF" stroke="none" d="
M 914.05 484
Q 910.15 479.5 903.3 474.5 896.45 469.45 888.05 465.05 879.65 460.65 871.1 458.1 862.6 455.5 855.35 456 854.3 456.1 853.3 456.25 852.25 456.45 851.3 456.7
L 851.2 456.75
Q 833.9 464.6 813.35 481.95 792.8 499.3 773.7 519.35 754.6 539.45 741.65 555.4
L 731.45 568.65 726.65 576.45
Q 733.2 585.75 745.4 600.75 757.6 615.75 771 630.95 784.45 646.2 794.75 656.2
L 803.15 663.55 805.95 665.25 807.8 665.6
Q 817.3 661.15 829.7 651.5 842.1 641.85 855.7 629.15 869.35 616.4 882.5 602.85 890.75 594.35 898.25 586.2 905.8 578.1 912.15 570.85 918.5 563.6 923.3 557.8 927.7 552.5 930.45 548.85 933.2 545.2 933.95 543.6 935.6 533.5 932.75 522.05 929.85 510.6 924.65 500.45 919.45 490.3 914.05 484 Z"/>
</g>

<g id="Symbol_74_0_Layer0_0_FILL">
<path fill="#FFFFFF" stroke="none" d="
M 853.7 718.3
Q 858.95 747.9 858.95 776.9 858.95 805.95 854.75 835.3 850.55 864.6 843.15 895.15
L 850.1 899 862.75 903.75
Q 878.25 908.9 899.3 912.4 920.4 915.95 941.3 914.45 962.2 912.9 977.15 903 986.5 888.35 997.5 866.7 1008.55 845 1020.15 820.6 1031.75 796.2 1042.75 773.35 1053.75 750.5 1063.05 733.5 1044.65 728.8 1016.3 725 987.95 721.2 956.55 718.85 925.15 716.55 897.7 716.25 870.25 715.95 853.7 718.3 Z"/>
</g>

<g id="Symbol_25_0_Layer0_0_FILL">
<path fill="#0075c9" stroke="none" d="
M 943.35 838.65
Q 942.15 836.05 941.4 832.95 940.6 829.9 939.6 827.1
L 939.2 826.4 938.9 826.25
Q 938.6 826.4 938.45 827.1 938.3 827.8 938.3 828.5 938.5 831.6 939.5 835.45 940.5 839.25 942.25 842.4 943.95 845.55 946.3 846.7 950.3 848.25 953.15 845.6 956 842.95 957.6 838.15 959.2 833.4 959.35 828.65 959.35 827.95 959.35 826.95 959.3 825.95 959.1 825.15 958.85 824.4 958.4 824.45 958.25 824.75 958.1 825.1
L 957.95 825.6
Q 957.35 827.6 957.1 829.8 956.8 831.95 956.3 834.1 955.15 838.55 953 841.25 950.85 843.95 948.25 843.6 945.7 843.25 943.35 838.65 Z"/>
</g>

<g id="Symbol_31_0_Layer0_0_FILL">
<path fill="#FFFFFF" stroke="none" d="
M 698.35 280.75
Q 694.95 275.8 691.55 270.8 668.2 236.85 645.85 204.3 623.45 171.75 605.2 145.3 587 118.8 576.15 103.05
L 565 86.9 547.4 97.9 758 424.15
Q 758.35 425.7 759.2 427.2 760 428.65 760.7 429.65
L 761.45 430.75
Q 763 433.6 764.35 436.6 765.65 439.6 767.2 442.6 771.2 450.15 775.55 457.6 779.95 465 784.35 472.45 787.1 477.65 789.9 482.85 792.65 488.05 795.2 493.35 795.6 494.15 796 495 796.35 495.85 796.75 496.75 797.1 498.55 797.7 500.1
L 798.5 502.05
Q 811.05 537 823.2 572.1 835.4 607.15 848.1 642.05 848.5 643.05 849.1 643.6 849.65 644.15 850.25 644.2 852.4 646.5 855 648.7 857.55 650.95 859.3 652.9 860.1 653.9 861.95 655.75 863.8 657.6 865.65 658.2 867.5 658.8 868.3 656.15 868.35 656 868.35 655.85 868.4 655.7 868.35 655.55 870.35 654.35 872.2 652.95 874.05 651.55 874.9 650.9 879.85 647.3 884.3 643.2 888.75 639.1 893.3 635.1 897.85 631.05 902.95 627.8 905.4 626.1 907.45 623.7 909.5 621.3 912.1 619.3
L 914.95 617.25
Q 917.05 615.7 919.35 613.7 921.6 611.7 922.85 609.9
L 922.75 609.65
Q 922.7 609.55 922.6 609.45 922.55 609.35 922.5 609.25 922.1 608.5 921.7 607.75 921.3 607 920.9 606.25 920.2 604.85 919.5 603.35 918.85 601.9 918.2 600.4 916.15 597.35 914.3 594.75 912.4 592.2 911.6 591
L 907.65 585.1
Q 907.4 584.9 907.15 584.6 906.9 584.3 906.7 583.95 896 568.05 885.45 552.1 874.85 536.1 864.35 520.1 847.95 497.8 832.2 475.05 816.45 452.3 801.4 429.2 798.1 424.15 794.35 418.95 790.6 413.7 786.85 408.9 787.05 409.45 787.2 410 787.35 410.55 787.35 411 786.5 409.75 785.6 408.45
L 783.75 405.7
Q 776.85 395.45 767.5 381.75 758.15 368 746.95 351.65 735.75 335.3 723.35 317.15
L 714.35 304
Q 709.75 297.35 705.15 290.6 701.75 285.7 698.35 280.75
M 769.1 408.6
L 766.2 410.05 572.15 111.75 574.25 110.15 769.1 408.6
M 831.4 584.55
Q 830.85 583.05 830.35 581.55 829.8 580 829.3 578.5 824.9 565.8 820.5 553.35 816.15 540.9 812.2 529.9 808.25 518.85 805.15 510.45 804.95 510 804.8 509.55
L 804.5 508.7
Q 802.85 504.35 801.6 501.1 800.3 497.8 799.4 495.75 799.15 495.15 798.85 494.5 798.55 493.85 798.25 493.2 798.15 493.05 798.1 492.85 798 492.7 797.95 492.55 795.8 488.1 792.85 482.6 789.85 477.05 786.45 471.1 783 465.1 779.5 459.2 774.85 451.3 770.8 444.65 766.75 438.05 764.3 434.05
L 761.7 429.9
Q 762.5 428.8 763.3 427.7 764.1 426.6 764.9 425.55 766.7 423.25 769.1 421.1 771.5 418.9 775.1 416.8 778.7 414.7 784 412.65 784.45 412.45 784.95 412.3 785.45 412.1 785.95 411.9 786.25 411.8 786.6 411.7 786.9 411.55 787.25 411.45
L 787.55 411.35 808.4 442.05
Q 826.3 468.4 849.85 503.05 873.35 537.65 893.25 566.9
L 920.1 606.35
Q 921.1 607.85 921.6 608.6
L 922.1 609.4 865.25 657.3 865.1 657.15
Q 864.9 657 864.6 656.7 864.45 656.6 864.35 656.5 864.2 656.35 864.05 656.2 862.35 654.7 859.6 652.15 856.85 649.6 854.5 647.2
L 852.65 645.15 851.75 643.8
Q 851.75 643.7 851.7 643.6 851.65 643.45 851.6 643.35 849.7 637.85 846.65 628.8 843.55 619.8 839.65 608.45 835.75 597.1 831.4 584.55
M 917.9 609.7
L 918 609.6 909.3 597.9 856.95 643.55 865.65 653.65 917.9 609.7 Z"/>

<path fill="#0075c9" stroke="none" d="
M 830.35 581.55
Q 830.85 583.05 831.4 584.55 835.75 597.1 839.65 608.45 843.55 619.8 846.65 628.8 849.7 637.85 851.6 643.35 851.65 643.45 851.7 643.6 851.75 643.7 851.75 643.8
L 852.65 645.15 854.5 647.2
Q 856.85 649.6 859.6 652.15 862.35 654.7 864.05 656.2 864.2 656.35 864.35 656.5 864.45 656.6 864.6 656.7 864.9 657 865.1 657.15
L 865.25 657.3 922.1 609.4 921.6 608.6
Q 921.1 607.85 920.1 606.35
L 893.25 566.9
Q 873.35 537.65 849.85 503.05 826.3 468.4 808.4 442.05
L 787.55 411.35 787.25 411.45
Q 786.9 411.55 786.6 411.7 786.25 411.8 785.95 411.9 785.45 412.1 784.95 412.3 784.45 412.45 784 412.65 778.7 414.7 775.1 416.8 771.5 418.9 769.1 421.1 766.7 423.25 764.9 425.55 764.1 426.6 763.3 427.7 762.5 428.8 761.7 429.9
L 764.3 434.05
Q 766.75 438.05 770.8 444.65 774.85 451.3 779.5 459.2 783 465.1 786.45 471.1 789.85 477.05 792.85 482.6 795.8 488.1 797.95 492.55 798 492.7 798.1 492.85 798.15 493.05 798.25 493.2 798.55 493.85 798.85 494.5 799.15 495.15 799.4 495.75 800.3 497.8 801.6 501.1 802.85 504.35 804.5 508.7
L 804.8 509.55
Q 804.95 510 805.15 510.45 808.25 518.85 812.2 529.9 816.15 540.9 820.5 553.35 824.9 565.8 829.3 578.5 829.8 580 830.35 581.55
M 918 609.6
L 917.9 609.7 865.65 653.65 856.95 643.55 909.3 597.9 918 609.6
M 766.2 410.05
L 769.1 408.6 574.25 110.15 572.15 111.75 766.2 410.05 Z"/>

<path fill="#0075c9" stroke="none" d="
M 669.4 237.8
L 670.05 238.7
Q 675.1 246.55 680.7 254.15 686.3 261.75 691.1 270 691.2 270.2 691.3 270.4 691.45 270.6 691.55 270.8 694.95 275.8 698.35 280.75 701.75 285.7 705.15 290.6 708.15 294.6 711.05 298.65 714 302.65 716.65 306.75 718.3 309.35 720 311.95 721.65 314.55 723.35 317.15 735.75 335.3 746.95 351.65 758.15 368 767.5 381.75 776.85 395.45 783.75 405.7
L 785.6 408.45
Q 786.5 409.75 787.35 411 787.35 410.55 787.2 410 787.05 409.45 786.85 408.9 786.7 408.5 786.55 408.2 786.45 407.85 786.35 407.6 786.05 407.25 785.7 406.75
L 785.3 406.1
Q 779.1 396.65 772.7 387.35 766.3 378.05 760.35 368.4 751.25 353.6 741.85 338.95 732.45 324.3 722.55 309.95 714.3 298.1 705.95 286.4 697.55 274.75 689.75 262.6 685.35 255.8 680.35 249.35 675.35 242.85 670.6 236.2 670.35 235.75 669.8 235 669.25 234.3 668.4 234.35 668.1 235.05 668.5 236 668.9 237 669.4 237.8 Z"/>
</g>

<g id="Symbol_108_0_Layer0_0_FILL">
<path fill="#FFFFFF" stroke="none" d="
M 799 655.85
Q 797.7 655.05 796.4 655.15 795.1 655.2 793.95 657 793.1 658.45 793.7 659.85 794.25 661.25 795.2 662.45 795.5 662.9 795.8 663.3 796.1 663.7 796.4 664.15
L 797.15 665.3
Q 797.75 666.2 798.2 667 798.45 667.3 798.7 667.7
L 799.05 668.15
Q 803.75 674 810.55 677.2 817.35 680.4 824.95 681.85 832.6 683.3 839.65 683.9 845.7 684.45 852.05 684.05 858.4 683.65 864.75 682.7 871.1 681.8 877.05 680.75 881.8 679.95 886.5 678.9 891.2 677.85 895.8 676.35 896.55 676.15 897.4 675.85 898.3 675.6 898.7 675
L 898.75 674.45 898.65 673.4
Q 898.55 672.15 898.35 670.85
L 898.1 669.05
Q 897.35 664.45 896.55 659.85 895.7 655.25 894.85 650.7
L 894.7 650
Q 894.6 649.45 894.5 648.95 894.05 649.1 893.5 649.3
L 892.8 649.55
Q 881.15 653.2 869.3 656.1 857.45 659.05 845.65 661.9 837.4 664.05 829.55 664.5 821.7 664.95 813.35 662.8 810.2 661.95 807.2 660.65 804.25 659.35 801.55 657.5 800.3 656.6 799 655.85 Z"/>
</g>

<g id="Symbol_109_0_Layer0_0_FILL">
<path fill="#0075c9" stroke="none" d="
M 1025.45 481.1
L 1024.85 480.3
Q 1024.35 479.65 1023.8 479.35 1023.75 478.85 1023.25 478.7 1022.75 478.6 1022.35 478.8 1022.05 479.75 1022.4 480.7 1022.7 481.7 1023.15 482.5 1023.65 483.25 1023.8 483.55 1029.55 493.45 1035.7 502.85 1041.85 512.3 1047.7 522 1053.5 531.75 1058.25 542.45 1063.6 554.5 1067.8 565.05 1072 575.6 1074.65 586.55 1077.25 597.55 1077.95 610.85 1078.2 616.05 1078.2 621.25 1078.2 626.45 1077.9 631.7 1077.55 642.55 1076.1 653.1 1074.7 663.6 1072.05 673.55 1072 673.9 1072 674.2 1072 674.5 1072 674.8 1071.95 675.35 1071.95 675.95 1071.95 676.55 1072.2 676.95 1068.85 686.85 1064.2 696.4 1059.55 705.95 1052.75 715.7 1048.1 722.3 1043.5 728.05 1038.95 733.85 1033.9 739.15 1028.8 744.5 1022.75 749.7 1017.75 754.1 1012.2 758.55 1006.7 763.05 1001 766.45 1000.35 766.75 999.55 767.2 998.8 767.7 999.1 768.5 999.6 769.3 1000.4 769 1001.2 768.7 1001.95 768.55 1002.55 768.3 1003.3 768
L 1004.2 767.6
Q 1014.75 763.15 1023.8 756.15 1032.85 749.1 1040.6 740.45 1048.35 731.8 1054.85 722.5 1060.95 713.9 1065.7 705.65 1070.45 697.45 1074.05 688.75 1077.65 680 1080.3 669.85 1081.2 666.55 1082.35 662.25 1083.5 657.95 1084.25 653.7 1085 649.4 1084.75 646.05 1086.6 634.05 1086.6 621.3 1086.6 608.5 1085 596.65 1083.4 584.8 1080.6 575.65 1077.8 566.75 1073.9 557.65 1069.95 548.55 1065.45 539.7 1061 530.8 1056.5 522.65 1053.15 516.4 1048.3 509.1 1043.5 501.85 1038.15 495 1032.8 488.2 1027.8 483.2 1027.2 482.65 1026.6 482.15 1026 481.65 1025.45 481.1
M 765.2 690.75
Q 765.15 691.4 765.1 692.1 765.05 692.75 765 693.4
L 765.05 693.05 765.15 692.75 765.2 692.25
Q 765.2 691.65 765.2 690.75 Z"/>

<path fill="#FFFFFF" stroke="none" d="
M 883.9 376.1
L 878.95 375.35 875.7 376.3
Q 871.35 380.6 860.05 387.65 848.8 394.7 834.8 404.65 820.8 414.65 808.2 427.85 795.65 441.05 788.6 457.7 779.75 480.05 776.4 503.8 773.05 527.6 774.7 551.15 776.35 574.75 782.4 596.45 782.7 623.5 782.1 647.75 781.5 672.05 780.25 693.15 779 714.25 777.4 731.7 776.9 738.55 781 744.25 785.1 749.95 792 754.55 798.9 759.15 806.9 762.7 814.85 766.25 822.1 768.8 855.4 780.65 888.15 783.2 920.95 785.7 951.15 779.1 981.4 772.55 1006.9 757.1 1032.4 741.65 1051.05 717.6 1058.4 708.05 1063.6 696.95 1068.8 685.85 1072.05 673.55 1074.7 663.6 1076.1 653.1 1077.55 642.55 1077.9 631.7 1078.1 625.35 1078 618.9 1077.85 612.5 1077.35 606.05 1074.95 580.6 1062.85 553.8 1050.7 527 1035.5 503.85 1020.3 480.65 1008.6 466
L 995.45 450.2 977.6 436.5
Q 961.1 423.95 939.05 408.45 916.95 392.95 898.75 382.8
L 883.9 376.1 Z"/>
</g>

<g id="Symbol_110_0_Layer0_0_FILL">
<path fill="#0075c9" stroke="none" d="
M 759.35 655.55
Q 758.35 653.25 757.45 650.9 757.35 652.1 757 653.15 756.7 654.15 756.05 654.15 755.85 654.15 755.7 654 755.618359375 653.938671875 755.55 653.85 757.337109375 658.3388671875 759.2 662.8 761.15 667.35 762.85 671.6 764.15 675.05 765.5 677.6 766.85 680.2 769.25 683.05 769.75 683.65 770.1 684.2 770.45 684.75 770.7 685.2 774.6 689.5 779.5 693.25 784.4 697 789.9 699.85 795.45 702.7 801.3 704.2 801.15 704.1 801 703.9 800.85 703.75 800.75 703.6 800.6 703.3 800.55 703 800.55 702.65 800.85 702.45 801.4 702.4 802 702.6
L 802.5 702.75 802.8 702.8
Q 803.95 702.9 805.3 702.75 806.65 702.6 808.05 702.65 813.85 703 819.1 702.3 824.4 701.65 829.2 700.05 816.9 702.9 806.8 701.25 796.75 699.6 788.95 695.3 781.15 690.95 775.8 685.7 772.9 682.9 769.1 676.2 765.3 669.55 761.3 659.95 760.3 657.8 759.35 655.55
M 804.95 704.95
Q 806.1 705.15 807.3 705.3 809.05 705.35 810.75 705.4 812.5 705.4 814.2 705.4 815 705.35 815.8 705.2 816.6 705.1 817.4 704.95 813.95 704.95 810.15 704.85 806.35 704.75 802.55 704.5 803.75 704.8 804.95 704.95
M 853.75 579.7
Q 853.6 579.05 853.4 578.45 853.25 577.85 853.05 577.2 852.5 575.8 851.9 574.35 851.3 572.9 850.7 571.5 851.5 573.55 852.25 575.6 853 577.65 853.75 579.7
M 837.1 532.05
Q 838.9 536.2 840.45 540.5 842 544.8 843.95 548.95 844.55 550.15 845.1 551.4 845.7 552.6 846.25 553.8
L 845.8 552.45
Q 845.6 551.75 845.35 551.05 844.7 549.05 843.35 545 841.95 540.95 840.25 537.15 838.6 533.3 837.1 532.05
M 798.85 627.8
Q 797.15 628.7 795.3 629.65 785.4 638.35 780.4 649.55 775.4 660.7 773.8 673.5 773.95 675 774.15 676.15 774.35 677.3 774.65 677.8 774.75 678 774.9 678.35 775.05 678.75 775.45 678.8 776.05 678.3 776.4 677.4 776.75 676.45 776.9 675.55 777.05 674.6 777.15 674.25 778.9 665.25 781.15 658 783.35 650.8 787.5 645 791.65 639.25 799.25 634.65 804.15 630.6 810.15 628 816.1 625.4 823.15 624.55
L 824.8 624.45
Q 826.1 624.4 827.7 624.4 829.35 624.4 830.65 624.5 831.35 624.4 832.05 624.5
L 832.9 624.65
Q 834.75 624.85 836.6 625.15 838.4 625.4 840.25 625.8 841.1 625.95 842 626.15 842.85 626.35 843.75 626.55 850.6 627.65 856.9 630.25 863.2 632.9 869.3 636.75
L 869.8 637.05
Q 870.15 637.25 870.7 637.6 870.5 636.8 870.05 635.9 869.55 635.05 868.85 634.1
L 868.7 633.9
Q 861.75 627.75 854.35 624.05 846.95 620.4 838.3 619.4 829.7 618.4 818.95 620.2 814.8 621.05 810.65 622.55 806.45 624 802.3 626.1 800.6 626.95 798.85 627.8 Z"/>

<path fill="#0075c9" stroke="none" d="
M 833.65 529.15
Q 833.9 530.5 834.15 531.7 834.25 532.05 834.3 532.35 834.35 532.6 834.4 532.75 834.5 533.1 834.6 533.45 834.7 533.8 834.85 534.15 836 537.8 837.55 541.55 839.05 545.3 840.65 548.6 843.35 554.25 845.85 560 848.35 565.7 850.7 571.5 851.3 572.9 851.9 574.35 852.5 575.8 853.05 577.2 853.65 578.65 854.25 580.1 854.85 581.5 855.45 582.95 855.5 583.5 855.55 584 855.6 584.5 855.7 585 855.8 585.7 855.95 586.4 856.1 587.1 856.3 587.8 856.35 588.15 856.45 588.55 856.55 588.9 856.7 589.25 857.35 591.4 858.15 593.55 858.95 595.65 859.85 598.05 860.85 600.85 861.95 603.7 863.05 606.5 864.15 609.35 866.85 616 869.2 622.7 871.55 629.45 873 636.3
L 873 636.35
Q 873.8 640.25 873.85 643.55 873.85 646.85 873.4 650.15 872.95 653.4 872.25 657.25 871.4 662.15 869.25 667 867.15 671.85 864 676.15 860.85 680.4 856.95 683.6 850.25 689.1 843.5 693.35 836.7 697.55 829.3 700.05
L 829.2 700.05
Q 824.4 701.65 819.1 702.3 813.85 703 808.05 702.65 806.65 702.6 805.3 702.75 803.95 702.9 802.8 702.8
L 802.5 702.75 802 702.6
Q 801.4 702.4 800.85 702.45 800.55 702.65 800.55 703 800.6 703.3 800.75 703.6 800.85 703.75 801 703.9 801.15 704.1 801.3 704.2
L 801.55 704.45
Q 801.8 704.45 802.05 704.5 802.3 704.5 802.55 704.5 806.35 704.75 810.15 704.85 813.95 704.95 817.4 704.95 818.85 704.95 820.2 704.95 821.55 704.95 822.75 704.95 823.35 704.95 823.9 704.95 824.5 704.95 825.05 704.95 828.65 703.9 832.25 702.9 835.85 701.9 839.4 700.9 841.3 700 843.15 698.95 845 697.95 846.85 696.8 853.9 692.6 859.6 687.6 865.3 682.55 869.95 675.7 872.6 671.75 874.05 668.15 875.5 664.6 876.35 660.8 877.2 657.05 878 652.4 879.5 643.8 877.85 635.4 876.2 627.05 873.1 618.95 870.3 611.2 867.4 603.4 864.5 595.55 861.45 587.85 861.15 587.1 860.25 585.35 859.35 583.55 858.3 581.8 857.25 580.1 856.6 579.4 854.2 572.9 851.65 566.5 849.1 560.1 846.25 553.8 845.7 552.6 845.1 551.4 844.55 550.15 843.95 548.95 842 544.8 840.45 540.5 838.9 536.2 837.1 532.05 836.9 531.65 836.7 531.25 836.5 530.85 836.35 530.4
L 835.9 529.4
Q 835.5 528.6 834.95 527.8 834.4 527.05 833.8 527 833.65 527.1 833.6 527.25 833.5 527.4 833.5 527.5
L 833.5 528.05 833.65 529.15
M 743.35 579.45
Q 742.8 573.6 742.6 567.45 742.45 561.25 743.05 555.85 742.55 559.1 742.2 562.4 741.8 565.65 741.55 568.95 741.1 575.2 741 581.55 740.9 587.9 741.3 594.15 741.85 595.9 742.05 597.6 742.3 599.3 742.4 600.45
L 742.4 601.35 742.45 601.65
Q 743.05 608.2 744.55 615.05 746 621.9 747.9 628.7 749 632.8 750.15 636.7 751.25 640.65 752.35 644.4 752.95 646.65 753.8 649 754.6 651.3 755.5 653.7 755.53515625 653.7888671875 755.55 653.85 755.618359375 653.938671875 755.7 654 755.85 654.15 756.05 654.15 756.7 654.15 757 653.15 757.35 652.1 757.45 650.9 757.5 650.75 757.5 650.55 757.5 650.4 757.5 650.25 756 646.1 754.55 641.7 753.1 637.25 751.75 632.6 751.15 630.6 750.6 628.5 750.05 626.45 749.5 624.35 746.7 613.2 745 601.75 743.35 590.35 743.35 579.45 Z"/>

<path fill="#FFFFFF" stroke="none" d="
M 837.55 541.55
Q 836 537.8 834.85 534.15 834.7 533.8 834.6 533.45 834.5 533.1 834.4 532.75 834.35 532.6 834.3 532.35 834.25 532.05 834.15 531.7 831.35 525.65 828.45 520.15 825.6 514.6 822.75 509.75 803.9 515.25 788.4 521.7 772.9 528.2 762.75 534.65 752.55 541.1 749.8 546.45 746.4 553.4 744.9 561.8 743.35 570.15 743.35 579.45 743.35 590.35 745 601.75 746.7 613.2 749.5 624.35 750.05 626.45 750.6 628.5 751.15 630.6 751.75 632.6 753.1 637.25 754.55 641.7 756 646.1 757.5 650.25 758.45 652.8 759.4 655.25 760.35 657.65 761.3 659.95 765.3 669.55 769.1 676.2 772.9 682.9 775.8 685.7 781.15 690.95 788.95 695.3 796.75 699.6 806.8 701.25 816.9 702.9 829.2 700.05
L 829.3 700.05
Q 836.7 697.55 843.5 693.35 850.25 689.1 856.95 683.6 860.85 680.4 864 676.15 867.15 671.85 869.25 667 871.4 662.15 872.25 657.25 872.95 653.4 873.4 650.15 873.85 646.85 873.85 643.55 873.8 640.25 873 636.35
L 873 636.3
Q 871.05 630.15 868.85 623.4 866.6 616.6 864.15 609.35 863.05 606.5 861.95 603.7 860.85 600.85 859.85 598.05 858.95 595.65 858.15 593.55 857.35 591.4 856.7 589.25 856.55 588.9 856.45 588.55 856.35 588.15 856.3 587.8 856.1 587.1 855.95 586.4 855.8 585.7 855.7 585 855.2 583.65 854.75 582.35 854.25 581 853.75 579.7 853 577.65 852.25 575.6 851.5 573.55 850.7 571.5 848.35 565.7 845.85 560 843.35 554.25 840.65 548.6 839.05 545.3 837.55 541.55
M 795.3 629.65
Q 797.15 628.7 798.85 627.8 800.6 626.95 802.3 626.1 806.45 624 810.65 622.55 814.8 621.05 818.95 620.2 829.7 618.4 838.3 619.4 846.95 620.4 854.35 624.05 861.75 627.75 868.7 633.9
L 868.85 634.1
Q 869.55 635.05 870.05 635.9 870.5 636.8 870.7 637.6 870.15 637.25 869.8 637.05
L 869.3 636.75
Q 863.2 632.9 856.9 630.25 850.6 627.65 843.75 626.55 842.85 626.35 842 626.15 841.1 625.95 840.25 625.8 838.4 625.4 836.6 625.15 834.75 624.85 832.9 624.65
L 832.05 624.5
Q 831.35 624.4 830.65 624.5 829.35 624.4 827.7 624.4 826.1 624.4 824.8 624.45
L 823.15 624.55
Q 816.1 625.4 810.15 628 804.15 630.6 799.25 634.65 791.65 639.25 787.5 645 783.35 650.8 781.15 658 778.9 665.25 777.15 674.25 777.05 674.6 776.9 675.55 776.75 676.45 776.4 677.4 776.05 678.3 775.45 678.8 775.05 678.75 774.9 678.35 774.75 678 774.65 677.8 774.35 677.3 774.15 676.15 773.95 675 773.8 673.5 775.4 660.7 780.4 649.55 785.4 638.35 795.3 629.65 Z"/>
</g>

<g id="Symbol_82_0_Layer0_0_FILL">
<path fill="#FFFFFF" stroke="none" d="
M 1012.45 184.25
Q 1009.55 185.35 1007.8 188.35 1002.25 198.35 997.6 206.75 992.9 215.2 988.2 222.4 983.55 229.6 978.1 236
L 972.55 233.85
Q 967.9 232.05 961.5 229.3 955.1 226.55 949.2 223.55 944.05 220.7 934.8 217.95 925.55 215.15 912.95 214.2 900.35 213.3 885.1 216 869.8 218.75 852.55 227 840.85 232.9 833.35 239.5 825.8 246.1 821.95 251.35
L 817.3 258.3
Q 812.95 267.05 807.85 285.25 802.75 303.45 798.15 323.75 793.55 344 790.75 358.9
L 788.65 370.6 788.15 375.95 789.35 379.6 792.45 386.35
Q 796.5 394.6 805.7 407.45 814.9 420.3 830.8 436.3 844.75 449.8 859.75 458.55 874.75 467.25 887.8 472.1 900.85 476.95 909 478.85 910.45 479.2 911.9 479.55 913.4 479.85 914.85 480.15 930.45 483 944.95 481.85 959.5 480.75 971.9 477.1 984.3 473.4 993.5 468.6 1002.7 463.8 1007.65 459.3 1012.65 454.75 1017 449.15 1021.4 443.5 1025.1 436.95 1025.95 435.5 1026.7 434.05 1027.5 432.55 1028.25 431.05 1028.8 430 1029.3 428.9 1029.8 427.8 1030.3 426.7 1034.25 418.1 1037.25 408.5 1040.25 398.9 1042.4 388.55 1044.85 376.5 1046.15 363.85 1047.45 351.15 1047.6 338.2 1047.65 333.9 1047.6 329.65 1047.55 325.4 1047.35 321.1 1045.55 286.9 1040.65 259.3 1035.75 231.65 1030.45 213.15 1025.1 194.65 1022.15 187.85 1020.8 184.9 1018.05 184 1015.3 183.1 1012.45 184.25 Z"/>

<path fill="#0075c9" stroke="none" d="
M 1048.45 343.55
Q 1048.25 340.85 1047.6 338.2 1047.45 351.15 1046.15 363.85 1044.85 376.5 1042.4 388.55 1040.25 398.9 1037.25 408.5 1034.25 418.1 1030.3 426.7 1029.8 427.8 1029.3 428.9 1028.8 430 1028.25 431.05 1027.5 432.55 1026.7 434.05 1025.95 435.5 1025.1 436.95 1021.4 443.5 1017 449.15 1012.65 454.75 1007.65 459.3 1002.7 463.8 993.5 468.6 984.3 473.4 971.9 477.1 959.5 480.75 944.95 481.85 930.45 483 914.85 480.15 915.35 480.35 915.85 480.55 916.35 480.8 916.85 480.95
L 917.4 481.3
Q 917.8 481.55 918.25 481.45 919 481.7 919.85 481.85
L 920.55 482.05 920.95 482.1
Q 928.15 483.15 936.15 483.25 944.15 483.3 952.2 482.65 960.2 482 967.5 480.95 985.2 478.3 998.85 469.75 1012.45 461.15 1022.2 448.05 1031.95 434.95 1038.05 418.65 1039.05 415.9 1039.85 413.2 1040.6 410.45 1041.2 407.7 1045.3 393.5 1047.05 378.85 1048.85 364.2 1048.7 349.45 1048.7 346.3 1048.45 343.55 Z"/>
</g>

<g id="Symbol_28_0_Layer0_0_FILL">
<path fill="#0075c9" stroke="none" d="
M 1017.45 346.15
Q 1018.85 343.35 1019.4 339.95 1019.9 336.55 1019.4 333.5 1018.95 330.45 1017.65 328.05 1016.3 325.6 1014.3 324.05 1012.3 322.55 1009.75 322.2 1007.25 321.9 1004.85 322.9 1002.45 323.85 1000.45 325.9 998.4 327.9 997 330.7 995.65 333.55 995.1 336.9 994.55 340.3 995.05 343.35 995.55 346.4 996.85 348.85 998.15 351.3 1000.15 352.8 1002.2 354.35 1004.7 354.65 1007.25 354.95 1009.65 354 1012 353 1014.05 351 1016.05 349 1017.45 346.15 Z"/>
</g>

<g id="Symbol_29_0_Layer0_0_FILL">
<path fill="#0075c9" stroke="none" d="
M 1030.1 321.85
Q 1021.85 320.25 1013.45 318.7 1005.05 317.2 997.2 315.9 996.25 316.35 996.65 317.05 997.05 317.75 998.8 318.2 1005.4 319.7 1012.25 320.7 1019.1 321.75 1025.8 322.95 1026.4 323.05 1027.6 323.05 1028.8 323.05 1029.65 322.8 1030.5 322.55 1030.1 321.85 Z"/>

<path fill="#FFFFFF" stroke="none" d="
M 1003.4 280.35
Q 996.4 283.45 991.75 289.2 987.1 295 984.25 301.55 981.4 308.05 979.7 313.45 983.55 313.9 988 314.5 992.4 315.15 997.2 315.9 1005.05 317.2 1013.45 318.7 1021.85 320.25 1030.1 321.85 1034 322.6 1037.8 323.35 1041.6 324.1 1045.15 324.8 1046.1 318.35 1045.95 311.15 1045.8 303.9 1043.5 297.2 1041.15 290.45 1035.6 285.55 1030.1 280.6 1020.3 278.8 1010.35 277.3 1003.4 280.35 Z"/>
</g>

<g id="Symbol_83_0_Layer0_0_FILL">
<path fill="#0075c9" stroke="none" d="
M 770.7 182.95
L 770.25 183.75
Q 767.5 189.95 765.8 197.4 764.05 204.9 763.15 212.55 762.2 220.2 761.8 227 761.2 237.2 762.25 247.6 763.25 258 765.4 268.35 767.5 278.7 770.15 288.65
L 770.7 290.25
Q 771.15 291.45 771.8 292.8 770.45 297.35 769.5 301.4 768.6 305.4 768.1 309.55 767.6 313.65 767.45 318.45 767.35 319.6 767.2 320.8 767.05 322 767.2 323.15 767.2 323.3 767.25 323.7 767.3 324.1 767.65 324.3 768.5 325.7 770.15 327 771.8 328.3 773.35 329.3 774.9 330.3 775.6 330.7 778.5 332.65 782 332.8 785.55 333 789.25 332.1 789.45 331.5 789.7 331 789.95 330.5 790.35 330.1 790.4 330 790.5 329.9 790.6 329.8 790.65 329.7 789.05 330.05 787.45 330.2 785.85 330.4 784.35 330.45 783.4 330.5 782.4 330.35 781.4 330.2 780.45 329.95
L 780 330 779.45 329.6
Q 776.75 328.55 774.4 326.75 772.05 325 770.25 322.9
L 769.7 322.5 769.65 322.15
Q 769.55 322.05 769.45 321.95 769.35 321.8 769.2 321.7 769.3 321.25 769.35 320.8 769.45 320.4 769.45 320 769.25 317.25 770.05 311.05 770.8 304.85 773.65 294.85 773.85 294.3 774 293.7 774.2 293.1 774.4 292.5
L 774.25 291.6
Q 774.05 290.9 773.8 289.7 772.8 285.55 771.05 277.9 769.3 270.25 767.65 261.75 766.05 253.25 765.45 246.55 765.05 242.3 764.65 233.8 764.3 225.3 765.6 214.15 766.85 202.95 771.4 190.7 771.75 188.8 772.1 186.95 772.4 185.1 772.7 183.2 772.9 182.6 772.95 181.75 773.05 180.9 772.25 180.6 771.85 180.65 771.6 181 771.3 181.3 771.3 181.7 771.05 182.3 770.7 182.95
M 1022.65 209.65
L 1023.3 208.5 1023.5 207.75
Q 1023.4 207.3 1023.1 207.4 1022.75 207.5 1022.6 207.75 1021.85 208.35 1021.05 209.1
L 1020.05 210.1
Q 1015.65 214.3 1012.35 218.3 1009.05 222.3 1005.7 226.9 1002.7 225.6 999.5 224.6 996.25 223.65 993.05 222.65 992.9 222.4 992.75 222.15 992.55 221.9 992.35 221.6 989.6 217.95 987.2 214.25 984.8 210.5 982.25 206.75 978.8 201.55 975.7 196.2 972.55 190.85 968.85 185.9 966.65 183.15 964.2 180.1 961.75 177.05 959.95 174.1 959.8 173.8 959.4 173.2 959.05 172.55 958.45 172.3 957.6 172.15 957.2 172.6
L 957.1 173.45 957.55 175.05
Q 962.8 183.15 968.35 192 973.95 200.85 978.7 208.6 983.45 216.3 986.35 221 987 222.1 987.5 222.9 988 223.75 988.35 224.35 988.7 224.9 988.9 225.2
L 989.05 225.45 999.2 230.25
Q 1000.05 230.5 1000.9 230.7 1001.7 230.95 1002.5 231.15 1002.45 231.25 1002.35 231.35 1002.25 231.5 1002.15 231.6 1001.5 232.45 1000.85 233.25 1000.15 234.05 999.5 234.85 998.85 235.65 998.15 236.45 997.5 237.2 996.85 237.95 995.45 239.5 994 241.05 992.55 242.55 991.1 244 982.9 252.15 973.75 259.1 964.55 266.05 954.75 272.15 953.35 273 951.8 274.1 950.25 275.2 949.25 276.5 949 276.75 948.75 277.15 948.45 277.5 948.75 277.85 949.85 277.95 951.2 277.15 952.55 276.35 953.1 275.95 959.35 272.45 965.35 269.1 971.3 265.75 977.15 261.45 981.75 258 986.15 254.3 990.5 250.65 994.6 246.7 997.45 244 1000.1 241.15 1002.75 238.35 1005.25 235.35 1006.05 234.45 1006.8 233.5 1007.55 232.55 1008.3 231.6 1008.7 231.4 1008.9 231.15 1009.1 230.85 1009.15 230.5 1011.95 226.8 1014.5 222.85 1017.1 218.9 1019.35 214.7 1019.75 214 1020.75 212.55 1021.75 211.1 1022.65 209.65 Z"/>

<path fill="#FFFFFF" stroke="none" d="
M 994.7 246.75
L 997.05 245.7
Q 999.25 244.7 1001.7 243.05 1004.15 241.45 1005 239.55 1005.4 238.4 1005.45 237.3 1005.45 236.25 1005.25 235.35 1002.75 238.35 1000.1 241.15 997.45 244 994.6 246.7
L 994.7 246.75
M 986.35 221
Q 983.45 216.3 978.7 208.6 973.95 200.85 968.35 192 962.8 183.15 957.55 175.05 953.7 169.15 950.6 164.55 947.45 159.95 945.45 157.5 941.95 152.8 933.55 145.7 925.1 138.55 911.4 132.85 897.7 127.1 878.3 126.6 858.9 126.05 833.45 134.55 815.35 141.1 803 150.1 790.65 159.15 783.05 169.55 775.4 179.95 771.4 190.7 766.85 202.95 765.6 214.15 764.3 225.3 764.65 233.8 765.05 242.3 765.45 246.55 766.05 253.25 767.65 261.75 769.3 270.25 771.05 277.9 772.8 285.55 773.8 289.7 774.05 290.9 774.25 291.6
L 774.4 292.5
Q 774.2 293.1 774 293.7 773.85 294.3 773.65 294.85 770.8 304.85 770.05 311.05 769.25 317.25 769.45 320 769.5 320.85 769.55 321.4 769.6 321.95 769.65 322.15
L 769.7 322.5 770.25 322.9 779.45 329.6 780 330 780.45 329.95 789 328.7 790.8 326.7 789.05 326.7 788.1 326.7 786.6 326.7 785.2 326.35
Q 783.9 326 782.85 325.1 781.8 324.2 782.35 322.55
L 782.4 322.5
Q 785.25 317.55 794.55 310.6 803.8 303.65 817.3 295.85 830.85 288.05 846.55 280.55 862.3 273.05 878.1 267 911.2 254.55 936.8 247.65 962.35 240.8 977.95 238.55
L 990.5 237.3 996.85 237.95
Q 997.5 237.2 998.15 236.45 998.85 235.65 999.5 234.85 1000.15 234.05 1000.85 233.25 1001.5 232.45 1002.15 231.6
L 999.2 230.25 989.05 225.45 988.9 225.2
Q 988.7 224.9 988.35 224.35 988 223.75 987.5 222.9 987 222.1 986.35 221 Z"/>

<path fill="#0075c9" stroke="none" d="
M 990.5 237.3
L 977.95 238.55
Q 962.35 240.8 936.8 247.65 911.2 254.55 878.1 267 862.3 273.05 846.55 280.55 830.85 288.05 817.3 295.85 803.8 303.65 794.55 310.6 785.25 317.55 782.4 322.5
L 782.35 322.55
Q 784.1 323.8 785.65 324.9 787.15 326.05 788.1 326.7
L 789.05 326.7 804 315.55
Q 816.15 306.95 837.25 295.35 858.35 283.7 888 272.05 919.5 260.1 941 254.1 962.5 248.15 974.8 246.1
L 991.1 244
Q 992.55 242.55 994 241.05 995.45 239.5 996.85 237.95
L 990.5 237.3 Z"/>
</g>

<g id="Symbol_46_0_Layer0_0_FILL">
<path fill="#82bc00" stroke="none" d="
M 957.25 636.4
L 900.4 636.15 928.35 847.5 957.25 636.4 Z"/>
</g>

<g id="Symbol_64_0_Layer0_0_FILL">
<path fill="#82bc00" stroke="none" d="
M 1058.4 706.4
L 1005.45 685.75 1007.35 780.65 966.3 858.2 1050.4 793.3 1058.4 706.4 Z"/>
</g>

<g id="Symbol_48_0_Layer0_0_FILL">
<path fill="#0075c9" stroke="none" d="
M 826.75 19.9
L 827.1 20.3
Q 829.3 21.95 830.85 23.6
L 832.55 25.4
Q 859.85 53 878.75 89.15 897.7 125.35 910.4 162.4 919.25 188.25 919.65 219.35 920.05 250.45 913.75 281.1 907.45 311.75 896.1 336.2 894.4 339.9 891.65 345.45 888.85 351 885.55 356.65 882.95 361 880.3 364.4 877.7 367.85 875.2 369.5 874.6 369.9 874 370.2 873.45 370.55 872.9 370.75 872.35 371 871.9 371.15 871.4 371.35 870.95 371.4 870.7 371.7 870.45 371.9 870.2 372.15 869.95 372.3
L 869.6 372.65
Q 869.3 372.9 869.1 373.2 868.85 372.8 868.5 372.15 868.2 371.5 867.95 370.85 867.8 370.75 867.7 370.65 867.6 370.6 867.5 370.45 866.65 369.55 866.15 367.95 865.65 366.4 865.45 364.35 865.45 364.2 865.4 364.1 865.4 363.95 865.4 363.8 865.25 363.4 865.15 363.05 865.05 362.65 864.9 362.25 863.45 355.8 862.7 349.55 861.9 343.3 861.6 339.6 861.45 338.6 861.35 337.65 861.25 336.7 861.1 335.75 858.8 325.45 855.6 315.35 852.35 305.25 848.45 294.75 847.7 293.9 846.75 293.8 845.8 293.7 844.6 294.65
L 844.05 295.6
Q 843.7 296.3 843.4 296.9 842.1 294.95 840.95 293.65 839.75 292.35 838.9 292.05 838.35 291.9 838.1 292.1 837.9 292.3 838.05 292.8 838.35 293.55 838.95 294.25
L 839.75 295.2
Q 844.7 302.95 847.95 313.45 851.25 323.9 852.9 332.85 854.05 339.4 855.4 348.2 856.75 356.95 858.9 365.35 861.05 373.75 864.75 379.15 865.75 380.5 866.7 381.1 867.7 381.7 868.7 381.65 868.75 382.3 869 382.85 869.3 383.4 869.8 383.8 871.85 384.9 874.65 382 877.45 379.1 879.85 375.35 882.25 371.55 883.1 370.05 909.6 327.95 919.95 280.85 930.3 233.8 921.15 184.7 915.8 156.7 905.2 129.45 894.6 102.25 878.3 78.2 871.05 67.4 864.1 56.15 857.15 44.95 849.8 34.3 845.65 28.5 840.25 23.8 834.9 19.1 828.75 15.3 826.8 14 825.85 14.05 824.9 14.1 824.65 15.7 824.8 16.8 825.45 17.95 826.1 19.1 826.45 19.5 826.6 19.7 826.75 19.9 Z"/>

<path fill="#82bc00" stroke="none" d="
M 819.95 20.15
Q 819.6 20.7 819.5 21.25 818.25 21.3 816.85 22.35 815.4 23.35 814 25.55 812.85 27.35 811.7 29.2 810.5 31 809.4 32.85
L 808.95 33.55
Q 808.6 34.1 808.65 34.6 808 35.6 807.25 36.75
L 806.35 38.25
Q 794.5 57.55 785.85 77.85 777.2 98.1 769.25 118.75 767.85 122.4 766.75 126.05 765.65 129.65 764 133.1 761.25 130.6 758.4 128.55 755.5 126.55 754.15 126.95 753.95 127.05 753.65 127.3 753.35 127.55 753.35 127.85 753.45 129.15 754.85 130.2 756.2 131.3 756.85 131.75 758.1 132.9 759.35 134.15 760.6 135.4 761.85 136.8 761.75 136.95 761.65 137.1 761.55 137.2 761.45 137.35
L 760.75 138.05
Q 760.2 138.55 760.15 139.2 761.1 139.4 761.95 139.35 762.85 139.25 763.65 138.9 768.55 144.8 773.05 151.4 777.6 157.95 781.45 163.65 802.25 194.25 818.65 226.55 835.05 258.8 848.1 293.85
L 848.45 294.75
Q 852.35 305.25 855.6 315.35 858.8 325.45 861.1 335.75 862.6 342.4 863.65 349.25 864.75 356.1 865.35 363.4
L 865.4 363.8
Q 865.4 363.95 865.4 364.1 865.45 364.2 865.45 364.35 865.65 366.4 866.15 367.95 866.65 369.55 867.5 370.45 867.6 370.6 867.7 370.65 867.8 370.75 867.95 370.85 868.5 371.3 869.25 371.45 870 371.6 870.95 371.4 871.4 371.35 871.9 371.15 872.35 371 872.9 370.75 873.45 370.55 874 370.2 874.6 369.9 875.2 369.5 877.7 367.85 880.3 364.4 882.95 361 885.55 356.65 888.85 351 891.65 345.45 894.4 339.9 896.1 336.2 907.45 311.75 913.75 281.1 920.05 250.45 919.65 219.35 919.25 188.25 910.4 162.4 897.7 125.35 878.75 89.15 859.85 53 832.55 25.4
L 830.85 23.6
Q 829.3 21.95 827.1 20.3 825.45 19.1 823.8 18.65 822.15 18.15 820.9 19.05 820.3 19.6 819.95 20.15 Z"/>
</g>

<g id="Symbol_38_0_Layer0_0_FILL">
<path fill="#82bc00" stroke="none" d="
M 1014.75 275.85
Q 1000.7 265.35 978.7 264.45 965.05 264.3 954.95 269.2 944.9 274.05 937.95 281.55 930.95 289 926.65 296.7 922.3 305.1 918.55 323.15 914.85 341.25 912.45 357.55
L 909.7 377.1 913.4 380.25 923.7 383.7
Q 937.3 387.3 954 389.95 970.7 392.65 980.35 392.95 989.8 393 1004.8 390.4 1019.75 387.85 1032.65 383.7 1045.55 379.6 1048.75 375
L 1046.55 357.15
Q 1044.5 343.75 1041.25 328.3 1038.05 312.85 1034.4 302.15 1028.8 286.3 1014.75 275.85 Z"/>
</g>

<g id="Symbol_39_0_Layer0_0_FILL">
<path fill="#82bc00" stroke="none" d="
M 1051.9 298
Q 1043.95 305.65 1042.2 316.25 1040.45 326.85 1044.65 335.9 1048.9 344.9 1058.95 347.7 1063.6 345.65 1073.55 338.2 1083.5 330.75 1091.75 319.05
L 1090 317.5 1085.15 314.1
Q 1078.8 309.75 1069.65 304.9 1060.45 300.05 1051.9 298 Z"/>
</g>

<g id="Symbol_23_0_Layer0_0_FILL">
<path fill="#82bc00" stroke="none" d="
M 793 728.5
L 804.5 735.2
Q 815.8 741.55 835.15 750 854.5 758.4 879 765
L 889.25 742.3
Q 898.45 720.9 910.3 692.8 922.15 664.75 931.1 643.45
L 940.5 621 915.1 609.95 793 728.5 Z"/>
</g>

<g id="Symbol_49_0_Layer0_0_FILL">
<path fill="#82bc00" stroke="none" d="
M 1053.7 364.6
Q 1038.75 364 1010.1 364.3 981.5 364.6 953.35 365.25 925.25 365.95 911.8 366.55
L 912.55 376.1 916.65 395.85
Q 922.45 420.7 928.7 458.05 934.95 495.4 935.3 537.3 933.95 586.6 928.35 611.8 922.75 636.95 926.6 647.1 930.4 657.25 957.35 661.55 986.15 666.35 1016.6 642.9 1047.05 619.4 1072.55 570.25 1085.6 544.85 1092.45 506.25 1099.25 467.65 1091.65 428.95 1084 390.3 1053.7 364.6 Z"/>
</g>

<g id="Symbol_106_0_Layer0_0_FILL">
<path fill="#0075c9" stroke="none" d="
M 1010.6 309.3
L 1009.6 307.45 1008.25 305.8 1006.65 304.45 1004.75 303.45 1002.75 302.85 1000.6 302.65 998.5 302.85 996.5 303.45 994.6 304.45 993 305.8 991.65 307.45 990.65 309.3 990 311.35 989.8 313.45 990 315.55 990.65 317.6 991.65 319.45 993 321.1 994.6 322.45 996.5 323.45 998.5 324.05 1000.6 324.25 1002.75 324.05 1004.75 323.45 1006.65 322.45 1008.25 321.1 1009.6 319.45 1010.6 317.6 1011.25 315.55 1011.45 313.45 1011.25 311.35 1010.6 309.3 Z"/>
</g>

<g id="Symbol_42_0_Layer0_0_FILL">
<path fill="#82bc00" stroke="none" d="
M 1002.55 287.3
Q 993.7 287.75 989.4 294.25 985.1 300.8 984.25 308.95
L 1019.7 309.2 1018.65 303.5
Q 1017.5 298.2 1013.85 292.9 1010.15 287.65 1002.55 287.3 Z"/>
</g>

<g id="Symbol_111_0_Layer0_0_FILL">
<path fill="#0075c9" stroke="none" d="
M 1059.45 442.05
Q 1058.7 441.7 1057.75 441.3 1068.3 448.8 1077.25 456.6 1086.25 464.4 1093.8 472.7 1088.8 466.8 1083.25 461.15 1077.7 455.55 1071.95 450.8 1066.2 446.05 1060.65 442.7 1060.2 442.4 1059.45 442.05 Z"/>

<path fill="#FFFFFF" stroke="none" d="
M 969.4 447.6
Q 962.9 453.7 957.1 463.9 951.25 474.1 947.45 486.95 943.65 499.8 943.15 513.95 942.6 528.1 946.6 542.15 950.45 553.9 960.05 562.3 969.7 570.7 981.35 576.5 992.95 582.3 1002.7 586.2 1012.45 590.05 1016.45 592.75 1016.85 600.7 1015.25 613.6 1013.6 626.45 1011.2 641.35 1008.8 656.25 1006.95 670.15 1005.1 684.1 1005.1 694.1 1006.75 699.95 1014.05 706.85 1021.3 713.8 1031.5 719.5 1041.75 725.2 1052.3 727.45 1062.8 729.4 1073.1 728.55 1083.35 727.7 1091 725.3 1098.65 722.85 1101.25 720.05 1109.95 699.4 1117.35 676.4 1124.8 653.4 1130.05 630.55 1135.25 607.65 1137.3 587.35 1139.35 567.1 1137.2 551.85 1132.15 535.9 1125.85 522 1119.6 508.15 1111.7 495.9 1103.8 483.7 1093.8 472.7 1086.25 464.4 1077.25 456.6 1068.3 448.8 1057.75 441.3 1051.95 437.2 1045.7 433.15 1039.4 429.1 1032.55 425.05 1028.3 422.7 1020.5 423.6 1012.65 424.5 1003.3 427.9 993.9 431.3 984.9 436.4 975.95 441.5 969.4 447.6 Z"/>
</g>
</defs>



<g transform="matrix( -0.2017669677734375, -0.622222900390625, -0.6338348388671875, 0.209014892578125, 1413.05,1045.45) ">
<g transform="matrix( 1, 0, 0, 1, 0,0) ">
<use xlink:href="#Symbol_26_0_Layer0_0_FILL"/>
</g>
</g>

<g transform="matrix( -0.172515869140625, -0.4041290283203125, -0.7919158935546875, 0.220428466796875, 1536.1,871.7) ">
<g transform="matrix( 1, 0, 0, 1, 0,0) ">
<use xlink:href="#Symbol_27_0_Layer0_0_FILL"/>
</g>
</g>

<g transform="matrix( 0.2541351318359375, -0.6350555419921875, -0.661224365234375, -0.2180633544921875, 967.35,1219.7) ">
<g transform="matrix( 1, 0, 0, 1, 0,0) ">
<use xlink:href="#Symbol_75_0_Layer0_0_FILL"/>
</g>
</g>

<g transform="matrix( -0.6152496337890625, -0.0061187744140625, 0.0061187744140625, 0.6668548583984375, 1447.45,267.6) ">
<g transform="matrix( 1, 0, 0, 1, 0,0) ">
<use xlink:href="#Symbol_74_0_Layer0_0_FILL"/>
</g>
</g>

<g transform="matrix( -0.5911865234375, 0.1704864501953125, 0.1970062255859375, 0.637115478515625, 1243.4,123.55) ">
<g transform="matrix( 1, 0, 0, 1, 0,0) ">
<use xlink:href="#Symbol_25_0_Layer0_0_FILL"/>
</g>
</g>

<g transform="matrix( 0.5692138671875, 0.348785400390625, -0.348785400390625, 0.5692138671875, 497.05,18.95) ">
<g transform="matrix( 1, 0, 0, 1, 0,0) ">
<use xlink:href="#Symbol_31_0_Layer0_0_FILL"/>
</g>
</g>

<g transform="matrix( -0.6653594970703125, -0.0543670654296875, -0.0543670654296875, 0.6653594970703125, 1531.15,343.45) ">
<g transform="matrix( 1, 0, 0, 1, 0,0) ">
<use xlink:href="#Symbol_108_0_Layer0_0_FILL"/>
</g>
</g>

<g transform="matrix( -0.6278533935546875, -0.198272705078125, -0.1780548095703125, 0.6770782470703125, 1542.25,413.7) ">
<g transform="matrix( 1, 0, 0, 1, 0,0) ">
<use xlink:href="#Symbol_109_0_Layer0_0_FILL"/>
</g>
</g>

<g transform="matrix( 0.6325836181640625, -0.071258544921875, 0.0756683349609375, 0.61273193359375, 196.95,294.85) ">
<g transform="matrix( 1, 0, 0, 1, 0,0) ">
<use xlink:href="#Symbol_110_0_Layer0_0_FILL"/>
</g>
</g>

<g transform="matrix( -0.651824951171875, 0.1455230712890625, 0.1455230712890625, 0.651824951171875, 1386.15,137.7) ">
<g transform="matrix( 1, 0, 0, 1, 0,0) ">
<use xlink:href="#Symbol_82_0_Layer0_0_FILL"/>
</g>
</g>

<g transform="matrix( -0.651824951171875, 0.1455230712890625, 0.126251220703125, 0.56549072265625, 1445.4,148.9) ">
<g transform="matrix( 1, 0, 0, 1, 0,0) ">
<use xlink:href="#Symbol_28_0_Layer0_0_FILL"/>
</g>
</g>

<g transform="matrix( -0.6290435791015625, 0.22442626953125, 0.22442626953125, 0.6290435791015625, 1394.75,55.25) ">
<g transform="matrix( 1, 0, 0, 1, 0,0) ">
<use xlink:href="#Symbol_29_0_Layer0_0_FILL"/>
</g>
</g>

<g transform="matrix( -0.608123779296875, 0.0726776123046875, 0.0726776123046875, 0.608123779296875, 1372.75,215.85) ">
<g transform="matrix( 1, 0, 0, 1, 0,0) ">
<use xlink:href="#Symbol_83_0_Layer0_0_FILL"/>
</g>
</g>

<g transform="matrix( -0.1092987060546875, 0.0871429443359375, 0.0871429443359375, 0.1092987060546875, 894.3,189.4) ">
<g transform="matrix( 1, 0, 0, 1, 0,0) ">
<use xlink:href="#Symbol_46_0_Layer0_0_FILL"/>
</g>
</g>

<g transform="matrix( -0.1157684326171875, -0.078369140625, -0.078369140625, 0.1157684326171875, 1018.6,340.6) ">
<g transform="matrix( 1, 0, 0, 1, 0,0) ">
<use xlink:href="#Symbol_64_0_Layer0_0_FILL"/>
</g>
</g>

<g transform="matrix( -0.0118408203125, 0.1224212646484375, 0.1224212646484375, 0.0118408203125, 843.95,231) ">
<g transform="matrix( 1, 0, 0, 1, 0,0) ">
<use xlink:href="#Symbol_48_0_Layer0_0_FILL"/>
</g>
</g>

<g transform="matrix( -0.136444091796875, 0.0304412841796875, 0.0304412841796875, 0.136444091796875, 960.85,242.85) ">
<g transform="matrix( 1, 0, 0, 1, 0,0) ">
<use xlink:href="#Symbol_38_0_Layer0_0_FILL"/>
</g>
</g>

<g transform="matrix( -0.1378021240234375, 0.02349853515625, 0.02349853515625, 0.1378021240234375, 968.25,250.25) ">
<g transform="matrix( 1, 0, 0, 1, 0,0) ">
<use xlink:href="#Symbol_39_0_Layer0_0_FILL"/>
</g>
</g>

<g transform="matrix( -0.0900421142578125, -0.1020050048828125, 0.103485107421875, -0.1358795166015625, 884.4,525.55) ">
<g transform="matrix( 1, 0, 0, 1, 0,0) ">
<use xlink:href="#Symbol_23_0_Layer0_0_FILL"/>
</g>
</g>

<g transform="matrix( -0.1082000732421875, 0.0885162353515625, 0.0885162353515625, 0.1082000732421875, 910.95,193.2) ">
<g transform="matrix( 1, 0, 0, 1, 0,0) ">
<use xlink:href="#Symbol_49_0_Layer0_0_FILL"/>
</g>
</g>

<g transform="matrix( -0.079132080078125, 0.115234375, 0.115234375, 0.079132080078125, 878.1,174.85) ">
<g transform="matrix( 1, 0, 0, 1, 0,0) ">
<use xlink:href="#Symbol_106_0_Layer0_0_FILL"/>
</g>
</g>

<g transform="matrix( -0.1076812744140625, 0.089141845703125, 0.089141845703125, 0.1076812744140625, 914.8,192.4) ">
<g transform="matrix( 1, 0, 0, 1, 0,0) ">
<use xlink:href="#Symbol_42_0_Layer0_0_FILL"/>
</g>
</g>

<g transform="matrix( 0.6090087890625, -0.332275390625, 0.309967041015625, 0.5783538818359375, 178.6,634.35) ">
<g transform="matrix( 1, 0, 0, 1, 0,0) ">
<use xlink:href="#Symbol_111_0_Layer0_0_FILL"/>
</g>
</g>
</svg>
