
<svg xmlns="http://www.w3.org/2000/svg" version="1.1" xmlns:xlink="http://www.w3.org/1999/xlink" preserveAspectRatio="none" x="0px" y="0px" width="760px" height="880px" viewBox="614 10 760 880">
<defs>


<g id="Symbol_21_0_Layer0_0_FILL">
<path fill="#FFFFFF" stroke="none" d="
M 1131.55 490.6
Q 1119.35 482.3 1104.25 480.6 1089.2 478.95 1074.95 482.65 1060.7 486.3 1051.1 494 1041.45 501.7 1040.2 512.05 1040.65 525.3 1035.25 546.9 1029.8 568.5 1022.45 594.8 1015.15 621.15 1010 648.75 1004.85 676.35 1006 701.65 1012.75 715.85 1021 724.05 1029.3 732.25 1039 735.7 1048.7 739.15 1059.75 739.05 1070.95 738.95 1081.25 734.4 1091.55 729.9 1099.25 721.95 1106.95 714.05 1110.35 703.85
L 1120.95 665.15
Q 1128.6 635.25 1135.45 598.15 1142.3 561 1142.7 530.65 1143.15 500.25 1131.55 490.6 Z"/>
</g>

<g id="Symbol_10_0_Layer0_0_FILL">
<path fill="#0075c9" stroke="none" d="
M 1005.65 543.5
L 1001.25 543.5 1001.25 545.8
Q 999.95 544.35 998.5 543.65 997.05 542.95 995.4 542.95 993.5 542.95 991.9 543.7 990.3 544.45 989.05 545.9 987.8 547.35 987.15 549.2 986.55 551.05 986.55 553.25 986.55 555.5 987.15 557.35 987.8 559.2 989.05 560.7 990.35 562.2 991.95 562.9 993.55 563.65 995.5 563.65 997.05 563.65 998.5 563 999.95 562.35 1001.25 561.05
L 1001.25 563.1 1005.65 563.1 1005.65 543.5
M 1001.55 553.35
Q 1001.55 554.7 1001.15 555.85 1000.8 557 1000.05 557.9 999.3 558.75 998.35 559.15 997.35 559.6 996.15 559.6 995.05 559.6 994.1 559.15 993.15 558.7 992.4 557.8 991.7 556.95 991.35 555.8 990.95 554.65 990.95 553.25 990.95 551.9 991.35 550.8 991.7 549.7 992.45 548.8 993.2 547.95 994.15 547.5 995.1 547.05 996.2 547.05 997.4 547.05 998.35 547.5 999.3 547.9 1000.05 548.8 1000.8 549.7 1001.15 550.8 1001.55 551.95 1001.55 553.35
M 980.35 543.45
Q 979.9 543.7 979.35 544.15 978.85 544.6 978.25 545.25
L 978.25 543.5 973.9 543.5 973.9 563.1 978.25 563.1 978.25 552.95
Q 978.25 550.15 979.1 548.75 980 547.35 981.8 547.35 982.35 547.35 982.95 547.6 983.6 547.8 984.2 548.25
L 986.2 544.15
Q 985.25 543.55 984.35 543.25 983.45 542.95 982.6 542.95 981.95 542.95 981.4 543.1 980.85 543.2 980.35 543.45
M 1016.6 543.45
Q 1016.15 543.7 1015.65 544.15 1015.1 544.65 1014.45 545.3
L 1014.45 543.5 1010.15 543.5 1010.15 563.1 1014.45 563.1 1014.45 553
Q 1014.45 551.45 1014.7 550.3 1014.9 549.2 1015.3 548.45 1015.75 547.75 1016.4 547.4 1017.05 547.05 1018 547.05 1019.45 547.05 1020.15 548.35 1020.9 549.65 1020.9 552.25
L 1020.9 563.1 1025.25 563.1 1025.25 553
Q 1025.25 551.4 1025.45 550.3 1025.65 549.15 1026.05 548.45 1026.45 547.75 1027.1 547.4 1027.75 547.05 1028.65 547.05 1029.45 547.05 1030 547.35 1030.55 547.65 1030.9 548.25 1031.25 548.8 1031.4 549.8 1031.55 550.8 1031.55 552.2
L 1031.55 563.1 1035.9 563.1 1035.9 551
Q 1035.9 546.95 1034.35 544.95 1032.75 542.95 1029.55 542.95 1027.8 542.95 1026.45 543.7 1025.05 544.4 1024.05 545.85 1023.1 544.4 1021.85 543.7 1020.6 542.95 1019 542.95 1018.3 542.95 1017.7 543.1 1017.1 543.2 1016.6 543.45
M 920.15 543.5
Q 918.9 542.95 917.25 542.95 915.8 542.95 914.55 543.55 913.25 544.15 912.1 545.3
L 912.1 543.5 907.75 543.5 907.75 563.1 912.1 563.1 912.1 553.65
Q 912.1 551.8 912.35 550.55 912.55 549.25 913 548.55 913.45 547.8 914.25 547.4 915 547.05 916.05 547.05 917.05 547.05 917.75 547.35 918.45 547.6 918.8 548.15 919.2 548.7 919.4 549.7 919.6 550.7 919.6 552.15
L 919.6 563.1 923.95 563.1 923.95 551.1
Q 923.95 549 923.55 547.5 923.15 546.05 922.35 545.1 921.45 544.05 920.15 543.5
M 903.25 543.5
L 898.9 543.5 898.9 563.1 903.25 563.1 903.25 543.5
M 900 538.1
Q 900.5 538.35 901.1 538.35 901.65 538.35 902.15 538.1 902.65 537.9 903.05 537.45 903.5 537.05 903.7 536.5 903.9 536 903.9 535.4 903.9 534.75 903.7 534.25 903.5 533.75 903.05 533.3 902.65 532.9 902.15 532.65 901.65 532.45 901.05 532.45 900.5 532.45 900 532.65 899.5 532.9 899.05 533.3 898.65 533.75 898.45 534.25 898.25 534.75 898.25 535.35 898.25 536 898.45 536.5 898.65 537.05 899.05 537.45 899.5 537.9 900 538.1
M 941.45 543.7
Q 939.65 542.95 937.55 542.95 935.5 542.95 933.7 543.7 931.9 544.45 930.45 545.95 929 547.45 928.3 549.25 927.55 551.05 927.55 553.15 927.55 555.4 928.25 557.3 929 559.15 930.4 560.65 931.85 562.15 933.6 562.9 935.4 563.65 937.5 563.65 939.6 563.65 941.4 562.9 943.25 562.15 944.7 560.7 946.15 559.2 946.9 557.35 947.6 555.5 947.6 553.3 947.6 551.15 946.9 549.3 946.15 547.45 944.7 545.95 943.25 544.45 941.45 543.7
M 943.15 553.35
Q 943.15 554.75 942.8 555.9 942.4 557.05 941.65 557.9 940.9 558.75 939.85 559.2 938.85 559.6 937.55 559.6 936.3 559.6 935.3 559.15 934.25 558.75 933.5 557.9 932.75 557 932.35 555.85 932 554.7 932 553.25 932 551.85 932.4 550.75 932.75 549.65 933.55 548.8 934.3 547.9 935.3 547.45 936.35 547.05 937.55 547.05 938.85 547.05 939.85 547.45 940.85 547.9 941.65 548.8 942.4 549.65 942.8 550.75 943.15 551.9 943.15 553.35
M 962.4 543.65
Q 960.9 542.95 959.15 542.95 957.1 542.95 955.5 543.75 953.85 544.55 952.6 546.15 951.45 547.65 950.9 549.45 950.3 551.3 950.3 553.4 950.3 555.6 950.95 557.45 951.55 559.3 952.8 560.75 954 562.2 955.6 562.9 957.15 563.65 959.1 563.65 960.8 563.65 962.25 562.95 963.75 562.25 965.05 560.9
L 965.05 563.65
Q 965.05 566.65 963.85 568.2 962.65 569.7 960.3 569.7 959 569.7 958 569.25 957 568.8 956.35 567.85 956.05 567.5 955.85 566.9 955.65 566.35 955.5 565.65
L 951.15 565.65
Q 951.35 567.55 952.05 569.05 952.8 570.55 954.05 571.65 955.25 572.7 956.8 573.25 958.35 573.8 960.25 573.8 962.5 573.8 964.25 573 966 572.25 967.25 570.75 967.95 569.95 968.4 569 968.85 568.05 969.05 566.95 969.15 566.55 969.2 566.05 969.25 565.6 969.3 565.05 969.35 564.55 969.35 563.95 969.4 563.3 969.4 562.6
L 969.4 543.5 965.05 543.5 965.05 545.7
Q 963.85 544.35 962.4 543.65
M 965.2 553.35
Q 965.2 554.7 964.9 555.8 964.55 556.85 963.9 557.75 963.15 558.65 962.2 559.15 961.2 559.6 959.95 559.6 958.7 559.6 957.75 559.15 956.75 558.7 956.05 557.75 955.4 556.9 955.1 555.8 954.75 554.7 954.75 553.35 954.75 552 955.1 550.9 955.4 549.8 956.05 548.95 956.75 548 957.75 547.5 958.7 547.05 959.95 547.05 961.1 547.05 962.05 547.5 963 547.9 963.75 548.8 964.5 549.65 964.85 550.8 965.2 551.9 965.2 553.35
M 887.65 542.95
Q 886.25 542.95 885 543.5 883.7 544.05 882.55 545.15
L 882.55 534 878.2 534 878.2 563.1 882.55 563.1 882.55 553.6
Q 882.55 551.8 882.8 550.55 883 549.25 883.45 548.5 883.9 547.8 884.7 547.4 885.55 547.05 886.65 547.05 887.55 547.05 888.2 547.3 888.85 547.55 889.25 548.1 889.65 548.65 889.85 549.5 890.05 550.35 890.05 551.5
L 890.05 563.1 894.4 563.1 894.4 551.1
Q 894.4 549.05 894 547.55 893.6 546.05 892.75 545.1 891.8 544.05 890.55 543.5 889.25 542.95 887.65 542.95
M 868.15 543.5
L 863.8 543.5 863.8 563.1 868.15 563.1 868.15 552.95
Q 868.15 550.15 869.05 548.75 869.95 547.35 871.7 547.35 872.3 547.35 872.9 547.6 873.5 547.8 874.15 548.25
L 876.1 544.15
Q 875.2 543.55 874.3 543.25 873.4 542.95 872.5 542.95 871.85 542.95 871.3 543.1 870.75 543.2 870.3 543.45 869.8 543.7 869.3 544.15 868.75 544.6 868.15 545.25
L 868.15 543.5 Z"/>
</g>

<g id="Layer0_2_FILL">
<path fill="#82bc00" stroke="none" d="
M 1642 344.95
Q 1644.9 341.8 1647.55 338.9 1650.15 335.95 1652.25 333.2 1654.1 331.45 1655.7 329.6 1657.35 327.75 1658.55 325.8
L 1658.7 325.5
Q 1658.8 325.35 1658.9 325.2 1659.35 311.15 1652.5 307.35 1645.7 303.55 1634.75 306.6 1623.8 309.65 1611.75 316.25 1610.9 316.7 1610.05 317.15 1609.2 317.65 1608.4 318.1 1602.95 320.45 1597.65 322.85 1592.4 325.25 1587.45 327.55 1554.9 342.6 1522.15 356.8 1489.35 370.95 1456.25 384.3 1440.5 389.75 1422.25 394.7 1403.95 399.6 1387.1 400.2 1370.3 400.8 1359 393.4
L 1357.15 391.1
Q 1355.45 389.05 1353.15 387.2 1350.8 385.4 1348.85 386 1347.6 389.75 1348.8 393.1 1350 396.5 1352.75 399.3 1352.35 399.75 1352.2 400.25 1352.1 400.7 1352.25 401.2 1350.8 400.8 1349.1 400.55 1347.45 400.3 1346.05 400.55 1345.15 402.45 1346.5 403.6 1347.9 404.7 1350.1 405.35 1348.45 405.2 1346.65 405.15 1344.85 405.1 1343.4 405.4 1342.45 405.85 1342.6 406.5 1342.8 407.1 1343.45 407.85
L 1343.6 408
Q 1343.4 408.35 1343.2 408.65 1343.05 408.95 1343.1 409.2 1343.4 410.4 1344.25 411.4 1345.15 412.4 1346.5 413.2
L 1346.45 413.6
Q 1346.8 417.1 1350.45 418.9 1354.1 420.7 1359.65 421.2 1353.9 423.25 1348.15 425.3 1342.45 427.35 1336.65 429.4 1324.3 433.7 1311.25 438 1298.2 442.35 1286.3 447.2 1286.05 447.35 1285.45 447.6 1284.9 447.9 1284.15 448.3 1281.7 448.45 1279.55 448.95 1277.4 449.5 1276.45 449.8
L 1274.8 450.3
Q 1273.55 450.7 1272 451.35 1272.1 450.95 1272.2 450.5
L 1272.35 449.7
Q 1270.35 450.85 1268.45 452.05 1266.55 453.25 1264.75 454.5
L 1264.3 454.85
Q 1264.05 455 1263.8 455.2 1261.95 456.5 1260.3 457.8 1258.6 459.15 1257.1 460.5 1255.4 465.4 1253.95 471.05 1252.5 476.7 1251 480.9 1245.9 495.4 1246.35 514.65 1246.75 533.9 1250.5 553.2 1254.3 572.5 1259.3 587.05 1260.4 590.15 1261.8 592.3 1263.2 594.4 1264.8 595.7 1264.85 596.95 1266.3 598 1267.75 599.05 1271.3 599.65 1286.35 602.2 1301.1 602.05 1315.8 601.9 1331 599.5 1341.9 597.95 1354.05 596.65 1366.2 595.3 1376.3 592.8
L 1377.4 592.45
Q 1378.25 592.1 1379.55 591.55 1388.25 590.1 1396.9 587.8 1405.5 585.5 1413.85 582.3 1422.95 579.45 1431.1 575.4 1439.25 571.4 1446.05 566 1455.8 560.05 1463.8 552.2 1471.75 544.4 1476.75 535.2
L 1479.1 529.95
Q 1481.25 524.95 1483.05 518.45 1484.8 512 1483.85 507.25 1490.5 504.1 1496.7 500.7 1502.9 497.25 1508.55 493.55 1515.5 489.2 1521.6 484.45 1527.75 479.65 1532.9 474.35 1534.95 472.35 1539.3 466.3 1543.6 460.25 1546.3 452.7 1549 445.15 1546.15 438.65 1546 438.3 1545.8 437.9 1545.6 437.5 1545.35 437.15 1553.1 434.2 1560.6 430.55 1568.1 426.95 1575.2 422.75 1578.35 421.15 1581.05 419.7 1583.7 418.25 1585.9 416.95 1592.9 413 1604.75 404 1616.6 394.95 1624.35 384.1 1632.15 373.3 1626.9 364 1626.7 363.65 1626.45 363.35 1626.25 363.05 1626 362.8 1625.95 361.85 1625.7 360.95 1625.45 360.1 1625.05 359.35 1629.85 356 1634.15 352.4 1638.4 348.8 1642 344.95
M 1275.8 582.05
L 1275.15 581.95 1275.1 581.8
Q 1275.25 581.85 1275.45 581.9
L 1275.8 582.05
M 1284.2 616.55
Q 1282.25 615.4 1280.45 616.5 1278.8 619.25 1281.75 620.7 1284.75 622.15 1286.45 619.75 1286.15 617.65 1284.2 616.55 Z"/>
</g>

<g id="Symbol_22_0_Layer0_0_FILL">
<path fill="#82bc00" stroke="none" d="
M 805.2 277
Q 799.2 272.4 792.8 268 780.5 259.35 762.5 248.05 744.45 236.75 724.85 227.3 705.25 217.9 688.25 214.9 681.2 213 673.75 212.85 666.3 212.7 659.65 214.4
L 658.1 214.85
Q 656.85 215.25 655.8 215.7 655.45 215.9 655.05 216.05
L 654.5 216.25
Q 648.35 219.65 647.35 224.9 646.35 230.15 648.5 235.85 650.6 241.6 653.95 246.4 647.55 243.75 641.4 241.85 635.3 240 629.95 239.2 619.2 235.1 608.9 233.75 598.65 232.35 591.95 236.65 585.25 240.9 585.3 253.75
L 585.3 254.65
Q 585.35 255.4 585.6 256 585.5 258.85 586.7 261.75 587.95 264.65 589.5 266.95 594.6 270.25 599.7 273.65 604.8 277 609.9 280.45 624.8 290.45 639.65 300.95 654.5 311.45 669.25 322.4 726.45 364.95 781.75 415.1 837.1 465.2 889.6 523.25 902.45 537.55 915.15 552.3 927.8 567.05 940.25 582.3 941.5 583.8 942.7 585.3
L 945.2 588.35
Q 945.35 588.1 945.5 587.85 945.65 587.6 945.8 587.4 945.95 587.1 946.1 586.85 946.25 586.6 946.45 586.35 946.6 586.05 946.8 585.75
L 947.2 585.15
Q 956.5 570.35 967.5 556.1 978.5 541.9 990.65 529.1 997.65 521.75 1004.9 515.1 1012.2 508.45 1019.65 502.7 1020.45 502.05 1021.25 501.45 1022.05 500.85 1022.85 500.25 1021.9 498.2 1021 496.15 1020.05 494.1 1019.1 492.05
L 1018.45 490.65
Q 1007.5 467.2 994.3 444.7 981.1 422.2 965.25 400 963.05 396.95 960.85 393.9 958.6 390.85 956.3 387.8 955.05 386.1 953.8 384.45 952.5 382.75 951.2 381.05 948.2 377.1 945.05 373 941.9 368.9 938.7 364.7 936.05 361.25 933.4 357.75 930.7 354.3 927.95 350.75
L 926.7 349.15
Q 926.05 348.35 925.45 347.55
L 925.3 347.35
Q 925.2 347.25 925.15 347.2
L 925.05 347 924.95 346.9
Q 918.9 339.2 912.6 331.6 906.35 324.05 899.85 316.85 896.95 313.6 894 310.45 891.05 307.3 888.05 304.3 884.2 300.4 880.3 296.8 876.4 293.2 872.45 289.9 867 285.3 860.85 281.35 854.75 277.35 848.15 274.5 844.35 272.85 840.4 271.75 836.45 270.65 832.45 270.15 831.05 270.75 829.7 271.5 828.35 272.25 827.05 273.15 823.35 275.7 820.7 278.95 818.05 282.15 816.8 286.4 811.15 281.6 805.2 277 Z"/>
</g>

<g id="Symbol_14_0_Layer0_0_FILL">
<path fill="#82bc00" stroke="none" d="
M 1037.75 310.3
Q 1009.25 300.8 986.6 302.35 963.9 303.9 957.85 315.55 952.7 327.45 948.8 344.7 944.85 362 941.6 380.45 938.35 398.9 935.2 414.45 934.25 425.55 959.65 428.65 985.05 431.8 1019.6 430.35 1054.15 428.9 1080.75 426.35
L 1108.75 423.5 1103.9 402.35
Q 1099.35 382.75 1094.8 363
L 1089.75 341.35
Q 1066.25 319.8 1037.75 310.3 Z"/>
</g>

<g id="Symbol_15_0_Layer0_0_FILL">
<path fill="#82bc00" stroke="none" d="
M 1012.35 269.55
Q 997.1 271.3 987.9 276.75 978.7 282.25 974.4 287.2 970.05 291.85 964.65 301 959.25 310.15 954.8 320.5 950.35 330.85 948.9 338.95 948 346.8 957.15 356.25 966.25 365.75 981.25 373.2 996.2 380.65 1012.8 382.4 1029.5 383.65 1046.8 379.85 1064.15 376 1077 369.5 1089.85 363 1093.1 356.25 1093 348.8 1088.15 331 1083.35 313.25 1073.85 296.25 1064.3 279.25 1050.15 274.15 1027.6 267.85 1012.35 269.55 Z"/>
</g>

<g id="Symbol_16_0_Layer0_0_FILL">
<path fill="#82bc00" stroke="none" d="
M 1106.5 326.35
Q 1113.75 318.9 1118.6 311
L 1115.05 308.9 1104.95 304.7
Q 1091.55 299.45 1068.2 297.6
L 1071.15 308.1
Q 1074.2 317.9 1077.85 329.4 1081.5 340.9 1083.4 346.7 1086.05 344.75 1092.65 339.3 1099.2 333.8 1106.5 326.35 Z"/>
</g>

<g id="Symbol_23_0_Layer0_0_FILL">
<path fill="#82bc00" stroke="none" d="
M 793 728.5
L 804.5 735.2
Q 815.8 741.55 835.15 750 854.5 758.4 879 765
L 889.25 742.3
Q 898.45 720.9 910.3 692.8 922.15 664.75 931.1 643.45
L 940.5 621 915.1 609.95 793 728.5 Z"/>
</g>

<g id="Symbol_24_0_Layer0_0_FILL">
<path fill="#0075c9" stroke="none" d="
M 1211.3 293.2
Q 1208.75 293.35 1209.55 295 1210.3 296.65 1212.2 298.5 1214.05 300.3 1214.85 300.9 1217.8 303.2 1221.05 305.2 1224.35 307.2 1227.35 309.6
L 1227.75 309.9
Q 1227.95 310.1 1228.15 310.25
L 1227.95 310.25
Q 1224.75 310.35 1225.85 311.95 1227 313.55 1229.45 315.3
L 1232.85 317.65
Q 1236.2 320 1239.6 323.05 1243 326.15 1245.8 329.1 1254.85 338.4 1259.55 350.55 1264.2 362.65 1260.85 375.55 1259.1 381.6 1256.55 386.7 1254 391.75 1250.5 396.85 1250.05 397.5 1249.45 398.7 1248.8 399.85 1248.9 400.75 1248.5 401.5 1248.35 402.5 1248.2 403.5 1248.4 404.75 1248.9 407.9 1249.3 410.7 1249.7 413.55 1249.65 416.85 1249.5 419.4 1249.2 421.9 1248.85 424.4 1248.9 426.9 1243.25 424.55 1237.9 421.85 1232.6 419.15 1227.2 416 1226.55 415.65 1224.9 414.85 1223.25 414.05 1221.55 413.55 1225.3 408 1228.5 402.2 1231.75 396.35 1234.2 390.35
L 1235.1 387.3
Q 1235.7 384.95 1235.55 383.35 1235.35 381.7 1233.3 383.05 1224.85 404.6 1203.35 428.2 1181.85 451.85 1146.1 478.15 1141.45 481.85 1136.95 485.7 1132.45 489.6 1128.15 493.7 1126.9 494.95 1127 495.95 1127.05 496.95 1129.15 496.25
L 1129.7 495.7
Q 1130.15 495.25 1130.65 495.15
L 1133.55 493.5
Q 1154.65 481.3 1174.8 464.45 1194.95 447.55 1210.15 428.95 1212.7 425.8 1215.15 422.55 1217.6 419.3 1219.95 415.9 1220 416 1220.1 416.1 1220.15 416.2 1220.25 416.3 1223.65 420.55 1229.95 424 1236.25 427.4 1241.4 429.55 1243 430.25 1245.35 431.05 1247.7 431.85 1250.05 432.3 1250.75 433.45 1251.65 433.55 1252.6 433.7 1253.45 433.1 1253.65 433 1253.85 432.75 1254.05 432.55 1254.15 432.3
L 1254.3 432.25
Q 1254.45 432.25 1254.7 432.15 1254.95 432.1 1255.05 431.85 1255.75 430.85 1255.75 430.35 1255.75 429.8 1254.95 429.4 1256.1 422.85 1256.35 415.75 1256.65 408.65 1254.55 402.45 1254.3 401.7 1253.95 401.1 1253.6 400.55 1253.2 400.15 1253.5 399.9 1253.85 399.6
L 1254.3 399.2
Q 1260.9 392.85 1265.05 382.5 1269.15 372.1 1268.5 362.85 1267.55 352.6 1264.05 344.35 1260.55 336.1 1254.25 328.4 1252.65 325.8 1250.7 323.35 1248.8 320.9 1246.55 318.5 1241.3 312.7 1236.05 307.75 1230.85 302.85 1224.1 298.5 1221.1 296.5 1218.05 294.9 1215 293.25 1211.3 293.2 Z"/>

<path fill="#82bc00" stroke="none" d="
M 1102.1 325.75
Q 1078.05 338.15 1051.25 357 1024.45 375.85 1007.75 399.7 987.85 430.5 973.2 468.2 958.55 505.9 949 543.65 939.45 581.35 934.85 612.2 930.2 643.1 930.35 660.25
L 931.05 680.6 932.95 691.65
Q 935.45 698.1 941.8 690.2 948.2 682.3 959.95 664.05 969.8 648.75 990.35 620.2 1010.85 591.65 1037.9 561.85 1064.9 532.05 1094.25 513 1108.75 504 1121.7 495.25 1134.65 486.55 1146.1 478.15 1181.85 451.85 1203.35 428.2 1224.85 404.6 1233.3 383.05 1235.55 377.35 1236.95 371.8 1238.35 366.2 1238.95 360.75 1240.95 334.8 1227.75 321.85 1214.5 308.85 1194.85 305.15 1175.15 301.45 1157.85 303.3 1140.55 305.15 1134.4 308.75
L 1102.1 325.75 Z"/>
</g>

<g id="Symbol_19_0_Layer0_0_FILL">
<path fill="#0075c9" stroke="none" d="
M 1035.4 302.25
L 1033.5 301.25 1031.5 300.65 1029.35 300.45 1027.25 300.65 1025.25 301.25 1023.35 302.25 1021.75 303.6 1020.4 305.25 1019.4 307.1 1018.75 309.15 1018.55 311.25 1018.75 313.35 1019.4 315.4 1020.4 317.25 1021.75 318.9 1023.35 320.25 1025.25 321.25 1027.25 321.85 1029.35 322.05 1031.5 321.85 1033.5 321.25 1035.4 320.25 1037 318.9 1038.35 317.25 1039.35 315.4 1040 313.35 1040.2 311.25 1040 309.15 1039.35 307.1 1038.35 305.25 1037 303.6 1035.4 302.25 Z"/>
</g>

<g id="Symbol_20_0_Layer0_0_FILL">
<path fill="#82bc00" stroke="none" d="
M 1040.4 290.7
Q 1036.7 285.45 1029.15 285.1 1020.3 285.55 1015.95 292.1 1011.65 298.6 1010.8 306.75
L 1046.25 307 1045.2 301.3
Q 1044.1 296 1040.4 290.7 Z"/>
</g>

<g id="Layer0_11_FILL">
<path fill="#FFFFFF" stroke="none" d="
M 932.25 673.65
Q 912.75 660.4 898.3 658.15 899 678.45 889.65 717 880.3 755.55 867.4 797.05 854.55 838.55 844.65 867.6
L 834.3 898
Q 840.25 902.15 855.25 905.05 870.3 907.95 889.05 908.7 907.8 909.4 924.95 907.05 942.1 904.65 952.25 898.3 965.7 889.25 980.9 873 996.05 856.8 1011 836.75 1025.9 816.7 1038.55 796.2 1051.15 775.7 1059.35 758.1 1039.85 752.1 1017.85 737.05 995.8 721.95 973.75 704.4 951.75 686.9 932.25 673.65 Z"/>
</g>

<g id="Symbol_25_0_Layer0_0_FILL">
<path fill="#0075c9" stroke="none" d="
M 943.35 838.65
Q 942.15 836.05 941.4 832.95 940.6 829.9 939.6 827.1
L 939.2 826.4 938.9 826.25
Q 938.6 826.4 938.45 827.1 938.3 827.8 938.3 828.5 938.5 831.6 939.5 835.45 940.5 839.25 942.25 842.4 943.95 845.55 946.3 846.7 950.3 848.25 953.15 845.6 956 842.95 957.6 838.15 959.2 833.4 959.35 828.65 959.35 827.95 959.35 826.95 959.3 825.95 959.1 825.15 958.85 824.4 958.4 824.45 958.25 824.75 958.1 825.1
L 957.95 825.6
Q 957.35 827.6 957.1 829.8 956.8 831.95 956.3 834.1 955.15 838.55 953 841.25 950.85 843.95 948.25 843.6 945.7 843.25 943.35 838.65 Z"/>
</g>

<g id="Layer0_13_FILL">
<path fill="#FFFFFF" stroke="none" d="
M 675.7 772.7
Q 674.2 772.7 673.1 773.3 671.95 773.9 671.65 775.6 671.4 777.75 672.9 778.95 674.4 780.2 676.6 780.8 678.75 781.45 680.45 781.85
L 681.45 782.15
Q 682.25 782.35 682.95 782.5 683.35 782.6 683.8 782.7
L 684.4 782.85
Q 696.45 785.35 709.15 785 721.85 784.65 734.35 782.05 746.85 779.5 758.3 775.4 769.4 771.45 779.6 764.85 789.75 758.25 798.35 749.6 806.9 741 813.1 731.05 813.45 730.6 814.05 729.55 814.7 728.5 814.8 728.05 814.75 727.65 813.9 726.85 813.1 726.1 812.7 725.7 808.9 722.25 804.9 719 800.9 715.75 796.85 712.6
L 796.55 712.3 795.95 711.85
Q 795.15 711.25 794.55 710.75 794.3 711.15 794 711.65
L 793.6 712.25
Q 788.95 720.1 783.8 726.8 778.6 733.55 771.95 739.8 764.2 747.15 755.35 753.25 746.45 759.4 736.45 763.2 722.5 768.4 707.9 770.65 693.3 772.9 678.45 772.7 677.15 772.65 675.7 772.7 Z"/>
</g>

<g id="Symbol_26_0_Layer0_0_FILL">
<path fill="#FFFFFF" stroke="none" d="
M 711.25 715
L 688.95 718.35 681.75 718.6 677.15 717.9
Q 689.9 726.75 697.6 733.7 705.3 740.6 710.35 748.5 715.4 756.35 720.1 768.05 724.8 779.7 731.55 798.05 736.85 812.4 742.95 831.5 749 850.6 754.45 868.95 759.85 887.3 763.35 899.5
L 766.95 912.15
Q 772.85 918.8 788.2 920.2 803.5 921.55 821.95 918.85 840.35 916.1 855.5 910.4 870.7 904.7 876.25 897.2
L 876.5 885.9
Q 876.7 874.95 876.6 857.1 876.5 839.2 875.6 818.05 875.1 806.85 874.25 795.45 873.4 784.1 872.1 773.15 870.55 759.6 868.25 747.6 865.9 735.65 862.7 726.25 858.95 706.7 832.85 703.3 806.8 699.95 772.8 704.85 738.75 709.75 711.25 715 Z"/>

<path fill="#0075c9" stroke="none" d="
M 873.6 772.65
Q 873 773 872.1 773.15 873.4 784.1 874.25 795.45 875.1 806.85 875.6 818.05 875.6 817.55 875.65 817.2 875.65 816.8 875.65 816.6 876.05 809.7 876.2 802.05 876.4 794.35 876 786.6 875.6 778.85 874.4 771.8 874.15 772.3 873.6 772.65 Z"/>
</g>

<g id="Symbol_27_0_Layer0_0_FILL">
<path fill="#0075c9" stroke="none" d="
M 943.65 840.8
Q 942.6 838.75 942.2 837.35 941.45 834.6 941.05 831.85 940.7 829.05 940.15 826.35
L 939.65 824.85 939.1 824.45
Q 938.5 824.55 938.05 825.8 937.65 827 937.65 828.25 937.8 831.4 938.75 835.75 939.7 840.1 941.85 843.7 943.95 847.3 947.65 848.15 951.1 848.6 953.45 845.55 955.8 842.55 957.1 838.5 958.4 834.45 958.75 831.75 958.9 830.75 958.95 828.85 959 826.95 958.7 825.25 958.4 823.5 957.45 822.95
L 957.25 822.9
Q 957.1 822.9 957.05 822.95 956.7 823.3 956.6 823.8
L 956.45 824.5
Q 956.2 826.4 956.15 828.4 956.15 830.4 955.8 832.35 955.5 834.05 954.65 836.85 953.8 839.65 952.5 842.15 951.2 844.6 949.5 845.25 947.75 845.7 946.2 844.3 944.7 842.85 943.65 840.8 Z"/>
</g>

<g id="Layer0_16_FILL">
<path fill="#FFFFFF" stroke="none" d="
M 955.35 353.05
Q 892.9 360.95 843.3 393.85 793.65 426.75 762.05 476.6 730.45 526.4 722.1 585.05 713.75 643.7 733.85 703 735.8 708.6 738.25 713.6 740.7 718.6 743.6 723.05 750.9 733.95 760.6 741.65 770.3 749.3 781.9 754.05 793.55 758.8 806.55 761.05 808.9 761.45 811.25 761.75 813.65 762.1 816.05 762.35 830.6 763.85 845.95 762.95 861.25 762 876.7 759.15 892.15 756.3 907 752 907.8 751.75 908.65 751.5 909.45 751.25 910.3 751
L 910.5 750.95
Q 913 750.2 915.4 749.4 917.85 748.6 920.25 747.8 940.95 740.8 958.1 732.35 975.3 723.9 986.95 715.4 998.6 706.9 1002.7 699.75 1005.7 694.3 1006.9 686.05 1008.1 677.75 1008.05 667.2 1008 656.7 1007.35 644.4 1006.85 635.5 1006.3 625.9 1005.75 616.35 1005.35 606.3 1004.35 585.2 1005.5 563.45 1006.65 541.7 1011.95 521.25 1017.25 500.85 1028.75 483.65 1040.25 466.4 1059.95 454.35
L 1062.05 451.65 1063.25 447.3 1063.65 441.3 1063.15 433.65
Q 1061.35 416.65 1050.2 396.45 1039.05 376.25 1015.95 362.85 992.9 349.5 955.35 353.05 Z"/>

<path fill="#0075c9" stroke="none" d="
M 1011.25 575.4
L 1011.3 574.85 1011.15 574.7
Q 1010.9 574.7 1010.4 574.95 1009.6 575.7 1009.05 576.8
L 1008.6 577.7 1008.4 578.3
Q 1007.4 581.35 1006.95 585.35 1006.5 589.35 1006.3 593.45 1006.1 597.6 1005.75 600.95 1005.65 602.3 1005.55 603.65 1005.4 605 1005.35 606.3 1005.75 616.35 1006.3 625.9 1006.85 635.5 1007.35 644.4 1008.25 653.45 1008.6 662.4 1008.95 671.4 1007.9 680.25 1008.15 688.35 1005.75 695.75 1003.3 703.15 998.9 709.75 998 712.7 996.75 715.7 995.5 718.7 993.85 721.7 996.25 718.7 998.6 715.65 1000.9 712.6 1003.2 709.45 1008.65 698.85 1010.95 688.25 1013.25 677.65 1013.1 666.2 1012.9 654.75 1010.95 641.5 1009.8 633.35 1009.05 624.4 1008.3 615.4 1008.25 606.35 1008.15 597.25 1009 588.9 1009.2 586.75 1009.15 584.6 1009.1 582.5 1009.3 580.45 1009.5 578.4 1010.45 576.4 1010.6 576.15 1010.9 575.9 1011.2 575.6 1011.25 575.4
M 743.6 723.05
Q 743.4 723.15 743.4 723.55 743.4 723.95 743.4 724.15 743.65 724.95 744.05 725.9
L 744.35 726.65 744.6 727.1
Q 749.25 735.75 757.9 742.95 766.55 750.15 776.85 755.25 787.2 760.4 796.85 762.9 796.9 763 796.9 763.15 796.95 763.25 797.05 763.4 797.1 763.55 797.3 763.7 797.55 763.9 797.8 764
L 798 763.8
Q 798.25 763.65 798.45 763.65 800.9 764.1 803.75 765.15 806.6 766.2 809.45 766.75 825.5 769.35 840.5 768.9 855.45 768.5 870.1 765.7 884.7 762.95 899.7 758.5 900.3 758.25 900.85 757.95 901.45 757.7 902.05 757.45 907 755.25 911.5 752.85 916 750.4 920.25 747.8 917.85 748.6 915.4 749.4 913 750.2 910.5 750.95
L 910.3 751
Q 909.45 751.25 908.65 751.5 907.8 751.75 907 752 892.15 756.3 876.7 759.15 861.25 762 845.95 762.95 830.6 763.85 816.05 762.35 814.65 762.3 813.2 762.2 811.8 762.1 810.4 762.05 809.45 761.8 808.5 761.55
L 806.55 761.05
Q 793.55 758.8 781.9 754.05 770.3 749.3 760.6 741.65 750.9 733.95 743.6 723.05 Z"/>
</g>

<g id="Layer0_17_FILL">
<path fill="#0075c9" stroke="none" d="
M 855.95 443.55
Q 854.5 441.9 853.1 440.2 856.1 445.9 859.3 450.9 862.5 455.9 866.2 460.6 869.85 465.3 874.25 470.15 888.6 486.1 905.85 500.85 923.1 515.6 942.4 527.35 961.65 539.1 982 545.95 991.7 549.05 1002.8 549.7 1013.95 550.35 1025.15 549.5 1036.35 548.65 1046.25 547.15 1049.5 546.6 1052.75 545.8 1055.95 544.95 1059.25 544.65 1059.7 544.65 1060.55 544.65 1061.45 544.6 1061.75 544.05 1061.15 543.25 1059.55 543 1057.95 542.75 1056.45 542.75
L 1054.7 542.8
Q 1044.05 543.1 1033.95 543.5 1023.8 543.9 1014 543.65 1004.15 543.45 994.4 541.85 989.45 541.4 984.4 540.55 979.35 539.75 974.2 538.55 961.2 535.55 943.05 524.05 924.9 512.55 903.35 493.1 881.85 473.65 858.8 446.95 857.35 445.25 855.95 443.55 Z"/>

<path fill="#FFFFFF" stroke="none" d="
M 998.95 274.55
Q 986.35 264.65 974 253.65 964.65 245.1 951.25 232.25 937.8 219.4 922.45 207.05 907.1 194.75 891.95 187.85 876.8 180.9 864 184.2 848.5 188.85 835.25 195.25 822.05 201.7 811.85 208.4 801.7 215.05 795.4 220.45
L 790.2 225.2 787.35 228.5
Q 781.1 240.1 779.95 259.25 778.8 278.45 780.45 298.3 782.05 318.15 784.15 331.8
L 786.4 346 791.3 353.95
Q 795.8 361.5 804.3 374.45 812.75 387.45 825.05 404.3 837.3 421.15 853.1 440.2 854.5 441.9 855.95 443.55 857.35 445.25 858.8 446.95 881.85 473.65 903.35 493.1 924.9 512.55 943.05 524.05 961.2 535.55 974.2 538.55 979.35 539.75 984.4 540.55 989.45 541.4 994.4 541.85 1017.45 543.85 1037.9 539.7 1058.35 535.6 1075.95 527.75 1093.6 519.9 1108.2 510.75 1122.85 501.55 1134.3 493.5 1151.35 481.75 1165.75 463.45 1180.15 445.1 1189.35 421.3 1198.6 397.45 1200.05 369.2 1201.1 343.7 1199.4 326.7 1197.75 309.7 1194.85 299.5 1191.95 289.3 1189.4 284.2
L 1186.1 277.45
Q 1185.05 274.65 1182.65 273.3 1180.25 271.95 1177.45 272.45 1174.7 273 1172.55 275.9 1171.25 278.05 1168.9 283.8 1166.55 289.5 1162.05 297.35 1157.6 305.15 1149.85 313.5 1142.15 321.85 1130.1 329.2 1120.8 334.6 1109.7 334.3 1098.6 334 1086.9 329.85 1075.15 325.65 1063.85 319.35 1052.55 313.1 1042.75 306.4 1034.25 300.7 1022.9 292.55 1011.55 284.4 998.95 274.55 Z"/>
</g>

<g id="Symbol_28_0_Layer0_0_FILL">
<path fill="#0075c9" stroke="none" d="
M 1017.45 346.15
Q 1018.85 343.35 1019.4 339.95 1019.9 336.55 1019.4 333.5 1018.95 330.45 1017.65 328.05 1016.3 325.6 1014.3 324.05 1012.3 322.55 1009.75 322.2 1007.25 321.9 1004.85 322.9 1002.45 323.85 1000.45 325.9 998.4 327.9 997 330.7 995.65 333.55 995.1 336.9 994.55 340.3 995.05 343.35 995.55 346.4 996.85 348.85 998.15 351.3 1000.15 352.8 1002.2 354.35 1004.7 354.65 1007.25 354.95 1009.65 354 1012 353 1014.05 351 1016.05 349 1017.45 346.15 Z"/>
</g>

<g id="Symbol_29_0_Layer0_0_FILL">
<path fill="#0075c9" stroke="none" d="
M 1030.1 321.85
Q 1021.85 320.25 1013.45 318.7 1005.05 317.2 997.2 315.9 996.25 316.35 996.65 317.05 997.05 317.75 998.8 318.2 1005.4 319.7 1012.25 320.7 1019.1 321.75 1025.8 322.95 1026.4 323.05 1027.6 323.05 1028.8 323.05 1029.65 322.8 1030.5 322.55 1030.1 321.85 Z"/>

<path fill="#FFFFFF" stroke="none" d="
M 1003.4 280.35
Q 996.4 283.45 991.75 289.2 987.1 295 984.25 301.55 981.4 308.05 979.7 313.45 983.55 313.9 988 314.5 992.4 315.15 997.2 315.9 1005.05 317.2 1013.45 318.7 1021.85 320.25 1030.1 321.85 1034 322.6 1037.8 323.35 1041.6 324.1 1045.15 324.8 1046.1 318.35 1045.95 311.15 1045.8 303.9 1043.5 297.2 1041.15 290.45 1035.6 285.55 1030.1 280.6 1020.3 278.8 1010.35 277.3 1003.4 280.35 Z"/>
</g>

<g id="Symbol_30_0_Layer0_0_FILL">
<path fill="#0075c9" stroke="none" d="
M 829.15 132.95
L 827.9 133
Q 818.8 134.15 809.85 139.5 800.9 144.8 793.1 152.1 785.3 159.4 779.75 166.3 775.65 171.4 773.2 176.3 770.8 181.15 769.2 186.3 767.95 189.45 766.95 192.9 765.95 196.4 765.2 200.1
L 764.75 201.5
Q 764.55 202.25 764.6 202.95 763.45 209.2 762.8 215.35 762.1 221.5 761.8 227 761.2 237.2 762.25 247.6 763.25 258 765.4 268.35 767.5 278.7 770.15 288.65
L 770.7 290.25
Q 771.15 291.45 771.8 292.8 770.45 297.35 769.5 301.4 768.6 305.4 768.1 309.55 767.6 313.65 767.45 318.45 767.35 319.6 767.2 320.8 767.05 322 767.2 323.15 767.2 323.3 767.25 323.7 767.3 324.1 767.65 324.3 768.5 325.7 770.15 327 771.8 328.3 773.35 329.3 774.9 330.3 775.6 330.7 778.5 332.65 782 332.8 785.55 333 789.25 332.1 789.45 331.5 789.7 331 789.95 330.5 790.35 330.1 790.4 330 790.5 329.9 790.6 329.8 790.65 329.7 789.05 330.05 787.45 330.2 785.85 330.4 784.35 330.45 783.4 330.5 782.4 330.35 781.4 330.2 780.45 329.95
L 780 330 779.45 329.6
Q 776.75 328.55 774.4 326.75 772.05 325 770.25 322.9
L 769.7 322.5 769.65 322.15
Q 769.55 322.05 769.45 321.95 769.35 321.8 769.2 321.7 769.3 321.25 769.35 320.8 769.45 320.4 769.45 320 769.25 317.25 770.05 311.05 770.8 304.85 773.65 294.85 773.85 294.3 774 293.7 774.2 293.1 774.4 292.5
L 774.25 291.6
Q 774.05 290.9 773.8 289.7 772.8 285.55 771.05 277.9 769.3 270.25 767.65 261.75 766.05 253.25 765.45 246.55 765.1 242.8 764.7 235.65 764.35 228.45 765.05 218.95 765.8 209.45 768.7 198.75 769.3 196.75 769.95 194.75 770.6 192.75 771.4 190.7 774.35 182.9 779.15 175.2 783.95 167.5 791 160.3 798.1 153.1 807.85 146.85 811.4 144.2 814.9 142.15 818.4 140.1 821.75 138.8 822.5 138.5 823.45 138.2 824.45 137.95 825.5 137.6 826.6 137.15 827.75 136.7 828.9 136.2 830.1 135.75 830.85 135.25 831.05 134.65 831.25 134 830.75 133.25 830.05 132.9 829.15 132.95
M 993.1 245.5
L 992.95 245.4
Q 992.8 245.5 992.65 245.6 992.45 245.7 992.3 245.8
L 992 246.05 993.1 245.5
M 988.5 220.1
Q 983.3 209.2 977.05 198.4 970.8 187.55 964.75 177 961.55 171.25 957.15 164.8 952.8 158.35 947.45 152.15 942.15 145.95 936.2 141 935.7 140 934.55 138.9 933.4 137.85 932.25 137 931.1 136.15 930.55 135.8 922.6 130.4 913.05 127.05 903.5 123.75 893.45 122.3 883.4 120.9 873.9 121.15
L 872.85 121.15
Q 872.05 121.15 871.45 121.4 871.05 121.35 870.55 121.45
L 869.95 121.5
Q 869.4 121.6 868.85 121.75 868.3 121.85 867.75 121.95
L 864.2 123.2
Q 861.45 124.25 859.8 125.55 858.1 126.85 860.5 127.8 875.15 125.8 887.15 127.05 899.15 128.35 908.65 131.8 918.15 135.3 925.25 139.8 925.9 140.05 926.55 140.35 927.2 140.6 927.85 140.85 928.25 141.3 928.7 141.75 929.1 142.2 929.55 142.65 935.4 146.9 939.35 150.8 943.3 154.75 945.45 157.5 948.55 161.35 954 169.65 959.5 177.95 965.8 187.95 972.1 197.9 977.65 206.9 983.2 215.9 986.4 221.15 987.7 223.2 988.35 224.35
L 989.05 225.45 1004.05 232.5 1004.25 232.75 1004.6 233.5
Q 1005.1 234.45 1005.4 236.05 1005.65 237.65 1005 239.55 1004.4 241 1002.7 242.3 1001.05 243.65 999.15 244.65 997.2 245.65 995.9 246.25 996.1 246.55 996.25 246.95 996.35 247.3 996.45 247.75 997.05 247.65 997.7 247.65 998.3 247.65 998.95 247.75 1002.15 246.4 1004.8 244.75 1007.45 243.1 1008.45 241.5 1011.25 236.2 1007.95 232.35 1004.6 228.45 999 225.95 993.35 223.45 989.3 222.15 989.15 221.7 988.95 221.15 988.75 220.65 988.5 220.1 Z"/>

<path fill="#0075c9" stroke="none" d="
M 975.7 245.95
L 991.5 244 993.45 242.6
Q 994.8 241.6 996.1 240.45 997.35 239.35 997.5 238.7
L 996.3 237.75 993.3 237.35 981.85 238.05
Q 966.75 239.8 940.1 246.75 913.45 253.75 878.1 267 862.3 273.05 846.55 280.55 830.85 288.05 817.3 295.85 803.8 303.65 794.55 310.6 785.25 317.55 782.4 322.5
L 782.35 322.55
Q 784.1 323.8 785.65 324.9 787.15 326.05 788.1 326.7
L 789.05 326.7 804 315.55
Q 816.15 306.95 837.25 295.35 858.35 283.7 888 272.05 920.05 259.9 941.75 253.9 963.45 247.9 975.7 245.95 Z"/>

<path fill="#FFFFFF" stroke="none" d="
M 986.4 221.15
Q 983.2 215.9 977.65 206.9 972.1 197.9 965.8 187.95 959.5 177.95 954 169.65 948.55 161.35 945.45 157.5 943.3 154.75 939.35 150.8 935.4 146.9 929.55 142.65 928.55 141.95 927.45 141.2 926.4 140.5 925.25 139.8 918.15 135.3 908.65 131.8 899.15 128.35 887.15 127.05 875.15 125.8 860.5 127.8 854.25 128.7 847.5 130.35 840.7 132.05 833.45 134.55 832.6 134.85 831.75 135.15 830.9 135.45 830.1 135.75 828.9 136.2 827.75 136.7 826.6 137.15 825.5 137.6 820.6 139.7 816.2 142 811.8 144.35 807.85 146.85 798.1 153.1 791 160.3 783.95 167.5 779.15 175.2 774.35 182.9 771.4 190.7 770.6 192.75 769.95 194.75 769.3 196.75 768.7 198.75 765.8 209.45 765.05 218.95 764.35 228.45 764.7 235.65 765.1 242.8 765.45 246.55 766.05 253.25 767.65 261.75 769.3 270.25 771.05 277.9 772.8 285.55 773.8 289.7 774.05 290.9 774.25 291.6
L 774.4 292.5
Q 774.2 293.1 774 293.7 773.85 294.3 773.65 294.85 770.8 304.85 770.05 311.05 769.25 317.25 769.45 320 769.5 320.85 769.55 321.4 769.6 321.95 769.65 322.15
L 769.7 322.5 770.25 322.9 779.45 329.6 780 330 780.45 329.95 789 328.7 790.8 326.7 789.05 326.7 788.1 326.7 786.6 326.7 785.2 326.35
Q 783.9 326 782.85 325.1 781.8 324.2 782.35 322.55
L 782.4 322.5
Q 785.25 317.55 794.55 310.6 803.8 303.65 817.3 295.85 830.85 288.05 846.55 280.55 862.3 273.05 878.1 267 913.45 253.75 940.1 246.75 966.75 239.8 981.85 238.05
L 993.3 237.35 996.3 237.75 997.5 238.7
Q 997.35 239.35 996.1 240.45 994.8 241.6 993.45 242.6
L 991.5 244 991.3 244.15 992.95 245.4 993.1 245.5 994.7 246.75 995 246.6
Q 995.35 246.5 995.9 246.25 997.2 245.65 999.15 244.65 1001.05 243.65 1002.7 242.3 1004.4 241 1005 239.55 1005.65 237.65 1005.4 236.05 1005.1 234.45 1004.6 233.5
L 1004.25 232.75 1004.05 232.5 989.05 225.45 988.35 224.35
Q 987.7 223.2 986.4 221.15 Z"/>
</g>

<g id="Layer0_21_FILL">
<path fill="#0075c9" stroke="none" d="
M 812.75 671.4
L 814.1 669.8
Q 813.75 670.15 813.45 670.55 813.1 670.95 812.75 671.4
M 895.1 590.45
Q 902.4 582.35 909.55 573.55 911.65 571.05 915 567.8 918.35 564.55 921.35 561.2 924.4 557.8 925.5 554.95 925.55 554.8 925.75 554.45 926 554.15 926 553.8 919.05 561.85 907.65 574.25 896.25 586.6 881.9 601.55 867.55 616.5 851.75 632.4 841.85 643.45 831.55 654.1 821.25 664.75 810.1 674.45
L 809.8 674.65 809.3 675.1
Q 808.65 675.6 808.45 676.25 809.8 676.8 811.6 675.95 813.45 675.1 814.9 674.05
L 816.55 672.8
Q 828.2 663.8 838.95 652.55 849.7 641.35 859.9 629.5 870.1 617.65 880.1 606.75 887.75 598.55 895.1 590.45 Z"/>

<path fill="#FFFFFF" stroke="none" d="
M 914.05 484
Q 909.85 479.15 902.05 473.85 894.25 468.5 884.85 464.1 875.4 459.65 866.3 457.5 857.2 455.35 850.4 456.9 833.75 466.3 810.45 491.1 787.15 515.9 764 545.2 740.85 574.45 724.7 597.3
L 712.05 615.75 706.35 625.5
Q 712.6 634.9 718.95 651.1 725.25 667.3 731 684.15 736.75 700.95 741.2 712.2
L 745.15 720.45 746.75 722.4 748.1 722.85
Q 755.2 719.55 766.4 710.85 777.6 702.2 791.6 689.75 805.6 677.3 820.95 662.55 836.35 647.8 851.75 632.4 867.55 616.5 881.9 601.55 896.25 586.6 907.65 574.25 919.05 561.85 926 553.8 929.4 549.85 931.4 547.25
L 933.95 543.6
Q 935.6 533.5 932.75 522.05 929.85 510.6 924.65 500.45 919.45 490.3 914.05 484 Z"/>
</g>

<g id="Symbol_31_0_Layer0_0_FILL">
<path fill="#FFFFFF" stroke="none" d="
M 698.35 280.75
Q 694.95 275.8 691.55 270.8 668.2 236.85 645.85 204.3 623.45 171.75 605.2 145.3 587 118.8 576.15 103.05
L 565 86.9 547.4 97.9 758 424.15
Q 758.35 425.7 759.2 427.2 760 428.65 760.7 429.65
L 761.45 430.75
Q 763 433.6 764.35 436.6 765.65 439.6 767.2 442.6 771.2 450.15 775.55 457.6 779.95 465 784.35 472.45 787.1 477.65 789.9 482.85 792.65 488.05 795.2 493.35 795.6 494.15 796 495 796.35 495.85 796.75 496.75 797.1 498.55 797.7 500.1
L 798.5 502.05
Q 811.05 537 823.2 572.1 835.4 607.15 848.1 642.05 848.5 643.05 849.1 643.6 849.65 644.15 850.25 644.2 852.4 646.5 855 648.7 857.55 650.95 859.3 652.9 860.1 653.9 861.95 655.75 863.8 657.6 865.65 658.2 867.5 658.8 868.3 656.15 868.35 656 868.35 655.85 868.4 655.7 868.35 655.55 870.35 654.35 872.2 652.95 874.05 651.55 874.9 650.9 879.85 647.3 884.3 643.2 888.75 639.1 893.3 635.1 897.85 631.05 902.95 627.8 905.4 626.1 907.45 623.7 909.5 621.3 912.1 619.3
L 914.95 617.25
Q 917.05 615.7 919.35 613.7 921.6 611.7 922.85 609.9
L 922.75 609.65
Q 922.7 609.55 922.6 609.45 922.55 609.35 922.5 609.25 922.1 608.5 921.7 607.75 921.3 607 920.9 606.25 920.2 604.85 919.5 603.35 918.85 601.9 918.2 600.4 916.15 597.35 914.3 594.75 912.4 592.2 911.6 591
L 907.65 585.1
Q 907.4 584.9 907.15 584.6 906.9 584.3 906.7 583.95 896 568.05 885.45 552.1 874.85 536.1 864.35 520.1 847.95 497.8 832.2 475.05 816.45 452.3 801.4 429.2 798.1 424.15 794.35 418.95 790.6 413.7 786.85 408.9 787.05 409.45 787.2 410 787.35 410.55 787.35 411 786.5 409.75 785.6 408.45
L 783.75 405.7
Q 776.85 395.45 767.5 381.75 758.15 368 746.95 351.65 735.75 335.3 723.35 317.15
L 714.35 304
Q 709.75 297.35 705.15 290.6 701.75 285.7 698.35 280.75
M 769.1 408.6
L 766.2 410.05 572.15 111.75 574.25 110.15 769.1 408.6
M 831.4 584.55
Q 830.85 583.05 830.35 581.55 829.8 580 829.3 578.5 824.9 565.8 820.5 553.35 816.15 540.9 812.2 529.9 808.25 518.85 805.15 510.45 804.95 510 804.8 509.55
L 804.5 508.7
Q 802.85 504.35 801.6 501.1 800.3 497.8 799.4 495.75 799.15 495.15 798.85 494.5 798.55 493.85 798.25 493.2 798.15 493.05 798.1 492.85 798 492.7 797.95 492.55 795.8 488.1 792.85 482.6 789.85 477.05 786.45 471.1 783 465.1 779.5 459.2 774.85 451.3 770.8 444.65 766.75 438.05 764.3 434.05
L 761.7 429.9
Q 762.5 428.8 763.3 427.7 764.1 426.6 764.9 425.55 766.7 423.25 769.1 421.1 771.5 418.9 775.1 416.8 778.7 414.7 784 412.65 784.45 412.45 784.95 412.3 785.45 412.1 785.95 411.9 786.25 411.8 786.6 411.7 786.9 411.55 787.25 411.45
L 787.55 411.35 808.4 442.05
Q 826.3 468.4 849.85 503.05 873.35 537.65 893.25 566.9
L 920.1 606.35
Q 921.1 607.85 921.6 608.6
L 922.1 609.4 865.25 657.3 865.1 657.15
Q 864.9 657 864.6 656.7 864.45 656.6 864.35 656.5 864.2 656.35 864.05 656.2 862.35 654.7 859.6 652.15 856.85 649.6 854.5 647.2
L 852.65 645.15 851.75 643.8
Q 851.75 643.7 851.7 643.6 851.65 643.45 851.6 643.35 849.7 637.85 846.65 628.8 843.55 619.8 839.65 608.45 835.75 597.1 831.4 584.55
M 917.9 609.7
L 918 609.6 909.3 597.9 856.95 643.55 865.65 653.65 917.9 609.7 Z"/>

<path fill="#0075c9" stroke="none" d="
M 830.35 581.55
Q 830.85 583.05 831.4 584.55 835.75 597.1 839.65 608.45 843.55 619.8 846.65 628.8 849.7 637.85 851.6 643.35 851.65 643.45 851.7 643.6 851.75 643.7 851.75 643.8
L 852.65 645.15 854.5 647.2
Q 856.85 649.6 859.6 652.15 862.35 654.7 864.05 656.2 864.2 656.35 864.35 656.5 864.45 656.6 864.6 656.7 864.9 657 865.1 657.15
L 865.25 657.3 922.1 609.4 921.6 608.6
Q 921.1 607.85 920.1 606.35
L 893.25 566.9
Q 873.35 537.65 849.85 503.05 826.3 468.4 808.4 442.05
L 787.55 411.35 787.25 411.45
Q 786.9 411.55 786.6 411.7 786.25 411.8 785.95 411.9 785.45 412.1 784.95 412.3 784.45 412.45 784 412.65 778.7 414.7 775.1 416.8 771.5 418.9 769.1 421.1 766.7 423.25 764.9 425.55 764.1 426.6 763.3 427.7 762.5 428.8 761.7 429.9
L 764.3 434.05
Q 766.75 438.05 770.8 444.65 774.85 451.3 779.5 459.2 783 465.1 786.45 471.1 789.85 477.05 792.85 482.6 795.8 488.1 797.95 492.55 798 492.7 798.1 492.85 798.15 493.05 798.25 493.2 798.55 493.85 798.85 494.5 799.15 495.15 799.4 495.75 800.3 497.8 801.6 501.1 802.85 504.35 804.5 508.7
L 804.8 509.55
Q 804.95 510 805.15 510.45 808.25 518.85 812.2 529.9 816.15 540.9 820.5 553.35 824.9 565.8 829.3 578.5 829.8 580 830.35 581.55
M 918 609.6
L 917.9 609.7 865.65 653.65 856.95 643.55 909.3 597.9 918 609.6
M 766.2 410.05
L 769.1 408.6 574.25 110.15 572.15 111.75 766.2 410.05 Z"/>

<path fill="#0075c9" stroke="none" d="
M 669.4 237.8
L 670.05 238.7
Q 675.1 246.55 680.7 254.15 686.3 261.75 691.1 270 691.2 270.2 691.3 270.4 691.45 270.6 691.55 270.8 694.95 275.8 698.35 280.75 701.75 285.7 705.15 290.6 708.15 294.6 711.05 298.65 714 302.65 716.65 306.75 718.3 309.35 720 311.95 721.65 314.55 723.35 317.15 735.75 335.3 746.95 351.65 758.15 368 767.5 381.75 776.85 395.45 783.75 405.7
L 785.6 408.45
Q 786.5 409.75 787.35 411 787.35 410.55 787.2 410 787.05 409.45 786.85 408.9 786.7 408.5 786.55 408.2 786.45 407.85 786.35 407.6 786.05 407.25 785.7 406.75
L 785.3 406.1
Q 779.1 396.65 772.7 387.35 766.3 378.05 760.35 368.4 751.25 353.6 741.85 338.95 732.45 324.3 722.55 309.95 714.3 298.1 705.95 286.4 697.55 274.75 689.75 262.6 685.35 255.8 680.35 249.35 675.35 242.85 670.6 236.2 670.35 235.75 669.8 235 669.25 234.3 668.4 234.35 668.1 235.05 668.5 236 668.9 237 669.4 237.8 Z"/>
</g>

<g id="Layer0_23_FILL">
<path fill="#0075c9" stroke="none" d="
M 827.2 565.35
Q 826.9 565.3 826.85 565.5 833.2 571.65 839 577.4 844.8 583.2 849.3 587.75 850.55 588.95 851.6 590.05 852.7 591.15 853.65 592.1 859.25 597.65 867.4 607.6 875.55 617.55 884.85 631.3 894.2 645 903.45 661.85 905.2 665 906.85 668.25 908.55 671.5 910.2 674.9 911.2 676.85 912.15 678.85 913.1 680.9 914.05 682.95 914.1 683.1 914.1 683.25 914.15 683.4 914.15 683.55
L 914.2 683.95
Q 914.25 684.1 914.3 684.2 914.35 684.35 914.4 684.5
L 914.35 684.95
Q 914.95 693.85 910.5 702.85 906.05 711.85 899.15 719.55 892.3 727.3 885.75 732.25 880.85 735.95 873.3 739.7 865.75 743.5 857 746.35 848.2 749.25 839.55 750.4 830.95 751.55 823.85 750 823.05 749.8 822.1 749.4 821.1 748.95 820 748.3 820.05 748.6 820.25 748.95 820.4 749.3 820.85 749.8 822.3 751.4 825.15 752.45 828.05 753.45 831.1 753.9 834.2 754.35 836.3 754.25
L 836.8 754.1
Q 837.25 754 837.6 754.05 838.25 754.1 838.95 754
L 839.85 753.85
Q 850.6 752.3 861 748.65 871.4 745 880.9 739.35 890.4 733.7 898.45 726.2 903.35 721.6 906.9 715.95 910.5 710.3 913 704.05 915.5 697.8 917.25 691.35 917.3 691.25 917.35 691.1 917.35 691 917.4 690.85 917.7 691.05 918 691 918.25 690.9 918.5 690.4
L 918.55 690.1
Q 918.55 689.9 918.55 689.65 918.45 689.35 918.35 689
L 918.3 688.5
Q 917.35 684.4 915.6 680.2 913.85 676.05 911.75 671.95 909.65 667.9 907.65 664.1 904.5 658.15 900.9 652.4 897.3 646.65 893.35 641.1 888.85 634.1 884 627.45 879.2 620.75 874.15 614.5 871.4 611.15 868.85 607.95 866.3 604.7 863.7 601.55 862.8 600.4 861.9 599.2 860.95 598.05 860.05 596.85 855.05 590.4 849.1 584.55 843.1 578.75 837.2 573 835.1 571 832.7 569.3 830.3 567.6 828 565.8 827.45 565.4 827.2 565.35
M 893.5 682.5
Q 896.95 682.1 901.3 681.9 901.6 681.9 902.2 681.8 902.85 681.7 903.2 681.3 902.7 680.95 901.9 680.85
L 901.25 680.75 900.8 680.75
Q 895.3 679.8 890.6 680.45 885.95 681.1 881.55 683 877.15 684.95 872.45 687.85 863.85 693.05 856.5 698.1 849.15 703.15 842.75 709.2 836.35 715.25 830.6 723.4 829.65 724.7 828 726.75 826.4 728.8 825.1 730.95 823.8 733.1 823.7 734.7
L 823.75 735.15
Q 823.85 735 824.1 734.7 824.35 734.25 824.75 733.8
L 825.05 733.45 825.2 733.2
Q 827.3 730.1 829.5 727.55 831.65 725.05 834.3 722.4 837.5 719.1 840.45 715.6 843.4 712.15 846.85 708.95 851.45 704.9 856.9 700.95 862.35 697 868.15 693.45 873.9 689.9 879.45 687 883.35 684.95 886.65 683.95 890 682.9 893.5 682.5 Z"/>

<path fill="#FFFFFF" stroke="none" d="
M 849.3 587.75
Q 844.8 583.2 839 577.4 833.2 571.65 826.85 565.5 820.05 558.95 813.5 553 806.95 547.05 801.55 542.75 796.15 538.5 792.8 537 782.4 532.25 773.9 530.55 765.35 528.85 757.35 531.6 749.35 534.3 740.5 542.9 731.65 551.55 720.55 567.45
L 719.3 570.15 717.85 574.85
Q 716.25 580.55 715.15 588.8 714.05 597 714.4 606.15 714.75 615.35 717.45 623.9 720.5 632.4 733.1 650.35 745.65 668.25 762.45 688.85 779.2 709.45 794.95 726 810.65 742.55 820 748.3 821.1 748.95 822.1 749.4 823.05 749.8 823.85 750 830.95 751.55 839.55 750.4 848.2 749.25 857 746.35 865.75 743.5 873.3 739.7 880.85 735.95 885.75 732.25 892.3 727.3 899.15 719.55 906.05 711.85 910.5 702.85 914.95 693.85 914.35 684.95 914.3 684.7 914.3 684.45 914.25 684.2 914.2 683.95
L 914.15 683.55
Q 914.15 683.4 914.1 683.25 914.1 683.1 914.05 682.95 913.1 680.9 912.15 678.85 911.2 676.85 910.2 674.9 908.55 671.5 906.85 668.25 905.2 665 903.45 661.85 894.2 645 884.85 631.3 875.55 617.55 867.4 607.6 859.25 597.65 853.65 592.1 852.7 591.15 851.6 590.05 850.55 588.95 849.3 587.75
M 901.3 681.9
Q 896.95 682.1 893.5 682.5 890 682.9 886.65 683.95 883.35 684.95 879.45 687 873.9 689.9 868.15 693.45 862.35 697 856.9 700.95 851.45 704.9 846.85 708.95 843.4 712.15 840.45 715.6 837.5 719.1 834.3 722.4 831.65 725.05 829.5 727.55 827.3 730.1 825.2 733.2
L 825.05 733.45 824.75 733.8
Q 824.35 734.25 824.1 734.7 823.85 735 823.75 735.15
L 823.7 734.7
Q 823.8 733.1 825.1 730.95 826.4 728.8 828 726.75 829.65 724.7 830.6 723.4 836.35 715.25 842.75 709.2 849.15 703.15 856.5 698.1 863.85 693.05 872.45 687.85 877.15 684.95 881.55 683 885.95 681.1 890.6 680.45 895.3 679.8 900.8 680.75
L 901.25 680.75 901.9 680.85
Q 902.7 680.95 903.2 681.3 902.85 681.7 902.2 681.8 901.6 681.9 901.3 681.9 Z"/>
</g>
</defs>



<g transform="matrix( 0.5969085693359375, -0.2979888916015625, 0.2979888916015625, 0.5969085693359375, 189.4,647.95) ">
<g transform="matrix( 1, 0, 0, 1, 0,0) ">
<use xlink:href="#Symbol_21_0_Layer0_0_FILL"/>
</g>
</g>

<g transform="matrix( 1.90142822265625, 0, 0, 1.90142822265625, -845.05,-357.9) ">
<g transform="matrix( 1, 0, 0, 1, 0,0) ">
<use xlink:href="#Symbol_10_0_Layer0_0_FILL"/>
</g>
</g>

<g transform="matrix( -0.0679168701171875, 0.1428985595703125, -0.1428985595703125, -0.0679168701171875, 1088.8,312.95) ">
<use xlink:href="#Layer0_2_FILL"/>
</g>

<g transform="matrix( -0.1620941162109375, -0.039459228515625, 0.039459228515625, -0.1620941162109375, 1076.15,581.35) ">
<g transform="matrix( 1, 0, 0, 1, 0,0) ">
<use xlink:href="#Symbol_22_0_Layer0_0_FILL"/>
</g>
</g>

<g transform="matrix( 0.0297698974609375, 0.127716064453125, -0.127716064453125, 0.0297698974609375, 956.5,309.2) ">
<g transform="matrix( 1, 0, 0, 1, 0,0) ">
<use xlink:href="#Symbol_14_0_Layer0_0_FILL"/>
</g>
</g>

<g transform="matrix( 0.0297698974609375, 0.127716064453125, -0.127716064453125, 0.0297698974609375, 956.5,309.2) ">
<g transform="matrix( 1, 0, 0, 1, 0,0) ">
<use xlink:href="#Symbol_15_0_Layer0_0_FILL"/>
</g>
</g>

<g transform="matrix( 0.1147003173828125, 0.0561676025390625, -0.0561676025390625, 0.1147003173828125, 845.7,354.65) ">
<g transform="matrix( 1, 0, 0, 1, 0,0) ">
<use xlink:href="#Symbol_16_0_Layer0_0_FILL"/>
</g>
</g>

<g transform="matrix( 0.053863525390625, -0.16021728515625, 0.1819610595703125, 0.0794219970703125, 784.3,618.3) ">
<g transform="matrix( 1, 0, 0, 1, 0,0) ">
<use xlink:href="#Symbol_23_0_Layer0_0_FILL"/>
</g>
</g>

<g transform="matrix( 0.1316375732421875, -0.1312408447265625, 0.1312408447265625, 0.1316375732421875, 735.9,561) ">
<g transform="matrix( 1, 0, 0, 1, 0,0) ">
<use xlink:href="#Symbol_24_0_Layer0_0_FILL"/>
</g>
</g>

<g transform="matrix( 0.0297698974609375, 0.127716064453125, -0.127716064453125, 0.0297698974609375, 956.5,309.2) ">
<g transform="matrix( 1, 0, 0, 1, 0,0) ">
<use xlink:href="#Symbol_19_0_Layer0_0_FILL"/>
</g>
</g>

<g transform="matrix( 0.1198272705078125, 0.05328369140625, -0.05328369140625, 0.1198272705078125, 840.2,358.45) ">
<g transform="matrix( 1, 0, 0, 1, 0,0) ">
<use xlink:href="#Symbol_20_0_Layer0_0_FILL"/>
</g>
</g>

<g transform="matrix( 0.667572021484375, 0, 0, 0.667572021484375, 229.05,280.75) ">
<use xlink:href="#Layer0_11_FILL"/>
</g>

<g transform="matrix( 0.542999267578125, 0.1893310546875, -0.2315521240234375, 0.6660308837890625, 552.1,104) ">
<g transform="matrix( 1, 0, 0, 1, 0,0) ">
<use xlink:href="#Symbol_25_0_Layer0_0_FILL"/>
</g>
</g>

<g transform="matrix( 0.667572021484375, 0, 0, 0.667572021484375, 298,282.85) ">
<use xlink:href="#Layer0_13_FILL"/>
</g>

<g transform="matrix( 0.6089630126953125, -0.2736053466796875, 0.2736053466796875, 0.6089630126953125, 272.9,529) ">
<g transform="matrix( 1, 0, 0, 1, 0,0) ">
<use xlink:href="#Symbol_26_0_Layer0_0_FILL"/>
</g>
</g>

<g transform="matrix( 0.4237823486328125, -0.1471405029296875, 0.3726959228515625, 0.73321533203125, 320.7,320.4) ">
<g transform="matrix( 1, 0, 0, 1, 0,0) ">
<use xlink:href="#Symbol_27_0_Layer0_0_FILL"/>
</g>
</g>

<g transform="matrix( 0.66705322265625, 0.0288238525390625, -0.0288238525390625, 0.66705322265625, 365.7,262.6) ">
<use xlink:href="#Layer0_16_FILL"/>
</g>

<g transform="matrix( 0.5938720703125, 0.3052978515625, -0.3052978515625, 0.5938720703125, 636.6,145.4) ">
<use xlink:href="#Layer0_17_FILL"/>
</g>

<g transform="matrix( 0.7132720947265625, 0.166015625, 0.0348358154296875, 0.7693328857421875, 395.35,267.2) ">
<g transform="matrix( 1, 0, 0, 1, 0,0) ">
<use xlink:href="#Symbol_28_0_Layer0_0_FILL"/>
</g>
</g>

<g transform="matrix( 0.551910400390625, 0.375885009765625, -0.375885009765625, 0.551910400390625, 684.5,139.4) ">
<g transform="matrix( 1, 0, 0, 1, 0,0) ">
<use xlink:href="#Symbol_29_0_Layer0_0_FILL"/>
</g>
</g>

<g transform="matrix( 0.49359130859375, 0.362396240234375, -0.362396240234375, 0.49359130859375, 739.45,121.25) ">
<g transform="matrix( 1, 0, 0, 1, 0,0) ">
<use xlink:href="#Symbol_30_0_Layer0_0_FILL"/>
</g>
</g>

<g transform="matrix( 0.6230316162109375, 0.2837982177734375, -0.327667236328125, 0.6150360107421875, 546.5,21.7) ">
<use xlink:href="#Layer0_21_FILL"/>
</g>

<g transform="matrix( 0.411590576171875, 0.4243621826171875, -0.4243621826171875, 0.411590576171875, 743.55,158.55) ">
<g transform="matrix( 1, 0, 0, 1, 0,0) ">
<use xlink:href="#Symbol_31_0_Layer0_0_FILL"/>
</g>
</g>

<g transform="matrix( 0.6091156005859375, 0.2747344970703125, -0.2747344970703125, 0.6091156005859375, 499.95,61.9) ">
<use xlink:href="#Layer0_23_FILL"/>
</g>
</svg>
