
<svg xmlns="http://www.w3.org/2000/svg" version="1.1" xmlns:xlink="http://www.w3.org/1999/xlink" preserveAspectRatio="none" x="0px" y="0px" width="760px" height="880px" viewBox="614 10 760 880">
<defs>


<g id="Symbol_11_0_Layer0_0_FILL">
<path fill="#FFFFFF" stroke="none" d="
M 1336.05 565.75
Q 1325.55 541.3 1309.5 520 1293.45 498.7 1270.9 480.6 1253.5 473.35 1234.6 461.75 1215.75 450.15 1194.95 433.55 1158.6 403.8 1132.1 373.4 1105.65 343 1084.5 316.85 1063.35 290.7 1043 273.75 1022.65 256.75 998.6 253.85 997.45 253.75 996.2 253.65 995 253.55 993.8 253.55 993.15 253.5 992.55 253.5 991.95 253.5 991.3 253.5 959.55 254.5 927.35 274.3 895.15 294.05 858.65 320.1 822.2 346.1 777.65 365.85 733.1 385.65 676.65 386.65 637.3 386.25 609.55 378.7 581.85 371.15 557.05 361.15 532.25 351.2 501.65 343.65 471.1 336.05 426.1 335.65 319.7 339.05 255 407.7 190.3 476.35 157.4 569.65 124.5 662.95 113.4 740.3
L 105.25 803.55 103.4 824.55 103.05 838.5
Q 103.15 845.3 107.35 850.25 111.5 855.25 118.25 856.05 121 856.3 124.2 855.1 127.45 853.9 130.1 850.65 132.75 847.35 133.9 841.5 137.7 798.4 146.1 757.8 154.55 717.25 164.05 684.2 173.6 651.2 180.75 630.75
L 189.05 607.6
Q 190.1 604.75 191.95 601.85 193.75 598.85 196.15 597.15 198.55 595.45 201.25 596.4 205.05 597.95 204.85 601 204.7 604.05 203.65 608.35 200.8 623.9 197.9 644.25 195 664.65 193 691.3 191 718 190.95 752.5 191.7 814.5 208.75 870.05 225.75 925.65 249.7 971.3 273.6 1017 295.05 1049.35 316.45 1081.7 326.05 1097.2 329.25 1102.65 334.6 1105.7 339.95 1108.8 346.3 1108.85
L 487.25 1108.85
Q 494.65 1108.65 499.75 1103.9 504.85 1099.15 505.5 1091.8 506.1 1072.55 507.35 1042.15 508.6 1011.75 517.8 980.7 527 949.65 551.35 928.4 575.75 907.2 622.55 906.3 677.4 907.3 708.95 930.1 740.5 952.85 755.65 985.75 770.8 1018.6 776.4 1049.9 781.95 1081.15 784.75 1099.05 786.2 1105.55 791.05 1109.5 795.95 1113.5 802.55 1113.6
L 942.45 1113.6
Q 949.9 1113.4 954.8 1108.45 959.7 1103.5 959.85 1096.05 959.8 1059.9 964.85 1024.3 969.9 988.7 981.3 958.3 992.7 927.9 1011.6 907.35 1024.4 893.9 1041.95 893.15 1059.5 892.45 1083.1 901.85 1086.9 903.35 1091.1 904.9 1095.25 906.5 1099.7 908.2 1102.15 908.65 1104.4 909 1106.65 909.4 1108.65 909.75 1122.45 912.1 1136.1 913.9 1149.75 915.7 1163.5 915.75 1177.25 915.8 1191.45 912.95 1221.2 906.7 1246.05 894.95 1270.85 883.15 1291.7 865.45 1312.5 847.75 1330.3 823.75 1340.5 810.05 1346.65 797.6 1352.85 785.15 1356.4 772.25 1359.95 759.35 1362.2 744.35 1362.25 743.75 1362.35 743.2
L 1362.55 742.05
Q 1362.65 737.7 1362.9 734
L 1363.25 729.05
Q 1365.05 713.65 1364.35 699.95 1363.6 686.3 1361.55 672.7 1359.5 659.15 1357.2 644.1 1354.15 622.8 1348.95 603.25 1343.75 583.65 1336.05 565.75 Z"/>
</g>

<g id="Symbol_8_0_Layer0_0_FILL">
<path fill="#FFFFFF" stroke="none" d="
M 1465.55 478.95
Q 1466.15 473.85 1463.5 470.2 1460.85 466.55 1456.45 465.2 1452.05 463.85 1447.4 465.55 1436 470.25 1421.05 476.3 1406.1 482.4 1388.35 487.4 1366.75 493.45 1344.9 494.5 1323.05 495.55 1299.85 490.1 1276.7 484.65 1251.05 471.15 1247.3 469.7 1244.45 468.45 1241.6 467.2 1240.05 466.3 1221.55 456.15 1201.35 449.15 1181.15 442.1 1160.9 438.85 1143.2 436.05 1127.7 435.95 1112.25 435.9 1096.9 437.95 1081.5 439.95 1064.05 443.55 1046.3 447.1 1033.8 453.5 1021.35 459.9 1010.85 469.3 1000.35 478.65 988.65 491.2 982.15 498 974.2 508.15 966.25 518.25 959.65 529.2 953.1 540.15 950.7 549.4 948.65 557.8 946.7 566.3 944.75 574.8 942.9 583.4 940.3 595.35 937.95 607.3 935.65 619.25 933.75 631.1 931.15 646.7 928 662.65 924.85 678.65 922.7 694.7 920.55 710.75 921 726.6 921.4 740.4 922.2 751.9 923.05 763.4 926.05 774.5 929 785.55 935.85 798.05
L 936 798.35
Q 946.6 817.3 958.85 830.6 971.1 843.9 985.85 854.6 1000.6 865.25 1018.75 876.3 1023.8 879.4 1028.55 881.75 1033.25 884.1 1038.2 886.45 1041.05 887.3 1044.55 888.65 1048.05 890.05 1051.05 891.3 1054.05 892.55 1055.3 893.15
L 1056.3 893.55
Q 1057 893.9 1058 894.35 1063.75 895.45 1070 897.3 1076.3 899.2 1083.1 901.85 1106.65 911.2 1140.6 922.7 1174.55 934.2 1215.35 944 1256.2 953.75 1300.45 957.9 1344.7 962 1388.95 956.6 1465.15 946.5 1525.5 915.05 1585.8 883.6 1631.2 832.45 1676.6 781.3 1707.9 712.1 1724.45 675.15 1735.25 636.8 1746 598.4 1752.3 561.9 1758.55 525.4 1761.65 494 1764.75 462.6 1766 439.6 1766.2 430.95 1761.3 427.05 1756.4 423.1 1749.85 423.75 1743.25 424.4 1738.5 429.45 1717.05 454.2 1688.35 487.3 1659.7 520.4 1626.5 549.4 1593.3 578.4 1558.3 590.75 1523.35 603.15 1489.4 586.45 1477.35 579.75 1471.35 567 1465.3 554.2 1463.6 538.45 1461.9 522.7 1462.8 507.05 1463.75 491.4 1465.55 478.95 Z"/>
</g>

<g id="Symbol_9_0_Layer0_0_FILL">
<path fill="#0081C6" stroke="none" d="
M 1045.3 556
Q 1044.2 556.05 1043.3 556.55 1042.4 557.1 1041.85 558 1041.3 558.9 1041.3 560.05 1041.3 561.15 1041.85 562.05 1042.4 562.95 1043.3 563.5 1044.2 564 1045.3 564.05 1046.45 564 1047.35 563.5 1048.25 562.95 1048.75 562.05 1049.3 561.15 1049.3 560.05 1049.3 558.9 1048.75 558 1048.25 557.1 1047.35 556.55 1046.45 556.05 1045.3 556 Z"/>
</g>

<g id="Symbol_10_0_Layer0_0_FILL">
<path fill="#0081C6" stroke="none" d="
M 1005.65 543.5
L 1001.25 543.5 1001.25 545.8
Q 999.95 544.35 998.5 543.65 997.05 542.95 995.4 542.95 993.5 542.95 991.9 543.7 990.3 544.45 989.05 545.9 987.8 547.35 987.15 549.2 986.55 551.05 986.55 553.25 986.55 555.5 987.15 557.35 987.8 559.2 989.05 560.7 990.35 562.2 991.95 562.9 993.55 563.65 995.5 563.65 997.05 563.65 998.5 563 999.95 562.35 1001.25 561.05
L 1001.25 563.1 1005.65 563.1 1005.65 543.5
M 1001.55 553.35
Q 1001.55 554.7 1001.15 555.85 1000.8 557 1000.05 557.9 999.3 558.75 998.35 559.15 997.35 559.6 996.15 559.6 995.05 559.6 994.1 559.15 993.15 558.7 992.4 557.8 991.7 556.95 991.35 555.8 990.95 554.65 990.95 553.25 990.95 551.9 991.35 550.8 991.7 549.7 992.45 548.8 993.2 547.95 994.15 547.5 995.1 547.05 996.2 547.05 997.4 547.05 998.35 547.5 999.3 547.9 1000.05 548.8 1000.8 549.7 1001.15 550.8 1001.55 551.95 1001.55 553.35
M 980.35 543.45
Q 979.9 543.7 979.35 544.15 978.85 544.6 978.25 545.25
L 978.25 543.5 973.9 543.5 973.9 563.1 978.25 563.1 978.25 552.95
Q 978.25 550.15 979.1 548.75 980 547.35 981.8 547.35 982.35 547.35 982.95 547.6 983.6 547.8 984.2 548.25
L 986.2 544.15
Q 985.25 543.55 984.35 543.25 983.45 542.95 982.6 542.95 981.95 542.95 981.4 543.1 980.85 543.2 980.35 543.45
M 1016.6 543.45
Q 1016.15 543.7 1015.65 544.15 1015.1 544.65 1014.45 545.3
L 1014.45 543.5 1010.15 543.5 1010.15 563.1 1014.45 563.1 1014.45 553
Q 1014.45 551.45 1014.7 550.3 1014.9 549.2 1015.3 548.45 1015.75 547.75 1016.4 547.4 1017.05 547.05 1018 547.05 1019.45 547.05 1020.15 548.35 1020.9 549.65 1020.9 552.25
L 1020.9 563.1 1025.25 563.1 1025.25 553
Q 1025.25 551.4 1025.45 550.3 1025.65 549.15 1026.05 548.45 1026.45 547.75 1027.1 547.4 1027.75 547.05 1028.65 547.05 1029.45 547.05 1030 547.35 1030.55 547.65 1030.9 548.25 1031.25 548.8 1031.4 549.8 1031.55 550.8 1031.55 552.2
L 1031.55 563.1 1035.9 563.1 1035.9 551
Q 1035.9 546.95 1034.35 544.95 1032.75 542.95 1029.55 542.95 1027.8 542.95 1026.45 543.7 1025.05 544.4 1024.05 545.85 1023.1 544.4 1021.85 543.7 1020.6 542.95 1019 542.95 1018.3 542.95 1017.7 543.1 1017.1 543.2 1016.6 543.45
M 920.15 543.5
Q 918.9 542.95 917.25 542.95 915.8 542.95 914.55 543.55 913.25 544.15 912.1 545.3
L 912.1 543.5 907.75 543.5 907.75 563.1 912.1 563.1 912.1 553.65
Q 912.1 551.8 912.35 550.55 912.55 549.25 913 548.55 913.45 547.8 914.25 547.4 915 547.05 916.05 547.05 917.05 547.05 917.75 547.35 918.45 547.6 918.8 548.15 919.2 548.7 919.4 549.7 919.6 550.7 919.6 552.15
L 919.6 563.1 923.95 563.1 923.95 551.1
Q 923.95 549 923.55 547.5 923.15 546.05 922.35 545.1 921.45 544.05 920.15 543.5
M 903.25 543.5
L 898.9 543.5 898.9 563.1 903.25 563.1 903.25 543.5
M 900 538.1
Q 900.5 538.35 901.1 538.35 901.65 538.35 902.15 538.1 902.65 537.9 903.05 537.45 903.5 537.05 903.7 536.5 903.9 536 903.9 535.4 903.9 534.75 903.7 534.25 903.5 533.75 903.05 533.3 902.65 532.9 902.15 532.65 901.65 532.45 901.05 532.45 900.5 532.45 900 532.65 899.5 532.9 899.05 533.3 898.65 533.75 898.45 534.25 898.25 534.75 898.25 535.35 898.25 536 898.45 536.5 898.65 537.05 899.05 537.45 899.5 537.9 900 538.1
M 941.45 543.7
Q 939.65 542.95 937.55 542.95 935.5 542.95 933.7 543.7 931.9 544.45 930.45 545.95 929 547.45 928.3 549.25 927.55 551.05 927.55 553.15 927.55 555.4 928.25 557.3 929 559.15 930.4 560.65 931.85 562.15 933.6 562.9 935.4 563.65 937.5 563.65 939.6 563.65 941.4 562.9 943.25 562.15 944.7 560.7 946.15 559.2 946.9 557.35 947.6 555.5 947.6 553.3 947.6 551.15 946.9 549.3 946.15 547.45 944.7 545.95 943.25 544.45 941.45 543.7
M 943.15 553.35
Q 943.15 554.75 942.8 555.9 942.4 557.05 941.65 557.9 940.9 558.75 939.85 559.2 938.85 559.6 937.55 559.6 936.3 559.6 935.3 559.15 934.25 558.75 933.5 557.9 932.75 557 932.35 555.85 932 554.7 932 553.25 932 551.85 932.4 550.75 932.75 549.65 933.55 548.8 934.3 547.9 935.3 547.45 936.35 547.05 937.55 547.05 938.85 547.05 939.85 547.45 940.85 547.9 941.65 548.8 942.4 549.65 942.8 550.75 943.15 551.9 943.15 553.35
M 962.4 543.65
Q 960.9 542.95 959.15 542.95 957.1 542.95 955.5 543.75 953.85 544.55 952.6 546.15 951.45 547.65 950.9 549.45 950.3 551.3 950.3 553.4 950.3 555.6 950.95 557.45 951.55 559.3 952.8 560.75 954 562.2 955.6 562.9 957.15 563.65 959.1 563.65 960.8 563.65 962.25 562.95 963.75 562.25 965.05 560.9
L 965.05 563.65
Q 965.05 566.65 963.85 568.2 962.65 569.7 960.3 569.7 959 569.7 958 569.25 957 568.8 956.35 567.85 956.05 567.5 955.85 566.9 955.65 566.35 955.5 565.65
L 951.15 565.65
Q 951.35 567.55 952.05 569.05 952.8 570.55 954.05 571.65 955.25 572.7 956.8 573.25 958.35 573.8 960.25 573.8 962.5 573.8 964.25 573 966 572.25 967.25 570.75 967.95 569.95 968.4 569 968.85 568.05 969.05 566.95 969.15 566.55 969.2 566.05 969.25 565.6 969.3 565.05 969.35 564.55 969.35 563.95 969.4 563.3 969.4 562.6
L 969.4 543.5 965.05 543.5 965.05 545.7
Q 963.85 544.35 962.4 543.65
M 965.2 553.35
Q 965.2 554.7 964.9 555.8 964.55 556.85 963.9 557.75 963.15 558.65 962.2 559.15 961.2 559.6 959.95 559.6 958.7 559.6 957.75 559.15 956.75 558.7 956.05 557.75 955.4 556.9 955.1 555.8 954.75 554.7 954.75 553.35 954.75 552 955.1 550.9 955.4 549.8 956.05 548.95 956.75 548 957.75 547.5 958.7 547.05 959.95 547.05 961.1 547.05 962.05 547.5 963 547.9 963.75 548.8 964.5 549.65 964.85 550.8 965.2 551.9 965.2 553.35
M 887.65 542.95
Q 886.25 542.95 885 543.5 883.7 544.05 882.55 545.15
L 882.55 534 878.2 534 878.2 563.1 882.55 563.1 882.55 553.6
Q 882.55 551.8 882.8 550.55 883 549.25 883.45 548.5 883.9 547.8 884.7 547.4 885.55 547.05 886.65 547.05 887.55 547.05 888.2 547.3 888.85 547.55 889.25 548.1 889.65 548.65 889.85 549.5 890.05 550.35 890.05 551.5
L 890.05 563.1 894.4 563.1 894.4 551.1
Q 894.4 549.05 894 547.55 893.6 546.05 892.75 545.1 891.8 544.05 890.55 543.5 889.25 542.95 887.65 542.95
M 868.15 543.5
L 863.8 543.5 863.8 563.1 868.15 563.1 868.15 552.95
Q 868.15 550.15 869.05 548.75 869.95 547.35 871.7 547.35 872.3 547.35 872.9 547.6 873.5 547.8 874.15 548.25
L 876.1 544.15
Q 875.2 543.55 874.3 543.25 873.4 542.95 872.5 542.95 871.85 542.95 871.3 543.1 870.75 543.2 870.3 543.45 869.8 543.7 869.3 544.15 868.75 544.6 868.15 545.25
L 868.15 543.5 Z"/>
</g>

<g id="Symbol_12_0_Layer0_0_FILL">
<path fill="#a6ce38" stroke="none" d="
M 950.3 670.25
L 893.5 670.05 929.4 757.9 919 845 974.15 754.2 950.3 670.25 Z"/>
</g>

<g id="Symbol_13_0_Layer0_0_FILL">
<path fill="#a6ce38" stroke="none" d="
M 1358 422.3
Q 1356.4 422.35 1354.8 422.4 1353.25 422.45 1351.65 422.5 1328.35 423 1305.35 422.35 1282.35 421.75 1259.8 420.6 1232 419.3 1207.8 415.8 1183.6 412.35 1157.75 406.95 1140.55 403.3 1126.05 398.4 1111.55 393.5 1095.7 387.8 1084.6 383.9 1075.3 379.45 1065.95 375.05 1057.4 370.1 1051.3 366.65 1045.1 362.9 1038.9 359.15 1032.25 355.15 1028.9 353.2 1025.65 351.2 1022.4 349.2 1019.25 347.2 1004.7 337.9 991.35 328.3 978.05 318.65 965.15 308.4 959.05 303.55 952.9 298.5 946.75 293.5 940.5 288.3 938.1 286.3 935.35 283.8 932.6 281.3 929.5 278.55 929.05 278.15 928.65 277.75
L 927.75 277
Q 925.5 275.05 923.15 273.05 920.8 271.1 918.3 269.2 916.9 268.1 915.4 267.05 913.95 266 912.45 265 908.65 262.45 904.7 260.45 900.75 258.4 896.7 257.1 894.15 257.65 891.65 258.7 889.1 259.75 886.6 261.35
L 885.25 262.35
Q 884.2 263.1 883.2 263.75 881.1 265.9 878.8 268.65
L 875.9 272.35
Q 871.5 280.25 872.95 290.85 874.4 301.4 880.7 309.25
L 880.75 309.45
Q 880.5 309.6 880.25 309.8 880 310 879.75 310.25 879.4 310.55 879 310.95 878.55 311.35 878.15 311.75 877.8 312 877.55 312.25 877.25 312.5 876.95 312.8 875.3 314.4 873.85 316.65
L 872.1 319.8
Q 867.45 331.2 869.95 346.95 872.4 362.7 878.65 379.35 882.05 390.6 886.8 401.4 891.55 412.25 897.45 422.55 897.95 423.6 898.45 424.6 898.9 425.6 899.35 426.55 902.25 432.7 906 438.8 909.75 444.95 914.2 450.85 912.75 452.85 911.85 455.25
L 910.7 458.55
Q 908.05 474.7 918.65 491.2 929.25 507.65 944.25 520.95
L 944.65 521.45
Q 944.85 521.75 945 522 946.2 522.95 947.35 523.9 948.55 524.85 949.75 525.8 951.45 527.15 953.2 528.5 954.95 529.85 956.7 531.2 958.5 532.55 960.35 533.9 962.15 535.3 964.05 536.7 964.65 537.2 965.3 537.65
L 966.55 538.6
Q 979.9 548.35 993.95 557.2 1007.95 566 1022.3 573.3 1024.3 574.2 1026.25 575.1 1028.25 576 1030.2 576.9 1038.85 580.65 1047.8 584.05 1056.8 587.4 1066.25 590.6 1068.9 591.3 1071.55 591.9 1074.2 592.55 1076.8 593.05 1080.65 593.7 1088.05 594.3 1095.5 594.9 1103.05 596.1 1103.2 596.1 1103.35 596.1
L 1103.65 596.1
Q 1109.3 596.05 1120.6 595.85 1131.95 595.65 1143.05 594.85 1154.15 594.05 1159.15 592.15 1159.6 592 1160.65 591.7 1161.75 591.35 1162.35 590.5 1161.95 590.1 1161.3 589.8 1160.65 589.45 1159.8 589.25 1160.55 588.8 1161.15 588.5 1161.75 588.15 1162.15 587.95 1177.6 579.35 1194.5 565.6 1211.4 551.85 1227.6 537.05 1243.75 522.25 1257.1 510.5 1281.55 489.55 1307.8 467.2 1334.1 444.85 1358 422.3 Z"/>
</g>

<g id="Symbol_14_0_Layer0_0_FILL">
<path fill="#a6ce38" stroke="none" d="
M 1037.75 310.3
Q 1009.25 300.8 986.6 302.35 963.9 303.9 957.85 315.55 952.7 327.45 948.8 344.7 944.85 362 941.6 380.45 938.35 398.9 935.2 414.45 934.25 425.55 959.65 428.65 985.05 431.8 1019.6 430.35 1054.15 428.9 1080.75 426.35
L 1108.75 423.5 1103.9 402.35
Q 1099.35 382.75 1094.8 363
L 1089.75 341.35
Q 1066.25 319.8 1037.75 310.3 Z"/>
</g>

<g id="Symbol_15_0_Layer0_0_FILL">
<path fill="#a6ce38" stroke="none" d="
M 1012.35 269.55
Q 997.1 271.3 987.9 276.75 978.7 282.25 974.4 287.2 970.05 291.85 964.65 301 959.25 310.15 954.8 320.5 950.35 330.85 948.9 338.95 948 346.8 957.15 356.25 966.25 365.75 981.25 373.2 996.2 380.65 1012.8 382.4 1029.5 383.65 1046.8 379.85 1064.15 376 1077 369.5 1089.85 363 1093.1 356.25 1093 348.8 1088.15 331 1083.35 313.25 1073.85 296.25 1064.3 279.25 1050.15 274.15 1027.6 267.85 1012.35 269.55 Z"/>
</g>

<g id="Symbol_16_0_Layer0_0_FILL">
<path fill="#a6ce38" stroke="none" d="
M 1106.5 326.35
Q 1113.75 318.9 1118.6 311
L 1115.05 308.9 1104.95 304.7
Q 1091.55 299.45 1068.2 297.6
L 1071.15 308.1
Q 1074.2 317.9 1077.85 329.4 1081.5 340.9 1083.4 346.7 1086.05 344.75 1092.65 339.3 1099.2 333.8 1106.5 326.35 Z"/>
</g>

<g id="Symbol_17_0_Layer0_0_FILL">
<path fill="#a6ce38" stroke="none" d="
M 751.55 592.25
L 718.45 576.8
Q 687.05 562.15 645.65 542.85 604.3 523.5 572.7 508.8
L 539.2 493.2
Q 537.15 510.95 537.9 538.7 538.7 566.45 541.8 594.1 544.95 621.75 550 639.2
L 586.15 638.95
Q 620.1 638.6 664.5 638.05 708.95 637.45 742.65 637
L 778.15 636.55
Q 771.55 625.4 765 614.65 758.45 603.85 751.55 592.25 Z"/>
</g>

<g id="Symbol_18_0_Layer0_0_FILL">
<path fill="#a6ce38" stroke="none" d="
M 968.85 412.65
Q 930.2 420.1 910.4 421.75 908.05 436.6 881.2 464.65 854.3 492.7 810.25 522.95 766.15 553.15 712.25 574.45 658.35 595.7 602 597 638.3 620.95 692.8 635.35 747.3 649.8 813.2 654.3 879.1 658.8 949.6 652.8 1020.4 646.15 1060.55 627.6 1100.7 609.05 1117.85 584.5 1134.95 559.95 1136.7 535.3 1140 497.9 1129.4 460.9 1118.8 423.9 1099.05 390.15 1082.55 390.9 1045 398.05 1007.5 405.2 968.85 412.65 Z"/>
</g>

<g id="Symbol_19_0_Layer0_0_FILL">
<path fill="#0081C6" stroke="none" d="
M 1035.4 302.25
L 1033.5 301.25 1031.5 300.65 1029.35 300.45 1027.25 300.65 1025.25 301.25 1023.35 302.25 1021.75 303.6 1020.4 305.25 1019.4 307.1 1018.75 309.15 1018.55 311.25 1018.75 313.35 1019.4 315.4 1020.4 317.25 1021.75 318.9 1023.35 320.25 1025.25 321.25 1027.25 321.85 1029.35 322.05 1031.5 321.85 1033.5 321.25 1035.4 320.25 1037 318.9 1038.35 317.25 1039.35 315.4 1040 313.35 1040.2 311.25 1040 309.15 1039.35 307.1 1038.35 305.25 1037 303.6 1035.4 302.25 Z"/>
</g>

<g id="Symbol_20_0_Layer0_0_FILL">
<path fill="#a6ce38" stroke="none" d="
M 1040.4 290.7
Q 1036.7 285.45 1029.15 285.1 1020.3 285.55 1015.95 292.1 1011.65 298.6 1010.8 306.75
L 1046.25 307 1045.2 301.3
Q 1044.1 296 1040.4 290.7 Z"/>
</g>
</defs>



<g transform="matrix( 0.3527374267578125, 0, 0.010162353515625, 0.292510986328125, 658.25,560.1) ">
<g transform="matrix( 1, 0, 0, 1, 0,0) ">
<use xlink:href="#Symbol_11_0_Layer0_0_FILL"/>
</g>
</g>

<g transform="matrix( 0.31268310546875, 0.0518951416015625, -0.0450286865234375, 0.3126068115234375, 731.55,477.7) ">
<g transform="matrix( 1, 0, 0, 1, 0,0) ">
<use xlink:href="#Symbol_8_0_Layer0_0_FILL"/>
</g>
</g>

<g transform="matrix( 2.1943511962890625, 0.415374755859375, 0.0097198486328125, 0.299560546875, -1158.75,170.75) ">
<g transform="matrix( 1, 0, 0, 1, 0,0) ">
<use xlink:href="#Symbol_9_0_Layer0_0_FILL"/>
</g>
</g>

<g transform="matrix( 1.90142822265625, 0, 0, 1.90142822265625, -845.05,-318.7) ">
<g transform="matrix( 1, 0, 0, 1, 0,0) ">
<use xlink:href="#Symbol_10_0_Layer0_0_FILL"/>
</g>
</g>

<g transform="matrix( 0.1105194091796875, 0, 0, 0.1105194091796875, 907.05,532.25) ">
<g transform="matrix( 1, 0, 0, 1, 0,0) ">
<use xlink:href="#Symbol_12_0_Layer0_0_FILL"/>
</g>
</g>

<g transform="matrix( 0.076171875, 0.04730224609375, -0.04730224609375, 0.076171875, 939.1,499.8) ">
<g transform="matrix( 1, 0, 0, 1, 0,0) ">
<use xlink:href="#Symbol_13_0_Layer0_0_FILL"/>
</g>
</g>

<g transform="matrix( 0.110504150390625, 0.0018157958984375, -0.0018157958984375, 0.110504150390625, 909.3,539.45) ">
<g transform="matrix( 1, 0, 0, 1, 0,0) ">
<use xlink:href="#Symbol_14_0_Layer0_0_FILL"/>
</g>
</g>

<g transform="matrix( 0.110504150390625, 0.0018157958984375, -0.0018157958984375, 0.110504150390625, 909.3,539.45) ">
<g transform="matrix( 1, 0, 0, 1, 0,0) ">
<use xlink:href="#Symbol_15_0_Layer0_0_FILL"/>
</g>
</g>

<g transform="matrix( 0.09857177734375, -0.043212890625, 0.043212890625, 0.09857177734375, 906,588.75) ">
<g transform="matrix( 1, 0, 0, 1, 0,0) ">
<use xlink:href="#Symbol_16_0_Layer0_0_FILL"/>
</g>
</g>

<g transform="matrix( 0.094329833984375, 0.057586669921875, -0.057586669921875, 0.094329833984375, 947.5,497.8) ">
<g transform="matrix( 1, 0, 0, 1, 0,0) ">
<use xlink:href="#Symbol_17_0_Layer0_0_FILL"/>
</g>
</g>

<g transform="matrix( 0.1050872802734375, 0.034210205078125, -0.034210205078125, 0.1050872802734375, 928.85,509.6) ">
<g transform="matrix( 1, 0, 0, 1, 0,0) ">
<use xlink:href="#Symbol_18_0_Layer0_0_FILL"/>
</g>
</g>

<g transform="matrix( 0.110504150390625, 0.0018157958984375, -0.0018157958984375, 0.110504150390625, 909.3,539.45) ">
<g transform="matrix( 1, 0, 0, 1, 0,0) ">
<use xlink:href="#Symbol_19_0_Layer0_0_FILL"/>
</g>
</g>

<g transform="matrix( 0.094757080078125, -0.056884765625, 0.056884765625, 0.094757080078125, 906.95,605) ">
<g transform="matrix( 1, 0, 0, 1, 0,0) ">
<use xlink:href="#Symbol_20_0_Layer0_0_FILL"/>
</g>
</g>
</svg>
