
<svg xmlns="http://www.w3.org/2000/svg" version="1.1" xmlns:xlink="http://www.w3.org/1999/xlink" preserveAspectRatio="none" x="0px" y="0px" width="760px" height="880px" viewBox="0 0 760 880">
<defs>


<g id="Layer0_0_FILL">
<path fill="#FFFFFF" stroke="none" d="
M 1325.05 341
Q 1316.15 335.45 1307.15 330.45 1298.2 325.45 1291.55 322.5 1279.2 317.15 1266.95 312.8 1254.65 308.45 1243.8 305.05 1232.95 301.65 1224.85 299.15 1218.9 297.3 1206.6 292.9 1194.3 288.45 1180.05 283.15 1165.8 277.8 1154.05 273.2 1142.35 268.6 1137.55 266.35 1132.4 263.95 1125.3 260.7 1118.25 257.45 1110.8 253.5 1103.35 249.55 1097.1 245.1 1090.8 240.65 1087.3 235.9
L 1053.8 368.7
Q 1056.25 369.5 1062.35 369 1068.45 368.5 1076.4 367.4 1084.3 366.25 1092.15 365.15 1100.05 364.05 1106 363.55 1112 363.15 1120.35 362.95 1128.7 362.8 1138.25 362.75 1147.8 362.65 1157.45 362.65 1164 362.7 1172.2 362.9 1180.35 363.1 1188.85 363.3 1197.35 363.5 1204.85 363.45 1212.3 363.4 1217.35 362.9 1227.65 361.8 1240.95 360.5 1254.25 359.2 1267.55 357.95 1280.85 356.7 1291.2 355.85 1301.55 355 1305.9 354.85 1310.1 354.75 1316.35 354.95 1322.65 355.1 1329.3 355.55 1335.95 355.95 1341.1 356.5 1346.3 357.1 1348.25 357.8
L 1345.5 355.1 1340.35 351.15
Q 1333.95 346.55 1325.05 341 Z"/>
</g>

<g id="Layer0_1_FILL">
<path fill="#0987CD" stroke="none" d="
M 1093.15 183.4
Q 1092.45 183.05 1091.7 182.8 1090.95 182.6 1090.25 182.3 1089.4 182 1088.65 181.6 1087.85 181.2 1087.05 180.85 1085.75 180.25 1084.25 179.9 1082.8 179.6 1081.35 179.1
L 1080.55 178.8
Q 1079.85 178.55 1079.3 178.35 1079.25 178.75 1079.15 179.2
L 1079 179.8
Q 1078.35 182.95 1077.75 186.15 1077.1 189.35 1076.3 192.5 1075.1 197.05 1074.45 201.85 1073.8 206.65 1073.1 211.35 1071.2 222.95 1069.05 234.55 1066.9 246.1 1065.2 257.75 1063.6 268.7 1061.65 279.65 1059.7 290.6 1057.75 301.55 1055.75 312.45 1054.1 323.45 1052.7 332.25 1051.45 341.1 1050.2 350 1049.65 358.9 1049.6 360.3 1049.65 361.75 1049.7 363.2 1050.1 364.6
L 1050.4 365.35
Q 1050.7 366 1050.85 366.55 1051.2 367.1 1051.75 367.55 1052.35 368 1052.9 367.9 1053.95 367.7 1054.45 366.85 1054.9 366.05 1055.1 365 1055.3 363.95 1055.45 363.05 1058.75 347.35 1061.55 331.5 1064.35 315.7 1067.35 299.9 1069.1 291.05 1071.75 282.45 1074.45 273.85 1077.45 265.35 1077.6 265 1077.75 264.6
L 1078.3 263.05
Q 1078.5 262.4 1078.7 261.85 1078.6 262.3 1078.5 262.8
L 1078.45 263.25 1078.4 263.45
Q 1077.65 267.45 1077.15 271.45 1076.65 275.45 1075.9 279.4 1074.55 286.25 1073 293.3 1071.45 300.35 1070.4 307.4 1069.3 314.5 1069.45 321.5 1069.5 323.25 1069.45 324.65 1069.35 326.05 1069 327.85 1068.7 329.25 1068.4 330.75 1068.1 332.2 1068.1 333.7
L 1068.2 334.8 1068.45 335.3 1068.8 335.2 1069.25 334.45
Q 1069.2 334.9 1069.1 335.4
L 1069.05 335.8 1069 336
Q 1067.8 342.6 1066.6 349 1065.4 355.45 1064.6 362.1 1064.3 364.5 1064.05 366.95 1063.75 369.4 1064.2 371.8
L 1064.25 372.05 1064.4 372.45
Q 1064.6 373 1064.8 373.4 1065.2 373.25 1065.6 373
L 1066.05 372.7
Q 1067.9 371 1068.6 367.8 1069.35 364.65 1069.6 361.25 1069.85 357.8 1070.2 355.4 1072.2 343.7 1074.4 332.1 1076.55 320.45 1078.6 308.8 1080.6 297.15 1082.1 285.4 1082.4 283 1082.65 280.65 1082.9 278.3 1083.3 275.9 1084.6 267.75 1085.9 259.65 1087.2 251.55 1088.65 243.4 1090.4 233 1091.95 222.55 1093.5 212.1 1094.95 201.65 1095.4 198.55 1095.8 195.45 1096.2 192.35 1096.5 189.25 1096.55 188.5 1096.65 187.7 1096.75 186.85 1096.65 186.1
L 1096.6 185.65 1096.55 185.45
Q 1096.55 185.35 1096.45 185.3
L 1095.95 185
Q 1095.7 184.8 1095.15 184.45 1094.6 184.15 1094.05 183.85 1093.45 183.55 1093.15 183.4 Z"/>
</g>

<g id="Layer0_2_FILL">
<path fill="#FFFFFF" stroke="none" d="
M 1082.3 187.3
L 1081.25 187.2
Q 1080.45 187.1 1079.75 187 1079.65 187.45 1079.55 188
L 1079.45 188.7
Q 1072.8 226.05 1066.3 263.45 1059.8 300.8 1054.05 338.35 1047.25 382.95 1041.15 427.6 1035.05 472.25 1029.7 517.1 1025.45 553.55 1021.45 590 1017.45 626.45 1013.4 662.85 1009.35 699.3 1004.95 735.75 1003.4 748.6 1001.75 761.5 1000.1 774.4 998.35 787.25
L 998.25 788.05
Q 998.15 788.45 998.1 788.85
L 997.95 790.15
Q 997.8 791.15 997.7 792.05 997.65 792.45 997.55 793
L 997.5 793.4 997.5 793.6
Q 997.35 794.4 997.25 795.2 997.15 796 997.05 796.8 997 797.2 996.95 797.65
L 996.65 799.7
Q 996.55 800.65 996.4 801.5 996.85 801.5 997.4 801.5
L 997.85 801.55 998.1 801.55
Q 1001.45 801.65 1004.8 801.75
L 1011.45 801.95
Q 1011.85 801.95 1012.3 802 1012.75 802.05 1013.15 802
L 1013.65 801.9 1013.85 802
Q 1013.95 802.1 1013.9 802
L 1014.1 801.15
Q 1014.45 799.8 1014.6 797.9 1014.75 796 1014.95 794.5 1022 738.65 1027.9 682.65 1033.8 626.65 1039.55 570.6 1045.3 514.6 1052 458.7 1060.15 392.05 1070.3 325.7 1080.4 259.4 1091.7 193.25 1091.8 192.8 1091.85 192.4 1091.95 191.95 1092 191.55
L 1092.2 190.35
Q 1092.4 189.4 1092.55 188.55 1092.05 188.5 1091.5 188.45
L 1090.8 188.35
Q 1089.1 188.15 1087.4 187.95 1085.7 187.75 1084 187.5 1083.6 187.45 1083.15 187.4 1082.7 187.35 1082.3 187.3 Z"/>
</g>

<g id="Layer0_3_FILL">
<path fill="#FFFFFF" stroke="none" d="
M 882.55 535.5
Q 880.35 525.65 874.6 519.1 868.9 512.6 858.2 513.35 844.25 514.8 824.15 518.55 804 522.25 783.2 526.95 762.45 531.65 746.5 535.95
L 733.1 539.9 724.95 543
Q 711.25 549.85 702.7 559.85 694.15 569.85 690.25 582.55 686.35 595.25 686.6 610.35 686.7 618.4 688.15 631.45 689.55 644.45 692.15 660.8 694.8 677.15 698.4 695.25 702.05 713.35 706.65 731.6
L 708.1 733.7 711.95 737.5
Q 717.05 742.2 727.05 746.65 737.05 751.05 752.05 751.55 766.15 751.55 775.8 748.5 785.45 745.4 790.8 741.7
L 795.1 738.4 797.35 736.05
Q 798.8 720.3 802.15 703.3 805.5 686.35 809.8 670.95 814.1 655.55 818.35 644.55 822.65 633.55 825.95 629.75 829.15 626.3 834.9 622.5 840.65 618.7 848.15 614.7 855.7 610.65 864.2 606.45 873 601.9 878.25 594.45 883.55 587 885.1 579.7 886.7 572.35 884.4 568.1 884.95 563.6 884.85 554.45 884.7 545.3 882.55 535.5 Z"/>
</g>

<g id="Symbol_98_0_Layer0_0_FILL">
<path fill="#0987CD" stroke="none" d="
M 1137.8 562.05
L 1136.95 559.4 1136.9 559.35 1136.85 559.2 1136.8 559.15 1135.3 557 1133.35 555.15 1129.05 552.25 1120.1 547.65 1120 547.65 1114.6 545.8 1111.85 545.2 1106.2 544.55 1095 544.55 1073 547.4 1062.15 549.75 1027.75 560.15 1017.5 564.45 1017.45 564.5 1017.4 564.5 1015.2 565.7 1006.95 571.6 999.8 578.7 998.85 579.85 998.6 579.1 998.25 578.65 997.25 578.4 996.3 578.9 996 579.35 995.95 580 996.25 583.1 993.95 586.65 993.75 587.25 993.8 587.8 994.5 588.65 995.5 588.85 996 588.6 996.4 588.1 996.7 587.6 999.1 604.2 1001.6 611.7 1009.25 653.55 1029.45 743.55 1031.3 748.75 1032.55 751.2 1032.65 751.3 1032.7 751.4 1034.25 753.45 1036.1 755.35 1040.2 758.5 1047.05 762.05 1054.35 764.4 1056.8 764.95 1056.85 764.95 1075.6 767.5 1083.75 767.95 1094.75 767.5 1097.45 766.95 1097.5 766.9 1097.6 766.9 1109.45 762.1 1118.5 757.2 1122.7 754.15 1122.85 753.95 1123.05 753.8 1124.4 751.5 1125.45 749 1133.6 721.7 1133.6 721.65 1134.25 719.1 1144.05 652.95 1144.55 621.2 1144 597.5 1142.85 586.95 1138.25 569.55 1137.8 562.05 Z"/>
</g>

<g id="Symbol_99_0_Layer0_0_FILL">
<path fill="#FFFFFF" stroke="none" d="
M 1101.4 492
Q 1089.3 478.35 1074 465.7 1058.7 453 1043.5 445.35 1028.35 437.65 1016.75 438.9 1002.5 441.1 995.35 447.25 988.15 453.4 985.75 461.55 983.35 469.7 983.55 478 983.7 486.25 984.15 492.7 984.45 498.95 987.2 514.1 989.95 529.3 994.35 550.55 998.75 571.8 1004.05 596.25 1009.35 620.65 1014.75 645.3 1019.5 666.85 1023.7 686.45 1027.95 706.05 1031.25 721.95 1034.55 737.9 1036.55 748.45
L 1039.1 750.6 1044.05 753.35
Q 1050.2 756.4 1059.35 758.85 1068.55 761.25 1079 761.2 1093.9 760.8 1102.45 758.3 1110.95 755.75 1114.6 753.05
L 1117.35 750.7 1118.35 749.2
Q 1132.1 701.05 1135.7 661.6 1139.3 622.2 1136.55 592.35 1133.8 562.55 1128.45 543.3 1123.1 524.05 1118.95 516.3 1113.5 505.65 1101.4 492 Z"/>
</g>

<g id="Symbol_19_0_Layer0_0_FILL">
<path fill="#FFFFFF" stroke="none" d="
M 656.95 766.95
L 648.9 766.15
Q 647.3 766.15 646.3 767.25 645.25 768.35 645.2 769.8 645.15 771.3 646.5 772.5
L 649.1 773.9 654.55 776.1
Q 661.45 778.7 672.95 780.7 684.4 782.7 699.15 781.9 713.85 781.15 730.65 775.45 742.3 771.1 752.6 762.8 762.95 754.5 770.9 745.45 778.9 736.4 783.5 729.9
L 788.3 722.65 787.25 721.25 784.35 718.45
Q 780.55 714.95 775.95 710.9 771.3 706.9 768.6 704.6 766.5 707.95 761.25 715.5 756 723 748.5 732 741.05 741.05 732.35 748.9 723.6 756.75 714.6 760.8 704.7 764.9 693.85 766.4 683 767.85 673.25 767.75 663.55 767.6 656.95 766.95 Z"/>
</g>

<g id="Symbol_51_0_Layer0_0_FILL">
<path fill="#FFFFFF" stroke="none" d="
M 985.85 192.35
L 988.05 188.95 988.85 186.9
Q 984.8 184.8 978.9 183.9 972.95 183.05 966.7 183.05 960.45 183.1 955.45 183.75 950.4 184.4 948.15 185.35 946.3 186.4 942.55 190.3 938.8 194.2 934.75 198.95 930.65 203.7 927.75 207.15
L 924.7 210.8 926.7 212.15
Q 928.55 213.35 930.55 214.55
L 932.15 215.45 933 215.75
Q 944.4 213.9 951.85 212.6 959.25 211.3 963.9 210 968.55 208.75 971.65 207 975 204.95 979 200.7 982.95 196.4 985.85 192.35 Z"/>
</g>

<g id="Symbol_100_0_Layer0_0_FILL">
<path fill="#FFFFFF" stroke="none" d="
M 752.8 734.5
L 753 761.45
Q 753.15 786.4 753.4 818.95 753.65 851.55 753.85 876.4
L 754.05 903
Q 760.2 908.05 773.9 910.2 787.55 912.3 804.4 911.85 821.3 911.35 837.15 908.55 853.05 905.75 863.6 901
L 868.1 880.3
Q 872.25 861 877.65 835.65 883.05 810.35 887.15 791.05
L 891.5 770.55
Q 884.05 756.65 865.1 748.1 846.2 739.55 823.25 735.6 800.35 731.65 780.85 731.6 761.4 731.5 752.8 734.5 Z"/>
</g>

<g id="Symbol_22_0_Layer0_0_FILL">
<path fill="#0083CB" stroke="none" d="
M 943.65 840.8
Q 942.6 838.75 942.2 837.35 941.45 834.6 941.05 831.85 940.7 829.05 940.15 826.35
L 939.65 824.85 939.1 824.45
Q 938.5 824.55 938.05 825.8 937.65 827 937.65 828.25 937.8 831.4 938.75 835.75 939.7 840.1 941.85 843.7 943.95 847.3 947.65 848.15 951.1 848.6 953.45 845.55 955.8 842.55 957.1 838.5 958.4 834.45 958.75 831.75 958.9 830.75 958.95 828.85 959 826.95 958.7 825.25 958.4 823.5 957.45 822.95
L 957.25 822.9
Q 957.1 822.9 957.05 822.95 956.7 823.3 956.6 823.8
L 956.45 824.5
Q 956.2 826.4 956.15 828.4 956.15 830.4 955.8 832.35 955.5 834.05 954.65 836.85 953.8 839.65 952.5 842.15 951.2 844.6 949.5 845.25 947.75 845.7 946.2 844.3 944.7 842.85 943.65 840.8 Z"/>
</g>

<g id="Symbol_101_0_Layer0_0_FILL">
<path fill="#0987CD" stroke="none" d="
M 951.25 738.5
Q 951.1 735.35 950.7 733.55 950.3 731.75 949.05 731.5 947.75 731.25 945.1 732.75 944.35 734.25 944.25 736.05 944.1 737.9 944.25 739.4 942.9 740.8 941.7 742.65 940.5 744.5 939.65 746.1
L 938.55 748.25
Q 933.45 760.6 932.3 778.25 931.1 795.95 933.15 815 935.2 834.05 939.75 850.5 944.25 867 950.55 877.05 950.9 877.6 951.5 878.55 952.1 879.5 952.9 880.55 953.1 882.2 954.05 883.2 954.95 884.2 957.25 883.55
L 957.4 883.4
Q 957.6 883.45 957.75 883.4 957.95 883.4 958.15 883.35 958.15 883.2 958.15 883.05 958.15 882.9 958.15 882.7 959.7 880.65 959.8 877.45 959.95 874.3 959.55 871.7
L 959.1 868.9
Q 957.2 836.3 955.2 803.7 953.2 771.1 951.25 738.5 Z"/>
</g>

<g id="Symbol_102_0_Layer0_0_FILL">
<path fill="#FFFFFF" stroke="none" d="
M 775.35 771.35
L 780.25 779.3
Q 784.9 786.85 791.3 797.4 797.7 808 803.25 817.3 808.75 826.65 810.65 830.5 813.45 836.4 817.35 847.3 821.3 858.15 825.1 869.8 828.95 881.4 831.55 889.5
L 834.3 898
Q 840.35 902.2 856.75 905.3 873.15 908.4 893 909.25 912.85 910.15 929.4 907.7 945.9 905.2 952.25 898.3 953.15 885.95 953 873.25 952.8 860.6 952.15 848 951.45 835.4 950.9 823.35 950.15 804.95 949.25 788.35 948.4 771.7 947.6 758.65 946.8 745.6 946.3 738
L 945.9 730.15
Q 926.5 724.75 904.1 727.45 881.65 730.1 858.55 737.65 835.45 745.2 814.05 754.4 792.65 763.65 775.35 771.35 Z"/>
</g>

<g id="Symbol_23_0_Layer0_0_FILL">
<path fill="#0083CB" stroke="none" d="
M 943.35 838.65
Q 942.15 836.05 941.4 832.95 940.6 829.9 939.6 827.1
L 939.2 826.4 938.9 826.25
Q 938.6 826.4 938.45 827.1 938.3 827.8 938.3 828.5 938.5 831.6 939.5 835.45 940.5 839.25 942.25 842.4 943.95 845.55 946.3 846.7 950.3 848.25 953.15 845.6 956 842.95 957.6 838.15 959.2 833.4 959.35 828.65 959.35 827.95 959.35 826.95 959.3 825.95 959.1 825.15 958.85 824.4 958.4 824.45 958.25 824.75 958.1 825.1
L 957.95 825.6
Q 957.35 827.6 957.1 829.8 956.8 831.95 956.3 834.1 955.15 838.55 953 841.25 950.85 843.95 948.25 843.6 945.7 843.25 943.35 838.65 Z"/>
</g>

<g id="Symbol_24_0_Layer0_0_FILL">
<path fill="#FFFFFF" stroke="none" d="
M 767.75 370.25
Q 761.25 380.3 755.45 391.15 750.05 401.45 744.55 413.1 739.05 424.75 734.6 434.95 730.15 445.1 727.9 450.95
L 771.25 455.05
Q 812.5 458.4 866.55 462.3 920.65 466.2 961.5 468.5
L 992.45 469.9 1000.55 469.95 1003.75 469.5
Q 1002.1 466.45 996 460.25 989.9 454.05 982.05 446.95 974.2 439.85 967.25 434.2 960.3 428.5 957 426.55
L 927.05 411.15
Q 901.4 398.15 869.15 381.9 836.9 365.6 812.8 353.5
L 787.45 340.75
Q 785.1 344.7 779.7 352.45 774.3 360.2 767.75 370.25 Z"/>
</g>

<g id="Symbol_103_0_Layer0_0_FILL">
<path fill="#0987CD" stroke="none" d="
M 948.5 775.95
L 947.65 774.35
Q 947 773.2 946.1 771.85 945.15 770.45 944.2 769.45 943.55 769.35 943.4 769.9 943.2 770.4 943.1 770.9 942.5 773.7 942.9 775.4 943.3 777.15 944.35 778.65 945.4 780.15 946.8 782.25
L 947.45 783.9
Q 947.9 785.15 948.55 786.7 949.2 788.2 950 789.35 950.1 789.3 950.2 789.25
L 950.4 789.1
Q 950.55 788.8 950.55 788.45 950.55 788.1 950.6 787.95 951.05 786.85 950.7 784.5 950.35 782.1 949.7 779.65 949 777.2 948.5 775.95
M 857.6 787
Q 857.85 787.25 858 787.3
L 862.75 787.8
Q 866.9 788.05 871.3 788.25
L 877.15 788.55
Q 877.6 788.6 878.7 788.75 879.75 788.85 880.85 788.8 882 788.7 882.7 788.2 882.5 788 882.25 787.8
L 881.9 787.55
Q 881.5 787.25 880.8 787 880.15 786.75 879.2 786.55 879.3 786.55 879.45 786.5 879.55 786.45 879.65 786.35 879.65 786.2 879.45 786.05 879.25 785.9 879.15 785.85 878.2 785.15 875.95 784.95 873.75 784.75 871.5 784.75 869.2 784.75 867.95 784.75
L 866.25 784.6
Q 864.9 784.5 863.75 784.3 863.5 784.3 863.3 784.4 863.05 784.5 862.95 784.65 862.5 784.65 862.05 784.6 861.6 784.6 861.25 784.55 861 784.55 860.65 784.75 860.3 784.95 860.2 785.15
L 860.25 785.25 859.45 785.2
Q 859.1 785.15 858.75 785.15 858.2 785.25 857.7 785.6 857.25 785.9 857.35 786.5 857.35 786.8 857.6 787
M 945.25 654.15
Q 938.05 671.65 932.85 689.8 927.7 707.95 924.55 728.45 923.7 733.8 923 738.9 922.3 743.95 921.85 748.85 922.25 748.7 922.65 748.6 923 748.45 923.3 748.4 923.6 748.45 923.95 748.5 924.35 748.6 924.45 748.7 926.05 750.4 927.55 754.9 929 759.35 930.3 764.4 931.55 769.45 932.4 772.9 933.05 772.8 933.95 772.85 934.8 772.9 935.85 773.1 935.85 770.65 936.75 767.85 937.65 765 939.7 763.35 941.8 761.65 945.45 762.65 946.95 763.4 948.45 764.65 949.95 765.9 951.1 767.1 952.25 768.3 952.6 768.85 953.95 770.75 955.7 773.9 957.4 777.1 958.65 780.3 959.95 783.5 959.9 785.5 961.1 785.2 962.45 784.9 963.85 784.6 965.35 784.3
L 966.55 784
Q 967.55 783.75 968.75 783.4 969.9 783.05 970.85 782.65 971.6 782.2 972.55 782 973.5 781.85 974.5 782 976.05 781 978.35 780.3 980.7 779.6 982.95 779.2 985.15 778.8 986.45 778.65 987.9 778.4 989.35 778.15 990.75 777.9 992.2 777.65 993.2 777.05 994.25 776.6 995.25 776.1 996.2 775.75 996.8 775.05 997.5 774.35 998.15 773.65 998.9 773 999.4 772.55 1000.2 771.9 1000.95 771.2 1001.9 770.9 1002.85 770.6 1003.85 771.15 1003.95 771.4 1004 771.65 1004.05 771.9 1004.1 772.15 1008.4 767.4 1012.6 762.65 1016.8 757.9 1022 754.15 1022.35 753.8 1022.75 753.5 1023.15 753.2 1023.5 753.7 1023.6 754.75 1023 755.85 1022.45 756.9 1021.8 757.7
L 1020.9 758.85
Q 1019.4 760.95 1017.9 762.85 1016.35 764.8 1014.75 766.6 1019.1 762.15 1023.05 757.5 1027 752.9 1031.25 748
L 1032.25 746.95
Q 1033 746.25 1034.05 745.45 1035.05 744.7 1036.05 744.3 1036.95 746.15 1035.5 748.95 1034.05 751.75 1032.15 754.05
L 1029.8 756.85
Q 1030.924609375 755.5935546875 1032.2 754.45
L 1032.6 754.15
Q 1032.95 753.95 1033.35 753.85 1033.95 755.45 1032.55 757.55 1031.2 759.7 1029.5 761.35
L 1027.45 763.35
Q 1027.3 763.5 1027.15 763.65 1027 763.8 1026.85 763.95 1026.35 764.5 1025.8 765.05 1025.2 765.55 1024.65 766.1 1023.65 767 1022.55 767.9 1021.5 768.8 1020.35 769.7 1018.95 770.8 1017.5 771.9 1016.05 772.95 1014.55 774 1013.65 774.6 1012.8 775.2 1011.9 775.8 1011.05 776.4 1010 777.1 1009 777.8 1008 778.45 1006.95 779.15 1005.7 780.1 1004.4 781 1003.1 781.95 1001.75 782.85 1001.2 783.2 1000.65 783.6 1000.1 783.95 999.5 784.3 1000.1 784.35 1000.7 784.45 1001.3 784.5 1001.9 784.65 1006.6 782.9 1010.9 780.95 1015.15 779.05 1018.5 777.25 1034.55 768.7 1047.3 757.35 1060.05 746 1069.45 732.45 1078.8 718.95 1084.65 703.7 1087.05 698.65 1089.05 693.2 1091 687.8 1092.5 682.15 1093.6 679.6 1094.25 676.65 1094.85 673.75 1095.15 670.7 1097.15 660 1097.85 648.95 1098.55 637.9 1098.05 626.85 1098.35 608.25 1094.65 589.55 1091 570.8 1082.55 552.15 1081.75 550.4 1080.95 548.65
L 1079.35 545.1
Q 1079.05 546.95 1079.75 549.2 1080.5 551.4 1080.8 553.5 1081.15 555.6 1079.6 557 1076.8 559.2 1075.45 557.5 1074.1 555.85 1073.45 552.75 1072.8 549.7 1072.15 547.6 1068.9 548.2 1066.75 544.4 1064.6 540.55 1063.3 535.4 1061.95 530.2 1061.15 526.7
L 1060.65 524.8
Q 1060.3 523.35 1059.85 521.55 1059.4 519.7 1059 518.25 1058.4 517.6 1057.45 517.85
L 1056.65 518.05 1056.2 518.1
Q 1054.05 516.8 1053.95 514.05 1053.85 511.3 1055.15 507.65 1034.95 521.35 1017.3 539.85 999.65 558.35 985.55 578.65 971.45 599 961.85 618.25 952.5 636.7 945.25 654.15
M 1089.15 689.8
Q 1089.4 688.9 1089.6 688.05 1089.8 687.15 1090.05 686.3
L 1090.2 686.05
Q 1090.3 685.95 1090.4 685.85 1090.1 686.85 1089.8 687.85 1089.5 688.8 1089.15 689.8
M 699.55 531.7
Q 699.25 531.2 698.95 530.8 698.8 530.6 698.6 530.5 698.4 530.4 698.15 530.4 697.85 530 697.5 529.65 697.2 529.3 696.9 529 695.65 528.5 695.95 529.2 696.25 529.95 697.15 531.25 697.15 531.45 697.15 531.75 697.2 532.05 697.25 532.45
L 696.5 530.8
Q 696 529.85 695.3 528.75 694.6 527.6 693.75 526.8 692.9 526.35 692.75 526.7 692.65 527.05 692.9 527.85 693.15 528.65 693.45 529.5 697.5 542 702.45 554.5 707.35 567 711.2 579.65 715.05 592.35 715.9 605.35 715.7 609.55 715.35 614 714.95 618.45 714.3 622.6 713.6 626.7 712.6 629.95 712.35 632.1 711.95 634.25 711.6 636.4 711 638.6 710.8 639.85 710.55 641.1 710.3 642.3 710 643.5 709.95 643.75 709.9 644 709.85 644.3 709.85 644.55
L 709.75 645.25
Q 709.7 645.6 709.65 645.9 709.1 649.5 708.6 652.95 708.05 656.4 707.3 660 706.95 661.9 706.5 663.75 706.05 665.6 705.55 667.4 704.3 670.7 703.2 674.1 702.15 677.5 701.25 679.45 699.25 683.6 697.8 689.55 696.3 695.45 695.9 702.05 696.15 703.55 696.5 705.05 696.8 706.55 697.2 708.05
L 697.25 708.2
Q 697.25 708.3 697.3 708.4 697.3 708.5 697.35 708.65 697.7 709.95 698.2 711.3 698.65 712.65 699.2 714.05 699.45 714.6 699.7 715.15 699.95 715.7 700.2 716.3 700.5 716.85 700.75 717.4 701.05 717.95 701.35 718.55 701.6 719 701.85 719.45 702.1 719.85 702.35 720.3
L 702.65 720.75
Q 702.8 721 702.9 721.25 703.55 722.25 705.1 724.45 706.7 726.65 708 728.8
L 709.05 730.65 709.4 731.85
Q 709.4 732 709.3 732.3 709.2 732.6 708.85 732.75
L 708.4 732.7
Q 708.5 732.85 708.65 733 708.75 733.15 708.9 733.3 709.75 733.8 711.4 734.85 713.05 735.9 715 737.25 716.65 735.7 717.7 733.95 718.8 732.15 719.3 731.4 727.45 722.25 732.15 716.1 736.9 710 739.2 703.9 741.55 697.85 742.45 688.7 746.45 671.3 746.65 652.9 746.85 634.45 742.85 616 738.8 597.55 730.05 580.1 728.2 576.5 726.2 573.25 724.15 569.95 722.05 566.95 721.15 563.5 719.9 560.45 718.65 557.4 716.85 555.1 715.65 553.65 714.6 551.85 713.5 550 712.5 548.15
L 711.65 546.55
Q 711 545.3 710.15 543.75 709.3 542.2 708.5 541 708 540.6 707.45 540.6 706.9 540.55 706.5 541 706.4 541.1 706.35 541.3 706.3 541.45 706.35 541.7 705.3 540.1 704.25 538.55 703.2 536.95 702.15 535.45
L 701.45 534.45
Q 700.85 533.7 700.05 532.7 699.8 532.2 699.55 531.7
M 719.3 570.3
L 719.2 569.95 719.3 570.1 719.3 570.3
M 1056.6 503.4
Q 1056.65 503.6 1056.75 503.8 1056.85 503.65 1056.9 503.45 1057 503.3 1057.1 503.1 1056.95 503.05 1056.75 503 1056.6 503 1056.45 503.05 1056.5 503.25 1056.6 503.4
M 1103.3 488.7
Q 1103.05 489.15 1102.8 489.6 1103.35 489.3 1103.75 488.9 1104.2 488.5 1104.4 488 1104.25 487.95 1104.1 487.9 1103.95 487.85 1103.8 487.8 1103.55 488.25 1103.3 488.7
M 710.5 598.25
Q 710.6 598.55 710.7 598.85 710.7 598.4 710.7 597.9 710.7 597.45 710.7 596.95 710.55 597.1 710.45 597.25 710.35 597.4 710.35 597.65 710.4 597.95 710.5 598.25 Z"/>
</g>

<g id="Symbol_104_0_Layer0_0_FILL">
<path fill="#FFFFFF" stroke="none" d="
M 753.55 440.15
L 743.3 443.15
Q 733.65 446.25 721.45 453.2 709.25 460.15 701.15 471.75 693.05 483.35 695.65 500.35 697.55 510.8 700.15 523.1 702.8 535.4 707.55 552.4 712.3 569.4 720.55 593.85 722.1 598.75 721.8 607.05 721.45 615.4 720 625.5 718.5 635.6 716.65 645.85 714.75 656.1 713.15 664.9 711.75 672.2 708.9 679.7 706.1 687.2 703.8 695.3 701.45 703.4 701.4 712.4 701.4 721.4 705.55 731.7 712.7 746.05 745.25 758.1 777.8 770.15 820.5 778.45 863.25 786.75 901.05 789.85 938.85 792.95 956.55 789.4 975.15 785.55 992.8 780.25 1010.45 774.95 1026.6 765.15 1042.7 755.35 1056.6 737.95 1068.45 722.75 1076.5 702.4 1084.55 682.05 1088.55 659.25 1092.55 636.5 1092.15 613.95 1091.8 591.35 1086.8 571.7 1080.65 548.6 1073.15 532.75 1065.65 516.85 1058.5 507.15 1051.4 497.45 1046.4 492.8
L 1040.35 487.5 994.5 479.25
Q 951.75 472.1 896 463.1 840.25 454.05 798 447.3
L 753.55 440.15 Z"/>
</g>

<g id="Symbol_95_0_Layer0_0_FILL">
<path fill="#0987CD" stroke="none" d="
M 1162.4 196.4
Q 1160.05 195.8 1157.25 196.45 1157 196.5 1156.4 196.65 1155.75 196.75 1155.4 197.2 1154.05 198.2 1152.5 199.65 1150.95 201.15 1149.75 202.4
L 1148.3 204.1
Q 1142.75 212.75 1137.85 220.9 1132.95 229.1 1127.8 237 1126.15 238.8 1124.8 240.85 1123.4 242.9 1122.2 245.1 1119.5 248.8 1116.5 252.45 1113.5 256.15 1110.1 259.85 1105.6 264.9 1100.95 270.75 1096.25 276.6 1091.05 281.75
L 1090.35 282.2
Q 1090 282.4 1089.65 282.6
L 1089.4 282.7
Q 1085.2 284.95 1081.4 287.25 1077.65 289.55 1073.5 290.75 1069.35 291.95 1064 290.95 1060.45 290.15 1057.3 287.55 1054.2 284.95 1051.6 281.2 1049 277.45 1047.05 273.2 1047.05 272.45 1047.05 271.9 1047 271.3 1047 271.1 1046.65 267.95 1045.9 265 1045.15 262.05 1044.35 259.15 1044.05 256.2 1043.8 253.55 1043.55 250.85 1043.2 248.7 1042.9 246.95 1042.65 245.3 1042.4 243.7 1041.75 242.1 1041.2 240.4 1040.25 239 1039.25 237.55 1037.7 236.6 1037.45 236.35 1037.25 236.15 1037.05 236 1036.9 235.9 1033 233.75 1027.2 236 1021.4 238.2 1015.25 242.2 1009.15 246.2 1004.25 249.35 1003.2 249.85 1002.35 250.3
L 1001.2 250.95
Q 1000.95 251.05 1000.75 251.15 1000.55 251.25 1000.35 251.35 992.6 252 985.9 249.45 979.25 246.95 972.8 241.9 966.35 236.9 959.25 230.2 957 228.1 954.55 226.05 952.1 224 949.45 222.1 949.3 222.2 949.15 222.3 949 222.4 948.85 222.5 948.45 222.75 948.15 223.1 947.85 223.4 947.6 223.85 947.55 223.95 947.5 224.1 947.45 224.25 947.4 224.4
L 946.7 224.15 946.45 224.25
Q 946.4 224.6 946.7 225.25 947 225.85 947.2 226.25
L 947.25 226.45
Q 946.15 230.8 944.5 232.1 942.8 233.4 940.55 232.75 938.25 232.05 935.4 230.45
L 935.05 231.75
Q 934.7 232.9 934.15 233.7 931.25 237.15 929.25 236.55 927.2 235.95 925.05 234.45 922.95 232.95 919.75 233.7 916.2 234.8 914 235.1 911.85 235.35 909.6 234.95 907.35 234.55 903.5 233.65 897.75 232.4 894 232.35 890.2 232.3 886.5 232.7 882.85 233.15 877.45 233.35 872.05 233.5 868.3 234.7 864.55 235.85 861.35 238.3 858.1 240.75 854.4 244.8 847.55 251.9 839.95 259.35 832.35 266.8 825.6 274.95 818.85 283.1 814.5 292.25 813.95 293.4 812.85 295.9 811.8 298.4 810.35 301.75 808.9 305.05 807.2 308.8 806.9 309.55 806.55 310.3 806.2 311 805.9 311.75 805.45 312.65 805.05 313.5 804.65 314.4 804.25 315.25 803.65 316.5 803.05 317.7 802.45 318.95 801.9 320.1 802.05 321.7 802.35 323.1 802.6 324.5 803 325.6 804.8 330.25 810.1 336.05 815.4 341.9 821.4 347.5 827.4 353.15 831.3 357.1 838.8 365.35 844 371.15 849.15 377 855.55 381.15 861.9 385.35 873.1 388.6 885.35 392.2 897.1 394.95 908.9 397.7 920.85 399.35 932.75 401 945.45 401.2 951.9 401.2 958.55 401.5 965.15 401.7 971.65 402.9 978.1 404.05 984.15 406.85 990.15 409.6 995.4 411.25 1000.65 412.9 1005.8 415.1 1011 417.35 1016.7 421.65 1018.7 423.2 1022.2 425.6 1025.65 428.05 1030 430.8 1034.3 433.6 1038.85 436.15 1033.6 441.15 1028.65 446.8 1023.7 452.5 1020.55 458.1 1017.4 463.7 1017.55 468.35 1017.6 468.95 1017.7 469.55 1017.8 470.15 1018 470.7 1018.35 471.5 1018.75 472.25 1019.15 473 1019.6 473.7 1019.8 474 1020.05 474.3 1020.3 474.55 1020.55 474.8
L 1020.25 474.75
Q 1020.55 475.25 1020.95 475.75 1021.3 476.25 1021.7 476.7 1028.55 477.6 1034.95 477.3 1041.3 477.05 1047.7 476 1054.1 475 1060.95 473.6 1067.25 472.9 1073.65 471.75 1080.1 470.55 1086.55 468.8 1087.5 468.6 1088.45 468.3 1089.45 468.05 1090.45 467.75 1107.7 462.8 1123.6 453.45 1139.5 444.15 1152 429.65 1164.5 415.15 1171.65 394.7 1172.8 391.4 1174.3 386.9 1175.85 382.35 1177.2 377.35 1178.6 372.35 1179.3 367.6 1181.35 357.8 1182.7 348 1184 338.2 1184.8 328.85 1185.45 321.75 1186.2 315.75 1187 309.75 1187.35 303.6 1187.75 297.5 1187.2 290.05 1186.65 281.75 1186.45 274.2 1186.2 266.65 1185.85 259.3 1185.5 251.95 1184.4 244.3 1184.05 240.25 1183.45 236.25 1182.8 232.3 1181.8 228.45 1180.65 224 1178.75 218.1 1176.85 212.25 1173.85 206.9 1170.9 201.5 1166.6 198.65 1164.75 197 1162.4 196.4
M 1021.75 240.95
L 1021.85 240.9 1021.85 240.95 1021.75 240.95
M 984.75 252.05
L 984.35 251.9 984.2 251.8
Q 984.3091796875 251.8697265625 984.4 251.9 984.6 251.95 984.75 252.05 Z"/>
</g>

<g id="Symbol_40_0_Layer0_0_FILL">
<path fill="#FFFFFF" stroke="none" d="
M 1122.8 255.7
Q 1110 273.4 1094.75 285.3 1079.5 297.2 1063.95 294.65 1055.65 292.65 1050.65 285.8 1045.7 279 1043.2 270.45 1040.75 261.95 1039.95 254.7 1039.2 247.5 1039.2 244.7 1039.1 241.9 1037.25 240.05 1035.45 238.2 1032.75 237.9 1030 237.6 1027.25 239.6 1022.9 242.9 1016.85 247 1010.75 251.05 1003.75 253.85 996.8 256.6 989.75 256.05 986.3 255.55 980.9 251.8 975.45 248.05 969 242.55 962.55 237.1 956.1 231.5 949.65 225.85 944.15 221.65 939.8 218.15 928.8 215.2 917.8 212.2 901.4 212.95 884.95 213.7 864.2 221.35 849.8 227.1 840.35 234.2 830.9 241.3 825.95 247.15
L 822 251.95 820.15 254.8
Q 816.25 262.3 810.05 279.1 803.9 295.9 797.55 314.65 791.2 333.4 786.9 346.75
L 782.4 360.7 784.7 367.7
Q 786.85 374.25 792.8 384.7 798.7 395.1 810.25 407.25 821.75 419.4 840.75 431.1 864.35 445.05 887.95 453.8 911.55 462.55 931.45 467.05 951.35 471.55 963.95 472.8 1002.1 476.9 1032.15 474.8 1062.15 472.75 1084.1 465.75 1106.05 458.75 1119.95 448.05 1138.6 433.8 1151.75 413.1 1164.95 392.4 1172.05 367 1179.15 341.65 1179.65 313.25 1180.05 279.35 1178 256.95 1175.95 234.6 1173.45 222.6
L 1170.05 207.8
Q 1168.55 202.4 1165.05 200.7 1161.55 199 1158.1 200.15 1154.65 201.3 1153.2 204.55
L 1143.75 223.05
Q 1135.55 238 1122.8 255.7 Z"/>
</g>

<g id="Symbol_26_0_Layer0_0_FILL">
<path fill="#FFFFFF" stroke="none" d="
M 889.05 162.7
Q 882.2 166.25 875.95 171.05 869.7 175.8 865.25 180.35 860.8 184.9 859.45 187.7 858.55 190.25 858.1 197.25 857.65 204.25 857.5 212.35 857.35 220.4 857.35 226.25
L 857.35 232.35 860.15 232.1
Q 862.8 231.85 866.3 231.45 869.8 231.05 872.55 230.65
L 874.75 230.25 875.7 229.95
Q 884.4 218.9 889.6 211 894.75 203.05 897.2 197.95 899.6 192.85 900.1 190.3 900.55 188.15 901.15 183.4 901.8 178.65 902.25 173.2 902.7 167.75 902.75 163.55
L 902.55 160.15 902 158.35
Q 895.85 159.15 889.05 162.7 Z"/>
</g>

<g id="Symbol_27_0_Layer0_0_FILL">
<path fill="#1D2013" stroke="none" d="
M 1009 492.75
Q 1008.85 492.65 1008.7 492.6 1008.6 492.55 1008.45 492.45
L 1008.6 492.75 1009 492.75 Z"/>

<path fill="#0987CD" stroke="none" d="
M 957.05 500.85
Q 955.1 501.3 952.4 502 949.75 502.7 947.15 503.6 948.45 502.65 949.8 501.7 951.15 500.8 952.55 499.9 963.4 492.15 975.8 490.3 988.25 488.45 1001.15 492.35 1002 492.45 1002.9 492.55 1003.8 492.65 1004.65 492.7 1005.65 492.75 1006.65 492.8 1007.6 492.8 1008.6 492.75
L 1008.45 492.45
Q 1008.6 492.55 1008.7 492.6 1008.85 492.65 1009 492.75
L 1009.15 492.75 1009.7 492.7
Q 1010 492.65 1010.3 492.65 1010.7 492.6 1011.05 492.45 1011.45 492.35 1011.8 492.2
L 1011.75 492.1
Q 1010.7 490.25 1007.85 488.7 1004.95 487.2 1001.8 486.15 998.6 485.15 996.6 484.8 995.65 484.65 994.6 484.45 993.55 484.3 992.65 484.35 986.2 483.8 979.05 485.1 971.95 486.45 965.05 489.25 958.15 492.05 952.4 495.8 950.75 497 949.2 498.3 947.65 499.6 946.2 501.05
L 946.05 501.45
Q 945.45 502 944.9 502.55 944.3 503.15 943.8 503.7 943.3 504.3 942.85 504.9 942.4 505.5 941.95 506.15 942.3 506.05 942.55 506 942.8 505.95 943 505.9 943.45 505.8 943.85 505.65 944.3 505.55 944.75 505.45 950.9 503.9 957.15 502.4 963.4 500.95 969.6 499.45 970.3 499.3 971 499.1 971.7 498.9 972.4 498.65 970.45 498.45 967.6 498.8 964.75 499.15 961.9 499.75 959.05 500.4 957.05 500.85
M 992 487.25
Q 991.75 487.2 991.5 487.15 991.6470703125 487.15 991.8 487.15 992.2 487.2 992.6 487.25 992.45 487.25 992.3 487.25 992.15 487.25 992 487.25 Z"/>
</g>

<g id="Symbol_28_0_Layer0_0_FILL">
<path fill="#FFFFFF" stroke="none" d="
M 986.25 295.45
Q 983.9 288.7 978.35 283.8 972.85 278.85 963.05 277.05 953.1 275.55 946.15 278.6 939.15 281.7 934.5 287.45 929.85 293.25 927 299.8 924.15 306.3 922.45 311.7 931.35 312.7 942.55 314.6 953.75 316.45 965.55 318.7 977.3 320.9 987.9 323.05 988.85 316.6 988.7 309.4 988.55 302.15 986.25 295.45 Z"/>
</g>
</defs>



<g transform="matrix( 0.6455230712890625, 0.9164886474609375, 0.381072998046875, -1.0294036865234375, 351.55,-323.15) ">
<use xlink:href="#Layer0_0_FILL"/>
</g>

<g transform="matrix( 1.049468994140625, 0.0149383544921875, -0.0149383544921875, 1.049468994140625, 35.55,28.55) ">
<use xlink:href="#Layer0_1_FILL"/>
</g>

<g transform="matrix( 1.049468994140625, 0.0149383544921875, -0.0149383544921875, 1.049468994140625, 35.55,28.55) ">
<use xlink:href="#Layer0_2_FILL"/>
</g>

<g transform="matrix( 0.660247802734375, -0.158782958984375, 0.1195831298828125, 0.7019195556640625, 174.7,297.75) ">
<use xlink:href="#Layer0_3_FILL"/>
</g>

<g transform="matrix( -0.1656341552734375, 0.651153564453125, 0.6457672119140625, 0.1672821044921875, 786.65,-132.55) ">
<g transform="matrix( 1, 0, 0, 1, 0,0) ">
<use xlink:href="#Symbol_98_0_Layer0_0_FILL"/>
</g>
</g>

<g transform="matrix( -0.1656341552734375, 0.651153564453125, 0.6457672119140625, 0.1672821044921875, 786.65,-132.55) ">
<g transform="matrix( 1, 0, 0, 1, 0,0) ">
<use xlink:href="#Symbol_99_0_Layer0_0_FILL"/>
</g>
</g>

<g transform="matrix( -0.663238525390625, -0.0815277099609375, -0.07684326171875, 0.6663970947265625, 1521.55,314.9) ">
<g transform="matrix( 1, 0, 0, 1, 0,0) ">
<use xlink:href="#Symbol_19_0_Layer0_0_FILL"/>
</g>
</g>

<g transform="matrix( 0.5041351318359375, 0.3809661865234375, -0.3970947265625, 0.5671539306640625, 576.75,-9.15) ">
<g transform="matrix( 1, 0, 0, 1, 0,0) ">
<use xlink:href="#Symbol_51_0_Layer0_0_FILL"/>
</g>
</g>

<g transform="matrix( 0.7670135498046875, 0.0752716064453125, 0.065704345703125, 0.8054046630859375, 131.25,92.85) ">
<g transform="matrix( 1, 0, 0, 1, 0,0) ">
<use xlink:href="#Symbol_100_0_Layer0_0_FILL"/>
</g>
</g>

<g transform="matrix( 0.744873046875, 0.18902587890625, 0.0695953369140625, 0.75836181640625, 24.25,39.45) ">
<g transform="matrix( 1, 0, 0, 1, 0,0) ">
<use xlink:href="#Symbol_22_0_Layer0_0_FILL"/>
</g>
</g>

<g transform="matrix( 0.68768310546875, -0.0159454345703125, 0.1889190673828125, 0.8092041015625, 185.95,167.05) ">
<g transform="matrix( 1, 0, 0, 1, 0,0) ">
<use xlink:href="#Symbol_101_0_Layer0_0_FILL"/>
</g>
</g>

<g transform="matrix( 0.68768310546875, -0.0159454345703125, 0.1889190673828125, 0.8092041015625, 185.95,167.05) ">
<g transform="matrix( 1, 0, 0, 1, 0,0) ">
<use xlink:href="#Symbol_102_0_Layer0_0_FILL"/>
</g>
</g>

<g transform="matrix( 0.7339324951171875, 0.0230712890625, 0.1419677734375, 0.7414093017578125, 173.85,204.15) ">
<g transform="matrix( 1, 0, 0, 1, 0,0) ">
<use xlink:href="#Symbol_23_0_Layer0_0_FILL"/>
</g>
</g>

<g transform="matrix( 0.6411285400390625, 0.24224853515625, -0.1544952392578125, 0.620574951171875, 372.8,101.8) ">
<g transform="matrix( 1, 0, 0, 1, 0,0) ">
<use xlink:href="#Symbol_24_0_Layer0_0_FILL"/>
</g>
</g>

<g transform="matrix( -0.621734619140625, -0.1197662353515625, -0.0888214111328125, 0.725799560546875, 1474.65,326.75) ">
<g transform="matrix( 1, 0, 0, 1, 0,0) ">
<use xlink:href="#Symbol_103_0_Layer0_0_FILL"/>
</g>
</g>

<g transform="matrix( -0.621734619140625, -0.1197662353515625, -0.0888214111328125, 0.725799560546875, 1474.65,326.75) ">
<g transform="matrix( 1, 0, 0, 1, 0,0) ">
<use xlink:href="#Symbol_104_0_Layer0_0_FILL"/>
</g>
</g>

<g transform="matrix( 0.6298370361328125, 0.307586669921875, -0.32733154296875, 0.5959014892578125, 447.95,50.8) ">
<g transform="matrix( 1, 0, 0, 1, 0,0) ">
<use xlink:href="#Symbol_95_0_Layer0_0_FILL"/>
</g>
</g>

<g transform="matrix( 0.6298370361328125, 0.307586669921875, -0.32733154296875, 0.5959014892578125, 447.95,50.8) ">
<g transform="matrix( 1, 0, 0, 1, 0,0) ">
<use xlink:href="#Symbol_40_0_Layer0_0_FILL"/>
</g>
</g>

<g transform="matrix( 0.3143310546875, 0.586944580078125, -0.5088653564453125, 0.434600830078125, 775.75,-154.15) ">
<g transform="matrix( 1, 0, 0, 1, 0,0) ">
<use xlink:href="#Symbol_26_0_Layer0_0_FILL"/>
</g>
</g>

<g transform="matrix( -0.38433837890625, -0.16168212890625, -0.1909332275390625, 0.5284881591796875, 1434.8,467.2) ">
<g transform="matrix( 1, 0, 0, 1, 0,0) ">
<use xlink:href="#Symbol_27_0_Layer0_0_FILL"/>
</g>
</g>

<g transform="matrix( 0.5989532470703125, 0.292999267578125, -0.3148651123046875, 0.572723388671875, 453.4,61.6) ">
<g transform="matrix( 1, 0, 0, 1, 0,0) ">
<use xlink:href="#Symbol_28_0_Layer0_0_FILL"/>
</g>
</g>
</svg>
