
<svg xmlns="http://www.w3.org/2000/svg" version="1.1" xmlns:xlink="http://www.w3.org/1999/xlink" preserveAspectRatio="none" x="0px" y="0px" width="760px" height="880px" viewBox="0 0 760 880">
<defs>


<g id="Symbol_13_0_Layer0_0_FILL">
<path fill="#AED044" stroke="none" d="
M 678.4 334.85
Q 676.6 333.65 674.8 332.4 673 331.2 671.25 329.95 666.15 326.35 661.35 322.65 656.5 318.95 652.1 315.1 663 334.95 675.95 353 688.85 371 698.6 383.15 703.45 389.3 708.55 395.05 713.6 400.8 718.85 406.15 714.65 407.95 711.6 411.2 708.5 414.4 706.2 418.65 705.4 420.15 704.7 421.7 704.05 423.2 703.5 424.75 704.3 428.95 705.7 432.95 707.1 436.95 709 440.8 712.35 447.4 716.8 453.35 721.25 459.3 726.25 464.5 729.85 468.25 733.75 471.9 737.65 475.55 741.85 479.15 745.1 481.95 748.45 484.65 751.85 487.35 755.3 490.05 763.05 495.95 771.15 501.6 779.2 507.3 787.4 512.7
L 787.7 512.9 787.9 513
Q 788 513.05 788.1 513.15 788.95 513.7 789.8 514.25
L 791.5 515.4
Q 795.25 517.85 798.95 520.25 802.65 522.6 806.3 524.95
L 815.15 530.6
Q 819.5 533.4 823.7 536.1 825.5 537.25 827.3 538.4 829.05 539.5 830.85 540.6 834.1 542.65 837.35 544.65 840.55 546.6 843.8 548.5 867.3 562.45 890.95 573.5 914.55 584.55 938.95 593.15 939.3 593.25 939.7 593.4 940.05 593.5 940.45 593.65 942.55 594.4 944.7 595.1 946.85 595.85 949 596.55 949.5 595.6 950.1 594.7 950.65 593.8 951.2 592.85 956.5 584.25 962.7 575.7 968.9 567.2 975.85 558.85 987.8 544.5 1001.25 531.15 1014.7 517.85 1028.85 506.15
L 1028.75 506.15 1028.55 506.05 1027.9 505.9
Q 1027.6 505.8 1027.25 505.75 1025.1 505.15 1022.95 504.55 1020.75 503.95 1018.6 503.3 1005.8 499.65 993.2 495.45 980.6 491.25 968.15 486.6 960.95 486.5 953.85 486.35 946.75 486.25 939.9 486.15 933.1 485.85 931.3 482.95 929.5 480 932.5 477.55 926.5 476.25 917.7 474 908.9 471.75 901.75 469.2
L 896.1 466.7 893.45 464.3
Q 893 462.8 893.1 461.75 893.2 460.7 893.8 460 884.75 454.95 875.6 449.7 866.4 444.45 857.2 439.35 847.65 434.1 838.35 428.5 829.05 422.9 819.9 417.15 817.95 416.85 816.05 416 814.1 415.15 812.75 414.3 805.55 409.75 798.25 405.25 790.9 400.8 783.5 396.3 781.75 396.5 779.75 395.6 777.7 394.7 775.65 393.35 765.6 387.05 755.1 380.55 744.65 374 734.2 367.25 726.05 362.9 717.65 358.25 709.25 353.65 700.8 348.7 700.65 348.65 700.5 348.55 700.3 348.45 700.15 348.35 694.6 345.1 689.15 341.75 683.7 338.35 678.4 334.85
M 683.45 168.3
Q 681 166.95 678 166.05 674.95 165.1 672.1 165.55 671.5 165.4 670.75 165.45
L 669.8 165.55
Q 656.9 167.15 653.05 174.8 649.2 182.4 651.25 193.05 653.35 203.75 658.25 214.6 659.4 220.2 661.75 226.4 664.05 232.65 667.2 239.05 659.35 234.45 650.4 233.95 641.5 233.45 636.8 243.55
L 636.65 244.1
Q 636.5 244.6 636.3 245 635.95 246.1 635.65 247.5
L 635.3 249.2
Q 634.05 256.45 634.7 264.3 635.35 272.2 637.75 279.4 638.3 281.75 638.95 284.15 639.65 286.55 640.45 289
L 643 290.7
Q 644.3 291.6 645.55 292.45 647.45 293.75 649.4 295.05
L 654.45 298.5
Q 656.7 300 658.95 301.55
L 663.5 304.6
Q 667.3 307.15 671.1 309.7 674.9 312.25 678.7 314.8
L 678.7 314.85 683.85 318.25
Q 688.65 321.5 693.5 324.7 698.35 327.9 703.15 331.1 714.4 338.5 725.7 345.85 736.95 353.15 748.3 360.3 753.15 362.95 757.8 365.65 762.45 368.35 766.85 371.1 777.3 377.5 788.3 383.8 799.3 390.05 809.05 397 809.4 397.25 809.7 397.5
L 810.4 398
Q 814 400.1 817.65 402.15 821.25 404.2 824.9 406.25 837.25 412.95 849.6 419.45 862 426 874.35 432.3 901.7 446.3 928.6 456.7 955.45 467.1 983.6 475.45 985.9 475.35 988.2 475.3 990.5 475.25 992.85 475.15 985.25 469.6 977.75 464 970.3 458.4 962.95 452.7 900.7 404.65 846.3 352.6 791.9 300.55 744.95 245.5 732.85 231.3 721.2 217 709.6 202.65 698.45 188.15 694.65 183.2 690.9 178.25 687.15 173.3 683.45 168.3 Z"/>
</g>

<g id="Symbol_14_0_Layer0_0_FILL">
<path fill="#AED044" stroke="none" d="
M 1347.85 394.9
L 1345.5 392.95 1339.25 392.85
Q 1331.95 395.05 1324.95 397.05 1317.95 399.05 1311.6 400.4 1311.3 400.45 1311.05 400.5 1310.75 400.55 1310.45 400.6 1228.85 423 1141.25 431.85 1053.65 440.7 962.85 439.65 922.1 441.25 881.05 441.2 840 441.15 799 438.95 792.9 438.6 786.85 438.25 780.75 437.85 774.7 437.4 772.15 437.2 769.55 437 766.95 436.8 764.35 436.6 756.4 435.95 748.25 435.2 740.1 434.4 731.85 433.45 729.25 433.95 726.35 435.1 723.45 436.25 722.1 438.35 721.6 438.55 721.25 439
L 720.8 439.6
Q 715.05 447.65 719.5 454.25 723.9 460.85 734.3 466 744.65 471.15 756.7 474.85 762.2 477.55 768.9 479.95 775.6 482.35 782.9 484.45 781.55 484.95 779.75 485.75 778 486.55 776.6 487.45 775.6 488.05 774.65 488.6 773.75 489.2 772.85 489.8 772.75 490.05 772.45 490.2
L 772.1 490.4
Q 766.5 496.55 771.2 502.95 775.9 509.4 785.85 515.05 800.5 526.25 826.15 533.7 851.85 541.2 878.8 545.6 905.8 550 924.3 552.05 932.35 553 940.1 553.6 947.85 554.2 955.35 554.5 954.65 557.85 955.7 561.45 956.8 565.05 959.2 568.85 960.05 570.25 961.1 571.6 962.1 572.95 963.2 574.25 975.85 583.95 994.1 588.45 1012.3 592.95 1031.6 594.55 1050.95 596.15 1066.9 597.15 1066.9 598.4 1067.35 599.6 1067.85 600.8 1068.35 601.65 1077 614.15 1091.65 619.05 1106.3 623.95 1121.9 624.3 1139.05 625.05 1157.6 623.55 1176.1 622.05 1195.1 618.75 1198.75 617.4 1202.4 616.1 1206 614.75 1209.65 613.4 1222.3 608.6 1234.75 603.65 1247.15 598.7 1259.3 593.7 1264.35 591.6 1269.35 589.5 1274.35 587.45 1279.3 585.35 1280.9 584.7 1282.45 584.05 1284 583.35 1285.6 582.7 1290.1 580.75 1294.65 578.65 1299.2 576.6 1303.75 574.45 1314.25 569.5 1324.5 564.1 1334.75 558.7 1344.55 552.9 1345.95 552.1 1347.25 551.25 1348.6 550.45 1349.95 549.65 1350.1 549.55 1350.25 549.45
L 1350.55 549.25
Q 1350.5 549.1 1350.45 548.95 1350.4 548.8 1350.3 548.7 1350.15 548.6 1349.95 548.5 1349.8 548.4 1349.6 548.35 1348.35 544.2 1347 540.3 1345.65 536.4 1345.25 534.85 1337.45 506.15 1326.7 477.65 1315.95 449.15 1307.2 420.35 1307.05 419.85 1306.85 418.8 1306.65 417.75 1306.25 416.4 1315.1 413.45 1323.15 410.15 1331.2 406.8 1338.35 403.15
L 1345.7 398.45 1347.85 394.9
M 796.3 497.5
L 795.8 497.2
Q 795.6 497.05 795.35 496.9 795.4 496.7 795.45 496.55 795.5 496.35 795.55 496.15 795.75 496.5 795.9 496.85 796.1 497.15 796.3 497.5
M 776.95 502.4
Q 777 502.55 777 502.7 775.95 501.7 775.2 500.65 774.45 499.65 774.05 498.6 774.65 499.5 775.35 500.35 776.1 501.2 776.85 502.05 776.9 502.2 776.95 502.4 Z"/>
</g>

<g id="Symbol_7_0_Layer0_0_FILL">
<path fill="#AED044" stroke="none" d="
M 793 728.5
L 804.5 735.2
Q 815.8 741.55 835.15 750 854.5 758.4 879 765
L 889.25 742.3
Q 898.45 720.9 910.3 692.8 922.15 664.75 931.1 643.45
L 940.5 621 915.1 609.95 793 728.5 Z"/>
</g>

<g id="Symbol_15_0_Layer0_0_FILL">
<path fill="#AED044" stroke="none" d="
M 1126.45 316.6
L 1108 333.45
Q 1093.35 347.55 1074.65 365.7 1056 383.85 1040.2 398.95
L 1018.5 418.75 1010.45 429.15 997.7 449.75
Q 982.6 475.4 962.3 507.95 942.05 540.45 920.75 566.3 899.45 592.15 881.3 597.75 863.35 603.05 853.05 615.55 842.7 628.1 842.45 638.5 842.15 648.9 854.3 647.7
L 870.15 641.3 880.85 634.15 893.4 624.35
Q 908.15 613 945.6 597.6 983 582.25 1025.7 564.65 1068.35 547 1098.8 528.8 1146.3 499.3 1173.75 473.9 1201.2 448.5 1215.35 422.2 1229.5 395.85 1237.1 363.6 1242.2 339.45 1227.85 327.85 1213.45 316.3 1191.05 313.4 1168.6 310.5 1149.6 312.3
L 1134.3 314.25 1126.45 316.6 Z"/>
</g>

<g id="Symbol_8_0_Layer0_0_FILL">
<path fill="#AED044" stroke="none" d="
M 1037.75 310.3
Q 1009.25 300.8 986.6 302.35 963.9 303.9 957.85 315.55 952.7 327.45 948.8 344.7 944.85 362 941.6 380.45 938.35 398.9 935.2 414.45 934.25 425.55 959.65 428.65 985.05 431.8 1019.6 430.35 1054.15 428.9 1080.75 426.35
L 1108.75 423.5 1103.9 402.35
Q 1099.35 382.75 1094.8 363
L 1089.75 341.35
Q 1066.25 319.8 1037.75 310.3 Z"/>
</g>

<g id="Symbol_9_0_Layer0_0_FILL">
<path fill="#AED044" stroke="none" d="
M 1012.35 269.55
Q 997.1 271.3 987.9 276.75 978.7 282.25 974.4 287.2 970.05 291.85 964.65 301 959.25 310.15 954.8 320.5 950.35 330.85 948.9 338.95 948 346.8 957.15 356.25 966.25 365.75 981.25 373.2 996.2 380.65 1012.8 382.4 1029.5 383.65 1046.8 379.85 1064.15 376 1077 369.5 1089.85 363 1093.1 356.25 1093 348.8 1088.15 331 1083.35 313.25 1073.85 296.25 1064.3 279.25 1050.15 274.15 1027.6 267.85 1012.35 269.55 Z"/>
</g>

<g id="Symbol_10_0_Layer0_0_FILL">
<path fill="#AED044" stroke="none" d="
M 1099.4 333.3
Q 1110.85 323.1 1118.6 311
L 1115.05 308.9 1104.95 304.7
Q 1091.55 299.45 1068.2 297.6
L 1071.15 308.1
Q 1074.2 317.9 1077.85 329.4 1081.5 340.9 1083.4 346.7
L 1099.4 333.3 Z"/>
</g>

<g id="Symbol_153_0_Layer0_0_FILL">
<path fill="#0083CB" stroke="none" d="
M 1035.4 302.25
L 1033.5 301.25 1031.5 300.65 1029.35 300.45 1027.25 300.65 1025.25 301.25 1023.35 302.25 1021.75 303.6 1020.4 305.25 1019.4 307.1 1018.75 309.15 1018.55 311.25 1018.75 313.35 1019.4 315.4 1020.4 317.25 1021.75 318.9 1023.35 320.25 1025.25 321.25 1027.25 321.85 1029.35 322.05 1031.5 321.85 1033.5 321.25 1035.4 320.25 1037 318.9 1038.35 317.25 1039.35 315.4 1040 313.35 1040.2 311.25 1040 309.15 1039.35 307.1 1038.35 305.25 1037 303.6 1035.4 302.25 Z"/>
</g>

<g id="Symbol_12_0_Layer0_0_FILL">
<path fill="#AED044" stroke="none" d="
M 1040.4 290.7
Q 1036.7 285.45 1029.15 285.1 1020.3 285.55 1015.95 292.1 1011.65 298.6 1010.8 306.75
L 1046.25 307 1045.2 301.3
Q 1044.1 296 1040.4 290.7 Z"/>
</g>

<g id="Layer0_9_FILL">
<path fill="#FFFFFF" stroke="none" d="
M 516.25 584.75
Q 516.05 584.65 515.85 584.6 515.65 584.55 515.5 584.75 515.8 585 516.3 585.3 516.75 585.6 517.2 585.8
L 517.75 586.1
Q 521.05 588.4 523.7 591.65 526.35 594.95 528.45 598.8 530.55 602.65 532.2 606.65 533.8 610.7 535.1 614.45 534.5 614.1 534.1 613.9
L 533.8 613.75 533.65 613.7
Q 532.05 613.1 530.8 612.7 529.5 612.25 528.25 611.75 526.95 611.25 525.45 610.4 524.1 609.6 522.35 608.9 520.55 608.2 518.6 607.65 516.65 607.1 514.8 606.7 512.95 606.35 511.4 606.3 511.3 606.25 511.15 606.25 511 606.25 510.95 606.4 511.3 606.7 511.9 606.9 512.55 607.05 513.1 607.15
L 513.85 607.25
Q 516 607.7 517.7 608.2 519.4 608.7 520.9 609.35 522.45 609.95 524 610.7 525.6 611.5 527.5 612.45 529 613.2 530.3 613.6 531.6 614.05 532.85 614.5 534.1 614.95 535.45 615.8 535.55 616.05 535.65 616.2 535.75 616.3 535.95 616.25
L 536 616.15
Q 536.1 616.2 536.2 616.3 536.3 616.35 536.4 616.45 536.5 616.55 536.75 616.75 536.95 616.95 537.25 617.05 537.5 617.15 537.75 617 537.7 616.65 537.4 616.3 537.15 615.9 536.75 615.6 536.35 615.25 535.9 614.95 535.85 614.6 535.75 614.25 535.65 613.9 535.55 613.6 535.45 613.35 535.4 613.25 534.6 610.05 532.7 605.85 530.8 601.6 528.2 597.35 525.6 593.05 522.65 589.7 519.65 586.35 516.6 584.9 516.45 584.85 516.25 584.75 Z"/>
</g>

<g id="Symbol_142_0_Layer0_0_FILL">
<path fill="#FFFFFF" stroke="none" d="
M 1083.1 235.75
Q 1075.9 227.75 1072.35 221.15
L 1057.35 370.05
Q 1059.7 371 1063.95 373.45 1068.15 375.9 1073.45 379.1 1078.8 382.3 1084.45 385.4 1090.15 388.5 1095.45 390.7 1113.45 397.95 1130.85 401.5 1148.25 405.1 1163.7 405.95 1179.15 406.8 1191.25 405.8 1203.35 404.8 1210.7 402.85 1216.15 401.4 1223.3 394.6 1230.45 387.85 1237.6 376.95 1244.8 366.05 1250.25 352.15 1255.75 338.25 1257.9 322.5 1258.9 314.45 1259.4 302.75 1259.85 291.05 1260.3 279.8 1260.75 268.5 1261.45 261.7
L 1261.9 258.8 1262.4 256.95 1263 256.2 1263.65 256.55
Q 1262.7 252.55 1258.85 253.55 1254.95 254.55 1246.9 258.65 1238.85 262.75 1225.45 268 1212.05 273.3 1192.05 277.8 1174.65 281.55 1160.9 281.15 1147.2 280.8 1136.4 277 1125.65 273.15 1117.15 266.65 1108.15 259.85 1099.2 251.8 1090.25 243.75 1083.1 235.75 Z"/>
</g>

<g id="Symbol_143_0_Layer0_0_FILL">
<path fill="#0987CD" stroke="none" d="
M 1054.25 204.05
Q 1053.65 203.9 1053 203.85 1052.35 203.75 1051.75 203.65 1050.25 203.3 1048.9 202.85 1047.55 202.4 1046 202.25 1045.25 202.2 1044.55 202.1 1043.8 202 1043.1 201.9
L 1041.9 201.65
Q 1041 201.5 1040.2 201.3 1040.15 201.7 1040.15 202.2
L 1040.1 202.55 1040.1 202.75
Q 1039.9 206 1039.8 209.25 1039.65 212.55 1039.3 215.75 1038.8 220.35 1038.9 225.15 1038.95 229.95 1038.95 234.6 1038.75 246.85 1038.3 259.15 1037.85 271.4 1037.65 283.7 1037.4 298.35 1036.6 313 1035.8 327.6 1035.1 342.25 1034.4 356.9 1034.5 371.55 1034.5 374.5 1034.55 377.5 1034.65 380.55 1035.4 383.4 1035.5 383.7 1035.55 384 1035.65 384.3 1035.75 384.55
L 1036.15 385.25
Q 1036.5 385.85 1036.75 386.35 1037.15 386.85 1037.75 387.2 1038.4 387.55 1038.9 387.45 1039.95 387.1 1040.3 386.3 1040.7 385.5 1040.8 384.5 1040.85 383.5 1040.9 382.55 1042.25 369.85 1043.15 357.1 1044 344.35 1044.8 331.65 1045.15 325.35 1045.6 319.25 1046.05 313.1 1047 306.85 1047.85 301.3 1048.95 295.8 1050.05 290.3 1051.2 284.85
L 1051.35 284.05
Q 1051.5 283.4 1051.6 282.85 1051.6 283.3 1051.55 283.8
L 1051.55 284.45
Q 1051.3 289.25 1051.3 294 1051.3 298.75 1051 303.55 1050.5 309.7 1049.9 316.2 1049.35 322.7 1049.25 329.2 1049.2 335.7 1050.15 341.8 1050.55 344.2 1050.45 346.3 1050.35 348.35 1050.2 350.75 1050.15 351.3 1050.1 352.2 1050.05 353.15 1050.2 353.65
L 1050.65 354.45 1050.95 354.75 1051.2 354.55 1051.45 353.9
Q 1051.45 354.35 1051.4 354.9
L 1051.4 355.35 1051.35 355.6
Q 1051 361.35 1050.45 367.1 1049.9 372.85 1049.9 378.6 1049.9 380.9 1049.85 383.25 1049.75 385.55 1050.05 387.85 1050.1 388.25 1050.2 388.6 1050.25 389 1050.35 389.35
L 1050.65 390.3
Q 1050.95 391 1051.35 391.55 1051.8 391.3 1052.25 390.9
L 1052.85 390.35
Q 1054.2 388.75 1054.5 386.15 1054.85 383.5 1054.7 380.75 1054.6 378 1054.6 376 1054.95 367.1 1055.75 358.1 1056.5 349.15 1057.05 340.2 1057.7 330.6 1058.1 320.75 1058.5 310.9 1058 301.3 1057.9 298 1058 294.65 1058.15 291.35 1058.2 288.05 1058.3 277.55 1058.7 267.1 1059.05 256.65 1059.1 246.15 1059.15 237.3 1059.25 228.45 1059.3 219.6 1058.85 210.8 1058.8 209.95 1058.8 209.15 1058.75 208.35 1058.65 207.55 1058.6 207.2 1058.6 206.75 1058.55 206.35 1058.4 206
L 1058.2 205.65 1058 205.5 1057.75 205.45 1057.3 205.3
Q 1056.55 204.95 1055.8 204.65 1055 204.3 1054.25 204.05 Z"/>
</g>

<g id="Symbol_144_0_Layer0_0_FILL">
<path fill="#FFFFFF" stroke="none" d="
M 1053.75 209.5
L 1053.05 209.5
Q 1051.35 209.55 1049.65 209.6 1047.9 209.65 1046.2 209.7 1045.75 209.7 1045.35 209.7 1044.9 209.7 1044.5 209.75
L 1043.45 209.75
Q 1042.6 209.8 1041.9 209.8 1041.9 210.3 1041.85 210.85
L 1041.85 211.55
Q 1039.85 281.45 1037.15 351.4 1034.45 421.35 1029.85 491.2 1025.2 561 1017.45 630.6 1013 670 1008.2 709.35 1003.4 748.75 998.2 788.05 998.15 788.45 998.1 788.85 998.05 789.25 998 789.65
L 997.85 790.6
Q 997.75 791.4 997.65 792.05 997.6 792.45 997.55 793
L 997.45 793.65
Q 997.35 794.45 997.25 795.25 997.15 796.05 997.05 796.85
L 996.95 797.7
Q 996.9 798.1 996.8 798.55
L 996.65 799.75
Q 996.55 800.7 996.45 801.55
L 997.85 801.55 998.1 801.6
Q 1001.45 801.65 1004.8 801.75 1008.15 801.85 1011.5 801.9 1011.85 801.95 1012.35 802 1012.8 802.05 1013.15 801.95
L 1013.65 801.9 1013.9 801.95
Q 1014 802.05 1013.95 801.95
L 1013.95 801.7 1014.1 801.1
Q 1014.45 799.75 1014.6 797.85 1014.75 795.95 1014.9 794.45 1020.3 749.1 1025.6 703.75 1030.95 658.45 1035.45 613.05 1039.95 567.65 1043 522.05 1046.2 472.6 1048.35 423.2 1050.5 373.75 1051.9 324.25 1053.35 274.8 1054.45 225.3 1054.5 221.95 1054.6 218.65 1054.65 215.35 1054.75 212.05
L 1054.8 209.45
Q 1054.3 209.45 1053.75 209.5 Z"/>
</g>

<g id="Symbol_145_0_Layer0_0_FILL">
<path fill="#FFFFFF" stroke="none" d="
M 884.4 568.1
L 888.7 550.3
Q 892.3 537.2 894.7 522.55 897.15 507.9 894.55 498.6 891.95 489.3 880.35 492.15 866.75 496.05 845.1 502.65 823.4 509.25 800.4 516.6 777.35 523.9 759.65 529.95
L 744.95 535.15 736.25 538.7
Q 722.35 545.65 711.1 556.7 699.8 567.7 693.2 581.45 686.55 595.2 686.6 610.35 686.75 621.25 689.2 640.45 691.7 659.7 696.1 683.4 700.55 707.15 706.65 731.6
L 708.1 733.7 711.95 737.5
Q 717.05 742.2 727.05 746.65 737.05 751.05 752.05 751.55 766.15 751.55 775.8 748.5 785.45 745.4 790.8 741.7
L 795.1 738.4 797.35 736.05
Q 798.8 720.3 802.15 703.3 805.5 686.35 809.8 670.95 814.1 655.55 818.35 644.55 822.65 633.55 825.95 629.75 829.15 626.3 834.9 622.5 840.65 618.7 848.15 614.7 855.7 610.65 864.2 606.45 873 601.9 878.25 594.45 883.55 587 885.1 579.7 886.7 572.35 884.4 568.1 Z"/>
</g>

<g id="Symbol_98_0_Layer0_0_FILL">
<path fill="#0987CD" stroke="none" d="
M 1137.8 562.05
L 1136.95 559.4 1136.9 559.35 1136.85 559.2 1136.8 559.15 1135.3 557 1133.35 555.15 1129.05 552.25 1120.1 547.65 1120 547.65 1114.6 545.8 1111.85 545.2 1106.2 544.55 1095 544.55 1073 547.4 1062.15 549.75 1027.75 560.15 1017.5 564.45 1017.45 564.5 1017.4 564.5 1015.2 565.7 1006.95 571.6 999.8 578.7 998.85 579.85 998.6 579.1 998.25 578.65 997.25 578.4 996.3 578.9 996 579.35 995.95 580 996.25 583.1 993.95 586.65 993.75 587.25 993.8 587.8 994.5 588.65 995.5 588.85 996 588.6 996.4 588.1 996.7 587.6 999.1 604.2 1001.6 611.7 1009.25 653.55 1029.45 743.55 1031.3 748.75 1032.55 751.2 1032.65 751.3 1032.7 751.4 1034.25 753.45 1036.1 755.35 1040.2 758.5 1047.05 762.05 1054.35 764.4 1056.8 764.95 1056.85 764.95 1075.6 767.5 1083.75 767.95 1094.75 767.5 1097.45 766.95 1097.5 766.9 1097.6 766.9 1109.45 762.1 1118.5 757.2 1122.7 754.15 1122.85 753.95 1123.05 753.8 1124.4 751.5 1125.45 749 1133.6 721.7 1133.6 721.65 1134.25 719.1 1144.05 652.95 1144.55 621.2 1144 597.5 1142.85 586.95 1138.25 569.55 1137.8 562.05 Z"/>
</g>

<g id="Symbol_146_0_Layer0_0_FILL">
<path fill="#FFFFFF" stroke="none" d="
M 968.35 478.2
Q 966.95 486.15 970.45 491.55 975.35 499.05 981.45 514.5 987.5 529.9 994.05 550.8 1000.6 571.75 1006.9 595.7 1013.2 619.7 1018.6 644.3 1023.25 665.85 1026.55 685.7 1029.85 705.5 1032.25 721.7 1034.65 737.85 1036.55 748.45
L 1039.1 750.6 1044.05 753.35
Q 1050.2 756.4 1059.35 758.85 1068.55 761.25 1079 761.2 1093.9 760.8 1102.45 758.3 1110.95 755.75 1114.6 753.05
L 1117.35 750.7 1118.35 749.2
Q 1132.1 701.05 1135.7 661.6 1139.3 622.2 1136.55 592.35 1133.8 562.55 1128.45 543.3 1123.1 524.05 1118.95 516.3 1113.5 505.65 1101.4 492 1089.3 478.35 1074 465.7 1058.7 453 1043.5 445.35 1028.35 437.65 1016.75 438.9 1002.3 441.15 992 447.45 981.65 453.8 975.7 462 969.7 470.25 968.35 478.2 Z"/>
</g>

<g id="Symbol_19_0_Layer0_0_FILL">
<path fill="#FFFFFF" stroke="none" d="
M 656.95 766.95
L 648.9 766.15
Q 647.3 766.15 646.3 767.25 645.25 768.35 645.2 769.8 645.15 771.3 646.5 772.5
L 649.1 773.9 654.55 776.1
Q 661.45 778.7 672.95 780.7 684.4 782.7 699.15 781.9 713.85 781.15 730.65 775.45 742.3 771.1 752.6 762.8 762.95 754.5 770.9 745.45 778.9 736.4 783.5 729.9
L 788.3 722.65 787.25 721.25 784.35 718.45
Q 780.55 714.95 775.95 710.9 771.3 706.9 768.6 704.6 766.5 707.95 761.25 715.5 756 723 748.5 732 741.05 741.05 732.35 748.9 723.6 756.75 714.6 760.8 704.7 764.9 693.85 766.4 683 767.85 673.25 767.75 663.55 767.6 656.95 766.95 Z"/>
</g>

<g id="Symbol_51_0_Layer0_0_FILL">
<path fill="#FFFFFF" stroke="none" d="
M 985.85 192.35
L 988.05 188.95 988.85 186.9
Q 984.8 184.8 978.9 183.9 972.95 183.05 966.7 183.05 960.45 183.1 955.45 183.75 950.4 184.4 948.15 185.35 946.3 186.4 942.55 190.3 938.8 194.2 934.75 198.95 930.65 203.7 927.75 207.15
L 924.7 210.8 926.7 212.15
Q 928.55 213.35 930.55 214.55
L 932.15 215.45 933 215.75
Q 944.4 213.9 951.85 212.6 959.25 211.3 963.9 210 968.55 208.75 971.65 207 975 204.95 979 200.7 982.95 196.4 985.85 192.35 Z"/>
</g>

<g id="Symbol_147_0_Layer0_0_FILL">
<path fill="#FFFFFF" stroke="none" d="
M 747.7 747.95
Q 747.85 761 748 778.75 748.1 796.5 748.15 811.65
L 747.9 831.9
Q 747.7 837.3 748.55 848.55 749.45 859.8 750.7 872.2 751.95 884.65 753 893.5
L 754.05 903
Q 760.2 908.05 773.9 910.2 787.55 912.3 804.4 911.85 821.3 911.35 837.15 908.55 853.05 905.75 863.6 901
L 864.15 893.1
Q 864.6 885.7 865.5 875 866.35 864.3 867.6 854.05 868.9 843.75 870.5 837.55 871.6 833.5 874.85 823 878.15 812.55 881.95 800.5 885.8 788.5 888.55 779.8
L 891.5 770.55
Q 884 756.6 864.3 748 844.6 739.35 820.65 735.35 796.7 731.3 776.4 731.1 756.15 730.95 747.55 733.95
L 747.7 747.95 Z"/>
</g>

<g id="Symbol_22_0_Layer0_0_FILL">
<path fill="#0083CB" stroke="none" d="
M 943.65 840.8
Q 942.6 838.75 942.2 837.35 941.45 834.6 941.05 831.85 940.7 829.05 940.15 826.35
L 939.65 824.85 939.1 824.45
Q 938.5 824.55 938.05 825.8 937.65 827 937.65 828.25 937.8 831.4 938.75 835.75 939.7 840.1 941.85 843.7 943.95 847.3 947.65 848.15 951.1 848.6 953.45 845.55 955.8 842.55 957.1 838.5 958.4 834.45 958.75 831.75 958.9 830.75 958.95 828.85 959 826.95 958.7 825.25 958.4 823.5 957.45 822.95
L 957.25 822.9
Q 957.1 822.9 957.05 822.95 956.7 823.3 956.6 823.8
L 956.45 824.5
Q 956.2 826.4 956.15 828.4 956.15 830.4 955.8 832.35 955.5 834.05 954.65 836.85 953.8 839.65 952.5 842.15 951.2 844.6 949.5 845.25 947.75 845.7 946.2 844.3 944.7 842.85 943.65 840.8 Z"/>
</g>

<g id="Symbol_148_0_Layer0_0_FILL">
<path fill="#0987CD" stroke="none" d="
M 951.25 738.5
Q 951.1 735.35 950.7 733.55 950.3 731.75 949.05 731.5 947.75 731.25 945.1 732.75 944.35 734.25 944.25 736.05 944.1 737.9 944.25 739.4 942.9 740.8 941.7 742.65 940.5 744.5 939.65 746.1
L 938.55 748.25
Q 933.45 760.6 932.3 778.25 931.1 795.95 933.15 815 935.2 834.05 939.75 850.5 944.25 867 950.55 877.05 950.9 877.6 951.5 878.55 952.1 879.5 952.9 880.55 953.1 882.2 954.05 883.2 954.95 884.2 957.25 883.55
L 957.4 883.4
Q 957.6 883.45 957.75 883.4 957.95 883.4 958.15 883.35 958.15 883.2 958.15 883.05 958.15 882.9 958.15 882.7 959.45 881.05 959.7 878.5 960 875.9 959.75 873.5 959.55 871.05 959.25 869.75 960.55 856.4 961.65 842.65 962.8 828.85 962.85 815.75 962.9 807.1 962.35 797.95 961.8 788.8 960.7 779.75 959.55 770.65 957.75 762.2 957.6 761.6 957.35 761.05 957.1 760.5 956.75 759.95 956.9 760.1 957 760.25 957.1 760.4 957.2 760.55 957.2 759.6 957.1 758.3 956.95 757.05 956.8 756
L 956.7 755.1 956.55 754.6
Q 956.35 754.05 955.7 753.7 955.05 753.35 954.1 752.75 953.15 752.15 952 750.95 951.8 747.85 951.65 744.7
L 951.25 738.5 Z"/>
</g>

<g id="Symbol_149_0_Layer0_0_FILL">
<path fill="#FFFFFF" stroke="none" d="
M 776.1 775.2
L 781.75 782.8
Q 787.15 790.1 794.55 800.3 801.95 810.55 808.2 819.6 814.45 828.65 816.45 832.45
L 820.85 845.95
Q 823.7 856.15 826.75 868.1 829.8 880.1 832 888.85
L 834.3 898
Q 840.35 902.2 856.75 905.3 873.15 908.4 893 909.25 912.85 910.15 929.4 907.7 945.9 905.2 952.25 898.3 953 888.85 954.1 877.15 955.15 865.45 956.25 853.95 957.3 842.45 958 833.6 958.7 824.75 958.7 820.95
L 957.5 801.15
Q 956.4 786.75 954.95 770.1 953.5 753.5 952.45 741.4
L 951.4 728.7
Q 932 723.3 908.85 726.75 885.7 730.2 861.65 738.8 837.6 747.4 815.5 757.4 793.4 767.45 776.1 775.2 Z"/>
</g>

<g id="Symbol_23_0_Layer0_0_FILL">
<path fill="#0083CB" stroke="none" d="
M 943.35 838.65
Q 942.15 836.05 941.4 832.95 940.6 829.9 939.6 827.1
L 939.2 826.4 938.9 826.25
Q 938.6 826.4 938.45 827.1 938.3 827.8 938.3 828.5 938.5 831.6 939.5 835.45 940.5 839.25 942.25 842.4 943.95 845.55 946.3 846.7 950.3 848.25 953.15 845.6 956 842.95 957.6 838.15 959.2 833.4 959.35 828.65 959.35 827.95 959.35 826.95 959.3 825.95 959.1 825.15 958.85 824.4 958.4 824.45 958.25 824.75 958.1 825.1
L 957.95 825.6
Q 957.35 827.6 957.1 829.8 956.8 831.95 956.3 834.1 955.15 838.55 953 841.25 950.85 843.95 948.25 843.6 945.7 843.25 943.35 838.65 Z"/>
</g>

<g id="Symbol_132_0_Layer0_0_FILL">
<path fill="#FFFFFF" stroke="none" d="
M 789.2 341.6
Q 785.8 347.35 777.75 359.8 769.7 372.25 759.95 387.45 750.2 402.65 741.65 416.8 733.1 430.9 728.8 440
L 777.9 447.45
Q 824.55 454 885.8 462.15 947 470.25 993.15 475.85
L 1028.15 479.8 1040.8 480.45 1033 470.6
Q 1027.2 463.4 1019.85 454.8 1012.5 446.25 1006.05 439.35 999.55 432.5 996.25 430.45
L 960.45 414.6
Q 929.2 401.1 889.65 384.25 850.05 367.4 820.4 354.85
L 789.2 341.6 Z"/>
</g>

<g id="Symbol_150_0_Layer0_0_FILL">
<path fill="#0987CD" stroke="none" d="
M 948.5 775.95
L 947.65 774.35
Q 947 773.2 946.1 771.85 945.15 770.45 944.2 769.45 943.55 769.35 943.4 769.9 943.2 770.4 943.1 770.9 942.5 773.7 942.9 775.4 943.3 777.15 944.35 778.65 945.4 780.15 946.8 782.25
L 947.45 783.9
Q 947.9 785.15 948.55 786.7 949.2 788.2 950 789.35 950.1 789.3 950.2 789.25 950.3 789.15 950.4 789.1 950.55 788.8 950.55 788.45 950.55 788.1 950.6 787.95 951.05 786.85 950.7 784.5 950.35 782.1 949.7 779.65 949 777.2 948.5 775.95
M 860.25 785.25
L 858.75 785.15
Q 858.2 785.25 857.7 785.6 857.25 785.9 857.35 786.5 857.35 786.8 857.6 787 857.85 787.25 858 787.3
L 862.75 787.8
Q 866.9 788.05 871.3 788.25
L 877.15 788.55
Q 877.6 788.6 878.7 788.75 879.75 788.85 880.85 788.8 882 788.7 882.7 788.2 882.5 788 882.25 787.8
L 881.9 787.55
Q 881.5 787.25 880.8 787 880.15 786.75 879.2 786.55 879.3 786.55 879.45 786.5 879.55 786.45 879.65 786.35 879.65 786.2 879.45 786.05 879.25 785.9 879.15 785.85 878.2 785.15 875.95 784.95 873.75 784.75 871.5 784.75 869.2 784.75 867.95 784.75
L 866.25 784.6
Q 864.9 784.5 863.75 784.3 863.5 784.3 863.3 784.4 863.05 784.5 862.95 784.65 862.5 784.65 862.05 784.6 861.6 784.6 861.25 784.55 861 784.55 860.65 784.75 860.3 784.95 860.2 785.15
L 860.25 785.25
M 945.25 654.15
Q 938.05 671.65 932.85 689.8 927.7 707.95 924.55 728.45 923.7 733.8 923 738.9 922.3 743.95 921.85 748.85 922.25 748.7 922.65 748.6 923 748.45 923.3 748.4 923.6 748.45 923.95 748.5 924.35 748.6 924.45 748.7 926.05 750.4 927.55 754.9 929 759.35 930.3 764.4 931.55 769.45 932.4 772.9 933.05 772.8 933.95 772.85 934.8 772.9 935.85 773.1 935.85 770.65 936.75 767.85 937.65 765 939.7 763.35 941.8 761.65 945.45 762.65 946.95 763.4 948.45 764.65 949.95 765.9 951.1 767.1 952.25 768.3 952.6 768.85 953.95 770.75 955.7 773.9 957.4 777.1 958.65 780.3 959.95 783.5 959.9 785.5 961.1 785.2 962.45 784.9 963.85 784.6 965.35 784.3
L 967.6 783.75
Q 969.4 783.25 970.85 782.65 971.6 782.2 972.55 782 973.5 781.85 974.5 782 976.05 781 978.35 780.3 980.7 779.6 982.95 779.2 985.15 778.8 986.45 778.65 987.9 778.4 989.35 778.15 990.75 777.9 992.2 777.65 993.2 777.05 994.25 776.6 995.25 776.1 996.2 775.75 996.8 775.05 997.5 774.35 998.15 773.65 998.9 773 999.4 772.55 1000.2 771.9 1000.95 771.2 1001.9 770.9 1002.85 770.6 1003.85 771.15 1003.95 771.4 1004 771.65 1004.05 771.9 1004.1 772.15 1008.4 767.4 1012.6 762.65 1016.8 757.9 1022 754.15 1022.35 753.8 1022.75 753.5 1023.15 753.2 1023.5 753.7 1023.6 754.75 1023 755.85 1022.45 756.9 1021.8 757.7
L 1020.9 758.85
Q 1019.4 760.95 1017.9 762.85 1016.35 764.8 1014.75 766.6 1019.1 762.15 1023.05 757.5 1027 752.9 1031.25 748
L 1032.25 746.95
Q 1033 746.25 1034.05 745.45 1035.05 744.7 1036.05 744.3 1036.95 746.15 1035.5 748.95 1034.05 751.75 1032.15 754.05
L 1029.8 756.85
Q 1030.924609375 755.5935546875 1032.2 754.45
L 1032.6 754.15
Q 1032.95 753.95 1033.35 753.85 1033.95 755.45 1032.55 757.55 1031.2 759.7 1029.5 761.35
L 1027.45 763.35
Q 1027.3 763.5 1027.15 763.65 1027 763.8 1026.85 763.95 1026.35 764.5 1025.8 765.05 1025.2 765.55 1024.65 766.1 1023.65 767 1022.55 767.9 1021.5 768.8 1020.35 769.7 1018.95 770.8 1017.5 771.9 1016.05 772.95 1014.55 774 1013.65 774.6 1012.8 775.2 1011.9 775.8 1011.05 776.4 1010 777.1 1009 777.8 1008 778.45 1006.95 779.15 1005.7 780.1 1004.4 781 1003.1 781.95 1001.75 782.85 1001.2 783.2 1000.65 783.6 1000.1 783.95 999.5 784.3 1000.1 784.35 1000.7 784.45 1001.3 784.5 1001.9 784.65 1006.6 782.9 1010.9 780.95 1015.15 779.05 1018.5 777.25 1034.55 768.7 1047.3 757.35 1060.05 746 1069.45 732.45 1078.8 718.95 1084.65 703.7 1087.05 698.65 1089.05 693.2 1091 687.8 1092.5 682.15 1093.6 679.6 1094.25 676.65 1094.85 673.75 1095.15 670.7 1097.15 660 1097.85 648.95 1098.55 637.9 1098.05 626.85 1098.35 608.25 1094.65 589.55 1091 570.8 1082.55 552.15 1081.75 550.4 1080.95 548.65
L 1079.35 545.1
Q 1079.05 546.95 1079.75 549.2 1080.5 551.4 1080.8 553.5 1081.15 555.6 1079.6 557 1076.8 559.2 1075.45 557.5 1074.1 555.85 1073.45 552.75 1072.8 549.7 1072.15 547.6 1068.9 548.2 1066.75 544.4 1064.6 540.55 1063.3 535.4 1061.95 530.2 1061.15 526.7
L 1060.65 524.8
Q 1060.3 523.35 1059.85 521.55 1059.4 519.7 1059 518.25 1058.4 517.6 1057.45 517.85
L 1056.65 518.05 1056.2 518.1
Q 1054.05 516.8 1053.95 514.05 1053.85 511.3 1055.15 507.65 1034.95 521.35 1017.3 539.85 999.65 558.35 985.55 578.65 971.45 599 961.85 618.25 952.5 636.7 945.25 654.15
M 1089.15 689.8
Q 1089.4 688.9 1089.6 688.05 1089.8 687.15 1090.05 686.3
L 1090.2 686.05
Q 1090.3 685.95 1090.4 685.85 1090.1 686.85 1089.8 687.85 1089.5 688.8 1089.15 689.8
M 705.9 525.1
Q 705.65 524.6 705.35 524.15 705.2 523.95 705 523.85 704.8 523.75 704.6 523.75 704.25 523.35 704 523 703.7 522.65 703.4 522.3 702.15 521.75 702.45 522.5 702.7 523.2 703.55 524.55 703.5 524.7 703.5 525 703.5 525.3 703.55 525.75
L 702.85 524.1
Q 702.45 523.1 701.8 521.95 701.15 520.8 700.35 520
L 700.15 519.85
Q 701.1 521.35 701.75 522.75
L 702.6 524.6
Q 702.95 525.4 703.25 526.15 703.6 526.9 703.9 527.6 704.2 528.3 704.5 528.95 704.75 529.6 705.05 530.2 705.4 530.95 705.7 531.6 706 532.3 706.35 532.95 707.15 534.6 708.1 536.3 709.05 538 710.25 540 710.7 540.75 711.2 542 711.7 543.3 712.25 545 712.35 545.2 712.4 545.45 712.5 545.7 712.55 545.9 712.95 546.65 713.3 547.4 713.65 548.15 714.05 548.85 713.8 548.55 713.55 548.25 713.35 547.9 713.1 547.65 713.45 548.85 713.8 550.15 714.15 551.45 714.55 552.8 714.95 553.8 715.3 554.85 715.7 555.9 716.05 556.9 717.25 559.85 718.35 562.75 719.45 565.65 720.3 568.4 721.1 570.9 721.6 573.05 722.1 575.25 722.2 576.95 722.3 578.05 722.2 578.9 722.1 579.8 721.8 580.4 721.5 581.05 721.2 581.5 720.85 581.95 720.5 582.25 720.15 580.55 719.8 579.2 719.45 577.9 719.25 577.05 717.3 570.2 714.6 564.6 711.95 558.95 708.85 553.55 705.8 548.15 702.65 541.95 702.35 541.2 701.6 539.65 700.9 538.05 699.9 536.5 698.9 534.95 697.65 534.3 697.2 534.4 696.9 534.7 696.55 535 696.5 535.3
L 696.8 536.6 697.75 538.65
Q 698.95 541.15 700.4 543.7 701.85 546.25 702.55 547.35 703.15 548.35 703.75 549.35 704.3 550.3 704.85 551.3 704.65 551.2 704.45 551.2 704.25 551.2 704.1 551.3
L 704.15 553 705.2 556.25
Q 706.85 560.25 708.95 564.45 711.05 568.65 711.9 570.25
L 712.75 572.6
Q 713.4 574.4 714.4 576.3 715.45 578.25 716.9 579.1 717.75 581.85 718.45 584.6 719.15 587.4 719.75 590.25 719.75 591.4 719.7 592.5 719.65 593.6 719.6 594.7 719.5 595.85 719.45 596.9 719.35 598 719.2 599.05 719.2 599.45 719.15 599.8 719.1 600.2 719.05 600.55 718.8 602.4 718.45 604 718.1 605.6 717.65 606.8 717.5 607.3 717.25 607.75 717.1 608.15 716.85 608.5 716.2 612.6 715.35 616.4 714.5 620.15 713.3 623.15 712.95 625.25 712.45 627.35 711.95 629.45 711.25 631.65 710.95 632.85 710.6 634.05 710.3 635.25 709.9 636.4 709.85 636.65 709.8 636.9 709.75 637.2 709.7 637.45 709.65 637.8 709.55 638.1 709.5 638.45 709.45 638.8 708.7 642.35 707.95 645.7 707.25 649.1 706.3 652.65 705.8 654.5 705.25 656.3 704.65 658.1 704.05 659.9 702.6 663.1 701.35 666.4 700.05 669.75 699.05 671.6 696.8 675.65 695 681.45 693.15 687.25 692.4 693.8 692.55 695.3 692.75 696.8 693 698.25 693.3 699.8
L 693.35 699.9 693.4 700.15
Q 693.4 700.25 693.45 700.35 693.75 701.7 694.1 703.05 694.5 704.4 695 705.8 695.2 706.35 695.4 706.95 695.65 707.5 695.85 708.1 696.1 708.65 696.35 709.2 696.6 709.8 696.9 710.35 697.1 710.8 697.35 711.25 697.55 711.75 697.8 712.2
L 698.05 712.65
Q 698.15 712.9 698.3 713.1 698.9 714.15 700.35 716.4 701.75 718.65 703 720.85
L 703.9 722.75 704.2 723.95
Q 704.2 724.1 704.1 724.4 704 724.7 703.6 724.8
L 703.15 724.75
Q 703.25 724.9 703.35 725.05 703.5 725.2 703.6 725.35 704.45 725.9 706.05 727.05 707.65 728.15 709.55 729.6 711.3 728.15 712.45 726.4 713.65 724.7 714.2 724 722.9 715.3 728 709.45 733.15 703.65 735.8 697.7 738.5 691.8 739.95 682.75 745 665.75 746.25 647.5 747.55 629.25 744.55 610.75 741.6 592.25 733.8 574.55 732.15 570.85 730.3 567.55 728.45 564.2 726.5 561.15 725.8 557.65 724.75 554.6 723.65 551.5 721.95 549.15 720.85 547.6 719.85 545.8 718.85 543.95 718 542.05
L 717.25 540.4
Q 716.65 539.1 715.9 537.55 715.1 535.95 714.35 534.75 713.9 534.35 713.35 534.3 712.8 534.25 712.35 534.65 712.25 534.75 712.2 534.95 712.15 535.1 712.15 535.35 711.2 533.7 710.25 532.1 709.3 530.5 708.3 528.95
L 707.65 527.9
Q 707.1 527.15 706.4 526.15 706.15 525.6 705.9 525.1
M 723.55 564.3
L 723.45 564 723.55 564.15 723.55 564.3
M 1056.6 503.4
Q 1056.65 503.6 1056.75 503.8 1056.85 503.65 1056.9 503.45
L 1057.1 503.1
Q 1056.95 503.05 1056.75 503 1056.6 503 1056.45 503.05 1056.5 503.25 1056.6 503.4
M 1103.3 488.7
Q 1103.05 489.15 1102.8 489.6 1103.35 489.3 1103.75 488.9 1104.2 488.5 1104.4 488 1104.25 487.95 1104.1 487.9 1103.95 487.85 1103.8 487.8 1103.55 488.25 1103.3 488.7
M 713.05 591.6
Q 713.15 591.9 713.25 592.2 713.25 591.75 713.3 591.25 713.3 590.8 713.3 590.3 713.15 590.45 713.05 590.6 712.95 590.75 712.95 591 713 591.3 713.05 591.6 Z"/>
</g>

<g id="Symbol_151_0_Layer0_0_FILL">
<path fill="#FFFFFF" stroke="none" d="
M 753.55 440.15
L 743.25 445.65
Q 733.5 450.95 721.25 459.05 709 467.15 700.95 475.85 692.9 484.55 695.75 491.55 700.95 501.75 707.25 516.4 713.6 531.1 719.05 549.65 724.55 568.15 727.2 589.8 727.75 594.95 726.3 603.55 724.85 612.1 722.15 622.4 719.5 632.7 716.4 642.95 713.3 653.2 710.55 661.7 708.45 667.75 705 674.3 701.6 680.8 698.5 688.3 695.4 695.75 694.35 704.65 693.3 713.55 695.95 724.35 701.2 739.45 734.8 752.7 768.45 765.95 813.65 775.5 858.85 785 898.75 789 938.7 792.95 956.55 789.4 975.15 785.55 992.8 780.25 1010.45 774.95 1026.6 765.15 1042.7 755.35 1056.6 737.95 1068.45 722.75 1076.5 702.4 1084.55 682.05 1088.55 659.25 1092.55 636.5 1092.15 613.95 1091.8 591.35 1086.8 571.7 1080.65 548.6 1073.15 532.75 1065.65 516.85 1058.5 507.15 1051.4 497.45 1046.4 492.8
L 1040.35 487.5 994.5 479.25
Q 951.75 472.1 896 463.1 840.25 454.05 798 447.3
L 753.55 440.15 Z"/>
</g>

<g id="Symbol_152_0_Layer0_0_FILL">
<path fill="#0987CD" stroke="none" d="
M 1053 294.55
L 1053 294.35
Q 1052.3 288.15 1051.4 282 1050.45 275.85 1049.4 269.65 1049.55 269.1 1049.6 268.65 1049.7 268.2 1049.7 268 1049.85 265.7 1049.5 264.4 1049.15 263.15 1048.2 262.4 1047.85 260.2 1047.5 257.95 1047.1 255.7 1046.8 253.45 1046 250.15 1045.15 246.85 1044.25 243.5 1043.3 240.1 1042.95 238.75 1042.6 237.3 1042.2 235.85 1041.55 235.15 1040.9 234.5 1039.75 235.35 1039.4 237 1039.75 239.15 1040.1 241.3 1040.65 243.1
L 1041.35 245.6
Q 1042.2 249.3 1043 252.85 1043.8 256.4 1044.5 259.85 1044.3 259.45 1044.15 259.1 1043.95 258.8 1043.6 258.6 1043.5 258.5 1043.3 258.45 1043.05 258.4 1042.85 258.5 1042.7 258.65 1042.65 258.75 1042.55 258.85 1042.45 259 1041.6 256.8 1040.6 255.55 1039.6 254.3 1038.6 255.15
L 1038.35 256.75 1038.65 259.85
Q 1039.25 263.7 1040.15 267.85
L 1041.4 273.5
Q 1042.8 279.6 1043.6 285.35 1044.35 291.1 1044.8 296.9 1045.2 302.7 1045.35 309 1045.5 313.9 1045.6 318.8 1045.7 323.7 1045.9 328.65 1045.95 329.05 1045.95 329.35 1046 329.7 1046.05 329.95 1043.25 345.8 1039.35 358.4 1035.5 371 1029.45 381.55 1023.4 392.15 1014 401.8 1004.6 411.5 990.75 421.45 978.8 430.4 968.4 439.15 958 447.95 946.6 454.4 935.2 460.85 920.3 462.85 917.75 463.1 912.5 464.3 907.3 465.55 902.7 467.8 898.1 470.05 897.4 473.55
L 897.4 473.75 896.9 473.8
Q 897 474 897.1 474.2 897.2 474.35 897.35 474.55
L 897.35 474.8
Q 897.45 474.9 897.6 475 897.7 475.1 897.8 475.2 899.25 476.75 902.95 478.2 906.65 479.7 910.2 480.7
L 914.65 481.95
Q 924.4 484.65 936.2 485.2 948 485.75 961 483.65 973.95 481.6 987.35 476.35 999.65 471.35 1009.45 463.35 1019.2 455.35 1026.05 446 1032.9 436.6 1036.4 427.55 1040.15 417.8 1043.9 405.05 1047.6 392.25 1050.7 377.85 1050.95 375.85 1051.2 373.85 1051.45 371.85 1051.7 369.85 1051.85 366.45 1052.05 363.05 1052.25 359.6 1052.7 356.15 1053.45 349.9 1053.65 343.95 1053.85 338 1053.85 332.1 1053.85 326.15 1054 319.95 1054.25 313.35 1053.95 307.05 1053.7 300.7 1053 294.55 Z"/>
</g>

<g id="Symbol_136_0_Layer0_0_FILL">
<path fill="#0987CD" stroke="none" d="
M 983.4 221.9
Q 983.35 221.85 983.3 221.65 983.2 221.45 983.05 221.3 982.8 220.9 982.3 220.9 981.8 220.95 981.45 221.15 980.9 221.8 980.4 222.75 979.9 223.75 979.5 224.6
L 979 225.7
Q 978.8 226.1 978.55 226.5 978.35 226.95 978.1 227.35
L 977.85 227.3
Q 978.65 224.65 979.1 222.9
L 979.4 221.5 979.45 220.9
Q 979.3 220.75 979 220.8 978.7 220.9 978.65 221.05 978.2 221.85 977.75 222.95 977.35 224 977.05 224.9
L 976.65 226.1
Q 976.3 227.2 975.95 228.3 975.6 229.4 975.25 230.5 974.8 231.4 974.45 232.4 974.1 233.35 973.8 234.35 973.5 235.25 973.25 236.15 972.95 237.1 972.7 238 972.3 239 971.95 240.05 971.65 241.05 971.3 242.1 970.85 243.2 970.35 244.2 969.8 245.25 969.1 246.2
L 968.8 246.6
Q 968.55 246.95 968.5 247.35 968.3 247.6 968.2 247.95 968.15 248.25 968.3 248.6 969.3 248.75 970.3 248.1 971.35 247.45 972.3 246.35 972.55 246.1 972.75 245.8 972.95 245.55 973.15 245.3 973.6 244.7 973.95 244.15 974.35 243.55 974.65 243.05 976 241.15 977.2 239.25 978.4 237.35 979.6 235.15
L 980.35 233.85
Q 980.9 232.9 981.45 231.9 981.8 231.25 982 230.8
L 982.25 230.2 982.15 230.2
Q 982.65 229.5 982.9 228.8 983.15 228.1 982.6 227.7 982.25 227.7 981.95 228.05 981.6 228.4 981.35 228.8 981.25 228.65 981.1 228.6 980.95 228.55 980.8 228.5 981.95 226.2 982.7 224.35
L 983.25 222.85 983.4 221.9 Z"/>

<path fill="#FFFFFF" stroke="none" d="
M 1012.45 184.25
Q 1009.55 185.35 1007.8 188.35 1002.85 197.3 998.6 205 994.3 212.65 990.2 219.3 986.05 225.95 981.45 231.9 980.9 232.9 980.35 233.85
L 979.6 235.15
Q 978.4 237.35 977.2 239.25 976 241.15 974.65 243.05 974.35 243.55 973.95 244.15 973.6 244.7 973.15 245.3 972.95 245.55 972.75 245.8 972.55 246.1 972.3 246.35 971.35 247.45 970.3 248.1 969.3 248.75 968.3 248.6 968.15 248.25 968.2 247.95 968.3 247.6 968.5 247.35 968.55 246.95 968.8 246.6
L 969.1 246.2
Q 969.8 245.25 970.35 244.2 970.85 243.2 971.3 242.1 971.65 241.05 971.95 240.05 972.3 239 972.7 238 972.95 237.1 973.25 236.15 973.5 235.25 973.8 234.35 970.8 233.2 966.6 231.5 962.45 229.75 957.9 227.7 953.35 225.7 949.2 223.55 944.05 220.7 934.8 217.95 925.55 215.15 912.95 214.2 900.35 213.3 885.1 216 869.8 218.75 852.55 227 840.85 232.9 833.35 239.5 825.8 246.1 821.95 251.35
L 817.3 258.3
Q 812.95 267.05 807.85 285.25 802.75 303.45 798.15 323.75 793.55 344 790.75 358.9
L 788.65 370.6 788.15 375.95 789.35 379.6 792.45 386.35
Q 796.5 394.6 805.7 407.45 814.9 420.3 830.8 436.3 844.75 449.8 859.75 458.55 874.75 467.25 887.8 472.1 900.85 476.95 909 478.85 925.4 482.75 940.9 482.1 956.35 481.4 969.6 477.75 982.85 474.05 992.65 469.05 1002.5 464.05 1007.65 459.3 1018.75 449.15 1026.7 434.1 1034.65 419.05 1039.55 400.65 1044.4 382.25 1046.35 362 1048.3 341.75 1047.35 321.1 1046.05 295.55 1042.85 273.45 1039.65 251.4 1035.65 233.9 1031.65 216.45 1027.95 204.65 1024.3 192.85 1022.15 187.85 1020.8 184.9 1018.05 184 1015.3 183.1 1012.45 184.25 Z"/>
</g>

<g id="Symbol_26_0_Layer0_0_FILL">
<path fill="#FFFFFF" stroke="none" d="
M 889.05 162.7
Q 882.2 166.25 875.95 171.05 869.7 175.8 865.25 180.35 860.8 184.9 859.45 187.7 858.55 190.25 858.1 197.25 857.65 204.25 857.5 212.35 857.35 220.4 857.35 226.25
L 857.35 232.35 860.15 232.1
Q 862.8 231.85 866.3 231.45 869.8 231.05 872.55 230.65
L 874.75 230.25 875.7 229.95
Q 884.4 218.9 889.6 211 894.75 203.05 897.2 197.95 899.6 192.85 900.1 190.3 900.55 188.15 901.15 183.4 901.8 178.65 902.25 173.2 902.7 167.75 902.75 163.55
L 902.55 160.15 902 158.35
Q 895.85 159.15 889.05 162.7 Z"/>
</g>

<g id="Symbol_27_0_Layer0_0_FILL">
<path fill="#1D2013" stroke="none" d="
M 1009 492.75
Q 1008.85 492.65 1008.7 492.6 1008.6 492.55 1008.45 492.45
L 1008.6 492.75 1009 492.75 Z"/>

<path fill="#0987CD" stroke="none" d="
M 957.05 500.85
Q 955.1 501.3 952.4 502 949.75 502.7 947.15 503.6 948.45 502.65 949.8 501.7 951.15 500.8 952.55 499.9 963.4 492.15 975.8 490.3 988.25 488.45 1001.15 492.35 1002 492.45 1002.9 492.55 1003.8 492.65 1004.65 492.7 1005.65 492.75 1006.65 492.8 1007.6 492.8 1008.6 492.75
L 1008.45 492.45
Q 1008.6 492.55 1008.7 492.6 1008.85 492.65 1009 492.75
L 1009.15 492.75 1009.7 492.7
Q 1010 492.65 1010.3 492.65 1010.7 492.6 1011.05 492.45 1011.45 492.35 1011.8 492.2
L 1011.75 492.1
Q 1010.7 490.25 1007.85 488.7 1004.95 487.2 1001.8 486.15 998.6 485.15 996.6 484.8 995.65 484.65 994.6 484.45 993.55 484.3 992.65 484.35 986.2 483.8 979.05 485.1 971.95 486.45 965.05 489.25 958.15 492.05 952.4 495.8 950.75 497 949.2 498.3 947.65 499.6 946.2 501.05
L 946.05 501.45
Q 945.45 502 944.9 502.55 944.3 503.15 943.8 503.7 943.3 504.3 942.85 504.9 942.4 505.5 941.95 506.15 942.3 506.05 942.55 506 942.8 505.95 943 505.9 943.45 505.8 943.85 505.65 944.3 505.55 944.75 505.45 950.9 503.9 957.15 502.4 963.4 500.95 969.6 499.45 970.3 499.3 971 499.1 971.7 498.9 972.4 498.65 970.45 498.45 967.6 498.8 964.75 499.15 961.9 499.75 959.05 500.4 957.05 500.85
M 992 487.25
Q 991.75 487.2 991.5 487.15 991.6470703125 487.15 991.8 487.15 992.2 487.2 992.6 487.25 992.45 487.25 992.3 487.25 992.15 487.25 992 487.25 Z"/>
</g>

<g id="Symbol_28_0_Layer0_0_FILL">
<path fill="#FFFFFF" stroke="none" d="
M 986.25 295.45
Q 983.9 288.7 978.35 283.8 972.85 278.85 963.05 277.05 953.1 275.55 946.15 278.6 939.15 281.7 934.5 287.45 929.85 293.25 927 299.8 924.15 306.3 922.45 311.7 931.35 312.7 942.55 314.6 953.75 316.45 965.55 318.7 977.3 320.9 987.9 323.05 988.85 316.6 988.7 309.4 988.55 302.15 986.25 295.45 Z"/>
</g>
</defs>



<g transform="matrix( 0.034576416015625, 0.127410888671875, -0.1340179443359375, 0.0308685302734375, 1016.55,4.75) ">
<g transform="matrix( 1, 0, 0, 1, 0,0) ">
<use xlink:href="#Symbol_13_0_Layer0_0_FILL"/>
</g>
</g>

<g transform="matrix( -0.0434417724609375, 0.123687744140625, -0.118408203125, -0.0415496826171875, 1089.75,3.6) ">
<g transform="matrix( 1, 0, 0, 1, 0,0) ">
<use xlink:href="#Symbol_14_0_Layer0_0_FILL"/>
</g>
</g>

<g transform="matrix( -0.1435089111328125, -0.0165557861328125, 0.0329132080078125, -0.1480560302734375, 1083.65,230.3) ">
<g transform="matrix( 1, 0, 0, 1, 0,0) ">
<use xlink:href="#Symbol_7_0_Layer0_0_FILL"/>
</g>
</g>

<g transform="matrix( -0.11346435546875, 0.097320556640625, -0.10443115234375, -0.108917236328125, 1146.6,74.3) ">
<g transform="matrix( 1, 0, 0, 1, 0,0) ">
<use xlink:href="#Symbol_15_0_Layer0_0_FILL"/>
</g>
</g>

<g transform="matrix( -0.1021881103515625, 0.006500244140625, -0.0148773193359375, -0.096282958984375, 1086.45,184.2) ">
<g transform="matrix( 1, 0, 0, 1, 0,0) ">
<use xlink:href="#Symbol_8_0_Layer0_0_FILL"/>
</g>
</g>

<g transform="matrix( -0.1021881103515625, 0.006500244140625, -0.0148773193359375, -0.096282958984375, 1086.45,184.2) ">
<g transform="matrix( 1, 0, 0, 1, 0,0) ">
<use xlink:href="#Symbol_9_0_Layer0_0_FILL"/>
</g>
</g>

<g transform="matrix( -0.0530853271484375, 0.0787200927734375, -0.0885772705078125, -0.0558319091796875, 1060.4,96.6) ">
<g transform="matrix( 1, 0, 0, 1, 0,0) ">
<use xlink:href="#Symbol_10_0_Layer0_0_FILL"/>
</g>
</g>

<g transform="matrix( -0.1021881103515625, 0.006500244140625, -0.0148773193359375, -0.096282958984375, 1086.45,184.2) ">
<g transform="matrix( 1, 0, 0, 1, 0,0) ">
<use xlink:href="#Symbol_153_0_Layer0_0_FILL"/>
</g>
</g>

<g transform="matrix( -0.1021881103515625, 0.006500244140625, -0.0148773193359375, -0.096282958984375, 1086.45,184.2) ">
<g transform="matrix( 1, 0, 0, 1, 0,0) ">
<use xlink:href="#Symbol_12_0_Layer0_0_FILL"/>
</g>
</g>

<g transform="matrix( 4.9486083984375, 0, 0, 4.9486083984375, -1463.25,-2713.35) ">
<use xlink:href="#Layer0_9_FILL"/>
</g>

<g transform="matrix( 1.0359344482421875, 0.2030792236328125, -0.3211822509765625, -1.0112762451171875, -34.65,339.05) ">
<g transform="matrix( 1, 0, 0, 1, 0,0) ">
<use xlink:href="#Symbol_142_0_Layer0_0_FILL"/>
</g>
</g>

<g transform="matrix( 0.977294921875, -0.3827362060546875, 0.3827362060546875, 0.977294921875, -164.45,366.15) ">
<g transform="matrix( 1, 0, 0, 1, 0,0) ">
<use xlink:href="#Symbol_143_0_Layer0_0_FILL"/>
</g>
</g>

<g transform="matrix( 0.977294921875, -0.3827362060546875, 0.3827362060546875, 0.977294921875, -164.45,366.15) ">
<g transform="matrix( 1, 0, 0, 1, 0,0) ">
<use xlink:href="#Symbol_144_0_Layer0_0_FILL"/>
</g>
</g>

<g transform="matrix( 0.6408538818359375, -0.2014312744140625, 0.1974334716796875, 0.6262359619140625, 126.8,389.35) ">
<g transform="matrix( 1, 0, 0, 1, 0,0) ">
<use xlink:href="#Symbol_145_0_Layer0_0_FILL"/>
</g>
</g>

<g transform="matrix( -0.4570770263671875, -0.4852142333984375, 0.48828125, -0.4592132568359375, 1171.6,1352.1) ">
<g transform="matrix( 1, 0, 0, 1, 0,0) ">
<use xlink:href="#Symbol_98_0_Layer0_0_FILL"/>
</g>
</g>

<g transform="matrix( -0.4570770263671875, -0.4852142333984375, 0.48828125, -0.4592132568359375, 1171.6,1352.1) ">
<g transform="matrix( 1, 0, 0, 1, 0,0) ">
<use xlink:href="#Symbol_146_0_Layer0_0_FILL"/>
</g>
</g>

<g transform="matrix( -0.5827484130859375, 0.2109375, 0.312896728515625, 0.630157470703125, 1155.15,133.45) ">
<g transform="matrix( 1, 0, 0, 1, 0,0) ">
<use xlink:href="#Symbol_19_0_Layer0_0_FILL"/>
</g>
</g>

<g transform="matrix( 0.266357421875, -0.588104248046875, 0.6950836181640625, 0.2432098388671875, 515.85,933.35) ">
<g transform="matrix( 1, 0, 0, 1, 0,0) ">
<use xlink:href="#Symbol_51_0_Layer0_0_FILL"/>
</g>
</g>

<g transform="matrix( 0.76824951171875, 0.0839996337890625, 0.0774993896484375, 0.879547119140625, 119.5,17.9) ">
<g transform="matrix( 1, 0, 0, 1, 0,0) ">
<use xlink:href="#Symbol_147_0_Layer0_0_FILL"/>
</g>
</g>

<g transform="matrix( 0.881072998046875, 0.208526611328125, 0.0954742431640625, 0.8282318115234375, -132.7,-41.45) ">
<g transform="matrix( 1, 0, 0, 1, 0,0) ">
<use xlink:href="#Symbol_22_0_Layer0_0_FILL"/>
</g>
</g>

<g transform="matrix( 0.6864013671875, -0.0161895751953125, 0.2445831298828125, 0.89959716796875, 136.85,85.35) ">
<g transform="matrix( 1, 0, 0, 1, 0,0) ">
<use xlink:href="#Symbol_148_0_Layer0_0_FILL"/>
</g>
</g>

<g transform="matrix( 0.6864013671875, -0.0161895751953125, 0.2445831298828125, 0.89959716796875, 136.85,85.35) ">
<g transform="matrix( 1, 0, 0, 1, 0,0) ">
<use xlink:href="#Symbol_149_0_Layer0_0_FILL"/>
</g>
</g>

<g transform="matrix( 0.7490692138671875, 0.02752685546875, 0.1968536376953125, 0.8242340087890625, 115.35,126.3) ">
<g transform="matrix( 1, 0, 0, 1, 0,0) ">
<use xlink:href="#Symbol_23_0_Layer0_0_FILL"/>
</g>
</g>

<g transform="matrix( 0.3818511962890625, 0.0165863037109375, 0.0251922607421875, 0.6428680419921875, 476.9,276.6) ">
<g transform="matrix( 1, 0, 0, 1, 0,0) ">
<use xlink:href="#Symbol_132_0_Layer0_0_FILL"/>
</g>
</g>

<g transform="matrix( -0.64990234375, -0.1292877197265625, -0.053131103515625, 0.6608428955078125, 1465.85,380.3) ">
<g transform="matrix( 1, 0, 0, 1, 0,0) ">
<use xlink:href="#Symbol_150_0_Layer0_0_FILL"/>
</g>
</g>

<g transform="matrix( -0.64990234375, -0.1292877197265625, -0.053131103515625, 0.6608428955078125, 1465.85,380.3) ">
<g transform="matrix( 1, 0, 0, 1, 0,0) ">
<use xlink:href="#Symbol_151_0_Layer0_0_FILL"/>
</g>
</g>

<g transform="matrix( 0.7471160888671875, 0.1743927001953125, -0.182464599609375, 0.646209716796875, 266.5,129.85) ">
<g transform="matrix( 1, 0, 0, 1, 0,0) ">
<use xlink:href="#Symbol_152_0_Layer0_0_FILL"/>
</g>
</g>

<g transform="matrix( 0.7471160888671875, 0.1743927001953125, -0.182464599609375, 0.646209716796875, 266.5,129.85) ">
<g transform="matrix( 1, 0, 0, 1, 0,0) ">
<use xlink:href="#Symbol_136_0_Layer0_0_FILL"/>
</g>
</g>

<g transform="matrix( 0.60992431640625, -0.2305450439453125, 0.3896331787109375, 0.522216796875, 253.5,508.75) ">
<g transform="matrix( 1, 0, 0, 1, 0,0) ">
<use xlink:href="#Symbol_26_0_Layer0_0_FILL"/>
</g>
</g>

<g transform="matrix( -0.3233184814453125, -0.1284637451171875, -0.0953826904296875, 0.605621337890625, 1232.9,327.75) ">
<g transform="matrix( 1, 0, 0, 1, 0,0) ">
<use xlink:href="#Symbol_27_0_Layer0_0_FILL"/>
</g>
</g>

<g transform="matrix( 0.600128173828125, 0.213592529296875, -0.2071075439453125, 0.6067047119140625, 323.1,79.55) ">
<g transform="matrix( 1, 0, 0, 1, 0,0) ">
<use xlink:href="#Symbol_28_0_Layer0_0_FILL"/>
</g>
</g>
</svg>
