
<svg xmlns="http://www.w3.org/2000/svg" version="1.1" xmlns:xlink="http://www.w3.org/1999/xlink" preserveAspectRatio="none" x="0px" y="0px" width="760px" height="880px" viewBox="614 10 760 880">
<defs>


<g id="Symbol_30_0_Layer0_0_FILL">
<path fill="#FFFFFF" stroke="none" d="
M 982.7 196.45
Q 985.4 193.2 987.1 190.55
L 988.4 188.3 988.85 186.9
Q 984.8 184.8 978.9 183.9 972.95 183.05 966.7 183.05 960.45 183.1 955.45 183.75 950.4 184.4 948.15 185.35 946.3 186.4 942.55 190.3 938.8 194.2 934.75 198.95 930.65 203.7 927.75 207.15
L 924.7 210.8 926.7 212.15
Q 928.55 213.35 930.55 214.55
L 932.15 215.45 933 215.75
Q 944.4 213.9 951.85 212.6 959.25 211.3 963.9 210 968.55 208.75 971.65 207 974.15 205.55 977.05 202.65 980 199.75 982.7 196.45 Z"/>
</g>

<g id="Symbol_28_0_Layer0_0_FILL">
<path fill="#FFFFFF" stroke="none" d="
M 656.95 766.95
L 648.9 766.15
Q 647.3 766.15 646.3 767.25 645.25 768.35 645.2 769.8 645.15 771.3 646.5 772.5
L 649.1 773.9 654.55 776.1
Q 661.45 778.7 672.95 780.7 684.4 782.7 699.15 781.9 713.85 781.15 730.65 775.45 742.3 771.1 752.6 762.8 762.95 754.5 770.9 745.45 778.9 736.4 783.5 729.9
L 788.3 722.65 787.25 721.25 784.35 718.45
Q 780.55 714.95 775.95 710.9 771.3 706.9 768.6 704.6 766.5 707.95 761.25 715.5 756 723 748.5 732 741.05 741.05 732.35 748.9 723.6 756.75 714.6 760.8 704.7 764.9 693.85 766.4 683 767.85 673.25 767.75 663.55 767.6 656.95 766.95 Z"/>
</g>

<g id="Symbol_40_0_Layer0_0_FILL">
<path fill="#0081C6" stroke="none" d="
M 1052.35 576.9
L 1050.25 581.9 1049.45 584.9
Q 1049.8 586.75 1052.5 587.95 1055.15 589.1 1058.55 589.7 1062 590.25 1064.6 590.35
L 1066.6 590.35 1067.45 590.2
Q 1071.4 580.9 1078.55 573.4 1085.7 565.9 1093 561.15 1100.35 556.4 1104.95 555.35 1100.6 554.35 1095.65 553.35 1090.65 552.35 1086.6 551.55
L 1081.05 550.45
Q 1068.75 556.45 1061.95 563.7 1055.1 570.95 1052.35 576.9 Z"/>
</g>

<g id="Symbol_43_0_Layer0_0_FILL">
<path fill="#FFFFFF" stroke="none" d="
M 1078.05 542.05
Q 1074.9 542.45 1071.6 543.75 1068.25 545 1065.8 546.7 1063.3 548.45 1062.65 550.15 1066.4 549.7 1069.65 548.25 1072.85 546.85 1075.05 545.1 1077.3 543.35 1078.05 542.05 Z"/>
</g>

<g id="Symbol_44_0_Layer0_0_FILL">
<path fill="#FFFFFF" stroke="none" d="
M 1050.75 558.05
Q 1047.85 560.75 1045.7 563.75 1043.55 566.75 1043.25 568.25 1046.15 566.95 1049.2 564.45 1052.2 561.9 1054.2 559.25 1056.25 556.6 1056.2 554.8 1053.7 555.4 1050.75 558.05 Z"/>
</g>

<g id="Symbol_10_0_Layer0_0_FILL">
<path fill="#0081C6" stroke="none" d="
M 1005.65 543.5
L 1001.25 543.5 1001.25 545.8
Q 999.95 544.35 998.5 543.65 997.05 542.95 995.4 542.95 993.5 542.95 991.9 543.7 990.3 544.45 989.05 545.9 987.8 547.35 987.15 549.2 986.55 551.05 986.55 553.25 986.55 555.5 987.15 557.35 987.8 559.2 989.05 560.7 990.35 562.2 991.95 562.9 993.55 563.65 995.5 563.65 997.05 563.65 998.5 563 999.95 562.35 1001.25 561.05
L 1001.25 563.1 1005.65 563.1 1005.65 543.5
M 1001.55 553.35
Q 1001.55 554.7 1001.15 555.85 1000.8 557 1000.05 557.9 999.3 558.75 998.35 559.15 997.35 559.6 996.15 559.6 995.05 559.6 994.1 559.15 993.15 558.7 992.4 557.8 991.7 556.95 991.35 555.8 990.95 554.65 990.95 553.25 990.95 551.9 991.35 550.8 991.7 549.7 992.45 548.8 993.2 547.95 994.15 547.5 995.1 547.05 996.2 547.05 997.4 547.05 998.35 547.5 999.3 547.9 1000.05 548.8 1000.8 549.7 1001.15 550.8 1001.55 551.95 1001.55 553.35
M 980.35 543.45
Q 979.9 543.7 979.35 544.15 978.85 544.6 978.25 545.25
L 978.25 543.5 973.9 543.5 973.9 563.1 978.25 563.1 978.25 552.95
Q 978.25 550.15 979.1 548.75 980 547.35 981.8 547.35 982.35 547.35 982.95 547.6 983.6 547.8 984.2 548.25
L 986.2 544.15
Q 985.25 543.55 984.35 543.25 983.45 542.95 982.6 542.95 981.95 542.95 981.4 543.1 980.85 543.2 980.35 543.45
M 1016.6 543.45
Q 1016.15 543.7 1015.65 544.15 1015.1 544.65 1014.45 545.3
L 1014.45 543.5 1010.15 543.5 1010.15 563.1 1014.45 563.1 1014.45 553
Q 1014.45 551.45 1014.7 550.3 1014.9 549.2 1015.3 548.45 1015.75 547.75 1016.4 547.4 1017.05 547.05 1018 547.05 1019.45 547.05 1020.15 548.35 1020.9 549.65 1020.9 552.25
L 1020.9 563.1 1025.25 563.1 1025.25 553
Q 1025.25 551.4 1025.45 550.3 1025.65 549.15 1026.05 548.45 1026.45 547.75 1027.1 547.4 1027.75 547.05 1028.65 547.05 1029.45 547.05 1030 547.35 1030.55 547.65 1030.9 548.25 1031.25 548.8 1031.4 549.8 1031.55 550.8 1031.55 552.2
L 1031.55 563.1 1035.9 563.1 1035.9 551
Q 1035.9 546.95 1034.35 544.95 1032.75 542.95 1029.55 542.95 1027.8 542.95 1026.45 543.7 1025.05 544.4 1024.05 545.85 1023.1 544.4 1021.85 543.7 1020.6 542.95 1019 542.95 1018.3 542.95 1017.7 543.1 1017.1 543.2 1016.6 543.45
M 920.15 543.5
Q 918.9 542.95 917.25 542.95 915.8 542.95 914.55 543.55 913.25 544.15 912.1 545.3
L 912.1 543.5 907.75 543.5 907.75 563.1 912.1 563.1 912.1 553.65
Q 912.1 551.8 912.35 550.55 912.55 549.25 913 548.55 913.45 547.8 914.25 547.4 915 547.05 916.05 547.05 917.05 547.05 917.75 547.35 918.45 547.6 918.8 548.15 919.2 548.7 919.4 549.7 919.6 550.7 919.6 552.15
L 919.6 563.1 923.95 563.1 923.95 551.1
Q 923.95 549 923.55 547.5 923.15 546.05 922.35 545.1 921.45 544.05 920.15 543.5
M 903.25 543.5
L 898.9 543.5 898.9 563.1 903.25 563.1 903.25 543.5
M 900 538.1
Q 900.5 538.35 901.1 538.35 901.65 538.35 902.15 538.1 902.65 537.9 903.05 537.45 903.5 537.05 903.7 536.5 903.9 536 903.9 535.4 903.9 534.75 903.7 534.25 903.5 533.75 903.05 533.3 902.65 532.9 902.15 532.65 901.65 532.45 901.05 532.45 900.5 532.45 900 532.65 899.5 532.9 899.05 533.3 898.65 533.75 898.45 534.25 898.25 534.75 898.25 535.35 898.25 536 898.45 536.5 898.65 537.05 899.05 537.45 899.5 537.9 900 538.1
M 941.45 543.7
Q 939.65 542.95 937.55 542.95 935.5 542.95 933.7 543.7 931.9 544.45 930.45 545.95 929 547.45 928.3 549.25 927.55 551.05 927.55 553.15 927.55 555.4 928.25 557.3 929 559.15 930.4 560.65 931.85 562.15 933.6 562.9 935.4 563.65 937.5 563.65 939.6 563.65 941.4 562.9 943.25 562.15 944.7 560.7 946.15 559.2 946.9 557.35 947.6 555.5 947.6 553.3 947.6 551.15 946.9 549.3 946.15 547.45 944.7 545.95 943.25 544.45 941.45 543.7
M 943.15 553.35
Q 943.15 554.75 942.8 555.9 942.4 557.05 941.65 557.9 940.9 558.75 939.85 559.2 938.85 559.6 937.55 559.6 936.3 559.6 935.3 559.15 934.25 558.75 933.5 557.9 932.75 557 932.35 555.85 932 554.7 932 553.25 932 551.85 932.4 550.75 932.75 549.65 933.55 548.8 934.3 547.9 935.3 547.45 936.35 547.05 937.55 547.05 938.85 547.05 939.85 547.45 940.85 547.9 941.65 548.8 942.4 549.65 942.8 550.75 943.15 551.9 943.15 553.35
M 962.4 543.65
Q 960.9 542.95 959.15 542.95 957.1 542.95 955.5 543.75 953.85 544.55 952.6 546.15 951.45 547.65 950.9 549.45 950.3 551.3 950.3 553.4 950.3 555.6 950.95 557.45 951.55 559.3 952.8 560.75 954 562.2 955.6 562.9 957.15 563.65 959.1 563.65 960.8 563.65 962.25 562.95 963.75 562.25 965.05 560.9
L 965.05 563.65
Q 965.05 566.65 963.85 568.2 962.65 569.7 960.3 569.7 959 569.7 958 569.25 957 568.8 956.35 567.85 956.05 567.5 955.85 566.9 955.65 566.35 955.5 565.65
L 951.15 565.65
Q 951.35 567.55 952.05 569.05 952.8 570.55 954.05 571.65 955.25 572.7 956.8 573.25 958.35 573.8 960.25 573.8 962.5 573.8 964.25 573 966 572.25 967.25 570.75 967.95 569.95 968.4 569 968.85 568.05 969.05 566.95 969.15 566.55 969.2 566.05 969.25 565.6 969.3 565.05 969.35 564.55 969.35 563.95 969.4 563.3 969.4 562.6
L 969.4 543.5 965.05 543.5 965.05 545.7
Q 963.85 544.35 962.4 543.65
M 965.2 553.35
Q 965.2 554.7 964.9 555.8 964.55 556.85 963.9 557.75 963.15 558.65 962.2 559.15 961.2 559.6 959.95 559.6 958.7 559.6 957.75 559.15 956.75 558.7 956.05 557.75 955.4 556.9 955.1 555.8 954.75 554.7 954.75 553.35 954.75 552 955.1 550.9 955.4 549.8 956.05 548.95 956.75 548 957.75 547.5 958.7 547.05 959.95 547.05 961.1 547.05 962.05 547.5 963 547.9 963.75 548.8 964.5 549.65 964.85 550.8 965.2 551.9 965.2 553.35
M 887.65 542.95
Q 886.25 542.95 885 543.5 883.7 544.05 882.55 545.15
L 882.55 534 878.2 534 878.2 563.1 882.55 563.1 882.55 553.6
Q 882.55 551.8 882.8 550.55 883 549.25 883.45 548.5 883.9 547.8 884.7 547.4 885.55 547.05 886.65 547.05 887.55 547.05 888.2 547.3 888.85 547.55 889.25 548.1 889.65 548.65 889.85 549.5 890.05 550.35 890.05 551.5
L 890.05 563.1 894.4 563.1 894.4 551.1
Q 894.4 549.05 894 547.55 893.6 546.05 892.75 545.1 891.8 544.05 890.55 543.5 889.25 542.95 887.65 542.95
M 868.15 543.5
L 863.8 543.5 863.8 563.1 868.15 563.1 868.15 552.95
Q 868.15 550.15 869.05 548.75 869.95 547.35 871.7 547.35 872.3 547.35 872.9 547.6 873.5 547.8 874.15 548.25
L 876.1 544.15
Q 875.2 543.55 874.3 543.25 873.4 542.95 872.5 542.95 871.85 542.95 871.3 543.1 870.75 543.2 870.3 543.45 869.8 543.7 869.3 544.15 868.75 544.6 868.15 545.25
L 868.15 543.5 Z"/>
</g>

<g id="Symbol_29_0_Layer0_0_FILL">
<path fill="#FFFFFF" stroke="none" d="
M 927.6 155.25
Q 919.9 157.4 912.5 160.95 905.1 164.5 899.6 168.2 894.1 171.9 892.1 174.45 890.65 176.9 889.1 184 887.55 191.1 886.2 199.45 884.9 207.8 884.1 213.85
L 883.25 220.15 886.85 220.55
Q 890.25 220.9 893.75 221.15
L 896.55 221.25 897.9 221.15
Q 909.4 211.7 918.1 202.95 926.8 194.25 932.05 187.8
L 936.35 182.3 938.55 178.7
Q 939.75 175.9 940.75 170.55 941.8 165.2 942.15 160.2
L 942.2 156.1 941.7 153.65
Q 935.3 153.1 927.6 155.25 Z"/>
</g>

<g id="Layer0_7_FILL">
<path fill="#0081C6" stroke="none" d="
M 921.2 438.45
L 921.35 439 921.4 439.35
Q 921.6 440.7 921.85 442 922.1 443.3 922.45 444.55 927.1 453.2 929.95 460.75 932.75 468.3 933.45 473.45 934.2 478.85 935.3 490 936.4 501.15 936.9 516.15 937.4 531.1 936.35 547.9 935.3 564.7 931.8 581.35 931.5 582.95 931.1 584.5 930.75 586.05 930.35 587.6 930.25 587.95 930.15 588.35
L 929.95 589.1 930 589.25
Q 930.5 590.75 931.05 592.35 931.55 593.9 932.15 595.5 938.3 613 946.3 631.9 954.35 650.8 962.3 668.1 970.2 685.4 976.15 698.2 982.05 710.95 984 716.25 984.2 716.85 984.5 718.3 984.75 719.75 985.05 721.85 985.4 722.55 985.95 723.6 986.5 724.65 987.2 725.5 987.85 726.4 988.45 726.65 988.6 726.7 988.9 726.8 989.2 726.9 989.4 726.95 989.35 726.1 988.95 725.2
L 988.35 724
Q 987.1 721.05 986.4 717.9 985.7 714.75 984.7 711.65 979.85 697.95 973.95 684.65 968.05 671.35 961.9 658.15 955.75 644.95 950.1 631.5 945.75 621 941.9 610.6 938.05 600.2 934.55 589.6 935.4 586.85 936.1 583.8 936.85 580.8 937.4 578.3 937.9 575.8 938.15 574.5 941.4 557.25 942.5 538.65 943.65 520.1 942.3 501.6 940.95 483.15 936.75 466.1 934.7 458.05 931.3 451.05 927.9 444 923.15 437.1 922.9 436.6 922.45 436 922 435.45 921.3 435.7 920.85 435.95 920.95 436.35 921 436.8 920.9 437.2 921.1 437.75 921.2 438.45 Z"/>

<path fill="#FFFFFF" stroke="none" d="
M 842.1 386.55
Q 833.85 380.6 827.9 374.15 821.95 367.65 817.55 365.05 813.15 362.4 809.5 368 791.15 398.6 784.5 433.7 777.8 468.8 778.55 503.05 779.3 537.3 783.15 565.3 787.05 593.3 789.8 609.7 792.75 626.25 807.05 649.5 821.3 672.75 839.85 696.4 858.4 720.05 874.3 737.75
L 887.75 752.35 896.35 760.85
Q 902.1 765.75 911.5 769.65 920.9 773.5 931.8 775.6 942.75 777.7 953.1 777.3 963.4 776.85 971.1 773.2 977.2 769.95 980.45 763.5 983.75 757.1 984.9 749.3 986.05 741.5 985.9 734.2 985.75 726.85 985.05 721.85 984.75 719.75 984.5 718.3 984.2 716.85 984 716.25 982.05 710.95 976.15 698.2 970.2 685.4 962.3 668.1 954.35 650.8 946.3 631.9 938.3 613 932.15 595.5 931.55 593.9 931.05 592.35 930.5 590.75 930 589.25
L 929.95 589.1 930.15 588.35
Q 930.25 587.95 930.35 587.6 930.75 586.05 931.1 584.5 931.5 582.95 931.8 581.35 935.3 564.7 936.35 547.9 937.4 531.1 936.9 516.15 936.4 501.15 935.3 490 934.2 478.85 933.45 473.45 932.75 468.3 929.95 460.75 927.1 453.2 922.45 444.55 916.1 432.7 906.85 421.45 897.65 410.15 886.2 402.45 874.75 394.75 861.7 393.65 850.35 392.55 842.1 386.55 Z"/>
</g>

<g id="Symbol_32_0_Layer0_0_FILL">
<path fill="#0081C6" stroke="none" d="
M 943.65 840.8
Q 942.6 838.75 942.2 837.35 941.45 834.6 941.05 831.85 940.7 829.05 940.15 826.35
L 939.65 824.85 939.1 824.45
Q 938.5 824.55 938.05 825.8 937.65 827 937.65 828.25 937.8 831.4 938.75 835.75 939.7 840.1 941.85 843.7 943.95 847.3 947.65 848.15 951.1 848.6 953.45 845.55 955.8 842.55 957.1 838.5 958.4 834.45 958.75 831.75 958.9 830.75 958.95 828.85 959 826.95 958.7 825.25 958.4 823.5 957.45 822.95
L 957.25 822.9
Q 957.1 822.9 957.05 822.95 956.7 823.3 956.6 823.8
L 956.45 824.5
Q 956.2 826.4 956.15 828.4 956.15 830.4 955.8 832.35 955.5 834.05 954.65 836.85 953.8 839.65 952.5 842.15 951.2 844.6 949.5 845.25 947.75 845.7 946.2 844.3 944.7 842.85 943.65 840.8 Z"/>
</g>

<g id="Symbol_33_0_Layer0_0_FILL">
<path fill="#0081C6" stroke="none" d="
M 943.35 838.65
Q 942.15 836.05 941.4 832.95 940.6 829.9 939.6 827.1
L 939.2 826.4 938.9 826.25
Q 938.6 826.4 938.45 827.1 938.3 827.8 938.3 828.5 938.5 831.6 939.5 835.45 940.5 839.25 942.25 842.4 943.95 845.55 946.3 846.7 950.3 848.25 953.15 845.6 956 842.95 957.6 838.15 959.2 833.4 959.35 828.65 959.35 827.95 959.35 826.95 959.3 825.95 959.1 825.15 958.85 824.4 958.4 824.45 958.25 824.75 958.1 825.1
L 957.95 825.6
Q 957.35 827.6 957.1 829.8 956.8 831.95 956.3 834.1 955.15 838.55 953 841.25 950.85 843.95 948.25 843.6 945.7 843.25 943.35 838.65 Z"/>
</g>

<g id="Layer0_10_FILL">
<path fill="#FFFFFF" stroke="none" d="
M 954.2 504.75
Q 940.45 494 924.4 485 893.25 467.6 857.75 456.7 822.25 445.85 786.1 444.75 749.9 443.7 716.65 455.8 683.45 467.9 656.75 496.5 651 502.85 645.6 510.1 640.2 517.35 635.3 525.05 630.4 532.7 626.15 540.3 624.75 542.6 623.5 545.55 622.3 548.5 622.45 551.15
L 622.4 551.45
Q 620.25 555 618.35 558.35 616.45 561.7 614.8 564.75 599.4 593.2 592.8 621.85 586.2 650.5 586.65 680.1 587.1 709.65 592.8 740.9 595.2 754.95 598.15 769.65 601.05 784.4 605.4 798.7 609.7 813.05 616.4 825.95 620.45 833.75 624.45 840.6 628.5 847.5 633.05 854 637.65 860.55 643.45 867.4 644.95 869.25 648.65 873.55 652.4 877.9 656.25 881.4 660.1 884.95 662.15 884.5 662.35 884.4 662.5 884.3 662.65 884.25 662.8 884.15 665.15 884.65 667.45 885 669.8 885.35 670.85 885.55 684.75 888.55 699.4 889.9 714.1 891.25 728.8 891.75 743.5 892.3 757.6 892.75 760.65 892.9 766.4 893 772.15 893.1 777.7 892.75 783.2 892.45 785.65 891.35 787.7 890.3 787.9 889.4 788.1 888.5 787.15 887.8 786.7 887.45 786.05 887.1 785.4 886.8 784.65 886.55 784.35 885.95 783.85 885.3 783.4 884.65 782.8 884.05 777 878.05 773.75 870.2 770.55 862.35 770.55 854.15 770.55 845.95 774.45 838.95 778.3 831.95 786.65 827.65 792.65 826.15 798.3 825.35 803.95 824.5 809.75 825.15 815.6 825.8 822.2 828.75 831.2 833 837.55 840.6 843.95 848.2 848.4 857.6 852.85 867.05 856.05 876.8 859.3 886.6 862 895.25 862.05 895.45 862.15 895.65 862.25 895.9 862.3 896.1 861.2 896.45 861.45 897.3 861.7 898.15 863.25 899 863.55 899.15 863.9 899.3 864.2 899.45 864.6 899.55 877.7 903.75 892.55 905.5 907.4 907.25 922.5 907.75 937.6 908.25 951.35 908.7 952.4 908.75 953.6 908.7 954.8 908.65 955.75 908.3 956.7 907.9 956.95 906.9 957.25 907.3 957.8 907.5 958.35 907.75 959.15 907.85 961.75 907.75 963.85 903.4 966 899.1 967.35 894.05 968.75 889 969.15 886.75 971.55 873.55 971.45 858.9 971.35 844.25 971.6 829.55 971.85 814.8 975.25 801.35 978.65 787.85 988.05 777.05 991.05 773.6 994.05 769.85 997.05 766.1 1000.2 762.55 1003.4 759 1006.95 756.2 1008.85 754.7 1008.7 753.65 1008.55 752.65 1007.15 752.1 1005.8 751.5 1003.95 751.4
L 1003.05 751.3
Q 1002.35 751.25 1001.8 751.45 1000.6 751.55 999.3 752.05
L 997.65 752.7
Q 996.5 753.2 995.3 753.85 994.05 754.45 992.85 755.25 995.15 744.15 998 733.3 1000.8 722.45 1004.9 711.75 1011.5 694.9 1019 678.5 1026.5 662.1 1034.45 645.85 1042.45 629.65 1050.35 613.4 1052.35 609.3 1054.45 604.7 1056.55 600.1 1058.45 595.4 1060.35 590.7 1061.75 586.3 1062.4 586.5 1063.05 586.65 1063.7 586.85 1064.35 587.05 1067.55 587.9 1070.7 588.8 1073.9 589.7 1077.1 590.45 1077.75 590.65 1078.4 590.8 1079 591 1078.95 590.35 1078.05 589.65 1076.85 589.15
L 1075.3 588.5
Q 1072.1 587.2 1068.9 585.95
L 1062.55 583.5 1062.9 581.65 1062.9 580.6
Q 1062.7 580 1061.75 580.6 1061.35 580.95 1061 581.5 1060.6 582.1 1060.3 582.6 1055.35 580.65 1050.5 578.4 1045.6 576.15 1041 573.2 1032 567.55 1023.8 562.05 1015.65 556.55 1007.5 549.95 993.8 538.55 980.85 527 967.9 515.5 954.2 504.75
M 643.6 882.85
Q 642.9 882.55 642.3 882.95 641.95 883.1 641.8 883.5 641.65 883.95 641.9 884.3 642.9 885.25 643.6 884.85 644.35 884.45 644.2 883.95 644.3 883.2 643.6 882.85 Z"/>
</g>

<g id="Layer0_11_FILL">
<path fill="#0081C6" stroke="none" d="
M 765.35 291.65
Q 765.8 288 767.1 284.8 768.4 281.65 769.8 278.6 771.25 275.5 772.15 272.2
L 772.25 271.95 772.5 271.5
Q 772.75 270.95 772.7 270.35 771.25 270.95 770 272.2 768.8 273.4 768.4 274 761.65 284.6 761.2 297.25 760.7 309.9 763.7 322.75 766.65 335.65 770.25 346.8 775.7 364.95 783.9 380.3 792.1 395.6 803.75 408.5 815.4 421.4 831.1 432.2 843.8 440.9 857.35 449 870.9 457.1 884.95 464.2 898.95 471.3 913.15 477.05 920.6 480 928.2 482.2 935.8 484.35 943.45 486.2 951.1 488.05 958.6 490.1 959.4 490.4 960.2 490.7 961 490.95 961.7 490.55 962.2 490.15 961.75 489.75 961.35 489.4 961 489.2 959.8 488.6 958.4 487.9
L 956.65 487.05
Q 945.2 481.75 933.85 477.15 922.5 472.55 910.95 467.6 896.8 461.45 882.35 454.3 867.9 447.15 854 438.7 840.1 430.25 827.55 420.2 821.5 415.35 815.95 410.05 810.35 404.8 805.35 399.05 798.6 391.35 793.1 382.8 787.55 374.2 783.5 364.7 779.25 354.9 774.7 341.95 770.1 329 767.3 315.7 764.45 302.45 765.35 291.65
M 1173.8 358.75
Q 1173.2 360.45 1172.95 361.25 1169.85 369.05 1167.05 376.9 1164.25 384.8 1161.15 392.55 1158.1 400.3 1154.2 407.8 1149.25 417.2 1143.05 425.3 1136.9 433.4 1128.9 440 1126.7 442.3 1124.45 444.3 1122.25 446.35 1119.95 448.05
L 1119.9 448.1
Q 1119.85 448.25 1119.8 448.4 1119.75 448.55 1119.75 448.7 1119.15 449.05 1118.55 449.35 1118 449.7 1117.4 450 1111.3 454.65 1105.05 458.9 1098.8 463.15 1091.9 466.75 1100.3 463.95 1108 460.45 1115.75 457 1122.35 452.75 1123.15 452.25 1124.25 451.45 1125.4 450.6 1126.8 449.55 1140.45 440.55 1150.55 426.15 1160.65 411.75 1167.2 395.25 1173.75 378.7 1176.75 363.4 1176.95 362.5 1177.25 360.55 1177.55 358.65 1177.55 356.8 1177.5 355 1176.65 354.55 1175.85 354.35 1175.1 355.7 1174.35 357.05 1173.8 358.75 Z"/>

<path fill="#FFFFFF" stroke="none" d="
M 1171.3 163.45
Q 1167.8 161.75 1164.35 162.9 1160.9 164.05 1159.45 167.3
L 1156 172.55 1148.5 181.6
Q 1138.9 192.55 1124.25 205 1109.6 217.45 1092.9 225.3 1076.25 233.2 1060.65 230.5 1052.3 228.55 1046.7 223.5 1041.1 218.5 1037.85 212.3 1034.55 206.1 1033.15 200.65 1031.75 195.25 1031.75 192.5 1031.55 189.8 1028.75 188.9 1025.95 188 1022.25 188.65 1018.6 189.3 1015.75 191.35
L 1013.5 191.4 1010.25 189.95 1000.75 182.5
Q 989.2 172.05 972.95 158.15 956.65 144.2 939 135.55 921.3 126.85 905.55 132.05 894.3 137 877.55 155 860.75 173.05 843.85 194.95 826.95 216.8 815.2 233.35
L 802.3 251.85
Q 791.9 268.4 789.35 288.9 786.75 309.4 789.25 330.4 791.7 351.4 796.45 369.4 801.15 387.45 805.35 399.05 810.35 404.8 815.95 410.05 821.5 415.35 827.55 420.2 834.7 423.3 842.1 426.45 849.55 429.6 855.2 431.9
L 862.65 434.9
Q 864.4 435.55 860.3 433.6 868.1 437.1 882.95 443 897.75 448.95 916.85 455.65 935.95 462.3 956.65 467.95 977.35 473.65 996.9 476.55 1020.35 479.9 1037.8 479.45 1055.3 479 1068.4 475.65 1081.55 472.25 1091.9 466.75 1098.8 463.15 1105.05 458.9 1111.3 454.65 1117.4 450 1118.05 449.55 1118.65 449.05
L 1119.9 448.1 1119.95 448.05
Q 1122.25 446.35 1124.45 444.3 1126.7 442.3 1128.9 440 1141.15 426.85 1151.45 407.2 1161.7 387.55 1169.35 364.6 1176.95 341.65 1181.25 318.7 1185.55 295.75 1185.95 276 1186.3 242.1 1184.25 219.7 1182.2 197.35 1179.7 185.35
L 1176.35 170.55
Q 1174.8 165.15 1171.3 163.45 Z"/>
</g>

<g id="Symbol_107_0_Layer0_0_FILL">
<path fill="#0081C6" stroke="none" d="
M 951.1 329.25
Q 948.25 328.6 945.6 328.1 942.95 327.55 939.95 327.7 938.65 327.75 936.9 328 935.1 328.3 933.4 328.9 932.85 328.95 932.4 329.1 931.95 329.25 931.5 329.4 931.05 329.65 930.8 329.95 930.5 330.25 930.45 330.55 930.1 330.9 929.8 331.25 929.55 331.6 929.35 332 928.7 333.7 930.1 334.25 931.5 334.8 933.45 334.75 935.35 334.7 936.15 334.55 936.75 334.45 937.3 334.4 937.9 334.35 938.45 334.3 937.8 336.35 937.4 339 936.95 341.65 936.85 344.35 936.7 347 936.9 349.15 937.5 353.95 939.95 356.9 942.35 359.8 945.75 360.2 949.15 360.6 952.75 357.9 954.15 356.75 955.15 355.7 956.15 354.6 956.9 353.45 955.1 355.2 952.95 356.05 950.8 356.95 948.5 356.8 947.2 356.7 946 356.25 944.8 355.85 943.75 355.15 943.35 354.95 943 354.7 942.65 354.4 942.35 354 941.75 353.5 941.25 352.9 940.75 352.25 940.3 351.55 938.85 349.3 938.2 346.35 937.55 343.45 937.85 340.15 938 338.55 938.4 337.05 938.8 335.55 939.4 334.2 939.5 333.95 939.6 333.75 939.7 333.5 939.8 333.3 940.3 333.3 940.75 333.25 941.2 333.2 941.6 333.1
L 941.65 333.1
Q 942.35 333.15 943.05 333.15 943.75 333.2 944.45 333.25 946.8 333.95 949.6 334.65 952.35 335.4 955.2 336 956.15 336.2 957.05 336.4 957.95 336.55 958.85 336.7 959 336.75 959.15 336.75 959.3 336.8 959.45 336.8
L 959.7 336.85 959.95 336.85 960.25 336.9
Q 960.75 337 961.25 337.05 961.7 337.1 962.2 337.15
L 962.25 337.15 962.2 337.05
Q 961.95 336.5 961.7 335.95
L 961.1 334.6 960.65 334.55
Q 960.55 334.45 960.5 334.35 960.4 334.3 960.35 334.2 960.15 334.1 959.9 333.95
L 959.65 333.75
Q 959.55 333.65 959.45 333.6 959.35 333.55 959.25 333.5 959.05 333.25 958.9 333.05 958.7 332.9 958.65 332.85 957.85 332.1 956.45 331.4 955.05 330.65 953.6 330.05 952.1 329.5 951.1 329.25 Z"/>

<path fill="#0081C6" stroke="none" d="
M 944.45 333.25
Q 943.75 333.2 943.05 333.15 942.35 333.15 941.65 333.1
L 941.6 333.1
Q 941.2 333.2 940.75 333.25 940.3 333.3 939.8 333.3 939.7 333.5 939.6 333.75 939.5 333.95 939.4 334.2 938.8 335.55 938.4 337.05 938 338.55 937.85 340.15 937.55 343.45 938.2 346.35 938.85 349.3 940.3 351.55 940.75 352.25 941.25 352.9 941.75 353.5 942.35 354 942.65 354.35 943 354.6 943.35 354.9 943.75 355.15 944.8 355.85 946 356.25 947.2 356.7 948.5 356.8 950.8 356.95 952.95 356.05 955.1 355.2 956.9 353.45 957.1 353.3 957.25 353.1 957.4 352.95 957.6 352.75 959.5 350.7 960.7 347.95 961.95 345.15 962.3 341.85 962.4 340.65 962.4 339.45 962.35 338.25 962.2 337.15 961.7 337.1 961.25 337.05 960.75 337 960.25 336.9
L 959.95 336.85 959.7 336.85 959.45 336.8
Q 959.3 336.8 959.15 336.75 959 336.75 958.85 336.7 957.95 336.55 957.05 336.4 956.15 336.2 955.2 336 952.35 335.4 949.6 334.65 946.8 333.95 944.45 333.25 Z"/>
</g>

<g id="Symbol_108_0_Layer0_0_FILL">
<path fill="#FFFFFF" stroke="none" d="
M 913.75 284.45
Q 911.4 277.7 905.85 272.8 900.35 267.9 890.55 266.1 880.6 264.55 873.65 267.6 866.65 270.7 862 276.45 857.35 282.25 854.5 288.8 851.65 295.35 849.95 300.7 858.85 301.75 870.05 303.6 881.25 305.45 893.05 307.7 904.8 309.9 915.4 312.05 916.35 305.6 916.2 298.4 916.05 291.15 913.75 284.45 Z"/>
</g>

<g id="Layer0_14_FILL">
<path fill="#a6ce38" stroke="none" d="
M 691.15 346.2
Q 691.35 343.8 690.55 342.65 690.15 342.8 689.8 343.25 689.45 343.7 689.3 343.9 688.65 345.15 687.7 347.8 686.8 350.5 686.3 352.05 685.25 355.25 684.2 358.4 683.15 361.6 682.1 364.75 681.15 365.35 680.2 365.95
L 676.9 368.05
Q 675.9 368.75 675.25 369.7 675 370.05 674.95 370.55 674.9 371.05 675.05 371.4 675.7 372.65 677.05 372.6 678.35 372.55 679.7 372 676.75 380.8 673.8 389.55 670.9 398.3 668 407.1
L 667.45 408.85
Q 667 410.25 666.65 411.5 666.5 412.4 666.1 413.3
L 665.65 414.45
Q 665.15 416.2 664.7 418 664.2 419.8 663.8 421.6 658.7 443.7 655.3 466.85 651.9 490.05 650.1 512.15 646.25 558.35 647.95 606.55 649.7 654.7 658 700.15 666.3 745.65 682.05 783.8 694.85 814.1 705.35 845.95 715.8 877.75 723.35 911.9 723.65 913.4 724.4 915.6 725.15 917.8 726.25 920.3 725.75 935.95 725.4 951.65 725 967.35 724.65 983.3 723.75 1024.25 723.85 1064.8 723.9 1105.35 723.2 1146.1 722.35 1181.8 720.5 1218.4 718.7 1255 717.05 1291.5 715.45 1327 711.4 1362.7 707.35 1398.35 702.2 1434 698 1463.85 692.55 1496 687.05 1528.2 680.05 1558.9 677.8 1568.35 674.95 1579.45 672.15 1590.55 670.25 1601.2 668.4 1611.9 669 1620.1 669.2 1624.6 669.1 1630.1 668.95 1635.65 670.05 1637.8
L 671.85 1638 675 1634.3
Q 679.7 1627.6 683.55 1622.1 687.4 1616.65 690.5 1608.85 690.95 1609.6 691.45 1610.25 691.95 1610.9 692.55 1611.5
L 694.25 1613.45 696.4 1612
Q 697.1 1611.35 697.7 1610.7 698.3 1610 698.8 1609.3 698.2 1611.4 698.05 1613.6 697.85 1615.8 699 1616.25 699.8 1615.9 700.05 1614.9 700.3 1613.95 700.35 1613.5 703.1 1605.1 704.9 1596.45 706.7 1587.8 708.5 1579.25 708.75 1578.6 709.2 1577 709.65 1575.45 709.2 1574.45 709 1575 708.7 1575.7
L 708.25 1576.6
Q 706.95 1580.5 705.75 1584.55 704.5 1588.6 703.45 1592.6 706.15 1543.25 717.9 1490.25 729.6 1437.25 745.95 1386.3 750.25 1372.6 755.9 1355.65 761.6 1338.75 767.8 1322.5 774 1306.25 779.9 1294.65 796.95 1261.8 815.15 1231.75 833.3 1201.7 851.65 1172.1 870.45 1141.35 889.2 1111.8 907.95 1082.3 927.3 1053.5 947.45 1023.75 967.7 993.75 988 963.7 1007.75 932.05 1031.85 902.9 1054.75 870.1 1077.65 837.3 1098.4 803.45 1111.6 781.95 1124.25 759.65 1136.85 737.3 1148.1 714.35 1160.15 689.65 1171.15 664.2 1182.15 638.8 1191.4 612.25 1198.65 591.95 1205.15 569.75 1211.6 547.5 1213.95 526.15 1214.15 523.7 1213.8 519.35 1213.4 515 1212.2 513.35
L 1210.7 513.6 1208.65 517.45
Q 1206.65 522.65 1205 528.4 1203.3 534.15 1201.65 539.85 1201.6 538.15 1201.3 536.5 1201 534.9 1200.5 533.45 1197 524.9 1189.4 521.15 1181.85 517.4 1172.5 517.6 1163.15 517.8 1154.35 521.15 1152.9 517.05 1148.85 516.4 1144.75 515.8 1140.4 520.3 1135.95 525.4 1132.1 531.6 1128.25 537.8 1124.35 543.5 1097.05 582.6 1069.2 621.4 1041.3 660.25 1011.1 697.15 1002.15 707.6 991.4 716 980.65 724.45 969.95 733 967.45 735.05 964.55 737.45 961.7 739.85 958.75 742.5 958.45 745.35 958.15 748.2 957.85 751.05 957.65 753.9 957.55 754.65 957.5 755.45
L 957.4 757
Q 956.35 769.35 954.75 781.5 953.15 793.65 950.75 806.05 945.25 834.6 938.6 863.1 931.9 891.6 924.45 920.2
L 924.45 920.25
Q 917.25 949.55 910.6 979.25 903.95 1008.95 893.9 1037.2 886.7 1056.5 878.7 1074.95 870.7 1093.45 861.95 1111.85 861.8 1112.2 861.45 1113 861.1 1113.75 860.5 1114 858.85 1113.75 859.9 1110.6 860.9 1107.4 861.8 1105.05 868.05 1085.5 875 1066.5 881.95 1047.45 889.25 1028.55 898.5 1003.35 904.6 976.15 910.7 949 917.2 922.5 920.9 908.15 924.65 893.75 928.35 879.4 932.1 865.05 932.7 862.8 933.25 860.6 933.85 858.35 934.4 856.1 939 837.95 943.05 819.45 947.05 800.95 949.85 783.05 950.75 777.05 951.55 771.05 952.35 765.1 953.1 759.1 953.45 755.95 953.85 752.75 954.25 749.6 954.6 746.45 954.2 746.85 953.8 747.25 953.4 747.65 953.05 748.05 954.65 739.95 956.05 731.85 957.45 723.8 958.6 715.8 960.75 701.95 961.5 684.35 962.25 666.75 958.5 650.2 954.75 633.7 943.45 623.1 943.95 616.85 944.3 610.6 944.65 604.3 944.7 598.1 944.95 593.25 944.45 584.6 944 575.95 940.75 569.75 937.5 563.5 929.35 565.95 924.1 568.15 919.7 575.5 915.3 582.85 912.15 591.25 909.05 599.6 907.7 604.85
L 907.35 606.2
Q 907.05 607.25 906.8 608.2 906.65 609 906.45 610.3 906.2 611.6 906 613.15 894 615.45 885.25 623.5 876.5 631.5 870.7 643 864.85 654.5 861.65 667.25
L 861.3 668.6
Q 861 669.7 860.8 670.6 860.4 671.3 860.15 672.25
L 859.8 673.45
Q 857.9 683.15 856.55 693.4 855.15 703.65 854.65 714 853.2 717.6 851.85 721.2 850.45 724.8 849.15 728.35 848.4 730.3 847.65 732.25 846.9 734.2 846.15 736.15 845.2 740.9 844.25 745.65 843.3 750.35 842.4 755.1 841.4 760.6 840.2 766.1 838.95 771.6 837.55 777.1 836.05 783.05 834.45 788.95 832.85 794.9 831.15 800.8 829.4 807.1 827.65 813.35 825.9 819.65 824.3 825.85 823 830.9 821.65 835.9 820.3 840.9 818.95 845.9 812.3 869.8 805.85 893.7 799.45 917.6 794.6 941.95 791.2 960.25 788 978.7 784.8 997.15 780.2 1015.45 779.1 1019.9 778.1 1024.5 777.1 1029.05 775.95 1033.5
L 775.05 1035.85 774.1 1036.5 773.45 1035.5 773.4 1033.05
Q 775.9 1009.15 778.9 985.2 781.85 961.25 785.95 937.45 786.2 936.1 786.45 934.8
L 786.9 932.15
Q 788.5 923.4 790.65 914 792.85 904.65 795.4 896.05
L 795.7 895.15
Q 795.95 894.45 796.2 893.8 796.4 892.9 796.7 891.85
L 797.05 890.5
Q 801.75 872.65 807.1 855.15 812.45 837.65 817.95 820.2 819.95 813.8 821.9 807.35 823.85 800.85 825.8 794.35 827.5 788.4 829.2 782.45 830.85 776.5 832.45 770.55 832.6 770.1 832.7 769.65 832.8 769.2 832.95 768.75 815.25 736.05 802.9 701.35 790.5 666.7 786.4 628.25 785.35 617.4 785.3 607 785.25 596.65 785.45 585.85 786.5 552.9 793.8 519.25 801.15 485.65 808.05 452.65 809.85 443.5 811.6 432.25 813.3 421 813.8 409.85 814.3 398.7 812.4 389.85 808.95 374.5 801.05 361.05 793.15 347.6 781.15 339.85 769.1 332.05 753.3 333.7 737.4 336 721 343.5 704.65 350.95 689.45 360.3 689.85 357.6 690.2 354.95 690.5 352.25 690.75 349.65 690.9 348.55 691.15 346.2 Z"/>

<path fill="#0081C6" stroke="none" d="
M 959.3 712.65
Q 959.05 713.95 958.85 715.25 957.6 723.1 956.55 730.85 955.55 738.65 954.6 746.45 954.25 749.6 953.85 752.75 953.45 755.95 953.1 759.1 952.35 765.1 951.55 771.05 950.75 777.05 949.85 783.05 947.05 800.95 943.05 819.45 939 837.95 934.4 856.1 933.85 858.35 933.25 860.6 932.7 862.8 932.1 865.05 928.35 879.4 924.65 893.75 920.9 908.15 917.2 922.5 910.7 949 904.6 976.15 898.5 1003.35 889.25 1028.55 881.95 1047.45 875 1066.5 868.05 1085.5 861.8 1105.05 860.9 1107.4 859.9 1110.6 858.85 1113.75 860.5 1114 861.1 1113.75 861.45 1113 861.8 1112.2 861.95 1111.85 870.7 1093.45 878.7 1074.95 886.7 1056.5 893.9 1037.2 903.95 1008.95 910.6 979.25 917.25 949.55 924.45 920.25
L 924.45 920.2
Q 931.9 891.6 938.6 863.1 945.25 834.6 950.75 806.05 953.15 793.65 954.75 781.5 956.35 769.35 957.4 757
L 957.5 755.45
Q 957.55 754.65 957.65 753.9 957.85 751.05 958.15 748.2 958.45 745.35 958.75 742.5 959.65 734.7 960.5 726.85 961.3 719.05 961.5 711.4
L 961.45 709.5
Q 961.35 708.1 961.15 707 960.75 707.05 960.7 707.65 960.6 708.2 960.45 708.65 960.4 709.05 960.2 709.55
L 959.95 710.1
Q 959.5 711.4 959.3 712.65
M 848.25 702.95
Q 847.8 704.7 847.5 706.35 844.5 721.8 840.8 737.45 837.15 753.1 832.95 768.75 832.8 769.2 832.7 769.65 832.6 770.1 832.45 770.55 830.85 776.5 829.2 782.45 827.5 788.4 825.8 794.35 823.85 800.85 821.9 807.35 819.95 813.8 817.95 820.2 812.45 837.65 807.1 855.15 801.75 872.65 797.05 890.5
L 796.7 891.85
Q 796.4 892.9 796.2 893.8 795.95 894.45 795.7 895.15
L 795.4 896.05
Q 792.85 904.65 790.65 914 788.5 923.4 786.9 932.15
L 786.45 934.8
Q 786.2 936.1 785.95 937.45 781.85 961.25 778.9 985.2 775.9 1009.15 773.4 1033.05
L 773.45 1035.5 774.1 1036.5 775.05 1035.85 775.95 1033.5
Q 777.1 1029.05 778.1 1024.5 779.1 1019.9 780.2 1015.45 784.8 997.15 788 978.7 791.2 960.25 794.6 941.95 799.45 917.6 805.85 893.7 812.3 869.8 818.95 845.9 820.3 840.9 821.65 835.9 823 830.9 824.3 825.85 825.9 819.65 827.65 813.35 829.4 807.1 831.15 800.8 832.85 794.9 834.45 788.95 836.05 783.05 837.55 777.1 838.95 771.6 840.2 766.1 841.4 760.6 842.4 755.1 843.3 750.35 844.25 745.65 845.2 740.9 846.15 736.15 847.95 727.35 849.2 718.55 850.45 709.7 850.45 700.9
L 850.4 699.8
Q 850.3 698.95 850.15 698.25 849.55 698.05 849.45 698.65 849.3 699.25 849.2 699.65 848.7 701.25 848.25 702.95 Z"/>
</g>

<g id="Layer0_15_FILL">
<path fill="#a6ce38" stroke="none" d="
M 1005.9 257.55
Q 995.2 257.95 985.75 263.85 976.25 269.8 969.9 281.25 966.4 287.8 964.2 295.45 962 303.15 961.2 311.4 960.4 319.65 961.05 328 958.1 318.05 953.95 308.5 949.85 298.9 944.15 290.5 943.5 289.6 942.9 288.75 942.25 287.9 941.6 287.1 940.35 284.95 938.65 283.05 936.9 281.15 935.65 279.95 931.85 276.1 927.25 273.1 922.65 270.1 917.45 268.5 912.25 266.95 906.7 267.35 906.3 267.4 905.95 267.45 905.6 267.55 905.25 267.6
L 905 267.65
Q 904.8 267.7 904.6 267.75 904.2 267.8 903.8 267.9
L 903.25 268.05
Q 899.5 269.1 895.65 271.05 891.85 273.05 888.7 275.9 885.55 278.8 883.8 282.55 883.35 283.5 883 284.5 882.65 285.5 882.45 286.55 882.35 287.2 882.2 288 882.05 288.85 882.1 289.55 881.3 293.05 880.85 296.3 880.35 299.55 880.15 301.9 879.8 306.3 880.25 311.15 880.7 316 881.8 320.95 882.05 325.8 883.55 330.8 885.05 335.85 887.3 340.6 889.55 345.4 892.05 349.45 897.4 358.3 903.95 365.6 910.55 372.95 918.4 379.6 922.2 382.9 927.2 385.9 932.2 388.85 937.65 390.4 943.15 391.95 948.35 390.9 949.55 391.05 950.85 390.65 952.15 390.2 953.35 389.5 954.55 388.75 955.45 387.95 960.8 383.2 963.55 377.65 966.35 372.05 967.1 365.9 967.9 359.8 967.1 353.35 970.1 360.45 974.6 366.45 979.1 372.45 985.15 377 992.3 382.15 999.55 383 1006.8 383.85 1013.65 381.4 1020.5 379 1026.3 374.3 1032.1 369.6 1036.25 363.65 1036.7 363.15 1037.2 362.5 1037.75 361.85 1038.2 361.35
L 1038.75 360.7
Q 1043.95 353.4 1047.2 342.65 1050.4 331.9 1051.3 319.95 1052.15 308 1050.3 297.05 1048.45 286.05 1043.5 278.2 1036.35 267.5 1026.5 262.3 1016.6 257.15 1005.9 257.55
M 1000.5 264.7
L 1001 264.55
Q 1001.4 264.4 1001.75 264.35 1001.95 264.3 1002.2 264.25 1002.4 264.15 1002.5 264.15
L 1002.75 264 1002.9 263.95 1003.2 263.8
Q 1003.55 263.65 1003.9 263.55 1004.1 263.5 1004.35 263.45
L 1004.7 263.35
Q 1005.7 263.15 1006.7 263.15 1007.7 263.15 1008.7 263.2 1011 263.45 1013.3 264 1015.65 264.55 1017.9 265.45 1018.5 265.5 1018.9 265.55 1019.35 265.6 1019.55 265.65 1022.65 266.5 1025.85 268.55 1029 270.6 1031.95 273.5 1036 276.35 1038.65 280.5 1041.3 284.7 1042.9 289.55 1043.65 291.35 1044.1 293.15 1044.6 294.9 1044.8 296.55
L 1044.8 296.85
Q 1045.1 298.25 1045.35 299.6 1045.6 300.95 1045.75 302.3 1046.8 309.25 1046.55 317.15 1046.3 325.1 1044.8 332.85 1043.3 340.6 1040.6 347.15 1037.9 353.55 1033.2 359.75 1028.5 365.95 1022.35 370.55 1016.15 375.15 1009.05 376.7 1001.95 378.25 994.5 375.35 993.5 374.9 993.25 374.4 993.05 373.85 993.6 373.65 991.7 372.85 989.9 371.7 988.1 370.5 986.45 368.95 980.8 363.55 977.1 356.05 973.4 348.5 971.5 340.2 969.6 331.9 969.4 324.3 969.3 320.1 969.55 315.2 969.8 310.3 970.6 305.3 971.4 300.3 972.9 295.85 973.15 294.95 973.35 294.1 973.6 293.2 973.85 292.35 975.75 285.75 979.55 280.2 983.35 274.7 988.65 270.7 994 266.7 1000.5 264.7
M 904.45 275.2
Q 904.75 274.9 905.05 274.7 906.7 273.6 908.6 273.4 910.5 273.15 912.5 273.6 913.35 273.65 914.15 273.85 914.95 274.05 915.2 274.15 917.45 275 919.5 276.1 921.6 277.25 923.55 278.6 924.85 279.5 926.1 280.45 927.35 281.4 928.5 282.45 931.65 285.3 934.4 288.45 937.15 291.65 939.45 294.95
L 939.6 295.2
Q 943 300.1 946.15 306.05 949.3 312.05 951.9 318.75 954.5 325.45 956.3 332.45
L 956.6 332.65 956.65 333.1
Q 956.7 333.55 956.75 334.2 957.4 336.9 957.85 339.65 958.35 342.35 958.65 345.05 958.95 347.7 959.05 350.3 959.2 352.85 959.1 355.4 959.15 357.05 959.15 358.7 959.1 360.3 958.95 361.95 958.85 363.05 958.7 364.2 958.55 365.3 958.3 366.45 958.1 367.4 957.85 368.35 957.6 369.3 957.3 370.3 957.1 370.95 956.85 371.6 956.65 372.3 956.4 372.95
L 956.3 373.2
Q 956.2 373.45 956.1 373.7 956.05 373.9 955.95 374.1 955.85 374.3 955.75 374.45
L 955.6 374.75
Q 955.55 374.95 955.5 375.05
L 955.4 375.2
Q 955.2 375.6 954.95 376 954.7 376.4 954.45 376.8 954.3 377.05 954.1 377.25 953.9 377.5 953.65 377.7 953.5 377.8 953.35 377.95 953.2 378.05 953.05 378.15 953 378.25 952.9 378.3 952.85 378.4 952.75 378.45 952.65 378.65 952.5 378.85
L 952.25 379.05
Q 951.4 379.85 950.45 380.35 949.45 380.9 948.35 381.25 946.85 381.7 945.25 381.85 943.65 382 942.05 381.85 941.2 381.75 940.3 381.6 939.45 381.4 938.65 381.2 938.35 381.1 938.05 380.95 937.75 380.85 937.5 380.65 936.55 380.4 935.7 380.05 934.8 379.65 934 379.15 933.65 378.95 933.3 378.75 933 378.5 932.65 378.3 930.4 377.4 928.1 376.15 925.8 374.85 924.3 373.75 924.15 373.65 924.05 373.6 923.9 373.5 923.8 373.4 923.5 373.15 923.25 372.95
L 922.45 372.3 922.2 372.05
Q 917 367.65 912.3 362.45 907.65 357.25 903.65 351.6 902.2 349.55 900.8 347.45 899.45 345.3 898.15 343.2 895.6 338.9 893.3 333.55 891 328.2 889.55 322.55 888.95 320.15 888.6 317.8 888.25 315.45 888.2 313.25
L 888.15 313.2
Q 888 312.15 887.9 310.85 887.75 309.55 887.7 308.1 887.5 306.1 887.5 304.15 887.5 302.15 887.7 300.15 887.8 299.15 887.95 298.15 888.15 297.15 888.35 296.15 888.8 294.2 889.8 291 890.8 287.85 892.2 284.8 893.55 281.75 895.05 280.2 895.15 280.15 895.2 280.05 895.3 280 895.4 279.9
L 895.75 279.65
Q 896.05 279.45 896.35 279.3 896.5 279.2 896.6 279.15 896.75 279.1 896.85 279.05
L 897 279
Q 897.55 278.6 898.1 278.25 898.65 277.9 899.25 277.6 900.25 277.1 901.25 276.75 902.25 276.35 903.2 276.05
L 903.35 276
Q 903.5 275.95 903.7 275.9 904.1 275.5 904.45 275.2 Z"/>

<path fill="#FFFFFF" stroke="none" d="
M 903.2 276.05
Q 902.25 276.35 901.25 276.75 900.25 277.1 899.25 277.6 898.65 277.9 898.1 278.25 897.55 278.6 897 279
L 896.85 279.05
Q 896.75 279.1 896.6 279.15 896.5 279.2 896.35 279.3 896.05 279.45 895.75 279.65
L 895.4 279.9
Q 895.3 280 895.2 280.05 895.15 280.15 895.05 280.2 893.55 281.75 892.2 284.8 890.8 287.85 889.8 291 888.8 294.2 888.35 296.15 888.15 297.15 887.95 298.15 887.8 299.15 887.7 300.15 887.5 302.15 887.5 304.15 887.5 306.1 887.7 308.1 887.75 309.55 887.9 310.85 888 312.15 888.15 313.2
L 888.2 313.25
Q 888.25 315.45 888.6 317.8 888.95 320.15 889.55 322.55 891 328.2 893.3 333.55 895.6 338.9 898.15 343.2 899.45 345.3 900.8 347.45 902.2 349.55 903.65 351.6 907.65 357.25 912.3 362.45 917 367.65 922.2 372.05
L 922.45 372.3 923.25 372.95
Q 923.5 373.15 923.8 373.4 923.9 373.5 924.05 373.6 924.15 373.65 924.3 373.75 925.8 374.85 928.1 376.15 930.4 377.4 932.65 378.3 933 378.5 933.3 378.75 933.65 378.95 934 379.15 934.8 379.65 935.7 380.05 936.55 380.4 937.5 380.65 939.15 381.1 940.95 381.2 942.7 381.3 944.5 381 945.35 380.85 946.2 380.65 947.05 380.4 947.85 380.1 948.8 379.75 949.65 379.3 950.5 378.9 951.25 378.35 951.45 378.2 951.6 378.1 951.8 377.95 951.95 377.85 952.45 377.45 952.9 377 953.35 376.55 953.8 376.05 954.05 375.75 954.3 375.45 954.5 375.1 954.75 374.75
L 954.8 374.65 954.85 374.5
Q 955.25 373.9 955.55 373.2 955.9 372.5 956.15 371.8 956.45 371.1 956.65 370.35 956.85 369.65 957.05 368.9 957.2 368.25 957.35 367.6 957.5 366.9 957.6 366.25 958.2 362.55 958.25 358.65 958.35 354.8 958.1 351.2 958.05 350.05 958 348.95 957.95 347.85 957.85 346.85 957.6 343.75 956.85 340.55 956.15 337.4 955.1 334.25 954.5 332.45 953.8 330.6 953.15 328.8 952.45 327.05 951.6 324.8 950.75 322.6 949.9 320.45 949.15 318.35 947.05 312.55 943.95 306.6 940.85 300.65 937 295.15 936.15 293.95 935.3 292.8 934.4 291.6 933.5 290.5 932.95 289.8 932.35 289.1 931.8 288.4 931.2 287.75 930.8 287.3 930.4 286.85 930 286.45 929.6 286 929.1 285.5 928.6 284.95 928.05 284.4 927.45 283.9 924.3 280.95 920.35 278.7 916.45 276.45 912.15 275.55 910.55 275.25 908.9 275.2 907.25 275.15 905.65 275.45
L 905.15 275.55
Q 904.8 275.6 904.45 275.7 904.3 275.7 904.1 275.75 903.9 275.8 903.7 275.9 903.5 275.95 903.35 276
L 903.2 276.05
M 942.45 345.45
Q 942.5 345.7 942.5 346.05 942.6 346.6 942.6 347.15 942.65 347.65 942.55 348.05 942.55 348.35 942.55 348.65 942.5 348.95 942.5 349.2 942.35 349.65 942.2 350 942 350.35 941.75 350.65 941.2 351.25 940.45 351.45 939.7 351.65 938.85 351.45 937.05 351.65 935.2 351 933.35 350.35 932 349.3 928.55 346.55 925.4 343.05 922.25 339.55 919.95 335.8 917.9 332.45 915.8 328.95 913.7 325.4 912.1 321.9 911.25 319.95 910.8 317.05 910.35 314.15 911.15 311.75 911.95 309.3 914.8 308.75
L 915.3 308.75
Q 915.7 308.7 916.05 308.55 916.25 308.45 916.5 308.4
L 916.85 308.35
Q 918.5 308.35 920 309.45 921.55 310.55 922.85 312.05 924.15 313.55 925.15 314.65 926.3 315.85 927.35 317.05 928.4 318.25 929.45 319.5 932.1 322.8 934.3 326.35 936.55 329.95 938.25 333.8 938.75 334.95 939.6 336.85 940.4 338.75 941.15 340.95 941.95 343.15 942.35 345.1 942.4 345.2 942.45 345.45
M 1001 264.55
L 1000.5 264.7
Q 994 266.7 988.65 270.7 983.35 274.7 979.55 280.2 975.75 285.75 973.85 292.35 973.6 293.2 973.35 294.1 973.15 294.95 972.9 295.85 971.4 300.3 970.6 305.3 969.8 310.3 969.55 315.2 969.3 320.1 969.4 324.3 969.6 331.9 971.5 340.2 973.4 348.5 977.1 356.05 980.8 363.55 986.45 368.95 988.1 370.5 989.9 371.7 991.7 372.85 993.6 373.65 998.05 375.5 1002.75 375.6 1007.45 375.7 1012.05 374.3 1016.65 372.95 1020.8 370.35 1023.25 368.35 1025.7 366.05 1028.15 363.75 1030.85 360.9 1032.45 359.25 1033.25 358 1034.1 356.7 1034.7 355.4 1035.3 354.1 1036.1 352.4
L 1036.35 351.95
Q 1036.45 351.75 1036.55 351.5 1036.95 350.8 1037.3 350.15 1037.7 349.45 1038.05 348.75 1038.3 348.1 1038.6 347.4 1038.85 346.75 1039.1 346.1
L 1039.15 345.95 1039.3 345.7
Q 1040.4 344.05 1041.25 340.85 1042.1 337.65 1042.7 334.4 1043.25 331.1 1043.6 329.25 1044.4 324.85 1044.7 320.05 1045 315.2 1044.75 310.35 1044.5 305.45 1043.65 300.9 1043.6 300.5 1043.5 300.1 1043.45 299.7 1043.4 299.3 1042.85 295.65 1041.95 292.2 1041 288.7 1039.6 285.4 1038 281.55 1035.25 278.1 1032.5 274.65 1028.95 271.8 1026.45 269.8 1023.65 268.2 1020.85 266.6 1017.9 265.45 1015.65 264.55 1013.3 264 1011 263.45 1008.7 263.2 1007.7 263.15 1006.7 263.15 1005.7 263.15 1004.7 263.35
L 1004.35 263.45
Q 1004.1 263.5 1003.9 263.55 1003.55 263.65 1003.2 263.8
L 1002.9 263.95 1002.75 264 1002.5 264.15
Q 1002.4 264.15 1002.2 264.25 1001.95 264.3 1001.75 264.35 1001.4 264.4 1001 264.55
M 1013.5 304.45
Q 1014.5 309 1014.15 314 1013.8 319.05 1013.3 322.65 1013.05 325.3 1012.65 327.3 1012.25 329.35 1011.6 331.15 1010.9 333 1009.8 334.95 1008.85 337.85 1007.35 340.6 1005.9 343.3 1003.85 344.95 1001.8 346.6 999 346.25 995.8 345.7 993.95 343.05 992.1 340.4 991.3 336.7 990.55 333 990.4 329.35 990.3 325.7 990.5 323.2 990.8 317.75 992.15 312.75 993.45 307.7 996.45 303.5 997 302.25 998.25 301.1 999.45 299.95 1000.75 299.05 1000.9 298.95 1001.1 298.8 1001.25 298.7 1001.4 298.55
L 1001.65 298.4 1002 298.1
Q 1002.45 297.8 1002.95 297.7
L 1003.15 297.6
Q 1004.05 297.05 1004.95 296.9 1005.85 296.8 1006.7 297.2 1007.25 297.3 1007.75 297.45 1008.25 297.6 1008.75 297.85 1012.45 299.9 1013.5 304.45 Z"/>

<path fill="#0081C6" stroke="none" d="
M 942.5 346.05
Q 942.5 345.7 942.45 345.45 942.4 345.2 942.35 345.1 941.95 343.15 941.15 340.95 940.4 338.75 939.6 336.85 938.75 334.95 938.25 333.8 936.55 329.95 934.3 326.35 932.1 322.8 929.45 319.5 928.4 318.25 927.35 317.05 926.3 315.85 925.15 314.65 924.15 313.55 922.85 312.05 921.55 310.55 920 309.45 918.5 308.35 916.85 308.35
L 916.5 308.4
Q 916.25 308.45 916.05 308.55 915.7 308.7 915.3 308.75
L 914.8 308.75
Q 911.95 309.3 911.15 311.75 910.35 314.15 910.8 317.05 911.25 319.95 912.1 321.9 913.7 325.4 915.8 328.95 917.9 332.45 919.95 335.8 922.25 339.55 925.4 343.05 928.55 346.55 932 349.3 933.35 350.35 935.2 351 937.05 351.65 938.85 351.45 939.7 351.65 940.45 351.45 941.2 351.25 941.75 350.65 942 350.35 942.2 350 942.35 349.65 942.5 349.2 942.5 348.95 942.55 348.65 942.55 348.35 942.55 348.05 942.65 347.65 942.6 347.15 942.6 346.6 942.5 346.05
M 905.05 274.7
Q 904.75 274.9 904.45 275.2 904.1 275.5 903.7 275.9 903.9 275.8 904.1 275.75 904.3 275.7 904.45 275.7 904.8 275.6 905.15 275.55
L 905.65 275.45
Q 907.25 275.15 908.9 275.2 910.55 275.25 912.15 275.55 916.45 276.45 920.35 278.7 924.3 280.95 927.45 283.9 928.05 284.4 928.6 284.95 929.1 285.5 929.6 286 930 286.45 930.4 286.85 930.8 287.3 931.2 287.75 931.8 288.4 932.35 289.1 932.95 289.8 933.5 290.5 934.4 291.6 935.3 292.8 936.15 293.95 937 295.15 940.85 300.65 943.95 306.6 947.05 312.55 949.15 318.35 949.9 320.45 950.75 322.6 951.6 324.8 952.45 327.05 953.15 328.8 953.8 330.6 954.5 332.45 955.1 334.25 956.15 337.4 956.85 340.55 957.6 343.75 957.85 346.85 957.95 347.85 958 348.95 958.05 350.05 958.1 351.2 958.35 354.8 958.25 358.65 958.2 362.55 957.6 366.25 957.5 366.9 957.35 367.6 957.2 368.25 957.05 368.9 956.85 369.65 956.65 370.35 956.45 371.1 956.15 371.8 955.9 372.5 955.55 373.2 955.25 373.9 954.85 374.5
L 954.8 374.65 954.75 374.75
Q 954.5 375.1 954.3 375.45 954.05 375.75 953.8 376.05 953.35 376.55 952.9 377 952.45 377.45 951.95 377.85 951.8 377.95 951.6 378.1 951.45 378.2 951.25 378.35 950.5 378.9 949.65 379.3 948.8 379.75 947.85 380.1 947.05 380.4 946.2 380.65 945.35 380.85 944.5 381 942.7 381.3 940.95 381.2 939.15 381.1 937.5 380.65 937.75 380.85 938.05 380.95 938.35 381.1 938.65 381.2 939.45 381.4 940.3 381.6 941.2 381.75 942.05 381.85 943.65 382 945.25 381.85 946.85 381.7 948.35 381.25 949.45 380.9 950.45 380.35 951.4 379.85 952.25 379.05
L 952.5 378.85
Q 952.65 378.65 952.75 378.45 952.85 378.4 952.9 378.3 953 378.25 953.05 378.15 953.2 378.05 953.35 377.95 953.5 377.8 953.65 377.7 953.9 377.5 954.1 377.25 954.3 377.05 954.45 376.8 954.7 376.4 954.95 376 955.2 375.6 955.4 375.2
L 955.5 375.05
Q 955.55 374.95 955.6 374.75
L 955.75 374.45
Q 955.85 374.3 955.95 374.1 956.05 373.9 956.1 373.7 956.2 373.45 956.3 373.2
L 956.4 372.95
Q 956.65 372.3 956.85 371.6 957.1 370.95 957.3 370.3 957.6 369.3 957.85 368.35 958.1 367.4 958.3 366.45 958.55 365.3 958.7 364.2 958.85 363.05 958.95 361.95 959.1 360.3 959.15 358.7 959.15 357.05 959.1 355.4 959.2 352.85 959.05 350.3 958.95 347.7 958.65 345.05 958.35 342.35 957.85 339.65 957.4 336.9 956.75 334.2 956.7 333.55 956.65 333.1
L 956.6 332.65 956.3 332.45
Q 954.5 325.45 951.9 318.75 949.3 312.05 946.15 306.05 943 300.1 939.6 295.2
L 939.45 294.95
Q 937.15 291.65 934.4 288.45 931.65 285.3 928.5 282.45 927.35 281.4 926.1 280.45 924.85 279.5 923.55 278.6 921.6 277.25 919.5 276.1 917.45 275 915.2 274.15 914.95 274.05 914.15 273.85 913.35 273.65 912.5 273.6 910.5 273.15 908.6 273.4 906.7 273.6 905.05 274.7
M 1014.15 314
Q 1014.5 309 1013.5 304.45 1012.45 299.9 1008.75 297.85 1008.25 297.6 1007.75 297.45 1007.25 297.3 1006.7 297.2 1005.85 296.8 1004.95 296.9 1004.05 297.05 1003.15 297.6
L 1002.95 297.7
Q 1002.45 297.8 1002 298.1
L 1001.65 298.4 1001.4 298.55
Q 1001.25 298.7 1001.1 298.8 1000.9 298.95 1000.75 299.05 999.45 299.95 998.25 301.1 997 302.25 996.45 303.5 993.45 307.7 992.15 312.75 990.8 317.75 990.5 323.2 990.3 325.7 990.4 329.35 990.55 333 991.3 336.7 992.1 340.4 993.95 343.05 995.8 345.7 999 346.25 1001.8 346.6 1003.85 344.95 1005.9 343.3 1007.35 340.6 1008.85 337.85 1009.8 334.95 1010.9 333 1011.6 331.15 1012.25 329.35 1012.65 327.3 1013.05 325.3 1013.3 322.65 1013.8 319.05 1014.15 314
M 1017.9 265.45
Q 1020.85 266.6 1023.65 268.2 1026.45 269.8 1028.95 271.8 1032.5 274.65 1035.25 278.1 1038 281.55 1039.6 285.4 1041 288.7 1041.95 292.2 1042.85 295.65 1043.4 299.3 1043.45 299.7 1043.5 300.1 1043.6 300.5 1043.65 300.9 1044.5 305.45 1044.75 310.35 1045 315.2 1044.7 320.05 1044.4 324.85 1043.6 329.25 1043.25 331.1 1042.7 334.4 1042.1 337.65 1041.25 340.85 1040.4 344.05 1039.3 345.7
L 1039.15 345.95 1039.1 346.1
Q 1038.85 346.75 1038.6 347.4 1038.3 348.1 1038.05 348.75 1037.7 349.45 1037.3 350.15 1036.95 350.8 1036.55 351.5 1036.45 351.75 1036.35 351.95
L 1036.1 352.4
Q 1035.3 354.1 1034.7 355.4 1034.1 356.7 1033.25 358 1032.45 359.25 1030.85 360.9 1028.15 363.75 1025.7 366.05 1023.25 368.35 1020.8 370.35 1016.65 372.95 1012.05 374.3 1007.45 375.7 1002.75 375.6 998.05 375.5 993.6 373.65 993.05 373.85 993.25 374.4 993.5 374.9 994.5 375.35 1001.95 378.25 1009.05 376.7 1016.15 375.15 1022.35 370.55 1028.5 365.95 1033.2 359.75 1037.9 353.55 1040.6 347.15 1043.3 340.6 1044.8 332.85 1046.3 325.1 1046.55 317.15 1046.8 309.25 1045.75 302.3 1045.6 300.95 1045.35 299.6 1045.1 298.25 1044.8 296.85
L 1044.8 296.55
Q 1044.6 294.9 1044.1 293.15 1043.65 291.35 1042.9 289.55 1041.3 284.7 1038.65 280.5 1036 276.35 1031.95 273.5 1029 270.6 1025.85 268.55 1022.65 266.5 1019.55 265.65 1019.35 265.6 1018.9 265.55 1018.5 265.5 1017.9 265.45 Z"/>
</g>
</defs>



<g transform="matrix( 0.5741729736328125, -0.445220947265625, 0.55126953125, 0.6145477294921875, 309.1,718.75) ">
<g transform="matrix( 1, 0, 0, 1, 0,0) ">
<use xlink:href="#Symbol_30_0_Layer0_0_FILL"/>
</g>
</g>

<g transform="matrix( 0.0603485107421875, -0.6640777587890625, -0.6640777587890625, -0.0603485107421875, 1181.6,1266.05) ">
<g transform="matrix( 1, 0, 0, 1, 0,0) ">
<use xlink:href="#Symbol_28_0_Layer0_0_FILL"/>
</g>
</g>

<g transform="matrix( 0.695526123046875, -0.1148529052734375, -0.1148529052734375, -0.695526123046875, 414.65,1171.05) ">
<g transform="matrix( 1, 0, 0, 1, 0,0) ">
<use xlink:href="#Symbol_40_0_Layer0_0_FILL"/>
</g>
</g>

<g transform="matrix( 0.695953369140625, 0.1122589111328125, 0.1122589111328125, -0.695953369140625, 274.4,909.05) ">
<g transform="matrix( 1, 0, 0, 1, 0,0) ">
<use xlink:href="#Symbol_43_0_Layer0_0_FILL"/>
</g>
</g>

<g transform="matrix( 0.695953369140625, 0.1122589111328125, 0.1122589111328125, -0.695953369140625, 274.4,909.05) ">
<g transform="matrix( 1, 0, 0, 1, 0,0) ">
<use xlink:href="#Symbol_44_0_Layer0_0_FILL"/>
</g>
</g>

<g transform="matrix( 1.9001922607421875, 0, 0, 1.9001922607421875, -843.9,-572.9) ">
<g transform="matrix( 1, 0, 0, 1, 0,0) ">
<use xlink:href="#Symbol_10_0_Layer0_0_FILL"/>
</g>
</g>

<g transform="matrix( 0.445465087890625, -0.2908172607421875, 0.3321990966796875, 0.50885009765625, 492.05,585.75) ">
<g transform="matrix( 1, 0, 0, 1, 0,0) ">
<use xlink:href="#Symbol_29_0_Layer0_0_FILL"/>
</g>
</g>

<g transform="matrix( -0.1462860107421875, 0.668670654296875, -0.66851806640625, -0.1476593017578125, 1359.9,133.9) ">
<use xlink:href="#Layer0_7_FILL"/>
</g>

<g transform="matrix( 0.667144775390625, 0, -0.0803985595703125, 0.699127197265625, 415.05,237.6) ">
<g transform="matrix( 1, 0, 0, 1, 0,0) ">
<use xlink:href="#Symbol_32_0_Layer0_0_FILL"/>
</g>
</g>

<g transform="matrix( 0.6493072509765625, 0.1605377197265625, -0.1531982421875, 0.680450439453125, 414.05,98.9) ">
<g transform="matrix( 1, 0, 0, 1, 0,0) ">
<use xlink:href="#Symbol_33_0_Layer0_0_FILL"/>
</g>
</g>

<g transform="matrix( 0.64874267578125, -0.06072998046875, 0.0621795654296875, 0.6642303466796875, 319.05,331.9) ">
<use xlink:href="#Layer0_10_FILL"/>
</g>

<g transform="matrix( 0.55712890625, -0.3671417236328125, 0.3671417236328125, 0.55712890625, 384.4,888) ">
<use xlink:href="#Layer0_11_FILL"/>
</g>

<g transform="matrix( 0.552276611328125, -0.452880859375, 0.3928985595703125, 0.4791259765625, 357.8,989.6) ">
<g transform="matrix( 1, 0, 0, 1, 0,0) ">
<use xlink:href="#Symbol_107_0_Layer0_0_FILL"/>
</g>
</g>

<g transform="matrix( 0.55712890625, -0.3671417236328125, 0.3671417236328125, 0.55712890625, 402.3,868.1) ">
<g transform="matrix( 1, 0, 0, 1, 0,0) ">
<use xlink:href="#Symbol_108_0_Layer0_0_FILL"/>
</g>
</g>

<g transform="matrix( -0.1710662841796875, -0.02001953125, -0.02001953125, 0.1710662841796875, 1164.5,330.25) ">
<use xlink:href="#Layer0_14_FILL"/>
</g>

<g transform="matrix( 1.0162506103515625, 0.1507415771484375, -0.1507415771484375, 1.0162506103515625, 73.8,-89.4) ">
<use xlink:href="#Layer0_15_FILL"/>
</g>
</svg>
