
<svg xmlns="http://www.w3.org/2000/svg" version="1.1" xmlns:xlink="http://www.w3.org/1999/xlink" preserveAspectRatio="none" x="0px" y="0px" width="760px" height="880px" viewBox="614 10 760 880">
<defs>


<g id="Symbol_39_0_Layer0_0_FILL">
<path fill="#82bc00" stroke="none" d="
M 1108.3 615.95
L 1107.7 616.25
Q 1107.78359375 616.2265625 1107.85 616.2 1108.1 616.1 1108.3 615.95 Z"/>

<path fill="#FFFFFF" stroke="none" d="
M 968.15 419.8
Q 957.2 415.35 942.8 413 928.45 410.65 913.1 411.6 897.8 412.5 884.05 417.8 870.35 423.15 860.8 434.05 848.05 449.35 843.05 462.95 838 476.6 838.35 487.95 838.7 499.3 841.9 507.9 845.15 516.5 848.9 521.75 854.25 529.4 867.5 535.5 880.7 541.65 900.15 546.95 919.6 552.3 943.55 557.55 967.5 562.8 994.25 568.75 1013.3 579.05 1029 589.9 1044.7 600.8 1057 609.8 1069.3 618.75 1078.2 623.2 1087.65 624.8 1097.7 620.7 1107.75 616.6 1116.7 608.5 1125.6 600.4 1131.65 590 1137.7 579.5 1141.85 567 1146 554.5 1146.15 542.7 1146.25 530.9 1140.25 522.5 1134.45 515.05 1121.45 504.75 1108.45 494.45 1091.25 483.1 1074.05 471.75 1055.65 461.1 1035.6 449.65 1018.4 441.5 1001.25 433.3 988.3 427.95 975.35 422.65 968.15 419.8
M 1096.05 533.85
Q 1100.8 529.45 1106.3 525.9 1111.8 522.4 1117.75 520.2 1120.65 519.6 1123.65 519.15 1126.7 518.75 1129.9 518.55 1124.95 520 1120.45 521.8 1116 523.55 1113.1 525.15 1108.25 527.85 1103.45 532 1098.65 536.2 1094.3 541.4 1092.95 542.8 1091.8 544.2 1090.65 545.65 1089.7 547.05 1089.5 547.35 1089.3 547.65 1089.15 547.95 1089.2 548.25 1086.75 551.45 1084.7 554.9 1082.6 558.3 1080.9 561.85 1077.95 567.9 1075.2 575.2 1072.5 582.45 1070.85 590.15 1069.25 597.8 1069.5 604.95 1069.35 606.7 1069.3 608.4 1069.25 610.05 1069.35 611.65 1068.45 605.9 1068.15 600.1 1067.85 594.3 1068.25 588.55 1068.3 588.3 1068.35 588.05 1068.4 587.85 1068.45 587.6 1069.5 581.95 1070.85 576.7 1072.2 571.55 1073.95 566.75
L 1074.05 566.5
Q 1076.3 561.15 1079.3 555.45 1082.25 549.75 1085.85 545.15
L 1086.25 544.65
Q 1086.55 544.3 1086.8 544 1086.9 543.7 1087.15 543.4
L 1087.45 543
Q 1091.25 538.2 1096.05 533.85 Z"/>

<path fill="#0075c9" stroke="none" d="
M 1106.3 525.9
Q 1100.8 529.45 1096.05 533.85 1091.25 538.2 1087.45 543
L 1087.15 543.4
Q 1086.9 543.7 1086.8 544 1086.55 544.3 1086.25 544.65
L 1085.85 545.15
Q 1082.25 549.75 1079.3 555.45 1076.3 561.15 1074.05 566.5
L 1073.95 566.75
Q 1072.2 571.55 1070.85 576.7 1069.5 581.95 1068.45 587.6 1068.4 587.85 1068.35 588.05 1068.3 588.3 1068.25 588.55 1067.85 594.3 1068.15 600.1 1068.45 605.9 1069.35 611.65 1069.25 610.05 1069.3 608.4 1069.35 606.7 1069.5 604.95 1069.25 597.8 1070.85 590.15 1072.5 582.45 1075.2 575.2 1077.95 567.9 1080.9 561.85 1082.6 558.3 1084.7 554.9 1086.75 551.45 1089.2 548.25 1089.15 547.95 1089.3 547.65 1089.5 547.35 1089.7 547.05 1090.65 545.65 1091.8 544.2 1092.95 542.8 1094.3 541.4 1098.65 536.2 1103.45 532 1108.25 527.85 1113.1 525.15 1116 523.55 1120.45 521.8 1124.95 520 1129.9 518.55 1126.7 518.75 1123.65 519.15 1120.65 519.6 1117.75 520.2 1111.8 522.4 1106.3 525.9 Z"/>
</g>

<g id="Symbol_40_0_Layer0_0_FILL">
<path fill="#0075c9" stroke="none" d="
M 1052.35 576.9
L 1050.25 581.9 1049.45 584.9
Q 1049.8 586.75 1052.5 587.95 1055.15 589.1 1058.55 589.7 1062 590.25 1064.6 590.35
L 1066.6 590.35 1067.45 590.2
Q 1071.4 580.9 1078.55 573.4 1085.7 565.9 1093 561.15 1100.35 556.4 1104.95 555.35 1100.6 554.35 1095.65 553.35 1090.65 552.35 1086.6 551.55
L 1081.05 550.45
Q 1068.75 556.45 1061.95 563.7 1055.1 570.95 1052.35 576.9 Z"/>
</g>

<g id="Symbol_41_0_Layer0_0_FILL">
<path fill="#0075c9" stroke="none" d="
M 1072.25 581.95
L 1071.1 581.75 1067.75 581.6
Q 1063.25 581.55 1057.85 581.55 1052.45 581.55 1049.65 581.6 1046 587.35 1043.2 598.95 1040.4 610.55 1039.2 624.05 1038.05 637.55 1039.2 649 1040.35 660.45 1044.55 665.9
L 1048.55 666.45
Q 1051.65 666.85 1055.3 667.25 1059 667.6 1061.65 667.9
L 1064.5 668.2 1062.8 660.7
Q 1061.3 653.35 1060.6 641 1059.95 628.65 1062.3 613.35 1064.7 598.05 1072.25 581.95 Z"/>
</g>

<g id="Symbol_42_0_Layer0_0_FILL">
<path fill="#FFFFFF" stroke="none" d="
M 1050.7 575
Q 1046.65 575.4 1043.2 574.85 1039.75 574.35 1036.8 573.35 1036.9 573.55 1037.05 573.75
L 1037.3 574.1
Q 1037.8 574.75 1038.25 575.35 1038.75 575.95 1039.2 576.55 1039.7 577.1 1040.2 577.65 1040.7 578.25 1041.15 578.75 1041.35 578.95 1041.5 579.1 1041.65 579.3 1041.8 579.45 1043.3 581 1044.9 582.45 1046.5 583.9 1048.25 585.3 1048.85 585.7 1049.45 586.05 1050.05 586.45 1050.65 586.8 1051.15 586.8 1051.6 586.85 1052.1 586.85 1052.6 586.9
L 1052.75 586.9
Q 1057.75 586.75 1062.55 585.6 1067.35 584.5 1071.7 582.6 1071.8 582.55 1071.95 582.5
L 1072.2 582.4
Q 1079.8 578 1084.9 570.9 1090.05 563.8 1092.2 554.9 1091.25 552.7 1090.25 550.6 1089.2 548.5 1088.1 546.45 1088 546.25 1087.9 546.1 1087.8 545.95 1087.7 545.8 1087.3 545.05 1086.9 544.3 1086.45 543.5 1086.05 542.75
L 1085.2 541.25
Q 1084.25 550.75 1080.15 557.35 1076.05 564 1070 568.1 1068.9 568.65 1067.85 569.25 1066.75 569.9 1065.85 570.55 1062.2 572.4 1058.35 573.5 1054.5 574.65 1050.7 575
M 1040.35 557.5
Q 1043.25 551.95 1047.9 547.7 1052.55 543.45 1058.35 540.9 1064.15 538.35 1070.35 537.8 1071.7 537.7 1073.05 537.55 1074.4 537.4 1075.65 537.1 1076.15 537 1077.1 536.95
L 1078.3 536.75 1078.35 536.75
Q 1078.35 536.7 1078.4 536.7 1078.3 536.5 1078.05 536.35 1077.8 536.2 1077.7 536.15 1077.15 535.95 1076.6 535.8 1076.05 535.65 1075.45 535.4 1074.6 535.05 1073.3 534.95 1071.95 534.8 1071 534.85
L 1070.9 534.85
Q 1070.85 534.85 1070.8 534.85 1070.65 534.85 1070.5 534.9
L 1070.35 534.9
Q 1064.7 535.4 1059.25 537.55 1053.8 539.65 1049.15 543.25 1044.5 546.85 1041.35 551.7 1038.95 555.5 1037.65 559.95 1036.35 564.4 1036.7 568.9
L 1036.9 569.7 1037.1 569.75
Q 1037.35 569.45 1037.45 568.65 1037.75 565.6 1038.35 562.95 1038.95 560.25 1040.35 557.5
M 1061.3 550.55
Q 1061.15 550.35 1060.85 550.25 1060.6 550.2 1060.25 550.2 1059.85 550.25 1059.45 550.45 1059 550.6 1058.65 550.85 1058.3 551.1 1058 551.45 1057.75 551.75 1057.55 552.05 1057.4 552.4 1057.4 552.7 1057.4 552.95 1057.55 553.15 1057.75 553.35 1058 553.45 1058.3 553.55 1058.65 553.5 1059 553.45 1059.45 553.3 1059.85 553.1 1060.25 552.85 1060.6 552.6 1060.85 552.3 1061.15 551.95 1061.3 551.65 1061.45 551.35 1061.45 551.05 1061.45 550.75 1061.3 550.55 Z"/>

<path fill="#0075c9" stroke="none" d="
M 1041.35 549.15
Q 1037.95 553.55 1036.2 558.3 1034.4 563.05 1034.7 567.6 1034.75 568.15 1034.8 568.65 1034.85 569.15 1034.95 569.6 1035.15 570.25 1035.4 570.8 1035.6 571.4 1035.8 571.95
L 1035.85 572.05
Q 1036.1 572.4 1036.35 572.7 1036.55 573.05 1036.8 573.35 1039.75 574.35 1043.2 574.85 1046.65 575.4 1050.7 575 1054.5 574.65 1058.35 573.5 1062.2 572.4 1065.85 570.55 1066.75 569.9 1067.85 569.25 1068.9 568.65 1070 568.1 1076.05 564 1080.15 557.35 1084.25 550.75 1085.2 541.25
L 1084.4 539.9
Q 1083.5 538.8 1082.55 537.65 1081.65 536.5 1080.65 535.3
L 1080.6 535.2
Q 1080.2 535 1079.8 534.8 1079.35 534.6 1078.95 534.45 1075.05 532.85 1070.15 533.05 1065.25 533.25 1059.7 535.4 1054.15 537.6 1049.45 541.15 1044.8 544.75 1041.35 549.15
M 1060.85 550.25
Q 1061.15 550.35 1061.3 550.55 1061.45 550.75 1061.45 551.05 1061.45 551.35 1061.3 551.65 1061.15 551.95 1060.85 552.3 1060.6 552.6 1060.25 552.85 1059.85 553.1 1059.45 553.3 1059 553.45 1058.65 553.5 1058.3 553.55 1058 553.45 1057.75 553.35 1057.55 553.15 1057.4 552.95 1057.4 552.7 1057.4 552.4 1057.55 552.05 1057.75 551.75 1058 551.45 1058.3 551.1 1058.65 550.85 1059 550.6 1059.45 550.45 1059.85 550.25 1060.25 550.2 1060.6 550.2 1060.85 550.25
M 1047.9 547.7
Q 1043.25 551.95 1040.35 557.5 1038.95 560.25 1038.35 562.95 1037.75 565.6 1037.45 568.65 1037.35 569.45 1037.1 569.75
L 1036.9 569.7 1036.7 568.9
Q 1036.35 564.4 1037.65 559.95 1038.95 555.5 1041.35 551.7 1044.5 546.85 1049.15 543.25 1053.8 539.65 1059.25 537.55 1064.7 535.4 1070.35 534.9
L 1070.5 534.9
Q 1070.65 534.85 1070.8 534.85 1070.85 534.85 1070.9 534.85
L 1071 534.85
Q 1071.95 534.8 1073.3 534.95 1074.6 535.05 1075.45 535.4 1076.05 535.65 1076.6 535.8 1077.15 535.95 1077.7 536.15 1077.8 536.2 1078.05 536.35 1078.3 536.5 1078.4 536.7 1078.35 536.7 1078.35 536.75
L 1078.3 536.75 1077.1 536.95
Q 1076.15 537 1075.65 537.1 1074.4 537.4 1073.05 537.55 1071.7 537.7 1070.35 537.8 1064.15 538.35 1058.35 540.9 1052.55 543.45 1047.9 547.7 Z"/>
</g>

<g id="Symbol_43_0_Layer0_0_FILL">
<path fill="#FFFFFF" stroke="none" d="
M 1078.05 542.05
Q 1074.9 542.45 1071.6 543.75 1068.25 545 1065.8 546.7 1063.3 548.45 1062.65 550.15 1066.4 549.7 1069.65 548.25 1072.85 546.85 1075.05 545.1 1077.3 543.35 1078.05 542.05 Z"/>
</g>

<g id="Symbol_44_0_Layer0_0_FILL">
<path fill="#FFFFFF" stroke="none" d="
M 1050.75 558.05
Q 1047.85 560.75 1045.7 563.75 1043.55 566.75 1043.25 568.25 1046.15 566.95 1049.2 564.45 1052.2 561.9 1054.2 559.25 1056.25 556.6 1056.2 554.8 1053.7 555.4 1050.75 558.05 Z"/>
</g>

<g id="Symbol_10_0_Layer0_0_FILL">
<path fill="#0075c9" stroke="none" d="
M 1005.65 543.5
L 1001.25 543.5 1001.25 545.8
Q 999.95 544.35 998.5 543.65 997.05 542.95 995.4 542.95 993.5 542.95 991.9 543.7 990.3 544.45 989.05 545.9 987.8 547.35 987.15 549.2 986.55 551.05 986.55 553.25 986.55 555.5 987.15 557.35 987.8 559.2 989.05 560.7 990.35 562.2 991.95 562.9 993.55 563.65 995.5 563.65 997.05 563.65 998.5 563 999.95 562.35 1001.25 561.05
L 1001.25 563.1 1005.65 563.1 1005.65 543.5
M 1001.55 553.35
Q 1001.55 554.7 1001.15 555.85 1000.8 557 1000.05 557.9 999.3 558.75 998.35 559.15 997.35 559.6 996.15 559.6 995.05 559.6 994.1 559.15 993.15 558.7 992.4 557.8 991.7 556.95 991.35 555.8 990.95 554.65 990.95 553.25 990.95 551.9 991.35 550.8 991.7 549.7 992.45 548.8 993.2 547.95 994.15 547.5 995.1 547.05 996.2 547.05 997.4 547.05 998.35 547.5 999.3 547.9 1000.05 548.8 1000.8 549.7 1001.15 550.8 1001.55 551.95 1001.55 553.35
M 980.35 543.45
Q 979.9 543.7 979.35 544.15 978.85 544.6 978.25 545.25
L 978.25 543.5 973.9 543.5 973.9 563.1 978.25 563.1 978.25 552.95
Q 978.25 550.15 979.1 548.75 980 547.35 981.8 547.35 982.35 547.35 982.95 547.6 983.6 547.8 984.2 548.25
L 986.2 544.15
Q 985.25 543.55 984.35 543.25 983.45 542.95 982.6 542.95 981.95 542.95 981.4 543.1 980.85 543.2 980.35 543.45
M 1016.6 543.45
Q 1016.15 543.7 1015.65 544.15 1015.1 544.65 1014.45 545.3
L 1014.45 543.5 1010.15 543.5 1010.15 563.1 1014.45 563.1 1014.45 553
Q 1014.45 551.45 1014.7 550.3 1014.9 549.2 1015.3 548.45 1015.75 547.75 1016.4 547.4 1017.05 547.05 1018 547.05 1019.45 547.05 1020.15 548.35 1020.9 549.65 1020.9 552.25
L 1020.9 563.1 1025.25 563.1 1025.25 553
Q 1025.25 551.4 1025.45 550.3 1025.65 549.15 1026.05 548.45 1026.45 547.75 1027.1 547.4 1027.75 547.05 1028.65 547.05 1029.45 547.05 1030 547.35 1030.55 547.65 1030.9 548.25 1031.25 548.8 1031.4 549.8 1031.55 550.8 1031.55 552.2
L 1031.55 563.1 1035.9 563.1 1035.9 551
Q 1035.9 546.95 1034.35 544.95 1032.75 542.95 1029.55 542.95 1027.8 542.95 1026.45 543.7 1025.05 544.4 1024.05 545.85 1023.1 544.4 1021.85 543.7 1020.6 542.95 1019 542.95 1018.3 542.95 1017.7 543.1 1017.1 543.2 1016.6 543.45
M 920.15 543.5
Q 918.9 542.95 917.25 542.95 915.8 542.95 914.55 543.55 913.25 544.15 912.1 545.3
L 912.1 543.5 907.75 543.5 907.75 563.1 912.1 563.1 912.1 553.65
Q 912.1 551.8 912.35 550.55 912.55 549.25 913 548.55 913.45 547.8 914.25 547.4 915 547.05 916.05 547.05 917.05 547.05 917.75 547.35 918.45 547.6 918.8 548.15 919.2 548.7 919.4 549.7 919.6 550.7 919.6 552.15
L 919.6 563.1 923.95 563.1 923.95 551.1
Q 923.95 549 923.55 547.5 923.15 546.05 922.35 545.1 921.45 544.05 920.15 543.5
M 903.25 543.5
L 898.9 543.5 898.9 563.1 903.25 563.1 903.25 543.5
M 900 538.1
Q 900.5 538.35 901.1 538.35 901.65 538.35 902.15 538.1 902.65 537.9 903.05 537.45 903.5 537.05 903.7 536.5 903.9 536 903.9 535.4 903.9 534.75 903.7 534.25 903.5 533.75 903.05 533.3 902.65 532.9 902.15 532.65 901.65 532.45 901.05 532.45 900.5 532.45 900 532.65 899.5 532.9 899.05 533.3 898.65 533.75 898.45 534.25 898.25 534.75 898.25 535.35 898.25 536 898.45 536.5 898.65 537.05 899.05 537.45 899.5 537.9 900 538.1
M 941.45 543.7
Q 939.65 542.95 937.55 542.95 935.5 542.95 933.7 543.7 931.9 544.45 930.45 545.95 929 547.45 928.3 549.25 927.55 551.05 927.55 553.15 927.55 555.4 928.25 557.3 929 559.15 930.4 560.65 931.85 562.15 933.6 562.9 935.4 563.65 937.5 563.65 939.6 563.65 941.4 562.9 943.25 562.15 944.7 560.7 946.15 559.2 946.9 557.35 947.6 555.5 947.6 553.3 947.6 551.15 946.9 549.3 946.15 547.45 944.7 545.95 943.25 544.45 941.45 543.7
M 943.15 553.35
Q 943.15 554.75 942.8 555.9 942.4 557.05 941.65 557.9 940.9 558.75 939.85 559.2 938.85 559.6 937.55 559.6 936.3 559.6 935.3 559.15 934.25 558.75 933.5 557.9 932.75 557 932.35 555.85 932 554.7 932 553.25 932 551.85 932.4 550.75 932.75 549.65 933.55 548.8 934.3 547.9 935.3 547.45 936.35 547.05 937.55 547.05 938.85 547.05 939.85 547.45 940.85 547.9 941.65 548.8 942.4 549.65 942.8 550.75 943.15 551.9 943.15 553.35
M 962.4 543.65
Q 960.9 542.95 959.15 542.95 957.1 542.95 955.5 543.75 953.85 544.55 952.6 546.15 951.45 547.65 950.9 549.45 950.3 551.3 950.3 553.4 950.3 555.6 950.95 557.45 951.55 559.3 952.8 560.75 954 562.2 955.6 562.9 957.15 563.65 959.1 563.65 960.8 563.65 962.25 562.95 963.75 562.25 965.05 560.9
L 965.05 563.65
Q 965.05 566.65 963.85 568.2 962.65 569.7 960.3 569.7 959 569.7 958 569.25 957 568.8 956.35 567.85 956.05 567.5 955.85 566.9 955.65 566.35 955.5 565.65
L 951.15 565.65
Q 951.35 567.55 952.05 569.05 952.8 570.55 954.05 571.65 955.25 572.7 956.8 573.25 958.35 573.8 960.25 573.8 962.5 573.8 964.25 573 966 572.25 967.25 570.75 967.95 569.95 968.4 569 968.85 568.05 969.05 566.95 969.15 566.55 969.2 566.05 969.25 565.6 969.3 565.05 969.35 564.55 969.35 563.95 969.4 563.3 969.4 562.6
L 969.4 543.5 965.05 543.5 965.05 545.7
Q 963.85 544.35 962.4 543.65
M 965.2 553.35
Q 965.2 554.7 964.9 555.8 964.55 556.85 963.9 557.75 963.15 558.65 962.2 559.15 961.2 559.6 959.95 559.6 958.7 559.6 957.75 559.15 956.75 558.7 956.05 557.75 955.4 556.9 955.1 555.8 954.75 554.7 954.75 553.35 954.75 552 955.1 550.9 955.4 549.8 956.05 548.95 956.75 548 957.75 547.5 958.7 547.05 959.95 547.05 961.1 547.05 962.05 547.5 963 547.9 963.75 548.8 964.5 549.65 964.85 550.8 965.2 551.9 965.2 553.35
M 887.65 542.95
Q 886.25 542.95 885 543.5 883.7 544.05 882.55 545.15
L 882.55 534 878.2 534 878.2 563.1 882.55 563.1 882.55 553.6
Q 882.55 551.8 882.8 550.55 883 549.25 883.45 548.5 883.9 547.8 884.7 547.4 885.55 547.05 886.65 547.05 887.55 547.05 888.2 547.3 888.85 547.55 889.25 548.1 889.65 548.65 889.85 549.5 890.05 550.35 890.05 551.5
L 890.05 563.1 894.4 563.1 894.4 551.1
Q 894.4 549.05 894 547.55 893.6 546.05 892.75 545.1 891.8 544.05 890.55 543.5 889.25 542.95 887.65 542.95
M 868.15 543.5
L 863.8 543.5 863.8 563.1 868.15 563.1 868.15 552.95
Q 868.15 550.15 869.05 548.75 869.95 547.35 871.7 547.35 872.3 547.35 872.9 547.6 873.5 547.8 874.15 548.25
L 876.1 544.15
Q 875.2 543.55 874.3 543.25 873.4 542.95 872.5 542.95 871.85 542.95 871.3 543.1 870.75 543.2 870.3 543.45 869.8 543.7 869.3 544.15 868.75 544.6 868.15 545.25
L 868.15 543.5 Z"/>
</g>

<g id="Symbol_29_0_Layer0_0_FILL">
<path fill="#FFFFFF" stroke="none" d="
M 927.6 155.25
Q 919.9 157.4 912.5 160.95 905.1 164.5 899.6 168.2 894.1 171.9 892.1 174.45 890.65 176.9 889.1 184 887.55 191.1 886.2 199.45 884.9 207.8 884.1 213.85
L 883.25 220.15 886.85 220.55
Q 890.25 220.9 893.75 221.15
L 896.55 221.25 897.9 221.15
Q 909.4 211.7 918.1 202.95 926.8 194.25 932.05 187.8
L 936.35 182.3 938.55 178.7
Q 939.75 175.9 940.75 170.55 941.8 165.2 942.15 160.2
L 942.2 156.1 941.7 153.65
Q 935.3 153.1 927.6 155.25 Z"/>
</g>

<g id="Symbol_30_0_Layer0_0_FILL">
<path fill="#FFFFFF" stroke="none" d="
M 982.7 196.45
Q 985.4 193.2 987.1 190.55
L 988.4 188.3 988.85 186.9
Q 984.8 184.8 978.9 183.9 972.95 183.05 966.7 183.05 960.45 183.1 955.45 183.75 950.4 184.4 948.15 185.35 946.3 186.4 942.55 190.3 938.8 194.2 934.75 198.95 930.65 203.7 927.75 207.15
L 924.7 210.8 926.7 212.15
Q 928.55 213.35 930.55 214.55
L 932.15 215.45 933 215.75
Q 944.4 213.9 951.85 212.6 959.25 211.3 963.9 210 968.55 208.75 971.65 207 974.15 205.55 977.05 202.65 980 199.75 982.7 196.45 Z"/>
</g>

<g id="Symbol_45_0_Layer0_0_FILL">
<path fill="#0075c9" stroke="none" d="
M 918.6 588.65
Q 919.3 584.35 920.35 580.25 921.35 576.1 922.65 572.4 923.85 566.55 925.4 560.85 926.95 555.15 928.85 549.9 928.7 549.9 928.55 550 928.4 550.05 928.3 550.15 924 560.6 920.05 572.35 916.1 584.15 913.2 597 910.3 609.85 909.2 623.55 907.5 647.15 906.75 669.65 906 692.2 904.8 710.6 903.55 729.05 900.5 740.35 900.45 740.45 900.35 740.55 900.3 740.7 900.2 740.8 900 741.05 899.75 741.35 899.5 741.65 899.2 741.95 897.05 744.25 891.8 747.2 886.5 750.15 877.85 752.65 869.15 755.1 856.75 755.95 850.3 756.35 844.45 755.85 838.6 755.3 833.45 754.15 833 754.05 832.55 753.95 832.15 753.85 831.7 753.75 823.65 751.7 817.75 749.05 811.85 746.35 808.55 744.1
L 806.05 742.25 805 741.15
Q 804.95 741 804.95 740.85
L 804.85 740.55
Q 803.65 739.85 802.05 739.15 800.5 738.5 799.55 738.45
L 799.35 738.4
Q 799.15 738.3 799.05 738.4 799.05 739 799.4 739.75
L 799.65 740.4 799.85 740.75
Q 800.25 741.65 800.8 742.45 801.3 743.25 802.1 743.9
L 802.35 744.1
Q 802.5 744.2 802.75 744.3 803.15 744.7 803.7 745.05
L 804.2 745.35 804.45 745.55
Q 819.3 754.55 835.65 757.25 851.95 759.9 868.3 756.9 884.7 753.9 899.65 745.75 900 745.55 900.4 745.35 900.75 745.15 901.1 744.95 901.35 744.65 901.65 744.35 901.9 744.05 902.2 743.75 902.6 743.2 903 742.7 903.4 742.15 903.8 741.6 903.95 740.9 904.1 740.1 904.25 739.35 904.4 738.5 905.15 734.25 905.7 729.35 906.3 724.45 906.7 719.75 907.15 715 907.4 711.3 908.25 698.55 908.55 685.75 908.9 672.95 909.7 660.2 910.25 651.4 910.55 642.55 910.8 633.7 911.55 624.85 912.25 616.05 914.05 607.35 915.1 602.6 916.25 597.9 917.35 593.25 918.6 588.65 Z"/>

<path fill="#FFFFFF" stroke="none" d="
M 940.7 479.85
Q 934.75 469.6 924.95 459.6 915.15 449.65 902.45 442.75 889.75 435.85 875.15 434.65 859.7 433.75 845.5 436.65 831.3 439.55 820.8 445.6 810.35 451.7 806.15 460.2 802.2 468.25 796.85 481.3 791.5 494.4 786.65 512.55 781.8 530.7 779.45 553.95 777.1 577.2 779.15 605.6 780.85 627.2 784.05 649.85 787.25 672.5 792.35 695.4 797.45 718.25 804.85 740.55
L 804.95 740.85
Q 804.95 741 805 741.15
L 806.05 742.25 808.55 744.1
Q 811.85 746.35 817.75 749.05 823.65 751.7 831.7 753.75 832.15 753.85 832.55 753.95 833 754.05 833.45 754.15 838.6 755.3 844.45 755.85 850.3 756.35 856.75 755.95 869.15 755.1 877.85 752.65 886.5 750.15 891.8 747.2 897.05 744.25 899.2 741.95 899.5 741.65 899.75 741.35 900 741.05 900.2 740.8 900.3 740.7 900.35 740.55 900.45 740.45 900.5 740.35 903.55 729.05 904.8 710.6 906 692.2 906.75 669.65 907.5 647.15 909.2 623.55 910.3 609.85 913.2 597 916.1 584.15 920.05 572.35 924 560.6 928.3 550.15 933.55 537.5 938.15 527.25 942.75 516.95 945.45 509.55 948.2 502.15 947.75 498.05 946.65 490.15 940.7 479.85 Z"/>
</g>

<g id="Symbol_48_0_Layer0_0_FILL">
<path fill="#FFFFFF" stroke="none" d="
M 743.95 723.9
L 747.05 749.9
Q 750 774.65 753.9 807.15 757.8 839.7 760.8 864.5
L 763.95 890.65
Q 767.9 898 784.65 903.3 801.4 908.65 822.65 910.8 843.95 913 861.55 910.95 879.2 908.9 884.9 901.55
L 886.85 876.25
Q 888.6 852.35 890.95 820.9 893.25 789.45 895 765.5
L 897 740.15
Q 887.15 730.2 868.45 724 849.8 717.75 827.05 715.5 804.35 713.25 782.35 715.25 760.4 717.3 743.95 723.9 Z"/>
</g>

<g id="Symbol_32_0_Layer0_0_FILL">
<path fill="#0075c9" stroke="none" d="
M 943.65 840.8
Q 942.6 838.75 942.2 837.35 941.45 834.6 941.05 831.85 940.7 829.05 940.15 826.35
L 939.65 824.85 939.1 824.45
Q 938.5 824.55 938.05 825.8 937.65 827 937.65 828.25 937.8 831.4 938.75 835.75 939.7 840.1 941.85 843.7 943.95 847.3 947.65 848.15 951.1 848.6 953.45 845.55 955.8 842.55 957.1 838.5 958.4 834.45 958.75 831.75 958.9 830.75 958.95 828.85 959 826.95 958.7 825.25 958.4 823.5 957.45 822.95
L 957.25 822.9
Q 957.1 822.9 957.05 822.95 956.7 823.3 956.6 823.8
L 956.45 824.5
Q 956.2 826.4 956.15 828.4 956.15 830.4 955.8 832.35 955.5 834.05 954.65 836.85 953.8 839.65 952.5 842.15 951.2 844.6 949.5 845.25 947.75 845.7 946.2 844.3 944.7 842.85 943.65 840.8 Z"/>
</g>

<g id="Symbol_49_0_Layer0_0_FILL">
<path fill="#0075c9" stroke="none" d="
M 1094.6 770.5
L 1093.75 772.25
Q 1089.15 782.8 1083.9 793.25 1078.6 803.7 1073.65 814.1 1068.95 824.05 1064 833.9 1059.05 843.75 1054 853.6 1049.5 863.1 1045.45 872 1041.35 880.9 1037.85 888.85 1037.3 889.1 1036.75 889.35 1036.2 889.6 1035.65 889.85 1034.95 891.3 1034.25 892.8 1033.5 894.25 1032.8 895.7 1032.6 896.05 1032.35 896.65 1032.05 897.25 1032.4 897.65 1032.8 897.8 1033.15 897.4 1033.45 897 1033.6 896.65 1034 896.1 1034.4 895.4
L 1034.75 894.85 1034.9 894.55
Q 1042.9 881.95 1050.2 868.7 1057.5 855.4 1064.4 841.9 1071.3 828.4 1078.1 815.05 1082.95 805.8 1087.75 795.95 1092.55 786.1 1096.2 776.35 1096.95 774.25 1097.5 772.1 1098.05 770 1098.9 767.95 1099.05 767.7 1099.35 767.25 1099.65 766.75 1099.3 766.4 1097.8 766.3 1096.6 767.65 1095.35 769.05 1094.6 770.5 Z"/>

<path fill="#FFFFFF" stroke="none" d="
M 957.95 682.1
Q 932.65 675.3 920.5 673.8 922 693.3 923.7 726 925.4 758.7 926.95 792.75 928.5 826.75 929.55 850.25
L 930.7 874.8
Q 939 882.1 950.8 887.7 962.55 893.3 976.65 896.05 990.7 898.75 1005.75 897.5 1020.85 896.25 1035.65 889.85 1036.2 889.6 1036.75 889.35 1037.3 889.1 1037.85 888.85 1041.35 880.9 1045.45 872 1049.5 863.1 1054 853.6 1065 830.35 1076.75 806.45 1088.5 782.55 1098.75 762.2 1108.95 741.9 1115.35 729.4
L 1122 716.4
Q 1102.8 716.9 1073.95 711.1 1045.1 705.3 1014.2 697.1 983.3 688.85 957.95 682.1 Z"/>
</g>

<g id="Symbol_33_0_Layer0_0_FILL">
<path fill="#0075c9" stroke="none" d="
M 943.35 838.65
Q 942.15 836.05 941.4 832.95 940.6 829.9 939.6 827.1
L 939.2 826.4 938.9 826.25
Q 938.6 826.4 938.45 827.1 938.3 827.8 938.3 828.5 938.5 831.6 939.5 835.45 940.5 839.25 942.25 842.4 943.95 845.55 946.3 846.7 950.3 848.25 953.15 845.6 956 842.95 957.6 838.15 959.2 833.4 959.35 828.65 959.35 827.95 959.35 826.95 959.3 825.95 959.1 825.15 958.85 824.4 958.4 824.45 958.25 824.75 958.1 825.1
L 957.95 825.6
Q 957.35 827.6 957.1 829.8 956.8 831.95 956.3 834.1 955.15 838.55 953 841.25 950.85 843.95 948.25 843.6 945.7 843.25 943.35 838.65 Z"/>
</g>

<g id="Symbol_28_0_Layer0_0_FILL">
<path fill="#FFFFFF" stroke="none" d="
M 656.95 766.95
L 648.9 766.15
Q 647.3 766.15 646.3 767.25 645.25 768.35 645.2 769.8 645.15 771.3 646.5 772.5
L 649.1 773.9 654.55 776.1
Q 661.45 778.7 672.95 780.7 684.4 782.7 699.15 781.9 713.85 781.15 730.65 775.45 742.3 771.1 752.6 762.8 762.95 754.5 770.9 745.45 778.9 736.4 783.5 729.9
L 788.3 722.65 787.25 721.25 784.35 718.45
Q 780.55 714.95 775.95 710.9 771.3 706.9 768.6 704.6 766.5 707.95 761.25 715.5 756 723 748.5 732 741.05 741.05 732.35 748.9 723.6 756.75 714.6 760.8 704.7 764.9 693.85 766.4 683 767.85 673.25 767.75 663.55 767.6 656.95 766.95 Z"/>
</g>

<g id="Symbol_16_0_Layer0_0_FILL">
<path fill="#82bc00" stroke="none" d="
M 891.5 633.65
L 891.05 633.65 907.65 759.35 919 845 930.8 758.65 946.5 643.85 947.85 633.85 891.5 633.65 Z"/>

<path fill="#0075c9" stroke="none" d="
M 891.05 633.65
L 891.5 633.65
Q 890.95 631.45 890.25 629.3 889.6 627.15 888.8 625.1
L 888.45 624.2
Q 888.15 623.5 887.75 622.95 887.5 622.5 887.45 622.75 887.45 623.05 887.4 623.7 887.35 626 887.9 628.45 888.45 630.9 889 633.15 894 655.4 895.95 677.8 897.95 700.2 900.25 722.5 901.5 733.9 902.55 745.45 903.55 757.05 905.6 768.4
L 905.85 770.25
Q 906.15 771.75 906.75 772.15 907.35 772.15 907.35 771.6 907.35 771.1 907.3 770.65 907.6 768 907.7 765.15 907.75 762.3 907.65 759.35
L 891.05 633.65
M 951.9 628
Q 951.9 627.5 951.75 626.25 951.65 625.05 950.9 624.35 949.5 624.3 949.5 625.85 949.45 627.4 949.4 628.6 948.75 632.45 948 636.25 947.3 640.05 946.5 643.85
L 930.8 758.65
Q 933.35 750.25 934.7 741.9 936 733.6 937.35 724.85 940 708.65 942.65 692.5 945.35 676.35 948.05 660.15 949.4 652.85 950.95 644 952.5 635.15 951.9 628 Z"/>
</g>

<g id="Symbol_50_0_Layer0_0_FILL">
<path fill="#82bc00" stroke="none" d="
M 975.75 340.3
Q 974.3 339.05 973.3 339.6 972.3 340.1 971.25 342.55 970.3 344.55 969.65 346.85 969.05 349.2 968.65 351.8 967.85 357 967.9 362.85 967.95 368.7 968.6 374.65 969.1 379.1 969.8 383.35 970.5 387.65 971.35 391.45 971.75 393.2 972.15 394.85 972.55 396.45 972.95 397.95 974.15 402.3 975 407 975.85 411.7 976.65 416.55 977.7 423.25 979.25 429.8 980.75 436.3 983.4 442 995.05 466.05 1012.3 487.5 1029.55 508.9 1049.75 525.95 1052.5 528.45 1057.85 532.45 1063.15 536.45 1069.2 539.45 1075.25 542.4 1080.2 541.7 1080.5 541.65 1080.85 541.55 1081.15 541.45 1081.5 541.35 1081.65 541.45 1081.85 541.55 1082.05 541.65 1082.25 541.7 1084.1 542.6 1086 542.9 1087.85 543.25 1089.6 542.9 1089.6 544.05 1089.65 545.25
L 1089.7 547.6
Q 1089.8 559.7 1090.5 571.65 1091.15 583.6 1093.6 595.05 1094.05 597 1094.55 599.1 1095.05 601.2 1095.6 603.4 1099.15 618.6 1106.25 633.8 1113.35 649 1125.85 657.55 1128.85 661.3 1132.25 664 1135.6 666.65 1139.3 667.6 1139.45 667.6 1139.6 667.65 1139.75 667.7 1139.9 667.7 1140.8 667.9 1141.75 667.95 1142.7 667.95 1143.7 667.85
L 1144 667.8
Q 1144.55 667.7 1145.1 667.6 1145.65 667.45 1146.2 667.25 1146.4 667.2 1146.6 667.1 1146.8 667.05 1146.95 666.95
L 1146.8 668.2
Q 1146.7 668.8 1146.65 669.4
L 1146.45 670.65
Q 1146.4 671.1 1146.35 671.55 1146.2 672.3 1146.1 673.1 1146 673.9 1145.9 674.7 1145.15 680.7 1144.65 686.8 1144.15 692.95 1143.9 699.1 1143.35 712.15 1144.2 725.1 1145.05 738.05 1147.65 750.35 1148.8 755.6 1152.6 757.95 1156.35 760.3 1160.75 756 1168.25 747.25 1173.65 733.25 1179.05 719.3 1182.1 708.3 1184.6 699.7 1186.75 690.3 1188.9 680.9 1190.35 671.15 1191.6 662.5 1192 653.9 1192.45 645.3 1191.8 637 1191.7 635.8 1191.55 634.55 1191.45 633.35 1191.25 632.1 1191.1 630.8 1190.9 629.5 1190.75 628.15 1190.55 626.85 1190.9 620.15 1191.2 613.1 1191.5 606.1 1191.6 598.95 1191.6 596 1191.6 593.1 1191.55 590.2 1191.5 587.35 1191.45 586.25 1191.4 585.2 1191.35 584.15 1191.3 583.1 1191.3 582.9 1191.25 582.7 1191.25 582.5 1191.25 582.25 1191.15 580.85 1191.05 579.45 1190.95 578 1190.8 576.6 1190.45 572.8 1189.9 569.1 1189.35 565.45 1188.55 561.9
L 1188.1 560.25
Q 1187.7 558.95 1187.25 557.9 1186.85 557.25 1186.4 557.05 1185.95 556.9 1185.35 557.5
L 1184.85 559.3 1184.55 562.9
Q 1184.3 567.35 1184.25 572.05
L 1184.15 578.45
Q 1184.1 580.15 1184.05 581.85 1184.05 583.5 1183.95 585.2 1183.65 585.8 1183.5 586.45 1183.3 587.05 1183.2 587.35 1181.05 595.35 1181 604.8 1180.9 614.2 1181.6 622.9 1180.85 630.6 1179.9 638.3 1178.95 646 1177.8 653.8 1177.65 655 1177.25 657.05 1176.9 659.1 1176.5 661.7 1176.35 660.25 1176.2 658.8 1176.05 657.3 1175.85 655.85 1175 651.1 1173.3 646 1171.6 640.9 1171.05 636.65
L 1170.95 632.1
Q 1170.7 628.75 1167.75 627.65 1167.4 627.4 1166.85 627.35 1166.35 627.25 1165.7 627.3 1167.35 611.75 1166.7 595.1 1166.05 578.5 1160.05 568.1
L 1159 566.5
Q 1158.15 565.35 1157.35 564.45 1156.75 564.15 1156.3 563.7 1155.9 563.2 1155.15 563.25 1154.65 563.45 1154.35 563.95
L 1153.95 564.65
Q 1153.4 565.7 1153.05 567.85 1152.75 570.05 1152.6 572.85 1147.4 558.35 1142.8 543.5 1138.25 528.7 1132.85 514.3 1130.05 506.6 1126.8 497.3 1123.6 487.95 1119.3 481.4
L 1118 479.8
Q 1116.95 478.7 1115.8 477.95 1115.4 477.75 1115 477.5
L 1114.5 477.2
Q 1109.9 475.4 1105.45 477.3 1101 479.2 1099.4 483.8 1098.6 470.65 1096.45 457.55 1094.35 444.45 1089.65 434.15
L 1088.8 432.65
Q 1088.15 431.4 1087.6 430.35 1086.6 429.4 1085.7 429.1
L 1083.95 431.6
Q 1082.55 436.8 1082.6 444.05 1082.7 451.3 1083.05 456.85 1083.4 463.25 1083.9 469.65 1084.4 476.1 1084.95 482.55 1081.35 474.25 1077.15 466.15 1072.9 458.1 1068.15 450.45 1064.75 444.15 1060.65 437.8 1056.55 431.5 1049 430.95 1048.2 431.05 1046.65 431.45
L 1044.85 431.95
Q 1043.9 431.5 1042.95 429.85 1042 428.2 1041.35 427.25 1037.65 421.8 1031.5 414.4 1025.3 407 1019 405.9 1016.7 405.95 1015.4 406.55 1014.05 407.15 1012.75 405.65 1009.85 401.55 1007.1 395.3 1004.35 389.05 1000.25 385.25 996.15 381.5 989.1 384.85
L 988 385.6
Q 987.2 386.2 986.3 386.9 985.4 375.65 983.75 364.6 982.05 353.55 977.8 344.15
L 977 342.6
Q 976.4 341.35 975.75 340.3
M 1139.95 639.15
L 1140.75 639.25
Q 1140.75 639.6 1140.7 640 1140.7 640.4 1140.3 640.3 1140.1 640.2 1139.7 639.8 1139.3 639.45 1139.3 639.15
L 1139.95 639.15
M 1170.05 656.95
Q 1170.3 658.15 1170.3 659.55
L 1170.25 661.3
Q 1170.3 665.4 1170.2 669.55 1170.1 673.7 1169.4 677.75
L 1169.4 678.45
Q 1169.4 679.05 1169.15 679.4 1168.95 678.55 1169.05 677.15 1169.15 675.8 1169.2 675.25 1169.4 671.15 1169.55 667.05 1169.75 662.95 1169.9 658.85 1169.85 658.6 1169.85 657.95 1169.85 657.35 1170.05 656.95 Z"/>

<path fill="#82bc00" stroke="none" d="
M 1170.3 659.55
Q 1170.3 658.15 1170.05 656.95 1169.85 657.35 1169.85 657.95 1169.85 658.6 1169.9 658.85 1169.75 662.95 1169.55 667.05 1169.4 671.15 1169.2 675.25 1169.15 675.8 1169.05 677.15 1168.95 678.55 1169.15 679.4 1169.4 679.05 1169.4 678.45
L 1169.4 677.75
Q 1170.1 673.7 1170.2 669.55 1170.3 665.4 1170.25 661.3
L 1170.3 659.55
M 1191.2 177.25
Q 1177.8 115.15 1150.8 61.95 1145 52.25 1125.65 53.6 1106.3 54.9 1081.15 64.05 1056.05 73.2 1032.85 86.9 1025.55 91.25 1018.95 95.9 1012.35 100.5 1006.8 105.3 986.5 123.55 972.9 145.85 959.25 168.2 952.4 184.75
L 945.55 202.1 946.45 229.4
Q 947.6 255.65 952.5 295 957.45 334.4 968.6 374.65 967.95 368.7 967.9 362.85 967.85 357 968.65 351.8 969.05 349.2 969.65 346.85 970.3 344.55 971.25 342.55 972.3 340.1 973.3 339.6 974.3 339.05 975.75 340.3 976.4 341.35 977 342.6
L 977.8 344.15
Q 982.05 353.55 983.75 364.6 985.4 375.65 986.3 386.9 987.2 386.2 988 385.6
L 989.1 384.85
Q 996.15 381.5 1000.25 385.25 1004.35 389.05 1007.1 395.3 1009.85 401.55 1012.75 405.65 1014.05 407.15 1015.4 406.55 1016.7 405.95 1019 405.9 1025.3 407 1031.5 414.4 1037.65 421.8 1041.35 427.25 1042 428.2 1042.95 429.85 1043.9 431.5 1044.85 431.95
L 1046.65 431.45
Q 1048.2 431.05 1049 430.95 1056.55 431.5 1060.65 437.8 1064.75 444.15 1068.15 450.45 1072.9 458.1 1077.15 466.15 1081.35 474.25 1084.95 482.55 1084.4 476.1 1083.9 469.65 1083.4 463.25 1083.05 456.85 1082.7 451.3 1082.6 444.05 1082.55 436.8 1083.95 431.6
L 1085.7 429.1
Q 1086.6 429.4 1087.6 430.35 1088.15 431.4 1088.8 432.65
L 1089.65 434.15
Q 1094.35 444.45 1096.45 457.55 1098.6 470.65 1099.4 483.8 1101 479.2 1105.45 477.3 1109.9 475.4 1114.5 477.2
L 1115 477.5
Q 1115.4 477.75 1115.8 477.95 1116.95 478.7 1118 479.8
L 1119.3 481.4
Q 1123.6 487.95 1126.8 497.3 1130.05 506.6 1132.85 514.3 1138.25 528.7 1142.8 543.5 1147.4 558.35 1152.6 572.85 1152.75 570.05 1153.05 567.85 1153.4 565.7 1153.95 564.65
L 1154.35 563.95
Q 1154.65 563.45 1155.15 563.25 1155.9 563.2 1156.3 563.7 1156.75 564.15 1157.35 564.45 1158.15 565.35 1159 566.5
L 1160.05 568.1
Q 1166.05 578.5 1166.7 595.1 1167.35 611.75 1165.7 627.3 1166.35 627.25 1166.85 627.35 1167.4 627.4 1167.75 627.65 1170.7 628.75 1170.95 632.1
L 1171.05 636.65
Q 1171.6 640.9 1173.3 646 1175 651.1 1175.85 655.85 1176.05 657.3 1176.2 658.8 1176.35 660.25 1176.5 661.7 1176.9 659.1 1177.25 657.05 1177.65 655 1177.8 653.8 1178.95 646 1179.9 638.3 1180.85 630.6 1181.6 622.9 1180.9 614.2 1181 604.8 1181.05 595.35 1183.2 587.35 1183.3 587.05 1183.5 586.45 1183.65 585.8 1183.95 585.2 1184.05 583.5 1184.05 581.85 1184.1 580.15 1184.15 578.45
L 1184.25 572.05
Q 1184.3 567.35 1184.55 562.9
L 1184.85 559.3 1185.35 557.5
Q 1185.95 556.9 1186.4 557.05 1186.85 557.25 1187.25 557.9 1187.7 558.95 1188.1 560.25
L 1188.55 561.9
Q 1189.35 565.45 1189.9 569.1 1190.45 572.8 1190.8 576.6 1190.95 578 1191.05 579.45 1191.15 580.85 1191.25 582.25 1191.25 582.5 1191.25 582.7 1191.3 582.9 1191.3 583.1 1191.35 584.15 1191.4 585.2 1191.45 586.25 1191.5 587.35 1191.55 590.2 1191.6 593.1 1191.6 596 1191.6 598.95 1192.1 595.5 1192.55 592 1193.05 588.45 1193.55 584.9 1195.55 569.9 1197.55 553.65 1199.5 537.4 1201.3 520.05 1202.6 507.3 1203.75 494 1204.95 480.7 1205.9 467 1208.75 428.35 1209.5 387.3 1210.25 346.3 1208 304.5 1204.65 239.35 1191.2 177.25 Z"/>

<path fill="#0075c9" stroke="none" d="
M 1008.45 90.15
Q 1002.5 94.4 999.35 97.5 989.45 107.15 980.3 117.4 971.1 127.7 962.6 138.55 939.8 168.25 935.15 199.7 930.5 231.2 937.05 266.85 939.85 283.9 942.4 301.2 944.95 318.45 947.8 335.85 950.05 349.9 952.75 364.75 955.5 379.65 959.7 393.85 959.75 400.9 961.05 407.65 962.4 414.4 964.9 422.3 973 448.25 987.75 471.2 1002.5 494.15 1020.9 513.65 1031.45 525.1 1047.6 535.55 1063.75 546.05 1080.25 548.1 1080.35 550.15 1080.45 551.9 1080.55 553.65 1080.65 555 1081.7 580.65 1085.95 605.8 1090.2 631 1106 652.15 1111.15 658.65 1120.15 665.65 1129.15 672.7 1137.4 675.35 1134.3 692.75 1136.15 712 1138 731.25 1142.7 747.35 1144 753.05 1145.55 757.8 1147.1 762.6 1151.55 763.15 1154.6 766.1 1157.9 766.6 1161.2 767.1 1163.95 763.15 1165.7 760.4 1167.3 757.2 1168.85 754 1170.25 750.55 1178.15 739.05 1183.1 724.3 1188 709.6 1190.1 699.05 1191.8 690.9 1193.4 682.05 1195 673.15 1196.3 663.85 1198.15 657.65 1199.3 650.8 1200.45 643.95 1201.1 638.3 1202.55 626.25 1203.8 614.1 1205.05 601.9 1206.05 589.8 1207.95 566.95 1210.1 543.9 1212.2 520.9 1213.55 497.95 1215 473.8 1217.05 449.3 1219.05 424.8 1219.25 400.7 1219.65 377.8 1218.9 352.85 1218.15 327.9 1211.2 305.9
L 1210.5 304.35
Q 1209.95 303.1 1209.7 301.95 1209.2 301.95 1208.8 302.7 1208.35 303.4 1208 304.5 1210.25 346.3 1209.5 387.3 1208.75 428.35 1205.9 467 1204.95 480.7 1203.75 494 1202.6 507.3 1201.3 520.05 1199.5 537.4 1197.55 553.65 1195.55 569.9 1193.55 584.9 1193.05 588.45 1192.55 592 1192.1 595.5 1191.6 598.95 1191.5 606.1 1191.2 613.1 1190.9 620.15 1190.55 626.85 1190.75 628.15 1190.9 629.5 1191.1 630.8 1191.25 632.1 1191.45 633.35 1191.55 634.55 1191.7 635.8 1191.8 637 1192.45 645.3 1192 653.9 1191.6 662.5 1190.35 671.15 1188.9 680.9 1186.75 690.3 1184.6 699.7 1182.1 708.3 1179.05 719.3 1173.65 733.25 1168.25 747.25 1160.75 756 1156.35 760.3 1152.6 757.95 1148.8 755.6 1147.65 750.35 1145.05 738.05 1144.2 725.1 1143.35 712.15 1143.9 699.1 1144.15 692.95 1144.65 686.8 1145.15 680.7 1145.9 674.7 1146 673.9 1146.1 673.1 1146.2 672.3 1146.35 671.55 1146.4 671.1 1146.45 670.65
L 1146.65 669.4
Q 1146.7 668.8 1146.8 668.2
L 1146.95 666.95
Q 1146.8 667.05 1146.6 667.1 1146.4 667.2 1146.2 667.25 1145.65 667.45 1145.1 667.6 1144.55 667.7 1144 667.8
L 1143.7 667.85
Q 1142.7 667.95 1141.75 667.95 1140.8 667.9 1139.9 667.7 1139.75 667.7 1139.6 667.65 1139.45 667.6 1139.3 667.6 1135.6 666.65 1132.25 664 1128.85 661.3 1125.85 657.55 1113.35 649 1106.25 633.8 1099.15 618.6 1095.6 603.4 1095.05 601.2 1094.55 599.1 1094.05 597 1093.6 595.05 1091.15 583.6 1090.5 571.65 1089.8 559.7 1089.7 547.6
L 1089.65 545.25
Q 1089.6 544.05 1089.6 542.9 1087.85 543.25 1086 542.9 1084.1 542.6 1082.25 541.7 1082.05 541.65 1081.85 541.55 1081.65 541.45 1081.5 541.35 1081.15 541.45 1080.85 541.55 1080.5 541.65 1080.2 541.7 1075.25 542.4 1069.2 539.45 1063.15 536.45 1057.85 532.45 1052.5 528.45 1049.75 525.95 1029.55 508.9 1012.3 487.5 995.05 466.05 983.4 442 980.75 436.3 979.25 429.8 977.7 423.25 976.65 416.55 975.85 411.7 975 407 974.15 402.3 972.95 397.95 972.55 396.45 972.15 394.85 971.75 393.2 971.35 391.45 970.5 387.65 969.8 383.35 969.1 379.1 968.6 374.65 957.45 334.4 952.5 295 947.6 255.65 946.45 229.4
L 945.55 202.1 952.4 184.75
Q 959.25 168.2 972.9 145.85 986.5 123.55 1006.8 105.3 1012.35 100.5 1018.95 95.9 1025.55 91.25 1032.85 86.9 1033.4 86.05 1033.4 85.15 1033.4 84.25 1032.8 83.25 1032.45 83.1 1032.15 82.8
L 1031.8 82.45
Q 1027.3 80.6 1020.9 83.2 1014.45 85.85 1008.45 90.15 Z"/>
</g>

<g id="Symbol_51_0_Layer0_0_FILL">
<path fill="#82bc00" stroke="none" d="
M 1052.35 283.25
Q 1032.85 270.25 1016.1 269.15 999.3 268.05 985.7 273.6 972.1 279.2 962.3 286.15 952.6 293 947.9 304.9 943.2 316.8 942 329.7 940.75 342.65 941.6 352.6 942.35 362.75 948.5 376.1 954.6 389.45 965.95 400.1 977.25 410.75 993.55 412.7 1005.85 414.4 1018.1 423.45 1030.35 432.45 1040.85 441.55 1051.35 450.7 1058.5 452.6 1065.6 454.55 1067.8 442.05 1069.9 428.35 1071.1 404.9 1072.3 381.5 1071.35 356 1070.35 330.45 1065.9 310.4 1061.5 290.3 1052.35 283.25 Z"/>
</g>

<g id="Symbol_19_0_Layer0_0_FILL">
<path fill="#82bc00" stroke="none" d="
M 1106.5 326.35
Q 1113.75 318.9 1118.6 311
L 1115.05 308.9 1104.95 304.7
Q 1091.55 299.45 1068.2 297.6
L 1071.15 308.1
Q 1074.2 317.9 1077.85 329.4 1081.5 340.9 1083.4 346.7 1086.05 344.75 1092.65 339.3 1099.2 333.8 1106.5 326.35 Z"/>
</g>

<g id="Symbol_20_0_Layer0_0_FILL">
<path fill="#82bc00" stroke="none" d="
M 758.9 590
Q 753.15 581.15 747.85 586.05 742.15 591.9 723.55 593.9 704.95 595.95 679.3 592 653.7 588.05 627.05 576.05 599.9 563.15 577.6 549.9 555.25 536.7 541.8 527.6
L 527.85 518.1
Q 526.3 535.9 536.7 561.25 547.1 586.6 562.8 608.25 578.5 629.85 592.8 636.6 604.25 640.8 633.65 641.05 663.1 641.25 696.75 639.45 730.4 637.65 754.65 635.7
L 780.05 633.55
Q 775.6 625.3 770.1 612.05 764.6 598.85 758.9 590 Z"/>
</g>

<g id="Symbol_52_0_Layer0_0_FILL">
<path fill="#82bc00" stroke="none" d="
M 1132.6 334.4
Q 1116.5 319.05 1093.55 303.2 1070.65 287.35 1049.4 284.65 1027.15 283.5 987.55 306.55 948 329.6 911.6 371.55 875.2 413.55 862.55 469.2 850.45 525.05 828.8 572.75 807.1 620.45 788.55 652.95
L 774 679.9 767.45 695.7 781.05 700 819.05 698.1
Q 869.25 693.05 937.65 673.7 1006.05 654.35 1062.25 618.65 1118.4 583 1131.75 529.1 1145.75 457.75 1149.35 419.15 1152.95 380.5 1151.65 365.75
L 1150.45 354.7 1149.5 351.1 1132.6 334.4 Z"/>
</g>

<g id="Symbol_22_0_Layer0_0_FILL">
<path fill="#0075c9" stroke="none" d="
M 1035.4 302.25
L 1033.5 301.25 1031.5 300.65 1029.35 300.45 1027.25 300.65 1025.25 301.25 1023.35 302.25 1021.75 303.6 1020.4 305.25 1019.4 307.1 1018.75 309.15 1018.55 311.25 1018.75 313.35 1019.4 315.4 1020.4 317.25 1021.75 318.9 1023.35 320.25 1025.25 321.25 1027.25 321.85 1029.35 322.05 1031.5 321.85 1033.5 321.25 1035.4 320.25 1037 318.9 1038.35 317.25 1039.35 315.4 1040 313.35 1040.2 311.25 1040 309.15 1039.35 307.1 1038.35 305.25 1037 303.6 1035.4 302.25 Z"/>
</g>

<g id="Symbol_23_0_Layer0_0_FILL">
<path fill="#82bc00" stroke="none" d="
M 1040.4 290.7
Q 1036.7 285.45 1029.15 285.1 1020.3 285.55 1015.95 292.1 1011.65 298.6 1010.8 306.75
L 1046.25 307 1045.2 301.3
Q 1044.1 296 1040.4 290.7 Z"/>
</g>

<g id="Symbol_53_0_Layer0_0_FILL">
<path fill="#0075c9" stroke="none" d="
M 881.3 302.85
Q 881.15 302.9 881.05 302.95
L 879.45 303.65
Q 879.15 305.85 879.2 308.25 879.3 310.65 879.7 313.2 879.85 314.05 880 314.9 880.2 315.8 880.4 316.65 881.55 321.3 883.5 325.95 885.5 330.55 888.15 334.8 890.85 339.1 894 342.6 894.75 343.45 895.5 344.25 896.3 345 897.1 345.75
L 897.15 345.8
Q 897.55 345.35 898 344.95 898.45 344.6 898.85 344.3 898.9 344.15 898.95 344.05 899 343.9 899.05 343.8 899.2 343.6 899.35 343.4 899.5 343.2 899.7 343.05 898.95 342.25 898.25 341.5 897.5 340.7 896.85 339.9 894.7 337.45 892.85 334.55 891 331.65 889.2 328.05 888.8 327.25 888.45 326.45 888.05 325.65 887.75 324.95 886.65 322.5 885.85 320.25 885.05 318.05 884.4 315.75 884.15 314.9 883.95 314 883.7 313.15 883.45 312.25 883.4 311.95 883.3 311.6 883.25 311.3 883.15 310.95
L 883.05 310.65
Q 883.05 310.5 883 310.3 882.95 310.2 882.95 310.1 882.9 309.95 882.9 309.85 882.75 309.25 882.6 308.65 882.45 308.05 882.3 307.4 882.2 307 882.1 306.65 882 306.25 881.9 305.85 881.8 305.3 881.65 304.8 881.5 304.25 881.4 303.75
L 881.4 303.7
Q 881.35 303.5 881.35 303.25 881.3 303.05 881.3 302.85
M 817.3 320.45
L 817.2 320.5
Q 816.6 320.85 816.15 321.35 815.7 321.85 815.4 322.5 815.05 323.25 814.85 324.15 814.65 325 814.6 325.95 814.5 328.15 814.85 330.35 815.2 332.5 815.55 334
L 815.85 335.15 816.05 335.7 816.1 335.95
Q 816.15 336.1 816.2 336.25 817.3 339.45 818.65 342.8 820.05 346.15 821.65 349.55 824.65 355.9 828.05 362.05 831.45 368.15 834.7 373.5 836.85 377 839 380.1 841.15 383.25 843.45 386.05 844.15 386.9 844.9 387.75 845.65 388.6 846.45 389.4 847.2 390.2 848 390.95 848.8 391.75 849.6 392.5 849.9 392.75 850.15 393 850.45 393.25 850.75 393.5 853.3 395.65 856.2 397.6 859.15 399.55 862.55 401.3 862.9 401.55 863.65 401.95 864.4 402.35 864.95 402.1 864.8 401.6 864.25 401.1 863.75 400.6 863.2 400.2 862.7 399.85 862.5 399.7 859.75 397.45 857.2 395 854.65 392.6 852.25 389.95 851.5 389.15 850.75 388.3 850 387.45 849.3 386.6 848.75 386 848.2 385.35 847.7 384.7 847.15 384.05 844.9 381.2 842.75 378.2 840.6 375.2 838.6 372.1 833.5 364.1 829.2 355.65 824.95 347.2 821.4 338.75 820.7 337.1 819.95 335 819.15 332.9 818.65 330.75 818.15 328.55 818.2 326.55 818.25 326.05 818.3 325.6 818.35 325.15 818.45 324.75
L 818.5 324.65 818.55 324.25
Q 818.65 323.95 818.6 323.7 818.8 323.6 819.05 323.6 819.25 323.55 819.5 323.55 819.95 323.5 820.4 323.55 820.9 323.6 821.4 323.6 821.9 323.6 822.4 323.55 822.9 323.45 823.3 323.2 822.95 322.75 822.25 322.35 821.55 321.9 820.85 321.6 820.15 321.3 819.85 321.2
L 819.6 321.1
Q 819.2 320.95 818.55 320.7 817.85 320.5 817.3 320.45
M 899.1 347
L 898.9 347.25
Q 899.05 347.35 899.2 347.5 899.35 347.6 899.5 347.75 899.4 347.55 899.3 347.35 899.2 347.2 899.1 347
M 908.6 351.9
Q 908.45 352 908.25 352.1 908.5 352.15 908.75 352.2 908.95 352.2 909.2 352.2 909.15 352.1 909.1 351.95 909.05 351.8 908.95 351.7 908.8 351.8 908.6 351.9 Z"/>

<path fill="#82bc00" stroke="none" d="
M 896.1 296.7
L 895.8 296.75
Q 892.85 298 889.9 299.25 886.95 300.45 884 301.7 883.8 301.9 883.55 302.1 883.35 302.3 883.2 302.5 883.05 302.45 882.9 302.4 882.75 302.35 882.6 302.3 882.25 302.45 881.95 302.6 881.6 302.75 881.3 302.85 881.3 303.05 881.35 303.25 881.35 303.5 881.4 303.7
L 881.45 303.7 881.4 303.75
Q 881.5 304.25 881.65 304.8 881.8 305.3 881.9 305.85 882 306.25 882.1 306.65 882.2 307 882.3 307.4 882.45 308.05 882.6 308.65 882.75 309.25 882.9 309.85 882.9 309.95 882.95 310.1 882.95 310.2 883 310.3 883.05 310.5 883.05 310.65
L 883.15 310.95
Q 883.25 311.3 883.3 311.6 883.4 311.95 883.45 312.25 883.7 313.15 883.95 314 884.15 314.9 884.4 315.75 885.05 318.05 885.85 320.25 886.65 322.5 887.75 324.95 888.05 325.65 888.45 326.45 888.8 327.25 889.2 328.05 891 331.65 892.85 334.55 894.7 337.45 896.85 339.9 897.5 340.7 898.25 341.5 898.95 342.25 899.7 343.05
L 899.95 342.9 900.25 342.55
Q 900.45 342.4 900.6 342.25
L 900.8 342.45 900.9 342.5
Q 901.5 342.4 902.2 342.4 902.9 342.45 903.75 342.7 904 342.8 904.3 342.9 904.6 343 904.9 343.15 905.05 343.2 905.25 343.3 905.45 343.4 905.65 343.5 905.9 343.4 906.1 343.3 906.35 343.2 906.65 343.15 906.6 343 906.6 342.85 906.6 342.75 906.6 342.6 907.75 342.45 909.05 342.1 910.35 341.75 911.4 341.35 912.5 341 913.05 340.85 913.9 340.6 916 340 918.1 339.45 920.05 338.8
L 921.65 338.15 922.5 337.65
Q 922.7 337.4 922.7 337.15 922.7 336.85 922.45 336.7
L 922.25 336.6
Q 922.5 335.45 922.3 334 922.1 332.6 921.95 331.55 921.85 330.8 921.65 329.95
L 921.4 328.9
Q 920 323.5 917.4 318.3 914.8 313.05 911.35 308.35 907.9 303.6 903.95 299.65 903.15 298.85 902.05 298 900.95 297.1 899.85 296.65 899.75 296.55 899.6 296.5 899.45 296.45 899.3 296.45 899.05 296.3 898.75 296.25 898.4 296.2 898.2 296.35 897.5 296.4 896.95 296.55 896.35 296.65 896.1 296.7
M 903.35 340
L 902.8 339.85
Q 902.9 339.7 903 339.6 903.1 339.45 903.25 339.35
L 903.35 340
M 774.8 344.95
Q 774.25 345.8 774.4 346.4 774.2 346.9 774.1 347.3
L 773.95 347.85
Q 773.45 350.75 774 355.1 774.55 359.45 775.75 364.25 776.9 369.05 778.25 373.35 779.65 377.7 780.75 380.5 784.9 391.05 791.4 401.6 797.85 412.2 806.5 421 815.1 429.8 825.7 435.15 825.7 435.8 826.15 436 826.55 436.2 827.3 435.9 829.9 437.1 832.65 438 835.35 438.9 838.2 439.5 838.9 439.65 839.6 439.75 840.3 439.8 841.05 439.9
L 841.95 440
Q 842.65 440.05 843.2 439.95 842.85 439.55 842.15 439.25 841.5 438.9 840.9 438.7
L 840.1 438.4
Q 837.4 437.2 834.9 435.95 832.4 434.7 830 433.4 832.45 430 834.5 426.45 836.5 422.9 838.45 419.35 840.45 415.75 842.75 412.35 843.3 411.6 844.3 410.7 845.25 409.8 846.45 408.85 847.7 410.65 848.95 412.35 850.2 414.05 851.5 415.6 852.3 416.55 853.45 417.7 854.6 418.85 855.65 419.55 856.75 422.15 857.9 424.25 859 426.4 860 427.4 860.1 427.55 860.3 427.85 860.55 428.1 860.9 428 861.35 427.8 861.35 427.35 861.4 426.95 861.25 426.45 861.05 426 861.05 425.6 860.9 424.85 860.75 424.05
L 860.5 422.95
Q 858.6 415.65 856.1 408.25 853.55 400.8 850.75 393.5 850.45 393.25 850.15 393 849.9 392.75 849.6 392.5 848.8 391.75 848 390.95 847.2 390.2 846.45 389.4 845.65 388.6 844.9 387.75 844.15 386.9 843.45 386.05 841.15 383.25 839 380.1 836.85 377 834.7 373.5 831.45 368.15 828.05 362.05 824.65 355.9 821.65 349.55 820.05 346.15 818.65 342.8 817.3 339.45 816.2 336.25 816.15 336.1 816.1 335.95
L 816.05 335.7 815.85 335.15 815.55 334
Q 815.2 332.5 814.85 330.35 814.5 328.15 814.6 325.95 814.65 325 814.85 324.15 815.05 323.25 815.4 322.5 815.7 321.85 816.15 321.35 816.6 320.85 817.2 320.5
L 817.3 320.45
Q 817.85 320.5 818.55 320.7 819.2 320.95 819.6 321.1 819.25 320.65 818.9 320.25 818.55 319.85 818.2 319.5 818.2 319.2 818.2 318.9 818.2 318.65 818.3 318.35 818.25 318.2 818.15 318.15 818 318.15 818 318.35 818 318.5 817.95 318.75 817.9 318.95 817.85 319.15 816.95 318.3 816.1 318 815.3 317.75 814.65 318.3
L 814.6 318.2 814.45 318.45
Q 814.35 318.65 814.25 318.85 814.1 319.05 814 319.35 813.45 319.55 813.05 319.7
L 812.7 319.85 812.5 319.9
Q 806.3 322.5 800.25 326.55 794.25 330.55 788.4 334.95 782.55 339.35 776.9 343.15 775.4 344.15 774.8 344.95
M 852.85 412.45
Q 851.9 411 850.95 409.6 850 408.2 849.1 406.8 849.45 406.55 849.75 406.25 850.1 406 850.4 405.75 850.9 407.15 851.4 408.6 851.95 410 852.45 411.4 852.55 411.65 852.65 411.9 852.7 412.15 852.85 412.45
M 880 314.9
Q 879.85 314.05 879.7 313.2 866.7 316.3 853.35 318.65 839.95 321.05 826.9 323.25 825.7 323.45 824.3 323.55 822.9 323.65 821.55 323.85
L 821.4 323.6
Q 820.9 323.6 820.4 323.55 819.95 323.5 819.5 323.55 819.25 323.55 819.05 323.6 818.8 323.6 818.6 323.7 818.65 323.95 818.55 324.25
L 818.5 324.65 818.45 324.75
Q 818.35 325.15 818.3 325.6 818.25 326.05 818.2 326.55 818.15 328.55 818.65 330.75 819.15 332.9 819.95 335 820.7 337.1 821.4 338.75 824.95 347.2 829.2 355.65 833.5 364.1 838.6 372.1 840.6 375.2 842.75 378.2 844.9 381.2 847.15 384.05 847.7 384.7 848.2 385.35 848.75 386 849.3 386.6 850 387.45 850.75 388.3 851.5 389.15 852.25 389.95 862.15 380.35 872.05 370.65 881.95 360.95 891.65 351.15 892.8 349.95 894.2 348.6 895.6 347.25 897.1 345.75 896.3 345 895.5 344.25 894.75 343.45 894 342.6 890.85 339.1 888.15 334.8 885.5 330.55 883.5 325.95 881.55 321.3 880.4 316.65 880.2 315.8 880 314.9 Z"/>
</g>

<g id="Symbol_54_0_Layer0_0_FILL">
<path fill="#0075c9" stroke="none" d="
M 1022.5 473.7
Q 1021 472.9 1019.75 473.55 1028.25 484.45 1037.7 498.6 1047.2 512.75 1055.95 529 1064.75 545.25 1071.05 562.5 1077.35 579.75 1079.45 596.9 1079.3 606.35 1078.1 615.7 1076.9 625.1 1074.8 634.25 1074.8 634.8 1074.8 635.35 1074.8 635.95 1074.85 636.5 1074.85 637.8 1074.85 639.75 1074.85 641.7 1075.55 643.1 1076.25 644.55 1078.3 644.2
L 1078.9 643.9
Q 1079.35 643.65 1079.7 643.4 1080.15 642.7 1080.6 641.8
L 1081.2 640.7
Q 1082.5 638.3 1083.3 634.2 1084.15 630.1 1084.65 625.85 1085.1 621.6 1085.35 618.75 1086.55 604.35 1085.5 590.35 1084.4 576.3 1080.4 562.75 1075.85 547.75 1068.35 533.35 1060.85 519 1051.25 505.85 1041.65 492.65 1030.8 481.35 1030.7 481.05 1030.45 480.8 1030.15 480.5 1029.85 480.4 1029.25 479.75 1028.65 479.15 1028.05 478.5 1027.4 477.9 1026.65 477.1 1025.3 475.8 1024 474.5 1022.5 473.7
M 843.3 784.85
Q 843.95 785.15 844.75 785.4
L 845.75 785.7
Q 848.65 786.65 851.8 787.45 854.95 788.25 858.3 788.95 885.5 796.35 912.3 795.2 939.1 794 966.35 783.25 986.2 775.45 1003.3 764.9 1020.45 754.4 1034.35 740.2 1048.25 726.05 1058.5 707.35 1058.7 707.05 1059.1 706.3 1059.55 705.55 1059.3 704.9 1058.55 704.5 1057.65 705.45 1056.75 706.4 1056.1 707.6
L 1055.25 709.05
Q 1050.4 715.75 1045.15 721.85 1039.95 727.95 1034.35 733.55 1036.75 730.8 1039 727.95 1041.25 725.1 1043.4 722.15
L 1045.3 719.6
Q 1046.75 717.7 1048 715.9
L 1048.95 714.4 1049.25 713.55
Q 1049.2 713.35 1049.1 713.05 1049 712.75 1048.65 712.7 1047.6 712.95 1046.65 713.9
L 1045.45 715.25
Q 1042.25 718.3 1039.05 721.3 1035.85 724.3 1032.6 727.25 1031.1 729.4 1029.65 731.4 1028.2 733.45 1026.75 735.35 1021.6 742.15 1015.7 748 1009.85 753.85 1003.3 758.75 993.9 765.75 983.35 771 972.85 776.25 961.45 779.8 953 782.45 944.2 784.25 935.45 786.05 926.4 787.05 920.45 787.7 914.4 788.05 908.35 788.4 902.25 788.4 887.1 788.45 872 786.75 856.95 785 842.45 781.75 842.25 781.75 842.05 781.75 841.85 781.75 841.7 781.8 841.45 781.75 841 781.7 840.6 781.7 840.45 782.05 840.1 782.85 840.6 783.4 841.05 783.95 841.9 784.3 842.7 784.65 843.3 784.85 Z"/>

<path fill="#FFFFFF" stroke="none" d="
M 797.7 326.25
L 781.65 318.65
Q 769.3 339.7 753.55 360.2 737.75 380.65 722.15 399.7 706.55 418.8 694.75 435.65 682.95 452.5 678.55 466.3 676.15 475.75 680.05 492.85 683.95 509.95 691 529.75 698 549.5 705 566.95 711.95 584.4 715.75 594.45 719.3 603.85 722.7 612.15 726.1 620.45 728.6 631.2 731.1 641.95 731.9 658.65 732.65 675.4 731 701.6 730.4 713.85 738.8 725.85 747.2 737.85 762.6 748.6 778.05 759.35 798.5 767.9 818.95 776.4 842.45 781.75 856.95 785 872 786.75 887.1 788.45 902.25 788.4 908.35 788.4 914.4 788.05 920.45 787.7 926.4 787.05 935.45 786.05 944.2 784.25 953 782.45 961.45 779.8 972.85 776.25 983.35 771 993.9 765.75 1003.3 758.75 1009.85 753.85 1015.7 748 1021.6 742.15 1026.75 735.35 1028.2 733.45 1029.65 731.4 1031.1 729.4 1032.6 727.25 1040.8 715.5 1048.95 700.8 1057.05 686.15 1063.85 669.3 1070.6 652.45 1074.8 634.25 1076.9 625.1 1078.1 615.7 1079.3 606.35 1079.45 596.9 1077.35 579.75 1071.05 562.5 1064.75 545.25 1055.95 529 1047.2 512.75 1037.7 498.6 1028.25 484.45 1019.75 473.55 1013.9 466 1009.3 460.45 1004.65 454.95 1001.8 451.8
L 998.45 448.25 966.85 428.2
Q 937.6 409.8 898 385.45 858.45 361.15 825.2 341.7
L 797.7 326.25 Z"/>
</g>

<g id="Symbol_46_0_Layer0_0_FILL">
<path fill="#0075c9" stroke="none" d="
M 1180.85 318
Q 1180.55 316.65 1180.3 315.3 1180 313.9 1179.7 312.45
L 1179.7 312.85 1179.65 313.25
Q 1179.15 341.65 1172.05 367 1164.95 392.4 1151.75 413.1 1138.6 433.8 1119.95 448.05 1108.65 456.75 1091.95 463.05 1075.25 469.35 1053.25 472.6 1054.15 473.05 1055.35 473.2
L 1057.05 473.35
Q 1060.65 473.6 1065 473.3 1069.35 472.95 1073.7 472.3 1078.05 471.65 1081.7 470.85
L 1082.25 470.65
Q 1082.7 470.45 1083.15 470.4 1084.1 470.2 1085.25 470.05
L 1086.65 469.85
Q 1094.65 468.05 1103.2 464.05 1111.7 460.05 1119.6 454.8 1127.55 449.55 1133.8 444 1151.35 428.55 1163.65 408 1175.9 387.45 1180.75 364.35 1185.6 341.25 1180.85 318 Z"/>

<path fill="#FFFFFF" stroke="none" d="
M 1122.8 255.7
Q 1110 273.4 1094.75 285.3 1079.5 297.2 1063.95 294.65 1055.65 292.65 1050.65 285.8 1045.7 279 1043.2 270.45 1040.75 261.95 1039.95 254.7 1039.2 247.5 1039.2 244.7 1039.1 241.9 1037.25 240.05 1035.45 238.2 1032.75 237.9 1030 237.6 1027.25 239.6 1022.9 242.9 1016.85 247 1010.75 251.05 1003.75 253.85 996.8 256.6 989.75 256.05 986.3 255.55 980.9 251.8 975.45 248.05 969 242.55 962.55 237.1 956.1 231.5 949.65 225.85 944.15 221.65 939.8 218.15 928.8 215.2 917.8 212.2 901.4 212.95 884.95 213.7 864.2 221.35 849.8 227.15 840.45 234.3 831.05 241.45 826.15 247.25
L 820.15 254.8
Q 806.25 274.4 801.9 297.05 797.55 319.65 798.75 340.1 799.9 360.5 802.65 373.55
L 805.7 387 808.35 392.55
Q 810.7 397.6 815 404.9 819.35 412.15 825.75 419.3 832.2 426.4 840.75 431.1 865.1 443.7 888.65 452.55 912.2 461.35 931.8 466.4 951.4 471.45 963.95 472.8 990.1 475.65 1012.4 475.5 1034.7 475.35 1053.25 472.6 1075.25 469.35 1091.95 463.05 1108.65 456.75 1119.95 448.05 1138.6 433.8 1151.75 413.1 1164.95 392.4 1172.05 367 1179.15 341.65 1179.65 313.25
L 1179.7 312.85 1179.7 312.45
Q 1180.05 278.8 1178 256.6 1175.9 234.4 1173.45 222.5
L 1170.05 207.8
Q 1168.55 202.4 1165.05 200.7 1161.55 199 1158.1 200.15 1154.65 201.3 1153.2 204.55
L 1143.75 223.05
Q 1135.55 238 1122.8 255.7 Z"/>
</g>

<g id="Symbol_47_0_Layer0_0_FILL">
<path fill="#0075c9" stroke="none" d="
M 937.85 340.15
Q 937.55 343.45 938.2 346.35 938.85 349.3 940.3 351.55 941.75 353.85 943.85 355.2 945.95 356.6 948.5 356.8 951.05 356.95 953.35 355.9 955.7 354.8 957.6 352.75 959.5 350.7 960.7 347.95 961.95 345.15 962.3 341.85 962.6 338.55 961.95 335.65 961.3 332.75 959.85 330.45 958.35 328.2 956.3 326.8 954.2 325.45 951.65 325.25 949.1 325.1 946.75 326.15 944.45 327.2 942.55 329.25 940.65 331.3 939.45 334.1 938.2 336.85 937.85 340.15 Z"/>
</g>

<g id="Symbol_34_0_Layer0_0_FILL">
<path fill="#FFFFFF" stroke="none" d="
M 986.25 295.45
Q 983.9 288.7 978.35 283.8 972.85 278.85 963.05 277.05 953.1 275.55 946.15 278.6 939.15 281.7 934.5 287.45 929.85 293.25 927 299.8 924.15 306.3 922.45 311.7 931.35 312.7 942.55 314.6 953.75 316.45 965.55 318.7 977.3 320.9 987.9 323.05 988.85 316.6 988.7 309.4 988.55 302.15 986.25 295.45 Z"/>
</g>

<g id="Symbol_12_0_Layer0_0_FILL">
<path fill="#82bc00" stroke="none" d="
M 947.85 633.85
L 891.05 633.65 919 845 947.85 633.85 Z"/>
</g>

<g id="Symbol_55_0_Layer0_0_FILL">
<path fill="#82bc00" stroke="none" d="
M 975.75 340.3
Q 974.3 339.05 973.3 339.6 972.3 340.1 971.25 342.55 970.3 344.55 969.65 346.85 969.05 349.2 968.65 351.8 967.85 357 967.9 362.85 967.95 368.7 968.6 374.65 969.1 379.1 969.8 383.35 970.5 387.65 971.35 391.45 971.75 393.2 972.15 394.85 972.55 396.45 972.95 397.95 974.15 402.3 975 407 975.85 411.7 976.65 416.55 977.7 423.25 979.25 429.8 980.75 436.3 983.4 442 995.05 466.05 1012.3 487.5 1029.55 508.9 1049.75 525.95 1052.5 528.45 1057.85 532.45 1063.15 536.45 1069.2 539.45 1075.25 542.4 1080.2 541.7 1080.5 541.65 1080.85 541.55 1081.15 541.45 1081.5 541.35 1081.65 541.45 1081.85 541.55 1082.05 541.65 1082.25 541.7 1084.1 542.6 1086 542.9 1087.85 543.25 1089.6 542.9 1089.6 544.05 1089.65 545.25
L 1089.7 547.6
Q 1089.8 559.7 1090.5 571.65 1091.15 583.6 1093.6 595.05 1094.05 597 1094.55 599.1 1095.05 601.2 1095.6 603.4 1099.15 618.6 1106.25 633.8 1113.35 649 1125.85 657.55 1128.85 661.3 1132.25 664 1135.6 666.65 1139.3 667.6 1139.45 667.6 1139.6 667.65 1139.75 667.7 1139.9 667.7 1140.8 667.9 1141.75 667.95 1142.7 667.95 1143.7 667.85
L 1144 667.8
Q 1144.55 667.7 1145.1 667.6 1145.65 667.45 1146.2 667.25 1146.4 667.2 1146.6 667.1 1146.8 667.05 1146.95 666.95
L 1146.8 668.2
Q 1146.7 668.8 1146.65 669.4
L 1146.45 670.65
Q 1146.4 671.1 1146.35 671.55 1146.2 672.3 1146.1 673.1 1146 673.9 1145.9 674.7 1145.15 680.7 1144.65 686.8 1144.15 692.95 1143.9 699.1 1143.35 712.15 1144.2 725.1 1145.05 738.05 1147.65 750.35 1148.8 755.6 1152.6 757.95 1156.35 760.3 1160.75 756 1168.25 747.25 1173.65 733.25 1179.05 719.3 1182.1 708.3 1184.6 699.7 1186.75 690.3 1188.9 680.9 1190.35 671.15 1191.6 662.5 1192 653.9 1192.45 645.3 1191.8 637 1191.7 635.8 1191.55 634.55 1191.45 633.35 1191.25 632.1 1191.1 630.8 1190.9 629.5 1190.75 628.15 1190.55 626.85 1190.9 620.15 1191.2 613.1 1191.5 606.1 1191.6 598.95 1191.6 596 1191.6 593.1 1191.55 590.2 1191.5 587.35 1191.45 586.25 1191.4 585.2 1191.35 584.15 1191.3 583.1
L 1191.25 582.7
Q 1191.25 582.5 1191.25 582.25 1191.15 580.85 1191.05 579.45 1190.95 578 1190.8 576.6 1190.45 572.8 1189.9 569.1 1189.35 565.45 1188.55 561.9
L 1188.1 560.25
Q 1187.7 558.95 1187.25 557.9 1186.85 557.25 1186.4 557.05 1185.95 556.9 1185.35 557.5
L 1184.85 559.3 1184.55 562.9
Q 1184.3 567.35 1184.25 572.05
L 1184.15 578.45
Q 1184.1 580.15 1184.05 581.85 1184.05 583.5 1183.95 585.2 1183.65 585.8 1183.5 586.45 1183.3 587.05 1183.2 587.35 1181.05 595.35 1181 604.8 1180.9 614.2 1181.6 622.9 1180.85 630.6 1179.9 638.3 1178.95 646 1177.8 653.8 1177.65 655 1177.25 657.05 1176.9 659.1 1176.5 661.7 1176.35 660.25 1176.2 658.8 1176.05 657.3 1175.85 655.85 1175 651.1 1173.3 646 1171.6 640.9 1171.05 636.65
L 1170.95 632.1
Q 1170.7 628.75 1167.75 627.65 1167.4 627.4 1166.85 627.35 1166.35 627.25 1165.7 627.3 1167.35 611.75 1166.7 595.1 1166.05 578.5 1160.05 568.1
L 1159 566.5
Q 1158.15 565.35 1157.35 564.45 1156.75 564.15 1156.3 563.7 1155.9 563.2 1155.15 563.25 1154.65 563.45 1154.35 563.95
L 1153.95 564.65
Q 1153.4 565.7 1153.05 567.85 1152.75 570.05 1152.6 572.85 1147.4 558.35 1142.8 543.5 1138.25 528.7 1132.85 514.3 1130.05 506.6 1126.8 497.3 1123.6 487.95 1119.3 481.4
L 1118 479.8
Q 1116.95 478.7 1115.8 477.95 1115.4 477.75 1115 477.5
L 1114.5 477.2
Q 1109.9 475.4 1105.45 477.3 1101 479.2 1099.4 483.8 1098.6 470.65 1096.45 457.55 1094.35 444.45 1089.65 434.15
L 1088.8 432.65
Q 1088.15 431.4 1087.6 430.35 1086.6 429.4 1085.7 429.1
L 1083.95 431.6
Q 1082.55 436.8 1082.6 444.05 1082.7 451.3 1083.05 456.85 1083.4 463.25 1083.9 469.65 1084.4 476.1 1084.95 482.55 1081.35 474.25 1077.15 466.15 1072.9 458.1 1068.15 450.45 1064.75 444.15 1060.65 437.8 1056.55 431.5 1049 430.95 1048.2 431.05 1046.65 431.45
L 1044.85 431.95
Q 1043.9 431.5 1042.95 429.85 1042 428.2 1041.35 427.25 1037.65 421.8 1031.5 414.4 1025.3 407 1019 405.9 1016.7 405.95 1015.4 406.55 1014.05 407.15 1012.75 405.65 1009.85 401.55 1007.1 395.3 1004.35 389.05 1000.25 385.25 996.15 381.5 989.1 384.85
L 988 385.6
Q 987.2 386.2 986.3 386.9 985.4 375.65 983.75 364.6 982.05 353.55 977.8 344.15
L 977 342.6
Q 976.4 341.35 975.75 340.3
M 1139.95 639.15
L 1140.75 639.25
Q 1140.75 639.6 1140.7 640 1140.7 640.4 1140.3 640.3 1140.1 640.2 1139.7 639.8 1139.3 639.45 1139.3 639.15
L 1139.95 639.15
M 1170.05 656.95
Q 1170.3 658.15 1170.3 659.55
L 1170.25 661.3
Q 1170.3 665.4 1170.2 669.55 1170.1 673.7 1169.4 677.75
L 1169.4 678.45
Q 1169.4 679.05 1169.15 679.4 1168.95 678.55 1169.05 677.15 1169.15 675.8 1169.2 675.25 1169.4 671.15 1169.55 667.05 1169.75 662.95 1169.9 658.85 1169.85 658.6 1169.85 657.95 1169.85 657.35 1170.05 656.95 Z"/>

<path fill="#82bc00" stroke="none" d="
M 1170.3 659.55
Q 1170.3 658.15 1170.05 656.95 1169.85 657.35 1169.85 657.95 1169.85 658.6 1169.9 658.85 1169.75 662.95 1169.55 667.05 1169.4 671.15 1169.2 675.25 1169.15 675.8 1169.05 677.15 1168.95 678.55 1169.15 679.4 1169.4 679.05 1169.4 678.45
L 1169.4 677.75
Q 1170.1 673.7 1170.2 669.55 1170.3 665.4 1170.25 661.3
L 1170.3 659.55
M 1191.2 177.25
Q 1177.8 115.15 1150.8 61.95 1145 52.25 1125.65 53.6 1106.3 54.9 1081.15 64.05 1056.05 73.2 1032.85 86.9 1025.55 91.25 1018.95 95.9 1012.35 100.5 1006.8 105.3 986.5 123.55 972.9 145.85 959.25 168.2 952.4 184.75
L 945.55 202.1 946.45 229.4
Q 947.6 255.65 952.5 295 957.45 334.4 968.6 374.65 967.95 368.7 967.9 362.85 967.85 357 968.65 351.8 969.05 349.2 969.65 346.85 970.3 344.55 971.25 342.55 972.3 340.1 973.3 339.6 974.3 339.05 975.75 340.3 976.4 341.35 977 342.6
L 977.8 344.15
Q 982.05 353.55 983.75 364.6 985.4 375.65 986.3 386.9 987.2 386.2 988 385.6
L 989.1 384.85
Q 996.15 381.5 1000.25 385.25 1004.35 389.05 1007.1 395.3 1009.85 401.55 1012.75 405.65 1014.05 407.15 1015.4 406.55 1016.7 405.95 1019 405.9 1025.3 407 1031.5 414.4 1037.65 421.8 1041.35 427.25 1042 428.2 1042.95 429.85 1043.9 431.5 1044.85 431.95
L 1046.65 431.45
Q 1048.2 431.05 1049 430.95 1056.55 431.5 1060.65 437.8 1064.75 444.15 1068.15 450.45 1072.9 458.1 1077.15 466.15 1081.35 474.25 1084.95 482.55 1084.4 476.1 1083.9 469.65 1083.4 463.25 1083.05 456.85 1082.7 451.3 1082.6 444.05 1082.55 436.8 1083.95 431.6
L 1085.7 429.1
Q 1086.6 429.4 1087.6 430.35 1088.15 431.4 1088.8 432.65
L 1089.65 434.15
Q 1094.35 444.45 1096.45 457.55 1098.6 470.65 1099.4 483.8 1101 479.2 1105.45 477.3 1109.9 475.4 1114.5 477.2
L 1115 477.5
Q 1115.4 477.75 1115.8 477.95 1116.95 478.7 1118 479.8
L 1119.3 481.4
Q 1123.6 487.95 1126.8 497.3 1130.05 506.6 1132.85 514.3 1138.25 528.7 1142.8 543.5 1147.4 558.35 1152.6 572.85 1152.75 570.05 1153.05 567.85 1153.4 565.7 1153.95 564.65
L 1154.35 563.95
Q 1154.65 563.45 1155.15 563.25 1155.9 563.2 1156.3 563.7 1156.75 564.15 1157.35 564.45 1158.15 565.35 1159 566.5
L 1160.05 568.1
Q 1166.05 578.5 1166.7 595.1 1167.35 611.75 1165.7 627.3 1166.35 627.25 1166.85 627.35 1167.4 627.4 1167.75 627.65 1170.7 628.75 1170.95 632.1
L 1171.05 636.65
Q 1171.6 640.9 1173.3 646 1175 651.1 1175.85 655.85 1176.05 657.3 1176.2 658.8 1176.35 660.25 1176.5 661.7 1176.9 659.1 1177.25 657.05 1177.65 655 1177.8 653.8 1178.95 646 1179.9 638.3 1180.85 630.6 1181.6 622.9 1180.9 614.2 1181 604.8 1181.05 595.35 1183.2 587.35 1183.3 587.05 1183.5 586.45 1183.65 585.8 1183.95 585.2 1184.05 583.5 1184.05 581.85 1184.1 580.15 1184.15 578.45
L 1184.25 572.05
Q 1184.3 567.35 1184.55 562.9
L 1184.85 559.3 1185.35 557.5
Q 1185.95 556.9 1186.4 557.05 1186.85 557.25 1187.25 557.9 1187.7 558.95 1188.1 560.25
L 1188.55 561.9
Q 1189.35 565.45 1189.9 569.1 1190.45 572.8 1190.8 576.6 1190.95 578 1191.05 579.45 1191.15 580.85 1191.25 582.25 1191.25 582.5 1191.25 582.7
L 1191.3 583.1
Q 1191.35 584.15 1191.4 585.2 1191.45 586.25 1191.5 587.35 1191.55 590.2 1191.6 593.1 1191.6 596 1191.6 598.95 1192.1 595.5 1192.55 592 1193.05 588.45 1193.55 584.9 1195.55 569.9 1197.55 553.65 1199.5 537.4 1201.3 520.05 1202.6 507.3 1203.75 494 1204.95 480.7 1205.9 467 1208.75 428.35 1209.5 387.3 1210.25 346.3 1208 304.5 1204.65 239.35 1191.2 177.25 Z"/>

<path fill="#0075c9" stroke="none" d="
M 1008.45 90.15
Q 1002.5 94.4 999.35 97.5 989.45 107.15 980.3 117.4 971.1 127.7 962.6 138.55 939.8 168.25 935.15 199.7 930.5 231.2 937.05 266.85 939.85 283.9 942.4 301.2 944.95 318.45 947.8 335.85 950.05 349.9 952.75 364.75 955.5 379.65 959.7 393.85 959.75 400.9 961.05 407.65 962.4 414.4 964.9 422.3 973 448.25 987.75 471.2 1002.5 494.15 1020.9 513.65 1031.45 525.1 1047.6 535.55 1063.75 546.05 1080.25 548.1 1080.35 550.15 1080.45 551.9 1080.55 553.65 1080.65 555 1081.7 580.65 1085.95 605.8 1090.2 631 1106 652.15 1111.15 658.65 1120.15 665.65 1129.15 672.7 1137.4 675.35 1134.3 692.75 1136.15 712 1138 731.25 1142.7 747.35 1144 753.05 1145.55 757.8 1147.1 762.6 1151.55 763.15 1154.6 766.1 1157.9 766.6 1161.2 767.1 1163.95 763.15 1165.7 760.4 1167.3 757.2 1168.85 754 1170.25 750.55 1178.15 739.05 1183.1 724.3 1188 709.6 1190.1 699.05 1191.8 690.9 1193.4 682.05 1195 673.15 1196.3 663.85 1198.15 657.65 1199.3 650.8 1200.45 643.95 1201.1 638.3 1202.55 626.25 1203.8 614.1 1205.05 601.9 1206.05 589.8 1207.95 566.95 1210.1 543.9 1212.2 520.9 1213.55 497.95 1215 473.8 1217.05 449.3 1219.05 424.8 1219.25 400.7 1219.65 377.8 1218.9 352.85 1218.15 327.9 1211.2 305.9
L 1210.5 304.35
Q 1209.95 303.1 1209.7 301.95 1209.2 301.95 1208.8 302.7 1208.35 303.4 1208 304.5 1210.25 346.3 1209.5 387.3 1208.75 428.35 1205.9 467 1204.95 480.7 1203.75 494 1202.6 507.3 1201.3 520.05 1199.5 537.4 1197.55 553.65 1195.55 569.9 1193.55 584.9 1193.05 588.45 1192.55 592 1192.1 595.5 1191.6 598.95 1191.5 606.1 1191.2 613.1 1190.9 620.15 1190.55 626.85 1190.75 628.15 1190.9 629.5 1191.1 630.8 1191.25 632.1 1191.45 633.35 1191.55 634.55 1191.7 635.8 1191.8 637 1192.45 645.3 1192 653.9 1191.6 662.5 1190.35 671.15 1188.9 680.9 1186.75 690.3 1184.6 699.7 1182.1 708.3 1179.05 719.3 1173.65 733.25 1168.25 747.25 1160.75 756 1156.35 760.3 1152.6 757.95 1148.8 755.6 1147.65 750.35 1145.05 738.05 1144.2 725.1 1143.35 712.15 1143.9 699.1 1144.15 692.95 1144.65 686.8 1145.15 680.7 1145.9 674.7 1146 673.9 1146.1 673.1 1146.2 672.3 1146.35 671.55 1146.4 671.1 1146.45 670.65
L 1146.65 669.4
Q 1146.7 668.8 1146.8 668.2
L 1146.95 666.95
Q 1146.8 667.05 1146.6 667.1 1146.4 667.2 1146.2 667.25 1145.65 667.45 1145.1 667.6 1144.55 667.7 1144 667.8
L 1143.7 667.85
Q 1142.7 667.95 1141.75 667.95 1140.8 667.9 1139.9 667.7 1139.75 667.7 1139.6 667.65 1139.45 667.6 1139.3 667.6 1135.6 666.65 1132.25 664 1128.85 661.3 1125.85 657.55 1113.35 649 1106.25 633.8 1099.15 618.6 1095.6 603.4 1095.05 601.2 1094.55 599.1 1094.05 597 1093.6 595.05 1091.15 583.6 1090.5 571.65 1089.8 559.7 1089.7 547.6
L 1089.65 545.25
Q 1089.6 544.05 1089.6 542.9 1087.85 543.25 1086 542.9 1084.1 542.6 1082.25 541.7 1082.05 541.65 1081.85 541.55 1081.65 541.45 1081.5 541.35 1081.15 541.45 1080.85 541.55 1080.5 541.65 1080.2 541.7 1075.25 542.4 1069.2 539.45 1063.15 536.45 1057.85 532.45 1052.5 528.45 1049.75 525.95 1029.55 508.9 1012.3 487.5 995.05 466.05 983.4 442 980.75 436.3 979.25 429.8 977.7 423.25 976.65 416.55 975.85 411.7 975 407 974.15 402.3 972.95 397.95 972.55 396.45 972.15 394.85 971.75 393.2 971.35 391.45 970.5 387.65 969.8 383.35 969.1 379.1 968.6 374.65 957.45 334.4 952.5 295 947.6 255.65 946.45 229.4
L 945.55 202.1 952.4 184.75
Q 959.25 168.2 972.9 145.85 986.5 123.55 1006.8 105.3 1012.35 100.5 1018.95 95.9 1025.55 91.25 1032.85 86.9 1033.4 86.05 1033.4 85.15 1033.4 84.25 1032.8 83.25 1032.45 83.1 1032.15 82.8
L 1031.8 82.45
Q 1027.3 80.6 1020.9 83.2 1014.45 85.85 1008.45 90.15 Z"/>
</g>

<g id="Symbol_14_0_Layer0_0_FILL">
<path fill="#82bc00" stroke="none" d="
M 758.9 590
Q 753.15 581.15 747.85 586.05 742.15 591.9 723.55 593.9 704.95 595.95 679.3 592 653.7 588.05 627.05 576.05 599.9 563.15 577.6 549.9 555.25 536.7 541.8 527.6
L 527.85 518.1
Q 526.3 535.9 536.7 561.25 547.1 586.6 562.8 608.25 578.5 629.85 592.8 636.6 604.25 640.8 633.65 641.05 663.1 641.25 696.75 639.45 730.4 637.65 754.65 635.7
L 780.05 633.55
Q 775.6 625.3 770.1 612.05 764.6 598.85 758.9 590 Z"/>
</g>

<g id="Symbol_56_0_Layer0_0_FILL">
<path fill="#82bc00" stroke="none" d="
M 1132.6 334.4
Q 1116.5 319.05 1093.55 303.2 1070.65 287.35 1049.4 284.65 1027.15 283.5 987.55 306.55 948 329.6 911.6 371.55 875.2 413.55 862.55 469.2 850.45 525.05 828.8 572.75 807.1 620.45 788.55 652.95
L 774 679.9 767.45 695.7 781.05 700 819.05 698.1
Q 869.25 693.05 937.65 673.7 1006.05 654.35 1062.25 618.65 1118.4 583 1131.75 529.1 1145.75 457.75 1149.35 419.15 1152.95 380.5 1151.65 365.75
L 1150.45 354.7 1149.5 351.1 1132.6 334.4 Z"/>
</g>

<g id="Symbol_57_0_Layer0_0_FILL">
<path fill="#82bc00" stroke="none" d="
M 1052.35 283.25
Q 1032.85 270.25 1016.1 269.15 999.3 268.05 985.7 273.6 972.1 279.2 962.3 286.15 952.6 293 947.9 304.9 943.2 316.8 942 329.7 940.75 342.65 941.6 352.6 942.35 362.75 948.5 376.1 954.6 389.45 965.95 400.1 977.25 410.75 993.55 412.7 1005.85 414.4 1018.1 423.45 1030.35 432.45 1040.85 441.55 1051.35 450.7 1058.5 452.6 1065.6 454.55 1067.8 442.05 1069.9 428.35 1071.1 404.9 1072.3 381.5 1071.35 356 1070.35 330.45 1065.9 310.4 1061.5 290.3 1052.35 283.25 Z"/>
</g>

<g id="Symbol_25_0_Layer0_0_FILL">
<path fill="#82bc00" stroke="none" d="
M 1106.5 326.35
Q 1113.75 318.9 1118.6 311
L 1115.05 308.9 1104.95 304.7
Q 1091.55 299.45 1068.2 297.6
L 1071.15 308.1
Q 1074.2 317.9 1077.85 329.4 1081.5 340.9 1083.4 346.7 1086.05 344.75 1092.65 339.3 1099.2 333.8 1106.5 326.35 Z"/>
</g>

<g id="Symbol_26_0_Layer0_0_FILL">
<path fill="#0075c9" stroke="none" d="
M 1035.4 302.25
L 1033.5 301.25 1031.5 300.65 1029.35 300.45 1027.25 300.65 1025.25 301.25 1023.35 302.25 1021.75 303.6 1020.4 305.25 1019.4 307.1 1018.75 309.15 1018.55 311.25 1018.75 313.35 1019.4 315.4 1020.4 317.25 1021.75 318.9 1023.35 320.25 1025.25 321.25 1027.25 321.85 1029.35 322.05 1031.5 321.85 1033.5 321.25 1035.4 320.25 1037 318.9 1038.35 317.25 1039.35 315.4 1040 313.35 1040.2 311.25 1040 309.15 1039.35 307.1 1038.35 305.25 1037 303.6 1035.4 302.25 Z"/>
</g>

<g id="Symbol_27_0_Layer0_0_FILL">
<path fill="#82bc00" stroke="none" d="
M 1040.4 290.7
Q 1036.7 285.45 1029.15 285.1 1020.3 285.55 1015.95 292.1 1011.65 298.6 1010.8 306.75
L 1046.25 307 1045.2 301.3
Q 1044.1 296 1040.4 290.7 Z"/>
</g>
</defs>



<g transform="matrix( 0.653411865234375, 0.1332550048828125, -0.1332550048828125, 0.653411865234375, 448.9,186.3) ">
<g transform="matrix( 1, 0, 0, 1, 0,0) ">
<use xlink:href="#Symbol_39_0_Layer0_0_FILL"/>
</g>
</g>

<g transform="matrix( 0.5789947509765625, 0.4021148681640625, -0.4021148681640625, 0.5789947509765625, 697.3,-102.95) ">
<g transform="matrix( 1, 0, 0, 1, 0,0) ">
<use xlink:href="#Symbol_40_0_Layer0_0_FILL"/>
</g>
</g>

<g transform="matrix( 0.5789947509765625, 0.4021148681640625, -0.4021148681640625, 0.5789947509765625, 697.3,-102.95) ">
<g transform="matrix( 1, 0, 0, 1, 0,0) ">
<use xlink:href="#Symbol_41_0_Layer0_0_FILL"/>
</g>
</g>

<g transform="matrix( 0.63763427734375, 0.3006134033203125, -0.3006134033203125, 0.63763427734375, 573.05,-24.7) ">
<g transform="matrix( 1, 0, 0, 1, 0,0) ">
<use xlink:href="#Symbol_42_0_Layer0_0_FILL"/>
</g>
</g>

<g transform="matrix( 0.5789947509765625, 0.4021148681640625, -0.4021148681640625, 0.5789947509765625, 693.8,-100.2) ">
<g transform="matrix( 1, 0, 0, 1, 0,0) ">
<use xlink:href="#Symbol_43_0_Layer0_0_FILL"/>
</g>
</g>

<g transform="matrix( 0.5789947509765625, 0.4021148681640625, -0.4021148681640625, 0.5789947509765625, 693.8,-100.2) ">
<g transform="matrix( 1, 0, 0, 1, 0,0) ">
<use xlink:href="#Symbol_44_0_Layer0_0_FILL"/>
</g>
</g>

<g transform="matrix( 1.9001922607421875, 0, 0, 1.9001922607421875, -843.9,-756.4) ">
<g transform="matrix( 1, 0, 0, 1, 0,0) ">
<use xlink:href="#Symbol_10_0_Layer0_0_FILL"/>
</g>
</g>

<g transform="matrix( 0.5271759033203125, -0.0713958740234375, 0.0815582275390625, 0.6021881103515625, 419.25,347.75) ">
<g transform="matrix( 1, 0, 0, 1, 0,0) ">
<use xlink:href="#Symbol_29_0_Layer0_0_FILL"/>
</g>
</g>

<g transform="matrix( 0.724853515625, -0.1761322021484375, 0.2224273681640625, 0.7724456787109375, 206.6,420.9) ">
<g transform="matrix( 1, 0, 0, 1, 0,0) ">
<use xlink:href="#Symbol_30_0_Layer0_0_FILL"/>
</g>
</g>

<g transform="matrix( 0.637969970703125, 0.1951141357421875, -0.1951141357421875, 0.637969970703125, 379.1,104.25) ">
<g transform="matrix( 1, 0, 0, 1, 0,0) ">
<use xlink:href="#Symbol_45_0_Layer0_0_FILL"/>
</g>
</g>

<g transform="matrix( 0.667144775390625, 0, -0.1879425048828125, 0.699127197265625, 556.5,237.95) ">
<g transform="matrix( 1, 0, 0, 1, 0,0) ">
<use xlink:href="#Symbol_48_0_Layer0_0_FILL"/>
</g>
</g>

<g transform="matrix( 0.667144775390625, 0, -0.1879425048828125, 0.699127197265625, 502.05,252.65) ">
<g transform="matrix( 1, 0, 0, 1, 0,0) ">
<use xlink:href="#Symbol_32_0_Layer0_0_FILL"/>
</g>
</g>

<g transform="matrix( 0.667144775390625, 0, 0, 0.699127197265625, 220.25,256.2) ">
<g transform="matrix( 1, 0, 0, 1, 0,0) ">
<use xlink:href="#Symbol_49_0_Layer0_0_FILL"/>
</g>
</g>

<g transform="matrix( 0.6493072509765625, 0.1605377197265625, -0.1531982421875, 0.680450439453125, 420.7,122.4) ">
<g transform="matrix( 1, 0, 0, 1, 0,0) ">
<use xlink:href="#Symbol_33_0_Layer0_0_FILL"/>
</g>
</g>

<g transform="matrix( 0.5891571044921875, -0.3132171630859375, 0.3132171630859375, 0.5891571044921875, 174.4,556.3) ">
<g transform="matrix( 1, 0, 0, 1, 0,0) ">
<use xlink:href="#Symbol_28_0_Layer0_0_FILL"/>
</g>
</g>

<g transform="matrix( -0.1027984619140625, -0.0897674560546875, -0.0897674560546875, 0.1027984619140625, 1096.75,409.15) ">
<g transform="matrix( 1, 0, 0, 1, 0,0) ">
<use xlink:href="#Symbol_16_0_Layer0_0_FILL"/>
</g>
</g>

<g transform="matrix( -0.047698974609375, -0.1087646484375, -0.1087646484375, 0.047698974609375, 1011.15,463.5) ">
<g transform="matrix( 1, 0, 0, 1, 0,0) ">
<use xlink:href="#Symbol_50_0_Layer0_0_FILL"/>
</g>
</g>

<g transform="matrix( -0.081207275390625, -0.1249237060546875, -0.1249237060546875, 0.081207275390625, 1089.35,438.05) ">
<g transform="matrix( 1, 0, 0, 1, 0,0) ">
<use xlink:href="#Symbol_51_0_Layer0_0_FILL"/>
</g>
</g>

<g transform="matrix( -0.1432952880859375, -0.0620269775390625, -0.0620269775390625, 0.1432952880859375, 1132.3,355.45) ">
<g transform="matrix( 1, 0, 0, 1, 0,0) ">
<use xlink:href="#Symbol_19_0_Layer0_0_FILL"/>
</g>
</g>

<g transform="matrix( -0.07977294921875, -0.0879974365234375, -0.0879974365234375, 0.07977294921875, 1060.85,412.65) ">
<g transform="matrix( 1, 0, 0, 1, 0,0) ">
<use xlink:href="#Symbol_20_0_Layer0_0_FILL"/>
</g>
</g>

<g transform="matrix( -0.081756591796875, -0.086151123046875, -0.086151123046875, 0.081756591796875, 1071.8,410.85) ">
<g transform="matrix( 1, 0, 0, 1, 0,0) ">
<use xlink:href="#Symbol_52_0_Layer0_0_FILL"/>
</g>
</g>

<g transform="matrix( -0.064727783203125, -0.099578857421875, -0.099578857421875, 0.064727783203125, 1063.4,419.05) ">
<g transform="matrix( 1, 0, 0, 1, 0,0) ">
<use xlink:href="#Symbol_22_0_Layer0_0_FILL"/>
</g>
</g>

<g transform="matrix( -0.035736083984375, -0.1132659912109375, -0.1132659912109375, 0.035736083984375, 1039.1,443.35) ">
<g transform="matrix( 1, 0, 0, 1, 0,0) ">
<use xlink:href="#Symbol_23_0_Layer0_0_FILL"/>
</g>
</g>

<g transform="matrix( 1.0245819091796875, -0.0755767822265625, 0.0755767822265625, 1.0245819091796875, -46,120.8) ">
<g transform="matrix( 1, 0, 0, 1, 0,0) ">
<use xlink:href="#Symbol_53_0_Layer0_0_FILL"/>
</g>
</g>

<g transform="matrix( 0.6480560302734375, -0.0736236572265625, 0.0732421875, 0.6829071044921875, 310.9,328.5) ">
<g transform="matrix( 1, 0, 0, 1, 0,0) ">
<use xlink:href="#Symbol_54_0_Layer0_0_FILL"/>
</g>
</g>

<g transform="matrix( 0.626739501953125, 0.2299041748046875, -0.2299041748046875, 0.626739501953125, 421.85,76.65) ">
<g transform="matrix( 1, 0, 0, 1, 0,0) ">
<use xlink:href="#Symbol_46_0_Layer0_0_FILL"/>
</g>
</g>

<g transform="matrix( 0.626739501953125, 0.2299041748046875, -0.1994476318359375, 0.5437164306640625, 438.3,102.4) ">
<g transform="matrix( 1, 0, 0, 1, 0,0) ">
<use xlink:href="#Symbol_47_0_Layer0_0_FILL"/>
</g>
</g>

<g transform="matrix( 0.6674652099609375, -0.0120849609375, 0.0120849609375, 0.6674652099609375, 324.8,291.85) ">
<g transform="matrix( 1, 0, 0, 1, 0,0) ">
<use xlink:href="#Symbol_34_0_Layer0_0_FILL"/>
</g>
</g>

<g transform="matrix( -0.102813720703125, -0.08978271484375, -0.08978271484375, 0.102813720703125, 1096.8,409.1) ">
<g transform="matrix( 1, 0, 0, 1, 0,0) ">
<use xlink:href="#Symbol_12_0_Layer0_0_FILL"/>
</g>
</g>

<g transform="matrix( -0.0477142333984375, -0.108795166015625, -0.108795166015625, 0.0477142333984375, 1011.15,463.45) ">
<g transform="matrix( 1, 0, 0, 1, 0,0) ">
<use xlink:href="#Symbol_55_0_Layer0_0_FILL"/>
</g>
</g>

<g transform="matrix( -0.0797882080078125, -0.0880126953125, -0.0880126953125, 0.0797882080078125, 1060.9,412.6) ">
<g transform="matrix( 1, 0, 0, 1, 0,0) ">
<use xlink:href="#Symbol_14_0_Layer0_0_FILL"/>
</g>
</g>

<g transform="matrix( -0.081787109375, -0.0861663818359375, -0.0861663818359375, 0.081787109375, 1071.85,410.8) ">
<g transform="matrix( 1, 0, 0, 1, 0,0) ">
<use xlink:href="#Symbol_56_0_Layer0_0_FILL"/>
</g>
</g>

<g transform="matrix( -0.08123779296875, -0.1249542236328125, -0.1249542236328125, 0.08123779296875, 1089.35,438.05) ">
<g transform="matrix( 1, 0, 0, 1, 0,0) ">
<use xlink:href="#Symbol_57_0_Layer0_0_FILL"/>
</g>
</g>

<g transform="matrix( -0.1433258056640625, -0.062042236328125, -0.062042236328125, 0.1433258056640625, 1132.35,355.4) ">
<g transform="matrix( 1, 0, 0, 1, 0,0) ">
<use xlink:href="#Symbol_25_0_Layer0_0_FILL"/>
</g>
</g>

<g transform="matrix( -0.0647430419921875, -0.099609375, -0.099609375, 0.0647430419921875, 1063.4,419) ">
<g transform="matrix( 1, 0, 0, 1, 0,0) ">
<use xlink:href="#Symbol_26_0_Layer0_0_FILL"/>
</g>
</g>

<g transform="matrix( -0.0357513427734375, -0.1132965087890625, -0.1132965087890625, 0.0357513427734375, 1039.1,443.3) ">
<g transform="matrix( 1, 0, 0, 1, 0,0) ">
<use xlink:href="#Symbol_27_0_Layer0_0_FILL"/>
</g>
</g>
</svg>
