
<svg xmlns="http://www.w3.org/2000/svg" version="1.1" xmlns:xlink="http://www.w3.org/1999/xlink" preserveAspectRatio="none" x="0px" y="0px" width="760px" height="880px" viewBox="614 10 760 880">
<defs>


<g id="Symbol_30_0_Layer0_0_FILL">
<path fill="#FFFFFF" stroke="none" d="
M 982.7 196.45
Q 985.4 193.2 987.1 190.55
L 988.4 188.3 988.85 186.9
Q 984.8 184.8 978.9 183.9 972.95 183.05 966.7 183.05 960.45 183.1 955.45 183.75 950.4 184.4 948.15 185.35 946.3 186.4 942.55 190.3 938.8 194.2 934.75 198.95 930.65 203.7 927.75 207.15
L 924.7 210.8 926.7 212.15
Q 928.55 213.35 930.55 214.55
L 932.15 215.45 933 215.75
Q 944.4 213.9 951.85 212.6 959.25 211.3 963.9 210 968.55 208.75 971.65 207 974.15 205.55 977.05 202.65 980 199.75 982.7 196.45 Z"/>
</g>

<g id="Symbol_28_0_Layer0_0_FILL">
<path fill="#FFFFFF" stroke="none" d="
M 656.95 766.95
L 648.9 766.15
Q 647.3 766.15 646.3 767.25 645.25 768.35 645.2 769.8 645.15 771.3 646.5 772.5
L 649.1 773.9 654.55 776.1
Q 661.45 778.7 672.95 780.7 684.4 782.7 699.15 781.9 713.85 781.15 730.65 775.45 742.3 771.1 752.6 762.8 762.95 754.5 770.9 745.45 778.9 736.4 783.5 729.9
L 788.3 722.65 787.25 721.25 784.35 718.45
Q 780.55 714.95 775.95 710.9 771.3 706.9 768.6 704.6 766.5 707.95 761.25 715.5 756 723 748.5 732 741.05 741.05 732.35 748.9 723.6 756.75 714.6 760.8 704.7 764.9 693.85 766.4 683 767.85 673.25 767.75 663.55 767.6 656.95 766.95 Z"/>
</g>

<g id="Symbol_101_0_Layer0_0_FILL">
<path fill="#0081C6" stroke="none" d="
M 1158.45 419.65
Q 1158.35 419.55 1158.15 419.65 1157.9 419.75 1158.05 419.95 1158.4 420.4 1158.55 420.15 1158.7 419.9 1158.45 419.65
M 1140 527.55
Q 1138.15 526.85 1137.15 526.6 1134.9 525.9 1132.5 525.6 1130.05 525.25 1127.65 525.4
L 1127.35 525.45
Q 1127.1 525.5 1126.9 525.55 1126.3 525.55 1125.6 525.6
L 1125 525.7 1124.7 525.7
Q 1113.1 527.35 1103.05 534.6 1092.95 541.85 1085.65 552.15 1078.35 562.45 1074.9 573.25 1072.25 581.6 1071.45 589.55 1070.6 597.5 1072.15 604.95 1073.7 612.35 1078.2 619.15 1076.6 614.5 1075.85 609.3 1075.15 604.1 1075.2 598.6 1074.75 593.35 1075.5 587.7 1076.25 582.05 1078.3 575.75 1082.25 563.45 1089.1 553.7 1095.95 543.95 1106.8 536.6 1111.25 533.6 1116.65 531.45 1122.05 529.3 1127.75 528.75 1133.45 528.15 1138.75 529.85 1140.25 530.05 1141.65 530.35 1143.05 530.65 1144.4 531.1 1144.9 531.25 1145.4 531.45 1145.9 531.65 1146.35 531.85 1145.5 530.35 1143.7 529.3 1141.9 528.2 1140 527.55 Z"/>

<path fill="#FFFFFF" stroke="none" d="
M 971 446.5
Q 952.55 451.75 933.9 460.3 915.25 468.85 896.3 478.65 882.45 485.7 872.2 496.4 862 507.05 856.8 521 851.55 534.95 852.65 551.8 853.7 564.6 859.45 578.8 865.15 592.95 874.1 605.6 883 618.2 893.65 626.4 904.25 634.55 915.05 635.35 925.6 635.75 935 630.6 944.45 625.5 954.3 616.5 964.1 607.55 975.9 596.45 987.65 585.4 1002.85 573.9 1019.85 582.7 1034.35 593.65 1048.9 604.55 1060.6 614 1072.35 623.5 1081 627.95 1100.05 636.4 1117.9 627 1135.75 617.65 1147.35 598.45 1158.9 579.3 1159.15 558.4 1159.4 537.45 1143.25 522.75 1129.95 511.55 1113.9 498.3 1097.85 485.05 1080.1 472 1062.4 458.95 1044.15 448.3 1025.95 441.1 1007.7 441.15 989.45 441.2 971 446.5
M 1137.15 526.6
Q 1138.15 526.85 1140 527.55 1141.9 528.2 1143.7 529.3 1145.5 530.35 1146.35 531.85 1145.9 531.65 1145.4 531.45 1144.9 531.25 1144.4 531.1 1143.05 530.65 1141.65 530.35 1140.25 530.05 1138.75 529.85 1133.45 528.15 1127.75 528.75 1122.05 529.3 1116.65 531.45 1111.25 533.6 1106.8 536.6 1095.95 543.95 1089.1 553.7 1082.25 563.45 1078.3 575.75 1076.25 582.05 1075.5 587.7 1074.75 593.35 1075.2 598.6 1075.15 604.1 1075.85 609.3 1076.6 614.5 1078.2 619.15 1073.7 612.35 1072.15 604.95 1070.6 597.5 1071.45 589.55 1072.25 581.6 1074.9 573.25 1078.35 562.45 1085.65 552.15 1092.95 541.85 1103.05 534.6 1113.1 527.35 1124.7 525.7
L 1125 525.7 1125.6 525.6
Q 1126.3 525.55 1126.9 525.55 1127.1 525.5 1127.35 525.45
L 1127.65 525.4
Q 1130.05 525.25 1132.5 525.6 1134.9 525.9 1137.15 526.6 Z"/>
</g>

<g id="Symbol_40_0_Layer0_0_FILL">
<path fill="#0081C6" stroke="none" d="
M 1052.35 576.9
L 1050.25 581.9 1049.45 584.9
Q 1049.8 586.75 1052.5 587.95 1055.15 589.1 1058.55 589.7 1062 590.25 1064.6 590.35
L 1066.6 590.35 1067.45 590.2
Q 1071.4 580.9 1078.55 573.4 1085.7 565.9 1093 561.15 1100.35 556.4 1104.95 555.35 1100.6 554.35 1095.65 553.35 1090.65 552.35 1086.6 551.55
L 1081.05 550.45
Q 1068.75 556.45 1061.95 563.7 1055.1 570.95 1052.35 576.9 Z"/>
</g>

<g id="Symbol_102_0_Layer0_0_FILL">
<path fill="#0081C6" stroke="none" d="
M 1072.25 581.95
L 1071.1 581.75 1067.75 581.6
Q 1063.25 581.55 1057.85 581.55 1052.45 581.55 1049.65 581.6 1043.3 586.55 1039.5 598.55 1035.75 610.55 1035.3 625.7 1034.8 640.85 1038.35 655.3 1041.85 669.75 1050.05 679.65
L 1056.15 680.35
Q 1060.85 680.75 1065.4 681.1
L 1071 681.35
Q 1059.8 669.2 1056.3 653.3 1052.8 637.35 1056.8 619.2 1060.85 601 1072.25 581.95 Z"/>
</g>

<g id="Symbol_42_0_Layer0_0_FILL">
<path fill="#FFFFFF" stroke="none" d="
M 1050.7 575
Q 1046.65 575.4 1043.2 574.85 1039.75 574.35 1036.8 573.35 1036.9 573.55 1037.05 573.75
L 1037.3 574.1
Q 1037.8 574.75 1038.25 575.35 1038.75 575.95 1039.2 576.55 1039.7 577.1 1040.2 577.65 1040.7 578.25 1041.15 578.75 1041.35 578.95 1041.5 579.1 1041.65 579.3 1041.8 579.45 1043.3 581 1044.9 582.45 1046.5 583.9 1048.25 585.3 1048.85 585.7 1049.45 586.05 1050.05 586.45 1050.65 586.8 1051.15 586.8 1051.6 586.85 1052.1 586.85 1052.6 586.9
L 1052.75 586.9
Q 1057.75 586.75 1062.55 585.6 1067.35 584.5 1071.7 582.6 1071.8 582.55 1071.95 582.5
L 1072.2 582.4
Q 1079.8 578 1084.9 570.9 1090.05 563.8 1092.2 554.9 1091.25 552.7 1090.25 550.6 1089.2 548.5 1088.1 546.45 1088 546.25 1087.9 546.1 1087.8 545.95 1087.7 545.8 1087.3 545.05 1086.9 544.3 1086.45 543.5 1086.05 542.75
L 1085.2 541.25
Q 1084.25 550.75 1080.15 557.35 1076.05 564 1070 568.1 1068.9 568.65 1067.85 569.25 1066.75 569.9 1065.85 570.55 1062.2 572.4 1058.35 573.5 1054.5 574.65 1050.7 575
M 1040.35 557.5
Q 1043.25 551.95 1047.9 547.7 1052.55 543.45 1058.35 540.9 1064.15 538.35 1070.35 537.8 1071.7 537.7 1073.05 537.55 1074.4 537.4 1075.65 537.1 1076.15 537 1077.1 536.95
L 1078.3 536.75 1078.35 536.75
Q 1078.35 536.7 1078.4 536.7 1078.3 536.5 1078.05 536.35 1077.8 536.2 1077.7 536.15 1077.15 535.95 1076.6 535.8 1076.05 535.65 1075.45 535.4 1074.6 535.05 1073.3 534.95 1071.95 534.8 1071 534.85
L 1070.9 534.85
Q 1070.85 534.85 1070.8 534.85 1070.65 534.85 1070.5 534.9
L 1070.35 534.9
Q 1064.7 535.4 1059.25 537.55 1053.8 539.65 1049.15 543.25 1044.5 546.85 1041.35 551.7 1038.95 555.5 1037.65 559.95 1036.35 564.4 1036.7 568.9
L 1036.9 569.7 1037.1 569.75
Q 1037.35 569.45 1037.45 568.65 1037.75 565.6 1038.35 562.95 1038.95 560.25 1040.35 557.5
M 1061.3 550.55
Q 1061.15 550.35 1060.85 550.25 1060.6 550.2 1060.25 550.2 1059.85 550.25 1059.45 550.45 1059 550.6 1058.65 550.85 1058.3 551.1 1058 551.45 1057.75 551.75 1057.55 552.05 1057.4 552.4 1057.4 552.7 1057.4 552.95 1057.55 553.15 1057.75 553.35 1058 553.45 1058.3 553.55 1058.65 553.5 1059 553.45 1059.45 553.3 1059.85 553.1 1060.25 552.85 1060.6 552.6 1060.85 552.3 1061.15 551.95 1061.3 551.65 1061.45 551.35 1061.45 551.05 1061.45 550.75 1061.3 550.55 Z"/>

<path fill="#0081C6" stroke="none" d="
M 1041.35 549.15
Q 1037.95 553.55 1036.2 558.3 1034.4 563.05 1034.7 567.6 1034.75 568.15 1034.8 568.65 1034.85 569.15 1034.95 569.6 1035.15 570.25 1035.4 570.8 1035.6 571.4 1035.8 571.95
L 1035.85 572.05
Q 1036.1 572.4 1036.35 572.7 1036.55 573.05 1036.8 573.35 1039.75 574.35 1043.2 574.85 1046.65 575.4 1050.7 575 1054.5 574.65 1058.35 573.5 1062.2 572.4 1065.85 570.55 1066.75 569.9 1067.85 569.25 1068.9 568.65 1070 568.1 1076.05 564 1080.15 557.35 1084.25 550.75 1085.2 541.25
L 1084.4 539.9
Q 1083.5 538.8 1082.55 537.65 1081.65 536.5 1080.65 535.3
L 1080.6 535.2
Q 1080.2 535 1079.8 534.8 1079.35 534.6 1078.95 534.45 1075.05 532.85 1070.15 533.05 1065.25 533.25 1059.7 535.4 1054.15 537.6 1049.45 541.15 1044.8 544.75 1041.35 549.15
M 1060.85 550.25
Q 1061.15 550.35 1061.3 550.55 1061.45 550.75 1061.45 551.05 1061.45 551.35 1061.3 551.65 1061.15 551.95 1060.85 552.3 1060.6 552.6 1060.25 552.85 1059.85 553.1 1059.45 553.3 1059 553.45 1058.65 553.5 1058.3 553.55 1058 553.45 1057.75 553.35 1057.55 553.15 1057.4 552.95 1057.4 552.7 1057.4 552.4 1057.55 552.05 1057.75 551.75 1058 551.45 1058.3 551.1 1058.65 550.85 1059 550.6 1059.45 550.45 1059.85 550.25 1060.25 550.2 1060.6 550.2 1060.85 550.25
M 1047.9 547.7
Q 1043.25 551.95 1040.35 557.5 1038.95 560.25 1038.35 562.95 1037.75 565.6 1037.45 568.65 1037.35 569.45 1037.1 569.75
L 1036.9 569.7 1036.7 568.9
Q 1036.35 564.4 1037.65 559.95 1038.95 555.5 1041.35 551.7 1044.5 546.85 1049.15 543.25 1053.8 539.65 1059.25 537.55 1064.7 535.4 1070.35 534.9
L 1070.5 534.9
Q 1070.65 534.85 1070.8 534.85 1070.85 534.85 1070.9 534.85
L 1071 534.85
Q 1071.95 534.8 1073.3 534.95 1074.6 535.05 1075.45 535.4 1076.05 535.65 1076.6 535.8 1077.15 535.95 1077.7 536.15 1077.8 536.2 1078.05 536.35 1078.3 536.5 1078.4 536.7 1078.35 536.7 1078.35 536.75
L 1078.3 536.75 1077.1 536.95
Q 1076.15 537 1075.65 537.1 1074.4 537.4 1073.05 537.55 1071.7 537.7 1070.35 537.8 1064.15 538.35 1058.35 540.9 1052.55 543.45 1047.9 547.7 Z"/>
</g>

<g id="Symbol_43_0_Layer0_0_FILL">
<path fill="#FFFFFF" stroke="none" d="
M 1078.05 542.05
Q 1074.9 542.45 1071.6 543.75 1068.25 545 1065.8 546.7 1063.3 548.45 1062.65 550.15 1066.4 549.7 1069.65 548.25 1072.85 546.85 1075.05 545.1 1077.3 543.35 1078.05 542.05 Z"/>
</g>

<g id="Symbol_44_0_Layer0_0_FILL">
<path fill="#FFFFFF" stroke="none" d="
M 1050.75 558.05
Q 1047.85 560.75 1045.7 563.75 1043.55 566.75 1043.25 568.25 1046.15 566.95 1049.2 564.45 1052.2 561.9 1054.2 559.25 1056.25 556.6 1056.2 554.8 1053.7 555.4 1050.75 558.05 Z"/>
</g>

<g id="Symbol_29_0_Layer0_0_FILL">
<path fill="#FFFFFF" stroke="none" d="
M 927.6 155.25
Q 919.9 157.4 912.5 160.95 905.1 164.5 899.6 168.2 894.1 171.9 892.1 174.45 890.65 176.9 889.1 184 887.55 191.1 886.2 199.45 884.9 207.8 884.1 213.85
L 883.25 220.15 886.85 220.55
Q 890.25 220.9 893.75 221.15
L 896.55 221.25 897.9 221.15
Q 909.4 211.7 918.1 202.95 926.8 194.25 932.05 187.8
L 936.35 182.3 938.55 178.7
Q 939.75 175.9 940.75 170.55 941.8 165.2 942.15 160.2
L 942.2 156.1 941.7 153.65
Q 935.3 153.1 927.6 155.25 Z"/>
</g>

<g id="Symbol_111_0_Layer0_0_FILL">
<path fill="#0081C6" stroke="none" d="
M 799.35 738.4
Q 799.15 738.3 799.05 738.4 799.05 739 799.4 739.75
L 799.65 740.4 799.85 740.75
Q 800.25 741.65 800.8 742.45 801.3 743.25 802.1 743.9
L 802.35 744.1
Q 802.5 744.2 802.75 744.3 803.15 744.7 803.7 745.05
L 804.2 745.35 804.45 745.55
Q 819.3 754.55 835.65 757.25 851.95 759.9 868.3 756.9 884.7 753.9 899.65 745.75 900 745.55 900.4 745.35 900.75 745.15 901.1 744.95 901.35 744.65 901.65 744.35 901.9 744.05 902.2 743.75 902.6 743.2 903 742.7 903.4 742.15 903.8 741.6 903.95 740.9 904.1 740.1 904.25 739.35 904.4 738.5 904.55 737.65 904.7 736.75 904.85 735.85 905 734.95 905.2 736.95 905.5 738.95 905.8 740.95 906.15 742.95 906.65 745.5 908.15 747.7 909.65 749.9 910.75 749.85
L 911.45 748.75 911.25 745.55
Q 911.1 744.6 911 743.65 910.9 742.65 910.85 741.65 909.05 738.4 907.95 734.1 906.8 729.8 906.2 724.95 905.95 722.8 905.75 720.6 905.55 718.45 905.45 716.25 905.2 715.45 905 714.7 904.8 713.9 904.6 713.1 904.45 714.9 904.3 716.6 904.15 718.35 904 720 903.35 726.05 902.5 731.15 901.65 736.3 900.5 740.35 900.45 740.45 900.35 740.55 900.3 740.7 900.2 740.8 900 741.05 899.75 741.35 899.5 741.65 899.2 741.95 897.05 744.25 891.8 747.2 886.5 750.15 877.85 752.65 869.15 755.1 856.75 755.95 850.3 756.35 844.45 755.85 838.6 755.3 833.45 754.15 833 754.05 832.55 753.95 832.15 753.85 831.7 753.75 823.65 751.7 817.75 749.05 811.85 746.35 808.55 744.1
L 806.05 742.25 805 741.15
Q 804.95 741 804.95 740.85
L 804.85 740.55
Q 803.65 739.85 802.05 739.15 800.5 738.5 799.55 738.45
L 799.35 738.4
M 937.6 535.35
Q 938.95 530 940 524.75 936.95 532.45 933.6 540.05 930.2 547.65 926.55 555.6 925.85 557.15 925.1 558.75 924.4 560.3 923.7 561.95 918.5 575.7 914.55 591.2 910.6 606.75 909.2 623.55 909 626.05 908.8 628.55 908.65 631.05 908.5 633.6 908.7 635.55 909 637.55 909.3 639.5 909.7 641.5 909.75 641.75 909.95 642.45 910.15 643.15 910.45 643.5 910.8 642.7 911.05 641.65
L 911.35 640.3
Q 912.3 633.9 912.95 627.5 913.55 621.1 914.35 614.75 915.2 608.35 916.65 602.05 919.2 591.65 922.45 581.5 925.7 571.4 929.3 561.4 930.65 557.4 931.9 553.6 933.2 549.85 934.4 546.35 936.25 540.7 937.6 535.35 Z"/>

<path fill="#FFFFFF" stroke="none" d="
M 940.7 479.85
Q 934.75 469.6 924.95 459.6 915.15 449.65 902.45 442.75 889.75 435.85 875.15 434.65 863.35 433.7 848.2 430.6 833 427.5 818.7 424.95 804.4 422.4 795.15 423.2 785.9 423.95 786.05 430.7 786.75 439.3 788.8 444.75 790.85 450.25 792.3 455.15 793.75 460.05 792.65 466.8 789.35 484.2 785.45 506.4 781.6 528.65 779.45 553.9 777.3 579.1 779.15 605.6 780.85 627.2 784.05 649.85 787.25 672.5 792.35 695.4 797.45 718.25 804.85 740.55
L 804.95 740.85
Q 804.95 741 805 741.15
L 806.05 742.25 808.55 744.1
Q 811.85 746.35 817.75 749.05 823.65 751.7 831.7 753.75 832.15 753.85 832.55 753.95 833 754.05 833.45 754.15 838.6 755.3 844.45 755.85 850.3 756.35 856.75 755.95 869.15 755.1 877.85 752.65 886.5 750.15 891.8 747.2 897.05 744.25 899.2 741.95 899.5 741.65 899.75 741.35 900 741.05 900.2 740.8 900.3 740.7 900.35 740.55 900.45 740.45 900.5 740.35 901.65 736.3 902.5 731.15 903.35 726.05 904 720 904.15 718.35 904.3 716.6 904.45 714.9 904.6 713.1 905.45 702.05 905.95 689.15 906.5 676.2 907.05 662.15 907.6 648.05 908.5 633.6 908.65 631.05 908.8 628.55 909 626.05 909.2 623.55 910.6 606.75 914.55 591.2 918.5 575.7 923.7 561.95 929.65 546.3 935.35 533.6 941.05 520.9 944.65 511.85 948.2 502.8 947.75 498.05 946.65 490.15 940.7 479.85 Z"/>
</g>

<g id="Symbol_103_0_Layer0_0_FILL">
<path fill="#FFFFFF" stroke="none" d="
M 805.8 716.6
Q 790.7 715.2 775.3 716.35 759.95 717.5 743.95 723.9
L 747.05 749.9
Q 750 774.65 753.9 807.15 757.8 839.7 760.8 864.5
L 763.95 890.65
Q 767.9 898 784.65 903.3 801.4 908.65 822.65 910.8 843.95 913 861.55 910.95 879.2 908.9 884.9 901.55
L 881.8 876.7
Q 878.75 853.05 874.9 820.3 871.05 787.55 868.5 758.95 865.95 730.4 866.8 719.3 851.2 720.7 836.05 719.4 820.9 718.05 805.8 716.6 Z"/>
</g>

<g id="Symbol_32_0_Layer0_0_FILL">
<path fill="#0081C6" stroke="none" d="
M 943.65 840.8
Q 942.6 838.75 942.2 837.35 941.45 834.6 941.05 831.85 940.7 829.05 940.15 826.35
L 939.65 824.85 939.1 824.45
Q 938.5 824.55 938.05 825.8 937.65 827 937.65 828.25 937.8 831.4 938.75 835.75 939.7 840.1 941.85 843.7 943.95 847.3 947.65 848.15 951.1 848.6 953.45 845.55 955.8 842.55 957.1 838.5 958.4 834.45 958.75 831.75 958.9 830.75 958.95 828.85 959 826.95 958.7 825.25 958.4 823.5 957.45 822.95
L 957.25 822.9
Q 957.1 822.9 957.05 822.95 956.7 823.3 956.6 823.8
L 956.45 824.5
Q 956.2 826.4 956.15 828.4 956.15 830.4 955.8 832.35 955.5 834.05 954.65 836.85 953.8 839.65 952.5 842.15 951.2 844.6 949.5 845.25 947.75 845.7 946.2 844.3 944.7 842.85 943.65 840.8 Z"/>
</g>

<g id="Symbol_112_0_Layer0_0_FILL">
<path fill="#0081C6" stroke="none" d="
M 1101.4 709.6
Q 1101.9 707.65 1101 707.65 1100.1 707.7 1098.8 708.65 1097.55 709.65 1097 710.35 1096.45 711.15 1095.85 712.4 1095.25 713.65 1094.7 715.05
L 1094.9 715
Q 1094.7 715.35 1094.55 715.7 1094.35 716.05 1094.15 716.4 1093.7 717.55 1093.3 718.6 1092.9 719.65 1092.55 720.45 1090.85 724.4 1089.2 728.4 1087.55 732.35 1085.9 736.35 1080.95 749.9 1075.1 768.15 1069.25 786.35 1062.9 807.05 1056.55 827.75 1050.15 848.75 1043.8 869.75 1037.85 888.85 1037.1 889.2 1036.35 889.55 1035.6 889.9 1034.85 890.2
L 1033.05 895.8
Q 1031.85 899.7 1031.1 903.7 1030.4 907.7 1029.55 911.75 1029.45 912.05 1029.35 912.6 1029.2 913.15 1029.55 913.55 1029.95 913.75 1030.25 913.4 1030.55 913.05 1030.7 912.7 1031 912.25 1031.35 911.7
L 1031.75 911
Q 1035.6 904.25 1038.6 896.45 1041.65 888.6 1044.15 880.5 1046.65 872.4 1048.85 864.85 1052.75 851.8 1056.4 838.75 1060.05 825.7 1063.95 812.7 1067.8 799.7 1072.45 786.85 1078.6 769.85 1085.05 753.15 1091.5 736.45 1097.9 719.7 1098.8 717.35 1099.75 714.65 1100.7 711.95 1101.4 709.6 Z"/>

<path fill="#FFFFFF" stroke="none" d="
M 933.85 673.5
Q 909.05 665.25 897.1 663.7 899.45 692.05 904.75 727.65 910.05 763.3 915.95 796.75 921.9 830.2 926.15 852.05
L 930.7 874.8
Q 938.9 882.05 950.6 887.65 962.3 893.2 976.25 895.95 990.2 898.75 1005.15 897.55 1020.1 896.4 1034.85 890.2 1035.6 889.9 1036.35 889.55 1037.1 889.2 1037.85 888.85 1043.8 869.75 1050.15 848.75 1056.55 827.75 1062.9 807.05 1069.25 786.35 1075.1 768.15 1080.95 749.9 1085.9 736.35 1088.25 729.85 1090.35 724.8 1092.4 719.75 1094.15 716.4 1094.35 716.05 1094.55 715.7 1094.7 715.35 1094.9 715
L 1094.7 715.05
Q 1075.75 716 1047.45 709 1019.15 702 988.9 691.9 958.6 681.8 933.85 673.5 Z"/>
</g>

<g id="Symbol_33_0_Layer0_0_FILL">
<path fill="#0081C6" stroke="none" d="
M 943.35 838.65
Q 942.15 836.05 941.4 832.95 940.6 829.9 939.6 827.1
L 939.2 826.4 938.9 826.25
Q 938.6 826.4 938.45 827.1 938.3 827.8 938.3 828.5 938.5 831.6 939.5 835.45 940.5 839.25 942.25 842.4 943.95 845.55 946.3 846.7 950.3 848.25 953.15 845.6 956 842.95 957.6 838.15 959.2 833.4 959.35 828.65 959.35 827.95 959.35 826.95 959.3 825.95 959.1 825.15 958.85 824.4 958.4 824.45 958.25 824.75 958.1 825.1
L 957.95 825.6
Q 957.35 827.6 957.1 829.8 956.8 831.95 956.3 834.1 955.15 838.55 953 841.25 950.85 843.95 948.25 843.6 945.7 843.25 943.35 838.65 Z"/>
</g>

<g id="Symbol_105_0_Layer0_0_FILL">
<path fill="#FFFFFF" stroke="none" d="
M 877.85 301.8
Q 859.6 314.95 842.2 328.65 824.8 342.3 808.55 359 792.3 375.7 777.5 397.85 762.65 420.05 749.55 450.25 734.15 486.35 725.4 517 716.7 547.65 712.95 573.25 709.15 598.9 708.65 619.95 708.1 641 709.1 657.9 709.75 667.7 718.85 679.7 727.9 691.7 743.45 704.2 759 716.7 779.1 728.05 799.15 739.4 821.85 747.9 836.25 753.25 851.05 756.9 865.9 760.55 880.6 762.05 895.35 763.55 909.45 762.5 917.6 761.85 925.35 760.25 932.26875 758.830859375 938.8 756.6
L 940.5 756.05
Q 944.05 754.75 947.5 753.2 950.9 751.65 954.2 749.85 954.45 749.75 954.7 749.6 954.95 749.45 955.2 749.35 955.9 748.95 956.65 748.55 957.35 748.15 958.05 747.75
L 958.25 747.6
Q 964.75 743.95 970.7 740.1 976.65 736.25 982.05 732.25 1007.65 713.25 1022.85 692 1038.1 670.8 1045.4 648.7 1052.75 626.65 1054.7 605.15 1056.65 583.65 1055.75 564.05 1055.7 563.15 1055.65 562.2 1055.65 561.3 1055.6 560.4 1055.4 556.2 1054.9 551.9 1054.45 547.6 1053.7 543.25 1050.25 524 1043.3 505.2 1036.35 486.45 1028.35 470.45 1020.4 454.4 1013.85 443.5 1013.3 442.6 1012.75 441.7 1012.25 440.8 1011.75 440 1008.4 434.5 1006.25 431.4
L 1003.65 427.85 998.85 423.65 987.85 412.75
Q 973.75 398.5 953.35 377.7 932.95 356.85 912.55 336.2 892.1 315.55 877.85 301.8 Z"/>

<path fill="#0081C6" stroke="none" d="
M 1012.75 441.7
Q 1013.3 442.6 1013.85 443.5 1020.4 454.4 1028.35 470.45 1036.35 486.45 1043.3 505.2 1050.25 524 1053.7 543.25 1054.45 547.6 1054.9 551.9 1055.4 556.2 1055.6 560.4 1055.65 561.3 1055.65 562.2 1055.7 563.15 1055.75 564.05 1055.75 563.75 1055.75 563.55
L 1055.8 563.25
Q 1056 558.2 1056 553.8 1055.95 549.45 1055.2 544.75 1055.75 545.2 1056.25 545.4 1056.75 545.6 1057.15 545.4 1058.1 544.8 1058.8 543.05 1059.5 541.25 1059.9 539.35 1060.3 537.4 1060.3 536.3 1060.3 531.8 1058.45 526.55 1056.6 521.25 1054.2 516 1051.8 510.8 1050.1 506.5 1046.05 495.65 1041.3 484.95 1036.55 474.25 1030.75 463.9
L 1030.45 463.3
Q 1030.2 462.85 1029.85 462.6 1029.55 462.05 1029.2 461.4
L 1028.95 460.9 1028.75 460.6
Q 1026.9 457.5 1024.3 453.55 1021.65 449.6 1018.65 446.05 1015.6 442.45 1012.7 440.45 1012.45 440.3 1012.2 440.2 1011.95 440.05 1011.75 440 1012.25 440.8 1012.75 441.7
M 821.85 747.9
Q 833.7 755.05 847 759.3 860.3 763.5 874.45 765.7
L 874.8 765.85
Q 875.1 766 875.35 765.85 875.85 765.95 876.45 766.1
L 876.95 766.15 877.2 766.2
Q 887.45 768.15 898 768.6 908.6 769.05 918.75 767.7 929.85 766.1 941.1 762.15 952.35 758.2 962.65 752.2 972.9 746.25 981.2 738.6 982.35 737.6 983.6 736.45 984.85 735.35 985.65 734.05 986.5 732.7 986.45 730.95
L 986.4 730.65
Q 986.35 730.4 986.2 730.2 985.7 730.05 985.15 730.4 984.6 730.75 984.4 730.95 983.8 731.3 983.2 731.6 982.65 731.95 982.05 732.25 976.65 736.25 970.7 740.1 964.75 743.95 958.25 747.6
L 958.05 747.75
Q 957.35 748.15 956.65 748.55 955.9 748.95 955.2 749.35 954.95 749.45 954.7 749.6 954.45 749.75 954.2 749.85 950.9 751.65 947.5 753.2 944.05 754.75 940.5 756.05
L 938.8 756.6
Q 938 756.925 937.15 757.2 935.45 757.75 933.7 758.3 927.45 760.1 921.45 761.15 915.4 762.15 909.45 762.5 895.35 763.55 880.6 762.05 865.9 760.55 851.05 756.9 836.25 753.25 821.85 747.9 Z"/>
</g>

<g id="Symbol_106_0_Layer0_0_FILL">
<path fill="#FFFFFF" stroke="none" d="
M 1012.45 184.25
Q 1009.55 185.35 1007.8 188.35 1002.25 198.35 997.6 206.75 992.9 215.2 988.2 222.4 983.55 229.6 978.1 236
L 972.55 233.85
Q 967.9 232.05 961.5 229.3 955.1 226.55 949.2 223.55 944.05 220.7 934.8 217.95 925.55 215.15 912.95 214.2 900.35 213.3 885.1 216 869.8 218.75 852.55 227 840.85 232.9 833.35 239.5 825.8 246.1 821.95 251.35
L 817.3 258.3
Q 812.95 267.05 807.85 285.25 802.75 303.45 798.15 323.75 793.55 344 790.75 358.9
L 788.65 370.6 788.15 375.95 789.35 379.6 792.45 386.35
Q 796.5 394.6 805.7 407.45 814.9 420.3 830.8 436.3 841.4 446.65 852.8 454.15 864.25 461.65 875.1 466.7 886 471.75 895.05 474.75
L 895.4 474.85
Q 899.4 476.2 902.85 477.2 906.25 478.15 909 478.85 919.2 481.35 929.1 481.95 939.05 482.5 948.35 481.6 952 481.25 955.55 480.7 959.05 480.15 962.45 479.45 967.6 478.35 972.35 476.95 977.15 475.55 981.5 473.9 983.8 473.05 985.95 472.15 988.1 471.2 990.15 470.25 995.9 467.55 1000.35 464.75 1004.75 461.9 1007.65 459.3 1010.35 456.85 1012.85 454.1 1015.35 451.35 1017.65 448.3 1017.95 447.9 1018.25 447.55 1018.5 447.15 1018.8 446.75 1023.85 439.8 1028 431.6 1032.15 423.35 1035.4 414.1 1037.55 407.9 1039.35 401.35 1041.15 394.8 1042.55 387.9 1042.6 387.6 1042.65 387.35
L 1042.75 386.8
Q 1043.25 384.3 1043.7 381.8 1044.15 379.25 1044.5 376.7 1044.55 376.5 1044.6 376.3 1044.6 376.1 1044.65 375.9 1046.65 362.6 1047.3 348.8 1047.95 335 1047.35 321.1 1046.85 311.05 1046.05 301.45 1045.2 291.9 1044.1 282.9 1042.9 273.2 1041.45 264.25 1040.05 255.3 1038.45 247.2 1037.5 242.55 1036.6 238.2 1035.65 233.85 1034.7 229.8 1030.9 213.95 1027.55 203.25 1024.15 192.55 1022.15 187.85 1020.8 184.9 1018.05 184 1015.3 183.1 1012.45 184.25 Z"/>

<path fill="#0081C6" stroke="none" d="
M 1038.55 234.95
Q 1038.45 234.65 1038.15 234.1 1037.85 233.55 1037.4 233.35 1036.9 232.2 1036.25 231.25 1035.55 230.3 1034.7 229.8 1035.65 233.85 1036.6 238.2 1037.5 242.55 1038.45 247.2 1040.05 255.3 1041.45 264.25 1042.9 273.2 1044.1 282.9 1045.2 291.9 1046.05 301.45 1046.85 311.05 1047.35 321.1 1047.95 335 1047.3 348.8 1046.65 362.6 1044.65 375.9 1044.6 376.1 1044.6 376.3 1044.55 376.5 1044.5 376.7 1044.15 379.25 1043.7 381.8 1043.25 384.3 1042.75 386.8
L 1042.65 387.35
Q 1042.6 387.6 1042.55 387.9 1041.15 394.8 1039.35 401.35 1037.55 407.9 1035.4 414.1 1032.15 423.35 1028 431.6 1023.85 439.8 1018.8 446.75 1018.5 447.15 1018.25 447.55 1017.95 447.9 1017.65 448.3 1015.35 451.35 1012.85 454.1 1010.35 456.85 1007.65 459.3 1004.75 461.9 1000.35 464.75 995.9 467.55 990.15 470.25 988.1 471.2 985.95 472.15 983.8 473.05 981.5 473.9 977.15 475.55 972.35 476.95 967.6 478.35 962.45 479.45 959.05 480.15 955.55 480.7 952 481.25 948.35 481.6 939.05 482.5 929.1 481.95 919.2 481.35 909 478.85 906.25 478.15 902.85 477.2 899.4 476.2 895.4 474.85
L 895.05 474.75 895.25 474.85
Q 895.05 474.9 894.85 474.95 894.65 475.05 894.5 475.25 894.6 475.5 894.85 475.6 895.15 475.75 895.35 475.9 895.7 476.05 896.15 476.2
L 896.7 476.4
Q 899.8 477.8 902.6 479.1 905.4 480.4 908.75 481.4 911.05 482.05 913.35 482.65 915.65 483.2 918.05 483.65 928.05 486.15 938.5 486.75 948.95 487.35 959.15 486 969.3 484.65 978.5 481.25 987.75 477.85 996.65 472.9 1005.6 467.9 1013.15 461.2 1020.75 454.45 1026.1 445.9 1029.1 440.9 1031.9 435.25 1034.75 429.55 1037.2 423.7 1039.6 417.85 1041.55 412.3 1041.65 411.9 1041.75 411.55 1041.9 411.2 1042 410.8 1043.15 407.65 1044.15 404.6 1045.1 401.5 1045.85 398.5 1047 393.85 1047.9 389.15 1048.8 384.45 1050 379.8 1051.45 374.2 1052 368.25 1052.55 362.25 1052.65 356.2 1052.8 350.15 1053 344.35 1053.5 332.8 1052.85 321.6 1052.2 310.35 1050.7 299.25 1050.3 294.7 1049.8 290.15 1049.25 285.65 1048.8 281.3 1048.45 277.25 1047.9 273.3 1047.4 269.4 1046.75 265.6 1045.45 257.6 1043.45 249.85 1041.45 242.1 1038.55 234.95 Z"/>
</g>

<g id="Symbol_107_0_Layer0_0_FILL">
<path fill="#0081C6" stroke="none" d="
M 951.1 329.25
Q 948.25 328.6 945.6 328.1 942.95 327.55 939.95 327.7 938.65 327.75 936.9 328 935.1 328.3 933.4 328.9 932.85 328.95 932.4 329.1 931.95 329.25 931.5 329.4 931.05 329.65 930.8 329.95 930.5 330.25 930.45 330.55 930.1 330.9 929.8 331.25 929.55 331.6 929.35 332 928.7 333.7 930.1 334.25 931.5 334.8 933.45 334.75 935.35 334.7 936.15 334.55 936.75 334.45 937.3 334.4 937.9 334.35 938.45 334.3 937.8 336.35 937.4 339 936.95 341.65 936.85 344.35 936.7 347 936.9 349.15 937.5 353.95 939.95 356.9 942.35 359.8 945.75 360.2 949.15 360.6 952.75 357.9 954.15 356.75 955.15 355.7 956.15 354.6 956.9 353.45 955.1 355.2 952.95 356.05 950.8 356.95 948.5 356.8 947.2 356.7 946 356.25 944.8 355.85 943.75 355.15 943.35 354.95 943 354.7 942.65 354.4 942.35 354 941.75 353.5 941.25 352.9 940.75 352.25 940.3 351.55 938.85 349.3 938.2 346.35 937.55 343.45 937.85 340.15 938 338.55 938.4 337.05 938.8 335.55 939.4 334.2 939.5 333.95 939.6 333.75 939.7 333.5 939.8 333.3 940.3 333.3 940.75 333.25 941.2 333.2 941.6 333.1
L 941.65 333.1
Q 942.35 333.15 943.05 333.15 943.75 333.2 944.45 333.25 946.8 333.95 949.6 334.65 952.35 335.4 955.2 336 956.15 336.2 957.05 336.4 957.95 336.55 958.85 336.7 959 336.75 959.15 336.75 959.3 336.8 959.45 336.8
L 959.7 336.85 959.95 336.85 960.25 336.9
Q 960.75 337 961.25 337.05 961.7 337.1 962.2 337.15
L 962.25 337.15 962.2 337.05
Q 961.95 336.5 961.7 335.95
L 961.1 334.6 960.65 334.55
Q 960.55 334.45 960.5 334.35 960.4 334.3 960.35 334.2 960.15 334.1 959.9 333.95
L 959.65 333.75
Q 959.55 333.65 959.45 333.6 959.35 333.55 959.25 333.5 959.05 333.25 958.9 333.05 958.7 332.9 958.65 332.85 957.85 332.1 956.45 331.4 955.05 330.65 953.6 330.05 952.1 329.5 951.1 329.25 Z"/>

<path fill="#0081C6" stroke="none" d="
M 944.45 333.25
Q 943.75 333.2 943.05 333.15 942.35 333.15 941.65 333.1
L 941.6 333.1
Q 941.2 333.2 940.75 333.25 940.3 333.3 939.8 333.3 939.7 333.5 939.6 333.75 939.5 333.95 939.4 334.2 938.8 335.55 938.4 337.05 938 338.55 937.85 340.15 937.55 343.45 938.2 346.35 938.85 349.3 940.3 351.55 940.75 352.25 941.25 352.9 941.75 353.5 942.35 354 942.65 354.35 943 354.6 943.35 354.9 943.75 355.15 944.8 355.85 946 356.25 947.2 356.7 948.5 356.8 950.8 356.95 952.95 356.05 955.1 355.2 956.9 353.45 957.1 353.3 957.25 353.1 957.4 352.95 957.6 352.75 959.5 350.7 960.7 347.95 961.95 345.15 962.3 341.85 962.4 340.65 962.4 339.45 962.35 338.25 962.2 337.15 961.7 337.1 961.25 337.05 960.75 337 960.25 336.9
L 959.95 336.85 959.7 336.85 959.45 336.8
Q 959.3 336.8 959.15 336.75 959 336.75 958.85 336.7 957.95 336.55 957.05 336.4 956.15 336.2 955.2 336 952.35 335.4 949.6 334.65 946.8 333.95 944.45 333.25 Z"/>
</g>

<g id="Symbol_108_0_Layer0_0_FILL">
<path fill="#FFFFFF" stroke="none" d="
M 913.75 284.45
Q 911.4 277.7 905.85 272.8 900.35 267.9 890.55 266.1 880.6 264.55 873.65 267.6 866.65 270.7 862 276.45 857.35 282.25 854.5 288.8 851.65 295.35 849.95 300.7 858.85 301.75 870.05 303.6 881.25 305.45 893.05 307.7 904.8 309.9 915.4 312.05 916.35 305.6 916.2 298.4 916.05 291.15 913.75 284.45 Z"/>
</g>

<g id="Symbol_113_0_Layer0_0_FILL">
<path fill="#a6ce38" stroke="none" d="
M 786.75 701.5
L 801.35 712.5
Q 815.4 722.5 836.55 730.4 857.65 738.25 879.4 732.65 900.4 725.6 914.2 709.1 928 692.6 936.7 672.55 945.35 652.45 950.95 634.65 956.25 617.45 951.65 611.9 947.05 606.4 938.55 611.15 930 615.9 923.45 629.5 913.9 649.65 899.35 664.25 884.8 678.85 871.9 689.4 859.1 700.05 836.75 703 814.35 705.95 786.75 701.5 Z"/>
</g>

<g id="Symbol_16_0_Layer0_0_FILL">
<path fill="#a6ce38" stroke="none" d="
M 891.5 633.65
L 891.05 633.65 907.65 759.35 919 845 930.8 758.65 946.5 643.85 947.85 633.85 891.5 633.65 Z"/>

<path fill="#0081C6" stroke="none" d="
M 891.05 633.65
L 891.5 633.65
Q 890.95 631.45 890.25 629.3 889.6 627.15 888.8 625.1
L 888.45 624.2
Q 888.15 623.5 887.75 622.95 887.5 622.5 887.45 622.75 887.45 623.05 887.4 623.7 887.35 626 887.9 628.45 888.45 630.9 889 633.15 894 655.4 895.95 677.8 897.95 700.2 900.25 722.5 901.5 733.9 902.55 745.45 903.55 757.05 905.6 768.4
L 905.85 770.25
Q 906.15 771.75 906.75 772.15 907.35 772.15 907.35 771.6 907.35 771.1 907.3 770.65 907.6 768 907.7 765.15 907.75 762.3 907.65 759.35
L 891.05 633.65
M 951.9 628
Q 951.9 627.5 951.75 626.25 951.65 625.05 950.9 624.35 949.5 624.3 949.5 625.85 949.45 627.4 949.4 628.6 948.75 632.45 948 636.25 947.3 640.05 946.5 643.85
L 930.8 758.65
Q 933.35 750.25 934.7 741.9 936 733.6 937.35 724.85 940 708.65 942.65 692.5 945.35 676.35 948.05 660.15 949.4 652.85 950.95 644 952.5 635.15 951.9 628 Z"/>
</g>

<g id="Symbol_64_0_Layer0_0_FILL">
<path fill="#a6ce38" stroke="none" d="
M 1015.35 632
L 973.55 634.3 989 819.4 1015.35 632 Z"/>
</g>

<g id="Symbol_83_0_Layer0_0_FILL">
<path fill="#a6ce38" stroke="none" d="
M 951.9 319.5
Q 953.8 315.25 955.7 310.8
L 956.75 308.3
Q 957.55 306.1 956.4 304.45 954.8 302.95 953.5 303.9 952.25 304.85 951.25 306.7 946.55 314.4 941.75 322.1 936.95 329.8 932.2 337.55 931.15 339.2 930.15 340.85 929.15 342.5 928.15 344.15 925.55 348.45 922.95 352.75 920.35 357.05 917.8 361.35 918.4 362.25 918.95 363.15 919.5 364 920 364.85 920.3 365.35 920.55 365.85 920.8 366.35 921.05 366.85 921.65 368 922.2 369.15 922.7 370.3 923.1 371.45 923.3 371.9 923.45 372.3 923.6 372.75 923.7 373.2 924.1 374.55 924.4 375.85 924.65 377.15 924.8 378.5 927.6 373.9 930.25 369.3 932.85 364.7 935.25 360.05 935.4 359.7 935.6 359.4
L 935.95 358.7
Q 937.4 355.85 940.1 350.1 942.8 344.35 945 338.5 945.95 336.55 946.7 334.65 947.45 332.8 947.95 331.05 948.1 330.65 948.1 329.7 948.15 328.8 947.95 327.8 949.95 323.7 951.9 319.5 Z"/>

<path fill="#a6ce38" stroke="none" d="
M 1001.3 267.15
Q 985.7 268.95 976.15 274.55 966.6 280.1 962.25 285.1 959.1 288.5 953.6 297.6 948.1 306.65 942.25 317.6 936.4 328.5 932.2 337.55 936.95 329.8 941.75 322.1 946.55 314.4 951.25 306.7 952.25 304.85 953.5 303.9 954.8 302.95 956.4 304.45 957.55 306.1 956.75 308.3
L 955.7 310.8
Q 953.8 315.25 951.9 319.5 949.95 323.7 947.95 327.8 948.15 328.8 948.1 329.7 948.1 330.65 947.95 331.05 947.45 332.8 946.7 334.65 945.95 336.55 945 338.5 942.8 344.35 940.1 350.1 937.4 355.85 935.95 358.7
L 935.6 359.4
Q 935.4 359.7 935.25 360.05 944.95 366.95 960.5 372.65 976.05 378.3 991.55 380.55 1008.1 382.65 1024.7 381.35 1041.25 380.05 1053.4 375.85 1065.55 371.6 1068.75 365 1068.7 361.05 1068.35 351.95 1068 342.85 1066.8 331.2 1065.55 319.5 1062.85 307.75 1053.05 321.4 1044.85 336 1036.7 350.6 1029.9 366.5
L 1028.35 369.4
Q 1027.15 371.45 1026 372.3 1024.85 373.15 1024.6 370.25
L 1024.65 369.05
Q 1024.75 368.15 1024.9 367.45 1025.15 366.95 1025.4 366.3
L 1025.7 365.5
Q 1028.9 357.75 1032.9 349.9 1036.9 342 1040.95 334.65 1045.55 326.3 1050.7 318.4 1055.9 310.55 1061.65 303.1 1058.5 291.4 1053.15 282.85 1047.75 274.3 1039.5 271.65 1016.95 265.35 1001.3 267.15 Z"/>

<path fill="#0081C6" stroke="none" d="
M 1079.5 286.6
Q 1082.55 283 1085.95 279.1 1089.4 275.2 1092.9 272
L 1093.8 271.2
Q 1094.45 270.6 1094.9 270.05 1094.65 269.95 1094.3 269.85
L 1093.85 269.75
Q 1091.85 269.8 1089.45 272.2 1087 274.6 1085.65 276.1 1079.2 282.5 1073.2 289.25 1067.15 296 1061.65 303.1 1055.9 310.55 1050.7 318.4 1045.55 326.3 1040.95 334.65 1036.9 342 1032.9 349.9 1028.9 357.75 1025.7 365.5
L 1025.4 366.3
Q 1025.15 366.95 1024.9 367.45 1024.75 368.15 1024.65 369.05
L 1024.6 370.25
Q 1024.85 373.15 1026 372.3 1027.15 371.45 1028.35 369.4
L 1029.9 366.5
Q 1036.7 350.6 1044.85 336 1053.05 321.4 1062.85 307.75 1066.7 302.35 1070.85 297.05 1075.05 291.8 1079.5 286.6 Z"/>
</g>

<g id="Layer0_22_FILL">
<path fill="#a6ce38" stroke="none" d="
M 1002.3 304.65
Q 986.05 320.25 978.05 349.15 970 378.05 964.7 412.05 959.4 446.05 951.3 477 942.15 505.9 925.3 540.05 908.4 574.15 896.5 609.5 884.6 644.85 890.4 677.4 892.4 686.95 896.65 696 900.9 705.1 907.8 713.6 909.15 715.25 910.55 716.8 912 718.35 913.5 719.8 917.95 724.2 923.05 727.55 928.1 730.95 933.6 733.4 942.4 737.25 952.2 738.85 962.05 740.45 972.65 740 975.7 739.85 978.85 739.55 982 739.25 985.2 738.8 991.05 737.9 997.05 736.5 1003.05 735.1 1009.1 733.2 1024.1 728.4 1039.25 720.8 1054.35 713.15 1069.1 702.95 1076.55 697.75 1083.85 692 1091.1 686.2 1098.05 679.9 1116.65 663.1 1132.15 643.05 1147.65 623 1158.6 600.6 1177.45 559.75 1176.75 518.95 1176.1 478.15 1165.65 444 1155.2 409.85 1144.6 388.95
L 1132.95 367.05 1119.45 350.6
Q 1106.55 335.45 1086.45 318.55 1066.3 301.65 1044 295.15 1021.7 288.65 1002.3 304.65 Z"/>

<path fill="#0081C6" stroke="none" d="
M 890.4 677.4
Q 888.9 672.4 887.4 667.4 885.95 662.45 884.05 657.65
L 883.25 655.85
Q 882.65 654.45 881.75 653.55 881.4 652.45 881.05 652.75 880.65 653.05 879.95 654 878.65 655.95 878.55 659.8 878.5 663.65 879 666.05 883.65 687.4 896.9 707.2 910.1 727.05 929.4 737.95 936.6 741.7 944.6 743.45 952.6 745.25 960.9 745.9 966.2 746.75 971.55 747.15 976.9 747.55 982.3 747.65 983.05 747.75 984 747.8 984.95 747.85 985.7 747.65 988.95 747.65 992.15 747.6 995.4 747.5 998.6 747.35 1013.6 746.45 1026.1 740.25 1038.6 734.1 1050.4 725.35 1061.95 717.7 1074.15 710.25 1086.35 702.75 1094.3 690.9 1094.65 690.45 1095.3 689 1095.95 687.6 1095.65 686.25 1095.25 685.7 1094.8 685.75 1094.35 685.75 1093.9 686.15 1095.05 684.6 1096.1 683.05 1097.15 681.5 1098.05 679.9 1091.1 686.2 1083.85 692 1076.55 697.75 1069.1 702.95 1058.1 712 1045.8 719.3 1033.55 726.6 1020.75 730.2 1017.95 730.95 1015.05 731.7 1012.1 732.45 1009.1 733.2 1003.05 735.1 997.05 736.5 991.05 737.9 985.2 738.8 982 739.25 978.85 739.55 975.7 739.85 972.65 740 962.05 740.45 952.2 738.85 942.4 737.25 933.6 733.4 933.05 733.25 932.5 733.1 931.95 732.95 931.4 732.85 930.95 732.7 929.9 732.35 928.85 732 927.6 731.8 923.7 729.3 920.15 726.3 916.6 723.3 913.5 719.8 912 718.35 910.55 716.8 909.15 715.25 907.8 713.6 900.9 705.1 896.65 696 892.4 686.95 890.4 677.4 Z"/>
</g>

<g id="Layer0_23_FILL">
<path fill="#0081C6" stroke="none" d="
M 890.35 266.9
L 890.45 266.65 890.35 266.4
Q 890.25 266.4 890.15 266.55 889.75 266.85 889.3 267.1
L 888.95 267.35 888.7 267.45
Q 886.95 268.85 885.5 270.9 884.05 272.95 882.85 275.35 881.75 277.65 880.95 280.05 880.1 282.4 879.55 284.65 879.4 285.35 879.25 286 879.1 286.65 879 287.3 878.95 287.5 878.95 287.75 878.9 287.95 878.85 288.2 878.85 288.45 878.8 288.75 878.75 289 878.75 289.3 878.55 290.7 878.45 292.15 878.35 293.6 878.35 295.1 878.3 298.8 878.8 302.6 879.25 306.4 880.25 310.15 880.65 311.55 881.1 312.95 881.55 314.3 882.1 315.65 882.5 316.7 882.95 317.7 883.4 318.7 883.9 319.65 884.2 320.25 884.5 320.85 884.8 321.45 885.15 322 882.95 323.85 880.8 325.9 878.7 327.9 876.35 329.7 873.1 332 870.05 333.8 866.95 335.6 863.65 336.95 860.35 338.35 856.5 339.4 854.15 340 851.8 340.55 849.45 341.1 847.1 341.65
L 847 341.7 846.95 341.7
Q 846.825 341.703125 846.45 341.75 846.1 341.85 845.85 342.1 846.3 342.35 846.9 342.4
L 847.4 342.45 847.7 342.45
Q 852.4 342.6 857.5 341.25 862.65 339.9 867.45 337.6 872.25 335.3 876 332.6 877.35 331.6 879.25 330.2 881.1 328.8 883 327.15 884.85 325.45 886.2 323.75 887.95 326.4 890.1 328.75 892.25 331.05 894.8 332.9
L 894.8 332.95
Q 895.5 333.45 896.7 334.1 897.95 334.75 899.2 335.2 900.5 335.65 901.3 335.6
L 901.5 335.65
Q 901.7 335.7 901.8 335.55 901.75 335.35 901.55 335.05 901.3 334.8 901.05 334.55 900.85 334.35 900.7 334.2 900.5 334.05 900.45 333.95 900.15 333.7 899.9 333.45 899.65 333.2 899.4 333 898.8 332.4 898.2 331.9 897.6 331.35 897 330.8
L 896.9 330.7
Q 894.95 329.05 893.1 327.25 891.25 325.45 889.65 323.15 889.15 322.5 888.7 321.8 888.25 321.15 887.85 320.45
L 887.9 320 887.65 320.05
Q 883.8 313.5 882.15 306.05 880.5 298.55 881.15 290.95 881.85 283.4 885 276.5
L 885.05 276.5
Q 885.45 275.6 885.9 274.75 886.35 273.85 886.85 273
L 887.05 272.7
Q 887.35 272.2 887.85 271.35 888.35 270.55 888.9 269.65 889.25 269.05 889.6 268.5 889.9 267.95 890.1 267.5 890.2 267.3 890.25 267.15 890.3 267 890.35 266.9
M 978 299.3
L 977.7 300.1
Q 974.85 306.25 970.75 310.75 966.6 315.2 961.4 318.5 956.15 321.8 950.05 324.35 947.1 325.6 944.1 326.35 941.1 327.1 938.05 327.85 937.6 327.95 937.15 328.05 936.7 328.2 936.25 328.3 936.05 328.35 935.5 328.55 935 328.75 934.7 329.05 935.1 329.2 935.55 329.3
L 935.95 329.35 936.2 329.35
Q 939.65 329.45 943.4 328.55 947.15 327.65 950.75 326.15 954.35 324.65 957.35 323 961.3 320.95 966 317.55 970.7 314.2 974.4 309.95 978.15 305.7 979.15 301.1 979.4 300 979.35 299 979.35 298.05 978.7 298.15
L 978.55 298.15
Q 978.3 298.7 978 299.3 Z"/>

<path fill="#a6ce38" stroke="none" d="
M 983.1 267.65
L 977.65 262.35 971.45 257.95 962.15 253.45 954.75 251.15 949.65 250.15 941.95 249.3 931.65 249.5 918.95 251.8 906.9 256.35 898 261.65 891.35 267.1 891 267
Q 890.85 266.95 890.7 266.9 890.5 266.9 890.35 266.9 890.3 267 890.25 267.15 890.2 267.3 890.1 267.5
L 890.2 267.55 890.4 267.7
Q 890.5 267.75 890.65 267.85
L 890.15 268.3 888.9 269.65
Q 888.35 270.55 887.85 271.35 887.35 272.2 887.05 272.7
L 886.85 273
Q 886.35 273.85 885.9 274.75 885.45 275.6 885.05 276.5
L 885 276.5
Q 881.85 283.4 881.15 290.95 880.5 298.55 882.15 306.05 883.8 313.5 887.65 320.05
L 887.9 320 887.85 320.45
Q 888.25 321.15 888.7 321.8 889.15 322.5 889.65 323.15 891.25 325.45 893.1 327.25 894.95 329.05 896.9 330.7
L 897 330.8
Q 897.6 331.35 898.2 331.9 898.8 332.4 899.4 333 899.65 333.2 899.9 333.45 900.15 333.7 900.45 333.95 900.5 334.05 900.7 334.2 900.85 334.35 901.05 334.55
L 905.3 336.6 912.6 339.2 920.15 340.9 930.45 341.8 940.75 341.2 950.85 339.2 960.6 335.75 969.65 330.85 971.8 329.4 977.85 324.5 979.7 322.7 984.6 316.9 988.55 310.4 991.3 303.3 992.35 298.35 992.75 293.25 992.45 288.2 991.5 283.2 988.75 276.1 987.55 273.85 983.1 267.65
M 973.95 276.7
Q 978.3 282.25 979.25 289.1 979.55 291.4 979.4 293.65 979.25 295.9 978.7 298.15 979.35 298.05 979.35 299 979.4 300 979.15 301.1 978.15 305.7 974.4 309.95 970.7 314.2 966 317.55 961.3 320.95 957.35 323 954.35 324.65 950.75 326.15 947.15 327.65 943.4 328.55 939.65 329.45 936.2 329.35
L 935.95 329.35 935.55 329.3
Q 935.1 329.2 934.7 329.05 935 328.75 935.5 328.55 936.05 328.35 936.25 328.3 936.7 328.2 937.15 328.05 937.6 327.95 938.05 327.85 937.8 327.85 937.55 327.9 937.3 327.95 937.05 327.95 927.45 329.15 918.8 327.7 910.15 326.25 903.2 322.6
L 903 322.5
Q 896.05 318.8 891.75 313.3 887.4 307.8 886.45 300.9 885.8 295.7 887.3 290.7 888.85 285.7 892.2 281.2 893.25 279.8 894.5 278.45 895.7 277.15 897.05 275.85 902.85 270.55 910.9 266.9 919 263.3 928.65 262.05 938.35 260.85 947.05 262.3 955.75 263.8 962.7 267.5 969.65 271.2 973.95 276.7
M 802.85 280.05
Q 797.55 283.9 793.8 288.55 790.05 293.15 788.1 298.4 786.2 303.7 786.4 309.35 786.65 315 789 320.2 791.35 325.35 795.5 329.85 799.65 334.3 805.3 337.95 810.95 341.55 817.75 344.1 824.6 346.65 832.35 347.95 840.1 349.25 848.45 349.1 856.8 348.9 864.45 347.3 872.05 345.7 878.65 342.9 885.3 340.1 890.6 336.25 891.75 335.45 892.75 334.65 893.8 333.8 894.8 332.9 892.25 331.05 890.1 328.75 887.95 326.4 886.2 323.75 884.85 325.45 883 327.15 881.1 328.8 879.25 330.2 877.35 331.6 876 332.6 872.25 335.3 867.45 337.6 862.65 339.9 857.5 341.25 852.4 342.6 847.7 342.45
L 847.4 342.45 846.9 342.4
Q 846.3 342.35 845.85 342.1 846.1 341.85 846.45 341.75 846.825 341.703125 846.95 341.7 846.390234375 341.70078125 845.8 341.75 845.2 341.8 844.55 341.8 843.95 341.85 843.4 341.85 842.8 341.9 842.25 341.9 833.2 341.95 825.25 339.75 817.3 337.6 811.1 333.65 804.45 329.4 800.6 323.65 796.7 317.85 796.35 311.05 796.1 304.2 799.4 298.1 802.75 292 808.95 287.25 815.15 282.5 823.5 279.6 831.85 276.7 841.55 276.2 851.3 275.85 859.9 278 868.45 280.2 875.05 284.4 876.05 285.05 876.95 285.7 877.9 286.35 878.75 287.05
L 879 287.3
Q 879.1 286.65 879.25 286 879.4 285.35 879.55 284.65 880.1 282.4 880.95 280.05 881.75 277.65 882.85 275.35 874.9 271.3 865.3 269.2 855.7 267.05 845.05 267.25 836.65 267.4 829.05 269 821.45 270.6 814.8 273.4 808.2 276.25 802.85 280.05 Z"/>

<path fill="#FFFFFF" stroke="none" d="
M 979.25 289.1
Q 978.3 282.25 973.95 276.7 969.65 271.2 962.7 267.5 955.75 263.8 947.05 262.3 938.35 260.85 928.65 262.05 919 263.3 910.9 266.9 902.85 270.55 897.05 275.85 895.7 277.15 894.5 278.45 893.25 279.8 892.2 281.2 888.85 285.7 887.3 290.7 885.8 295.7 886.45 300.9 887.4 307.8 891.75 313.3 896.05 318.8 903 322.5
L 903.2 322.6
Q 910.15 326.25 918.8 327.7 927.45 329.15 937.05 327.95 937.3 327.95 937.55 327.9 937.8 327.85 938.05 327.85 941.1 327.1 944.1 326.35 947.1 325.6 950.05 324.35 956.15 321.8 961.4 318.5 966.6 315.2 970.75 310.75 974.85 306.25 977.7 300.1
L 978 299.3
Q 978.3 298.7 978.55 298.15
L 978.7 298.15
Q 979.25 295.9 979.4 293.65 979.55 291.4 979.25 289.1
M 796.35 311.05
Q 796.7 317.85 800.6 323.65 804.45 329.4 811.1 333.65 817.3 337.6 825.25 339.75 833.2 341.95 842.25 341.9 842.8 341.9 843.4 341.85 843.95 341.85 844.55 341.8 845.2 341.8 845.8 341.75 846.390234375 341.70078125 846.95 341.7
L 847 341.7 847.1 341.65
Q 849.45 341.1 851.8 340.55 854.15 340 856.5 339.4 860.35 338.35 863.65 336.95 866.95 335.6 870.05 333.8 873.1 332 876.35 329.7 878.7 327.9 880.8 325.9 882.95 323.85 885.15 322 884.8 321.45 884.5 320.85 884.2 320.25 883.9 319.65 883.4 318.7 882.95 317.7 882.5 316.7 882.1 315.65 881.55 314.3 881.1 312.95 880.65 311.55 880.25 310.15 879.25 306.4 878.8 302.6 878.3 298.8 878.35 295.1 878.35 293.6 878.45 292.15 878.55 290.7 878.75 289.3 878.75 289 878.8 288.75 878.85 288.45 878.85 288.2 878.9 287.95 878.95 287.75 878.95 287.5 879 287.3
L 878.75 287.05
Q 877.9 286.35 876.95 285.7 876.05 285.05 875.05 284.4 868.45 280.2 859.9 278 851.3 275.85 841.55 276.2 831.85 276.7 823.5 279.6 815.15 282.5 808.95 287.25 802.75 292 799.4 298.1 796.1 304.2 796.35 311.05 Z"/>
</g>

<g id="Symbol_60_0_Layer0_0_FILL">
<path fill="#0081C6" stroke="none" d="
M 792.8 294.35
Q 791.8 293.3 790.6 293.3 789.45 293.3 788.4 294.35 787.4 295.4 786.6 297.3 785.85 299.15 785.4 301.65 785 304.1 784.95 306.95 785 309.8 785.4 312.25 785.85 314.7 786.6 316.6 787.4 318.45 788.4 319.5 789.45 320.55 790.6 320.6 791.8 320.55 792.8 319.5 793.85 318.45 794.6 316.6 795.4 314.7 795.8 312.25 796.25 309.8 796.25 306.95 796.25 304.1 795.8 301.65 795.4 299.15 794.6 297.3 793.85 295.4 792.8 294.35 Z"/>
</g>

<g id="Symbol_71_0_Layer0_0_FILL">
<path fill="#0081C6" stroke="none" d="
M 809.85 293.05
Q 808.65 293.1 807.65 294.15 806.6 295.2 805.85 297.05 805.05 298.95 804.65 301.4 804.2 303.85 804.2 306.7 804.2 309.55 804.65 312 805.05 314.5 805.85 316.35 806.6 318.25 807.65 319.3 808.65 320.35 809.85 320.35 811 320.35 812.05 319.3 813.05 318.25 813.85 316.35 814.6 314.5 815.05 312 815.45 309.55 815.5 306.7 815.45 303.85 815.05 301.4 814.6 298.95 813.85 297.05 813.05 295.2 812.05 294.15 811 293.1 809.85 293.05 Z"/>
</g>
</defs>



<g transform="matrix( 0.7232818603515625, 0.1900787353515625, -0.2268829345703125, 0.767578125, 384.6,102.1) ">
<g transform="matrix( 1, 0, 0, 1, 0,0) ">
<use xlink:href="#Symbol_30_0_Layer0_0_FILL"/>
</g>
</g>

<g transform="matrix( 0.629486083984375, -0.219940185546875, 0.219940185546875, 0.629486083984375, 191.05,447.8) ">
<g transform="matrix( 1, 0, 0, 1, 0,0) ">
<use xlink:href="#Symbol_28_0_Layer0_0_FILL"/>
</g>
</g>

<g transform="matrix( 0.6668548583984375, 0, 0, 0.6668548583984375, 372.85,207.6) ">
<g transform="matrix( 1, 0, 0, 1, 0,0) ">
<use xlink:href="#Symbol_101_0_Layer0_0_FILL"/>
</g>
</g>

<g transform="matrix( 0.6593475341796875, 0.249420166015625, -0.249420166015625, 0.6593475341796875, 537.15,-96.05) ">
<g transform="matrix( 1, 0, 0, 1, 0,0) ">
<use xlink:href="#Symbol_40_0_Layer0_0_FILL"/>
</g>
</g>

<g transform="matrix( 0.6593475341796875, 0.249420166015625, -0.249420166015625, 0.6593475341796875, 537.15,-96.05) ">
<g transform="matrix( 1, 0, 0, 1, 0,0) ">
<use xlink:href="#Symbol_102_0_Layer0_0_FILL"/>
</g>
</g>

<g transform="matrix( 0.6991424560546875, -0.09027099609375, 0.09027099609375, 0.6991424560546875, 287.05,261.85) ">
<g transform="matrix( 1, 0, 0, 1, 0,0) ">
<use xlink:href="#Symbol_42_0_Layer0_0_FILL"/>
</g>
</g>

<g transform="matrix( 0.704437255859375, 0.0268096923828125, -0.0268096923828125, 0.704437255859375, 348.1,133.2) ">
<g transform="matrix( 1, 0, 0, 1, 0,0) ">
<use xlink:href="#Symbol_43_0_Layer0_0_FILL"/>
</g>
</g>

<g transform="matrix( 0.704437255859375, 0.0268096923828125, -0.0268096923828125, 0.704437255859375, 348.1,133.2) ">
<g transform="matrix( 1, 0, 0, 1, 0,0) ">
<use xlink:href="#Symbol_44_0_Layer0_0_FILL"/>
</g>
</g>

<g transform="matrix( 0.4971771240234375, 0.1892852783203125, -0.216217041015625, 0.5679168701171875, 596.7,142.05) ">
<g transform="matrix( 1, 0, 0, 1, 0,0) ">
<use xlink:href="#Symbol_29_0_Layer0_0_FILL"/>
</g>
</g>

<g transform="matrix( 0.3941802978515625, 0.5595855712890625, -0.56048583984375, 0.3931427001953125, 800.65,-95.25) ">
<g transform="matrix( 1, 0, 0, 1, 0,0) ">
<use xlink:href="#Symbol_111_0_Layer0_0_FILL"/>
</g>
</g>

<g transform="matrix( 0.667144775390625, 0, -0.1879425048828125, 0.699127197265625, 556.5,237.95) ">
<g transform="matrix( 1, 0, 0, 1, 0,0) ">
<use xlink:href="#Symbol_103_0_Layer0_0_FILL"/>
</g>
</g>

<g transform="matrix( 0.667144775390625, 0, -0.1879425048828125, 0.699127197265625, 496.05,237.6) ">
<g transform="matrix( 1, 0, 0, 1, 0,0) ">
<use xlink:href="#Symbol_32_0_Layer0_0_FILL"/>
</g>
</g>

<g transform="matrix( 0.667144775390625, 0, 0, 0.699127197265625, 220.25,256.2) ">
<g transform="matrix( 1, 0, 0, 1, 0,0) ">
<use xlink:href="#Symbol_112_0_Layer0_0_FILL"/>
</g>
</g>

<g transform="matrix( 0.6493072509765625, 0.1605377197265625, -0.1531982421875, 0.680450439453125, 414.05,98.9) ">
<g transform="matrix( 1, 0, 0, 1, 0,0) ">
<use xlink:href="#Symbol_33_0_Layer0_0_FILL"/>
</g>
</g>

<g transform="matrix( 0.6479644775390625, -0.0684356689453125, 0.070068359375, 0.6634521484375, 313.1,337.7) ">
<g transform="matrix( 1, 0, 0, 1, 0,0) ">
<use xlink:href="#Symbol_105_0_Layer0_0_FILL"/>
</g>
</g>

<g transform="matrix( 0.57086181640625, 0.3454132080078125, -0.3454132080078125, 0.57086181640625, 568.75,5.5) ">
<g transform="matrix( 1, 0, 0, 1, 0,0) ">
<use xlink:href="#Symbol_106_0_Layer0_0_FILL"/>
</g>
</g>

<g transform="matrix( 0.646209716796875, 0.3042144775390625, -0.263916015625, 0.56060791015625, 465.55,25.1) ">
<g transform="matrix( 1, 0, 0, 1, 0,0) ">
<use xlink:href="#Symbol_107_0_Layer0_0_FILL"/>
</g>
</g>

<g transform="matrix( 0.57086181640625, 0.3454132080078125, -0.3454132080078125, 0.57086181640625, 594.4,13.15) ">
<g transform="matrix( 1, 0, 0, 1, 0,0) ">
<use xlink:href="#Symbol_108_0_Layer0_0_FILL"/>
</g>
</g>

<g transform="matrix( -0.2020416259765625, -0.0148162841796875, -0.00811767578125, 0.1202392578125, 1172.2,354.6) ">
<g transform="matrix( 1, 0, 0, 1, 0,0) ">
<use xlink:href="#Symbol_113_0_Layer0_0_FILL"/>
</g>
</g>

<g transform="matrix( -0.134124755859375, 0.025238037109375, 0.025238037109375, 0.134124755859375, 1089.2,307.3) ">
<g transform="matrix( 1, 0, 0, 1, 0,0) ">
<use xlink:href="#Symbol_16_0_Layer0_0_FILL"/>
</g>
</g>

<g transform="matrix( -0.126190185546875, -0.0519561767578125, -0.0519561767578125, 0.126190185546875, 1134.6,384.6) ">
<g transform="matrix( 1, 0, 0, 1, 0,0) ">
<use xlink:href="#Symbol_64_0_Layer0_0_FILL"/>
</g>
</g>

<g transform="matrix( -0.142333984375, -0.0440826416015625, -0.0440826416015625, 0.142333984375, 1144.55,364.3) ">
<g transform="matrix( 1, 0, 0, 1, 0,0) ">
<use xlink:href="#Symbol_83_0_Layer0_0_FILL"/>
</g>
</g>

<g transform="matrix( -0.09564208984375, -0.0704193115234375, -0.0704193115234375, 0.09564208984375, 1118.55,413.35) ">
<use xlink:href="#Layer0_22_FILL"/>
</g>

<g transform="matrix( 1.027099609375, 0.023193359375, -0.023193359375, 1.027099609375, 28.05,33.6) ">
<use xlink:href="#Layer0_23_FILL"/>
</g>

<g transform="matrix( -0.127655029296875, 1.013885498046875, -0.9694671630859375, -0.0948333740234375, 1267.9,-409.55) ">
<g transform="matrix( 1, 0, 0, 1, 0,0) ">
<use xlink:href="#Symbol_60_0_Layer0_0_FILL"/>
</g>
</g>

<g transform="matrix( -0.0627593994140625, -1.02545166015625, 1.02545166015625, -0.0627593994140625, 689.2,1210) ">
<g transform="matrix( 1, 0, 0, 1, 0,0) ">
<use xlink:href="#Symbol_71_0_Layer0_0_FILL"/>
</g>
</g>
</svg>
