
<svg xmlns="http://www.w3.org/2000/svg" version="1.1" xmlns:xlink="http://www.w3.org/1999/xlink" preserveAspectRatio="none" x="0px" y="0px" width="760px" height="880px" viewBox="614 10 760 880">
<defs>


<g id="Symbol_28_0_Layer0_0_FILL">
<path fill="#FFFFFF" stroke="none" d="
M 656.95 766.95
L 648.9 766.15
Q 647.3 766.15 646.3 767.25 645.25 768.35 645.2 769.8 645.15 771.3 646.5 772.5
L 649.1 773.9 654.55 776.1
Q 661.45 778.7 672.95 780.7 684.4 782.7 699.15 781.9 713.85 781.15 730.65 775.45 742.3 771.1 752.6 762.8 762.95 754.5 770.9 745.45 778.9 736.4 783.5 729.9
L 788.3 722.65 787.25 721.25 784.35 718.45
Q 780.55 714.95 775.95 710.9 771.3 706.9 768.6 704.6 766.5 707.95 761.25 715.5 756 723 748.5 732 741.05 741.05 732.35 748.9 723.6 756.75 714.6 760.8 704.7 764.9 693.85 766.4 683 767.85 673.25 767.75 663.55 767.6 656.95 766.95 Z"/>
</g>

<g id="Symbol_10_0_Layer0_0_FILL">
<path fill="#0075c9" stroke="none" d="
M 1005.65 543.5
L 1001.25 543.5 1001.25 545.8
Q 999.95 544.35 998.5 543.65 997.05 542.95 995.4 542.95 993.5 542.95 991.9 543.7 990.3 544.45 989.05 545.9 987.8 547.35 987.15 549.2 986.55 551.05 986.55 553.25 986.55 555.5 987.15 557.35 987.8 559.2 989.05 560.7 990.35 562.2 991.95 562.9 993.55 563.65 995.5 563.65 997.05 563.65 998.5 563 999.95 562.35 1001.25 561.05
L 1001.25 563.1 1005.65 563.1 1005.65 543.5
M 1001.55 553.35
Q 1001.55 554.7 1001.15 555.85 1000.8 557 1000.05 557.9 999.3 558.75 998.35 559.15 997.35 559.6 996.15 559.6 995.05 559.6 994.1 559.15 993.15 558.7 992.4 557.8 991.7 556.95 991.35 555.8 990.95 554.65 990.95 553.25 990.95 551.9 991.35 550.8 991.7 549.7 992.45 548.8 993.2 547.95 994.15 547.5 995.1 547.05 996.2 547.05 997.4 547.05 998.35 547.5 999.3 547.9 1000.05 548.8 1000.8 549.7 1001.15 550.8 1001.55 551.95 1001.55 553.35
M 980.35 543.45
Q 979.9 543.7 979.35 544.15 978.85 544.6 978.25 545.25
L 978.25 543.5 973.9 543.5 973.9 563.1 978.25 563.1 978.25 552.95
Q 978.25 550.15 979.1 548.75 980 547.35 981.8 547.35 982.35 547.35 982.95 547.6 983.6 547.8 984.2 548.25
L 986.2 544.15
Q 985.25 543.55 984.35 543.25 983.45 542.95 982.6 542.95 981.95 542.95 981.4 543.1 980.85 543.2 980.35 543.45
M 1016.6 543.45
Q 1016.15 543.7 1015.65 544.15 1015.1 544.65 1014.45 545.3
L 1014.45 543.5 1010.15 543.5 1010.15 563.1 1014.45 563.1 1014.45 553
Q 1014.45 551.45 1014.7 550.3 1014.9 549.2 1015.3 548.45 1015.75 547.75 1016.4 547.4 1017.05 547.05 1018 547.05 1019.45 547.05 1020.15 548.35 1020.9 549.65 1020.9 552.25
L 1020.9 563.1 1025.25 563.1 1025.25 553
Q 1025.25 551.4 1025.45 550.3 1025.65 549.15 1026.05 548.45 1026.45 547.75 1027.1 547.4 1027.75 547.05 1028.65 547.05 1029.45 547.05 1030 547.35 1030.55 547.65 1030.9 548.25 1031.25 548.8 1031.4 549.8 1031.55 550.8 1031.55 552.2
L 1031.55 563.1 1035.9 563.1 1035.9 551
Q 1035.9 546.95 1034.35 544.95 1032.75 542.95 1029.55 542.95 1027.8 542.95 1026.45 543.7 1025.05 544.4 1024.05 545.85 1023.1 544.4 1021.85 543.7 1020.6 542.95 1019 542.95 1018.3 542.95 1017.7 543.1 1017.1 543.2 1016.6 543.45
M 920.15 543.5
Q 918.9 542.95 917.25 542.95 915.8 542.95 914.55 543.55 913.25 544.15 912.1 545.3
L 912.1 543.5 907.75 543.5 907.75 563.1 912.1 563.1 912.1 553.65
Q 912.1 551.8 912.35 550.55 912.55 549.25 913 548.55 913.45 547.8 914.25 547.4 915 547.05 916.05 547.05 917.05 547.05 917.75 547.35 918.45 547.6 918.8 548.15 919.2 548.7 919.4 549.7 919.6 550.7 919.6 552.15
L 919.6 563.1 923.95 563.1 923.95 551.1
Q 923.95 549 923.55 547.5 923.15 546.05 922.35 545.1 921.45 544.05 920.15 543.5
M 903.25 543.5
L 898.9 543.5 898.9 563.1 903.25 563.1 903.25 543.5
M 900 538.1
Q 900.5 538.35 901.1 538.35 901.65 538.35 902.15 538.1 902.65 537.9 903.05 537.45 903.5 537.05 903.7 536.5 903.9 536 903.9 535.4 903.9 534.75 903.7 534.25 903.5 533.75 903.05 533.3 902.65 532.9 902.15 532.65 901.65 532.45 901.05 532.45 900.5 532.45 900 532.65 899.5 532.9 899.05 533.3 898.65 533.75 898.45 534.25 898.25 534.75 898.25 535.35 898.25 536 898.45 536.5 898.65 537.05 899.05 537.45 899.5 537.9 900 538.1
M 941.45 543.7
Q 939.65 542.95 937.55 542.95 935.5 542.95 933.7 543.7 931.9 544.45 930.45 545.95 929 547.45 928.3 549.25 927.55 551.05 927.55 553.15 927.55 555.4 928.25 557.3 929 559.15 930.4 560.65 931.85 562.15 933.6 562.9 935.4 563.65 937.5 563.65 939.6 563.65 941.4 562.9 943.25 562.15 944.7 560.7 946.15 559.2 946.9 557.35 947.6 555.5 947.6 553.3 947.6 551.15 946.9 549.3 946.15 547.45 944.7 545.95 943.25 544.45 941.45 543.7
M 943.15 553.35
Q 943.15 554.75 942.8 555.9 942.4 557.05 941.65 557.9 940.9 558.75 939.85 559.2 938.85 559.6 937.55 559.6 936.3 559.6 935.3 559.15 934.25 558.75 933.5 557.9 932.75 557 932.35 555.85 932 554.7 932 553.25 932 551.85 932.4 550.75 932.75 549.65 933.55 548.8 934.3 547.9 935.3 547.45 936.35 547.05 937.55 547.05 938.85 547.05 939.85 547.45 940.85 547.9 941.65 548.8 942.4 549.65 942.8 550.75 943.15 551.9 943.15 553.35
M 962.4 543.65
Q 960.9 542.95 959.15 542.95 957.1 542.95 955.5 543.75 953.85 544.55 952.6 546.15 951.45 547.65 950.9 549.45 950.3 551.3 950.3 553.4 950.3 555.6 950.95 557.45 951.55 559.3 952.8 560.75 954 562.2 955.6 562.9 957.15 563.65 959.1 563.65 960.8 563.65 962.25 562.95 963.75 562.25 965.05 560.9
L 965.05 563.65
Q 965.05 566.65 963.85 568.2 962.65 569.7 960.3 569.7 959 569.7 958 569.25 957 568.8 956.35 567.85 956.05 567.5 955.85 566.9 955.65 566.35 955.5 565.65
L 951.15 565.65
Q 951.35 567.55 952.05 569.05 952.8 570.55 954.05 571.65 955.25 572.7 956.8 573.25 958.35 573.8 960.25 573.8 962.5 573.8 964.25 573 966 572.25 967.25 570.75 967.95 569.95 968.4 569 968.85 568.05 969.05 566.95 969.15 566.55 969.2 566.05 969.25 565.6 969.3 565.05 969.35 564.55 969.35 563.95 969.4 563.3 969.4 562.6
L 969.4 543.5 965.05 543.5 965.05 545.7
Q 963.85 544.35 962.4 543.65
M 965.2 553.35
Q 965.2 554.7 964.9 555.8 964.55 556.85 963.9 557.75 963.15 558.65 962.2 559.15 961.2 559.6 959.95 559.6 958.7 559.6 957.75 559.15 956.75 558.7 956.05 557.75 955.4 556.9 955.1 555.8 954.75 554.7 954.75 553.35 954.75 552 955.1 550.9 955.4 549.8 956.05 548.95 956.75 548 957.75 547.5 958.7 547.05 959.95 547.05 961.1 547.05 962.05 547.5 963 547.9 963.75 548.8 964.5 549.65 964.85 550.8 965.2 551.9 965.2 553.35
M 887.65 542.95
Q 886.25 542.95 885 543.5 883.7 544.05 882.55 545.15
L 882.55 534 878.2 534 878.2 563.1 882.55 563.1 882.55 553.6
Q 882.55 551.8 882.8 550.55 883 549.25 883.45 548.5 883.9 547.8 884.7 547.4 885.55 547.05 886.65 547.05 887.55 547.05 888.2 547.3 888.85 547.55 889.25 548.1 889.65 548.65 889.85 549.5 890.05 550.35 890.05 551.5
L 890.05 563.1 894.4 563.1 894.4 551.1
Q 894.4 549.05 894 547.55 893.6 546.05 892.75 545.1 891.8 544.05 890.55 543.5 889.25 542.95 887.65 542.95
M 868.15 543.5
L 863.8 543.5 863.8 563.1 868.15 563.1 868.15 552.95
Q 868.15 550.15 869.05 548.75 869.95 547.35 871.7 547.35 872.3 547.35 872.9 547.6 873.5 547.8 874.15 548.25
L 876.1 544.15
Q 875.2 543.55 874.3 543.25 873.4 542.95 872.5 542.95 871.85 542.95 871.3 543.1 870.75 543.2 870.3 543.45 869.8 543.7 869.3 544.15 868.75 544.6 868.15 545.25
L 868.15 543.5 Z"/>
</g>

<g id="Symbol_29_0_Layer0_0_FILL">
<path fill="#FFFFFF" stroke="none" d="
M 927.6 155.25
Q 919.9 157.4 912.5 160.95 905.1 164.5 899.6 168.2 894.1 171.9 892.1 174.45 890.65 176.9 889.1 184 887.55 191.1 886.2 199.45 884.9 207.8 884.1 213.85
L 883.25 220.15 886.85 220.55
Q 890.25 220.9 893.75 221.15
L 896.55 221.25 897.9 221.15
Q 909.4 211.7 918.1 202.95 926.8 194.25 932.05 187.8
L 936.35 182.3 938.55 178.7
Q 939.75 175.9 940.75 170.55 941.8 165.2 942.15 160.2
L 942.2 156.1 941.7 153.65
Q 935.3 153.1 927.6 155.25 Z"/>
</g>

<g id="Symbol_30_0_Layer0_0_FILL">
<path fill="#FFFFFF" stroke="none" d="
M 982.7 196.45
Q 985.4 193.2 987.1 190.55
L 988.4 188.3 988.85 186.9
Q 984.8 184.8 978.9 183.9 972.95 183.05 966.7 183.05 960.45 183.1 955.45 183.75 950.4 184.4 948.15 185.35 946.3 186.4 942.55 190.3 938.8 194.2 934.75 198.95 930.65 203.7 927.75 207.15
L 924.7 210.8 926.7 212.15
Q 928.55 213.35 930.55 214.55
L 932.15 215.45 933 215.75
Q 944.4 213.9 951.85 212.6 959.25 211.3 963.9 210 968.55 208.75 971.65 207 974.15 205.55 977.05 202.65 980 199.75 982.7 196.45 Z"/>
</g>

<g id="Symbol_31_0_Layer0_0_FILL">
<path fill="#0075c9" stroke="none" d="
M 946.55 538.8
Q 946.35 541 946.2 543.35 946 545.65 945.8 548.05 944.9 559.8 943.75 573.1 942.65 586.35 941.4 600.75 940.2 615.1 939.05 630 937.95 643.8 936.7 657.2 935.45 670.65 934.05 683.15 932.6 695.7 931 706.8 929.5 717.5 927.8 726.45 926.15 735.4 924.35 742.15 924.25 742.6 924.1 743.1 924 743.55 923.85 744
L 923.75 744.4
Q 923.4 744.95 922.75 745.7 922.05 746.45 921 747.3 918.25 749.65 912.9 752.3 907.55 754.95 899.4 757.1 891.2 759.25 880 760 878.75 760.1 877.55 760.1 876.35 760.15 875.15 760.15 864.35 760.1 855.55 757.95 846.8 755.75 840.55 752.85 834.25 749.95 831.1 747.65 829.8 746.75 829.05 746.1
L 828.5 745.55 828.25 745.15
Q 827.95 744.2 827.65 743.25
L 827.05 741.4
Q 816.9 709.7 811.1 677.3 805.3 644.95 802.8 614.05 800.25 583.2 800.1 556.15 799.95 529.05 801.15 508 799.3 522.15 798.55 536 797.85 549.85 797.9 563.8 797.9 577.8 798.3 592.45 798.4 595.7 798.4 598.95 798.4 602.2 798.4 605.45 800.35 630.65 804.2 655.5 808.1 680.35 813.75 704.05 815.95 713.3 818.45 722.55 820.9 731.8 823.9 740.95 824.7 743.35 825.5 745.7 826.35 748.1 827.25 750.45 828.75 751.75 830.4 752.85 832.05 754 833.75 755 837.35 757.1 841.25 758.75 845.1 760.4 849.05 761.7
L 850.05 762.05
Q 850.85 762.3 851.55 762.35 852.5 762.6 853.55 762.9
L 854.9 763.25
Q 864.7 765.65 875 765.45 885.3 765.2 895.3 762.5 901.3 761.35 907.15 759.45 913 757.55 918.1 754.95 923.15 752.4 926.75 749.15 928.1 747.9 928.55 746.65 928.95 745.45 928.65 744.4 930.45 739.95 931.65 733.8 932.85 727.65 933.65 721.75 934.45 715.85 935.05 712.15 937.7 695.9 939 679.5 940.35 663.15 941.4 646.7 941.65 643.25 941.85 639.85 942.05 636.4 942.2 632.95 943.35 619.2 944.25 605.45 945.2 591.7 945.9 577.95 946.3 571.9 946.85 565.2 947.4 558.55 947.1 552.4 947.3 548.35 947.15 544.75 947.05 541.15 946.55 538.8 Z"/>

<path fill="#FFFFFF" stroke="none" d="
M 940.7 479.85
Q 934.75 469.6 924.95 459.6 915.15 449.65 902.45 442.75 889.75 435.85 875.15 434.65 859.6 433.7 844.75 436.4 829.9 439.05 819.3 445.1 808.75 451.1 806.15 460.2 805.45 462.9 804.55 469.4 803.65 475.9 802.75 485.65 801.85 495.4 801.15 508 799.95 529.05 800.1 556.15 800.25 583.2 802.8 614.05 805.3 644.95 811.1 677.3 816.9 709.7 827.05 741.4
L 827.65 743.25
Q 827.95 744.2 828.25 745.15
L 828.5 745.55 829.05 746.1
Q 829.8 746.75 831.1 747.65 834.25 749.95 840.55 752.85 846.8 755.75 855.55 757.95 864.35 760.1 875.15 760.15 876.35 760.15 877.55 760.1 878.75 760.1 880 760 891.2 759.25 899.4 757.1 907.55 754.95 912.9 752.3 918.25 749.65 921 747.3 922.05 746.45 922.75 745.7 923.4 744.95 923.75 744.4
L 923.85 744
Q 924 743.55 924.1 743.1 924.25 742.6 924.35 742.15 926.15 735.4 927.8 726.45 929.5 717.5 931 706.8 932.6 695.7 934.05 683.15 935.45 670.65 936.7 657.2 937.95 643.8 939.05 630 940.2 615.1 941.4 600.75 942.65 586.35 943.75 573.1 944.9 559.8 945.8 548.05 946 545.65 946.2 543.35 946.35 541 946.55 538.8 947.6 524 948 513.55 948.4 503.05 947.75 498.05 946.65 490.15 940.7 479.85 Z"/>
</g>

<g id="Symbol_32_0_Layer0_0_FILL">
<path fill="#0075c9" stroke="none" d="
M 943.65 840.8
Q 942.6 838.75 942.2 837.35 941.45 834.6 941.05 831.85 940.7 829.05 940.15 826.35
L 939.65 824.85 939.1 824.45
Q 938.5 824.55 938.05 825.8 937.65 827 937.65 828.25 937.8 831.4 938.75 835.75 939.7 840.1 941.85 843.7 943.95 847.3 947.65 848.15 951.1 848.6 953.45 845.55 955.8 842.55 957.1 838.5 958.4 834.45 958.75 831.75 958.9 830.75 958.95 828.85 959 826.95 958.7 825.25 958.4 823.5 957.45 822.95
L 957.25 822.9
Q 957.1 822.9 957.05 822.95 956.7 823.3 956.6 823.8
L 956.45 824.5
Q 956.2 826.4 956.15 828.4 956.15 830.4 955.8 832.35 955.5 834.05 954.65 836.85 953.8 839.65 952.5 842.15 951.2 844.6 949.5 845.25 947.75 845.7 946.2 844.3 944.7 842.85 943.65 840.8 Z"/>
</g>

<g id="Symbol_33_0_Layer0_0_FILL">
<path fill="#0075c9" stroke="none" d="
M 943.35 838.65
Q 942.15 836.05 941.4 832.95 940.6 829.9 939.6 827.1
L 939.2 826.4 938.9 826.25
Q 938.6 826.4 938.45 827.1 938.3 827.8 938.3 828.5 938.5 831.6 939.5 835.45 940.5 839.25 942.25 842.4 943.95 845.55 946.3 846.7 950.3 848.25 953.15 845.6 956 842.95 957.6 838.15 959.2 833.4 959.35 828.65 959.35 827.95 959.35 826.95 959.3 825.95 959.1 825.15 958.85 824.4 958.4 824.45 958.25 824.75 958.1 825.1
L 957.95 825.6
Q 957.35 827.6 957.1 829.8 956.8 831.95 956.3 834.1 955.15 838.55 953 841.25 950.85 843.95 948.25 843.6 945.7 843.25 943.35 838.65 Z"/>
</g>

<g id="Layer0_7_FILL">
<path fill="#FFFFFF" stroke="none" d="
M 890.8 407.6
Q 876.45 403.7 861.5 402.45 846.55 401.25 831.75 403.05 816.95 404.8 803.1 409.85 774.05 417.2 750.75 435.1 727.5 453 709.4 477.5 691.3 502 677.85 529.15 664.35 556.3 654.95 582.1 641.85 617.05 633.6 653.1 625.35 689.2 622.85 726.1 620.35 762.95 624.55 800.35 625.7 810.85 627.5 820.45 629.3 830.05 632.5 839.3 635.7 848.55 640.9 858.05 642.05 860.1 644.25 864.2 646.4 868.3 649.15 872.7 651.9 877.15 654.75 880.25 657.55 883.35 659.95 883.45
L 660.4 883.4
Q 661.95 884 664.05 884.4 666.15 884.8 668.05 885.1 669.95 885.35 670.85 885.55 684.75 888.55 699.4 889.9 714.1 891.25 728.8 891.75 743.5 892.3 757.6 892.75 760.65 892.9 766.4 893 772.15 893.1 777.7 892.75 783.2 892.45 785.65 891.35 787.7 890.3 787.9 889.4 788.1 888.5 787.15 887.8 787.25 887.15 787.2 886.4 787.1 885.65 786.9 884.75 784.75 875.85 782.75 867.2 780.7 858.55 779.25 849.8 777.75 841.05 777.25 831.85 776.7 820.15 776.7 807.45 776.75 794.8 777.7 782.15 778.65 769.45 780.9 757.7 782.3 749.9 785.1 745.1 787.85 740.35 792.85 739.05 797.8 737.75 805.8 740.45 814.25 746.55 821.25 757.15 828.25 767.75 833.5 779.15 838.75 790.5 841.95 798.9 846.8 811.1 849.75 822.9 852.65 834.7 854.1 846.75 855.55 858.85 856.05 871.85 856.1 874.4 856.55 880.2 857 886 857.9 891.45 858.8 896.95 860.3 898.7 861.4 899.8 862.15 899.75 862.9 899.75 863.25 899 863.55 899.15 863.9 899.3 864.2 899.45 864.6 899.55 877.7 903.75 892.55 905.5 907.4 907.25 922.5 907.75 937.6 908.25 951.35 908.7 952.55 908.75 953.9 908.7 955.3 908.6 956.2 908 957.1 907.45 956.95 905.9 957.1 905.85 957.25 905.75 957.45 905.65 957.6 905.55
L 958.9 903.4 960.2 899.45
Q 961.4 894.55 962.35 889.25 963.3 883.95 963.75 881.6 966.15 869.8 967.95 858.6 969.7 847.45 972.6 836.6 975.55 825.7 981.3 815 986.2 806 991.6 798.05 996.95 790.15 1003.5 783.15 1010 776.15 1018.35 770.05 1018.75 769.8 1019.4 769.3 1020.05 768.8 1020.9 768.15 1021.25 770.5 1022.8 771.25 1024.35 772 1026.6 770.8 1028.8 769.55 1031.15 766 1046.8 741.55 1064.5 719.55 1082.2 697.55 1102.65 677.1 1104.55 675.2 1106.5 673.3 1108.45 671.4 1110.4 669.5 1111.75 671.1 1115 670.7 1118.25 670.25 1122.35 667.05 1129.95 660.9 1135.25 654.1 1140.55 647.25 1143.45 639.25 1146.4 631.2 1146.95 621.45 1147.45 611.65 1144.2 603.2 1141 594.7 1135.35 587.2 1129.7 579.75 1122.85 572.9
L 1122 572.05
Q 1121.25 571.4 1120.65 570.8 1119.95 570.05 1119.15 569.15
L 1118.1 568.05
Q 1102.7 553.2 1086.45 539.05 1070.2 524.95 1054.2 510.75 1031.15 489.85 1005 469.45 978.85 449.05 950.15 432.65 921.45 416.3 890.8 407.6
M 642.3 882.95
Q 641.95 883.1 641.8 883.5 641.65 883.95 641.9 884.3 642.9 885.25 643.6 884.85 644.35 884.45 644.2 883.95 644.3 883.2 643.6 882.85 642.9 882.55 642.3 882.95 Z"/>
</g>

<g id="Layer0_8_FILL">
<path fill="#FFFFFF" stroke="none" d="
M 1088.6 275.6
Q 1077.95 272.8 1073.6 265.4 1069.3 258.05 1067.5 250.45 1065.75 242.85 1062.75 239.25 1059.75 235.6 1051.75 240.25 1047.1 243.05 1041.2 244.3 1035.35 245.55 1027.4 245.8 1019.45 246.05 1008.45 245.9 998.4 245.6 981.75 241.05 965.1 236.55 944.2 230.05 923.3 223.6 900.5 217.4 877.7 211.2 855.3 207.55 833.25 205.3 819.55 225.3 805.85 245.35 798.65 273.35 791.45 301.35 788.85 323.1
L 786.4 346 788.9 353.6
Q 791.2 360.65 797.6 371.65 804 382.7 816.5 395.15 828.95 407.65 849.55 419.05 876.4 433.45 897.7 442.75 919.05 452.05 935.7 457.5 952.35 462.95 965.1 465.8 991.8 471.8 1015.15 472.15 1038.45 472.45 1058.35 468.85 1078.2 465.3 1094.45 459.5 1110.7 453.75 1123.2 447.6 1139.45 439.6 1152.6 425 1165.7 410.35 1175.3 391.3 1184.85 372.2 1190.4 350.9 1195.9 329.6 1196.9 308.3 1198.3 274.4 1196.75 253.95 1195.25 233.45 1192.95 223.55
L 1189.7 211.5
Q 1185.35 199.75 1177.2 209 1169 218.2 1156.65 235.7 1144.25 253.2 1127.35 266.35 1110.4 279.5 1088.6 275.6 Z"/>
</g>

<g id="Layer0_9_FILL">
<path fill="#0075c9" stroke="none" d="
M 975.35 356.5
Q 975.65 356.6 975.9 356.6 977.15 357.9 978.05 357.55 978.95 357.2 978.9 355.75 978.8 354.25 977.25 352.05 976.1 350.55 974.2 348.65 972.35 346.75 970.35 345.05 968.4 343.35 966.95 342.35
L 966.7 342.2
Q 966.5 342.1 966.3 342 965.85 341.65 965.3 341.2
L 964.65 340.65
Q 958.9 336.35 952.25 333.2 945.65 330 938.95 328.25 932.3 326.5 926.25 326.55 926 326.55 925.45 326.6 924.9 326.65 924.65 327.15 924.9 327.9 925.6 328.25 926.35 328.65 927.05 328.75
L 927.85 328.9
Q 935.6 331 942.65 333.55 949.7 336.1 956.55 340.2 963.45 344.25 970.75 350.9
L 971.2 351.3
Q 971.4 351.5 971.55 351.65 967.15 349.7 962.5 348.95 957.85 348.15 953.8 349.15 953.35 349.3 952.95 349.4 952.5 349.5 952.1 349.7
L 951.8 349.75
Q 951.55 349.85 951.4 349.95 952 350.75 953.15 350.8
L 954.5 350.8
Q 959.45 350.7 964.7 351.95 969.9 353.15 974.8 356.2 975.1 356.35 975.35 356.5 Z"/>
</g>

<g id="Symbol_34_0_Layer0_0_FILL">
<path fill="#FFFFFF" stroke="none" d="
M 986.25 295.45
Q 983.9 288.7 978.35 283.8 972.85 278.85 963.05 277.05 953.1 275.55 946.15 278.6 939.15 281.7 934.5 287.45 929.85 293.25 927 299.8 924.15 306.3 922.45 311.7 931.35 312.7 942.55 314.6 953.75 316.45 965.55 318.7 977.3 320.9 987.9 323.05 988.85 316.6 988.7 309.4 988.55 302.15 986.25 295.45 Z"/>
</g>

<g id="Symbol_35_0_Layer0_0_FILL">
<path fill="#82bc00" stroke="none" d="
M 1313.1 839.9
Q 1306.9 831.3 1300.9 821.95 1294.9 812.6 1289.3 802.95 1285.75 796.9 1282.45 790.95 1279.1 784.95 1276 779.1 1252.4 734.9 1235.05 688.3 1217.7 641.7 1206.35 592.5 1198.85 559.75 1193.75 526.5 1188.7 493.2 1185.75 459.5 1185.1 452.55 1184.35 446 1183.55 439.5 1183.15 432.95 1183.05 430.8 1183 428.6 1182.95 426.45 1183 424.2
L 1183.05 424.05
Q 1184.65 419.6 1186.6 413.55 1188.55 407.5 1187.75 402.6 1186.95 397.65 1180.3 396.45
L 1180.15 396.1
Q 1179.6 395.4 1178.85 395.7 1178.05 395.95 1177.3 395.8
L 1175.65 396.3 1175.6 396.3
Q 1174.55 396.3 1173.4 396.4
L 1171.95 396.55
Q 1166.2 397.4 1160.85 398.7 1155.5 400.05 1150.4 401.75 1145.5 402.85 1141.15 404.4 1136.75 405.9 1133.55 408.05 1130.25 409.4 1126.9 410.8 1123.55 412.2 1120.15 413.6 1103.65 417.25 1086.2 425.15 1068.75 433 1054.1 440.85 1048.4 443.8 1043.45 447.25 1038.5 450.75 1034.35 454.7 1026.55 462.05 1021.35 470.95 1016.15 479.8 1013.6 490.05 1013.05 490.9 1012.65 491.65
L 1012.2 492.6
Q 1010.2 498.05 1009.7 504.25 1009.2 510.45 1008.5 516.25 1003.8 547.35 1007.1 577.25 1010.35 607.1 1022.55 635.15 1024.1 638.6 1025.75 642.05 1027.4 645.45 1029.2 648.85 1037.7 665.7 1049.95 681.2 1062.15 696.75 1080.25 703.75 1085.9 706.65 1092.1 708.05 1098.35 709.45 1105.15 709.05 1105.5 709.05 1105.8 709 1106.1 709 1106.4 708.95 1118.25 737.4 1134.5 763.95 1150.75 790.5 1171.95 812.05 1183.2 823.45 1199.35 831.55 1215.55 839.7 1231.75 837.7 1234.65 841.3 1237.5 844.75 1240.35 848.2 1243.05 851.35 1253.1 863.25 1267.35 875.25 1281.55 887.25 1297.5 896.15 1313.45 905 1328.6 907.5 1331.35 907.95 1336.35 908 1341.4 908.1 1345.6 906.75 1349.8 905.35 1350.1 901.45 1351.1 902.6 1352 903.4 1352.95 904.25 1353.6 904.35 1353.8 904.4 1354.2 904.35 1354.65 904.35 1354.9 904.1 1354.95 902.9 1354.25 901.6 1353.5 900.35 1353.15 899.85 1343.7 883.9 1333.75 869.25 1323.75 854.6 1313.1 839.9
M 1019.4 572.3
L 1019.45 572.5 1019.45 572.65 1019.4 572.3 Z"/>

<path fill="#0075c9" stroke="none" d="
M 1034.35 454.7
Q 1034.3 454.2 1034.15 453.7 1034 453.15 1033.4 453.1 1032.65 454 1031.9 455.15
L 1030.9 456.65
Q 1026.35 461.65 1021.85 465.6 1017.35 469.55 1013.95 475.6 1001.8 499.9 999.3 529.1 996.8 558.25 1000.55 587.75 1004.35 617.25 1011 642.55 1014.8 656.85 1020.45 671.2 1026.1 685.55 1031.9 699.15 1032.45 700.65 1033.4 701.6 1034.3 702.55 1035.55 701 1035.65 700.85 1035.65 700.5 1035.7 700.2 1035.75 699.75 1035.6 699 1035.3 698.1
L 1034.95 696.9
Q 1031.65 681.5 1028.7 666.05 1025.8 650.6 1022.55 635.15 1010.35 607.1 1007.1 577.25 1003.8 547.35 1008.5 516.25 1009.2 510.45 1009.7 504.25 1010.2 498.05 1012.2 492.6
L 1012.65 491.65
Q 1013.05 490.9 1013.6 490.05 1016.15 479.8 1021.35 470.95 1026.55 462.05 1034.35 454.7
M 1298 807.5
Q 1297.35 805.75 1297 805 1287.5 780.9 1274.45 758.4 1261.35 735.9 1250.85 712.15 1232.95 668.6 1221 623.4 1209.1 578.25 1199.7 532.35 1194.55 507.9 1190.35 482.85 1186.15 457.75 1183.15 432.95 1183.55 439.5 1184.35 446 1185.1 452.55 1185.75 459.5 1188.7 493.2 1193.75 526.5 1198.85 559.75 1206.35 592.5 1217.7 641.7 1235.05 688.3 1252.4 734.9 1276 779.1 1279.1 784.95 1282.45 790.95 1285.75 796.9 1289.3 802.95 1290.6 804.65 1291.95 806.35 1293.35 808 1294.8 809.6 1295.5 810.55 1296.35 811.1 1297.15 811.65 1298.1 810.6 1298.65 809.2 1298 807.5 Z"/>
</g>

<g id="Symbol_14_0_Layer0_0_FILL">
<path fill="#82bc00" stroke="none" d="
M 758.9 590
Q 753.15 581.15 747.85 586.05 742.15 591.9 723.55 593.9 704.95 595.95 679.3 592 653.7 588.05 627.05 576.05 599.9 563.15 577.6 549.9 555.25 536.7 541.8 527.6
L 527.85 518.1
Q 526.3 535.9 536.7 561.25 547.1 586.6 562.8 608.25 578.5 629.85 592.8 636.6 604.25 640.8 633.65 641.05 663.1 641.25 696.75 639.45 730.4 637.65 754.65 635.7
L 780.05 633.55
Q 775.6 625.3 770.1 612.05 764.6 598.85 758.9 590 Z"/>
</g>

<g id="Symbol_36_0_Layer0_0_FILL">
<path fill="#0075c9" stroke="none" d="
M 898.65 490.95
Q 900.1 491.65 903.65 492.85 907.2 494.05 910.35 494 913.45 493.95 913.65 490.95 913.05 487.85 907.8 485.95 902.5 484.05 899.35 482.9 888.65 477.9 878.2 473.85 867.8 469.75 856.05 466.45 835.95 460.75 816.5 454.2 797.05 447.65 777.6 440.8 773.6 439.4 769.45 438.2 765.35 437 761.25 436
L 760.75 435.9
Q 760.4 435.8 760.05 435.85
L 757.5 435.15
Q 756.45 434.85 755.35 434.55 754.25 434.25 753.15 434 747.8 433.3 740.6 432.75 733.35 432.2 724.4 432.1 703.25 431.55 674.15 435.75 645.05 439.95 610 452.3 584.1 461.5 556 476.8 527.85 492.1 498.3 514.85 496.25 517.25 494.35 519.7 492.45 522.15 490.75 524.7
L 489.9 525.8
Q 489.25 526.7 488.7 527.5 488.05 528.35 487.65 529.35 487.3 530.35 487.4 531.45 487.5 531.6 487.75 531.55
L 488.15 531.5 490.05 530.45 499.05 523.05
Q 535.45 490.65 579.5 470.65 623.5 450.65 671.7 443.3 686.05 441.1 700 439.9 714 438.65 728.1 437.7 730.45 437.85 732.75 438.1 735.05 438.3 737.35 438.55 758.7 441.45 779.15 448.95 799.6 456.4 819.85 463.3 830 466.55 840.2 469.65 850.45 472.75 860.85 475.7 870.95 478.65 880.1 482.7 889.3 486.8 898.65 490.95 Z"/>

<path fill="#82bc00" stroke="none" d="
M 797.25 287.3
Q 779.8 272.1 759.15 258.8 738.7 245.35 701.05 240.6 663.45 235.9 616.8 252.25 570.15 268.6 522.55 318.35 488.5 356.3 470.25 398.1 452 439.95 444.65 477.8 437.25 515.6 435.95 541.55
L 434.4 573.65
Q 450.5 556.35 466.5 541.7 482.5 527.05 498.3 514.85 527.85 492.1 556 476.8 584.1 461.5 610 452.3 645.05 439.95 674.15 435.75 703.25 431.55 724.4 432.1 733.35 432.2 740.6 432.75 747.8 433.3 753.15 434 758.1 434.65 761.3 435.2 764.5 435.8 765.85 436.05
L 769.95 431.55 778.45 419.2
Q 789.2 402.9 802.7 381.35 816.2 359.8 826.25 343.3
L 836.8 325.85 825.5 313.6
Q 814.7 302.5 797.25 287.3 Z"/>
</g>

<g id="Symbol_37_0_Layer0_0_FILL">
<path fill="#82bc00" stroke="none" d="
M 1313.1 839.9
Q 1306.9 831.3 1300.9 821.95 1294.9 812.6 1289.3 802.95 1285.75 796.9 1282.45 790.95 1279.1 784.95 1276 779.1 1252.4 734.9 1235.05 688.3 1217.7 641.7 1206.35 592.5 1198.85 559.75 1193.75 526.5 1188.7 493.2 1185.75 459.5 1185.1 452.55 1184.35 446 1183.55 439.5 1183.15 432.95 1183.05 430.8 1183 428.6 1182.95 426.45 1183 424.2
L 1183.05 424.05
Q 1184.65 419.6 1186.6 413.55 1188.55 407.5 1187.75 402.6 1186.95 397.65 1180.3 396.45
L 1180.15 396.1
Q 1179.6 395.4 1178.85 395.7 1178.05 395.95 1177.3 395.8
L 1175.65 396.3 1175.6 396.3
Q 1174.55 396.3 1173.4 396.4
L 1171.95 396.55
Q 1166.2 397.4 1160.85 398.7 1155.5 400.05 1150.4 401.75 1145.5 402.85 1141.15 404.4 1136.75 405.9 1133.55 408.05 1130.25 409.4 1126.9 410.8 1123.55 412.2 1120.15 413.6 1103.65 417.25 1086.2 425.15 1068.75 433 1054.1 440.85 1048.4 443.8 1043.45 447.25 1038.5 450.75 1034.35 454.7 1026.55 462.05 1021.35 470.95 1016.15 479.8 1013.6 490.05 1013.05 490.9 1012.65 491.65
L 1012.2 492.6
Q 1010.2 498.05 1009.7 504.25 1009.2 510.45 1008.5 516.25 1003.8 547.35 1007.1 577.25 1010.35 607.1 1022.55 635.15 1024.1 638.6 1025.75 642.05 1027.4 645.45 1029.2 648.85 1037.7 665.7 1049.95 681.2 1062.15 696.75 1080.25 703.75 1085.9 706.65 1092.1 708.05 1098.35 709.45 1105.15 709.05 1105.5 709.05 1105.8 709 1106.1 709 1106.4 708.95 1118.25 737.4 1134.5 763.95 1150.75 790.5 1171.95 812.05 1183.2 823.45 1199.35 831.55 1215.55 839.7 1231.75 837.7 1234.65 841.3 1237.5 844.75 1240.35 848.2 1243.05 851.35 1253.1 863.25 1267.35 875.25 1281.55 887.25 1297.5 896.15 1313.45 905 1328.6 907.5 1331.35 907.95 1336.35 908 1341.4 908.1 1345.6 906.75 1349.8 905.35 1350.1 901.45 1351.1 902.6 1352 903.4 1352.95 904.25 1353.6 904.35 1353.8 904.4 1354.2 904.35 1354.65 904.35 1354.9 904.1 1354.95 902.9 1354.25 901.6 1353.5 900.35 1353.15 899.85 1343.7 883.9 1333.75 869.25 1323.75 854.6 1313.1 839.9
M 1019.4 572.3
L 1019.45 572.5 1019.45 572.65 1019.4 572.3 Z"/>

<path fill="#0075c9" stroke="none" d="
M 1034.35 454.7
Q 1034.3 454.2 1034.15 453.7 1034 453.15 1033.4 453.1 1032.65 454 1031.9 455.15
L 1030.9 456.65
Q 1026.35 461.65 1021.85 465.6 1017.35 469.55 1013.95 475.6 1001.8 499.9 999.3 529.1 996.8 558.25 1000.55 587.75 1004.35 617.25 1011 642.55 1014.8 656.85 1020.45 671.2 1026.1 685.55 1031.9 699.15 1032.45 700.65 1033.4 701.6 1034.3 702.55 1035.55 701 1035.65 700.85 1035.65 700.5 1035.7 700.2 1035.75 699.75 1035.6 699 1035.3 698.1
L 1034.95 696.9
Q 1031.65 681.5 1028.7 666.05 1025.8 650.6 1022.55 635.15 1010.35 607.1 1007.1 577.25 1003.8 547.35 1008.5 516.25 1009.2 510.45 1009.7 504.25 1010.2 498.05 1012.2 492.6
L 1012.65 491.65
Q 1013.05 490.9 1013.6 490.05 1016.15 479.8 1021.35 470.95 1026.55 462.05 1034.35 454.7
M 1298 807.5
Q 1297.35 805.75 1297 805 1287.5 780.9 1274.45 758.4 1261.35 735.9 1250.85 712.15 1232.95 668.6 1221 623.4 1209.1 578.25 1199.7 532.35 1194.55 507.9 1190.35 482.85 1186.15 457.75 1183.15 432.95 1183.55 439.5 1184.35 446 1185.1 452.55 1185.75 459.5 1188.7 493.2 1193.75 526.5 1198.85 559.75 1206.35 592.5 1217.7 641.7 1235.05 688.3 1252.4 734.9 1276 779.1 1279.1 784.95 1282.45 790.95 1285.75 796.9 1289.3 802.95 1290.6 804.65 1291.95 806.35 1293.35 808 1294.8 809.6 1295.5 810.55 1296.35 811.1 1297.15 811.65 1298.1 810.6 1298.65 809.2 1298 807.5 Z"/>
</g>

<g id="Symbol_18_0_Layer0_0_FILL">
<path fill="#82bc00" stroke="none" d="
M 989.9 276.1
Q 978.95 282.05 974.4 287.2
L 969.25 296.75 962.6 314.05
Q 955.15 335.3 946.9 357 938.65 378.7 931.95 385.6 926.7 390.7 935.55 396.4 944.4 402.1 960.55 406.6 976.7 411.1 993.55 412.7 1010.05 414.85 1024.85 422.25 1039.65 429.65 1049.95 434.4 1060.3 439.15 1063.35 433.25
L 1065 406.7
Q 1066.5 385.9 1067 359.8 1067.45 333.65 1064.4 312.1 1061.35 290.5 1052.35 283.25 1032.8 270.35 1016.85 270.3 1000.85 270.2 989.9 276.1 Z"/>
</g>

<g id="Symbol_19_0_Layer0_0_FILL">
<path fill="#82bc00" stroke="none" d="
M 1106.5 326.35
Q 1113.75 318.9 1118.6 311
L 1115.05 308.9 1104.95 304.7
Q 1091.55 299.45 1068.2 297.6
L 1071.15 308.1
Q 1074.2 317.9 1077.85 329.4 1081.5 340.9 1083.4 346.7 1086.05 344.75 1092.65 339.3 1099.2 333.8 1106.5 326.35 Z"/>
</g>

<g id="Symbol_20_0_Layer0_0_FILL">
<path fill="#82bc00" stroke="none" d="
M 758.9 590
Q 753.15 581.15 747.85 586.05 742.15 591.9 723.55 593.9 704.95 595.95 679.3 592 653.7 588.05 627.05 576.05 599.9 563.15 577.6 549.9 555.25 536.7 541.8 527.6
L 527.85 518.1
Q 526.3 535.9 536.7 561.25 547.1 586.6 562.8 608.25 578.5 629.85 592.8 636.6 604.25 640.8 633.65 641.05 663.1 641.25 696.75 639.45 730.4 637.65 754.65 635.7
L 780.05 633.55
Q 775.6 625.3 770.1 612.05 764.6 598.85 758.9 590 Z"/>
</g>

<g id="Symbol_38_0_Layer0_0_FILL">
<path fill="#0075c9" stroke="none" d="
M 898.65 490.95
Q 900.1 491.65 903.65 492.85 907.2 494.05 910.35 494 913.45 493.95 913.65 490.95 913.05 487.85 907.8 485.95 902.5 484.05 899.35 482.9 888.65 477.9 878.2 473.85 867.8 469.75 856.05 466.45 835.95 460.75 816.5 454.2 797.05 447.65 777.6 440.8 773.6 439.4 769.45 438.2 765.35 437 761.25 436
L 760.75 435.9
Q 760.4 435.8 760.05 435.85
L 757.5 435.15
Q 756.45 434.85 755.35 434.55 754.25 434.25 753.15 434 747.8 433.3 740.6 432.75 733.35 432.2 724.4 432.1 703.25 431.55 674.15 435.75 645.05 439.95 610 452.3 584.1 461.5 556 476.8 527.85 492.1 498.3 514.85 496.25 517.25 494.35 519.7 492.45 522.15 490.75 524.7
L 489.9 525.8
Q 489.25 526.7 488.7 527.5 488.05 528.35 487.65 529.35 487.3 530.35 487.4 531.45 487.5 531.6 487.75 531.55
L 488.15 531.5 490.05 530.45 499.05 523.05
Q 535.45 490.65 579.5 470.65 623.5 450.65 671.7 443.3 686.05 441.1 700 439.9 714 438.65 728.1 437.7 730.45 437.85 732.75 438.1 735.05 438.3 737.35 438.55 758.7 441.45 779.15 448.95 799.6 456.4 819.85 463.3 830 466.55 840.2 469.65 850.45 472.75 860.85 475.7 870.95 478.65 880.1 482.7 889.3 486.8 898.65 490.95 Z"/>

<path fill="#82bc00" stroke="none" d="
M 797.25 287.3
Q 779.8 272.1 759.15 258.8 738.7 245.35 701.05 240.6 663.45 235.9 616.8 252.25 570.15 268.6 522.55 318.35 488.5 356.3 470.25 398.1 452 439.95 444.65 477.8 437.25 515.6 435.95 541.55
L 434.4 573.65
Q 450.5 556.35 466.5 541.7 482.5 527.05 498.3 514.85 527.85 492.1 556 476.8 584.1 461.5 610 452.3 645.05 439.95 674.15 435.75 703.25 431.55 724.4 432.1 733.35 432.2 740.6 432.75 747.8 433.3 753.15 434 758.1 434.65 761.3 435.2 764.5 435.8 765.85 436.05
L 769.95 431.55 778.45 419.2
Q 789.2 402.9 802.7 381.35 816.2 359.8 826.25 343.3
L 836.8 325.85 825.5 313.6
Q 814.7 302.5 797.25 287.3 Z"/>
</g>

<g id="Symbol_22_0_Layer0_0_FILL">
<path fill="#0075c9" stroke="none" d="
M 1035.4 302.25
L 1033.5 301.25 1031.5 300.65 1029.35 300.45 1027.25 300.65 1025.25 301.25 1023.35 302.25 1021.75 303.6 1020.4 305.25 1019.4 307.1 1018.75 309.15 1018.55 311.25 1018.75 313.35 1019.4 315.4 1020.4 317.25 1021.75 318.9 1023.35 320.25 1025.25 321.25 1027.25 321.85 1029.35 322.05 1031.5 321.85 1033.5 321.25 1035.4 320.25 1037 318.9 1038.35 317.25 1039.35 315.4 1040 313.35 1040.2 311.25 1040 309.15 1039.35 307.1 1038.35 305.25 1037 303.6 1035.4 302.25 Z"/>
</g>

<g id="Symbol_23_0_Layer0_0_FILL">
<path fill="#82bc00" stroke="none" d="
M 1040.4 290.7
Q 1036.7 285.45 1029.15 285.1 1020.3 285.55 1015.95 292.1 1011.65 298.6 1010.8 306.75
L 1046.25 307 1045.2 301.3
Q 1044.1 296 1040.4 290.7 Z"/>
</g>

<g id="Symbol_24_0_Layer0_0_FILL">
<path fill="#82bc00" stroke="none" d="
M 989.9 276.1
Q 978.95 282.05 974.4 287.2
L 969.25 296.75 962.6 314.05
Q 955.15 335.3 946.9 357 938.65 378.7 931.95 385.6 926.7 390.7 935.55 396.4 944.4 402.1 960.55 406.6 976.7 411.1 993.55 412.7 1010.05 414.85 1024.85 422.25 1039.65 429.65 1049.95 434.4 1060.3 439.15 1063.35 433.25
L 1065 406.7
Q 1066.5 385.9 1067 359.8 1067.45 333.65 1064.4 312.1 1061.35 290.5 1052.35 283.25 1032.8 270.35 1016.85 270.3 1000.85 270.2 989.9 276.1 Z"/>
</g>

<g id="Symbol_25_0_Layer0_0_FILL">
<path fill="#82bc00" stroke="none" d="
M 1106.5 326.35
Q 1113.75 318.9 1118.6 311
L 1115.05 308.9 1104.95 304.7
Q 1091.55 299.45 1068.2 297.6
L 1071.15 308.1
Q 1074.2 317.9 1077.85 329.4 1081.5 340.9 1083.4 346.7 1086.05 344.75 1092.65 339.3 1099.2 333.8 1106.5 326.35 Z"/>
</g>

<g id="Symbol_26_0_Layer0_0_FILL">
<path fill="#0075c9" stroke="none" d="
M 1035.4 302.25
L 1033.5 301.25 1031.5 300.65 1029.35 300.45 1027.25 300.65 1025.25 301.25 1023.35 302.25 1021.75 303.6 1020.4 305.25 1019.4 307.1 1018.75 309.15 1018.55 311.25 1018.75 313.35 1019.4 315.4 1020.4 317.25 1021.75 318.9 1023.35 320.25 1025.25 321.25 1027.25 321.85 1029.35 322.05 1031.5 321.85 1033.5 321.25 1035.4 320.25 1037 318.9 1038.35 317.25 1039.35 315.4 1040 313.35 1040.2 311.25 1040 309.15 1039.35 307.1 1038.35 305.25 1037 303.6 1035.4 302.25 Z"/>
</g>

<g id="Symbol_27_0_Layer0_0_FILL">
<path fill="#82bc00" stroke="none" d="
M 1040.4 290.7
Q 1036.7 285.45 1029.15 285.1 1020.3 285.55 1015.95 292.1 1011.65 298.6 1010.8 306.75
L 1046.25 307 1045.2 301.3
Q 1044.1 296 1040.4 290.7 Z"/>
</g>

<g id="Layer0_25_FILL">
<path fill="#82bc00" stroke="none" d="
M 1052.4 349.5
L 1050.9 349.85
Q 1038.15 353.7 1027.45 367.1 1016.8 380.45 1009.75 396.6 1002.75 412.75 1000.95 424.9 999.05 441.05 1004.3 459.4 1009.5 477.75 1017.8 495.4 1026.1 513.1 1033.35 527.3 1035.4 531.55 1037.6 535.85 1039.75 540.15 1042 544.5 1042.8 546.35 1043.5 548.25 1044.25 550.15 1044.85 552.05 1049.75 567.7 1055.05 583.2 1060.35 598.75 1066.95 613.95 1068.85 618.2 1072.3 623.45 1075.8 628.7 1079.8 633.1 1084.1 643.25 1089.65 652.4 1095.2 661.55 1104.05 669.45 1109 673.9 1117.85 680.5 1126.7 687.1 1135.35 690.35 1139.6 700.9 1147.3 713.7 1155 726.5 1164.85 736.6 1174.7 746.65 1185.4 749.1 1185.5 749.1 1185.65 749.15 1185.85 749.15 1186.05 749.2 1193 768.35 1202.25 786.55 1211.5 804.75 1223.9 821.65 1226.5 825.4 1231.8 831.45 1237.1 837.5 1243.1 840.8 1249.05 844.1 1253.7 839.75 1259.3 833.05 1258.9 821.55 1258.45 810.05 1255.35 798.25 1252.25 786.45 1249.7 778.8 1247.1 770.6 1244.55 762.65 1242 754.65 1239.8 746.3 1228.6 702.55 1216.05 658.95 1203.5 615.4 1187.7 572.95 1174.6 537 1159.25 502.15 1143.9 467.3 1122.15 435.4 1114.15 424 1105.9 412.5 1097.65 400.95 1090.25 389.2 1087.4 384.45 1083.6 377.1 1079.8 369.8 1075.15 362.95
L 1075.2 362.95 1076.4 363.15
Q 1077.35 363.25 1077.95 362.95 1079.2 356.95 1073.8 353.45 1068.45 349.9 1062.05 349 1060.55 348.8 1058.95 348.75 1057.35 348.75 1055.8 348.9
L 1055.3 349
Q 1054.9 349.1 1054.55 349 1053.55 349.2 1052.4 349.5 Z"/>
</g>

<g id="Layer0_26_FILL">
<path fill="#82bc00" stroke="none" d="
M 1052.4 349.5
L 1050.9 349.85
Q 1038.15 353.7 1027.45 367.1 1016.8 380.45 1009.75 396.6 1002.75 412.75 1000.95 424.9 999.05 441.05 1004.3 459.4 1009.5 477.75 1017.8 495.4 1026.1 513.1 1033.35 527.3 1035.4 531.55 1037.6 535.85 1039.75 540.15 1042 544.5 1042.8 546.35 1043.5 548.25 1044.25 550.15 1044.85 552.05 1049.75 567.7 1055.05 583.2 1060.35 598.75 1066.95 613.95 1068.85 618.2 1072.3 623.45 1075.8 628.7 1079.8 633.1 1084.1 643.25 1089.65 652.4 1095.2 661.55 1104.05 669.45 1109 673.9 1117.85 680.5 1126.7 687.1 1135.35 690.35 1139.6 700.9 1147.3 713.7 1155 726.5 1164.85 736.6 1174.7 746.65 1185.4 749.1 1185.5 749.1 1185.65 749.15 1185.85 749.15 1186.05 749.2 1193 768.35 1202.25 786.55 1211.5 804.75 1223.9 821.65 1226.5 825.4 1231.8 831.45 1237.1 837.5 1243.1 840.8 1249.05 844.1 1253.7 839.75 1259.3 833.05 1258.9 821.55 1258.45 810.05 1255.35 798.25 1252.25 786.45 1249.7 778.8 1247.1 770.6 1244.55 762.65 1242 754.65 1239.8 746.3 1228.6 702.55 1216.05 658.95 1203.5 615.4 1187.7 572.95 1174.6 537 1159.25 502.15 1143.9 467.3 1122.15 435.4 1114.15 424 1105.9 412.5 1097.65 400.95 1090.25 389.2 1087.4 384.45 1083.6 377.1 1079.8 369.8 1075.15 362.95
L 1075.2 362.95 1076.4 363.15
Q 1077.35 363.25 1077.95 362.95 1079.2 356.95 1073.8 353.45 1068.45 349.9 1062.05 349 1060.55 348.8 1058.95 348.75 1057.35 348.75 1055.8 348.9
L 1055.3 349
Q 1054.9 349.1 1054.55 349 1053.55 349.2 1052.4 349.5 Z"/>
</g>
</defs>



<g transform="matrix( 0.66680908203125, 0, 0, 0.66680908203125, 336.3,266.25) ">
<g transform="matrix( 1, 0, 0, 1, 0,0) ">
<use xlink:href="#Symbol_28_0_Layer0_0_FILL"/>
</g>
</g>

<g transform="matrix( 1.9001922607421875, 0, 0, 1.9001922607421875, -843.9,-357.35) ">
<g transform="matrix( 1, 0, 0, 1, 0,0) ">
<use xlink:href="#Symbol_10_0_Layer0_0_FILL"/>
</g>
</g>

<g transform="matrix( 0.090240478515625, 0.6495819091796875, -0.7805633544921875, 0.107086181640625, 1185,56.85) ">
<g transform="matrix( 1, 0, 0, 1, 0,0) ">
<use xlink:href="#Symbol_29_0_Layer0_0_FILL"/>
</g>
</g>

<g transform="matrix( 0.84649658203125, 0.493377685546875, -0.461151123046875, 0.691009521484375, 453.05,134.1) ">
<g transform="matrix( 1, 0, 0, 1, 0,0) ">
<use xlink:href="#Symbol_30_0_Layer0_0_FILL"/>
</g>
</g>

<g transform="matrix( 0.6056365966796875, -0.2797698974609375, 0.2797698974609375, 0.6056365966796875, 234.3,606.75) ">
<g transform="matrix( 1, 0, 0, 1, 0,0) ">
<use xlink:href="#Symbol_31_0_Layer0_0_FILL"/>
</g>
</g>

<g transform="matrix( 0.667144775390625, 0, -0.1879425048828125, 0.699127197265625, 464.95,252.65) ">
<g transform="matrix( 1, 0, 0, 1, 0,0) ">
<use xlink:href="#Symbol_32_0_Layer0_0_FILL"/>
</g>
</g>

<g transform="matrix( 0.6493072509765625, 0.1605377197265625, -0.1531982421875, 0.680450439453125, 389.15,122.4) ">
<g transform="matrix( 1, 0, 0, 1, 0,0) ">
<use xlink:href="#Symbol_33_0_Layer0_0_FILL"/>
</g>
</g>

<g transform="matrix( 0.64764404296875, -0.0714874267578125, 0.0731964111328125, 0.663116455078125, 311.3,342.2) ">
<use xlink:href="#Layer0_7_FILL"/>
</g>

<g transform="matrix( 0.60003662109375, 0.3072357177734375, -0.2952728271484375, 0.675445556640625, 598.3,216.2) ">
<use xlink:href="#Layer0_8_FILL"/>
</g>

<g transform="matrix( 0.6259918212890625, 0.23065185546875, -0.200103759765625, 0.5430755615234375, 568.85,328.4) ">
<use xlink:href="#Layer0_9_FILL"/>
</g>

<g transform="matrix( 0.6259918212890625, 0.23065185546875, -0.23065185546875, 0.6259918212890625, 575.6,301.2) ">
<g transform="matrix( 1, 0, 0, 1, 0,0) ">
<use xlink:href="#Symbol_34_0_Layer0_0_FILL"/>
</g>
</g>

<g transform="matrix( 0.1187744140625, 0, 0, 0.1187744140625, 853.35,438.9) ">
<g transform="matrix( 1, 0, 0, 1, 0,0) ">
<use xlink:href="#Symbol_35_0_Layer0_0_FILL"/>
</g>
</g>

<g transform="matrix( 0.0424346923828125, -0.11700439453125, -0.1388092041015625, -0.025146484375, 1014.3,608.7) ">
<g transform="matrix( 1, 0, 0, 1, 0,0) ">
<use xlink:href="#Symbol_14_0_Layer0_0_FILL"/>
</g>
</g>

<g transform="matrix( 0.1152496337890625, 0.0287322998046875, -0.0287322998046875, 0.1152496337890625, 922.75,431.9) ">
<g transform="matrix( 1, 0, 0, 1, 0,0) ">
<use xlink:href="#Symbol_36_0_Layer0_0_FILL"/>
</g>
</g>

<g transform="matrix( 0.1187744140625, 0, 0, 0.1187744140625, 853.35,438.9) ">
<g transform="matrix( 1, 0, 0, 1, 0,0) ">
<use xlink:href="#Symbol_37_0_Layer0_0_FILL"/>
</g>
</g>

<g transform="matrix( -0.065399169921875, 0.0991363525390625, -0.0991363525390625, -0.065399169921875, 1108.6,425.25) ">
<g transform="matrix( 1, 0, 0, 1, 0,0) ">
<use xlink:href="#Symbol_18_0_Layer0_0_FILL"/>
</g>
</g>

<g transform="matrix( 0.0092620849609375, 0.118408203125, -0.118408203125, 0.0092620849609375, 1039.7,378.75) ">
<g transform="matrix( 1, 0, 0, 1, 0,0) ">
<use xlink:href="#Symbol_19_0_Layer0_0_FILL"/>
</g>
</g>

<g transform="matrix( 0.0424346923828125, -0.11700439453125, -0.1388092041015625, -0.025146484375, 1014.3,608.7) ">
<g transform="matrix( 1, 0, 0, 1, 0,0) ">
<use xlink:href="#Symbol_20_0_Layer0_0_FILL"/>
</g>
</g>

<g transform="matrix( 0.1152496337890625, 0.0287322998046875, -0.0287322998046875, 0.1152496337890625, 922.75,431.9) ">
<g transform="matrix( 1, 0, 0, 1, 0,0) ">
<use xlink:href="#Symbol_38_0_Layer0_0_FILL"/>
</g>
</g>

<g transform="matrix( -0.065399169921875, 0.0991363525390625, -0.0991363525390625, -0.065399169921875, 1108.4,424) ">
<g transform="matrix( 1, 0, 0, 1, 0,0) ">
<use xlink:href="#Symbol_22_0_Layer0_0_FILL"/>
</g>
</g>

<g transform="matrix( -0.0364990234375, 0.1130218505859375, -0.1130218505859375, -0.0364990234375, 1083.8,400.8) ">
<g transform="matrix( 1, 0, 0, 1, 0,0) ">
<use xlink:href="#Symbol_23_0_Layer0_0_FILL"/>
</g>
</g>

<g transform="matrix( -0.065399169921875, 0.0991363525390625, -0.0991363525390625, -0.065399169921875, 1108.6,425.25) ">
<g transform="matrix( 1, 0, 0, 1, 0,0) ">
<use xlink:href="#Symbol_24_0_Layer0_0_FILL"/>
</g>
</g>

<g transform="matrix( 0.0092620849609375, 0.118408203125, -0.118408203125, 0.0092620849609375, 1039.7,378.75) ">
<g transform="matrix( 1, 0, 0, 1, 0,0) ">
<use xlink:href="#Symbol_25_0_Layer0_0_FILL"/>
</g>
</g>

<g transform="matrix( -0.065399169921875, 0.0991363525390625, -0.0991363525390625, -0.065399169921875, 1108.4,424) ">
<g transform="matrix( 1, 0, 0, 1, 0,0) ">
<use xlink:href="#Symbol_26_0_Layer0_0_FILL"/>
</g>
</g>

<g transform="matrix( -0.0364990234375, 0.1130218505859375, -0.1130218505859375, -0.0364990234375, 1083.8,400.8) ">
<g transform="matrix( 1, 0, 0, 1, 0,0) ">
<use xlink:href="#Symbol_27_0_Layer0_0_FILL"/>
</g>
</g>

<g transform="matrix( 0.1187896728515625, 0, 0, 0.1187896728515625, 870.05,444.1) ">
<use xlink:href="#Layer0_25_FILL"/>
</g>

<g transform="matrix( 0.1187896728515625, 0, 0, 0.1187896728515625, 870.05,444.1) ">
<use xlink:href="#Layer0_26_FILL"/>
</g>
</svg>
