
<svg xmlns="http://www.w3.org/2000/svg" version="1.1" xmlns:xlink="http://www.w3.org/1999/xlink" preserveAspectRatio="none" x="0px" y="0px" width="760px" height="880px" viewBox="614 10 760 880">
<defs>


<g id="Symbol_28_0_Layer0_0_FILL">
<path fill="#FFFFFF" stroke="none" d="
M 656.95 766.95
L 648.9 766.15
Q 647.3 766.15 646.3 767.25 645.25 768.35 645.2 769.8 645.15 771.3 646.5 772.5
L 649.1 773.9 654.55 776.1
Q 661.45 778.7 672.95 780.7 684.4 782.7 699.15 781.9 713.85 781.15 730.65 775.45 742.3 771.1 752.6 762.8 762.95 754.5 770.9 745.45 778.9 736.4 783.5 729.9
L 788.3 722.65 787.25 721.25 784.35 718.45
Q 780.55 714.95 775.95 710.9 771.3 706.9 768.6 704.6 766.5 707.95 761.25 715.5 756 723 748.5 732 741.05 741.05 732.35 748.9 723.6 756.75 714.6 760.8 704.7 764.9 693.85 766.4 683 767.85 673.25 767.75 663.55 767.6 656.95 766.95 Z"/>
</g>

<g id="Symbol_39_0_Layer0_0_FILL">
<path fill="#a6ce38" stroke="none" d="
M 1108.3 615.95
L 1107.7 616.25
Q 1107.78359375 616.2265625 1107.85 616.2 1108.1 616.1 1108.3 615.95 Z"/>

<path fill="#FFFFFF" stroke="none" d="
M 968.15 419.8
Q 957.2 415.35 942.8 413 928.45 410.65 913.1 411.6 897.8 412.5 884.05 417.8 870.35 423.15 860.8 434.05 848.05 449.35 843.05 462.95 838 476.6 838.35 487.95 838.7 499.3 841.9 507.9 845.15 516.5 848.9 521.75 854.25 529.4 867.5 535.5 880.7 541.65 900.15 546.95 919.6 552.3 943.55 557.55 967.5 562.8 994.25 568.75 1013.3 579.05 1029 589.9 1044.7 600.8 1057 609.8 1069.3 618.75 1078.2 623.2 1087.65 624.8 1097.7 620.7 1107.75 616.6 1116.7 608.5 1125.6 600.4 1131.65 590 1137.7 579.5 1141.85 567 1146 554.5 1146.15 542.7 1146.25 530.9 1140.25 522.5 1134.45 515.05 1121.45 504.75 1108.45 494.45 1091.25 483.1 1074.05 471.75 1055.65 461.1 1035.6 449.65 1018.4 441.5 1001.25 433.3 988.3 427.95 975.35 422.65 968.15 419.8
M 1096.05 533.85
Q 1100.8 529.45 1106.3 525.9 1111.8 522.4 1117.75 520.2 1120.65 519.6 1123.65 519.15 1126.7 518.75 1129.9 518.55 1124.95 520 1120.45 521.8 1116 523.55 1113.1 525.15 1108.25 527.85 1103.45 532 1098.65 536.2 1094.3 541.4 1092.95 542.8 1091.8 544.2 1090.65 545.65 1089.7 547.05 1089.5 547.35 1089.3 547.65 1089.15 547.95 1089.2 548.25 1086.75 551.45 1084.7 554.9 1082.6 558.3 1080.9 561.85 1077.95 567.9 1075.2 575.2 1072.5 582.45 1070.85 590.15 1069.25 597.8 1069.5 604.95 1069.35 606.7 1069.3 608.4 1069.25 610.05 1069.35 611.65 1068.45 605.9 1068.15 600.1 1067.85 594.3 1068.25 588.55 1068.3 588.3 1068.35 588.05 1068.4 587.85 1068.45 587.6 1069.5 581.95 1070.85 576.7 1072.2 571.55 1073.95 566.75
L 1074.05 566.5
Q 1076.3 561.15 1079.3 555.45 1082.25 549.75 1085.85 545.15
L 1086.25 544.65
Q 1086.55 544.3 1086.8 544 1086.9 543.7 1087.15 543.4
L 1087.45 543
Q 1091.25 538.2 1096.05 533.85 Z"/>

<path fill="#0081C6" stroke="none" d="
M 1106.3 525.9
Q 1100.8 529.45 1096.05 533.85 1091.25 538.2 1087.45 543
L 1087.15 543.4
Q 1086.9 543.7 1086.8 544 1086.55 544.3 1086.25 544.65
L 1085.85 545.15
Q 1082.25 549.75 1079.3 555.45 1076.3 561.15 1074.05 566.5
L 1073.95 566.75
Q 1072.2 571.55 1070.85 576.7 1069.5 581.95 1068.45 587.6 1068.4 587.85 1068.35 588.05 1068.3 588.3 1068.25 588.55 1067.85 594.3 1068.15 600.1 1068.45 605.9 1069.35 611.65 1069.25 610.05 1069.3 608.4 1069.35 606.7 1069.5 604.95 1069.25 597.8 1070.85 590.15 1072.5 582.45 1075.2 575.2 1077.95 567.9 1080.9 561.85 1082.6 558.3 1084.7 554.9 1086.75 551.45 1089.2 548.25 1089.15 547.95 1089.3 547.65 1089.5 547.35 1089.7 547.05 1090.65 545.65 1091.8 544.2 1092.95 542.8 1094.3 541.4 1098.65 536.2 1103.45 532 1108.25 527.85 1113.1 525.15 1116 523.55 1120.45 521.8 1124.95 520 1129.9 518.55 1126.7 518.75 1123.65 519.15 1120.65 519.6 1117.75 520.2 1111.8 522.4 1106.3 525.9 Z"/>
</g>

<g id="Symbol_40_0_Layer0_0_FILL">
<path fill="#0081C6" stroke="none" d="
M 1052.35 576.9
L 1050.25 581.9 1049.45 584.9
Q 1049.8 586.75 1052.5 587.95 1055.15 589.1 1058.55 589.7 1062 590.25 1064.6 590.35
L 1066.6 590.35 1067.45 590.2
Q 1071.4 580.9 1078.55 573.4 1085.7 565.9 1093 561.15 1100.35 556.4 1104.95 555.35 1100.6 554.35 1095.65 553.35 1090.65 552.35 1086.6 551.55
L 1081.05 550.45
Q 1068.75 556.45 1061.95 563.7 1055.1 570.95 1052.35 576.9 Z"/>
</g>

<g id="Symbol_41_0_Layer0_0_FILL">
<path fill="#0081C6" stroke="none" d="
M 1072.25 581.95
L 1071.1 581.75 1067.75 581.6
Q 1063.25 581.55 1057.85 581.55 1052.45 581.55 1049.65 581.6 1046 587.35 1043.2 598.95 1040.4 610.55 1039.2 624.05 1038.05 637.55 1039.2 649 1040.35 660.45 1044.55 665.9
L 1048.55 666.45
Q 1051.65 666.85 1055.3 667.25 1059 667.6 1061.65 667.9
L 1064.5 668.2 1062.8 660.7
Q 1061.3 653.35 1060.6 641 1059.95 628.65 1062.3 613.35 1064.7 598.05 1072.25 581.95 Z"/>
</g>

<g id="Symbol_42_0_Layer0_0_FILL">
<path fill="#FFFFFF" stroke="none" d="
M 1050.7 575
Q 1046.65 575.4 1043.2 574.85 1039.75 574.35 1036.8 573.35 1036.9 573.55 1037.05 573.75
L 1037.3 574.1
Q 1037.8 574.75 1038.25 575.35 1038.75 575.95 1039.2 576.55 1039.7 577.1 1040.2 577.65 1040.7 578.25 1041.15 578.75 1041.35 578.95 1041.5 579.1 1041.65 579.3 1041.8 579.45 1043.3 581 1044.9 582.45 1046.5 583.9 1048.25 585.3 1048.85 585.7 1049.45 586.05 1050.05 586.45 1050.65 586.8 1051.15 586.8 1051.6 586.85 1052.1 586.85 1052.6 586.9
L 1052.75 586.9
Q 1057.75 586.75 1062.55 585.6 1067.35 584.5 1071.7 582.6 1071.8 582.55 1071.95 582.5
L 1072.2 582.4
Q 1079.8 578 1084.9 570.9 1090.05 563.8 1092.2 554.9 1091.25 552.7 1090.25 550.6 1089.2 548.5 1088.1 546.45 1088 546.25 1087.9 546.1 1087.8 545.95 1087.7 545.8 1087.3 545.05 1086.9 544.3 1086.45 543.5 1086.05 542.75
L 1085.2 541.25
Q 1084.25 550.75 1080.15 557.35 1076.05 564 1070 568.1 1068.9 568.65 1067.85 569.25 1066.75 569.9 1065.85 570.55 1062.2 572.4 1058.35 573.5 1054.5 574.65 1050.7 575
M 1040.35 557.5
Q 1043.25 551.95 1047.9 547.7 1052.55 543.45 1058.35 540.9 1064.15 538.35 1070.35 537.8 1071.7 537.7 1073.05 537.55 1074.4 537.4 1075.65 537.1 1076.15 537 1077.1 536.95
L 1078.3 536.75 1078.35 536.75
Q 1078.35 536.7 1078.4 536.7 1078.3 536.5 1078.05 536.35 1077.8 536.2 1077.7 536.15 1077.15 535.95 1076.6 535.8 1076.05 535.65 1075.45 535.4 1074.6 535.05 1073.3 534.95 1071.95 534.8 1071 534.85
L 1070.9 534.85
Q 1070.85 534.85 1070.8 534.85 1070.65 534.85 1070.5 534.9
L 1070.35 534.9
Q 1064.7 535.4 1059.25 537.55 1053.8 539.65 1049.15 543.25 1044.5 546.85 1041.35 551.7 1038.95 555.5 1037.65 559.95 1036.35 564.4 1036.7 568.9
L 1036.9 569.7 1037.1 569.75
Q 1037.35 569.45 1037.45 568.65 1037.75 565.6 1038.35 562.95 1038.95 560.25 1040.35 557.5
M 1061.3 550.55
Q 1061.15 550.35 1060.85 550.25 1060.6 550.2 1060.25 550.2 1059.85 550.25 1059.45 550.45 1059 550.6 1058.65 550.85 1058.3 551.1 1058 551.45 1057.75 551.75 1057.55 552.05 1057.4 552.4 1057.4 552.7 1057.4 552.95 1057.55 553.15 1057.75 553.35 1058 553.45 1058.3 553.55 1058.65 553.5 1059 553.45 1059.45 553.3 1059.85 553.1 1060.25 552.85 1060.6 552.6 1060.85 552.3 1061.15 551.95 1061.3 551.65 1061.45 551.35 1061.45 551.05 1061.45 550.75 1061.3 550.55 Z"/>

<path fill="#0081C6" stroke="none" d="
M 1041.35 549.15
Q 1037.95 553.55 1036.2 558.3 1034.4 563.05 1034.7 567.6 1034.75 568.15 1034.8 568.65 1034.85 569.15 1034.95 569.6 1035.15 570.25 1035.4 570.8 1035.6 571.4 1035.8 571.95
L 1035.85 572.05
Q 1036.1 572.4 1036.35 572.7 1036.55 573.05 1036.8 573.35 1039.75 574.35 1043.2 574.85 1046.65 575.4 1050.7 575 1054.5 574.65 1058.35 573.5 1062.2 572.4 1065.85 570.55 1066.75 569.9 1067.85 569.25 1068.9 568.65 1070 568.1 1076.05 564 1080.15 557.35 1084.25 550.75 1085.2 541.25
L 1084.4 539.9
Q 1083.5 538.8 1082.55 537.65 1081.65 536.5 1080.65 535.3
L 1080.6 535.2
Q 1080.2 535 1079.8 534.8 1079.35 534.6 1078.95 534.45 1075.05 532.85 1070.15 533.05 1065.25 533.25 1059.7 535.4 1054.15 537.6 1049.45 541.15 1044.8 544.75 1041.35 549.15
M 1060.85 550.25
Q 1061.15 550.35 1061.3 550.55 1061.45 550.75 1061.45 551.05 1061.45 551.35 1061.3 551.65 1061.15 551.95 1060.85 552.3 1060.6 552.6 1060.25 552.85 1059.85 553.1 1059.45 553.3 1059 553.45 1058.65 553.5 1058.3 553.55 1058 553.45 1057.75 553.35 1057.55 553.15 1057.4 552.95 1057.4 552.7 1057.4 552.4 1057.55 552.05 1057.75 551.75 1058 551.45 1058.3 551.1 1058.65 550.85 1059 550.6 1059.45 550.45 1059.85 550.25 1060.25 550.2 1060.6 550.2 1060.85 550.25
M 1047.9 547.7
Q 1043.25 551.95 1040.35 557.5 1038.95 560.25 1038.35 562.95 1037.75 565.6 1037.45 568.65 1037.35 569.45 1037.1 569.75
L 1036.9 569.7 1036.7 568.9
Q 1036.35 564.4 1037.65 559.95 1038.95 555.5 1041.35 551.7 1044.5 546.85 1049.15 543.25 1053.8 539.65 1059.25 537.55 1064.7 535.4 1070.35 534.9
L 1070.5 534.9
Q 1070.65 534.85 1070.8 534.85 1070.85 534.85 1070.9 534.85
L 1071 534.85
Q 1071.95 534.8 1073.3 534.95 1074.6 535.05 1075.45 535.4 1076.05 535.65 1076.6 535.8 1077.15 535.95 1077.7 536.15 1077.8 536.2 1078.05 536.35 1078.3 536.5 1078.4 536.7 1078.35 536.7 1078.35 536.75
L 1078.3 536.75 1077.1 536.95
Q 1076.15 537 1075.65 537.1 1074.4 537.4 1073.05 537.55 1071.7 537.7 1070.35 537.8 1064.15 538.35 1058.35 540.9 1052.55 543.45 1047.9 547.7 Z"/>
</g>

<g id="Symbol_43_0_Layer0_0_FILL">
<path fill="#FFFFFF" stroke="none" d="
M 1078.05 542.05
Q 1074.9 542.45 1071.6 543.75 1068.25 545 1065.8 546.7 1063.3 548.45 1062.65 550.15 1066.4 549.7 1069.65 548.25 1072.85 546.85 1075.05 545.1 1077.3 543.35 1078.05 542.05 Z"/>
</g>

<g id="Symbol_44_0_Layer0_0_FILL">
<path fill="#FFFFFF" stroke="none" d="
M 1050.75 558.05
Q 1047.85 560.75 1045.7 563.75 1043.55 566.75 1043.25 568.25 1046.15 566.95 1049.2 564.45 1052.2 561.9 1054.2 559.25 1056.25 556.6 1056.2 554.8 1053.7 555.4 1050.75 558.05 Z"/>
</g>

<g id="Symbol_10_0_Layer0_0_FILL">
<path fill="#0081C6" stroke="none" d="
M 1005.65 543.5
L 1001.25 543.5 1001.25 545.8
Q 999.95 544.35 998.5 543.65 997.05 542.95 995.4 542.95 993.5 542.95 991.9 543.7 990.3 544.45 989.05 545.9 987.8 547.35 987.15 549.2 986.55 551.05 986.55 553.25 986.55 555.5 987.15 557.35 987.8 559.2 989.05 560.7 990.35 562.2 991.95 562.9 993.55 563.65 995.5 563.65 997.05 563.65 998.5 563 999.95 562.35 1001.25 561.05
L 1001.25 563.1 1005.65 563.1 1005.65 543.5
M 1001.55 553.35
Q 1001.55 554.7 1001.15 555.85 1000.8 557 1000.05 557.9 999.3 558.75 998.35 559.15 997.35 559.6 996.15 559.6 995.05 559.6 994.1 559.15 993.15 558.7 992.4 557.8 991.7 556.95 991.35 555.8 990.95 554.65 990.95 553.25 990.95 551.9 991.35 550.8 991.7 549.7 992.45 548.8 993.2 547.95 994.15 547.5 995.1 547.05 996.2 547.05 997.4 547.05 998.35 547.5 999.3 547.9 1000.05 548.8 1000.8 549.7 1001.15 550.8 1001.55 551.95 1001.55 553.35
M 980.35 543.45
Q 979.9 543.7 979.35 544.15 978.85 544.6 978.25 545.25
L 978.25 543.5 973.9 543.5 973.9 563.1 978.25 563.1 978.25 552.95
Q 978.25 550.15 979.1 548.75 980 547.35 981.8 547.35 982.35 547.35 982.95 547.6 983.6 547.8 984.2 548.25
L 986.2 544.15
Q 985.25 543.55 984.35 543.25 983.45 542.95 982.6 542.95 981.95 542.95 981.4 543.1 980.85 543.2 980.35 543.45
M 1016.6 543.45
Q 1016.15 543.7 1015.65 544.15 1015.1 544.65 1014.45 545.3
L 1014.45 543.5 1010.15 543.5 1010.15 563.1 1014.45 563.1 1014.45 553
Q 1014.45 551.45 1014.7 550.3 1014.9 549.2 1015.3 548.45 1015.75 547.75 1016.4 547.4 1017.05 547.05 1018 547.05 1019.45 547.05 1020.15 548.35 1020.9 549.65 1020.9 552.25
L 1020.9 563.1 1025.25 563.1 1025.25 553
Q 1025.25 551.4 1025.45 550.3 1025.65 549.15 1026.05 548.45 1026.45 547.75 1027.1 547.4 1027.75 547.05 1028.65 547.05 1029.45 547.05 1030 547.35 1030.55 547.65 1030.9 548.25 1031.25 548.8 1031.4 549.8 1031.55 550.8 1031.55 552.2
L 1031.55 563.1 1035.9 563.1 1035.9 551
Q 1035.9 546.95 1034.35 544.95 1032.75 542.95 1029.55 542.95 1027.8 542.95 1026.45 543.7 1025.05 544.4 1024.05 545.85 1023.1 544.4 1021.85 543.7 1020.6 542.95 1019 542.95 1018.3 542.95 1017.7 543.1 1017.1 543.2 1016.6 543.45
M 920.15 543.5
Q 918.9 542.95 917.25 542.95 915.8 542.95 914.55 543.55 913.25 544.15 912.1 545.3
L 912.1 543.5 907.75 543.5 907.75 563.1 912.1 563.1 912.1 553.65
Q 912.1 551.8 912.35 550.55 912.55 549.25 913 548.55 913.45 547.8 914.25 547.4 915 547.05 916.05 547.05 917.05 547.05 917.75 547.35 918.45 547.6 918.8 548.15 919.2 548.7 919.4 549.7 919.6 550.7 919.6 552.15
L 919.6 563.1 923.95 563.1 923.95 551.1
Q 923.95 549 923.55 547.5 923.15 546.05 922.35 545.1 921.45 544.05 920.15 543.5
M 903.25 543.5
L 898.9 543.5 898.9 563.1 903.25 563.1 903.25 543.5
M 900 538.1
Q 900.5 538.35 901.1 538.35 901.65 538.35 902.15 538.1 902.65 537.9 903.05 537.45 903.5 537.05 903.7 536.5 903.9 536 903.9 535.4 903.9 534.75 903.7 534.25 903.5 533.75 903.05 533.3 902.65 532.9 902.15 532.65 901.65 532.45 901.05 532.45 900.5 532.45 900 532.65 899.5 532.9 899.05 533.3 898.65 533.75 898.45 534.25 898.25 534.75 898.25 535.35 898.25 536 898.45 536.5 898.65 537.05 899.05 537.45 899.5 537.9 900 538.1
M 941.45 543.7
Q 939.65 542.95 937.55 542.95 935.5 542.95 933.7 543.7 931.9 544.45 930.45 545.95 929 547.45 928.3 549.25 927.55 551.05 927.55 553.15 927.55 555.4 928.25 557.3 929 559.15 930.4 560.65 931.85 562.15 933.6 562.9 935.4 563.65 937.5 563.65 939.6 563.65 941.4 562.9 943.25 562.15 944.7 560.7 946.15 559.2 946.9 557.35 947.6 555.5 947.6 553.3 947.6 551.15 946.9 549.3 946.15 547.45 944.7 545.95 943.25 544.45 941.45 543.7
M 943.15 553.35
Q 943.15 554.75 942.8 555.9 942.4 557.05 941.65 557.9 940.9 558.75 939.85 559.2 938.85 559.6 937.55 559.6 936.3 559.6 935.3 559.15 934.25 558.75 933.5 557.9 932.75 557 932.35 555.85 932 554.7 932 553.25 932 551.85 932.4 550.75 932.75 549.65 933.55 548.8 934.3 547.9 935.3 547.45 936.35 547.05 937.55 547.05 938.85 547.05 939.85 547.45 940.85 547.9 941.65 548.8 942.4 549.65 942.8 550.75 943.15 551.9 943.15 553.35
M 962.4 543.65
Q 960.9 542.95 959.15 542.95 957.1 542.95 955.5 543.75 953.85 544.55 952.6 546.15 951.45 547.65 950.9 549.45 950.3 551.3 950.3 553.4 950.3 555.6 950.95 557.45 951.55 559.3 952.8 560.75 954 562.2 955.6 562.9 957.15 563.65 959.1 563.65 960.8 563.65 962.25 562.95 963.75 562.25 965.05 560.9
L 965.05 563.65
Q 965.05 566.65 963.85 568.2 962.65 569.7 960.3 569.7 959 569.7 958 569.25 957 568.8 956.35 567.85 956.05 567.5 955.85 566.9 955.65 566.35 955.5 565.65
L 951.15 565.65
Q 951.35 567.55 952.05 569.05 952.8 570.55 954.05 571.65 955.25 572.7 956.8 573.25 958.35 573.8 960.25 573.8 962.5 573.8 964.25 573 966 572.25 967.25 570.75 967.95 569.95 968.4 569 968.85 568.05 969.05 566.95 969.15 566.55 969.2 566.05 969.25 565.6 969.3 565.05 969.35 564.55 969.35 563.95 969.4 563.3 969.4 562.6
L 969.4 543.5 965.05 543.5 965.05 545.7
Q 963.85 544.35 962.4 543.65
M 965.2 553.35
Q 965.2 554.7 964.9 555.8 964.55 556.85 963.9 557.75 963.15 558.65 962.2 559.15 961.2 559.6 959.95 559.6 958.7 559.6 957.75 559.15 956.75 558.7 956.05 557.75 955.4 556.9 955.1 555.8 954.75 554.7 954.75 553.35 954.75 552 955.1 550.9 955.4 549.8 956.05 548.95 956.75 548 957.75 547.5 958.7 547.05 959.95 547.05 961.1 547.05 962.05 547.5 963 547.9 963.75 548.8 964.5 549.65 964.85 550.8 965.2 551.9 965.2 553.35
M 887.65 542.95
Q 886.25 542.95 885 543.5 883.7 544.05 882.55 545.15
L 882.55 534 878.2 534 878.2 563.1 882.55 563.1 882.55 553.6
Q 882.55 551.8 882.8 550.55 883 549.25 883.45 548.5 883.9 547.8 884.7 547.4 885.55 547.05 886.65 547.05 887.55 547.05 888.2 547.3 888.85 547.55 889.25 548.1 889.65 548.65 889.85 549.5 890.05 550.35 890.05 551.5
L 890.05 563.1 894.4 563.1 894.4 551.1
Q 894.4 549.05 894 547.55 893.6 546.05 892.75 545.1 891.8 544.05 890.55 543.5 889.25 542.95 887.65 542.95
M 868.15 543.5
L 863.8 543.5 863.8 563.1 868.15 563.1 868.15 552.95
Q 868.15 550.15 869.05 548.75 869.95 547.35 871.7 547.35 872.3 547.35 872.9 547.6 873.5 547.8 874.15 548.25
L 876.1 544.15
Q 875.2 543.55 874.3 543.25 873.4 542.95 872.5 542.95 871.85 542.95 871.3 543.1 870.75 543.2 870.3 543.45 869.8 543.7 869.3 544.15 868.75 544.6 868.15 545.25
L 868.15 543.5 Z"/>
</g>

<g id="Symbol_29_0_Layer0_0_FILL">
<path fill="#FFFFFF" stroke="none" d="
M 927.6 155.25
Q 919.9 157.4 912.5 160.95 905.1 164.5 899.6 168.2 894.1 171.9 892.1 174.45 890.65 176.9 889.1 184 887.55 191.1 886.2 199.45 884.9 207.8 884.1 213.85
L 883.25 220.15 886.85 220.55
Q 890.25 220.9 893.75 221.15
L 896.55 221.25 897.9 221.15
Q 909.4 211.7 918.1 202.95 926.8 194.25 932.05 187.8
L 936.35 182.3 938.55 178.7
Q 939.75 175.9 940.75 170.55 941.8 165.2 942.15 160.2
L 942.2 156.1 941.7 153.65
Q 935.3 153.1 927.6 155.25 Z"/>
</g>

<g id="Symbol_30_0_Layer0_0_FILL">
<path fill="#FFFFFF" stroke="none" d="
M 982.7 196.45
Q 985.4 193.2 987.1 190.55
L 988.4 188.3 988.85 186.9
Q 984.8 184.8 978.9 183.9 972.95 183.05 966.7 183.05 960.45 183.1 955.45 183.75 950.4 184.4 948.15 185.35 946.3 186.4 942.55 190.3 938.8 194.2 934.75 198.95 930.65 203.7 927.75 207.15
L 924.7 210.8 926.7 212.15
Q 928.55 213.35 930.55 214.55
L 932.15 215.45 933 215.75
Q 944.4 213.9 951.85 212.6 959.25 211.3 963.9 210 968.55 208.75 971.65 207 974.15 205.55 977.05 202.65 980 199.75 982.7 196.45 Z"/>
</g>

<g id="Symbol_45_0_Layer0_0_FILL">
<path fill="#0081C6" stroke="none" d="
M 918.6 588.65
Q 919.3 584.35 920.35 580.25 921.35 576.1 922.65 572.4 923.85 566.55 925.4 560.85 926.95 555.15 928.85 549.9 928.7 549.9 928.55 550 928.4 550.05 928.3 550.15 924 560.6 920.05 572.35 916.1 584.15 913.2 597 910.3 609.85 909.2 623.55 907.5 647.15 906.75 669.65 906 692.2 904.8 710.6 903.55 729.05 900.5 740.35 900.45 740.45 900.35 740.55 900.3 740.7 900.2 740.8 900 741.05 899.75 741.35 899.5 741.65 899.2 741.95 897.05 744.25 891.8 747.2 886.5 750.15 877.85 752.65 869.15 755.1 856.75 755.95 850.3 756.35 844.45 755.85 838.6 755.3 833.45 754.15 833 754.05 832.55 753.95 832.15 753.85 831.7 753.75 823.65 751.7 817.75 749.05 811.85 746.35 808.55 744.1
L 806.05 742.25 805 741.15
Q 804.95 741 804.95 740.85
L 804.85 740.55
Q 803.65 739.85 802.05 739.15 800.5 738.5 799.55 738.45
L 799.35 738.4
Q 799.15 738.3 799.05 738.4 799.05 739 799.4 739.75
L 799.65 740.4 799.85 740.75
Q 800.25 741.65 800.8 742.45 801.3 743.25 802.1 743.9
L 802.35 744.1
Q 802.5 744.2 802.75 744.3 803.15 744.7 803.7 745.05
L 804.2 745.35 804.45 745.55
Q 819.3 754.55 835.65 757.25 851.95 759.9 868.3 756.9 884.7 753.9 899.65 745.75 900 745.55 900.4 745.35 900.75 745.15 901.1 744.95 901.35 744.65 901.65 744.35 901.9 744.05 902.2 743.75 902.6 743.2 903 742.7 903.4 742.15 903.8 741.6 903.95 740.9 904.1 740.1 904.25 739.35 904.4 738.5 905.15 734.25 905.7 729.35 906.3 724.45 906.7 719.75 907.15 715 907.4 711.3 908.25 698.55 908.55 685.75 908.9 672.95 909.7 660.2 910.25 651.4 910.55 642.55 910.8 633.7 911.55 624.85 912.25 616.05 914.05 607.35 915.1 602.6 916.25 597.9 917.35 593.25 918.6 588.65 Z"/>

<path fill="#FFFFFF" stroke="none" d="
M 940.7 479.85
Q 934.75 469.6 924.95 459.6 915.15 449.65 902.45 442.75 889.75 435.85 875.15 434.65 859.7 433.75 845.5 436.65 831.3 439.55 820.8 445.6 810.35 451.7 806.15 460.2 802.2 468.25 796.85 481.3 791.5 494.4 786.65 512.55 781.8 530.7 779.45 553.95 777.1 577.2 779.15 605.6 780.85 627.2 784.05 649.85 787.25 672.5 792.35 695.4 797.45 718.25 804.85 740.55
L 804.95 740.85
Q 804.95 741 805 741.15
L 806.05 742.25 808.55 744.1
Q 811.85 746.35 817.75 749.05 823.65 751.7 831.7 753.75 832.15 753.85 832.55 753.95 833 754.05 833.45 754.15 838.6 755.3 844.45 755.85 850.3 756.35 856.75 755.95 869.15 755.1 877.85 752.65 886.5 750.15 891.8 747.2 897.05 744.25 899.2 741.95 899.5 741.65 899.75 741.35 900 741.05 900.2 740.8 900.3 740.7 900.35 740.55 900.45 740.45 900.5 740.35 903.55 729.05 904.8 710.6 906 692.2 906.75 669.65 907.5 647.15 909.2 623.55 910.3 609.85 913.2 597 916.1 584.15 920.05 572.35 924 560.6 928.3 550.15 933.55 537.5 938.15 527.25 942.75 516.95 945.45 509.55 948.2 502.15 947.75 498.05 946.65 490.15 940.7 479.85 Z"/>
</g>

<g id="Layer0_11_FILL">
<path fill="#FFFFFF" stroke="none" d="
M 743.95 723.9
L 743.8 741
Q 743.6 757.45 742.85 781.95 742.1 806.5 740.4 831.4 738.7 856.3 735.7 873.85 746.95 882.7 760.85 889.25 774.8 895.8 789 899.15 803.15 902.55 815.2 901.85 827.25 901.15 834.7 895.55
L 843.25 871
Q 851.3 847.75 861.8 817.15 872.35 786.6 880.35 763.3
L 888.9 738.6
Q 879.15 728.7 861.65 722.7 844.15 716.7 823 714.75 801.85 712.8 781.1 715.05 760.3 717.3 743.95 723.9 Z"/>
</g>

<g id="Symbol_32_0_Layer0_0_FILL">
<path fill="#0081C6" stroke="none" d="
M 943.65 840.8
Q 942.6 838.75 942.2 837.35 941.45 834.6 941.05 831.85 940.7 829.05 940.15 826.35
L 939.65 824.85 939.1 824.45
Q 938.5 824.55 938.05 825.8 937.65 827 937.65 828.25 937.8 831.4 938.75 835.75 939.7 840.1 941.85 843.7 943.95 847.3 947.65 848.15 951.1 848.6 953.45 845.55 955.8 842.55 957.1 838.5 958.4 834.45 958.75 831.75 958.9 830.75 958.95 828.85 959 826.95 958.7 825.25 958.4 823.5 957.45 822.95
L 957.25 822.9
Q 957.1 822.9 957.05 822.95 956.7 823.3 956.6 823.8
L 956.45 824.5
Q 956.2 826.4 956.15 828.4 956.15 830.4 955.8 832.35 955.5 834.05 954.65 836.85 953.8 839.65 952.5 842.15 951.2 844.6 949.5 845.25 947.75 845.7 946.2 844.3 944.7 842.85 943.65 840.8 Z"/>
</g>

<g id="Layer0_13_FILL">
<path fill="#FFFFFF" stroke="none" d="
M 970.95 685
Q 947.9 678.5 936.05 677.05 937.35 696.55 937.4 732.45 937.4 768.4 936.75 806.75 936.15 845.1 935.5 871.85
L 934.95 899.8
Q 953.15 904.55 969.15 905.3 985.15 906.05 1001.65 902.1 1018.2 898.2 1037.85 888.85 1043.2 860.05 1056.4 830.05 1069.6 800.1 1084.65 774.45 1099.7 748.8 1110.55 732.9
L 1122 716.4
Q 1103.2 717.55 1076.6 712.3 1050.05 707.1 1022.05 699.3 994.05 691.5 970.95 685 Z"/>
</g>

<g id="Symbol_33_0_Layer0_0_FILL">
<path fill="#0081C6" stroke="none" d="
M 943.35 838.65
Q 942.15 836.05 941.4 832.95 940.6 829.9 939.6 827.1
L 939.2 826.4 938.9 826.25
Q 938.6 826.4 938.45 827.1 938.3 827.8 938.3 828.5 938.5 831.6 939.5 835.45 940.5 839.25 942.25 842.4 943.95 845.55 946.3 846.7 950.3 848.25 953.15 845.6 956 842.95 957.6 838.15 959.2 833.4 959.35 828.65 959.35 827.95 959.35 826.95 959.3 825.95 959.1 825.15 958.85 824.4 958.4 824.45 958.25 824.75 958.1 825.1
L 957.95 825.6
Q 957.35 827.6 957.1 829.8 956.8 831.95 956.3 834.1 955.15 838.55 953 841.25 950.85 843.95 948.25 843.6 945.7 843.25 943.35 838.65 Z"/>
</g>

<g id="Layer0_15_FILL">
<path fill="#0081C6" stroke="none" d="
M 725.05 678.45
Q 724.9 676.8 724.65 674.85 724.45 672.95 724.2 671.45 724.05 671 723.95 670.55 723.8 670.1 723.7 669.65 723.5 669.5 723.3 669.5 723.1 669.5 722.9 669.65 719.35 679.85 720.75 690.3 722.2 700.7 726.9 710.65 731.55 720.55 737.75 729.2 734.75 722.35 732.8 715 730.9 707.65 730.15 699.8 728.4 695.4 727.2 690.6 725.95 685.85 725.3 680.65
L 725.05 678.45
M 1066.9 588.65
Q 1066.4 587.05 1065.05 584 1063.7 580.95 1062 578 1060.3 575 1058.85 573.6 1061.9 583.45 1064.05 593 1066.2 602.6 1067.25 611.65 1070 636.45 1068.4 659.7 1066.8 682.95 1061.15 703.8 1055.5 724.65 1046.15 742.25 1044.2 745.95 1042 749.45 1039.8 752.9 1037.35 756.2 1033.2 763.3 1028.1 769.8 1023 776.25 1016.5 781.8
L 1013.75 784.45 1013.25 785.85 1014.4 786.15 1015.35 786.05 1016.55 785.7
Q 1019.2 784.85 1021.3 783.45 1033.4 774.8 1042.7 760.95 1052 747.1 1058.55 731.55 1065.15 716 1069.05 702.25 1077.2 674.05 1076.5 645.6 1075.75 617.15 1066.9 588.65
M 786.75 782.25
L 786.55 782.15
Q 792.3 786.7 798.25 790.85 804.2 794.95 810.25 798.75 813.9 800.25 817.4 801.55 820.95 802.85 824.1 804 835.9 808.25 848.9 811.4 861.95 814.5 875.2 816.5 888.45 818.5 900.9 819.4 914.3 820.3 928.3 817.9 942.35 815.55 955.85 811 969.4 806.4 981.2 800.65 983.9 799.3 986.35 797.55 988.8 795.8 990.9 793.75 968 804.9 941.45 809.4 914.9 813.95 887.4 812.2 859.85 810.5 834.05 802.95 808.2 795.35 786.75 782.25 Z"/>

<path fill="#FFFFFF" stroke="none" d="
M 867.95 342.6
Q 840.65 323 827.05 318.4 802 331.4 775.55 356.15 749.1 380.95 727.65 413.1 706.2 445.25 696.05 480.3 685.9 515.4 693.45 548.95
L 693.9 555.8 696.05 567.15
Q 699.1 580.7 704 598.95 708.95 617.2 714.25 635.9 719.55 654.65 723.7 669.65 723.8 670.1 723.95 670.55 724.05 671 724.2 671.45 726.7 680.65 728.2 686.8
L 729.85 695.1
Q 729.9 696.25 729.95 697.45 730.05 698.65 730.15 699.8 730.9 707.65 732.8 715 734.75 722.35 737.75 729.2 745 745.5 757.55 758.8 770.15 772.1 786.75 782.25 808.2 795.35 834.05 802.95 859.85 810.5 887.4 812.2 914.9 813.95 941.45 809.4 968 804.9 990.9 793.75 1004.8 786.95 1016.6 777.6 1028.35 768.2 1037.35 756.2 1039.8 752.9 1042 749.45 1044.2 745.95 1046.15 742.25 1055.5 724.65 1061.15 703.8 1066.8 682.95 1068.4 659.7 1070 636.45 1067.25 611.65 1066.2 602.6 1064.05 593 1061.9 583.45 1058.85 573.6 1051.7 550.9 1041.9 529 1032.15 507.05 1022.5 489.1 1012.85 471.1 1006.15 460.1
L 998.45 448.25 975.95 428.55
Q 954.8 410.45 925 386.35 895.2 362.25 867.95 342.6 Z"/>
</g>

<g id="Symbol_46_0_Layer0_0_FILL">
<path fill="#0081C6" stroke="none" d="
M 1180.85 318
Q 1180.55 316.65 1180.3 315.3 1180 313.9 1179.7 312.45
L 1179.7 312.85 1179.65 313.25
Q 1179.15 341.65 1172.05 367 1164.95 392.4 1151.75 413.1 1138.6 433.8 1119.95 448.05 1108.65 456.75 1091.95 463.05 1075.25 469.35 1053.25 472.6 1054.15 473.05 1055.35 473.2
L 1057.05 473.35
Q 1060.65 473.6 1065 473.3 1069.35 472.95 1073.7 472.3 1078.05 471.65 1081.7 470.85
L 1082.25 470.65
Q 1082.7 470.45 1083.15 470.4 1084.1 470.2 1085.25 470.05
L 1086.65 469.85
Q 1094.65 468.05 1103.2 464.05 1111.7 460.05 1119.6 454.8 1127.55 449.55 1133.8 444 1151.35 428.55 1163.65 408 1175.9 387.45 1180.75 364.35 1185.6 341.25 1180.85 318 Z"/>

<path fill="#FFFFFF" stroke="none" d="
M 1122.8 255.7
Q 1110 273.4 1094.75 285.3 1079.5 297.2 1063.95 294.65 1055.65 292.65 1050.65 285.8 1045.7 279 1043.2 270.45 1040.75 261.95 1039.95 254.7 1039.2 247.5 1039.2 244.7 1039.1 241.9 1037.25 240.05 1035.45 238.2 1032.75 237.9 1030 237.6 1027.25 239.6 1022.9 242.9 1016.85 247 1010.75 251.05 1003.75 253.85 996.8 256.6 989.75 256.05 986.3 255.55 980.9 251.8 975.45 248.05 969 242.55 962.55 237.1 956.1 231.5 949.65 225.85 944.15 221.65 939.8 218.15 928.8 215.2 917.8 212.2 901.4 212.95 884.95 213.7 864.2 221.35 849.8 227.15 840.45 234.3 831.05 241.45 826.15 247.25
L 820.15 254.8
Q 806.25 274.4 801.9 297.05 797.55 319.65 798.75 340.1 799.9 360.5 802.65 373.55
L 805.7 387 808.35 392.55
Q 810.7 397.6 815 404.9 819.35 412.15 825.75 419.3 832.2 426.4 840.75 431.1 865.1 443.7 888.65 452.55 912.2 461.35 931.8 466.4 951.4 471.45 963.95 472.8 990.1 475.65 1012.4 475.5 1034.7 475.35 1053.25 472.6 1075.25 469.35 1091.95 463.05 1108.65 456.75 1119.95 448.05 1138.6 433.8 1151.75 413.1 1164.95 392.4 1172.05 367 1179.15 341.65 1179.65 313.25
L 1179.7 312.85 1179.7 312.45
Q 1180.05 278.8 1178 256.6 1175.9 234.4 1173.45 222.5
L 1170.05 207.8
Q 1168.55 202.4 1165.05 200.7 1161.55 199 1158.1 200.15 1154.65 201.3 1153.2 204.55
L 1143.75 223.05
Q 1135.55 238 1122.8 255.7 Z"/>
</g>

<g id="Symbol_47_0_Layer0_0_FILL">
<path fill="#0081C6" stroke="none" d="
M 937.85 340.15
Q 937.55 343.45 938.2 346.35 938.85 349.3 940.3 351.55 941.75 353.85 943.85 355.2 945.95 356.6 948.5 356.8 951.05 356.95 953.35 355.9 955.7 354.8 957.6 352.75 959.5 350.7 960.7 347.95 961.95 345.15 962.3 341.85 962.6 338.55 961.95 335.65 961.3 332.75 959.85 330.45 958.35 328.2 956.3 326.8 954.2 325.45 951.65 325.25 949.1 325.1 946.75 326.15 944.45 327.2 942.55 329.25 940.65 331.3 939.45 334.1 938.2 336.85 937.85 340.15 Z"/>
</g>

<g id="Symbol_34_0_Layer0_0_FILL">
<path fill="#FFFFFF" stroke="none" d="
M 986.25 295.45
Q 983.9 288.7 978.35 283.8 972.85 278.85 963.05 277.05 953.1 275.55 946.15 278.6 939.15 281.7 934.5 287.45 929.85 293.25 927 299.8 924.15 306.3 922.45 311.7 931.35 312.7 942.55 314.6 953.75 316.45 965.55 318.7 977.3 320.9 987.9 323.05 988.85 316.6 988.7 309.4 988.55 302.15 986.25 295.45 Z"/>
</g>

<g id="Symbol_35_0_Layer0_0_FILL">
<path fill="#a6ce38" stroke="none" d="
M 1313.1 839.9
Q 1306.9 831.3 1300.9 821.95 1294.9 812.6 1289.3 802.95 1285.75 796.9 1282.45 790.95 1279.1 784.95 1276 779.1 1252.4 734.9 1235.05 688.3 1217.7 641.7 1206.35 592.5 1198.85 559.75 1193.75 526.5 1188.7 493.2 1185.75 459.5 1185.1 452.55 1184.35 446 1183.55 439.5 1183.15 432.95 1183.05 430.8 1183 428.6 1182.95 426.45 1183 424.2
L 1183.05 424.05
Q 1184.65 419.6 1186.6 413.55 1188.55 407.5 1187.75 402.6 1186.95 397.65 1180.3 396.45
L 1180.15 396.1
Q 1179.6 395.4 1178.85 395.7 1178.05 395.95 1177.3 395.8
L 1175.65 396.3 1175.6 396.3
Q 1174.55 396.3 1173.4 396.4
L 1171.95 396.55
Q 1166.2 397.4 1160.85 398.7 1155.5 400.05 1150.4 401.75 1145.5 402.85 1141.15 404.4 1136.75 405.9 1133.55 408.05 1130.25 409.4 1126.9 410.8 1123.55 412.2 1120.15 413.6 1103.65 417.25 1086.2 425.15 1068.75 433 1054.1 440.85 1048.4 443.8 1043.45 447.25 1038.5 450.75 1034.35 454.7 1026.55 462.05 1021.35 470.95 1016.15 479.8 1013.6 490.05 1013.05 490.9 1012.65 491.65
L 1012.2 492.6
Q 1010.2 498.05 1009.7 504.25 1009.2 510.45 1008.5 516.25 1003.8 547.35 1007.1 577.25 1010.35 607.1 1022.55 635.15 1024.1 638.6 1025.75 642.05 1027.4 645.45 1029.2 648.85 1037.7 665.7 1049.95 681.2 1062.15 696.75 1080.25 703.75 1085.9 706.65 1092.1 708.05 1098.35 709.45 1105.15 709.05 1105.5 709.05 1105.8 709 1106.1 709 1106.4 708.95 1118.25 737.4 1134.5 763.95 1150.75 790.5 1171.95 812.05 1183.2 823.45 1199.35 831.55 1215.55 839.7 1231.75 837.7 1234.65 841.3 1237.5 844.75 1240.35 848.2 1243.05 851.35 1253.1 863.25 1267.35 875.25 1281.55 887.25 1297.5 896.15 1313.45 905 1328.6 907.5 1331.35 907.95 1336.35 908 1341.4 908.1 1345.6 906.75 1349.8 905.35 1350.1 901.45 1351.1 902.6 1352 903.4 1352.95 904.25 1353.6 904.35 1353.8 904.4 1354.2 904.35 1354.65 904.35 1354.9 904.1 1354.95 902.9 1354.25 901.6 1353.5 900.35 1353.15 899.85 1343.7 883.9 1333.75 869.25 1323.75 854.6 1313.1 839.9
M 1019.4 572.3
L 1019.45 572.5 1019.45 572.65 1019.4 572.3 Z"/>

<path fill="#0081C6" stroke="none" d="
M 1034.35 454.7
Q 1034.3 454.2 1034.15 453.7 1034 453.15 1033.4 453.1 1032.65 454 1031.9 455.15
L 1030.9 456.65
Q 1026.35 461.65 1021.85 465.6 1017.35 469.55 1013.95 475.6 1001.8 499.9 999.3 529.1 996.8 558.25 1000.55 587.75 1004.35 617.25 1011 642.55 1014.8 656.85 1020.45 671.2 1026.1 685.55 1031.9 699.15 1032.45 700.65 1033.4 701.6 1034.3 702.55 1035.55 701 1035.65 700.85 1035.65 700.5 1035.7 700.2 1035.75 699.75 1035.6 699 1035.3 698.1
L 1034.95 696.9
Q 1031.65 681.5 1028.7 666.05 1025.8 650.6 1022.55 635.15 1010.35 607.1 1007.1 577.25 1003.8 547.35 1008.5 516.25 1009.2 510.45 1009.7 504.25 1010.2 498.05 1012.2 492.6
L 1012.65 491.65
Q 1013.05 490.9 1013.6 490.05 1016.15 479.8 1021.35 470.95 1026.55 462.05 1034.35 454.7
M 1298 807.5
Q 1297.35 805.75 1297 805 1287.5 780.9 1274.45 758.4 1261.35 735.9 1250.85 712.15 1232.95 668.6 1221 623.4 1209.1 578.25 1199.7 532.35 1194.55 507.9 1190.35 482.85 1186.15 457.75 1183.15 432.95 1183.55 439.5 1184.35 446 1185.1 452.55 1185.75 459.5 1188.7 493.2 1193.75 526.5 1198.85 559.75 1206.35 592.5 1217.7 641.7 1235.05 688.3 1252.4 734.9 1276 779.1 1279.1 784.95 1282.45 790.95 1285.75 796.9 1289.3 802.95 1290.6 804.65 1291.95 806.35 1293.35 808 1294.8 809.6 1295.5 810.55 1296.35 811.1 1297.15 811.65 1298.1 810.6 1298.65 809.2 1298 807.5 Z"/>
</g>

<g id="Symbol_37_0_Layer0_0_FILL">
<path fill="#a6ce38" stroke="none" d="
M 1313.1 839.9
Q 1306.9 831.3 1300.9 821.95 1294.9 812.6 1289.3 802.95 1285.75 796.9 1282.45 790.95 1279.1 784.95 1276 779.1 1252.4 734.9 1235.05 688.3 1217.7 641.7 1206.35 592.5 1198.85 559.75 1193.75 526.5 1188.7 493.2 1185.75 459.5 1185.1 452.55 1184.35 446 1183.55 439.5 1183.15 432.95 1183.05 430.8 1183 428.6 1182.95 426.45 1183 424.2
L 1183.05 424.05
Q 1184.65 419.6 1186.6 413.55 1188.55 407.5 1187.75 402.6 1186.95 397.65 1180.3 396.45
L 1180.15 396.1
Q 1179.6 395.4 1178.85 395.7 1178.05 395.95 1177.3 395.8
L 1175.65 396.3 1175.6 396.3
Q 1174.55 396.3 1173.4 396.4
L 1171.95 396.55
Q 1166.2 397.4 1160.85 398.7 1155.5 400.05 1150.4 401.75 1145.5 402.85 1141.15 404.4 1136.75 405.9 1133.55 408.05 1130.25 409.4 1126.9 410.8 1123.55 412.2 1120.15 413.6 1103.65 417.25 1086.2 425.15 1068.75 433 1054.1 440.85 1048.4 443.8 1043.45 447.25 1038.5 450.75 1034.35 454.7 1026.55 462.05 1021.35 470.95 1016.15 479.8 1013.6 490.05 1013.05 490.9 1012.65 491.65
L 1012.2 492.6
Q 1010.2 498.05 1009.7 504.25 1009.2 510.45 1008.5 516.25 1003.8 547.35 1007.1 577.25 1010.35 607.1 1022.55 635.15 1024.1 638.6 1025.75 642.05 1027.4 645.45 1029.2 648.85 1037.7 665.7 1049.95 681.2 1062.15 696.75 1080.25 703.75 1085.9 706.65 1092.1 708.05 1098.35 709.45 1105.15 709.05 1105.5 709.05 1105.8 709 1106.1 709 1106.4 708.95 1118.25 737.4 1134.5 763.95 1150.75 790.5 1171.95 812.05 1183.2 823.45 1199.35 831.55 1215.55 839.7 1231.75 837.7 1234.65 841.3 1237.5 844.75 1240.35 848.2 1243.05 851.35 1253.1 863.25 1267.35 875.25 1281.55 887.25 1297.5 896.15 1313.45 905 1328.6 907.5 1331.35 907.95 1336.35 908 1341.4 908.1 1345.6 906.75 1349.8 905.35 1350.1 901.45 1351.1 902.6 1352 903.4 1352.95 904.25 1353.6 904.35 1353.8 904.4 1354.2 904.35 1354.65 904.35 1354.9 904.1 1354.95 902.9 1354.25 901.6 1353.5 900.35 1353.15 899.85 1343.7 883.9 1333.75 869.25 1323.75 854.6 1313.1 839.9
M 1019.4 572.3
L 1019.45 572.5 1019.45 572.65 1019.4 572.3 Z"/>

<path fill="#0081C6" stroke="none" d="
M 1034.35 454.7
Q 1034.3 454.2 1034.15 453.7 1034 453.15 1033.4 453.1 1032.65 454 1031.9 455.15
L 1030.9 456.65
Q 1026.35 461.65 1021.85 465.6 1017.35 469.55 1013.95 475.6 1001.8 499.9 999.3 529.1 996.8 558.25 1000.55 587.75 1004.35 617.25 1011 642.55 1014.8 656.85 1020.45 671.2 1026.1 685.55 1031.9 699.15 1032.45 700.65 1033.4 701.6 1034.3 702.55 1035.55 701 1035.65 700.85 1035.65 700.5 1035.7 700.2 1035.75 699.75 1035.6 699 1035.3 698.1
L 1034.95 696.9
Q 1031.65 681.5 1028.7 666.05 1025.8 650.6 1022.55 635.15 1010.35 607.1 1007.1 577.25 1003.8 547.35 1008.5 516.25 1009.2 510.45 1009.7 504.25 1010.2 498.05 1012.2 492.6
L 1012.65 491.65
Q 1013.05 490.9 1013.6 490.05 1016.15 479.8 1021.35 470.95 1026.55 462.05 1034.35 454.7
M 1298 807.5
Q 1297.35 805.75 1297 805 1287.5 780.9 1274.45 758.4 1261.35 735.9 1250.85 712.15 1232.95 668.6 1221 623.4 1209.1 578.25 1199.7 532.35 1194.55 507.9 1190.35 482.85 1186.15 457.75 1183.15 432.95 1183.55 439.5 1184.35 446 1185.1 452.55 1185.75 459.5 1188.7 493.2 1193.75 526.5 1198.85 559.75 1206.35 592.5 1217.7 641.7 1235.05 688.3 1252.4 734.9 1276 779.1 1279.1 784.95 1282.45 790.95 1285.75 796.9 1289.3 802.95 1290.6 804.65 1291.95 806.35 1293.35 808 1294.8 809.6 1295.5 810.55 1296.35 811.1 1297.15 811.65 1298.1 810.6 1298.65 809.2 1298 807.5 Z"/>
</g>

<g id="Layer0_21_FILL">
<path fill="#a6ce38" stroke="none" d="
M 758.9 590
Q 753.15 581.15 747.85 586.05 742.9 591.8 733.1 598.4 723.3 605 705.85 611.3 688.35 617.65 660.25 622.55 638.35 626 609.55 625 580.7 624 553.1 620.9 525.45 617.85 507.2 615
L 488.05 611.9
Q 523.75 626.5 549.25 635.35 574.75 644.2 592.85 650.05 611 655.95 624.55 661.5 635.75 665.5 660.45 662.05 685.15 658.6 712.6 651.9 740.1 645.2 759.6 639.55
L 780.05 633.55
Q 775.6 625.3 770.1 612.05 764.6 598.85 758.9 590 Z"/>
</g>

<g id="Symbol_36_0_Layer0_0_FILL">
<path fill="#0081C6" stroke="none" d="
M 898.65 490.95
Q 900.1 491.65 903.65 492.85 907.2 494.05 910.35 494 913.45 493.95 913.65 490.95 913.05 487.85 907.8 485.95 902.5 484.05 899.35 482.9 888.65 477.9 878.2 473.85 867.8 469.75 856.05 466.45 835.95 460.75 816.5 454.2 797.05 447.65 777.6 440.8 773.6 439.4 769.45 438.2 765.35 437 761.25 436
L 760.75 435.9
Q 760.4 435.8 760.05 435.85
L 757.5 435.15
Q 756.45 434.85 755.35 434.55 754.25 434.25 753.15 434 747.8 433.3 740.6 432.75 733.35 432.2 724.4 432.1 703.25 431.55 674.15 435.75 645.05 439.95 610 452.3 584.1 461.5 556 476.8 527.85 492.1 498.3 514.85 496.25 517.25 494.35 519.7 492.45 522.15 490.75 524.7
L 489.9 525.8
Q 489.25 526.7 488.7 527.5 488.05 528.35 487.65 529.35 487.3 530.35 487.4 531.45 487.5 531.6 487.75 531.55
L 488.15 531.5 490.05 530.45 499.05 523.05
Q 535.45 490.65 579.5 470.65 623.5 450.65 671.7 443.3 686.05 441.1 700 439.9 714 438.65 728.1 437.7 730.45 437.85 732.75 438.1 735.05 438.3 737.35 438.55 758.7 441.45 779.15 448.95 799.6 456.4 819.85 463.3 830 466.55 840.2 469.65 850.45 472.75 860.85 475.7 870.95 478.65 880.1 482.7 889.3 486.8 898.65 490.95 Z"/>

<path fill="#a6ce38" stroke="none" d="
M 797.25 287.3
Q 779.8 272.1 759.15 258.8 738.7 245.35 701.05 240.6 663.45 235.9 616.8 252.25 570.15 268.6 522.55 318.35 488.5 356.3 470.25 398.1 452 439.95 444.65 477.8 437.25 515.6 435.95 541.55
L 434.4 573.65
Q 450.5 556.35 466.5 541.7 482.5 527.05 498.3 514.85 527.85 492.1 556 476.8 584.1 461.5 610 452.3 645.05 439.95 674.15 435.75 703.25 431.55 724.4 432.1 733.35 432.2 740.6 432.75 747.8 433.3 753.15 434 758.1 434.65 761.3 435.2 764.5 435.8 765.85 436.05
L 769.95 431.55 778.45 419.2
Q 789.2 402.9 802.7 381.35 816.2 359.8 826.25 343.3
L 836.8 325.85 825.5 313.6
Q 814.7 302.5 797.25 287.3 Z"/>
</g>

<g id="Symbol_18_0_Layer0_0_FILL">
<path fill="#a6ce38" stroke="none" d="
M 989.9 276.1
Q 978.95 282.05 974.4 287.2
L 969.25 296.75 962.6 314.05
Q 955.15 335.3 946.9 357 938.65 378.7 931.95 385.6 926.7 390.7 935.55 396.4 944.4 402.1 960.55 406.6 976.7 411.1 993.55 412.7 1010.05 414.85 1024.85 422.25 1039.65 429.65 1049.95 434.4 1060.3 439.15 1063.35 433.25
L 1065 406.7
Q 1066.5 385.9 1067 359.8 1067.45 333.65 1064.4 312.1 1061.35 290.5 1052.35 283.25 1032.8 270.35 1016.85 270.3 1000.85 270.2 989.9 276.1 Z"/>
</g>

<g id="Symbol_19_0_Layer0_0_FILL">
<path fill="#a6ce38" stroke="none" d="
M 1106.5 326.35
Q 1113.75 318.9 1118.6 311
L 1115.05 308.9 1104.95 304.7
Q 1091.55 299.45 1068.2 297.6
L 1071.15 308.1
Q 1074.2 317.9 1077.85 329.4 1081.5 340.9 1083.4 346.7 1086.05 344.75 1092.65 339.3 1099.2 333.8 1106.5 326.35 Z"/>
</g>

<g id="Layer0_25_FILL">
<path fill="#a6ce38" stroke="none" d="
M 758.9 590
Q 753.15 581.15 747.85 586.05 742.9 591.8 733.1 598.4 723.3 605 705.85 611.3 688.35 617.65 660.25 622.55 638.35 626 609.55 625 580.7 624 553.1 620.9 525.45 617.85 507.2 615
L 488.05 611.9
Q 523.75 626.5 549.25 635.35 574.75 644.2 592.85 650.05 611 655.95 624.55 661.5 635.75 665.5 660.45 662.05 685.15 658.6 712.6 651.9 740.1 645.2 759.6 639.55
L 780.05 633.55
Q 775.6 625.3 770.1 612.05 764.6 598.85 758.9 590 Z"/>
</g>

<g id="Symbol_38_0_Layer0_0_FILL">
<path fill="#0081C6" stroke="none" d="
M 898.65 490.95
Q 900.1 491.65 903.65 492.85 907.2 494.05 910.35 494 913.45 493.95 913.65 490.95 913.05 487.85 907.8 485.95 902.5 484.05 899.35 482.9 888.65 477.9 878.2 473.85 867.8 469.75 856.05 466.45 835.95 460.75 816.5 454.2 797.05 447.65 777.6 440.8 773.6 439.4 769.45 438.2 765.35 437 761.25 436
L 760.75 435.9
Q 760.4 435.8 760.05 435.85
L 757.5 435.15
Q 756.45 434.85 755.35 434.55 754.25 434.25 753.15 434 747.8 433.3 740.6 432.75 733.35 432.2 724.4 432.1 703.25 431.55 674.15 435.75 645.05 439.95 610 452.3 584.1 461.5 556 476.8 527.85 492.1 498.3 514.85 496.25 517.25 494.35 519.7 492.45 522.15 490.75 524.7
L 489.9 525.8
Q 489.25 526.7 488.7 527.5 488.05 528.35 487.65 529.35 487.3 530.35 487.4 531.45 487.5 531.6 487.75 531.55
L 488.15 531.5 490.05 530.45 499.05 523.05
Q 535.45 490.65 579.5 470.65 623.5 450.65 671.7 443.3 686.05 441.1 700 439.9 714 438.65 728.1 437.7 730.45 437.85 732.75 438.1 735.05 438.3 737.35 438.55 758.7 441.45 779.15 448.95 799.6 456.4 819.85 463.3 830 466.55 840.2 469.65 850.45 472.75 860.85 475.7 870.95 478.65 880.1 482.7 889.3 486.8 898.65 490.95 Z"/>

<path fill="#a6ce38" stroke="none" d="
M 797.25 287.3
Q 779.8 272.1 759.15 258.8 738.7 245.35 701.05 240.6 663.45 235.9 616.8 252.25 570.15 268.6 522.55 318.35 488.5 356.3 470.25 398.1 452 439.95 444.65 477.8 437.25 515.6 435.95 541.55
L 434.4 573.65
Q 450.5 556.35 466.5 541.7 482.5 527.05 498.3 514.85 527.85 492.1 556 476.8 584.1 461.5 610 452.3 645.05 439.95 674.15 435.75 703.25 431.55 724.4 432.1 733.35 432.2 740.6 432.75 747.8 433.3 753.15 434 758.1 434.65 761.3 435.2 764.5 435.8 765.85 436.05
L 769.95 431.55 778.45 419.2
Q 789.2 402.9 802.7 381.35 816.2 359.8 826.25 343.3
L 836.8 325.85 825.5 313.6
Q 814.7 302.5 797.25 287.3 Z"/>
</g>

<g id="Symbol_22_0_Layer0_0_FILL">
<path fill="#0081C6" stroke="none" d="
M 1035.4 302.25
L 1033.5 301.25 1031.5 300.65 1029.35 300.45 1027.25 300.65 1025.25 301.25 1023.35 302.25 1021.75 303.6 1020.4 305.25 1019.4 307.1 1018.75 309.15 1018.55 311.25 1018.75 313.35 1019.4 315.4 1020.4 317.25 1021.75 318.9 1023.35 320.25 1025.25 321.25 1027.25 321.85 1029.35 322.05 1031.5 321.85 1033.5 321.25 1035.4 320.25 1037 318.9 1038.35 317.25 1039.35 315.4 1040 313.35 1040.2 311.25 1040 309.15 1039.35 307.1 1038.35 305.25 1037 303.6 1035.4 302.25 Z"/>
</g>

<g id="Symbol_23_0_Layer0_0_FILL">
<path fill="#a6ce38" stroke="none" d="
M 1040.4 290.7
Q 1036.7 285.45 1029.15 285.1 1020.3 285.55 1015.95 292.1 1011.65 298.6 1010.8 306.75
L 1046.25 307 1045.2 301.3
Q 1044.1 296 1040.4 290.7 Z"/>
</g>

<g id="Symbol_24_0_Layer0_0_FILL">
<path fill="#a6ce38" stroke="none" d="
M 989.9 276.1
Q 978.95 282.05 974.4 287.2
L 969.25 296.75 962.6 314.05
Q 955.15 335.3 946.9 357 938.65 378.7 931.95 385.6 926.7 390.7 935.55 396.4 944.4 402.1 960.55 406.6 976.7 411.1 993.55 412.7 1010.05 414.85 1024.85 422.25 1039.65 429.65 1049.95 434.4 1060.3 439.15 1063.35 433.25
L 1065 406.7
Q 1066.5 385.9 1067 359.8 1067.45 333.65 1064.4 312.1 1061.35 290.5 1052.35 283.25 1032.8 270.35 1016.85 270.3 1000.85 270.2 989.9 276.1 Z"/>
</g>

<g id="Symbol_25_0_Layer0_0_FILL">
<path fill="#a6ce38" stroke="none" d="
M 1106.5 326.35
Q 1113.75 318.9 1118.6 311
L 1115.05 308.9 1104.95 304.7
Q 1091.55 299.45 1068.2 297.6
L 1071.15 308.1
Q 1074.2 317.9 1077.85 329.4 1081.5 340.9 1083.4 346.7 1086.05 344.75 1092.65 339.3 1099.2 333.8 1106.5 326.35 Z"/>
</g>

<g id="Symbol_26_0_Layer0_0_FILL">
<path fill="#0081C6" stroke="none" d="
M 1035.4 302.25
L 1033.5 301.25 1031.5 300.65 1029.35 300.45 1027.25 300.65 1025.25 301.25 1023.35 302.25 1021.75 303.6 1020.4 305.25 1019.4 307.1 1018.75 309.15 1018.55 311.25 1018.75 313.35 1019.4 315.4 1020.4 317.25 1021.75 318.9 1023.35 320.25 1025.25 321.25 1027.25 321.85 1029.35 322.05 1031.5 321.85 1033.5 321.25 1035.4 320.25 1037 318.9 1038.35 317.25 1039.35 315.4 1040 313.35 1040.2 311.25 1040 309.15 1039.35 307.1 1038.35 305.25 1037 303.6 1035.4 302.25 Z"/>
</g>

<g id="Symbol_27_0_Layer0_0_FILL">
<path fill="#a6ce38" stroke="none" d="
M 1040.4 290.7
Q 1036.7 285.45 1029.15 285.1 1020.3 285.55 1015.95 292.1 1011.65 298.6 1010.8 306.75
L 1046.25 307 1045.2 301.3
Q 1044.1 296 1040.4 290.7 Z"/>
</g>

<g id="Layer0_33_FILL">
<path fill="#0081C6" stroke="none" d="
M 987.5 438.85
Q 987.3 438.5 987.15 438.15 986.95 437.8 986.8 437.55 985.4 437.15 985.5 438.95 985.6 440.75 985.85 442.55 986.9 460 990 476.55 993.05 493.1 997.85 510.05 1005.7 538.45 1018.15 567.95 1030.55 597.45 1047.5 624.35 1064.45 651.25 1085.9 671.65 1091.6 677.05 1099.3 682 1107 686.95 1114.45 689.25
L 1116.1 689.55
Q 1117.4 689.75 1118.4 689.75 1118.5 689.25 1118.25 688.65 1118 688.1 1117.9 687.9 1116.9 685.75 1115 683.9 1113.1 682.05 1110.95 680.45 1110.55 680.15 1110.15 679.85 1109.75 679.55 1109.35 679.3
L 1108.95 679.15
Q 1107.8 678.65 1106.6 678.05 1105.45 677.45 1104.25 676.75 1094.4 670.95 1084.8 661.8 1075.15 652.7 1068.7 644.6 1049.3 620.05 1034.95 590.55 1020.6 561.05 1010.55 529.65 1000.45 498.3 993.75 468.15 992.25 461.7 990.5 454.15 988.75 446.65 987.5 438.85
M 1078.25 367.15
L 1078.2 367.55
Q 1080 370.5 1081.65 373.5 1083.3 376.55 1084.85 379.4 1086.8 381.6 1088.8 383.6 1090.75 385.65 1092.3 387.55 1100.45 397.75 1108.05 409.9 1115.65 422.05 1121.9 433.4 1123.15 435.65 1124.4 437.85 1125.65 440.1 1126.85 442.35 1146.6 472.85 1160.95 505.95 1175.25 539 1187.7 572.95 1194.65 591.35 1200.85 610.05 1207.05 628.75 1212.7 647.65 1212 639.65 1210.55 631.75 1209.15 623.8 1207.25 615.95 1202.15 594.75 1194.25 572.7 1186.45 550.65 1177.35 530.45 1161.35 493.9 1143.15 458.05 1124.9 422.25 1100.2 390.05 1095.5 384.4 1090.15 379.95 1084.85 375.5 1080.4 369.8
L 1079.75 368.85
Q 1079.2 368.05 1078.7 367.4
L 1078.25 367.15 Z"/>

<path fill="#a6ce38" stroke="none" d="
M 1052.4 349.5
L 1050.9 349.85
Q 1039.7 353.15 1030 364.15 1020.35 375.1 1013.3 389.2 1006.25 403.3 1002.9 415.85 1002.8 415.7 1002.7 415.55 1002.65 415.45 1002.55 415.35 1002.2 415.05 1001.85 415.05 1001.55 415.1 1001.2 415.4 999.75 416.85 998.1 420.8 996.5 424.75 995.8 427.9 994.95 424.65 993.85 421.65 992.7 418.65 991.25 416
L 990.25 414.5
Q 989.5 413.3 988.8 412.3 987.45 411.2 987.2 412
L 986.6 415.25
Q 985.85 420.5 986.15 426.5 986.45 432.55 987.5 438.85 988.75 446.65 990.5 454.15 992.25 461.7 993.75 468.15 1000.45 498.3 1010.55 529.65 1020.6 561.05 1034.95 590.55 1049.3 620.05 1068.7 644.6 1075.15 652.7 1084.8 661.8 1094.4 670.95 1104.25 676.75 1105.45 677.45 1106.6 678.05 1107.8 678.65 1108.95 679.15
L 1109.35 679.3
Q 1109.75 679.55 1110.15 679.85 1110.55 680.15 1110.95 680.45 1115.3 682.6 1121.85 685.45 1128.45 688.3 1133.6 689.7 1134.05 689.9 1134.5 690.05 1134.9 690.2 1135.35 690.35 1139.6 700.9 1147.3 713.7 1155 726.5 1164.85 736.6 1174.7 746.65 1185.4 749.1 1185.5 749.1 1185.65 749.15 1185.85 749.15 1186.05 749.2 1193 768.35 1202.25 786.55 1211.5 804.75 1223.9 821.65 1226.5 825.4 1231.8 831.45 1237.1 837.5 1243.1 840.8 1249.05 844.1 1253.7 839.75 1259.3 833.05 1258.9 821.55 1258.45 810.05 1255.35 798.25 1252.25 786.45 1249.7 778.8 1247.1 770.6 1244.55 762.65 1242 754.65 1239.8 746.3 1233.4 721.6 1226.75 696.9 1220.05 672.2 1212.7 647.65 1207.05 628.75 1200.85 610.05 1194.65 591.35 1187.7 572.95 1175.25 539 1160.95 505.95 1146.6 472.85 1126.85 442.35 1125.7 440.6 1124.55 438.85 1123.35 437.15 1122.15 435.4 1114.15 424 1105.9 412.5 1097.65 400.95 1090.25 389.2 1089.05 387.3 1087.7 384.8 1086.35 382.3 1084.85 379.4 1083.3 376.55 1081.65 373.5 1080 370.5 1078.2 367.55 1077.45 366.35 1076.7 365.2 1075.95 364.05 1075.15 362.95
L 1075.2 362.95 1076.4 363.15
Q 1077.35 363.25 1077.95 362.95 1079.2 356.95 1073.8 353.45 1068.45 349.9 1062.05 349 1060.55 348.8 1058.95 348.75 1057.35 348.75 1055.8 348.9
L 1055.3 349
Q 1054.9 349.1 1054.55 349 1053.55 349.2 1052.4 349.5 Z"/>
</g>

<g id="Layer0_34_FILL">
<path fill="#0081C6" stroke="none" d="
M 987.5 438.85
Q 987.3 438.5 987.15 438.15 986.95 437.8 986.8 437.55 985.4 437.15 985.5 438.95 985.6 440.75 985.85 442.55 986.9 460 990 476.55 993.05 493.1 997.85 510.05 1005.7 538.45 1018.15 567.95 1030.55 597.45 1047.5 624.35 1064.45 651.25 1085.9 671.65 1091.6 677.05 1099.3 682 1107 686.95 1114.45 689.25
L 1116.1 689.55
Q 1117.4 689.75 1118.4 689.75 1118.5 689.25 1118.25 688.65 1118 688.1 1117.9 687.9 1116.9 685.75 1115 683.9 1113.1 682.05 1110.95 680.45 1110.55 680.15 1110.15 679.85 1109.75 679.55 1109.35 679.3
L 1108.95 679.15
Q 1107.8 678.65 1106.6 678.05 1105.45 677.45 1104.25 676.75 1094.4 670.95 1084.8 661.8 1075.15 652.7 1068.7 644.6 1049.3 620.05 1034.95 590.55 1020.6 561.05 1010.55 529.65 1000.45 498.3 993.75 468.15 992.25 461.7 990.5 454.15 988.75 446.65 987.5 438.85
M 1078.25 367.15
L 1078.2 367.55
Q 1080 370.5 1081.65 373.5 1083.3 376.55 1084.85 379.4 1086.8 381.6 1088.8 383.6 1090.75 385.65 1092.3 387.55 1100.45 397.75 1108.05 409.9 1115.65 422.05 1121.9 433.4 1123.15 435.65 1124.4 437.85 1125.65 440.1 1126.85 442.35 1146.6 472.85 1160.95 505.95 1175.25 539 1187.7 572.95 1194.65 591.35 1200.85 610.05 1207.05 628.75 1212.7 647.65 1212 639.65 1210.55 631.75 1209.15 623.8 1207.25 615.95 1202.15 594.75 1194.25 572.7 1186.45 550.65 1177.35 530.45 1161.35 493.9 1143.15 458.05 1124.9 422.25 1100.2 390.05 1095.5 384.4 1090.15 379.95 1084.85 375.5 1080.4 369.8
L 1079.75 368.85
Q 1079.2 368.05 1078.7 367.4
L 1078.25 367.15 Z"/>

<path fill="#a6ce38" stroke="none" d="
M 1052.4 349.5
L 1050.9 349.85
Q 1039.7 353.15 1030 364.15 1020.35 375.1 1013.3 389.2 1006.25 403.3 1002.9 415.85 1002.8 415.7 1002.7 415.55 1002.65 415.45 1002.55 415.35 1002.2 415.05 1001.85 415.05 1001.55 415.1 1001.2 415.4 999.75 416.85 998.1 420.8 996.5 424.75 995.8 427.9 994.95 424.65 993.85 421.65 992.7 418.65 991.25 416
L 990.25 414.5
Q 989.5 413.3 988.8 412.3 987.45 411.2 987.2 412
L 986.6 415.25
Q 985.85 420.5 986.15 426.5 986.45 432.55 987.5 438.85 988.75 446.65 990.5 454.15 992.25 461.7 993.75 468.15 1000.45 498.3 1010.55 529.65 1020.6 561.05 1034.95 590.55 1049.3 620.05 1068.7 644.6 1075.15 652.7 1084.8 661.8 1094.4 670.95 1104.25 676.75 1105.45 677.45 1106.6 678.05 1107.8 678.65 1108.95 679.15
L 1109.35 679.3
Q 1109.75 679.55 1110.15 679.85 1110.55 680.15 1110.95 680.45 1115.3 682.6 1121.85 685.45 1128.45 688.3 1133.6 689.7 1134.05 689.9 1134.5 690.05 1134.9 690.2 1135.35 690.35 1139.6 700.9 1147.3 713.7 1155 726.5 1164.85 736.6 1174.7 746.65 1185.4 749.1 1185.5 749.1 1185.65 749.15 1185.85 749.15 1186.05 749.2 1193 768.35 1202.25 786.55 1211.5 804.75 1223.9 821.65 1226.5 825.4 1231.8 831.45 1237.1 837.5 1243.1 840.8 1249.05 844.1 1253.7 839.75 1259.3 833.05 1258.9 821.55 1258.45 810.05 1255.35 798.25 1252.25 786.45 1249.7 778.8 1247.1 770.6 1244.55 762.65 1242 754.65 1239.8 746.3 1233.4 721.6 1226.75 696.9 1220.05 672.2 1212.7 647.65 1207.05 628.75 1200.85 610.05 1194.65 591.35 1187.7 572.95 1175.25 539 1160.95 505.95 1146.6 472.85 1126.85 442.35 1125.7 440.6 1124.55 438.85 1123.35 437.15 1122.15 435.4 1114.15 424 1105.9 412.5 1097.65 400.95 1090.25 389.2 1089.05 387.3 1087.7 384.8 1086.35 382.3 1084.85 379.4 1083.3 376.55 1081.65 373.5 1080 370.5 1078.2 367.55 1077.45 366.35 1076.7 365.2 1075.95 364.05 1075.15 362.95
L 1075.2 362.95 1076.4 363.15
Q 1077.35 363.25 1077.95 362.95 1079.2 356.95 1073.8 353.45 1068.45 349.9 1062.05 349 1060.55 348.8 1058.95 348.75 1057.35 348.75 1055.8 348.9
L 1055.3 349
Q 1054.9 349.1 1054.55 349 1053.55 349.2 1052.4 349.5 Z"/>
</g>
</defs>



<g transform="matrix( 0.5181884765625, -0.4196624755859375, 0.4196624755859375, 0.5181884765625, 145.6,705.3) ">
<g transform="matrix( 1, 0, 0, 1, 0,0) ">
<use xlink:href="#Symbol_28_0_Layer0_0_FILL"/>
</g>
</g>

<g transform="matrix( 0.598876953125, 0.2933349609375, -0.2933349609375, 0.598876953125, 592.35,105.45) ">
<g transform="matrix( 1, 0, 0, 1, 0,0) ">
<use xlink:href="#Symbol_39_0_Layer0_0_FILL"/>
</g>
</g>

<g transform="matrix( 0.459228515625, 0.5348358154296875, -0.5348358154296875, 0.459228515625, 905.55,-112) ">
<g transform="matrix( 1, 0, 0, 1, 0,0) ">
<use xlink:href="#Symbol_40_0_Layer0_0_FILL"/>
</g>
</g>

<g transform="matrix( 0.459228515625, 0.5348358154296875, -0.5348358154296875, 0.459228515625, 905.55,-112) ">
<g transform="matrix( 1, 0, 0, 1, 0,0) ">
<use xlink:href="#Symbol_41_0_Layer0_0_FILL"/>
</g>
</g>

<g transform="matrix( 0.54150390625, 0.4513397216796875, -0.4513397216796875, 0.54150390625, 765.6,-67.5) ">
<g transform="matrix( 1, 0, 0, 1, 0,0) ">
<use xlink:href="#Symbol_42_0_Layer0_0_FILL"/>
</g>
</g>

<g transform="matrix( 0.459228515625, 0.5348358154296875, -0.5348358154296875, 0.459228515625, 901.5,-110.2) ">
<g transform="matrix( 1, 0, 0, 1, 0,0) ">
<use xlink:href="#Symbol_43_0_Layer0_0_FILL"/>
</g>
</g>

<g transform="matrix( 0.459228515625, 0.5348358154296875, -0.5348358154296875, 0.459228515625, 901.5,-110.2) ">
<g transform="matrix( 1, 0, 0, 1, 0,0) ">
<use xlink:href="#Symbol_44_0_Layer0_0_FILL"/>
</g>
</g>

<g transform="matrix( 1.9001922607421875, 0, 0, 1.9001922607421875, -843.9,-512.75) ">
<g transform="matrix( 1, 0, 0, 1, 0,0) ">
<use xlink:href="#Symbol_10_0_Layer0_0_FILL"/>
</g>
</g>

<g transform="matrix( 0.531890869140625, 0.010040283203125, -0.0114593505859375, 0.607574462890625, 453.9,303.3) ">
<g transform="matrix( 1, 0, 0, 1, 0,0) ">
<use xlink:href="#Symbol_29_0_Layer0_0_FILL"/>
</g>
</g>

<g transform="matrix( 0.7487640380859375, 0.0535888671875, -0.0591888427734375, 0.795867919921875, 261.7,226.25) ">
<g transform="matrix( 1, 0, 0, 1, 0,0) ">
<use xlink:href="#Symbol_30_0_Layer0_0_FILL"/>
</g>
</g>

<g transform="matrix( 0.666839599609375, -0.0206298828125, 0.0197906494140625, 0.6953125, 260.9,280.5) ">
<g transform="matrix( 1, 0, 0, 1, 0,0) ">
<use xlink:href="#Symbol_45_0_Layer0_0_FILL"/>
</g>
</g>

<g transform="matrix( 0.6434783935546875, -0.184539794921875, -0.0051727294921875, 0.726318359375, 451.55,373.75) ">
<use xlink:href="#Layer0_11_FILL"/>
</g>

<g transform="matrix( 0.6434783935546875, -0.184539794921875, -0.0051727294921875, 0.726318359375, 402.8,403) ">
<g transform="matrix( 1, 0, 0, 1, 0,0) ">
<use xlink:href="#Symbol_32_0_Layer0_0_FILL"/>
</g>
</g>

<g transform="matrix( 0.662750244140625, 0.08001708984375, -0.07635498046875, 0.6945343017578125, 274.4,181.05) ">
<use xlink:href="#Layer0_13_FILL"/>
</g>

<g transform="matrix( 0.62750244140625, 0.2373809814453125, -0.2265167236328125, 0.6575927734375, 488.1,72.15) ">
<g transform="matrix( 1, 0, 0, 1, 0,0) ">
<use xlink:href="#Symbol_33_0_Layer0_0_FILL"/>
</g>
</g>

<g transform="matrix( 0.64764404296875, -0.0714874267578125, 0.0731964111328125, 0.663116455078125, 311.3,342.2) ">
<use xlink:href="#Layer0_15_FILL"/>
</g>

<g transform="matrix( 0.58343505859375, 0.3235321044921875, -0.3235321044921875, 0.58343505859375, 513.55,32.2) ">
<g transform="matrix( 1, 0, 0, 1, 0,0) ">
<use xlink:href="#Symbol_46_0_Layer0_0_FILL"/>
</g>
</g>

<g transform="matrix( 0.58343505859375, 0.3235321044921875, -0.280670166015625, 0.5061492919921875, 525.95,60.9) ">
<g transform="matrix( 1, 0, 0, 1, 0,0) ">
<use xlink:href="#Symbol_47_0_Layer0_0_FILL"/>
</g>
</g>

<g transform="matrix( 0.6668853759765625, -0.018157958984375, 0.018157958984375, 0.6668853759765625, 339.35,346.05) ">
<g transform="matrix( 1, 0, 0, 1, 0,0) ">
<use xlink:href="#Symbol_34_0_Layer0_0_FILL"/>
</g>
</g>

<g transform="matrix( -0.118743896484375, 0, 0, 0.118743896484375, 1042.95,328.2) ">
<g transform="matrix( 1, 0, 0, 1, 0,0) ">
<use xlink:href="#Symbol_35_0_Layer0_0_FILL"/>
</g>
</g>

<g transform="matrix( -0.118743896484375, 0, 0, 0.118743896484375, 1042.95,328.2) ">
<g transform="matrix( 1, 0, 0, 1, 0,0) ">
<use xlink:href="#Symbol_37_0_Layer0_0_FILL"/>
</g>
</g>

<g transform="matrix( -0.0424346923828125, -0.11700439453125, 0.1388092041015625, -0.025146484375, 882.05,497.95) ">
<use xlink:href="#Layer0_21_FILL"/>
</g>

<g transform="matrix( -0.1152496337890625, 0.0287322998046875, 0.0287322998046875, 0.1152496337890625, 973.55,321.15) ">
<g transform="matrix( 1, 0, 0, 1, 0,0) ">
<use xlink:href="#Symbol_36_0_Layer0_0_FILL"/>
</g>
</g>

<g transform="matrix( 0.065399169921875, 0.0991363525390625, 0.0991363525390625, -0.065399169921875, 787.7,314.5) ">
<g transform="matrix( 1, 0, 0, 1, 0,0) ">
<use xlink:href="#Symbol_18_0_Layer0_0_FILL"/>
</g>
</g>

<g transform="matrix( -0.0092620849609375, 0.118408203125, 0.118408203125, 0.0092620849609375, 856.65,267.95) ">
<g transform="matrix( 1, 0, 0, 1, 0,0) ">
<use xlink:href="#Symbol_19_0_Layer0_0_FILL"/>
</g>
</g>

<g transform="matrix( -0.0424346923828125, -0.11700439453125, 0.1388092041015625, -0.025146484375, 882.05,497.95) ">
<use xlink:href="#Layer0_25_FILL"/>
</g>

<g transform="matrix( -0.1152496337890625, 0.0287322998046875, 0.0287322998046875, 0.1152496337890625, 973.55,321.15) ">
<g transform="matrix( 1, 0, 0, 1, 0,0) ">
<use xlink:href="#Symbol_38_0_Layer0_0_FILL"/>
</g>
</g>

<g transform="matrix( 0.065399169921875, 0.0991363525390625, 0.0991363525390625, -0.065399169921875, 787.95,313.25) ">
<g transform="matrix( 1, 0, 0, 1, 0,0) ">
<use xlink:href="#Symbol_22_0_Layer0_0_FILL"/>
</g>
</g>

<g transform="matrix( 0.0364990234375, 0.1130218505859375, 0.1130218505859375, -0.0364990234375, 812.5,290.05) ">
<g transform="matrix( 1, 0, 0, 1, 0,0) ">
<use xlink:href="#Symbol_23_0_Layer0_0_FILL"/>
</g>
</g>

<g transform="matrix( 0.065399169921875, 0.0991363525390625, 0.0991363525390625, -0.065399169921875, 787.7,314.5) ">
<g transform="matrix( 1, 0, 0, 1, 0,0) ">
<use xlink:href="#Symbol_24_0_Layer0_0_FILL"/>
</g>
</g>

<g transform="matrix( -0.0092620849609375, 0.118408203125, 0.118408203125, 0.0092620849609375, 856.65,267.95) ">
<g transform="matrix( 1, 0, 0, 1, 0,0) ">
<use xlink:href="#Symbol_25_0_Layer0_0_FILL"/>
</g>
</g>

<g transform="matrix( 0.065399169921875, 0.0991363525390625, 0.0991363525390625, -0.065399169921875, 787.95,313.25) ">
<g transform="matrix( 1, 0, 0, 1, 0,0) ">
<use xlink:href="#Symbol_26_0_Layer0_0_FILL"/>
</g>
</g>

<g transform="matrix( 0.0364990234375, 0.1130218505859375, 0.1130218505859375, -0.0364990234375, 812.5,290.05) ">
<g transform="matrix( 1, 0, 0, 1, 0,0) ">
<use xlink:href="#Symbol_27_0_Layer0_0_FILL"/>
</g>
</g>

<g transform="matrix( -0.1187896728515625, 0, 0, 0.1187896728515625, 1026.25,333.3) ">
<use xlink:href="#Layer0_33_FILL"/>
</g>

<g transform="matrix( -0.1187896728515625, 0, 0, 0.1187896728515625, 1026.25,333.3) ">
<use xlink:href="#Layer0_34_FILL"/>
</g>
</svg>
