
<svg xmlns="http://www.w3.org/2000/svg" version="1.1" xmlns:xlink="http://www.w3.org/1999/xlink" preserveAspectRatio="none" x="0px" y="0px" width="760px" height="880px" viewBox="614 10 760 880">
<defs>


<g id="Symbol_28_0_Layer0_0_FILL">
<path fill="#FFFFFF" stroke="none" d="
M 656.95 766.95
L 648.9 766.15
Q 647.3 766.15 646.3 767.25 645.25 768.35 645.2 769.8 645.15 771.3 646.5 772.5
L 649.1 773.9 654.55 776.1
Q 661.45 778.7 672.95 780.7 684.4 782.7 699.15 781.9 713.85 781.15 730.65 775.45 742.3 771.1 752.6 762.8 762.95 754.5 770.9 745.45 778.9 736.4 783.5 729.9
L 788.3 722.65 787.25 721.25 784.35 718.45
Q 780.55 714.95 775.95 710.9 771.3 706.9 768.6 704.6 766.5 707.95 761.25 715.5 756 723 748.5 732 741.05 741.05 732.35 748.9 723.6 756.75 714.6 760.8 704.7 764.9 693.85 766.4 683 767.85 673.25 767.75 663.55 767.6 656.95 766.95 Z"/>
</g>

<g id="Symbol_39_0_Layer0_0_FILL">
<path fill="#a6ce38" stroke="none" d="
M 1108.3 615.95
L 1107.7 616.25
Q 1107.78359375 616.2265625 1107.85 616.2 1108.1 616.1 1108.3 615.95 Z"/>

<path fill="#FFFFFF" stroke="none" d="
M 968.15 419.8
Q 957.2 415.35 942.8 413 928.45 410.65 913.1 411.6 897.8 412.5 884.05 417.8 870.35 423.15 860.8 434.05 848.05 449.35 843.05 462.95 838 476.6 838.35 487.95 838.7 499.3 841.9 507.9 845.15 516.5 848.9 521.75 854.25 529.4 867.5 535.5 880.7 541.65 900.15 546.95 919.6 552.3 943.55 557.55 967.5 562.8 994.25 568.75 1013.3 579.05 1029 589.9 1044.7 600.8 1057 609.8 1069.3 618.75 1078.2 623.2 1087.65 624.8 1097.7 620.7 1107.75 616.6 1116.7 608.5 1125.6 600.4 1131.65 590 1137.7 579.5 1141.85 567 1146 554.5 1146.15 542.7 1146.25 530.9 1140.25 522.5 1134.45 515.05 1121.45 504.75 1108.45 494.45 1091.25 483.1 1074.05 471.75 1055.65 461.1 1035.6 449.65 1018.4 441.5 1001.25 433.3 988.3 427.95 975.35 422.65 968.15 419.8
M 1096.05 533.85
Q 1100.8 529.45 1106.3 525.9 1111.8 522.4 1117.75 520.2 1120.65 519.6 1123.65 519.15 1126.7 518.75 1129.9 518.55 1124.95 520 1120.45 521.8 1116 523.55 1113.1 525.15 1108.25 527.85 1103.45 532 1098.65 536.2 1094.3 541.4 1092.95 542.8 1091.8 544.2 1090.65 545.65 1089.7 547.05 1089.5 547.35 1089.3 547.65 1089.15 547.95 1089.2 548.25 1086.75 551.45 1084.7 554.9 1082.6 558.3 1080.9 561.85 1077.95 567.9 1075.2 575.2 1072.5 582.45 1070.85 590.15 1069.25 597.8 1069.5 604.95 1069.35 606.7 1069.3 608.4 1069.25 610.05 1069.35 611.65 1068.45 605.9 1068.15 600.1 1067.85 594.3 1068.25 588.55 1068.3 588.3 1068.35 588.05 1068.4 587.85 1068.45 587.6 1069.5 581.95 1070.85 576.7 1072.2 571.55 1073.95 566.75
L 1074.05 566.5
Q 1076.3 561.15 1079.3 555.45 1082.25 549.75 1085.85 545.15
L 1086.25 544.65
Q 1086.55 544.3 1086.8 544 1086.9 543.7 1087.15 543.4
L 1087.45 543
Q 1091.25 538.2 1096.05 533.85 Z"/>

<path fill="#0081C6" stroke="none" d="
M 1106.3 525.9
Q 1100.8 529.45 1096.05 533.85 1091.25 538.2 1087.45 543
L 1087.15 543.4
Q 1086.9 543.7 1086.8 544 1086.55 544.3 1086.25 544.65
L 1085.85 545.15
Q 1082.25 549.75 1079.3 555.45 1076.3 561.15 1074.05 566.5
L 1073.95 566.75
Q 1072.2 571.55 1070.85 576.7 1069.5 581.95 1068.45 587.6 1068.4 587.85 1068.35 588.05 1068.3 588.3 1068.25 588.55 1067.85 594.3 1068.15 600.1 1068.45 605.9 1069.35 611.65 1069.25 610.05 1069.3 608.4 1069.35 606.7 1069.5 604.95 1069.25 597.8 1070.85 590.15 1072.5 582.45 1075.2 575.2 1077.95 567.9 1080.9 561.85 1082.6 558.3 1084.7 554.9 1086.75 551.45 1089.2 548.25 1089.15 547.95 1089.3 547.65 1089.5 547.35 1089.7 547.05 1090.65 545.65 1091.8 544.2 1092.95 542.8 1094.3 541.4 1098.65 536.2 1103.45 532 1108.25 527.85 1113.1 525.15 1116 523.55 1120.45 521.8 1124.95 520 1129.9 518.55 1126.7 518.75 1123.65 519.15 1120.65 519.6 1117.75 520.2 1111.8 522.4 1106.3 525.9 Z"/>
</g>

<g id="Symbol_40_0_Layer0_0_FILL">
<path fill="#0081C6" stroke="none" d="
M 1052.35 576.9
L 1050.25 581.9 1049.45 584.9
Q 1049.8 586.75 1052.5 587.95 1055.15 589.1 1058.55 589.7 1062 590.25 1064.6 590.35
L 1066.6 590.35 1067.45 590.2
Q 1071.4 580.9 1078.55 573.4 1085.7 565.9 1093 561.15 1100.35 556.4 1104.95 555.35 1100.6 554.35 1095.65 553.35 1090.65 552.35 1086.6 551.55
L 1081.05 550.45
Q 1068.75 556.45 1061.95 563.7 1055.1 570.95 1052.35 576.9 Z"/>
</g>

<g id="Symbol_41_0_Layer0_0_FILL">
<path fill="#0081C6" stroke="none" d="
M 1072.25 581.95
L 1071.1 581.75 1067.75 581.6
Q 1063.25 581.55 1057.85 581.55 1052.45 581.55 1049.65 581.6 1046 587.35 1043.2 598.95 1040.4 610.55 1039.2 624.05 1038.05 637.55 1039.2 649 1040.35 660.45 1044.55 665.9
L 1048.55 666.45
Q 1051.65 666.85 1055.3 667.25 1059 667.6 1061.65 667.9
L 1064.5 668.2 1062.8 660.7
Q 1061.3 653.35 1060.6 641 1059.95 628.65 1062.3 613.35 1064.7 598.05 1072.25 581.95 Z"/>
</g>

<g id="Symbol_42_0_Layer0_0_FILL">
<path fill="#FFFFFF" stroke="none" d="
M 1050.7 575
Q 1046.65 575.4 1043.2 574.85 1039.75 574.35 1036.8 573.35 1036.9 573.55 1037.05 573.75
L 1037.3 574.1
Q 1037.8 574.75 1038.25 575.35 1038.75 575.95 1039.2 576.55 1039.7 577.1 1040.2 577.65 1040.7 578.25 1041.15 578.75 1041.35 578.95 1041.5 579.1 1041.65 579.3 1041.8 579.45 1043.3 581 1044.9 582.45 1046.5 583.9 1048.25 585.3 1048.85 585.7 1049.45 586.05 1050.05 586.45 1050.65 586.8 1051.15 586.8 1051.6 586.85 1052.1 586.85 1052.6 586.9
L 1052.75 586.9
Q 1057.75 586.75 1062.55 585.6 1067.35 584.5 1071.7 582.6 1071.8 582.55 1071.95 582.5
L 1072.2 582.4
Q 1079.8 578 1084.9 570.9 1090.05 563.8 1092.2 554.9 1091.25 552.7 1090.25 550.6 1089.2 548.5 1088.1 546.45 1088 546.25 1087.9 546.1 1087.8 545.95 1087.7 545.8 1087.3 545.05 1086.9 544.3 1086.45 543.5 1086.05 542.75
L 1085.2 541.25
Q 1084.25 550.75 1080.15 557.35 1076.05 564 1070 568.1 1068.9 568.65 1067.85 569.25 1066.75 569.9 1065.85 570.55 1062.2 572.4 1058.35 573.5 1054.5 574.65 1050.7 575
M 1040.35 557.5
Q 1043.25 551.95 1047.9 547.7 1052.55 543.45 1058.35 540.9 1064.15 538.35 1070.35 537.8 1071.7 537.7 1073.05 537.55 1074.4 537.4 1075.65 537.1 1076.15 537 1077.1 536.95
L 1078.3 536.75 1078.35 536.75
Q 1078.35 536.7 1078.4 536.7 1078.3 536.5 1078.05 536.35 1077.8 536.2 1077.7 536.15 1077.15 535.95 1076.6 535.8 1076.05 535.65 1075.45 535.4 1074.6 535.05 1073.3 534.95 1071.95 534.8 1071 534.85
L 1070.9 534.85
Q 1070.85 534.85 1070.8 534.85 1070.65 534.85 1070.5 534.9
L 1070.35 534.9
Q 1064.7 535.4 1059.25 537.55 1053.8 539.65 1049.15 543.25 1044.5 546.85 1041.35 551.7 1038.95 555.5 1037.65 559.95 1036.35 564.4 1036.7 568.9
L 1036.9 569.7 1037.1 569.75
Q 1037.35 569.45 1037.45 568.65 1037.75 565.6 1038.35 562.95 1038.95 560.25 1040.35 557.5
M 1061.3 550.55
Q 1061.15 550.35 1060.85 550.25 1060.6 550.2 1060.25 550.2 1059.85 550.25 1059.45 550.45 1059 550.6 1058.65 550.85 1058.3 551.1 1058 551.45 1057.75 551.75 1057.55 552.05 1057.4 552.4 1057.4 552.7 1057.4 552.95 1057.55 553.15 1057.75 553.35 1058 553.45 1058.3 553.55 1058.65 553.5 1059 553.45 1059.45 553.3 1059.85 553.1 1060.25 552.85 1060.6 552.6 1060.85 552.3 1061.15 551.95 1061.3 551.65 1061.45 551.35 1061.45 551.05 1061.45 550.75 1061.3 550.55 Z"/>

<path fill="#0081C6" stroke="none" d="
M 1041.35 549.15
Q 1037.95 553.55 1036.2 558.3 1034.4 563.05 1034.7 567.6 1034.75 568.15 1034.8 568.65 1034.85 569.15 1034.95 569.6 1035.15 570.25 1035.4 570.8 1035.6 571.4 1035.8 571.95
L 1035.85 572.05
Q 1036.1 572.4 1036.35 572.7 1036.55 573.05 1036.8 573.35 1039.75 574.35 1043.2 574.85 1046.65 575.4 1050.7 575 1054.5 574.65 1058.35 573.5 1062.2 572.4 1065.85 570.55 1066.75 569.9 1067.85 569.25 1068.9 568.65 1070 568.1 1076.05 564 1080.15 557.35 1084.25 550.75 1085.2 541.25
L 1084.4 539.9
Q 1083.5 538.8 1082.55 537.65 1081.65 536.5 1080.65 535.3
L 1080.6 535.2
Q 1080.2 535 1079.8 534.8 1079.35 534.6 1078.95 534.45 1075.05 532.85 1070.15 533.05 1065.25 533.25 1059.7 535.4 1054.15 537.6 1049.45 541.15 1044.8 544.75 1041.35 549.15
M 1060.85 550.25
Q 1061.15 550.35 1061.3 550.55 1061.45 550.75 1061.45 551.05 1061.45 551.35 1061.3 551.65 1061.15 551.95 1060.85 552.3 1060.6 552.6 1060.25 552.85 1059.85 553.1 1059.45 553.3 1059 553.45 1058.65 553.5 1058.3 553.55 1058 553.45 1057.75 553.35 1057.55 553.15 1057.4 552.95 1057.4 552.7 1057.4 552.4 1057.55 552.05 1057.75 551.75 1058 551.45 1058.3 551.1 1058.65 550.85 1059 550.6 1059.45 550.45 1059.85 550.25 1060.25 550.2 1060.6 550.2 1060.85 550.25
M 1047.9 547.7
Q 1043.25 551.95 1040.35 557.5 1038.95 560.25 1038.35 562.95 1037.75 565.6 1037.45 568.65 1037.35 569.45 1037.1 569.75
L 1036.9 569.7 1036.7 568.9
Q 1036.35 564.4 1037.65 559.95 1038.95 555.5 1041.35 551.7 1044.5 546.85 1049.15 543.25 1053.8 539.65 1059.25 537.55 1064.7 535.4 1070.35 534.9
L 1070.5 534.9
Q 1070.65 534.85 1070.8 534.85 1070.85 534.85 1070.9 534.85
L 1071 534.85
Q 1071.95 534.8 1073.3 534.95 1074.6 535.05 1075.45 535.4 1076.05 535.65 1076.6 535.8 1077.15 535.95 1077.7 536.15 1077.8 536.2 1078.05 536.35 1078.3 536.5 1078.4 536.7 1078.35 536.7 1078.35 536.75
L 1078.3 536.75 1077.1 536.95
Q 1076.15 537 1075.65 537.1 1074.4 537.4 1073.05 537.55 1071.7 537.7 1070.35 537.8 1064.15 538.35 1058.35 540.9 1052.55 543.45 1047.9 547.7 Z"/>
</g>

<g id="Symbol_43_0_Layer0_0_FILL">
<path fill="#FFFFFF" stroke="none" d="
M 1078.05 542.05
Q 1074.9 542.45 1071.6 543.75 1068.25 545 1065.8 546.7 1063.3 548.45 1062.65 550.15 1066.4 549.7 1069.65 548.25 1072.85 546.85 1075.05 545.1 1077.3 543.35 1078.05 542.05 Z"/>
</g>

<g id="Symbol_44_0_Layer0_0_FILL">
<path fill="#FFFFFF" stroke="none" d="
M 1050.75 558.05
Q 1047.85 560.75 1045.7 563.75 1043.55 566.75 1043.25 568.25 1046.15 566.95 1049.2 564.45 1052.2 561.9 1054.2 559.25 1056.25 556.6 1056.2 554.8 1053.7 555.4 1050.75 558.05 Z"/>
</g>

<g id="Symbol_29_0_Layer0_0_FILL">
<path fill="#FFFFFF" stroke="none" d="
M 927.6 155.25
Q 919.9 157.4 912.5 160.95 905.1 164.5 899.6 168.2 894.1 171.9 892.1 174.45 890.65 176.9 889.1 184 887.55 191.1 886.2 199.45 884.9 207.8 884.1 213.85
L 883.25 220.15 886.85 220.55
Q 890.25 220.9 893.75 221.15
L 896.55 221.25 897.9 221.15
Q 909.4 211.7 918.1 202.95 926.8 194.25 932.05 187.8
L 936.35 182.3 938.55 178.7
Q 939.75 175.9 940.75 170.55 941.8 165.2 942.15 160.2
L 942.2 156.1 941.7 153.65
Q 935.3 153.1 927.6 155.25 Z"/>
</g>

<g id="Symbol_30_0_Layer0_0_FILL">
<path fill="#FFFFFF" stroke="none" d="
M 982.7 196.45
Q 985.4 193.2 987.1 190.55
L 988.4 188.3 988.85 186.9
Q 984.8 184.8 978.9 183.9 972.95 183.05 966.7 183.05 960.45 183.1 955.45 183.75 950.4 184.4 948.15 185.35 946.3 186.4 942.55 190.3 938.8 194.2 934.75 198.95 930.65 203.7 927.75 207.15
L 924.7 210.8 926.7 212.15
Q 928.55 213.35 930.55 214.55
L 932.15 215.45 933 215.75
Q 944.4 213.9 951.85 212.6 959.25 211.3 963.9 210 968.55 208.75 971.65 207 974.15 205.55 977.05 202.65 980 199.75 982.7 196.45 Z"/>
</g>

<g id="Symbol_31_0_Layer0_0_FILL">
<path fill="#0081C6" stroke="none" d="
M 946.55 538.8
Q 946.35 541 946.2 543.35 946 545.65 945.8 548.05 944.9 559.8 943.75 573.1 942.65 586.35 941.4 600.75 940.2 615.1 939.05 630 937.95 643.8 936.7 657.2 935.45 670.65 934.05 683.15 932.6 695.7 931 706.8 929.5 717.5 927.8 726.45 926.15 735.4 924.35 742.15 924.25 742.6 924.1 743.1 924 743.55 923.85 744
L 923.75 744.4
Q 923.4 744.95 922.75 745.7 922.05 746.45 921 747.3 918.25 749.65 912.9 752.3 907.55 754.95 899.4 757.1 891.2 759.25 880 760 878.75 760.1 877.55 760.1 876.35 760.15 875.15 760.15 864.35 760.1 855.55 757.95 846.8 755.75 840.55 752.85 834.25 749.95 831.1 747.65 829.8 746.75 829.05 746.1
L 828.5 745.55 828.25 745.15
Q 827.95 744.2 827.65 743.25
L 827.05 741.4
Q 816.9 709.7 811.1 677.3 805.3 644.95 802.8 614.05 800.25 583.2 800.1 556.15 799.95 529.05 801.15 508 799.3 522.15 798.55 536 797.85 549.85 797.9 563.8 797.9 577.8 798.3 592.45 798.4 595.7 798.4 598.95 798.4 602.2 798.4 605.45 800.35 630.65 804.2 655.5 808.1 680.35 813.75 704.05 815.95 713.3 818.45 722.55 820.9 731.8 823.9 740.95 824.7 743.35 825.5 745.7 826.35 748.1 827.25 750.45 828.75 751.75 830.4 752.85 832.05 754 833.75 755 837.35 757.1 841.25 758.75 845.1 760.4 849.05 761.7
L 850.05 762.05
Q 850.85 762.3 851.55 762.35 852.5 762.6 853.55 762.9
L 854.9 763.25
Q 864.7 765.65 875 765.45 885.3 765.2 895.3 762.5 901.3 761.35 907.15 759.45 913 757.55 918.1 754.95 923.15 752.4 926.75 749.15 928.1 747.9 928.55 746.65 928.95 745.45 928.65 744.4 930.45 739.95 931.65 733.8 932.85 727.65 933.65 721.75 934.45 715.85 935.05 712.15 937.7 695.9 939 679.5 940.35 663.15 941.4 646.7 941.65 643.25 941.85 639.85 942.05 636.4 942.2 632.95 943.35 619.2 944.25 605.45 945.2 591.7 945.9 577.95 946.3 571.9 946.85 565.2 947.4 558.55 947.1 552.4 947.3 548.35 947.15 544.75 947.05 541.15 946.55 538.8 Z"/>

<path fill="#FFFFFF" stroke="none" d="
M 940.7 479.85
Q 934.75 469.6 924.95 459.6 915.15 449.65 902.45 442.75 889.75 435.85 875.15 434.65 859.6 433.7 844.75 436.4 829.9 439.05 819.3 445.1 808.75 451.1 806.15 460.2 805.45 462.9 804.55 469.4 803.65 475.9 802.75 485.65 801.85 495.4 801.15 508 799.95 529.05 800.1 556.15 800.25 583.2 802.8 614.05 805.3 644.95 811.1 677.3 816.9 709.7 827.05 741.4
L 827.65 743.25
Q 827.95 744.2 828.25 745.15
L 828.5 745.55 829.05 746.1
Q 829.8 746.75 831.1 747.65 834.25 749.95 840.55 752.85 846.8 755.75 855.55 757.95 864.35 760.1 875.15 760.15 876.35 760.15 877.55 760.1 878.75 760.1 880 760 891.2 759.25 899.4 757.1 907.55 754.95 912.9 752.3 918.25 749.65 921 747.3 922.05 746.45 922.75 745.7 923.4 744.95 923.75 744.4
L 923.85 744
Q 924 743.55 924.1 743.1 924.25 742.6 924.35 742.15 926.15 735.4 927.8 726.45 929.5 717.5 931 706.8 932.6 695.7 934.05 683.15 935.45 670.65 936.7 657.2 937.95 643.8 939.05 630 940.2 615.1 941.4 600.75 942.65 586.35 943.75 573.1 944.9 559.8 945.8 548.05 946 545.65 946.2 543.35 946.35 541 946.55 538.8 947.6 524 948 513.55 948.4 503.05 947.75 498.05 946.65 490.15 940.7 479.85 Z"/>
</g>

<g id="Symbol_48_0_Layer0_0_FILL">
<path fill="#FFFFFF" stroke="none" d="
M 743.95 723.9
L 747.05 749.9
Q 750 774.65 753.9 807.15 757.8 839.7 760.8 864.5
L 763.95 890.65
Q 767.9 898 784.65 903.3 801.4 908.65 822.65 910.8 843.95 913 861.55 910.95 879.2 908.9 884.9 901.55
L 886.85 876.25
Q 888.6 852.35 890.95 820.9 893.25 789.45 895 765.5
L 897 740.15
Q 887.15 730.2 868.45 724 849.8 717.75 827.05 715.5 804.35 713.25 782.35 715.25 760.4 717.3 743.95 723.9 Z"/>
</g>

<g id="Symbol_32_0_Layer0_0_FILL">
<path fill="#0081C6" stroke="none" d="
M 943.65 840.8
Q 942.6 838.75 942.2 837.35 941.45 834.6 941.05 831.85 940.7 829.05 940.15 826.35
L 939.65 824.85 939.1 824.45
Q 938.5 824.55 938.05 825.8 937.65 827 937.65 828.25 937.8 831.4 938.75 835.75 939.7 840.1 941.85 843.7 943.95 847.3 947.65 848.15 951.1 848.6 953.45 845.55 955.8 842.55 957.1 838.5 958.4 834.45 958.75 831.75 958.9 830.75 958.95 828.85 959 826.95 958.7 825.25 958.4 823.5 957.45 822.95
L 957.25 822.9
Q 957.1 822.9 957.05 822.95 956.7 823.3 956.6 823.8
L 956.45 824.5
Q 956.2 826.4 956.15 828.4 956.15 830.4 955.8 832.35 955.5 834.05 954.65 836.85 953.8 839.65 952.5 842.15 951.2 844.6 949.5 845.25 947.75 845.7 946.2 844.3 944.7 842.85 943.65 840.8 Z"/>
</g>

<g id="Symbol_49_0_Layer0_0_FILL">
<path fill="#0081C6" stroke="none" d="
M 1094.6 770.5
L 1093.75 772.25
Q 1089.15 782.8 1083.9 793.25 1078.6 803.7 1073.65 814.1 1068.95 824.05 1064 833.9 1059.05 843.75 1054 853.6 1049.5 863.1 1045.45 872 1041.35 880.9 1037.85 888.85 1037.3 889.1 1036.75 889.35 1036.2 889.6 1035.65 889.85 1034.95 891.3 1034.25 892.8 1033.5 894.25 1032.8 895.7 1032.6 896.05 1032.35 896.65 1032.05 897.25 1032.4 897.65 1032.8 897.8 1033.15 897.4 1033.45 897 1033.6 896.65 1034 896.1 1034.4 895.4
L 1034.75 894.85 1034.9 894.55
Q 1042.9 881.95 1050.2 868.7 1057.5 855.4 1064.4 841.9 1071.3 828.4 1078.1 815.05 1082.95 805.8 1087.75 795.95 1092.55 786.1 1096.2 776.35 1096.95 774.25 1097.5 772.1 1098.05 770 1098.9 767.95 1099.05 767.7 1099.35 767.25 1099.65 766.75 1099.3 766.4 1097.8 766.3 1096.6 767.65 1095.35 769.05 1094.6 770.5 Z"/>

<path fill="#FFFFFF" stroke="none" d="
M 957.95 682.1
Q 932.65 675.3 920.5 673.8 922 693.3 923.7 726 925.4 758.7 926.95 792.75 928.5 826.75 929.55 850.25
L 930.7 874.8
Q 939 882.1 950.8 887.7 962.55 893.3 976.65 896.05 990.7 898.75 1005.75 897.5 1020.85 896.25 1035.65 889.85 1036.2 889.6 1036.75 889.35 1037.3 889.1 1037.85 888.85 1041.35 880.9 1045.45 872 1049.5 863.1 1054 853.6 1065 830.35 1076.75 806.45 1088.5 782.55 1098.75 762.2 1108.95 741.9 1115.35 729.4
L 1122 716.4
Q 1102.8 716.9 1073.95 711.1 1045.1 705.3 1014.2 697.1 983.3 688.85 957.95 682.1 Z"/>
</g>

<g id="Symbol_33_0_Layer0_0_FILL">
<path fill="#0081C6" stroke="none" d="
M 943.35 838.65
Q 942.15 836.05 941.4 832.95 940.6 829.9 939.6 827.1
L 939.2 826.4 938.9 826.25
Q 938.6 826.4 938.45 827.1 938.3 827.8 938.3 828.5 938.5 831.6 939.5 835.45 940.5 839.25 942.25 842.4 943.95 845.55 946.3 846.7 950.3 848.25 953.15 845.6 956 842.95 957.6 838.15 959.2 833.4 959.35 828.65 959.35 827.95 959.35 826.95 959.3 825.95 959.1 825.15 958.85 824.4 958.4 824.45 958.25 824.75 958.1 825.1
L 957.95 825.6
Q 957.35 827.6 957.1 829.8 956.8 831.95 956.3 834.1 955.15 838.55 953 841.25 950.85 843.95 948.25 843.6 945.7 843.25 943.35 838.65 Z"/>
</g>

<g id="Symbol_54_0_Layer0_0_FILL">
<path fill="#0081C6" stroke="none" d="
M 1022.5 473.7
Q 1021 472.9 1019.75 473.55 1028.25 484.45 1037.7 498.6 1047.2 512.75 1055.95 529 1064.75 545.25 1071.05 562.5 1077.35 579.75 1079.45 596.9 1079.3 606.35 1078.1 615.7 1076.9 625.1 1074.8 634.25 1074.8 634.8 1074.8 635.35 1074.8 635.95 1074.85 636.5 1074.85 637.8 1074.85 639.75 1074.85 641.7 1075.55 643.1 1076.25 644.55 1078.3 644.2
L 1078.9 643.9
Q 1079.35 643.65 1079.7 643.4 1080.15 642.7 1080.6 641.8
L 1081.2 640.7
Q 1082.5 638.3 1083.3 634.2 1084.15 630.1 1084.65 625.85 1085.1 621.6 1085.35 618.75 1086.55 604.35 1085.5 590.35 1084.4 576.3 1080.4 562.75 1075.85 547.75 1068.35 533.35 1060.85 519 1051.25 505.85 1041.65 492.65 1030.8 481.35 1030.7 481.05 1030.45 480.8 1030.15 480.5 1029.85 480.4 1029.25 479.75 1028.65 479.15 1028.05 478.5 1027.4 477.9 1026.65 477.1 1025.3 475.8 1024 474.5 1022.5 473.7
M 843.3 784.85
Q 843.95 785.15 844.75 785.4
L 845.75 785.7
Q 848.65 786.65 851.8 787.45 854.95 788.25 858.3 788.95 885.5 796.35 912.3 795.2 939.1 794 966.35 783.25 986.2 775.45 1003.3 764.9 1020.45 754.4 1034.35 740.2 1048.25 726.05 1058.5 707.35 1058.7 707.05 1059.1 706.3 1059.55 705.55 1059.3 704.9 1058.55 704.5 1057.65 705.45 1056.75 706.4 1056.1 707.6
L 1055.25 709.05
Q 1050.4 715.75 1045.15 721.85 1039.95 727.95 1034.35 733.55 1036.75 730.8 1039 727.95 1041.25 725.1 1043.4 722.15
L 1045.3 719.6
Q 1046.75 717.7 1048 715.9
L 1048.95 714.4 1049.25 713.55
Q 1049.2 713.35 1049.1 713.05 1049 712.75 1048.65 712.7 1047.6 712.95 1046.65 713.9
L 1045.45 715.25
Q 1042.25 718.3 1039.05 721.3 1035.85 724.3 1032.6 727.25 1031.1 729.4 1029.65 731.4 1028.2 733.45 1026.75 735.35 1021.6 742.15 1015.7 748 1009.85 753.85 1003.3 758.75 993.9 765.75 983.35 771 972.85 776.25 961.45 779.8 953 782.45 944.2 784.25 935.45 786.05 926.4 787.05 920.45 787.7 914.4 788.05 908.35 788.4 902.25 788.4 887.1 788.45 872 786.75 856.95 785 842.45 781.75 842.25 781.75 842.05 781.75 841.85 781.75 841.7 781.8 841.45 781.75 841 781.7 840.6 781.7 840.45 782.05 840.1 782.85 840.6 783.4 841.05 783.95 841.9 784.3 842.7 784.65 843.3 784.85 Z"/>

<path fill="#FFFFFF" stroke="none" d="
M 797.7 326.25
L 781.65 318.65
Q 769.3 339.7 753.55 360.2 737.75 380.65 722.15 399.7 706.55 418.8 694.75 435.65 682.95 452.5 678.55 466.3 676.15 475.75 680.05 492.85 683.95 509.95 691 529.75 698 549.5 705 566.95 711.95 584.4 715.75 594.45 719.3 603.85 722.7 612.15 726.1 620.45 728.6 631.2 731.1 641.95 731.9 658.65 732.65 675.4 731 701.6 730.4 713.85 738.8 725.85 747.2 737.85 762.6 748.6 778.05 759.35 798.5 767.9 818.95 776.4 842.45 781.75 856.95 785 872 786.75 887.1 788.45 902.25 788.4 908.35 788.4 914.4 788.05 920.45 787.7 926.4 787.05 935.45 786.05 944.2 784.25 953 782.45 961.45 779.8 972.85 776.25 983.35 771 993.9 765.75 1003.3 758.75 1009.85 753.85 1015.7 748 1021.6 742.15 1026.75 735.35 1028.2 733.45 1029.65 731.4 1031.1 729.4 1032.6 727.25 1040.8 715.5 1048.95 700.8 1057.05 686.15 1063.85 669.3 1070.6 652.45 1074.8 634.25 1076.9 625.1 1078.1 615.7 1079.3 606.35 1079.45 596.9 1077.35 579.75 1071.05 562.5 1064.75 545.25 1055.95 529 1047.2 512.75 1037.7 498.6 1028.25 484.45 1019.75 473.55 1013.9 466 1009.3 460.45 1004.65 454.95 1001.8 451.8
L 998.45 448.25 966.85 428.2
Q 937.6 409.8 898 385.45 858.45 361.15 825.2 341.7
L 797.7 326.25 Z"/>
</g>

<g id="Symbol_46_0_Layer0_0_FILL">
<path fill="#0081C6" stroke="none" d="
M 1180.85 318
Q 1180.55 316.65 1180.3 315.3 1180 313.9 1179.7 312.45
L 1179.7 312.85 1179.65 313.25
Q 1179.15 341.65 1172.05 367 1164.95 392.4 1151.75 413.1 1138.6 433.8 1119.95 448.05 1108.65 456.75 1091.95 463.05 1075.25 469.35 1053.25 472.6 1054.15 473.05 1055.35 473.2
L 1057.05 473.35
Q 1060.65 473.6 1065 473.3 1069.35 472.95 1073.7 472.3 1078.05 471.65 1081.7 470.85
L 1082.25 470.65
Q 1082.7 470.45 1083.15 470.4 1084.1 470.2 1085.25 470.05
L 1086.65 469.85
Q 1094.65 468.05 1103.2 464.05 1111.7 460.05 1119.6 454.8 1127.55 449.55 1133.8 444 1151.35 428.55 1163.65 408 1175.9 387.45 1180.75 364.35 1185.6 341.25 1180.85 318 Z"/>

<path fill="#FFFFFF" stroke="none" d="
M 1122.8 255.7
Q 1110 273.4 1094.75 285.3 1079.5 297.2 1063.95 294.65 1055.65 292.65 1050.65 285.8 1045.7 279 1043.2 270.45 1040.75 261.95 1039.95 254.7 1039.2 247.5 1039.2 244.7 1039.1 241.9 1037.25 240.05 1035.45 238.2 1032.75 237.9 1030 237.6 1027.25 239.6 1022.9 242.9 1016.85 247 1010.75 251.05 1003.75 253.85 996.8 256.6 989.75 256.05 986.3 255.55 980.9 251.8 975.45 248.05 969 242.55 962.55 237.1 956.1 231.5 949.65 225.85 944.15 221.65 939.8 218.15 928.8 215.2 917.8 212.2 901.4 212.95 884.95 213.7 864.2 221.35 849.8 227.15 840.45 234.3 831.05 241.45 826.15 247.25
L 820.15 254.8
Q 806.25 274.4 801.9 297.05 797.55 319.65 798.75 340.1 799.9 360.5 802.65 373.55
L 805.7 387 808.35 392.55
Q 810.7 397.6 815 404.9 819.35 412.15 825.75 419.3 832.2 426.4 840.75 431.1 865.1 443.7 888.65 452.55 912.2 461.35 931.8 466.4 951.4 471.45 963.95 472.8 990.1 475.65 1012.4 475.5 1034.7 475.35 1053.25 472.6 1075.25 469.35 1091.95 463.05 1108.65 456.75 1119.95 448.05 1138.6 433.8 1151.75 413.1 1164.95 392.4 1172.05 367 1179.15 341.65 1179.65 313.25
L 1179.7 312.85 1179.7 312.45
Q 1180.05 278.8 1178 256.6 1175.9 234.4 1173.45 222.5
L 1170.05 207.8
Q 1168.55 202.4 1165.05 200.7 1161.55 199 1158.1 200.15 1154.65 201.3 1153.2 204.55
L 1143.75 223.05
Q 1135.55 238 1122.8 255.7 Z"/>
</g>

<g id="Symbol_47_0_Layer0_0_FILL">
<path fill="#0081C6" stroke="none" d="
M 937.85 340.15
Q 937.55 343.45 938.2 346.35 938.85 349.3 940.3 351.55 941.75 353.85 943.85 355.2 945.95 356.6 948.5 356.8 951.05 356.95 953.35 355.9 955.7 354.8 957.6 352.75 959.5 350.7 960.7 347.95 961.95 345.15 962.3 341.85 962.6 338.55 961.95 335.65 961.3 332.75 959.85 330.45 958.35 328.2 956.3 326.8 954.2 325.45 951.65 325.25 949.1 325.1 946.75 326.15 944.45 327.2 942.55 329.25 940.65 331.3 939.45 334.1 938.2 336.85 937.85 340.15 Z"/>
</g>

<g id="Symbol_34_0_Layer0_0_FILL">
<path fill="#FFFFFF" stroke="none" d="
M 986.25 295.45
Q 983.9 288.7 978.35 283.8 972.85 278.85 963.05 277.05 953.1 275.55 946.15 278.6 939.15 281.7 934.5 287.45 929.85 293.25 927 299.8 924.15 306.3 922.45 311.7 931.35 312.7 942.55 314.6 953.75 316.45 965.55 318.7 977.3 320.9 987.9 323.05 988.85 316.6 988.7 309.4 988.55 302.15 986.25 295.45 Z"/>
</g>

<g id="Symbol_16_0_Layer0_0_FILL">
<path fill="#a6ce38" stroke="none" d="
M 891.5 633.65
L 891.05 633.65 907.65 759.35 919 845 930.8 758.65 946.5 643.85 947.85 633.85 891.5 633.65 Z"/>

<path fill="#0081C6" stroke="none" d="
M 891.05 633.65
L 891.5 633.65
Q 890.95 631.45 890.25 629.3 889.6 627.15 888.8 625.1
L 888.45 624.2
Q 888.15 623.5 887.75 622.95 887.5 622.5 887.45 622.75 887.45 623.05 887.4 623.7 887.35 626 887.9 628.45 888.45 630.9 889 633.15 894 655.4 895.95 677.8 897.95 700.2 900.25 722.5 901.5 733.9 902.55 745.45 903.55 757.05 905.6 768.4
L 905.85 770.25
Q 906.15 771.75 906.75 772.15 907.35 772.15 907.35 771.6 907.35 771.1 907.3 770.65 907.6 768 907.7 765.15 907.75 762.3 907.65 759.35
L 891.05 633.65
M 951.9 628
Q 951.9 627.5 951.75 626.25 951.65 625.05 950.9 624.35 949.5 624.3 949.5 625.85 949.45 627.4 949.4 628.6 948.75 632.45 948 636.25 947.3 640.05 946.5 643.85
L 930.8 758.65
Q 933.35 750.25 934.7 741.9 936 733.6 937.35 724.85 940 708.65 942.65 692.5 945.35 676.35 948.05 660.15 949.4 652.85 950.95 644 952.5 635.15 951.9 628 Z"/>
</g>

<g id="Symbol_51_0_Layer0_0_FILL">
<path fill="#a6ce38" stroke="none" d="
M 1052.35 283.25
Q 1032.85 270.25 1016.1 269.15 999.3 268.05 985.7 273.6 972.1 279.2 962.3 286.15 952.6 293 947.9 304.9 943.2 316.8 942 329.7 940.75 342.65 941.6 352.6 942.35 362.75 948.5 376.1 954.6 389.45 965.95 400.1 977.25 410.75 993.55 412.7 1005.85 414.4 1018.1 423.45 1030.35 432.45 1040.85 441.55 1051.35 450.7 1058.5 452.6 1065.6 454.55 1067.8 442.05 1069.9 428.35 1071.1 404.9 1072.3 381.5 1071.35 356 1070.35 330.45 1065.9 310.4 1061.5 290.3 1052.35 283.25 Z"/>
</g>

<g id="Symbol_19_0_Layer0_0_FILL">
<path fill="#a6ce38" stroke="none" d="
M 1106.5 326.35
Q 1113.75 318.9 1118.6 311
L 1115.05 308.9 1104.95 304.7
Q 1091.55 299.45 1068.2 297.6
L 1071.15 308.1
Q 1074.2 317.9 1077.85 329.4 1081.5 340.9 1083.4 346.7 1086.05 344.75 1092.65 339.3 1099.2 333.8 1106.5 326.35 Z"/>
</g>

<g id="Symbol_20_0_Layer0_0_FILL">
<path fill="#a6ce38" stroke="none" d="
M 758.9 590
Q 753.15 581.15 747.85 586.05 742.15 591.9 723.55 593.9 704.95 595.95 679.3 592 653.7 588.05 627.05 576.05 599.9 563.15 577.6 549.9 555.25 536.7 541.8 527.6
L 527.85 518.1
Q 526.3 535.9 536.7 561.25 547.1 586.6 562.8 608.25 578.5 629.85 592.8 636.6 604.25 640.8 633.65 641.05 663.1 641.25 696.75 639.45 730.4 637.65 754.65 635.7
L 780.05 633.55
Q 775.6 625.3 770.1 612.05 764.6 598.85 758.9 590 Z"/>
</g>

<g id="Symbol_58_0_Layer0_0_FILL">
<path fill="#a6ce38" stroke="none" d="
M 1042 235.05
Q 1020 219.75 1010.5 232.65 997.6 253.35 985.25 270.25 972.85 287.15 959.95 306.55 947 326 932.5 354.2 925.35 369.4 922 394.4 918.7 419.4 916.6 445.8 914.5 472.15 911 491.5 901.85 533.15 879.75 567.5 857.7 601.85 832.45 628 807.2 654.15 788.5 671.3
L 773.9 685.95 767.45 695.7 774.8 702.5 796.55 710.05
Q 825.5 718.05 871.6 717.85 917.65 717.65 969.05 699.6 1006.35 685.15 1041.1 656.65 1075.9 628.2 1100.45 594.15 1125.05 560.15 1131.75 529.1 1145.75 457.75 1149.35 419.15 1152.95 380.5 1151.65 365.75
L 1150.45 354.7 1149.5 351.1 1130.95 327.1
Q 1113.3 304.6 1088.65 277.45 1063.95 250.35 1042 235.05 Z"/>
</g>

<g id="Symbol_22_0_Layer0_0_FILL">
<path fill="#0081C6" stroke="none" d="
M 1035.4 302.25
L 1033.5 301.25 1031.5 300.65 1029.35 300.45 1027.25 300.65 1025.25 301.25 1023.35 302.25 1021.75 303.6 1020.4 305.25 1019.4 307.1 1018.75 309.15 1018.55 311.25 1018.75 313.35 1019.4 315.4 1020.4 317.25 1021.75 318.9 1023.35 320.25 1025.25 321.25 1027.25 321.85 1029.35 322.05 1031.5 321.85 1033.5 321.25 1035.4 320.25 1037 318.9 1038.35 317.25 1039.35 315.4 1040 313.35 1040.2 311.25 1040 309.15 1039.35 307.1 1038.35 305.25 1037 303.6 1035.4 302.25 Z"/>
</g>

<g id="Symbol_23_0_Layer0_0_FILL">
<path fill="#a6ce38" stroke="none" d="
M 1040.4 290.7
Q 1036.7 285.45 1029.15 285.1 1020.3 285.55 1015.95 292.1 1011.65 298.6 1010.8 306.75
L 1046.25 307 1045.2 301.3
Q 1044.1 296 1040.4 290.7 Z"/>
</g>

<g id="Symbol_59_0_Layer0_0_FILL">
<path fill="#0081C6" stroke="none" d="
M 900.45 265.9
Q 900.25 265.15 900.05 264.55 899.8 263.9 899.55 263.4 899.45 263.15 899.25 262.9 899.1 262.65 898.8 262.85 898.6 263.15 898.6 263.65 898.65 264.15 898.7 264.35 898.8 265.1 898.85 265.8 898.9 266.5 898.95 267.2 899.1 270.25 899.1 273.35 899.1 276.5 899.25 279.5 899.35 283.25 899.15 287.1 898.9 290.95 898.8 294.7 898.75 295 898.75 295.3 898.75 295.65 898.75 295.95 898.65 297.8 898.65 299.75 898.65 301.75 898.95 303.45 898.95 303.6 899 303.8 899 304 899.2 304 899.45 303.8 899.6 303.4 899.7 302.95 899.75 302.75 899.95 302.2 900.15 301.6 900.3 301 900.45 300.35
L 900.45 265.9
M 769.4 239.6
Q 769.35 239.5 769.3 239.45 769.25 239.35 769.15 239.2 769.05 239.05 768.9 239.05 768.7 239.4 768.75 239.8
L 768.8 240.15 768.8 240.35
Q 768.85 240.85 768.85 241.4 768.85 241.9 768.8 242.4 768.8 242.75 768.8 243.05 768.8 243.4 768.75 243.75 768.75 244.1 768.7 244.5 768.7 244.9 768.7 245.3 768.65 246.05 768.6 246.8 768.6 247.55 768.6 248.3 768.9 263.3 768.65 278.2 768.4 293.1 768.1 308.05 768.05 310.75 768 313.5 767.95 316.2 767.9 318.95 767.9 319.3 767.9 319.65
L 767.85 320.4
Q 767.85 320.75 767.85 321.1
L 767.85 321.75
Q 767.8 323.5 767.75 325.25 767.7 327 767.65 328.75 767.65 329.85 767.8 330.9 767.95 331.95 768.3 333 768.3 333.05 768.35 333.2 768.4 333.3 768.5 333.3 768.7 333.05 768.85 332.6
L 769 332.2 769.05 332
Q 769.2 331.4 769.3 330.75 769.45 330.1 769.5 329.4
L 769.5 239.85
Q 769.45 239.7 769.4 239.6
M 804.15 232.4
Q 804.15 232.3 804.2 232.05 804.25 231.85 804.05 231.75 803.65 231.9 803.3 232.35 803 232.8 802.9 233.1
L 803.85 336.3
Q 803.975 340.1875 804.05 344.05 804.15 349.2 804.35 354.35
L 804.4 355.8
Q 804.4 356.9 804.45 357.95
L 804.55 359.1
Q 804.7 359.3 804.85 359.2 804.95 359.1 804.9 358.9 804.95 358.65 805 358.35
L 805.05 358
Q 805.85 351 806.1 344.25 806.35 337.5 806.25 330.5 806.25 329.65 806.25 328.75 806.25 327.85 806.2 326.95 805.95 316.4 805.65 305.85 805.3 295.3 805.35 284.7 805.4 273.3 804.9 261.85 804.4 250.4 804.3 238.95 804.3 238.7 804.3 238.45
L 804.3 237.9
Q 804.25 236.55 804.15 235.15 804.1 233.8 804.15 232.4 Z"/>

<path fill="#a6ce38" stroke="none" d="
M 921.85 253.5
L 920.65 253.15
Q 919.45 252.85 917.15 252.55 914.9 252.25 911.7 252.25 908.55 252.25 906 252.6 903.45 252.9 901.95 253.15
L 900.45 253.5 900.45 265.9 900.45 300.35 900.45 307.5 902.35 307.8
Q 904.15 308.1 906.6 308.4 909 308.7 911 308.75 913 308.75 915.5 308.45 918 308.15 919.9 307.85
L 921.85 307.5 921.85 253.5
M 769.5 226.1
L 769.5 239.85 769.5 329.4 769.5 339.8
Q 778.1 343.4 786.7 344.6 795.3 345.85 803.95 344.7
L 803.85 336.3 802.9 233.1 802.8 221.85
Q 794.3 220.8 785.9 221.8 777.45 222.75 769.5 226.1
M 804.3 237.9
L 804.3 238.45
Q 804.3 238.7 804.3 238.95 804.4 250.4 804.9 261.85 805.4 273.3 805.35 284.7 805.3 295.3 805.65 305.85 805.95 316.4 806.2 326.95
L 898.75 295.95
Q 898.75 295.65 898.75 295.3 898.75 295 898.8 294.7 898.9 290.95 899.15 287.1 899.35 283.25 899.25 279.5 899.1 276.5 899.1 273.35 899.1 270.25 898.95 267.2
L 804.3 237.9 Z"/>

<path fill="#FFFFFF" stroke="none" d="
M 768.6 246.8
Q 768.65 246.05 768.7 245.3 768.7 244.9 768.7 244.5 768.75 244.1 768.75 243.75 768.8 243.4 768.8 243.05 768.8 242.75 768.8 242.4
L 767.9 244.15 765.55 250.4 762.55 265.35 761.5 285.55 762.9 303.25 765.55 315.65 767.85 321.75 767.85 321.1
Q 767.85 320.75 767.85 320.4
L 767.9 319.65
Q 767.9 319.3 767.9 318.95 767.95 316.2 768 313.5 768.05 310.75 768.1 308.05 768.4 293.1 768.65 278.2 768.9 263.3 768.6 248.3 768.6 247.55 768.6 246.8 Z"/>
</g>

<g id="Symbol_60_0_Layer0_0_FILL">
<path fill="#0081C6" stroke="none" d="
M 792.8 294.35
Q 791.8 293.3 790.6 293.3 789.45 293.3 788.4 294.35 787.4 295.4 786.6 297.3 785.85 299.15 785.4 301.65 785 304.1 784.95 306.95 785 309.8 785.4 312.25 785.85 314.7 786.6 316.6 787.4 318.45 788.4 319.5 789.45 320.55 790.6 320.6 791.8 320.55 792.8 319.5 793.85 318.45 794.6 316.6 795.4 314.7 795.8 312.25 796.25 309.8 796.25 306.95 796.25 304.1 795.8 301.65 795.4 299.15 794.6 297.3 793.85 295.4 792.8 294.35 Z"/>
</g>

<g id="Symbol_61_0_Layer0_0_FILL">
<path fill="#a6ce38" stroke="none" d="
M 977.8 344.15
L 977 342.6
Q 976.4 341.35 975.75 340.3 974.3 339.05 973.3 339.6 972.3 340.1 971.25 342.55 968.55 348.65 968.05 357.15 967.6 365.65 968.6 374.65 969.3 381.2 970.5 387.2 971.65 393.2 972.95 397.95 973.35 399.25 973.65 400.55 974 401.9 974.25 403.3 974.9 406.35 975.45 409.55 976 412.75 976.55 416 977.65 422.85 979.15 429.5 980.7 436.2 983.4 442 985.35 446.1 987.55 450.15 989.7 454.2 992 458.2 1003.45 477.5 1018.25 494.65 1033.05 511.85 1049.75 525.95 1052.65 528.55 1058.35 532.8 1064 537.05 1070.3 539.95 1076.6 542.8 1081.5 541.35 1082 541.65 1082.55 541.85 1083.1 542.1 1083.65 542.3 1083.85 542.4 1084.1 542.45 1084.3 542.5 1084.55 542.6 1085.85 542.95 1087.1 543.05 1088.4 543.15 1089.6 542.9 1089.75 556.1 1090.35 569.3 1090.95 582.5 1093.6 595.05 1095.85 605.55 1099.7 617.65 1103.55 629.75 1109.9 640.45 1116.2 651.15 1125.85 657.55 1129.35 661.95 1133.35 664.8 1137.35 667.65 1141.75 667.9 1142.15 667.95 1142.55 667.95 1142.95 667.9 1143.4 667.85 1144.25 667.8 1145.15 667.55 1146.05 667.35 1146.95 666.95 1146.9 667.5 1146.8 668.1
L 1146.6 669.5
Q 1146.6 669.65 1146.6 669.75 1146.5 670.35 1146.4 671 1146.3 671.6 1146.25 672.25 1143.6 691.45 1143.7 711.5 1143.8 731.55 1147.65 750.35 1148.4 753.95 1150.6 756.35 1152.75 758.75 1155.7 758.7 1155.9 758.7 1156.1 758.7 1156.3 758.65 1156.5 758.65 1157.55 758.45 1158.65 757.8 1159.7 757.15 1160.75 756 1168.25 747.25 1173.65 733.25 1179.05 719.3 1182.1 708.3 1186.15 694.55 1189.05 679.15 1191.9 663.75 1192.2 648.4 1192.25 644.25 1192 640.15 1191.8 636.1 1191.25 632.1 1191.1 630.8 1190.9 629.5 1190.75 628.15 1190.55 626.85 1190.9 620.15 1191.2 613.1 1191.5 606.1 1191.6 598.95 1191.75 589.25 1191.1 579.85 1190.45 570.45 1188.55 561.9
L 1188.1 560.25
Q 1187.7 558.95 1187.25 557.9 1186.85 557.25 1186.4 557.05 1185.95 556.9 1185.35 557.5
L 1184.85 559.3 1184.55 562.9
Q 1184.3 567.35 1184.25 572.05
L 1184.15 578.45
Q 1184.1 580.15 1184.05 581.85 1184.05 583.5 1183.95 585.2 1183.65 585.8 1183.5 586.45 1183.3 587.05 1183.2 587.35 1181.05 595.35 1181 604.8 1180.9 614.2 1181.6 622.9 1180.85 630.6 1179.9 638.3 1178.95 646 1177.8 653.8 1177.65 655 1177.25 657.05 1176.9 659.1 1176.5 661.7 1176.35 660.25 1176.2 658.8 1176.05 657.3 1175.85 655.85 1175 651.1 1173.3 646 1171.6 640.9 1171.05 636.65
L 1170.95 632.1
Q 1170.7 628.75 1167.75 627.65 1167.4 627.4 1166.85 627.35 1166.35 627.25 1165.7 627.3 1167.35 611.75 1166.7 595.1 1166.05 578.5 1160.05 568.1
L 1159 566.5
Q 1158.15 565.35 1157.35 564.45 1156.75 564.15 1156.3 563.7 1155.9 563.2 1155.15 563.25 1154.65 563.45 1154.35 563.95
L 1153.95 564.65
Q 1153.4 565.7 1153.05 567.85 1152.75 570.05 1152.6 572.85 1147.4 558.35 1142.8 543.5 1138.25 528.7 1132.85 514.3 1130.05 506.6 1126.8 497.3 1123.6 487.95 1119.3 481.4
L 1118 479.8
Q 1116.95 478.7 1115.8 477.95 1115.4 477.75 1115 477.5
L 1114.5 477.2
Q 1109.9 475.4 1105.45 477.3 1101 479.2 1099.4 483.8 1098.6 470.65 1096.45 457.55 1094.35 444.45 1089.65 434.15
L 1088.8 432.65
Q 1088.15 431.4 1087.6 430.35 1086.6 429.4 1085.7 429.1
L 1083.95 431.6
Q 1082.55 436.8 1082.6 444.05 1082.7 451.3 1083.05 456.85 1083.4 463.25 1083.9 469.65 1084.4 476.1 1084.95 482.55 1081.35 474.25 1077.15 466.15 1072.9 458.1 1068.15 450.45 1064.75 444.15 1060.65 437.8 1056.55 431.5 1049 430.95 1048.2 431.05 1046.65 431.45
L 1044.85 431.95
Q 1043.9 431.5 1042.95 429.85 1042 428.2 1041.35 427.25 1037.65 421.8 1031.5 414.4 1025.3 407 1019 405.9 1016.7 405.95 1015.4 406.55 1014.05 407.15 1012.75 405.65 1009.85 401.55 1007.1 395.3 1004.35 389.05 1000.25 385.25 996.15 381.5 989.1 384.85
L 988 385.6
Q 987.2 386.2 986.3 386.9 985.4 375.65 983.75 364.6 982.05 353.55 977.8 344.15
M 1139.95 639.15
L 1140.75 639.25
Q 1140.75 639.6 1140.7 640 1140.7 640.4 1140.3 640.3 1140.1 640.2 1139.7 639.8 1139.3 639.45 1139.3 639.15
L 1139.95 639.15
M 1170.05 656.95
Q 1170.3 658.15 1170.3 659.55
L 1170.25 661.3
Q 1170.3 665.4 1170.2 669.55 1170.1 673.7 1169.4 677.75
L 1169.4 678.45
Q 1169.4 679.05 1169.15 679.4 1168.95 678.55 1169.05 677.15 1169.15 675.8 1169.2 675.25 1169.4 671.15 1169.55 667.05 1169.75 662.95 1169.9 658.85 1169.85 658.6 1169.85 657.95 1169.85 657.35 1170.05 656.95 Z"/>

<path fill="#a6ce38" stroke="none" d="
M 1170.3 659.55
Q 1170.3 658.15 1170.05 656.95 1169.85 657.35 1169.85 657.95 1169.85 658.6 1169.9 658.85 1169.75 662.95 1169.55 667.05 1169.4 671.15 1169.2 675.25 1169.15 675.8 1169.05 677.15 1168.95 678.55 1169.15 679.4 1169.4 679.05 1169.4 678.45
L 1169.4 677.75
Q 1170.1 673.7 1170.2 669.55 1170.3 665.4 1170.25 661.3
L 1170.3 659.55
M 1194.55 193.3
Q 1181.2 122.15 1150.8 61.95 1143.35 50.3 1117.1 54.45 1090.9 58.65 1059.8 72.8 1028.75 86.95 1006.8 105.3 986.5 123.55 972.9 145.85 959.25 168.2 952.4 184.75
L 945.55 202.1 946.1 221.05
Q 946.7 239.45 949.45 268.85 950.75 282.05 952.7 296.5 954.65 311 957.4 326.1 959.6 338.3 962.35 350.5 965.15 362.75 968.6 374.65 967.6 365.65 968.05 357.15 968.55 348.65 971.25 342.55 972.3 340.1 973.3 339.6 974.3 339.05 975.75 340.3 976.4 341.35 977 342.6
L 977.8 344.15
Q 982.05 353.55 983.75 364.6 985.4 375.65 986.3 386.9 987.2 386.2 988 385.6
L 989.1 384.85
Q 996.15 381.5 1000.25 385.25 1004.35 389.05 1007.1 395.3 1009.85 401.55 1012.75 405.65 1014.05 407.15 1015.4 406.55 1016.7 405.95 1019 405.9 1025.3 407 1031.5 414.4 1037.65 421.8 1041.35 427.25 1042 428.2 1042.95 429.85 1043.9 431.5 1044.85 431.95
L 1046.65 431.45
Q 1048.2 431.05 1049 430.95 1056.55 431.5 1060.65 437.8 1064.75 444.15 1068.15 450.45 1072.9 458.1 1077.15 466.15 1081.35 474.25 1084.95 482.55 1084.4 476.1 1083.9 469.65 1083.4 463.25 1083.05 456.85 1082.7 451.3 1082.6 444.05 1082.55 436.8 1083.95 431.6
L 1085.7 429.1
Q 1086.6 429.4 1087.6 430.35 1088.15 431.4 1088.8 432.65
L 1089.65 434.15
Q 1094.35 444.45 1096.45 457.55 1098.6 470.65 1099.4 483.8 1101 479.2 1105.45 477.3 1109.9 475.4 1114.5 477.2
L 1115 477.5
Q 1115.4 477.75 1115.8 477.95 1116.95 478.7 1118 479.8
L 1119.3 481.4
Q 1123.6 487.95 1126.8 497.3 1130.05 506.6 1132.85 514.3 1138.25 528.7 1142.8 543.5 1147.4 558.35 1152.6 572.85 1152.75 570.05 1153.05 567.85 1153.4 565.7 1153.95 564.65
L 1154.35 563.95
Q 1154.65 563.45 1155.15 563.25 1155.9 563.2 1156.3 563.7 1156.75 564.15 1157.35 564.45 1158.15 565.35 1159 566.5
L 1160.05 568.1
Q 1166.05 578.5 1166.7 595.1 1167.35 611.75 1165.7 627.3 1166.35 627.25 1166.85 627.35 1167.4 627.4 1167.75 627.65 1170.7 628.75 1170.95 632.1
L 1171.05 636.65
Q 1171.6 640.9 1173.3 646 1175 651.1 1175.85 655.85 1176.05 657.3 1176.2 658.8 1176.35 660.25 1176.5 661.7 1176.9 659.1 1177.25 657.05 1177.65 655 1177.8 653.8 1178.95 646 1179.9 638.3 1180.85 630.6 1181.6 622.9 1180.9 614.2 1181 604.8 1181.05 595.35 1183.2 587.35 1183.3 587.05 1183.5 586.45 1183.65 585.8 1183.95 585.2 1184.05 583.5 1184.05 581.85 1184.1 580.15 1184.15 578.45
L 1184.25 572.05
Q 1184.3 567.35 1184.55 562.9
L 1184.85 559.3 1185.35 557.5
Q 1185.95 556.9 1186.4 557.05 1186.85 557.25 1187.25 557.9 1187.7 558.95 1188.1 560.25
L 1188.55 561.9
Q 1190.45 570.45 1191.1 579.85 1191.75 589.25 1191.6 598.95 1199.35 546.25 1205.05 478.9 1210.7 411.5 1209.35 338 1207.95 264.45 1194.55 193.3 Z"/>

<path fill="#0081C6" stroke="none" d="
M 1156.5 48.7
Q 1151.85 46.25 1150.85 49.3 1149.85 52.35 1152.5 56.45 1165.1 74.65 1173.45 98 1181.75 121.35 1187.15 145.95 1192.5 170.5 1196.15 192.3 1205.45 243.9 1210.15 298.9 1214.85 353.9 1210.7 407.3 1208.45 435.55 1206.65 464.25 1204.85 492.95 1201.85 521.15 1198.7 552.75 1197.05 584.75 1195.45 616.75 1192.2 648.4 1191.9 663.75 1189.05 679.15 1186.15 694.55 1182.1 708.3 1179.05 719.3 1173.65 733.25 1168.25 747.25 1160.75 756 1159.7 757.15 1158.65 757.8 1157.55 758.45 1156.5 758.65 1156.4 758.7 1156.25 758.75
L 1156 758.9 1155.7 758.7
Q 1152.75 758.75 1150.6 756.35 1148.4 753.95 1147.65 750.35 1143.8 731.55 1143.7 711.5 1143.6 691.45 1146.25 672.25 1146.3 671.6 1146.4 671 1146.5 670.35 1146.6 669.75 1146.6 669.65 1146.6 669.5
L 1146.8 668.1
Q 1146.9 667.5 1146.95 666.95 1146.05 667.35 1145.15 667.55 1144.25 667.8 1143.4 667.85 1142.95 667.9 1142.55 667.95 1142.15 667.95 1141.75 667.9 1137.35 667.65 1133.35 664.8 1129.35 661.95 1125.85 657.55 1116.2 651.15 1109.9 640.45 1103.55 629.75 1099.7 617.65 1095.85 605.55 1093.6 595.05 1090.95 582.5 1090.35 569.3 1089.75 556.1 1089.6 542.9 1088.4 543.15 1087.1 543.05 1085.85 542.95 1084.55 542.6 1084.3 542.5 1084.1 542.45 1083.85 542.4 1083.65 542.3 1083.1 542.1 1082.55 541.85 1082 541.65 1081.5 541.35 1076.6 542.8 1070.3 539.95 1064 537.05 1058.35 532.8 1052.65 528.55 1049.75 525.95 1033.05 511.85 1018.25 494.65 1003.45 477.5 992 458.2 989.7 454.2 987.55 450.15 985.35 446.1 983.4 442 980.7 436.2 979.15 429.5 977.65 422.85 976.55 416 976 412.75 975.45 409.55 974.9 406.35 974.25 403.3 973.9 403.05 973.55 402.95 973.2 402.8 972.95 402.8 968 383.9 964.2 364.65 960.35 345.4 957.4 326.1 954.65 311 952.7 296.5 950.75 282.05 949.45 268.85 946.15 245.85 942.75 222.85 939.35 199.9 936.6 176.85 934.95 163.4 933.4 149.75 931.85 136.15 931.6 122.55
L 931.5 120.85
Q 931.4 119.5 931.15 118.35 930.1 116.25 928.5 115.3 926.95 114.35 924.35 116.7 922.25 119.1 921.95 124.8 921.65 130.5 922.2 136.45 922.8 142.45 923.3 145.7 924.7 155.85 925.6 165.95 926.55 176.1 928 186.15 933.55 223.85 938.5 261.65 943.45 299.45 949.4 337.05 952.45 356.45 956.45 376.8 960.45 397.1 966.45 415.7 970.25 427.75 975.35 441.65 980.5 455.6 987.85 465.6 988 465.8 988.15 466 988.35 466.2 988.5 466.45 998.95 484.65 1013 501.5 1027.05 518.35 1042.6 530.5 1046.6 533.6 1054.25 538.3 1061.9 542.95 1070.05 546.3 1078.2 549.7 1083.65 548.85 1083.85 558.2 1084.3 567.4 1084.8 576.6 1085.95 585.9 1087.75 601.55 1093.5 619.95 1099.2 638.3 1110 653 1120.75 667.65 1137.75 672.1 1138.3 672.25 1139.2 672.35 1140.1 672.45 1141.15 672.45 1140.95 674.95 1140.85 677.1 1140.7 679.2 1140.6 680.4 1138.75 695.9 1139.6 711.65 1140.4 727.45 1143.2 742.85 1143.75 746.15 1145.7 751.95 1147.65 757.7 1151 761.9 1154.35 766.05 1159 764.5 1163.65 762.45 1167.15 757.2 1170.7 751.9 1172.95 745.8 1183.4 728.45 1188.8 706.9 1194.2 685.3 1196.9 666.35 1201.1 638.55 1203.2 610.55 1205.3 582.55 1207.7 554.5 1210.15 526.65 1212.05 498.55 1213.9 470.5 1216.65 442.55 1222.6 382.4 1219.75 323.5 1216.9 264.55 1207.2 205.7 1203.45 181.65 1197.9 154.4 1192.4 127.2 1183.65 101.25 1174.9 75.3 1161.6 55
L 1160.5 53.35
Q 1159.6 52.1 1158.65 51.1 1158.15 50.4 1157.45 49.65
L 1156.5 48.7 Z"/>
</g>

<g id="Symbol_12_0_Layer0_0_FILL">
<path fill="#a6ce38" stroke="none" d="
M 947.85 633.85
L 891.05 633.65 919 845 947.85 633.85 Z"/>
</g>

<g id="Symbol_14_0_Layer0_0_FILL">
<path fill="#a6ce38" stroke="none" d="
M 758.9 590
Q 753.15 581.15 747.85 586.05 742.15 591.9 723.55 593.9 704.95 595.95 679.3 592 653.7 588.05 627.05 576.05 599.9 563.15 577.6 549.9 555.25 536.7 541.8 527.6
L 527.85 518.1
Q 526.3 535.9 536.7 561.25 547.1 586.6 562.8 608.25 578.5 629.85 592.8 636.6 604.25 640.8 633.65 641.05 663.1 641.25 696.75 639.45 730.4 637.65 754.65 635.7
L 780.05 633.55
Q 775.6 625.3 770.1 612.05 764.6 598.85 758.9 590 Z"/>
</g>

<g id="Symbol_62_0_Layer0_0_FILL">
<path fill="#a6ce38" stroke="none" d="
M 1042 235.05
Q 1020 219.75 1010.5 232.65 997.6 253.35 985.25 270.25 972.85 287.15 959.95 306.55 947 326 932.5 354.2 925.35 369.4 922 394.4 918.7 419.4 916.6 445.8 914.5 472.15 911 491.5 901.85 533.15 879.75 567.5 857.7 601.85 832.45 628 807.2 654.15 788.5 671.3
L 773.9 685.95 767.45 695.7 774.8 702.5 796.55 710.05
Q 825.5 718.05 871.6 717.85 917.65 717.65 969.05 699.6 1006.35 685.15 1041.1 656.65 1075.9 628.2 1100.45 594.15 1125.05 560.15 1131.75 529.1 1145.75 457.75 1149.35 419.15 1152.95 380.5 1151.65 365.75
L 1150.45 354.7 1149.5 351.1 1130.95 327.1
Q 1113.3 304.6 1088.65 277.45 1063.95 250.35 1042 235.05 Z"/>
</g>

<g id="Symbol_57_0_Layer0_0_FILL">
<path fill="#a6ce38" stroke="none" d="
M 1052.35 283.25
Q 1032.85 270.25 1016.1 269.15 999.3 268.05 985.7 273.6 972.1 279.2 962.3 286.15 952.6 293 947.9 304.9 943.2 316.8 942 329.7 940.75 342.65 941.6 352.6 942.35 362.75 948.5 376.1 954.6 389.45 965.95 400.1 977.25 410.75 993.55 412.7 1005.85 414.4 1018.1 423.45 1030.35 432.45 1040.85 441.55 1051.35 450.7 1058.5 452.6 1065.6 454.55 1067.8 442.05 1069.9 428.35 1071.1 404.9 1072.3 381.5 1071.35 356 1070.35 330.45 1065.9 310.4 1061.5 290.3 1052.35 283.25 Z"/>
</g>

<g id="Symbol_25_0_Layer0_0_FILL">
<path fill="#a6ce38" stroke="none" d="
M 1106.5 326.35
Q 1113.75 318.9 1118.6 311
L 1115.05 308.9 1104.95 304.7
Q 1091.55 299.45 1068.2 297.6
L 1071.15 308.1
Q 1074.2 317.9 1077.85 329.4 1081.5 340.9 1083.4 346.7 1086.05 344.75 1092.65 339.3 1099.2 333.8 1106.5 326.35 Z"/>
</g>

<g id="Symbol_26_0_Layer0_0_FILL">
<path fill="#0081C6" stroke="none" d="
M 1035.4 302.25
L 1033.5 301.25 1031.5 300.65 1029.35 300.45 1027.25 300.65 1025.25 301.25 1023.35 302.25 1021.75 303.6 1020.4 305.25 1019.4 307.1 1018.75 309.15 1018.55 311.25 1018.75 313.35 1019.4 315.4 1020.4 317.25 1021.75 318.9 1023.35 320.25 1025.25 321.25 1027.25 321.85 1029.35 322.05 1031.5 321.85 1033.5 321.25 1035.4 320.25 1037 318.9 1038.35 317.25 1039.35 315.4 1040 313.35 1040.2 311.25 1040 309.15 1039.35 307.1 1038.35 305.25 1037 303.6 1035.4 302.25 Z"/>
</g>

<g id="Symbol_27_0_Layer0_0_FILL">
<path fill="#a6ce38" stroke="none" d="
M 1040.4 290.7
Q 1036.7 285.45 1029.15 285.1 1020.3 285.55 1015.95 292.1 1011.65 298.6 1010.8 306.75
L 1046.25 307 1045.2 301.3
Q 1044.1 296 1040.4 290.7 Z"/>
</g>

<g id="Symbol_63_0_Layer0_0_FILL">
<path fill="#a6ce38" stroke="none" d="
M 977.8 344.15
L 977 342.6
Q 976.4 341.35 975.75 340.3 974.3 339.05 973.3 339.6 972.3 340.1 971.25 342.55 968.55 348.65 968.05 357.15 967.6 365.65 968.6 374.65 969.3 381.2 970.5 387.2 971.65 393.2 972.95 397.95 973.35 399.25 973.65 400.55 974 401.9 974.25 403.3 974.9 406.35 975.45 409.55 976 412.75 976.55 416 977.65 422.85 979.15 429.5 980.7 436.2 983.4 442 985.35 446.1 987.55 450.15 989.7 454.2 992 458.2 1003.45 477.5 1018.25 494.65 1033.05 511.85 1049.75 525.95 1052.65 528.55 1058.35 532.8 1064 537.05 1070.3 539.95 1076.6 542.8 1081.5 541.35 1082 541.65 1082.55 541.85 1083.1 542.1 1083.65 542.3 1083.85 542.4 1084.1 542.45 1084.3 542.5 1084.55 542.6 1085.85 542.95 1087.1 543.05 1088.4 543.15 1089.6 542.9 1089.75 556.1 1090.35 569.3 1090.95 582.5 1093.6 595.05 1095.85 605.55 1099.7 617.65 1103.55 629.75 1109.9 640.45 1116.2 651.15 1125.85 657.55 1129.35 661.95 1133.35 664.8 1137.35 667.65 1141.75 667.9 1142.15 667.95 1142.55 667.95 1142.95 667.9 1143.4 667.85 1144.25 667.8 1145.15 667.55 1146.05 667.35 1146.95 666.95 1146.9 667.5 1146.8 668.1
L 1146.6 669.5
Q 1146.6 669.65 1146.6 669.75 1146.5 670.35 1146.4 671 1146.3 671.6 1146.25 672.25 1143.6 691.45 1143.7 711.5 1143.8 731.55 1147.65 750.35 1148.4 753.95 1150.6 756.35 1152.75 758.75 1155.7 758.7 1155.9 758.7 1156.1 758.7 1156.3 758.65 1156.5 758.65 1157.55 758.45 1158.65 757.8 1159.7 757.15 1160.75 756 1168.25 747.25 1173.65 733.25 1179.05 719.3 1182.1 708.3 1186.15 694.55 1189.05 679.15 1191.9 663.75 1192.2 648.4 1192.25 644.25 1192 640.15 1191.8 636.1 1191.25 632.1 1191.1 630.8 1190.9 629.5 1190.75 628.15 1190.55 626.85 1190.9 620.15 1191.2 613.1 1191.5 606.1 1191.6 598.95 1191.75 589.25 1191.1 579.85 1190.45 570.45 1188.55 561.9
L 1188.1 560.25
Q 1187.7 558.95 1187.25 557.9 1186.85 557.25 1186.4 557.05 1185.95 556.9 1185.35 557.5
L 1184.85 559.3 1184.55 562.9
Q 1184.3 567.35 1184.25 572.05
L 1184.15 578.45
Q 1184.1 580.15 1184.05 581.85 1184.05 583.5 1183.95 585.2 1183.65 585.8 1183.5 586.45 1183.3 587.05 1183.2 587.35 1181.05 595.35 1181 604.8 1180.9 614.2 1181.6 622.9 1180.85 630.6 1179.9 638.3 1178.95 646 1177.8 653.8 1177.65 655 1177.25 657.05 1176.9 659.1 1176.5 661.7 1176.35 660.25 1176.2 658.8 1176.05 657.3 1175.85 655.85 1175 651.1 1173.3 646 1171.6 640.9 1171.05 636.65
L 1170.95 632.1
Q 1170.7 628.75 1167.75 627.65 1167.4 627.4 1166.85 627.35 1166.35 627.25 1165.7 627.3 1167.35 611.75 1166.7 595.1 1166.05 578.5 1160.05 568.1
L 1159 566.5
Q 1158.15 565.35 1157.35 564.45 1156.75 564.15 1156.3 563.7 1155.9 563.2 1155.15 563.25 1154.65 563.45 1154.35 563.95
L 1153.95 564.65
Q 1153.4 565.7 1153.05 567.85 1152.75 570.05 1152.6 572.85 1147.4 558.35 1142.8 543.5 1138.25 528.7 1132.85 514.3 1130.05 506.6 1126.8 497.3 1123.6 487.95 1119.3 481.4
L 1118 479.8
Q 1116.95 478.7 1115.8 477.95 1115.4 477.75 1115 477.5
L 1114.5 477.2
Q 1109.9 475.4 1105.45 477.3 1101 479.2 1099.4 483.8 1098.6 470.65 1096.45 457.55 1094.35 444.45 1089.65 434.15
L 1088.8 432.65
Q 1088.15 431.4 1087.6 430.35 1086.6 429.4 1085.7 429.1
L 1083.95 431.6
Q 1082.55 436.8 1082.6 444.05 1082.7 451.3 1083.05 456.85 1083.4 463.25 1083.9 469.65 1084.4 476.1 1084.95 482.55 1081.35 474.25 1077.15 466.15 1072.9 458.1 1068.15 450.45 1064.75 444.15 1060.65 437.8 1056.55 431.5 1049 430.95 1048.2 431.05 1046.65 431.45
L 1044.85 431.95
Q 1043.9 431.5 1042.95 429.85 1042 428.2 1041.35 427.25 1037.65 421.8 1031.5 414.4 1025.3 407 1019 405.9 1016.7 405.95 1015.4 406.55 1014.05 407.15 1012.75 405.65 1009.85 401.55 1007.1 395.3 1004.35 389.05 1000.25 385.25 996.15 381.5 989.1 384.85
L 988 385.6
Q 987.2 386.2 986.3 386.9 985.4 375.65 983.75 364.6 982.05 353.55 977.8 344.15
M 1139.95 639.15
L 1140.75 639.25
Q 1140.75 639.6 1140.7 640 1140.7 640.4 1140.3 640.3 1140.1 640.2 1139.7 639.8 1139.3 639.45 1139.3 639.15
L 1139.95 639.15
M 1170.05 656.95
Q 1170.3 658.15 1170.3 659.55
L 1170.25 661.3
Q 1170.3 665.4 1170.2 669.55 1170.1 673.7 1169.4 677.75
L 1169.4 678.45
Q 1169.4 679.05 1169.15 679.4 1168.95 678.55 1169.05 677.15 1169.15 675.8 1169.2 675.25 1169.4 671.15 1169.55 667.05 1169.75 662.95 1169.9 658.85 1169.85 658.6 1169.85 657.95 1169.85 657.35 1170.05 656.95 Z"/>

<path fill="#a6ce38" stroke="none" d="
M 1170.3 659.55
Q 1170.3 658.15 1170.05 656.95 1169.85 657.35 1169.85 657.95 1169.85 658.6 1169.9 658.85 1169.75 662.95 1169.55 667.05 1169.4 671.15 1169.2 675.25 1169.15 675.8 1169.05 677.15 1168.95 678.55 1169.15 679.4 1169.4 679.05 1169.4 678.45
L 1169.4 677.75
Q 1170.1 673.7 1170.2 669.55 1170.3 665.4 1170.25 661.3
L 1170.3 659.55
M 1194.55 193.3
Q 1181.2 122.15 1150.8 61.95 1143.35 50.3 1117.1 54.45 1090.9 58.65 1059.8 72.8 1028.75 86.95 1006.8 105.3 986.5 123.55 972.9 145.85 959.25 168.2 952.4 184.75
L 945.55 202.1 946.1 221.05
Q 946.7 239.45 949.45 268.85 950.75 282.05 952.7 296.5 954.65 311 957.4 326.1 959.6 338.3 962.35 350.5 965.15 362.75 968.6 374.65 967.6 365.65 968.05 357.15 968.55 348.65 971.25 342.55 972.3 340.1 973.3 339.6 974.3 339.05 975.75 340.3 976.4 341.35 977 342.6
L 977.8 344.15
Q 982.05 353.55 983.75 364.6 985.4 375.65 986.3 386.9 987.2 386.2 988 385.6
L 989.1 384.85
Q 996.15 381.5 1000.25 385.25 1004.35 389.05 1007.1 395.3 1009.85 401.55 1012.75 405.65 1014.05 407.15 1015.4 406.55 1016.7 405.95 1019 405.9 1025.3 407 1031.5 414.4 1037.65 421.8 1041.35 427.25 1042 428.2 1042.95 429.85 1043.9 431.5 1044.85 431.95
L 1046.65 431.45
Q 1048.2 431.05 1049 430.95 1056.55 431.5 1060.65 437.8 1064.75 444.15 1068.15 450.45 1072.9 458.1 1077.15 466.15 1081.35 474.25 1084.95 482.55 1084.4 476.1 1083.9 469.65 1083.4 463.25 1083.05 456.85 1082.7 451.3 1082.6 444.05 1082.55 436.8 1083.95 431.6
L 1085.7 429.1
Q 1086.6 429.4 1087.6 430.35 1088.15 431.4 1088.8 432.65
L 1089.65 434.15
Q 1094.35 444.45 1096.45 457.55 1098.6 470.65 1099.4 483.8 1101 479.2 1105.45 477.3 1109.9 475.4 1114.5 477.2
L 1115 477.5
Q 1115.4 477.75 1115.8 477.95 1116.95 478.7 1118 479.8
L 1119.3 481.4
Q 1123.6 487.95 1126.8 497.3 1130.05 506.6 1132.85 514.3 1138.25 528.7 1142.8 543.5 1147.4 558.35 1152.6 572.85 1152.75 570.05 1153.05 567.85 1153.4 565.7 1153.95 564.65
L 1154.35 563.95
Q 1154.65 563.45 1155.15 563.25 1155.9 563.2 1156.3 563.7 1156.75 564.15 1157.35 564.45 1158.15 565.35 1159 566.5
L 1160.05 568.1
Q 1166.05 578.5 1166.7 595.1 1167.35 611.75 1165.7 627.3 1166.35 627.25 1166.85 627.35 1167.4 627.4 1167.75 627.65 1170.7 628.75 1170.95 632.1
L 1171.05 636.65
Q 1171.6 640.9 1173.3 646 1175 651.1 1175.85 655.85 1176.05 657.3 1176.2 658.8 1176.35 660.25 1176.5 661.7 1176.9 659.1 1177.25 657.05 1177.65 655 1177.8 653.8 1178.95 646 1179.9 638.3 1180.85 630.6 1181.6 622.9 1180.9 614.2 1181 604.8 1181.05 595.35 1183.2 587.35 1183.3 587.05 1183.5 586.45 1183.65 585.8 1183.95 585.2 1184.05 583.5 1184.05 581.85 1184.1 580.15 1184.15 578.45
L 1184.25 572.05
Q 1184.3 567.35 1184.55 562.9
L 1184.85 559.3 1185.35 557.5
Q 1185.95 556.9 1186.4 557.05 1186.85 557.25 1187.25 557.9 1187.7 558.95 1188.1 560.25
L 1188.55 561.9
Q 1190.45 570.45 1191.1 579.85 1191.75 589.25 1191.6 598.95 1199.35 546.25 1205.05 478.9 1210.7 411.5 1209.35 338 1207.95 264.45 1194.55 193.3 Z"/>

<path fill="#0081C6" stroke="none" d="
M 1156.5 48.7
Q 1151.85 46.25 1150.85 49.3 1149.85 52.35 1152.5 56.45 1165.1 74.65 1173.45 98 1181.75 121.35 1187.15 145.95 1192.5 170.5 1196.15 192.3 1205.45 243.9 1210.15 298.9 1214.85 353.9 1210.7 407.3 1208.45 435.55 1206.65 464.25 1204.85 492.95 1201.85 521.15 1198.7 552.75 1197.05 584.75 1195.45 616.75 1192.2 648.4 1191.9 663.75 1189.05 679.15 1186.15 694.55 1182.1 708.3 1179.05 719.3 1173.65 733.25 1168.25 747.25 1160.75 756 1159.7 757.15 1158.65 757.8 1157.55 758.45 1156.5 758.65 1156.4 758.7 1156.25 758.75 1156.15 758.85 1156 758.9
L 1155.7 758.7
Q 1152.75 758.75 1150.6 756.35 1148.4 753.95 1147.65 750.35 1143.8 731.55 1143.7 711.5 1143.6 691.45 1146.25 672.25 1146.3 671.6 1146.4 671 1146.5 670.35 1146.6 669.75 1146.6 669.65 1146.6 669.5
L 1146.8 668.1
Q 1146.9 667.5 1146.95 666.95 1146.05 667.35 1145.15 667.55 1144.25 667.8 1143.4 667.85 1142.95 667.9 1142.55 667.95 1142.15 667.95 1141.75 667.9 1137.35 667.65 1133.35 664.8 1129.35 661.95 1125.85 657.55 1116.2 651.15 1109.9 640.45 1103.55 629.75 1099.7 617.65 1095.85 605.55 1093.6 595.05 1090.95 582.5 1090.35 569.3 1089.75 556.1 1089.6 542.9 1088.4 543.15 1087.1 543.05 1085.85 542.95 1084.55 542.6 1084.3 542.5 1084.1 542.45 1083.85 542.4 1083.65 542.3 1083.1 542.1 1082.55 541.85 1082 541.65 1081.5 541.35 1076.6 542.8 1070.3 539.95 1064 537.05 1058.35 532.8 1052.65 528.55 1049.75 525.95 1033.05 511.85 1018.25 494.65 1003.45 477.5 992 458.2 989.7 454.2 987.55 450.15 985.35 446.1 983.4 442 980.7 436.2 979.15 429.5 977.65 422.85 976.55 416 976 412.75 975.45 409.55 974.9 406.35 974.25 403.3 973.9 403.05 973.55 402.95 973.2 402.8 972.95 402.8 968 383.9 964.2 364.65 960.35 345.4 957.4 326.1 954.65 311 952.7 296.5 950.75 282.05 949.45 268.85 946.15 245.85 942.75 222.85 939.35 199.9 936.6 176.85 934.95 163.4 933.4 149.75 931.85 136.15 931.6 122.55
L 931.5 120.85
Q 931.4 119.5 931.15 118.35 930.1 116.25 928.5 115.3 926.95 114.35 924.35 116.7 922.25 119.1 921.95 124.8 921.65 130.5 922.2 136.45 922.8 142.45 923.3 145.7 924.7 155.85 925.6 165.95 926.55 176.1 928 186.15 933.55 223.85 938.5 261.65 943.45 299.45 949.4 337.05 952.45 356.45 956.45 376.8 960.45 397.1 966.45 415.7 970.25 427.75 975.35 441.65 980.5 455.6 987.85 465.6 988 465.8 988.15 466 988.35 466.2 988.5 466.45 998.95 484.65 1013 501.5 1027.05 518.35 1042.6 530.5 1046.6 533.6 1054.25 538.3 1061.9 542.95 1070.05 546.3 1078.2 549.7 1083.65 548.85 1083.85 558.2 1084.3 567.4 1084.8 576.6 1085.95 585.9 1087.75 601.55 1093.5 619.95 1099.2 638.3 1110 653 1120.75 667.65 1137.75 672.1 1138.3 672.25 1139.2 672.35 1140.1 672.45 1141.15 672.45 1140.95 674.95 1140.85 677.1 1140.7 679.2 1140.6 680.4 1138.75 695.9 1139.6 711.65 1140.4 727.45 1143.2 742.85 1143.75 746.15 1145.7 751.95 1147.65 757.7 1151 761.9 1154.35 766.05 1159 764.5 1163.65 762.45 1167.15 757.2 1170.7 751.9 1172.95 745.8 1183.4 728.45 1188.8 706.9 1194.2 685.3 1196.9 666.35 1201.1 638.55 1203.2 610.55 1205.3 582.55 1207.7 554.5 1210.15 526.65 1212.05 498.55 1213.9 470.5 1216.65 442.55 1222.6 382.4 1219.75 323.5 1216.9 264.55 1207.2 205.7 1203.45 181.65 1197.9 154.4 1192.4 127.2 1183.65 101.25 1174.9 75.3 1161.6 55
L 1160.5 53.35
Q 1159.6 52.1 1158.65 51.1 1158.15 50.4 1157.45 49.65
L 1156.5 48.7 Z"/>
</g>
</defs>



<g transform="matrix( 0.66680908203125, 0, 0, 0.66680908203125, 340.6,269.8) ">
<g transform="matrix( 1, 0, 0, 1, 0,0) ">
<use xlink:href="#Symbol_28_0_Layer0_0_FILL"/>
</g>
</g>

<g transform="matrix( 0.6668548583984375, 0, 0, 0.6668548583984375, 384.45,280.85) ">
<g transform="matrix( 1, 0, 0, 1, 0,0) ">
<use xlink:href="#Symbol_39_0_Layer0_0_FILL"/>
</g>
</g>

<g transform="matrix( 0.6476898193359375, 0.2783050537109375, -0.2783050537109375, 0.6476898193359375, 570.05,-52.25) ">
<g transform="matrix( 1, 0, 0, 1, 0,0) ">
<use xlink:href="#Symbol_40_0_Layer0_0_FILL"/>
</g>
</g>

<g transform="matrix( 0.6476898193359375, 0.2783050537109375, -0.2783050537109375, 0.6476898193359375, 570.05,-52.25) ">
<g transform="matrix( 1, 0, 0, 1, 0,0) ">
<use xlink:href="#Symbol_41_0_Layer0_0_FILL"/>
</g>
</g>

<g transform="matrix( 0.684844970703125, 0.1671295166015625, -0.1671295166015625, 0.684844970703125, 463.95,49.25) ">
<g transform="matrix( 1, 0, 0, 1, 0,0) ">
<use xlink:href="#Symbol_42_0_Layer0_0_FILL"/>
</g>
</g>

<g transform="matrix( 0.6476898193359375, 0.2783050537109375, -0.2783050537109375, 0.6476898193359375, 567.15,-48.85) ">
<g transform="matrix( 1, 0, 0, 1, 0,0) ">
<use xlink:href="#Symbol_43_0_Layer0_0_FILL"/>
</g>
</g>

<g transform="matrix( 0.6476898193359375, 0.2783050537109375, -0.2783050537109375, 0.6476898193359375, 567.15,-48.85) ">
<g transform="matrix( 1, 0, 0, 1, 0,0) ">
<use xlink:href="#Symbol_44_0_Layer0_0_FILL"/>
</g>
</g>

<g transform="matrix( 0.4927520751953125, -0.200531005859375, 0.2290496826171875, 0.5628509521484375, 400.45,479.75) ">
<g transform="matrix( 1, 0, 0, 1, 0,0) ">
<use xlink:href="#Symbol_29_0_Layer0_0_FILL"/>
</g>
</g>

<g transform="matrix( 0.724853515625, -0.1761322021484375, 0.2224273681640625, 0.7724456787109375, 183.5,420.9) ">
<g transform="matrix( 1, 0, 0, 1, 0,0) ">
<use xlink:href="#Symbol_30_0_Layer0_0_FILL"/>
</g>
</g>

<g transform="matrix( 0.5940399169921875, 0.3036346435546875, -0.3036346435546875, 0.5940399169921875, 473.75,28.4) ">
<g transform="matrix( 1, 0, 0, 1, 0,0) ">
<use xlink:href="#Symbol_31_0_Layer0_0_FILL"/>
</g>
</g>

<g transform="matrix( 0.667144775390625, 0, -0.1879425048828125, 0.699127197265625, 556.5,237.95) ">
<g transform="matrix( 1, 0, 0, 1, 0,0) ">
<use xlink:href="#Symbol_48_0_Layer0_0_FILL"/>
</g>
</g>

<g transform="matrix( 0.667144775390625, 0, -0.1879425048828125, 0.699127197265625, 502.05,252.65) ">
<g transform="matrix( 1, 0, 0, 1, 0,0) ">
<use xlink:href="#Symbol_32_0_Layer0_0_FILL"/>
</g>
</g>

<g transform="matrix( 0.667144775390625, 0, 0, 0.699127197265625, 220.25,256.2) ">
<g transform="matrix( 1, 0, 0, 1, 0,0) ">
<use xlink:href="#Symbol_49_0_Layer0_0_FILL"/>
</g>
</g>

<g transform="matrix( 0.6493072509765625, 0.1605377197265625, -0.1531982421875, 0.680450439453125, 420.7,122.4) ">
<g transform="matrix( 1, 0, 0, 1, 0,0) ">
<use xlink:href="#Symbol_33_0_Layer0_0_FILL"/>
</g>
</g>

<g transform="matrix( 0.64764404296875, -0.0714874267578125, 0.0731964111328125, 0.663116455078125, 311.3,342.2) ">
<g transform="matrix( 1, 0, 0, 1, 0,0) ">
<use xlink:href="#Symbol_54_0_Layer0_0_FILL"/>
</g>
</g>

<g transform="matrix( 0.6286468505859375, 0.2233123779296875, -0.2233123779296875, 0.6286468505859375, 409.65,84.45) ">
<g transform="matrix( 1, 0, 0, 1, 0,0) ">
<use xlink:href="#Symbol_46_0_Layer0_0_FILL"/>
</g>
</g>

<g transform="matrix( 0.6286468505859375, 0.2233123779296875, -0.1937255859375, 0.545379638671875, 426.4,110) ">
<g transform="matrix( 1, 0, 0, 1, 0,0) ">
<use xlink:href="#Symbol_47_0_Layer0_0_FILL"/>
</g>
</g>

<g transform="matrix( 0.6286468505859375, 0.2233123779296875, -0.2233123779296875, 0.6286468505859375, 432.8,82.75) ">
<g transform="matrix( 1, 0, 0, 1, 0,0) ">
<use xlink:href="#Symbol_34_0_Layer0_0_FILL"/>
</g>
</g>

<g transform="matrix( -0.1357574462890625, -0.0139312744140625, -0.0139312744140625, 0.1357574462890625, 1075.75,323.45) ">
<g transform="matrix( 1, 0, 0, 1, 0,0) ">
<use xlink:href="#Symbol_16_0_Layer0_0_FILL"/>
</g>
</g>

<g transform="matrix( -0.145233154296875, -0.0333251953125, -0.0333251953125, 0.145233154296875, 1101,326.1) ">
<g transform="matrix( 1, 0, 0, 1, 0,0) ">
<use xlink:href="#Symbol_51_0_Layer0_0_FILL"/>
</g>
</g>

<g transform="matrix( -0.1461181640625, 0.055023193359375, 0.055023193359375, 0.1461181640625, 1074.45,236.85) ">
<g transform="matrix( 1, 0, 0, 1, 0,0) ">
<use xlink:href="#Symbol_19_0_Layer0_0_FILL"/>
</g>
</g>

<g transform="matrix( -0.108062744140625, -0.0492706298828125, -0.0492706298828125, 0.108062744140625, 1064.45,375.25) ">
<g transform="matrix( 1, 0, 0, 1, 0,0) ">
<use xlink:href="#Symbol_20_0_Layer0_0_FILL"/>
</g>
</g>

<g transform="matrix( -0.109161376953125, -0.046783447265625, -0.046783447265625, 0.109161376953125, 1073.8,369.25) ">
<g transform="matrix( 1, 0, 0, 1, 0,0) ">
<use xlink:href="#Symbol_58_0_Layer0_0_FILL"/>
</g>
</g>

<g transform="matrix( -0.1157684326171875, -0.0265655517578125, -0.0265655517578125, 0.1157684326171875, 1069.15,330.45) ">
<g transform="matrix( 1, 0, 0, 1, 0,0) ">
<use xlink:href="#Symbol_22_0_Layer0_0_FILL"/>
</g>
</g>

<g transform="matrix( -0.10443115234375, -0.0565643310546875, -0.0565643310546875, 0.10443115234375, 1068.6,364.8) ">
<g transform="matrix( 1, 0, 0, 1, 0,0) ">
<use xlink:href="#Symbol_23_0_Layer0_0_FILL"/>
</g>
</g>

<g transform="matrix( 1.0245819091796875, -0.0755767822265625, 0.0755767822265625, 1.0245819091796875, -46,120.8) ">
<g transform="matrix( 1, 0, 0, 1, 0,0) ">
<use xlink:href="#Symbol_59_0_Layer0_0_FILL"/>
</g>
</g>

<g transform="matrix( 0.4945526123046875, -0.0755767822265625, 0.036468505859375, 1.0245819091796875, 352.6,93.15) ">
<g transform="matrix( 1, 0, 0, 1, 0,0) ">
<use xlink:href="#Symbol_60_0_Layer0_0_FILL"/>
</g>
</g>

<g transform="matrix( 0.0274658203125, -0.1155548095703125, -0.1155548095703125, -0.0274658203125, 921.05,494.6) ">
<g transform="matrix( 1, 0, 0, 1, 0,0) ">
<use xlink:href="#Symbol_61_0_Layer0_0_FILL"/>
</g>
</g>

<g transform="matrix( -0.135833740234375, -0.013946533203125, -0.013946533203125, 0.135833740234375, 1075.8,323.35) ">
<g transform="matrix( 1, 0, 0, 1, 0,0) ">
<use xlink:href="#Symbol_12_0_Layer0_0_FILL"/>
</g>
</g>

<g transform="matrix( -0.108123779296875, -0.0493011474609375, -0.0493011474609375, 0.108123779296875, 1064.5,375.2) ">
<g transform="matrix( 1, 0, 0, 1, 0,0) ">
<use xlink:href="#Symbol_14_0_Layer0_0_FILL"/>
</g>
</g>

<g transform="matrix( -0.109222412109375, -0.04681396484375, -0.04681396484375, 0.109222412109375, 1073.85,369.15) ">
<g transform="matrix( 1, 0, 0, 1, 0,0) ">
<use xlink:href="#Symbol_62_0_Layer0_0_FILL"/>
</g>
</g>

<g transform="matrix( -0.1453094482421875, -0.0333404541015625, -0.0333404541015625, 0.1453094482421875, 1101.1,325.95) ">
<g transform="matrix( 1, 0, 0, 1, 0,0) ">
<use xlink:href="#Symbol_57_0_Layer0_0_FILL"/>
</g>
</g>

<g transform="matrix( -0.1461944580078125, 0.0550537109375, 0.0550537109375, 0.1461944580078125, 1074.5,236.7) ">
<g transform="matrix( 1, 0, 0, 1, 0,0) ">
<use xlink:href="#Symbol_25_0_Layer0_0_FILL"/>
</g>
</g>

<g transform="matrix( -0.1158294677734375, -0.026580810546875, -0.026580810546875, 0.1158294677734375, 1069.2,330.35) ">
<g transform="matrix( 1, 0, 0, 1, 0,0) ">
<use xlink:href="#Symbol_26_0_Layer0_0_FILL"/>
</g>
</g>

<g transform="matrix( -0.1044921875, -0.0565948486328125, -0.0565948486328125, 0.1044921875, 1068.65,364.7) ">
<g transform="matrix( 1, 0, 0, 1, 0,0) ">
<use xlink:href="#Symbol_27_0_Layer0_0_FILL"/>
</g>
</g>

<g transform="matrix( 0.0274810791015625, -0.1156158447265625, -0.1156158447265625, -0.0274810791015625, 921.05,494.6) ">
<g transform="matrix( 1, 0, 0, 1, 0,0) ">
<use xlink:href="#Symbol_63_0_Layer0_0_FILL"/>
</g>
</g>
</svg>
