
<svg xmlns="http://www.w3.org/2000/svg" version="1.1" xmlns:xlink="http://www.w3.org/1999/xlink" preserveAspectRatio="none" x="0px" y="0px" width="760px" height="880px" viewBox="614 10 760 880">
<defs>


<g id="Symbol_30_0_Layer0_0_FILL">
<path fill="#FFFFFF" stroke="none" d="
M 982.7 196.45
Q 985.4 193.2 987.1 190.55
L 988.4 188.3 988.85 186.9
Q 984.8 184.8 978.9 183.9 972.95 183.05 966.7 183.05 960.45 183.1 955.45 183.75 950.4 184.4 948.15 185.35 946.3 186.4 942.55 190.3 938.8 194.2 934.75 198.95 930.65 203.7 927.75 207.15
L 924.7 210.8 926.7 212.15
Q 928.55 213.35 930.55 214.55
L 932.15 215.45 933 215.75
Q 944.4 213.9 951.85 212.6 959.25 211.3 963.9 210 968.55 208.75 971.65 207 974.15 205.55 977.05 202.65 980 199.75 982.7 196.45 Z"/>
</g>

<g id="Symbol_28_0_Layer0_0_FILL">
<path fill="#FFFFFF" stroke="none" d="
M 656.95 766.95
L 648.9 766.15
Q 647.3 766.15 646.3 767.25 645.25 768.35 645.2 769.8 645.15 771.3 646.5 772.5
L 649.1 773.9 654.55 776.1
Q 661.45 778.7 672.95 780.7 684.4 782.7 699.15 781.9 713.85 781.15 730.65 775.45 742.3 771.1 752.6 762.8 762.95 754.5 770.9 745.45 778.9 736.4 783.5 729.9
L 788.3 722.65 787.25 721.25 784.35 718.45
Q 780.55 714.95 775.95 710.9 771.3 706.9 768.6 704.6 766.5 707.95 761.25 715.5 756 723 748.5 732 741.05 741.05 732.35 748.9 723.6 756.75 714.6 760.8 704.7 764.9 693.85 766.4 683 767.85 673.25 767.75 663.55 767.6 656.95 766.95 Z"/>
</g>

<g id="Symbol_39_0_Layer0_0_FILL">
<path fill="#a6ce38" stroke="none" d="
M 1108.3 615.95
L 1107.7 616.25
Q 1107.78359375 616.2265625 1107.85 616.2 1108.1 616.1 1108.3 615.95 Z"/>

<path fill="#FFFFFF" stroke="none" d="
M 968.15 419.8
Q 957.2 415.35 942.8 413 928.45 410.65 913.1 411.6 897.8 412.5 884.05 417.8 870.35 423.15 860.8 434.05 848.05 449.35 843.05 462.95 838 476.6 838.35 487.95 838.7 499.3 841.9 507.9 845.15 516.5 848.9 521.75 854.25 529.4 867.5 535.5 880.7 541.65 900.15 546.95 919.6 552.3 943.55 557.55 967.5 562.8 994.25 568.75 1013.3 579.05 1029 589.9 1044.7 600.8 1057 609.8 1069.3 618.75 1078.2 623.2 1087.65 624.8 1097.7 620.7 1107.75 616.6 1116.7 608.5 1125.6 600.4 1131.65 590 1137.7 579.5 1141.85 567 1146 554.5 1146.15 542.7 1146.25 530.9 1140.25 522.5 1134.45 515.05 1121.45 504.75 1108.45 494.45 1091.25 483.1 1074.05 471.75 1055.65 461.1 1035.6 449.65 1018.4 441.5 1001.25 433.3 988.3 427.95 975.35 422.65 968.15 419.8
M 1096.05 533.85
Q 1100.8 529.45 1106.3 525.9 1111.8 522.4 1117.75 520.2 1120.65 519.6 1123.65 519.15 1126.7 518.75 1129.9 518.55 1124.95 520 1120.45 521.8 1116 523.55 1113.1 525.15 1108.25 527.85 1103.45 532 1098.65 536.2 1094.3 541.4 1092.95 542.8 1091.8 544.2 1090.65 545.65 1089.7 547.05 1089.5 547.35 1089.3 547.65 1089.15 547.95 1089.2 548.25 1086.75 551.45 1084.7 554.9 1082.6 558.3 1080.9 561.85 1077.95 567.9 1075.2 575.2 1072.5 582.45 1070.85 590.15 1069.25 597.8 1069.5 604.95 1069.35 606.7 1069.3 608.4 1069.25 610.05 1069.35 611.65 1068.45 605.9 1068.15 600.1 1067.85 594.3 1068.25 588.55 1068.3 588.3 1068.35 588.05 1068.4 587.85 1068.45 587.6 1069.5 581.95 1070.85 576.7 1072.2 571.55 1073.95 566.75
L 1074.05 566.5
Q 1076.3 561.15 1079.3 555.45 1082.25 549.75 1085.85 545.15
L 1086.25 544.65
Q 1086.55 544.3 1086.8 544 1086.9 543.7 1087.15 543.4
L 1087.45 543
Q 1091.25 538.2 1096.05 533.85 Z"/>

<path fill="#0081C6" stroke="none" d="
M 1106.3 525.9
Q 1100.8 529.45 1096.05 533.85 1091.25 538.2 1087.45 543
L 1087.15 543.4
Q 1086.9 543.7 1086.8 544 1086.55 544.3 1086.25 544.65
L 1085.85 545.15
Q 1082.25 549.75 1079.3 555.45 1076.3 561.15 1074.05 566.5
L 1073.95 566.75
Q 1072.2 571.55 1070.85 576.7 1069.5 581.95 1068.45 587.6 1068.4 587.85 1068.35 588.05 1068.3 588.3 1068.25 588.55 1067.85 594.3 1068.15 600.1 1068.45 605.9 1069.35 611.65 1069.25 610.05 1069.3 608.4 1069.35 606.7 1069.5 604.95 1069.25 597.8 1070.85 590.15 1072.5 582.45 1075.2 575.2 1077.95 567.9 1080.9 561.85 1082.6 558.3 1084.7 554.9 1086.75 551.45 1089.2 548.25 1089.15 547.95 1089.3 547.65 1089.5 547.35 1089.7 547.05 1090.65 545.65 1091.8 544.2 1092.95 542.8 1094.3 541.4 1098.65 536.2 1103.45 532 1108.25 527.85 1113.1 525.15 1116 523.55 1120.45 521.8 1124.95 520 1129.9 518.55 1126.7 518.75 1123.65 519.15 1120.65 519.6 1117.75 520.2 1111.8 522.4 1106.3 525.9 Z"/>
</g>

<g id="Symbol_40_0_Layer0_0_FILL">
<path fill="#0081C6" stroke="none" d="
M 1052.35 576.9
L 1050.25 581.9 1049.45 584.9
Q 1049.8 586.75 1052.5 587.95 1055.15 589.1 1058.55 589.7 1062 590.25 1064.6 590.35
L 1066.6 590.35 1067.45 590.2
Q 1071.4 580.9 1078.55 573.4 1085.7 565.9 1093 561.15 1100.35 556.4 1104.95 555.35 1100.6 554.35 1095.65 553.35 1090.65 552.35 1086.6 551.55
L 1081.05 550.45
Q 1068.75 556.45 1061.95 563.7 1055.1 570.95 1052.35 576.9 Z"/>
</g>

<g id="Symbol_41_0_Layer0_0_FILL">
<path fill="#0081C6" stroke="none" d="
M 1072.25 581.95
L 1071.1 581.75 1067.75 581.6
Q 1063.25 581.55 1057.85 581.55 1052.45 581.55 1049.65 581.6 1046 587.35 1043.2 598.95 1040.4 610.55 1039.2 624.05 1038.05 637.55 1039.2 649 1040.35 660.45 1044.55 665.9
L 1048.55 666.45
Q 1051.65 666.85 1055.3 667.25 1059 667.6 1061.65 667.9
L 1064.5 668.2 1062.8 660.7
Q 1061.3 653.35 1060.6 641 1059.95 628.65 1062.3 613.35 1064.7 598.05 1072.25 581.95 Z"/>
</g>

<g id="Symbol_42_0_Layer0_0_FILL">
<path fill="#FFFFFF" stroke="none" d="
M 1050.7 575
Q 1046.65 575.4 1043.2 574.85 1039.75 574.35 1036.8 573.35 1036.9 573.55 1037.05 573.75
L 1037.3 574.1
Q 1037.8 574.75 1038.25 575.35 1038.75 575.95 1039.2 576.55 1039.7 577.1 1040.2 577.65 1040.7 578.25 1041.15 578.75 1041.35 578.95 1041.5 579.1 1041.65 579.3 1041.8 579.45 1043.3 581 1044.9 582.45 1046.5 583.9 1048.25 585.3 1048.85 585.7 1049.45 586.05 1050.05 586.45 1050.65 586.8 1051.15 586.8 1051.6 586.85 1052.1 586.85 1052.6 586.9
L 1052.75 586.9
Q 1057.75 586.75 1062.55 585.6 1067.35 584.5 1071.7 582.6 1071.8 582.55 1071.95 582.5
L 1072.2 582.4
Q 1079.8 578 1084.9 570.9 1090.05 563.8 1092.2 554.9 1091.25 552.7 1090.25 550.6 1089.2 548.5 1088.1 546.45 1088 546.25 1087.9 546.1 1087.8 545.95 1087.7 545.8 1087.3 545.05 1086.9 544.3 1086.45 543.5 1086.05 542.75
L 1085.2 541.25
Q 1084.25 550.75 1080.15 557.35 1076.05 564 1070 568.1 1068.9 568.65 1067.85 569.25 1066.75 569.9 1065.85 570.55 1062.2 572.4 1058.35 573.5 1054.5 574.65 1050.7 575
M 1040.35 557.5
Q 1043.25 551.95 1047.9 547.7 1052.55 543.45 1058.35 540.9 1064.15 538.35 1070.35 537.8 1071.7 537.7 1073.05 537.55 1074.4 537.4 1075.65 537.1 1076.15 537 1077.1 536.95
L 1078.3 536.75 1078.35 536.75
Q 1078.35 536.7 1078.4 536.7 1078.3 536.5 1078.05 536.35 1077.8 536.2 1077.7 536.15 1077.15 535.95 1076.6 535.8 1076.05 535.65 1075.45 535.4 1074.6 535.05 1073.3 534.95 1071.95 534.8 1071 534.85
L 1070.9 534.85
Q 1070.85 534.85 1070.8 534.85 1070.65 534.85 1070.5 534.9
L 1070.35 534.9
Q 1064.7 535.4 1059.25 537.55 1053.8 539.65 1049.15 543.25 1044.5 546.85 1041.35 551.7 1038.95 555.5 1037.65 559.95 1036.35 564.4 1036.7 568.9
L 1036.9 569.7 1037.1 569.75
Q 1037.35 569.45 1037.45 568.65 1037.75 565.6 1038.35 562.95 1038.95 560.25 1040.35 557.5
M 1061.3 550.55
Q 1061.15 550.35 1060.85 550.25 1060.6 550.2 1060.25 550.2 1059.85 550.25 1059.45 550.45 1059 550.6 1058.65 550.85 1058.3 551.1 1058 551.45 1057.75 551.75 1057.55 552.05 1057.4 552.4 1057.4 552.7 1057.4 552.95 1057.55 553.15 1057.75 553.35 1058 553.45 1058.3 553.55 1058.65 553.5 1059 553.45 1059.45 553.3 1059.85 553.1 1060.25 552.85 1060.6 552.6 1060.85 552.3 1061.15 551.95 1061.3 551.65 1061.45 551.35 1061.45 551.05 1061.45 550.75 1061.3 550.55 Z"/>

<path fill="#0081C6" stroke="none" d="
M 1041.35 549.15
Q 1037.95 553.55 1036.2 558.3 1034.4 563.05 1034.7 567.6 1034.75 568.15 1034.8 568.65 1034.85 569.15 1034.95 569.6 1035.15 570.25 1035.4 570.8 1035.6 571.4 1035.8 571.95
L 1035.85 572.05
Q 1036.1 572.4 1036.35 572.7 1036.55 573.05 1036.8 573.35 1039.75 574.35 1043.2 574.85 1046.65 575.4 1050.7 575 1054.5 574.65 1058.35 573.5 1062.2 572.4 1065.85 570.55 1066.75 569.9 1067.85 569.25 1068.9 568.65 1070 568.1 1076.05 564 1080.15 557.35 1084.25 550.75 1085.2 541.25
L 1084.4 539.9
Q 1083.5 538.8 1082.55 537.65 1081.65 536.5 1080.65 535.3
L 1080.6 535.2
Q 1080.2 535 1079.8 534.8 1079.35 534.6 1078.95 534.45 1075.05 532.85 1070.15 533.05 1065.25 533.25 1059.7 535.4 1054.15 537.6 1049.45 541.15 1044.8 544.75 1041.35 549.15
M 1060.85 550.25
Q 1061.15 550.35 1061.3 550.55 1061.45 550.75 1061.45 551.05 1061.45 551.35 1061.3 551.65 1061.15 551.95 1060.85 552.3 1060.6 552.6 1060.25 552.85 1059.85 553.1 1059.45 553.3 1059 553.45 1058.65 553.5 1058.3 553.55 1058 553.45 1057.75 553.35 1057.55 553.15 1057.4 552.95 1057.4 552.7 1057.4 552.4 1057.55 552.05 1057.75 551.75 1058 551.45 1058.3 551.1 1058.65 550.85 1059 550.6 1059.45 550.45 1059.85 550.25 1060.25 550.2 1060.6 550.2 1060.85 550.25
M 1047.9 547.7
Q 1043.25 551.95 1040.35 557.5 1038.95 560.25 1038.35 562.95 1037.75 565.6 1037.45 568.65 1037.35 569.45 1037.1 569.75
L 1036.9 569.7 1036.7 568.9
Q 1036.35 564.4 1037.65 559.95 1038.95 555.5 1041.35 551.7 1044.5 546.85 1049.15 543.25 1053.8 539.65 1059.25 537.55 1064.7 535.4 1070.35 534.9
L 1070.5 534.9
Q 1070.65 534.85 1070.8 534.85 1070.85 534.85 1070.9 534.85
L 1071 534.85
Q 1071.95 534.8 1073.3 534.95 1074.6 535.05 1075.45 535.4 1076.05 535.65 1076.6 535.8 1077.15 535.95 1077.7 536.15 1077.8 536.2 1078.05 536.35 1078.3 536.5 1078.4 536.7 1078.35 536.7 1078.35 536.75
L 1078.3 536.75 1077.1 536.95
Q 1076.15 537 1075.65 537.1 1074.4 537.4 1073.05 537.55 1071.7 537.7 1070.35 537.8 1064.15 538.35 1058.35 540.9 1052.55 543.45 1047.9 547.7 Z"/>
</g>

<g id="Symbol_43_0_Layer0_0_FILL">
<path fill="#FFFFFF" stroke="none" d="
M 1078.05 542.05
Q 1074.9 542.45 1071.6 543.75 1068.25 545 1065.8 546.7 1063.3 548.45 1062.65 550.15 1066.4 549.7 1069.65 548.25 1072.85 546.85 1075.05 545.1 1077.3 543.35 1078.05 542.05 Z"/>
</g>

<g id="Symbol_44_0_Layer0_0_FILL">
<path fill="#FFFFFF" stroke="none" d="
M 1050.75 558.05
Q 1047.85 560.75 1045.7 563.75 1043.55 566.75 1043.25 568.25 1046.15 566.95 1049.2 564.45 1052.2 561.9 1054.2 559.25 1056.25 556.6 1056.2 554.8 1053.7 555.4 1050.75 558.05 Z"/>
</g>

<g id="Symbol_29_0_Layer0_0_FILL">
<path fill="#FFFFFF" stroke="none" d="
M 927.6 155.25
Q 919.9 157.4 912.5 160.95 905.1 164.5 899.6 168.2 894.1 171.9 892.1 174.45 890.65 176.9 889.1 184 887.55 191.1 886.2 199.45 884.9 207.8 884.1 213.85
L 883.25 220.15 886.85 220.55
Q 890.25 220.9 893.75 221.15
L 896.55 221.25 897.9 221.15
Q 909.4 211.7 918.1 202.95 926.8 194.25 932.05 187.8
L 936.35 182.3 938.55 178.7
Q 939.75 175.9 940.75 170.55 941.8 165.2 942.15 160.2
L 942.2 156.1 941.7 153.65
Q 935.3 153.1 927.6 155.25 Z"/>
</g>

<g id="Symbol_31_0_Layer0_0_FILL">
<path fill="#0081C6" stroke="none" d="
M 946.55 538.8
Q 946.35 541 946.2 543.35 946 545.65 945.8 548.05 944.9 559.8 943.75 573.1 942.65 586.35 941.4 600.75 940.2 615.1 939.05 630 937.95 643.8 936.7 657.2 935.45 670.65 934.05 683.15 932.6 695.7 931 706.8 929.5 717.5 927.8 726.45 926.15 735.4 924.35 742.15 924.25 742.6 924.1 743.1 924 743.55 923.85 744
L 923.75 744.4
Q 923.4 744.95 922.75 745.7 922.05 746.45 921 747.3 918.25 749.65 912.9 752.3 907.55 754.95 899.4 757.1 891.2 759.25 880 760 878.75 760.1 877.55 760.1 876.35 760.15 875.15 760.15 864.35 760.1 855.55 757.95 846.8 755.75 840.55 752.85 834.25 749.95 831.1 747.65 829.8 746.75 829.05 746.1
L 828.5 745.55 828.25 745.15
Q 827.95 744.2 827.65 743.25
L 827.05 741.4
Q 816.9 709.7 811.1 677.3 805.3 644.95 802.8 614.05 800.25 583.2 800.1 556.15 799.95 529.05 801.15 508 799.3 522.15 798.55 536 797.85 549.85 797.9 563.8 797.9 577.8 798.3 592.45 798.4 595.7 798.4 598.95 798.4 602.2 798.4 605.45 800.35 630.65 804.2 655.5 808.1 680.35 813.75 704.05 815.95 713.3 818.45 722.55 820.9 731.8 823.9 740.95 824.7 743.35 825.5 745.7 826.35 748.1 827.25 750.45 828.75 751.75 830.4 752.85 832.05 754 833.75 755 837.35 757.1 841.25 758.75 845.1 760.4 849.05 761.7
L 850.05 762.05
Q 850.85 762.3 851.55 762.35 852.5 762.6 853.55 762.9
L 854.9 763.25
Q 864.7 765.65 875 765.45 885.3 765.2 895.3 762.5 901.3 761.35 907.15 759.45 913 757.55 918.1 754.95 923.15 752.4 926.75 749.15 928.1 747.9 928.55 746.65 928.95 745.45 928.65 744.4 930.45 739.95 931.65 733.8 932.85 727.65 933.65 721.75 934.45 715.85 935.05 712.15 937.7 695.9 939 679.5 940.35 663.15 941.4 646.7 941.65 643.25 941.85 639.85 942.05 636.4 942.2 632.95 943.35 619.2 944.25 605.45 945.2 591.7 945.9 577.95 946.3 571.9 946.85 565.2 947.4 558.55 947.1 552.4 947.3 548.35 947.15 544.75 947.05 541.15 946.55 538.8 Z"/>

<path fill="#FFFFFF" stroke="none" d="
M 940.7 479.85
Q 934.75 469.6 924.95 459.6 915.15 449.65 902.45 442.75 889.75 435.85 875.15 434.65 859.6 433.7 844.75 436.4 829.9 439.05 819.3 445.1 808.75 451.1 806.15 460.2 805.45 462.9 804.55 469.4 803.65 475.9 802.75 485.65 801.85 495.4 801.15 508 799.95 529.05 800.1 556.15 800.25 583.2 802.8 614.05 805.3 644.95 811.1 677.3 816.9 709.7 827.05 741.4
L 827.65 743.25
Q 827.95 744.2 828.25 745.15
L 828.5 745.55 829.05 746.1
Q 829.8 746.75 831.1 747.65 834.25 749.95 840.55 752.85 846.8 755.75 855.55 757.95 864.35 760.1 875.15 760.15 876.35 760.15 877.55 760.1 878.75 760.1 880 760 891.2 759.25 899.4 757.1 907.55 754.95 912.9 752.3 918.25 749.65 921 747.3 922.05 746.45 922.75 745.7 923.4 744.95 923.75 744.4
L 923.85 744
Q 924 743.55 924.1 743.1 924.25 742.6 924.35 742.15 926.15 735.4 927.8 726.45 929.5 717.5 931 706.8 932.6 695.7 934.05 683.15 935.45 670.65 936.7 657.2 937.95 643.8 939.05 630 940.2 615.1 941.4 600.75 942.65 586.35 943.75 573.1 944.9 559.8 945.8 548.05 946 545.65 946.2 543.35 946.35 541 946.55 538.8 947.6 524 948 513.55 948.4 503.05 947.75 498.05 946.65 490.15 940.7 479.85 Z"/>
</g>

<g id="Symbol_48_0_Layer0_0_FILL">
<path fill="#FFFFFF" stroke="none" d="
M 743.95 723.9
L 747.05 749.9
Q 750 774.65 753.9 807.15 757.8 839.7 760.8 864.5
L 763.95 890.65
Q 767.9 898 784.65 903.3 801.4 908.65 822.65 910.8 843.95 913 861.55 910.95 879.2 908.9 884.9 901.55
L 886.85 876.25
Q 888.6 852.35 890.95 820.9 893.25 789.45 895 765.5
L 897 740.15
Q 887.15 730.2 868.45 724 849.8 717.75 827.05 715.5 804.35 713.25 782.35 715.25 760.4 717.3 743.95 723.9 Z"/>
</g>

<g id="Symbol_32_0_Layer0_0_FILL">
<path fill="#0081C6" stroke="none" d="
M 943.65 840.8
Q 942.6 838.75 942.2 837.35 941.45 834.6 941.05 831.85 940.7 829.05 940.15 826.35
L 939.65 824.85 939.1 824.45
Q 938.5 824.55 938.05 825.8 937.65 827 937.65 828.25 937.8 831.4 938.75 835.75 939.7 840.1 941.85 843.7 943.95 847.3 947.65 848.15 951.1 848.6 953.45 845.55 955.8 842.55 957.1 838.5 958.4 834.45 958.75 831.75 958.9 830.75 958.95 828.85 959 826.95 958.7 825.25 958.4 823.5 957.45 822.95
L 957.25 822.9
Q 957.1 822.9 957.05 822.95 956.7 823.3 956.6 823.8
L 956.45 824.5
Q 956.2 826.4 956.15 828.4 956.15 830.4 955.8 832.35 955.5 834.05 954.65 836.85 953.8 839.65 952.5 842.15 951.2 844.6 949.5 845.25 947.75 845.7 946.2 844.3 944.7 842.85 943.65 840.8 Z"/>
</g>

<g id="Symbol_49_0_Layer0_0_FILL">
<path fill="#0081C6" stroke="none" d="
M 1094.6 770.5
L 1093.75 772.25
Q 1089.15 782.8 1083.9 793.25 1078.6 803.7 1073.65 814.1 1068.95 824.05 1064 833.9 1059.05 843.75 1054 853.6 1049.5 863.1 1045.45 872 1041.35 880.9 1037.85 888.85 1037.3 889.1 1036.75 889.35 1036.2 889.6 1035.65 889.85 1034.95 891.3 1034.25 892.8 1033.5 894.25 1032.8 895.7 1032.6 896.05 1032.35 896.65 1032.05 897.25 1032.4 897.65 1032.8 897.8 1033.15 897.4 1033.45 897 1033.6 896.65 1034 896.1 1034.4 895.4
L 1034.75 894.85 1034.9 894.55
Q 1042.9 881.95 1050.2 868.7 1057.5 855.4 1064.4 841.9 1071.3 828.4 1078.1 815.05 1082.95 805.8 1087.75 795.95 1092.55 786.1 1096.2 776.35 1096.95 774.25 1097.5 772.1 1098.05 770 1098.9 767.95 1099.05 767.7 1099.35 767.25 1099.65 766.75 1099.3 766.4 1097.8 766.3 1096.6 767.65 1095.35 769.05 1094.6 770.5 Z"/>

<path fill="#FFFFFF" stroke="none" d="
M 957.95 682.1
Q 932.65 675.3 920.5 673.8 922 693.3 923.7 726 925.4 758.7 926.95 792.75 928.5 826.75 929.55 850.25
L 930.7 874.8
Q 939 882.1 950.8 887.7 962.55 893.3 976.65 896.05 990.7 898.75 1005.75 897.5 1020.85 896.25 1035.65 889.85 1036.2 889.6 1036.75 889.35 1037.3 889.1 1037.85 888.85 1041.35 880.9 1045.45 872 1049.5 863.1 1054 853.6 1065 830.35 1076.75 806.45 1088.5 782.55 1098.75 762.2 1108.95 741.9 1115.35 729.4
L 1122 716.4
Q 1102.8 716.9 1073.95 711.1 1045.1 705.3 1014.2 697.1 983.3 688.85 957.95 682.1 Z"/>
</g>

<g id="Symbol_33_0_Layer0_0_FILL">
<path fill="#0081C6" stroke="none" d="
M 943.35 838.65
Q 942.15 836.05 941.4 832.95 940.6 829.9 939.6 827.1
L 939.2 826.4 938.9 826.25
Q 938.6 826.4 938.45 827.1 938.3 827.8 938.3 828.5 938.5 831.6 939.5 835.45 940.5 839.25 942.25 842.4 943.95 845.55 946.3 846.7 950.3 848.25 953.15 845.6 956 842.95 957.6 838.15 959.2 833.4 959.35 828.65 959.35 827.95 959.35 826.95 959.3 825.95 959.1 825.15 958.85 824.4 958.4 824.45 958.25 824.75 958.1 825.1
L 957.95 825.6
Q 957.35 827.6 957.1 829.8 956.8 831.95 956.3 834.1 955.15 838.55 953 841.25 950.85 843.95 948.25 843.6 945.7 843.25 943.35 838.65 Z"/>
</g>

<g id="Symbol_91_0_Layer0_0_FILL">
<path fill="#0081C6" stroke="none" d="
M 1061.6 536.35
L 1061.6 537.6
Q 1061.7 538.5 1061.85 539.5 1062.05 540.45 1062.25 541.4 1068.7 555 1073.25 569 1077.75 583 1079.45 596.9 1079.2 611.1 1076.7 625 1074.2 638.9 1069.95 652.15 1065.7 665.45 1060.3 677.75 1059.65 680.45 1059.05 683.2 1058.45 685.9 1057.65 688.5 1057.5 688.9 1057.3 689.3 1057.1 689.7 1057.4 690.1 1057.65 690.5 1058 690.3 1058.3 690.15 1058.5 689.9 1058.85 689.3 1059.3 688.7
L 1059.85 687.85
Q 1064.05 681.35 1067.2 674.4 1070.3 667.45 1072.95 660.3 1075.6 653.15 1078.25 646 1081.8 636.55 1083.45 626.2 1085.1 615.85 1085.7 605.9 1086.45 594 1084.45 581.65 1082.4 569.25 1077.5 557.75 1072.55 546.25 1064.8 537.05 1064.5 536.6 1063.65 535.8 1062.8 534.95 1061.8 534.85 1061.6 535.45 1061.6 536.35
M 837.35 782
L 838.35 782.4
Q 841.2 783.5 844.25 784.55 847.35 785.55 850.65 786.45 877.3 795.65 904.1 796.3 930.9 796.9 958.8 787.95 979.2 781.5 997 772.1 1014.8 762.75 1029.65 749.55 1044.55 736.35 1056.05 718.4 1056.3 718.05 1056.75 717.35 1057.2 716.65 1057 715.95 1056.3 715.5 1055.35 716.4 1054.4 717.3 1053.65 718.45
L 1052.7 719.9
Q 1047.35 726.25 1041.7 732 1036.05 737.75 1030.1 742.95 1032.65 740.35 1035.1 737.65 1037.6 734.95 1039.95 732.15
L 1042.05 729.7
Q 1043.6 727.95 1045 726.2
L 1046.05 724.75 1046.4 723.95
Q 1046.35 723.75 1046.3 723.45 1046.2 723.15 1045.85 723.05 1044.8 723.25 1043.8 724.15
L 1042.95 724.9 1042.5 725.4
Q 1037.15 729.9 1031.7 734.25 1026.3 738.55 1020.75 742.7 1007.5 757.4 990.7 767.05 973.95 776.65 954.75 781.75 935.55 786.85 915.1 788 912.85 788.15 910.55 788.25 908.3 788.35 906 788.35 892.85 788.6 879.65 787.5 866.5 786.35 853.65 784 849 783.15 844.4 782.15 839.8 781.15 835.3 780.05 834.75 779.9 834.25 779.75 833.75 779.65 833.2 779.5 833.6 780.2 834.45 780.65 835.3 781.1 836 781.4 836.6 781.75 837.35 782
M 1019.75 473.55
Q 1025.65 481.2 1032.2 490.5 1038.75 499.8 1045.3 510.4 1045.75 508.25 1046.9 506.55 1048.05 504.85 1049.65 503.7 1045.25 497.7 1040.5 492.1 1035.75 486.55 1030.8 481.35 1030.7 481.05 1030.45 480.8 1030.15 480.5 1029.85 480.4
L 1028.65 479.15
Q 1028.05 478.5 1027.4 477.9 1026.65 477.1 1025.3 475.8 1024 474.5 1022.5 473.7 1021 472.9 1019.75 473.55 Z"/>

<path fill="#FFFFFF" stroke="none" d="
M 804.55 328.2
L 798.15 325.5
Q 785.85 346.3 770.5 362.5 755.15 378.7 740.1 392.1 725.1 405.55 713.7 418.1 702.35 430.7 698 444.25 695.45 453.9 696.45 474.25 697.45 494.65 700.7 518.75 703.9 542.8 708.05 563.5 712.15 584.2 715.75 594.45 719.3 603.85 722.7 612.15 726.1 620.45 728.6 631.2 731.1 641.95 731.9 658.65 732.65 675.4 731 701.6 730.4 713.25 738 724.65 745.6 736.1 759.65 746.45 773.7 756.8 792.5 765.3 811.35 773.75 833.2 779.5 833.75 779.65 834.25 779.75 834.75 779.9 835.3 780.05 839.8 781.15 844.4 782.15 849 783.15 853.65 784 866.5 786.35 879.65 787.5 892.85 788.6 906 788.35 908.3 788.35 910.55 788.25 912.85 788.15 915.1 788 935.55 786.85 954.75 781.75 973.95 776.65 990.7 767.05 1007.5 757.4 1020.75 742.7 1022.3 740.95 1023.8 739.1 1025.3 737.25 1026.75 735.35 1032.3 727.95 1038.1 718.95 1043.95 709.95 1049.6 699.6 1055.25 689.25 1060.3 677.75 1065.7 665.45 1069.95 652.15 1074.2 638.9 1076.7 625 1079.2 611.1 1079.45 596.9 1077.75 583 1073.25 569 1068.7 555 1062.25 541.4 1058.35 533.3 1054.1 525.5 1049.8 517.75 1045.3 510.4 1038.75 499.8 1032.2 490.5 1025.65 481.2 1019.75 473.55 1013.9 466 1009.3 460.45 1004.65 454.95 1001.8 451.8
L 998.45 448.25 969.45 429.25
Q 942.6 411.85 906.25 388.85 869.9 365.85 839.1 347.45
L 813.45 332.8 804.55 328.2 Z"/>
</g>

<g id="Symbol_46_0_Layer0_0_FILL">
<path fill="#0081C6" stroke="none" d="
M 1180.85 318
Q 1180.55 316.65 1180.3 315.3 1180 313.9 1179.7 312.45
L 1179.7 312.85 1179.65 313.25
Q 1179.15 341.65 1172.05 367 1164.95 392.4 1151.75 413.1 1138.6 433.8 1119.95 448.05 1108.65 456.75 1091.95 463.05 1075.25 469.35 1053.25 472.6 1054.15 473.05 1055.35 473.2
L 1057.05 473.35
Q 1060.65 473.6 1065 473.3 1069.35 472.95 1073.7 472.3 1078.05 471.65 1081.7 470.85
L 1082.25 470.65
Q 1082.7 470.45 1083.15 470.4 1084.1 470.2 1085.25 470.05
L 1086.65 469.85
Q 1094.65 468.05 1103.2 464.05 1111.7 460.05 1119.6 454.8 1127.55 449.55 1133.8 444 1151.35 428.55 1163.65 408 1175.9 387.45 1180.75 364.35 1185.6 341.25 1180.85 318 Z"/>

<path fill="#FFFFFF" stroke="none" d="
M 1122.8 255.7
Q 1110 273.4 1094.75 285.3 1079.5 297.2 1063.95 294.65 1055.65 292.65 1050.65 285.8 1045.7 279 1043.2 270.45 1040.75 261.95 1039.95 254.7 1039.2 247.5 1039.2 244.7 1039.1 241.9 1037.25 240.05 1035.45 238.2 1032.75 237.9 1030 237.6 1027.25 239.6 1022.9 242.9 1016.85 247 1010.75 251.05 1003.75 253.85 996.8 256.6 989.75 256.05 986.3 255.55 980.9 251.8 975.45 248.05 969 242.55 962.55 237.1 956.1 231.5 949.65 225.85 944.15 221.65 939.8 218.15 928.8 215.2 917.8 212.2 901.4 212.95 884.95 213.7 864.2 221.35 849.8 227.15 840.45 234.3 831.05 241.45 826.15 247.25
L 820.15 254.8
Q 806.25 274.4 801.9 297.05 797.55 319.65 798.75 340.1 799.9 360.5 802.65 373.55
L 805.7 387 808.35 392.55
Q 810.7 397.6 815 404.9 819.35 412.15 825.75 419.3 832.2 426.4 840.75 431.1 865.1 443.7 888.65 452.55 912.2 461.35 931.8 466.4 951.4 471.45 963.95 472.8 990.1 475.65 1012.4 475.5 1034.7 475.35 1053.25 472.6 1075.25 469.35 1091.95 463.05 1108.65 456.75 1119.95 448.05 1138.6 433.8 1151.75 413.1 1164.95 392.4 1172.05 367 1179.15 341.65 1179.65 313.25
L 1179.7 312.85 1179.7 312.45
Q 1180.05 278.8 1178 256.6 1175.9 234.4 1173.45 222.5
L 1170.05 207.8
Q 1168.55 202.4 1165.05 200.7 1161.55 199 1158.1 200.15 1154.65 201.3 1153.2 204.55
L 1143.75 223.05
Q 1135.55 238 1122.8 255.7 Z"/>
</g>

<g id="Symbol_47_0_Layer0_0_FILL">
<path fill="#0081C6" stroke="none" d="
M 937.85 340.15
Q 937.55 343.45 938.2 346.35 938.85 349.3 940.3 351.55 941.75 353.85 943.85 355.2 945.95 356.6 948.5 356.8 951.05 356.95 953.35 355.9 955.7 354.8 957.6 352.75 959.5 350.7 960.7 347.95 961.95 345.15 962.3 341.85 962.6 338.55 961.95 335.65 961.3 332.75 959.85 330.45 958.35 328.2 956.3 326.8 954.2 325.45 951.65 325.25 949.1 325.1 946.75 326.15 944.45 327.2 942.55 329.25 940.65 331.3 939.45 334.1 938.2 336.85 937.85 340.15 Z"/>
</g>

<g id="Symbol_34_0_Layer0_0_FILL">
<path fill="#FFFFFF" stroke="none" d="
M 986.25 295.45
Q 983.9 288.7 978.35 283.8 972.85 278.85 963.05 277.05 953.1 275.55 946.15 278.6 939.15 281.7 934.5 287.45 929.85 293.25 927 299.8 924.15 306.3 922.45 311.7 931.35 312.7 942.55 314.6 953.75 316.45 965.55 318.7 977.3 320.9 987.9 323.05 988.85 316.6 988.7 309.4 988.55 302.15 986.25 295.45 Z"/>
</g>

<g id="Symbol_81_0_Layer0_0_FILL">
<path fill="#a6ce38" stroke="none" d="
M 945.5 156.6
Q 944.05 159.35 943.3 160.85
L 942.6 162.35 943.05 177.75
Q 943.6 192.75 946.1 217.45 948.6 242.1 954.35 271.65 955.15 275.5 956 279.4 956.85 283.35 957.8 287.25 959.9 296.25 962.4 305.25 964.9 314.25 967.85 323.15 967.7 322.15 967.6 321.1 967.5 320.05 967.4 319.05 960.35 297.65 956.7 274.95 953.05 252.25 949.55 230.3 946.4 211.9 945.35 193.4 944.3 174.95 945.5 156.6
M 1199.7 179.2
Q 1194.85 169.65 1189.45 160.1 1183.5 150.3 1162.25 135.1 1140.95 119.85 1112.5 105.85 1084.05 91.8 1056.65 85.6 1029.25 79.4 1011.1 87.7 996 95.55 984.2 106.4 972.35 117.2 963.85 128.3 962.6 137.5 962.3 146.7 962.05 155.9 963.85 165.3 964.2 167.05 964.55 168.85 964.95 170.65 965.2 172.45 965.25 172.7 965.35 173.3 965.45 173.9 965.15 174.45 965.3 174.65 965.2 174.95 965.15 175.2 965 175.4 963.15 174.9 961.8 172.6
L 960.35 170
Q 959.4 167.85 958.65 165.5 957.95 163.15 957.45 160.65 956.75 172.5 956.95 184.45 957.2 196.45 958.55 208.8 960.8 230.2 963.5 252.05 966.2 273.95 970.45 295.4 970.55 295.2 970.65 295.05 970.75 294.9 970.9 294.7 972.1 292.75 973.2 292.5 974.3 292.2 975.9 293.65 976.6 294.7 977.3 295.95
L 978.15 297.55
Q 982.95 307 984.75 317.3 986.6 327.65 987.55 338 988.55 337.6 989.45 337.2
L 990.65 336.75
Q 998.55 335.15 1003.15 339.45 1007.7 343.75 1010.75 349.95 1013.8 356.2 1017 360.5 1018.4 362.1 1019.85 361.9 1021.25 361.65 1023.65 361.95 1024 361.5 1024.35 361
L 1025.05 360
Q 1053.45 321.2 1083.55 282.75 1113.65 244.3 1144.35 207.75 1159.9 189.9 1176.5 188.95 1193.1 187.95 1208.8 198.45 1204.55 188.8 1199.7 179.2
M 1208.55 282.05
Q 1208.95 283.85 1212 284.75 1211.85 283.15 1211.5 281.5 1211.1 279.85 1210.55 278.3 1208.15 280.25 1208.55 282.05 Z"/>

<path fill="#0081C6" stroke="none" d="
M 979.25 374.05
Q 977.5 367.2 976.25 360.25 969.95 342.7 965.45 324.55 961 306.4 957.95 288.35 957.9 288.05 957.85 287.8 957.85 287.55 957.8 287.25 956.85 283.35 956 279.4 955.15 275.5 954.35 271.65 952.5 264.45 950.15 257.45 947.75 250.45 944.9 243.5
L 944.4 241.85
Q 943.95 240.55 943.5 239.5 943.45 239.05 943.05 238.85 942.7 238.65 942.35 239.25 942.2 239.8 942.35 240.65 942.55 241.5 942.65 242.1 943.1 247.15 943.25 252.1 943.4 257.1 944.15 262.15 946.6 277.65 949.15 293.65 951.75 309.7 955.25 324.95 961.1 349.55 970.6 372.45 980.05 395.4 993.3 416.1 994.75 414.1 996.2 412.15 997.65 410.2 999.05 408.35 998 406.65 997 404.9 995.95 403.15 994.95 401.4 994.6 401.9 994.25 402.4 993.9 402.85 993.55 403.35 991 399.35 988.65 395.3 986.3 391.3 984.2 387.25 980.95 380.9 979.25 374.05
M 1220.8 208.85
Q 1220.6 208.3 1220.55 207.95 1219.4 209.7 1218.3 211.4 1217.2 213.15 1216.1 214.85 1215.95 215.25 1215.8 215.65 1215.65 216.1 1215.45 216.5
L 1215.85 217.5
Q 1216.05 218 1216.3 218.45 1217.8 217.05 1219.5 215.9 1221.2 214.75 1223.15 213.9 1222.75 213.1 1222.2 211.95 1221.65 210.75 1221.2 209.75 1220.95 209.35 1220.8 208.85 Z"/>

<path fill="#a6ce38" stroke="none" d="
M 977.3 295.95
Q 976.6 294.7 975.9 293.65 974.3 292.2 973.2 292.5 972.1 292.75 970.9 294.7 970.75 294.9 970.65 295.05 970.55 295.2 970.45 295.4 966.2 273.95 963.5 252.05 960.8 230.2 958.55 208.8 957.2 196.45 956.95 184.45 956.75 172.5 957.45 160.65 957.95 163.15 958.65 165.5 959.4 167.85 960.35 170
L 961.8 172.6
Q 963.15 174.9 965 175.4 965.15 175.2 965.2 174.95 965.3 174.65 965.15 174.45 965.45 173.9 965.35 173.3 965.25 172.7 965.2 172.45 964.95 170.65 964.55 168.85 964.2 167.05 963.85 165.3 962.05 155.9 962.3 146.7 962.6 137.5 963.85 128.3 964.9 120.8 966 113.25 967.1 105.75 967.7 98.1 967.85 97.5 967.95 96.05 968.1 94.55 967.4 93.55 966.5 93.45 966.1 94.35 965.75 95.2 965.6 95.95 964.9 98.05 964.25 100.3 963.6 102.55 962.9 105 963.2 102.2 963.6 99.45 963.95 96.65 964.45 93.95 964.65 93.3 965.05 91.75 965.4 90.2 964.75 89.15 963.7 88.85 963.05 89.9 962.45 91 962.05 91.75 957.65 99.25 954.4 107.5 951.1 115.8 949.5 124.4 948 132.4 947 140.45 946 148.5 945.5 156.6 944.3 174.95 945.35 193.4 946.4 211.9 949.55 230.3 953.05 252.25 956.7 274.95 960.35 297.65 967.4 319.05 967.5 320.05 967.6 321.1 967.7 322.15 967.85 323.15 968.65 329.25 969.9 334.95 971.2 340.65 972.65 345.2 973.8 348.8 974.65 352.6 975.5 356.4 976.25 360.25 977.5 367.2 979.25 374.05 980.95 380.9 984.2 387.25 986.3 391.3 988.65 395.3 991 399.35 993.55 403.35 993.9 402.85 994.25 402.4 994.6 401.9 994.95 401.4
L 996.9 398.75
Q 997.85 397.4 998.85 396.05 999.65 394.95 1000.45 393.8 1001.25 392.7 1002.05 391.6 1005.3 387.15 1008.55 382.65 1011.8 378.15 1015.1 373.65 1017.2 370.75 1019.35 367.85 1021.5 364.9 1023.65 361.95 1021.25 361.65 1019.85 361.9 1018.4 362.1 1017 360.5 1013.8 356.2 1010.75 349.95 1007.7 343.75 1003.15 339.45 998.55 335.15 990.65 336.75
L 989.45 337.2
Q 988.55 337.6 987.55 338 986.6 327.65 984.75 317.3 982.95 307 978.15 297.55
L 977.3 295.95 Z"/>
</g>

<g id="Symbol_16_0_Layer0_0_FILL">
<path fill="#a6ce38" stroke="none" d="
M 891.5 633.65
L 891.05 633.65 907.65 759.35 919 845 930.8 758.65 946.5 643.85 947.85 633.85 891.5 633.65 Z"/>

<path fill="#0081C6" stroke="none" d="
M 891.05 633.65
L 891.5 633.65
Q 890.95 631.45 890.25 629.3 889.6 627.15 888.8 625.1
L 888.45 624.2
Q 888.15 623.5 887.75 622.95 887.5 622.5 887.45 622.75 887.45 623.05 887.4 623.7 887.35 626 887.9 628.45 888.45 630.9 889 633.15 894 655.4 895.95 677.8 897.95 700.2 900.25 722.5 901.5 733.9 902.55 745.45 903.55 757.05 905.6 768.4
L 905.85 770.25
Q 906.15 771.75 906.75 772.15 907.35 772.15 907.35 771.6 907.35 771.1 907.3 770.65 907.6 768 907.7 765.15 907.75 762.3 907.65 759.35
L 891.05 633.65
M 951.9 628
Q 951.9 627.5 951.75 626.25 951.65 625.05 950.9 624.35 949.5 624.3 949.5 625.85 949.45 627.4 949.4 628.6 948.75 632.45 948 636.25 947.3 640.05 946.5 643.85
L 930.8 758.65
Q 933.35 750.25 934.7 741.9 936 733.6 937.35 724.85 940 708.65 942.65 692.5 945.35 676.35 948.05 660.15 949.4 652.85 950.95 644 952.5 635.15 951.9 628 Z"/>
</g>

<g id="Symbol_64_0_Layer0_0_FILL">
<path fill="#a6ce38" stroke="none" d="
M 1015.35 632
L 973.55 634.3 989 819.4 1015.35 632 Z"/>
</g>

<g id="Symbol_83_0_Layer0_0_FILL">
<path fill="#a6ce38" stroke="none" d="
M 951.9 319.5
Q 953.8 315.25 955.7 310.8
L 956.75 308.3
Q 957.55 306.1 956.4 304.45 954.8 302.95 953.5 303.9 952.25 304.85 951.25 306.7 946.55 314.4 941.75 322.1 936.95 329.8 932.2 337.55 931.15 339.2 930.15 340.85 929.15 342.5 928.15 344.15 925.55 348.45 922.95 352.75 920.35 357.05 917.8 361.35 918.4 362.25 918.95 363.15 919.5 364 920 364.85 920.3 365.35 920.55 365.85 920.8 366.35 921.05 366.85 921.65 368 922.2 369.15 922.7 370.3 923.1 371.45 923.3 371.9 923.45 372.3 923.6 372.75 923.7 373.2 924.1 374.55 924.4 375.85 924.65 377.15 924.8 378.5 927.6 373.9 930.25 369.3 932.85 364.7 935.25 360.05 935.4 359.7 935.6 359.4
L 935.95 358.7
Q 937.4 355.85 940.1 350.1 942.8 344.35 945 338.5 945.95 336.55 946.7 334.65 947.45 332.8 947.95 331.05 948.1 330.65 948.1 329.7 948.15 328.8 947.95 327.8 949.95 323.7 951.9 319.5 Z"/>

<path fill="#a6ce38" stroke="none" d="
M 1001.3 267.15
Q 985.7 268.95 976.15 274.55 966.6 280.1 962.25 285.1 959.1 288.5 953.6 297.6 948.1 306.65 942.25 317.6 936.4 328.5 932.2 337.55 936.95 329.8 941.75 322.1 946.55 314.4 951.25 306.7 952.25 304.85 953.5 303.9 954.8 302.95 956.4 304.45 957.55 306.1 956.75 308.3
L 955.7 310.8
Q 953.8 315.25 951.9 319.5 949.95 323.7 947.95 327.8 948.15 328.8 948.1 329.7 948.1 330.65 947.95 331.05 947.45 332.8 946.7 334.65 945.95 336.55 945 338.5 942.8 344.35 940.1 350.1 937.4 355.85 935.95 358.7
L 935.6 359.4
Q 935.4 359.7 935.25 360.05 944.95 366.95 960.5 372.65 976.05 378.3 991.55 380.55 1008.1 382.65 1024.7 381.35 1041.25 380.05 1053.4 375.85 1065.55 371.6 1068.75 365 1068.7 361.05 1068.35 351.95 1068 342.85 1066.8 331.2 1065.55 319.5 1062.85 307.75 1053.05 321.4 1044.85 336 1036.7 350.6 1029.9 366.5
L 1028.35 369.4
Q 1027.15 371.45 1026 372.3 1024.85 373.15 1024.6 370.25
L 1024.65 369.05
Q 1024.75 368.15 1024.9 367.45 1025.15 366.95 1025.4 366.3
L 1025.7 365.5
Q 1028.9 357.75 1032.9 349.9 1036.9 342 1040.95 334.65 1045.55 326.3 1050.7 318.4 1055.9 310.55 1061.65 303.1 1058.5 291.4 1053.15 282.85 1047.75 274.3 1039.5 271.65 1016.95 265.35 1001.3 267.15 Z"/>

<path fill="#0081C6" stroke="none" d="
M 1079.5 286.6
Q 1082.55 283 1085.95 279.1 1089.4 275.2 1092.9 272
L 1093.8 271.2
Q 1094.45 270.6 1094.9 270.05 1094.65 269.95 1094.3 269.85
L 1093.85 269.75
Q 1091.85 269.8 1089.45 272.2 1087 274.6 1085.65 276.1 1079.2 282.5 1073.2 289.25 1067.15 296 1061.65 303.1 1055.9 310.55 1050.7 318.4 1045.55 326.3 1040.95 334.65 1036.9 342 1032.9 349.9 1028.9 357.75 1025.7 365.5
L 1025.4 366.3
Q 1025.15 366.95 1024.9 367.45 1024.75 368.15 1024.65 369.05
L 1024.6 370.25
Q 1024.85 373.15 1026 372.3 1027.15 371.45 1028.35 369.4
L 1029.9 366.5
Q 1036.7 350.6 1044.85 336 1053.05 321.4 1062.85 307.75 1066.7 302.35 1070.85 297.05 1075.05 291.8 1079.5 286.6 Z"/>
</g>

<g id="Symbol_84_0_Layer0_0_FILL">
<path fill="#a6ce38" stroke="none" d="
M 793 728.5
L 804.5 735.2
Q 815.8 741.55 835.15 750 854.5 758.4 879 765
L 889.25 742.3
Q 898.45 720.9 910.3 692.8 922.15 664.75 931.1 643.45
L 940.5 621 915.1 609.95 793 728.5 Z"/>
</g>

<g id="Symbol_85_0_Layer0_0_FILL">
<path fill="#0081C6" stroke="none" d="
M 870.5 689.45
Q 870.15 689.5 869.85 689.65 869.5 689.75 869.25 689.85 869.05 690.6 869.8 691.15 870.55 691.7 871.05 692 876.9 695.85 885.4 698.65 893.9 701.45 900.9 702.2 926.7 704.3 952.2 697.05 977.75 689.75 999.65 676.9
L 999.65 677.1
Q 1000.15 677.45 1000.6 677.3 1001.05 677.15 1001.3 676.95 1002.15 676.55 1003.45 675.4 1004.7 674.25 1005.9 673.15 1018.45 665.3 1031.6 653.6 1044.75 641.9 1052 629.55 1054.45 626.9 1056.8 624.3 1059.15 621.7 1061.4 619.1 1063.8 616.3 1066.1 613.4 1068.45 610.55 1070.7 607.55 1092.35 583.35 1107.55 555.95 1122.75 528.55 1130.05 496.15 1133.85 479.6 1136.65 461.6 1139.45 443.55 1139 426.5
L 1138.65 421.35
Q 1138.15 416.95 1135.75 415.95 1135.2 416.1 1134.85 416.45 1134.55 416.8 1134.4 417.2 1134.4 416.2 1134.35 415.2 1134.35 414.2 1134.3 413.2 1134.25 414.5 1134.2 415.85 1134.15 417.2 1134.1 418.55 1133.35 442.05 1128.9 469.15 1124.45 496.25 1114.15 521.3 1108.3 535.45 1096.75 556.5 1085.25 577.6 1068.7 600.95 1052.15 624.3 1031.2 645.1 1026.9 649.35 1022.4 653.3 1017.9 657.3 1013.25 661.05 1012.95 661.25 1012.7 661.45
L 1012.15 661.9
Q 995.8 674.9 977.6 683.45 959.35 691.95 939.5 694.25 919.05 696.35 901.9 694.85 884.7 693.35 870.5 689.45 Z"/>

<path fill="#a6ce38" stroke="none" d="
M 1132.95 367.05
L 1100.75 356.6
Q 1070.4 347.1 1029.8 334.85 989.2 322.6 956.85 313.55
L 931.1 306.8 918.7 304.55 914.9 317.5 907.45 348.5
Q 898.25 388.5 882.25 445.95 866.3 503.4 844 559.7 821.7 615.95 793.6 652.5 800 654.55 810.25 661.2 820.5 667.85 835.35 675.75 850.2 683.7 870.5 689.45 884.7 693.35 901.9 694.85 919.05 696.35 939.5 694.25 959.35 691.95 977.6 683.45 995.8 674.9 1012.15 661.9
L 1012.7 661.45
Q 1012.95 661.25 1013.25 661.05 1017.9 657.3 1022.4 653.3 1026.9 649.35 1031.2 645.1 1052.15 624.3 1068.7 600.95 1085.25 577.6 1096.75 556.5 1108.3 535.45 1114.15 521.3 1124.45 496.25 1128.9 469.15 1133.35 442.05 1134.1 418.55 1134.15 417.2 1134.2 415.85 1134.25 414.5 1134.3 413.2 1134.75 392.9 1134 380.35
L 1132.95 367.05 Z"/>
</g>

<g id="Symbol_69_0_Layer0_0_FILL">
<path fill="#0081C6" stroke="none" d="
M 1010.6 309.3
L 1009.6 307.45 1008.25 305.8 1006.65 304.45 1004.75 303.45 1002.75 302.85 1000.6 302.65 998.5 302.85 996.5 303.45 994.6 304.45 993 305.8 991.65 307.45 990.65 309.3 990 311.35 989.8 313.45 990 315.55 990.65 317.6 991.65 319.45 993 321.1 994.6 322.45 996.5 323.45 998.5 324.05 1000.6 324.25 1002.75 324.05 1004.75 323.45 1006.65 322.45 1008.25 321.1 1009.6 319.45 1010.6 317.6 1011.25 315.55 1011.45 313.45 1011.25 311.35 1010.6 309.3 Z"/>
</g>

<g id="Symbol_23_0_Layer0_0_FILL">
<path fill="#a6ce38" stroke="none" d="
M 1040.4 290.7
Q 1036.7 285.45 1029.15 285.1 1020.3 285.55 1015.95 292.1 1011.65 298.6 1010.8 306.75
L 1046.25 307 1045.2 301.3
Q 1044.1 296 1040.4 290.7 Z"/>
</g>

<g id="Symbol_86_0_Layer0_0_FILL">
<path fill="#a6ce38" stroke="none" d="
M 901.5 289.6
L 899.65 287.15 898.3 285.9 896.9 285.5 894.55 285.15
Q 891.65 284.8 888.2 284.6 884.7 284.4 882.05 284.35
L 879.9 284.4 878.85 284.55
Q 878.35 284.85 877.8 285.2 877.25 285.55 876.65 285.95 879 286.85 881.3 287.75 883.6 288.65 885.85 289.6 886.25 289.75 886.45 289.95 886.65 290.15 886.7 290.35 889.2 293 890.85 296.45 892.5 299.9 893.2 303.65 893.9 307.4 893.65 310.85 893.45 313.3 892.5 316.15 891.55 319 890.05 321.65 888.55 324.3 886.65 326.05
L 886.55 326.15
Q 886.45 326.2 886.35 326.3 886.2 326.4 886.05 326.5 885.9 326.6 885.75 326.65
L 885.75 326.6 885.35 326.8
Q 882.7 327.7 879.85 328.5 877 329.35 874.1 330.05 875.1 330.6 875.9 331 876.65 331.35 877.3 331.7
L 880.8 332
Q 883.75 332.05 887.5 332 891.25 331.95 894.25 331.7
L 896.7 331.4 898 331 899.25 329.8 901.05 327.4
Q 903.15 324.5 905 319.7 906.85 314.9 907 308.7 906.95 302.45 905.25 297.55 903.55 292.65 901.5 289.6
M 790.6 266.8
Q 790.8 266.8 790.95 266.8 791.1 266.8 791.25 266.85 791.4 266.8 791.55 266.8 791.7 266.8 791.85 266.8 793.8 266.8 795.6 268.15 797.4 269.5 799 271.95 799.8 273.25 800.55 274.8 801.3 276.35 802 278.15 802.7 280.15 803.3 282.35 803.9 284.55 804.4 287 805.1 290.45 805.55 294.3 806 298.15 806.1 302.25
L 806.15 302.7
Q 806.15 303.15 806.15 303.65 806.15 304.15 806.15 304.6 806.15 304.85 806.15 305.1
L 806.15 308.45
Q 806 313.45 805.4 318 804.85 322.6 803.9 326.6 803.5 328.35 803 330 802.5 331.6 802 333.05 801.35 334.8 800.65 336.3 799.9 337.8 799.15 339.05 797.55 341.6 795.7 343 793.9 344.4 791.9 344.45
L 791.85 344.45
Q 791.7 344.45 791.55 344.45 791.4 344.4 791.3 344.4 791.1 344.4 790.95 344.45 790.8 344.45 790.6 344.45 787.35 344.4 784.55 341.4 781.75 338.4 779.6 333.05 779.45 332.6 779.25 332.15 779.1 331.7 778.9 331.2
L 778.95 331.5
Q 779.6 335.15 780.35 338.5 781.15 341.85 782.05 344.75 784.4 352.25 787.55 356.5 790.65 360.7 794.25 360.8
L 794.4 360.8 814.05 358.2
Q 819.35 358.1 823.95 354.05 828.6 350 832.1 342.85 832.2 342.6 832.35 342.3 832.45 342.05 832.55 341.8 832.75 341.3 832.95 340.75 833.1 340.25 833.3 339.75 833.85 338.4 834.3 337.2 834.75 336.05 835.05 335.2 837.5 327.95 838.55 319.85 839.6 311.7 839.4 303.4 839.25 295.05 837.9 287.2 837.55 285.25 837.2 283.4 836.8 281.5 836.35 279.7 835.85 277.85 835.25 276.15 834.6 274.4 833.95 272.7
L 833.8 272.65
Q 833.4 271.6 832.95 270.65 832.55 269.65 832.1 268.75 828.65 261.7 824.1 257.65 819.55 253.6 814.3 253.4
L 794.25 251.35
Q 790.65 251.4 787.55 255.65 784.4 259.85 782.05 267.35 781.2 270 780.5 273 779.8 275.95 779.2 279.25 779.3 278.95 779.4 278.7 779.5 278.45 779.6 278.15 781.75 272.85 784.55 269.85 787.35 266.85 790.6 266.8
M 836.45 273.55
Q 838 277.35 838.95 281.35 839.85 285.35 840.4 289.4 842.25 302.35 841.3 314.7 840.35 327.05 836.05 339
L 867.9 330.35 867.95 330.35
Q 869.9 329.7 871.9 329.15 873.9 328.65 875.9 328.1 877.1 327.85 878.25 327.5 879.45 327.2 880.6 326.9 881.05 326.75 882.25 326.35 883.4 325.95 884.6 325.65
L 885.6 325.45 886.2 325.4 886.4 325.05
Q 887.15 323.45 887.95 321.85 888.75 320.2 889.55 318.65 891.65 314.15 891.8 309.3 892 304.45 890.5 299.75 889 295.1 886.05 291.1
L 885.85 290.85 885.55 290.8
Q 883.9 290.3 882.3 289.6 880.7 288.95 879.1 288.3 876.55 287.3 873.95 286.35
L 868.75 284.5
Q 863.55 282.75 857.9 280.8 852.2 278.9 846.65 277.05 841.15 275.15 836.45 273.55 Z"/>

<path fill="#FFFFFF" stroke="none" d="
M 791.25 266.85
Q 791.15 266.85 791 266.85 790.9 266.9 790.75 266.9 788.1 267.5 785.8 270.45 783.5 273.35 781.75 278.15 781.65 278.45 781.55 278.7 781.45 278.95 781.35 279.25 779.55 284.5 778.55 291.2 777.55 297.95 777.55 305.6 777.55 313 778.5 319.55 779.45 326.05 781.1 331.2 781.25 331.7 781.4 332.15 781.6 332.6 781.75 333.05 783.6 338.1 786.05 341.1 788.45 344.05 791.3 344.4 791.4 344.4 791.55 344.45 791.7 344.45 791.85 344.45
L 791.9 344.45
Q 793.9 344.4 795.7 343 797.55 341.6 799.15 339.05 799.9 337.8 800.65 336.3 801.35 334.8 802 333.05 802.5 331.6 803 330 803.5 328.35 803.9 326.6 804.85 322.6 805.4 318 806 313.45 806.15 308.45
L 806.15 305.1
Q 806.15 304.85 806.15 304.6 806.15 304.15 806.15 303.65 806.15 303.15 806.15 302.7
L 806.1 302.25
Q 806 298.15 805.55 294.3 805.1 290.45 804.4 287 803.9 284.55 803.3 282.35 802.7 280.15 802 278.15 801.3 276.35 800.55 274.8 799.8 273.25 799 271.95 797.4 269.5 795.6 268.15 793.8 266.8 791.85 266.8 791.7 266.8 791.55 266.8 791.4 266.8 791.25 266.85 Z"/>

<path fill="#0081C6" stroke="none" d="
M 865.95 283.45
Q 867.35 284 868.75 284.5
L 873.95 286.35
Q 876.55 287.3 879.1 288.3 880.7 288.95 882.3 289.6 883.9 290.3 885.55 290.8
L 885.85 290.85 886.05 291.1
Q 889 295.1 890.5 299.75 892 304.45 891.8 309.3 891.65 314.15 889.55 318.65 888.75 320.2 887.95 321.85 887.15 323.45 886.4 325.05
L 886.2 325.4 885.6 325.45 884.6 325.65
Q 883.4 325.95 882.25 326.35 881.05 326.75 880.6 326.9 879.45 327.2 878.25 327.5 877.1 327.85 875.9 328.1 873.9 328.65 871.9 329.15 869.9 329.7 867.95 330.35
L 867.9 330.35
Q 867.5935546875 330.452734375 867.25 330.6 866.9 330.7 866.6 330.85 866.3 330.9 865.95 331.05 865.6 331.2 865.65 331.6 866.05 331.75 866.5 331.65 867 331.6 867.15 331.55 868.85 331.25 870.6 330.85 872.35 330.45 874.1 330.05 877 329.35 879.85 328.5 882.7 327.7 885.35 326.8
L 885.75 326.6 885.75 326.65
Q 885.9 326.6 886.05 326.5 886.2 326.4 886.35 326.3 886.45 326.2 886.55 326.15
L 886.65 326.05
Q 888.55 324.3 890.05 321.65 891.55 319 892.5 316.15 893.45 313.3 893.65 310.85 893.9 307.4 893.2 303.65 892.5 299.9 890.85 296.45 889.2 293 886.7 290.35 886.65 290.15 886.45 289.95 886.25 289.75 885.85 289.6 883.6 288.65 881.3 287.75 879 286.85 876.65 285.95 873.85 284.9 870.95 283.95 868.1 282.95 865.3 282 864.75 281.85 864 281.6 863.25 281.4 862.7 281.4 862.15 281.4 862.05 281.85 862.3 282.05 862.65 282.2
L 862.95 282.35 863.1 282.4
Q 864.5 282.95 865.95 283.45
M 835.15 273.1
Q 834.55 272.9 833.95 272.7 834.6 274.4 835.25 276.15 835.85 277.85 836.35 279.7 836.8 281.5 837.2 283.4 837.55 285.25 837.9 287.2 839.25 295.05 839.4 303.4 839.6 311.7 838.55 319.85 837.5 327.95 835.05 335.2 834.75 336.05 834.3 337.2 833.85 338.4 833.3 339.75 833.1 340.25 832.95 340.75 832.75 341.3 832.55 341.8 832.8 341.3 833.05 340.75 833.25 340.2 833.5 339.7
L 836.05 339
Q 840.35 327.05 841.3 314.7 842.25 302.35 840.4 289.4 839.85 285.35 838.95 281.35 838 277.35 836.45 273.55 835.8 273.35 835.15 273.1
M 790.75 266.9
L 790.7 266.9
Q 787.4 266.95 784.6 269.95 781.75 272.95 779.6 278.3 779.5 278.55 779.4 278.8 779.3 279.1 779.2 279.35 777.25 284.6 776.15 291.3 775.05 298.05 775 305.75 775.05 313.1 776.05 319.65 777.1 326.15 778.9 331.3
L 778.95 331.5 778.9 331.2
Q 779.1 331.7 779.25 332.15 779.45 332.6 779.6 333.05 781.75 338.4 784.55 341.4 787.35 344.4 790.6 344.45 790.8 344.45 790.95 344.45 791.1 344.4 791.3 344.4 788.45 344.05 786.05 341.1 783.6 338.1 781.75 333.05 781.6 332.6 781.4 332.15 781.25 331.7 781.1 331.2 779.45 326.05 778.5 319.55 777.55 313 777.55 305.6 777.55 297.95 778.55 291.2 779.55 284.5 781.35 279.25 781.45 278.95 781.55 278.7 781.65 278.45 781.75 278.15 783.5 273.35 785.8 270.45 788.1 267.5 790.75 266.9 Z"/>
</g>

<g id="Symbol_87_0_Layer0_0_FILL">
<path fill="#a6ce38" stroke="none" d="
M 908.75 284.8
L 906.55 284.85 905.45 285
Q 904.9 285.35 904.35 285.7 903.75 286.1 903.15 286.55 905.6 287.5 908 288.5 910.35 289.5 912.7 290.55 913.1 290.7 913.35 290.95 913.55 291.15 913.6 291.35 916.2 294.3 917.9 298.1 919.6 301.9 920.35 306.05 921.1 310.15 920.8 314 920.6 316.65 919.6 319.85 918.65 323 917.05 325.9 915.5 328.8 913.55 330.75
L 913.2 331.05
Q 912.9 331.3 912.6 331.4 912.5 331.45 912.4 331.45 912.3 331.5 912.2 331.55 909.45 332.55 906.45 333.45 903.5 334.35 900.5 335.15 901.5 335.75 902.35 336.2 903.15 336.6 903.8 336.95
L 905 337.15 907.45 337.3
Q 910.5 337.4 914.4 337.3 918.3 337.25 921.45 336.95
L 924 336.65 925.35 336.2 926.65 334.85 928.5 332.25
Q 930.7 329 932.65 323.75 934.55 318.45 934.7 311.6 934.65 304.75 932.85 299.35 931.1 293.95 928.95 290.55
L 927.05 287.85 925.65 286.5 924.2 286.05 921.75 285.6
Q 918.75 285.25 915.15 285.05 911.55 284.8 908.75 284.8
M 894.9 284.9
L 894.15 284.6
Q 889.10234375 282.8083984375 883.6 280.85 877.7 278.75 872 276.7 866.25 274.65 861.4 272.85 863 277.05 863.95 281.45 864.9 285.85 865.5 290.35 867.4 304.6 866.45 318.25 865.45 331.85 860.95 345
L 894.05 335.5
Q 896.1 334.8 898.2 334.2 900.25 333.6 902.35 333.05 903.6 332.7 904.85 332.35 906.05 332 907.25 331.65 907.75 331.5 908.95 331.1 910.2 330.65 911.4 330.3
L 912.45 330.1 913.05 330.05
Q 913.1 329.95 913.15 329.85 913.2 329.75 913.25 329.65 914.05 327.85 914.9 326.1 915.75 324.3 916.55 322.55 918.7 317.6 918.9 312.25 919.1 306.95 917.55 301.75 916 296.6 912.95 292.2
L 912.7 291.95 912.4 291.85
Q 910.7 291.3 909 290.55 907.35 289.85 905.7 289.15 903 288.05 900.3 287 897.6 285.95 894.9 284.9
M 809.75 254.55
Q 808.85 255.95 808.05 257.5 807.15 259.3 806.35 261.45 805.55 263.6 804.85 266.05 803.95 268.95 803.2 272.25 802.5083984375 275.5107421875 801.9 279.05 801.951171875 278.988671875 801.95 278.9 802.0408203125 278.727734375 802.1 278.55 802.2 278.25 802.3 277.95 804.55 272.1 807.45 268.8 810.35 265.5 813.75 265.4 813.9 265.4 814.1 265.45 814.2451171875 265.45 814.4 265.45 814.55 265.45 814.7 265.45 814.9 265.4 815.05 265.4 817.05 265.45 818.95 266.9 820.8 268.4 822.45 271.1 823.3 272.5 824.05 274.25 824.85 275.95 825.55 277.95 826.3 280.1 826.95 282.55 827.55 285 828.1 287.75 828.8 291.5 829.25 295.7 829.7 299.9 829.85 304.4
L 829.9 306.55
Q 829.9 306.8 829.9 307.1
L 829.9 308.8
Q 829.9 309.05 829.9 309.35
L 829.85 310.9
Q 829.85 311.15 829.85 311.4 829.85 311.8 829.85 312.15 829.8 312.5 829.8 312.9 829.6 318 829 322.7 828.45 327.4 827.5 331.5 827.05 333.4 826.6 335.15 826.1 336.9 825.55 338.5 824.9 340.4 824.15 342.05 823.4 343.7 822.6 345.05 820.95 347.9 819 349.45 817.1 351 815.05 351 814.85 351 814.7 351 814.55 351 814.4 351 814.25 351 814.05 351 813.9 351 813.75 351 810.35 350.95 807.45 347.65 804.55 344.35 802.3 338.5 802.1 338 801.95 337.45 801.75 336.95 801.6 336.45
L 801.65 336.75
Q 802.25 340.8 803.05 344.5 803.9 348.15 804.85 351.35 807.3 359.65 810.55 364.3 813.75 368.95 817.5 369.05
L 817.7 369.05 838.1 366.2
Q 843.6 366.1 848.4 361.6 853.2 357.15 856.8 349.25 856.95 349 857.1 348.7 857.2 348.4 857.35 348.1 857.5 347.55 857.7 346.95 857.9 346.4 858.1 345.85 858.65 344.35 859.15 343.05 859.65 341.75 859.95 340.85 862.45 332.85 863.55 323.9 864.65 314.95 864.45 305.75 864.25 296.55 862.85 287.9 862.55 285.75 862.15 283.7 861.7 281.65 861.25 279.65 860.75 277.6 860.1 275.7 859.45 273.8 858.75 271.9
L 858.6 271.85
Q 858.2 270.7 857.75 269.65 857.3 268.6 856.8 267.55 853.25 259.75 848.5 255.3 843.8 250.85 838.35 250.65
L 817.55 248.35 817.5 248.35
Q 816.45 248.35 815.4 248.75 814.4 249.15 813.4 249.95
L 813.3 250.05
Q 812.9 250.45 812.5 250.85 812.1 251.3 811.75 251.7 810.65 253.1 809.75 254.55
M 824.2 252.8
L 824.25 252.8 824.6 252.85
Q 825.1 253.2 825.8 254.05 826.5 254.95 827.15 255.9 827.85 256.9 828.15 257.4 832.55 264.75 835.3 274 838.05 283.25 839.2 292.95 840.35 302.65 839.9 311.3 839.75 315.7 839.3 320.55 838.9 325.35 838 330.1 837.15 334.8 835.65 338.9 834.6 341.7 833.2 345 831.8 348.25 830.2 351.2 829.85 351.9 829.45 352.55 829.05 353.2 828.7 353.8 828.55 354.05 828.1 354.65 827.7 355.25 827.15 355.4 827.1 354.95 827.4 354.4 827.6 353.9 827.75 353.7 828.8 351.8 829.75 349.85 830.75 347.85 831.6 345.9 832.55 343.75 833.4 341.55 834.2 339.35 834.85 337.05 838.2 324.9 838.6 310.75 839 296.55 836.15 282.7 833.3 268.85 827 257.55 826.55 256.75 826.05 255.9 825.55 255.15 825.05 254.35
L 824.9 254.1 824.6 253.7
Q 824.25 253.25 824.2 252.8 Z"/>

<path fill="#0081C6" stroke="none" d="
M 897.25 284.3
Q 894.3 283.2 891.35 282.2 890.8 282 890 281.75 889.25 281.5 888.65 281.5 888.05 281.5 888 282 888.25 282.25 888.6 282.4
L 888.9 282.55 889.1 282.6
Q 890.55 283.2 892 283.75 893.0875 284.2 894.15 284.6
L 894.9 284.9
Q 897.6 285.95 900.3 287 903 288.05 905.7 289.15 907.35 289.85 909 290.55 910.7 291.3 912.4 291.85
L 912.7 291.95 912.95 292.2
Q 916 296.6 917.55 301.75 919.1 306.95 918.9 312.25 918.7 317.6 916.55 322.55 915.75 324.3 914.9 326.1 914.05 327.85 913.25 329.65 913.2 329.75 913.15 329.85 913.1 329.95 913.05 330.05
L 912.45 330.1 911.4 330.3
Q 910.2 330.65 908.95 331.1 907.75 331.5 907.25 331.65 906.05 332 904.85 332.35 903.6 332.7 902.35 333.05 900.25 333.6 898.2 334.2 896.1 334.8 894.05 335.5
L 892.7 336
Q 892.4 336.1 892.05 336.25 891.7 336.45 891.75 336.85 892.15 337.05 892.6 336.95 893.1 336.85 893.3 336.8 895.05 336.45 896.85 336.05 898.65 335.6 900.5 335.15 903.5 334.35 906.45 333.45 909.45 332.55 912.2 331.55 912.3 331.5 912.4 331.45 912.5 331.45 912.6 331.4 912.9 331.3 913.2 331.05
L 913.55 330.75
Q 915.5 328.8 917.05 325.9 918.65 323 919.6 319.85 920.6 316.65 920.8 314 921.1 310.15 920.35 306.05 919.6 301.9 917.9 298.1 916.2 294.3 913.6 291.35 913.55 291.15 913.35 290.95 913.1 290.7 912.7 290.55 910.35 289.5 908 288.5 905.6 287.5 903.15 286.55 900.2 285.4 897.25 284.3
M 801.9 279.05
Q 801.8806640625 279.1580078125 801.85 279.25 799.85 285.05 798.7 292.45 797.55 299.85 797.55 308.35 797.55 316.5 798.6 323.7 799.65 330.85 801.55 336.55
L 801.65 336.75 801.6 336.45
Q 801.75 336.95 801.95 337.45 802.1 338 802.3 338.5 804.55 344.35 807.45 347.65 810.35 350.95 813.75 351 813.9 351 814.05 351 814.25 351 814.4 351 811.5 350.6 808.95 347.3 806.45 344.05 804.5 338.5 804.35 338 804.2 337.45 804 336.95 803.85 336.45 802.1 330.75 801.15 323.55 800.15 316.35 800.15 308.2 800.2 299.75 801.2 292.35 802.25 284.9 804.1 279.15 804.2 278.85 804.3 278.55 804.4 278.25 804.5 277.95 806.35 272.65 808.75 269.4 811.15 266.2 813.9 265.55
L 813.8 265.55
Q 810.4 265.6 807.45 268.9 804.55 272.2 802.3 278.05 802.2 278.35 802.1 278.65 802.0361328125 278.777734375 801.95 278.9 801.951171875 278.988671875 801.9 279.05
M 824.25 252.8
L 824.2 252.8
Q 824.25 253.25 824.6 253.7
L 824.9 254.1 825.05 254.35
Q 825.55 255.15 826.05 255.9 826.55 256.75 827 257.55 833.3 268.85 836.15 282.7 839 296.55 838.6 310.75 838.2 324.9 834.85 337.05 834.2 339.35 833.4 341.55 832.55 343.75 831.6 345.9 830.75 347.85 829.75 349.85 828.8 351.8 827.75 353.7 827.6 353.9 827.4 354.4 827.1 354.95 827.15 355.4 827.7 355.25 828.1 354.65 828.55 354.05 828.7 353.8 829.05 353.2 829.45 352.55 829.85 351.9 830.2 351.2 831.8 348.25 833.2 345 834.6 341.7 835.65 338.9 837.15 334.8 838 330.1 838.9 325.35 839.3 320.55 839.75 315.7 839.9 311.3 840.35 302.65 839.2 292.95 838.05 283.25 835.3 274 832.55 264.75 828.15 257.4 827.85 256.9 827.15 255.9 826.5 254.95 825.8 254.05 825.1 253.2 824.6 252.85
L 824.25 252.8
M 861.4 272.85
L 860.05 272.35
Q 859.4 272.15 858.75 271.9 859.45 273.8 860.1 275.7 860.75 277.6 861.25 279.65 861.7 281.65 862.15 283.7 862.55 285.75 862.85 287.9 864.25 296.55 864.45 305.75 864.65 314.95 863.55 323.9 862.45 332.85 859.95 340.85 859.65 341.75 859.15 343.05 858.65 344.35 858.1 345.85 857.9 346.4 857.7 346.95 857.5 347.55 857.35 348.1 857.6 347.55 857.85 346.95 858.05 346.35 858.3 345.8
L 860.95 345
Q 865.45 331.85 866.45 318.25 867.4 304.6 865.5 290.35 864.9 285.85 863.95 281.45 863 277.05 861.4 272.85
M 809.6 252.95
Q 808.6 254.5 807.8 256.2 807 257.85 806.35 259.45 806.2 259.8 806.05 260.15 805.9 260.55 805.85 260.95 805.85 261 805.8 261.05 805.8 261.15 805.85 261.2 806.05 261.1 806.2 260.85 806.35 260.6 806.4 260.5 806.8 259.7 807.2 258.95 807.6 258.2 808.05 257.5 808.85 255.95 809.75 254.55 810.65 253.1 811.75 251.7 811.65 251.8 811.55 251.9 811.45 252 811.35 252.1 811.25 252.25 811.15 252.4 811 252.55 810.95 252.6 810.85 252.75 810.8 252.8 810.7 252.9 810.65 252.9
L 810.6 253
Q 810.35 253 810.05 253
L 809.6 252.95
M 804.05 352.2
Q 804.45 353.8 805.1 355.6 805.8 357.4 806.7 359.15 806.9 359.15 807.05 359.1 807.25 359.1 807.3 359.1
L 807.4 359.1
Q 807.45 359.1 807.5 359.1
L 807.6 359.1
Q 806.75 357.2 806 355.25 805.25 353.3 804.55 351.35 804.5 351.15 804.4 350.95 804.3 350.8 804.05 350.85 803.85 351.15 803.95 351.65
L 804 352 804.05 352.2 Z"/>

<path fill="#FFFFFF" stroke="none" d="
M 804.3 278.55
Q 804.2 278.85 804.1 279.15 802.25 284.9 801.2 292.35 800.2 299.75 800.15 308.2 800.15 316.35 801.15 323.55 802.1 330.75 803.85 336.45 804 336.95 804.2 337.45 804.35 338 804.5 338.5 806.45 344.05 808.95 347.3 811.5 350.6 814.4 351 814.55 351 814.7 351 814.85 351 815.05 351 817.1 351 819 349.45 820.95 347.9 822.6 345.05 823.4 343.7 824.15 342.05 824.9 340.4 825.55 338.5 826.1 336.9 826.6 335.15 827.05 333.4 827.5 331.5 828.45 327.4 829 322.7 829.6 318 829.8 312.9 829.8 312.5 829.85 312.15 829.85 311.8 829.85 311.4 829.85 311.15 829.85 310.9
L 829.9 309.35
Q 829.9 309.05 829.9 308.8
L 829.9 307.1
Q 829.9 306.8 829.9 306.55
L 829.85 304.4
Q 829.7 299.9 829.25 295.7 828.8 291.5 828.1 287.75 827.55 285 826.95 282.55 826.3 280.1 825.55 277.95 824.85 275.95 824.05 274.25 823.3 272.5 822.45 271.1 820.8 268.4 818.95 266.9 817.05 265.45 815.05 265.4 814.9 265.4 814.7 265.45 814.55 265.45 814.4 265.45 814.29296875 265.45234375 814.15 265.5 814.05 265.5 813.9 265.55 811.15 266.2 808.75 269.4 806.35 272.65 804.5 277.95 804.4 278.25 804.3 278.55 Z"/>
</g>

<g id="Symbol_60_0_Layer0_0_FILL">
<path fill="#0081C6" stroke="none" d="
M 792.8 294.35
Q 791.8 293.3 790.6 293.3 789.45 293.3 788.4 294.35 787.4 295.4 786.6 297.3 785.85 299.15 785.4 301.65 785 304.1 784.95 306.95 785 309.8 785.4 312.25 785.85 314.7 786.6 316.6 787.4 318.45 788.4 319.5 789.45 320.55 790.6 320.6 791.8 320.55 792.8 319.5 793.85 318.45 794.6 316.6 795.4 314.7 795.8 312.25 796.25 309.8 796.25 306.95 796.25 304.1 795.8 301.65 795.4 299.15 794.6 297.3 793.85 295.4 792.8 294.35 Z"/>
</g>

<g id="Symbol_71_0_Layer0_0_FILL">
<path fill="#0081C6" stroke="none" d="
M 809.85 293.05
Q 808.65 293.1 807.65 294.15 806.6 295.2 805.85 297.05 805.05 298.95 804.65 301.4 804.2 303.85 804.2 306.7 804.2 309.55 804.65 312 805.05 314.5 805.85 316.35 806.6 318.25 807.65 319.3 808.65 320.35 809.85 320.35 811 320.35 812.05 319.3 813.05 318.25 813.85 316.35 814.6 314.5 815.05 312 815.45 309.55 815.5 306.7 815.45 303.85 815.05 301.4 814.6 298.95 813.85 297.05 813.05 295.2 812.05 294.15 811 293.1 809.85 293.05 Z"/>
</g>

<g id="Symbol_72_0_Layer0_0_FILL">
<path fill="#a6ce38" stroke="none" d="
M 975.9 293.65
Q 974.3 292.2 973.2 292.5 972.1 292.75 970.9 294.7 967.85 299.7 967.3 307.25 966.75 314.8 967.85 323.15 968.65 329.25 969.9 334.95 971.2 340.65 972.65 345.2 973.8 348.8 974.65 352.6 975.5 356.35 976.25 360.25 977.5 367.2 979.25 374.05 980.95 380.9 984.2 387.25 997.1 411.4 1016.3 434.4 1035.45 457.4 1057.95 477.1 1060.95 479.8 1066.7 484.4 1072.4 489.05 1079 493 1085.55 496.95 1091.05 497.65 1091.65 497.7 1092.2 497.7 1092.75 497.7 1093.3 497.65 1094.2 498.2 1095.15 498.7 1096.05 499.15 1096.95 499.5 1098.35 500.1 1099.7 500.4 1101.05 500.7 1102.35 500.75
L 1102.4 502.05
Q 1102.4 503.65 1102.45 505.2
L 1102.5 508.35
Q 1102.6 518.45 1103.4 528.6 1104.2 538.75 1106.7 548.75 1110.25 564.1 1118.4 582.05 1126.55 599.95 1142.5 612.05 1145.65 615.9 1149.25 618.9 1152.8 621.95 1156.7 623.65 1158.45 624.4 1160.25 624.8 1162.1 625.2 1163.95 625.15
L 1164.25 625.15
Q 1164.7 625.15 1165.15 625.1 1165.6 625.05 1166 625 1165.95 625.35 1165.9 625.75 1165.8 626.1 1165.75 626.5
L 1165.5 627.8
Q 1165.25 629.3 1165 630.8 1164.75 632.3 1164.5 633.85 1162 649.85 1162.25 666.85 1162.55 683.85 1166.55 700.55 1167.35 703.85 1169.75 706.5 1172.1 709.1 1175.3 709.75 1176.7 710.05 1178.2 709.7 1179.7 709.4 1181.15 708.4 1189.5 702.05 1195.6 690.55 1201.65 679.05 1205.05 669.75 1205.4 668.9 1205.75 668 1205.979296875 667.4103515625 1206.2 666.8 1206.2625 666.6 1206.3 666.4 1206.36171875 666.2697265625 1206.4 666.15 1208.7 660 1210.65 653.4 1212.6 646.8 1214 639.85 1215.75 631.2 1216.3 622.4 1216.85 613.55 1215.8 604.9 1215.75 604.35 1215.65 603.85 1215.6 603.3 1215.5 602.8 1215.3 601.55 1215.1 600.35 1214.9 599.1 1214.7 597.85 1215.85 583.65 1216 568.3 1216.1 553 1212.65 538.75
L 1212.15 537.15
Q 1211.7 535.9 1211.25 534.85 1210.8 534.2 1210.3 533.95 1209.75 533.65 1209.1 534.1
L 1208.55 535.65 1208.15 538.8
Q 1207.9 542.75 1207.8 547
L 1207.7 552.8
Q 1207.65 554.3 1207.6 555.8 1207.55 557.35 1207.5 558.85 1207.15 559.35 1206.95 559.85 1206.75 560.35 1206.65 560.65 1204.2 567.45 1204.1 575.95 1204 584.45 1204.75 592.45 1203.9 599.2 1202.8 606 1201.75 612.75 1200.45 619.6 1200.25 620.6 1199.85 622.4 1199.4 624.2 1198.95 626.45 1198.8 625.1 1198.6 623.75 1198.45 622.4 1198.2 621 1197.3 616.55 1195.45 611.6 1193.55 606.6 1192.95 602.65
L 1192.85 598.55
Q 1192.6 595.45 1189.3 593.8 1188.9 593.55 1188.3 593.35 1187.7 593.15 1187 593.1 1188.85 579.35 1188.2 564.15 1187.5 549 1180.85 538.35
L 1179.7 536.7
Q 1178.75 535.45 1177.85 534.5 1177.15 534.1 1176.7 533.6 1176.2 533.05 1175.4 532.95 1174.85 533 1174.5 533.4
L 1174.05 534
Q 1173.45 534.75 1173.05 536.65 1172.7 538.6 1172.5 541.05 1166.75 526.85 1161.7 512.5 1156.65 498.15 1150.65 484 1147.6 476.45 1144 467.35 1140.4 458.25 1135.65 451.4
L 1134.15 449.7
Q 1133 448.45 1131.75 447.55 1131.3 447.3 1130.85 446.95
L 1130.3 446.6
Q 1125.15 444 1120.2 444.8 1115.25 445.55 1113.45 449.4 1112.55 437.3 1110.25 425.05 1107.9 412.75 1102.7 402.45
L 1101.75 400.9
Q 1101 399.65 1100.45 398.55 1099.3 397.5 1098.3 397.05 1097.35 396.55 1096.3 398.9 1094.75 403.35 1094.8 409.9 1094.85 416.5 1095.25 421.55 1095.6 427.45 1096.15 433.35 1096.7 439.3 1097.35 445.25 1093.35 437 1088.65 428.8 1083.95 420.6 1078.65 412.65 1074.9 406.25 1070.35 399.65 1065.75 393.1 1057.4 391.05 1056.5 390.9 1054.75 391
L 1052.75 391.05
Q 1051.7 390.45 1050.6 388.75 1049.55 387.05 1048.85 386.05 1044.75 380.35 1037.9 372.35 1031 364.35 1024 362.05 1021.45 361.6 1019.95 361.9 1018.45 362.15 1017 360.5 1013.8 356.2 1010.75 349.95 1007.7 343.75 1003.15 339.45 998.55 335.15 990.65 336.75
L 989.45 337.2
Q 988.55 337.6 987.55 338 986.6 327.65 984.75 317.3 982.95 307 978.15 297.55
L 977.3 295.95
Q 976.6 294.7 975.9 293.65
M 1191.8 620.8
Q 1192.05 621.9 1192 623.2
L 1191.95 624.8
Q 1192.05 628.5 1191.9 632.2 1191.75 635.95 1191 639.45
L 1191 640.1
Q 1191 640.6 1190.7 640.9 1190.5 640.1 1190.6 638.85 1190.75 637.65 1190.8 637.15 1191 633.5 1191.2 629.8 1191.4 626.15 1191.6 622.5 1191.55 622.25 1191.55 621.65 1191.55 621.1 1191.8 620.8
M 1158.25 598.35
L 1159.1 598.65
Q 1159.15 598.95 1159.1 599.3 1159.1 599.65 1158.65 599.5 1158.4 599.35 1157.95 598.95 1157.55 598.5 1157.5 598.25
L 1158.25 598.35 Z"/>

<path fill="#a6ce38" stroke="none" d="
M 1192 623.2
Q 1192.05 621.9 1191.8 620.8 1191.55 621.1 1191.55 621.65 1191.55 622.25 1191.6 622.5 1191.4 626.15 1191.2 629.8 1191 633.5 1190.8 637.15 1190.75 637.65 1190.6 638.85 1190.5 640.1 1190.7 640.9 1191 640.6 1191 640.1
L 1191 639.45
Q 1191.75 635.95 1191.9 632.2 1192.05 628.5 1191.95 624.8
L 1192 623.2
M 1206.25 192.75
Q 1202.45 184.55 1198.25 176.4 1194.05 168.25 1189.45 160.1 1183.5 150.3 1162.25 135.1 1140.95 119.85 1112.5 105.85 1084.05 91.8 1056.65 85.6 1029.25 79.4 1011.1 87.7 988.45 99.9 973.2 117.25 958 134.6 950.3 148.1
L 942.6 162.35 943.05 177.75
Q 943.6 192.75 946.1 217.45 948.6 242.1 954.35 271.65 955.15 275.5 956 279.4 956.85 283.35 957.8 287.25 959.9 296.25 962.4 305.25 964.9 314.25 967.85 323.15 966.75 314.8 967.3 307.25 967.85 299.7 970.9 294.7 972.1 292.75 973.2 292.5 974.3 292.2 975.9 293.65 976.6 294.7 977.3 295.95
L 978.15 297.55
Q 982.95 307 984.75 317.3 986.6 327.65 987.55 338 988.55 337.6 989.45 337.2
L 990.65 336.75
Q 998.55 335.15 1003.15 339.45 1007.7 343.75 1010.75 349.95 1013.8 356.2 1017 360.5 1018.45 362.15 1019.95 361.9 1021.45 361.6 1024 362.05 1031 364.35 1037.9 372.35 1044.75 380.35 1048.85 386.05 1049.55 387.05 1050.6 388.75 1051.7 390.45 1052.75 391.05
L 1054.75 391
Q 1056.5 390.9 1057.4 391.05 1065.75 393.1 1070.35 399.65 1074.9 406.25 1078.65 412.65 1083.95 420.6 1088.65 428.8 1093.35 437 1097.35 445.25 1096.7 439.3 1096.15 433.35 1095.6 427.45 1095.25 421.55 1094.85 416.5 1094.8 409.9 1094.75 403.35 1096.3 398.9 1097.35 396.55 1098.3 397.05 1099.3 397.5 1100.45 398.55 1101 399.65 1101.75 400.9
L 1102.7 402.45
Q 1107.9 412.75 1110.25 425.05 1112.55 437.3 1113.45 449.4 1115.25 445.55 1120.2 444.8 1125.15 444 1130.3 446.6
L 1130.85 446.95
Q 1131.3 447.3 1131.75 447.55 1133 448.45 1134.15 449.7
L 1135.65 451.4
Q 1140.4 458.25 1144 467.35 1147.6 476.45 1150.65 484 1156.65 498.15 1161.7 512.5 1166.75 526.85 1172.5 541.05 1172.7 538.6 1173.05 536.65 1173.45 534.75 1174.05 534
L 1174.5 533.4
Q 1174.85 533 1175.4 532.95 1176.2 533.05 1176.7 533.6 1177.15 534.1 1177.85 534.5 1178.75 535.45 1179.7 536.7
L 1180.85 538.35
Q 1187.5 549 1188.2 564.15 1188.85 579.35 1187 593.1 1187.7 593.15 1188.3 593.35 1188.9 593.55 1189.3 593.8 1192.6 595.45 1192.85 598.55
L 1192.95 602.65
Q 1193.55 606.6 1195.45 611.6 1197.3 616.55 1198.2 621 1198.45 622.4 1198.6 623.75 1198.8 625.1 1198.95 626.45 1199.4 624.2 1199.85 622.4 1200.25 620.6 1200.45 619.6 1201.75 612.75 1202.8 606 1203.9 599.2 1204.75 592.45 1204 584.45 1204.1 575.95 1204.2 567.45 1206.65 560.65 1206.75 560.35 1206.95 559.85 1207.15 559.35 1207.5 558.85 1207.55 557.35 1207.6 555.8 1207.65 554.3 1207.7 552.8
L 1207.8 547
Q 1207.9 542.75 1208.15 538.8
L 1208.55 535.65 1209.1 534.1
Q 1209.75 533.65 1210.3 533.95 1210.8 534.2 1211.25 534.85 1211.7 535.9 1212.15 537.15
L 1212.65 538.75
Q 1216.1 553 1216 568.3 1215.85 583.65 1214.7 597.85 1214.9 599.1 1215.1 600.35 1215.3 601.55 1215.5 602.8 1215.6 603.3 1215.65 603.85 1215.75 604.35 1215.8 604.9 1219.6 592.15 1223.55 577.35 1227.5 562.55 1231.3 545.9 1240.4 507.25 1245.65 460.75 1250.85 414.3 1248.1 362.8 1246.25 331.5 1240.2 299.15 1234.15 266.8 1222.9 234.1 1219.35 223.75 1215.15 213.4 1211 203.1 1206.25 192.75 Z"/>

<path fill="#0081C6" stroke="none" d="
M 1214.1 194.55
Q 1210.5 188.2 1206.45 182.6 1205.85 181.6 1204.4 179.5 1202.9 177.45 1201.45 177 1201 177.75 1201.4 178.9 1201.85 180.05 1202.1 180.65 1203.1 183.75 1204.15 186.75 1205.2 189.8 1206.25 192.75 1211 203.1 1215.15 213.4 1219.35 223.75 1222.9 234.1 1236.25 267.6 1242.1 299.45 1247.9 331.3 1248.1 362.8 1250.85 414.3 1245.65 460.75 1240.4 507.25 1231.3 545.9 1228.15 570.05 1223.95 593.6 1219.75 617.15 1214 639.85 1212.6 646.8 1210.65 653.4 1208.7 660 1206.4 666.15 1206.36171875 666.2697265625 1206.3 666.4 1206.2625 666.6 1206.2 666.8 1204.733203125 671.3236328125 1203.1 675.85 1201.3 680.75 1199.35 685.5 1196.55 689.75 1193.1 696.75 1189.65 703.75 1185.25 708.35 1180.85 712.9 1175.3 709.75 1172.1 709.1 1169.75 706.5 1167.35 703.85 1166.55 700.55 1162.55 683.85 1162.25 666.85 1162 649.85 1164.5 633.85 1164.5 632.4 1164.5 631 1164.5 629.6 1164.45 628.2 1164.75 628.15 1165 628.05 1165.3 627.95 1165.5 627.8
L 1165.75 626.5
Q 1165.45 626.05 1165 625.8 1164.55 625.5 1164.3 625.35
L 1164.25 625.15 1163.95 625.15
Q 1162.1 625.2 1160.25 624.8 1158.45 624.4 1156.7 623.65 1152.8 621.95 1149.25 618.9 1145.65 615.9 1142.5 612.05 1126.55 599.95 1118.4 582.05 1110.25 564.1 1106.7 548.75 1104.2 538.75 1103.4 528.6 1102.6 518.45 1102.5 508.35
L 1102.45 505.2
Q 1102.4 503.65 1102.4 502.05
L 1102.35 500.75
Q 1101.05 500.7 1099.7 500.4 1098.35 500.1 1096.95 499.5 1096.95 499.75 1096.9 499.95 1096.9 500.15 1096.9 500.35 1095.35 499.75 1093.9 499.1 1092.45 498.4 1091.05 497.65 1085.55 496.95 1079 493 1072.4 489.05 1066.7 484.4 1060.95 479.8 1057.95 477.1 1035.45 457.4 1016.3 434.4 997.1 411.4 984.2 387.25 980.95 380.9 979.25 374.05 977.5 367.2 976.25 360.25 969.95 342.7 965.45 324.55 961 306.4 957.95 288.35 957.9 288.05 957.85 287.8
L 957.8 287.25
Q 956.85 283.35 956 279.4 955.15 275.5 954.35 271.65 952.5 264.45 950.15 257.45 947.75 250.45 944.9 243.5
L 944.4 241.85
Q 943.95 240.55 943.5 239.5 943.45 239.05 943.05 238.85 942.7 238.65 942.35 239.25 942.2 239.8 942.35 240.65 942.55 241.5 942.65 242.1 943.1 247.15 943.25 252.1 943.4 257.1 944.15 262.15 946.6 277.65 949.15 293.65 951.75 309.7 955.25 324.95 966.25 371.7 990.5 411.65 1014.7 451.55 1052.4 481.1 1061.3 488.4 1073.3 496.8 1085.25 505.2 1097.1 507.9 1098.2 529.2 1102.45 550.75 1106.7 572.25 1115.8 591.55 1121.25 602.25 1132.9 612.75 1144.6 623.25 1156.85 627.3 1157 639.15 1156.6 650.95 1156.15 662.75 1156.7 674.5 1156.95 680.8 1158.7 689.8 1160.45 698.8 1164.5 706.25 1168.55 713.75 1175.7 715.45 1177.35 715.75 1178.8 715.8 1180.25 715.9 1181.55 715.75
L 1181.5 715.95
Q 1181.8 716.1 1182.1 716.1
L 1182.5 716.05
Q 1183.3 716.1 1184.35 715.6 1185.35 715.1 1186.45 714.3 1187.5 713.7 1188.4 712.9 1189.3 712.1 1190.05 711.15 1190.35 710.85 1190.65 710.55 1190.9 710.25 1191.1 710.05 1202.05 697.2 1209.85 678.35 1217.6 659.55 1222.8 638.65 1228.05 617.8 1231.35 598.75 1235.25 577.45 1238.35 555.4 1241.45 533.35 1243.4 511.45 1247.9 467.55 1252.8 424.65 1257.65 381.8 1255.1 335.55 1252.8 303.15 1244.8 274.5 1236.8 245.8 1223.4 214.5
L 1222.5 212.6
Q 1221.75 211.05 1221.2 209.75 1220.85 209.2 1220.7 208.5
L 1220.45 207.6
Q 1217.75 200.9 1214.1 194.55 Z"/>
</g>

<g id="Symbol_82_0_Layer0_0_FILL">
<path fill="#a6ce38" stroke="none" d="
M 945.5 156.6
Q 944.05 159.35 943.3 160.85
L 942.6 162.35 943.05 177.75
Q 943.6 192.75 946.1 217.45 948.6 242.1 954.35 271.65 955.15 275.5 956 279.4 956.85 283.35 957.8 287.25 959.9 296.25 962.4 305.25 964.9 314.25 967.85 323.15 967.7 322.15 967.6 321.1 967.5 320.05 967.4 319.05 960.35 297.65 956.7 274.95 953.05 252.25 949.55 230.3 946.4 211.9 945.35 193.4 944.3 174.95 945.5 156.6
M 1199.7 179.2
Q 1194.85 169.65 1189.45 160.1 1183.5 150.3 1162.25 135.1 1140.95 119.85 1112.5 105.85 1084.05 91.8 1056.65 85.6 1029.25 79.4 1011.1 87.7 996 95.55 984.2 106.4 972.35 117.2 963.85 128.3 962.6 137.5 962.3 146.7 962.05 155.9 963.85 165.3 964.2 167.05 964.55 168.85 964.95 170.65 965.2 172.45 965.25 172.7 965.35 173.3 965.45 173.9 965.15 174.45 965.3 174.65 965.2 174.95 965.15 175.2 965 175.4 963.15 174.9 961.8 172.6
L 960.35 170
Q 959.4 167.85 958.65 165.5 957.95 163.15 957.45 160.65 956.75 172.5 956.95 184.45 957.2 196.45 958.55 208.8 960.8 230.2 963.5 252.05 966.2 273.95 970.45 295.4 970.55 295.2 970.65 295.05 970.75 294.9 970.9 294.7 972.1 292.75 973.2 292.5 974.3 292.2 975.9 293.65 976.6 294.7 977.3 295.95
L 978.15 297.55
Q 982.95 307 984.75 317.3 986.6 327.65 987.55 338 988.55 337.6 989.45 337.2
L 990.65 336.75
Q 998.55 335.15 1003.15 339.45 1007.7 343.75 1010.75 349.95 1013.8 356.2 1017 360.5 1018.4 362.1 1019.85 361.9 1021.25 361.65 1023.65 361.95 1024 361.5 1024.35 361
L 1025.05 360
Q 1053.45 321.2 1083.55 282.75 1113.65 244.3 1144.35 207.75 1159.9 189.9 1176.5 188.95 1193.1 187.95 1208.8 198.45 1204.55 188.8 1199.7 179.2
M 1208.55 282.05
Q 1208.95 283.85 1212 284.75 1211.85 283.15 1211.5 281.5 1211.1 279.85 1210.55 278.3 1208.15 280.25 1208.55 282.05 Z"/>

<path fill="#0081C6" stroke="none" d="
M 979.25 374.05
Q 977.5 367.2 976.25 360.25 969.95 342.7 965.45 324.55 961 306.4 957.95 288.35 957.9 288.05 957.85 287.8
L 957.8 287.25
Q 956.85 283.35 956 279.4 955.15 275.5 954.35 271.65 952.5 264.45 950.15 257.45 947.75 250.45 944.9 243.5
L 944.4 241.85
Q 943.95 240.55 943.5 239.5 943.45 239.05 943.05 238.85 942.7 238.65 942.35 239.25 942.2 239.8 942.35 240.65 942.55 241.5 942.65 242.1 943.1 247.15 943.25 252.1 943.4 257.1 944.15 262.15 946.6 277.65 949.15 293.65 951.75 309.7 955.25 324.95 961.1 349.55 970.6 372.45 980.05 395.4 993.3 416.1 994.75 414.1 996.2 412.15 997.65 410.2 999.05 408.35 998 406.65 997 404.9 995.95 403.15 994.95 401.4 994.6 401.9 994.25 402.4 993.9 402.85 993.55 403.35 991 399.35 988.65 395.3 986.3 391.3 984.2 387.25 980.95 380.9 979.25 374.05
M 1220.8 208.85
Q 1220.6 208.3 1220.55 207.95 1219.4 209.7 1218.3 211.4 1217.2 213.15 1216.1 214.85 1215.95 215.25 1215.8 215.65 1215.65 216.1 1215.45 216.5
L 1215.85 217.5
Q 1216.05 218 1216.3 218.45 1217.8 217.05 1219.5 215.9 1221.2 214.75 1223.15 213.9 1222.75 213.1 1222.2 211.95 1221.65 210.75 1221.2 209.75 1220.95 209.35 1220.8 208.85 Z"/>

<path fill="#a6ce38" stroke="none" d="
M 977.3 295.95
Q 976.6 294.7 975.9 293.65 974.3 292.2 973.2 292.5 972.1 292.75 970.9 294.7 970.75 294.9 970.65 295.05 970.55 295.2 970.45 295.4 966.2 273.95 963.5 252.05 960.8 230.2 958.55 208.8 957.2 196.45 956.95 184.45 956.75 172.5 957.45 160.65 957.95 163.15 958.65 165.5 959.4 167.85 960.35 170
L 961.8 172.6
Q 963.15 174.9 965 175.4 965.15 175.2 965.2 174.95 965.3 174.65 965.15 174.45 965.45 173.9 965.35 173.3 965.25 172.7 965.2 172.45 964.95 170.65 964.55 168.85 964.2 167.05 963.85 165.3 962.05 155.9 962.3 146.7 962.6 137.5 963.85 128.3 964.9 120.8 966 113.25 967.1 105.75 967.7 98.1 967.85 97.5 967.95 96.05 968.1 94.55 967.4 93.55 966.5 93.45 966.1 94.35 965.75 95.2 965.6 95.95 964.9 98.05 964.25 100.3 963.6 102.55 962.9 105 963.2 102.2 963.6 99.45 963.95 96.65 964.45 93.95 964.65 93.3 965.05 91.75 965.4 90.2 964.75 89.15 963.7 88.85 963.05 89.9 962.45 91 962.05 91.75 957.65 99.25 954.4 107.5 951.1 115.8 949.5 124.4 948 132.4 947 140.45 946 148.5 945.5 156.6 944.3 174.95 945.35 193.4 946.4 211.9 949.55 230.3 953.05 252.25 956.7 274.95 960.35 297.65 967.4 319.05 967.5 320.05 967.6 321.1 967.7 322.15 967.85 323.15 968.65 329.25 969.9 334.95 971.2 340.65 972.65 345.2 973.8 348.8 974.65 352.6 975.5 356.4 976.25 360.25 977.5 367.2 979.25 374.05 980.95 380.9 984.2 387.25 986.3 391.3 988.65 395.3 991 399.35 993.55 403.35 993.9 402.85 994.25 402.4 994.6 401.9 994.95 401.4
L 998.85 396.05
Q 999.65 394.95 1000.45 393.8 1001.25 392.7 1002.05 391.6 1005.3 387.15 1008.55 382.65 1011.8 378.15 1015.1 373.65 1017.2 370.75 1019.35 367.85 1021.5 364.9 1023.65 361.95 1021.25 361.65 1019.85 361.9 1018.4 362.1 1017 360.5 1013.8 356.2 1010.75 349.95 1007.7 343.75 1003.15 339.45 998.55 335.15 990.65 336.75
L 989.45 337.2
Q 988.55 337.6 987.55 338 986.6 327.65 984.75 317.3 982.95 307 978.15 297.55
L 977.3 295.95 Z"/>
</g>

<g id="Symbol_12_0_Layer0_0_FILL">
<path fill="#a6ce38" stroke="none" d="
M 947.85 633.85
L 891.05 633.65 919 845 947.85 633.85 Z"/>
</g>

<g id="Symbol_73_0_Layer0_0_FILL">
<path fill="#a6ce38" stroke="none" d="
M 1015.35 632
L 973.55 634.3 989 819.4 1015.35 632 Z"/>
</g>

<g id="Symbol_88_0_Layer0_0_FILL">
<path fill="#a6ce38" stroke="none" d="
M 793 728.5
L 804.5 735.2
Q 815.8 741.55 835.15 750 854.5 758.4 879 765
L 889.25 742.3
Q 898.45 720.9 910.3 692.8 922.15 664.75 931.1 643.45
L 940.5 621 915.1 609.95 793 728.5 Z"/>
</g>

<g id="Symbol_89_0_Layer0_0_FILL">
<path fill="#0081C6" stroke="none" d="
M 870.5 689.45
Q 870.15 689.5 869.85 689.65 869.5 689.75 869.25 689.85 869.05 690.6 869.8 691.15 870.55 691.7 871.05 692 876.9 695.85 885.4 698.65 893.9 701.45 900.9 702.2 926.7 704.3 952.2 697.05 977.75 689.75 999.65 676.9
L 999.65 677.1
Q 1000.15 677.45 1000.6 677.3 1001.05 677.15 1001.3 676.95 1002.15 676.55 1003.45 675.4 1004.7 674.25 1005.9 673.15 1018.45 665.3 1031.6 653.6 1044.75 641.9 1052 629.55 1054.45 626.9 1056.8 624.3 1059.15 621.7 1061.4 619.1 1063.8 616.3 1066.1 613.4 1068.45 610.55 1070.7 607.55 1092.35 583.35 1107.55 555.95 1122.75 528.55 1130.05 496.15 1133.85 479.6 1136.65 461.6 1139.45 443.55 1139 426.5
L 1138.65 421.35
Q 1138.15 416.95 1135.75 415.95 1135.2 416.1 1134.85 416.45 1134.55 416.8 1134.4 417.2 1134.4 416.2 1134.35 415.2 1134.35 414.2 1134.3 413.2 1134.25 414.5 1134.2 415.85 1134.15 417.2 1134.1 418.55 1133.35 442.05 1128.9 469.15 1124.45 496.25 1114.15 521.3 1108.3 535.45 1096.75 556.5 1085.25 577.6 1068.7 600.95 1052.15 624.3 1031.2 645.1 1026.9 649.35 1022.4 653.3 1017.9 657.3 1013.25 661.05 1012.95 661.25 1012.7 661.45
L 1012.15 661.9
Q 995.8 674.9 977.6 683.45 959.35 691.95 939.5 694.25 919.05 696.35 901.9 694.85 884.7 693.35 870.5 689.45 Z"/>

<path fill="#a6ce38" stroke="none" d="
M 1132.95 367.05
L 1100.75 356.6
Q 1070.4 347.1 1029.8 334.85 989.2 322.6 956.85 313.55
L 931.1 306.8 918.7 304.55 914.9 317.5 907.45 348.5
Q 898.25 388.5 882.25 445.95 866.3 503.4 844 559.7 821.7 615.95 793.6 652.5 800 654.55 810.25 661.2 820.5 667.85 835.35 675.75 850.2 683.7 870.5 689.45 884.7 693.35 901.9 694.85 919.05 696.35 939.5 694.25 959.35 691.95 977.6 683.45 995.8 674.9 1012.15 661.9
L 1012.7 661.45
Q 1012.95 661.25 1013.25 661.05 1017.9 657.3 1022.4 653.3 1026.9 649.35 1031.2 645.1 1052.15 624.3 1068.7 600.95 1085.25 577.6 1096.75 556.5 1108.3 535.45 1114.15 521.3 1124.45 496.25 1128.9 469.15 1133.35 442.05 1134.1 418.55 1134.15 417.2 1134.2 415.85 1134.25 414.5 1134.3 413.2 1134.75 392.9 1134 380.35
L 1132.95 367.05 Z"/>
</g>

<g id="Symbol_90_0_Layer0_0_FILL">
<path fill="#a6ce38" stroke="none" d="
M 951.9 319.5
Q 953.8 315.25 955.7 310.8
L 956.75 308.3
Q 957.55 306.1 956.4 304.45 954.8 302.95 953.5 303.9 952.25 304.85 951.25 306.7 946.55 314.4 941.75 322.1 936.95 329.8 932.2 337.55 931.15 339.2 930.15 340.85 929.15 342.5 928.15 344.15 925.55 348.45 922.95 352.75 920.35 357.05 917.8 361.35 918.4 362.25 918.95 363.15 919.5 364 920 364.85 920.3 365.35 920.55 365.85 920.8 366.35 921.05 366.85 921.65 368 922.2 369.15 922.7 370.3 923.1 371.45 923.3 371.9 923.45 372.3 923.6 372.75 923.7 373.2 924.1 374.55 924.4 375.85 924.65 377.15 924.8 378.5 927.6 373.9 930.25 369.3 932.85 364.7 935.25 360.05 935.4 359.7 935.6 359.4
L 935.95 358.7
Q 937.4 355.85 940.1 350.1 942.8 344.35 945 338.5 945.95 336.55 946.7 334.65 947.45 332.8 947.95 331.05 948.1 330.65 948.1 329.7 948.15 328.8 947.95 327.8 949.95 323.7 951.9 319.5 Z"/>

<path fill="#a6ce38" stroke="none" d="
M 1001.3 267.15
Q 985.7 268.95 976.15 274.55 966.6 280.1 962.25 285.1 959.1 288.5 953.6 297.6 948.1 306.65 942.25 317.6 936.4 328.5 932.2 337.55 936.95 329.8 941.75 322.1 946.55 314.4 951.25 306.7 952.25 304.85 953.5 303.9 954.8 302.95 956.4 304.45 957.55 306.1 956.75 308.3
L 955.7 310.8
Q 953.8 315.25 951.9 319.5 949.95 323.7 947.95 327.8 948.15 328.8 948.1 329.7 948.1 330.65 947.95 331.05 947.45 332.8 946.7 334.65 945.95 336.55 945 338.5 942.8 344.35 940.1 350.1 937.4 355.85 935.95 358.7
L 935.6 359.4
Q 935.4 359.7 935.25 360.05 944.95 366.95 960.5 372.65 976.05 378.3 991.55 380.55 1008.1 382.65 1024.7 381.35 1041.25 380.05 1053.4 375.85 1065.55 371.6 1068.75 365 1068.7 361.05 1068.35 351.95 1068 342.85 1066.8 331.2 1065.55 319.5 1062.85 307.75 1053.05 321.4 1044.85 336 1036.7 350.6 1029.9 366.5
L 1028.35 369.4
Q 1027.15 371.45 1026 372.3 1024.85 373.15 1024.6 370.25
L 1024.65 369.05
Q 1024.75 368.15 1024.9 367.45 1025.15 366.95 1025.4 366.3
L 1025.7 365.5
Q 1028.9 357.75 1032.9 349.9 1036.9 342 1040.95 334.65 1045.55 326.3 1050.7 318.4 1055.9 310.55 1061.65 303.1 1058.5 291.4 1053.15 282.85 1047.75 274.3 1039.5 271.65 1016.95 265.35 1001.3 267.15 Z"/>

<path fill="#0081C6" stroke="none" d="
M 1079.5 286.6
Q 1082.55 283 1085.95 279.1 1089.4 275.2 1092.9 272
L 1093.8 271.2
Q 1094.45 270.6 1094.9 270.05 1094.65 269.95 1094.3 269.85
L 1093.85 269.75
Q 1091.85 269.8 1089.45 272.2 1087 274.6 1085.65 276.1 1079.2 282.5 1073.2 289.25 1067.15 296 1061.65 303.1 1055.9 310.55 1050.7 318.4 1045.55 326.3 1040.95 334.65 1036.9 342 1032.9 349.9 1028.9 357.75 1025.7 365.5
L 1025.4 366.3
Q 1025.15 366.95 1024.9 367.45 1024.75 368.15 1024.65 369.05
L 1024.6 370.25
Q 1024.85 373.15 1026 372.3 1027.15 371.45 1028.35 369.4
L 1029.9 366.5
Q 1036.7 350.6 1044.85 336 1053.05 321.4 1062.85 307.75 1066.7 302.35 1070.85 297.05 1075.05 291.8 1079.5 286.6 Z"/>
</g>

<g id="Symbol_78_0_Layer0_0_FILL">
<path fill="#0081C6" stroke="none" d="
M 1010.6 309.3
L 1009.6 307.45 1008.25 305.8 1006.65 304.45 1004.75 303.45 1002.75 302.85 1000.6 302.65 998.5 302.85 996.5 303.45 994.6 304.45 993 305.8 991.65 307.45 990.65 309.3 990 311.35 989.8 313.45 990 315.55 990.65 317.6 991.65 319.45 993 321.1 994.6 322.45 996.5 323.45 998.5 324.05 1000.6 324.25 1002.75 324.05 1004.75 323.45 1006.65 322.45 1008.25 321.1 1009.6 319.45 1010.6 317.6 1011.25 315.55 1011.45 313.45 1011.25 311.35 1010.6 309.3 Z"/>
</g>

<g id="Symbol_27_0_Layer0_0_FILL">
<path fill="#a6ce38" stroke="none" d="
M 1040.4 290.7
Q 1036.7 285.45 1029.15 285.1 1020.3 285.55 1015.95 292.1 1011.65 298.6 1010.8 306.75
L 1046.25 307 1045.2 301.3
Q 1044.1 296 1040.4 290.7 Z"/>
</g>

<g id="Symbol_79_0_Layer0_0_FILL">
<path fill="#a6ce38" stroke="none" d="
M 975.9 293.65
Q 974.3 292.2 973.2 292.5 972.1 292.75 970.9 294.7 967.85 299.7 967.3 307.25 966.75 314.8 967.85 323.15 968.65 329.25 969.9 334.95 971.2 340.65 972.65 345.2 973.8 348.8 974.65 352.6 975.5 356.35 976.25 360.25 977.5 367.2 979.25 374.05 980.95 380.9 984.2 387.25 997.1 411.4 1016.3 434.4 1035.45 457.4 1057.95 477.1 1060.95 479.8 1066.7 484.4 1072.4 489.05 1079 493 1085.55 496.95 1091.05 497.65 1091.65 497.7 1092.2 497.7 1092.75 497.7 1093.3 497.65 1094.2 498.2 1095.15 498.7 1096.05 499.15 1096.95 499.5 1098.35 500.1 1099.7 500.4 1101.05 500.7 1102.35 500.75
L 1102.4 502.05
Q 1102.4 503.65 1102.45 505.2
L 1102.5 508.35
Q 1102.6 518.45 1103.4 528.6 1104.2 538.75 1106.7 548.75 1110.25 564.1 1118.4 582.05 1126.55 599.95 1142.5 612.05 1145.65 615.9 1149.25 618.9 1152.8 621.95 1156.7 623.65 1158.45 624.4 1160.25 624.8 1162.1 625.2 1163.95 625.15
L 1164.25 625.15
Q 1164.7 625.15 1165.15 625.1 1165.6 625.05 1166 625 1165.95 625.35 1165.9 625.75 1165.8 626.1 1165.75 626.5
L 1165.5 627.8
Q 1165.25 629.3 1165 630.8 1164.75 632.3 1164.5 633.85 1162 649.85 1162.25 666.85 1162.55 683.85 1166.55 700.55 1167.35 703.85 1169.75 706.5 1172.1 709.1 1175.3 709.75 1176.7 710.05 1178.2 709.7 1179.7 709.4 1181.15 708.4 1189.5 702.05 1195.6 690.55 1201.65 679.05 1205.05 669.75 1205.4 668.9 1205.75 668 1205.979296875 667.4103515625 1206.2 666.8 1206.2625 666.6 1206.3 666.4 1206.36171875 666.2697265625 1206.4 666.15 1208.7 660 1210.65 653.4 1212.6 646.8 1214 639.85 1215.75 631.2 1216.3 622.4 1216.85 613.55 1215.8 604.9 1215.75 604.35 1215.65 603.85 1215.6 603.3 1215.5 602.8 1215.3 601.55 1215.1 600.35 1214.9 599.1 1214.7 597.85 1215.85 583.65 1216 568.3 1216.1 553 1212.65 538.75
L 1212.15 537.15
Q 1211.7 535.9 1211.25 534.85 1210.8 534.2 1210.3 533.95 1209.75 533.65 1209.1 534.1
L 1208.55 535.65 1208.15 538.8
Q 1207.9 542.75 1207.8 547
L 1207.7 552.8
Q 1207.65 554.3 1207.6 555.8 1207.55 557.35 1207.5 558.85 1207.15 559.35 1206.95 559.85 1206.75 560.35 1206.65 560.65 1204.2 567.45 1204.1 575.95 1204 584.45 1204.75 592.45 1203.9 599.2 1202.8 606 1201.75 612.75 1200.45 619.6 1200.25 620.6 1199.85 622.4 1199.4 624.2 1198.95 626.45 1198.8 625.1 1198.6 623.75 1198.45 622.4 1198.2 621 1197.3 616.55 1195.45 611.6 1193.55 606.6 1192.95 602.65
L 1192.85 598.55
Q 1192.6 595.45 1189.3 593.8 1188.9 593.55 1188.3 593.35 1187.7 593.15 1187 593.1 1188.85 579.35 1188.2 564.15 1187.5 549 1180.85 538.35
L 1179.7 536.7
Q 1178.75 535.45 1177.85 534.5 1177.15 534.1 1176.7 533.6 1176.2 533.05 1175.4 532.95 1174.85 533 1174.5 533.4
L 1174.05 534
Q 1173.45 534.75 1173.05 536.65 1172.7 538.6 1172.5 541.05 1166.75 526.85 1161.7 512.5 1156.65 498.15 1150.65 484 1147.6 476.45 1144 467.35 1140.4 458.25 1135.65 451.4
L 1134.15 449.7
Q 1133 448.45 1131.75 447.55 1131.3 447.3 1130.85 446.95
L 1130.3 446.6
Q 1125.15 444 1120.2 444.8 1115.25 445.55 1113.45 449.4 1112.55 437.3 1110.25 425.05 1107.9 412.75 1102.7 402.45
L 1101.75 400.9
Q 1101 399.65 1100.45 398.55 1099.3 397.5 1098.3 397.05 1097.35 396.55 1096.3 398.9 1094.75 403.35 1094.8 409.9 1094.85 416.5 1095.25 421.55 1095.6 427.45 1096.15 433.35 1096.7 439.3 1097.35 445.25 1093.35 437 1088.65 428.8 1083.95 420.6 1078.65 412.65 1074.9 406.25 1070.35 399.65 1065.75 393.1 1057.4 391.05 1056.5 390.9 1054.75 391
L 1052.75 391.05
Q 1051.7 390.45 1050.6 388.75 1049.55 387.05 1048.85 386.05 1044.75 380.35 1037.9 372.35 1031 364.35 1024 362.05 1021.45 361.6 1019.95 361.9 1018.45 362.15 1017 360.5 1013.8 356.2 1010.75 349.95 1007.7 343.75 1003.15 339.45 998.55 335.15 990.65 336.75
L 989.45 337.2
Q 988.55 337.6 987.55 338 986.6 327.65 984.75 317.3 982.95 307 978.15 297.55
L 977.3 295.95
Q 976.6 294.7 975.9 293.65
M 1191.8 620.8
Q 1192.05 621.9 1192 623.2
L 1191.95 624.8
Q 1192.05 628.5 1191.9 632.2 1191.75 635.95 1191 639.45
L 1191 640.1
Q 1191 640.6 1190.7 640.9 1190.5 640.1 1190.6 638.85 1190.75 637.65 1190.8 637.15 1191 633.5 1191.2 629.8 1191.4 626.15 1191.6 622.5 1191.55 622.25 1191.55 621.65 1191.55 621.1 1191.8 620.8
M 1158.25 598.35
L 1159.1 598.65
Q 1159.15 598.95 1159.1 599.3 1159.1 599.65 1158.65 599.5 1158.4 599.35 1157.95 598.95 1157.55 598.5 1157.5 598.25
L 1158.25 598.35 Z"/>

<path fill="#a6ce38" stroke="none" d="
M 1192 623.2
Q 1192.05 621.9 1191.8 620.8 1191.55 621.1 1191.55 621.65 1191.55 622.25 1191.6 622.5 1191.4 626.15 1191.2 629.8 1191 633.5 1190.8 637.15 1190.75 637.65 1190.6 638.85 1190.5 640.1 1190.7 640.9 1191 640.6 1191 640.1
L 1191 639.45
Q 1191.75 635.95 1191.9 632.2 1192.05 628.5 1191.95 624.8
L 1192 623.2
M 1206.25 192.75
Q 1202.45 184.55 1198.25 176.4 1194.05 168.25 1189.45 160.1 1183.5 150.3 1162.25 135.1 1140.95 119.85 1112.5 105.85 1084.05 91.8 1056.65 85.6 1029.25 79.4 1011.1 87.7 988.45 99.9 973.2 117.25 958 134.6 950.3 148.1
L 942.6 162.35 943.05 177.75
Q 943.6 192.75 946.1 217.45 948.6 242.1 954.35 271.65 955.15 275.5 956 279.4 956.85 283.35 957.8 287.25 959.9 296.25 962.4 305.25 964.9 314.25 967.85 323.15 966.75 314.8 967.3 307.25 967.85 299.7 970.9 294.7 972.1 292.75 973.2 292.5 974.3 292.2 975.9 293.65 976.6 294.7 977.3 295.95
L 978.15 297.55
Q 982.95 307 984.75 317.3 986.6 327.65 987.55 338 988.55 337.6 989.45 337.2
L 990.65 336.75
Q 998.55 335.15 1003.15 339.45 1007.7 343.75 1010.75 349.95 1013.8 356.2 1017 360.5 1018.45 362.15 1019.95 361.9 1021.45 361.6 1024 362.05 1031 364.35 1037.9 372.35 1044.75 380.35 1048.85 386.05 1049.55 387.05 1050.6 388.75 1051.7 390.45 1052.75 391.05
L 1054.75 391
Q 1056.5 390.9 1057.4 391.05 1065.75 393.1 1070.35 399.65 1074.9 406.25 1078.65 412.65 1083.95 420.6 1088.65 428.8 1093.35 437 1097.35 445.25 1096.7 439.3 1096.15 433.35 1095.6 427.45 1095.25 421.55 1094.85 416.5 1094.8 409.9 1094.75 403.35 1096.3 398.9 1097.35 396.55 1098.3 397.05 1099.3 397.5 1100.45 398.55 1101 399.65 1101.75 400.9
L 1102.7 402.45
Q 1107.9 412.75 1110.25 425.05 1112.55 437.3 1113.45 449.4 1115.25 445.55 1120.2 444.8 1125.15 444 1130.3 446.6
L 1130.85 446.95
Q 1131.3 447.3 1131.75 447.55 1133 448.45 1134.15 449.7
L 1135.65 451.4
Q 1140.4 458.25 1144 467.35 1147.6 476.45 1150.65 484 1156.65 498.15 1161.7 512.5 1166.75 526.85 1172.5 541.05 1172.7 538.6 1173.05 536.65 1173.45 534.75 1174.05 534
L 1174.5 533.4
Q 1174.85 533 1175.4 532.95 1176.2 533.05 1176.7 533.6 1177.15 534.1 1177.85 534.5 1178.75 535.45 1179.7 536.7
L 1180.85 538.35
Q 1187.5 549 1188.2 564.15 1188.85 579.35 1187 593.1 1187.7 593.15 1188.3 593.35 1188.9 593.55 1189.3 593.8 1192.6 595.45 1192.85 598.55
L 1192.95 602.65
Q 1193.55 606.6 1195.45 611.6 1197.3 616.55 1198.2 621 1198.45 622.4 1198.6 623.75 1198.8 625.1 1198.95 626.45 1199.4 624.2 1199.85 622.4 1200.25 620.6 1200.45 619.6 1201.75 612.75 1202.8 606 1203.9 599.2 1204.75 592.45 1204 584.45 1204.1 575.95 1204.2 567.45 1206.65 560.65 1206.75 560.35 1206.95 559.85 1207.15 559.35 1207.5 558.85 1207.55 557.35 1207.6 555.8 1207.65 554.3 1207.7 552.8
L 1207.8 547
Q 1207.9 542.75 1208.15 538.8
L 1208.55 535.65 1209.1 534.1
Q 1209.75 533.65 1210.3 533.95 1210.8 534.2 1211.25 534.85 1211.7 535.9 1212.15 537.15
L 1212.65 538.75
Q 1216.1 553 1216 568.3 1215.85 583.65 1214.7 597.85 1214.9 599.1 1215.1 600.35 1215.3 601.55 1215.5 602.8 1215.6 603.3 1215.65 603.85 1215.75 604.35 1215.8 604.9 1219.6 592.15 1223.55 577.35 1227.5 562.55 1231.3 545.9 1240.4 507.25 1245.65 460.75 1250.85 414.3 1248.1 362.8 1246.25 331.5 1240.2 299.15 1234.15 266.8 1222.9 234.1 1219.35 223.75 1215.15 213.4 1211 203.1 1206.25 192.75 Z"/>

<path fill="#0081C6" stroke="none" d="
M 1214.1 194.55
Q 1210.5 188.2 1206.45 182.6 1205.85 181.6 1204.4 179.5 1202.9 177.45 1201.45 177 1201 177.75 1201.4 178.9 1201.85 180.05 1202.1 180.65 1203.1 183.75 1204.15 186.75 1205.2 189.8 1206.25 192.75 1211 203.1 1215.15 213.4 1219.35 223.75 1222.9 234.1 1236.25 267.6 1242.1 299.45 1247.9 331.3 1248.1 362.8 1250.85 414.3 1245.65 460.75 1240.4 507.25 1231.3 545.9 1228.15 570.05 1223.95 593.6 1219.75 617.15 1214 639.85 1212.6 646.8 1210.65 653.4 1208.7 660 1206.4 666.15 1206.36171875 666.2697265625 1206.3 666.4 1206.2625 666.6 1206.2 666.8 1204.733203125 671.3236328125 1203.1 675.85 1201.3 680.75 1199.35 685.5 1196.55 689.75 1193.1 696.75 1189.65 703.75 1185.25 708.35 1180.85 712.9 1175.3 709.75 1172.1 709.1 1169.75 706.5 1167.35 703.85 1166.55 700.55 1162.55 683.85 1162.25 666.85 1162 649.85 1164.5 633.85 1164.5 632.4 1164.5 631 1164.5 629.6 1164.45 628.2 1164.75 628.15 1165 628.05 1165.3 627.95 1165.5 627.8
L 1165.75 626.5
Q 1165.45 626.05 1165 625.8 1164.55 625.5 1164.3 625.35
L 1164.25 625.15 1163.95 625.15
Q 1162.1 625.2 1160.25 624.8 1158.45 624.4 1156.7 623.65 1152.8 621.95 1149.25 618.9 1145.65 615.9 1142.5 612.05 1126.55 599.95 1118.4 582.05 1110.25 564.1 1106.7 548.75 1104.2 538.75 1103.4 528.6 1102.6 518.45 1102.5 508.35
L 1102.45 505.2
Q 1102.4 503.65 1102.4 502.05
L 1102.35 500.75
Q 1101.05 500.7 1099.7 500.4 1098.35 500.1 1096.95 499.5 1096.95 499.75 1096.9 499.95
L 1096.9 500.35
Q 1095.35 499.75 1093.9 499.1 1092.45 498.4 1091.05 497.65 1085.55 496.95 1079 493 1072.4 489.05 1066.7 484.4 1060.95 479.8 1057.95 477.1 1035.45 457.4 1016.3 434.4 997.1 411.4 984.2 387.25 980.95 380.9 979.25 374.05 977.5 367.2 976.25 360.25 969.95 342.7 965.45 324.55 961 306.4 957.95 288.35 957.9 288.05 957.85 287.8
L 957.8 287.25
Q 956.85 283.35 956 279.4 955.15 275.5 954.35 271.65 952.5 264.45 950.15 257.45 947.75 250.45 944.9 243.5
L 944.4 241.85
Q 943.95 240.55 943.5 239.5 943.45 239.05 943.05 238.85 942.7 238.65 942.35 239.25 942.2 239.8 942.35 240.65 942.55 241.5 942.65 242.1 943.1 247.15 943.25 252.1 943.4 257.1 944.15 262.15 946.6 277.65 949.15 293.65 951.75 309.7 955.25 324.95 966.25 371.7 990.5 411.65 1014.7 451.55 1052.4 481.1 1061.3 488.4 1073.3 496.8 1085.25 505.2 1097.1 507.9 1098.2 529.2 1102.45 550.75 1106.7 572.25 1115.8 591.55 1121.25 602.25 1132.9 612.75 1144.6 623.25 1156.85 627.3 1157 639.15 1156.6 650.95 1156.15 662.75 1156.7 674.5 1156.95 680.8 1158.7 689.8 1160.45 698.8 1164.5 706.25 1168.55 713.75 1175.7 715.45 1177.35 715.75 1178.8 715.8 1180.25 715.9 1181.55 715.75
L 1181.5 715.95
Q 1181.8 716.1 1182.1 716.1
L 1182.5 716.05
Q 1183.3 716.1 1184.35 715.6 1185.35 715.1 1186.45 714.3 1187.5 713.7 1188.4 712.9 1189.3 712.1 1190.05 711.15 1190.35 710.85 1190.65 710.55 1190.9 710.25 1191.1 710.05 1202.05 697.2 1209.85 678.35 1217.6 659.55 1222.8 638.65 1228.05 617.8 1231.35 598.75 1235.25 577.45 1238.35 555.4 1241.45 533.35 1243.4 511.45 1247.9 467.55 1252.8 424.65 1257.65 381.8 1255.1 335.55 1252.8 303.15 1244.8 274.5 1236.8 245.8 1223.4 214.5
L 1222.5 212.6
Q 1221.75 211.05 1221.2 209.75 1220.85 209.2 1220.7 208.5
L 1220.45 207.6
Q 1217.75 200.9 1214.1 194.55 Z"/>
</g>
</defs>



<g transform="matrix( 0.5837249755859375, -0.434356689453125, 0.53802490234375, 0.6246185302734375, 252.45,719.5) ">
<g transform="matrix( 1, 0, 0, 1, 0,0) ">
<use xlink:href="#Symbol_30_0_Layer0_0_FILL"/>
</g>
</g>

<g transform="matrix( 0.66680908203125, 0, 0, 0.66680908203125, 336.3,266.95) ">
<g transform="matrix( 1, 0, 0, 1, 0,0) ">
<use xlink:href="#Symbol_28_0_Layer0_0_FILL"/>
</g>
</g>

<g transform="matrix( 0.666015625, 0.0336456298828125, -0.0336456298828125, 0.666015625, 407.15,290.55) ">
<g transform="matrix( 1, 0, 0, 1, 0,0) ">
<use xlink:href="#Symbol_39_0_Layer0_0_FILL"/>
</g>
</g>

<g transform="matrix( 0.6328125, 0.310638427734375, -0.310638427734375, 0.6328125, 609.3,-32.75) ">
<g transform="matrix( 1, 0, 0, 1, 0,0) ">
<use xlink:href="#Symbol_40_0_Layer0_0_FILL"/>
</g>
</g>

<g transform="matrix( 0.6328125, 0.310638427734375, -0.310638427734375, 0.6328125, 609.3,-32.75) ">
<g transform="matrix( 1, 0, 0, 1, 0,0) ">
<use xlink:href="#Symbol_41_0_Layer0_0_FILL"/>
</g>
</g>

<g transform="matrix( 0.675537109375, 0.20147705078125, -0.20147705078125, 0.675537109375, 498.2,63.25) ">
<g transform="matrix( 1, 0, 0, 1, 0,0) ">
<use xlink:href="#Symbol_42_0_Layer0_0_FILL"/>
</g>
</g>

<g transform="matrix( 0.6328125, 0.310638427734375, -0.310638427734375, 0.6328125, 606.25,-29.5) ">
<g transform="matrix( 1, 0, 0, 1, 0,0) ">
<use xlink:href="#Symbol_43_0_Layer0_0_FILL"/>
</g>
</g>

<g transform="matrix( 0.6328125, 0.310638427734375, -0.310638427734375, 0.6328125, 606.25,-29.5) ">
<g transform="matrix( 1, 0, 0, 1, 0,0) ">
<use xlink:href="#Symbol_44_0_Layer0_0_FILL"/>
</g>
</g>

<g transform="matrix( 0.4288482666015625, -0.3148040771484375, 0.359588623046875, 0.4898681640625, 435.1,619.1) ">
<g transform="matrix( 1, 0, 0, 1, 0,0) ">
<use xlink:href="#Symbol_29_0_Layer0_0_FILL"/>
</g>
</g>

<g transform="matrix( 0.54925537109375, 0.3786773681640625, -0.3786773681640625, 0.54925537109375, 541.45,2.45) ">
<g transform="matrix( 1, 0, 0, 1, 0,0) ">
<use xlink:href="#Symbol_31_0_Layer0_0_FILL"/>
</g>
</g>

<g transform="matrix( 0.667144775390625, 0, -0.2068328857421875, 0.699127197265625, 573.6,237.95) ">
<g transform="matrix( 1, 0, 0, 1, 0,0) ">
<use xlink:href="#Symbol_48_0_Layer0_0_FILL"/>
</g>
</g>

<g transform="matrix( 0.667144775390625, 0, -0.2068328857421875, 0.699127197265625, 518.8,252.65) ">
<g transform="matrix( 1, 0, 0, 1, 0,0) ">
<use xlink:href="#Symbol_32_0_Layer0_0_FILL"/>
</g>
</g>

<g transform="matrix( 0.667144775390625, 0, -0.028289794921875, 0.699127197265625, 244.95,256.2) ">
<g transform="matrix( 1, 0, 0, 1, 0,0) ">
<use xlink:href="#Symbol_49_0_Layer0_0_FILL"/>
</g>
</g>

<g transform="matrix( 0.6428070068359375, 0.1605377197265625, -0.1807403564453125, 0.680450439453125, 450.75,122.4) ">
<g transform="matrix( 1, 0, 0, 1, 0,0) ">
<use xlink:href="#Symbol_33_0_Layer0_0_FILL"/>
</g>
</g>

<g transform="matrix( 0.6427459716796875, -0.106903076171875, 0.1094512939453125, 0.6580963134765625, 293.6,378.2) ">
<g transform="matrix( 1, 0, 0, 1, 0,0) ">
<use xlink:href="#Symbol_91_0_Layer0_0_FILL"/>
</g>
</g>

<g transform="matrix( 0.61724853515625, 0.253143310546875, -0.253143310546875, 0.61724853515625, 440,82.6) ">
<g transform="matrix( 1, 0, 0, 1, 0,0) ">
<use xlink:href="#Symbol_46_0_Layer0_0_FILL"/>
</g>
</g>

<g transform="matrix( 0.61724853515625, 0.253143310546875, -0.2196044921875, 0.5354766845703125, 455.5,108.95) ">
<g transform="matrix( 1, 0, 0, 1, 0,0) ">
<use xlink:href="#Symbol_47_0_Layer0_0_FILL"/>
</g>
</g>

<g transform="matrix( 0.61724853515625, 0.253143310546875, -0.253143310546875, 0.61724853515625, 463.2,82) ">
<g transform="matrix( 1, 0, 0, 1, 0,0) ">
<use xlink:href="#Symbol_34_0_Layer0_0_FILL"/>
</g>
</g>

<g transform="matrix( 0.0370941162109375, -0.11279296875, -0.11279296875, -0.0370941162109375, 917.15,526.3) ">
<g transform="matrix( 1, 0, 0, 1, 0,0) ">
<use xlink:href="#Symbol_81_0_Layer0_0_FILL"/>
</g>
</g>

<g transform="matrix( -0.1330718994140625, -0.0302581787109375, -0.0302581787109375, 0.1330718994140625, 1092.25,369.5) ">
<g transform="matrix( 1, 0, 0, 1, 0,0) ">
<use xlink:href="#Symbol_16_0_Layer0_0_FILL"/>
</g>
</g>

<g transform="matrix( -0.126190185546875, -0.0519561767578125, -0.0519561767578125, 0.126190185546875, 1100.55,394.95) ">
<g transform="matrix( 1, 0, 0, 1, 0,0) ">
<use xlink:href="#Symbol_64_0_Layer0_0_FILL"/>
</g>
</g>

<g transform="matrix( -0.1335296630859375, -0.0661163330078125, -0.0661163330078125, 0.1335296630859375, 1109.45,393.1) ">
<g transform="matrix( 1, 0, 0, 1, 0,0) ">
<use xlink:href="#Symbol_83_0_Layer0_0_FILL"/>
</g>
</g>

<g transform="matrix( -0.201934814453125, 0.01641845703125, 0.0104522705078125, 0.1200714111328125, 1135.6,339.65) ">
<g transform="matrix( 1, 0, 0, 1, 0,0) ">
<use xlink:href="#Symbol_84_0_Layer0_0_FILL"/>
</g>
</g>

<g transform="matrix( -0.103668212890625, -0.0579681396484375, -0.0579681396484375, 0.103668212890625, 1079,408.1) ">
<g transform="matrix( 1, 0, 0, 1, 0,0) ">
<use xlink:href="#Symbol_85_0_Layer0_0_FILL"/>
</g>
</g>

<g transform="matrix( -0.0833587646484375, -0.06939697265625, -0.055694580078125, 0.1294097900390625, 1055.75,397.8) ">
<g transform="matrix( 1, 0, 0, 1, 0,0) ">
<use xlink:href="#Symbol_69_0_Layer0_0_FILL"/>
</g>
</g>

<g transform="matrix( -0.082550048828125, -0.08538818359375, -0.08538818359375, 0.082550048828125, 1070.65,430.95) ">
<g transform="matrix( 1, 0, 0, 1, 0,0) ">
<use xlink:href="#Symbol_23_0_Layer0_0_FILL"/>
</g>
</g>

<g transform="matrix( 1.0266876220703125, -0.03729248046875, 0.03729248046875, 1.0266876220703125, -23.35,92.3) ">
<g transform="matrix( 1, 0, 0, 1, 0,0) ">
<use xlink:href="#Symbol_86_0_Layer0_0_FILL"/>
</g>
</g>

<g transform="matrix( 1.0266876220703125, -0.03729248046875, 0.03729248046875, 1.0266876220703125, -22.4,87.5) ">
<g transform="matrix( 1, 0, 0, 1, 0,0) ">
<use xlink:href="#Symbol_87_0_Layer0_0_FILL"/>
</g>
</g>

<g transform="matrix( 1.0266876220703125, -0.03729248046875, 0.03729248046875, 1.0266876220703125, -34.75,86.55) ">
<g transform="matrix( 1, 0, 0, 1, 0,0) ">
<use xlink:href="#Symbol_60_0_Layer0_0_FILL"/>
</g>
</g>

<g transform="matrix( 1.0266876220703125, -0.03729248046875, 0.03729248046875, 1.0266876220703125, -30.8,86.85) ">
<g transform="matrix( 1, 0, 0, 1, 0,0) ">
<use xlink:href="#Symbol_71_0_Layer0_0_FILL"/>
</g>
</g>

<g transform="matrix( 0.0537261962890625, -0.0957489013671875, -0.0957489013671875, -0.0537261962890625, 918.85,512.3) ">
<g transform="matrix( 1, 0, 0, 1, 0,0) ">
<use xlink:href="#Symbol_72_0_Layer0_0_FILL"/>
</g>
</g>

<g transform="matrix( 0.037109375, -0.1128387451171875, -0.1128387451171875, -0.037109375, 917.15,526.3) ">
<g transform="matrix( 1, 0, 0, 1, 0,0) ">
<use xlink:href="#Symbol_82_0_Layer0_0_FILL"/>
</g>
</g>

<g transform="matrix( -0.1331329345703125, -0.0302734375, -0.0302734375, 0.1331329345703125, 1092.3,369.45) ">
<g transform="matrix( 1, 0, 0, 1, 0,0) ">
<use xlink:href="#Symbol_12_0_Layer0_0_FILL"/>
</g>
</g>

<g transform="matrix( -0.126251220703125, -0.051971435546875, -0.051971435546875, 0.126251220703125, 1100.6,394.9) ">
<g transform="matrix( 1, 0, 0, 1, 0,0) ">
<use xlink:href="#Symbol_73_0_Layer0_0_FILL"/>
</g>
</g>

<g transform="matrix( -0.2020111083984375, 0.01641845703125, 0.010467529296875, 0.1201171875, 1135.7,339.6) ">
<g transform="matrix( 1, 0, 0, 1, 0,0) ">
<use xlink:href="#Symbol_88_0_Layer0_0_FILL"/>
</g>
</g>

<g transform="matrix( -0.10369873046875, -0.0579986572265625, -0.0579986572265625, 0.10369873046875, 1079.05,408.05) ">
<g transform="matrix( 1, 0, 0, 1, 0,0) ">
<use xlink:href="#Symbol_89_0_Layer0_0_FILL"/>
</g>
</g>

<g transform="matrix( -0.1335906982421875, -0.066131591796875, -0.066131591796875, 0.1335906982421875, 1109.5,393.05) ">
<g transform="matrix( 1, 0, 0, 1, 0,0) ">
<use xlink:href="#Symbol_90_0_Layer0_0_FILL"/>
</g>
</g>

<g transform="matrix( -0.0833892822265625, -0.0694122314453125, -0.05572509765625, 0.12945556640625, 1055.8,397.75) ">
<g transform="matrix( 1, 0, 0, 1, 0,0) ">
<use xlink:href="#Symbol_78_0_Layer0_0_FILL"/>
</g>
</g>

<g transform="matrix( -0.08258056640625, -0.085418701171875, -0.085418701171875, 0.08258056640625, 1070.7,430.9) ">
<g transform="matrix( 1, 0, 0, 1, 0,0) ">
<use xlink:href="#Symbol_27_0_Layer0_0_FILL"/>
</g>
</g>

<g transform="matrix( 0.053741455078125, -0.0957794189453125, -0.0957794189453125, -0.053741455078125, 918.85,512.25) ">
<g transform="matrix( 1, 0, 0, 1, 0,0) ">
<use xlink:href="#Symbol_79_0_Layer0_0_FILL"/>
</g>
</g>
</svg>
