
<svg xmlns="http://www.w3.org/2000/svg" version="1.1" xmlns:xlink="http://www.w3.org/1999/xlink" preserveAspectRatio="none" x="0px" y="0px" width="760px" height="880px" viewBox="614 10 760 880">
<defs>


<g id="Symbol_63_0_Layer0_0_FILL">
<path fill="#82bc00" stroke="none" d="
M 1028.9 506.05
Q 1028.7 506.15 1028.55 506.25 1027.6 506.85 1026.65 507.45 1025.7 508.1 1024.75 508.7 1023.35 509.65 1021.9 510.65 1020.5 511.65 1019.05 512.7
L 1019.55 512.6
Q 1020.05 512.5 1020.55 512.45 1021.05 512.4 1021.5 512.35 1023.45 510.7 1025.35 509.05 1027.3 507.4 1029.25 505.85
L 1028.9 506.05
M 683.45 168.3
Q 681 166.95 678 166.05 674.95 165.1 672.1 165.55 671.5 165.4 670.75 165.45
L 669.8 165.55
Q 656.9 167.15 653.05 174.8 649.2 182.4 651.25 193.05 653.35 203.75 658.25 214.6 659.4 220.2 661.75 226.4 664.05 232.65 667.2 239.05 659.35 234.45 650.4 233.95 641.5 233.45 636.8 243.55
L 636.65 244.1
Q 636.5 244.6 636.3 245 635.95 246.1 635.65 247.5
L 635.3 249.2
Q 634.05 256.45 634.7 264.3 635.35 272.15 637.75 279.35 641.95 296.9 652.85 316.45 663.7 335.95 676.35 353.6 689 371.2 698.6 383.15 703.45 389.3 708.55 395.05 713.6 400.8 718.85 406.15 714.65 407.95 711.6 411.2 708.5 414.4 706.2 418.65 705.4 420.15 704.7 421.7 704.05 423.2 703.5 424.75 704.3 428.95 705.7 432.95 707.1 436.95 709 440.8 712.35 447.4 716.8 453.35 721.25 459.3 726.25 464.5 729.85 468.25 733.75 471.9 737.65 475.55 741.85 479.15 745.1 481.95 748.45 484.65 751.85 487.35 755.3 490.05 763.05 495.95 771.15 501.6 779.2 507.3 787.4 512.7
L 787.7 512.9 787.9 513
Q 788 513.05 788.1 513.15
L 791.5 515.4
Q 795.25 517.85 798.95 520.25 802.65 522.6 806.3 524.95
L 815.15 530.6
Q 819.5 533.4 823.7 536.1
L 824.2 536.15
Q 824.45 536.2 824.7 536.25 829.05 536.85 833.55 537.45 838.05 538 842.65 538.5 858.85 540.15 875.3 541.9 891.75 543.65 906.5 546.7 910.8 547.6 915 548.4 919.15 549.2 923.3 549.85 930.55 551.05 937.75 552 945 552.95 952.4 553.8 956.75 546.65 961.15 540.25 965.5 533.9 967.6 530.15 974.8 515.75 982.65 506.75 990.5 497.75 1005.4 488.35 1006.15 487.9 1006.9 487.4 1007.65 486.9 1008.35 486.35 996.75 478.1 985.4 469.7 974.05 461.3 962.95 452.7 900.7 404.65 846.3 352.6 791.9 300.55 744.95 245.5 732.85 231.3 721.2 217 709.6 202.65 698.45 188.15 694.65 183.2 690.9 178.25 687.15 173.3 683.45 168.3 Z"/>
</g>

<g id="Symbol_64_0_Layer0_0_FILL">
<path fill="#82bc00" stroke="none" d="
M 1301.9 418.3
L 1305.35 415.15
Q 1306.35 412.15 1299.1 411.45 1292.05 412.35 1285.3 413 1278.55 413.7 1272.65 413.9
L 1271.6 413.9
Q 1193.3 421.2 1116.3 413.75 1039.35 406.3 964.3 388.2 929.65 382.1 895.55 374.35 861.45 366.6 828.35 356.7 823.45 355.25 818.6 353.7 813.75 352.2 808.9 350.6 806.85 349.9 804.75 349.25 802.7 348.55 800.65 347.85 794.3 345.7 787.9 343.4 781.55 341.05 775.1 338.55 772.7 338.55 769.75 339.2 766.8 339.8 764.7 341.65 764.15 341.8 763.7 342.2
L 763.05 342.7
Q 754.5 349.75 755.1 357.3 755.7 364.8 761.95 371.95 768.2 379.1 776.45 385.1 779.8 388.85 784.25 392.55 788.7 396.25 793.8 399.75 792.45 400 790.6 400.45 788.8 400.95 787.2 401.6 786.1 402 785.05 402.4 783.95 402.85 782.95 403.25 782.75 403.5 782.45 403.6
L 782.05 403.7
Q 774.55 408.9 775.45 416.3 776.35 423.7 782.05 431.25 788.95 445.35 806.85 457.7 824.7 470.1 845.1 479.6 865.5 489.15 879.95 494.7 886.15 497.2 892.35 499.25 898.5 501.3 904.6 503 902.45 506.25 901.65 510.1 900.9 513.95 901.1 518.2 901.2 519.85 901.4 521.4 901.6 522.95 901.95 524.45 907.95 536.65 921 544.6 934.1 552.6 949.4 557.85 964.7 563.1 977.5 567.05 976.95 568.35 976.8 569.65 976.6 570.95 976.65 571.9 978 586.2 987.9 593.9 997.85 601.6 1010.65 604.9 1024.55 608.85 1040.65 610.8 1056.75 612.8 1074.1 613 1077.75 612.35 1081.4 611.65 1085.05 611 1088.7 610.3 1101.45 607.85 1114.1 605.15 1126.75 602.5 1139.15 599.7 1144.35 598.55 1149.45 597.35 1154.6 596.2 1159.7 595 1161.3 594.65 1162.9 594.25 1164.5 593.9 1166.15 593.5 1170.8 592.35 1175.55 591.15 1180.3 589.9 1185.1 588.6 1196.1 585.55 1207.15 582 1218.2 578.45 1229.05 574.4 1230.55 573.85 1232.05 573.25 1233.55 572.7 1235.05 572.1
L 1235.4 572 1235.7 571.85
Q 1235.75 571.7 1235.75 571.55 1235.8 571.4 1235.8 571.25 1235.7 571.1 1235.6 571 1235.5 570.85 1235.35 570.8 1236.25 566.3 1236.95 562.1 1237.65 557.9 1238 556.3 1244.9 525.75 1249.2 494.9 1253.55 464.05 1259.7 433.3 1259.8 432.7 1260.1 431.6 1260.4 430.5 1260.75 429.1 1269.45 427.75 1277.7 425.9 1285.95 424.05 1293.6 421.7
L 1301.9 418.3
M 798.85 415.45
L 798.6 415.05
Q 798.5 414.85 798.35 414.7 798.5 414.5 798.6 414.35
L 798.85 414
Q 798.85 414.35 798.85 414.7 798.85 415.1 798.85 415.45
M 779.85 412.4
Q 779.95 413.4 780.15 414.4 780.35 415.45 780.6 416.45 780.55 416.6 780.5 416.75 780.45 416.95 780.4 417.1 780 415.9 779.85 414.7 779.7 413.5 779.85 412.4 Z"/>
</g>

<g id="Symbol_7_0_Layer0_0_FILL">
<path fill="#82bc00" stroke="none" d="
M 793 728.5
L 804.5 735.2
Q 815.8 741.55 835.15 750 854.5 758.4 879 765
L 889.25 742.3
Q 898.45 720.9 910.3 692.8 922.15 664.75 931.1 643.45
L 940.5 621 915.1 609.95 793 728.5 Z"/>
</g>

<g id="Symbol_54_0_Layer0_0_FILL">
<path fill="#82bc00" stroke="none" d="
M 1098.7 361.15
Q 1081.45 347 1054.6 350.65 1031.1 354.9 1000 370.25 968.9 385.6 933.75 407.6 898.55 429.65 862.85 453.95 848.5 464.85 842.6 494.5 836.7 524.2 835.65 560.75 834.6 597.35 834.85 629 835.05 660.6 832.95 675.45 838.55 679.85 848 682.15 857.45 684.45 873.2 685.5 881.5 666.05 903.15 643.2 924.85 620.35 953.15 600.15 981.45 580 1009.55 568.6 1036.95 556.7 1057.9 534.45 1078.85 512.15 1094.6 491.25 1110.3 470.35 1122 462.55 1130.9 456.55 1131.5 437.6 1132.15 418.65 1124.05 397 1115.95 375.3 1098.7 361.15 Z"/>
</g>

<g id="Symbol_55_0_Layer0_0_FILL">
<path fill="#82bc00" stroke="none" d="
M 1014.75 275.85
Q 1000.7 265.35 978.7 264.45 965.05 264.3 954.95 269.2 944.9 274.05 937.95 281.55 930.95 289 926.65 296.7 922.3 305.1 918.55 323.15 914.85 341.25 912.45 357.55
L 909.7 377.1 913.4 380.25 923.7 383.7
Q 937.3 387.3 954 389.95 970.7 392.65 980.35 392.95 989.8 393 1004.8 390.4 1019.75 387.85 1032.65 383.7 1045.55 379.6 1048.75 375
L 1046.55 357.15
Q 1044.5 343.75 1041.25 328.3 1038.05 312.85 1034.4 302.15 1028.8 286.3 1014.75 275.85 Z"/>
</g>

<g id="Symbol_56_0_Layer0_0_FILL">
<path fill="#82bc00" stroke="none" d="
M 1051.9 298
Q 1043.95 305.65 1042.2 316.25 1040.45 326.85 1044.65 335.9 1048.9 344.9 1058.95 347.7 1063.6 345.65 1073.55 338.2 1083.5 330.75 1091.75 319.05
L 1090 317.5 1085.15 314.1
Q 1078.8 309.75 1069.65 304.9 1060.45 300.05 1051.9 298 Z"/>
</g>

<g id="Symbol_93_0_Layer0_0_FILL">
<path fill="#0083CB" stroke="none" d="
M 1010.6 309.3
L 1009.6 307.45 1008.25 305.8 1006.65 304.45 1004.75 303.45 1002.75 302.85 1000.6 302.65 998.5 302.85 996.5 303.45 994.6 304.45 993 305.8 991.65 307.45 990.65 309.3 990 311.35 989.8 313.45 990 315.55 990.65 317.6 991.65 319.45 993 321.1 994.6 322.45 996.5 323.45 998.5 324.05 1000.6 324.25 1002.75 324.05 1004.75 323.45 1006.65 322.45 1008.25 321.1 1009.6 319.45 1010.6 317.6 1011.25 315.55 1011.45 313.45 1011.25 311.35 1010.6 309.3 Z"/>
</g>

<g id="Symbol_58_0_Layer0_0_FILL">
<path fill="#82bc00" stroke="none" d="
M 1002.55 287.3
Q 993.7 287.75 989.4 294.25 985.1 300.8 984.25 308.95
L 1019.7 309.2 1018.65 303.5
Q 1017.5 298.2 1013.85 292.9 1010.15 287.65 1002.55 287.3 Z"/>
</g>

<g id="Layer0_8_FILL">
<path fill="#FFFFFF" stroke="none" d="
M 1121.25 254.55
Q 1106.3 251.15 1092.55 248 1078.8 244.8 1068.85 240.45
L 1065.95 280.1 1063.35 333.45 1057.35 370.05 1057.65 370.2
Q 1057.85 370.25 1058 370.3 1058.45 370 1058.95 369.65 1059.45 369.35 1059.95 369.05 1063.8 365.7 1068.4 363.25 1073 360.8 1076.6 359.4
L 1081 357.75
Q 1089.35 354.85 1096.2 351.35 1103.1 347.9 1110.2 344.8 1117.25 341.7 1126.25 339.8 1144.1 333.3 1155.85 324.7 1167.6 316.1 1173.3 306.95 1179 297.85 1178.8 289.7 1178.55 281.55 1172.5 276 1163.15 267.95 1149.65 262.95 1136.2 257.9 1121.25 254.55
M 1126.2 376.5
Q 1126.05 376.2 1125.95 375.95 1125.85 375.65 1125.75 375.4 1125.6 375.75 1125.5 376.1 1125.4 376.45 1125.4 376.8 1125.55 376.7 1125.75 376.6 1125.95 376.55 1126.2 376.5 Z"/>
</g>

<g id="Layer0_9_FILL">
<path fill="#0075c9" stroke="none" d="
M 1177.15 15.25
L 1175.8 14.9
Q 1174.8 14.6 1173.95 14.3 1173.9 14.65 1173.8 15.15
L 1173.75 15.5 1173.7 15.7
Q 1173.2 18.9 1172.75 22.15 1172.3 25.4 1171.6 28.55 1170.6 33.15 1170.2 38.05 1169.75 42.9 1169.25 47.6 1167.7 59.75 1165.7 71.9 1163.65 84.05 1161.75 96.15 1158.9 114.1 1155.2 131.9 1151.55 149.75 1147.6 167.55 1143.7 185.3 1140.2 203.15 1139.4 206.95 1138.65 211.05 1137.85 215.15 1137.75 219 1137.75 219.65 1137.75 220.35 1137.8 221.05 1137.85 221.7
L 1137.95 222.05 1138.05 222.65
Q 1138.2 223.35 1138.3 223.95 1138.5 224.6 1138.95 225.25 1139.45 225.9 1140.15 225.8 1141.2 225.6 1141.75 224.8 1142.3 223.95 1142.6 222.9
L 1143.1 220.95
Q 1148.7 201.6 1153.3 181.95 1157.9 162.3 1162.35 142.65 1164.55 133.15 1167.5 123.8 1170.45 114.45 1173.65 105.2 1173.8 104.8 1173.95 104.35 1174.1 103.9 1174.25 103.5
L 1174.6 102.45
Q 1174.9 101.6 1175.15 100.9
L 1174.95 101.8 1174.9 102.2 1174.85 102.4
Q 1173.8 107.85 1173 113.35 1172.15 118.8 1171 124.25 1169.3 131.65 1167.5 139.15 1165.65 146.65 1164.3 154.25 1162.9 161.8 1162.45 169.4 1162.35 171.9 1161.95 174.05 1161.55 176.15 1160.95 178.6 1160.75 179.25 1160.45 180.5 1160.15 181.7 1159.95 182.9 1159.75 184.1 1159.85 184.7
L 1160.15 185.55 1160.4 185.8 1160.65 185.55 1160.95 184.85
Q 1160.85 185.3 1160.75 185.9
L 1160.55 186.55
Q 1158.15 196.45 1155.6 206.3 1153.05 216.15 1151.3 226.15 1151.15 226.95 1151.05 227.8 1150.95 228.65 1150.9 229.5 1150.9 229.9 1150.9 230.25 1150.85 230.65 1150.9 231.05
L 1150.95 232.05
Q 1151.05 232.8 1151.25 233.45 1151.6 233.3 1152 233.05
L 1152.5 232.7
Q 1154.55 230.8 1155.65 227.45 1156.8 224.1 1157.4 220.45 1158 216.8 1158.5 214.1 1159.9 207.65 1161.6 201.2 1163.3 194.7 1164.95 188.3 1168.75 172.8 1172.1 157.3 1175.4 141.85 1177.95 126.1 1178.3 123.65 1178.6 121.2 1178.95 118.75 1179.35 116.3 1180.95 107.45 1182.4 98.5 1183.9 89.6 1185.3 80.7 1187.2 68.5 1188.65 56.1 1190.1 43.7 1191.15 31.35 1191.35 29.05 1191.55 26.65 1191.75 24.3 1191.65 21.95
L 1191.65 21.25 1191.6 20.8
Q 1191.6 20.45 1191.3 20.3 1191 20.15 1190.25 19.8 1189.5 19.45 1188.8 19.05 1188.1 18.65 1187.35 18.4 1186.7 18.15 1186 18 1185.3 17.8 1184.65 17.6 1183.8 17.3 1183.05 16.9 1182.25 16.55 1181.45 16.2 1180.75 15.95 1180.05 15.85 1179.3 15.75 1178.6 15.6
L 1177.85 15.45
Q 1177.5 15.35 1177.15 15.25 Z"/>
</g>

<g id="Layer0_10_FILL">
<path fill="#FFFFFF" stroke="none" d="
M 1179.05 23.2
L 1176.3 23
Q 1175.5 22.95 1174.8 22.9 1174.75 23.35 1174.65 23.9
L 1174.55 24.6
Q 1170.45 55.45 1165.45 86.15 1160.5 116.8 1154.2 147.3 1148.8 173.15 1143 198.95 1137.2 224.75 1130.7 250.35 1119.25 295.3 1106.95 339.95 1094.65 384.6 1082.05 429.2 1069.45 473.75 1057.05 518.45 1046.9 554.85 1037.75 591.65 1028.6 628.45 1021 665.6 1013.35 702.7 1007.8 740.15 1005.25 757.5 1003.35 774.95 1001.5 792.35 1000.3 809.85
L 1000.2 811.2
Q 1000.15 812.3 1000.05 813.25 1000.05 813.7 1000 814.2
L 1000 814.65 999.95 814.9
Q 999.9 815.7 999.85 816.55 999.85 817.35 999.8 818.2 999.75 818.6 999.75 819.05 999.7 819.45 999.7 819.9
L 999.6 821.3
Q 999.55 822.4 999.45 823.35 999.95 823.3 1000.45 823.3
L 1000.9 823.25 1001.15 823.25
Q 1004.5 823.1 1007.85 822.95 1011.15 822.8 1014.5 822.65
L 1015.55 822.6
Q 1016.35 822.55 1017 822.55 1017.05 822.05 1017.05 821.55
L 1017.1 821.1 1017.1 820.85
Q 1019.55 772.25 1027.2 724 1034.85 675.75 1045.85 628.1 1056.9 580.4 1069.4 533.5 1081.7 487.3 1094.6 441.25 1107.45 395.2 1120.1 349.05 1134.5 296.6 1147.2 243.7 1159.95 190.75 1170.1 137.3 1180.2 83.9 1186.9 29.85 1187 29 1187.1 28.15 1187.2 27.3 1187.3 26.45
L 1187.45 25.4
Q 1187.55 24.55 1187.65 23.85 1187.15 23.85 1186.6 23.8
L 1186.15 23.75 1185.9 23.75
Q 1184.2 23.6 1182.5 23.5 1180.8 23.35 1179.05 23.2 Z"/>
</g>

<g id="Layer0_11_FILL">
<path fill="#0075c9" stroke="none" d="
M 531.4 629.1
Q 531.25 629.8 531.1 630.6 530.95 631.4 530.8 632.2 530.65 633.05 530.65 633.75 530.65 633.85 530.65 633.95 530.6 634.1 530.65 634.2 530.7 634.3 530.8 634.35
L 531 634.15
Q 531 634.4 530.95 634.65 530.95 634.9 530.9 635.15
L 530.9 635.45
Q 530.85 635.6 530.85 635.75 530.85 635.9 531 635.95 531.1 635.85 531.2 635.7 531.25 635.5 531.3 635.3
L 531.35 635.1 531.4 635.25
Q 531.55 635.15 531.65 634.9 531.7 634.65 531.75 634.4
L 531.75 634.15
Q 531.95 632.45 532.15 630.75 532.35 629.05 532.45 627.35 532.5 627.15 532.45 627 532.45 626.85 532.25 626.95 532.15 627.05 532.1 627.2 532.05 627.4 532.05 627.55 532 627.65 531.95 627.85 531.9 628 531.9 628.1
L 531.85 628.25 531.85 628.45 531.65 628.35
Q 531.55 628.45 531.5 628.6 531.45 628.75 531.45 628.9
L 531.4 629 531.4 629.1 Z"/>

<path fill="#FFFFFF" stroke="none" d="
M 530.65 610.35
L 530.65 610.45
Q 530.45 610.35 530.2 610.3 530 610.25 529.85 610.25
L 529.65 610.25
Q 525.95 609.45 522.25 608.3 518.6 607.2 514.95 605.9 511.3 604.6 507.75 603.25 507.35 603.15 507 602.95 506.65 602.75 506.25 602.65 506.2 602.65 506.15 602.6 506.05 602.6 506.05 602.65 506 602.65 505.95 602.7
L 505.95 602.75 506 602.8 505.85 602.9
Q 505.85 603.15 506.05 603.35 506.25 603.55 506.45 603.65 506.7 603.8 506.8 603.85 508.1 604.8 509.4 605.8 510.7 606.85 512.05 607.75 514.1 609.2 516.05 610.75 518 612.35 519.95 613.95 521.9 615.6 523.85 617.2 524.9 618.2 525.95 619.2 527 620.25 527.95 621.4
L 528.1 621.6
Q 528.25 621.8 528.35 622 528.45 622.2 528.6 622.35 528.65 622.45 528.75 622.55 528.85 622.65 529 622.5 529.1 622.35 529.1 622.15 529.15 621.95 529.15 621.75 529.2 621.55 529.2 621.5 529.25 621.2 529.25 620.9 529.3 620.6 529.35 620.35 529.65 618.45 529.95 616.55 530.25 614.65 530.65 612.75 530.7 612.5 530.8 612 530.85 611.5 530.9 611 530.9 610.5 530.8 610.35
L 530.75 610.3
Q 530.7 610.3 530.65 610.35 Z"/>
</g>

<g id="Symbol_92_0_Layer0_0_FILL">
<path fill="#FFFFFF" stroke="none" d="
M 1093.3 494.05
Q 1082.65 480.05 1069.2 466.9 1055.75 453.75 1042 445.7 1028.3 437.65 1016.75 438.9 1002.5 441.1 995.35 447.25 988.15 453.4 985.75 461.55 983.35 469.7 983.55 478 983.7 486.25 984.15 492.7 984.5 498.9 988.15 513.45 991.75 528.05 997.3 548.45 1002.9 568.9 1009.05 592.7 1015.25 616.5 1020.7 641.15 1025.3 662.75 1028.1 683.35 1030.9 703.95 1032.8 720.9 1034.7 737.8 1036.55 748.45
L 1039.1 750.6 1044.05 753.35
Q 1050.2 756.4 1059.35 758.85 1068.55 761.25 1079 761.2 1093.9 760.8 1102.45 758.3 1110.95 755.75 1114.6 753.05
L 1117.35 750.7 1118.35 749.2
Q 1132 701.1 1134.2 662 1136.35 622.95 1131.75 593.6 1127.1 564.25 1120.35 545.35 1113.6 526.5 1109.35 518.75 1103.95 508.05 1093.3 494.05 Z"/>
</g>

<g id="Symbol_19_0_Layer0_0_FILL">
<path fill="#FFFFFF" stroke="none" d="
M 656.95 766.95
L 648.9 766.15
Q 647.3 766.15 646.3 767.25 645.25 768.35 645.2 769.8 645.15 771.3 646.5 772.5
L 649.1 773.9 654.55 776.1
Q 661.45 778.7 672.95 780.7 684.4 782.7 699.15 781.9 713.85 781.15 730.65 775.45 742.3 771.1 752.6 762.8 762.95 754.5 770.9 745.45 778.9 736.4 783.5 729.9
L 788.3 722.65 787.25 721.25 784.35 718.45
Q 780.55 714.95 775.95 710.9 771.3 706.9 768.6 704.6 766.5 707.95 761.25 715.5 756 723 748.5 732 741.05 741.05 732.35 748.9 723.6 756.75 714.6 760.8 704.7 764.9 693.85 766.4 683 767.85 673.25 767.75 663.55 767.6 656.95 766.95 Z"/>
</g>

<g id="Symbol_51_0_Layer0_0_FILL">
<path fill="#FFFFFF" stroke="none" d="
M 985.85 192.35
L 988.05 188.95 988.85 186.9
Q 984.8 184.8 978.9 183.9 972.95 183.05 966.7 183.05 960.45 183.1 955.45 183.75 950.4 184.4 948.15 185.35 946.3 186.4 942.55 190.3 938.8 194.2 934.75 198.95 930.65 203.7 927.75 207.15
L 924.7 210.8 926.7 212.15
Q 928.55 213.35 930.55 214.55
L 932.15 215.45 933 215.75
Q 944.4 213.9 951.85 212.6 959.25 211.3 963.9 210 968.55 208.75 971.65 207 975 204.95 979 200.7 982.95 196.4 985.85 192.35 Z"/>
</g>

<g id="Symbol_89_0_Layer0_0_FILL">
<path fill="#FFFFFF" stroke="none" d="
M 737.95 751.45
Q 743.75 761.75 751.2 776.1 758.6 790.45 763.9 803.1 769.15 815.75 768.45 821 767.35 826.15 765.65 838.3 763.95 850.45 762.2 864.1 760.45 877.8 759.25 887.6
L 758 897.9
Q 761.95 905.15 778.6 908.65 795.25 912.1 816.4 911.9 837.6 911.65 855.1 907.75 872.65 903.9 878.35 896.45
L 881.65 888.8
Q 884.75 881.55 889.05 871.15 893.35 860.7 897.05 850.85 900.8 840.95 902.2 835.4
L 903.35 821
Q 903.85 809.65 904.25 796 904.65 782.35 904.85 772.3
L 905.15 761.65
Q 895.15 751.7 873.45 744.75 851.8 737.85 825.1 734.65 798.4 731.5 773.45 732.8 748.45 734.1 731.85 740.65
L 737.95 751.45 Z"/>
</g>

<g id="Symbol_22_0_Layer0_0_FILL">
<path fill="#0083CB" stroke="none" d="
M 943.65 840.8
Q 942.6 838.75 942.2 837.35 941.45 834.6 941.05 831.85 940.7 829.05 940.15 826.35
L 939.65 824.85 939.1 824.45
Q 938.5 824.55 938.05 825.8 937.65 827 937.65 828.25 937.8 831.4 938.75 835.75 939.7 840.1 941.85 843.7 943.95 847.3 947.65 848.15 951.1 848.6 953.45 845.55 955.8 842.55 957.1 838.5 958.4 834.45 958.75 831.75 958.9 830.75 958.95 828.85 959 826.95 958.7 825.25 958.4 823.5 957.45 822.95
L 957.25 822.9
Q 957.1 822.9 957.05 822.95 956.7 823.3 956.6 823.8
L 956.45 824.5
Q 956.2 826.4 956.15 828.4 956.15 830.4 955.8 832.35 955.5 834.05 954.65 836.85 953.8 839.65 952.5 842.15 951.2 844.6 949.5 845.25 947.75 845.7 946.2 844.3 944.7 842.85 943.65 840.8 Z"/>
</g>

<g id="Symbol_90_0_Layer0_0_FILL">
<path fill="#FFFFFF" stroke="none" d="
M 801.9 770.7
Q 782.4 782.6 765.2 790.45
L 778.2 797.85
Q 790.55 804.9 806.85 814.75 823.15 824.65 835.7 833.45
L 845.35 840.95 848 843.75 849.2 845.95
Q 849.7 851.5 848.5 859.8 847.3 868.1 845.45 876.4 843.6 884.7 842.15 890.3
L 840.6 896.2
Q 846.65 900.35 862.1 903.75 877.55 907.1 896.15 908.35 914.8 909.6 930.4 907.4 945.95 905.2 952.25 898.3 961.1 884.4 969.1 870 977.1 855.55 982.3 842.3 987.5 829.1 987.85 818.75
L 987.1 815.35 985.15 811 977.85 799.25
Q 968.25 785.5 955.6 769.95 942.9 754.35 933.3 743.2
L 923.2 731.4
Q 903.95 726.1 883.35 731.45 862.75 736.75 842.1 747.8 821.45 758.85 801.9 770.7 Z"/>
</g>

<g id="Symbol_23_0_Layer0_0_FILL">
<path fill="#0083CB" stroke="none" d="
M 943.35 838.65
Q 942.15 836.05 941.4 832.95 940.6 829.9 939.6 827.1
L 939.2 826.4 938.9 826.25
Q 938.6 826.4 938.45 827.1 938.3 827.8 938.3 828.5 938.5 831.6 939.5 835.45 940.5 839.25 942.25 842.4 943.95 845.55 946.3 846.7 950.3 848.25 953.15 845.6 956 842.95 957.6 838.15 959.2 833.4 959.35 828.65 959.35 827.95 959.35 826.95 959.3 825.95 959.1 825.15 958.85 824.4 958.4 824.45 958.25 824.75 958.1 825.1
L 957.95 825.6
Q 957.35 827.6 957.1 829.8 956.8 831.95 956.3 834.1 955.15 838.55 953 841.25 950.85 843.95 948.25 843.6 945.7 843.25 943.35 838.65 Z"/>
</g>

<g id="Symbol_24_0_Layer0_0_FILL">
<path fill="#FFFFFF" stroke="none" d="
M 767.75 370.25
Q 761.25 380.3 755.45 391.15 750.05 401.45 744.55 413.1 739.05 424.75 734.6 434.95 730.15 445.1 727.9 450.95
L 771.25 455.05
Q 812.5 458.4 866.55 462.3 920.65 466.2 961.5 468.5
L 992.45 469.9 1000.55 469.95 1003.75 469.5
Q 1002.1 466.45 996 460.25 989.9 454.05 982.05 446.95 974.2 439.85 967.25 434.2 960.3 428.5 957 426.55
L 927.05 411.15
Q 901.4 398.15 869.15 381.9 836.9 365.6 812.8 353.5
L 787.45 340.75
Q 785.1 344.7 779.7 352.45 774.3 360.2 767.75 370.25 Z"/>
</g>

<g id="Symbol_94_0_Layer0_0_FILL">
<path fill="#0075c9" stroke="none" d="
M 945.25 654.15
Q 938.05 671.65 932.85 689.8 927.7 707.95 924.55 728.45 923.7 733.8 923 738.9 922.3 743.95 921.85 748.85 922.25 748.7 922.65 748.6 923 748.45 923.3 748.4 923.6 748.45 923.95 748.5 924.35 748.6 924.45 748.7 926.2 750.6 927.8 755.65 929.4 760.7 930.7 766.1 932 771.5 932.8 774.5 933.15 775.75 933.95 778.5 934.7 781.3 935.7 784.95 936.7 788.65 937.7 792.55 939.85 792 942.6 791.5 945.35 791 948.05 790.6 951.6 788.15 955.6 786.8 959.6 785.4 965.35 784.3
L 967.6 783.75
Q 969.4 783.25 970.85 782.65 971.6 782.2 972.55 782 973.5 781.85 974.5 782 976.05 781 978.35 780.3 980.7 779.6 982.95 779.2 985.15 778.8 986.45 778.65 998.6 776.75 1010.2 773.15 1021.8 769.55 1032.9 764.55 1045.45 756.4 1055.9 745.6 1066.4 734.75 1074.5 720.6 1082.6 706.4 1088.1 688.1 1094.75 666.05 1097.1 643.45 1099.45 620.8 1096.15 597.9 1092.85 575 1082.55 552.15 1081.75 550.4 1080.95 548.65
L 1079.35 545.1
Q 1079.05 546.95 1079.75 549.2 1080.5 551.4 1080.8 553.5 1081.15 555.6 1079.6 557 1076.8 559.2 1075.45 557.5 1074.1 555.85 1073.45 552.75 1072.8 549.7 1072.15 547.6 1068.9 548.2 1066.75 544.4 1064.6 540.55 1063.3 535.4 1061.95 530.2 1061.15 526.7
L 1060.65 524.8
Q 1060.3 523.35 1059.85 521.55 1059.4 519.7 1059 518.25 1058.4 517.6 1057.45 517.85
L 1056.65 518.05 1056.2 518.1
Q 1054.05 516.8 1053.95 514.05 1053.85 511.3 1055.15 507.65 1034.95 521.35 1017.3 539.85 999.65 558.35 985.55 578.65 971.45 599 961.85 618.25 952.5 636.7 945.25 654.15
M 729.95 618.65
Q 729.8 617.75 729.2 617.1 729.1 617 729.1 616.8 729.05 616.65 729 616.5 728.85 617.3 729.35 619.15 729.85 620.95 730.35 622.55
L 731 624.3
Q 731.5 626.05 731.9 627.8 732.35 629.55 732.8 631.3 732.65 631.25 732.5 631.2 732.35 631.1 732.25 631.05 731.5 630.75 730.6 630.95 729.7 631.15 729.75 632.1 730.1 632.9 730.7 633.7 731.3 634.5 732 635.3 732.1 636.8 732.45 638.2
L 732.85 640.05
Q 733.65 644.25 734.6 647.95 735.55 651.6 736.1 655.8 736.2 656.65 736.45 659 736.65 661.3 737 663.75 737.35 666.15 737.7 667.4 737.9 668.65 738 669.65
L 738.2 671
Q 738.5 672.95 738.75 674.9 738.95 676.85 739.1 678.8 738.15 677.85 736.85 677.35 735.6 676.8 734 676.9
L 732.95 677.1
Q 732.15 677.25 731.25 677.25 731.35 676.05 731.45 674.55 731.55 673.1 731.3 671.95 731.05 670.8 730.15 670.65 729.65 671.45 729.4 672.6 729.1 673.8 729 674.85
L 728.85 676.25
Q 728.85 676.5 728.8 676.75 728.8 676.95 728.75 677.2 728.45 678.4 728.25 679.3
L 728.05 680.1 728 680.55
Q 726.3 691.2 727.3 701 728.3 710.8 731.5 720.1 733.85 729.55 738.05 738.7 742.25 747.85 748.45 756.55 751.7 763 756.5 768.5 761.35 774 767.5 778 768.1 778.4 769.55 779.2 771.05 780 772.45 779.9 771.95 778.9 770.9 777.9 769.85 776.85 768.85 776.1
L 767.5 775
Q 766.5 774.15 765.55 773.3 764.65 772.45 763.75 771.6 764.85 770.4 766 768.7 767.2 767 768.1 765.5 769 764.05 769.3 763.45 774.5 753.8 777.6 747.3 780.7 740.85 781.8 735.05 782.95 729.3 782.3 721.85 781.7 714.35 779.5 702.8 777.25 690.15 773.65 680.25 770.05 670.35 764.05 661.75 758.05 653.15 748.55 644.4 745 641.15 741.35 637.9 737.7 634.65 733.9 631.8
L 733.85 631.75
Q 732.85 628.55 731.9 625.55 730.95 622.55 730.15 619.85
L 729.95 618.65
M 1056.6 503.4
Q 1056.65 503.6 1056.75 503.8 1056.85 503.65 1056.9 503.45
L 1057.1 503.1
Q 1056.95 503.05 1056.75 503 1056.6 503 1056.45 503.05 1056.5 503.25 1056.6 503.4
M 1103.3 488.7
Q 1103.05 489.15 1102.8 489.6 1103.35 489.3 1103.75 488.9 1104.2 488.5 1104.4 488 1104.25 487.95 1104.1 487.9 1103.95 487.85 1103.8 487.8 1103.55 488.25 1103.3 488.7 Z"/>
</g>

<g id="Symbol_91_0_Layer0_0_FILL">
<path fill="#FFFFFF" stroke="none" d="
M 747.9 407.05
L 743.25 409.6
Q 738.85 412.1 732.8 417.05 726.75 422 721.7 429.2 716.65 436.45 715.2 445.85 714.1 454.2 713.3 470.3 712.5 486.4 711.75 507 711.05 527.6 710.25 549.4 709.45 571.25 708.4 591 708.15 596.4 709 607.9 709.8 619.4 711.55 634 713.25 648.6 715.65 663.2 718.05 677.75 720.95 689.2 722.55 695.25 726.95 706.4 731.4 717.55 737.8 730.75 744.2 743.95 751.75 756.15 759.25 768.35 767 776.5 780.65 789.7 805.2 795 829.7 800.25 858.4 800.05 887.15 799.85 913.35 796.55 939.55 793.3 956.55 789.4 975.35 785.35 995.15 777.45 1014.9 769.5 1032.6 756.85 1050.25 744.2 1062.75 725.85 1076.85 704.4 1084.5 678.55 1092.1 652.7 1092.8 625.3 1093.5 597.85 1086.8 571.7 1080.45 548.35 1069.45 527.15 1058.4 505.95 1046.7 489.2 1034.95 472.5 1026.45 462.55
L 1016.7 451.65 1004.4 449.15 973.65 443.8
Q 933.6 437.1 881.35 428.6 829.1 420.1 789.55 413.75
L 747.9 407.05 Z"/>
</g>

<g id="Symbol_95_0_Layer0_0_FILL">
<path fill="#0075c9" stroke="none" d="
M 1162.4 196.4
Q 1160.05 195.8 1157.25 196.45 1157 196.5 1156.4 196.65 1155.75 196.75 1155.4 197.2 1154.05 198.2 1152.5 199.65 1150.95 201.15 1149.75 202.4
L 1148.3 204.1
Q 1142.75 212.75 1137.85 220.9 1132.95 229.1 1127.8 237 1126.15 238.8 1124.8 240.85 1123.4 242.9 1122.2 245.1 1119.5 248.8 1116.5 252.45 1113.5 256.15 1110.1 259.85 1105.6 264.9 1100.95 270.75 1096.25 276.6 1091.05 281.75
L 1090.35 282.2
Q 1090 282.4 1089.65 282.6
L 1089.4 282.7
Q 1085.2 284.95 1081.4 287.25 1077.65 289.55 1073.5 290.75 1069.35 291.95 1064 290.95 1060.45 290.15 1057.3 287.55 1054.2 284.95 1051.6 281.2 1049 277.45 1047.05 273.2 1047.05 272.45 1047.05 271.9 1047 271.3 1047 271.1 1046.65 267.95 1045.9 265 1045.15 262.05 1044.35 259.15 1044.05 256.2 1043.8 253.55 1043.55 250.85 1043.2 248.7 1042.9 246.95 1042.65 245.3 1042.4 243.7 1041.75 242.1 1041.2 240.4 1040.25 239 1039.25 237.55 1037.7 236.6 1037.45 236.35 1037.25 236.15 1037.05 236 1036.9 235.9 1033 233.75 1027.2 236 1021.4 238.2 1015.25 242.2 1009.15 246.2 1004.25 249.35 1003.2 249.85 1002.35 250.3
L 1001.2 250.95
Q 1000.95 251.05 1000.75 251.15 1000.55 251.25 1000.35 251.35 992.6 252 985.9 249.45 979.25 246.95 972.8 241.9 966.35 236.9 959.25 230.2 957 228.1 954.55 226.05 952.1 224 949.45 222.1 949.3 222.2 949.15 222.3 949 222.4 948.85 222.5 948.45 222.75 948.15 223.1 947.85 223.4 947.6 223.85 947.55 223.95 947.5 224.1 947.45 224.25 947.4 224.4
L 946.7 224.15 946.45 224.25
Q 946.4 224.6 946.7 225.25 947 225.85 947.2 226.25
L 947.25 226.45
Q 946.15 230.8 944.5 232.1 942.8 233.4 940.55 232.75 938.25 232.05 935.4 230.45
L 935.05 231.75
Q 934.7 232.9 934.15 233.7 931.25 237.15 929.25 236.55 927.2 235.95 925.05 234.45 922.95 232.95 919.75 233.7 916.2 234.8 914 235.1 911.85 235.35 909.6 234.95 907.35 234.55 903.5 233.65 897.75 232.4 894 232.35 890.2 232.3 886.5 232.7 882.85 233.15 877.45 233.35 872.05 233.5 868.3 234.7 864.55 235.85 861.35 238.3 858.1 240.75 854.4 244.8 847.55 251.9 839.95 259.35 832.35 266.8 825.6 274.95 818.85 283.1 814.5 292.25 813.95 293.4 812.85 295.9 811.8 298.4 810.35 301.75 808.9 305.05 807.2 308.8 806.9 309.55 806.55 310.3 806.2 311 805.9 311.75 805.45 312.65 805.05 313.5 804.65 314.4 804.25 315.25 803.65 316.5 803.05 317.7 802.45 318.95 801.9 320.1 802.05 321.7 802.35 323.1 802.6 324.5 803 325.6 804.8 330.25 810.1 336.05 815.4 341.9 821.4 347.5 827.4 353.15 831.3 357.1 838.8 365.35 844 371.15 849.15 377 855.55 381.15 861.9 385.35 873.1 388.6 885.35 392.2 897.1 394.95 908.9 397.7 920.85 399.35 932.75 401 945.45 401.2 951.9 401.2 958.55 401.5 965.15 401.7 971.65 402.9 978.1 404.05 984.15 406.85 990.15 409.6 995.4 411.25 1000.65 412.9 1005.8 415.1 1011 417.35 1016.7 421.65 1018.7 423.2 1022.2 425.6 1025.65 428.05 1030 430.8 1034.3 433.6 1038.85 436.15 1033.6 441.15 1028.65 446.8 1023.7 452.5 1020.55 458.1 1017.4 463.7 1017.55 468.35 1017.6 468.95 1017.7 469.55 1017.8 470.15 1018 470.7 1018.35 471.5 1018.75 472.25 1019.15 473 1019.6 473.7 1019.8 474 1020.05 474.3 1020.3 474.55 1020.55 474.8
L 1020.25 474.75
Q 1020.55 475.25 1020.95 475.75 1021.3 476.25 1021.7 476.7 1028.55 477.6 1034.95 477.3 1041.3 477.05 1047.7 476 1054.1 475 1060.95 473.6 1067.25 472.9 1073.65 471.75 1080.1 470.55 1086.55 468.8 1087.5 468.6 1088.45 468.3 1089.45 468.05 1090.45 467.75 1107.7 462.8 1123.6 453.45 1139.5 444.15 1152 429.65 1164.5 415.15 1171.65 394.7 1172.8 391.4 1174.3 386.9 1175.85 382.35 1177.2 377.35 1178.6 372.35 1179.3 367.6 1181.35 357.8 1182.7 348 1184 338.2 1184.8 328.85 1185.45 321.75 1186.2 315.75 1187 309.75 1187.35 303.6 1187.75 297.5 1187.2 290.05 1186.65 281.75 1186.45 274.2 1186.2 266.65 1185.85 259.3 1185.5 251.95 1184.4 244.3 1184.05 240.25 1183.45 236.25 1182.8 232.3 1181.8 228.45 1180.65 224 1178.75 218.1 1176.85 212.25 1173.85 206.9 1170.9 201.5 1166.6 198.65 1164.75 197 1162.4 196.4
M 1021.75 240.95
L 1021.85 240.9 1021.85 240.95 1021.75 240.95
M 984.75 252.05
L 984.35 251.9 984.2 251.8
Q 984.3091796875 251.8697265625 984.4 251.9 984.6 251.95 984.75 252.05 Z"/>
</g>

<g id="Symbol_40_0_Layer0_0_FILL">
<path fill="#FFFFFF" stroke="none" d="
M 1122.8 255.7
Q 1110 273.4 1094.75 285.3 1079.5 297.2 1063.95 294.65 1055.65 292.65 1050.65 285.8 1045.7 279 1043.2 270.45 1040.75 261.95 1039.95 254.7 1039.2 247.5 1039.2 244.7 1039.1 241.9 1037.25 240.05 1035.45 238.2 1032.75 237.9 1030 237.6 1027.25 239.6 1022.9 242.9 1016.85 247 1010.75 251.05 1003.75 253.85 996.8 256.6 989.75 256.05 986.3 255.55 980.9 251.8 975.45 248.05 969 242.55 962.55 237.1 956.1 231.5 949.65 225.85 944.15 221.65 939.8 218.15 928.8 215.2 917.8 212.2 901.4 212.95 884.95 213.7 864.2 221.35 849.8 227.1 840.35 234.2 830.9 241.3 825.95 247.15
L 822 251.95 820.15 254.8
Q 816.25 262.3 810.05 279.1 803.9 295.9 797.55 314.65 791.2 333.4 786.9 346.75
L 782.4 360.7 784.7 367.7
Q 786.85 374.25 792.8 384.7 798.7 395.1 810.25 407.25 821.75 419.4 840.75 431.1 864.35 445.05 887.95 453.8 911.55 462.55 931.45 467.05 951.35 471.55 963.95 472.8 1002.1 476.9 1032.15 474.8 1062.15 472.75 1084.1 465.75 1106.05 458.75 1119.95 448.05 1138.6 433.8 1151.75 413.1 1164.95 392.4 1172.05 367 1179.15 341.65 1179.65 313.25 1180.05 279.35 1178 256.95 1175.95 234.6 1173.45 222.6
L 1170.05 207.8
Q 1168.55 202.4 1165.05 200.7 1161.55 199 1158.1 200.15 1154.65 201.3 1153.2 204.55
L 1143.75 223.05
Q 1135.55 238 1122.8 255.7 Z"/>
</g>

<g id="Symbol_26_0_Layer0_0_FILL">
<path fill="#FFFFFF" stroke="none" d="
M 889.05 162.7
Q 882.2 166.25 875.95 171.05 869.7 175.8 865.25 180.35 860.8 184.9 859.45 187.7 858.55 190.25 858.1 197.25 857.65 204.25 857.5 212.35 857.35 220.4 857.35 226.25
L 857.35 232.35 860.15 232.1
Q 862.8 231.85 866.3 231.45 869.8 231.05 872.55 230.65
L 874.75 230.25 875.7 229.95
Q 884.4 218.9 889.6 211 894.75 203.05 897.2 197.95 899.6 192.85 900.1 190.3 900.55 188.15 901.15 183.4 901.8 178.65 902.25 173.2 902.7 167.75 902.75 163.55
L 902.55 160.15 902 158.35
Q 895.85 159.15 889.05 162.7 Z"/>
</g>

<g id="Symbol_27_0_Layer0_0_FILL">
<path fill="#1D2013" stroke="none" d="
M 1009 492.75
Q 1008.85 492.65 1008.7 492.6 1008.6 492.55 1008.45 492.45
L 1008.6 492.75 1009 492.75 Z"/>

<path fill="#0075c9" stroke="none" d="
M 957.05 500.85
Q 955.1 501.3 952.4 502 949.75 502.7 947.15 503.6 948.45 502.65 949.8 501.7 951.15 500.8 952.55 499.9 963.4 492.15 975.8 490.3 988.25 488.45 1001.15 492.35 1002 492.45 1002.9 492.55 1003.8 492.65 1004.65 492.7 1005.65 492.75 1006.65 492.8 1007.6 492.8 1008.6 492.75
L 1008.45 492.45
Q 1008.6 492.55 1008.7 492.6 1008.85 492.65 1009 492.75
L 1009.15 492.75 1009.7 492.7
Q 1010 492.65 1010.3 492.65 1010.7 492.6 1011.05 492.45 1011.45 492.35 1011.8 492.2
L 1011.75 492.1
Q 1010.7 490.25 1007.85 488.7 1004.95 487.2 1001.8 486.15 998.6 485.15 996.6 484.8 995.65 484.65 994.6 484.45 993.55 484.3 992.65 484.35 986.2 483.8 979.05 485.1 971.95 486.45 965.05 489.25 958.15 492.05 952.4 495.8 950.75 497 949.2 498.3 947.65 499.6 946.2 501.05
L 946.05 501.45
Q 945.45 502 944.9 502.55 944.3 503.15 943.8 503.7 943.3 504.3 942.85 504.9 942.4 505.5 941.95 506.15 942.3 506.05 942.55 506 942.8 505.95 943 505.9 943.45 505.8 943.85 505.65 944.3 505.55 944.75 505.45 950.9 503.9 957.15 502.4 963.4 500.95 969.6 499.45 970.3 499.3 971 499.1 971.7 498.9 972.4 498.65 970.45 498.45 967.6 498.8 964.75 499.15 961.9 499.75 959.05 500.4 957.05 500.85
M 992 487.25
Q 991.75 487.2 991.5 487.15 991.6470703125 487.15 991.8 487.15 992.2 487.2 992.6 487.25 992.45 487.25 992.3 487.25 992.15 487.25 992 487.25 Z"/>
</g>

<g id="Symbol_28_0_Layer0_0_FILL">
<path fill="#FFFFFF" stroke="none" d="
M 986.25 295.45
Q 983.9 288.7 978.35 283.8 972.85 278.85 963.05 277.05 953.1 275.55 946.15 278.6 939.15 281.7 934.5 287.45 929.85 293.25 927 299.8 924.15 306.3 922.45 311.7 931.35 312.7 942.55 314.6 953.75 316.45 965.55 318.7 977.3 320.9 987.9 323.05 988.85 316.6 988.7 309.4 988.55 302.15 986.25 295.45 Z"/>
</g>

<g id="Symbol_96_0_Layer0_0_FILL">
<path fill="#0075c9" stroke="none" d="
M 825.1 513
L 824.7 511.05 823.15 510.55 823.25 508.85 803.85 495.95 789.75 488.05 784.85 485.75 772.1 481.15 772.05 481.15 758.85 478.5 750.75 477.8 745.3 477.75 734.45 478.95 726.55 481.1 719.05 484.5 712.2 489 712.2 489.05 712.15 489.05 710.1 490.75 704.25 496.5 701.05 500.95 698.5 505.85 696.65 510.95 690.7 534.15 690.7 534.2 686.65 559.15 685.75 570.3 684.1 620.55 685.2 647.9 693.1 707.05 697 725.2 701.4 737.85 704.15 742.55 704.25 742.65 704.3 742.8 706.3 744.8 710.95 748.05 718.4 751.7 731.4 756.2 747.5 759.55 758.6 760.4 761.35 760.25 769.55 758.85 787.75 752.65 800 746.4 804.65 743 806.45 740.8 806.5 740.6 806.7 740.25 807.35 737.55 812.5 693.5 824.25 571.95 825.9 521.5 825.1 513 Z"/>
</g>

<g id="Symbol_97_0_Layer0_0_FILL">
<path fill="#FFFFFF" stroke="none" d="
M 852.3 480.25
Q 839.75 474.35 819.85 475.65 799.95 476.95 778.8 482.15 757.7 487.35 741.4 493.25
L 727.85 498.5 719.7 502.45
Q 713.1 506.8 707.95 516.4 702.8 526 699.25 538.55 695.7 551.1 693.9 564.3 692.15 577.5 692.3 589 692.35 597.2 692.95 613.4 693.5 629.6 695 650.1 696.5 670.65 699.3 691.9 702.1 713.2 706.65 731.6
L 708.1 733.7 711.95 737.5
Q 717.05 742.2 727.05 746.65 737.05 751.05 752.05 751.55 766.15 751.55 775.8 748.5 785.45 745.4 790.8 741.7
L 795.1 738.4 797.35 736.05
Q 798.8 720.3 802.15 703.3 805.5 686.35 809.8 670.95 814.1 655.55 818.35 644.55 822.65 633.55 825.95 629.75 829.15 626.3 834.9 622.5 840.65 618.7 848.15 614.7 855.7 610.65 864.2 606.45 870.7 603 873.65 595.6 876.6 588.2 876.95 579.5 877.35 570.8 876.15 563.5 874.95 556.2 873.1 552.95 872.7 542.45 873.95 532.3 875.25 522.15 875 512.8 874.8 503.4 869.9 495.15 865.05 486.9 852.3 480.25 Z"/>
</g>
</defs>



<g transform="matrix( -0.0909576416015625, 0.007476806640625, 0.048553466796875, 0.086944580078125, 1264.85,700.9) ">
<g transform="matrix( 1, 0, 0, 1, 0,0) ">
<use xlink:href="#Symbol_63_0_Layer0_0_FILL"/>
</g>
</g>

<g transform="matrix( -0.0988922119140625, -0.000823974609375, 0.0244140625, 0.106597900390625, 1316.95,715.85) ">
<g transform="matrix( 1, 0, 0, 1, 0,0) ">
<use xlink:href="#Symbol_64_0_Layer0_0_FILL"/>
</g>
</g>

<g transform="matrix( -0.1104583740234375, -0.0967254638671875, -0.1931915283203125, 0.1677093505859375, 1430.9,780.65) ">
<g transform="matrix( 1, 0, 0, 1, 0,0) ">
<use xlink:href="#Symbol_7_0_Layer0_0_FILL"/>
</g>
</g>

<g transform="matrix( -0.11016845703125, -0.0305023193359375, -0.0399322509765625, 0.1267547607421875, 1328.55,742.05) ">
<g transform="matrix( 1, 0, 0, 1, 0,0) ">
<use xlink:href="#Symbol_54_0_Layer0_0_FILL"/>
</g>
</g>

<g transform="matrix( -0.0736236572265625, 0.1099090576171875, 0.091156005859375, 0.0701141357421875, 1230.95,627.8) ">
<g transform="matrix( 1, 0, 0, 1, 0,0) ">
<use xlink:href="#Symbol_55_0_Layer0_0_FILL"/>
</g>
</g>

<g transform="matrix( -0.1171112060546875, 0.00994873046875, -0.0041046142578125, 0.1299896240234375, 1307.15,705.95) ">
<g transform="matrix( 1, 0, 0, 1, 0,0) ">
<use xlink:href="#Symbol_56_0_Layer0_0_FILL"/>
</g>
</g>

<g transform="matrix( -0.10052490234375, 0.079010009765625, 0.0601959228515625, 0.10369873046875, 1270,645.25) ">
<g transform="matrix( 1, 0, 0, 1, 0,0) ">
<use xlink:href="#Symbol_93_0_Layer0_0_FILL"/>
</g>
</g>

<g transform="matrix( -0.1169891357421875, 0.007049560546875, -0.0067138671875, 0.1301727294921875, 1307.85,708.85) ">
<g transform="matrix( 1, 0, 0, 1, 0,0) ">
<use xlink:href="#Symbol_58_0_Layer0_0_FILL"/>
</g>
</g>

<g transform="matrix( 0.7002716064453125, 0.65362548828125, 0.2523956298828125, -1.105377197265625, 346.75,-16.1) ">
<use xlink:href="#Layer0_8_FILL"/>
</g>

<g transform="matrix( 0.9884490966796875, -0.256317138671875, 0.089874267578125, 0.7483978271484375, 8.2,525.45) ">
<use xlink:href="#Layer0_9_FILL"/>
</g>

<g transform="matrix( 0.9884490966796875, -0.256317138671875, 0.089874267578125, 0.7483978271484375, 8.2,525.45) ">
<use xlink:href="#Layer0_10_FILL"/>
</g>

<g transform="matrix( 4.9486083984375, 0, 0, 4.9486083984375, -1463.25,-2713.35) ">
<use xlink:href="#Layer0_11_FILL"/>
</g>

<g transform="matrix( -0.1183319091796875, 0.6613922119140625, 0.6561279296875, 0.120361328125, 741.1,-130.4) ">
<g transform="matrix( 1, 0, 0, 1, 0,0) ">
<use xlink:href="#Symbol_92_0_Layer0_0_FILL"/>
</g>
</g>

<g transform="matrix( 0.56231689453125, -0.3610076904296875, 0.3581695556640625, 0.5671844482421875, 99.75,611.6) ">
<g transform="matrix( 1, 0, 0, 1, 0,0) ">
<use xlink:href="#Symbol_19_0_Layer0_0_FILL"/>
</g>
</g>

<g transform="matrix( 0.3938446044921875, 0.494140625, -0.5254058837890625, 0.4508819580078125, 721.15,7.7) ">
<g transform="matrix( 1, 0, 0, 1, 0,0) ">
<use xlink:href="#Symbol_51_0_Layer0_0_FILL"/>
</g>
</g>

<g transform="matrix( 0.738128662109375, 0.0610504150390625, -0.1369781494140625, 0.6521148681640625, 331.15,243.85) ">
<g transform="matrix( 1, 0, 0, 1, 0,0) ">
<use xlink:href="#Symbol_89_0_Layer0_0_FILL"/>
</g>
</g>

<g transform="matrix( 0.860137939453125, 0.3787384033203125, -0.30975341796875, 0.623046875, 286.75,-10.85) ">
<g transform="matrix( 1, 0, 0, 1, 0,0) ">
<use xlink:href="#Symbol_22_0_Layer0_0_FILL"/>
</g>
</g>

<g transform="matrix( 0.6876068115234375, -0.0159454345703125, 0.1924591064453125, 0.8092041015625, 182.85,167.05) ">
<g transform="matrix( 1, 0, 0, 1, 0,0) ">
<use xlink:href="#Symbol_90_0_Layer0_0_FILL"/>
</g>
</g>

<g transform="matrix( 0.71795654296875, 0.1571807861328125, 0.0069732666015625, 0.7548828125, 326.85,71.6) ">
<g transform="matrix( 1, 0, 0, 1, 0,0) ">
<use xlink:href="#Symbol_23_0_Layer0_0_FILL"/>
</g>
</g>

<g transform="matrix( 0.5180206298828125, 0.4487457275390625, -0.3592987060546875, 0.5290374755859375, 571.6,21.2) ">
<g transform="matrix( 1, 0, 0, 1, 0,0) ">
<use xlink:href="#Symbol_24_0_Layer0_0_FILL"/>
</g>
</g>

<g transform="matrix( 0.6800079345703125, 0.06982421875, -0.131500244140625, 0.5423736572265625, 361.1,310.2) ">
<g transform="matrix( 1, 0, 0, 1, 0,0) ">
<use xlink:href="#Symbol_94_0_Layer0_0_FILL"/>
</g>
</g>

<g transform="matrix( 0.6800079345703125, 0.06982421875, -0.131500244140625, 0.5423736572265625, 361.1,310.2) ">
<g transform="matrix( 1, 0, 0, 1, 0,0) ">
<use xlink:href="#Symbol_91_0_Layer0_0_FILL"/>
</g>
</g>

<g transform="matrix( 0.5338287353515625, 0.454254150390625, -0.4649658203125, 0.4960479736328125, 581.45,33.9) ">
<g transform="matrix( 1, 0, 0, 1, 0,0) ">
<use xlink:href="#Symbol_95_0_Layer0_0_FILL"/>
</g>
</g>

<g transform="matrix( 0.5338287353515625, 0.454254150390625, -0.4649658203125, 0.4960479736328125, 581.45,33.9) ">
<g transform="matrix( 1, 0, 0, 1, 0,0) ">
<use xlink:href="#Symbol_40_0_Layer0_0_FILL"/>
</g>
</g>

<g transform="matrix( 0.15887451171875, 0.6465911865234375, -0.600799560546875, 0.29473876953125, 949.9,-83.35) ">
<g transform="matrix( 1, 0, 0, 1, 0,0) ">
<use xlink:href="#Symbol_26_0_Layer0_0_FILL"/>
</g>
</g>

<g transform="matrix( -0.33221435546875, -0.251983642578125, -0.31610107421875, 0.4645843505859375, 1434.15,682.1) ">
<g transform="matrix( 1, 0, 0, 1, 0,0) ">
<use xlink:href="#Symbol_27_0_Layer0_0_FILL"/>
</g>
</g>

<g transform="matrix( 0.5075225830078125, 0.4324493408203125, -0.4471282958984375, 0.4766845703125, 584.05,45.7) ">
<g transform="matrix( 1, 0, 0, 1, 0,0) ">
<use xlink:href="#Symbol_28_0_Layer0_0_FILL"/>
</g>
</g>

<g transform="matrix( 0.6458587646484375, -0.2100372314453125, 0.174224853515625, 0.6904754638671875, 184.3,407.95) ">
<g transform="matrix( 1, 0, 0, 1, 0,0) ">
<use xlink:href="#Symbol_96_0_Layer0_0_FILL"/>
</g>
</g>

<g transform="matrix( 0.6458587646484375, -0.2100372314453125, 0.174224853515625, 0.6904754638671875, 184.3,407.95) ">
<g transform="matrix( 1, 0, 0, 1, 0,0) ">
<use xlink:href="#Symbol_97_0_Layer0_0_FILL"/>
</g>
</g>
</svg>
