
<svg xmlns="http://www.w3.org/2000/svg" version="1.1" xmlns:xlink="http://www.w3.org/1999/xlink" preserveAspectRatio="none" x="0px" y="0px" width="760px" height="880px" viewBox="614 10 760 880">
<defs>


<g id="Layer0_0_FILL">
<path fill="#0075c9" stroke="none" d="
M 452.25 679
L 452.25 678.65
Q 452.209765625 678.690234375 452.15 678.7 452.2 678.6708984375 452.2 678.6 452.25 678.45 452.2 678.3 451.85 678.35 451.5 678.8 451.15 679.3 450.9 679.75
L 450.75 680.1 450.65 680.25
Q 449.45 682.55 448.6 685 447.75 687.5 447.2 690.1 447.15 690.25 447.1 690.4 447.05 690.55 447.05 690.7
L 447 690.85 447 690.9
Q 447 691.05 447 691.25 446.95 691.4 446.95 691.6 446.95 691.75 446.95 691.9 446.95 692.05 446.95 692.2
L 446.8 692.1 446.8 692.2 446.7 692.65 446.7 692.9
Q 446.65 693.1 446.65 693.4 446.6 693.65 446.55 693.9 446.4 695.1 446.3 696.3 446.25 697.5 446.2 698.7 446.2 698.75 446.2 698.95 446.15 699.15 446.2 699.3 446.2 699.5 446.35 699.55 446.45 699.4 446.55 699.1 446.65 698.8 446.65 698.55 446.7 698.25 446.7 698.1
L 446.75 697.65 446.95 697.8 447.1 697.65
Q 447.05 698.55 447 699.35 446.95 700.2 446.9 701
L 446.9 701.1 446.95 701.3
Q 446.95 701.5 447 701.75 447 702 447.1 702.15 447.4 702 447.55 701.5 447.7 701.05 447.7 700.6
L 447.75 700.25 447.75 700.1
Q 447.75 699.97890625 447.75 699.8 447.7904296875 699.7884765625 447.8 699.75 447.8 699.6 447.8 699.45 448.15 696.05 448.65 692.9 449.15 689.75 449.95 686.65 450.7 683.6 451.85 680.4
L 451.9 680.35 451.95 680.15
Q 452.05 679.9 452.15 679.6 452.25 679.3 452.25 679
M 452 679.1
L 451.95 679.1
Q 452 679 452.1 678.85 452.05 679 452 679.1 Z"/>

<path fill="#FFFFFF" stroke="none" d="
M 451.95 679.1
L 452 679.1
Q 452.05 679 452.1 678.85 452 679 451.95 679.1
M 443.65 688.6
Q 444.05 689.9 444.6 691.25 445.15 692.55 445.6 693.65 445.65 693.75 445.75 693.95 445.8 694.2 445.95 694.3
L 446.25 694.45
Q 446.35 694.4 446.4 694.25 446.5 694.1 446.55 693.9 446.6 693.65 446.65 693.4 446.65 693.1 446.7 692.9
L 446.7 692.65 446.7 692.6
Q 446.7 692.55 446.7 692.4 446.75 692.25 446.75 692.05
L 446.8 692.1 446.95 692.2
Q 446.95 692.05 446.95 691.9 446.95 691.75 446.95 691.6 446.95 691.4 447 691.25 447 691.05 447 690.9
L 447 690.85 447.05 690.7
Q 447.05 690.55 447.1 690.4 447.15 690.25 447.2 690.1 447.75 687.5 448.6 685 449.45 682.55 450.65 680.25
L 450.75 680.1 450.9 679.75
Q 451.15 679.3 451.5 678.8 451.85 678.35 452.2 678.3 452.25 678.45 452.2 678.6 452.2 678.6708984375 452.15 678.7 452.209765625 678.690234375 452.25 678.65
L 452.25 679
Q 452.25 679.3 452.15 679.6 452.05 679.9 451.95 680.15
L 451.9 680.35 451.85 680.4
Q 450.7 683.6 449.95 686.65 449.15 689.75 448.65 692.9 448.15 696.05 447.8 699.45 447.8 699.6 447.8 699.75 447.7904296875 699.7884765625 447.75 699.8 447.620703125 703.730859375 448.05 707.5 448.45 711.5 449.6 715.3 450.8 719.15 452.8 722.7 452.85 722.8 452.95 723.05 453.1 723.3 453.3 723.55 453.5 723.85 453.7 724.05 453.95 724.5 454.3 724.95 454.7 725.35 455.05 725.65
L 455.45 725.95
Q 456.35 726.55 457.85 726.85 459.4 727.15 461 727.2 462.6 727.25 463.85 727.05 464.5 727.05 465.15 726.9 465.8 726.75 466.35 726.45 466.85 726.15 467.15 725.65 467.2 725.55 467.25 725.45 467.3 725.35 467.35 725.2
L 467.35 724.55
Q 467.5 723.2 467.55 722 467.65 720.8 467.75 719.7
L 467.85 719.4
Q 468.15 718.1 468.75 716.25 469.35 714.4 470.35 712.7 471.35 711 472.8 710.2 474.25 709.4 476.15 710.2
L 476.4 710.35 476.7 710.65
Q 477.05 711 477.55 711.45 478 711.9 478.55 712.35 479.1 713.35 479.6 714.3 480.1 715.25 480.6 716.1 481 716.8 481.35 717.5 481.7 718.2 482 718.9 482.2 719.45 482.35 720 482.55 720.5 482.7 721 483.1 722.25 483.4 723.3 483.7 724.35 484.15 725.2 484.6 726 485.5 726.55 486.35 727.1 487.8 727.35 487.95 727.4 488.05 727.45 488.2 727.45 488.3 727.5 488.55 727.55 488.7 727.5 488.85 727.5 488.9 727.45 489.2 727.5 489.5 727.5 489.85 727.55 490.15 727.55
L 490.65 727.6
Q 491.2 727.65 491.9 727.6 492.6 727.6 493.35 727.45 494.1 727.35 494.8 727.1
L 494.9 727.1 495.2 727.05 495.25 727
Q 495.55 726.9 495.85 726.75 496.1 726.55 496.4 726.3 496.6 726.15 496.75 726 496.9 725.8 497.05 725.65
L 497.05 725.75
Q 497.25 725.4 497.4 725 497.5 724.6 497.55 724.2 497.55 724 497.55 723.85 497.5 723.7 497.5 723.65 497.3 722.15 497.25 720.65 497.2 719.15 497.5 717.7 497.75 716.25 498.45 714.9 499.55 713.25 501.05 712.6 502.5 712 504.25 712.1 506 712.2 507.9 712.75 509.35 713.35 510.8 713.85 512.3 714.35 513.8 714.7 515.15 715.15 516.5 715.5 517.85 715.8 519.1 715.95 520.35 716.05 521.55 715.85 521.85 715.8 522.15 715.75 522.5 715.7 522.8 715.6 526.25 715.35 529.2 714 532.1 712.6 534.3 710.25 536.5 707.85 537.95 704.6 539.55 702.15 540.4 699.4 541.3 696.65 541.3 693.6 541.3 690.55 540.35 687.3 539.45 684.3 537.5 681.3 535.6 678.3 533 675.45 530.4 672.65 527.45 670.25 524.5 667.8 521.55 665.9 520.95 665.5 520.4 665.1 519.8 664.75 519.25 664.35 518.95 664.15 518.35 663.8 517.7 663.4 516.95 663.05 516.2 662.65 515.55 662.45 514.85 662.25 514.45 662.35 514.35 662.3 514.25 662.3 514.1 662.25 514 662.2
L 513.95 662.2 513.85 662.25
Q 513.8 662.25 513.7 662.25 513.2 662.7 513.1 663.45 513 664.15 513.1 664.95 513.2 665.7 513.35 666.25
L 513.45 666.7 513.5 666.85
Q 514.05 668.9 514.45 671 514.85 673.05 514.95 675.1 515.05 677.1 514.65 678.9 514.25 680.2 513.55 681.2 512.85 682.2 511.9 682.9 511.3 683.15 510.55 683.35 509.75 683.5 508.85 683.65 508.05 683.75 507.25 683.75 506.4 683.75 505.6 683.6 505.3 683.5 504.95 683.4 504.65 683.3 504.3 683.2 503.2 681.6 501.8 680.05 500.4 678.5 498.75 677.25 497.1 676 495.3 675.3 493.5 674.65 491.6 674.75
L 491.45 674.75
Q 491.35 674.75 491.3 674.8 491 674.85 490.65 674.85 490.3 674.85 489.95 674.9 489.6 675 489.3 675.15 489.2 674.9 489.05 674.65 488.9 674.4 488.8 674.2 488.5 673.9 488.15 673.55 487.85 673.15 487.55 672.85
L 487.35 672.6 487.2 672.45
Q 486.9 672.15 486.55 671.85 486.25 671.55 485.9 671.25 485.7 671 485.45 670.8
L 485.2 670.55
Q 483.8 669.4 482.1 668.4 480.45 667.45 478.55 666.7 477.75 666.35 476.9 666.05 476.1 665.75 475.25 665.45 475.05 665.5 474.85 665.5 474.65 665.5 474.5 665.5 472.4 665.05 470.3 665.05 468.2 665 466.2 665.4 464.2 665.8 462.35 666.75 462.25 666.8 462.1 666.85 461.95 666.9 461.8 667 459.35 667.85 457.05 669.05 454.75 670.3 452.65 671.9 450.6 673.45 448.85 675.35 447.5 676.65 446.4 678.1 445.25 679.5 444.5 681 443.7 682.2 443.25 683.5 442.85 684.8 443 686.1 443.2 687.25 443.65 688.6
M 444.4 688.65
L 444.35 688.5 444.4 688.6 444.4 688.65
M 501.55 711.4
L 501.6 711.35 501.65 711.35 501.55 711.4 Z"/>
</g>

<g id="Symbol_5_0_Layer0_0_FILL">
<path fill="#0075c9" stroke="none" d="
M 1005.65 543.5
L 1001.25 543.5 1001.25 545.8
Q 999.95 544.35 998.5 543.65 997.05 542.95 995.4 542.95 993.5 542.95 991.9 543.7 990.3 544.45 989.05 545.9 987.8 547.35 987.15 549.2 986.55 551.05 986.55 553.25 986.55 555.5 987.15 557.35 987.8 559.2 989.05 560.7 990.35 562.2 991.95 562.9 993.55 563.65 995.5 563.65 997.05 563.65 998.5 563 999.95 562.35 1001.25 561.05
L 1001.25 563.1 1005.65 563.1 1005.65 543.5
M 1001.55 553.35
Q 1001.55 554.7 1001.15 555.85 1000.8 557 1000.05 557.9 999.3 558.75 998.35 559.15 997.35 559.6 996.15 559.6 995.05 559.6 994.1 559.15 993.15 558.7 992.4 557.8 991.7 556.95 991.35 555.8 990.95 554.65 990.95 553.25 990.95 551.9 991.35 550.8 991.7 549.7 992.45 548.8 993.2 547.95 994.15 547.5 995.1 547.05 996.2 547.05 997.4 547.05 998.35 547.5 999.3 547.9 1000.05 548.8 1000.8 549.7 1001.15 550.8 1001.55 551.95 1001.55 553.35
M 980.35 543.45
Q 979.9 543.7 979.35 544.15 978.85 544.6 978.25 545.25
L 978.25 543.5 973.9 543.5 973.9 563.1 978.25 563.1 978.25 552.95
Q 978.25 550.15 979.1 548.75 980 547.35 981.8 547.35 982.35 547.35 982.95 547.6 983.6 547.8 984.2 548.25
L 986.2 544.15
Q 985.25 543.55 984.35 543.25 983.45 542.95 982.6 542.95 981.95 542.95 981.4 543.1 980.85 543.2 980.35 543.45
M 1016.6 543.45
Q 1016.15 543.7 1015.65 544.15 1015.1 544.65 1014.45 545.3
L 1014.45 543.5 1010.15 543.5 1010.15 563.1 1014.45 563.1 1014.45 553
Q 1014.45 551.45 1014.7 550.3 1014.9 549.2 1015.3 548.45 1015.75 547.75 1016.4 547.4 1017.05 547.05 1018 547.05 1019.45 547.05 1020.15 548.35 1020.9 549.65 1020.9 552.25
L 1020.9 563.1 1025.25 563.1 1025.25 553
Q 1025.25 551.4 1025.45 550.3 1025.65 549.15 1026.05 548.45 1026.45 547.75 1027.1 547.4 1027.75 547.05 1028.65 547.05 1029.45 547.05 1030 547.35 1030.55 547.65 1030.9 548.25 1031.25 548.8 1031.4 549.8 1031.55 550.8 1031.55 552.2
L 1031.55 563.1 1035.9 563.1 1035.9 551
Q 1035.9 546.95 1034.35 544.95 1032.75 542.95 1029.55 542.95 1027.8 542.95 1026.45 543.7 1025.05 544.4 1024.05 545.85 1023.1 544.4 1021.85 543.7 1020.6 542.95 1019 542.95 1018.3 542.95 1017.7 543.1 1017.1 543.2 1016.6 543.45
M 920.15 543.5
Q 918.9 542.95 917.25 542.95 915.8 542.95 914.55 543.55 913.25 544.15 912.1 545.3
L 912.1 543.5 907.75 543.5 907.75 563.1 912.1 563.1 912.1 553.65
Q 912.1 551.8 912.35 550.55 912.55 549.25 913 548.55 913.45 547.8 914.25 547.4 915 547.05 916.05 547.05 917.05 547.05 917.75 547.35 918.45 547.6 918.8 548.15 919.2 548.7 919.4 549.7 919.6 550.7 919.6 552.15
L 919.6 563.1 923.95 563.1 923.95 551.1
Q 923.95 549 923.55 547.5 923.15 546.05 922.35 545.1 921.45 544.05 920.15 543.5
M 903.25 543.5
L 898.9 543.5 898.9 563.1 903.25 563.1 903.25 543.5
M 900 538.1
Q 900.5 538.35 901.1 538.35 901.65 538.35 902.15 538.1 902.65 537.9 903.05 537.45 903.5 537.05 903.7 536.5 903.9 536 903.9 535.4 903.9 534.75 903.7 534.25 903.5 533.75 903.05 533.3 902.65 532.9 902.15 532.65 901.65 532.45 901.05 532.45 900.5 532.45 900 532.65 899.5 532.9 899.05 533.3 898.65 533.75 898.45 534.25 898.25 534.75 898.25 535.35 898.25 536 898.45 536.5 898.65 537.05 899.05 537.45 899.5 537.9 900 538.1
M 941.45 543.7
Q 939.65 542.95 937.55 542.95 935.5 542.95 933.7 543.7 931.9 544.45 930.45 545.95 929 547.45 928.3 549.25 927.55 551.05 927.55 553.15 927.55 555.4 928.25 557.3 929 559.15 930.4 560.65 931.85 562.15 933.6 562.9 935.4 563.65 937.5 563.65 939.6 563.65 941.4 562.9 943.25 562.15 944.7 560.7 946.15 559.2 946.9 557.35 947.6 555.5 947.6 553.3 947.6 551.15 946.9 549.3 946.15 547.45 944.7 545.95 943.25 544.45 941.45 543.7
M 943.15 553.35
Q 943.15 554.75 942.8 555.9 942.4 557.05 941.65 557.9 940.9 558.75 939.85 559.2 938.85 559.6 937.55 559.6 936.3 559.6 935.3 559.15 934.25 558.75 933.5 557.9 932.75 557 932.35 555.85 932 554.7 932 553.25 932 551.85 932.4 550.75 932.75 549.65 933.55 548.8 934.3 547.9 935.3 547.45 936.35 547.05 937.55 547.05 938.85 547.05 939.85 547.45 940.85 547.9 941.65 548.8 942.4 549.65 942.8 550.75 943.15 551.9 943.15 553.35
M 962.4 543.65
Q 960.9 542.95 959.15 542.95 957.1 542.95 955.5 543.75 953.85 544.55 952.6 546.15 951.45 547.65 950.9 549.45 950.3 551.3 950.3 553.4 950.3 555.6 950.95 557.45 951.55 559.3 952.8 560.75 954 562.2 955.6 562.9 957.15 563.65 959.1 563.65 960.8 563.65 962.25 562.95 963.75 562.25 965.05 560.9
L 965.05 563.65
Q 965.05 566.65 963.85 568.2 962.65 569.7 960.3 569.7 959 569.7 958 569.25 957 568.8 956.35 567.85 956.05 567.5 955.85 566.9 955.65 566.35 955.5 565.65
L 951.15 565.65
Q 951.35 567.55 952.05 569.05 952.8 570.55 954.05 571.65 955.25 572.7 956.8 573.25 958.35 573.8 960.25 573.8 962.5 573.8 964.25 573 966 572.25 967.25 570.75 967.95 569.95 968.4 569 968.85 568.05 969.05 566.95 969.15 566.55 969.2 566.05 969.25 565.6 969.3 565.05 969.35 564.55 969.35 563.95 969.4 563.3 969.4 562.6
L 969.4 543.5 965.05 543.5 965.05 545.7
Q 963.85 544.35 962.4 543.65
M 965.2 553.35
Q 965.2 554.7 964.9 555.8 964.55 556.85 963.9 557.75 963.15 558.65 962.2 559.15 961.2 559.6 959.95 559.6 958.7 559.6 957.75 559.15 956.75 558.7 956.05 557.75 955.4 556.9 955.1 555.8 954.75 554.7 954.75 553.35 954.75 552 955.1 550.9 955.4 549.8 956.05 548.95 956.75 548 957.75 547.5 958.7 547.05 959.95 547.05 961.1 547.05 962.05 547.5 963 547.9 963.75 548.8 964.5 549.65 964.85 550.8 965.2 551.9 965.2 553.35
M 887.65 542.95
Q 886.25 542.95 885 543.5 883.7 544.05 882.55 545.15
L 882.55 534 878.2 534 878.2 563.1 882.55 563.1 882.55 553.6
Q 882.55 551.8 882.8 550.55 883 549.25 883.45 548.5 883.9 547.8 884.7 547.4 885.55 547.05 886.65 547.05 887.55 547.05 888.2 547.3 888.85 547.55 889.25 548.1 889.65 548.65 889.85 549.5 890.05 550.35 890.05 551.5
L 890.05 563.1 894.4 563.1 894.4 551.1
Q 894.4 549.05 894 547.55 893.6 546.05 892.75 545.1 891.8 544.05 890.55 543.5 889.25 542.95 887.65 542.95
M 868.15 543.5
L 863.8 543.5 863.8 563.1 868.15 563.1 868.15 552.95
Q 868.15 550.15 869.05 548.75 869.95 547.35 871.7 547.35 872.3 547.35 872.9 547.6 873.5 547.8 874.15 548.25
L 876.1 544.15
Q 875.2 543.55 874.3 543.25 873.4 542.95 872.5 542.95 871.85 542.95 871.3 543.1 870.75 543.2 870.3 543.45 869.8 543.7 869.3 544.15 868.75 544.6 868.15 545.25
L 868.15 543.5 Z"/>
</g>

<g id="Symbol_13_0_Layer0_0_FILL">
<path fill="#82bc00" stroke="none" d="
M 678.4 334.85
Q 676.6 333.65 674.8 332.4 673 331.2 671.25 329.95 666.15 326.35 661.35 322.65 656.5 318.95 652.1 315.1 663 334.95 675.95 353 688.85 371 698.6 383.15 703.45 389.3 708.55 395.05 713.6 400.8 718.85 406.15 714.65 407.95 711.6 411.2 708.5 414.4 706.2 418.65 705.4 420.15 704.7 421.7 704.05 423.2 703.5 424.75 704.3 428.95 705.7 432.95 707.1 436.95 709 440.8 712.35 447.4 716.8 453.35 721.25 459.3 726.25 464.5 729.85 468.25 733.75 471.9 737.65 475.55 741.85 479.15 745.1 481.95 748.45 484.65 751.85 487.35 755.3 490.05 763.05 495.95 771.15 501.6 779.2 507.3 787.4 512.7
L 787.7 512.9 787.9 513
Q 788 513.05 788.1 513.15 788.95 513.7 789.8 514.25
L 791.5 515.4
Q 795.25 517.85 798.95 520.25 802.65 522.6 806.3 524.95
L 815.15 530.6
Q 819.5 533.4 823.7 536.1 825.5 537.25 827.3 538.4 829.05 539.5 830.85 540.6 834.1 542.65 837.35 544.65 840.55 546.6 843.8 548.5 867.3 562.45 890.95 573.5 914.55 584.55 938.95 593.15 939.3 593.25 939.7 593.4 940.05 593.5 940.45 593.65 942.55 594.4 944.7 595.1 946.85 595.85 949 596.55 949.5 595.6 950.1 594.7 950.65 593.8 951.2 592.85 956.5 584.25 962.7 575.7 968.9 567.2 975.85 558.85 987.8 544.5 1001.25 531.15 1014.7 517.85 1028.85 506.15
L 1028.75 506.15 1028.55 506.05 1027.9 505.9
Q 1027.6 505.8 1027.25 505.75 1025.1 505.15 1022.95 504.55 1020.75 503.95 1018.6 503.3 1005.8 499.65 993.2 495.45 980.6 491.25 968.15 486.6 960.95 486.5 953.85 486.35 946.75 486.25 939.9 486.15 933.1 485.85 931.3 482.95 929.5 480 932.5 477.55 926.5 476.25 917.7 474 908.9 471.75 901.75 469.2
L 896.1 466.7 893.45 464.3
Q 893 462.8 893.1 461.75 893.2 460.7 893.8 460 884.75 454.95 875.6 449.7 866.4 444.45 857.2 439.35 847.65 434.1 838.35 428.5 829.05 422.9 819.9 417.15 817.95 416.85 816.05 416 814.1 415.15 812.75 414.3 805.55 409.75 798.25 405.25 790.9 400.8 783.5 396.3 781.75 396.5 779.75 395.6 777.7 394.7 775.65 393.35 765.6 387.05 755.1 380.55 744.65 374 734.2 367.25 726.05 362.9 717.65 358.25 709.25 353.65 700.8 348.7 700.65 348.65 700.5 348.55 700.3 348.45 700.15 348.35 694.6 345.1 689.15 341.75 683.7 338.35 678.4 334.85
M 683.45 168.3
Q 681 166.95 678 166.05 674.95 165.1 672.1 165.55 671.5 165.4 670.75 165.45
L 669.8 165.55
Q 656.9 167.15 653.05 174.8 649.2 182.4 651.25 193.05 653.35 203.75 658.25 214.6 659.4 220.2 661.75 226.4 664.05 232.65 667.2 239.05 659.35 234.45 650.4 233.95 641.5 233.45 636.8 243.55
L 636.65 244.1
Q 636.5 244.6 636.3 245 635.95 246.1 635.65 247.5
L 635.3 249.2
Q 634.05 256.45 634.7 264.3 635.35 272.2 637.75 279.4 638.3 281.75 638.95 284.15 639.65 286.55 640.45 289
L 643 290.7
Q 644.3 291.6 645.55 292.45 647.45 293.75 649.4 295.05
L 654.45 298.5
Q 656.7 300 658.95 301.55
L 663.5 304.6
Q 667.3 307.15 671.1 309.7 674.9 312.25 678.7 314.8
L 678.7 314.85 683.85 318.25
Q 688.65 321.5 693.5 324.7 698.35 327.9 703.15 331.1 714.4 338.5 725.7 345.85 736.95 353.15 748.3 360.3 753.15 362.95 757.8 365.65 762.45 368.35 766.85 371.1 777.3 377.5 788.3 383.8 799.3 390.05 809.05 397 809.4 397.25 809.7 397.5
L 810.4 398
Q 814 400.1 817.65 402.15 821.25 404.2 824.9 406.25 837.25 412.95 849.6 419.45 862 426 874.35 432.3 901.7 446.3 928.6 456.7 955.45 467.1 983.6 475.45 985.9 475.35 988.2 475.3 990.5 475.25 992.85 475.15 985.25 469.6 977.75 464 970.3 458.4 962.95 452.7 900.7 404.65 846.3 352.6 791.9 300.55 744.95 245.5 732.85 231.3 721.2 217 709.6 202.65 698.45 188.15 694.65 183.2 690.9 178.25 687.15 173.3 683.45 168.3 Z"/>
</g>

<g id="Symbol_14_0_Layer0_0_FILL">
<path fill="#82bc00" stroke="none" d="
M 1347.85 394.9
L 1345.5 392.95 1339.25 392.85
Q 1331.95 395.05 1324.95 397.05 1317.95 399.05 1311.6 400.4 1311.3 400.45 1311.05 400.5 1310.75 400.55 1310.45 400.6 1228.85 423 1141.25 431.85 1053.65 440.7 962.85 439.65 922.1 441.25 881.05 441.2 840 441.15 799 438.95 792.9 438.6 786.85 438.25 780.75 437.85 774.7 437.4 772.15 437.2 769.55 437 766.95 436.8 764.35 436.6 756.4 435.95 748.25 435.2 740.1 434.4 731.85 433.45 729.25 433.95 726.35 435.1 723.45 436.25 722.1 438.35 721.6 438.55 721.25 439
L 720.8 439.6
Q 715.05 447.65 719.5 454.25 723.9 460.85 734.3 466 744.65 471.15 756.7 474.85 762.2 477.55 768.9 479.95 775.6 482.35 782.9 484.45 781.55 484.95 779.75 485.75 778 486.55 776.6 487.45 775.6 488.05 774.65 488.6 773.75 489.2 772.85 489.8 772.75 490.05 772.45 490.2
L 772.1 490.4
Q 766.5 496.55 771.2 502.95 775.9 509.4 785.85 515.05 800.5 526.25 826.15 533.7 851.85 541.2 878.8 545.6 905.8 550 924.3 552.05 932.35 553 940.1 553.6 947.85 554.2 955.35 554.5 954.65 557.85 955.7 561.45 956.8 565.05 959.2 568.85 960.05 570.25 961.1 571.6 962.1 572.95 963.2 574.25 975.85 583.95 994.1 588.45 1012.3 592.95 1031.6 594.55 1050.95 596.15 1066.9 597.15 1066.9 598.4 1067.35 599.6 1067.85 600.8 1068.35 601.65 1077 614.15 1091.65 619.05 1106.3 623.95 1121.9 624.3 1139.05 625.05 1157.6 623.55 1176.1 622.05 1195.1 618.75 1198.75 617.4 1202.4 616.1 1206 614.75 1209.65 613.4 1222.3 608.6 1234.75 603.65 1247.15 598.7 1259.3 593.7 1264.35 591.6 1269.35 589.5 1274.35 587.45 1279.3 585.35 1280.9 584.7 1282.45 584.05 1284 583.35 1285.6 582.7 1290.1 580.75 1294.65 578.65 1299.2 576.6 1303.75 574.45 1314.25 569.5 1324.5 564.1 1334.75 558.7 1344.55 552.9 1345.95 552.1 1347.25 551.25 1348.6 550.45 1349.95 549.65 1350.1 549.55 1350.25 549.45
L 1350.55 549.25
Q 1350.5 549.1 1350.45 548.95 1350.4 548.8 1350.3 548.7 1350.15 548.6 1349.95 548.5 1349.8 548.4 1349.6 548.35 1348.35 544.2 1347 540.3 1345.65 536.4 1345.25 534.85 1337.45 506.15 1326.7 477.65 1315.95 449.15 1307.2 420.35 1307.05 419.85 1306.85 418.8 1306.65 417.75 1306.25 416.4 1315.1 413.45 1323.15 410.15 1331.2 406.8 1338.35 403.15
L 1345.7 398.45 1347.85 394.9
M 796.3 497.5
L 795.8 497.2
Q 795.6 497.05 795.35 496.9 795.4 496.7 795.45 496.55 795.5 496.35 795.55 496.15 795.75 496.5 795.9 496.85 796.1 497.15 796.3 497.5
M 776.95 502.4
Q 777 502.55 777 502.7 775.95 501.7 775.2 500.65 774.45 499.65 774.05 498.6 774.65 499.5 775.35 500.35 776.1 501.2 776.85 502.05 776.9 502.2 776.95 502.4 Z"/>
</g>

<g id="Symbol_7_0_Layer0_0_FILL">
<path fill="#82bc00" stroke="none" d="
M 793 728.5
L 804.5 735.2
Q 815.8 741.55 835.15 750 854.5 758.4 879 765
L 889.25 742.3
Q 898.45 720.9 910.3 692.8 922.15 664.75 931.1 643.45
L 940.5 621 915.1 609.95 793 728.5 Z"/>
</g>

<g id="Symbol_15_0_Layer0_0_FILL">
<path fill="#82bc00" stroke="none" d="
M 1126.45 316.6
L 1108 333.45
Q 1093.35 347.55 1074.65 365.7 1056 383.85 1040.2 398.95
L 1018.5 418.75 1010.45 429.15 997.7 449.75
Q 982.6 475.4 962.3 507.95 942.05 540.45 920.75 566.3 899.45 592.15 881.3 597.75 863.35 603.05 853.05 615.55 842.7 628.1 842.45 638.5 842.15 648.9 854.3 647.7
L 870.15 641.3 880.85 634.15 893.4 624.35
Q 908.15 613 945.6 597.6 983 582.25 1025.7 564.65 1068.35 547 1098.8 528.8 1146.3 499.3 1173.75 473.9 1201.2 448.5 1215.35 422.2 1229.5 395.85 1237.1 363.6 1242.2 339.45 1227.85 327.85 1213.45 316.3 1191.05 313.4 1168.6 310.5 1149.6 312.3
L 1134.3 314.25 1126.45 316.6 Z"/>
</g>

<g id="Symbol_8_0_Layer0_0_FILL">
<path fill="#82bc00" stroke="none" d="
M 1037.75 310.3
Q 1009.25 300.8 986.6 302.35 963.9 303.9 957.85 315.55 952.7 327.45 948.8 344.7 944.85 362 941.6 380.45 938.35 398.9 935.2 414.45 934.25 425.55 959.65 428.65 985.05 431.8 1019.6 430.35 1054.15 428.9 1080.75 426.35
L 1108.75 423.5 1103.9 402.35
Q 1099.35 382.75 1094.8 363
L 1089.75 341.35
Q 1066.25 319.8 1037.75 310.3 Z"/>
</g>

<g id="Symbol_9_0_Layer0_0_FILL">
<path fill="#82bc00" stroke="none" d="
M 1012.35 269.55
Q 997.1 271.3 987.9 276.75 978.7 282.25 974.4 287.2 970.05 291.85 964.65 301 959.25 310.15 954.8 320.5 950.35 330.85 948.9 338.95 948 346.8 957.15 356.25 966.25 365.75 981.25 373.2 996.2 380.65 1012.8 382.4 1029.5 383.65 1046.8 379.85 1064.15 376 1077 369.5 1089.85 363 1093.1 356.25 1093 348.8 1088.15 331 1083.35 313.25 1073.85 296.25 1064.3 279.25 1050.15 274.15 1027.6 267.85 1012.35 269.55 Z"/>
</g>

<g id="Symbol_10_0_Layer0_0_FILL">
<path fill="#82bc00" stroke="none" d="
M 1099.4 333.3
Q 1110.85 323.1 1118.6 311
L 1115.05 308.9 1104.95 304.7
Q 1091.55 299.45 1068.2 297.6
L 1071.15 308.1
Q 1074.2 317.9 1077.85 329.4 1081.5 340.9 1083.4 346.7
L 1099.4 333.3 Z"/>
</g>

<g id="Symbol_153_0_Layer0_0_FILL">
<path fill="#0083CB" stroke="none" d="
M 1035.4 302.25
L 1033.5 301.25 1031.5 300.65 1029.35 300.45 1027.25 300.65 1025.25 301.25 1023.35 302.25 1021.75 303.6 1020.4 305.25 1019.4 307.1 1018.75 309.15 1018.55 311.25 1018.75 313.35 1019.4 315.4 1020.4 317.25 1021.75 318.9 1023.35 320.25 1025.25 321.25 1027.25 321.85 1029.35 322.05 1031.5 321.85 1033.5 321.25 1035.4 320.25 1037 318.9 1038.35 317.25 1039.35 315.4 1040 313.35 1040.2 311.25 1040 309.15 1039.35 307.1 1038.35 305.25 1037 303.6 1035.4 302.25 Z"/>
</g>

<g id="Symbol_12_0_Layer0_0_FILL">
<path fill="#82bc00" stroke="none" d="
M 1040.4 290.7
Q 1036.7 285.45 1029.15 285.1 1020.3 285.55 1015.95 292.1 1011.65 298.6 1010.8 306.75
L 1046.25 307 1045.2 301.3
Q 1044.1 296 1040.4 290.7 Z"/>
</g>

<g id="Layer0_11_FILL">
<path fill="#FFFFFF" stroke="none" d="
M 515.2 662.75
Q 515.05 662.95 514.9 663.2 514.4 664.35 514.25 665.7 514.1 667.1 514.2 668.6 514.35 669.35 514.55 670.1 514.7 670.85 514.85 671.6 515.1 672.7 515.2 673.85 515.3 675 515.25 676.35
L 515.25 676.85 515.2 677.2 515.2 677.4
Q 515.3 677.7 515.5 678.05 515.7 678.45 516 678.7 516.25 679 516.55 679.05 516.45 678.9 516.35 678.65 516.25 678.4 516.1 678.1 516.65 678.55 517.3 678.9 517.95 679.25 518.55 679.45 519.15 679.6 519.65 679.55 520.9 679.3 521 677.65 521.1 676 520.55 673.75 520 671.5 519.25 669.45 518.55 667.4 518.15 666.3
L 518.25 666.3
Q 518.35 665.85 518.15 665.25 518 664.7 517.75 664.2 517.55 663.7 517.4 663.45
L 517.15 663.15
Q 516.85 663 516.55 662.9 516.25 662.75 515.95 662.65 515.85 662.6 515.7 662.55 515.6 662.55 515.5 662.5 515.35 662.6 515.2 662.75
M 520 603.1
Q 518.4 602.8 517 603 515.55 603.2 514.25 603.75 512.95 604.3 511.8 605.2 511.35 605.5 510.95 605.85 510.6 606.15 510.2 606.55 508.55 608.15 507.3 610.2 506.05 612.2 505.15 614.35 504.3 616.5 503.85 618.45 503.75 618.8 503.7 619.2 503.65 619.55 503.55 619.9 502.55 623.85 502.5 628.95 502.45 634.1 503.05 639.5 503.65 644.9 504.55 649.7 505.5 654.55 506.45 657.95 507.15 660.55 508.25 663.25 509.3 666 510.5 668.65 511.7 671.3 512.85 673.85 513 674.15 513.2 674.6 513.4 675 513.6 675.45 513.85 675.95 514.1 676.35 514.1 676.05 514.1 675.75 514.1 675.45 514.05 675.15
L 514.05 675
Q 514 674.5 513.95 674 513.9 673.55 513.8 673.05 513.65 672.2 513.45 671.3 513.3 670.45 513.05 669.55
L 512.65 668.3
Q 512.3 667.4 512.1 666.2 511.85 665 512 663.9 512.05 663.7 512.1 663.5 512.15 663.3 512.25 663.15 512.25 663 512.3 662.9 512.4 662.75 512.45 662.65 512.55 662.45 512.7 662.3 512.85 662.15 513.05 662
L 513.1 662
Q 513.25 661.85 513.4 661.75 513.6 661.7 513.8 661.6
L 513.9 661.6
Q 514.05 661.55 514.15 661.5 514.3 661.45 514.4 661.45 514.45 661.4 514.55 661.4
L 514.6 661.4
Q 514.85 661.35 515.05 661.35 515.25 661.35 515.45 661.35
L 515.65 661.4 516.05 661.4
Q 516.2 661.4 516.4 661.45 516.55 661.5 516.7 661.55 514.75 656.05 512.7 649 510.7 641.95 509.7 634.55 508.7 627.1 509.6 620.55 510.55 613.95 514.4 609.4 515.5 608.15 516.75 607.3 518 606.4 519.4 605.8 520.8 605.2 522.4 604.8 522.6 604.8 522.85 604.75 523.1 604.75 523.35 604.7 523.55 604.6 523.6 604.35 523.6 604.3 523.45 604.25 523.3 604.25 523.2 604.2
L 523.05 604.2 523 604.15 522.85 604.2
Q 522.45 603.9 521.85 603.65 521.25 603.4 520.75 603.25 520.2 603.1 520 603.1 Z"/>

<path fill="#0075c9" stroke="none" d="
M 513.1 662
L 513.05 662
Q 512.85 662.15 512.7 662.3 512.55 662.45 512.45 662.65 512.4 662.75 512.3 662.9 512.25 663 512.25 663.15 512.15 663.3 512.1 663.5 512.05 663.7 512 663.9 511.85 665 512.1 666.2 512.3 667.4 512.65 668.3
L 513.05 669.55
Q 513.3 670.45 513.45 671.3 513.65 672.2 513.8 673.05 513.9 673.55 513.95 674 514 674.5 514.05 675
L 514.05 675.15
Q 514.1 675.45 514.1 675.75 514.1 676.05 514.1 676.35 514.15 677.3 514.05 678.3 513.95 679.25 513.75 680.3 513.75 680.4 513.7 680.65 513.65 680.85 513.7 681 513.7 681.2 513.9 681.25 514.05 681.1 514.15 680.85 514.25 680.6 514.35 680.3
L 514.3 680.5
Q 514.3 680.55 514.25 680.7 514.2 680.85 514.2 680.95 514.2 681.1 514.35 681.15 514.55 680.95 514.7 680.55 514.85 680.15 514.9 679.75 515 679.35 515 679.15 515.05 678.9 515.1 678.65 515.15 678.4 515.15 678.2 515.15 678 515.15 677.9
L 515.2 677.4 515.2 677.2 515.25 676.85 515.25 676.35
Q 515.3 675 515.2 673.85 515.1 672.7 514.85 671.6 514.7 670.85 514.55 670.1 514.35 669.35 514.2 668.6 514.1 667.1 514.25 665.7 514.4 664.35 514.9 663.2 515.05 662.95 515.2 662.75 515.35 662.6 515.5 662.5 515.6 662.55 515.7 662.55 515.85 662.6 515.95 662.65 516.25 662.75 516.55 662.9 516.85 663 517.15 663.15
L 517.4 663.45
Q 517.8 663.9 518.15 664.35 518.55 664.75 518.85 665.05 519.15 665.35 519.45 665.3
L 519.5 665.25
Q 519.55 665.25 519.55 665.2
L 519.55 665
Q 519.95 665.4 520.5 665.95 521.05 666.5 521.55 666.95 522.1 667.35 522.45 667.3
L 522.55 667.3
Q 522.8 667.5 522.95 667.6 523.15 667.75 523.25 667.8
L 523.4 667.85
Q 523.5 667.95 523.6 667.9
L 523.65 667.6
Q 523.95 667.95 524.35 668.2 524.8 668.5 525.2 668.65 525.65 668.8 526 668.65 525.9 668.4 525.7 668.15 525.5 667.95 525.3 667.75 525.25 667.4 524.95 667.05 524.7 666.7 524.35 666.45 524.05 666.2 523.85 666.05 522.85 665.25 521.65 664.5 520.45 663.75 519.25 663.05 519 662.9 518.8 662.7 518.55 662.55 518.3 662.4 517.95 662.1 517.55 661.9 517.15 661.65 516.7 661.55 516.55 661.5 516.4 661.45 516.2 661.4 516.05 661.4
L 515.65 661.4 515.45 661.35
Q 515.25 661.35 515.05 661.35 514.85 661.35 514.6 661.4
L 514.55 661.4
Q 514.45 661.4 514.4 661.45 514.3 661.45 514.15 661.5 514.05 661.55 513.9 661.6
L 513.8 661.6
Q 513.6 661.7 513.4 661.75 513.25 661.85 513.1 662 Z"/>
</g>
</defs>



<g transform="matrix( 4.9486083984375, 0, 0, 4.9486083984375, -1463.25,-2713.35) ">
<use xlink:href="#Layer0_0_FILL"/>
</g>

<g transform="matrix( 1.90142822265625, 0, 0, 1.90142822265625, -845.05,-573.6) ">
<g transform="matrix( 1, 0, 0, 1, 0,0) ">
<use xlink:href="#Symbol_5_0_Layer0_0_FILL"/>
</g>
</g>

<g transform="matrix( 0.034576416015625, 0.127410888671875, -0.1340179443359375, 0.0308685302734375, 1016.55,4.75) ">
<g transform="matrix( 1, 0, 0, 1, 0,0) ">
<use xlink:href="#Symbol_13_0_Layer0_0_FILL"/>
</g>
</g>

<g transform="matrix( -0.0434417724609375, 0.123687744140625, -0.118408203125, -0.0415496826171875, 1089.75,3.6) ">
<g transform="matrix( 1, 0, 0, 1, 0,0) ">
<use xlink:href="#Symbol_14_0_Layer0_0_FILL"/>
</g>
</g>

<g transform="matrix( -0.1435089111328125, -0.0165557861328125, 0.0329132080078125, -0.1480560302734375, 1083.65,230.3) ">
<g transform="matrix( 1, 0, 0, 1, 0,0) ">
<use xlink:href="#Symbol_7_0_Layer0_0_FILL"/>
</g>
</g>

<g transform="matrix( -0.11346435546875, 0.097320556640625, -0.10443115234375, -0.108917236328125, 1146.6,74.3) ">
<g transform="matrix( 1, 0, 0, 1, 0,0) ">
<use xlink:href="#Symbol_15_0_Layer0_0_FILL"/>
</g>
</g>

<g transform="matrix( -0.1021881103515625, 0.006500244140625, -0.0148773193359375, -0.096282958984375, 1086.45,184.2) ">
<g transform="matrix( 1, 0, 0, 1, 0,0) ">
<use xlink:href="#Symbol_8_0_Layer0_0_FILL"/>
</g>
</g>

<g transform="matrix( -0.1021881103515625, 0.006500244140625, -0.0148773193359375, -0.096282958984375, 1086.45,184.2) ">
<g transform="matrix( 1, 0, 0, 1, 0,0) ">
<use xlink:href="#Symbol_9_0_Layer0_0_FILL"/>
</g>
</g>

<g transform="matrix( -0.0530853271484375, 0.0787200927734375, -0.0885772705078125, -0.0558319091796875, 1060.4,96.6) ">
<g transform="matrix( 1, 0, 0, 1, 0,0) ">
<use xlink:href="#Symbol_10_0_Layer0_0_FILL"/>
</g>
</g>

<g transform="matrix( -0.1021881103515625, 0.006500244140625, -0.0148773193359375, -0.096282958984375, 1086.45,184.2) ">
<g transform="matrix( 1, 0, 0, 1, 0,0) ">
<use xlink:href="#Symbol_153_0_Layer0_0_FILL"/>
</g>
</g>

<g transform="matrix( -0.1021881103515625, 0.006500244140625, -0.0148773193359375, -0.096282958984375, 1086.45,184.2) ">
<g transform="matrix( 1, 0, 0, 1, 0,0) ">
<use xlink:href="#Symbol_12_0_Layer0_0_FILL"/>
</g>
</g>

<g transform="matrix( 4.9486083984375, 0, 0, 4.9486083984375, -1463.25,-2713.35) ">
<use xlink:href="#Layer0_11_FILL"/>
</g>
</svg>
