
<svg xmlns="http://www.w3.org/2000/svg" version="1.1" xmlns:xlink="http://www.w3.org/1999/xlink" preserveAspectRatio="none" x="0px" y="0px" width="760px" height="880px" viewBox="614 10 760 880">
<defs>


<g id="Symbol_81_0_Layer0_0_FILL">
<path fill="#82bc00" stroke="none" d="
M 1026 343.75
Q 1003 339.2 981.85 338 960.65 336.75 947 337.1
L 932.85 337.55 926.05 351.8
Q 919.65 365.2 912.45 380.3 905.25 395.35 902.4 401.45
L 1083.25 425.1 1080.9 414.7
Q 1078.7 404.8 1075.8 391.7 1072.85 378.65 1070.6 368.6
L 1068.15 357.75
Q 1049 348.25 1026 343.75 Z"/>
</g>

<g id="Symbol_82_0_Layer0_0_FILL">
<path fill="#82bc00" stroke="none" d="
M 1001.3 267.15
Q 985.7 268.95 976.15 274.55 966.6 280.1 962.25 285.1 957.65 290.25 949.25 304.95 940.85 319.65 934.05 333.65
L 928.95 344.9 927.3 350.7
Q 928.8 356.4 938.95 362.55 949.05 368.7 963.35 373.65 977.6 378.55 991.55 380.55 1008.1 382.65 1024.7 381.35 1041.25 380.05 1053.4 375.85 1065.55 371.6 1068.75 365
L 1067.35 336.85
Q 1065.85 316.35 1059.65 296.65 1053.45 276.95 1039.5 271.65 1016.95 265.35 1001.3 267.15 Z"/>
</g>

<g id="Symbol_71_0_Layer0_0_FILL">
<path fill="#82bc00" stroke="none" d="
M 1106.5 326.35
Q 1113.75 318.9 1118.6 311
L 1115.05 308.9 1104.95 304.7
Q 1091.55 299.45 1068.2 297.6
L 1071.15 308.1
Q 1074.2 317.9 1077.85 329.4 1081.5 340.9 1083.4 346.7 1086.05 344.75 1092.65 339.3 1099.2 333.8 1106.5 326.35 Z"/>
</g>

<g id="Symbol_72_0_Layer0_0_FILL">
<path fill="#82bc00" stroke="none" d="
M 1015.35 632
L 973.55 634.3 989 819.4 1015.35 632 Z"/>
</g>

<g id="Symbol_8_0_Layer0_0_FILL">
<path fill="#82bc00" stroke="none" d="
M 1037.75 310.3
Q 1009.25 300.8 986.6 302.35 963.9 303.9 957.85 315.55 952.7 327.45 948.8 344.7 944.85 362 941.6 380.45 938.35 398.9 935.2 414.45 934.25 425.55 959.65 428.65 985.05 431.8 1019.6 430.35 1054.15 428.9 1080.75 426.35
L 1108.75 423.5 1103.9 402.35
Q 1099.35 382.75 1094.8 363
L 1089.75 341.35
Q 1066.25 319.8 1037.75 310.3 Z"/>
</g>

<g id="Symbol_9_0_Layer0_0_FILL">
<path fill="#82bc00" stroke="none" d="
M 1012.35 269.55
Q 997.1 271.3 987.9 276.75 978.7 282.25 974.4 287.2 970.05 291.85 964.65 301 959.25 310.15 954.8 320.5 950.35 330.85 948.9 338.95 948 346.8 957.15 356.25 966.25 365.75 981.25 373.2 996.2 380.65 1012.8 382.4 1029.5 383.65 1046.8 379.85 1064.15 376 1077 369.5 1089.85 363 1093.1 356.25 1093 348.8 1088.15 331 1083.35 313.25 1073.85 296.25 1064.3 279.25 1050.15 274.15 1027.6 267.85 1012.35 269.55 Z"/>
</g>

<g id="Symbol_12_0_Layer0_0_FILL">
<path fill="#82bc00" stroke="none" d="
M 1040.4 290.7
Q 1036.7 285.45 1029.15 285.1 1020.3 285.55 1015.95 292.1 1011.65 298.6 1010.8 306.75
L 1046.25 307 1045.2 301.3
Q 1044.1 296 1040.4 290.7 Z"/>
</g>

<g id="Symbol_74_0_Layer0_0_FILL">
<path fill="#82bc00" stroke="none" d="
M 751.55 592.25
L 718.45 576.8
Q 687.05 562.15 645.65 542.85 604.3 523.5 572.7 508.8
L 539.2 493.2
Q 537.15 510.95 537.9 538.7 538.7 566.45 541.8 594.1 544.95 621.75 550 639.2
L 586.15 638.95
Q 620.1 638.6 664.5 638.05 708.95 637.45 742.65 637
L 778.15 636.55
Q 771.55 625.4 765 614.65 758.45 603.85 751.55 592.25 Z"/>
</g>

<g id="Symbol_83_0_Layer0_0_FILL">
<path fill="#82bc00" stroke="none" d="
M 901.15 445.75
L 891.7 448.25
Q 889.7 457.4 886.75 475.35 883.85 493.25 879.3 517.4 874.75 541.6 867.8 569.4 861.8 594.3 852.3 620.3 842.8 646.3 826.1 671.9 809.4 697.5 781.8 721.2
L 794.4 723.05 817.75 720.6
Q 846.5 716.05 887.8 703.55 929.1 691.05 974.1 671.2 1027.05 647.2 1057.7 622.85 1088.35 598.55 1102 574.15 1115.65 549.75 1117.6 525.6 1119.75 500.15 1117.15 475.2 1114.55 450.2 1111.05 433.25
L 1106.85 415.15 1073.25 419.65
Q 1041.4 424.05 999.5 430.2 957.6 436.3 925.65 441.5
L 901.15 445.75 Z"/>
</g>

<g id="Symbol_105_0_Layer0_0_FILL">
<path fill="#0083CB" stroke="none" d="
M 1022.3 307.6
L 1020.35 307 1018.3 306.75 1016.25 307 1014.35 307.6 1012.55 308.65 1011.05 309.95 1009.75 311.65 1008.85 313.5 1008.25 315.5 1008.1 317.6 1008.25 319.65 1008.85 321.65 1009.75 323.55 1011.05 325.2 1012.55 326.55 1014.35 327.55 1016.25 328.2 1018.3 328.4 1020.35 328.2 1022.3 327.55 1024.05 326.55 1025.55 325.2 1026.85 323.55 1027.8 321.65 1028.35 319.65 1028.55 317.6 1028.35 315.5 1027.8 313.5 1026.85 311.65 1025.55 309.95 1024.05 308.65 1022.3 307.6 Z"/>
</g>

<g id="Symbol_78_0_Layer0_0_FILL">
<path fill="#82bc00" stroke="none" d="
M 1032.8 313.4
L 1032.05 308.55
Q 1031.2 304.1 1028.4 299.6 1025.6 295.15 1019.9 294.9 1013.25 295.25 1010 300.8 1006.75 306.3 1006.1 313.2
L 1032.8 313.4 Z"/>
</g>

<g id="Symbol_115_0_Layer0_0_FILL">
<path fill="#DF4444" stroke="none" d="
M 1255.9 370.2
L 1255.9 370.9 1256.05 372.5
Q 1256.3 374.55 1256.7 377.15 1257.1 379.75 1257.45 381.75
L 1257.85 384.05 1257.65 381.65
Q 1257.35 379.5 1257 376.75 1256.6 374 1256.25 372.05
L 1255.9 370.2 Z"/>

<path fill="#FFFFFF" stroke="none" d="
M 1081.2 230.6
Q 1075.05 226 1072.35 221.15
L 1055.35 378.55
Q 1057.8 379.35 1063.8 379.35 1069.8 379.4 1077.8 379.1 1085.8 378.8 1094.25 378.75 1102.7 378.7 1110.1 379.45 1117 380.2 1126.8 382.75 1136.6 385.25 1147.65 389 1158.7 392.75 1169.4 397.2 1180.1 401.65 1188.8 406.25 1194.05 409.05 1200.95 411.9 1207.8 414.75 1215.4 417 1223 419.25 1230.5 420.3 1237.95 421.3 1244.35 420.5 1249.05 419.8 1252.25 418.3 1255.45 416.75 1257.55 414.8 1259.6 412.8 1260.9 410.75 1264.2 405.4 1264.15 398.3 1264.1 391.15 1262.3 384.45 1260.5 377.75 1258.5 373.65
L 1256.85 370.7 1256.3 370.15 1255.9 370.2 1256.25 372.05
Q 1256.6 374 1257 376.75 1257.35 379.5 1257.65 381.65
L 1257.85 384.05 1257.45 381.75
Q 1257.1 379.75 1256.7 377.15 1256.3 374.55 1256.05 372.5
L 1255.9 370.9 1255.9 370.2
Q 1255.3 374 1250.8 375.45 1246.35 376.9 1239.05 375.35 1231.75 373.8 1222.6 368.55 1213.5 363.25 1203.6 353.5 1195 344.75 1185.7 332.9 1176.35 321.05 1166.45 307.95 1156.6 294.9 1146.25 282.5 1135.95 270.15 1125.35 260.35 1118.95 254.7 1111 249.65 1103 244.65 1095.15 239.95 1087.3 235.25 1081.2 230.6 Z"/>
</g>

<g id="Symbol_112_0_Layer0_0_FILL">
<path fill="#0075c9" stroke="none" d="
M 1070.05 179.2
L 1068.9 178.9
Q 1068 178.7 1067.2 178.45 1067.15 178.85 1067.1 179.3
L 1067.05 179.7 1067.05 179.9
Q 1066.65 183.1 1066.25 186.35 1065.9 189.6 1065.35 192.8 1064.45 198.35 1064.15 204.1 1063.85 209.9 1063.4 215.55 1062.3 227.45 1061.1 239.4 1059.9 251.3 1058.85 263.25 1057.45 279.4 1055.5 295.55 1053.6 311.75 1051.85 327.9 1050.1 344.1 1049.2 360.3 1049.1 362.1 1048.95 364.25 1048.85 366.35 1049 368.4 1049.1 370.5 1049.65 372.25
L 1049.8 372.5 1050 373
Q 1050.3 373.65 1050.5 374.2 1050.85 374.75 1051.45 375.2 1052.05 375.6 1052.6 375.5 1053.6 375.25 1054.05 374.5 1054.45 373.75 1054.6 372.8 1054.75 371.85 1054.85 371 1057.45 354.95 1059.5 338.9 1061.5 322.8 1063.5 306.7 1064.85 296.6 1067.15 286.65 1069.45 276.75 1072.2 266.9
L 1072.25 266.6 1072.4 266.05
Q 1072.6 265.4 1072.75 264.85 1072.7 265.3 1072.65 265.85
L 1072.55 266.3 1072.55 266.5
Q 1072 271.4 1071.65 276.25 1071.3 281.15 1070.75 286 1069.8 293 1068.7 300.05 1067.65 307.1 1067.1 314.2 1066.55 321.25 1067.1 328.35 1067.3 330.65 1066.95 332.9 1066.65 335.15 1066.4 337.45 1066.3 338.15 1066.2 338.95 1066.15 339.75 1066.35 340.45
L 1066.65 341.2 1066.95 341.35
Q 1067.25 341.3 1067.45 340.5 1067.4 340.95 1067.35 341.45
L 1067.3 341.9 1067.3 342.15
Q 1066.45 348.45 1065.5 354.8 1064.55 361.1 1064.15 367.5 1063.95 369.85 1063.75 372.25 1063.55 374.65 1063.75 377 1063.75 377.4 1063.8 377.8 1063.9 378.2 1063.95 378.6
L 1064.2 379.4
Q 1064.4 380.1 1064.7 380.6 1065.2 380.35 1065.7 379.95
L 1066.1 379.65 1066.3 379.45
Q 1067.65 377.9 1068.2 375.3 1068.75 372.7 1068.85 369.95 1068.95 367.2 1069 365.25 1069.2 361.45 1069.8 357.5 1070.4 353.5 1070.95 349.75 1073 334.7 1074.85 319.65 1076.7 304.55 1077.6 289.4 1077.8 286.2 1078 283 1078.2 279.85 1078.45 276.6 1079.65 263.15 1080.95 249.75 1082.25 236.3 1083.15 222.85 1083.75 214.65 1084.35 206.45 1085 198.2 1085.2 190 1085.2 189.15 1085.25 188.35 1085.25 187.5 1085.25 186.65 1085.25 186.3 1085.25 185.9 1085.2 185.5 1085.15 185.15 1085.1 184.35 1084.95 184.05 1084.8 183.8 1084.45 183.7 1084.05 183.55 1083.35 183.25 1082.65 182.95 1081.9 182.6 1081.2 182.25 1080.45 182 1079.75 181.85 1079 181.65 1078.3 181.5 1077.55 181.25 1076.75 181 1075.95 180.6 1075.2 180.2 1074.4 179.95 1073.7 179.75 1072.95 179.7 1072.2 179.65 1071.55 179.55 1071.15 179.45 1070.8 179.4 1070.45 179.3 1070.05 179.2 Z"/>
</g>

<g id="Symbol_113_0_Layer0_0_FILL">
<path fill="#FFFFFF" stroke="none" d="
M 1068.2 188.5
L 1068.2 188.75
Q 1063.55 234.55 1059.05 280.35 1054.55 326.1 1049.65 371.9 1043 433.65 1035.7 495.3 1028.35 557 1020.35 618.6 1014.85 660.8 1009.2 702.95 1003.55 745.15 998.25 787.4 998.2 787.8 998.15 788.25 998.1 788.7 998.05 789.1
L 997.9 790.35
Q 997.75 791.3 997.65 792.15 997.6 792.6 997.5 793.15
L 997.45 793.6 997.45 793.85
Q 997.3 794.7 997.2 795.55 997.1 796.4 997 797.25
L 996.9 798.1
Q 996.8 798.55 996.75 799
L 996.65 800
Q 996.55 800.85 996.45 801.55 996.9 801.55 997.45 801.55
L 997.85 801.6 998.1 801.6
Q 1001.45 801.7 1004.8 801.75 1008.15 801.8 1011.5 801.9
L 1012.5 801.95
Q 1013.3 801.95 1014 801.95 1014.05 801.5 1014.1 800.95
L 1014.2 800.25
Q 1022.85 730.9 1031.35 661.55 1039.9 592.2 1047.85 522.8 1055.85 453.4 1062.8 383.85 1067.55 335.75 1072 287.65 1076.4 239.55 1080.9 191.4 1080.9 191 1080.95 190.55 1081 190.1 1081.05 189.7
L 1081.1 188.8
Q 1081.15 188.15 1081.2 187.55 1080.75 187.55 1080.2 187.5
L 1079.5 187.5
Q 1077.8 187.4 1076.05 187.35 1074.35 187.3 1072.65 187.2
L 1071.8 187.15
Q 1071.35 187.15 1070.9 187.15
L 1070.55 187.1 1069.9 187.1
Q 1069.05 187.05 1068.35 187.05 1068.3 187.5 1068.25 188.05
L 1068.2 188.5 Z"/>
</g>

<g id="Symbol_109_0_Layer0_0_FILL">
<path fill="#FFFFFF" stroke="none" d="
M 882.55 535.5
Q 880.35 525.65 874.6 519.1 868.9 512.6 858.2 513.35 844.3 514.85 825.1 519.9 805.85 524.9 786.25 531.3 766.65 537.7 751.6 543.3 736.6 548.95 731 551.7 720.6 556.8 711.15 562.75 701.65 568.7 694.65 575.9 687.65 583.1 684.65 591.95 681.65 600.85 684.2 611.8 685.85 618.6 689.95 631.25 694 643.85 699.95 660.3 705.9 676.75 713.15 695.05 720.45 713.3 728.5 731.4
L 728.3 735.25
Q 727.95 738.3 729.3 742 730.65 745.7 735.8 748.5 740.95 751.3 752.05 751.55 766.15 751.55 775.8 748.5 785.45 745.4 790.8 741.7
L 795.1 738.4 797.35 736.05
Q 798.8 720.3 802.15 703.3 805.5 686.35 809.8 670.95 814.1 655.55 818.35 644.55 822.65 633.55 825.95 629.75 829.15 626.3 834.9 622.5 840.65 618.7 848.15 614.7 855.7 610.65 864.2 606.45 873 601.9 878.25 594.45 883.55 587 885.1 579.7 886.7 572.35 884.4 568.1 884.95 563.6 884.85 554.45 884.7 545.3 882.55 535.5 Z"/>
</g>

<g id="Symbol_98_0_Layer0_0_FILL">
<path fill="#0075c9" stroke="none" d="
M 1137.8 562.05
L 1136.95 559.4 1136.9 559.35 1136.85 559.2 1136.8 559.15 1135.3 557 1133.35 555.15 1129.05 552.25 1120.1 547.65 1120 547.65 1114.6 545.8 1111.85 545.2 1106.2 544.55 1095 544.55 1073 547.4 1062.15 549.75 1027.75 560.15 1017.5 564.45 1017.45 564.5 1017.4 564.5 1015.2 565.7 1006.95 571.6 999.8 578.7 998.85 579.85 998.6 579.1 998.25 578.65 997.25 578.4 996.3 578.9 996 579.35 995.95 580 996.25 583.1 993.95 586.65 993.75 587.25 993.8 587.8 994.5 588.65 995.5 588.85 996 588.6 996.4 588.1 996.7 587.6 999.1 604.2 1001.6 611.7 1009.25 653.55 1029.45 743.55 1031.3 748.75 1032.55 751.2 1032.65 751.3 1032.7 751.4 1034.25 753.45 1036.1 755.35 1040.2 758.5 1047.05 762.05 1054.35 764.4 1056.8 764.95 1056.85 764.95 1075.6 767.5 1083.75 767.95 1094.75 767.5 1097.45 766.95 1097.5 766.9 1097.6 766.9 1109.45 762.1 1118.5 757.2 1122.7 754.15 1122.85 753.95 1123.05 753.8 1124.4 751.5 1125.45 749 1133.6 721.7 1133.6 721.65 1134.25 719.1 1144.05 652.95 1144.55 621.2 1144 597.5 1142.85 586.95 1138.25 569.55 1137.8 562.05 Z"/>
</g>

<g id="Symbol_99_0_Layer0_0_FILL">
<path fill="#FFFFFF" stroke="none" d="
M 1101.4 492
Q 1089.3 478.35 1074 465.7 1058.7 453 1043.5 445.35 1028.35 437.65 1016.75 438.9 1002.5 441.1 995.35 447.25 988.15 453.4 985.75 461.55 983.35 469.7 983.55 478 983.7 486.25 984.15 492.7 984.45 498.95 987.2 514.1 989.95 529.3 994.35 550.55 998.75 571.8 1004.05 596.25 1009.35 620.65 1014.75 645.3 1019.5 666.85 1023.7 686.45 1027.95 706.05 1031.25 721.95 1034.55 737.9 1036.55 748.45
L 1039.1 750.6 1044.05 753.35
Q 1050.2 756.4 1059.35 758.85 1068.55 761.25 1079 761.2 1093.9 760.8 1102.45 758.3 1110.95 755.75 1114.6 753.05
L 1117.35 750.7 1118.35 749.2
Q 1132.1 701.05 1135.7 661.6 1139.3 622.2 1136.55 592.35 1133.8 562.55 1128.45 543.3 1123.1 524.05 1118.95 516.3 1113.5 505.65 1101.4 492 Z"/>
</g>

<g id="Symbol_19_0_Layer0_0_FILL">
<path fill="#FFFFFF" stroke="none" d="
M 656.95 766.95
L 648.9 766.15
Q 647.3 766.15 646.3 767.25 645.25 768.35 645.2 769.8 645.15 771.3 646.5 772.5
L 649.1 773.9 654.55 776.1
Q 661.45 778.7 672.95 780.7 684.4 782.7 699.15 781.9 713.85 781.15 730.65 775.45 742.3 771.1 752.6 762.8 762.95 754.5 770.9 745.45 778.9 736.4 783.5 729.9
L 788.3 722.65 787.25 721.25 784.35 718.45
Q 780.55 714.95 775.95 710.9 771.3 706.9 768.6 704.6 766.5 707.95 761.25 715.5 756 723 748.5 732 741.05 741.05 732.35 748.9 723.6 756.75 714.6 760.8 704.7 764.9 693.85 766.4 683 767.85 673.25 767.75 663.55 767.6 656.95 766.95 Z"/>
</g>

<g id="Symbol_51_0_Layer0_0_FILL">
<path fill="#FFFFFF" stroke="none" d="
M 985.85 192.35
L 988.05 188.95 988.85 186.9
Q 984.8 184.8 978.9 183.9 972.95 183.05 966.7 183.05 960.45 183.1 955.45 183.75 950.4 184.4 948.15 185.35 946.3 186.4 942.55 190.3 938.8 194.2 934.75 198.95 930.65 203.7 927.75 207.15
L 924.7 210.8 926.7 212.15
Q 928.55 213.35 930.55 214.55
L 932.15 215.45 933 215.75
Q 944.4 213.9 951.85 212.6 959.25 211.3 963.9 210 968.55 208.75 971.65 207 975 204.95 979 200.7 982.95 196.4 985.85 192.35 Z"/>
</g>

<g id="Symbol_100_0_Layer0_0_FILL">
<path fill="#FFFFFF" stroke="none" d="
M 752.8 734.5
L 753 761.45
Q 753.15 786.4 753.4 818.95 753.65 851.55 753.85 876.4
L 754.05 903
Q 760.2 908.05 773.9 910.2 787.55 912.3 804.4 911.85 821.3 911.35 837.15 908.55 853.05 905.75 863.6 901
L 868.1 880.3
Q 872.25 861 877.65 835.65 883.05 810.35 887.15 791.05
L 891.5 770.55
Q 884.05 756.65 865.1 748.1 846.2 739.55 823.25 735.6 800.35 731.65 780.85 731.6 761.4 731.5 752.8 734.5 Z"/>
</g>

<g id="Symbol_22_0_Layer0_0_FILL">
<path fill="#0083CB" stroke="none" d="
M 943.65 840.8
Q 942.6 838.75 942.2 837.35 941.45 834.6 941.05 831.85 940.7 829.05 940.15 826.35
L 939.65 824.85 939.1 824.45
Q 938.5 824.55 938.05 825.8 937.65 827 937.65 828.25 937.8 831.4 938.75 835.75 939.7 840.1 941.85 843.7 943.95 847.3 947.65 848.15 951.1 848.6 953.45 845.55 955.8 842.55 957.1 838.5 958.4 834.45 958.75 831.75 958.9 830.75 958.95 828.85 959 826.95 958.7 825.25 958.4 823.5 957.45 822.95
L 957.25 822.9
Q 957.1 822.9 957.05 822.95 956.7 823.3 956.6 823.8
L 956.45 824.5
Q 956.2 826.4 956.15 828.4 956.15 830.4 955.8 832.35 955.5 834.05 954.65 836.85 953.8 839.65 952.5 842.15 951.2 844.6 949.5 845.25 947.75 845.7 946.2 844.3 944.7 842.85 943.65 840.8 Z"/>
</g>

<g id="Symbol_101_0_Layer0_0_FILL">
<path fill="#0075c9" stroke="none" d="
M 951.25 738.5
Q 951.1 735.35 950.7 733.55 950.3 731.75 949.05 731.5 947.75 731.25 945.1 732.75 944.35 734.25 944.25 736.05 944.1 737.9 944.25 739.4 942.9 740.8 941.7 742.65 940.5 744.5 939.65 746.1
L 938.55 748.25
Q 933.45 760.6 932.3 778.25 931.1 795.95 933.15 815 935.2 834.05 939.75 850.5 944.25 867 950.55 877.05 950.9 877.6 951.5 878.55 952.1 879.5 952.9 880.55 953.1 882.2 954.05 883.2 954.95 884.2 957.25 883.55
L 957.4 883.4
Q 957.6 883.45 957.75 883.4 957.95 883.4 958.15 883.35 958.15 883.2 958.15 883.05 958.15 882.9 958.15 882.7 959.7 880.65 959.8 877.45 959.95 874.3 959.55 871.7
L 959.1 868.9
Q 957.2 836.3 955.2 803.7 953.2 771.1 951.25 738.5 Z"/>
</g>

<g id="Symbol_102_0_Layer0_0_FILL">
<path fill="#FFFFFF" stroke="none" d="
M 775.35 771.35
L 780.25 779.3
Q 784.9 786.85 791.3 797.4 797.7 808 803.25 817.3 808.75 826.65 810.65 830.5 813.45 836.4 817.35 847.3 821.3 858.15 825.1 869.8 828.95 881.4 831.55 889.5
L 834.3 898
Q 840.35 902.2 856.75 905.3 873.15 908.4 893 909.25 912.85 910.15 929.4 907.7 945.9 905.2 952.25 898.3 953.15 885.95 953 873.25 952.8 860.6 952.15 848 951.45 835.4 950.9 823.35 950.15 804.95 949.25 788.35 948.4 771.7 947.6 758.65 946.8 745.6 946.3 738
L 945.9 730.15
Q 926.5 724.75 904.1 727.45 881.65 730.1 858.55 737.65 835.45 745.2 814.05 754.4 792.65 763.65 775.35 771.35 Z"/>
</g>

<g id="Symbol_23_0_Layer0_0_FILL">
<path fill="#0083CB" stroke="none" d="
M 943.35 838.65
Q 942.15 836.05 941.4 832.95 940.6 829.9 939.6 827.1
L 939.2 826.4 938.9 826.25
Q 938.6 826.4 938.45 827.1 938.3 827.8 938.3 828.5 938.5 831.6 939.5 835.45 940.5 839.25 942.25 842.4 943.95 845.55 946.3 846.7 950.3 848.25 953.15 845.6 956 842.95 957.6 838.15 959.2 833.4 959.35 828.65 959.35 827.95 959.35 826.95 959.3 825.95 959.1 825.15 958.85 824.4 958.4 824.45 958.25 824.75 958.1 825.1
L 957.95 825.6
Q 957.35 827.6 957.1 829.8 956.8 831.95 956.3 834.1 955.15 838.55 953 841.25 950.85 843.95 948.25 843.6 945.7 843.25 943.35 838.65 Z"/>
</g>

<g id="Symbol_24_0_Layer0_0_FILL">
<path fill="#FFFFFF" stroke="none" d="
M 767.75 370.25
Q 761.25 380.3 755.45 391.15 750.05 401.45 744.55 413.1 739.05 424.75 734.6 434.95 730.15 445.1 727.9 450.95
L 771.25 455.05
Q 812.5 458.4 866.55 462.3 920.65 466.2 961.5 468.5
L 992.45 469.9 1000.55 469.95 1003.75 469.5
Q 1002.1 466.45 996 460.25 989.9 454.05 982.05 446.95 974.2 439.85 967.25 434.2 960.3 428.5 957 426.55
L 927.05 411.15
Q 901.4 398.15 869.15 381.9 836.9 365.6 812.8 353.5
L 787.45 340.75
Q 785.1 344.7 779.7 352.45 774.3 360.2 767.75 370.25 Z"/>
</g>

<g id="Symbol_103_0_Layer0_0_FILL">
<path fill="#0075c9" stroke="none" d="
M 948.5 775.95
L 947.65 774.35
Q 947 773.2 946.1 771.85 945.15 770.45 944.2 769.45 943.55 769.35 943.4 769.9 943.2 770.4 943.1 770.9 942.5 773.7 942.9 775.4 943.3 777.15 944.35 778.65 945.4 780.15 946.8 782.25
L 947.45 783.9
Q 947.9 785.15 948.55 786.7 949.2 788.2 950 789.35 950.1 789.3 950.2 789.25
L 950.4 789.1
Q 950.55 788.8 950.55 788.45 950.55 788.1 950.6 787.95 951.05 786.85 950.7 784.5 950.35 782.1 949.7 779.65 949 777.2 948.5 775.95
M 857.6 787
Q 857.85 787.25 858 787.3
L 862.75 787.8
Q 866.9 788.05 871.3 788.25
L 877.15 788.55
Q 877.6 788.6 878.7 788.75 879.75 788.85 880.85 788.8 882 788.7 882.7 788.2 882.5 788 882.25 787.8
L 881.9 787.55
Q 881.5 787.25 880.8 787 880.15 786.75 879.2 786.55 879.3 786.55 879.45 786.5 879.55 786.45 879.65 786.35 879.65 786.2 879.45 786.05 879.25 785.9 879.15 785.85 878.2 785.15 875.95 784.95 873.75 784.75 871.5 784.75 869.2 784.75 867.95 784.75
L 866.25 784.6
Q 864.9 784.5 863.75 784.3 863.5 784.3 863.3 784.4 863.05 784.5 862.95 784.65 862.5 784.65 862.05 784.6 861.6 784.6 861.25 784.55 861 784.55 860.65 784.75 860.3 784.95 860.2 785.15
L 860.25 785.25 859.45 785.2
Q 859.1 785.15 858.75 785.15 858.2 785.25 857.7 785.6 857.25 785.9 857.35 786.5 857.35 786.8 857.6 787
M 945.25 654.15
Q 938.05 671.65 932.85 689.8 927.7 707.95 924.55 728.45 923.7 733.8 923 738.9 922.3 743.95 921.85 748.85 922.25 748.7 922.65 748.6 923 748.45 923.3 748.4 923.6 748.45 923.95 748.5 924.35 748.6 924.45 748.7 926.05 750.4 927.55 754.9 929 759.35 930.3 764.4 931.55 769.45 932.4 772.9 933.05 772.8 933.95 772.85 934.8 772.9 935.85 773.1 935.85 770.65 936.75 767.85 937.65 765 939.7 763.35 941.8 761.65 945.45 762.65 946.95 763.4 948.45 764.65 949.95 765.9 951.1 767.1 952.25 768.3 952.6 768.85 953.95 770.75 955.7 773.9 957.4 777.1 958.65 780.3 959.95 783.5 959.9 785.5 961.1 785.2 962.45 784.9 963.85 784.6 965.35 784.3
L 966.55 784
Q 967.55 783.75 968.75 783.4 969.9 783.05 970.85 782.65 971.6 782.2 972.55 782 973.5 781.85 974.5 782 976.05 781 978.35 780.3 980.7 779.6 982.95 779.2 985.15 778.8 986.45 778.65 987.9 778.4 989.35 778.15 990.75 777.9 992.2 777.65 993.2 777.05 994.25 776.6 995.25 776.1 996.2 775.75 996.8 775.05 997.5 774.35 998.15 773.65 998.9 773 999.4 772.55 1000.2 771.9 1000.95 771.2 1001.9 770.9 1002.85 770.6 1003.85 771.15 1003.95 771.4 1004 771.65 1004.05 771.9 1004.1 772.15 1008.4 767.4 1012.6 762.65 1016.8 757.9 1022 754.15 1022.35 753.8 1022.75 753.5 1023.15 753.2 1023.5 753.7 1023.6 754.75 1023 755.85 1022.45 756.9 1021.8 757.7
L 1020.9 758.85
Q 1019.4 760.95 1017.9 762.85 1016.35 764.8 1014.75 766.6 1019.1 762.15 1023.05 757.5 1027 752.9 1031.25 748
L 1032.25 746.95
Q 1033 746.25 1034.05 745.45 1035.05 744.7 1036.05 744.3 1036.95 746.15 1035.5 748.95 1034.05 751.75 1032.15 754.05
L 1029.8 756.85
Q 1030.924609375 755.5935546875 1032.2 754.45
L 1032.6 754.15
Q 1032.95 753.95 1033.35 753.85 1033.95 755.45 1032.55 757.55 1031.2 759.7 1029.5 761.35
L 1027.45 763.35
Q 1027.3 763.5 1027.15 763.65 1027 763.8 1026.85 763.95 1026.35 764.5 1025.8 765.05 1025.2 765.55 1024.65 766.1 1023.65 767 1022.55 767.9 1021.5 768.8 1020.35 769.7 1018.95 770.8 1017.5 771.9 1016.05 772.95 1014.55 774 1013.65 774.6 1012.8 775.2 1011.9 775.8 1011.05 776.4 1010 777.1 1009 777.8 1008 778.45 1006.95 779.15 1005.7 780.1 1004.4 781 1003.1 781.95 1001.75 782.85 1001.2 783.2 1000.65 783.6 1000.1 783.95 999.5 784.3 1000.1 784.35 1000.7 784.45 1001.3 784.5 1001.9 784.65 1006.6 782.9 1010.9 780.95 1015.15 779.05 1018.5 777.25 1034.55 768.7 1047.3 757.35 1060.05 746 1069.45 732.45 1078.8 718.95 1084.65 703.7 1087.05 698.65 1089.05 693.2 1091 687.8 1092.5 682.15 1093.6 679.6 1094.25 676.65 1094.85 673.75 1095.15 670.7 1097.15 660 1097.85 648.95 1098.55 637.9 1098.05 626.85 1098.35 608.25 1094.65 589.55 1091 570.8 1082.55 552.15 1081.75 550.4 1080.95 548.65
L 1079.35 545.1
Q 1079.05 546.95 1079.75 549.2 1080.5 551.4 1080.8 553.5 1081.15 555.6 1079.6 557 1076.8 559.2 1075.45 557.5 1074.1 555.85 1073.45 552.75 1072.8 549.7 1072.15 547.6 1068.9 548.2 1066.75 544.4 1064.6 540.55 1063.3 535.4 1061.95 530.2 1061.15 526.7
L 1060.65 524.8
Q 1060.3 523.35 1059.85 521.55 1059.4 519.7 1059 518.25 1058.4 517.6 1057.45 517.85
L 1056.65 518.05 1056.2 518.1
Q 1054.05 516.8 1053.95 514.05 1053.85 511.3 1055.15 507.65 1034.95 521.35 1017.3 539.85 999.65 558.35 985.55 578.65 971.45 599 961.85 618.25 952.5 636.7 945.25 654.15
M 1089.15 689.8
Q 1089.4 688.9 1089.6 688.05 1089.8 687.15 1090.05 686.3
L 1090.2 686.05
Q 1090.3 685.95 1090.4 685.85 1090.1 686.85 1089.8 687.85 1089.5 688.8 1089.15 689.8
M 699.55 531.7
Q 699.25 531.2 698.95 530.8 698.8 530.6 698.6 530.5 698.4 530.4 698.15 530.4 697.85 530 697.5 529.65 697.2 529.3 696.9 529 695.65 528.5 695.95 529.2 696.25 529.95 697.15 531.25 697.15 531.45 697.15 531.75 697.2 532.05 697.25 532.45
L 696.5 530.8
Q 696 529.85 695.3 528.75 694.6 527.6 693.75 526.8 692.9 526.35 692.75 526.7 692.65 527.05 692.9 527.85 693.15 528.65 693.45 529.5 697.5 542 702.45 554.5 707.35 567 711.2 579.65 715.05 592.35 715.9 605.35 715.7 609.55 715.35 614 714.95 618.45 714.3 622.6 713.6 626.7 712.6 629.95 712.35 632.1 711.95 634.25 711.6 636.4 711 638.6 710.8 639.85 710.55 641.1 710.3 642.3 710 643.5 709.95 643.75 709.9 644 709.85 644.3 709.85 644.55
L 709.75 645.25
Q 709.7 645.6 709.65 645.9 709.1 649.5 708.6 652.95 708.05 656.4 707.3 660 706.95 661.9 706.5 663.75 706.05 665.6 705.55 667.4 704.3 670.7 703.2 674.1 702.15 677.5 701.25 679.45 699.25 683.6 697.8 689.55 696.3 695.45 695.9 702.05 696.15 703.55 696.5 705.05 696.8 706.55 697.2 708.05
L 697.25 708.2
Q 697.25 708.3 697.3 708.4 697.3 708.5 697.35 708.65 697.7 709.95 698.2 711.3 698.65 712.65 699.2 714.05 699.45 714.6 699.7 715.15 699.95 715.7 700.2 716.3 700.5 716.85 700.75 717.4 701.05 717.95 701.35 718.55 701.6 719 701.85 719.45 702.1 719.85 702.35 720.3
L 702.65 720.75
Q 702.8 721 702.9 721.25 703.55 722.25 705.1 724.45 706.7 726.65 708 728.8
L 709.05 730.65 709.4 731.85
Q 709.4 732 709.3 732.3 709.2 732.6 708.85 732.75
L 708.4 732.7
Q 708.5 732.85 708.65 733 708.75 733.15 708.9 733.3 709.75 733.8 711.4 734.85 713.05 735.9 715 737.25 716.65 735.7 717.7 733.95 718.8 732.15 719.3 731.4 727.45 722.25 732.15 716.1 736.9 710 739.2 703.9 741.55 697.85 742.45 688.7 746.45 671.3 746.65 652.9 746.85 634.45 742.85 616 738.8 597.55 730.05 580.1 728.2 576.5 726.2 573.25 724.15 569.95 722.05 566.95 721.15 563.5 719.9 560.45 718.65 557.4 716.85 555.1 715.65 553.65 714.6 551.85 713.5 550 712.5 548.15
L 711.65 546.55
Q 711 545.3 710.15 543.75 709.3 542.2 708.5 541 708 540.6 707.45 540.6 706.9 540.55 706.5 541 706.4 541.1 706.35 541.3 706.3 541.45 706.35 541.7 705.3 540.1 704.25 538.55 703.2 536.95 702.15 535.45
L 701.45 534.45
Q 700.85 533.7 700.05 532.7 699.8 532.2 699.55 531.7
M 719.3 570.3
L 719.2 569.95 719.3 570.1 719.3 570.3
M 1056.6 503.4
Q 1056.65 503.6 1056.75 503.8 1056.85 503.65 1056.9 503.45 1057 503.3 1057.1 503.1 1056.95 503.05 1056.75 503 1056.6 503 1056.45 503.05 1056.5 503.25 1056.6 503.4
M 1103.3 488.7
Q 1103.05 489.15 1102.8 489.6 1103.35 489.3 1103.75 488.9 1104.2 488.5 1104.4 488 1104.25 487.95 1104.1 487.9 1103.95 487.85 1103.8 487.8 1103.55 488.25 1103.3 488.7
M 710.5 598.25
Q 710.6 598.55 710.7 598.85 710.7 598.4 710.7 597.9 710.7 597.45 710.7 596.95 710.55 597.1 710.45 597.25 710.35 597.4 710.35 597.65 710.4 597.95 710.5 598.25 Z"/>
</g>

<g id="Symbol_104_0_Layer0_0_FILL">
<path fill="#FFFFFF" stroke="none" d="
M 753.55 440.15
L 743.3 443.15
Q 733.65 446.25 721.45 453.2 709.25 460.15 701.15 471.75 693.05 483.35 695.65 500.35 697.55 510.8 700.15 523.1 702.8 535.4 707.55 552.4 712.3 569.4 720.55 593.85 722.1 598.75 721.8 607.05 721.45 615.4 720 625.5 718.5 635.6 716.65 645.85 714.75 656.1 713.15 664.9 711.75 672.2 708.9 679.7 706.1 687.2 703.8 695.3 701.45 703.4 701.4 712.4 701.4 721.4 705.55 731.7 712.7 746.05 745.25 758.1 777.8 770.15 820.5 778.45 863.25 786.75 901.05 789.85 938.85 792.95 956.55 789.4 975.15 785.55 992.8 780.25 1010.45 774.95 1026.6 765.15 1042.7 755.35 1056.6 737.95 1068.45 722.75 1076.5 702.4 1084.55 682.05 1088.55 659.25 1092.55 636.5 1092.15 613.95 1091.8 591.35 1086.8 571.7 1080.65 548.6 1073.15 532.75 1065.65 516.85 1058.5 507.15 1051.4 497.45 1046.4 492.8
L 1040.35 487.5 994.5 479.25
Q 951.75 472.1 896 463.1 840.25 454.05 798 447.3
L 753.55 440.15 Z"/>
</g>

<g id="Symbol_95_0_Layer0_0_FILL">
<path fill="#0075c9" stroke="none" d="
M 1162.4 196.4
Q 1160.05 195.8 1157.25 196.45 1157 196.5 1156.4 196.65 1155.75 196.75 1155.4 197.2 1154.05 198.2 1152.5 199.65 1150.95 201.15 1149.75 202.4
L 1148.3 204.1
Q 1142.75 212.75 1137.85 220.9 1132.95 229.1 1127.8 237 1126.15 238.8 1124.8 240.85 1123.4 242.9 1122.2 245.1 1119.5 248.8 1116.5 252.45 1113.5 256.15 1110.1 259.85 1105.6 264.9 1100.95 270.75 1096.25 276.6 1091.05 281.75
L 1090.35 282.2
Q 1090 282.4 1089.65 282.6
L 1089.4 282.7
Q 1085.2 284.95 1081.4 287.25 1077.65 289.55 1073.5 290.75 1069.35 291.95 1064 290.95 1060.45 290.15 1057.3 287.55 1054.2 284.95 1051.6 281.2 1049 277.45 1047.05 273.2 1047.05 272.45 1047.05 271.9 1047 271.3 1047 271.1 1046.65 267.95 1045.9 265 1045.15 262.05 1044.35 259.15 1044.05 256.2 1043.8 253.55 1043.55 250.85 1043.2 248.7 1042.9 246.95 1042.65 245.3 1042.4 243.7 1041.75 242.1 1041.2 240.4 1040.25 239 1039.25 237.55 1037.7 236.6 1037.45 236.35 1037.25 236.15 1037.05 236 1036.9 235.9 1033 233.75 1027.2 236 1021.4 238.2 1015.25 242.2 1009.15 246.2 1004.25 249.35 1003.2 249.85 1002.35 250.3
L 1001.2 250.95
Q 1000.95 251.05 1000.75 251.15 1000.55 251.25 1000.35 251.35 992.6 252 985.9 249.45 979.25 246.95 972.8 241.9 966.35 236.9 959.25 230.2 957 228.1 954.55 226.05 952.1 224 949.45 222.1 949.3 222.2 949.15 222.3 949 222.4 948.85 222.5 948.45 222.75 948.15 223.1 947.85 223.4 947.6 223.85 947.55 223.95 947.5 224.1 947.45 224.25 947.4 224.4
L 946.7 224.15 946.45 224.25
Q 946.4 224.6 946.7 225.25 947 225.85 947.2 226.25
L 947.25 226.45
Q 946.15 230.8 944.5 232.1 942.8 233.4 940.55 232.75 938.25 232.05 935.4 230.45
L 935.05 231.75
Q 934.7 232.9 934.15 233.7 931.25 237.15 929.25 236.55 927.2 235.95 925.05 234.45 922.95 232.95 919.75 233.7 916.2 234.8 914 235.1 911.85 235.35 909.6 234.95 907.35 234.55 903.5 233.65 897.75 232.4 894 232.35 890.2 232.3 886.5 232.7 882.85 233.15 877.45 233.35 872.05 233.5 868.3 234.7 864.55 235.85 861.35 238.3 858.1 240.75 854.4 244.8 847.55 251.9 839.95 259.35 832.35 266.8 825.6 274.95 818.85 283.1 814.5 292.25 813.95 293.4 812.85 295.9 811.8 298.4 810.35 301.75 808.9 305.05 807.2 308.8 806.9 309.55 806.55 310.3 806.2 311 805.9 311.75 805.45 312.65 805.05 313.5 804.65 314.4 804.25 315.25 803.65 316.5 803.05 317.7 802.45 318.95 801.9 320.1 802.05 321.7 802.35 323.1 802.6 324.5 803 325.6 804.8 330.25 810.1 336.05 815.4 341.9 821.4 347.5 827.4 353.15 831.3 357.1 838.8 365.35 844 371.15 849.15 377 855.55 381.15 861.9 385.35 873.1 388.6 885.35 392.2 897.1 394.95 908.9 397.7 920.85 399.35 932.75 401 945.45 401.2 951.9 401.2 958.55 401.5 965.15 401.7 971.65 402.9 978.1 404.05 984.15 406.85 990.15 409.6 995.4 411.25 1000.65 412.9 1005.8 415.1 1011 417.35 1016.7 421.65 1018.7 423.2 1022.2 425.6 1025.65 428.05 1030 430.8 1034.3 433.6 1038.85 436.15 1033.6 441.15 1028.65 446.8 1023.7 452.5 1020.55 458.1 1017.4 463.7 1017.55 468.35 1017.6 468.95 1017.7 469.55 1017.8 470.15 1018 470.7 1018.35 471.5 1018.75 472.25 1019.15 473 1019.6 473.7 1019.8 474 1020.05 474.3 1020.3 474.55 1020.55 474.8
L 1020.25 474.75
Q 1020.55 475.25 1020.95 475.75 1021.3 476.25 1021.7 476.7 1028.55 477.6 1034.95 477.3 1041.3 477.05 1047.7 476 1054.1 475 1060.95 473.6 1067.25 472.9 1073.65 471.75 1080.1 470.55 1086.55 468.8 1087.5 468.6 1088.45 468.3 1089.45 468.05 1090.45 467.75 1107.7 462.8 1123.6 453.45 1139.5 444.15 1152 429.65 1164.5 415.15 1171.65 394.7 1172.8 391.4 1174.3 386.9 1175.85 382.35 1177.2 377.35 1178.6 372.35 1179.3 367.6 1181.35 357.8 1182.7 348 1184 338.2 1184.8 328.85 1185.45 321.75 1186.2 315.75 1187 309.75 1187.35 303.6 1187.75 297.5 1187.2 290.05 1186.65 281.75 1186.45 274.2 1186.2 266.65 1185.85 259.3 1185.5 251.95 1184.4 244.3 1184.05 240.25 1183.45 236.25 1182.8 232.3 1181.8 228.45 1180.65 224 1178.75 218.1 1176.85 212.25 1173.85 206.9 1170.9 201.5 1166.6 198.65 1164.75 197 1162.4 196.4
M 1021.75 240.95
L 1021.85 240.9 1021.85 240.95 1021.75 240.95
M 984.75 252.05
L 984.35 251.9 984.2 251.8
Q 984.3091796875 251.8697265625 984.4 251.9 984.6 251.95 984.75 252.05 Z"/>
</g>

<g id="Symbol_40_0_Layer0_0_FILL">
<path fill="#FFFFFF" stroke="none" d="
M 1122.8 255.7
Q 1110 273.4 1094.75 285.3 1079.5 297.2 1063.95 294.65 1055.65 292.65 1050.65 285.8 1045.7 279 1043.2 270.45 1040.75 261.95 1039.95 254.7 1039.2 247.5 1039.2 244.7 1039.1 241.9 1037.25 240.05 1035.45 238.2 1032.75 237.9 1030 237.6 1027.25 239.6 1022.9 242.9 1016.85 247 1010.75 251.05 1003.75 253.85 996.8 256.6 989.75 256.05 986.3 255.55 980.9 251.8 975.45 248.05 969 242.55 962.55 237.1 956.1 231.5 949.65 225.85 944.15 221.65 939.8 218.15 928.8 215.2 917.8 212.2 901.4 212.95 884.95 213.7 864.2 221.35 849.8 227.1 840.35 234.2 830.9 241.3 825.95 247.15
L 822 251.95 820.15 254.8
Q 816.25 262.3 810.05 279.1 803.9 295.9 797.55 314.65 791.2 333.4 786.9 346.75
L 782.4 360.7 784.7 367.7
Q 786.85 374.25 792.8 384.7 798.7 395.1 810.25 407.25 821.75 419.4 840.75 431.1 864.35 445.05 887.95 453.8 911.55 462.55 931.45 467.05 951.35 471.55 963.95 472.8 1002.1 476.9 1032.15 474.8 1062.15 472.75 1084.1 465.75 1106.05 458.75 1119.95 448.05 1138.6 433.8 1151.75 413.1 1164.95 392.4 1172.05 367 1179.15 341.65 1179.65 313.25 1180.05 279.35 1178 256.95 1175.95 234.6 1173.45 222.6
L 1170.05 207.8
Q 1168.55 202.4 1165.05 200.7 1161.55 199 1158.1 200.15 1154.65 201.3 1153.2 204.55
L 1143.75 223.05
Q 1135.55 238 1122.8 255.7 Z"/>
</g>

<g id="Symbol_26_0_Layer0_0_FILL">
<path fill="#FFFFFF" stroke="none" d="
M 889.05 162.7
Q 882.2 166.25 875.95 171.05 869.7 175.8 865.25 180.35 860.8 184.9 859.45 187.7 858.55 190.25 858.1 197.25 857.65 204.25 857.5 212.35 857.35 220.4 857.35 226.25
L 857.35 232.35 860.15 232.1
Q 862.8 231.85 866.3 231.45 869.8 231.05 872.55 230.65
L 874.75 230.25 875.7 229.95
Q 884.4 218.9 889.6 211 894.75 203.05 897.2 197.95 899.6 192.85 900.1 190.3 900.55 188.15 901.15 183.4 901.8 178.65 902.25 173.2 902.7 167.75 902.75 163.55
L 902.55 160.15 902 158.35
Q 895.85 159.15 889.05 162.7 Z"/>
</g>

<g id="Symbol_110_0_Layer0_0_FILL">
<path fill="#0083CB" stroke="none" d="
M 887.8 323.3
Q 885.7 321.95 883.15 321.75 880.6 321.6 878.25 322.65 875.95 323.7 874.05 325.75 872.15 327.8 870.95 330.6 869.7 333.35 869.35 336.65 869.05 339.95 869.7 342.85 870.35 345.8 871.8 348.05 873.25 350.35 875.35 351.7 877.45 353.1 880 353.3 882.55 353.45 884.85 352.4 887.2 351.3 889.1 349.25 891 347.2 892.2 344.45 893.45 341.65 893.8 338.35 894.1 335.05 893.45 332.15 892.8 329.25 891.35 326.95 889.85 324.7 887.8 323.3 Z"/>
</g>

<g id="Symbol_28_0_Layer0_0_FILL">
<path fill="#FFFFFF" stroke="none" d="
M 986.25 295.45
Q 983.9 288.7 978.35 283.8 972.85 278.85 963.05 277.05 953.1 275.55 946.15 278.6 939.15 281.7 934.5 287.45 929.85 293.25 927 299.8 924.15 306.3 922.45 311.7 931.35 312.7 942.55 314.6 953.75 316.45 965.55 318.7 977.3 320.9 987.9 323.05 988.85 316.6 988.7 309.4 988.55 302.15 986.25 295.45 Z"/>
</g>
</defs>



<g transform="matrix( -0.176971435546875, 0.013671875, 0.0794677734375, 0.21533203125, 1346.5,740.25) ">
<g transform="matrix( 1, 0, 0, 1, 0,0) ">
<use xlink:href="#Symbol_81_0_Layer0_0_FILL"/>
</g>
</g>

<g transform="matrix( -0.1573638916015625, 0.03155517578125, 0.0332489013671875, 0.1512298583984375, 1342.1,743.25) ">
<g transform="matrix( 1, 0, 0, 1, 0,0) ">
<use xlink:href="#Symbol_82_0_Layer0_0_FILL"/>
</g>
</g>

<g transform="matrix( -0.1317596435546875, 0.007659912109375, 0.020660400390625, 0.12689208984375, 1321.75,772.1) ">
<g transform="matrix( 1, 0, 0, 1, 0,0) ">
<use xlink:href="#Symbol_71_0_Layer0_0_FILL"/>
</g>
</g>

<g transform="matrix( -0.3934326171875, -0.0093994140625, -0.0020599365234375, 0.140869140625, 1604.75,775.8) ">
<g transform="matrix( 1, 0, 0, 1, 0,0) ">
<use xlink:href="#Symbol_72_0_Layer0_0_FILL"/>
</g>
</g>

<g transform="matrix( 0.3061370849609375, 0, 0, 0.3061370849609375, -4957.25,-1096) ">
<g transform="matrix( 1, 0, 0, 1, 0,0) ">
<use xlink:href="#Symbol_8_0_Layer0_0_FILL"/>
</g>
</g>

<g transform="matrix( 0.3061370849609375, 0, 0, 0.3061370849609375, -4957.25,-1096) ">
<g transform="matrix( 1, 0, 0, 1, 0,0) ">
<use xlink:href="#Symbol_9_0_Layer0_0_FILL"/>
</g>
</g>

<g transform="matrix( 0.3061370849609375, 0, 0, 0.3061370849609375, -4957.25,-1096) ">
<g transform="matrix( 1, 0, 0, 1, 0,0) ">
<use xlink:href="#Symbol_12_0_Layer0_0_FILL"/>
</g>
</g>

<g transform="matrix( -0.1345367431640625, -0.0131378173828125, -0.0044403076171875, 0.12933349609375, 1333.35,792.2) ">
<g transform="matrix( 1, 0, 0, 1, 0,0) ">
<use xlink:href="#Symbol_74_0_Layer0_0_FILL"/>
</g>
</g>

<g transform="matrix( -0.12396240234375, 0.0526123046875, 0.0645751953125, 0.1157379150390625, 1298.45,738.35) ">
<g transform="matrix( 1, 0, 0, 1, 0,0) ">
<use xlink:href="#Symbol_83_0_Layer0_0_FILL"/>
</g>
</g>

<g transform="matrix( -0.1302642822265625, 0.024749755859375, 0.0350341796875, 0.1229095458984375, 1316.55,755.9) ">
<g transform="matrix( 1, 0, 0, 1, 0,0) ">
<use xlink:href="#Symbol_105_0_Layer0_0_FILL"/>
</g>
</g>

<g transform="matrix( -0.1302642822265625, 0.024749755859375, 0.0350341796875, 0.1229095458984375, 1316.8,754.9) ">
<g transform="matrix( 1, 0, 0, 1, 0,0) ">
<use xlink:href="#Symbol_78_0_Layer0_0_FILL"/>
</g>
</g>

<g transform="matrix( 0.7678375244140625, 0.74273681640625, 0.2076873779296875, -1.1193695068359375, 275.8,-108) ">
<g transform="matrix( 1, 0, 0, 1, 0,0) ">
<use xlink:href="#Symbol_115_0_Layer0_0_FILL"/>
</g>
</g>

<g transform="matrix( 1.049468994140625, 0.0149383544921875, -0.0149383544921875, 1.049468994140625, 35.55,28.55) ">
<g transform="matrix( 1, 0, 0, 1, 0,0) ">
<use xlink:href="#Symbol_112_0_Layer0_0_FILL"/>
</g>
</g>

<g transform="matrix( 1.049468994140625, 0.0149383544921875, -0.0149383544921875, 1.049468994140625, 35.55,28.55) ">
<g transform="matrix( 1, 0, 0, 1, 0,0) ">
<use xlink:href="#Symbol_113_0_Layer0_0_FILL"/>
</g>
</g>

<g transform="matrix( 0.6602630615234375, -0.161865234375, 0.1195831298828125, 0.7013397216796875, 173.7,307.2) ">
<g transform="matrix( 1, 0, 0, 1, 0,0) ">
<use xlink:href="#Symbol_109_0_Layer0_0_FILL"/>
</g>
</g>

<g transform="matrix( -0.1666717529296875, 0.6545867919921875, 0.639801025390625, 0.1764068603515625, 792.25,-141.3) ">
<g transform="matrix( 1, 0, 0, 1, 0,0) ">
<use xlink:href="#Symbol_98_0_Layer0_0_FILL"/>
</g>
</g>

<g transform="matrix( -0.1666717529296875, 0.6545867919921875, 0.639801025390625, 0.1764068603515625, 792.25,-141.3) ">
<g transform="matrix( 1, 0, 0, 1, 0,0) ">
<use xlink:href="#Symbol_99_0_Layer0_0_FILL"/>
</g>
</g>

<g transform="matrix( -0.668212890625, -0.0058441162109375, -0.0008544921875, 0.670806884765625, 1470.85,255) ">
<g transform="matrix( 1, 0, 0, 1, 0,0) ">
<use xlink:href="#Symbol_19_0_Layer0_0_FILL"/>
</g>
</g>

<g transform="matrix( 0.6183929443359375, 0.1298980712890625, -0.1176605224609375, 0.682281494140625, 395.3,181.5) ">
<g transform="matrix( 1, 0, 0, 1, 0,0) ">
<use xlink:href="#Symbol_51_0_Layer0_0_FILL"/>
</g>
</g>

<g transform="matrix( 0.76708984375, 0.0775909423828125, 0.0662994384765625, 0.8242340087890625, 130.6,73.7) ">
<g transform="matrix( 1, 0, 0, 1, 0,0) ">
<use xlink:href="#Symbol_100_0_Layer0_0_FILL"/>
</g>
</g>

<g transform="matrix( 0.745025634765625, 0.194000244140625, 0.0701446533203125, 0.7761077880859375, 23.65,19) ">
<g transform="matrix( 1, 0, 0, 1, 0,0) ">
<use xlink:href="#Symbol_22_0_Layer0_0_FILL"/>
</g>
</g>

<g transform="matrix( 0.68768310546875, -0.01580810546875, 0.1895294189453125, 0.8282318115234375, 185.4,149.7) ">
<g transform="matrix( 1, 0, 0, 1, 0,0) ">
<use xlink:href="#Symbol_101_0_Layer0_0_FILL"/>
</g>
</g>

<g transform="matrix( 0.68768310546875, -0.01580810546875, 0.1895294189453125, 0.8282318115234375, 185.4,149.7) ">
<g transform="matrix( 1, 0, 0, 1, 0,0) ">
<use xlink:href="#Symbol_102_0_Layer0_0_FILL"/>
</g>
</g>

<g transform="matrix( 0.7339630126953125, 0.0241546630859375, 0.14251708984375, 0.758819580078125, 173.35,187.65) ">
<g transform="matrix( 1, 0, 0, 1, 0,0) ">
<use xlink:href="#Symbol_23_0_Layer0_0_FILL"/>
</g>
</g>

<g transform="matrix( 0.6724700927734375, 0.1323394775390625, -0.049224853515625, 0.6376190185546875, 307.05,185.2) ">
<g transform="matrix( 1, 0, 0, 1, 0,0) ">
<use xlink:href="#Symbol_24_0_Layer0_0_FILL"/>
</g>
</g>

<g transform="matrix( -0.6219940185546875, -0.1305999755859375, -0.0888824462890625, 0.7239532470703125, 1474.8,336.4) ">
<g transform="matrix( 1, 0, 0, 1, 0,0) ">
<use xlink:href="#Symbol_103_0_Layer0_0_FILL"/>
</g>
</g>

<g transform="matrix( -0.6219940185546875, -0.1305999755859375, -0.0888824462890625, 0.7239532470703125, 1474.8,336.4) ">
<g transform="matrix( 1, 0, 0, 1, 0,0) ">
<use xlink:href="#Symbol_104_0_Layer0_0_FILL"/>
</g>
</g>

<g transform="matrix( 0.6721954345703125, 0.1986541748046875, -0.2237701416015625, 0.6420135498046875, 372.7,122.45) ">
<g transform="matrix( 1, 0, 0, 1, 0,0) ">
<use xlink:href="#Symbol_95_0_Layer0_0_FILL"/>
</g>
</g>

<g transform="matrix( 0.6721954345703125, 0.1986541748046875, -0.2237701416015625, 0.6420135498046875, 372.7,122.45) ">
<g transform="matrix( 1, 0, 0, 1, 0,0) ">
<use xlink:href="#Symbol_40_0_Layer0_0_FILL"/>
</g>
</g>

<g transform="matrix( 0.4951629638671875, 0.4451141357421875, -0.3307952880859375, 0.5817108154296875, 562.15,-78.45) ">
<g transform="matrix( 1, 0, 0, 1, 0,0) ">
<use xlink:href="#Symbol_26_0_Layer0_0_FILL"/>
</g>
</g>

<g transform="matrix( -0.5687103271484375, -0.1072235107421875, -0.1617279052734375, 0.61376953125, 1528.7,418.65) ">
<g transform="matrix( 1, 0, 0, 1, 0,0) ">
<use xlink:href="#Symbol_110_0_Layer0_0_FILL"/>
</g>
</g>

<g transform="matrix( 0.639312744140625, 0.18939208984375, -0.2153167724609375, 0.6170806884765625, 379.85,132.2) ">
<g transform="matrix( 1, 0, 0, 1, 0,0) ">
<use xlink:href="#Symbol_28_0_Layer0_0_FILL"/>
</g>
</g>
</svg>
