
<svg xmlns="http://www.w3.org/2000/svg" version="1.1" xmlns:xlink="http://www.w3.org/1999/xlink" preserveAspectRatio="none" x="0px" y="0px" width="760px" height="880px" viewBox="614 10 760 880">
<defs>


<g id="Layer0_0_FILL">
<path fill="#a6ce38" stroke="none" d="
M 1511.6 683.8
Q 1512.3 678.4 1512.9 673 1513.45 667.6 1513.9 662.2 1511.15 675.25 1505.35 688.35 1499.5 701.45 1489.95 714.7
L 1482.7 724.8
Q 1477 733 1474.7 740 1472.35 747 1480.9 745.35 1486.45 743.7 1492.7 735.8 1499 727.95 1504.75 717.7 1505 716.6 1505.25 715.45 1505.5 714.3 1505.75 713.2 1506.5 709.8 1507.2 706.35 1507.95 702.95 1508.65 699.5 1509.45 695.6 1510.15 691.7 1510.9 687.75 1511.6 683.8
M 1483.65 481.85
Q 1481.25 480.95 1479.45 482.6 1478.8 485.65 1481.95 490.2
L 1485.7 495.4
Q 1488.1 499.45 1490.05 504.35 1491.95 509.25 1493.5 514.85 1493.7 519.6 1495.05 524.4
L 1496.8 530.4 1496.8 530.55
Q 1500.35 553.85 1500.6 578.4 1500.85 603 1500.1 621.05 1499.95 625.05 1499.85 629.05 1499.75 633.1 1499.7 637.15 1498.3 640.15 1497.45 643.15 1496.6 646.1 1497.4 647.6
L 1497.4 648.05
Q 1497.4 648.45 1497.8 648.45 1498.25 648.35 1498.7 648.15 1499.15 647.95 1499.6 647.7 1499.55 657.9 1499.5 668.05 1499.45 678.25 1499.35 688.35 1499.25 689.1 1499.1 690.6 1499 692.1 1500.05 692.9 1501.85 691.1 1503.05 687.6 1504.3 684.05 1504.7 682.6 1508.45 671.3 1511.1 659.35 1513.8 647.35 1515.4 634.95 1515.45 633.15 1515.5 631.35 1515.5 629.55 1515.55 627.75 1515.55 623.15 1515.5 618.55 1515.45 613.95 1515.3 609.4 1515.3 608.9 1515.3 608.4 1515.25 607.9 1515.25 607.4 1514.6 589.75 1512.45 572.15 1510.3 554.5 1506.6 536.85 1504.15 525.3 1501.1 513.7 1498 502.1 1494.2 490.35 1492.9 488.85 1491.45 487.4 1490 486 1488.45 484.6
L 1488.2 484.45
Q 1487.95 484.3 1487.75 484.15 1486.05 482.75 1483.65 481.85
M 1546.85 241.2
Q 1545.25 239.1 1543.5 237.2 1540.8 232.95 1537.65 229.2 1534.55 225.4 1530.95 222.25
L 1530.55 221.85
Q 1530.25 221.6 1529.9 221.35 1527.15 218.7 1524.05 216.55 1520.9 214.4 1517.3 212.85 1510.75 208.85 1503.45 208.15 1496.15 207.5 1490.55 210.05
L 1487.65 211.85
Q 1485.5 213.3 1484.05 214.9 1483.6 215.2 1483.25 215.65
L 1482.85 216.25
Q 1480.85 219.25 1479.95 222.6 1479.05 225.95 1479.05 229.55 1478.9 230.15 1478.8 230.8 1478.7 231.45 1478.65 232.1
L 1479 233.4
Q 1479.15 234 1479.35 234.65
L 1479.35 234.3
Q 1479.4 234.5 1479.4 234.7 1479.45 234.95 1479.5 235.15 1481.2 241.15 1483.25 246.85 1485.3 252.6 1487.95 258.2 1488.5 259.3 1489.1 260.4 1489.7 261.5 1490.3 262.55 1490.8 263.85 1491.35 265.1 1491.9 266.4 1492.5 267.6 1494.05 270.9 1496.15 275.4 1498.25 279.9 1500.6 284.4 1499.8 285.1 1499 285.9 1498.2 286.7 1497.5 287.65
L 1497.2 287.85 1497.05 288
Q 1496.55 288.55 1496.05 289.35 1495.6 290.1 1495.15 291.05 1494.8 291.65 1494.5 292.25 1494.15 292.85 1493.85 293.45 1492.95 295 1492.3 296.75 1491.65 298.45 1491.15 300.35 1490.5 302.5 1490.1 304.55 1489.7 306.65 1489.55 308.5 1489.55 308.8 1489.5 309.4 1489.5 310 1489.5 310.75 1489.15 314.25 1489.1 317.8 1489.1 321.35 1489.25 324.85 1489.4 328.95 1490.05 332.95 1490.7 337 1491.65 340.95 1491.9 340.8 1492.15 340.6 1492.4 340.45 1492.65 340.25 1492.8 344 1495.55 349.65
L 1498.9 356.25
Q 1501.65 361.55 1504.2 366.95 1506.75 372.35 1509.15 377.9 1507 379.9 1505.55 382.5 1504.1 385.05 1503.55 386.25 1496.5 401.05 1495.3 419.45 1494.1 437.9 1495.35 455.4 1498.3 459.8 1500.95 464.45 1503.6 469.1 1506 473.9 1508.15 478.3 1510.1 482.8 1512 487.3 1513.75 491.9 1519.45 503.2 1523.85 515.1 1528.25 527 1531.3 539.3 1532.15 542.7 1532.9 546.15 1533.65 549.55 1534.3 553 1534.65 554.8 1534.95 556.6 1535.25 558.4 1535.55 560.2 1536.3 565 1536.85 569.85 1537.4 574.65 1537.75 579.5 1538.1 584.55 1538.3 589.65 1538.45 594.75 1538.4 599.8 1549.75 567.85 1557.3 533.95 1564.85 500.05 1568.6 465.25 1569.4 457.7 1570 450.2 1570.65 442.65 1571.1 435.1 1571.15 434.6 1571.15 434.1 1571.2 433.6 1571.2 433.1 1571.55 427.4 1571.75 421.65 1572 415.95 1572.1 410.25 1572.25 404.1 1572.25 397.95 1572.25 391.8 1572.15 385.7 1572.1 383.9 1572.05 382.05 1572 380.25 1571.95 378.45 1571.6 367.45 1570.9 356.55 1570.15 345.65 1569.05 334.9 1568.6 330.3 1568 325.65 1567.45 321.05 1566.85 316.5
L 1566.6 314.85
Q 1566.5 314 1566.4 313.2 1565.45 306.45 1564.4 299.2 1563.35 291.95 1562.15 284.5 1561.05 277.8 1559.75 271.1 1558.5 264.4 1556.95 257.75 1555.9 255.5 1554.7 253.4 1553.55 251.25 1552.35 249.2 1551.75 248.25 1551.2 247.35 1550.65 246.45 1550.05 245.6 1548.5 243.3 1546.85 241.2
M 1578.35 335.1
Q 1575.65 317.7 1571.35 299.6 1574.7 321.15 1576.4 343.3 1578.15 365.45 1578.4 387.7 1578.5 394.95 1578.4 402.2 1578.35 409.45 1578.1 416.65 1577.95 421.2 1577.75 425.7 1577.55 430.2 1577.3 434.7 1576.95 441.05 1576.5 447.4 1576 453.7 1575.4 459.95 1575.35 460.6 1575.3 461.3 1575.25 461.95 1575.15 462.6 1574.7 467.55 1574.15 472.45 1573.6 477.3 1572.95 482.1 1572.65 484.45 1572.35 486.8 1572.05 489.15 1571.7 491.5 1571.25 494.75 1570.75 498 1570.25 501.25 1569.7 504.45 1564.7 534.4 1556.65 560.9 1548.6 587.35 1537.85 613.15 1537.65 616.45 1537.35 619.7 1537.05 623 1536.65 626.25 1536.7 627.5 1536.7 628.7 1536.75 629.95 1536.75 631.2 1536.05 634.85 1535.2 638.5 1534.35 642.15 1533.4 645.9 1532.85 648.1 1532.2 650.35 1531.6 652.65 1530.9 655.05 1529.9 658.6 1529 662 1528.1 665.35 1527.2 668.6
L 1526.75 670.25
Q 1526.55 671.1 1526.3 671.9 1525.7 674.2 1525.05 676.4 1524.45 678.65 1523.8 680.85 1523.7 681.2 1523.55 681.55
L 1523.35 682.3
Q 1523.3 682.5 1523.2 682.7 1523.15 682.95 1523.1 683.15 1522.95 683.55 1522.85 683.9
L 1522.6 684.65
Q 1522.15 686.1 1521.7 687.5 1521.25 688.9 1520.75 690.3 1519.75 693.15 1518.65 696 1517.5 698.85 1516.25 701.8 1516.1 702.15 1515.95 702.45
L 1515.65 703.15
Q 1515.15 704.2 1514.65 705.3 1514.15 706.4 1513.6 707.5
L 1513.2 708.3
Q 1513 708.7 1512.8 709.1 1512.6 709.55 1512.35 710 1512.15 710.45 1511.9 710.9 1511.45 711.55 1510.75 712.85 1510.05 714.15 1510.9 715.4 1511 715.45 1511.1 715.5 1511.2 715.55 1511.35 715.6
L 1511.75 715.75
Q 1512.3 715.85 1512.9 715.7 1513.5 715.55 1514.15 715.2 1514.2 715.15 1514.3 715.1 1514.4 715.05 1514.5 715 1515.2 714.5 1516 713.85 1516.75 713.15 1517.55 712.35
L 1517.7 712.15
Q 1518.5 711.25 1519.25 710.3 1520.05 709.35 1520.75 708.35
L 1521.2 707.75
Q 1521.4 707.45 1521.6 707.15 1523.25 704.75 1524.35 702.95
L 1525.65 700.8
Q 1527.35 698.3 1529.1 695.55 1530.85 692.8 1532.55 689.85 1535.5 684.8 1538.4 679.3 1541.3 673.8 1544 668.1 1549.95 659.8 1554.8 652.05 1559.65 644.3 1563 637.8 1567.2 629.6 1570.55 620.6 1573.9 611.6 1576.45 601.95 1576.55 601.75 1576.6 601.55 1576.7 601.4 1576.75 601.25 1581.25 589.1 1583.15 570.85 1585.05 552.6 1586.1 539.05 1589.95 497.5 1588.95 452.6 1588 407.7 1582.75 366.2 1581.1 352.45 1578.35 335.1
M 1528.2 684.85
Q 1528.4 683.6 1528.8 682.05 1529.2 680.55 1529.65 679.2 1529.45 680.35 1529.25 681.45 1529.1 682.55 1529.05 683.5 1528.85 683.85 1528.6 684.25 1528.4 684.6 1528.2 684.85
M 1534.25 673.15
L 1535.4 669.6 1535.35 670.25
Q 1535.3 670.55 1535.3 670.85 1535 671.45 1534.75 672.05 1534.5 672.6 1534.25 673.15
M 1453.95 444.25
L 1455.5 444.4
Q 1455.7 443.85 1455.8 443.3 1455.9 442.75 1455.95 442.2 1455.55 442.65 1455.05 443.15 1454.55 443.65 1453.95 444.25 Z"/>

<path fill="#0083CB" stroke="none" d="
M 1535.4 669.6
L 1534.25 673.15
Q 1534.5 672.6 1534.75 672.05 1535 671.45 1535.3 670.85 1535.3 670.55 1535.35 670.25
L 1535.4 669.6
M 1528.8 682.05
Q 1528.4 683.6 1528.2 684.85 1528.4 684.6 1528.6 684.25 1528.85 683.85 1529.05 683.5 1529.1 682.55 1529.25 681.45 1529.45 680.35 1529.65 679.2 1529.2 680.55 1528.8 682.05
M 1545.95 215.85
L 1545.45 215.7
Q 1545.05 215.55 1544.85 215.2 1544.25 215 1543.65 215.15 1543.05 215.3 1542.85 216 1543.5 217.9 1544.6 220.05
L 1545.95 222.7
Q 1547.05 225.15 1548.05 227.75 1549.05 230.3 1549.95 233 1550.5 234.55 1551.05 236.1 1551.55 237.7 1552.05 239.3 1553.4 243.75 1554.65 248.4 1555.9 253 1556.95 257.75 1558.5 264.4 1559.75 271.1 1561.05 277.8 1562.15 284.5 1563.35 291.95 1564.4 299.2 1565.45 306.45 1566.4 313.2 1566.5 314 1566.6 314.85
L 1566.85 316.5
Q 1567.45 321.05 1568 325.65 1568.6 330.3 1569.05 334.9 1570.15 345.65 1570.9 356.55 1571.6 367.45 1571.95 378.45 1572 380.25 1572.05 382.05 1572.1 383.9 1572.15 385.7 1572.25 391.8 1572.25 397.95 1572.25 404.1 1572.1 410.25 1572 415.95 1571.75 421.65 1571.55 427.4 1571.2 433.1 1571.2 433.6 1571.15 434.1 1571.15 434.6 1571.1 435.1 1570.65 442.65 1570 450.2 1569.4 457.7 1568.6 465.25 1564.85 500.05 1557.3 533.95 1549.75 567.85 1538.4 599.8 1538.45 594.75 1538.3 589.65 1538.1 584.55 1537.75 579.5 1537.4 574.65 1536.85 569.85 1536.3 565 1535.55 560.2 1535.25 558.4 1534.95 556.6 1534.65 554.8 1534.3 553 1533.65 549.55 1532.9 546.15 1532.15 542.7 1531.3 539.3 1528.25 527 1523.85 515.1 1519.45 503.2 1513.75 491.9 1512 487.3 1510.1 482.8 1508.15 478.3 1506 473.9 1503.6 469.1 1500.95 464.45 1498.3 459.8 1495.35 455.4 1492.35 450.85 1489 446.6 1485.65 442.3 1482 438.35 1481.9 438.25 1481.65 438.05 1481.4 437.85 1481.1 437.9 1480.9 438.15 1480.75 438.5 1480.6 438.8 1480.55 439.15 1480.45 439.1 1480.35 439.05 1480.25 439 1480.1 438.95 1478.7 437.55 1477 436.3 1475.3 435.05 1473.4 435.15 1474.6 436.95 1475.9 439.05
L 1477.55 441.8
Q 1478.95 444.65 1480.25 447.95 1481.5 451.3 1482.7 454.9 1482.55 454.85 1482.45 454.95 1482.35 455.05 1482.3 455.15 1482.5 455.5 1482.75 455.9 1483 456.3 1483.3 456.75 1484.9 462 1486.5 467.2 1488.05 472.4 1489.65 476.95 1490.85 480.3 1492 483.65 1493.1 487.05 1494.2 490.35 1498 502.1 1501.1 513.7 1504.15 525.3 1506.6 536.85 1510.3 554.5 1512.45 572.15 1514.6 589.75 1515.25 607.4 1515.25 607.9 1515.3 608.4 1515.3 608.9 1515.3 609.4 1515.45 613.95 1515.5 618.55 1515.55 623.15 1515.55 627.75 1515.5 629.55 1515.5 631.35 1515.45 633.15 1515.4 634.95 1515.25 641.7 1514.85 648.55 1514.5 655.35 1513.9 662.2 1513.45 667.6 1512.9 673 1512.3 678.4 1511.6 683.8 1510.9 687.75 1510.15 691.7 1509.45 695.6 1508.65 699.5 1507.95 702.95 1507.2 706.35 1506.5 709.8 1505.75 713.2 1505.5 714.3 1505.25 715.45 1505 716.6 1504.75 717.7 1500.35 736.8 1495.3 755.25 1490.3 773.75 1485 791.35 1484.6 792.25 1484 794.05 1483.4 795.8 1484.4 797 1486.15 795.15 1487.35 792
L 1488.95 787.7
Q 1491.15 782.25 1493.25 776.6 1495.4 770.95 1497.4 765.1 1497.25 766.45 1497.05 767.8 1496.9 769.15 1496.75 770.45 1496.6 771.1 1496.4 772.4 1496.25 773.65 1497.05 774.55 1499.15 773.2 1500.65 769.65 1502.15 766.15 1502.75 764.55 1503.05 763.75 1503.35 763 1503.65 762.25 1503.95 761.5
L 1503.95 761.7
Q 1503.85 762.25 1503.6 763.65 1503.4 765.1 1504.2 766 1506.05 764.5 1507.55 761.4 1509.05 758.25 1509.6 757 1518.35 739.9 1523.95 723.2 1529.55 706.5 1532.55 689.85 1530.85 692.8 1529.1 695.55 1527.35 698.3 1525.65 700.8
L 1524.35 702.95
Q 1523.25 704.75 1521.6 707.15 1521.4 707.45 1521.2 707.75
L 1520.75 708.35
Q 1520.05 709.35 1519.25 710.3 1518.5 711.25 1517.7 712.15
L 1517.55 712.35
Q 1516.75 713.15 1516 713.85 1515.2 714.5 1514.5 715 1514.4 715.05 1514.3 715.1 1514.2 715.15 1514.15 715.2 1513.5 715.55 1512.9 715.7 1512.3 715.85 1511.75 715.75
L 1511.35 715.6
Q 1511.2 715.55 1511.1 715.5 1511 715.45 1510.9 715.4 1510.05 714.15 1510.75 712.85 1511.45 711.55 1511.9 710.9 1512.15 710.45 1512.35 710 1512.6 709.55 1512.8 709.1 1513 708.7 1513.2 708.3
L 1513.6 707.5
Q 1514.15 706.4 1514.65 705.3 1515.15 704.2 1515.65 703.15
L 1515.95 702.45
Q 1516.1 702.15 1516.25 701.8 1517.5 698.85 1518.65 696 1519.75 693.15 1520.75 690.3 1521.25 688.9 1521.7 687.5 1522.15 686.1 1522.6 684.65
L 1522.85 683.9
Q 1522.95 683.55 1523.1 683.15 1523.15 682.95 1523.2 682.7 1523.3 682.5 1523.35 682.3
L 1523.55 681.55
Q 1523.7 681.2 1523.8 680.85 1524.45 678.65 1525.05 676.4 1525.7 674.2 1526.3 671.9 1526.55 671.1 1526.75 670.25
L 1527.2 668.6
Q 1528.1 665.35 1529 662 1529.9 658.6 1530.9 655.05 1531.6 652.65 1532.2 650.35 1532.85 648.1 1533.4 645.9 1534.35 642.15 1535.2 638.5 1536.05 634.85 1536.75 631.2 1536.75 629.95 1536.7 628.7 1536.7 627.5 1536.65 626.25 1537.05 623 1537.35 619.7 1537.65 616.45 1537.85 613.15 1548.6 587.35 1556.65 560.9 1564.7 534.4 1569.7 504.45 1570.25 501.25 1570.75 498 1571.25 494.75 1571.7 491.5 1572.05 489.15 1572.35 486.8 1572.65 484.45 1572.95 482.1 1573.6 477.3 1574.15 472.45 1574.7 467.55 1575.15 462.6 1575.25 461.95 1575.3 461.3 1575.35 460.6 1575.4 459.95 1576 453.7 1576.5 447.4 1576.95 441.05 1577.3 434.7 1577.55 430.2 1577.75 425.7 1577.95 421.2 1578.1 416.65 1578.35 409.45 1578.4 402.2 1578.5 394.95 1578.4 387.7 1578.15 365.45 1576.4 343.3 1574.7 321.15 1571.35 299.6 1568.65 282.25 1564.8 265.6 1561 248.9 1556 233.25 1554.55 228.5 1552.1 223.8 1549.7 219.05 1545.95 215.85
M 1563.1 216.95
Q 1564.35 215.9 1564.25 215.15 1563.45 215.95 1562.5 216.7 1561.6 217.4 1561 218.4 1561.85 218 1563.1 216.95 Z"/>

<path fill="#0081c6" stroke="none" d="
M 1552.05 239.3
Q 1551.55 237.7 1551.05 236.1 1550.5 234.55 1549.95 233 1550.15 236.15 1550.2 239.3 1550.2 242.45 1550.05 245.6 1550.65 246.45 1551.2 247.35 1551.75 248.25 1552.35 249.2 1552.4 246.7 1552.35 244.2 1552.25 241.75 1552.05 239.3
M 1485.4 264.15
Q 1485.3 264.35 1485.35 264.5 1486.15 266.05 1486.85 267.8 1487.55 269.55 1489 270.4 1489.55 268.8 1488.05 267.2 1486.5 265.65 1485.7 264.05 1485.5 264 1485.4 264.15 Z"/>
</g>

<g id="Symbol_6_0_Layer0_0_FILL">
<path fill="#FFFFFF" stroke="none" d="
M 1336.05 565.75
Q 1325.55 541.3 1309.5 520 1293.45 498.7 1270.9 480.6 1253.5 473.35 1234.6 461.75 1215.75 450.15 1194.95 433.55 1158.6 403.8 1132.1 373.4 1105.65 343 1084.5 316.85 1063.35 290.7 1043 273.75 1022.65 256.75 998.6 253.85 997.45 253.75 996.2 253.65 995 253.55 993.8 253.55 993.15 253.5 992.55 253.5 991.95 253.5 991.3 253.5 959.55 254.5 927.35 274.3 895.15 294.05 858.65 320.1 822.2 346.1 777.65 365.85 733.1 385.65 676.65 386.65 637.3 386.25 609.55 378.7 581.85 371.15 557.05 361.15 532.25 351.2 501.65 343.65 471.1 336.05 426.1 335.65 319.7 339.05 255 407.7 190.3 476.35 157.4 569.65 124.5 662.95 113.4 740.3
L 105.25 803.55 103.4 824.55 103.05 838.5
Q 103.15 845.3 107.35 850.25 111.5 855.25 118.25 856.05 121 856.3 124.2 855.1 127.45 853.9 130.1 850.65 132.75 847.35 133.9 841.5 137.7 798.4 146.1 757.8 154.55 717.25 164.05 684.2 173.6 651.2 180.75 630.75
L 189.05 607.6
Q 190.1 604.75 191.95 601.85 193.75 598.85 196.15 597.15 198.55 595.45 201.25 596.4 205.05 597.95 204.85 601 204.7 604.05 203.65 608.35 200.8 623.9 197.9 644.25 195 664.65 193 691.3 191 718 190.95 752.5 191.7 814.5 208.75 870.05 225.75 925.65 249.7 971.3 273.6 1017 295.05 1049.35 316.45 1081.7 326.05 1097.2 329.25 1102.65 334.6 1105.7 339.95 1108.8 346.3 1108.85
L 487.25 1108.85
Q 494.65 1108.65 499.75 1103.9 504.85 1099.15 505.5 1091.8 506.1 1072.55 507.35 1042.15 508.6 1011.75 517.8 980.7 527 949.65 551.35 928.4 575.75 907.2 622.55 906.3 677.4 907.3 708.95 930.1 740.5 952.85 755.65 985.75 770.8 1018.6 776.4 1049.9 781.95 1081.15 784.75 1099.05 786.2 1105.55 791.05 1109.5 795.95 1113.5 802.55 1113.6
L 942.45 1113.6
Q 949.9 1113.4 954.8 1108.45 959.7 1103.5 959.85 1096.05 959.8 1059.9 964.85 1024.3 969.9 988.7 981.3 958.3 992.7 927.9 1011.6 907.35 1024.4 893.9 1041.95 893.15 1059.5 892.45 1083.1 901.85 1086.9 903.35 1091.1 904.9 1095.25 906.5 1099.7 908.2 1102.15 908.65 1104.4 909 1106.65 909.4 1108.65 909.75 1122.45 912.1 1136.1 913.9 1149.75 915.7 1163.5 915.75 1177.25 915.8 1191.45 912.95 1221.2 906.7 1246.05 894.95 1270.85 883.15 1291.7 865.45 1312.5 847.75 1330.3 823.75 1340.5 810.05 1346.65 797.6 1352.85 785.15 1356.4 772.25 1359.95 759.35 1362.2 744.35 1362.25 743.75 1362.35 743.2
L 1362.55 742.05
Q 1362.65 737.7 1362.9 734
L 1363.25 729.05
Q 1365.05 713.65 1364.35 699.95 1363.6 686.3 1361.55 672.7 1359.5 659.15 1357.2 644.1 1354.15 622.8 1348.95 603.25 1343.75 583.65 1336.05 565.75 Z"/>
</g>

<g id="Symbol_3_0_Layer0_0_FILL">
<path fill="#FFFFFF" stroke="none" d="
M 1465.55 478.95
Q 1466.15 473.85 1463.5 470.2 1460.85 466.55 1456.45 465.2 1452.05 463.85 1447.4 465.55 1436 470.25 1421.05 476.3 1406.1 482.4 1388.35 487.4 1366.75 493.45 1344.9 494.5 1323.05 495.55 1299.85 490.1 1276.7 484.65 1251.05 471.15 1247.3 469.7 1244.45 468.45 1241.6 467.2 1240.05 466.3 1221.55 456.15 1201.35 449.15 1181.15 442.1 1160.9 438.85 1143.2 436.05 1127.7 435.95 1112.25 435.9 1096.9 437.95 1081.5 439.95 1064.05 443.55 1046.3 447.1 1033.8 453.5 1021.35 459.9 1010.85 469.3 1000.35 478.65 988.65 491.2 982.15 498 974.2 508.15 966.25 518.25 959.65 529.2 953.1 540.15 950.7 549.4 948.65 557.8 946.7 566.3 944.75 574.8 942.9 583.4 940.3 595.35 937.95 607.3 935.65 619.25 933.75 631.1 931.15 646.7 928 662.65 924.85 678.65 922.7 694.7 920.55 710.75 921 726.6 921.4 740.4 922.2 751.9 923.05 763.4 926.05 774.5 929 785.55 935.85 798.05
L 936 798.35
Q 946.6 817.3 958.85 830.6 971.1 843.9 985.85 854.6 1000.6 865.25 1018.75 876.3 1023.8 879.4 1028.55 881.75 1033.25 884.1 1038.2 886.45 1041.05 887.3 1044.55 888.65 1048.05 890.05 1051.05 891.3 1054.05 892.55 1055.3 893.15
L 1056.3 893.55
Q 1057 893.9 1058 894.35 1063.75 895.45 1070 897.3 1076.3 899.2 1083.1 901.85 1106.65 911.2 1140.6 922.7 1174.55 934.2 1215.35 944 1256.2 953.75 1300.45 957.9 1344.7 962 1388.95 956.6 1465.15 946.5 1525.5 915.05 1585.8 883.6 1631.2 832.45 1676.6 781.3 1707.9 712.1 1724.45 675.15 1735.25 636.8 1746 598.4 1752.3 561.9 1758.55 525.4 1761.65 494 1764.75 462.6 1766 439.6 1766.2 430.95 1761.3 427.05 1756.4 423.1 1749.85 423.75 1743.25 424.4 1738.5 429.45 1717.05 454.2 1688.35 487.3 1659.7 520.4 1626.5 549.4 1593.3 578.4 1558.3 590.75 1523.35 603.15 1489.4 586.45 1477.35 579.75 1471.35 567 1465.3 554.2 1463.6 538.45 1461.9 522.7 1462.8 507.05 1463.75 491.4 1465.55 478.95 Z"/>
</g>

<g id="Symbol_4_0_Layer0_0_FILL">
<path fill="#0081c6" stroke="none" d="
M 1045.3 556
Q 1044.2 556.05 1043.3 556.55 1042.4 557.1 1041.85 558 1041.3 558.9 1041.3 560.05 1041.3 561.15 1041.85 562.05 1042.4 562.95 1043.3 563.5 1044.2 564 1045.3 564.05 1046.45 564 1047.35 563.5 1048.25 562.95 1048.75 562.05 1049.3 561.15 1049.3 560.05 1049.3 558.9 1048.75 558 1048.25 557.1 1047.35 556.55 1046.45 556.05 1045.3 556 Z"/>
</g>

<g id="Symbol_5_0_Layer0_0_FILL">
<path fill="#0081c6" stroke="none" d="
M 1005.65 543.5
L 1001.25 543.5 1001.25 545.8
Q 999.95 544.35 998.5 543.65 997.05 542.95 995.4 542.95 993.5 542.95 991.9 543.7 990.3 544.45 989.05 545.9 987.8 547.35 987.15 549.2 986.55 551.05 986.55 553.25 986.55 555.5 987.15 557.35 987.8 559.2 989.05 560.7 990.35 562.2 991.95 562.9 993.55 563.65 995.5 563.65 997.05 563.65 998.5 563 999.95 562.35 1001.25 561.05
L 1001.25 563.1 1005.65 563.1 1005.65 543.5
M 1001.55 553.35
Q 1001.55 554.7 1001.15 555.85 1000.8 557 1000.05 557.9 999.3 558.75 998.35 559.15 997.35 559.6 996.15 559.6 995.05 559.6 994.1 559.15 993.15 558.7 992.4 557.8 991.7 556.95 991.35 555.8 990.95 554.65 990.95 553.25 990.95 551.9 991.35 550.8 991.7 549.7 992.45 548.8 993.2 547.95 994.15 547.5 995.1 547.05 996.2 547.05 997.4 547.05 998.35 547.5 999.3 547.9 1000.05 548.8 1000.8 549.7 1001.15 550.8 1001.55 551.95 1001.55 553.35
M 980.35 543.45
Q 979.9 543.7 979.35 544.15 978.85 544.6 978.25 545.25
L 978.25 543.5 973.9 543.5 973.9 563.1 978.25 563.1 978.25 552.95
Q 978.25 550.15 979.1 548.75 980 547.35 981.8 547.35 982.35 547.35 982.95 547.6 983.6 547.8 984.2 548.25
L 986.2 544.15
Q 985.25 543.55 984.35 543.25 983.45 542.95 982.6 542.95 981.95 542.95 981.4 543.1 980.85 543.2 980.35 543.45
M 1016.6 543.45
Q 1016.15 543.7 1015.65 544.15 1015.1 544.65 1014.45 545.3
L 1014.45 543.5 1010.15 543.5 1010.15 563.1 1014.45 563.1 1014.45 553
Q 1014.45 551.45 1014.7 550.3 1014.9 549.2 1015.3 548.45 1015.75 547.75 1016.4 547.4 1017.05 547.05 1018 547.05 1019.45 547.05 1020.15 548.35 1020.9 549.65 1020.9 552.25
L 1020.9 563.1 1025.25 563.1 1025.25 553
Q 1025.25 551.4 1025.45 550.3 1025.65 549.15 1026.05 548.45 1026.45 547.75 1027.1 547.4 1027.75 547.05 1028.65 547.05 1029.45 547.05 1030 547.35 1030.55 547.65 1030.9 548.25 1031.25 548.8 1031.4 549.8 1031.55 550.8 1031.55 552.2
L 1031.55 563.1 1035.9 563.1 1035.9 551
Q 1035.9 546.95 1034.35 544.95 1032.75 542.95 1029.55 542.95 1027.8 542.95 1026.45 543.7 1025.05 544.4 1024.05 545.85 1023.1 544.4 1021.85 543.7 1020.6 542.95 1019 542.95 1018.3 542.95 1017.7 543.1 1017.1 543.2 1016.6 543.45
M 920.15 543.5
Q 918.9 542.95 917.25 542.95 915.8 542.95 914.55 543.55 913.25 544.15 912.1 545.3
L 912.1 543.5 907.75 543.5 907.75 563.1 912.1 563.1 912.1 553.65
Q 912.1 551.8 912.35 550.55 912.55 549.25 913 548.55 913.45 547.8 914.25 547.4 915 547.05 916.05 547.05 917.05 547.05 917.75 547.35 918.45 547.6 918.8 548.15 919.2 548.7 919.4 549.7 919.6 550.7 919.6 552.15
L 919.6 563.1 923.95 563.1 923.95 551.1
Q 923.95 549 923.55 547.5 923.15 546.05 922.35 545.1 921.45 544.05 920.15 543.5
M 903.25 543.5
L 898.9 543.5 898.9 563.1 903.25 563.1 903.25 543.5
M 900 538.1
Q 900.5 538.35 901.1 538.35 901.65 538.35 902.15 538.1 902.65 537.9 903.05 537.45 903.5 537.05 903.7 536.5 903.9 536 903.9 535.4 903.9 534.75 903.7 534.25 903.5 533.75 903.05 533.3 902.65 532.9 902.15 532.65 901.65 532.45 901.05 532.45 900.5 532.45 900 532.65 899.5 532.9 899.05 533.3 898.65 533.75 898.45 534.25 898.25 534.75 898.25 535.35 898.25 536 898.45 536.5 898.65 537.05 899.05 537.45 899.5 537.9 900 538.1
M 941.45 543.7
Q 939.65 542.95 937.55 542.95 935.5 542.95 933.7 543.7 931.9 544.45 930.45 545.95 929 547.45 928.3 549.25 927.55 551.05 927.55 553.15 927.55 555.4 928.25 557.3 929 559.15 930.4 560.65 931.85 562.15 933.6 562.9 935.4 563.65 937.5 563.65 939.6 563.65 941.4 562.9 943.25 562.15 944.7 560.7 946.15 559.2 946.9 557.35 947.6 555.5 947.6 553.3 947.6 551.15 946.9 549.3 946.15 547.45 944.7 545.95 943.25 544.45 941.45 543.7
M 943.15 553.35
Q 943.15 554.75 942.8 555.9 942.4 557.05 941.65 557.9 940.9 558.75 939.85 559.2 938.85 559.6 937.55 559.6 936.3 559.6 935.3 559.15 934.25 558.75 933.5 557.9 932.75 557 932.35 555.85 932 554.7 932 553.25 932 551.85 932.4 550.75 932.75 549.65 933.55 548.8 934.3 547.9 935.3 547.45 936.35 547.05 937.55 547.05 938.85 547.05 939.85 547.45 940.85 547.9 941.65 548.8 942.4 549.65 942.8 550.75 943.15 551.9 943.15 553.35
M 962.4 543.65
Q 960.9 542.95 959.15 542.95 957.1 542.95 955.5 543.75 953.85 544.55 952.6 546.15 951.45 547.65 950.9 549.45 950.3 551.3 950.3 553.4 950.3 555.6 950.95 557.45 951.55 559.3 952.8 560.75 954 562.2 955.6 562.9 957.15 563.65 959.1 563.65 960.8 563.65 962.25 562.95 963.75 562.25 965.05 560.9
L 965.05 563.65
Q 965.05 566.65 963.85 568.2 962.65 569.7 960.3 569.7 959 569.7 958 569.25 957 568.8 956.35 567.85 956.05 567.5 955.85 566.9 955.65 566.35 955.5 565.65
L 951.15 565.65
Q 951.35 567.55 952.05 569.05 952.8 570.55 954.05 571.65 955.25 572.7 956.8 573.25 958.35 573.8 960.25 573.8 962.5 573.8 964.25 573 966 572.25 967.25 570.75 967.95 569.95 968.4 569 968.85 568.05 969.05 566.95 969.15 566.55 969.2 566.05 969.25 565.6 969.3 565.05 969.35 564.55 969.35 563.95 969.4 563.3 969.4 562.6
L 969.4 543.5 965.05 543.5 965.05 545.7
Q 963.85 544.35 962.4 543.65
M 965.2 553.35
Q 965.2 554.7 964.9 555.8 964.55 556.85 963.9 557.75 963.15 558.65 962.2 559.15 961.2 559.6 959.95 559.6 958.7 559.6 957.75 559.15 956.75 558.7 956.05 557.75 955.4 556.9 955.1 555.8 954.75 554.7 954.75 553.35 954.75 552 955.1 550.9 955.4 549.8 956.05 548.95 956.75 548 957.75 547.5 958.7 547.05 959.95 547.05 961.1 547.05 962.05 547.5 963 547.9 963.75 548.8 964.5 549.65 964.85 550.8 965.2 551.9 965.2 553.35
M 887.65 542.95
Q 886.25 542.95 885 543.5 883.7 544.05 882.55 545.15
L 882.55 534 878.2 534 878.2 563.1 882.55 563.1 882.55 553.6
Q 882.55 551.8 882.8 550.55 883 549.25 883.45 548.5 883.9 547.8 884.7 547.4 885.55 547.05 886.65 547.05 887.55 547.05 888.2 547.3 888.85 547.55 889.25 548.1 889.65 548.65 889.85 549.5 890.05 550.35 890.05 551.5
L 890.05 563.1 894.4 563.1 894.4 551.1
Q 894.4 549.05 894 547.55 893.6 546.05 892.75 545.1 891.8 544.05 890.55 543.5 889.25 542.95 887.65 542.95
M 868.15 543.5
L 863.8 543.5 863.8 563.1 868.15 563.1 868.15 552.95
Q 868.15 550.15 869.05 548.75 869.95 547.35 871.7 547.35 872.3 547.35 872.9 547.6 873.5 547.8 874.15 548.25
L 876.1 544.15
Q 875.2 543.55 874.3 543.25 873.4 542.95 872.5 542.95 871.85 542.95 871.3 543.1 870.75 543.2 870.3 543.45 869.8 543.7 869.3 544.15 868.75 544.6 868.15 545.25
L 868.15 543.5 Z"/>
</g>

<g id="Layer0_5_FILL">
<path fill="#0081c6" stroke="none" d="
M 1276.35 503.75
Q 1276.2 503.9 1276.15 504.1 1276.65 506.05 1276.95 508.25 1277.25 510.45 1278.7 511.75 1279.75 510.1 1278.45 507.9 1277.2 505.7 1276.7 503.7 1276.5 503.6 1276.35 503.75 Z"/>

<path fill="#a6ce38" stroke="none" d="
M 1326.5 454.75
Q 1320.2 448.35 1312.15 445.6 1304.1 442.85 1297.1 444.2
L 1293.35 445.4
Q 1290.5 446.45 1288.4 447.85 1287.85 448.05 1287.35 448.45
L 1286.7 449
Q 1283.65 451.85 1281.7 455.35 1279.75 458.9 1278.75 462.95 1278.4 463.65 1278.15 464.35 1277.85 465.05 1277.55 465.75
L 1277.6 467.25
Q 1277.65 468.05 1277.65 468.8
L 1277.8 468.45
Q 1277.75 468.7 1277.75 468.9 1277.7 469.15 1277.7 469.4 1277.95 476.6 1278.7 483.65 1279.4 490.7 1280.85 497.75 1281.2 499.15 1281.55 500.5 1281.9 501.9 1282.3 503.3 1282.5 504.9 1282.8 506.45 1283.05 508.05 1283.4 509.6 1284.25 513.7 1285.35 519.35 1286.45 525 1287.9 530.75 1286.75 531.3 1285.65 532 1284.55 532.7 1283.5 533.5 1283.3 533.65 1283.1 533.7
L 1282.9 533.85
Q 1282.15 534.35 1281.4 535.05 1280.65 535.8 1279.95 536.75 1279.35 537.3 1278.85 537.9 1278.3 538.5 1277.75 539.15 1276.3 540.65 1275.05 542.45 1273.8 544.25 1272.75 546.25 1271.45 548.45 1270.45 550.65 1269.45 552.85 1268.75 554.9 1268.65 555.2 1268.45 555.9 1268.25 556.55 1268.1 557.4 1266.75 561.25 1265.7 565.25 1264.7 569.25 1263.9 573.25 1262.65 579.45 1262.35 585.75 1262 592.1 1262.25 598.45 1221.4 616.25 1173.95 620.75 1126.45 625.25 1078.15 624.7 1029.85 624.2 986.65 626.85 984.85 626.85 980.7 627.15 976.55 627.5 974.45 629.65 974.95 631.4 976.6 631.55 978.2 631.75 979.25 631.75 980.25 631.9 981.2 632.05 982.2 632.2 983.2 632.3 982.2 633.1 981.5 633.85 980.8 634.55 980.5 634.95 973.85 643.95 968.35 654.3 962.85 664.6 958 675.55
L 956.65 675.5
Q 956 675.45 955.35 675.4
L 951.35 675.15
Q 948.3 674.95 946.1 675.45 946.95 676.5 948.75 676.9 950.55 677.35 951.35 677.5 952.65 677.8 953.95 678.1 955.25 678.4 956.55 678.7 952.9 687 949.35 695.2 945.8 703.4 942.15 711.25 940.1 715.5 936 724.05 931.9 732.6 928.1 742.45 924.3 752.3 923.15 760.6 922.4 760.4 921.65 760.25 920.95 760.05 920.3 759.85
L 919.3 760.1 920.9 760.5
Q 921.45 760.65 922 760.75 922.55 760.9 923.1 761.05 922.95 762.15 922.95 763.15 922.9 764.15 922.9 765.1 922.65 764.95 922.45 764.85
L 922 764.55
Q 921.25 764.7 921.7 765.1 922.15 765.55 923 766.1 923.15 768 923.7 769.5 924.25 771 925.3 772.1 927.55 774.5 929.5 775.5 931.45 776.5 933.1 776.3 940.35 784.45 952.4 790.1 964.5 795.75 978.7 799.35 1026.1 826.55 1068.95 820.15 1111.8 813.7 1151.05 770.65 1153.35 768.05 1154.6 764.8 1155.85 761.55 1156.15 758.45 1160.35 756.35 1164.35 753.95 1168.4 751.55 1172.15 748.7 1175.55 748.1 1179.05 746.55 1182.55 745 1185.3 743.55 1219.95 725.95 1254.75 695.35 1289.55 664.75 1314.6 624.8 1339.6 584.85 1345.05 539.15 1348.6 524.95 1348.65 508.9 1348.65 492.85 1343.5 478.45 1338.4 464.05 1326.5 454.75
M 943.35 775.6
Q 945.55 777.1 947.1 778.25
L 947.3 778.4
Q 947.4 778.5 947.5 778.6 945.85 777.75 944.2 776.95 942.55 776.1 940.9 775.25 940.2 774.7 939.5 774.2 938.8 773.65 938.1 773.05 938.25 772.85 938.4 772.65 938.55 772.45 938.7 772.25 941.1 774.05 943.35 775.6
M 987.8 633.1
L 987.75 632.9
Q 987.9 632.9 988.05 632.95
L 988.3 632.95
Q 988.2 633 988.05 633.05 987.95 633.05 987.8 633.1
M 1013.95 711.85
L 1017.7 712.6
Q 1018.5 712.7 1020.15 713.1 1021.8 713.5 1022.6 714.5 1019.5 715.35 1015.35 713.95 1011.2 712.55 1008.5 710.95 1011.05 711.35 1013.95 711.85 Z"/>
</g>

<g id="Symbol_7_0_Layer0_0_FILL">
<path fill="#a6ce38" stroke="none" d="
M 793 728.5
L 804.5 735.2
Q 815.8 741.55 835.15 750 854.5 758.4 879 765
L 889.25 742.3
Q 898.45 720.9 910.3 692.8 922.15 664.75 931.1 643.45
L 940.5 621 915.1 609.95 793 728.5 Z"/>
</g>

<g id="Layer0_7_FILL">
<path fill="#a6ce38" stroke="none" d="
M 1127.1 328.15
L 1121.6 334.35 1112.3 347.15
Q 1101.05 363.25 1086.9 384.1 1072.75 404.95 1060.45 422.1
L 1049.8 436.1 1042.4 444.05 1034.45 454.6 1022.2 475.55
Q 1007.75 501.75 989.45 534.55 971.15 567.3 953.8 592.5 936.4 617.65 924.75 621
L 914.5 624.25 912.6 628.25
Q 914.8 632.6 926.5 638.1 938.2 643.55 952.15 649.75 973 645.8 1012.05 630 1051.05 614.2 1093.2 593.5 1135.35 572.8 1165.6 554.2 1213.25 523.3 1235.9 479.15 1258.55 435.05 1260.8 388.75 1263 342.45 1249.3 305.2 1239.35 280.45 1220.85 279.1 1202.35 277.7 1182 288.8 1161.65 299.9 1146.25 312.45
L 1127.1 328.15 Z"/>
</g>

<g id="Symbol_8_0_Layer0_0_FILL">
<path fill="#a6ce38" stroke="none" d="
M 1037.75 310.3
Q 1009.25 300.8 986.6 302.35 963.9 303.9 957.85 315.55 952.7 327.45 948.8 344.7 944.85 362 941.6 380.45 938.35 398.9 935.2 414.45 934.25 425.55 959.65 428.65 985.05 431.8 1019.6 430.35 1054.15 428.9 1080.75 426.35
L 1108.75 423.5 1103.9 402.35
Q 1099.35 382.75 1094.8 363
L 1089.75 341.35
Q 1066.25 319.8 1037.75 310.3 Z"/>
</g>

<g id="Symbol_9_0_Layer0_0_FILL">
<path fill="#a6ce38" stroke="none" d="
M 1012.35 269.55
Q 997.1 271.3 987.9 276.75 978.7 282.25 974.4 287.2 970.05 291.85 964.65 301 959.25 310.15 954.8 320.5 950.35 330.85 948.9 338.95 948 346.8 957.15 356.25 966.25 365.75 981.25 373.2 996.2 380.65 1012.8 382.4 1029.5 383.65 1046.8 379.85 1064.15 376 1077 369.5 1089.85 363 1093.1 356.25 1093 348.8 1088.15 331 1083.35 313.25 1073.85 296.25 1064.3 279.25 1050.15 274.15 1027.6 267.85 1012.35 269.55 Z"/>
</g>

<g id="Symbol_10_0_Layer0_0_FILL">
<path fill="#a6ce38" stroke="none" d="
M 1099.4 333.3
Q 1110.85 323.1 1118.6 311
L 1115.05 308.9 1104.95 304.7
Q 1091.55 299.45 1068.2 297.6
L 1071.15 308.1
Q 1074.2 317.9 1077.85 329.4 1081.5 340.9 1083.4 346.7
L 1099.4 333.3 Z"/>
</g>

<g id="Symbol_11_0_Layer0_0_FILL">
<path fill="#0083CB" stroke="none" d="
M 1035.4 302.25
L 1033.5 301.25 1031.5 300.65 1029.35 300.45 1027.25 300.65 1025.25 301.25 1023.35 302.25 1021.75 303.6 1020.4 305.25 1019.4 307.1 1018.75 309.15 1018.55 311.25 1018.75 313.35 1019.4 315.4 1020.4 317.25 1021.75 318.9 1023.35 320.25 1025.25 321.25 1027.25 321.85 1029.35 322.05 1031.5 321.85 1033.5 321.25 1035.4 320.25 1037 318.9 1038.35 317.25 1039.35 315.4 1040 313.35 1040.2 311.25 1040 309.15 1039.35 307.1 1038.35 305.25 1037 303.6 1035.4 302.25 Z"/>
</g>

<g id="Symbol_12_0_Layer0_0_FILL">
<path fill="#a6ce38" stroke="none" d="
M 1040.4 290.7
Q 1036.7 285.45 1029.15 285.1 1020.3 285.55 1015.95 292.1 1011.65 298.6 1010.8 306.75
L 1046.25 307 1045.2 301.3
Q 1044.1 296 1040.4 290.7 Z"/>
</g>
</defs>



<g transform="matrix( 0.0853729248046875, -0.047698974609375, -0.05584716796875, -0.0772247314453125, 945.25,724.8) ">
<use xlink:href="#Layer0_0_FILL"/>
</g>

<g transform="matrix( 0.3527374267578125, 0, 0.010162353515625, 0.292510986328125, 658.25,560.1) ">
<g transform="matrix( 1, 0, 0, 1, 0,0) ">
<use xlink:href="#Symbol_6_0_Layer0_0_FILL"/>
</g>
</g>

<g transform="matrix( 0.31268310546875, 0.0518951416015625, -0.0450286865234375, 0.3126068115234375, 731.55,477.7) ">
<g transform="matrix( 1, 0, 0, 1, 0,0) ">
<use xlink:href="#Symbol_3_0_Layer0_0_FILL"/>
</g>
</g>

<g transform="matrix( 2.1943511962890625, 0.415374755859375, 0.0097198486328125, 0.299560546875, -1158.75,170.75) ">
<g transform="matrix( 1, 0, 0, 1, 0,0) ">
<use xlink:href="#Symbol_4_0_Layer0_0_FILL"/>
</g>
</g>

<g transform="matrix( 1.90142822265625, 0, 0, 1.90142822265625, -845.05,-318.7) ">
<g transform="matrix( 1, 0, 0, 1, 0,0) ">
<use xlink:href="#Symbol_5_0_Layer0_0_FILL"/>
</g>
</g>

<g transform="matrix( -0.0141448974609375, -0.105712890625, 0.0872039794921875, -0.0513763427734375, 986.4,740.8) ">
<use xlink:href="#Layer0_5_FILL"/>
</g>

<g transform="matrix( 0.0370941162109375, -0.103118896484375, -0.12445068359375, -0.0328521728515625, 1043.35,708.7) ">
<g transform="matrix( 1, 0, 0, 1, 0,0) ">
<use xlink:href="#Symbol_7_0_Layer0_0_FILL"/>
</g>
</g>

<g transform="matrix( 0.11578369140625, -0.0334014892578125, -0.0334014892578125, -0.11578369140625, 912.2,698.5) ">
<use xlink:href="#Layer0_7_FILL"/>
</g>

<g transform="matrix( 0.07598876953125, -0.0381317138671875, -0.0381317138671875, -0.07598876953125, 975.3,686.7) ">
<g transform="matrix( 1, 0, 0, 1, 0,0) ">
<use xlink:href="#Symbol_8_0_Layer0_0_FILL"/>
</g>
</g>

<g transform="matrix( 0.07598876953125, -0.0381317138671875, -0.0381317138671875, -0.07598876953125, 975.3,686.7) ">
<g transform="matrix( 1, 0, 0, 1, 0,0) ">
<use xlink:href="#Symbol_9_0_Layer0_0_FILL"/>
</g>
</g>

<g transform="matrix( -0.0008697509765625, 0.08502197265625, 0.08502197265625, 0.0008697509765625, 1013.15,535.15) ">
<g transform="matrix( 1, 0, 0, 1, 0,0) ">
<use xlink:href="#Symbol_10_0_Layer0_0_FILL"/>
</g>
</g>

<g transform="matrix( 0.07598876953125, -0.0381317138671875, -0.0381317138671875, -0.07598876953125, 975.3,686.7) ">
<g transform="matrix( 1, 0, 0, 1, 0,0) ">
<use xlink:href="#Symbol_11_0_Layer0_0_FILL"/>
</g>
</g>

<g transform="matrix( 0.07598876953125, -0.0381317138671875, -0.0381317138671875, -0.07598876953125, 975.3,686.7) ">
<g transform="matrix( 1, 0, 0, 1, 0,0) ">
<use xlink:href="#Symbol_12_0_Layer0_0_FILL"/>
</g>
</g>
</svg>
