<?xml version="1.0" encoding="utf-8"?>
<!-- Generator: Adobe Illustrator 19.2.1, SVG Export Plug-In . SVG Version: 6.00 Build 0)  -->
<svg version="1.1" xmlns="http://www.w3.org/2000/svg" xmlns:xlink="http://www.w3.org/1999/xlink" x="0px" y="0px" width="24px"
	 height="24px" viewBox="0 0 24 24" enable-background="new 0 0 24 24" xml:space="preserve">
<path d="M21.2,11.2h-8.3V2.8C12.8,2.4,12.5,2,12,2l0,0c-0.5,0-0.8,0.4-0.8,0.8l0,8.3H2.8C2.4,11.2,2,11.5,2,12
  c0,0.5,0.4,0.8,0.8,0.8h8.3l0,8.3c0,0.5,0.4,0.8,0.8,0.8h0c0.5,0,0.8-0.4,0.8-0.8v-8.3h8.3c0.5,0,0.8-0.4,0.8-0.8
  C22,11.5,21.6,11.2,21.2,11.2z"/>
</svg>
