<svg xmlns="http://www.w3.org/2000/svg" width="24" height="24" viewBox="0 0 24 24">
  <g class="icon-stroke" stroke="#000000" fill="none" fill-rule="evenodd" stroke-width="2" transform="translate(1 3)">
    <path d="M6.6 11C6.6 13.2 6.6 16.1333333 10.2666667 17.6M19.8 9.53333333C20.5859843 9.53333335 21.3122638 9.11401572 21.7052559 8.43333335 22.0982481 7.75265097 22.0982481 6.9140157 21.7052559 6.23333332 21.3122638 5.55265094 20.5859843 5.13333332 19.8 5.13333333"/>
    <path d="M7.33333333,11 L2.2,11 C0.98497355,11 1.6283271e-16,10.0150264 0,8.8 L0,5.86666667 C-1.6283271e-16,4.65164022 0.98497355,3.66666667 2.2,3.66666667 L8.8,3.66666667 C12.7465471,3.54761831 16.5713333,2.27268961 19.8,-3.55271368e-15 L19.8,14.6666667 C16.6216461,12.2960075 12.7650786,11.010485 8.8,11 L7.33333333,11 Z"/>
  </g>
</svg>
