<svg xmlns="http://www.w3.org/2000/svg" width="24" height="24" viewBox="0 0 24 24">
  <g
     class="icon-stroke"
     fill="none"
     fill-rule="evenodd"
     stroke="#000000"
     stroke-width="2"
     transform="matrix(0.75000002,0,0,0.75000002,1.7500001,0.75000002)"
     stroke-linecap="round"
     stroke-linejoin="round">
  <g
     class="icon-stroke"
     fill="none"
     fill-rule="evenodd"
     stroke="#000000"
     stroke-width="2"
     transform="matrix(0.41938798,0,0,0.41938798,11.986732,12.636732)"
     stroke-linecap="round"
     stroke-linejoin="round">
    <g
       class="icon-stroke"
       transform="translate(1.2360061,1.6532837)">
      <path
         d="M 9.7999994,21.999999 H 2 c -1.108,0 -2,-0.892 -2,-2 V 4.2 c 0,-1.108 0.892,-2 2,-2 h 15.799999 c 1.108,0 2,0.892 2,2 v 7.799999"
         transform="matrix(1.7883203,0,0,1.7883203,-24.408739,-28.343044)" />
      <path
         d="M 14.3,0 V 4.4 M 5.5,0 V 4.4 M 0,8.8 h 19.8"
         transform="matrix(1.7883203,0,0,1.7883203,-24.408739,-28.343044)" />
      <circle
         cx="11"
         cy="11"
         r="11">
      <path
         d="m 11,6.6 v 8.8 M 6.6,11 h 8.8">
    </g>
  </g>
</svg>
