<?xml version="1.0" encoding="utf-8"?>
<!-- Generator: Adobe Illustrator 20.1.0, SVG Export Plug-In . SVG Version: 6.00 Build 0)  -->
<svg version="1.1" xmlns="http://www.w3.org/2000/svg" xmlns:xlink="http://www.w3.org/1999/xlink" x="0px" y="0px"
	 viewBox="0 0 24 24" style="enable-background:new 0 0 24 24;" xml:space="preserve">
<style type="text/css">
	.st0{fill:none;}
</style>
<g id="Filled_Icons">
	<path d="M22,11.8C22,11.8,22,11.8,22,11.8c0-0.1,0-0.1-0.1-0.2c0,0,0,0,0,0c0,0,0-0.1-0.1-0.1c0,0,0,0,0-0.1c0,0,0-0.1-0.1-0.1
		c0,0,0,0,0,0l-10-9.2c-0.3-0.3-0.9-0.3-1.2,0.1c-0.3,0.3-0.3,0.9,0.1,1.2l8.4,7.7H2.8C2.4,11.2,2,11.5,2,12c0,0.5,0.4,0.8,0.8,0.8
		H19l-8.4,7.7c-0.3,0.3-0.4,0.8-0.1,1.2c0.2,0.2,0.4,0.3,0.6,0.3c0.2,0,0.4-0.1,0.6-0.2l10-9.2c0,0,0,0,0,0c0,0,0,0,0.1-0.1
		c0,0,0,0,0-0.1c0,0,0-0.1,0.1-0.1c0,0,0,0,0,0c0,0,0-0.1,0-0.1c0,0,0,0,0,0c0-0.1,0-0.1,0-0.2S22,11.9,22,11.8z"/>
</g>
</svg>
