<?xml version="1.0" encoding="UTF-8"?>
<svg width="24px" height="24px" viewBox="0 0 24 24" version="1.1" xmlns="http://www.w3.org/2000/svg" xmlns:xlink="http://www.w3.org/1999/xlink">
    <!-- Generator: Sketch 42 (36781) - http://www.bohemiancoding.com/sketch -->
    <title>attach</title>
    <desc>Created with Sketch.</desc>
    <defs></defs>
    <g id="Icons" stroke="none" stroke-width="1">
        <g id="attach">
            <path d="M16.3554023,7.6651875 L14.8330898,6.14357813 L7.22035547,13.7547188 C5.95908984,15.0154688 5.95908984,17.0605313 7.22035547,18.321375 C8.48138672,19.582125 10.5264492,19.582125 11.7877148,18.321375 L20.9229961,9.18759375 C23.025668,7.08614063 23.025668,3.67832813 20.9229961,1.57682813 C18.8214492,-0.525609375 15.4125586,-0.525609375 13.310918,1.57682813 L3.71958984,11.1669375 C3.71279297,11.1740625 3.70524609,11.1804375 3.69905859,11.1867656 C0.766980469,14.1187031 0.766980469,18.8708906 3.69905859,21.80175 C6.63001172,24.73275 11.3834648,24.73275 14.3159648,21.80175 C14.3223867,21.7953281 14.3280586,21.7884375 14.3351836,21.7812188 L14.3359336,21.7820156 L20.8827773,15.2361094 L19.359668,13.7145469 L12.8128711,20.25975 C12.8059336,20.2660313 12.7996523,20.2731094 12.793043,20.2795313 C10.7053711,22.3668281 7.30913672,22.3668281 5.22094922,20.2795313 C3.13355859,18.1926094 3.13355859,14.7969844 5.22094922,12.7097344 C5.22807422,12.7026094 5.23510547,12.6960938 5.24176172,12.6899063 L5.24068359,12.6885 L14.8331836,3.09867188 C16.0920586,1.8391875 18.1412461,1.8391875 19.4008242,3.09867188 C20.6596992,4.3580625 20.6596992,6.40682813 19.4008242,7.66523438 L10.265543,16.7988281 C9.84516797,17.218875 9.16271484,17.218875 8.74276172,16.7988281 C8.32337109,16.379625 8.32337109,15.6965156 8.74276172,15.2772656 L16.3554023,7.6651875 L16.3554023,7.6651875 Z"></path>
        </g>
    </g>
</svg>
