<?xml version="1.0" encoding="utf-8"?>
<!-- Generator: Adobe Illustrator 19.2.1, SVG Export Plug-In . SVG Version: 6.00 Build 0)  -->
<svg version="1.1" xmlns="http://www.w3.org/2000/svg" xmlns:xlink="http://www.w3.org/1999/xlink" x="0px" y="0px" width="24px"
	 height="24px" viewBox="0 0 24 24" enable-background="new 0 0 24 24" xml:space="preserve">
<g id="Filled_Icons_1_">
	<g id="Filled_Icons">
		<path d="M21.613,1.487c-2.773-2.28-6.869-1.879-9.148,0.894L1.688,15.491c-1.754,2.133-1.446,5.283,0.688,7.038
			c2.132,1.753,5.283,1.445,7.037-0.688L19.736,9.283c1.052-1.28,0.868-3.17-0.412-4.223c-1.279-1.053-3.17-0.868-4.223,0.412
			l-7.621,9.27c-0.351,0.427-0.289,1.058,0.138,1.408c0.426,0.35,1.056,0.288,1.407-0.138l7.62-9.27
			c0.35-0.426,0.981-0.488,1.408-0.138c0.427,0.351,0.488,0.982,0.137,1.409C18.188,8.016,7.868,20.571,7.868,20.571
			c-1.052,1.279-2.943,1.464-4.222,0.413c-1.28-1.052-1.465-2.943-0.413-4.223L14.01,3.651c1.578-1.92,4.413-2.197,6.333-0.619
			c1.92,1.579,2.198,4.414,0.619,6.335l-7.652,9.307c-0.353,0.426-0.291,1.058,0.136,1.41c0.424,0.352,1.052,0.291,1.404-0.135
			l7.656-9.312C24.787,7.865,24.387,3.767,21.613,1.487z"/>
	</g>
	<g id="New_icons">
	</g>
</g>
<g id="Frames-24px">
	<rect fill="none" width="24" height="24"/>
</g>
</svg>
