<?xml version="1.0" encoding="utf-8"?>
<!-- Generator: Adobe Illustrator 19.2.0, SVG Export Plug-In . SVG Version: 6.00 Build 0)  -->
<svg version="1.1" xmlns="http://www.w3.org/2000/svg" xmlns:xlink="http://www.w3.org/1999/xlink" x="0px" y="0px" width="24px"
	 height="24px" viewBox="0 0 24 24" enable-background="new 0 0 24 24" xml:space="preserve">
<g id="Filled_Icons">
	<g>
		<path d="M2,19.5l-0.031,0.993c0,0.276,0.224,0.5,0.5,0.5h19c0.276,0,0.5-0.224,0.5-0.5L22,19.5c0-0.277-0.224-0.5-0.5-0.5h-19
			C2.224,19,2,19.223,2,19.5z"/>
		<path d="M23.5,22h-23C0.224,22,0,22.223,0,22.5v1C0,23.776,0.224,24,0.5,24h23c0.276,0,0.5-0.224,0.5-0.5v-1
			C24,22.223,23.776,22,23.5,22z"/>
		<path d="M5.5,17.993c0.276,0,0.5-0.224,0.5-0.5v-7c0-0.276-0.224-0.5-0.5-0.493h-2C3.224,9.993,3,10.217,3,10.493v7
			c0,0.276,0.224,0.5,0.5,0.5H5.5z"/>
		<path d="M10.5,17.993c0.276,0,0.5-0.224,0.5-0.5v-7c0-0.276-0.224-0.5-0.5-0.493h-2C8.224,9.993,8,10.217,8,10.493v7
			c0,0.276,0.224,0.5,0.5,0.5H10.5z"/>
		<path d="M15.5,17.993c0.276,0,0.5-0.224,0.5-0.5v-7c0-0.276-0.224-0.5-0.5-0.493h-2c-0.276-0.007-0.5,0.217-0.5,0.493v7
			c0,0.276,0.224,0.5,0.5,0.5H15.5z"/>
		<path d="M20.5,17.993c0.276,0,0.5-0.224,0.5-0.5v-7c0-0.276-0.224-0.5-0.5-0.493h-2c-0.276-0.007-0.5,0.217-0.5,0.493v7
			c0,0.276,0.224,0.5,0.5,0.5H20.5z"/>
		<path d="M1.5,9h21C22.776,9,23,8.776,23,8.5v-2C23,6.223,22.776,6,22.5,6h-21C1.224,6,1,6.223,1,6.5v2C1,8.776,1.224,9,1.5,9z"/>
		<path d="M1.5,4.993h21c0.004,0,0.007,0,0.01,0c0.276,0,0.5-0.224,0.5-0.5c0-0.228-0.153-0.42-0.363-0.482L12.196,0.04
			c-0.125-0.054-0.269-0.054-0.394,0l-10.5,3.994C1.085,4.127,0.962,4.361,1.01,4.594C1.058,4.827,1.263,4.993,1.5,4.993z"/>
	</g>
</g>
<g id="invisible_shape">
	<rect fill="none" width="24" height="24"/>
</g>
</svg>
