<?xml version="1.0" encoding="utf-8"?>
<!-- Generator: Adobe Illustrator 19.2.1, SVG Export Plug-In . SVG Version: 6.00 Build 0)  -->
<svg version="1.1" xmlns="http://www.w3.org/2000/svg" xmlns:xlink="http://www.w3.org/1999/xlink" x="0px" y="0px" width="24px"
	 height="24px" viewBox="0 0 24 24" enable-background="new 0 0 24 24" xml:space="preserve">
<path d="M22.5,17.5c-1.3,0-2.3-1-2.3-2.3v-4.1c0-3.3-2.1-6.4-5.1-7.6C14.8,2,13.5,1,12,1c-1.5,0-2.8,1-3.1,2.5
  c-3.1,1.3-5.1,4.3-5.1,7.6v4.1c0,1.3-1,2.3-2.3,2.3C1.2,17.5,1,17.7,1,18c0,0.3,0.2,0.5,0.5,0.5h21.1c0.3,0,0.5-0.2,0.5-0.5
  C23,17.7,22.8,17.5,22.5,17.5z"/>
<path d="M14.8,19.3H9.2c-0.3,0-0.5,0.2-0.5,0.5c0,1.8,1.4,3.2,3.2,3.2s3.2-1.4,3.2-3.2C15.2,19.5,15,19.3,14.8,19.3z"/>
</svg>
