<?xml version="1.0" encoding="UTF-8"?>
<svg width="24px" height="24px" viewBox="0 0 24 24" version="1.1" xmlns="http://www.w3.org/2000/svg" xmlns:xlink="http://www.w3.org/1999/xlink">
    <!-- Generator: Sketch 42 (36781) - http://www.bohemiancoding.com/sketch -->
    <title>notification</title>
    <desc>Created with Sketch.</desc>
    <defs></defs>
    <g id="Icons" stroke="none" stroke-width="1">
        <g id="notification">
            <path d="M15,20 C15.276,20 15.5,20.224 15.5,20.5 C15.5,22.43 13.93,24 12,24 C10.07,24 8.5,22.43 8.5,20.5 C8.5,20.224 8.724,20 9,20 L15,20 Z M23.5,18 C23.776,18 24,18.224 24,18.5 C24,18.776 23.776,19 23.5,19 L0.5,19 C0.224,19 0,18.776 0,18.5 C0,18.224 0.224,18 0.5,18 C1.878,18 3,16.879 3,15.5 L3,11 C3,7.358 5.239,4.049 8.6,2.675 C8.976,1.131 10.388,0 12,0 C13.637,0 15.022,1.108 15.397,2.675 C18.76,4.049 21,7.359 21,11 L21,15.5 C21,16.879 22.122,18 23.5,18 Z"></path>
        </g>
    </g>
</svg>