<?xml version="1.0" encoding="UTF-8"?>
<svg width="24px" height="24px" viewBox="0 0 24 24" version="1.1" xmlns="http://www.w3.org/2000/svg" xmlns:xlink="http://www.w3.org/1999/xlink">
  <path d="M19.875,16.7020408 C20.325,17.1428571 20.9,17.3632653 21.55,17.3387755 L21.625,17.3387755 L20.95,22.9714286 C20.975,23.5102041 20.475,23.9755102 19.9,23.9755102 L5.125,23.9755102 C4.55,23.9755102 4.05,23.5346939 4.075,22.9714286 L3.375,17.044898 C3.475,17.0693878 3.6,17.0693878 3.7,17.0693878 C4.35,17.0693878 4.975,16.8244898 5.45,16.3591837 C5.625,16.2122449 5.825,16.1142857 6.075,16.1142857 C6.3,16.1142857 6.525,16.1877551 6.7,16.3591837 L8.05,17.6816327 C8.375,18 8.8,18.1714286 9.275,18.1714286 C9.725,18.1714286 10.175,18 10.5,17.6816327 L11.95,16.2367347 C12.1,16.0897959 12.275,16.0163265 12.475,16.0163265 C12.675,16.0163265 12.85,16.0897959 13,16.2367347 L14.475,17.6816327 C14.8,18 15.225,18.1714286 15.7,18.1714286 C16.15,18.1714286 16.6,18 16.925,17.6816327 L18.275,16.3591837 C18.45,16.2122449 18.65,16.1142857 18.9,16.1142857 C19.125,16.1142857 19.35,16.1877551 19.525,16.3591837 L19.875,16.7020408 Z M5.9,4.75102041 L7.375,4.75102041 C7.45,4.75102041 7.5,4.8 7.5,4.87346939 L7.5,9.50204082 C6.925,9.6244898 6.35,9.74693878 5.775,9.91836735 L5.775,4.87346939 C5.775,4.8 5.825,4.75102041 5.9,4.75102041 Z M6.65,4.06530612 C6.075,4.06530612 5.625,3.6244898 5.625,3.06122449 C5.625,2.62040816 6.25,1.39591837 6.525,0.881632653 C6.575,0.783673469 6.725,0.783673469 6.775,0.881632653 C7.05,1.39591837 7.675,2.62040816 7.675,3.06122449 C7.675,3.6 7.225,4.06530612 6.65,4.06530612 Z M11.725,3.94285714 L13.175,3.94285714 C13.25,3.94285714 13.3,3.99183673 13.3,4.06530612 L13.3,9.0122449 C13.025,8.9877551 12.725,8.9877551 12.45,8.9877551 C12.175,8.9877551 11.875,9.0122449 11.6,9.0122449 L11.6,4.06530612 C11.6,3.99183673 11.65,3.94285714 11.725,3.94285714 Z M12.475,3.25714286 C11.9,3.25714286 11.45,2.81632653 11.45,2.25306122 C11.45,1.8122449 12.075,0.587755102 12.35,0.0734693878 C12.4,-0.0244897959 12.55,-0.0244897959 12.6,0.0734693878 C12.875,0.587755102 13.5,1.8122449 13.5,2.25306122 C13.5,2.79183673 13.05,3.25714286 12.475,3.25714286 Z M17.55,4.75102041 L19.025,4.75102041 C19.1,4.75102041 19.15,4.8 19.15,4.87346939 L19.15,9.91836735 C18.575,9.74693878 18,9.6244898 17.425,9.50204082 L17.425,4.87346939 C17.425,4.8 17.475,4.75102041 17.55,4.75102041 Z M19.975,11.0204082 C21.775,11.6081633 22.975,13.2489796 22.975,15.1102041 C22.975,16.4081633 21.4,17.044898 20.475,16.1387755 L20.125,15.7959184 C19.45,15.1346939 18.375,15.1346939 17.7,15.7959184 L16.35,17.1183673 C16,17.4612245 15.425,17.4612245 15.075,17.1183673 L13.6,15.6734694 C12.975,15.0612245 12,15.0612245 11.375,15.6734694 L9.9,17.1183673 C9.55,17.4612245 8.975,17.4612245 8.625,17.1183673 L7.275,15.7959184 C6.6,15.1346939 5.525,15.1346939 4.85,15.7959184 C3.8,16.8244898 2,16.1142857 2,14.644898 C2,13.077551 3.025,11.6571429 4.55,11.1673469 L5,11.0204082 C9.85,9.42857143 15.125,9.42857143 19.975,11.0204082 Z M18.3,4.06530612 C17.725,4.06530612 17.275,3.6244898 17.275,3.06122449 C17.275,2.62040816 17.9,1.39591837 18.175,0.881632653 C18.225,0.783673469 18.375,0.783673469 18.425,0.881632653 C18.7,1.39591837 19.325,2.62040816 19.325,3.06122449 C19.325,3.6 18.875,4.06530612 18.3,4.06530612 Z"></path>
</svg>
