<?xml version="1.0" encoding="utf-8"?>
<!-- Generator: Adobe Illustrator 21.1.0, SVG Export Plug-In . SVG Version: 6.00 Build 0)  -->
<svg version="1.1" id="Layer_1" xmlns="http://www.w3.org/2000/svg" xmlns:xlink="http://www.w3.org/1999/xlink" x="0px" y="0px"
	 viewBox="0 0 24 24" style="enable-background:new 0 0 24 24;" xml:space="preserve">
<path d="M20.5,3.5C18.2,1.2,15.2,0,12,0S5.8,1.2,3.5,3.5S0,8.8,0,12s1.2,6.2,3.5,8.5S8.8,24,12,24s6.2-1.2,8.5-3.5S24,15.2,24,12
	S22.8,5.8,20.5,3.5z M12,2.4c2.1,0,4.2,0.7,5.9,2L4.4,17.9C1.5,14.1,1.8,8.6,5.2,5.2C7,3.4,9.4,2.4,12,2.4z M18.8,18.8
	c-3.4,3.4-9,3.7-12.7,0.8L19.6,6.1C22.5,9.9,22.2,15.4,18.8,18.8z"/>
</svg>
