<?xml version="1.0" encoding="UTF-8"?>
<svg width="24px" height="24px" viewBox="0 0 24 24" version="1.1" xmlns="http://www.w3.org/2000/svg" xmlns:xlink="http://www.w3.org/1999/xlink">
    <title>calendar</title>
    <path d="M6.57142857,22.2857143 L6.57142857,18.4285714 L2.71428571,18.4285714 L2.71428571,21.5420183 C2.71428571,21.9527503 3.04314354,22.2857143 3.45798165,22.2857143 L6.57142857,22.2857143 Z M7.42857143,22.2857143 L11.7142857,22.2857143 L11.7142857,18.4285714 L7.42857143,18.4285714 L7.42857143,22.2857143 L7.42857143,22.2857143 Z M2.71428571,17.5714286 L6.57142857,17.5714286 L6.57142857,13.2857143 L2.71428571,13.2857143 L2.71428571,17.5714286 L2.71428571,17.5714286 Z M7.42857143,17.5714286 L11.7142857,17.5714286 L11.7142857,13.2857143 L7.42857143,13.2857143 L7.42857143,17.5714286 L7.42857143,17.5714286 Z M6.57142857,12.4285714 L6.57142857,8.57142857 L3.45798165,8.57142857 C3.04724973,8.57142857 2.71428571,8.9002864 2.71428571,9.31512451 L2.71428571,12.4285714 L6.57142857,12.4285714 Z M12.5714286,22.2857143 L16.8571429,22.2857143 L16.8571429,18.4285714 L12.5714286,18.4285714 L12.5714286,22.2857143 L12.5714286,22.2857143 Z M7.42857143,12.4285714 L11.7142857,12.4285714 L11.7142857,8.57142857 L7.42857143,8.57142857 L7.42857143,12.4285714 L7.42857143,12.4285714 Z M20.8277326,22.2857143 C21.2384646,22.2857143 21.5714286,21.9568565 21.5714286,21.5420183 L21.5714286,18.4285714 L17.7142857,18.4285714 L17.7142857,22.2857143 L20.8277326,22.2857143 Z M12.5714286,17.5714286 L16.8571429,17.5714286 L16.8571429,13.2857143 L12.5714286,13.2857143 L12.5714286,17.5714286 L12.5714286,17.5714286 Z M7.85714286,6 L7.85714286,2.14285714 C7.85714286,2.02678571 7.81473214,1.92633929 7.72991071,1.84151786 C7.64508929,1.75669643 7.54464286,1.71428571 7.42857143,1.71428571 L6.57142857,1.71428571 C6.45535714,1.71428571 6.35491071,1.75669643 6.27008929,1.84151786 C6.18526786,1.92633929 6.14285714,2.02678571 6.14285714,2.14285714 L6.14285714,6 C6.14285714,6.11607143 6.18526786,6.21651786 6.27008929,6.30133929 C6.35491071,6.38616071 6.45535714,6.42857143 6.57142857,6.42857143 L7.42857143,6.42857143 C7.54464286,6.42857143 7.64508929,6.38616071 7.72991071,6.30133929 C7.81473214,6.21651786 7.85714286,6.11607143 7.85714286,6 L7.85714286,6 Z M17.7142857,17.5714286 L21.5714286,17.5714286 L21.5714286,13.2857143 L17.7142857,13.2857143 L17.7142857,17.5714286 L17.7142857,17.5714286 Z M12.5714286,12.4285714 L16.8571429,12.4285714 L16.8571429,8.57142857 L12.5714286,8.57142857 L12.5714286,12.4285714 L12.5714286,12.4285714 Z M21.5714286,12.4285714 L21.5714286,9.31512451 C21.5714286,8.90439259 21.2425707,8.57142857 20.8277326,8.57142857 L17.7142857,8.57142857 L17.7142857,12.4285714 L21.5714286,12.4285714 Z M18.1428571,6 L18.1428571,2.14285714 C18.1428571,2.02678571 18.1004464,1.92633929 18.015625,1.84151786 C17.9308036,1.75669643 17.8303571,1.71428571 17.7142857,1.71428571 L16.8571429,1.71428571 C16.7410714,1.71428571 16.640625,1.75669643 16.5558036,1.84151786 C16.4709821,1.92633929 16.4285714,2.02678571 16.4285714,2.14285714 L16.4285714,6 C16.4285714,6.11607143 16.4709821,6.21651786 16.5558036,6.30133929 C16.640625,6.38616071 16.7410714,6.42857143 16.8571429,6.42857143 L17.7142857,6.42857143 C17.8303571,6.42857143 17.9308036,6.38616071 18.015625,6.30133929 C18.1004464,6.21651786 18.1428571,6.11607143 18.1428571,6 L18.1428571,6 Z M23.2900009,22.504087 C23.2900009,23.3302569 22.6229055,24 21.7928797,24 L2.49712125,24 C1.67028401,24 1,23.3272941 1,22.504087 L1,4.92591308 C1,4.09974314 1.67737538,3.42971781 2.49384757,3.4293776 L4.42857143,3.42857143 L4.42857143,2.14285714 C4.42857143,1.55357143 4.63839286,1.04910714 5.05803571,0.629464286 C5.47767857,0.209821429 5.98214286,0 6.57142857,0 L7.42857143,0 C8.01785714,0 8.52232143,0.209821429 8.94196429,0.629464286 C9.36160714,1.04910714 9.57142857,1.55357143 9.57142857,2.14285714 L9.57142857,3.42857143 L14.7142857,3.42857143 L14.7142857,2.14285714 C14.7142857,1.55357143 14.9241071,1.04910714 15.34375,0.629464286 C15.7633929,0.209821429 16.2678571,0 16.8571429,0 L17.7142857,0 C18.3035714,0 18.8080357,0.209821429 19.2276786,0.629464286 C19.6473214,1.04910714 19.8571429,1.55357143 19.8571429,2.14285714 L19.8571429,3.42857143 L21.7942856,3.4293776 C22.6203464,3.42972138 23.2900009,4.10270597 23.2900009,4.92591308 L23.2900009,22.504087 Z"></path>
</svg>
