<?xml version="1.0" encoding="utf-8"?>
<!-- Generator: Adobe Illustrator 21.1.0, SVG Export Plug-In . SVG Version: 6.00 Build 0)  -->
<svg version="1.1" id="Layer_1" xmlns="http://www.w3.org/2000/svg" xmlns:xlink="http://www.w3.org/1999/xlink" x="0px" y="0px"
	 viewBox="0 0 24 24" style="enable-background:new 0 0 24 24;" xml:space="preserve">
<path d="M19,22.8H5c-1.5,0-2.8-1.2-2.8-2.8V6c0-1.5,1.2-2.8,2.8-2.8h14c1.5,0,2.8,1.2,2.8,2.8v14C21.8,21.5,20.5,22.8,19,22.8z
	 M5,4.8C4.3,4.8,3.8,5.3,3.8,6v14c0,0.7,0.6,1.2,1.2,1.2h14c0.7,0,1.2-0.6,1.2-1.2V6c0-0.7-0.6-1.2-1.2-1.2H5z"/>
<path d="M16,6.8c-0.4,0-0.8-0.3-0.8-0.8V2c0-0.4,0.3-0.8,0.8-0.8s0.8,0.3,0.8,0.8v4C16.8,6.4,16.4,6.8,16,6.8z"/>
<path d="M8,6.8C7.6,6.8,7.2,6.4,7.2,6V2c0-0.4,0.3-0.8,0.8-0.8S8.8,1.6,8.8,2v4C8.8,6.4,8.4,6.8,8,6.8z"/>
<path d="M21,10.8H3c-0.4,0-0.8-0.3-0.8-0.8S2.6,9.2,3,9.2h18c0.4,0,0.8,0.3,0.8,0.8S21.4,10.8,21,10.8z"/>
</svg>
