<?xml version="1.0" encoding="UTF-8"?>
<svg width="24px" height="24px" viewBox="0 0 24 24" version="1.1" xmlns="http://www.w3.org/2000/svg" xmlns:xlink="http://www.w3.org/1999/xlink">
    <defs></defs>
      <g id="calendar" >
          <path d="M2.71428571,22.2857143 L6.57142857,22.2857143 L6.57142857,18.4285714 L2.71428571,18.4285714 L2.71428571,22.2857143 L2.71428571,22.2857143 Z M7.42857143,22.2857143 L11.7142857,22.2857143 L11.7142857,18.4285714 L7.42857143,18.4285714 L7.42857143,22.2857143 L7.42857143,22.2857143 Z M2.71428571,17.5714286 L6.57142857,17.5714286 L6.57142857,13.2857143 L2.71428571,13.2857143 L2.71428571,17.5714286 L2.71428571,17.5714286 Z M7.42857143,17.5714286 L11.7142857,17.5714286 L11.7142857,13.2857143 L7.42857143,13.2857143 L7.42857143,17.5714286 L7.42857143,17.5714286 Z M2.71428571,12.4285714 L6.57142857,12.4285714 L6.57142857,8.57142857 L2.71428571,8.57142857 L2.71428571,12.4285714 L2.71428571,12.4285714 Z M12.5714286,22.2857143 L16.8571429,22.2857143 L16.8571429,18.4285714 L12.5714286,18.4285714 L12.5714286,22.2857143 L12.5714286,22.2857143 Z M7.42857143,12.4285714 L11.7142857,12.4285714 L11.7142857,8.57142857 L7.42857143,8.57142857 L7.42857143,12.4285714 L7.42857143,12.4285714 Z M17.7142857,22.2857143 L21.5714286,22.2857143 L21.5714286,18.4285714 L17.7142857,18.4285714 L17.7142857,22.2857143 L17.7142857,22.2857143 Z M12.5714286,17.5714286 L16.8571429,17.5714286 L16.8571429,13.2857143 L12.5714286,13.2857143 L12.5714286,17.5714286 L12.5714286,17.5714286 Z M7.85714286,6 L7.85714286,2.14285714 C7.85714286,2.02678571 7.81473214,1.92633929 7.72991071,1.84151786 C7.64508929,1.75669643 7.54464286,1.71428571 7.42857143,1.71428571 L6.57142857,1.71428571 C6.45535714,1.71428571 6.35491071,1.75669643 6.27008929,1.84151786 C6.18526786,1.92633929 6.14285714,2.02678571 6.14285714,2.14285714 L6.14285714,6 C6.14285714,6.11607143 6.18526786,6.21651786 6.27008929,6.30133929 C6.35491071,6.38616071 6.45535714,6.42857143 6.57142857,6.42857143 L7.42857143,6.42857143 C7.54464286,6.42857143 7.64508929,6.38616071 7.72991071,6.30133929 C7.81473214,6.21651786 7.85714286,6.11607143 7.85714286,6 L7.85714286,6 Z M17.7142857,17.5714286 L21.5714286,17.5714286 L21.5714286,13.2857143 L17.7142857,13.2857143 L17.7142857,17.5714286 L17.7142857,17.5714286 Z M12.5714286,12.4285714 L16.8571429,12.4285714 L16.8571429,8.57142857 L12.5714286,8.57142857 L12.5714286,12.4285714 L12.5714286,12.4285714 Z M17.7142857,12.4285714 L21.5714286,12.4285714 L21.5714286,8.57142857 L17.7142857,8.57142857 L17.7142857,12.4285714 L17.7142857,12.4285714 Z M18.1428571,6 L18.1428571,2.14285714 C18.1428571,2.02678571 18.1004464,1.92633929 18.015625,1.84151786 C17.9308036,1.75669643 17.8303571,1.71428571 17.7142857,1.71428571 L16.8571429,1.71428571 C16.7410714,1.71428571 16.640625,1.75669643 16.5558036,1.84151786 C16.4709821,1.92633929 16.4285714,2.02678571 16.4285714,2.14285714 L16.4285714,6 C16.4285714,6.11607143 16.4709821,6.21651786 16.5558036,6.30133929 C16.640625,6.38616071 16.7410714,6.42857143 16.8571429,6.42857143 L17.7142857,6.42857143 C17.8303571,6.42857143 17.9308036,6.38616071 18.015625,6.30133929 C18.1004464,6.21651786 18.1428571,6.11607143 18.1428571,6 L18.1428571,6 Z M23.2857143,5.14285714 L23.2857143,22.2857143 C23.2857143,22.75 23.1160714,23.1517857 22.7767857,23.4910714 C22.4375,23.8303571 22.0357143,24 21.5714286,24 L2.71428571,24 C2.25,24 1.84821429,23.8303571 1.50892857,23.4910714 C1.16964286,23.1517857 1,22.75 1,22.2857143 L1,5.14285714 C1,4.67857143 1.16964286,4.27678571 1.50892857,3.9375 C1.84821429,3.59821429 2.25,3.42857143 2.71428571,3.42857143 L4.42857143,3.42857143 L4.42857143,2.14285714 C4.42857143,1.55357143 4.63839286,1.04910714 5.05803571,0.629464286 C5.47767857,0.209821429 5.98214286,0 6.57142857,0 L7.42857143,0 C8.01785714,0 8.52232143,0.209821429 8.94196429,0.629464286 C9.36160714,1.04910714 9.57142857,1.55357143 9.57142857,2.14285714 L9.57142857,3.42857143 L14.7142857,3.42857143 L14.7142857,2.14285714 C14.7142857,1.55357143 14.9241071,1.04910714 15.34375,0.629464286 C15.7633929,0.209821429 16.2678571,0 16.8571429,0 L17.7142857,0 C18.3035714,0 18.8080357,0.209821429 19.2276786,0.629464286 C19.6473214,1.04910714 19.8571429,1.55357143 19.8571429,2.14285714 L19.8571429,3.42857143 L21.5714286,3.42857143 C22.0357143,3.42857143 22.4375,3.59821429 22.7767857,3.9375 C23.1160714,4.27678571 23.2857143,4.67857143 23.2857143,5.14285714 L23.2857143,5.14285714 Z"></path>
      </g>
</svg>