<svg width="24px" height="24px" viewBox="0 0 24 24" version="1.1" xmlns="http://www.w3.org/2000/svg" xmlns:xlink="http://www.w3.org/1999/xlink">
  <g class="icon-stroke" stroke="#000000" fill="none" fill-rule="evenodd" stroke-width="1" stroke-linecap="round">
        <path class="icon-stroke" d="M6.27265213,2.5 C5.64760344,2.5 4.81040526,3.13161226 4.27223979,3.62959674 C3.89771806,3.97624486 2.97646166,4.87139521 2.97646166,5.82608696 C2.97646166,7.44960469 3.44040057,9.17497439 4.34173502,10.9579935 C5.18787849,12.6296834 6.39968326,14.281335 7.84529307,15.7350939 C9.29067035,17.1886189 10.9330124,18.4074043 12.5965059,19.2581421 C14.3698527,20.1646955 16.0867874,20.6304751 17.7015073,20.6313914 C18.6508239,20.6313913 19.5400137,19.7019657 19.8854488,19.3239353 C20.3813185,18.7800384 21.0107474,17.9342841 21.0107474,17.3053043 C21.0107474,17.0283081 20.7804325,16.7235034 20.4060616,16.3175957 C20.0463292,15.9278725 19.5579633,15.4891742 18.9953728,15.0498033 C18.6772215,14.8015628 17.0619481,13.5009565 16.2726521,13.5009565 C15.692529,13.5009565 15.3650251,14.2798085 14.9694964,14.9255188 C14.7547474,15.276512 14.5308855,15.6403012 13.3990643,16.154932 C12.542295,15.3810008 8.25007816,10.9945547 7.67321207,9.21980263 C7.93303347,9.01043493 8.29162291,8.78654674 8.64012842,8.57208315 C9.28253444,8.17586999 10.0583664,7.84440831 10.0583664,7.26086957 C10.0583664,6.46752588 8.76283006,4.84319881 8.51525634,4.52313706 C8.07790099,3.95824727 7.64108704,3.46773612 7.25288446,3.10628477 C6.84961696,2.73176518 6.5479582,2.5 6.27265213,2.5 Z" id="Shape" stroke="#000000" fill-rule="nonzero" transform="translate(11.993605, 11.565696) rotate(-225.000000) translate(-11.993605, -11.565696) "></path>
    </g>
</svg>
