<?xml version="1.0" encoding="UTF-8"?>
<svg width="24px" height="24px" viewBox="0 0 24 24" version="1.1" xmlns="http://www.w3.org/2000/svg" xmlns:xlink="http://www.w3.org/1999/xlink">
    <!-- Generator: Sketch 42 (36781) - http://www.bohemiancoding.com/sketch -->
    <title>camera</title>
    <desc>Created with Sketch.</desc>
    <defs></defs>
    <g id="Icons" stroke="none" stroke-width="1">
        <g id="camera">
            <path d="M12,10 C12.8263889,10 13.5329861,10.2934028 14.1197917,10.8802083 C14.7065972,11.4670139 15,12.1736111 15,13 C15,13.8263889 14.7065972,14.5329861 14.1197917,15.1197917 C13.5329861,15.7065972 12.8263889,16 12,16 C11.1736111,16 10.4670139,15.7065972 9.88020833,15.1197917 C9.29340278,14.5329861 9,13.8263889 9,13 C9,12.1736111 9.29340278,11.4670139 9.88020833,10.8802083 C10.4670139,10.2934028 11.1736111,10 12,10 L12,10 L12,10 Z M20.4998351,5.66899994 C21.3283533,5.6695523 22,6.33800407 22,7.16998301 L22,18.830017 C22,19.6584347 21.3345642,20.3301108 20.4967494,20.3302505 L3.5032506,20.3330828 C2.67302822,20.3332212 2,19.6651774 2,18.8330093 L2,7.17032407 C2,6.34171801 2.67432225,5.66955052 3.50016487,5.66899994 L7,5.66666667 L7.53125,4.25 C7.66319444,3.90972223 7.90451389,3.61631944 8.25520833,3.36979167 C8.60590277,3.12326389 8.96527777,3 9.33333333,3 L14.6666667,3 C15.0347222,3 15.3940972,3.12326389 15.7447917,3.36979167 C16.0954861,3.61631944 16.3368056,3.90972223 16.46875,4.25 L17,5.66666667 L20.4998351,5.66899994 Z M12,17.6666667 C13.2847223,17.6666667 14.3836806,17.2100694 15.296875,16.296875 C16.2100694,15.3836806 16.6666667,14.2847222 16.6666667,13 C16.6666667,11.7152777 16.2100694,10.6163194 15.296875,9.703125 C14.3836806,8.78993056 13.2847223,8.33333333 12,8.33333333 C10.7152778,8.33333333 9.61631944,8.78993056 8.703125,9.703125 C7.78993056,10.6163194 7.33333333,11.7152777 7.33333333,13 C7.33333333,14.2847222 7.78993056,15.3836806 8.703125,16.296875 C9.61631944,17.2100694 10.7152778,17.6666667 12,17.6666667 L12,17.6666667 L12,17.6666667 Z"></path>
        </g>
    </g>
</svg>
