<svg xmlns="http://www.w3.org/2000/svg" width="24" height="24" viewBox="0 0 24 24">
  <g class="icon-stroke" fill="none" fill-rule="evenodd" stroke="#000000" stroke-width="2" transform="translate(1 2)" stroke-linecap="round">
    <path d="M17.4533333,8.25 C20.0933333,8.83666667 22,10.78 22,13.0533333 C21.9628063,14.4649554 21.2718297,15.7791659 20.13,16.61 L21.2666667,19.4333333 L17.49,17.8566667 C16.924285,17.9824348 16.3461799,18.0439354 15.7666667,18.04 C12.76,18.04 10.23,16.3166667 9.64333333,14.0433333"/>
    <path d="M0.733333333,16.1333333 L6.38,13.8233333 C7.17449374,13.9993412 7.98626203,14.0854378 8.8,14.08 C13.6766667,14.08 17.6,10.9266667 17.6,7.04 C17.6,3.15333333 13.6766667,0 8.8,0 C3.92333333,0 0,3.15333333 0,7.04 C0,9.02 1.02666667,10.8166667 2.67666667,12.1 L0.733333333,16.1333333 Z"/>
  </g>
</svg>
