<?xml version="1.0" encoding="utf-8"?>
<!-- Generator: Adobe Illustrator 16.0.0, SVG Export Plug-In . SVG Version: 6.00 Build 0)  -->
<!DOCTYPE svg PUBLIC "-//W3C//DTD SVG 1.1//EN" "http://www.w3.org/Graphics/SVG/1.1/DTD/svg11.dtd">
<svg version="1.1" id="Filled_Icons" xmlns="http://www.w3.org/2000/svg" xmlns:xlink="http://www.w3.org/1999/xlink" x="0px"
	 y="0px" width="24px" height="24px" viewBox="0 0 24 24" enable-background="new 0 0 24 24" xml:space="preserve">
<path d="M12.001,0.001c-6.617,0-12,5.384-12,12s5.383,12,12,12c6.616,0,12-5.384,12-12S18.618,0.001,12.001,0.001z M17.342,8.867
	l-7.5,7c-0.096,0.089-0.219,0.134-0.341,0.134c-0.128,0-0.256-0.049-0.354-0.146l-2.5-2.5c-0.195-0.195-0.195-0.512,0-0.707
	c0.195-0.196,0.512-0.196,0.707,0l2.158,2.158l7.147-6.67c0.201-0.188,0.518-0.178,0.707,0.023
	C17.555,8.361,17.544,8.678,17.342,8.867z"/>
</svg>
