<?xml version="1.0" encoding="utf-8"?>
<!-- Generator: Adobe Illustrator 16.0.0, SVG Export Plug-In . SVG Version: 6.00 Build 0)  -->
<!DOCTYPE svg PUBLIC "-//W3C//DTD SVG 1.1//EN" "http://www.w3.org/Graphics/SVG/1.1/DTD/svg11.dtd">
<svg version="1.1" id="Filled_Icons" xmlns="http://www.w3.org/2000/svg" xmlns:xlink="http://www.w3.org/1999/xlink" x="0px"
	 y="0px" width="24px" height="24px" viewBox="0 0 24 24" enable-background="new 0 0 24 24" xml:space="preserve">
<path d="M13.416,12.001L23.708,1.708c0.391-0.389,0.391-1.022,0-1.414c-0.391-0.391-1.024-0.391-1.414,0L12.001,10.587L1.708,0.294
	c-0.391-0.391-1.024-0.391-1.414,0c-0.391,0.392-0.391,1.024,0,1.414l10.292,10.293L0.294,22.294c-0.391,0.392-0.391,1.024,0,1.414
	c0.195,0.195,0.451,0.293,0.707,0.293c0.256,0,0.512-0.098,0.707-0.293l10.293-10.293l10.293,10.293
	c0.195,0.195,0.451,0.293,0.707,0.293c0.256,0,0.512-0.098,0.707-0.293c0.391-0.39,0.391-1.022,0-1.414L13.416,12.001z"/>
</svg>
