<?xml version="1.0" encoding="utf-8"?>
<!-- Generator: Adobe Illustrator 16.0.0, SVG Export Plug-In . SVG Version: 6.00 Build 0)  -->
<!DOCTYPE svg PUBLIC "-//W3C//DTD SVG 1.1//EN" "http://www.w3.org/Graphics/SVG/1.1/DTD/svg11.dtd">
<svg version="1.1" id="Filled_Icons" xmlns="http://www.w3.org/2000/svg" xmlns:xlink="http://www.w3.org/1999/xlink" x="0px"
	 y="0px" width="24px" height="24px" viewBox="0 0 24 24" enable-background="new 0 0 24 24" xml:space="preserve">
<path d="M13.2,12l8.6-8.6c0.3-0.3,0.3-0.9,0-1.2c-0.3-0.3-0.9-0.3-1.2,0L12,10.8L3.4,2.2c-0.3-0.3-0.9-0.3-1.2,0
  c-0.3,0.3-0.3,0.9,0,1.2l8.6,8.6l-8.6,8.6c-0.3,0.3-0.3,0.9,0,1.2C2.4,21.9,2.6,22,2.8,22c0.2,0,0.4-0.1,0.6-0.2l8.6-8.6l8.6,8.6
  c0.2,0.2,0.4,0.2,0.6,0.2s0.4-0.1,0.6-0.2c0.3-0.3,0.3-0.9,0-1.2L13.2,12z"/>
</svg>
