<?xml version="1.0" encoding="utf-8"?>
<!-- Generator: Adobe Illustrator 16.0.0, SVG Export Plug-In . SVG Version: 6.00 Build 0)  -->
<!DOCTYPE svg PUBLIC "-//W3C//DTD SVG 1.1//EN" "http://www.w3.org/Graphics/SVG/1.1/DTD/svg11.dtd">
<svg version="1.1" id="Filled_Icons" xmlns="http://www.w3.org/2000/svg" xmlns:xlink="http://www.w3.org/1999/xlink" x="0px"
	 y="0px" width="24px" height="24px" viewBox="0 0 24 24" enable-background="new 0 0 24 24" xml:space="preserve">
<path d="M13.1,12l7.7-7.7c0.3-0.3,0.3-0.8,0-1.1s-0.8-0.3-1.1,0L12,10.9L4.3,3.2C4,2.9,3.5,2.9,3.2,3.2S2.9,4,3.2,4.3l7.7,7.7
  l-7.7,7.7c-0.3,0.3-0.3,0.8,0,1.1C3.4,20.9,3.6,21,3.7,21c0.2,0,0.4-0.1,0.5-0.2l7.7-7.7l7.7,7.7c0.2,0.2,0.4,0.2,0.5,0.2
  s0.4-0.1,0.5-0.2c0.3-0.3,0.3-0.8,0-1.1L13.1,12z"/>
</svg>
