<?xml version="1.0" encoding="utf-8"?>
<!-- Generator: Adobe Illustrator 16.0.0, SVG Export Plug-In . SVG Version: 6.00 Build 0)  -->
<!DOCTYPE svg PUBLIC "-//W3C//DTD SVG 1.1//EN" "http://www.w3.org/Graphics/SVG/1.1/DTD/svg11.dtd">
<svg version="1.1" id="Filled_Icons" xmlns="http://www.w3.org/2000/svg" xmlns:xlink="http://www.w3.org/1999/xlink" x="0px"
	 y="0px" width="24px" height="24px" viewBox="0 0 24 24" enable-background="new 0 0 24 24" xml:space="preserve">
<path d="M23.5,10h-2.855c-0.2-0.79-0.454-1.667-0.778-2.332l2.032-2.032c0.094-0.094,0.146-0.221,0.146-0.353
	c0-0.133-0.053-0.26-0.146-0.354L19.07,2.102c-0.195-0.196-0.512-0.196-0.707,0l-2.033,2.031C15.666,3.809,14.789,3.555,14,3.356
	V0.5C14,0.224,13.776,0,13.5,0h-3C10.224,0,10,0.224,10,0.5v2.856C9.21,3.555,8.333,3.809,7.669,4.133L5.636,2.102
	c-0.195-0.196-0.512-0.196-0.707,0L2.1,4.929c-0.195,0.195-0.195,0.512,0,0.707l2.033,2.033C3.811,8.332,3.555,9.209,3.354,10H0.5
	C0.224,10,0,10.224,0,10.5v3C0,13.776,0.224,14,0.5,14h2.854c0.201,0.791,0.456,1.668,0.779,2.332L2.1,18.365
	c-0.094,0.093-0.146,0.22-0.146,0.353s0.053,0.26,0.146,0.354l2.829,2.828c0.188,0.188,0.52,0.188,0.707,0l2.033-2.033
	C8.332,20.19,9.209,20.444,10,20.646V23.5c0,0.276,0.224,0.5,0.5,0.5h3c0.276,0,0.5-0.224,0.5-0.5v-2.854
	c0.791-0.201,1.668-0.456,2.331-0.778l2.034,2.032c0.195,0.195,0.512,0.195,0.707,0l2.828-2.828c0.195-0.195,0.195-0.512,0-0.707
	l-2.032-2.033c0.323-0.664,0.578-1.541,0.778-2.332H23.5c0.276,0,0.5-0.224,0.5-0.5v-3C24,10.224,23.776,10,23.5,10z M12,16
	c-2.206,0-4-1.795-4-4s1.794-4,4-4s4,1.795,4,4S14.206,16,12,16z"/>
</svg>
