<?xml version="1.0" encoding="utf-8"?>
<!-- Generator: Adobe Illustrator 21.1.0, SVG Export Plug-In . SVG Version: 6.00 Build 0)  -->
<svg version="1.1" id="Layer_2" xmlns="http://www.w3.org/2000/svg" xmlns:xlink="http://www.w3.org/1999/xlink" x="0px" y="0px"
	 viewBox="0 0 24 24" style="enable-background:new 0 0 24 24;" xml:space="preserve">
<path d="M12,7.7c-2.4,0-4.3,1.9-4.3,4.3c0,2.4,1.9,4.3,4.3,4.3s4.3-1.9,4.3-4.3C16.3,9.6,14.4,7.7,12,7.7z M20.7,14.5l-0.8,1.9
	l1.6,3.1l-1.9,1.9l-3.2-1.5l-1.9,0.8l-1,2.9L13.4,24h-2.7l-1.2-3.3l-1.9-0.8l-3.1,1.6l-1.9-1.9l1.5-3.2l-0.8-1.9L0,13.4v-2.7
	l3.3-1.2l0.8-1.9L2.7,4.9L2.5,4.5l1.9-1.9l3.2,1.5l1.9-0.8l1-2.9L10.6,0h2.7l1.2,3.3l1.9,0.8l3.1-1.6l1.9,1.9l-1.5,3.2l0.8,1.9
	l3.3,1.1v2.7L20.7,14.5L20.7,14.5z"/>
</svg>
