<svg version="1.1" id="Layer_1" xmlns="http://www.w3.org/2000/svg" xmlns:xlink="http://www.w3.org/1999/xlink" x="0px" y="0px" viewBox="0 0 24 24" style="enable-background:new 0 0 24 24;" xml:space="preserve">
  <g class="icon-stroke" fill="none" fill-rule="evenodd" stroke="#000000" stroke-width="2" stroke-linecap="round" stroke-linejoin="round">
    <path
      d="M20.3,13.4c0.2-1,0.2-2,0-3.1l2.2-1.2l-2.8-4.9l-2.2,1.3c-0.8-0.6-1.7-1.2-2.6-1.5V1.4H9.2V4
    c-1,0.3-1.8,0.8-2.6,1.5L4.3,4.2l-2.8,5l2.1,1.2c-0.2,1-0.2,2.1,0,3.1l-2.3,1.3l2.8,4.9l2.3-1.3c0.8,0.7,1.7,1.2,2.7,1.6v2.6h5.7V20
    c1-0.4,2-0.9,2.8-1.6l2.3,1.4l2.8-5L20.3,13.4z M12.1,15.5c-2,0-3.5-1.6-3.5-3.5c0-2,1.6-3.5,3.5-3.5c2,0,3.5,1.6,3.5,3.5
    C15.7,14,14.1,15.5,12.1,15.5z"/>
  </g>
</svg>
