<?xml version="1.0" encoding="UTF-8"?>
<svg width="24px" height="24px" viewBox="0 0 24 24" version="1.1" xmlns="http://www.w3.org/2000/svg" xmlns:xlink="http://www.w3.org/1999/xlink">
    <!-- Generator: Sketch 42 (36781) - http://www.bohemiancoding.com/sketch -->
    <title>compose</title>
    <desc>Created with Sketch.</desc>
    <defs></defs>
    <g id="Icons" stroke="none" stroke-width="1">
        <g id="compose">
            <path d="M15,2 L1.50391541,2 C0.66573008,2 2.21610924e-16,2.66926859 2.21610924e-16,3.49485322 L2.21610924e-16,22.5051468 C2.21610924e-16,23.3295713 0.669268585,24 1.49485322,24 L20.5051468,24 C21.3295713,24 22,23.3266741 22,22.4960846 L22,9.33333333 L20,11.6666667 L20,11.6666667 L20,21.5346953 C20,21.7924624 19.7925917,22 19.5346953,22 L2.46530474,22 C2.2075376,22 2,21.7925917 2,21.5346953 L2,4.46530474 C2,4.2075376 2.20740826,4 2.46530474,4 L13,4 L15,2 Z M5.72500597,18.2738133 L8.37314014,17.5119356 L6.56438388,15.585679 L5.72500597,18.2738133 L5.72500597,18.2738133 Z M21.4869356,6.08502107 L9.30001835,18.2763133 L4,19.9994443 L5.72250596,14.6963009 L5.72250596,14.6944259 L5.72375597,14.6944259 L17.9087982,2.50375867 L18.0662987,2.66188422 L21.4869356,6.08502107 Z M22.8581903,4.71314132 L22.6619396,4.909392 L19.0831772,1.3287546 L19.2788029,1.13312892 C19.2788029,1.13312892 20.1356809,4.4408921e-16 21.3544351,4.4408921e-16 C21.891312,4.4408921e-16 22.4994391,0.220625764 23.1350663,0.856252965 C25.2313235,2.95251022 22.8581903,4.71314132 22.8581903,4.71314132 L22.8581903,4.71314132 Z"></path>
        </g>
    </g>
</svg>