<?xml version="1.0" encoding="UTF-8" standalone="no"?>
<svg xmlns="http://www.w3.org/2000/svg" width="24" height="24" viewBox="0 0 24 24">
  <g
     id="g1111"
     transform="matrix(0.96582885,0,0,0.96582885,0.51680348,0.33804015)">
    <g
       id="g212"
       stroke-width="1"
       fill-rule="evenodd"
       fill="none"
       stroke="#000000"
       class="icon-stroke">
      <path
         d="M 16.042105,0.15 C 13.533373,0.15 11.5,2.1833734 11.5,4.6921053 v 0.8982456 c 0,2.5087318 2.033373,4.5421051 4.542105,4.5421051 2.508732,0 4.542105,-2.0333733 4.542105,-4.5421051 V 4.6921053 C 20.58421,2.1833734 18.550837,0.15 16.042105,0.15"
        />
      <path
         d="m 21.880702,22.764035 c 0.772423,0 1.398245,-0.625822 1.398245,-1.398245 v -7.006316 c 0,-0.848162 -0.467504,-1.627229 -1.216071,-2.026197 l -2.722178,-1.461198 -0.28964,-0.155471 -0.257549,0.204282 c -0.781329,0.619733 -1.741024,0.962443 -2.751404,0.962443 -0.945409,0 -1.847009,-0.302956 -2.605583,-0.856848 l -1.195066,-0.872609 0.420864,1.418628 c 0.122102,0.411574 0.185048,0.833377 0.185048,1.259952 v 0.898246 c 0,1.038029 -0.360827,2.034725 -1.016503,2.826832 l -0.401189,0.484665 1.551714,0.775857 c 0.743737,0.372051 1.213347,1.131837 1.213347,1.963228 v 1.584506 c 0,0.772423 0.625822,1.398245 1.398246,1.398245 z"
        />
      <path
         d="m 6.3894737,7.5605263 c -2.5087319,0 -4.5421053,2.0333734 -4.5421053,4.5421057 v 0.898245 c 0,2.508732 2.0333734,4.542105 4.5421053,4.542105 2.5087318,0 4.5421053,-2.033373 4.5421053,-4.542105 v -0.898245 c 0,-2.5087323 -2.0333735,-4.5421057 -4.5421053,-4.5421057 z"
        />
      <path
         d="m 0.5,21.016372 v 1.584505 c 0,0.772423 0.6258225,1.398246 1.3982456,1.398246 h 8.9824564 c 0.772423,0 1.398245,-0.625823 1.398245,-1.398246 v -1.584505 c 0,-0.869735 -0.491373,-1.664873 -1.269271,-2.054109 L 9.7496904,18.332495 9.459036,18.187219 9.2082368,18.393822 c -0.790007,0.65079 -1.776823,1.012318 -2.8187631,1.012318 -1.0419401,0 -2.0287561,-0.361528 -2.8187632,-1.012318 L 3.3199113,18.187219 1.7694675,18.962165 C 0.99137386,19.351499 0.5,20.146637 0.5,21.016372"
        />
    </g>
  </g>
</svg>
