<?xml version="1.0" encoding="UTF-8"?>
<svg xmlns="http://www.w3.org/2000/svg" xmlns:xlink="http://www.w3.org/1999/xlink" width="24" height="24" viewBox="0 0 24 24" version="1.1">
<g id="Contacts" class="icon-stroke" transform="translate(2, 3)" fill-rule="evenodd" fill="none" stroke-width="2">
  <path d="M1.89473684,18 L1.89473684,0 L17.0526316,0 C18.0994737,0 18.9473684,0.732272727 18.9473684,1.63636364 L18.9473684,16.3636364 C18.9473684,17.2677273 18.0994737,18 17.0526316,18 L1.89473684,18 L1.89473684,18 Z" id="Stroke-5810"></path>
  <path d="M0,2.84210526 L0,4.73684211" id="Stroke-5811"></path>
  <path d="M0,7.57894737 L0,9.47368421" id="Stroke-5812"></path>
  <path d="M0,12.3157895 L0,14.2105263" id="Stroke-5812-Copy"></path>
  <path d="M11.3677579,9.23636842 L13.4529158,10.7995263 C13.9294421,11.1576316 14.2108105,11.7194211 14.2108105,12.3162632 L14.2108105,13.2636316 L6.63186316,13.2636316 L6.63186316,12.3162632 C6.63186316,11.7194211 6.91228421,11.1576316 7.38975789,10.7995263 L9.47396842,9.23731579" id="Stroke-5813"></path>
  <path d="M10.4210526,9.47368421 L10.4210526,9.47368421 C9.37421053,9.47368421 8.52631579,8.62578947 8.52631579,7.57894737 L8.52631579,6.63157895 C8.52631579,5.58473684 9.37421053,4.73684211 10.4210526,4.73684211 C11.4678947,4.73684211 12.3157895,5.58473684 12.3157895,6.63157895 L12.3157895,7.57894737 C12.3157895,8.62578947 11.4678947,9.47368421 10.4210526,9.47368421 L10.4210526,9.47368421 Z" id="Stroke-5814"></path>
</g>
</svg>
