<?xml version="1.0" encoding="UTF-8"?>
<svg width="24px" height="24px" viewBox="0 0 24 24" version="1.1" xmlns="http://www.w3.org/2000/svg" xmlns:xlink="http://www.w3.org/1999/xlink">
    <!-- Generator: Sketch 42 (36781) - http://www.bohemiancoding.com/sketch -->
    <title>copy</title>
    <desc>Created with Sketch.</desc>
    <defs></defs>
    <g id="Icons" stroke="none" stroke-width="1">
        <g id="copy">
            <path d="M5.75512566,22 L18,22 L18,22.5046844 C18,23.3228912 17.331518,24 16.5069036,24 L4.49309635,24 C3.66388585,24 3,23.3313672 3,22.5065668 L3,4.49343323 C3,3.67492314 3.66947558,3 4.49531555,3 L5,3 L5,21.2551775 C5,21.6702194 5.33808127,22 5.75512566,22 Z M20.854,6.147 C20.947,6.24 21,6.367 21,6.5 L21,19.5028591 C21,20.3200833 20.331518,21 19.5069036,21 L7.49309635,21 C6.66388585,21 6,20.3313672 6,19.5065668 L6,1.49343323 C6,0.674923137 6.67160113,6.37466213e-16 7.50006311,5.70004586e-16 L14.5,0 C14.632,0 14.76,0.053 14.854,0.147 L20.854,6.147 Z M14,1 L14,5.50142398 C14,6.33497024 14.6709353,7 15.498576,7 L20,7 L14,1 Z"></path>
        </g>
    </g>
</svg>