<?xml version="1.0" encoding="utf-8"?>
<!-- Generator: Adobe Illustrator 21.0.2, SVG Export Plug-In . SVG Version: 6.00 Build 0)  -->
<svg version="1.1" id="Layer_1" xmlns="http://www.w3.org/2000/svg" xmlns:xlink="http://www.w3.org/1999/xlink" x="0px" y="0px"
	 viewBox="0 0 24 24" style="enable-background:new 0 0 24 24;" xml:space="preserve">
<g>
	<path d="M22.5,5h-21C0.7,5,0,5.7,0,6.5V9h24V6.5C24,5.7,23.3,5,22.5,5z"/>
	<path d="M0,18.5C0,19.3,0.7,20,1.5,20h21c0.8,0,1.5-0.7,1.5-1.5V10H0V18.5z M17.5,12h3c0.3,0,0.5,0.2,0.5,0.5S20.8,13,20.5,13h-3
		c-0.3,0-0.5-0.2-0.5-0.5S17.2,12,17.5,12z M3.5,12h8c0.3,0,0.5,0.2,0.5,0.5S11.8,13,11.5,13h-8C3.2,13,3,12.8,3,12.5S3.2,12,3.5,12
		z M3.5,14h3C6.8,14,7,14.2,7,14.5S6.8,15,6.5,15h-3C3.2,15,3,14.8,3,14.5S3.2,14,3.5,14z"/>
</g>
</svg>
