<?xml version="1.0" encoding="utf-8"?>
<!-- Generator: Adobe Illustrator 19.2.1, SVG Export Plug-In . SVG Version: 6.00 Build 0)  -->
<svg version="1.1" xmlns="http://www.w3.org/2000/svg" xmlns:xlink="http://www.w3.org/1999/xlink" x="0px" y="0px" width="24px"
	 height="24px" viewBox="0 0 24 24" enable-background="new 0 0 24 24" xml:space="preserve">

<g>
	<path d="M21.5,5h-19C1.121,5,0,6.122,0,7.5V9h24V7.5C24,6.122,22.878,5,21.5,5z"/>
	<path d="M0,17.5C0,18.878,1.121,20,2.5,20h19c1.378,0,2.5-1.122,2.5-2.5V10H0V17.5z M17.5,12h3c0.275,0,0.5,0.224,0.5,0.5
		c0,0.276-0.225,0.5-0.5,0.5h-3c-0.276,0-0.5-0.224-0.5-0.5C17,12.224,17.224,12,17.5,12z M3.5,12h8c0.275,0,0.5,0.224,0.5,0.5
		c0,0.276-0.225,0.5-0.5,0.5h-8C3.224,13,3,12.776,3,12.5C3,12.224,3.224,12,3.5,12z M3.5,14h3C6.775,14,7,14.224,7,14.5
		C7,14.776,6.775,15,6.5,15h-3C3.224,15,3,14.776,3,14.5C3,14.224,3.224,14,3.5,14z"/>
</g>

</svg>
