<?xml version="1.0" encoding="UTF-8"?>
<svg width="24px" height="24px" viewBox="0 0 24 24" version="1.1" xmlns="http://www.w3.org/2000/svg" xmlns:xlink="http://www.w3.org/1999/xlink">
    <!-- Generator: Sketch 43.2 (39069) - http://www.bohemiancoding.com/sketch -->
    <title>desktop</title>
    <desc>Created with Sketch.</desc>
    <defs></defs>
    <g id="Icons" stroke="none" stroke-width="1">
        <g id="desktop">
            <path d="M23.16,18.8682277 L0.84,18.8682277 C0.384,18.8682277 0,18.4834176 0,18.0264556 L0,3.45177205 C0,2.99481002 0.384,2.6099999 0.84,2.6099999 L23.16,2.6099999 C23.616,2.6099999 24,2.99481002 24,3.45177205 L24,18.0264556 C24,18.4834176 23.616,18.8682277 23.16,18.8682277 Z M18.792,21.3935442 L5.232,21.3935442 C4.776,21.3935442 4.392,21.0087341 4.392,20.551772 C4.392,20.09481 4.776,19.7099999 5.232,19.7099999 L18.792,19.7099999 C19.248,19.7099999 19.632,20.09481 19.632,20.551772 C19.632,21.0087341 19.248,21.3935442 18.792,21.3935442 Z M1.68,17.1846834 L22.32,17.1846834 L22.32,4.2935442 L1.68,4.2935442 L1.68,17.1846834 Z"></path>
        </g>
    </g>
</svg>
