<?xml version="1.0" encoding="UTF-8"?>
<svg width="24px" height="24px" viewBox="0 0 24 24" version="1.1" xmlns="http://www.w3.org/2000/svg" xmlns:xlink="http://www.w3.org/1999/xlink">
    <!-- Generator: Sketch 42 (36781) - http://www.bohemiancoding.com/sketch -->
    <title>download</title>
    <desc>Created with Sketch.</desc>
    <defs></defs>
    <g id="Icons" stroke="none" stroke-width="1">
        <g id="download">
            <path d="M12.708,18.315 C12.343,18.688 11.7,18.723 11.293,18.315 L4.293,11.316 C3.902,10.925 3.902,10.293 4.293,9.902 C4.684,9.511 5.317,9.511 5.707,9.902 L11,15.195 L11,1 C11,0.448 11.448,0 12,0 C12.553,0 13,0.448 13,1 L13,15.195 L18.293,9.902 C18.684,9.511 19.317,9.511 19.707,9.902 C20.098,10.293 20.098,10.926 19.707,11.316 L12.708,18.315 Z M22,17.7180219 C22,17.1660219 22.447,16.7180219 23,16.7180219 C23.552,16.7180219 24,17.1660219 24,17.7180219 L24,22.4953097 C24,23.3277183 23.3278417,24 22.4986925,24 L1.50130749,24 C0.666946292,24 0,23.3263272 0,22.4953097 L0,17.7180219 C0,17.1660219 0.447,16.7180219 1,16.7180219 C1.552,16.7180219 2,17.1660219 2,17.7180219 L2,21.2541363 C2,21.6640004 2.34008522,22 2.75960159,22 L21.2403984,22 C21.6695492,22 22,21.6660655 22,21.2541363 L22,17.7180219 Z"></path>
        </g>
    </g>
</svg>