<?xml version="1.0" encoding="utf-8"?>
<!-- Generator: Adobe Illustrator 16.0.0, SVG Export Plug-In . SVG Version: 6.00 Build 0)  -->
<!DOCTYPE svg PUBLIC "-//W3C//DTD SVG 1.1//EN" "http://www.w3.org/Graphics/SVG/1.1/DTD/svg11.dtd">
<svg version="1.1" id="Filled_Icons" xmlns="http://www.w3.org/2000/svg" xmlns:xlink="http://www.w3.org/1999/xlink" x="0px"
	 y="0px" width="24px" height="24px" viewBox="0 0 24 24" enable-background="new 0 0 24 24" xml:space="preserve">
<g>
  <path d="M22.7,6l-10.4,9c-0.1,0.1-0.2,0.1-0.3,0.1s-0.2,0-0.3-0.1L1.3,6C1.1,6.4,1,6.7,1,7.1v11.7C1,20,1.9,21,3,21h18
    c1.1,0,2-1,2-2.1V7.1C23,6.7,22.9,6.4,22.7,6z"/>
  <path d="M22,5.3C21.7,5.1,21.4,5,21,5H3C2.6,5,2.3,5.1,2,5.3l10,8.6L22,5.3z"/>
</g>
</svg>
