<?xml version="1.0" encoding="UTF-8"?>
<svg width="24px" height="24px" viewBox="0 0 24 24" version="1.1" xmlns="http://www.w3.org/2000/svg" xmlns:xlink="http://www.w3.org/1999/xlink">
    <!-- Generator: Sketch 42 (36781) - http://www.bohemiancoding.com/sketch -->
    <title>email</title>
    <desc>Created with Sketch.</desc>
    <defs></defs>
    <g id="Icons" stroke="none" stroke-width="1">
        <g id="email">
            <path d="M22,4.3 L12,12.9 L2,4.3 C2.3,4.1 2.6,4 3,4 L21,4 C21.4,4 21.7,4.1 22,4.3 Z M22.7,5 C22.9,5.4 23,5.7 23,6.1 L23,18.4992498 C23,19.3295741 22.3307314,20 21.5051468,20 L2.49485322,20 C1.67042869,20 1,19.3280912 1,18.4992498 L1,6.1 C1,5.7 1.1,5.4 1.3,5 L11.7,14 C11.8,14.1 11.9,14.1 12,14.1 C12.1,14.1 12.2,14.1 12.3,14 L22.7,5 Z"></path>
        </g>
    </g>
</svg>