<svg
   xmlns:cc="http://creativecommons.org/ns#"
   xmlns:rdf="http://www.w3.org/1999/02/22-rdf-syntax-ns#"
   xmlns:svg="http://www.w3.org/2000/svg"
   xmlns="http://www.w3.org/2000/svg"
   id="svg863"
   version="1.1"
   viewBox="0 0 24 24"
   height="24"
   width="24">
  <g
     transform="matrix(0.25555556,0,0,0.25555556,0.4999998,2.1611109)"
     fill-rule="evenodd"
     fill="none"
     stroke-width="2"
     stroke="none"
     id="Page-1">
    <g
       id="Artboard">
      <g
         transform="translate(1,1)"
         id="@Mention">
        <path
           class="icon-stroke"
           stroke-width="2"
           id="User-head"
           d="M 58,45 C 69.0275,45 78,36.0275 78,25 V 20 C 78,8.9725 69.0275,0 58,0 46.9725,0 38,8.9725 38,20 v 5 c 0,11.0275 8.9725,20 20,20" />
        <path
           class="icon-stroke"
           stroke-width="2"
           id="User-body"
           d="m 30.5,75 h 55 c 1.38,0 2.5,-1.12 2.5,-2.5 v -5 C 88,57.85 80.15,50 70.5,50 h -25 C 35.85,50 28,57.85 28,67.5 v 5 c 0,1.38 1.12,2.5 2.5,2.5" />
        <circle
           class="icon-fill"
           r="18.5"
           cy="51.5"
           cx="18.5"
           stroke-width="2"
           id="Bg-circle" />
        <path
           class="u-text-white icon-fill"
           id="At-symbol"
           d="m 21.896482,56.414894 c -0.668475,0 -1.212673,-0.164267 -1.632612,-0.492804 -0.419939,-0.328537 -0.68561,-0.834477 -0.797023,-1.517835 -0.497071,0.709641 -1.036984,1.217771 -1.619756,1.524406 -0.582773,0.306635 -1.208387,0.45995 -1.876861,0.45995 -0.514211,0 -0.959854,-0.0898 -1.336942,-0.2694 -0.377088,-0.1796 -0.692037,-0.429285 -0.944858,-0.749061 -0.25282,-0.319776 -0.441361,-0.698684 -0.565629,-1.136733 -0.124268,-0.43805 -0.1864,-0.911137 -0.1864,-1.419274 0,-0.744685 0.139263,-1.495929 0.417794,-2.253755 0.278531,-0.757826 0.692036,-1.441173 1.240528,-2.050063 0.548491,-0.608889 1.231953,-1.106068 2.050406,-1.491551 0.818452,-0.385484 1.7633,-0.578223 2.834573,-0.578223 0.574203,0 1.077693,0.04599 1.510487,0.137985 0.432795,0.09199 0.842015,0.225593 1.227673,0.400813 l -1.195535,4.744055 c -0.162833,0.657075 -0.244249,1.200248 -0.244249,1.629537 0,0.315396 0.03857,0.576032 0.115697,0.781915 0.07713,0.205883 0.182115,0.367959 0.314953,0.486233 0.132838,0.118273 0.287099,0.199311 0.462788,0.243116 0.175688,0.0438 0.362087,0.06571 0.559201,0.06571 0.419939,0 0.818447,-0.122652 1.195535,-0.36796 0.377088,-0.245307 0.709177,-0.591362 0.996278,-1.038172 0.287102,-0.446811 0.514208,-0.983414 0.681327,-1.609825 0.167118,-0.626411 0.250676,-1.32071 0.250676,-2.082916 0,-1.209017 -0.190684,-2.269082 -0.572057,-3.180226 -0.381373,-0.911143 -0.904146,-1.671148 -1.568335,-2.280037 -0.664189,-0.608889 -1.448349,-1.064454 -2.352504,-1.366708 -0.904154,-0.302255 -1.878998,-0.45338 -2.92456,-0.45338 -1.148404,0 -2.223951,0.223402 -3.226657,0.670213 -1.002712,0.446811 -1.876857,1.064452 -2.622463,1.852941 -0.745606,0.78849 -1.332655,1.721522 -1.761164,2.799124 -0.4285092,1.077603 -0.6427605,2.251558 -0.6427605,3.521903 0,1.489369 0.2292489,2.796928 0.6877535,3.922716 0.458505,1.125787 1.084119,2.06977 1.876861,2.831977 0.792742,0.762206 1.722593,1.336043 2.78958,1.721527 1.066988,0.385484 2.213233,0.578223 3.438769,0.578223 1.302668,0 2.453198,-0.144555 3.451624,-0.433667 0.998426,-0.289113 1.861859,-0.65707 2.590324,-1.10388 0.128553,-0.07885 0.244249,-0.118273 0.347091,-0.118273 0.179974,0 0.31281,0.10513 0.398512,0.315394 l 0.32138,0.867334 c -0.91701,0.630792 -1.960414,1.125781 -3.130244,1.484982 C 21.285853,61.820402 19.959637,62 18.476996,62 16.994354,62 15.614576,61.759076 14.337618,61.277222 13.060661,60.795367 11.952982,60.101068 11.014547,59.194305 10.076112,58.287542 9.339087,57.177103 8.8034506,55.862954 8.2678142,54.548804 8,53.059458 8,51.394869 c 0,-0.954949 0.1178382,-1.87484 0.3535183,-2.7597 0.23568,-0.88486 0.5677696,-1.710572 0.9962787,-2.477159 0.4285092,-0.766587 0.942712,-1.467456 1.542625,-2.102628 0.599913,-0.635172 1.268377,-1.178346 2.005413,-1.629537 0.737036,-0.451191 1.529766,-0.801626 2.378214,-1.051314 C 16.124497,41.124842 17.011497,41 17.937077,41 c 0.788457,0 1.559762,0.08761 2.313938,0.262828 0.754176,0.17522 1.467633,0.433666 2.140392,0.775345 0.67276,0.341678 1.291946,0.76439 1.857578,1.268147 0.565632,0.503758 1.051983,1.081975 1.459066,1.734669 0.407084,0.652694 0.724176,1.379845 0.951286,2.181477 C 26.886447,48.024097 27,48.893612 27,49.831039 c 0,0.946187 -0.130693,1.820083 -0.392084,2.621714 -0.261391,0.801631 -0.621333,1.49593 -1.079838,2.082917 -0.458504,0.586986 -0.998418,1.046932 -1.619756,1.379849 -0.621338,0.332918 -1.291945,0.499375 -2.01184,0.499375 z m -5.47632,-1.576972 c 0.265676,0 0.53349,-0.0438 0.803451,-0.131414 0.269961,-0.08761 0.531347,-0.240925 0.784168,-0.45995 0.25282,-0.219025 0.484212,-0.516894 0.694181,-0.893617 0.20997,-0.376723 0.387798,-0.849809 0.533491,-1.419274 l 0.976996,-3.876721 c -0.334235,-0.07885 -0.698464,-0.118273 -1.092693,-0.118273 -0.642763,0 -1.231955,0.137984 -1.767591,0.413955 -0.535636,0.275972 -0.996277,0.637357 -1.381935,1.084168 -0.385658,0.446811 -0.687753,0.959321 -0.906292,1.537547 -0.21854,0.578226 -0.327808,1.169584 -0.327808,1.774092 0,0.630792 0.141406,1.136732 0.424222,1.517835 0.282816,0.381104 0.702749,0.571652 1.25981,0.571652 z" />
      </g>
    </g>
  </g>
</svg>
