<?xml version="1.0" encoding="UTF-8"?>
<svg xmlns="http://www.w3.org/2000/svg" xmlns:xlink="http://www.w3.org/1999/xlink" width="24" height="24" viewBox="0 0 24 24" version="1.1">
<g id="Auditlog-Empty-State" class="icon-stroke" fill-rule="evenodd" fill="none" stroke-width="2">
<path style="fill-rule:evenodd;fill:rgb(82.352941%,92.156863%,97.254902%);fill-opacity:1;stroke-width:2;stroke-linecap:round;stroke-linejoin:round;stroke:rgb(0%,45.882353%,78.823529%);stroke-opacity:1;stroke-miterlimit:4;" d="M 29.996094 9.994629 L 29.996094 -0.000488281 L 20 -0.000488281 L 20 9.994629 " transform="matrix(0.333333,0,0,0.347826,0.333333,0.347826)"/>
<path style="fill-rule:evenodd;fill:rgb(82.352941%,92.156863%,97.254902%);fill-opacity:1;stroke-width:2;stroke-linecap:round;stroke-linejoin:round;stroke:rgb(0%,45.882353%,78.823529%);stroke-opacity:1;stroke-miterlimit:4;" d="M 40.003906 9.994629 L 40.003906 -0.000488281 L 50 -0.000488281 L 50 9.994629 " transform="matrix(0.333333,0,0,0.347826,0.333333,0.347826)"/>
<path style="fill-rule:evenodd;fill:rgb(93.72549%,96.862745%,98.431373%);fill-opacity:1;stroke-width:2;stroke-linecap:round;stroke-linejoin:round;stroke:rgb(0%,45.882353%,78.823529%);stroke-opacity:1;stroke-miterlimit:4;" d="M 29.996094 56.668457 L 29.996094 9.994629 L 13.332031 9.994629 L 3.335938 43.337891 L 3.335938 56.668457 " transform="matrix(0.333333,0,0,0.347826,0.333333,0.347826)"/>
<path style="fill-rule:evenodd;fill:rgb(82.352941%,92.156863%,97.254902%);fill-opacity:1;stroke-width:2;stroke-linecap:round;stroke-linejoin:round;stroke:rgb(0%,45.882353%,78.823529%);stroke-opacity:1;stroke-miterlimit:4;" d="M 29.996094 66.663574 L -0.00390625 66.663574 L -0.00390625 56.668457 L 29.996094 56.668457 Z M 29.996094 66.663574 " transform="matrix(0.333333,0,0,0.347826,0.333333,0.347826)"/>
<path style="fill-rule:evenodd;fill:rgb(93.72549%,96.862745%,98.431373%);fill-opacity:1;stroke-width:2;stroke-linecap:round;stroke-linejoin:round;stroke:rgb(0%,45.882353%,78.823529%);stroke-opacity:1;stroke-miterlimit:4;" d="M 40.003906 56.668457 L 40.003906 9.994629 L 56.667969 9.994629 L 66.664062 43.337891 L 66.664062 56.668457 " transform="matrix(0.333333,0,0,0.347826,0.333333,0.347826)"/>
<path style="fill-rule:evenodd;fill:rgb(82.352941%,92.156863%,97.254902%);fill-opacity:1;stroke-width:2;stroke-linecap:round;stroke-linejoin:round;stroke:rgb(0%,45.882353%,78.823529%);stroke-opacity:1;stroke-miterlimit:4;" d="M 40.003906 66.663574 L 70.003906 66.663574 L 70.003906 56.668457 L 40.003906 56.668457 Z M 40.003906 66.663574 " transform="matrix(0.333333,0,0,0.347826,0.333333,0.347826)"/>
<path style="fill:none;stroke-width:2;stroke-linecap:round;stroke-linejoin:round;stroke:rgb(0%,45.882353%,78.823529%);stroke-opacity:1;stroke-miterlimit:4;" d="M 20 23.336426 L 50 23.336426 " transform="matrix(0.333333,0,0,0.347826,0.333333,0.347826)"/>
</g>
</svg>
