<?xml version="1.0" encoding="utf-8"?>
<!-- Generator: Adobe Illustrator 21.1.0, SVG Export Plug-In . SVG Version: 6.00 Build 0)  -->
<svg version="1.1" id="Layer_1" xmlns="http://www.w3.org/2000/svg" xmlns:xlink="http://www.w3.org/1999/xlink" x="0px" y="0px"
   viewBox="0 0 24 24" style="enable-background:new 0 0 24 24;" xml:space="preserve">
<path d="M15.1,5.5V3.6c0-0.8-0.6-1.4-1.4-1.4H2.2c-0.8,0-1.4,0.6-1.4,1.4v1.9h1V3.6
  c0-0.3,0.2-0.5,0.5-0.5h11.5c0.3,0,0.5,0.2,0.5,0.5v1.9H15.1L15.1,5.5z"/>
<path d="M1,7L1,7v13c0,0.5,0.4,1,1,1h20.2c0.5,0,1-0.4,1-1V7c0-0.5-0.4-1-1-1H1.9C1.4,6,1,6.4,1,7L1,7z
   M0,7C0,5.9,0.9,5,1.9,5h20.2C23.1,5,24,5.9,24,7v13c0,1.1-0.9,1.9-1.9,1.9H1.9C0.9,21.8,0,21,0,19.9V7L0,7z"/>
<path d="M14.9,17c-0.1-1.3-1.4-2.4-2.9-2.4s-2.8,1-2.9,2.4c0,0.3,0.2,0.5,0.5,0.5c0.3,0,0.5-0.2,0.5-0.5
  c0-0.8,0.9-1.5,1.9-1.5s1.9,0.7,1.9,1.5c0,0.3,0.2,0.5,0.5,0.5C14.7,17.5,14.9,17.3,14.9,17L14.9,17z"/>
<path d="M10.1,11.4c0,0.7-0.5,1.2-1.2,1.2c-0.7,0-1.2-0.5-1.2-1.2c0-0.7,0.5-1.2,1.2-1.2
  C9.5,10.2,10.1,10.8,10.1,11.4"/>
<path d="M16.6,11.4c0,0.7-0.5,1.2-1.2,1.2c-0.7,0-1.2-0.5-1.2-1.2c0-0.7,0.5-1.2,1.2-1.2
  C16,10.2,16.6,10.8,16.6,11.4"/>
</svg>
