<?xml version="1.0" encoding="UTF-8" standalone="no"?>
<svg width="24px" height="24px" viewBox="0 0 24 24" version="1.1" xmlns="http://www.w3.org/2000/svg" xmlns:xlink="http://www.w3.org/1999/xlink">
    <!-- Generator: Sketch 39.1 (31720) - http://www.bohemiancoding.com/sketch -->
    <title>copy</title>
    <desc>Created with Sketch.</desc>
    <defs></defs>
    <g id="Icons" stroke="none" stroke-width="1" >
        <g id="copy">
            <path d="M5.5,22 C5.224,22 5,21.776 5,21.5 L5,3 L3.5,3 C3.224,3 3,3.224 3,3.5 L3,23.5 C3,23.776 3.224,24 3.5,24 L17.5,24 C17.776,24 18,23.776 18,23.5 L18,22 L5.5,22 Z M21,6.5 C21,6.367 20.947,6.24 20.854,6.147 L14.854,0.147 C14.76,0.053 14.632,0 14.5,0 L6.5,0 C6.224,0 6,0.224 6,0.5 L6,20.5 C6,20.776 6.224,21 6.5,21 L20.5,21 C20.776,21 21,20.776 21,20.5 L21,6.5 Z M14,7 L14,1 L20,7 L14,7 Z"></path>
        </g>
    </g>
</svg>
