<?xml version="1.0" encoding="UTF-8" standalone="no"?>
<svg width="24px" height="24px" viewBox="0 0 24 24" version="1.1" xmlns="http://www.w3.org/2000/svg" xmlns:xlink="http://www.w3.org/1999/xlink">
    <!-- Generator: Sketch 39.1 (31720) - http://www.bohemiancoding.com/sketch -->
    <title>forward</title>
    <desc>Created with Sketch.</desc>
    <defs></defs>
    <g id="Icons" stroke="none" stroke-width="1"  >
        <g id="forward" >
            <path d="M11.1580192,8.30439951 C10.8502569,8.30439951 10.5839662,8.312039 10.3678778,8.32404391 L10.3678778,4.54577098 C10.3678778,4.33513936 10.2467373,4.14306078 10.0546587,4.05247827 C9.86476286,3.96189576 9.63885226,3.990271 9.47514892,4.12450774 L0.198626711,11.7639966 C0.0731208222,11.8676754 0,12.0226479 0,12.1852599 C0,12.3478718 0.0731208222,12.5028443 0.198626711,12.6076145 L9.47514892,20.2471033 C9.6377609,20.3813401 9.86476286,20.4097153 10.0546587,20.3180415 C10.2467373,20.2285503 10.3678778,20.0353804 10.3678778,19.8247487 L10.3678778,15.8871379 C10.9201037,15.7649061 12.0147333,15.5684621 13.3669228,15.5684621 C16.3899777,15.5684621 20.5229412,16.5386772 22.9926788,21.1703901 C23.1072712,21.3842958 23.3495521,21.507619 23.5961984,21.4454117 C23.8439362,21.3832045 23.9978173,21.1616593 24,20.918287 C24,9.2156814 14.1723432,8.30439951 11.1580192,8.30439951 L11.1580192,8.30439951 Z" transform="translate(12.000000, 12.730767) scale(-1, 1) translate(-12.000000, -12.730767) "></path>
        </g>
    </g>
</svg>