<?xml version="1.0" encoding="UTF-8"?>
<svg width="24px" height="24px" viewBox="0 0 24 24" version="1.1" xmlns="http://www.w3.org/2000/svg" xmlns:xlink="http://www.w3.org/1999/xlink">
    <!-- Generator: Sketch 42 (36781) - http://www.bohemiancoding.com/sketch -->
    <title>forward</title>
    <desc>Created with Sketch.</desc>
    <defs></defs>
    <g id="Icons" stroke="none" stroke-width="1">
        <g id="forward">
            <path d="M10.3678778,8.32404391 L10.3692577,5.54646464 C10.3696676,4.72135875 9.84149334,4.46696509 9.19052523,4.97749369 L1.17947466,11.2602444 C0.528068792,11.7711164 0.528506541,12.5997467 1.17947466,13.1102753 L9.19052523,19.393026 C9.84193109,19.9038979 10.3696776,19.6450826 10.3692814,18.8179396 L10.3678778,15.8871379 C10.9201037,15.7649061 12.0147333,15.5684621 13.3669228,15.5684621 C16.3899777,15.5684621 20.5229412,16.5386772 22.9926788,21.1703901 C23.1072712,21.3842958 23.3495521,21.507619 23.5961984,21.4454117 C23.8439362,21.3832045 23.9978173,21.1616593 24,20.918287 C24,9.2156814 14.1723432,8.30439951 11.1580192,8.30439951 C10.8502569,8.30439951 10.5839662,8.312039 10.3678778,8.32404391 Z" transform="translate(12.000000, 12.757006) scale(-1, 1) translate(-12.000000, -12.757006) "></path>
        </g>
    </g>
</svg>