<?xml version="1.0" encoding="utf-8"?>
<!-- Generator: Adobe Illustrator 19.2.1, SVG Export Plug-In . SVG Version: 6.00 Build 0)  -->
<svg version="1.1" xmlns="http://www.w3.org/2000/svg" xmlns:xlink="http://www.w3.org/1999/xlink" x="0px" y="0px" width="24px"
	 height="24px" viewBox="0 0 24 24" enable-background="new 0 0 24 24" xml:space="preserve">
<g id="Filled_Icons_1_">
	<g id="Filled_Icons">
		<path d="M19,7.5C19,3.365,15.635,0,11.5,0S4,3.365,4,7.5c0,3.621,2.583,6.637,6,7.335V18H8c-0.829,0-1.5,0.672-1.5,1.5
			C6.5,20.329,7.171,21,8,21h2v1.5c0,0.829,0.671,1.5,1.5,1.5s1.5-0.671,1.5-1.5V21h2c0.829,0,1.5-0.671,1.5-1.5
			c0-0.828-0.671-1.5-1.5-1.5h-2v-3.165C16.417,14.137,19,11.121,19,7.5z M6,7.5C6,4.468,8.467,2,11.5,2S17,4.468,17,7.5
			c0,3.033-2.467,5.5-5.5,5.5S6,10.533,6,7.5z"/>
	</g>
	<g id="New_icons">
	</g>
</g>
<g id="Invisible_Shape">
	<rect fill="none" width="24" height="24"/>
</g>
</svg>
