<?xml version="1.0" encoding="utf-8"?>
<!-- Generator: Adobe Illustrator 19.2.1, SVG Export Plug-In . SVG Version: 6.00 Build 0)  -->
<svg version="1.1" xmlns="http://www.w3.org/2000/svg" xmlns:xlink="http://www.w3.org/1999/xlink" x="0px" y="0px" width="24px"
	 height="24px" viewBox="0 0 24 24" enable-background="new 0 0 24 24" xml:space="preserve">
<g id="Filled_Icons_1_">
	<g id="Filled_Icons">
		<path d="M23,0h-6.5c-0.552,0-1,0.448-1,1c0,0.552,0.448,1,1,1h4.086l-6.403,6.403C12.689,7.216,10.803,6.5,8.75,6.5
			C3.925,6.5,0,10.426,0,15.25C0,20.075,3.925,24,8.75,24s8.75-3.925,8.75-8.75c0-2.053-0.715-3.939-1.903-5.433L22,3.414V7.5
			c0,0.552,0.448,1,1,1s1-0.448,1-1V1C24,0.448,23.552,0,23,0z M8.75,22C5.028,22,2,18.973,2,15.25C2,11.528,5.028,8.5,8.75,8.5
			s6.75,3.028,6.75,6.75C15.5,18.973,12.472,22,8.75,22z"/>
	</g>
	<g id="New_icons">
	</g>
</g>
<g id="Invisible_Shape">
	<rect fill="none" width="24" height="24"/>
</g>
</svg>
