<?xml version="1.0" encoding="UTF-8"?>
<svg width="24px" height="24px" viewBox="0 0 24 24" version="1.1" xmlns="http://www.w3.org/2000/svg" xmlns:xlink="http://www.w3.org/1999/xlink">
    <!-- Generator: Sketch 42 (36781) - http://www.bohemiancoding.com/sketch -->
    <title>sex-female</title>
    <desc>Created with Sketch.</desc>
    <defs></defs>
    <g id="Icons" stroke="none" stroke-width="1">
        <g id="sex-female">
            <path d="M13.9122081,13.9734182 L13.9122081,16.8994303 L17.4628745,16.8994303 L17.4628745,20.4500967 L13.9122081,20.4500967 L13.9122081,24.0007631 L10.3073399,24.0007631 L10.3073399,20.4500967 L6.75756208,20.4500967 L6.75756208,16.8994303 L10.3073399,16.8994303 L10.3073399,13.9627556 C7.25515296,13.1674987 5,10.400538 5,7.10044418 C5,3.17925032 8.17925032,0 12.1004442,0 C16.0225266,0 19.1999998,3.17925032 19.1999998,7.10044418 C19.1999998,10.4138663 16.9821662,13.1888241 13.9122081,13.9734182 L13.9122081,13.9734182 Z M12.1004442,3.55066637 C10.139403,3.55066637 8.54977781,5.13940297 8.54977781,7.10044418 C8.54977781,9.06059684 10.139403,10.650222 12.1004442,10.650222 C14.0614854,10.650222 15.6511106,9.06059684 15.6511106,7.10044418 C15.6511106,5.13940297 14.0614854,3.55066637 12.1004442,3.55066637 L12.1004442,3.55066637 Z"></path>
        </g>
    </g>
</svg>