<?xml version="1.0" encoding="UTF-8"?>
<svg width="24px" height="24px" viewBox="0 0 24 24" version="1.1" xmlns="http://www.w3.org/2000/svg" xmlns:xlink="http://www.w3.org/1999/xlink">
    <!-- Generator: Sketch 42 (36781) - http://www.bohemiancoding.com/sketch -->
    <title>sex-male</title>
    <desc>Created with Sketch.</desc>
    <defs></defs>
    <g id="Icons" stroke="none" stroke-width="1">
        <g id="sex-male">
            <path d="M13.5986701,2.024819e-15 L24,2.024819e-15 L23.9772026,10.5198765 L20.4105438,6.95435763 L17.049062,10.3158395 C17.8036571,11.6426502 18.2379482,13.173498 18.2379482,14.8080741 C18.2379482,19.8440275 14.1572073,23.9270482 9.11897412,23.9270482 C4.08302066,23.9270482 0,19.8440275 0,14.8080741 C0,9.77212064 4.08302066,5.68909998 9.11897412,5.68909998 C10.8572786,5.68909998 12.4770363,6.18494419 13.8608407,7.02958917 L17.1869865,3.66012824 L13.5986701,0 L13.5986701,2.024819e-15 Z M4.56062693,14.809214 C4.56062693,17.3271907 6.60213726,19.368701 9.12011399,19.368701 C11.6380907,19.368701 13.679601,17.3271907 13.679601,14.809214 C13.679601,12.2912372 11.6380907,10.2497269 9.12011399,10.2497269 C6.60213726,10.2497269 4.56062693,12.2912372 4.56062693,14.809214 L4.56062693,14.809214 Z"></path>
        </g>
    </g>
</svg>