<?xml version="1.0" encoding="utf-8"?>
<!-- Generator: Adobe Illustrator 20.1.0, SVG Export Plug-In . SVG Version: 6.00 Build 0)  -->
<svg version="1.1" xmlns="http://www.w3.org/2000/svg" xmlns:xlink="http://www.w3.org/1999/xlink" x="0px" y="0px"
   viewBox="0 0 24 24" style="enable-background:new 0 0 24 24;" xml:space="preserve">
<path d="M23,11.9c0-0.3,0-0.6,0-1c-0.1-1-0.4-2.1-0.7-3c0-0.1-0.1-0.1-0.1-0.2c-0.5-1.2-1.2-2.3-2.1-3.2C20,4.5,20,4.4,19.9,4.4
  c-0.2-0.2-0.3-0.3-0.5-0.5C17.4,2.1,14.8,1,12,1C9.1,1,6.5,2.1,4.6,3.9C4.1,4.3,3.7,4.8,3.3,5.3C1.9,7.1,1,9.5,1,12
  c0,6.1,4.9,11,11,11c4.3,0,8-2.4,9.8-6c0.4-0.8,0.7-1.6,0.9-2.4c0.1-0.2,0.1-0.4,0.1-0.7c0.1-0.6,0.2-1.3,0.2-1.9
  C23,12,23,11.9,23,11.9z M20.9,7.5L20.9,7.5c0.1,0.1,0.2,0.3,0.3,0.4l-0.1,0l-0.2,0V7.5z M19.3,5.6l0-0.5c0.2,0.2,0.3,0.4,0.5,0.6
  l-0.2,0.3l-0.7,0l0-0.1L19.3,5.6z M6.1,4.3L6.1,4.3l0.2,0l0-0.1h0.4v0.2L6.6,4.6H6.1L6.1,4.3L6.1,4.3z M6.4,4.8c0,0,0.2,0,0.2,0
  s0,0.2,0,0.2l-0.5,0L6.1,4.9L6.4,4.8z M21.6,9.2h-0.8l-0.5-0.4l-0.5,0.1v0.3h-0.2l-0.2-0.1l-0.9-0.2V8.3l-1.1,0.1l-0.4,0.2h-0.4
  l-0.2,0l-0.5,0.3v0.6l-1.1,0.8l0.1,0.3h0.2L15,10.9l-0.2,0.1l0,0.9l1,1.1h0.4l0-0.1H17l0.2-0.2h0.4l0.2,0.2l0.6,0.1l-0.1,0.8
  l0.7,1.3l-0.4,0.7l0,0.3l0.3,0.3v0.8l0.4,0.5v0.7h0.3c-1.9,2.3-4.7,3.7-7.8,3.7C6.4,22.1,1.9,17.6,1.9,12c0-1.4,0.3-2.7,0.8-4V7.7
  l0.4-0.4c0.1-0.2,0.3-0.5,0.4-0.7l0,0.2L3.1,7.3C2.9,7.5,2.8,7.8,2.7,8v0.6l0.4,0.2v0.8l0.4,0.7l0.3,0.1l0-0.2L3.5,9.5L3.4,9h0.2
  l0.1,0.6l0.6,0.8l-0.1,0.3l0.4,0.5l0.9,0.2v-0.1l0.4,0.1l0,0.3L6,11.6l0.4,0.1L7,12.4l0.8,0.1l0.1,0.6l-0.5,0.4l0,0.6l-0.1,0.3
  l0.8,1l0.1,0.3c0,0,0.3,0.1,0.3,0.1c0,0,0.6,0.4,0.6,0.4v1.7L9.2,18l-0.1,0.8l0.4,0.5L9.4,20l0.5,0.8l0.6,0.5l0.6,0l0.1-0.2
  l-0.4-0.4l0-0.2l0.1-0.2l0-0.2l-0.3,0L10.3,20l0.2-0.2l0-0.2l-0.3-0.1l0-0.2l0.4-0.1l0.6-0.3l0.2-0.4l0.6-0.8L12,17.1l0.2-0.3l0.6,0
  l0.4-0.3l0.1-1.2l0.4-0.5l0.1-0.4l-0.4-0.1l-0.3-0.4l-0.9,0l-0.7-0.3l0-0.5l-0.2-0.4l-0.6,0l-0.4-0.6L10,11.9l0,0.2l-0.6,0l-0.2-0.3
  l-0.6-0.1L8,12.3l-0.8-0.1l-0.1-0.9l-0.6-0.1l0.2-0.4l-0.1-0.3l-0.8,0.5l-0.5-0.1l-0.2-0.4l0.1-0.4l0.3-0.5l0.6-0.3l1.2,0l0,0.4
  l0.4,0.2l0-0.6l0.3-0.3l0.6-0.4l0-0.3l0.6-0.6l0.7-0.4l-0.1,0l0.4-0.4l0.2,0l0.1,0.1l0.2-0.2l0,0l-0.2,0l-0.2-0.1V6.4l0.1-0.1h0.2
  l0.1,0l0.1,0.2l0.1,0v0l0,0l0.3,0l0-0.2l0.2,0v0.2l-0.2,0.1h0l0,0.2L12.2,7c0,0,0,0,0,0l0.1,0l0-0.2l-0.4-0.2l0-0.1l0.4-0.1l0-0.4
  l-0.4-0.2l0-0.6l-0.5,0.3h-0.2L11.2,5l-0.7-0.2L10.1,5v0.7L9.6,5.9L9.4,6.3l-0.2,0V5.8L8.6,5.7L8.4,5.5L8.3,5.2l0.9-0.5l0.4-0.1
  l0,0.3l0.2,0l0-0.1l0.3,0l0-0.1l-0.1,0l0-0.2l0.3,0l0.2-0.2l0,0l0,0l0.1-0.1L11.3,4l0.3,0.2l-0.8,0.4l1,0.2l0.1-0.3h0.4l0.2-0.3
  l-0.3-0.1V3.8l-0.9-0.4l-0.7,0.1l-0.4,0.2l0,0.5L9.9,4.1L9.8,3.8l0.4-0.3l-0.7,0L9.3,3.5L9.2,3.7l0.3,0L9.4,4L9,4L9,4.2l-0.6,0
  c0,0,0-0.4,0-0.4c0,0,0.5,0,0.5,0l0.4-0.4L8.9,3.4L8.7,3.7l-0.4,0L8,3.3H7.4L6.8,3.7h0.5l0,0.2L7.2,4l0.6,0l0.1,0.2l-0.7,0l0-0.2
  L6.8,4L6.6,3.8l-0.5,0C7.7,2.6,9.8,1.9,12,1.9c2.6,0,4.9,1,6.7,2.5l-0.1,0.2l-0.5,0.2L17.9,5l0,0.2l0.2,0l0.1,0.4l0.4-0.2L18.8,6
  h-0.1l-0.3-0.1L18,6l-0.4,0.5l-0.5,0.1L17,7.1l0.2,0.1l-0.1,0.3l-0.5-0.1l-0.5,0.1l-0.1,0.3l0.1,0.6l0.3,0.1l0.5,0l0.3,0l0.1-0.3
  l0.5-0.6l0.3,0.1l0.3-0.3l0.1,0.2L19.3,8l-0.1,0.1l-0.4,0L19,8.3l0.2,0l0.3-0.1l0-0.3l0.1-0.1l-0.1-0.1l-0.5-0.3l-0.1-0.4h0.4
  l0.1,0.1l0.4,0.3l0,0.4l0.4,0.4l0.1-0.6l0.3-0.1l0.1,0.5l0.3,0.3l0.5,0C21.5,8.6,21.6,8.9,21.6,9.2L21.6,9.2z M7,6l0.3-0.1l0.2,0.1
  L7.4,6.2L7.2,6.3L7,6z M8.4,6.8V7H7.8L7.6,6.9l0.1-0.1l0.3-0.1h0.4L8.4,6.8L8.4,6.8z M8.7,7v0.2L8.5,7.3l-0.2,0c0,0,0-0.3,0-0.3H8.7
  z M8.5,7V6.7l0.2,0.2L8.5,7z M8.6,7.4v0.2L8.5,7.8H8.1l0.1-0.2l0.2,0l0-0.1L8.6,7.4z M7.8,7h0.3L7.7,7.6L7.5,7.5l0-0.3L7.8,7z
   M9.2,7.4v0.2H8.8L8.8,7.4V7.3h0L9.2,7.4z M8.9,7.1L8.9,7.1h0.2L9,7.2L8.9,7.1z M21.8,9.7L21.8,9.7c0,0,0.1,0.1,0.1,0.1L21.8,9.7z"
  />
</svg>
