<svg width="24px" height="24px" viewBox="0 0 24 24" version="1.1" xmlns="http://www.w3.org/2000/svg" xmlns:xlink="http://www.w3.org/1999/xlink">
    <!-- Generator: Sketch 56.3 (81716) - https://sketch.com -->
    <g class="icon-stroke" stroke="none" stroke-width="1" fill="none" fill-rule="evenodd">
        <path d="M11.5,1 L11.5,23 C11.5,23.2761424 11.7238576,23.5 12,23.5 C12.2761424,23.5 12.5,23.2761424 12.5,23 L12.5,1 C12.5,0.723857625 12.2761424,0.5 12,0.5 C11.7238576,0.5 11.5,0.723857625 11.5,1 Z" id="Stroke-19" fill="#000000" fill-rule="nonzero"></path>
        <path d="M1,12.5 L23,12.5 C23.2761424,12.5 23.5,12.2761424 23.5,12 C23.5,11.7238576 23.2761424,11.5 23,11.5 L1,11.5 C0.723857625,11.5 0.5,11.7238576 0.5,12 C0.5,12.2761424 0.723857625,12.5 1,12.5 Z" id="Stroke-20" fill="#000000" fill-rule="nonzero"></path>
        <path d="M2.43,7 L21.57,7 C21.8461424,7 22.07,6.77614237 22.07,6.5 C22.07,6.22385763 21.8461424,6 21.57,6 L2.43,6 C2.15385763,6 1.93,6.22385763 1.93,6.5 C1.93,6.77614237 2.15385763,7 2.43,7 Z" id="Stroke-21" fill="#000000" fill-rule="nonzero"></path>
        <path d="M2.43,18 L21.57,18 C21.8461424,18 22.07,17.7761424 22.07,17.5 C22.07,17.2238576 21.8461424,17 21.57,17 L2.43,17 C2.15385763,17 1.93,17.2238576 1.93,17.5 C1.93,17.7761424 2.15385763,18 2.43,18 Z" id="Stroke-22" fill="#000000" fill-rule="nonzero"></path>
        <path d="M23.5,12 C23.5,18.3514424 18.3514424,23.5 12,23.5 C5.64855763,23.5 0.5,18.3514424 0.5,12 C0.5,5.64855763 5.64855763,0.5 12,0.5 C18.3514424,0.5 23.5,5.64855763 23.5,12 Z M22.5,12 C22.5,6.20084237 17.7991576,1.5 12,1.5 C6.20084237,1.5 1.5,6.20084237 1.5,12 C1.5,17.7991576 6.20084237,22.5 12,22.5 C17.7991576,22.5 22.5,17.7991576 22.5,12 Z" id="Stroke-23" fill="#000000" fill-rule="nonzero"></path>
        <path d="M12,0.5 C15.4076361,0.5 18,5.68436969 18,12 C18,18.3156303 15.4076361,23.5 12,23.5 C8.5923639,23.5 6,18.3156303 6,12 C6,5.68436969 8.5923639,0.5 12,0.5 Z M12,1.5 C9.33305619,1.5 7,6.16579008 7,12 C7,17.8342099 9.33305619,22.5 12,22.5 C14.6669438,22.5 17,17.8342099 17,12 C17,6.16579008 14.6669438,1.5 12,1.5 Z" id="Stroke-24" fill="#000000" fill-rule="nonzero"></path>
    </g>
</svg>