<svg xmlns="http://www.w3.org/2000/svg" width="24" height="24" viewBox="0 0 24 24">  
    <g transform="translate(0.5,0.5)" class="icon-stroke" stroke="#000000" fill="none" fill-rule="evenodd" stroke-width="1" stroke-linecap="round" stroke-linejoin="round">    
        <path d="M11.5,0 L11.5,23"></path>    
        <path d="M0,11.5 L23,11.5"></path>    
        <path d="M1.495,5.75 L21.505,5.75"></path>    
        <path d="M1.495,17.25 L21.505,17.25"></path>    
        <path d="M23,11.5 C23,17.85145 17.85145,23 11.5,23 C5.14855,23 0,17.85145 0,11.5 C0,5.14855 5.14855,0 11.5,0 C17.85145,0 23,5.14855 23,11.5 Z"></path>    
        <path d="M11.5,0 C14.67515,0 17.25,5.14855 17.25,11.5 C17.25,17.85145 14.67515,23 11.5,23 C8.32485,23 5.75,17.85145 5.75,11.5 C5.75,5.14855 8.32485,0 11.5,0 L11.5,0 Z"></path>  
    </g>
</svg>