<svg xmlns="http://www.w3.org/2000/svg" width="24" height="24" viewBox="0 0 24 24">
  <g transform="translate(1, 2)">
    <path class="icon-stroke" fill="none" stroke="#000000" stroke-width="2" stroke-linecap="round" stroke-linejoin="round" d="M20.2,2.9l0,8.2c0,0,0,0,0,0c0,0.4-0.1,0.9-0.4,1.7c-0.5,1.1-1.4,2.4-2.7,3.8
      c-2.4,2.5-5.2,4.3-6,4.4l-0.2,0c-0.8-0.2-3.6-1.9-6-4.4c-1.4-1.4-2.2-2.6-2.7-3.8c-0.3-0.7-0.4-1.3-0.4-1.7c0,0,0,0,0,0V2.6L11-1
      l9.2,3.6V2.9z"/>
    <polygon class="icon-fill" fill="#000000" points="14.9,13.7 12.8,13.7 12.8,10.1 9.2,10.1 9.2,13.7 7.1,13.7 7.1,5.2 9.2,5.2 9.2,8.8 12.8,8.8
      12.8,5.2 14.9,5.2 "/>
  </g>
</svg>
