<?xml version="1.0" encoding="UTF-8"?>
<svg width="24px" height="24px" viewBox="0 0 24 24" version="1.1" xmlns="http://www.w3.org/2000/svg" xmlns:xlink="http://www.w3.org/1999/xlink">
  <path d="M22.9970173,3.84887244 L22.9970173,13.2925767 C22.9970173,13.2925767 23.2437749,15.3867894 19.2484762,19.1013468 C15.2917102,22.7797895 12.0623726,23.9894939 11.9986455,24 C11.9371413,23.9894939 8.70805078,22.7797895 4.7515318,19.1013468 C0.755986113,15.3867894 1.00299067,13.2925767 1.00299067,13.2925767 L1.00299067,3.84887244 L11.9991201,0 L22.9970173,3.84887244 Z M16.5234977,17 L16.5234977,7 L14.1035376,7 L14.1035376,11.1798216 L9.88995993,11.1798216 L9.88995993,7 L7.46999979,7 L7.46999979,17 L9.88995993,17 L9.88995993,12.7721345 L14.1035376,12.7721345 L14.1035376,17 L16.5234977,17 Z" id="HIPAA"></path>
</svg>
