<?xml version="1.0" encoding="utf-8"?>
<!-- Generator: Adobe Illustrator 16.0.0, SVG Export Plug-In . SVG Version: 6.00 Build 0)  -->
<!DOCTYPE svg PUBLIC "-//W3C//DTD SVG 1.1//EN" "http://www.w3.org/Graphics/SVG/1.1/DTD/svg11.dtd">
<svg version="1.1" id="Filled_Icons" xmlns="http://www.w3.org/2000/svg" xmlns:xlink="http://www.w3.org/1999/xlink" x="0px"
	 y="0px" width="24px" height="24px" viewBox="0 0 24 24" enable-background="new 0 0 24 24" xml:space="preserve">
<g>
	<path d="M8.4,7.2V5.7H6.8C6.5,5.7,6.3,5.8,6.2,6l-6,7.5C0.1,13.6,0,13.8,0,13.9v6.8c0,0.8,0.7,1.5,1.5,1.5h21
		c0.8,0,1.5-0.7,1.5-1.5v-6.8c0-0.2-0.1-0.3-0.2-0.5l-6-7.5c-0.1-0.2-0.4-0.3-0.6-0.3h-0.9l0,0v1.5h0.5l5.6,7v0.5h-5.2l-3,3H9.8
		l-3-3H1.5v-0.5l5.6-7H8.4z M10.9,11.9c0-0.2,0-0.3,0.1-0.4c0.1-0.1,0.1-0.3,0.2-0.4c0.1-0.1,0.2-0.2,0.4-0.2
		c0.1-0.1,0.3-0.1,0.4-0.1c0.2,0,0.3,0,0.4,0.1s0.3,0.1,0.4,0.2c0.1,0.1,0.2,0.2,0.2,0.4s0.1,0.3,0.1,0.4c0,0.2,0,0.3-0.1,0.4
		c-0.1,0.1-0.1,0.3-0.2,0.4c-0.1,0.1-0.2,0.2-0.4,0.2C12.3,13,12.1,13,12,13c-0.2,0-0.3,0-0.4-0.1c-0.1-0.1-0.3-0.1-0.4-0.2
		c-0.1-0.1-0.2-0.2-0.2-0.4C10.9,12.2,10.9,12.1,10.9,11.9L10.9,11.9z M9.4,3.1C9.6,2.9,9.8,2.8,10,2.7s0.4-0.3,0.7-0.4
		c0.2-0.1,0.5-0.2,0.8-0.2S12,2,12.3,2c0.4,0,0.8,0.1,1.2,0.2c0.4,0.1,0.7,0.3,0.9,0.5s0.5,0.5,0.6,0.8s0.2,0.7,0.2,1.1
		c0,0.4-0.1,0.7-0.2,1c-0.1,0.3-0.2,0.5-0.4,0.7c-0.2,0.2-0.3,0.4-0.5,0.5c-0.2,0.1-0.4,0.3-0.6,0.4c-0.2,0.1-0.3,0.3-0.5,0.4
		C13,7.7,12.9,7.9,12.9,8l-0.2,1.1h-1.3l-0.1-1.2c0,0,0,0,0-0.1V7.8c0-0.2,0.1-0.4,0.2-0.6c0.1-0.2,0.2-0.3,0.4-0.5
		c0.2-0.1,0.3-0.3,0.5-0.4c0.2-0.1,0.4-0.3,0.5-0.4s0.3-0.3,0.4-0.5s0.2-0.4,0.2-0.7c0-0.2,0-0.3-0.1-0.5c-0.1-0.1-0.2-0.3-0.3-0.4
		c-0.1-0.1-0.3-0.2-0.4-0.2c-0.2-0.1-0.3-0.1-0.5-0.1c-0.3,0-0.5,0-0.7,0.1c-0.2,0.1-0.4,0.1-0.5,0.2c-0.1,0.1-0.3,0.1-0.3,0.2
		c-0.1,0.1-0.2,0.1-0.3,0.1C10.1,4.1,10,4,9.9,3.9L9.4,3.1z"/>
</g>
</svg>
