<?xml version="1.0" encoding="utf-8"?>
<!-- Generator: Adobe Illustrator 16.0.0, SVG Export Plug-In . SVG Version: 6.00 Build 0)  -->
<!DOCTYPE svg PUBLIC "-//W3C//DTD SVG 1.1//EN" "http://www.w3.org/Graphics/SVG/1.1/DTD/svg11.dtd">
<svg version="1.1" id="Filled_Icons" xmlns="http://www.w3.org/2000/svg" xmlns:xlink="http://www.w3.org/1999/xlink" x="0px"
	 y="0px" width="24px" height="24px" viewBox="0 0 24 24" enable-background="new 0 0 24 24" xml:space="preserve">
<g>
	<path d="M8.9,7.2V5.7H6.8C6.5,5.7,6.3,5.8,6.2,6l-6,7.5C0.1,13.6,0,13.8,0,13.9v6.8c0,0.8,0.7,1.5,1.5,1.5h21
		c0.8,0,1.5-0.7,1.5-1.5v-6.8c0-0.2-0.1-0.3-0.2-0.5l-6-7.5c-0.1-0.2-0.4-0.3-0.6-0.3h-2.3v1.5h1.9l5.6,7v0.5h-5.2l-3,3H9.8l-3-3
		H1.5v-0.5l5.6-7H8.9z M12.4,14.2l3.5-3.5c0.2-0.2,0.2-0.5,0-0.7c-0.2-0.2-0.5-0.2-0.7,0l-2.6,2.6V2.5C12.5,2.2,12.3,2,12,2
		c-0.3,0-0.5,0.2-0.5,0.5v10.1L8.9,10c-0.2-0.2-0.5-0.2-0.7,0c-0.2,0.2-0.2,0.5,0,0.7l3.5,3.5C11.8,14.3,12.1,14.4,12.4,14.2z"/>
</g>
</svg>
