<?xml version="1.0" encoding="UTF-8"?>
<svg width="24px" height="24px" viewBox="0 0 24 24" version="1.1" xmlns="http://www.w3.org/2000/svg" xmlns:xlink="http://www.w3.org/1999/xlink">
    <!-- Generator: Sketch 42 (36781) - http://www.bohemiancoding.com/sketch -->
    <title>inbox-my</title>
    <desc>Created with Sketch.</desc>
    <defs></defs>
    <g id="Icons" stroke="none" stroke-width="1">
        <g id="inbox-my">
            <path d="M8.94999695,5.671875 L6.75,5.671875 C6.5221875,5.671875 6.30665625,5.77542187 6.16434375,5.95335937 L0.16434375,13.4533594 C0.057984375,13.5863437 0,13.7515781 0,13.921875 L0,20.6778622 C0,21.5029827 0.666946292,22.171875 1.50130749,22.171875 L22.4986925,22.171875 C23.3278417,22.171875 24,21.4967429 24,20.6778622 L24,13.921875 C24,13.7515781 23.9420625,13.5863437 23.8356562,13.4533594 L17.8356562,5.95335937 C17.6932969,5.77542187 17.4778594,5.671875 17.25,5.671875 L14.9499969,5.671875 L14.9499969,7.171875 L16.8895313,7.171875 L22.5,14.1849375 L22.5,14.671875 L17.25,14.671875 L14.25,17.671875 L9.75,17.671875 L6.75,14.671875 L1.5,14.671875 L1.5,14.1849375 L7.11046875,7.171875 L8.94999695,7.171875 L8.94999695,5.671875 Z M12.353489,14.1572138 L15.8533796,10.6578232 C16.0488735,10.4623293 16.0488735,10.1463392 15.8533796,9.95084529 C15.6578857,9.7553514 15.3413956,9.7553514 15.1464017,9.95084529 L12.4999844,12.5972626 L12.4999844,2.49998437 C12.4999844,2.223993 12.2759914,2 12,2 C11.7235086,2 11.5000156,2.223993 11.5000156,2.49998437 L11.5000156,12.5972626 L8.85359833,9.95084529 C8.65810443,9.7553514 8.34161432,9.7553514 8.14662042,9.95084529 C7.95112653,10.1463392 7.95112653,10.4628293 8.14662042,10.6578232 L11.6460111,14.1572138 C11.8285054,14.343708 12.1499953,14.3612075 12.353489,14.1572138 L12.353489,14.1572138 Z"></path>
        </g>
    </g>
</svg>