<?xml version="1.0" encoding="UTF-8" standalone="no"?>
<svg width="24px" height="24px" viewBox="0 0 24 24" version="1.1" xmlns="http://www.w3.org/2000/svg" xmlns:xlink="http://www.w3.org/1999/xlink">
    <!-- Generator: Sketch 39.1 (31720) - http://www.bohemiancoding.com/sketch -->
    <title>inbox-all</title>
    <desc>Created with Sketch.</desc>
    <defs></defs>
    <g id="Icons" stroke="none" stroke-width="1"  >
        <g id="inbox-all" >
            <path d="M6.68202531,6.20555258 C6.43702271,5.6878574 6.30000305,5.10957365 6.30000305,4.5 C6.30000305,4.43929788 6.30134794,4.37891157 6.30400991,4.31886955 C6.25235521,4.35706982 6.20531512,4.40213167 6.16434375,4.45335938 L0.16434375,11.9533594 C0.057984375,12.0863438 0,12.2515781 0,12.421875 L0,19.171875 C0,20.0002969 0.671578125,20.671875 1.5,20.671875 L22.5,20.671875 C23.3284688,20.671875 24,20.0002969 24,19.171875 L24,12.421875 C24,12.2515781 23.9420625,12.0863438 23.8356562,11.9533594 L17.8356562,4.45335938 C17.7946654,4.40212414 17.7476156,4.35705656 17.6959551,4.31885269 L17.6959551,4.31885269 C17.6986439,4.37890555 17.7000027,4.43929763 17.7000027,4.5 C17.7000027,5.11090178 17.5637887,5.68981742 17.3197096,6.20772117 L22.5,12.6830626 L22.5,13.1700001 L17.25,13.1700001 L14.25,16.1700001 L9.75,16.1700001 L6.75,13.1700001 L1.5,13.1700001 L1.5,12.6830626 L6.68202531,6.20555258 L6.68202531,6.20555258 Z M5,11 C5,10.4477153 5.44994876,10 6.00684547,10 L17.9931545,10 C18.5492199,10 19,10.4438648 19,11 L19,11 C19,11.5522847 18.5500512,12 17.9931545,12 L6.00684547,12 C5.45078007,12 5,11.5561352 5,11 L5,11 L5,11 Z M7,8 C7,7.44771525 7.4556644,7 7.99539757,7 L16.0046024,7 C16.5543453,7 17,7.44386482 17,8 L17,8 C17,8.55228475 16.5443356,9 16.0046024,9 L7.99539757,9 C7.44565467,9 7,8.55613518 7,8 L7,8 L7,8 Z M7.69999695,5 C7.69999695,4.44771525 8.13829555,4 8.70335743,4 L15.2966368,4 C15.8507775,4 16.2999973,4.44386482 16.2999973,5 L16.2999973,5 C16.2999973,5.55228475 15.8616987,6 15.2966368,6 L8.70335743,6 C8.14921674,6 7.69999695,5.55613518 7.69999695,5 L7.69999695,5 L7.69999695,5 Z"></path>
        </g>
    </g>
</svg>