<svg xmlns="http://www.w3.org/2000/svg" width="24" height="24" viewBox="0 0 24 24">
  <g class="icon-stroke" fill="none" stroke="#000000" stroke-width="2" stroke-linecap="round">
    <g class="icon-fillable" transform="translate(1.000000, 5.000000)">
      <polyline points="22,10.1 15.4,10.1 13.2,13.4 8.8,13.4 6.6,10.1 0,10.1 "/>
      <path d="M3.8,1.5L0,10.1v5.5c0,1.2,1,2.2,2.2,2.2h17.6c1.2,0,2.2-1,2.2-2.2v-5.5l-3.8-8.6
        c-0.4-0.8-1.1-1.3-2-1.3H5.8C5,0.2,4.2,0.7,3.8,1.5z"/>
    </g>
    <g transform="translate(7.500000, 1.000000)">
      <path d="M4.5,0.2v11.7"/>
      <polyline points="9,7.4 4.5,11.9 0,7.4 "/>
    </g>
  </g>
</svg>
