<?xml version="1.0" encoding="UTF-8" standalone="no"?>
<svg width="24px" height="24px" viewBox="0 0 24 24" version="1.1" xmlns="http://www.w3.org/2000/svg" xmlns:xlink="http://www.w3.org/1999/xlink">
    <!-- Generator: Sketch 39.1 (31720) - http://www.bohemiancoding.com/sketch -->
    <title>info-circle</title>
    <desc>Created with Sketch.</desc>
    <defs></defs>
    <g id="Icons" stroke="none" stroke-width="1"  >
        <g id="info-circle" >
            <path d="M12.000625,1.80401846e-15 C5.3722202,1.80401846e-15 0,5.3722202 0,11.999375 C0,18.6277798 5.3722202,24 12.000625,24 C18.6265299,24 24,18.6277798 24,11.999375 C24,5.3722202 18.6265299,0 12.000625,0 L12.000625,1.80401846e-15 Z M13.1205666,4.33227436 C14.2905057,4.33227436 14.6342378,5.01098901 14.6342378,5.78719858 C14.6342378,6.75589813 13.8592782,7.65210145 12.5355971,7.65210145 C11.4281548,7.65210145 10.9006823,7.09588042 10.9331806,6.1746784 C10.9331806,5.39846883 11.5818968,4.33227436 13.1205666,4.33227436 L13.1205666,4.33227436 Z M10.1232227,19.1865007 C9.32326441,19.1865007 8.73954482,18.700276 9.29826572,16.569137 L10.214468,12.788084 C10.3732097,12.1831155 10.3994584,11.9406281 10.214468,11.9406281 C9.97573043,11.9406281 8.93703453,12.3581063 8.32456643,12.7705849 L7.9258372,12.1168689 C9.86948596,10.4932035 12.1043696,9.54075309 13.0605698,9.54075309 C13.8605281,9.54075309 13.9930212,10.4857039 13.594292,11.9406281 L12.5443466,15.9154211 C12.3581063,16.6178845 12.4381022,16.8603719 12.6243425,16.8603719 C12.86433,16.8603719 13.6492891,16.570387 14.4217489,15.9616687 L14.8742253,16.569137 C12.9830738,18.4590386 10.9219311,19.1865007 10.1232227,19.1865007 L10.1232227,19.1865007 Z"></path>
        </g>
    </g>
</svg>