<?xml version="1.0" encoding="UTF-8"?>
<svg width="24px" height="24px" viewBox="0 0 24 24" version="1.1" xmlns="http://www.w3.org/2000/svg" xmlns:xlink="http://www.w3.org/1999/xlink">
    <title>Instagram-Glyph Copy</title>
    <g class="icon-fill" id="Page-1" stroke="none" stroke-width="1" fill="none" fill-rule="evenodd">
        <g class="icon-fill" id="d:-1440---Message-Thread---Sharing-Copy-91" transform="translate(-590.000000, -420.000000)" fill="#9F9F9F" fill-rule="nonzero">
            <g id="Instagram-Glyph-Copy" transform="translate(590.000000, 420.000000)">
                <path d="M12.0000357,0 C8.74100758,0 8.33234294,0.0138257903 7.05240344,0.0722013492 C5.77514335,0.130469732 4.90283244,0.333355166 4.13952021,0.629948734 C3.35041412,0.936616909 2.681203,1.34696065 2.01409969,2.01406396 C1.34696065,2.68116727 0.936616909,3.35044984 0.629984459,4.13955593 C0.33331944,4.90283244 0.130505457,5.77514335 0.0721656237,7.05240344 C0.0137900647,8.33234294 0,8.74100758 0,12.0000357 C0,15.2589924 0.0137900647,15.6676571 0.0721656237,16.9475966 C0.130505457,18.2248567 0.33331944,19.0971676 0.629984459,19.8604441 C0.936652634,20.6495502 1.34699637,21.3187613 2.01409969,21.985936 C2.68123872,22.6530394 3.35041412,23.0633831 4.13952021,23.3700513 C4.90283244,23.6666448 5.77514335,23.8694945 7.05240344,23.9277987 C8.33234294,23.9861742 8.74100758,24 12.0000357,24 C15.2589924,24 15.6676571,23.9861742 16.9475966,23.9277987 C18.2248567,23.8695303 19.0971676,23.6666448 19.8604441,23.3700513 C20.6495502,23.0633831 21.3187613,22.6530394 21.985936,21.985936 C22.6530394,21.3187613 23.0633831,20.6495502 23.3700513,19.8604441 C23.6666448,19.0971676 23.8695303,18.2248567 23.9277987,16.9475966 C23.9861742,15.6676571 24,15.2589924 24,12.0000357 C24,8.74100758 23.9861742,8.33234294 23.9277987,7.05240344 C23.8695303,5.77514335 23.6666448,4.90283244 23.3700513,4.13955593 C23.0633831,3.35044984 22.6530394,2.68116727 21.985936,2.01406396 C21.3187613,1.34696065 20.6495502,0.936616909 19.8604441,0.629948734 C19.0971676,0.333355166 18.2248567,0.130469732 16.9475966,0.0722013492 C15.6676571,0.0138257903 15.2589924,0 12.0000357,0 Z M12.0000357,2.16214639 C15.204118,2.16214639 15.5836663,2.17440026 16.8490298,2.23213276 C18.0190417,2.28547101 18.6544207,2.48096126 19.0772327,2.64529881 C19.6374094,2.86301035 20.0371427,3.12302095 20.4570251,3.54293914 C20.876979,3.96285733 21.1369896,4.3626263 21.3547012,4.92273158 C21.5190387,5.34557926 21.714529,5.980994 21.7678672,7.15097025 C21.8255997,8.41633372 21.8378536,8.79588203 21.8378536,12 C21.8378536,15.204118 21.8255997,15.5836663 21.7678672,16.8490298 C21.714529,18.0190417 21.5190387,18.6544207 21.3547012,19.0772327 C21.1369896,19.6374094 20.876979,20.0371427 20.4570251,20.4570251 C20.0371427,20.876979 19.6373737,21.1369896 19.0772684,21.3547012 C18.6544207,21.5190387 18.019006,21.714529 16.8490298,21.7678672 C15.5838806,21.8255997 15.204368,21.8378536 12,21.8378536 C8.79563196,21.8378536 8.41619082,21.8255997 7.15097025,21.7678315 C5.98095828,21.714529 5.34557926,21.5190387 4.9227673,21.3547012 C4.36259058,21.1369896 3.96285733,20.876979 3.54297487,20.4570251 C3.12305668,20.0371427 2.86301035,19.6373737 2.64529881,19.0772684 C2.48096126,18.6544207 2.28550674,18.019006 2.23213276,16.8490298 C2.17440026,15.5836663 2.16214639,15.204118 2.16214639,12 C2.16214639,8.79588203 2.17440026,8.41633372 2.23213276,7.15097025 C2.28550674,5.98095828 2.48096126,5.34557926 2.64529881,4.9227673 C2.86301035,4.36259058 3.12305668,3.96285733 3.54293914,3.54297487 C3.96285733,3.12302095 4.3626263,2.86301035 4.92273158,2.64529881 C5.34557926,2.48096126 5.980994,2.28547101 7.15097025,2.23213276 C8.41633372,2.17440026 8.79588203,2.16214639 12,2.16214639" id="Shape"></path>
                <path d="M11.6439208,16.5277142 C9.33995743,16.5277142 7.47228583,14.6600426 7.47228583,12.3561537 C7.47228583,10.0521903 9.33995743,8.18451873 11.6439208,8.18451873 C13.9478097,8.18451873 15.8154813,10.0521903 15.8154813,12.3561537 C15.8154813,14.6600426 13.9478097,16.5277142 11.6439208,16.5277142 Z M11.6439208,5.9296242 C8.09460706,5.9296242 5.2173913,8.80683996 5.2173913,12.3561537 C5.2173913,15.9053929 8.09460706,18.7826087 11.6439208,18.7826087 C15.19316,18.7826087 18.0703758,15.9053929 18.0703758,12.3561537 C18.0703758,8.80683996 15.19316,5.9296242 11.6439208,5.9296242 M19.826087,5.67571058 C19.826087,6.50514932 19.1536909,7.17747085 18.3242894,7.17747085 C17.4949252,7.17747085 16.8225291,6.50514932 16.8225291,5.67571058 C16.8225291,4.8463091 17.4949252,4.17391304 18.3242894,4.17391304 C19.1536909,4.17391304 19.826087,4.8463091 19.826087,5.67571058" id="Shape"></path>
            </g>
        </g>
    </g>
</svg>