<?xml version="1.0" encoding="UTF-8"?>
<svg width="24px" height="24px" viewBox="0 0 24 24" version="1.1" xmlns="http://www.w3.org/2000/svg" xmlns:xlink="http://www.w3.org/1999/xlink">
    <!-- Generator: Sketch 42 (36781) - http://www.bohemiancoding.com/sketch -->
    <title>link</title>
    <desc>Created with Sketch.</desc>
    <defs></defs>
    <g id="Icons" stroke="none" stroke-width="1">
        <g id="link">
            <path d="M20.486,4.221 C22.046,5.781 22.046,8.319 20.486,9.879 L15.889,14.476 C14.33,16.037 11.792,16.037 10.232,14.475 C9.841,14.084 9.842,13.452 10.233,13.061 C10.623,12.67 11.256,12.67 11.647,13.061 C12.402,13.817 13.719,13.817 14.475,13.061 L19.072,8.465 C19.851,7.685 19.851,6.416 19.072,5.636 L18.365,4.93 C17.608,4.173 16.292,4.174 15.537,4.93 L13.549,6.914 C13.158,7.306 12.526,7.306 12.135,6.914 C11.744,6.524 11.744,5.891 12.135,5.5 L14.123,3.514 C14.878,2.76 15.882,2.342 16.95,2.342 C18.019,2.342 19.023,2.758 19.779,3.515 L20.486,4.221 Z M14.474,10.232 C14.864,10.623 14.864,11.256 14.473,11.647 C14.082,12.038 13.45,12.038 13.059,11.647 L12.352,10.94 C11.597,10.184 10.28,10.184 9.524,10.94 L4.927,15.536 C4.148,16.316 4.148,17.584 4.927,18.365 L5.634,19.071 C6.391,19.828 7.707,19.827 8.462,19.071 L10.635,16.901 C11.026,16.509 11.658,16.509 12.049,16.901 C12.44,17.291 12.44,17.924 12.049,18.315 L9.876,20.486 C9.121,21.241 8.117,21.658 7.049,21.658 C5.98,21.658 4.976,21.242 4.22,20.485 L3.513,19.779 C1.953,18.219 1.953,15.682 3.513,14.122 L8.11,9.525 C9.67,7.964 12.208,7.966 13.768,9.526 L14.474,10.232 Z"></path>
        </g>
    </g>
</svg>