<?xml version="1.0" encoding="UTF-8" standalone="no"?>
<svg width="24px" height="24px" viewBox="0 0 24 24" version="1.1" xmlns="http://www.w3.org/2000/svg" xmlns:xlink="http://www.w3.org/1999/xlink">
    <!-- Generator: Sketch 39.1 (31720) - http://www.bohemiancoding.com/sketch -->
    <title>link</title>
    <desc>Created with Sketch.</desc>
    <defs></defs>
    <g id="Icons" stroke="none" stroke-width="1" fill="none" fill-rule="evenodd">
        <g id="link" fill="#000000">
            <path d="M20.486,4.221 L19.779,3.515 C19.023,2.758 18.019,2.342 16.95,2.342 C15.882,2.342 14.878,2.76 14.123,3.514 L12.135,5.5 C11.744,5.891 11.744,6.524 12.135,6.914 C12.526,7.306 13.158,7.306 13.549,6.914 L15.537,4.93 C16.292,4.174 17.608,4.173 18.365,4.93 L19.072,5.636 C19.851,6.416 19.851,7.685 19.072,8.465 L14.475,13.061 C13.719,13.817 12.402,13.817 11.647,13.061 C11.256,12.67 10.623,12.67 10.233,13.061 C9.842,13.452 9.841,14.084 10.232,14.475 C11.792,16.037 14.33,16.037 15.889,14.476 L20.486,9.879 C22.046,8.319 22.046,5.781 20.486,4.221 Z M14.474,10.232 L13.768,9.526 C12.208,7.966 9.67,7.964 8.11,9.525 L3.513,14.122 C1.953,15.682 1.953,18.219 3.513,19.779 L4.22,20.485 C4.976,21.242 5.98,21.658 7.049,21.658 C8.117,21.658 9.121,21.241 9.876,20.486 L12.049,18.315 C12.44,17.924 12.44,17.291 12.049,16.901 C11.658,16.509 11.026,16.509 10.635,16.901 L8.462,19.071 C7.707,19.827 6.391,19.828 5.634,19.071 L4.927,18.365 C4.148,17.584 4.148,16.316 4.927,15.536 L9.524,10.94 C10.28,10.184 11.597,10.184 12.352,10.94 L13.059,11.647 C13.45,12.038 14.082,12.038 14.473,11.647 C14.864,11.256 14.864,10.623 14.474,10.232 Z"></path>
        </g>
    </g>
</svg>