<?xml version="1.0" encoding="utf-8"?>
<!-- Generator: Adobe Illustrator 16.0.0, SVG Export Plug-In . SVG Version: 6.00 Build 0)  -->
<!DOCTYPE svg PUBLIC "-//W3C//DTD SVG 1.1//EN" "http://www.w3.org/Graphics/SVG/1.1/DTD/svg11.dtd">
<svg version="1.1" id="Filled_Icons" xmlns="http://www.w3.org/2000/svg" xmlns:xlink="http://www.w3.org/1999/xlink" x="0px"
	 y="0px" width="24px" height="24px" viewBox="0 0 24 24" enable-background="new 0 0 24 24" xml:space="preserve">
<g>
	<path d="M3,24h18V9h-3V6c0-3.309-2.692-6-6-6C8.691,0,6,2.691,6,6v3H3V24z M11,15c0-0.552,0.448-1,1-1c0.551,0,1,0.448,1,1
		c0,0.368-0.203,0.688-0.5,0.86v2.64c0,0.275-0.225,0.5-0.5,0.5c-0.276,0-0.5-0.225-0.5-0.5v-2.64C11.202,15.688,11,15.368,11,15z
		 M7,6c0-2.757,2.242-5,5-5c2.757,0,5,2.243,5,5v3H7V6z"/>
</g>
</svg>
