<?xml version="1.0" encoding="UTF-8" standalone="no"?>
<svg width="24px" height="24px" viewBox="0 0 24 24" version="1.1" xmlns="http://www.w3.org/2000/svg" xmlns:xlink="http://www.w3.org/1999/xlink">
    <!-- Generator: Sketch 39.1 (31720) - http://www.bohemiancoding.com/sketch -->
    <title>logo-twitter</title>
    <desc>Created with Sketch.</desc>
    <defs></defs>
    <g id="Icons" stroke="none" stroke-width="1"  >
        <g id="logo-twitter" >
            <path d="M21.1739895,5.07908612 C22.1909783,4.46983011 22.9689514,3.50439367 23.3391916,2.35618043 C22.3878149,2.91857059 21.3333333,3.33099004 20.2132396,3.55125952 C19.3134153,2.59519625 18.0339777,2 16.6186292,2 C13.9004101,2 11.6977153,4.20269479 11.6977153,6.92091388 C11.6977153,7.30521383 11.7398946,7.6801406 11.8242531,8.04100762 C7.73286467,7.83479789 4.10544815,5.87580551 1.67779731,2.89513767 C1.25600469,3.62155829 1.01230228,4.46983011 1.01230228,5.36965436 C1.01230228,7.07557118 1.87932045,8.58465144 3.20093732,9.46572935 C2.39484476,9.44229643 1.63561804,9.21734036 0.970123023,8.85178676 L0.970123023,8.91271236 C0.970123023,11.298184 2.66666667,13.2899824 4.92091388,13.7398946 C4.50849443,13.8523726 4.07264206,13.9132982 3.62272994,13.9132982 C3.30404218,13.9132982 2.99941418,13.8804921 2.69478617,13.8242531 C3.32278852,15.7785589 5.14118336,17.2032806 7.29232572,17.2454599 C5.60515524,18.5670767 3.48681898,19.354423 1.17633275,19.354423 C0.777973052,19.354423 0.388986526,19.33099 0,19.2841242 C2.18394845,20.685413 4.77094318,21.4961921 7.55008787,21.4961921 C16.6045694,21.4961921 21.5582894,13.9929701 21.5582894,7.48799063 C21.5582894,7.27240773 21.5536028,7.06151142 21.5442296,6.85061511 C22.5049795,6.16168717 23.3391916,5.29466901 24,4.30579965 C23.1189221,4.69947276 22.1675454,4.9619215 21.1739895,5.07908612 L21.1739895,5.07908612 Z"></path>
        </g>
    </g>
</svg>