<?xml version="1.0" encoding="UTF-8"?>
<svg width="24px" height="24px" viewBox="0 0 24 24" version="1.1" xmlns="http://www.w3.org/2000/svg" xmlns:xlink="http://www.w3.org/1999/xlink">
    <g class="icon-stroke" stroke="none" stroke-width="1" fill="none" fill-rule="evenodd">
        <g class="icon-stroke" transform="translate(-93.000000, -231.000000)" stroke="#404040">
            <g class="icon-stroke" transform="translate(0.000000, 76.000000)">
                <g class="icon-stroke" transform="translate(93.000000, 156.000000)">
                    <g class="icon-stroke" transform="translate(7.448276, 0.000000)" stroke-linecap="round" stroke-linejoin="round">
                        <g class="icon-stroke">
                            <path d="M5.68851724,5.64912281 L8.19310345,7.62252845 C8.76548276,8.07461774 9.10344828,8.78384776 9.10344828,9.53732992 L9.10344828,10.7333333 L0,10.7333333 L0,9.53732992 C0,8.78384776 0.336827586,8.07461774 0.910344828,7.62252845 L3.4137931,5.65031881" id="Stroke-5813"></path>
                            <path d="M4.24827586,5.64912281 L4.24827586,5.64912281 C2.90703448,5.64912281 1.82068966,4.63792982 1.82068966,3.38947368 L1.82068966,2.25964912 C1.82068966,1.01119298 2.90703448,0 4.24827586,0 C5.58951724,0 6.67586207,1.01119298 6.67586207,2.25964912 L6.67586207,3.38947368 C6.67586207,4.63792982 5.58951724,5.64912281 4.24827586,5.64912281 L4.24827586,5.64912281 Z" id="Stroke-5814"></path>
                        </g>
                    </g>
                    <polyline id="Path-35" stroke-linejoin="round" points="2.48275862 19.9333333 2.48275862 13.0333333 5.23795109 13.0333333 22.3448276 13.0333333 22.3448276 19.9333333"></polyline>
                    <ellipse id="Oval" cx="2.06896552" cy="21.0833333" rx="1.56896552" ry="1.41666667"></ellipse>
                    <ellipse id="Oval-Copy-2" cx="12" cy="19.55" rx="1.56896552" ry="1.41666667"></ellipse>
                    <ellipse id="Oval-Copy" cx="21.9310345" cy="21.0833333" rx="1.56896552" ry="1.41666667"></ellipse>
                    <line x1="12" y1="13.0333333" x2="12" y2="18.0166667" id="Path-36"></line>
                </g>
            </g>
        </g>
    </g>
</svg>