
<svg xmlns="http://www.w3.org/2000/svg" width="24" height="24" viewBox="0 0 24 24">
<g class="icon-stroke" stroke="#000000" fill="none" fill-rule="evenodd" stroke-width="1">
	<circle cx="12" cy="12" r="11"/>
	<path d="M15,5.9c-0.1-0.1-0.2,0-0.3,0l-4.6,2.9H7.9c-1.1,0-2,0.9-2,2s0.9,2,2,2h2.2l4.6,2.9
		c0,0,0.1,0,0.2,0c0,0,0.1,0,0.1,0c0.1-0.1,0.1-0.1,0.1-0.3V6.2C15.2,6.1,15.1,6,15,5.9"/>
	<path d="M18.9,10.5h-1.2c-0.2,0-0.3,0.1-0.3,0.3c0,0.2,0.1,0.3,0.3,0.3h1.2c0.2,0,0.3-0.1,0.3-0.3
		C19.2,10.7,19.1,10.5,18.9,10.5"/>
	<path d="M17.1,8.5c0,0,0.1,0,0.1,0l1-0.6c0.1-0.1,0.2-0.3,0.1-0.4c-0.1-0.1-0.3-0.2-0.4-0.1l-1,0.6
		c-0.1,0.1-0.2,0.3-0.1,0.4C16.9,8.4,17,8.5,17.1,8.5"/>
	<path d="M18.2,13.8l-1-0.6c-0.1-0.1-0.3,0-0.4,0.1s0,0.3,0.1,0.4l1,0.6c0,0,0.1,0,0.1,0
		c0.1,0,0.2-0.1,0.3-0.1C18.4,14,18.4,13.8,18.2,13.8"/>
	<path d="M10,12.9c0,0-1.5,0.1-2.3,0c-0.7,0-0.8-0.2-0.8-0.2l2.3,4.6c0.2,0.4,0.6,0.7,1.1,0.7
		c0.2,0,0.3,0,0.5-0.1c0.6-0.3,0.9-1,0.6-1.5L10,12.9z"/>
</g>
</svg>
