<svg width="24px" height="24px" viewBox="0 0 24 24" version="1.1" xmlns="http://www.w3.org/2000/svg" class="icon-stroke" stroke="#000000" fill="none" fill-rule="evenodd" stroke-width="1" >
  <g class="icon-stroke" stroke="none" stroke-width="1" fill="none" fill-rule="evenodd" stroke-linecap="round" stroke-linejoin="round">
    <path d="M11.5409836,16.3360656 L11.5409836,16.3360656 C9.04227869,16.3360656 7.01639344,14.3101803 7.01639344,11.8114754 L7.01639344,5.02459016 C7.01639344,2.52588525 9.04227869,0.5 11.5409836,0.5 L11.5409836,0.5 C14.0396885,0.5 16.0655738,2.52588525 16.0655738,5.02459016 L16.0655738,11.8114754 C16.0655738,14.3101803 14.0396885,16.3360656 11.5409836,16.3360656 L11.5409836,16.3360656 Z" stroke="#000000"></path>
    <line x1="7.01639344" y1="23.1229508" x2="16.0655738" y2="23.1229508" id="Stroke-4381" stroke="#000000"></line>
    <line x1="11.5409836" y1="19.352459" x2="11.5409836" y2="23.1229508" id="Stroke-4382" stroke="#000000"></line>
    <path d="M19.0819672,8.79508197 L19.0819672,11.8114754 C19.0819672,15.9763607 15.7058689,19.352459 11.5409836,19.352459 L11.5409836,19.352459 C7.37609836,19.352459 4,15.9763607 4,11.8114754 L4,8.79508197" stroke="#000000"></path>
  </g>
</svg>
