<svg width="24px" height="24px" viewBox="0 0 24 24" version="1.1" xmlns="http://www.w3.org/2000/svg" xmlns:xlink="http://www.w3.org/1999/xlink">
    <g class="icon-stroke" stroke="#000000" fill="none" fill-rule="evenodd" stroke-width="1" stroke-linecap="round">
        <g class="icon-stroke" transform="translate(3.000000, 1.000000)" stroke="#000000">
            <line x1="3.8852459" y1="21.6393443" x2="12.5409836" y2="21.6393443" stroke-linejoin="round"></line>
            <line x1="8.21311475" y1="18.0327869" x2="8.21311475" y2="21.6393443" stroke-linejoin="round"></line>
            <path d="M15.4262295,7.93442623 L15.4262295,10.8196721 C15.4262295,14.8034754 12.196918,18.0327869 8.21311475,18.0327869 L8.21311475,18.0327869 C4.22931148,18.0327869 1,14.8034754 1,10.8196721 L1,7.93442623" stroke-linejoin="round"></path>
            <path d="M8.21311475,15.147541 L8.21311475,15.147541 C5.82304918,15.147541 3.8852459,13.2097377 3.8852459,10.8196721 L3.8852459,4.32786885 C3.8852459,1.93780328 5.82304918,0 8.21311475,0 L8.21311475,0 C10.6031803,0 12.5409836,1.93780328 12.5409836,4.32786885 L12.5409836,10.8196721 C12.5409836,13.2097377 10.6031803,15.147541 8.21311475,15.147541 L8.21311475,15.147541 Z" stroke-linejoin="round"></path>
            <line x1="16.5" y1="2.5" x2="0.597412109" y2="18.4025879" id="Path"></line>
        </g>
    </g>
</svg>
