<?xml version="1.0" encoding="UTF-8"?>
<svg width="24px" height="24px" viewBox="0 0 24 24" version="1.1" xmlns="http://www.w3.org/2000/svg" xmlns:xlink="http://www.w3.org/1999/xlink">
    <!-- Generator: Sketch 42 (36781) - http://www.bohemiancoding.com/sketch -->
    <title>minor</title>
    <desc>Created with Sketch.</desc>
    <defs></defs>
    <g id="Icons" stroke="none" stroke-width="1">
        <g id="minor">
            <path d="M8.8817842e-16,1.50130749 C8.8817842e-16,0.672158257 0.666946292,0 1.50130749,0 L22.4986925,0 C23.3278417,0 24,0.666946292 24,1.50130749 L24,22.4986925 C24,23.3278417 23.3330537,24 22.4986925,24 L1.50130749,24 C0.672158257,24 8.8817842e-16,23.3330537 8.8817842e-16,22.4986925 L8.8817842e-16,1.50130749 Z M11.4932465,12.4289636 L8.91946477,7.35689774 C8.87370842,7.26996067 8.82680887,7.20247107 8.7787647,7.1544269 C8.73072053,7.10638274 8.67695763,7.0709221 8.61747438,7.04804393 C8.55799112,7.02516575 8.49050152,7.01143905 8.41500355,7.00686342 C8.33950557,7.00228778 8.25142592,7 8.15076195,7 L6.38000011,7 L6.38000011,17 L8.42529867,17 L8.42529867,11.2484557 C8.42529867,11.1157623 8.42072311,10.9704881 8.41157184,10.8126287 C8.40242057,10.6547693 8.38869387,10.4957684 8.37039133,10.3356211 L11.0333975,15.4831846 C11.1157589,15.6433318 11.2267164,15.7645844 11.3662733,15.8469458 C11.5058301,15.9293072 11.6648311,15.9704873 11.8432808,15.9704873 L12.1589981,15.9704873 C12.3374478,15.9704873 12.4964487,15.9293072 12.6360056,15.8469458 C12.7755625,15.7645844 12.8865199,15.6433318 12.9688814,15.4831846 L15.6181607,10.3424846 C15.5907069,10.6673546 15.5769802,10.969342 15.5769802,11.2484557 L15.5769802,17 L17.6222788,17 L17.6222788,7 L15.8515169,7 C15.750853,7 15.6627733,7.00228778 15.5872753,7.00686342 C15.5117774,7.01143905 15.4442878,7.02516575 15.3848045,7.04804393 C15.3253213,7.0709221 15.2715584,7.10638274 15.2235142,7.1544269 C15.17547,7.20247107 15.1285705,7.26996067 15.0828141,7.35689774 L12.5158958,12.4083734 C12.4243831,12.5868231 12.3351596,12.7709897 12.2482225,12.9608785 C12.1612854,13.1507674 12.0789252,13.3463728 12.0011394,13.5477008 C11.9233536,13.3509485 11.8421373,13.1587747 11.7574881,12.9711736 C11.6728389,12.7835726 11.5847592,12.6028377 11.4932465,12.4289636 Z" id="Minor"></path>
        </g>
    </g>
</svg>