<svg xmlns="http://www.w3.org/2000/svg" width="24" height="24" viewBox="0 0 24 24">
  <g transform="translate(1, 1)">
    <path class="icon-stroke" fill="none" fill-rule="evenodd" stroke="#000000" stroke-width="2" stroke-linecap="round" stroke-linejoin="round" d="M0,1.37619853 C0,0.616145043 0.611367429,0 1.376199,0 L20.623801,0 C21.3838554,0 22,0.611367429 22,1.37619853 L22,20.6238015 C22,21.383855 21.3886326,22 20.623801,22 L1.376199,22 C0.616144571,22 0,21.3886326 0,20.6238015 L0,1.37619853 Z"></path>
    <path class="icon-fill" fill="#000000" d="M10.5354763,11.3932167 L8.17617586,6.74382296 C8.13423286,6.66413063 8.09124171,6.60226521 8.04720086,6.55822467 C8.00316,6.51418413 7.95387843,6.48167866 7.89935143,6.460707 C7.84482443,6.43973534 7.78296043,6.42715244 7.71375314,6.42295814 C7.64454743,6.41876384 7.56380743,6.41666661 7.47153157,6.41666661 L5.84833386,6.41666661 L5.84833386,15.5833334 L7.72319114,15.5833334 L7.72319114,10.3110845 C7.72319114,10.1894488 7.71899543,10.0562808 7.71060714,9.91157624 C7.70221886,9.76687187 7.68963643,9.62112109 7.67285829,9.47431933 L10.1139484,14.1929192 C10.1894461,14.3397208 10.2911569,14.4508691 10.4190837,14.526367 C10.5470106,14.601865 10.6927621,14.6396134 10.85634,14.6396134 L11.1457484,14.6396134 C11.3093279,14.6396134 11.4550779,14.601865 11.5830047,14.526367 C11.7109316,14.4508691 11.8126439,14.3397208 11.8881416,14.1929192 L14.3166477,9.48061086 C14.2914813,9.77840836 14.2788989,10.0552301 14.2788989,10.3110845 L14.2788989,15.5833334 L16.1537561,15.5833334 L16.1537561,6.41666661 L14.5305569,6.41666661 C14.4382826,6.41666661 14.3575426,6.41876384 14.2883353,6.42295814 C14.2191296,6.42715244 14.157264,6.43973534 14.102737,6.460707 C14.0482116,6.48167866 13.9989284,6.51418413 13.9548876,6.55822467 C13.9108483,6.60226521 13.8678556,6.66413063 13.8259126,6.74382296 L11.4729041,11.3743423 C11.3890181,11.5379212 11.30723,11.7067406 11.2275366,11.8808054 C11.1478447,12.0548701 11.0723486,12.234175 11.001045,12.4187258 C10.9297414,12.2383695 10.8552919,12.0622101 10.7776979,11.8902424 C10.7001023,11.7182749 10.6193623,11.5526012 10.5354763,11.3932167 Z"></path>
  </g>
</svg>
