<?xml version="1.0" encoding="UTF-8"?>
<svg width="24px" height="24px" viewBox="0 0 24 24" version="1.1" xmlns="http://www.w3.org/2000/svg" xmlns:xlink="http://www.w3.org/1999/xlink">
    <!-- Generator: Sketch 43.2 (39069) - http://www.bohemiancoding.com/sketch -->
    <title>phone</title>
    <desc>Created with Sketch.</desc>
    <defs></defs>
    <g id="Icons" stroke="none" stroke-width="1">
        <g id="phone">
            <path d="M16.2282352,0 L7.75764693,0 C6.55764693,0 5.63999987,0.917647059 5.63999987,2.11764706 L5.63999987,21.8823529 C5.63999987,23.0117647 6.55764693,24 7.75764693,24 L16.2282352,24 C17.4282352,24 18.3458822,23.0117647 18.3458822,21.8823529 L18.3458822,2.11764706 C18.3458822,0.917647059 17.4282352,0 16.2282352,0 Z M11.992941,23.2941176 C11.2164705,23.2941176 10.5811763,22.6588235 10.5811763,21.8823529 C10.5811763,21.1058824 11.2164705,20.4705882 11.992941,20.4705882 C12.7694116,20.4705882 13.4047057,21.1058824 13.4047057,21.8823529 C13.4047057,22.6588235 12.7694116,23.2941176 11.992941,23.2941176 Z M16.9341175,19.7647059 L7.05176457,19.7647059 L7.05176457,3.52941176 L16.9341175,3.52941176 L16.9341175,19.7647059 Z"></path>
        </g>
    </g>
</svg>