<svg width="48px" height="48px" viewBox="0 0 48 48" version="1.1" xmlns="http://www.w3.org/2000/svg" xmlns:xlink="http://www.w3.org/1999/xlink">
    <!-- Generator: Sketch 56.3 (81716) - https://sketch.com -->
    <title>icon - temp - saved contact list</title>
    <desc>Created with Sketch.</desc>
    <g class="icon-stroke"  id="icon---temp---saved-contact-list" stroke="none" stroke-width="1" fill="none" fill-rule="evenodd" stroke-linecap="round" stroke-linejoin="round">
        <g id="Group-7" transform="translate(1.000000, 1.000000)" stroke="#000000">
            <path d="M32.6682591,29.2727273 L45.9998955,29.2727273 L45.9998955,21.0335 C45.9998955,19.6012273 45.2482136,18.2745455 44.0198045,17.5375 L38.0774409,13.9725" id="Stroke-6000"></path>
            <path d="M25.6095591,4.60627273 C26.6874227,1.90690909 29.3251045,0 32.4091955,0 C36.4509227,0 39.7273773,3.27645455 39.7273773,7.31818182 L39.7273773,9.40909091 C39.7273773,13.4508182 36.4509227,16.7272727 32.4091955,16.7272727 C31.2644227,16.7272727 30.1813318,16.4648636 29.2163773,15.9965" id="Stroke-6001"></path>
            <path d="M12.259,24.8443909 L2.74013636,30.5557091 C1.04022727,31.5760727 0,33.4129364 0,35.3961636 L0,43.9093 L37.6363636,43.9093 L37.6363636,35.3961636 C37.6363636,33.4129364 36.5950909,31.5760727 34.8951818,30.5557091 L25.3846818,24.8485727" id="Stroke-6002"></path>
            <path d="M18.8178682,27.1818182 L18.8178682,27.1818182 C13.0438227,27.1818182 8.36332273,22.5013182 8.36332273,16.7272727 L8.36332273,12.5454545 C8.36332273,6.77140909 13.0438227,2.09090909 18.8178682,2.09090909 C24.5919136,2.09090909 29.2724136,6.77140909 29.2724136,12.5454545 L29.2724136,16.7272727 C29.2724136,22.5013182 24.5919136,27.1818182 18.8178682,27.1818182 L18.8178682,27.1818182 Z" id="Stroke-6003"></path>
        </g>
    </g>
</svg>