<?xml version="1.0" encoding="UTF-8"?>
<svg width="24px" height="24px" viewBox="0 0 24 24" version="1.1" xmlns="http://www.w3.org/2000/svg" xmlns:xlink="http://www.w3.org/1999/xlink">
    <!-- Generator: Sketch 40.3 (33839) - http://www.bohemiancoding.com/sketch -->
    <title>note</title>
    <desc>Created with Sketch.</desc>
    <defs></defs>
    <g id="Icons">
        <g id="note">
            <path d="M15.2045696,0.351668583 C15.0087462,0.157447387 14.6269642,8.03280056e-15 14.3462648,7.81896969e-15 L3.49920717,-4.4408921e-16 C2.67121791,-1.0748339e-15 2,0.667001861 2,1.50143258 L2,22.5005671 C2,23.3297854 2.66543579,24.0019997 3.5032506,24.0019997 L20.4967494,24.0019997 C21.3269718,24.0019997 22,23.339088 22,22.5013056 L22,7.59759757 C22,7.31808755 21.8372283,6.93005993 21.6454304,6.73983132 L15.2045696,0.351668583 Z M13.5,1.5 L20.5,8.5 L15.0016756,8.5 C14.1723231,8.5 13.5,7.82881057 13.5,6.99832438 L13.5,1.5 Z"></path>
        </g>
    </g>
</svg>