<?xml version="1.0" encoding="UTF-8"?>
<svg xmlns="http://www.w3.org/2000/svg" xmlns:xlink="http://www.w3.org/1999/xlink" width="24px" height="24px" viewBox="0 0 24 24" version="1.1">
<g  stroke="none" stroke-width="1" fill="none" fill-rule="evenodd" class="icon-stroke" id="surface1">
<path style="fill:none;stroke-width:1.455;stroke-linecap:round;stroke-linejoin:round;stroke:rgb(25.098041%,25.098041%,25.098041%);stroke-opacity:1;stroke-miterlimit:4;" d="M 19.722982 14.323242 L 19.722982 15.03418 C 19.722982 15.17806 19.71875 15.32194 19.706055 15.46582 L 21.915039 16.608398 C 22.414388 16.866536 22.736003 17.408203 22.736003 17.996419 L 22.736003 21.67806 L 13.908529 21.67806 C 13.730794 22.989909 12.660156 24.001302 11.369466 24.001302 C 10.074544 24.001302 9.003906 22.989909 8.826172 21.67806 L -0.00130208 21.67806 L -0.00130208 18.026042 C -0.00130208 17.420898 0.333008 16.870768 0.853516 16.616862 L 3.671875 15.25 C 3.667643 15.17806 3.667643 15.10612 3.667643 15.03418 L 3.667643 12 C 3.667643 7.882487 5.800456 4.370117 8.805013 2.969401 C 8.86849 1.31901 10.154948 -0.00130208 11.733398 -0.00130208 C 13.303385 -0.00130208 14.589844 1.302083 14.666016 2.94401 L 14.666016 3.007487 " transform="matrix(0.923077,0,0,0.923077,0.923077,0.923077)"/>
<path style=" stroke:none;fill-rule:nonzero;fill:rgb(25.098041%,25.098041%,25.098041%);fill-opacity:1;" d="M 17.402344 2.746094 L 18.054688 4.363281 L 18.972656 4.714844 L 20.398438 3.839844 L 21.347656 4.742188 L 20.722656 6.375 L 21.148438 7.304688 L 22.738281 7.773438 L 22.808594 9.121094 L 21.28125 9.800781 L 20.953125 10.769531 L 21.789062 12.277344 L 20.941406 13.273438 L 19.386719 12.605469 L 18.511719 13.050781 L 18.113281 14.523438 L 18.074219 14.726562 L 16.800781 14.792969 L 16.144531 13.175781 L 15.226562 12.824219 L 13.800781 13.699219 L 12.851562 12.796875 L 13.476562 11.160156 L 13.050781 10.234375 L 11.460938 9.765625 L 11.390625 8.417969 L 12.917969 7.738281 L 13.25 6.769531 L 12.515625 5.453125 L 12.410156 5.261719 L 13.257812 4.265625 L 14.8125 4.933594 L 15.691406 4.488281 L 16.085938 3.015625 L 16.125 2.8125 Z M 16.980469 6.464844 C 15.773438 6.527344 14.851562 7.609375 14.917969 8.882812 C 14.984375 10.15625 16.015625 11.136719 17.21875 11.074219 C 18.425781 11.011719 19.351562 9.925781 19.28125 8.65625 C 19.214844 7.382812 18.183594 6.402344 16.980469 6.464844 Z M 16.980469 6.464844 "/>
</g>
</svg>