<?xml version="1.0" encoding="UTF-8"?>
<svg width="24px" height="24px" viewBox="0 0 24 24" version="1.1" xmlns="http://www.w3.org/2000/svg" xmlns:xlink="http://www.w3.org/1999/xlink">
    <!-- Generator: Sketch 43.2 (39069) - http://www.bohemiancoding.com/sketch -->
    <title>notification</title>
    <desc>Created with Sketch.</desc>
    <defs></defs>
    <g id="Icons" stroke="none" stroke-width="1">
        <g id="notification">
            <path d="M12.0059501,24 C13.2683393,24 14.3012031,22.9859155 14.3012031,21.7464789 L9.71069712,21.7464789 C9.71069712,23.0985915 10.743561,24 12.0059501,24 Z M9.13982615,2.35649905 C6.11348007,3.49419985 3.97256461,6.34963305 3.97256461,9.69014081 L3.97256461,15.0985915 L2.5954128,17.6901408 C2.25112485,18.3661972 2.25112485,19.2676056 2.71017545,19.943662 C3.16922606,20.6197183 3.85780196,21.0704225 4.66114051,21.0704225 L19.3507597,21.0704225 C20.1540983,21.0704225 20.8426742,20.6197183 21.3017248,20.056338 C21.7607754,19.3802817 21.7607754,18.5915493 21.4164874,17.9154929 L20.0393356,14.9859155 L20.0393356,9.57746476 C20.0393356,6.23803215 17.8997981,3.3833619 14.8749959,2.24492204 C14.8690955,1.00429181 13.5868408,0 12.0059501,0 C10.4214086,0 9.13688387,1.00893578 9.13688387,2.25352113 C9.13688387,2.28803381 9.13787163,2.32236528 9.13982615,2.35649905 Z"></path>
        </g>
    </g>
</svg>