<?xml version="1.0" encoding="UTF-8"?>
<svg width="26px" height="26px" viewBox="0 0 26 26" version="1.1" xmlns="http://www.w3.org/2000/svg" xmlns:xlink="http://www.w3.org/1999/xlink">
    <title>Group 18</title>
    <g class="icon-stroke" fill-rule="evenodd" stroke="#000000" fill="#000000" stroke-linecap="round" stroke-linejoin="round">
        <g class="icon-stroke" id="Medium-Copy-26" transform="translate(-1355, -47)">
            <g class="icon-stroke" id="Group-18" transform="translate(1356, 48)">
                <path d="M19.7242097,14.3225806 L19.7242097,15.0351331 C19.7242097,15.1798729 19.7179877,15.322969 19.7058295,15.4643458 L21.9139177,16.6072915 C22.4164445,16.8673995 22.7349501,17.4067282 22.7349501,17.9975538 L22.7349501,21.6774194 L13.9083351,21.6773808 C13.7304206,22.9905457 12.6606194,24 11.3674751,24 C10.0743308,24 9.00452957,22.9905457 8.82661508,21.6773808 L0,21.6774194 L0,18.0246468 C0,17.4198343 0.333590984,16.870383 0.854159473,16.617777 L3.67174402,15.2506975 C3.66854533,15.1791955 3.66692744,15.1073363 3.66692744,15.0351331 L3.66692744,12 C3.66692744,7.88437145 5.79835734,4.36879879 8.80327301,2.96956015 C8.86648716,1.31801593 10.1545211,0 11.7341678,0 C13.3052228,0 14.5878286,1.30371753 14.6641196,2.94221393 L14.6657925,3.00641535" id="Path" stroke="#404040" stroke-width="1.455" stroke-linecap="round" stroke-linejoin="round"></path>
                <path d="M18.1919072,2 L18.8076454,3.7875 L19.7825643,4.22083333 L21.3732214,3.35416667 L22.3481402,4.38333333 L21.5784674,6.11666667 L21.9889596,7.14583333 L23.6822397,7.74166667 L23.6822397,9.20416667 L21.9889596,9.85416667 L21.5784674,10.8833333 L22.3994518,12.5625 L21.4245329,13.5916667 L19.7825643,12.7791667 L18.8076454,13.2125 L18.2945302,14.7833333 L18.2432187,15 L16.8578077,15 L16.2420694,13.2125 L15.2671506,12.7791667 L13.6764934,13.6458333 L12.7015746,12.6166667 L13.4712474,10.8833333 L13.0607552,9.85416667 L11.3674751,9.25833333 L11.3674751,7.79583333 L13.0607552,7.14583333 L13.4712474,6.11666667 L12.7528861,4.65416667 L12.6502631,4.4375 L13.6251819,3.40833333 L15.2671506,4.22083333 L16.2420694,3.7875 L16.7551846,2.21666667 L16.8064961,2 L18.1919072,2 Z M17.5248574,6 C16.2169234,6 15.1566334,7.11928813 15.1566334,8.5 C15.1566334,9.88071187 16.2169234,11 17.5248574,11 C18.8327914,11 19.8930814,9.88071187 19.8930814,8.5 C19.8930814,7.11928813 18.8327914,6 17.5248574,6 Z" id="Combined-Shape" fill="#404040" fill-rule="nonzero" transform="translate(17.5249, 8.5) rotate(-3) translate(-17.5249, -8.5)"></path>
            </g>
        </g>
    </g>
</svg>