<?xml version="1.0" encoding="UTF-8"?>
<svg width="24px" height="24px" viewBox="0 0 24 24" version="1.1" xmlns="http://www.w3.org/2000/svg" xmlns:xlink="http://www.w3.org/1999/xlink">
    <!-- Generator: Sketch 43.2 (39069) - http://www.bohemiancoding.com/sketch -->
    <title>notification-off</title>
    <desc>Created with Sketch.</desc>
    <defs></defs>
    <g id="Icons" stroke="none" stroke-width="1">
        <g id="notification-off">
            <path d="M12.0059501,24 C13.2683393,24 14.3012031,22.9859155 14.3012031,21.7464789 L9.71069712,21.7464789 C9.71069712,23.0985915 10.743561,24 12.0059501,24 Z M2.41046456,18.2015003 C2.45185703,18.0224211 2.51401203,17.8499823 2.5954128,17.6901408 L3.97256461,15.0985915 L3.97256461,9.69014081 C3.97256461,6.34963305 6.11348007,3.49419985 9.13982615,2.35649905 C9.13787163,2.32236528 9.13688387,2.28803381 9.13688387,2.25352113 C9.13688387,1.00893578 10.4214086,0 12.0059501,0 C13.5868408,0 14.8690955,1.00429181 14.8749959,2.24492204 C15.6887376,2.55118868 16.4384097,2.98166481 17.0995912,3.51237359 L12,8.61196484 L8.58764138,12.0243235 L2.41046456,18.2015003 Z M6.36625955,21.0704225 L15.4123586,12.0243235 L19.7930852,7.64359684 C19.953917,8.26231679 20.0393356,8.91021398 20.0393356,9.57746476 L20.0393356,14.9859155 L21.4164874,17.9154929 C21.7607754,18.5915493 21.7607754,19.3802817 21.3017248,20.056338 C20.8426742,20.6197183 20.1540983,21.0704225 19.3507597,21.0704225 L6.36625955,21.0704225 Z M22.2643392,2.99438903 L13.2568579,12.0018703 L2.9925187,22.2662095 C2.78304239,22.3709476 2.57356608,22.4756858 2.36408978,22.4756858 C2.15461347,22.4756858 1.94513716,22.3709476 1.73566085,22.2662095 C1.42144638,21.951995 1.42144638,21.3235661 1.73566085,21.0093516 L10.7431421,12.0018703 L12,10.7450125 L21.0074813,1.73753117 C21.3216958,1.42331671 21.9501247,1.42331671 22.2643392,1.73753117 C22.5785536,2.05174564 22.5785536,2.68017456 22.2643392,2.99438903 Z"></path>
        </g>
    </g>
</svg>