<svg width="24px" height="24px" viewBox="0 0 24 24" version="1.1" xmlns="http://www.w3.org/2000/svg" xmlns:xlink="http://www.w3.org/1999/xlink">
    <g class="icon-stroke" stroke="none" stroke-width="1" fill-rule="evenodd">
        <g class="icon-stroke">
            <g transform="translate(0.000000, 1.5)">
                <g>
                    <path transform="rotate(1)" d="M 17.949 0.49 L 22.892 5.76 L 23.115 20.205 L 9.568 20.396 L 9.255 0.67 L 17.949 0.49 Z" stroke="#0075C9" stroke-width="1.2"></path>
                    <rect class="u-fill-white" stroke-width="1.2" fill="#FFFFFF" x="0.6" y="4.03905882" width="14.0642245" height="6.21176471" rx="1"></rect>
                    <polyline stroke-linejoin="round" points="18.1712783 1.2 18.1712783 6.279 22.5773578 6.279"></polyline>
                    <g transform="translate(2.544037, 1.852941)"></g>
                </g>
                <g transform="translate(3.387500, 5.385000)" fill="#0075C9" fill-rule="nonzero">
                    <path d="M0.6725,2.3425 L0.6725,3.615 L0,3.615 L0,0 L1.1775,0 C1.41916667,0 1.62833333,0.0283333333 1.805,0.085 C1.98166667,0.141666667 2.1275,0.220833333 2.2425,0.3225 C2.3575,0.424166667 2.4425,0.545833333 2.4975,0.6875 C2.5525,0.829166667 2.58,0.984166667 2.58,1.1525 C2.58,1.3275 2.55083333,1.48791667 2.4925,1.63375 C2.43416667,1.77958333 2.34666667,1.905 2.23,2.01 C2.11333333,2.115 1.9675,2.19666667 1.7925,2.255 C1.6175,2.31333333 1.4125,2.3425 1.1775,2.3425 L0.6725,2.3425 Z M0.6725,1.8175 L1.1775,1.8175 C1.30083333,1.8175 1.40833333,1.80208333 1.5,1.77125 C1.59166667,1.74041667 1.6675,1.69625 1.7275,1.63875 C1.7875,1.58125 1.8325,1.51125 1.8625,1.42875 C1.8925,1.34625 1.9075,1.25416667 1.9075,1.1525 C1.9075,1.05583333 1.8925,0.968333333 1.8625,0.89 C1.8325,0.811666667 1.7875,0.745 1.7275,0.69 C1.6675,0.635 1.59166667,0.592916667 1.5,0.56375 C1.40833333,0.534583333 1.30083333,0.52 1.1775,0.52 L0.6725,0.52 L0.6725,1.8175 Z"></path>
                    <path d="M6.3125,1.8075 C6.3125,2.0725 6.26833333,2.31583333 6.18,2.5375 C6.09166667,2.75916667 5.9675,2.95 5.8075,3.11 C5.6475,3.27 5.455,3.39416667 5.23,3.4825 C5.005,3.57083333 4.75583333,3.615 4.4825,3.615 L3.1025,3.615 L3.1025,0 L4.4825,0 C4.75583333,0 5.005,0.0445833333 5.23,0.13375 C5.455,0.222916667 5.6475,0.347083333 5.8075,0.50625 C5.9675,0.665416667 6.09166667,0.855833333 6.18,1.0775 C6.26833333,1.29916667 6.3125,1.5425 6.3125,1.8075 Z M5.625,1.8075 C5.625,1.60916667 5.59833333,1.43125 5.545,1.27375 C5.49166667,1.11625 5.41583333,0.982916667 5.3175,0.87375 C5.21916667,0.764583333 5.09958333,0.680833333 4.95875,0.6225 C4.81791667,0.564166667 4.65916667,0.535 4.4825,0.535 L3.78,0.535 L3.78,3.08 L4.4825,3.08 C4.65916667,3.08 4.81791667,3.05083333 4.95875,2.9925 C5.09958333,2.93416667 5.21916667,2.85041667 5.3175,2.74125 C5.41583333,2.63208333 5.49166667,2.49875 5.545,2.34125 C5.59833333,2.18375 5.625,2.00583333 5.625,1.8075 Z"></path>
                    <polygon points="9.12 0 9.12 0.535 7.5175 0.535 7.5175 1.605 8.87 1.605 8.87 2.1425 7.5175 2.1425 7.5175 3.615 6.84 3.615 6.84 0"></polygon>
                </g>
            </g>
        </g>
    </g>
</svg>
