<?xml version="1.0" encoding="UTF-8" standalone="no"?>
<svg width="24px" height="24px" viewBox="0 0 24 24" version="1.1" xmlns="http://www.w3.org/2000/svg" xmlns:xlink="http://www.w3.org/1999/xlink">
    <!-- Generator: Sketch 39.1 (31720) - http://www.bohemiancoding.com/sketch -->
    <title>phone</title>
    <desc>Created with Sketch.</desc>
    <defs></defs>
    <g>
      <path d="M21.3318982,16.6168801 L19.1511235,14.4361054 C18.261211,13.5453038 16.8201038,13.5453038 15.9284133,14.4361054 L15.3443248,15.0201939 C13.0595344,13.1301299 10.8654244,10.9360198 8.97980548,8.6547855 L9.56389393,8.07069706 C10.4520284,7.18256257 10.4520284,5.73701034 9.56389393,4.84887585 L7.38311925,2.66810117 C6.49320672,1.77729961 5.05121058,1.77729961 4.16040902,2.66810117 L2.96378337,3.86472682 C1.85872715,4.96889402 1.68270049,6.71938132 2.54594232,8.02535686 C6.04336082,13.3123797 10.6867306,17.9557495 15.9746425,21.453168 C17.2637266,22.3057415 19.0053236,22.1670539 20.1352725,21.0353269 L21.3318982,19.8387013 C22.2244778,18.9487888 22.2209217,17.5050146 21.3318982,16.6168801 L21.3318982,16.6168801 Z"></path>
    </g>
</svg>