<svg width="24px" height="24px" viewBox="0 0 24 24" version="1.1" xmlns="http://www.w3.org/2000/svg">
    <g class="icon-stroke" stroke="none" stroke-width="1" fill="none" fill-rule="evenodd" stroke-linecap="round" stroke-linejoin="round">
        <path d="M12.5055426,20.7170707 C12.6702034,20.8818489 12.8917288,20.9729616 13.1218016,20.9729616 C13.1460631,20.9729616 13.1704421,20.971963 13.194821,20.9699069 C13.4508589,20.9488177 13.6834576,20.816995 13.8343135,20.6062786 C13.9249268,20.4786268 14.392063,19.7870867 14.6898975,18.7080093 C15.0590772,17.3705736 15.0077639,15.9832639 14.5438881,14.6749067 L19.8385579,8.66508246 C20.8535157,8.85447468 21.916086,8.76817903 22.8645744,8.41512468 C23.1446975,8.3109707 23.3497745,8.07443604 23.4129542,7.78335711 C23.4768388,7.49139702 23.3888396,7.19094835 23.177565,6.9797913 L17.0039309,0.806127786 C16.7925682,0.594706387 16.4920315,0.506648404 16.2010994,0.570298049 C15.9091393,0.633653979 15.6725753,0.838907204 15.5682744,1.11955898 C15.2159838,2.06822367 15.1299525,3.13047081 15.3187572,4.14501744 L9.30896239,9.43968723 C6.05155133,8.28153971 3.48706038,10.0716017 3.37565147,10.1511123 C3.16669734,10.3006758 3.03481597,10.5333627 3.01390293,10.7883431 C2.99228496,11.0448215 3.08436694,11.2963654 3.26647484,11.4784733 L12.5055426,20.7170707 Z" stroke="#000000" fill-rule="nonzero"></path>
        <line x1="7.88268164" y1="16.1457762" x2="1.5" y2="22.5" stroke="#000000"></line>
    </g>
</svg>