<?xml version="1.0" encoding="UTF-8"?>
<svg width="24px" height="24px" viewBox="0 0 24 24" version="1.1" xmlns="http://www.w3.org/2000/svg" xmlns:xlink="http://www.w3.org/1999/xlink">
    <!-- Generator: Sketch 42 (36781) - http://www.bohemiancoding.com/sketch -->
    <title>pin</title>
    <desc>Created with Sketch.</desc>
    <defs></defs>
    <g id="Icons" stroke="none" stroke-width="1">
        <g id="pin">
            <path d="M4,8.006 C4,12.25 11.1739912,22.7586244 11.1739912,22.7586244 C11.6301833,23.4475309 12.3751265,23.4452414 12.8260088,22.7586244 C12.8260088,22.7586244 20,12.25 20,8.006 C20,3.595 16.411,0.006 12,0.006 C7.589,0.006 4,3.594 4,8.006 Z M12,11.506 C10.07,11.506 8.5,9.935 8.5,8.006 C8.5,6.077 10.07,4.506 12,4.506 C13.93,4.506 15.5,6.077 15.5,8.006 C15.5,9.935 13.93,11.506 12,11.506 L12,11.506 Z"></path>
        </g>
    </g>
</svg>