<svg xmlns="http://www.w3.org/2000/svg" xmlns:xlink="http://www.w3.org/1999/xlink" width="24" height="24" viewBox="0 0 24 24" version="1.1">
  <g class="icon-stroke" fill="none" fill-rule="evenodd" stroke="#000000" stroke-width="2" stroke-linecap="round" stroke-linejoin="round" transform="translate(1, 3)">
    <path style="fill:none;stroke-width:1;stroke-linecap:round;stroke-linejoin:round;stroke:rgb(0%,0%,0%);stroke-opacity:1;stroke-miterlimit:4;" d="M 0 16.500665 C 0 16.500665 9.277174 0.00159088 23.372283 0.00159088 C 37.402174 0.00159088 46.752717 16.500665 46.752717 16.500665 C 46.752717 16.500665 37.328804 32.99974 23.372283 32.99974 C 9.350543 32.99974 0 16.500665 0 16.500665 Z M 0 16.500665 " transform="matrix(0.479167,0,0,0.503106,0,0.503106)"/>
    <path style="fill:none;stroke-width:1;stroke-linecap:round;stroke-linejoin:round;stroke:rgb(0%,0%,0%);stroke-opacity:1;stroke-miterlimit:4;" d="M 15.195652 16.500665 C 15.195652 11.943039 18.855978 8.25501 23.372283 8.25501 C 27.896739 8.25501 31.557065 11.943039 31.557065 16.500665 C 31.557065 21.058292 27.896739 24.746321 23.372283 24.746321 C 18.855978 24.746321 15.195652 21.058292 15.195652 16.500665 Z M 15.195652 16.500665 " transform="matrix(0.479167,0,0,0.503106,0,0.503106)"/>
  </g>
</svg>
