<?xml version="1.0" encoding="UTF-8"?>
<svg width="24px" height="24px" viewBox="0 0 24 24" version="1.1" xmlns="http://www.w3.org/2000/svg" xmlns:xlink="http://www.w3.org/1999/xlink">
    <!-- Generator: Sketch 42 (36781) - http://www.bohemiancoding.com/sketch -->
    <title>print</title>
    <desc>Created with Sketch.</desc>
    <defs></defs>
    <g id="Icons" stroke="none" stroke-width="1">
        <g id="print">
            <path d="M17.710881,21.3076923 C18.1254577,21.3076923 18.4615385,20.9669471 18.4615385,20.5604988 L18.4615385,17.6153846 L5.53846154,17.6153846 L5.53846154,20.5604988 C5.53846154,20.9731624 5.88412263,21.3076923 6.289119,21.3076923 L17.710881,21.3076923 Z M18.4615385,12.0769231 L18.4615385,5.53846154 L16.5197438,5.53957143 C16.105672,5.5398081 15.7699061,5.20968155 15.7697861,4.78961363 L15.7692308,2.84615385 L6.29075443,2.84615385 C5.87527454,2.84615385 5.53846154,3.17468181 5.53846154,3.60154643 L5.53846154,12.0769231 L18.4615385,12.0769231 Z M22.1538462,13 C22.1538462,12.75 22.0625,12.5336538 21.8798077,12.3509615 C21.6971154,12.1682692 21.4807692,12.0769231 21.2307692,12.0769231 C20.9807692,12.0769231 20.7644231,12.1682692 20.5817308,12.3509615 C20.3990385,12.5336538 20.3076923,12.75 20.3076923,13 C20.3076923,13.25 20.3990385,13.4663462 20.5817308,13.6490385 C20.7644231,13.8317308 20.9807692,13.9230769 21.2307692,13.9230769 C21.4807692,13.9230769 21.6971154,13.8317308 21.8798077,13.6490385 C22.0625,13.4663462 22.1538462,13.25 22.1538462,13 L22.1538462,13 Z M24,19 C24,19.125 23.9543269,19.2331731 23.8629808,19.3245192 C23.7716346,19.4158654 23.6634615,19.4615385 23.5384615,19.4615385 L20.3076923,19.4615385 L20.3090611,21.6497613 C20.3095793,22.47832 19.6378913,23.1499996 18.8057724,23.1499996 L5.1942271,23.1499996 C4.36346544,23.1499996 3.69042331,22.473479 3.69093866,21.6497613 L3.69230769,19.4615385 L0.461538462,19.4615385 C0.336538462,19.4615385 0.228365385,19.4158654 0.137019231,19.3245192 C0.0456730769,19.2331731 0,19.125 0,19 L0,13 C0,12.2403846 0.271634615,11.5889423 0.814903846,11.0456731 C1.35817308,10.5024038 2.00961538,10.2307692 2.76923077,10.2307692 L3.69230769,10.2307692 L3.69037595,2.5036267 C3.69016835,1.67319661 4.36210826,1 5.1942271,1 L18.8057724,1 C19.6365341,1 20.3096978,1.6782483 20.3093321,2.50798136 C20.3093321,2.50798136 20.3076923,6.15384615 20.3076923,6.53846154 L20.3076923,10.2307692 L21.2307692,10.2307692 C21.9903846,10.2307692 22.6418269,10.5024038 23.1850962,11.0456731 C23.7283654,11.5889423 24,12.2403846 24,13 L24,19 Z"></path>
        </g>
    </g>
</svg>