<?xml version="1.0" encoding="UTF-8" standalone="no"?>
<svg width="24px" height="24px" viewBox="0 0 24 24" version="1.1" xmlns="http://www.w3.org/2000/svg" xmlns:xlink="http://www.w3.org/1999/xlink">
    <g>
      <path d="M5.53846154,21.3076923 L18.4615385,21.3076923 L18.4615385,17.6153846 L5.53846154,17.6153846 L5.53846154,21.3076923 L5.53846154,21.3076923 Z M5.53846154,12.0769231 L18.4615385,12.0769231 L18.4615385,6.53846154 L16.1538462,6.53846154 C15.7692308,6.53846154 15.4423077,6.40384615 15.1730769,6.13461538 C14.9038462,5.86538462 14.7692308,5.53846154 14.7692308,5.15384615 L14.7692308,2.84615385 L5.53846154,2.84615385 L5.53846154,12.0769231 L5.53846154,12.0769231 Z M22.1538462,13 C22.1538462,12.75 22.0625,12.5336538 21.8798077,12.3509615 C21.6971154,12.1682692 21.4807692,12.0769231 21.2307692,12.0769231 C20.9807692,12.0769231 20.7644231,12.1682692 20.5817308,12.3509615 C20.3990385,12.5336538 20.3076923,12.75 20.3076923,13 C20.3076923,13.25 20.3990385,13.4663462 20.5817308,13.6490385 C20.7644231,13.8317308 20.9807692,13.9230769 21.2307692,13.9230769 C21.4807692,13.9230769 21.6971154,13.8317308 21.8798077,13.6490385 C22.0625,13.4663462 22.1538462,13.25 22.1538462,13 L22.1538462,13 Z M24,13 L24,19 C24,19.125 23.9543269,19.2331731 23.8629808,19.3245192 C23.7716346,19.4158654 23.6634615,19.4615385 23.5384615,19.4615385 L20.3076923,19.4615385 L20.3076923,21.7692308 C20.3076923,22.1538462 20.1730769,22.4807692 19.9038462,22.75 C19.6346154,23.0192308 19.3076923,23.1538462 18.9230769,23.1538462 L5.07692308,23.1538462 C4.69230769,23.1538462 4.36538462,23.0192308 4.09615385,22.75 C3.82692308,22.4807692 3.69230769,22.1538462 3.69230769,21.7692308 L3.69230769,19.4615385 L0.461538462,19.4615385 C0.336538462,19.4615385 0.228365385,19.4158654 0.137019231,19.3245192 C0.0456730769,19.2331731 0,19.125 0,19 L0,13 C0,12.2403846 0.271634615,11.5889423 0.814903846,11.0456731 C1.35817308,10.5024038 2.00961538,10.2307692 2.76923077,10.2307692 L3.69230769,10.2307692 L3.69230769,2.38461538 C3.69230769,2 3.82692308,1.67307692 4.09615385,1.40384615 C4.36538462,1.13461538 4.69230769,1 5.07692308,1 L14.7692308,1 C15.1538462,1 15.5769231,1.09615385 16.0384615,1.28846154 C16.5,1.48076923 16.8653846,1.71153846 17.1346154,1.98076923 L19.3269231,4.17307692 C19.5961538,4.44230769 19.8269231,4.80769231 20.0192308,5.26923077 C20.2115385,5.73076923 20.3076923,6.15384615 20.3076923,6.53846154 L20.3076923,10.2307692 L21.2307692,10.2307692 C21.9903846,10.2307692 22.6418269,10.5024038 23.1850962,11.0456731 C23.7283654,11.5889423 24,12.2403846 24,13 L24,13 Z"></path>
    </g>
</svg>