<?xml version="1.0" encoding="UTF-8"?>
<svg width="24px" height="24px" viewBox="0 0 24 24" version="1.1" xmlns="http://www.w3.org/2000/svg" xmlns:xlink="http://www.w3.org/1999/xlink">
    <!-- Generator: Sketch 42 (36781) - http://www.bohemiancoding.com/sketch -->
    <title>question-circle</title>
    <desc>Created with Sketch.</desc>
    <defs></defs>
    <g id="Icons" stroke="none" stroke-width="1">
        <g id="question-circle">
            <path d="M12,0 C5.3725,0 0,5.3725 0,12 C0,18.6275 5.3725,24 12,24 C18.62625,24 24,18.6275 24,11.99875 C24,5.3725 18.62625,4.16333634e-16 12,4.16333634e-16 L12,0 Z M11.81125,18.99875 L11.7475,18.99875 C10.77,18.97 10.08,18.24875 10.10875,17.285 C10.13625,16.3375 10.8425,15.64875 11.7875,15.64875 L11.845,15.65125 C12.85,15.68 13.5325,16.39375 13.50375,17.385 C13.475,18.335 12.78125,18.99875 11.81125,18.99875 L11.81125,18.99875 Z M15.925,10.835 C15.695,11.16 15.19,11.5675 14.5525,12.06375 L13.85,12.5475 C13.465,12.8475 13.2325,13.13125 13.14625,13.4075 C13.07625,13.625 13.04375,13.68375 13.0375,14.1275 L13.0375,14.24 L10.35625,14.24 L10.36375,14.0125 C10.3975,13.0825 10.42,12.5325 10.80625,12.07875 C11.4125,11.36875 12.75,10.50625 12.80625,10.47 C12.99875,10.32625 13.16,10.1625 13.28,9.98625 C13.56125,9.5975 13.685,9.2925 13.685,8.995 C13.685,8.5775 13.5625,8.19125 13.31875,7.85 C13.08375,7.5175 12.6375,7.3525 11.9925,7.3525 C11.3525,7.3525 10.91375,7.555 10.6525,7.9725 C10.3825,8.39875 10.24625,8.8475 10.24625,9.30625 L10.24625,9.42125 L7.4825,9.42125 L7.4875,9.30125 C7.55875,7.61 8.16375,6.39125 9.28125,5.68 C9.985,5.22875 10.86125,5 11.8825,5 C13.2175,5 14.3475,5.325 15.235,5.965 C16.13625,6.61375 16.5925,7.58625 16.5925,8.85375 C16.59125,9.5625 16.3675,10.22875 15.925,10.835 L15.925,10.835 Z"></path>
        </g>
    </g>
</svg>