<?xml version="1.0" encoding="UTF-8"?>
<svg width="24px" height="24px" viewBox="0 0 24 24" version="1.1" xmlns="http://www.w3.org/2000/svg" xmlns:xlink="http://www.w3.org/1999/xlink">
    <!-- Generator: Sketch 42 (36781) - http://www.bohemiancoding.com/sketch -->
    <title>reply</title>
    <desc>Created with Sketch.</desc>
    <defs></defs>
    <g id="Icons" stroke="none" stroke-width="1">
        <g id="reply">
            <path d="M10.3678778,8.27156564 L10.3692577,5.49398637 C10.3696676,4.66888048 9.84149334,4.41448682 9.19052523,4.92501542 L1.17947466,11.2077662 C0.528068792,11.7186381 0.528506541,12.5472684 1.17947466,13.057797 L9.19052523,19.3405478 C9.84193109,19.8514197 10.3696776,19.5926043 10.3692814,18.7654614 L10.3678778,15.8346596 C10.9201037,15.7124278 12.0147333,15.5159838 13.3669228,15.5159838 C16.3899777,15.5159838 20.5229412,16.4861989 22.9926788,21.1179119 C23.1072712,21.3318176 23.3495521,21.4551407 23.5961984,21.3929335 C23.8439362,21.3307262 23.9978173,21.109181 24,20.8658087 C24,9.16320313 14.1723432,8.25192124 11.1580192,8.25192124 C10.8502569,8.25192124 10.5839662,8.25956073 10.3678778,8.27156564 Z" id="forward"></path>
        </g>
    </g>
</svg>