<svg xmlns="http://www.w3.org/2000/svg" width="24" height="24" viewBox="0 0 24 24">
  <g
     class="icon-fill"
     transform="matrix(1.1999641,0,0,1.1999641,-2.5287984,-16.322551)">
    <path class="icon-fill" d="m 12.842135,17.631687 c -0.344375,-0.01079 -0.836177,0.232122 -1.900425,0.880564 -1.2411186,0.756209 -1.9522585,0.8444 -3.3357025,0.413874 -2.5009496,-0.778292 -4.1012901,0.104936 -4.9760664,2.746087 -0.3809986,1.150324 -0.6498964,2.931535 -0.4602035,3.048771 0.073055,0.04515 0.1328104,-0.03279 0.1328104,-0.172962 0,-0.544282 0.5030149,-2.429566 0.7230446,-2.709951 0.207577,-0.264515 0.2213643,-0.178531 0.1321927,0.820954 -0.1265375,1.418304 0.1223343,2.663486 0.8289841,4.149245 l 0.5488467,1.153906 0.8719158,-0.04695 0.8716069,-0.04725 0.2931095,-0.867901 c 0.3558338,-1.053619 0.9168402,-1.583224 1.6771175,-1.583224 1.0883074,0 1.7707352,0.606968 2.1135392,1.88004 l 0.179139,0.665597 0.900949,-0.04725 0.901257,-0.04725 0.101616,-0.790686 c 0.130477,-1.014708 0.380274,-1.642785 0.702351,-1.766378 0.140383,-0.05387 0.799519,0.07244 1.46493,0.280755 1.731779,0.54213 3.446124,0.522988 4.545205,-0.05065 1.220926,-0.637236 2.30226,-2.065189 2.668871,-3.524109 0.185804,-0.739395 0.353287,-2.292987 0.247089,-2.292987 -0.05254,0 -0.448647,0.361339 -0.880253,0.80304 -0.8042,0.823006 -1.450586,1.252741 -1.884057,1.252741 -0.410307,0 -0.877475,-0.5985 -0.877475,-1.123946 0,-0.405731 -0.04821,-0.471429 -0.27674,-0.377738 -0.152207,0.0624 -0.566701,0.148958 -0.921025,0.192421 -0.892203,0.109438 -1.699599,-0.337222 -2.831023,-1.566241 -0.505685,-0.549304 -1.068468,-1.081447 -1.25058,-1.18263 -0.09778,-0.05433 -0.196232,-0.08628 -0.311024,-0.08988 z m 5.036294,4.915221 a 0.40907307,0.40907307 0 0 1 9.09e-4,0 0.40907307,0.40907307 0 0 1 0.409242,0.408932 0.40907307,0.40907307 0 0 1 -0.409242,0.408933 0.40907307,0.40907307 0 0 1 -0.408932,-0.408933 0.40907307,0.40907307 0 0 1 0.408005,-0.408932 z"/>
  </g>
</svg>
