<?xml version="1.0" encoding="utf-8"?>
<!-- Generator: Adobe Illustrator 21.1.0, SVG Export Plug-In . SVG Version: 6.00 Build 0)  -->
<svg version="1.1" id="Layer_1" xmlns="http://www.w3.org/2000/svg" xmlns:xlink="http://www.w3.org/1999/xlink" x="0px" y="0px"
	 viewBox="0 0 24 24" style="enable-background:new 0 0 24 24;" xml:space="preserve">
<g>
	<path d="M24,8.5H10.1v13.9H24V8.5z M22.5,20.9H11.6V10.1h10.8V20.9z"/>
	<path d="M8.5,3.1h2.3c0.4,0,0.8-0.3,0.8-0.8s-0.3-0.8-0.8-0.8H8.5C5.5,1.5,3.1,4,3.1,7v3.6L1.3,8.7C1,8.4,0.5,8.4,0.2,8.7
		c-0.3,0.3-0.3,0.8,0,1.1l3.1,3.1c0.2,0.2,0.3,0.2,0.5,0.2s0.4-0.1,0.5-0.2l3.1-3.1c0.3-0.3,0.3-0.8,0-1.1c-0.3-0.3-0.8-0.3-1.1,0
		l-1.8,1.8V7C4.6,4.8,6.4,3.1,8.5,3.1z"/>
</g>
</svg>
