<?xml version="1.0" encoding="UTF-8"?>
<svg width="24px" height="24px" viewBox="0 0 24 24" version="1.1" xmlns="http://www.w3.org/2000/svg" xmlns:xlink="http://www.w3.org/1999/xlink">
    <title>Group 28</title>
    <g class="icon-stroke" id="Rosh-Pharm-/-V-card" stroke="none" stroke-width="1" fill="none" fill-rule="evenodd">
        <g class="icon-stroke" id="Group-28">
            <g class="icon-stroke" id="Group-25" transform="translate(3, 0)" stroke="#0075C9" stroke-width="1.25">
                <path d="M13.0209146,0.625 L17.375,5.0135451 L17.375,21 C17.375,21.3796958 17.2210979,21.7234458 16.9722718,21.9722718 C16.7234458,22.2210979 16.3796958,22.375 16,22.375 L2,22.375 C1.62030423,22.375 1.27655423,22.2210979 1.02772818,21.9722718 C0.778902117,21.7234458 0.625,21.3796958 0.625,21 L0.625,2 C0.625,1.62030423 0.778902117,1.27655423 1.02772818,1.02772818 C1.27655423,0.778902117 1.62030423,0.625 2,0.625 L13.0209146,0.625 Z" id="Rectangle"></path>
                <path d="M13.1191101,0.787055969 L13.1191101,3.78705597 C13.1191101,4.33934072 13.5668254,4.78705597 14.1191101,4.78705597 L17.0784836,4.78705597 L17.0784836,4.78705597" id="Path-21" stroke-linecap="round"></path>
                <circle id="Oval" cx="9.5" cy="9.5" r="3.875"></circle>
                <path d="M9.5,5.85524368 L9.5,9.5 C11.3445028,10.8333333 12.2667542,11.5 12.2667542,11.5" id="Path-22"></path>
                <path d="M4.32339478,15.7303238 C7.57175659,15.7303238 9.1959375,15.7303238 9.1959375,15.7303238" id="Path-23" stroke-linecap="round"></path>
                <path d="M4.32339478,17.7303238 C10.9900614,17.7303238 14.3233948,17.7303238 14.3233948,17.7303238" id="Path-23-Copy" stroke-linecap="round"></path>
                <path d="M4.32339478,19.7303238 C10.9900614,19.7303238 14.3233948,19.7303238 14.3233948,19.7303238" id="Path-23-Copy-2" stroke-linecap="round"></path>
            </g>
        </g>
    </g>
</svg>