<?xml version="1.0" encoding="UTF-8"?>
<svg width="24px" height="24px" viewBox="0 0 24 24" version="1.1" xmlns="http://www.w3.org/2000/svg" xmlns:xlink="http://www.w3.org/1999/xlink">
    <!-- Generator: Sketch 42 (36781) - http://www.bohemiancoding.com/sketch -->
    <title>sms-dots</title>
    <desc>Created with Sketch.</desc>
    <defs></defs>
    <g id="Icons" stroke="none" stroke-width="1">
        <g id="sms-dots">
            <path d="M12,1 C18.617,1 24,5.435 24,10.884 C24,16.333 18.617,20.766 12,20.766 C10.629,20.766 9.288,20.578 8.01,20.208 L1.573,23.203 C1.152,23.403 0.701,22.952 0.915,22.526 L3.325,17.714 C1.177,15.868 0,13.457 0,10.883 C0,5.434 5.383,1 12,1 Z M7,12 C7.829,12 8.5,11.328 8.5,10.5 C8.5,9.672 7.829,9 7,9 C6.171,9 5.5,9.672 5.5,10.5 C5.5,11.328 6.171,12 7,12 Z M12,12 C12.829,12 13.5,11.328 13.5,10.5 C13.5,9.672 12.829,9 12,9 C11.171,9 10.5,9.672 10.5,10.5 C10.5,11.328 11.171,12 12,12 Z M17,12 C17.829,12 18.5,11.328 18.5,10.5 C18.5,9.672 17.829,9 17,9 C16.171,9 15.5,9.672 15.5,10.5 C15.5,11.328 16.171,12 17,12 Z"></path>
        </g>
    </g>
</svg>