<?xml version="1.0" encoding="UTF-8"?>
<svg width="24px" height="24px" viewBox="0 0 24 24" version="1.1" xmlns="http://www.w3.org/2000/svg" xmlns:xlink="http://www.w3.org/1999/xlink">
    <!-- Generator: Sketch 42 (36781) - http://www.bohemiancoding.com/sketch -->
    <title>sms-check</title>
    <desc>Created with Sketch.</desc>
    <defs></defs>
    <g id="Icons" stroke="none" stroke-width="1">
        <g id="sms-check">
            <path d="M12,1 C18.616,1 24,5.434 24,10.883 C24,16.332 18.617,20.765 12,20.765 C10.629,20.765 9.288,20.577 8.01,20.207 L1.573,23.202 C1.151,23.402 0.701,22.951 0.915,22.525 L3.325,17.714 C1.177,15.868 0,13.456 0,10.883 C0,5.434 5.383,1 12,1 Z M17.7881963,5.09127384 C17.5621949,4.93227288 17.250693,4.98627321 17.0916921,5.21227457 L9.68364727,15.7258381 L6.85363016,12.896321 C6.65862898,12.7008198 6.34162707,12.7008198 6.14662589,12.896321 C5.9511247,13.0923222 5.9511247,13.4088241 6.14662589,13.6028253 L9.39664554,16.8528449 C9.4906461,16.9478455 9.61814687,16.9998458 9.75014767,16.9998458 C9.90914863,16.9998458 10.0636496,16.9233454 10.1586501,16.7878446 L17.908697,5.78777805 C18.067698,5.56127668 18.0136976,5.2497748 17.7881963,5.09127384 Z" id="Combined-Shape"></path>
        </g>
    </g>
</svg>