<?xml version="1.0" encoding="UTF-8"?>
<svg width="24px" height="24px" viewBox="0 0 24 24" version="1.1" xmlns="http://www.w3.org/2000/svg" xmlns:xlink="http://www.w3.org/1999/xlink">
    <path d="M12,1 C5.383,1 0,5.434 0,10.883 C0,13.457 1.177,15.868 3.325,17.714 L0.915,22.526 C0.701,22.952 1.152,23.403 1.573,23.203 L8.01,20.208 C9.288,20.578 10.629,20.766 12,20.766 C18.617,20.766 24,16.333 24,10.884 C24,5.435 18.617,1 12,1 Z M7,12 C6.171,12 5.5,11.328 5.5,10.5 C5.5,9.672 6.171,9 7,9 C7.829,9 8.5,9.672 8.5,10.5 C8.5,11.328 7.829,12 7,12 Z M12,12 C11.171,12 10.5,11.328 10.5,10.5 C10.5,9.672 11.171,9 12,9 C12.829,9 13.5,9.672 13.5,10.5 C13.5,11.328 12.829,12 12,12 Z M17,12 C16.171,12 15.5,11.328 15.5,10.5 C15.5,9.672 16.171,9 17,9 C17.829,9 18.5,9.672 18.5,10.5 C18.5,11.328 17.829,12 17,12 Z"></path>
</svg>