<svg width="24px" height="24px" viewBox="0 0 24 24" version="1.1" xmlns="http://www.w3.org/2000/svg" xmlns:xlink="http://www.w3.org/1999/xlink">
    <g class="icon-stroke"
      stroke-width="1"
      fill="none"
      fill-rule="evenodd"
      stroke-linecap="round"
      transform="translate(1, 5)"
      stroke="#000000">
      <path d="M10.2471564,14.9414529 C10.5931125,15.1235528 11,14.8588067 11,14.451785 L11,0.548171947 C11,0.141150241 10.5931125,-0.123488806 10.2471564,0.0585040664 L4.49997226,4.18578124 L1.23836209,4.19712903 C0.554485935,4.19712903 0,4.81322843 0,5.57320925 L0,9.34645676 C0,10.1064376 0.554485935,10.722537 1.23836209,10.722537 L4.25868797,10.722537 L10.2471564,14.9414529 Z">
      </path>
      <path d="M14,5 C15.3333333,6.38066361 15.3333333,8.61924044 14,10">
      </path>
      <path d="M16,2 C18.6299994,4.78865405 18.6715413,9.26578141 16.0927803,12">
      </path>
      <path d="M18,0 C21.9449864,3.90398801 22.007347,10.1720617 18.1391039,14">
      </path>
    </g>
</svg>
