<?xml version="1.0" encoding="UTF-8"?>
<svg width="24px" height="24px" viewBox="0 0 24 24" version="1.1" xmlns="http://www.w3.org/2000/svg" xmlns:xlink="http://www.w3.org/1999/xlink">
    <!-- Generator: Sketch 42 (36781) - http://www.bohemiancoding.com/sketch -->
    <title>star</title>
    <desc>Created with Sketch.</desc>
    <defs></defs>
    <g id="Icons" stroke="none" stroke-width="1">
        <g id="star">
            <path d="M23.9736315,8.336 C23.9036315,8.135 23.7136315,8 23.5006315,8 L15.3546315,8 L12.4726315,0.334 C12.4016315,0.134 12.2136315,0 12.0006315,0 C11.7876315,0 11.5996315,0.134 11.5286315,0.334 L8.64663149,8 L0.500631486,8 C0.287631486,8 0.0976314863,8.135 0.0276314863,8.336 C-0.0423685137,8.538 0.0236314863,8.761 0.191631486,8.893 L6.91463149,14.676 L4.02563149,23.342 C3.95663149,23.548 4.02963149,23.777 4.20563149,23.904 C4.38163149,24.032 4.61963149,24.032 4.79563149,23.903 L12.0006315,18.62 L19.2056315,23.903 C19.3816315,24.032 19.6196315,24.032 19.7956315,23.904 C19.9716315,23.776 20.0446315,23.548 19.9756315,23.342 L17.0866315,14.676 L23.8096315,8.893 C23.9776315,8.761 24.0436315,8.538 23.9736315,8.336 L23.9736315,8.336 Z"></path>
        </g>
    </g>
</svg>