<?xml version="1.0" encoding="utf-8"?>
<!-- Generator: Adobe Illustrator 21.1.0, SVG Export Plug-In . SVG Version: 6.00 Build 0)  -->
<svg version="1.1" id="Layer_1" xmlns="http://www.w3.org/2000/svg" xmlns:xlink="http://www.w3.org/1999/xlink" x="0px" y="0px"
	 viewBox="0 0 24 24" style="enable-background:new 0 0 24 24;" xml:space="preserve">
<path d="M23.6,13.2L10.8,0.5C10.5,0.2,10.1,0,9.7,0H1.6C0.7,0,0,0.7,0,1.6v8.1c0,0.4,0.2,0.8,0.5,1.1l12.7,12.7
	c0.6,0.6,1.6,0.6,2.3,0l8.1-8.1C24.1,14.8,24.1,13.8,23.6,13.2z M6.4,8.4c-1.1,0-2-0.9-2-2s0.9-2,2-2s2,0.9,2,2S7.5,8.4,6.4,8.4z"/>
</svg>
