<?xml version="1.0" encoding="UTF-8"?>
<svg width="24px" height="24px" viewBox="0 0 24 24" version="1.1" xmlns="http://www.w3.org/2000/svg" xmlns:xlink="http://www.w3.org/1999/xlink">
    <!-- Generator: Sketch 42 (36781) - http://www.bohemiancoding.com/sketch -->
    <title>tag</title>
    <desc>Created with Sketch.</desc>
    <defs></defs>
    <g id="Icons" stroke="none" stroke-width="1">
        <g id="tag">
            <path d="M9.75871977,0.553970007 C9.46585828,0.254629967 8.89995291,0.0114554724 8.47313214,0.0107909383 L1.50209842,-6.25394524e-05 C0.671753635,-0.00135533605 -0.000783255986,0.661973162 -3.62041405e-05,1.50240649 L0.00616578315,8.47964219 C0.00653691211,8.89716227 0.241717106,9.46522774 0.549017524,9.76561915 L14.6874468,23.5861756 C15.278522,24.1639618 16.2348792,24.1552092 16.8194836,23.5706725 L23.5715792,16.8193577 C24.1579954,16.2330094 24.1639292,15.2778448 23.5866472,14.6877924 L9.75871977,0.553970007 Z M5.64409051,8.21636625 C4.22861863,8.21636625 3.07797036,7.06469153 3.07797036,5.6502461 C3.07797036,4.23477423 4.22861863,3.08412596 5.64409051,3.08412596 C7.05853593,3.08412596 8.21021065,4.23477423 8.21021065,5.6502461 C8.21021065,7.06469153 7.05853593,8.21636625 5.64409051,8.21636625 L5.64409051,8.21636625 Z"></path>
        </g>
    </g>
</svg>