<?xml version="1.0" encoding="UTF-8" standalone="no"?>
<svg width="24px" height="24px" viewBox="0 0 24 24" version="1.1" xmlns="http://www.w3.org/2000/svg" xmlns:xlink="http://www.w3.org/1999/xlink">
    <!-- Generator: Sketch 39.1 (31720) - http://www.bohemiancoding.com/sketch -->
    <title>tag</title>
    <desc>Created with Sketch.</desc>
    <defs></defs>
    <g id="Icons" stroke="none" stroke-width="1" fill="none" fill-rule="evenodd">
        <g id="tag" fill="#000000">
            <path d="M23.854,14.647 L9.346,0.16 C9.252,0.066 9.125,0.014 8.992,0.014 L0.5,0 C0.224,0 0,0.224 0,0.5 L0.008,9 C0.008,9.132 0.061,9.259 0.155,9.353 L14.646,23.854 C14.841,24.049 15.158,24.049 15.353,23.854 L23.854,15.354 C24.049,15.158 24.049,14.842 23.854,14.647 L23.854,14.647 Z M5.5,8.007 C4.121,8.007 3,6.885 3,5.507 C3,4.128 4.121,3.007 5.5,3.007 C6.878,3.007 8,4.128 8,5.507 C8,6.885 6.878,8.007 5.5,8.007 L5.5,8.007 Z"></path>
        </g>
    </g>
</svg>