<svg xmlns="http://www.w3.org/2000/svg" viewBox="0 0 24 24" id="group-chat">
<g transform="scale(0.3) translate(0, 0)" >
  <g transform="scale(0.3) translate(0, 0)" class="icon-fill" fill="none" fill-rule="evenodd" stroke="#000000"  stroke-width="2" transform="translate(1 1)" stroke-linecap="round" stroke-linejoin="round">
    <path d="M40 5C20.701 5 5 20.701 5 40a34.893 34.893 0 0 0 5.176 18.31L5.051 73.684a1 1 0 0 0 1.265 1.264l15.375-5.124A34.888 34.888 0 0 0 40 75c19.299 0 35-15.701 35-35S59.299 5 40 5zm0 68a32.888 32.888 0 0 1-17.643-5.118 1.002 1.002 0 0 0-.852-.104L7.58 72.418l4.642-13.923a1 1 0 0 0-.104-.851A32.894 32.894 0 0 1 7 40C7 21.804 21.804 7 40 7s33 14.804 33 33-14.804 33-33 33z"></path>
    <path d="M40 41c4.962 0 9-4.037 9-9s-4.038-9-9-9-9 4.037-9 9 4.038 9 9 9zm0-16c3.86 0 7 3.14 7 7s-3.14 7-7 7-7-3.14-7-7 3.14-7 7-7zm17-2c-3.86 0-7 3.14-7 7s3.14 7 7 7 7-3.14 7-7-3.14-7-7-7zm0 12c-2.757 0-5-2.243-5-5s2.243-5 5-5 5 2.243 5 5-2.243 5-5 5z"></path>
    <path d="M53 38c-3.45 0-6.52 1.95-8.036 5h-9.928c-1.515-3.05-4.585-5-8.036-5h-8c-4.962 0-9 4.037-9 9v4a1 1 0 0 0 1 1h14v4a1 1 0 0 0 1 1h28a1 1 0 0 0 1-1v-4h14a1 1 0 0 0 1-1v-4c0-4.963-4.038-9-9-9h-8zM12 50v-3c0-3.86 3.14-7 7-7h8a6.956 6.956 0 0 1 5.79 3.091A9.012 9.012 0 0 0 25.232 50H12zm41 5H27v-3c0-3.86 3.14-7 7-7h12c3.86 0 7 3.14 7 7v3zm15-8v3H54.768a9.012 9.012 0 0 0-7.558-6.909A6.956 6.956 0 0 1 53 40h8c3.86 0 7 3.14 7 7zM23 37c3.86 0 7-3.14 7-7s-3.14-7-7-7-7 3.14-7 7 3.14 7 7 7zm0-12c2.757 0 5 2.243 5 5s-2.243 5-5 5-5-2.243-5-5 2.243-5 5-5z"></path>
  </g>
  </g>
</svg>
