<svg xmlns="http://www.w3.org/2000/svg" width="24" height="24" viewBox="0 0 24 24">
  <g class="icon-stroke" fill="none" fill-rule="evenodd" stroke="#000000" stroke-width="2" stroke-linecap="round" stroke-linejoin="round">
    <path d="M22.8,9.8c-1.2-6-7-9.8-13-8.6 M8.2,1.7c-5,1.8-8.1,7.1-7,12.5 M23,11.6c0-0.6-0.1-1.2-0.2-1.8 M1.2,14.2
      c0,0.2,0.1,0.3,0.1,0.5"/>
    <path d="M9.2,22.6c0.4-0.5,0.8-1,1.2-1.5 M10.8,20.3c1.3-2.4,1.8-5.3,1.2-8.3"/>
    <path d="M10.7,22.9c1.1-1.5,2-3.1,2.5-5 M13.4,16.7c0.3-1.6,0.3-3.3-0.1-5c-0.1-0.7-0.9-1.2-1.6-1.1
      c-0.7,0.2-1.2,0.9-1.1,1.6c0.8,3.7-0.5,7.4-2.9,9.9"/>
    <path d="M12.4,23c0.5-0.7,0.9-1.5,1.3-2.2 M14,19.9c1-2.6,1.3-5.5,0.7-8.5C14.4,10,12.9,9,11.5,9.3 M10.5,9.7
      c-0.9,0.6-1.4,1.7-1.2,2.9c0.5,2.4,0,4.7-1.1,6.7 M7.7,20c-0.4,0.5-0.8,1-1.3,1.5"/>
    <path d="M14.1,22.8c2-3.4,2.8-7.5,1.9-11.6l0,0C15.6,9,13.4,7.5,11.2,8C8.9,8.4,7.5,10.6,8,12.8l0,0
      c0.6,3-0.5,6-2.7,7.9"/>
    <path d="M15.9,22.3c1.7-3.4,2.3-7.4,1.4-11.4c-0.6-3-3.5-4.9-6.5-4.3s-4.9,3.5-4.3,6.5C7,15.7,6,18.2,4.1,19.8"/>
    <path d="M3.3,18.7c1.4-1.1,2.2-2.9,2-4.8 M5.2,12.7C4.8,9.2,7.1,6,10.6,5.3c2.1-0.4,4.3,0.2,5.8,1.5 M17.2,7.5
      c0.7,0.9,1.3,1.9,1.5,3.1c0.3,1.7,0.5,3.4,0.3,5.1 M19,16.6c-0.2,1.6-0.6,3.2-1.1,4.7"/>
    <path d="M19.8,19.8c0.6-2.2,0.8-4.5,0.6-6.8 M20.3,11.7c-0.1-0.4-0.1-0.9-0.2-1.3c-0.9-4.5-5.3-7.4-9.7-6.5 M9,4.3
      c-3.7,1.4-5.9,5.3-5.1,9.3c0.3,1.5-0.3,3-1.4,4"/>
    <path d="M21.7,17.2c0.1-1,0.2-2.1,0.2-3.2 M21.8,12.6c-0.1-0.8-0.2-1.6-0.4-2.4c-0.3-1.3-0.8-2.5-1.5-3.5 M19.1,5.5
      c-2.2-2.4-5.6-3.6-9-2.9C6.9,3.2,4.4,5.4,3.2,8.2 M2.7,9.6c-0.3,1.4-0.4,2.8-0.1,4.3c0.2,0.9-0.1,1.8-0.7,2.4"/>
  </g>
</svg>
