<?xml version="1.0" encoding="UTF-8"?>
<svg width="24px" height="24px" viewBox="0 0 24 24" version="1.1" xmlns="http://www.w3.org/2000/svg" xmlns:xlink="http://www.w3.org/1999/xlink">
    <!-- Generator: Sketch 42 (36781) - http://www.bohemiancoding.com/sketch -->
    <title>trash</title>
    <desc>Created with Sketch.</desc>
    <defs></defs>
    <g id="Icons" stroke="none" stroke-width="1">
        <g id="trash">
            <path d="M18.5,3 L23,3 C23.276,3 23.5,3.224 23.5,3.5 C23.5,3.776 23.276,4 23,4 L21,4 L20.0751625,22.4967494 C20.0332718,23.3345642 19.3260806,24 18.4947588,24 L5.50524116,24 C4.66712976,24 3.96634859,23.3269718 3.92483747,22.4967494 L3,4 L1,4 C0.724,4 0.5,3.776 0.5,3.5 C0.5,3.224 0.724,3 1,3 L3.5,3 L7,3 L7,1.5 C7,0.665797234 7.6744372,0 8.50639765,0 L14.4936024,0 C15.3235372,0 16,0.671572875 16,1.5 L16,3 L18.5,3 Z M14.2508774,1 L8.74912262,1 C8.33762455,1 8,1.33342527 8,1.74472618 L8,3 L15,3 L15,1.74472618 C15,1.33025932 14.6646064,1 14.2508774,1 Z M7.75,19 C8.164,19 8.5,18.776 8.5,18.5 L8.5,7.5 C8.5,7.224 8.164,7 7.75,7 C7.336,7 7,7.224 7,7.5 L7,18.5 C7,18.776 7.336,19 7.75,19 Z M12.0200005,19 C12.4340005,19 12.7700005,18.776 12.7700005,18.5 L12.7700005,7.5 C12.7700005,7.224 12.4340005,7 12.0200005,7 C11.6060005,7 11.2700005,7.224 11.2700005,7.5 L11.2700005,18.5 C11.2700005,18.776 11.6060005,19 12.0200005,19 Z M16.25,19 C16.664,19 17,18.776 17,18.5 L17,7.5 C17,7.224 16.664,7 16.25,7 C15.836,7 15.5,7.224 15.5,7.5 L15.5,18.5 C15.5,18.776 15.836,19 16.25,19 Z" id="Combined-Shape"></path>
        </g>
    </g>
</svg>