<?xml version="1.0" encoding="UTF-8"?>
<svg width="24px" height="24px" viewBox="0 0 24 24" version="1.1" xmlns="http://www.w3.org/2000/svg" xmlns:xlink="http://www.w3.org/1999/xlink">
    <!-- Generator: Sketch 42 (36781) - http://www.bohemiancoding.com/sketch -->
    <title>upload</title>
    <desc>Created with Sketch.</desc>
    <defs></defs>
    <g id="Icons" stroke="none" stroke-width="1">
        <g id="upload">
            <path d="M22,17.7180219 C22,17.1660219 22.447,16.7180219 23,16.7180219 C23.552,16.7180219 24,17.1660219 24,17.7180219 L24,22.4953097 C24,23.3277183 23.3278417,24 22.4986925,24 L1.50130749,24 C0.666946292,24 0,23.3263272 0,22.4953097 L0,17.7180219 C0,17.1660219 0.447,16.7180219 1,16.7180219 C1.552,16.7180219 2,17.1660219 2,17.7180219 L2,21.2541363 C2,21.6640004 2.34008522,22 2.75960159,22 L21.2403984,22 C21.6695492,22 22,21.6660655 22,21.2541363 L22,17.7180219 Z M12.708,0.2930219 L19.707,7.2920219 C20.098,7.6820219 20.098,8.3150219 19.707,8.7060219 C19.317,9.0970219 18.684,9.0970219 18.293,8.7060219 L13,3.4130219 L13,17.6080219 C13,18.1600219 12.553,18.6080219 12,18.6080219 C11.448,18.6080219 11,18.1600219 11,17.6080219 L11,3.4130219 L5.707,8.7060219 C5.317,9.0970219 4.684,9.0970219 4.293,8.7060219 C3.902,8.3150219 3.902,7.6830219 4.293,7.2920219 L11.293,0.2930219 C11.7,-0.1149781 12.343,-0.0799781003 12.708,0.2930219 Z" id="Upload"></path>
        </g>
    </g>
</svg>