<?xml version="1.0" encoding="utf-8"?>
<!-- Generator: Adobe Illustrator 21.0.2, SVG Export Plug-In . SVG Version: 6.00 Build 0)  -->
<svg version="1.1" id="Layer_1" xmlns="http://www.w3.org/2000/svg" xmlns:xlink="http://www.w3.org/1999/xlink" x="0px" y="0px"
	 viewBox="0 0 24 24" style="enable-background:new 0 0 24 24;" xml:space="preserve">
<title>upload</title>
<desc>Created with Sketch.</desc>
<g>
	<path d="M12.7,0.3c-0.4-0.4-1-0.4-1.4,0l-7,7c-0.4,0.4-0.4,1,0,1.4c0.4,0.4,1,0.4,1.4,0L11,3.4v14.2c0,0.6,0.4,1,1,1
		c0.6,0,1-0.4,1-1V3.4l5.3,5.3c0.4,0.4,1,0.4,1.4,0c0.4-0.4,0.4-1,0-1.4L12.7,0.3z M23,16.7c-0.6,0-1,0.4-1,1v1.9
		c0,1-0.9,2.4-1.9,2.4H3.9c-1,0-1.9-1.3-1.9-2.4v-1.9c0-0.6-0.4-1-1-1c-0.6,0-1,0.4-1,1v1.9C0,21.7,1.7,24,3.9,24h16.3
		c2.2,0,3.9-2.3,3.9-4.4v-1.9C24,17.2,23.6,16.7,23,16.7z"/>
</g>
</svg>
