<svg xmlns="http://www.w3.org/2000/svg" width="24" height="24" viewBox="0 0 24 24">
  <g class="icon-stroke" fill="none" fill-rule="evenodd" stroke-width="2" transform="translate(1 2)" stroke="#000000" stroke-linecap="round" stroke-linejoin="round">
    <path d="M9.31333333,3.00666667 C9.64333333,1.79666667 10.4866667,0.293333333 12.6133333,0.293333333 C12.6133333,0.293333333 18.48,-1.57666667 18.48,4.4 C18.48,9.42333333 19.6166667,9.97333333 20.8266667,11.1833333 C19.2882649,11.5447585 17.7136155,11.7292877 16.1333333,11.7333333 L16.1333333,12.32 C16.1333333,12.9066667 16.0233333,14.08 18.9566667,14.6666667 C21.89,15.2533333 22,17.6 22,17.6 L14.3,17.6"/>
    <path d="M13.2366667,17.3066667 C10.3033333,16.9033333 10.3033333,15.84 10.3033333,15.2533333 L10.3033333,14.9233333 C11.0502742,14.2316118 11.5844924,13.3412482 11.8433333,12.3566667 C12.7233333,12.3566667 12.9433333,10.4866667 12.9433333,10.23 C12.9433333,9.97333333 12.87,8.91 12.4666667,8.8 C13.9333333,3.66666667 9.53333333,1.46666667 5.72,4.10666667 C4.10666667,4.10666667 3.59333333,6.45333333 4.18,8.8 C3.77666667,8.8 3.70333333,9.9 3.70333333,10.1933333 C3.70333333,10.4866667 3.92333333,12.32 4.80333333,12.32 C5.09666667,13.3833333 5.90333333,14.2633333 6.6,14.8866667 L6.6,15.2533333 C6.6,15.84 6.38,16.94 3.41,17.3066667 C0.44,17.6733333 0,20.5333333 0,20.5333333 L16.1333333,20.5333333 C16.1333333,20.5333333 16.17,17.71 13.2366667,17.3066667 Z"/>
  </g>
</svg>
