<svg xmlns="http://www.w3.org/2000/svg" viewBox="0 0 443 565.9"><path fill="#FFF" d="M323.54 115.093c1.315-1.768 2.41-3.296 3.206-4.74l.938-1.845.277-1.12c-2.04-1.095-4.53-1.867-7.47-2.316-3.01-.447-6.01-.576-9.16-.543-3.15.03-5.92.3-8.39.64-2.54.34-4.33.84-5.45 1.33-.88.57-2.28 1.86-4.12 3.95s-3.73 4.42-5.71 6.92c-1.97 2.57-3.73 4.74-5.12 6.59l-2.19 2.97 1.52 1.02c.92.63 1.9 1.25 2.89 1.88l1.22.7.61.23c5.68-1.02 10.39-1.94 14.05-2.62 3.66-.76 6.72-1.43 9.03-2.17 2.32-.66 4.25-1.48 5.81-2.46 1.26-.81 2.59-1.94 3.98-3.55 1.4-1.45 2.79-3.14 4.1-4.91zM52.767 441.568l-5.345-.414c-.734.016-1.26.294-1.717.77-.457.478-.71 1.084-.697 1.684.015.667.295 1.26.907 1.78l1.754.896 3.69 1.385c3.09 1.06 7.18 2.04 12.33 2.79 5.08.75 10.96.89 17.48.41 6.52-.48 13.49-2.1 20.9-4.8 5.15-2.05 9.96-4.96 14.41-8.79 4.52-3.77 8.5-7.73 11.94-11.81 3.44-4.08 6.17-7.61 8.17-10.59l3.09-4.87-.69-.92-1.98-1.83c-1.7-1.5-3.6-3.12-5.71-4.88-2.11-1.76-3.81-3.12-5.03-4.09-.9 1.48-2.45 3.99-4.71 7.37s-5.05 7.11-8.29 11.19c-3.24 4.07-6.76 7.95-10.55 11.5-3.79 3.55-7.73 6.3-11.69 8.19-4.36 1.9-8.93 3.26-13.78 4.04-4.79.77-9.38 1.14-13.71 1.24-4.27.03-7.87-.09-10.81-.3z"/><path fill="#0081C6" d="M442.88 172.98c-.064-.07-.13-.072-.2-.008-.136.062-.138.128-.074.198.126.204.257.276.328.145.07-.064.074-.198-.054-.336m-14.877 71.46c-.787-.37-1.446-.59-1.84-.74-.99-.37-2.048-.61-3.11-.78-1.13-.11-2.194-.22-3.262-.19l-.2-.01c-.13-.01-.2.06-.26.05l-.86-.03-.4.05-.2-.01c-5.15.54-10.03 2.37-14.61 5.4-4.65 3.1-8.65 6.89-12.09 11.3-3.43 4.48-5.93 9.06-7.7 13.8-1.33 3.69-2.2 7.26-2.72 10.77-.53 3.51-.45 6.92.1 10.28.55 3.29 1.77 6.53 3.66 9.6-.66-2.09-1.04-4.31-1.29-6.65-.25-2.35-.3-4.68-.21-7.15-.11-2.34.04-4.74.46-7.26.43-2.52 1.13-5.17 2.16-7.93 1.93-5.4 4.51-10.18 7.74-14.47 3.22-4.22 7.29-7.88 12.21-10.97 2.05-1.26 4.22-2.32 6.65-3.16 2.44-.85 4.92-1.36 7.47-1.53 2.55-.18 5 .18 7.31 1 .67.09 1.33.24 1.92.4s1.19.37 1.85.6c.2.07.47.15.66.29.2.07.4.21.59.29-.37-.68-.89-1.24-1.74-1.73-.58-.49-1.43-.92-2.22-1.28z"/><path fill="#FFF" d="M317.342 186.365c-8.28 2.034-16.656 4.8-25.058 8.297-8.402 3.5-16.946 7.258-25.503 11.35-6.24 2.91-11.78 6.646-16.49 11.28-4.7 4.566-8.3 9.907-10.86 16.02-2.55 6.113-3.74 12.943-3.47 20.426.26 5.682 1.58 11.735 3.88 18.158 2.31 6.357 5.35 12.473 9.08 18.214 3.73 5.74 7.96 10.5 12.56 14.336 4.6 3.77 9.26 5.942 14.05 6.45 4.66.37 9.16-.535 13.45-2.714 4.28-2.114 8.66-5.09 13.21-8.93 4.48-3.84 9.44-8.064 14.89-12.87 5.38-4.743 11.56-9.523 18.48-14.41 7.39 4.206 14.23 8.86 20.51 13.958 6.29 5.1 11.92 9.776 17.04 14.166 5.05 4.387 9.46 7.684 13.26 9.824 8.33 4.04 16.53 4.138 24.62.228 8.08-3.844 14.85-10.004 20.29-18.347 5.44-8.34 8.36-17.11 8.84-26.43.47-9.32-2.77-17.38-9.73-24.17-5.76-5.01-12.09-10.71-19.01-16.84-6.91-6.12-14.23-12.26-21.88-18.34-7.65-6.08-15.46-11.64-23.41-16.66-7.95-3.49-16.02-5.38-24.15-5.61-8.06-.29-16.23.61-24.52 2.65m108.75 57.4c.46.15 1.06.37 1.84.73.86.3 1.65.73 2.43 1.29.78.5 1.36 1.05 1.74 1.73-.2-.07-.39-.21-.59-.29-.2-.07-.46-.15-.66-.29-.59-.22-1.19-.38-1.84-.6s-1.25-.31-1.92-.4c-2.3-.82-4.76-1.17-7.3-1-2.54.18-5.03.69-7.46 1.53-2.43.85-4.67 1.9-6.65 3.16-4.92 3.09-8.98 6.75-12.21 10.97-3.22 4.22-5.8 9-7.73 14.47-1.04 2.76-1.73 5.41-2.16 7.93-.42 2.52-.58 4.92-.46 7.26-.09 2.47-.04 4.8.21 7.15.25 2.34.7 4.56 1.29 6.65-1.89-3.07-3.11-6.32-3.65-9.61-.54-3.35-.62-6.76-.09-10.28.46-3.52 1.39-7.09 2.72-10.78 1.71-4.74 4.28-9.32 7.71-13.8 3.43-4.48 7.44-8.2 12.02-11.31 4.58-3.03 9.45-4.86 14.61-5.41l.2.01.4-.05.87.03c.07 0 .2-.06.27-.06l.2.01c1.07-.02 2.13.08 3.19.25 1.07.11 2.06.34 3.05.71z"/><path fill="#0081C6" d="M380.28 229.2l-2.846 2.554-1.414 1.67c-.235.825.164 1.794 1.07 2.846.905 1.053 2.03 1.975 3.343 2.987 1.345.95 2.56 1.68 3.642 2.193l1.275.603.54.177c3.526-3.166 7.573-5.617 12.14-7.355 4.566-1.738 8.86-2.902 12.855-3.43 4.087-.56 7.21-.564 9.33-.105-1.635-1.32-3.43-2.64-5.32-4.08-1.892-1.442-3.687-2.76-5.256-3.892l-3.18-2.36c-6.43.075-11.84.948-16.15 2.65-4.28 1.794-7.65 3.632-10.04 5.543z"/><path fill="#0081C6" d="M391.42 238.454l-.703-.49-2.042-1.122-6.308-2.987-5.225-2.473c-3.67.835-7.557 3.44-11.626 7.754-4.007 4.343-7.644 9.72-10.88 16.064-3.24 6.344-5.588 12.954-7.02 19.764-1.43 6.81-1.418 13.212.095 19.076l3.68 2.286c1.89 1.126 3.8 2.19 5.62 3.285l3.51 1.82c-2.33-7.42-2.62-14.89-.92-22.27 1.73-7.44 5.24-14.68 10.61-21.57 5.56-6.96 12.55-13.32 21.22-19.12z"/><path fill="#FFF" d="M365.017 250.255c-1.89.303-3.655.317-5.288.113-1.63-.134-3.13-.415-4.56-.84.07.066.15.204.15.274l.15.205c.22.27.52.61.67.814.22.28.52.54.67.82.22.27.51.47.74.74.22.27.52.54.74.74l.22.2c.07.07.15.21.22.27.73.67 1.47 1.34 2.28 2.01.81.67 1.61 1.27 2.42 1.86.29.2.58.33.87.53.29.2.58.33.87.53l.63-.03c.21-.01.49-.02.7.04h.14c2.32-.18 4.63-.57 6.86-1.25 2.23-.6 4.31-1.4 6.3-2.42.07 0 .13-.07.13-.07l.14-.08c3.49-2.21 6.32-5.1 8.55-8.52s3.81-7.31 4.6-11.51c-.48-1.03-1.02-2-1.49-2.96-.54-.96-1.08-1.92-1.68-2.81-.08-.07-.08-.14-.16-.27-.07-.07-.08-.14-.15-.2-.23-.34-.39-.69-.61-1.03-.23-.34-.46-.68-.62-1.03l-.68-1.02c-.21 4.46-1.23 8.32-2.98 11.51-1.75 3.19-4.02 5.84-6.82 7.95-.48.31-1.03.62-1.51.92-.48.31-.96.68-1.37.98-1.65.93-3.38 1.72-5.18 2.37-1.53.57-3.27 1.01-5.02 1.23m-7.92-11.97c1.21-2.67 2.86-5.08 5.02-7.16 2.09-2.07 4.48-3.81 7.09-5.14 2.69-1.32 5.47-2.16 8.34-2.58.63-.1 1.26-.2 1.9-.23.63-.1 1.26-.2 1.81-.44.21-.08.56-.1.99-.12l.84-.18h.07c-.08-.06-.15-.13-.23-.27-.15-.06-.22-.13-.29-.12-.29-.06-.51-.19-.79-.24-.29-.06-.57-.11-.86-.24-.43-.12-.93-.24-1.5-.28-.64-.04-1.2-.01-1.62.01h-.07l-.07.01c-.07.01-.14.01-.21.08l-.14.01c-2.66.34-5.24 1.1-7.72 2.21s-4.82 2.56-6.92 4.35c-2.1 1.8-3.84 3.86-5.21 6.25-1.04 1.82-1.79 3.83-2.33 5.97-.53 2.14-.64 4.27-.4 6.37l.17.56.14-.01c.13-.15.19-.43.17-.79.07-1.42.22-2.76.44-4.04.36-1.35.79-2.65 1.37-3.94m14.55-5.64c-.07-.07-.22-.13-.36-.19l-.42.02c-.21.01-.35.09-.56.17-.21.08-.42.16-.55.31-.14.15-.27.29-.48.45-.14.15-.2.29-.26.44-.07.14-.13.36-.12.5.01.14.08.21.16.34.07.06.21.13.29.19.14.07.28.06.49-.02.14-.01.35-.09.55-.17.21-.08.34-.23.55-.38.13-.14.27-.22.4-.37s.27-.29.33-.44.06-.28.05-.42c-.01-.21-.01-.28-.09-.42z"/><path fill="#0081C6" d="M357.524 232.336c-1.52 2.12-2.614 4.36-3.354 6.583-.737 2.29-.985 4.49-.743 6.59.014.28.094.49.108.77s.09.42.1.63c.084.28.24.55.393.83.084.28.238.55.322.83l.004.07c.147.13.228.34.375.47.07.14.22.27.37.4 1.43.42 2.92.7 4.55.84 1.63.2 3.39.12 5.28-.11 1.75-.23 3.57-.67 5.37-1.32 1.8-.58 3.53-1.37 5.18-2.37.4-.3.88-.68 1.36-.98.48-.31.96-.61 1.5-.92 2.72-2.04 5-4.69 6.82-7.95 1.75-3.19 2.77-7.05 2.98-11.51l-.61-.89c-.45-.47-.9-1.02-1.35-1.49-.45-.55-.9-1.02-1.42-1.63l-.07-.07c-.22-.06-.36-.2-.58-.26l-.65-.18c-1.87-.69-3.92-.87-6.24-.69-2.32.18-4.76.86-7.32 2.04-2.56 1.18-4.89 2.63-6.99 4.43-2.11 1.72-3.92 3.72-5.44 5.84m13.77.12c.14.06.29.13.36.19s.08.2.08.34c.01.14.01.28-.05.42s-.2.29-.33.44c-.14.15-.27.3-.41.37-.21.15-.34.23-.55.38-.21.08-.41.16-.55.17l-.49.02c-.15-.07-.22-.13-.29-.2-.08-.07-.15-.21-.16-.35-.01-.14.05-.29.11-.5.07-.15.2-.29.26-.44.14-.15.27-.3.48-.45.13-.15.34-.23.55-.31.21-.08.34-.16.55-.17.14.06.28.05.42.05m-9.17-1.33c-2.08 2.07-3.73 4.48-5.02 7.15-.57 1.3-1 2.59-1.22 3.94-.22 1.28-.36 2.63-.44 4.04-.05.36-.11.64-.17.79l-.14.01-.17-.55c-.24-2.11-.13-4.23.4-6.37.53-2.15 1.28-4.09 2.32-5.97 1.37-2.33 3.1-4.46 5.2-6.25 2.1-1.8 4.43-3.25 6.92-4.36 2.48-1.11 5.06-1.86 7.72-2.2h.07c.07-.01.14-.08.21-.08l.07-.01.07-.01c.42-.02.99-.05 1.62-.01s1.13.08 1.49.28c.28.12.57.18.85.24s.5.12.79.24c.07 0 .14.07.29.13s.21.13.22.27l-.07.01-.84.18c-.42.02-.77.1-.98.11-.56.17-1.18.34-1.81.44-.63.1-1.26.2-1.89.23-2.87.42-5.66 1.26-8.35 2.58-2.76 1.33-5.08 3.07-7.17 5.14z"/><path fill="#FFF" d="M386.422 226.78c-1.495.034-3.077.2-4.692.647-1.607.377-3.09.91-4.31 1.617-1.29.698-2.082 1.384-2.532 2.183 1.775-.002 3.435-.23 5.058-.746 1.545-.45 2.897-1.07 4.047-1.79 1.22-.7 2.004-1.32 2.43-1.91zm-20.444 8.923c-1.48 1.1-2.83 2.29-4.046 3.564-1.147 1.284-1.832 2.267-2.055 2.95 1.405-.47 2.905-1.144 4.447-2.168 1.542-1.03 2.873-2.08 3.933-3.23 1.13-1.15 1.667-2.08 1.776-2.99-1.232.21-2.584.83-4.055 1.86zM296.11 79.685c-2.647 1.04-5.272 2.383-7.77 4.02s-4.677 3.255-6.537 4.85c-1.857 1.653-3.094 3.02-3.715 4.038-.462 1.007-.856 2.984-1.18 5.932s-.64 6.076-.88 9.443c-.24 3.428-.405 6.364-.5 8.808l-.154 3.85 1.928.106 3.687.105 1.49-.044.73-.113c3.81-4.107 7.11-8.056 9.94-11.79 2.83-3.732 5.1-7 6.78-9.677l2.04-3.495 1.02-2.264c.34-1.182.6-2.845.82-4.993.22-2.2.34-4.28.3-6.35l-.18-2.48-.37-1.49c-2.35-.01-4.82.53-7.47 1.56z"/><path fill="#0081C6" d="M167.207 306.31c-2.768 1.396-5.554 2.64-8.414 3.772-2.824 1.187-5.722 2.26-8.62 3.333-3.74 1.54-7.63 3.097-11.767 4.65-4.138 1.556-8.428 3.128-12.813 4.68-.267.093-.59.223-.858.315-.267.092-.59.222-.895.257-.477.147-.916.352-1.335.462-.476.14-.915.35-1.39.49-.326.13-.65.26-.917.35-.324.13-.686.2-1.01.33l-.134.17c-.058.04-.02.09-.078.13-.27.34-.518.58-.787.92-.22.3-.49.64-.79.92-.12.07-.14.17-.21.3-.12.07-.14.17-.25.24-1.04 1.16-1.98 2.35-3.07 3.55-1.04 1.16-2.08 2.33-3.17 3.53-1.35 1.45-2.73 2.84-4.16 4.27-1.38 1.39-2.82 2.82-4.24 4.15-2.17 2.06-4.33 4.13-6.54 6.14s-4.39 3.92-6.52 5.8l.4-.26.17-.12 1.89-1.23s1.22-.88 1.81-1.35c-.45.45-.83.86-1.31 1.26-.44.45-.87.8-1.31 1.26-.36.32-.94.94-1.79 1.9-.88.9-1.67 1.82-2.46 2.74l-.89 1.15-.29.68c.01.15.09.27.26.15.15-.02.27-.09.42-.11.31-.28.58-.62.92-.85l.65-.51c4.44-3.96 8.7-7.96 12.73-12.06 4.02-4.1 8.07-8.29 12.04-12.6 1.34-1.45 2.78-2.88 4.33-4.38s2.99-2.93 4.5-4.24c3.01-.9 6.04-1.9 8.94-2.97 2.99-1.06 5.95-2.17 8.79-3.2.86-.32 1.75-.57 2.61-.89.86-.32 1.7-.54 2.55-.85 1.18-.45 2.38-.99 3.59-1.52 1.18-.45 2.38-.99 3.53-1.49 1.35-.56 2.72-1.21 4-1.88 1.32-.61 2.65-1.32 3.95-2.09.55-.28 1.07-.62 1.64-.99l1.61-1.05 2.41-1.57s1.4-1.24 2.2-1.77z"/><path fill="#FFF" d="M191.033 285.458c2.4-4.833 4.348-10.354 5.657-16.6 1.347-6.19 1.745-12.58 1.252-19.205-.55-6.587-2.415-12.807-5.595-18.66-3.52-6.122-7.614-11.624-12.304-16.41s-9.524-8.416-14.443-10.928c-4.92-2.512-9.55-3.333-13.813-2.595-2.95.617-7.795 2.47-14.683 5.572-6.888 3.103-14.62 6.92-23.27 11.58-8.63 4.567-17.092 9.515-25.31 14.71-8.218 5.198-15.124 10.274-20.697 15.134-5.67 5.088-12.21 11.97-19.584 20.455-7.43 8.53-14.654 17.49-21.77 26.87-7.113 9.38-13.155 17.9-18.05 25.67-4.84 7.73-7.607 13.37-8.303 16.93-.495 4.49.53 9.06 3.113 13.5 2.583 4.45 5.93 8.56 10.192 12.31 4.205 3.8 8.624 7.05 13.124 9.67 4.55 2.59 9.08 4.62 13.76 6.15s8.7 2.42 12.14 2.79l4.14.08 1.35-.31.8-.52c1.23-1.62 3.34-3.65 6.36-6.27 2.97-2.59 6.57-5.59 10.7-9.02 4.13-3.43 8.57-7.14 13.31-11.29 2.12-1.87 4.31-3.79 6.51-5.8s4.37-4.07 6.53-6.14c1.42-1.33 2.85-2.76 4.23-4.15 1.43-1.43 2.78-2.87 4.16-4.26 1.03-1.17 2.13-2.37 3.16-3.54 1.03-1.16 2.07-2.33 3.07-3.55.08-.13.19-.2.25-.24.07-.13.13-.17.21-.3.27-.34.48-.64.79-.92.27-.34.51-.58.78-.92.05-.04.07-.13.07-.13l.14-.17c.32-.13.68-.2 1.01-.33.32-.13.59-.22.91-.35.48-.14.95-.29 1.39-.49.47-.15.89-.26 1.33-.46.26-.09.59-.22.89-.25.27-.09.59-.22.86-.31 4.42-1.49 8.71-3.07 12.81-4.68 4.13-1.55 8.06-3.05 11.76-4.65 5.36-2.19 10.23-4.38 14.61-6.42 4.35-2.1 8.13-4.08 11.26-5.79 3.15-1.81 5.52-3.44 7.21-4.86 2.87-2.36 5.45-5.92 7.9-10.79zm56.587 131.26c-6.597-.63-13.32-.7-20.316-.14-6.93.56-14.328 2.306-22.073 5.312l-2 18.178c-1.25 11.535-2.77 24.89-4.36 39.99l-4.39 40.13-1.97 18.317c.97 3.426 4.91 6.362 11.84 8.81 6.91 2.516 14.92 4.263 24.18 5.242 9.24 1.05 17.92 1.05 25.92.14 8.1-.98 13.79-3.146 17.09-6.572l1.82-17.338c1.14-11.046 2.56-24.19 4.24-39.43 1.69-15.242 3.5-29.574 5.34-42.857 1.85-13.284 3.51-22.512 5.09-27.756-7.08.63-13.96.7-20.49.07-6.7-.77-13.29-1.398-19.88-2.097z"/><path fill="#0081C6" d="M259.704 503.198c-.247-.978-.408-1.747-.452-2.447-.05-1.25-.02-2.58.062-3.84.164-1.33.246-2.58.26-3.84l-.097-1.05-.338-.28c-.29.07-.55.35-.88.91-.33.56-.52 1.12-.66 1.75-.26 1.47-.39 3.22-.44 5.25s.27 3.85.81 5.6c.56 1.68 1.59 2.73 3.16 3.15 1.49.21 2.89-.42 4.27-1.82 1.38-1.39 2.54-3 3.5-4.89s1.71-3.49 2.2-4.75c.17-.49.38-1.11.58-2.02.2-.91.32-1.75.43-2.52.05-.84-.11-1.33-.44-1.61h-.27c-.17.14-.35.35-.46.56l-.18.49c-.34.91-.61 1.82-.81 2.73-.21.91-.48 1.82-.88 2.73-.31.77-.81 1.82-1.44 3.15-.7 1.33-1.43 2.52-2.3 3.71-.85 1.12-1.69 1.89-2.49 2.17-.85.21-1.54 0-2.05-.7-.53-.63-.89-1.4-1.14-2.38zm-17.438-67.882l.133-.28c.06-.14.06-.35.06-.49-.34 0-.67.14-1 .49-.4.35-.74.7-1.07 1.12l-.47.56c-.2.278-.47.628-.74.908-.2.28-.47.63-.6.978-2 5.314-4.21 12.445-6.61 21.324-2.47 8.81-5.07 18.736-7.81 29.643-2.8 10.9-5.67 22.02-8.61 33.41-2.94 11.32-5.94 22.16-9.01 32.37-.34.14-.6.28-.87.42-.27.14-.6.28-.87.42-.27 1.33-.6 2.58-.8 3.84-.27 1.33-.54 2.58-.8 3.91-.07.21-.14.42-.14.7-.07.35-.07.56 0 .7.13.35.2.42.4.35.13-.07.27-.28.33-.49.13-.35.26-.77.4-1.26l.26-.84c2-5.24 3.93-10.56 5.8-15.8 1.8-5.24 3.47-10.56 5.07-16.01 1.73-6.08 3.47-12.17 5.27-18.25 1.8-6.09 3.47-12.17 5.14-18.25 1.67-6.08 3.14-12.24 4.47-18.46.8-3.92 1.67-7.9 2.53-12.03.94-4.13 1.94-8.18 3.14-12.17 1.13-3.99 2.54-7.83 4.07-11.47.4-.91.87-1.82 1.4-2.73.33-.7.67-1.68.87-2.66z"/><path fill="#FFF" d="M132.254 405.394c-11.208-3.706-19.414-5.943-24.75-6.642 1.066 13.214 3 28.105 5.936 44.604 2.87 16.5 5.938 32.51 9.273 48.03 3.336 15.52 6.205 28.315 8.607 38.452l3.802 15.73c3.67 3.426 8.14 6.433 13.343 9.02 5.204 2.586 10.94 4.544 17.146 5.802 6.21 1.26 12.68 1.678 19.35 1.05 6.67-.56 13.28-2.308 19.82-5.245.34-.14.6-.28.87-.42.27-.14.6-.28.87-.418 3.01-10.278 6.01-21.044 9.01-32.37 2.94-11.396 5.81-22.512 8.61-33.418 2.74-10.91 5.34-20.84 7.81-29.72 2.41-8.88 4.61-16.01 6.61-21.33.4-1.12.8-2.17 1.2-3.08.4-.91.8-1.68 1.14-2.38-8.4.49-19.01-.84-31.75-3.92-12.75-3.15-25.96-6.92-39.63-11.4-13.55-4.55-26.02-8.67-37.23-12.38z"/><path fill="#0081C6" d="M188.894 498.76c-.33-1.266-.505-2.647-.59-4.154-.098-1.437-.262-2.887-.502-4.28l-.182-.53-.174-.174c-.143.044-.31.227-.42.49s-.236.595-.294.94c-.177 1.458-.18 3.09-.02 4.965.17 1.806.497 3.5 1.032 5.16.48 1.578 1.238 2.712 2.13 3.444 1.66 1.02 3.206 1.09 4.662.08s2.72-2.48 3.746-4.56c1.092-2.07 1.844-4.13 2.28-6.32l.196-1.17c.08-.48.084-.91.076-1.26-.074-.37-.182-.53-.38-.56l-.265.38-.13.34c-.42.85-.77 1.77-1.08 2.78-.3.94-.67 1.94-1.03 2.87-.87 1.97-1.87 3.49-3 4.56s-2.27 1.43-3.42 1.01c-1.1-.34-1.96-1.64-2.66-3.96z"/><path fill="#FFF" d="M186.1 157.11c-7.136 6.836-14.006 13.704-20.73 20.687-6.724 6.984-13.104 14.596-19.14 22.837-6.038 8.24-11.655 17.706-16.74 28.246-5.14 10.615-9.665 22.966-13.58 36.988-4.61 16.802-7.895 32.155-9.91 46.135-2.017 13.98-3.07 26.76-3.242 38.217-.163 11.523.193 21.97 1.188 31.26.93 9.296 2.138 17.683 3.477 25.044.81 4.268 3.563 8.825 8.185 13.613 4.557 4.796 10.553 9.542 17.98 14.17 7.425 4.63 15.795 8.938 25.028 12.797 9.305 3.918 19.043 7.107 29.35 9.618 6.51 1.586 13.034 2.767 19.636 3.534 6.602.766 13.144 1.07 19.498.927 6.418-.15 12.64-.815 18.72-2.066 3.455-.713 6.813-1.682 10.088-2.775 2.897-.977 5.695-2.21 8.41-3.568l1.057-.472c1.475-.794 2.884-1.58 4.286-2.433 1.41-.86 2.73-1.83 4.05-2.81.12-.08.19-.09.31-.18s.18-.16.31-.18c.3-.24.61-.42.9-.66.3-.24.54-.41.84-.65l.12-.15c2.58-1.95 5.08-3.95 7.44-6 2.37-2.05 4.54-4.08 6.64-6.1 9.73-9.66 17.38-19.66 22.71-29.89 5.4-10.18 9.01-20.4 10.93-30.53 1.92-10.13 2.69-19.99 2.32-29.56s-1.28-18.67-2.78-27.29c-.05-.4-.16-.79-.22-1.19-.05-.4-.1-.8-.22-1.19-.3-1.85-.73-3.67-1.17-5.57-.44-1.9-.94-3.78-1.51-5.66-2.57-8.28-5.91-16.4-9.94-24.29-4.03-7.89-8.25-15.15-12.64-21.72-4.34-6.7-8.21-12.26-11.67-16.73-.31-.36-.55-.73-.86-1.1-.24-.37-.55-.73-.79-1.04-1.74-2.26-3.2-3.96-4.28-5.23l-1.97-2.1-3.46-2.38-8.03-6.31c-6.88-5.51-15.3-12.3-25.26-20.3-9.97-8.07-19.93-16.07-29.89-24.08-9.97-8.07-18.43-14.65-25.35-19.95z"/><path fill="#0081C6" d="M285.165 238.495c.31.363.554.736.864 1.1 3.46 4.465 7.32 9.956 11.66 16.663 4.33 6.64 8.55 13.902 12.64 21.717 4.03 7.89 7.37 16.003 9.95 24.283.57 1.877 1.07 3.763 1.51 5.657.44 1.894.87 3.722 1.17 5.566.05.4.16.79.22 1.19.05.4.16.79.21 1.19l-.04-.33.04-.21c-.23-2.26-.43-4.31-.68-6.3-.25-1.92-.7-3.88-1.28-5.89.28.17.49.27.77.37.2.04.39.02.58-.07.35-.31.67-.89.89-1.73.22-.83.31-1.65.4-2.54.08-.88.06-1.55 0-2.01-.26-1.98-.92-4.05-2.06-6.32-1.08-2.21-2.34-4.4-3.67-6.59-1.33-2.18-2.5-4.12-3.46-5.94-2.36-4.54-4.84-9.06-7.51-13.49s-5.53-8.77-8.64-13.08l-.25-.37c-.16-.18-.3-.29-.45-.41-.17-.25-.33-.49-.56-.73l-.18-.31-.15-.18c-.96-1.29-2.12-2.69-3.45-4.33-1.38-1.57-2.76-3.07-4.32-4.49-1.5-1.42-2.95-2.51-4.35-3.21-.14-.05-.21-.1-.34-.09-.14-.05-.21-.1-.34-.09.3.3.54.67.79 1.04m-97.33 218.4c5.51 2.52 11.26 4.34 17.25 5.46s12.05 1.75 18.31 1.96l.2.04c.14.05.27.04.32-.04.2.04.47.08.73.04l.33.03.13-.01c4.5.3 9.09.25 13.64-.13 4.62-.39 9.05-1.16 13.31-2.31 4.69-1.34 9.32-3.15 13.95-5.49 4.63-2.34 9-5.12 13.12-8.34 4.06-3.21 7.68-6.7 10.8-10.53l1.38-1.58c.46-.53.85-1.12 1.16-1.76.31-.64.36-1.32.26-2.12l-.02-.2c-.01-.13-.09-.19-.17-.31-.2-.04-.45.06-.63.22-.24.17-.35.32-.41.39l-.72.5c-.24.17-.41.39-.71.57-2.1 2.08-4.33 4.12-6.64 6.09-2.36 2.06-4.8 4.05-7.44 6l-.11.15c-.3.24-.54.41-.84.65-.3.24-.6.41-.9.65-.12.09-.18.16-.31.18-.12.08-.18.16-.3.18-1.32.98-2.65 1.89-4.04 2.81-1.4.85-2.8 1.71-4.29 2.44l-1.06.47c-.31.17-.68.36-.99.53-.68.36-1.43.65-2.17 1.02-2.61 1.14-5.11 2.14-7.64 2.93-2.53.8-5.08 1.39-7.65 1.86-6.01 1.24-12.23 1.9-18.72 2.06-6.42.15-12.89-.16-19.5-.93-6.52-.64-13.11-1.81-19.62-3.4z"/><path fill="#FFF" d="M369.458 154.29c-1.3-.372-2.712-.25-4.146.355-4.633 2.148-8.868 4.092-12.744 5.885-3.877 1.793-7.69 3.384-11.25 4.747-3.56 1.362-7.165 2.444-10.798 3.34l-2.133-3.3c-1.196-1.867-2.596-4.133-4.108-6.81-1.61-2.665-3.03-5.358-4.34-7.972-1.08-2.363-2.92-5.278-5.55-8.69-2.59-3.468-6-6.952-10.24-10.64-4.29-3.634-9.53-6.977-15.73-10.028-6.2-3.052-13.53-5.357-21.89-6.93-5.74-.974-10.84-1.236-15.27-.838-4.43.39-8.05 1.05-10.83 1.91l-5.25 1.86c-3.85 1.98-9.07 5.6-15.76 10.79-6.6 5.17-13.41 10.86-20.4 16.9-7 6.04-12.9 11.4-17.86 16.03l-5.75 5.47-2.36 2.65-.82 2.46-1.01 4.88c-.72 4.02-1.11 9.53-1.16 16.6-.11 7.03.63 15.51 2.16 25.4 1.1 6.51 2.67 12.62 4.79 18.31 2.12 5.68 4.5 10.9 7.08 15.52 2.59 4.7 5.11 8.71 7.61 12.19l.18.21c1.1 1.55 2.07 2.92 3.04 4.21 1 1.23 1.84 2.34 2.7 3.3 2.99 3.59 6.2 6.77 9.6 9.59 3.39 2.81 6.97 5.27 10.55 7.39 1.37.84 2.78 1.62 4.23 2.35l4.19 2.07c2.1.96 4.23 1.78 6.31 2.56 2.07.78 4.18 1.4 6.17 1.96 1.04.27 2.05.59 3.13.8.99.23 2.02.4 3.01.63 2.76.53 5.3.9 7.66 1.06 2.31.12 4.37.13 6.1-.09 1.6-.15 3.22-.45 4.85-.75 1.62-.3 3.27-.75 4.87-1.23.22-.08.41-.11.64-.2.22-.08.41-.11.58-.24 3.64-1.14 7.27-2.7 10.91-4.5 3.67-1.86 7.25-4.03 10.88-6.5 2.37-1.66 4.82-3.42 7.15-5.36s4.7-3.83 7.04-6.01c.08-.11.21-.18.25-.23l.25-.23c.83-.8 1.67-1.5 2.45-2.34.83-.8 1.66-1.59 2.44-2.43.04-.06.17-.12.21-.18.04-.05.12-.16.21-.17 4.21-4.28 8.24-8.77 12.13-13.52 3.84-4.79 7.47-9.74 10.92-14.91 2.48-3.72 4.77-7.42 7.02-11.06 2.2-3.68 4.32-7.26 6.26-10.8 2.13-3.82 4.09-7.51 5.88-11.08 1.88-3.59 3.59-7.05 5.12-10.39.9-1.91 1.76-3.76 2.58-5.56.82-1.8 1.55-3.58 2.29-5.27 2.83-6.69 5.01-12.38 6.66-17.12 1.56-4.73 2.64-8.24 3.16-10.42.31-1.43.07-2.69-.67-3.72-.96-.95-1.96-1.61-3.26-1.98z"/><path fill="#0081C6" d="M363.524 191.873c.025-.148.09-.348.14-.643s.02-.48-.116-.746c.154-.55.214-1.083.182-1.603-.033-.52-.105-.98-.27-1.43-.742 1.69-1.468 3.48-2.29 5.27-.82 1.8-1.678 3.65-2.577 5.56-1.537 3.34-3.245 6.81-5.126 10.39-1.826 3.63-3.84 7.28-5.878 11.08-1.99 3.51-4.06 7.12-6.26 10.8-2.26 3.65-4.55 7.34-7.03 11.07-3.45 5.17-7.08 10.12-10.92 14.92s-7.88 9.29-12.14 13.53c-.04.06-.17.12-.21.18-.04.06-.18.12-.22.18-.78.84-1.61 1.64-2.44 2.43-.84.8-1.63 1.54-2.46 2.34l-.25.23c-.08.11-.17.12-.25.23-2.3 2.12-4.67 4.11-7.05 6.01s-4.74 3.65-7.15 5.36c-3.63 2.47-7.21 4.65-10.88 6.51-3.68 1.86-7.26 3.37-10.91 4.51-.23.08-.41.11-.58.24-.19.03-.41.11-.64.19-1.6.49-3.25.93-4.87 1.23-1.63.3-3.25.6-4.85.75-1.69.17-3.79.21-6.1.09-2.37-.16-4.91-.53-7.66-1.06-.99-.23-2.02-.4-3.01-.63-.99-.23-2.04-.49-3.13-.8-2-.55-4.06-1.23-6.18-1.96-2.08-.78-4.21-1.59-6.32-2.56-1.44-.63-2.83-1.32-4.19-2.07-1.45-.73-2.86-1.52-4.23-2.35-3.58-2.12-7.06-4.59-10.55-7.39-3.4-2.81-6.61-5.99-9.6-9.59-.78-.98-1.71-2.07-2.71-3.3-.97-1.28-2-2.7-3.04-4.2l-.18-.21.06.14c-.05-.04-.2-.06-.25-.1l-.28.05c-.03.15-.01.24 0 .34.07.14.14.27.15.36.07.14.19.31.31.48l.19.31c.77 1.31 1.44 2.55 2.11 3.78s1.47 2.4 2.43 3.68c.65.81 1.31 1.71 2 2.46.65.81 1.39 1.6 2.13 2.39 2.94 3.56 6.21 6.78 9.82 9.75 3.61 2.98 7.45 5.54 11.46 7.73 4.02 2.2 8.09 3.86 12.28 5.02 4.25 1.21 8.58 2.07 13.11 2.65 4.53.59 9.03.66 13.5.21 4.52-.41 8.84-1.46 12.98-3.15 2.38-.99 4.82-2.17 7.34-3.47 2.52-1.29 4.99-2.63 7.38-4.1 2.4-1.47 4.7-2.92 6.86-4.4.17-.12.25-.23.42-.35.13-.07.3-.19.42-.35 1.26-.81 2.46-1.67 3.63-2.47 1.15-.89 2.26-1.73 3.32-2.61 1.65-1.35 3.2-2.79 4.83-4.23 1.55-1.44 3.15-2.83 4.8-4.18 1.99-1.6 3.85-3.46 5.65-5.46 1.79-1.99 3.47-4.07 5.1-6.18 1.63-2.11 3.26-4.23 4.81-6.23 3.19-4.02 6.19-8.11 8.88-12.35 2.74-4.19 5.26-8.55 7.6-12.87 1.02-1.73 2.08-3.52 3.1-5.25.97-1.77 1.99-3.51 2.93-5.13.96-1.53 1.86-3.11 2.67-4.66.86-1.52 1.67-3.08 2.39-4.62 1.61-3.21 3.11-6.5 4.46-9.81 1.28-3.11 2.39-6.43 3.26-9.77z"/><g fill="#0081C6"><path d="M276.62 184.91c-1.05-.897-2.034-1.76-3.05-2.567-.987-.862-2.067-1.563-3.332-2.23-.555-.322-1.203-.63-1.944-.917-.803-.325-1.637-.596-2.44-.778-.248-.143-.464-.198-.68-.252-.217-.055-.433-.11-.65-.163-.247 0-.433.034-.618.07-.186.034-.31.105-.373.212l-.65.123c-.186.035-.34.16-.558.248-.59.445-.717.946-.193 1.466.43.538 1.078.987 1.94 1.49.804.468 1.39.738 1.73.865.278.09.525.234.71.342.247.14.525.23.77.37-.682.6-1.397 1.26-2.082 2.15-.747.85-1.432 1.74-2.056 2.67-.623.92-1.123 1.78-1.436 2.6-.752 1.86-.947 3.61-.583 5.25.394 1.59 1.223 2.86 2.548 3.85s2.995 1.38 5.037 1.28c.805-.11 1.517-.2 2.168-.32.65-.12 1.27-.34 1.797-.53-1.115.21-2.167.17-3.28-.05-1.05-.19-2.07-.56-3.026-1.19-.53-.38-.99-.72-1.39-1.17-.4-.45-.74-.86-1.02-1.38-.16-.16-.22-.34-.37-.5-.06-.18-.19-.4-.22-.63-.16-.31-.28-.67-.34-.99-.06-.32-.09-.7-.18-1.11-.15-1.16-.05-2.33.32-3.54.34-1.16.87-2.36 1.68-3.46.4-.56.84-1.02 1.34-1.45.5-.43.96-.8 1.49-1.14.12-.07.15-.13.28-.2.12-.07.15-.13.28-.2.18.11.43.25.62.36s.4.16.52.23l.06.03.86.51c.31.18.52.37.83.55.83.84 1.76 1.67 2.71 2.58.96.91 1.97 1.86 3.02 2.76.34.27.65.59.99.86l1.01.81.19.1.18.11.09.12.12.07.18.1c.16.16.4.31.59.41.18.11.34.27.59.41l.03-.06c0-.29.03-.49.03-.77l.06-.97-.22-.2-.06-.18c-.06-.04-.03-.09-.09-.13-.03-.09-.16-.16-.19-.25l-.06-.18c-.04-.09-.04-.09-.1-.12-.06-.04-.03-.09-.09-.13 0-.14-.03-.23-.03-.38l-.06-.18c-.15-.45-.49-1.01-.89-1.6-.4-.6-.86-1.22-1.35-1.8-.47-.63-.93-1.11-1.23-1.43z"/><path d="M271.237 184.64c-.31-.18-.524-.376-.833-.556l-.864-.503-.062-.03c-.216-.05-.34-.12-.524-.23l-.617-.36c-.093.02-.156.13-.28.2-.093.02-.155.13-.28.2-.527.34-.993.71-1.49 1.14-.497.43-.933.89-1.338 1.44-.81 1.11-1.41 2.27-1.69 3.47-.38 1.22-.48 2.38-.33 3.54.03.38.09.7.18 1.11.06.32.18.68.33.99.06.18.12.36.24.58.06.18.18.4.34.56.27.52.67.97 1.01 1.38.4.45.83.84 1.38 1.17.89.59 1.88 1.03 3.02 1.19 1.05.18 2.16.26 3.28.05.09-.01.18-.03.31-.1.09-.02.18-.03.31-.1 1.24-.28 2.35-.78 3.41-1.45 1.08-.73 2.08-1.58 2.89-2.69.31-.39.56-.82.81-1.25.25-.42.43-.89.59-1.3-.19-.11-.4-.3-.59-.41-.19-.11-.41-.3-.59-.41l-.19-.11-.13-.07-.09-.12-.19-.11-.19-.11-1.01-.81c-.34-.27-.65-.59-.99-.86-1.05-.9-2.06-1.85-3.02-2.76-1.14-.88-2.03-1.76-2.86-2.6z"/></g><path fill="#FFF" d="M301.726 179.177c.913-3.053 1.05-6.178.32-9.36-.69-3.234-2.57-6.43-5.596-9.637-3.16-3.14-6.424-5.117-9.69-5.854-3.357-.722-6.546-.66-9.806.18-3.206.877-6.168 2.1-8.886 3.665-2.757 1.62-5.102 3.13-7.113 4.64 2.9 2.71 6.113 5.88 9.678 9.49s7.104 7.35 10.765 11.28c3.608 3.89 7.094 7.6 10.364 11.15 2.018-2.08 3.993-4.43 5.83-7.06 1.746-2.61 3.168-5.45 4.134-8.47z"/><path fill="#A6CE38" d="M269.552 103.525l.066.015-6.012 16.225-4.108 11.046 1.042-11.84 1.384-15.75.116-1.37 7.512 1.68z"/><path fill="#0081C6" d="M269.605 103.537l-.067-.015c.1-.188.194-.362.293-.55.1-.174.21-.345.33-.513l.08-.11c.04-.06.08-.11.13-.14.04-.04.05-.05.05-.02l-.03.13c-.04.2-.11.41-.21.62-.1.2-.19.4-.29.59-.88 1.87-1.64 3.78-2.28 5.72-.62 1.94-1.27 3.88-1.92 5.82-.33.98-.67 1.97-1 2.97-.32 1-.69 2-1.09 2.97l-.08.23c-.06.12-.11.2-.18.22-.05-.01-.07-.04-.06-.1l.03-.12c.03-.25.07-.49.12-.75.06-.26.12-.51.19-.77l6.01-16.23m-7.92-2.6c.01-.04.03-.12.07-.24.04-.11.1-.18.18-.23.12.02.18.11.15.24s-.05.27-.07.37c-.03.36-.04.71-.05 1.07l-.03 1.05-1.38 15.75c-.06-.8-.06-1.58-.01-2.35.05-.76.1-1.55.17-2.36.09-1.49.19-2.98.27-4.46.09-1.49.18-2.97.26-4.46.03-.68.06-1.43.11-2.25.03-.82.15-1.53.35-2.16z"/><path fill="#A6CE38" d="M255.79 97.475l5.154 2.462-11.573 22.552 6.42-25.02zm18.438-43.478c-.06-.456-.104-.922-.157-1.406l-.03-.4c0-.23.06-.4.23-.52.2-.09.34-.08.44.04.09.12.16.3.19.5.22.86.44 1.75.68 2.61s.46 1.75.69 2.62c.05.19.1.38.14.56.05.19.09.37.14.56.12.49.25.97.37 1.46s.23.96.35 1.45c-.08.07-.16.14-.23.21l-.23.2-.12.12c-.04.04-.07.09-.11.12-.09.1-.18.18-.26.28l-.23.29c-.02.04-.07.08-.09.1-.03.04-.05.08-.07.12-.08.12-.15.24-.21.34-.07.12-.12.24-.17.35-.13-.52-.26-1.03-.38-1.55-.1-.51-.21-1.02-.3-1.53 0-.03-.01-.06-.03-.1l-.01-.11c-.06-.31-.13-.79-.22-1.41-.09-.62-.14-1.24-.18-1.86-.03-.21-.05-.42-.07-.63-.02-.19-.02-.38-.01-.56 0-.04 0-.11.03-.19s.05-.17.1-.26c-.05-.43-.13-.88-.19-1.34z"/><path fill="#A6CE38" d="M269.507 44.36c1.427.63 2.513 1.356 3.246 2.16.748.81 1.25 1.51 1.516 2.108.19.42.42 1.13.67 2.158.26 1.017.51 2.138.74 3.35.23 1.21.41 2.295.56 3.277-.23-.88-.46-1.748-.69-2.615s-.46-1.748-.68-2.61c-.05-.203-.1-.376-.19-.496-.1-.125-.24-.137-.44-.043-.16.12-.23.3-.23.52l.03.4c.05.48.09.95.16 1.4.06.45.12.91.19 1.35-.05.09-.09.17-.1.26-.03.08-.04.16-.03.19-.01.18.01.38.01.57.01.2.05.4.07.63.04.62.1 1.24.19 1.86.08.62.16 1.09.21 1.41l.01.11c0 .03.01.06.03.1-1.13.36-2.51.59-4.14.68-1.65.08-3.23 0-4.76-.24-1.63-.29-3.22-.74-4.75-1.35-1.53-.62-2.82-1.29-3.85-2.05-1.03-.76-1.6-1.49-1.72-2.22.12-.37.34-.99.63-1.84.3-.86.69-1.82 1.13-2.9.46-1.08.99-2.13 1.59-3.16.52 1.58.96 3.18 1.32 4.81.34 1.62.6 3.29.78 5l.1.48c.05.23.12.4.2.51.08.12.17.04.28-.23l.04-.18c.01-.09.03-.16.04-.24-.02-.05-.01-.12-.02-.2l-.01-.13c-.07-.83-.19-1.68-.34-2.54-.15-.88-.32-1.71-.47-2.52-.2-.93-.41-1.84-.68-2.74-.27-.89-.56-1.78-.89-2.66.64-1.02 1.33-1.85 2.1-2.5.76-.65 1.56-.98 2.43-.99 2.36.06 4.24.41 5.66 1.04z"/><path fill="#0081C6" d="M257.517 43.69c-.18-.43-.382-.884-.58-1.35-.213-.472-.435-.915-.684-1.32l-.093-.153c-.04-.075-.078-.15-.103-.22.033-.005.06.004.094-.002l.07.004c.19.05.36.25.52.55.16.29.29.54.37.72.42.8.83 1.6 1.2 2.41s.73 1.64 1.03 2.47c.32.88.62 1.77.89 2.66.25.9.49 1.82.68 2.73.17.81.33 1.66.47 2.51.16.86.27 1.7.34 2.53l.01.12c.01.06.01.12.02.19-.01.07-.01.15-.04.24l-.04.17c-.11.26-.2.34-.29.22-.09-.12-.15-.28-.2-.52l-.1-.49c-.17-1.71-.43-3.38-.77-5-.35-1.63-.79-3.23-1.32-4.81-.21-.63-.42-1.25-.67-1.88-.24-.61-.5-1.24-.78-1.85z"/><path fill="#A6CE38" d="M293.376 119.956l-2.445.28c-1.59.16-3.73.298-6.43.385-2.69.09-5.7.03-9.04-.17l-1.43-3.12c-.84-1.95-1.8-4.2-2.9-6.76-1.08-2.55-2.02-4.8-2.84-6.72l-1.28-3.06 5.31-.17 21.07 19.36z"/><path fill="#0081C6" d="M261.853 104.563c.02.014.04.045.043.06.012.025.032.04.044.062-.026.055-.064.087-.14.09-.076.003-.128-.006-.17-.008-.557-.026-1.17-.154-1.85-.374-.68-.22-1.244-.473-1.73-.756-1.742-1.078-3.258-2.444-4.54-4.11-1.28-1.666-2.33-3.426-3.12-5.277l-.014.02c-.042-.003-.078-.015-.1-.045-.02-.03-.034-.055-.046-.078-.036-.07-.068-.168-.095-.292-.02-.132-.047-.256-.084-.386-.43-1.09-.78-2.32-1.07-3.69-.29-1.37-.38-2.61-.25-3.74-.02-.29-.06-.56-.09-.84s-.05-.56-.07-.82c-.02-.3-.04-.59-.05-.88-.02-.3-.02-.59-.02-.89-.24-2.56-.21-5.07.11-7.53.33-2.47 1.01-4.9 2.06-7.31.54-1.23 1.14-2.49 1.81-3.78.66-1.28 1.42-2.45 2.25-3.52l.4-.48c.23-.26.46-.36.66-.32.03.03.05.07.05.11.01.03.01.07-.01.1.05-.07.09-.12.15-.18l.14-.19c-.06.08-.11.17-.18.26-.06.08-.12.17-.18.26-1.06 1.54-2.08 3.26-3.06 5.21-.99 1.94-1.75 3.95-2.26 6.03-.29 1.17-.57 2.71-.82 4.59-.26 1.89-.41 3.96-.45 6.23s.11 4.55.47 6.87c.08.47.16.94.27 1.4.1.47.22.93.32 1.39.01.02.02.05.03.08l.02.07c.43 1.6 1.02 3.1 1.79 4.5s1.73 2.64 2.89 3.71c1.2 1.09 2.39 1.99 3.56 2.7 1.18.7 2.3 1.26 3.39 1.68z"/><path fill="#A6CE38" d="M259.45 55.243l2.446-.618c1.534-.36 3.34-.61 5.417-.746 2.077-.14 3.985.11 5.713.75 1.727.64 2.84 1.91 3.32 3.84.39 1.73.696 3.58.924 5.53.23 1.95.242 4 .06 6.15-.183 2.15-.71 4.39-1.56 6.72-1.088 2.57-2.295 5.2-3.623 7.86-1.32 2.65-2.157 5.71-2.525 9.16s.37 7.63 2.177 12.55c-.51-.17-1.24-.28-2.21-.35-.96-.06-2.11-.18-3.43-.38-1.32-.19-2.77-.58-4.32-1.16-1.09-.42-2.22-.98-3.39-1.7-1.16-.71-2.35-1.62-3.56-2.71-1.16-1.08-2.12-2.31-2.89-3.72-.76-1.4-1.36-2.91-1.79-4.51l-.02-.08c-.01-.02-.02-.06-.03-.08-.12-.46-.22-.92-.32-1.39-.11-.46-.19-.93-.27-1.4-.36-2.32-.52-4.6-.48-6.87s.19-4.35.44-6.24c.25-1.88.52-3.42.81-4.59.52-2.09 1.27-4.09 2.26-6.04.99-1.94 2.01-3.67 3.07-5.21.06-.09.11-.18.18-.27l.18-.27c.92-1.31 1.7-2.36 2.34-3.12l1.03-1.18z"/><path fill="#0081C6" d="M266.79 48.07l.183-.163.212-.123.206-.058.22.003.2.06.19.12.17.17.14.21.11.26.06.28.02.31-.02.3-.06.32-.1.28-.13.26-.17.21-.19.17-.19.11-.2.05h-.21l-.2-.06-.18-.12-.16-.17-.13-.22-.1-.26-.06-.28-.02-.32.02-.3.06-.3.1-.29.14-.26.17-.23z"/><path fill="#A6CE38" d="M272.5 46.49c.505-.075.972.084 1.402.494.46.53.628 1.094.492 1.705-.128.6-.406 1.15-.826 1.64l-2.947-3.02.58-.38c.37-.22.8-.37 1.3-.45zM227 45.253l-1.905-2.526-1.465-1.2-1.447-.38-2.475-.355c-1.956-.162-4.117-.32-6.482-.37-2.365-.05-4.524-.103-6.373-.062l-2.157.048-1.127.128c-.31.212-.71.427-1.02.742-.41.215-.81.532-1.11.847 1.65.58 3.21 1.16 4.76 1.743s3.11 1.164 4.66 1.848c.31.096.52.194.62.398.1.1.21.303.21.406 1.79 1.81 3.17 3.834 4.35 6.17 1.18 2.338 2.06 4.785 2.63 7.34s.73 5.02.68 7.385c-.07 1.646-.44 3.504-1.11 5.47-.57 1.967-1.35 3.834-2.34 5.705s-2.08 3.335-3.39 4.598l-.1.105c-.1.002-.1.105-.2.107-.1.105-.21.107-.31.212s-.21.108-.31.11l-.41.215c-1.84.657-3.67 1.315-5.61 1.872-1.94.66-3.88 1.21-5.93 1.67.73.39 1.35.69 1.87.98.52.19 1.04.49 1.45.68l3.6.23 6.88-.16c2.57-.06 4.93-.22 6.98-.47l2.56-.37 1.32-.44 1.2-1.26 1.79-2.51c1.39-1.99 2.67-4.69 3.83-8 1.15-3.32 1.79-7.13 1.8-11.35-.1-4.32-.8-8.1-2.11-11.47-1-3.37-2.4-6.11-3.88-8.14M112.57 24.38l.412-.01s.205-.003.31.097c.103-.002.203-.107.306-.11l.308-.007c1.336-.03 2.58.457 3.935 1.35 1.26.898 2.42 2.208 3.58 3.826.54.913 1.07 1.826 1.61 2.842.54 1.015 1.08 2.134 1.62 3.457.55 1.324.99 2.753 1.43 4.285.45 1.53.89 3.063 1.24 4.7.57 2.35.93 4.808 1.3 7.472.37 2.663.64 5.33.7 8.205l.12.51.02.926.03 1.027.01.513.08 3.493c-.02 3.39-.26 6.685-.6 9.776-.34 3.193-.79 6.08-1.34 8.867-.28 1.24-.56 2.37-.84 3.51-.28 1.13-.67 2.17-.96 3.1-.38 1.24-.87 2.28-1.26 3.31-.49 1.04-.98 1.97-1.47 2.91-1.09 1.77-2.19 3.13-3.5 4.19-1.21.95-2.53 1.49-3.86 1.62h-.1l-.31.01c-.1 0-.21-.1-.21-.1-.1 0-.21 0-.31.11l-.41.01c-2.26.05-4.34-1.04-6.23-3.05-2-2.01-3.7-4.85-5.33-8.52l-.32-.92-.33-.92.01.31c.47 2.45 1.04 4.9 1.6 7.15.57 2.25 1.23 4.39 1.89 6.33 1.76 5.1 3.7 9.06 5.92 11.89 2.22 2.83 4.52 4.21 6.98 4.26l.21-.01 20.07-3.12c3.59-.19 6.95-1.7 10.07-4.54 3.13-2.85 5.81-6.71 8.07-11.69.1-.21.19-.42.19-.62.1-.21.09-.31.19-.52.1-.31.29-.73.39-1.04.1-.31.19-.73.29-1.04.39-.94.68-1.87.97-2.59.29-.83.58-1.46.78-2.08 1.54-4.96 2.65-10.33 3.24-15.9.6-5.56.78-11.22.55-16.97-.23-5.75-.87-11.29-1.91-16.61-.24-1.33-.57-2.66-.81-3.89-.34-1.33-.67-2.56-1.01-3.78-.33-1.23-.77-2.45-1.21-3.67-.44-1.23-.98-2.34-1.41-3.46l-.2-.1c-.32-.71-.55-1.43-.87-2.04-.32-.72-.64-1.33-.97-1.93-2.47-4.78-5.32-8.52-8.47-11.22-3.14-2.71-6.56-4.07-10.16-4.09L116 8.3c-2.467.05-4.69 1.64-6.785 4.57-2.09 2.92-3.85 6.97-5.38 12.14-.573 1.86-1.05 3.72-1.41 5.78-.47 2.06-.83 4.23-1.19 6.39.096-.21.09-.41.19-.52.1-.21.097-.42.19-.62 1.36-3.63 3.04-6.55 4.95-8.64 1.907-2 3.94-3.07 6.095-3.12m47.3 5.83c1.09 2.54 2.07 5.19 2.75 7.95.68 2.76 1.25 5.42 1.727 8.18 1.43 8.81 1.93 17.53 1.505 25.97-.42 8.43-2.09 16.79-4.78 25.08l32.57-9.56c1.33-.44 2.65-.88 4.08-1.33 1.33-.34 2.76-.78 4.09-1.12.82-.23 1.63-.45 2.35-.67.82-.23 1.63-.45 2.35-.67.31-.11.92-.33 1.74-.55.816-.33 1.53-.55 2.347-.77l1.02-.23.61-.12.2-.42c.49-1.14.98-2.18 1.47-3.32.49-1.14 1.08-2.285 1.57-3.32 1.37-3.117 2.12-6.32 2.04-9.71.03-3.29-.46-6.566-1.56-9.727-1.1-3.16-2.71-6.11-4.82-8.73l-.21-.2-.31-.1c-1.14-.29-2.28-.67-3.31-1.16-1.14-.39-2.18-.88-3.32-1.26-1.76-.68-3.52-1.26-5.28-1.84l-5.39-1.84c-3.62-1.15-7.35-2.3-11.18-3.55-3.93-1.25-7.76-2.4-11.59-3.54-3.93-1.25-7.45-2.41-10.66-3.46z"/><path fill="#FFF" d="M113.29 24.364l-.205.005h-.206c-1.84.45-3.46 1.72-5.06 3.81-1.5 1.98-2.88 4.69-3.93 8-.1.21-.1.41-.19.62-.1.21-.1.41-.2.52-1.16 3.62-1.99 7.75-2.6 12.39-.62 4.63-.82 9.57-.7 14.81.11 5.03.52 9.85 1.34 14.25.61 4.51 1.52 8.49 2.73 11.96l.33.91.33.92c1.31 3.46 2.91 6.2 4.6 8.22 1.69 2.02 3.46 3.11 5.41 3.27.1 0 .21-.01.21.1l.31-.01h.1c1.33-.03 2.66-.58 3.86-1.63 1.21-.95 2.42-2.32 3.5-4.19.49-.83.98-1.87 1.47-2.91s.88-2.18 1.26-3.32c.28-1.04.67-2.07.96-3.11.28-1.14.57-2.28.85-3.52.56-2.79 1-5.68 1.34-8.87.34-3.09.47-6.38.6-9.78l-.08-3.49-.01-.51-.03-1.03-.02-.93-.12-.51c-.17-2.78-.33-5.55-.7-8.21-.37-2.67-.84-5.12-1.3-7.47-.35-1.64-.8-3.28-1.24-4.7-.45-1.54-.89-2.96-1.43-4.29-.54-1.22-1.08-2.34-1.62-3.46-.54-1.02-1.07-2.03-1.61-2.84-1.17-1.62-2.33-2.93-3.58-3.83-1.26-.9-2.6-1.38-3.94-1.35l-.31.01s-.1.1-.21.1z"/><path fill="#0081C6" d="M190.396 39.7c.934.39 1.968.675 2.9.963l5.384 1.832c1.76.577 3.522 1.257 5.282 1.835 1.14.385 2.177.876 3.316 1.26 1.142.49 2.28.875 3.315 1.16l.31.096.21.2c2.116 2.728 3.72 5.57 4.82 8.73 1.098 3.162 1.582 6.44 1.553 9.73-.03 3.288-.675 6.59-2.044 9.704-.49 1.04-1.082 2.182-1.57 3.324-.488 1.14-.98 2.18-1.467 3.32l-.197.416-.614.117-1.022.228c-.817.224-1.634.448-2.346.772-.815.326-1.427.546-1.735.552-.81.22-1.53.44-2.34.66-.81.22-1.53.44-2.35.67-1.32.44-2.75.78-4.08 1.12-1.32.44-2.75.88-4.08 1.32-.2.1-.4.21-.71.32-.2.1-.51.11-.71.32-.2 0-.4.11-.61.21-.2.11-.3.31-.29.62.31.09.52.09.82-.02.31-.01.51-.12.72-.12 1.13-.23 2.36-.47 3.48-.8 1.23-.34 2.35-.57 3.58-.91 1.94-.56 3.99-1.12 5.93-1.67 1.94-.56 3.78-1.22 5.61-1.88l.41-.22c.1-.01.2-.11.31-.11.1-.11.21-.11.31-.22.1-.1.1-.1.2-.11l.1-.11c1.31-1.26 2.41-2.73 3.39-4.6s1.77-3.74 2.34-5.71c.58-1.97.95-3.83 1.11-5.48.16-2.37-.1-4.83-.67-7.39s-1.34-5.01-2.63-7.34c-1.18-2.34-2.66-4.36-4.35-6.17 0-.11-.11-.31-.21-.41-.11-.1-.32-.3-.63-.4-1.55-.58-3.11-1.17-4.66-1.85s-3.21-1.16-4.76-1.74c-1.97-.68-3.94-1.35-5.9-1.93-1.97-.67-3.94-1.25-5.91-1.92-.41-.09-.82-.19-1.34-.38-.52-.09-.93-.19-1.34-.18-.41.01-.61.22-.71.53.21.1.42.19.63.4l.31.09.1-.01c.94.49 1.87.78 2.9 1.06m-31.87-9.87c-.41-.1-.83-.29-1.24-.39.43 1.12.97 2.34 1.41 3.46.44 1.12.88 2.34 1.21 3.67.34 1.23.67 2.45 1.01 3.78.24 1.23.57 2.56.81 3.89 1.05 5.32 1.68 10.85 1.91 16.6.23 5.65.05 11.31-.54 16.97-.59 5.56-1.71 10.83-3.24 15.9-.19.62-.38 1.24-.77 2.07-.29.83-.58 1.65-.97 2.59-.09.31-.19.72-.28 1.03-.1.41-.29.72-.39 1.03.2-.31.29-.72.49-1.04.09-.41.29-.72.49-1.03l2.55-.78c2.8-8.28 4.36-16.64 4.78-25.08.43-8.44-.07-17.16-1.5-25.96-.47-2.77-1.05-5.53-1.72-8.19-.68-2.76-1.66-5.41-2.75-7.96-.32-.3-.83-.39-1.25-.59m-45.75-5.35c-2.26.05-4.39 1.23-6.29 3.33s-3.58 5.01-4.94 8.64c-.1.21-.09.31-.19.52-.1.21-.09.41-.19.62-1.25 3.62-2.19 7.76-2.81 12.29-.61 4.64-.91 9.58-.9 14.92.12 5.04.63 9.75 1.35 14.26.82 4.4 1.94 8.38 3.25 11.84l.01.21v-.31l.33.92.32.92c1.52 3.66 3.33 6.5 5.33 8.51s4.08 2.99 6.24 3.05l.41-.01c.1 0 .2-.11.31-.11-1.95-.16-3.83-1.25-5.41-3.27-1.69-2.02-3.29-4.76-4.6-8.22l-.33-.92-.33-.92c-1.21-3.47-2.22-7.45-2.94-11.96-.72-4.51-1.23-9.22-1.35-14.26-.12-5.24.08-10.18.7-14.81.61-4.64 1.45-8.77 2.6-12.39.1-.21.09-.42.19-.52.1-.21.09-.41.19-.62 1.16-3.32 2.44-6.02 3.93-8 1.71-1.99 3.32-3.26 5.16-3.71z"/><path fill="#A6CE38" d="M235.44 35.356l-2.258.153-1.128.12c-.406.21-.707.53-1.114.74-.404.31-.81.53-1.214.85 1.657.58 3.317 1.26 4.976 1.94 1.66.68 3.217 1.36 4.874 1.94.31.1.518.19.625.4.11.1.22.3.22.4 1.79 2.01 3.39 4.24 4.57 6.78 1.19 2.54 2.07 5.29 2.65 8.06.58 2.76.85 5.53.7 8.2-.06 1.85-.43 3.81-1.09 6.09-.57 2.17-1.44 4.24-2.43 6.22-.98 1.97-2.18 3.64-3.48 5.11l-.3.31c-.2.21-.4.32-.6.42-.1 0-.1.1-.2.11-.1 0-.1.1-.2.1-1.83.76-3.87 1.42-5.91 2.08-2.04.66-4.08 1.32-6.12 1.88.73.39 1.35.69 1.87 1.09.52.29 1.04.49 1.56.68l1.24.18 2.57.04c2.06.06 4.42 0 7.19-.16 2.67-.06 5.14-.22 7.19-.47l2.56-.37 1.33-.44 1.31-1.47 1.79-2.72c1.49-2.3 2.87-5.2 4.12-8.83 1.26-3.63 1.88-7.86 1.78-12.48-.1-4.73-.92-8.92-2.23-12.49-1.31-3.67-2.72-6.62-4.21-8.95l-2.01-2.73-1.47-1.4-1.55-.48-2.58-.36c-2.06-.16-4.32-.31-6.79-.46-2.06-.16-4.22-.22-6.17-.17m-14.27.42l-.83-.29c-3.52-1.16-7.14-2.31-10.97-3.56-4.04-1.35-8.07-2.69-12.01-3.94-3.93-1.35-7.66-2.5-10.97-3.76 1.19 2.85 2.08 5.81 2.76 8.77.68 2.96 1.37 6.03 1.75 9.11 1.55 9.73 2.07 19.27 1.67 28.63-.51 9.36-2.15 18.54-5.03 27.55l33.98-10.52c1.43-.55 2.86-.99 4.29-1.43 1.43-.45 2.85-.89 4.18-1.33.82-.22 1.73-.55 2.55-.78.82-.22 1.63-.55 2.45-.77.3-.11.92-.33 1.73-.55.82-.33 1.73-.66 2.55-.88l1.02-.23.61-.12c0-.1.1-.1.1-.2s.1-.1.1-.21c.49-1.24 1.08-2.49 1.67-3.63.59-1.24 1.08-2.49 1.56-3.73 1.36-3.42 2.11-6.93 2.23-10.64.02-3.59-.47-7.18-1.68-10.75-1.1-3.47-2.82-6.72-4.94-9.65l-.21-.2-.31-.1c-1.14-.39-2.38-.77-3.52-1.26-1.14-.49-2.28-.87-3.42-1.36-1.86-.68-3.73-1.46-5.59-2.03-1.97-.78-3.84-1.46-5.7-2.13m-88.2-29.19c-.59.94-1.19 1.98-1.68 3.02-.59 1.24-1.17 2.59-1.65 4.14-.48 1.45-.96 3.11-1.43 4.76-.57 1.97-1.03 4.14-1.5 6.41-.46 2.27-.82 4.54-1.18 7.01 0 0 .1-.11 0-.11.1-.11.1-.21.1-.41.1-.21.1-.42.2-.62 1.45-4.04 3.13-7.27 5.13-9.57 1.9-2.31 4.04-3.48 6.4-3.64.1 0 .21-.01.31.09l.31-.01.31-.01c.11-.01.21-.11.31-.11 1.34-.03 2.68.45 4.04 1.45 1.26 1 2.52 2.41 3.69 4.23.64.91 1.18 2.03 1.72 3.15s1.08 2.44 1.63 3.76c.55 1.43 1.1 3.06 1.55 4.69.45 1.63.9 3.47 1.25 5.31.57 2.55 1.04 5.21 1.42 8.19.37 2.86.65 5.84.82 8.92l.15 2.15.02.62.04 1.74.02.62-.07 1.54.01.51.02.82c.01.2.01.51.02.72-.02 3.49-.25 6.89-.59 10.08-.34 3.19-.79 6.29-1.34 9.07-.28 1.34-.56 2.58-.84 3.72-.28 1.24-.67 2.38-.95 3.51-.38 1.34-.87 2.48-1.36 3.63-.49 1.14-.98 2.18-1.57 3.12-1.09 1.97-2.28 3.54-3.6 4.6-1.31 1.06-2.64 1.6-4.07 1.63h-.3l-.31.01-.41.01c-.1 0-.21 0-.31.01-2.36.05-4.54-1.03-6.55-3.35-2-2.22-3.92-5.26-5.55-9.23-.11-.31-.22-.72-.33-1.02-.11-.31-.22-.72-.43-1.02l.11.3c.47 2.76 1.05 5.42 1.62 7.87.67 2.45 1.34 4.8 2.01 7.05 1.77 5.61 3.82 9.98 6.15 13.12 2.23 3.13 4.73 4.72 7.3 4.77l.21-.01 20.88-3.35c3.79-.19 7.25-1.81 10.47-4.96 3.22-3.16 6-7.43 8.34-12.93.1-.21.2-.42.3-.52.1-.21.2-.42.2-.62.1-.41.19-.82.39-1.14.09-.42.29-.73.38-1.14.38-1.04.67-1.97 1.06-2.9.29-.93.58-1.66.77-2.28 1.62-5.48 2.73-11.37 3.31-17.54.58-6.18.75-12.35.51-18.61-.24-6.27-1-12.42-2.06-18.35-.24-1.44-.48-2.87-.82-4.3-.34-1.43-.68-2.76-1.02-4.19-.34-1.43-.78-2.76-1.32-3.98-.44-1.33-.98-2.55-1.42-3.87h-.2c-.33-.82-.55-1.53-.88-2.24s-.65-1.43-1.07-2.14c-2.59-5.29-5.45-9.44-8.81-12.34-3.26-3.01-6.78-4.48-10.59-4.6L140.9-.15c-.72.01-1.44.13-2.15.46-.71.32-1.32.75-2.03 1.28l-.1.1-.8.84c-.3.31-.5.63-.81.84-.59 1.04-1.29 2.08-1.885 3.02m14.75-2.07l.42.09c.313.2.733.6 1.26 1.2.53.61.952 1.21 1.48 1.82.53.7.85 1.21 1.06 1.52 3.092 4.96 5.683 10.56 7.68 16.88 1.99 6.33 3.47 12.77 4.44 19.43.97 6.65 1.312 12.92 1.14 18.78-.04 2.98-.17 6.17-.41 9.46-.23 3.29-.57 6.58-1.11 9.89-.55 3.19-1.2 6.29-2.16 9.09-.68 1.96-1.46 4.04-2.43 6.32-.88 2.28-1.86 4.36-2.94 6.43-.2.51-.49.93-.69 1.35-.3.42-.49.93-.8 1.25-.1.21-.297.52-.596.94-.3.41-.6.73-.91.84-.01-.31-.01-.62.18-1.04.09-.31.19-.62.29-.73.69-1.35 1.38-2.71 1.96-4.06.69-1.35 1.27-2.81 1.76-4.15.58-1.45 1.17-3.01 1.75-4.56.48-1.55.96-3.11 1.33-4.66 2.07-8.37 3.21-17.44 3.3-27.1.09-9.77-.94-19.3-3.11-28.71-2.16-9.41-5.54-17.96-10.02-25.67-.32-.51-.65-1.12-1.07-1.62-.32-.51-.74-1.01-1.06-1.52l-.1-.2-.32-.41-.33-.917z"/><path fill="#0081C6" d="M223.616 35.106c-2.07-.673-4.038-1.348-6.108-2.02-.413-.095-.83-.29-1.347-.485-.51-.19-1.03-.18-1.34-.17-.41.01-.61.22-.7.53.21.2.42.3.63.4l.31.1.21.1c1.04.39 1.97.78 3.01 1.07.73.29 1.46.59 2.28.88l.83.29 5.6 2.04 5.6 2.04c1.14.49 2.28.87 3.42 1.36 1.14.49 2.39.87 3.53 1.26l.31.1.21.2c2.12 2.94 3.84 6.19 4.95 9.66 1.11 3.58 1.7 7.16 1.68 10.76-.02 3.7-.76 7.21-2.23 10.63-.48 1.25-1.07 2.49-1.56 3.74-.59 1.25-1.07 2.39-1.66 3.64 0 .1-.1.11-.1.21.01.1-.1.1-.1.21l-.61.12-1.02.23c-.81.22-1.63.55-2.55.88-.81.33-1.42.55-1.73.56-.82.23-1.63.55-2.45.78-.81.23-1.73.56-2.55.78-1.43.45-2.86.89-4.18 1.33-1.43.44-2.86.89-4.28 1.43l-1.32.55c-.2.11-.41.11-.71.32-.2.11-.3.32-.29.63.31.1.52.2.82.09.31-.11.61-.12.72-.22 1.22-.23 2.35-.56 3.57-.9 1.22-.33 2.45-.67 3.78-1.01 2.04-.55 4.08-1.22 6.12-1.88 2.04-.66 3.98-1.32 5.91-2.08.1 0 .1-.1.2-.11.1 0 .1 0 .2-.1.2-.11.41-.22.61-.43l.3-.31c1.31-1.36 2.5-3.04 3.48-5.11 1.09-1.98 1.86-4.16 2.43-6.22.67-2.18 1.04-4.24 1.1-6.09.15-2.68-.12-5.34-.69-8.21-.58-2.86-1.46-5.51-2.64-8.06-1.18-2.54-2.78-4.87-4.57-6.78 0-.1-.11-.31-.21-.41-.21-.2-.42-.3-.62-.4-1.66-.68-3.21-1.37-4.87-1.95-1.66-.68-3.32-1.26-4.98-1.94-2.27-.46-4.24-1.24-6.31-1.91m-98.12-3.27c.01.1.01.1-.09.21-1.25 4.04-2.28 8.58-2.88 13.63-.71 5.05-.99 10.5-.86 16.36.13 5.55.55 10.78 1.38 15.79.83 4.91 1.96 9.2 3.38 13.08l.11.2-.11-.31c.11.3.22.71.44 1.02.11.41.22.71.33 1.02 1.63 3.97 3.45 7.01 5.55 9.23 2 2.21 4.19 3.29 6.55 3.34l.31-.01.41-.01c-1.95-.26-3.93-1.45-5.73-3.67-1.79-2.22-3.4-5.16-4.82-8.93-.11-.3-.22-.71-.33-1.02-.11-.3-.22-.71-.43-1.02-1.32-3.87-2.34-8.27-3.07-13.18-.83-4.92-1.25-10.15-1.38-15.69-.12-5.75.16-11.2.67-16.35.6-5.15 1.53-9.69 2.67-13.62.1-.21.1-.41.2-.62.1-.2.09-.41.19-.62 1.15-3.62 2.52-6.63 4.22-8.93 1.6-2.19 3.31-3.56 5.25-4.12h-.1c-2.36.05-4.49 1.23-6.39 3.63-1.9 2.3-3.68 5.42-5.13 9.46-.1.21-.1.42-.19.62 0 .11-.1.21-.1.21.1.21.11.31 0 .31M148 4.51c.006.31.116.61.33.92l.316.41.1.2c.32.51.747 1.01 1.06 1.52.328.61.75 1.11 1.07 1.62 4.485 7.61 7.76 16.17 10.03 25.67 2.16 9.41 3.2 19.04 3.11 28.71.01 9.87-1.12 18.83-3.2 27.2-.38 1.55-.856 3.102-1.335 4.66-.58 1.55-1.17 3-1.75 4.56-.59 1.35-1.17 2.692-1.76 4.15-.59 1.35-1.28 2.7-1.96 4.05-.1.1-.19.41-.29.72-.19.42-.29.73-.18 1.03.41-.11.71-.32.91-.84.3-.41.5-.73.59-.93.2-.42.5-.84.8-1.25.3-.42.49-.94.69-1.36 1.08-2.08 2.07-4.15 2.94-6.43.87-2.28 1.75-4.36 2.43-6.32.96-2.8 1.72-5.9 2.16-9.09.54-3.3.88-6.6 1.11-9.89.23-3.3.37-6.48.41-9.47.18-5.97-.17-12.23-1.14-18.78-.97-6.66-2.45-13.1-4.44-19.43-1.99-6.33-4.58-11.92-7.67-16.89-.21-.31-.53-.81-1.06-1.52-.42-.61-.95-1.21-1.48-1.82s-.95-1.01-1.26-1.21l-.52-.2m38.57 19.69l-1.45-.48c-.41-.1-.93-.29-1.34-.49.55 1.32.98 2.55 1.43 3.87l1.31 3.98c.34 1.33.68 2.76 1.02 4.19.34 1.43.58 2.86.82 4.3 1.06 5.93 1.81 11.98 2.05 18.35.24 6.27.07 12.54-.51 18.61-.58 6.18-1.68 11.956-3.31 17.54-.19.62-.48 1.35-.77 2.28-.29.93-.68 1.86-1.06 2.9-.1.41-.29.72-.39 1.14-.1.41-.19.82-.39 1.13.2-.42.29-.83.49-1.15.09-.41.29-.83.49-1.24l2.75-.89c2.88-9.11 4.52-18.29 5.03-27.55.41-9.36-.11-18.903-1.66-28.63-.48-3.07-1.07-6.14-1.75-9.1-.58-2.97-1.57-5.93-2.76-8.78m-53.71-19.3c-.7 1.04-1.29 2.18-1.77 3.43-.48 1.14-.97 2.28-1.46 3.32-.09.21-.19.52-.29.72-.09.31-.19.518-.18.826v.11l.01.21c.1-.1.31-.21.4-.42.1-.2.2-.31.2-.41.3-.52.49-1.04.79-1.56.3-.52.49-1.03.79-1.56.49-1.04 1.09-2.08 1.68-3.02.6-1.04 1.29-1.98 1.99-3.02l-.2.21-.2.21c-.1.11-.1.21-.2.32l-.2.21c-.1.11-.1.21-.2.21l-.1.11-.1.11-.51.01-.41.01M129.46 107c.33 1.12.667 2.245 1.105 3.468.54 1.22 1.08 2.442 1.722 3.558l.31-.005h.31l.1-.01h.1c-.646-1.32-1.19-2.54-1.732-3.97l-1.63-3.97c-.004-.1-.11-.3-.11-.41-.11-.1-.21-.1-.42-.09-.1.21-.19.52-.08.83l.01.41.31.2z"/><path fill="#FFF" d="M127.96 31.283c-.097.208-.093.413-.19.62-1.146 3.932-2.072 8.474-2.676 13.625-.607 5.05-.793 10.5-.663 16.355.13 5.546.55 10.777 1.38 15.69.73 4.918 1.75 9.314 3.07 13.19.11.305.22.714.44 1.017.11.41.22.715.33 1.02 1.42 3.77 3.03 6.715 4.83 8.936 1.8 2.22 3.68 3.412 5.74 3.674l.31-.007.31-.007c1.44-.032 2.76-.575 4.08-1.632 1.31-1.057 2.51-2.626 3.6-4.602.5-.936 1.09-1.977 1.58-3.118.49-1.142.98-2.386 1.36-3.627.39-1.14.67-2.276.95-3.516l.84-3.71c.56-2.78 1-5.88 1.34-9.07.34-3.19.57-6.59.6-10.08l-.01-.72c0-.2-.01-.51-.02-.82l-.01-.51.07-1.54-.01-.61-.04-1.75-.01-.62-.15-2.15c-.17-3.08-.44-6.05-.81-8.92-.37-2.87-.84-5.63-1.41-8.19-.45-1.84-.8-3.68-1.25-5.31-.45-1.63-1-3.27-1.54-4.69-.54-1.32-1.09-2.64-1.62-3.76-.54-1.22-1.07-2.23-1.71-3.14-1.17-1.82-2.43-3.23-3.69-4.23-1.36-1-2.7-1.48-4.04-1.45-.1 0-.2.01-.3.11l-.31.01-.2.01h-.2c-1.84.46-3.55 1.83-5.25 4.13-1.59 2.3-2.96 5.2-4.22 8.93-.2.11-.3.32-.4.52z"/><path fill="#0081C6" d="M104.212 46.675c-.735-.702-1.463-1.097-2.285-1.08-.822.02-1.532.446-2.235 1.18-.702.736-1.296 1.777-1.782 3.02-.486 1.245-.862 2.795-1.13 4.548-.273 1.65-.334 3.502-.393 5.455.043 1.952.29 3.796.635 5.433.345 1.64.79 3.17 1.333 4.5.542 1.22 1.18 2.24 1.916 2.94.74.71 1.47 1.1 2.29 1.08.82-.02 1.53-.44 2.24-1.18.71-.73 1.3-1.77 1.79-3.02.49-1.34.87-2.79 1.13-4.54.27-1.65.44-3.5.39-5.45s-.19-3.79-.63-5.43c-.34-1.74-.79-3.17-1.33-4.49-.54-1.22-1.18-2.23-1.91-2.94zm21.534-1.377c-.822.018-1.532.445-2.235 1.18-.7.735-1.29 1.776-1.78 3.02-.48 1.347-.86 2.794-1.13 4.547-.27 1.65-.43 3.504-.39 5.455s.29 3.796.64 5.432c.35 1.74.79 3.168 1.34 4.492.55 1.324 1.18 2.234 1.92 2.937.74.71 1.47 1.1 2.29 1.08.82-.01 1.53-.44 2.24-1.18.71-.73 1.3-1.77 1.78-3.02.49-1.24.87-2.79 1.14-4.54.27-1.65.33-3.5.39-5.45-.04-1.95-.29-3.79-.64-5.43-.34-1.63-.79-3.16-1.33-4.49-.54-1.22-1.18-2.23-1.92-2.94-.73-.7-1.46-.99-2.28-1.08z"/><path fill="#A6CE38" d="M251.247 76.29c.086.138.112.243.066.313-.036.072-.127.144-.283.205-.396.15-.873.198-1.432.14-.548-.054-1.117-.18-1.708-.366-.433-.135-.84-.287-1.233-.46-.393-.17-.742-.335-1.047-.502-.243-.134-.5-.248-.76-.362-.258-.114-.53-.22-.8-.324-.48-.177-.958-.376-1.43-.596-.477-.21-.918-.48-1.33-.79-1.57-1.245-3.056-2.71-4.456-4.394-1.4-1.683-2.674-3.456-3.794-5.334-.155-.25-.357-.612-.615-1.094-.26-.47-.493-.97-.687-1.498-.194-.526-.288-.99-.26-1.397.01-.04.017-.08.023-.11l.03-.12c-.03-.07-.05-.14-.07-.21-.02-.07-.04-.14-.05-.21-.02-.1-.04-.21-.04-.32 0-.1.01-.2.01-.29l-.14-.03c-.12-.02-.22-.04-.33-.06l-.34-.07c-.72-.14-1.45-.31-2.16-.49-.72-.19-1.42-.44-2.11-.75-1.05-.46-2.17-1.1-3.36-1.92-1.18-.82-2.1-1.89-2.76-3.19-.24-.28-.44-.56-.61-.87-.17-.3-.29-.59-.37-.89-.03-.14-.05-.26-.04-.41-.01-.13.01-.28.03-.4l.01-.03.02-.1.03-.09h-.09c-.02.01-.05 0-.09-.01h-.14c-.11 0-.22-.01-.33 0-.11.01-.22 0-.34 0-1.19-.02-2.39-.17-3.61-.4-1.21-.24-2.41-.62-3.55-1.13-.23-.09-.42-.25-.58-.46-.15-.2-.23-.42-.23-.67 0-.1.02-.21.07-.31.04-.1.1-.2.2-.3.56-.52 1.31-.92 2.22-1.2.91-.28 1.72-.49 2.44-.6.07-.01.13-.03.21-.04.05-.01.09-.01.14-.02h.05c.01 0 .03-.01.03-.01.47-.08.96-.15 1.46-.2s1.01-.09 1.53-.09c.65-.02 1.29.02 1.93.09.65.07 1.27.21 1.88.4.05 0 .08.02.11.04l.11.03c.09.03.17.07.25.09.09.03.18.07.27.09 1.04.1 2.11.25 3.22.44 1.11.19 2.14.51 3.13.94l.16.09c.08.05.16.1.23.14.04.04.07.08.08.12.02.05.01.09-.03.13l-.17.04-.34-.02c-.28-.03-.59-.07-.89-.11l-.63-.1c-.11-.02-.22-.03-.32-.05-.11-.02-.23-.03-.34-.05-.04.02-.08.03-.12.05-.03.01-.07.01-.09.02-.52.09-1.09.08-1.71-.02-.62-.1-1.21-.24-1.77-.4-.5-.02-.99-.05-1.49-.06-.5-.01-1-.01-1.52 0-.07 0-.18 0-.31.01-.14.01-.3.01-.46.02.09.03.19.06.28.1.1.03.19.06.3.1.31.12.63.28.96.48.33.21.64.36.93.45l.44.09c.22.07.36.21.45.48.02.04.02.07.02.12 0 .05.01.09 0 .15 1.02.05 2.07.2 3.16.44 1.08.25 1.96.68 2.65 1.3l.15.16c.08.08.15.16.2.24.03.06.05.11.08.15.04.04.05.09.04.15-.01.04-.03.07-.06.09l-.07.03c-.06.03-.17.05-.3.05-.15 0-.31-.01-.49-.02.95.6 1.91 1.17 2.87 1.73.97.56 1.92 1.13 2.86 1.75.5.31 1.06.66 1.66 1.04.61.38 1.13.79 1.56 1.22l.15.2c.07.1.14.2.19.3l.04.11.04.06c.11.4.11.78-.01 1.13-.12.35-.33.57-.63.65.86.22 1.72.5 2.57.82.86.34 1.62.75 2.29 1.27l.16.13c.07.07.15.13.23.19.06.1.1.19.12.26.02.07-.06.13-.25.18-.34.05-.74.03-1.22-.06-.47-.09-.89-.19-1.24-.27-.42-.1-.84-.21-1.26-.33l-1.26-.37c.54.4 1.08.82 1.61 1.26.54.45 1.05.92 1.55 1.4.42.36.83.74 1.24 1.15.42.43.63.94.68 1.57 0 .07-.02.17-.05.29l-.04.22c.03.09.1.18.21.27.11.1.19.18.26.25.35.37.78.86 1.26 1.45.48.6.77 1.17.84 1.7 0 .19-.02.34-.07.44-.04.11-.01.22.09.34.27.29.61.58 1.02.88.41.3.73.65.99 1.03.25.39.27.86.046 1.41l-.07.12c-.05.06-.08.12-.13.19.73.2 1.46.44 2.18.71.72.26 1.39.63 2.01 1.1l.16.12c.04.07.12.14.18.21m-31.13-29.8c-.07-.03-.16-.05-.252-.07l-.18-.02c-.27-.06-.53-.11-.8-.13-.27-.04-.54-.05-.8-.04l-.07-.01c-.03 0-.06 0-.09.02.05.02.13.05.22.05.09.01.16.01.19.01.26.04.54.07.81.1.26.04.54.07.8.1l.1.02c.05 0 .07-.01.1-.01m1.77 4.06l-.01-.09-.07-.01c-.02 0-.04.01-.03.04.01.03.02.05.05.09.03.04.05.05.07.06l-.01-.08z"/><path fill="#A6CE38" d="M219.898 46.46c.098.017.184.033.256.068-.026.018-.058.012-.1.004l-.1-.018c-.26-.036-.534-.064-.795-.1-.28-.038-.54-.064-.81-.102-.04-.006-.1-.007-.19-.012s-.16-.03-.22-.05c.02-.018.06-.023.09-.017l.07.014c.26-.01.52.006.79.044.27.04.53.09.8.14l.18.04m46.78 6.93c.54.38 1.07.78 1.6 1.19.53.41 1.07.83 1.59 1.27.62.56 1.35 1.7 2.16 3.43.82 1.74 1.54 3.72 2.18 5.95.64 2.24 1 4.38 1.08 6.43.08 2.06-.29 3.69-1.13 4.89-1.18 1.47-2.49 2.64-3.94 3.51-1.45.87-2.72 1.49-3.79 1.87l-1.69.55-1.66-.34c-1.08-.24-2.48-.61-4.23-1.11-1.74-.5-3.64-1.15-5.7-1.95-.28-.1-.53-.22-.82-.33l-.82-.35c-.62-.27-1.24-.55-1.85-.85-.62-.3-1.23-.61-1.83-.94.59.19 1.16.32 1.71.37.55.06 1.02.01 1.43-.14.15-.06.25-.13.28-.2.03-.07.01-.17-.07-.31-.07-.07-.15-.13-.22-.2l-.16-.11c-.62-.47-1.29-.83-2.01-1.1-.72-.26-1.45-.51-2.18-.71.05-.07.08-.13.12-.19l.07-.12c.22-.55.2-1.01-.05-1.4-.26-.38-.58-.73-.99-1.03-.42-.3-.75-.59-1.02-.88-.1-.13-.14-.23-.1-.34.04-.1.05-.25.06-.43-.07-.54-.36-1.1-.84-1.7-.48-.6-.91-1.08-1.26-1.44-.07-.07-.15-.15-.26-.25-.11-.09-.18-.19-.21-.27l.04-.21c.03-.12.05-.22.05-.29-.04-.63-.26-1.15-.67-1.56-.42-.41-.83-.8-1.24-1.15-.51-.48-1.02-.96-1.54-1.4-.54-.44-1.07-.87-1.61-1.27l1.26.37c.41.12.84.23 1.25.33.36.1.77.19 1.25.27.48.09.88.11 1.22.06.19-.05.26-.11.24-.18-.02-.08-.06-.17-.12-.26-.07-.06-.15-.12-.23-.19l-.16-.13c-.68-.51-1.44-.93-2.29-1.26-.86-.33-1.71-.6-2.57-.83.31-.08.51-.29.63-.65.12-.34.12-.72.01-1.12l-.04-.06-.05-.11c-.05-.09-.11-.19-.19-.3l-.16-.19c-.43-.43-.95-.83-1.56-1.22-.61-.38-1.16-.72-1.66-1.04-.93-.61-1.89-1.2-2.86-1.75s-1.92-1.13-2.87-1.72c.17.02.34.03.49.03.14-.01.23-.02.3-.06l.07-.03c.04-.02.05-.05.06-.09 0-.05-.01-.11-.04-.15-.02-.04-.05-.08-.07-.14-.05-.07-.13-.15-.2-.23l-.15-.16c-.68-.62-1.56-1.06-2.65-1.3-1.08-.24-2.14-.39-3.16-.44.01-.06.01-.1 0-.15 0-.05-.02-.08-.02-.12-.08-.26-.22-.42-.45-.47l-.44-.09c-.27-.09-.58-.24-.92-.45-.33-.19-.65-.35-.96-.49-.09-.04-.2-.07-.3-.1-.09-.02-.19-.05-.28-.09.17 0 .32-.01.46-.02s.24-.01.31-.01c.52 0 1.02.01 1.52.01.5.01 1 .03 1.49.06.56.16 1.15.29 1.77.4.61.1 1.18.12 1.7.02l.09-.01s.08-.02.12-.05c.1.02.21.03.33.05.1.02.21.03.32.05l.63.11c.3.04.61.09.89.12l.34.01.17-.04c.04-.04.06-.08.03-.13-.01-.04-.04-.09-.08-.12-.07-.04-.15-.09-.23-.14l-.16-.08c-.98-.44-2.03-.75-3.12-.94-1.1-.19-2.18-.34-3.22-.44-.087-.03-.18-.07-.265-.09-.08-.02-.166-.06-.25-.09-.03-.01-.07-.02-.117-.03-.03-.02-.08-.02-.11-.04.97-.1 2.01-.2 3.123-.3 1.12-.09 2.3-.16 3.55-.22 2.91-.15 6.06-.12 9.48.12 3.42.23 6.95.78 10.62 1.66 2.238.54 4.47 1.25 6.72 2.11 2.25.86 4.47 1.91 6.69 3.15.7.39 1.39.8 2.08 1.25.76.43 1.45.88 2.13 1.36z"/><path fill="#0081C6" d="M266.64 52.51c.407.343.79.69 1.145 1.07.068.056.162.15.295.276.132.135.2.26.21.373-.06.02-.123.01-.204-.04l-.18-.11c-.214-.12-.416-.24-.618-.35l-.607-.35c-.68-.49-1.37-.93-2.06-1.37-.69-.44-1.38-.86-2.08-1.25-2.23-1.4-4.46-2.52-6.68-3.36-2.21-.84-4.46-1.48-6.73-1.9-3.67-.87-7.22-1.43-10.62-1.67-3.41-.24-6.58-.28-9.47-.12-1.78-.09-3.54-.14-5.3-.14-1.75-.01-3.48.04-5.19.17-.51 0-1.02.03-1.52.09s-.98.12-1.46.2c-.01-.01-.02 0-.02 0-.01-.01-.03 0-.04 0-.34.04-.68.09-1.04.15-.38.06-.75.13-1.11.22-.34.15-.79.29-1.33.45-.55.15-1.01.36-1.41.62-.38.25-.5.6-.34 1.04 0 .23.09.46.24.67.16.21.36.36.59.46 1.15.51 2.34.88 3.56 1.12 1.22.24 2.42.37 3.61.4l.31.05c.1.01.21.03.3.06l.03-.06c.02-.02.02-.05.04-.05h.15c.03.03.05.06.06.1.02.03.04.06.03.08l.02.01v.03c-.02.13-.03.27-.03.41.01.13.02.27.05.41.07.3.19.6.38.89.17.3.37.59.61.87.67 1.3 1.59 2.37 2.77 3.19 1.19.82 2.31 1.46 3.37 1.92.69.31 1.39.56 2.11.75.73.18 1.45.35 2.17.49l.34.07.34.06.14.03c-.02.1-.02.2-.01.29.01.1.02.21.05.32h-.05l-.05-.01.07.34c.03.12.07.22.11.33-.02.41.06.87.26 1.39.19.53.42 1.03.68 1.5.26.47.46.84.62 1.09 1.12 1.87 2.39 3.66 3.79 5.33 1.4 1.68 2.89 3.15 4.45 4.39.41.32.85.58 1.33.79.47.22.95.42 1.43.59 1.18.68 2.39 1.3 3.64 1.86s2.5 1.07 3.76 1.52c.02 0 .04.02.05.02l.05.02.82.35c.27.12.54.22.81.33.5.22.98.46 1.45.73.48.26.94.55 1.4.83l.18.09c.09.05.16.1.23.14.03.01.05.04.07.06.01.03-.01.06-.05.07-.04.01-.09 0-.15-.03-.06-.02-.1-.04-.14-.06-.36-.1-.71-.18-1.07-.26-.35-.07-.72-.17-1.07-.29-1.08-.37-2.18-.76-3.31-1.16-1.12-.39-2.2-.82-3.26-1.27-3.23-1.41-6.11-3.25-8.67-5.51-2.56-2.26-4.65-4.96-6.28-8.05-.41-.74-.84-1.6-1.28-2.57-.45-.98-.69-1.9-.73-2.79-1.52-.36-3.03-.83-4.53-1.42-1.49-.59-2.87-1.34-4.14-2.25-.69-.53-1.35-1.29-1.95-2.27-.6-.98-.97-1.94-1.1-2.87-.85-.17-1.71-.31-2.55-.44-.86-.13-1.7-.28-2.55-.48-.45-.1-.99-.27-1.61-.51-.63-.25-1.19-.56-1.67-.95-.49-.39-.75-.85-.78-1.39 0-.12.01-.23.02-.34.01-.11.03-.21.06-.3h-.02c0-.02 0-.04-.01-.07l.02-.04c.01-.05.04-.13.08-.2s.12-.13.19-.2c.06-.07.13-.13.19-.19.07-.05.14-.09.23-.13l.08-.06c.02-.02.05-.02.06-.03 1.07-.62 2.33-1.1 3.79-1.41 1.45-.32 2.97-.52 4.54-.61 1.57-.11 3.06-.16 4.48-.15 1.58 0 3.19.03 4.83.1 1.63.06 3.24.16 4.84.31 3.22.25 6.41.49 9.56.69 3.15.22 6.38.72 9.67 1.51 2.31.59 4.44 1.37 6.4 2.32 1.96.94 3.98 2.12 6.06 3.49l.19.13c.1.07.2.13.29.19.04.03.08.06.12.07l.09.04c.44.28.88.59 1.28.95z"/><path fill="#A6CE38" d="M262.078 101.772l7.568 1.693-10.124 27.284 2.556-28.98zm-6.26-4.327l5.158 2.463-11.577 22.564 6.41-25.027z"/><path fill="#A6CE38" d="M293.406 119.936l-2.446.28c-1.59.162-3.757.294-6.432.386-2.695.088-5.71.03-9.068-.18l-1.434-3.126c-.84-1.955-1.8-4.21-2.88-6.762-1.083-2.553-2.026-4.79-2.848-6.73l-1.28-3.067 5.306-.17 21.082 19.37z"/><path fill="#0081C6" d="M261.845 104.528c.02.014.04.045.043.062.012.023.03.037.044.06-.026.056-.064.087-.14.09-.076.003-.135.004-.17-.008-.557-.026-1.172-.153-1.85-.373-.68-.22-1.253-.47-1.738-.75-1.744-1.08-3.26-2.45-4.542-4.11-1.282-1.67-2.33-3.43-3.13-5.27l-.013.02c-.05-.01-.08-.02-.11-.05-.02-.03-.04-.06-.05-.08-.04-.07-.07-.17-.09-.3-.02-.14-.05-.26-.09-.39-.44-1.09-.79-2.32-1.09-3.68-.3-1.37-.38-2.61-.26-3.75-.03-.29-.06-.56-.1-.84-.04-.28-.05-.55-.08-.82-.02-.3-.04-.59-.05-.88-.02-.3-.03-.58-.03-.88-.25-2.56-.21-5.07.1-7.54.32-2.47 1-4.9 2.06-7.31.53-1.23 1.13-2.49 1.8-3.77.66-1.28 1.42-2.45 2.25-3.52l.38-.47c.23-.26.45-.36.65-.31.03.04.05.08.05.11.01.03.01.07-.01.1.04-.07.09-.13.15-.19l.14-.19c-.07.08-.12.18-.18.26-.07.08-.12.18-.18.26-1.06 1.54-2.08 3.26-3.07 5.21-.99 1.94-1.74 3.94-2.26 6.03-.29 1.17-.57 2.71-.82 4.59-.26 1.89-.41 3.96-.45 6.22s.11 4.56.48 6.86c.08.47.16.94.27 1.4.09.47.21.93.32 1.39.01.02.01.05.03.08l.02.07c.43 1.6 1.03 3.09 1.79 4.49.76 1.4 1.72 2.64 2.88 3.72 1.2 1.09 2.39 2 3.55 2.7 1.18.69 2.32 1.26 3.41 1.68z"/><path fill="#A6CE38" d="M259.44 55.185l2.454-.627c1.535-.36 3.34-.61 5.412-.738 2.078-.137 3.987.117 5.706.748 1.73.64 2.84 1.915 3.32 3.847.392 1.734.698 3.583.917 5.53s.25 4.007.06 6.152c-.19 2.152-.71 4.39-1.57 6.73-1.09 2.58-2.3 5.2-3.62 7.858-1.32 2.657-2.16 5.716-2.52 9.153s.38 7.626 2.18 12.544c-.51-.17-1.24-.28-2.2-.337-.96-.058-2.11-.18-3.43-.38-1.32-.19-2.77-.575-4.33-1.163-1.09-.42-2.22-.98-3.39-1.695-1.16-.708-2.35-1.615-3.56-2.707-1.16-1.073-2.12-2.312-2.89-3.717-.76-1.398-1.36-2.904-1.8-4.495l-.02-.074c-.01-.023-.02-.056-.03-.08-.12-.458-.22-.918-.32-1.388-.1-.46-.18-.932-.27-1.404-.36-2.317-.52-4.604-.48-6.862s.19-4.346.45-6.22c.25-1.883.52-3.42.81-4.595.52-2.084 1.27-4.094 2.26-6.028.99-1.943 2.01-3.67 3.07-5.208.06-.09.11-.18.18-.27.06-.09.11-.18.18-.27.92-1.32 1.7-2.36 2.34-3.12l1.04-1.2z"/><path fill="#A6CE38" d="M274.27 53.894c-.063-.456-.106-.922-.158-1.407l-.047-.404c-.005-.236.062-.402.225-.524.2-.1.337-.09.44.04.087.12.156.3.19.49.215.86.442 1.74.673 2.61.23.86.457 1.75.687 2.61.052.18.103.37.14.56.05.18.088.37.14.56.113.48.246.96.36 1.45s.233.96.347 1.45c-.083.07-.167.13-.236.21-.08.07-.14.12-.23.19-.04.03-.08.08-.11.12-.04.03-.07.08-.11.12-.09.09-.18.18-.26.28-.07.1-.15.18-.23.28-.02.04-.05.08-.07.1-.02.04-.05.08-.07.12-.08.11-.15.23-.21.34-.06.12-.12.24-.17.35-.13-.53-.26-1.03-.37-1.55-.11-.52-.21-1.02-.31-1.53 0-.03-.01-.07-.03-.1l-.01-.12c-.06-.32-.13-.79-.22-1.41-.08-.62-.14-1.25-.18-1.87-.03-.22-.05-.43-.07-.63-.02-.2-.02-.39-.01-.57 0-.05.02-.1.03-.19.03-.09.06-.17.11-.27-.08-.43-.14-.89-.2-1.35z"/><path fill="#A6CE38" d="M269.54 44.268c1.43.63 2.515 1.356 3.25 2.16.747.81 1.248 1.51 1.515 2.11.198.42.43 1.13.673 2.158.263 1.017.508 2.14.742 3.35.233 1.212.412 2.297.56 3.28-.226-.882-.457-1.75-.687-2.617-.23-.87-.458-1.75-.674-2.62-.05-.2-.11-.38-.19-.5-.11-.13-.24-.14-.44-.05-.17.12-.24.3-.23.52l.04.4c.05.48.09.95.15 1.4.06.45.12.91.2 1.36-.05.09-.09.17-.11.26-.03.08-.04.16-.03.19-.01.18.01.37.01.56.01.21.04.4.07.63.04.62.09 1.25.18 1.87.09.62.16 1.09.22 1.41l.01.11c0 .03.01.06.03.1-1.13.37-2.51.59-4.15.68-1.65.08-3.23 0-4.76-.25-1.63-.29-3.22-.73-4.75-1.35-1.53-.61-2.82-1.29-3.85-2.05-1.03-.75-1.59-1.51-1.71-2.23.11-.37.34-.99.63-1.83s.69-1.82 1.15-2.9c.45-1.08.98-2.13 1.59-3.17.52 1.58.96 3.19 1.32 4.81.34 1.62.6 3.29.79 5l.1.48c.05.23.12.4.2.51.09.12.17.04.29-.23l.04-.18c.01-.09.03-.16.04-.24-.02-.05-.01-.11-.02-.19l-.01-.13c-.07-.84-.19-1.68-.34-2.54-.15-.88-.32-1.71-.47-2.52-.2-.94-.41-1.85-.68-2.74-.27-.9-.56-1.78-.9-2.66.65-1.02 1.34-1.85 2.1-2.5.77-.66 1.57-.99 2.44-1 2.31.07 4.19.42 5.62 1.05z"/><path fill="#0081C6" d="M257.55 43.582c-.18-.43-.382-.883-.58-1.35-.213-.472-.435-.915-.684-1.32l-.093-.153c-.04-.08-.08-.15-.104-.22.03-.01.06 0 .09-.01h.06c.18.05.36.25.51.55.16.3.28.54.37.72.42.8.83 1.6 1.2 2.41s.72 1.64 1.03 2.47c.32.88.62 1.77.89 2.66.25.9.48 1.82.68 2.74.17.81.33 1.66.47 2.51.15.86.26 1.7.33 2.54l.01.12c.01.06 0 .12.01.19-.01.07-.02.15-.04.24l-.04.17c-.12.26-.2.34-.29.22-.09-.12-.15-.28-.2-.51l-.1-.49c-.18-1.71-.44-3.38-.79-5.01-.36-1.62-.8-3.23-1.32-4.81-.22-.63-.43-1.25-.67-1.88-.24-.59-.5-1.21-.77-1.85zM266.798 48l.184-.162.21-.123.207-.057.21.002.2.06.18.12.16.173.13.216.1.26.06.28.01.31-.02.3-.06.32-.1.28-.14.25-.18.22-.19.16-.2.13-.21.05h-.22l-.2-.07-.19-.12-.16-.17-.13-.22-.11-.26-.06-.28-.03-.32.02-.3.07-.32.1-.28.13-.26.17-.23z"/><path fill="#A6CE38" d="M272.51 46.418c.504-.075.972.084 1.402.494.462.53.628 1.095.492 1.706-.128.603-.406 1.153-.826 1.64l-2.94-3.006.57-.385c.364-.22.795-.373 1.3-.45zm-21.257 29.815c.086.138.112.243.077.315-.036.072-.127.144-.284.205-.396.15-.873.198-1.42.143-.55-.055-1.118-.18-1.708-.378-.433-.135-.84-.287-1.233-.46-.393-.172-.743-.336-1.047-.503-.244-.134-.502-.248-.76-.362-.26-.114-.52-.217-.79-.322-.482-.17-.96-.37-1.433-.59-.475-.21-.917-.48-1.33-.79-1.57-1.24-3.056-2.71-4.457-4.39-1.4-1.68-2.675-3.45-3.795-5.33-.155-.25-.357-.61-.615-1.09-.26-.47-.493-.97-.687-1.5-.19-.52-.28-.99-.25-1.39.01-.04.01-.08.01-.12s.02-.07.04-.11c-.03-.07-.05-.14-.08-.21-.02-.07-.04-.14-.05-.21-.02-.1-.04-.22-.04-.32s.01-.2.01-.3l-.14-.04-.34-.06-.33-.07c-.72-.14-1.45-.31-2.16-.49s-1.43-.44-2.11-.75c-1.05-.46-2.17-1.1-3.37-1.92-1.17-.81-2.1-1.89-2.76-3.19-.24-.28-.45-.56-.61-.87-.17-.3-.29-.59-.37-.89-.03-.14-.05-.27-.05-.41-.01-.14.01-.28.03-.41l.01-.03c.01-.03.01-.06.03-.1s.02-.06.03-.09h-.08c-.02.01-.06 0-.09 0h-.14c-.11.01-.22 0-.33 0h-.33c-1.19-.03-2.39-.17-3.61-.41-1.22-.25-2.41-.62-3.56-1.13-.23-.1-.42-.26-.59-.46-.15-.21-.23-.42-.23-.67 0-.1.01-.21.06-.31.04-.1.11-.2.2-.29.57-.52 1.31-.92 2.22-1.2.91-.28 1.72-.49 2.44-.61.07-.01.13-.03.21-.04.05-.01.1-.01.14-.02.01.01.03 0 .05 0h.02c.47-.08.96-.15 1.46-.2s1.01-.08 1.52-.09c.65-.01 1.29.03 1.94.1.65.07 1.27.21 1.88.4.05.01.08.03.12.05.04.01.07.02.1.03.09.03.18.07.26.09.09.03.18.07.26.09 1.05.1 2.11.25 3.22.44s2.14.51 3.12.95l.17.09.23.14c.04.04.07.08.08.12.02.05 0 .09-.03.13l-.18.02-.34-.02c-.29-.03-.59-.08-.9-.13l-.62-.11c-.11-.02-.22-.02-.32-.04-.11-.02-.22-.03-.32-.05-.03.02-.08.03-.12.05-.03 0-.07.01-.09.01-.52.09-1.09.08-1.7-.02s-1.2-.24-1.77-.4l-1.49-.06c-.5-.01-1-.01-1.52-.01-.08 0-.18 0-.32.01s-.28.02-.45.02l.29.09c.09.03.19.06.29.1.31.13.63.28.96.49.33.21.64.35.91.45l.44.1c.22.06.36.22.45.49.02.03.02.07.04.11.01.05.01.09 0 .15 1.01.05 2.06.2 3.14.44 1.09.25 1.97.68 2.65 1.31l.15.15c.08.08.15.17.2.25.03.06.05.1.08.14.04.04.05.1.04.15-.01.04-.03.07-.07.09l-.07.03c-.06.04-.16.05-.3.06-.14 0-.31-.01-.48-.02.95.6 1.9 1.18 2.86 1.73.97.56 1.93 1.15 2.86 1.76.5.32 1.06.67 1.67 1.04.61.38 1.13.79 1.57 1.23l.16.19c.07.11.14.21.18.3.01.04.03.08.04.11l.04.06c.12.4.11.78-.01 1.13-.12.35-.32.55-.63.64.87.22 1.72.5 2.57.82.86.34 1.62.75 2.29 1.27l.15.12c.07.07.15.13.23.19.06.1.1.18.12.25.02.07-.06.14-.24.18-.35.05-.74.03-1.22-.05s-.9-.18-1.25-.27c-.42-.1-.84-.21-1.26-.33l-1.26-.36c.54.4 1.08.82 1.6 1.27.54.44 1.05.91 1.55 1.39.41.35.82.74 1.24 1.15.41.42.63.94.68 1.56 0 .07-.02.16-.05.29l-.04.22c.03.09.1.18.21.28.1.1.19.18.25.25.35.37.78.86 1.26 1.45.49.6.77 1.17.84 1.7 0 .19-.01.34-.07.44-.04.11 0 .22.1.35.27.29.61.58 1.01.88.41.3.73.65.99 1.03.25.39.27.85.04 1.41l-.08.12c-.05.06-.08.12-.13.19.73.2 1.46.45 2.18.71.72.27 1.39.64 2.01 1.11l.16.13c.07.09.15.16.22.22m-31.2-29.88c-.07-.03-.16-.05-.254-.07l-.176-.02c-.27-.06-.53-.11-.8-.14-.274-.04-.54-.05-.8-.04l-.063-.01c-.03-.004-.065 0-.09.018.05.02.125.042.21.05.09.002.156.003.19.01.26.036.54.063.8.1.26.036.54.064.8.1.02.004.04.02.09.03.06.01.08 0 .11-.017m1.77 4.07l-.01-.11-.064-.01c-.02 0-.03 0-.03.04l.04.08c.03.04.05.05.07.056v-.07z"/><path fill="#A6CE38" d="M219.893 46.387c.097.018.183.034.255.07-.026.017-.058.01-.1.003-.044-.008-.077-.014-.086-.026-.26-.037-.535-.064-.796-.1-.273-.04-.536-.065-.797-.1-.04-.007-.1-.008-.19-.013-.09 0-.16-.03-.22-.05.02-.01.06-.02.09-.01l.06.01c.26-.01.53.01.79.05.27.04.53.09.8.15l.17.03m46.8 6.95c.54.38 1.07.78 1.61 1.19.53.41 1.06.84 1.59 1.28.62.56 1.35 1.7 2.16 3.44.82 1.73 1.54 3.72 2.17 5.96.64 2.24 1 4.38 1.08 6.43s-.29 3.68-1.12 4.88c-1.18 1.47-2.49 2.64-3.94 3.52-1.46.87-2.72 1.49-3.79 1.87l-1.69.56-1.66-.34c-1.08-.24-2.48-.61-4.23-1.12-1.74-.51-3.64-1.15-5.7-1.95-.27-.1-.53-.22-.81-.33l-.81-.35c-.62-.27-1.24-.55-1.86-.85-.61-.3-1.23-.61-1.83-.94.59.19 1.16.31 1.7.38.55.06 1.02.01 1.42-.14.16-.06.25-.13.28-.2.03-.07.01-.18-.08-.32-.07-.06-.15-.12-.22-.19l-.16-.13c-.62-.47-1.29-.84-2.01-1.1-.72-.26-1.45-.51-2.18-.71.04-.07.08-.13.12-.19l.07-.12c.23-.55.21-1.01-.04-1.4-.26-.38-.58-.73-.99-1.03-.42-.29-.75-.59-1.02-.87-.1-.13-.14-.25-.09-.35.04-.11.05-.25.06-.44-.07-.54-.36-1.1-.84-1.7-.48-.6-.91-1.08-1.27-1.45-.07-.07-.15-.15-.26-.25-.11-.1-.18-.19-.21-.27l.04-.22c.03-.12.05-.22.05-.29-.04-.63-.26-1.15-.68-1.56-.42-.41-.83-.8-1.24-1.15-.5-.48-1.02-.96-1.54-1.4-.53-.44-1.06-.86-1.6-1.26l1.26.37c.41.12.84.23 1.26.33.36.1.77.19 1.24.27.47.09.87.11 1.22.06.18-.04.26-.1.24-.17-.02-.09-.06-.17-.12-.26-.07-.06-.15-.12-.24-.19l-.14-.13c-.67-.52-1.43-.93-2.29-1.27-.85-.32-1.71-.6-2.56-.82.3-.08.51-.3.63-.64.12-.35.12-.73.01-1.13l-.03-.06c-.02-.04-.03-.08-.05-.11-.05-.1-.11-.2-.18-.3l-.15-.2c-.44-.43-.95-.83-1.56-1.22l-1.67-1.04c-.94-.62-1.89-1.2-2.86-1.76s-1.93-1.13-2.87-1.73c.17.02.34.03.49.02.14 0 .24-.02.3-.05l.07-.04c.03-.01.05-.04.07-.08 0-.06-.02-.11-.04-.15-.03-.04-.05-.08-.08-.13-.05-.07-.13-.15-.2-.25l-.15-.15c-.68-.61-1.56-1.05-2.64-1.3s-2.14-.39-3.15-.44c.01-.06 0-.1 0-.15-.01-.05-.02-.08-.04-.12-.07-.26-.22-.42-.45-.48l-.44-.09c-.28-.1-.59-.24-.92-.45-.33-.19-.65-.36-.96-.49-.09-.04-.2-.07-.29-.1l-.28-.09c.17 0 .33-.01.45-.02.14-.01.24-.01.31-.01.51 0 1.02 0 1.52.01.5.02 1 .03 1.5.06.56.16 1.15.29 1.77.4s1.18.12 1.7.03c.02-.01.05-.01.09-.02.03-.01.08-.02.12-.05.1.02.21.03.32.04.11.02.22.03.33.05l.63.1c.3.04.61.09.89.13l.34.01.19-.02c.04-.04.05-.08.03-.13-.02-.03-.04-.07-.08-.11-.07-.05-.15-.1-.23-.14l-.16-.09c-.98-.44-2.02-.75-3.12-.95-1.11-.19-2.18-.34-3.21-.44-.09-.03-.18-.07-.27-.09-.08-.03-.16-.07-.26-.09-.03-.02-.07-.03-.1-.03-.03-.02-.07-.03-.11-.05.96-.1 2.01-.2 3.13-.3 1.12-.08 2.31-.16 3.55-.22 2.91-.15 6.06-.1 9.47.13 3.42.23 6.96.79 10.63 1.67 2.23.54 4.47 1.25 6.71 2.11 2.26.86 4.48 1.91 6.69 3.15.7.39 1.39.8 2.08 1.25.7.42 1.38.88 2.07 1.36z"/><path fill="#0081C6" d="M266.654 52.444c.407.342.79.69 1.147 1.058.07.057.17.152.3.288.13.136.2.26.22.363-.06.022-.12.01-.2-.027-.08-.048-.14-.082-.18-.11l-.62-.348-.6-.345c-.68-.482-1.37-.93-2.05-1.368-.69-.438-1.38-.855-2.08-1.25-2.23-1.402-4.46-2.523-6.68-3.362-2.21-.84-4.46-1.473-6.73-1.897-3.67-.87-7.22-1.428-10.62-1.67-3.42-.232-6.58-.272-9.48-.13-1.78-.09-3.55-.134-5.3-.14-1.75-.007-3.48.046-5.19.16-.51.006-1.02.036-1.52.09s-.98.122-1.46.202c-.01-.002-.02.007-.02.007-.01-.002-.03.005-.04.003-.34.05-.69.098-1.04.155-.38.065-.75.132-1.12.222-.34.15-.79.29-1.33.45s-1.01.36-1.4.614c-.38.25-.5.6-.34 1.04 0 .23.08.46.24.67.16.2.36.36.59.46 1.15.51 2.34.88 3.56 1.13 1.22.24 2.42.37 3.61.41l.31.06c.1.02.2.03.3.06 0-.02.02-.04.02-.07.02-.02.03-.04.03-.05h.15c.03.03.05.06.06.1.02.03.04.06.04.08l.02.01v.03c-.03.13-.04.27-.03.41.01.13.01.27.04.41.07.3.2.6.38.89.17.29.37.59.61.87.66 1.3 1.59 2.37 2.77 3.19 1.19.82 2.32 1.46 3.37 1.92.69.31 1.4.56 2.11.75s1.45.35 2.17.49l.33.07.35.06.14.03c-.02.09-.03.19-.01.3 0 .1.02.2.04.32l-.05-.01-.05-.01.07.35c.04.11.07.22.11.33-.02.41.07.87.26 1.4.2.52.43 1.02.69 1.49.26.47.46.84.61 1.09 1.12 1.88 2.4 3.66 3.8 5.33 1.4 1.68 2.89 3.15 4.46 4.4.41.32.86.58 1.33.79.47.22.95.41 1.43.59 1.18.68 2.39 1.31 3.64 1.87s2.51 1.07 3.77 1.52c.02 0 .04.02.05.02l.06.02c.27.11.54.23.81.35.27.11.54.22.81.34.5.22.98.47 1.45.73.48.27.94.55 1.4.84l.18.08c.09.05.16.09.23.14.03 0 .05.03.07.06.01.02-.01.05-.06.07-.04 0-.09-.01-.15-.03-.06-.02-.1-.04-.15-.06-.36-.1-.71-.19-1.07-.26-.35-.08-.71-.18-1.07-.3-1.08-.38-2.18-.77-3.3-1.16-1.12-.4-2.2-.83-3.26-1.28-3.23-1.4-6.12-3.25-8.68-5.51-2.55-2.26-4.65-4.96-6.28-8.06-.41-.73-.84-1.59-1.28-2.57-.45-.97-.69-1.9-.73-2.79-1.52-.35-3.03-.83-4.53-1.43-1.49-.58-2.87-1.34-4.14-2.25-.69-.53-1.35-1.28-1.95-2.26-.6-.98-.96-1.94-1.1-2.87-.85-.17-1.71-.31-2.55-.44-.86-.13-1.7-.28-2.53-.48-.45-.11-.99-.27-1.61-.52-.63-.25-1.18-.56-1.67-.95-.49-.39-.75-.85-.78-1.39 0-.13.01-.24.03-.34.01-.11.03-.21.06-.31l-.03.01c-.01-.02 0-.04 0-.06l.02-.04c.01-.06.03-.12.08-.19s.12-.14.19-.2c.06-.07.12-.12.19-.18s.14-.11.23-.15c.02-.02.05-.04.07-.05.03-.02.05-.03.07-.04 1.08-.62 2.33-1.09 3.8-1.41 1.45-.32 2.97-.52 4.54-.61 1.57-.11 3.06-.15 4.48-.14 1.59 0 3.19.03 4.82.1 1.63.06 3.25.17 4.85.31 3.23.25 6.41.49 9.57.69 3.15.21 6.38.71 9.67 1.5 2.31.59 4.44 1.37 6.39 2.31 1.96.95 3.98 2.12 6.06 3.5l.19.14c.1.07.2.14.29.2.04.03.08.06.12.08l.09.04c.41.28.84.6 1.25.94z"/></svg>