<?xml version="1.0" encoding="utf-8"?>
<!-- Generator: Adobe Illustrator 20.1.0, SVG Export Plug-In . SVG Version: 6.00 Build 0)  -->
<svg version="1.1" id="Layer_1" xmlns="http://www.w3.org/2000/svg" xmlns:xlink="http://www.w3.org/1999/xlink" x="0px" y="0px"
   viewBox="0 0 692.9 179.5" enable-background="new 0 0 692.9 179.5" xml:space="preserve">
<path id="XMLID_5_" fill="#82bc00" d="M170,4.3c0.4-0.4,0.2-1.1-0.3-1.2c-0.9-0.3-1.8-0.6-3.2-1.1c-0.2,0-2.6-2.4-6.3-2
  c-7.2,1-7,9.6-10,12.5c-4.1,4-17.1,13.9-19.7,15.7c-0.2,0.2,0,0.5,0.3,0.6c2.5,0.6,10,1.6,11.3,1.7c1.4,0.1,1.4,1.6,0,1.5
  c-4.1-0.4-9.2-1.2-12.9-2.1c-5.7-1.5-9.6-3.2-13.4-4.4c-0.2,0-0.4,0.1-0.4,0.3c0,4.7,2.6,12.4,5.8,12.4c5.2,0,11.2-2,13.3-2.8
  c0.1,0,0.1,0,0.2,0c0.9,0.1,7.2,0.7,12.1,0.7c0.2,0,0.3,0.1,0.3,0.3c0.2,2.5,2.8,19.2,2.8,20.2c0,1.3,1.3,1.4,1.3,0.1
  c0-1.2,0.9-18,1-20.5c0-0.2,0.1-0.3,0.3-0.3c14.6-0.9,21.9-15.6,14.5-28.7c-0.1-0.1,0-0.3,0.1-0.4L170,4.3z"/>
<g id="XMLID_671_">
  <path id="XMLID_681_" fill="#0075c9" d="M0,57.9h17.4v7c3.2-3.5,6-5.9,8.5-7.2c2.5-1.3,5.5-2,9-2c4.6,0,9.4,1.6,14.4,4.7l-8,16.6
    c-3.3-2.5-6.5-3.7-9.7-3.7c-9.5,0-14.3,7.5-14.3,22.4v40.8H0V57.9z"/>
  <path id="XMLID_679_" fill="#0075c9" d="M57.8,19.8h17.4v44.7c6.2-5.8,13-8.7,20.5-8.7c8.5,0,15.3,2.9,20.5,8.6
    c4.3,5,6.5,13,6.5,24v48.2h-17.4V90.1c0-6.3-1.1-10.9-3.2-13.7c-2.1-2.8-5.6-4.2-10.3-4.2c-6.1,0-10.4,2-12.9,5.9
    c-2.4,4-3.6,10.8-3.6,20.5v38H57.8V19.8z"/>
  <path id="XMLID_677_" fill="#0075c9" d="M158.3,57.9v78.7h-17.4V57.9H158.3z"/>
  <path id="XMLID_675_" fill="#0075c9" d="M176.5,57.9H194v7.3c6.1-6.3,13-9.4,20.6-9.4c8.8,0,15.6,2.9,20.5,8.6
    c4.2,4.9,6.4,12.9,6.4,24v48.2H224V92.7c0-7.7-1-13.1-3.1-16c-2-3-5.7-4.5-11-4.5c-5.8,0-9.9,2-12.3,6c-2.4,3.9-3.6,10.8-3.6,20.6
    v37.9h-17.5V57.9z"/>
  <path id="XMLID_672_" fill="#0075c9" d="M256,96.7c0-11.4,3.9-21,11.7-29c7.8-8,17.3-12,28.5-12c11.3,0,20.8,4,28.7,12
    c7.8,8,11.6,17.9,11.6,29.6c0,11.8-3.9,21.7-11.7,29.6c-7.9,7.9-17.5,11.9-28.9,11.9c-11.3,0-20.8-4-28.4-12.1
    C259.8,118.8,256,108.7,256,96.7z M273.8,97c0,7.9,2,14.1,6,18.7c4.1,4.6,9.6,6.9,16.4,6.9c6.8,0,12.3-2.3,16.4-6.9
    c4.1-4.6,6.1-10.7,6.1-18.3c0-7.6-2-13.8-6.1-18.3c-4.1-4.6-9.6-6.9-16.4-6.9c-6.7,0-12.1,2.3-16.2,6.9
    C275.9,83.7,273.8,89.7,273.8,97z"/>
</g>
<path id="XMLID_668_" fill="#0075c9" d="M425.8,134.7c0,3.7-0.1,7-0.4,9.8c-0.2,2.8-0.6,5.3-1,7.5c-1.2,5.9-3.7,11-7.3,15.3
  c-6.8,8.2-16.2,12.3-28.1,12.3c-10.1,0-18.4-2.8-24.9-8.5c-6.7-5.8-10.6-13.9-11.6-24.2H370c0.7,3.9,1.8,6.9,3.3,9
  c3.6,4.9,8.9,7.3,15.8,7.3c12.8,0,19.1-8.1,19.1-24.4v-11c-6.9,7.4-14.9,11.1-24,11.1c-10.3,0-18.7-3.9-25.3-11.6
  c-6.6-7.9-9.9-17.7-9.9-29.5c0-11.5,3.1-21.2,9.2-29.2c6.6-8.5,15.3-12.8,26.2-12.8c9.5,0,17.4,3.7,23.7,11.1v-8.9h17.4V134.7z
   M409,97.4c0-7.6-2-13.7-5.9-18.3c-4-4.7-9.1-7-15.3-7c-6.6,0-11.8,2.6-15.7,7.7c-3.5,4.6-5.2,10.5-5.2,17.7c0,7.1,1.7,13,5.2,17.6
  c3.8,5,9,7.5,15.7,7.5c6.7,0,11.9-2.5,15.8-7.6C407.3,110.5,409,104.6,409,97.4z"/>
<path id="XMLID_666_" fill="#0075c9" d="M443.8,57.9h17.4v7c3.2-3.5,6-5.9,8.5-7.2c2.5-1.3,5.5-2,9-2c4.6,0,9.4,1.6,14.4,4.7
  l-8,16.6c-3.3-2.5-6.5-3.7-9.7-3.7c-9.5,0-14.3,7.5-14.3,22.4v40.8h-17.4V57.9z"/>
<path id="XMLID_663_" fill="#0075c9" d="M550.3,57.9h17.5v78.7h-17.5v-8.2c-7.2,7-14.9,10.5-23.2,10.5c-10.4,0-19.1-3.9-25.9-11.8
  c-6.8-8-10.2-18-10.2-30c0-11.8,3.4-21.6,10.2-29.5c6.8-7.9,15.2-11.8,25.4-11.8c8.8,0,16.7,3.8,23.6,11.3V57.9z M508.9,97
  c0,7.5,1.9,13.7,5.8,18.4c4,4.8,9,7.2,15,7.2c6.5,0,11.7-2.3,15.7-6.9c4-4.8,6-10.9,6-18.3c0-7.4-2-13.5-6-18.2c-4-4.7-9.1-7-15.5-7
  c-6,0-11,2.4-15,7.1C510.9,84,508.9,89.9,508.9,97z"/>
<path id="XMLID_661_" fill="#0075c9" d="M589.4,57.9h17.4v7.3c3.4-3.7,6.2-6.1,8.6-7.4c2.5-1.3,5.7-2,9.5-2
  c8.5,0,15.3,3.9,20.2,11.6c5.5-7.8,12.9-11.6,22.2-11.6c17,0,25.5,10.7,25.5,32.2v48.6h-17.5V92.9c0-7.5-0.9-12.9-2.6-16
  c-1.8-3.2-4.8-4.8-8.9-4.8c-4.8,0-8.3,1.9-10.5,5.7c-2.2,3.8-3.3,9.8-3.3,18.2v40.6h-17.5V93.1c0-14-3.9-21-11.6-21
  c-4.9,0-8.5,1.9-10.7,5.7c-2.2,3.8-3.4,9.8-3.4,18.1v40.6h-17.4V57.9z"/>
</svg>
