<svg xmlns="http://www.w3.org/2000/svg" viewBox="0 0 443 565.9"><path fill="#FFF" d="M323.54 115.093c1.315-1.768 2.41-3.296 3.206-4.74l.938-1.845.277-1.12c-2.046-1.095-4.537-1.867-7.47-2.316-3.01-.447-6.013-.576-9.163-.543-3.15.032-5.92.3-8.388.644-2.544.346-4.335.843-5.45 1.333-.888.568-2.288 1.86-4.12 3.952s-3.737 4.425-5.712 6.92c-1.973 2.572-3.73 4.744-5.118 6.594l-2.19 2.974 1.52 1.022c.914.63 1.9 1.257 2.89 1.885l1.213.705.605.233c5.68-1.016 10.387-1.942 14.05-2.618 3.66-.756 6.72-1.426 9.03-2.168 2.313-.662 4.247-1.48 5.803-2.453 1.26-.81 2.587-1.942 3.98-3.552 1.395-1.45 2.786-3.14 4.1-4.91zM52.767 441.568l-5.345-.414c-.734.016-1.26.294-1.717.77-.457.478-.71 1.084-.697 1.684.015.667.295 1.26.907 1.78l1.754.896 3.698 1.385c3.092 1.064 7.182 2.04 12.335 2.793 5.085.754 10.958.89 17.483.412 6.526-.48 13.493-2.1 20.903-4.8 5.156-2.05 9.96-4.957 14.41-8.79 4.52-3.77 8.5-7.727 11.944-11.805 3.444-4.078 6.167-7.607 8.168-10.586l3.093-4.87-.687-.92-1.975-1.823c-1.7-1.496-3.604-3.12-5.71-4.875-2.107-1.754-3.805-3.117-5.027-4.09-.9 1.487-2.446 3.99-4.705 7.375-2.258 3.385-5.043 7.115-8.288 11.19-3.244 4.073-6.76 7.953-10.55 11.505-3.788 3.553-7.73 6.308-11.69 8.197-4.36 1.898-8.93 3.266-13.782 4.04-4.785.774-9.38 1.143-13.712 1.24-4.268.028-7.872-.092-10.81-.294z" /><path fill="#0081C6" d="M442.88 172.98c-.064-.07-.13-.072-.2-.008-.136.062-.138.128-.074.198.126.204.257.276.328.145.07-.064.074-.198-.054-.336m-14.877 71.46c-.787-.363-1.446-.587-1.84-.735-.99-.37-2.048-.608-3.11-.78-1.13-.108-2.194-.213-3.262-.186l-.2-.008c-.132-.005-.202.06-.268.057l-.867-.032-.402.052-.2-.008c-5.158.547-10.03 2.372-14.61 5.408-4.65 3.1-8.658 6.892-12.09 11.305-3.43 4.48-5.933 9.06-7.707 13.8-1.335 3.688-2.2 7.26-2.727 10.777-.53 3.518-.453 6.924.092 10.28.548 3.29 1.764 6.537 3.654 9.608-.658-2.092-1.044-4.308-1.293-6.653-.248-2.344-.296-4.682-.207-7.147-.115-2.34.04-4.737.464-7.257.425-2.52 1.122-5.164 2.157-7.93 1.93-5.4 4.507-10.178 7.733-14.465 3.223-4.22 7.293-7.876 12.21-10.967 2.047-1.26 4.22-2.314 6.654-3.16 2.433-.846 4.92-1.356 7.463-1.53 2.542-.175 4.998.18 7.303 1 .664.09 1.326.247 1.92.403s1.188.376 1.847.6c.198.074.462.15.657.29.198.075.393.216.59.29-.375-.68-.89-1.234-1.738-1.732-.583-.487-1.435-.918-2.223-1.28z" /><path fill="#FFF" d="M317.342 186.365c-8.28 2.034-16.656 4.8-25.058 8.297-8.402 3.5-16.946 7.258-25.503 11.35-6.244 2.91-11.785 6.646-16.49 11.28-4.704 4.566-8.302 9.907-10.86 16.02-2.557 6.113-3.74 12.943-3.478 20.426.26 5.682 1.575 11.735 3.877 18.158 2.304 6.357 5.35 12.473 9.08 18.214 3.728 5.74 7.96 10.5 12.557 14.336 4.6 3.77 9.26 5.942 14.046 6.45 4.657.37 9.16-.535 13.444-2.714 4.28-2.114 8.66-5.09 13.204-8.93 4.478-3.84 9.436-8.064 14.882-12.87 5.378-4.743 11.557-9.523 18.474-14.41 7.388 4.206 14.225 8.86 20.513 13.958 6.286 5.1 11.92 9.776 17.033 14.166 5.046 4.387 9.463 7.684 13.256 9.824 8.327 4.04 16.53 4.138 24.614.228 8.08-3.844 14.844-10.004 20.285-18.347 5.44-8.343 8.362-17.112 8.835-26.437.472-9.324-2.772-17.383-9.73-24.176-5.758-5.014-12.09-10.716-19.007-16.84-6.918-6.123-14.235-12.26-21.888-18.345-7.653-6.084-15.458-11.64-23.416-16.666-7.948-3.492-16.02-5.387-24.153-5.616-8.062-.293-16.236.61-24.518 2.645m108.75 57.404c.462.15 1.055.37 1.842.734.857.298 1.642.727 2.422 1.29.783.494 1.364 1.05 1.74 1.73-.198-.074-.393-.214-.59-.288-.198-.074-.463-.15-.658-.29-.592-.223-1.187-.378-1.846-.602s-1.257-.313-1.92-.403c-2.306-.817-4.763-1.173-7.305-1-2.542.175-5.03.686-7.462 1.53-2.433.847-4.674 1.9-6.655 3.163-4.917 3.09-8.986 6.746-12.21 10.966-3.222 4.22-5.798 8.997-7.732 14.465-1.035 2.765-1.732 5.41-2.157 7.93-.424 2.52-.578 4.916-.463 7.256-.09 2.467-.04 4.804.207 7.15.25 2.343.702 4.562 1.293 6.652-1.89-3.072-3.107-6.32-3.654-9.61-.546-3.355-.622-6.76-.094-10.278.46-3.52 1.392-7.09 2.727-10.778 1.707-4.742 4.276-9.32 7.708-13.8 3.433-4.48 7.44-8.204 12.022-11.307 4.582-3.037 9.452-4.862 14.61-5.41l.2.01.403-.053.866.03c.067.004.202-.058.27-.056l.2.008c1.068-.027 2.13.078 3.193.25 1.063.105 2.055.342 3.043.71z" /><path fill="#0081C6" d="M380.28 229.2l-2.846 2.554-1.414 1.67c-.235.825.164 1.794 1.07 2.846.905 1.053 2.03 1.975 3.343 2.987 1.345.95 2.56 1.68 3.642 2.193l1.275.603.54.177c3.526-3.166 7.573-5.617 12.14-7.355 4.566-1.738 8.86-2.902 12.855-3.43 4.087-.56 7.21-.564 9.33-.105-1.635-1.32-3.43-2.64-5.32-4.08-1.892-1.442-3.687-2.76-5.256-3.892l-3.174-2.36c-6.43.075-11.836.948-16.15 2.65-4.282 1.794-7.648 3.632-10.035 5.543z" /><path fill="#0081C6" d="M391.42 238.454l-.703-.49-2.042-1.122-6.308-2.987-5.225-2.473c-3.67.835-7.557 3.44-11.626 7.754-4.007 4.343-7.644 9.72-10.88 16.064-3.24 6.344-5.588 12.954-7.02 19.764-1.43 6.81-1.418 13.212.095 19.076l3.677 2.286c1.885 1.126 3.8 2.19 5.62 3.285l3.508 1.818c-2.335-7.424-2.622-14.89-.92-22.275 1.732-7.447 5.235-14.68 10.605-21.576 5.558-6.962 12.548-13.324 21.22-19.123z" /><path fill="#FFF" d="M365.017 250.255c-1.89.303-3.655.317-5.288.113-1.63-.134-3.126-.415-4.558-.84.074.066.15.204.154.274l.15.205c.226.27.525.61.675.814.226.273.52.54.676.816.224.272.516.47.74.74.226.272.52.54.742.742l.222.2c.073.068.15.205.224.272.738.67 1.476 1.34 2.284 2.008.81.667 1.613 1.264 2.418 1.86.292.198.58.325.872.523.292.2.58.326.872.524l.634-.03c.21-.01.493-.024.708.036l.14-.006c2.32-.182 4.63-.575 6.857-1.246 2.23-.6 4.307-1.407 6.305-2.42.07-.003.138-.077.138-.077l.137-.076c3.494-2.214 6.32-5.102 8.555-8.526 2.235-3.424 3.813-7.31 4.6-11.513-.473-1.036-1.013-1.998-1.483-2.963-.54-.962-1.08-1.925-1.687-2.813-.074-.068-.077-.138-.155-.276-.073-.067-.077-.137-.15-.204-.23-.342-.386-.688-.614-1.03-.228-.342-.457-.683-.614-1.03l-.685-1.025c-.21 4.457-1.224 8.316-2.977 11.506-1.753 3.19-4.025 5.84-6.818 7.95-.48.305-1.03.613-1.508.92-.48.304-.956.68-1.365.98-1.65.927-3.377 1.716-5.18 2.367-1.526.567-3.27 1.003-5.023 1.228m-7.914-11.97c1.213-2.67 2.862-5.078 5.02-7.158 2.09-2.076 4.476-3.814 7.095-5.14 2.69-1.327 5.47-2.166 8.345-2.586.63-.1 1.26-.2 1.894-.23.63-.102 1.26-.203 1.814-.44.21-.082.56-.1.983-.12l.84-.18.07-.004c-.075-.067-.148-.134-.226-.27-.144-.065-.218-.132-.288-.128-.286-.057-.504-.188-.79-.245-.284-.057-.57-.114-.858-.24-.43-.122-.928-.24-1.495-.282-.637-.04-1.2-.012-1.623.008l-.07.003-.07.005c-.07.003-.142.006-.21.08l-.14.007c-2.665.34-5.24 1.098-7.728 2.205-2.487 1.107-4.817 2.56-6.92 4.354-2.1 1.796-3.837 3.855-5.205 6.25-1.04 1.814-1.79 3.826-2.324 5.97-.532 2.142-.642 4.264-.4 6.37l.168.556.14-.006c.134-.148.19-.433.174-.785.074-1.415.22-2.763.442-4.044.358-1.357.79-2.648 1.363-3.946m14.55-5.637c-.073-.067-.217-.13-.36-.195l-.424.02c-.212.01-.35.088-.557.168-.208.08-.416.16-.55.31-.134.147-.268.294-.473.445-.134.148-.197.292-.26.436-.065.145-.125.36-.118.5.006.142.08.21.157.346.073.067.217.13.29.198.145.063.286.057.494-.024.14-.007.35-.087.557-.168.21-.08.343-.228.547-.38.134-.146.272-.223.406-.37.134-.15.268-.296.332-.44s.056-.285.05-.426c-.01-.21-.014-.282-.09-.42z" /><path fill="#0081C6" d="M357.524 232.336c-1.52 2.12-2.614 4.36-3.354 6.583-.737 2.292-.985 4.492-.743 6.598.014.28.094.49.108.77s.09.42.1.63c.084.28.24.554.393.83.084.278.238.552.322.83l.004.07c.147.135.228.343.375.477.076.138.224.272.372.406 1.43.426 2.927.707 4.557.84 1.632.205 3.392.12 5.286-.11 1.754-.226 3.568-.666 5.372-1.317 1.807-.58 3.533-1.37 5.18-2.366.408-.3.884-.677 1.364-.982.48-.306.96-.61 1.508-.92 2.726-2.036 4.998-4.685 6.818-7.948 1.753-3.19 2.768-7.05 2.978-11.506l-.607-.887c-.448-.473-.897-1.016-1.343-1.488-.45-.543-.896-1.016-1.42-1.626l-.073-.068c-.214-.06-.362-.194-.577-.255l-.643-.18c-1.868-.687-3.924-.87-6.244-.69-2.32.182-4.758.864-7.312 2.045-2.555 1.18-4.885 2.633-6.987 4.428-2.104 1.724-3.914 3.716-5.436 5.836m13.768.116c.144.064.288.128.362.195.074.067.08.208.087.348.008.14.015.282-.05.426s-.197.293-.33.44c-.135.148-.27.296-.406.373-.205.15-.342.228-.547.38-.208.08-.415.16-.556.167l-.492.023c-.144-.063-.218-.13-.292-.197-.074-.067-.15-.205-.158-.346-.006-.14.057-.285.118-.5.063-.144.197-.29.26-.435.135-.148.27-.295.474-.446.134-.15.342-.23.55-.31.207-.08.345-.158.556-.168.144.064.285.057.426.05m-9.168-1.325c-2.088 2.076-3.737 4.484-5.02 7.157-.574 1.298-1.006 2.59-1.223 3.94-.22 1.28-.367 2.63-.44 4.044-.054.356-.11.64-.175.785l-.14.007-.168-.557c-.243-2.106-.132-4.228.4-6.37.533-2.144 1.286-4.085 2.325-5.97 1.37-2.324 3.104-4.454 5.206-6.248 2.102-1.795 4.432-3.247 6.92-4.355 2.487-1.107 5.062-1.865 7.727-2.205l.07-.003c.07-.004.138-.077.21-.08l.07-.004.07-.003c.422-.02.985-.048 1.622-.008.637.04 1.134.087 1.496.282.288.126.573.183.858.24.286.057.5.117.79.244.07-.003.144.064.288.128.144.063.218.13.225.27l-.07.004-.84.182c-.422.02-.77.107-.982.117-.555.168-1.182.34-1.812.44-.63.1-1.26.202-1.895.232-2.873.42-5.656 1.26-8.345 2.588-2.76 1.332-5.075 3.066-7.164 5.142z" /><path fill="#FFF" d="M386.422 226.78c-1.495.034-3.077.2-4.692.647-1.607.377-3.09.91-4.31 1.617-1.29.698-2.082 1.384-2.532 2.183 1.775-.002 3.435-.23 5.058-.746 1.545-.454 2.897-1.074 4.047-1.79 1.22-.706 2.004-1.322 2.43-1.91zM365.978 235.703c-1.48 1.1-2.83 2.29-4.046 3.564-1.147 1.284-1.832 2.267-2.055 2.95 1.405-.47 2.905-1.144 4.447-2.168 1.542-1.024 2.873-2.072 3.933-3.224 1.13-1.143 1.667-2.073 1.776-2.983-1.232.208-2.584.828-4.055 1.86zM296.11 79.685c-2.647 1.04-5.272 2.383-7.77 4.02s-4.677 3.255-6.537 4.85c-1.857 1.653-3.094 3.02-3.715 4.038-.462 1.007-.856 2.984-1.18 5.932s-.64 6.076-.88 9.443c-.24 3.428-.405 6.364-.5 8.808l-.154 3.85 1.928.106 3.687.105 1.49-.044.738-.113c3.816-4.107 7.11-8.056 9.94-11.79 2.83-3.732 5.106-7 6.783-9.677l2.048-3.495L303 93.454c.344-1.182.6-2.845.822-4.993.217-2.207.337-4.287.298-6.355l-.176-2.485-.372-1.497c-2.348-.017-4.816.523-7.463 1.562z" /><path fill="#0081C6" d="M167.207 306.31c-2.768 1.396-5.554 2.64-8.414 3.772-2.824 1.187-5.722 2.26-8.62 3.333-3.74 1.54-7.63 3.097-11.767 4.65-4.138 1.556-8.428 3.128-12.813 4.68-.267.093-.59.223-.858.315-.267.092-.59.222-.895.257-.477.147-.916.352-1.335.462-.476.146-.915.35-1.39.498-.326.13-.65.26-.917.352-.324.13-.686.202-1.01.332l-.134.17c-.058.037-.02.094-.078.13-.27.34-.518.584-.787.923-.213.302-.482.64-.788.922-.115.075-.135.17-.212.302-.115.074-.134.168-.25.243-1.036 1.167-1.977 2.353-3.07 3.557-1.038 1.166-2.074 2.332-3.168 3.536-1.343 1.448-2.724 2.84-4.162 4.267-1.38 1.39-2.818 2.82-4.236 4.152-2.166 2.067-4.332 4.133-6.535 6.142-2.204 2.01-4.388 3.923-6.514 5.8.172-.112.287-.187.402-.26l.172-.114 1.892-1.234s1.224-.88 1.817-1.35c-.442.452-.825.865-1.304 1.26-.44.45-.862.807-1.303 1.258-.364.32-.94.94-1.785 1.9-.882.9-1.67 1.823-2.456 2.745l-.885 1.15-.29.68c.017.15.092.266.264.154.153-.018.268-.093.42-.11.307-.282.576-.62.92-.845l.65-.506c4.444-3.96 8.7-7.962 12.726-12.06 4.027-4.097 8.074-8.29 12.046-12.595 1.343-1.447 2.78-2.876 4.333-4.38s2.99-2.93 4.504-4.243c3.01-.902 6.04-1.898 8.938-2.97 2.993-1.054 5.95-2.164 8.79-3.2.858-.314 1.753-.572 2.61-.886.86-.314 1.697-.533 2.555-.848 1.183-.444 2.385-.983 3.587-1.522 1.182-.444 2.384-.983 3.53-1.484 1.353-.556 2.727-1.208 4.006-1.878 1.317-.614 2.654-1.322 3.953-2.088.552-.28 1.068-.616 1.642-.99l1.605-1.047 2.41-1.57s1.397-1.24 2.2-1.763z" /><path fill="#FFF" d="M191.033 285.458c2.4-4.833 4.348-10.354 5.657-16.6 1.347-6.19 1.745-12.58 1.252-19.205-.55-6.587-2.415-12.807-5.595-18.66-3.52-6.122-7.614-11.624-12.304-16.41s-9.524-8.416-14.443-10.928c-4.92-2.512-9.55-3.333-13.813-2.595-2.95.617-7.795 2.47-14.683 5.572-6.888 3.103-14.62 6.92-23.27 11.58-8.63 4.567-17.092 9.515-25.31 14.71-8.218 5.198-15.124 10.274-20.697 15.134-5.67 5.088-12.21 11.97-19.584 20.455-7.43 8.524-14.654 17.486-21.77 26.866-7.113 9.38-13.155 17.897-18.05 25.666C3.582 328.774.816 334.42.12 337.98c-.495 4.49.53 9.052 3.113 13.496 2.583 4.444 5.93 8.554 10.192 12.31 4.205 3.797 8.624 7.044 13.124 9.665 4.557 2.586 9.08 4.62 13.762 6.143 4.68 1.524 8.702 2.415 12.14 2.788l4.14.078 1.353-.31.803-.523c1.23-1.62 3.34-3.65 6.365-6.276 2.968-2.59 6.568-5.592 10.703-9.025 4.135-3.433 8.577-7.147 13.308-11.295 2.126-1.877 4.31-3.79 6.513-5.8 2.203-2.01 4.37-4.075 6.534-6.142 1.42-1.333 2.857-2.76 4.238-4.152 1.438-1.428 2.78-2.876 4.162-4.267 1.036-1.167 2.13-2.37 3.166-3.538 1.037-1.166 2.073-2.332 3.072-3.556.078-.132.192-.207.25-.244.077-.132.134-.17.21-.302.27-.34.482-.64.79-.922.268-.34.517-.583.786-.922.057-.037.077-.132.077-.132l.136-.17c.324-.13.686-.202 1.01-.33.324-.13.59-.223.915-.353.478-.146.954-.294 1.393-.498.476-.148.896-.258 1.334-.462.267-.092.592-.222.896-.257.267-.093.59-.222.858-.315 4.423-1.495 8.713-3.067 12.814-4.68 4.137-1.554 8.066-3.053 11.767-4.65 5.36-2.188 10.226-4.38 14.615-6.426 4.352-2.103 8.132-4.078 11.264-5.794 3.15-1.81 5.522-3.44 7.207-4.865 2.87-2.363 5.45-5.924 7.906-10.795zM247.62 416.717c-6.597-.63-13.32-.7-20.316-.14-6.93.56-14.328 2.307-22.073 5.313l-2.006 18.178c-1.25 11.535-2.777 24.89-4.36 39.99-1.667 15.17-3.126 28.524-4.394 40.13l-1.97 18.317c.966 3.426 4.91 6.362 11.834 8.81 6.908 2.516 14.922 4.263 24.176 5.242 9.24 1.05 17.912 1.05 25.92.14 8.093-.98 13.782-3.146 17.085-6.572l1.82-17.338c1.14-11.046 2.553-24.19 4.235-39.43 1.682-15.242 3.494-29.574 5.337-42.857 1.844-13.284 3.512-22.512 5.088-27.756-7.08.63-13.967.7-20.497.07-6.7-.77-13.296-1.398-19.878-2.097z" /><path fill="#0081C6" d="M259.704 503.198c-.247-.978-.408-1.747-.452-2.447-.05-1.257-.02-2.585.062-3.844.164-1.328.246-2.586.26-3.845l-.097-1.048-.338-.28c-.283.07-.546.35-.872.91-.325.56-.517 1.118-.66 1.747-.26 1.468-.386 3.215-.44 5.243s.272 3.845.814 5.593c.558 1.678 1.59 2.726 3.164 3.146 1.488.21 2.897-.42 4.277-1.818 1.38-1.398 2.542-3.006 3.5-4.894s1.717-3.495 2.2-4.754c.175-.49.383-1.118.587-2.027.204-.91.325-1.75.43-2.518.055-.84-.102-1.328-.44-1.608h-.266c-.165.14-.345.35-.46.56l-.176.49c-.337.908-.607 1.816-.81 2.725-.205.908-.475 1.817-.88 2.726-.305.77-.807 1.818-1.438 3.146-.698 1.328-1.432 2.517-2.3 3.705-.85 1.12-1.69 1.888-2.486 2.168-.847.21-1.534 0-2.045-.7-.527-.63-.888-1.398-1.136-2.377zM242.266 435.316l.133-.28c.066-.14.066-.35.066-.49-.334 0-.667.14-1 .49-.4.35-.735.7-1.068 1.12l-.467.56c-.2.278-.466.628-.733.908-.2.28-.467.63-.6.978-2.002 5.314-4.204 12.445-6.605 21.324-2.47 8.81-5.07 18.736-7.806 29.643-2.802 10.905-5.67 22.02-8.606 33.417-2.935 11.326-5.938 22.162-9.006 32.37-.334.14-.6.28-.868.42-.267.14-.6.28-.867.418-.268 1.33-.6 2.587-.802 3.846-.266 1.33-.533 2.587-.8 3.916-.067.21-.134.42-.134.7-.066.348-.066.558 0 .698.134.35.2.42.4.35.134-.07.268-.28.334-.49.134-.35.267-.77.4-1.258l.267-.84c2.002-5.243 3.937-10.556 5.805-15.8 1.8-5.243 3.47-10.556 5.07-16.01 1.734-6.082 3.47-12.164 5.27-18.247 1.802-6.083 3.47-12.165 5.137-18.248 1.668-6.082 3.136-12.235 4.47-18.457.8-3.915 1.668-7.9 2.535-12.025.934-4.125 1.935-8.18 3.136-12.165 1.134-3.985 2.535-7.83 4.07-11.465.4-.91.867-1.818 1.4-2.727.334-.7.668-1.678.868-2.657z" /><path fill="#FFF" d="M132.254 405.394c-11.208-3.706-19.414-5.943-24.75-6.642 1.066 13.214 3 28.105 5.936 44.604 2.87 16.5 5.938 32.51 9.273 48.03 3.336 15.52 6.205 28.315 8.607 38.452l3.802 15.73c3.67 3.426 8.14 6.433 13.343 9.02 5.204 2.586 10.94 4.544 17.146 5.802 6.205 1.26 12.677 1.678 19.348 1.05 6.67-.56 13.276-2.308 19.814-5.245.334-.14.6-.28.868-.42.266-.14.6-.28.867-.418 3.002-10.278 6.004-21.044 9.006-32.37 2.936-11.396 5.804-22.512 8.606-33.418 2.735-10.908 5.337-20.835 7.805-29.714 2.402-8.88 4.603-16.01 6.605-21.324.4-1.118.8-2.167 1.2-3.076.4-.91.8-1.678 1.135-2.377-8.406.49-19.014-.84-31.756-3.916-12.744-3.146-25.953-6.92-39.63-11.396-13.543-4.544-26.018-8.67-37.226-12.374z" /><path fill="#0081C6" d="M188.894 498.76c-.33-1.266-.505-2.647-.59-4.154-.098-1.437-.262-2.887-.502-4.28l-.182-.53-.174-.174c-.143.044-.31.227-.42.49s-.236.595-.294.94c-.177 1.458-.18 3.09-.02 4.965.17 1.806.497 3.5 1.032 5.16.48 1.578 1.238 2.712 2.13 3.444 1.66 1.016 3.206 1.088 4.662.078s2.72-2.48 3.746-4.563c1.092-2.07 1.844-4.132 2.28-6.323l.196-1.17c.08-.483.084-.908.076-1.265-.074-.368-.182-.53-.38-.566l-.265.377-.125.333c-.413.846-.772 1.774-1.076 2.783-.294.94-.665 1.936-1.023 2.864-.872 1.97-1.872 3.488-3 4.558s-2.27 1.428-3.42 1.003c-1.093-.343-1.96-1.638-2.653-3.967z" /><path fill="#FFF" d="M186.1 157.11c-7.136 6.836-14.006 13.704-20.73 20.687-6.724 6.984-13.104 14.596-19.14 22.837-6.038 8.24-11.655 17.706-16.74 28.246-5.14 10.615-9.665 22.966-13.58 36.988-4.61 16.802-7.895 32.155-9.91 46.135-2.017 13.98-3.07 26.76-3.242 38.217-.163 11.523.193 21.97 1.188 31.26.93 9.296 2.138 17.683 3.477 25.044.81 4.268 3.563 8.825 8.185 13.613 4.557 4.796 10.553 9.542 17.98 14.17 7.425 4.63 15.795 8.938 25.028 12.797 9.305 3.918 19.043 7.107 29.35 9.618 6.51 1.586 13.034 2.767 19.636 3.534 6.602.766 13.144 1.07 19.498.927 6.418-.15 12.64-.815 18.72-2.066 3.455-.713 6.813-1.682 10.088-2.775 2.897-.977 5.695-2.21 8.41-3.568l1.057-.472c1.475-.794 2.884-1.58 4.286-2.433 1.402-.853 2.722-1.83 4.042-2.807.12-.082.186-.09.306-.173.12-.083.177-.158.307-.174.297-.24.603-.414.9-.654.3-.24.54-.406.838-.645l.112-.15c2.575-1.944 5.077-3.947 7.442-6 2.364-2.05 4.534-4.08 6.64-6.098 9.73-9.657 17.382-19.652 22.704-29.886 5.395-10.177 9.01-20.394 10.93-30.527 1.917-10.134 2.69-19.986 2.315-29.556s-1.28-18.668-2.78-27.287c-.05-.397-.167-.786-.218-1.183-.05-.397-.102-.794-.217-1.182-.303-1.845-.734-3.673-1.174-5.567-.44-1.893-.945-3.78-1.515-5.656-2.572-8.28-5.913-16.393-9.947-24.283-4.035-7.888-8.25-15.15-12.642-21.716-4.34-6.707-8.208-12.264-11.67-16.73-.31-.363-.555-.736-.865-1.1-.245-.372-.554-.735-.79-1.04-1.737-2.267-3.202-3.962-4.285-5.236l-1.978-2.1-3.46-2.38-8.034-6.302c-6.88-5.506-15.307-12.294-25.268-20.298-9.97-8.07-19.932-16.073-29.893-24.077-9.97-8.068-18.435-14.65-25.356-19.95z" /><path fill="#0081C6" d="M285.165 238.495c.31.363.554.736.864 1.1 3.462 4.465 7.32 9.956 11.663 16.663 4.334 6.64 8.55 13.902 12.64 21.717 4.036 7.89 7.376 16.003 9.95 24.283.57 1.877 1.074 3.763 1.514 5.657.44 1.894.872 3.722 1.174 5.566.052.4.168.787.22 1.184.05.397.165.786.216 1.183l-.042-.33.04-.208c-.225-2.26-.424-4.318-.68-6.303-.245-1.92-.693-3.88-1.28-5.89.284.166.495.273.77.372.203.04.397.016.582-.075.354-.315.674-.894.895-1.73.222-.835.314-1.654.398-2.54.083-.884.063-1.554.003-2.017-.254-1.985-.913-4.053-2.06-6.327-1.072-2.216-2.338-4.407-3.67-6.59-1.33-2.184-2.5-4.12-3.456-5.947-2.357-4.54-4.842-9.064-7.513-13.497-2.67-4.433-5.527-8.774-8.642-13.083l-.245-.372c-.154-.18-.3-.297-.447-.412-.163-.248-.326-.496-.554-.736l-.172-.315-.155-.18c-.954-1.292-2.118-2.69-3.446-4.335-1.385-1.57-2.76-3.076-4.322-4.49-1.496-1.422-2.95-2.513-4.353-3.208-.138-.05-.21-.107-.34-.09-.138-.05-.21-.108-.34-.09.3.296.545.668.79 1.04m-97.367 218.452c5.513 2.52 11.264 4.338 17.254 5.453 5.99 1.113 12.05 1.748 18.316 1.953l.202.04c.138.05.267.034.323-.04.203.04.47.074.728.04l.333.025.13-.016c4.504.296 9.096.245 13.645-.137 4.614-.39 9.048-1.162 13.302-2.313 4.69-1.342 9.318-3.147 13.945-5.49 4.626-2.342 9-5.123 13.118-8.342 4.055-3.21 7.68-6.703 10.8-10.534.46-.53.916-1.06 1.374-1.588.457-.53.842-1.117 1.153-1.762.312-.646.356-1.324.254-2.118l-.026-.2c-.017-.13-.09-.19-.17-.313-.204-.04-.454.058-.63.215-.242.166-.354.315-.41.39l-.725.496c-.242.165-.41.39-.716.563-2.097 2.084-4.332 4.12-6.64 6.097-2.365 2.052-4.802 4.047-7.442 6l-.112.15c-.298.24-.54.404-.837.644-.298.24-.604.415-.9.655-.122.083-.178.157-.308.174-.12.082-.177.156-.306.173-1.32.976-2.648 1.887-4.04 2.805-1.403.853-2.804 1.705-4.287 2.434l-1.056.472c-.307.173-.678.356-.984.53-.677.355-1.427.653-2.17 1.018-2.61 1.142-5.11 2.136-7.637 2.93-2.527.795-5.078 1.392-7.646 1.856-6.015 1.243-12.237 1.907-18.72 2.066-6.418.152-12.896-.16-19.498-.927-6.52-.643-13.108-1.816-19.618-3.4z" /><path fill="#FFF" d="M369.458 154.29c-1.3-.372-2.712-.25-4.146.355-4.633 2.148-8.868 4.092-12.744 5.885-3.877 1.793-7.69 3.384-11.25 4.747-3.56 1.362-7.165 2.444-10.798 3.34l-2.133-3.3c-1.196-1.867-2.596-4.133-4.108-6.81-1.607-2.665-3.026-5.358-4.337-7.972-1.08-2.363-2.916-5.278-5.544-8.69-2.59-3.468-5.993-6.952-10.24-10.64-4.285-3.634-9.528-6.977-15.73-10.028-6.2-3.052-13.526-5.357-21.885-6.93-5.736-.974-10.837-1.236-15.263-.838-4.427.397-8.05 1.053-10.828 1.912l-5.25 1.862c-3.848 1.98-9.064 5.602-15.757 10.79-6.6 5.174-13.408 10.858-20.398 16.903-6.992 6.046-12.896 11.4-17.86 16.033l-5.743 5.47-2.358 2.657-.814 2.465-1.01 4.883c-.716 4.025-1.106 9.528-1.158 16.6-.106 7.036.632 15.515 2.16 25.4 1.102 6.513 2.667 12.62 4.788 18.308 2.12 5.687 4.502 10.905 7.077 15.52 2.59 4.707 5.118 8.71 7.614 12.19l.176.21c1.1 1.55 2.075 2.927 3.038 4.21 1.002 1.23 1.842 2.34 2.708 3.306 2.99 3.594 6.203 6.774 9.598 9.59 3.396 2.817 6.974 5.272 10.548 7.393 1.37.838 2.78 1.623 4.23 2.353l4.19 2.074c2.105.964 4.236 1.78 6.314 2.557 2.077.777 4.18 1.406 6.174 1.957 1.044.27 2.05.59 3.132.805.99.228 2.02.403 3.01.632 2.756.53 5.296.9 7.66 1.06 2.31.12 4.365.136 6.097-.084 1.6-.152 3.226-.45 4.85-.75 1.625-.298 3.275-.744 4.87-1.23.227-.082.413-.11.64-.194.225-.083.412-.11.584-.234 3.643-1.136 7.27-2.7 10.905-4.502 3.674-1.857 7.252-4.034 10.88-6.504 2.37-1.656 4.82-3.42 7.146-5.354s4.707-3.83 7.044-6.006c.08-.108.21-.176.25-.23l.252-.23c.83-.796 1.677-1.5 2.455-2.336.832-.797 1.663-1.594 2.44-2.43.04-.055.173-.123.213-.177.04-.052.118-.16.21-.175 4.21-4.278 8.24-8.77 12.137-13.524 3.842-4.795 7.468-9.747 10.92-14.912 2.478-3.725 4.77-7.42 7.025-11.064 2.2-3.68 4.32-7.256 6.255-10.8 2.13-3.816 4.09-7.508 5.878-11.08 1.88-3.584 3.59-7.046 5.125-10.387.9-1.905 1.76-3.757 2.58-5.555.82-1.797 1.546-3.58 2.287-5.27 2.833-6.693 5.01-12.376 6.663-17.12 1.56-4.728 2.64-8.237 3.164-10.418.303-1.432.062-2.684-.67-3.716-.96-.95-1.967-1.606-3.266-1.978z" /><path fill="#0081C6" d="M363.524 191.873c.025-.148.09-.348.14-.643s.02-.48-.116-.746c.154-.55.214-1.083.182-1.603-.033-.52-.105-.986-.27-1.437-.742 1.69-1.468 3.473-2.29 5.27-.82 1.798-1.678 3.65-2.577 5.555-1.537 3.34-3.245 6.804-5.126 10.388-1.826 3.625-3.84 7.278-5.878 11.078-1.99 3.506-4.056 7.12-6.256 10.802-2.254 3.642-4.547 7.338-7.026 11.064-3.45 5.164-7.077 10.117-10.92 14.912-3.84 4.795-7.873 9.285-12.135 13.525-.04.053-.172.122-.21.176-.04.053-.173.122-.213.175-.777.837-1.61 1.634-2.44 2.43-.832.798-1.624 1.54-2.456 2.338l-.25.23c-.08.107-.173.12-.252.23-2.298 2.12-4.664 4.11-7.044 6.005s-4.736 3.646-7.145 5.355c-3.628 2.47-7.207 4.647-10.882 6.504-3.674 1.856-7.26 3.365-10.904 4.502-.226.082-.412.11-.584.233-.187.03-.413.112-.64.194-1.595.485-3.244.93-4.87 1.23-1.624.3-3.25.598-4.848.75-1.693.166-3.788.203-6.098.083-2.364-.16-4.904-.53-7.66-1.06-.99-.23-2.02-.404-3.01-.633-.99-.23-2.033-.497-3.13-.804-1.996-.55-4.06-1.235-6.176-1.958-2.078-.777-4.21-1.593-6.315-2.557-1.435-.636-2.83-1.327-4.188-2.072-1.45-.73-2.86-1.516-4.23-2.354-3.575-2.12-7.06-4.59-10.548-7.392-3.397-2.817-6.61-5.997-9.6-9.592-.772-.98-1.705-2.076-2.707-3.306-.962-1.283-1.993-2.7-3.038-4.208l-.176-.212.067.133c-.053-.04-.2-.065-.254-.104-.094.014-.187.03-.28.043-.025.147-.01.24.004.334.068.132.136.265.15.358.07.133.19.305.313.477l.19.305c.776 1.312 1.444 2.546 2.112 3.78s1.47 2.398 2.432 3.68c.65.808 1.314 1.708 2.003 2.46.65.807 1.393 1.6 2.136 2.39 2.937 3.558 6.203 6.776 9.814 9.75 3.61 2.976 7.444 5.534 11.46 7.73 4.015 2.196 8.09 3.857 12.28 5.023 4.246 1.206 8.58 2.064 13.11 2.652 4.53.59 9.03.657 13.495.206 4.52-.41 8.844-1.462 12.976-3.15 2.377-.99 4.82-2.178 7.34-3.475 2.52-1.297 4.987-2.633 7.386-4.102 2.4-1.47 4.704-2.923 6.862-4.403.172-.122.25-.23.423-.35.132-.07.304-.192.422-.353 1.26-.815 2.463-1.67 3.63-2.47 1.15-.895 2.26-1.735 3.318-2.615 1.653-1.353 3.198-2.785 4.836-4.232 1.545-1.433 3.144-2.826 4.797-4.18 1.996-1.597 3.857-3.46 5.65-5.456 1.79-1.995 3.475-4.07 5.106-6.184 1.63-2.114 3.26-4.228 4.812-6.234 3.196-4.027 6.192-8.118 8.88-12.353 2.74-4.195 5.266-8.548 7.605-12.872 1.02-1.733 2.082-3.52 3.103-5.253.967-1.773 1.988-3.506 2.93-5.132.957-1.532 1.86-3.104 2.67-4.66.862-1.52 1.672-3.077 2.388-4.62 1.605-3.207 3.102-6.494 4.452-9.806 1.285-3.112 2.395-6.434 3.264-9.767z" /><g fill="#0081C6"><path d="M276.62 184.91c-1.05-.897-2.034-1.76-3.05-2.567-.987-.862-2.067-1.563-3.332-2.23-.555-.322-1.203-.63-1.944-.917-.803-.325-1.637-.596-2.44-.778-.248-.143-.464-.198-.68-.252-.217-.055-.433-.11-.65-.163-.247 0-.433.034-.618.07-.186.034-.31.105-.373.212l-.65.123c-.186.035-.34.16-.558.248-.59.445-.717.946-.193 1.466.43.538 1.078.987 1.94 1.49.804.468 1.39.738 1.73.865.278.09.525.234.71.342.247.143.525.233.77.377-.682.606-1.397 1.265-2.082 2.156-.747.856-1.432 1.747-2.056 2.675-.623.927-1.123 1.784-1.436 2.605-.752 1.857-.947 3.608-.583 5.255.394 1.592 1.223 2.865 2.548 3.853s2.995 1.388 5.037 1.288c.805-.105 1.517-.192 2.168-.315.65-.123 1.27-.335 1.797-.53-1.115.21-2.167.17-3.28-.047-1.05-.182-2.07-.56-3.026-1.19-.525-.378-.987-.72-1.387-1.168-.4-.448-.74-.86-1.014-1.38-.155-.16-.216-.34-.37-.502-.06-.18-.184-.394-.214-.626-.153-.305-.275-.663-.335-.985-.06-.322-.088-.697-.18-1.11-.148-1.162-.05-2.323.328-3.538.346-1.16.878-2.357 1.688-3.462.405-.553.84-1.017 1.338-1.444.497-.426.963-.8 1.49-1.138.125-.07.156-.125.28-.196.124-.07.155-.124.28-.195.185.11.43.252.617.36s.402.163.525.235l.062.036.864.504c.31.18.525.378.833.557.832.845 1.756 1.67 2.71 2.586.955.915 1.97 1.866 3.02 2.763.338.27.646.592.985.86l1.017.81.185.107.185.108.092.126.123.072.185.108c.154.162.4.306.586.414.186.108.34.27.587.413l.03-.054c.003-.286.035-.482.036-.768l.067-.966-.216-.198-.06-.18c-.062-.035-.03-.088-.093-.124-.03-.09-.153-.162-.183-.25l-.06-.18c-.032-.09-.032-.09-.094-.126-.06-.036-.03-.09-.092-.125.002-.143-.03-.233-.028-.376l-.06-.178c-.153-.447-.49-1.003-.89-1.594-.4-.592-.86-1.22-1.353-1.793-.462-.627-.923-1.112-1.23-1.435z" /><path d="M271.237 184.64c-.31-.18-.524-.376-.833-.556l-.864-.503-.062-.035c-.216-.055-.34-.127-.524-.235l-.617-.36c-.093.018-.156.125-.28.196-.093.018-.155.125-.28.196-.527.338-.993.712-1.49 1.14-.497.426-.933.89-1.338 1.442-.81 1.106-1.405 2.266-1.69 3.463-.376 1.215-.475 2.376-.326 3.54.03.375.09.697.18 1.108.06.322.182.68.335.985.06.18.12.358.244.573.06.18.184.394.338.555.276.52.676.968 1.014 1.38.4.45.83.844 1.386 1.167.895.593 1.883 1.026 3.027 1.19 1.05.183 2.163.26 3.278.048.093-.017.186-.035.31-.106.093-.018.186-.035.31-.106 1.24-.28 2.355-.778 3.41-1.453 1.087-.73 2.082-1.584 2.892-2.69.31-.392.56-.82.81-1.25.25-.427.438-.89.595-1.302-.185-.108-.4-.305-.586-.413-.186-.108-.402-.305-.587-.413l-.185-.11-.123-.07-.092-.127-.186-.108c-.06-.036-.123-.07-.185-.107l-1.017-.81c-.34-.268-.647-.59-.986-.86-1.048-.898-2.064-1.85-3.02-2.764-1.14-.88-2.032-1.76-2.863-2.603z" /></g><path fill="#FFF" d="M301.726 179.177c.913-3.053 1.05-6.178.32-9.36-.69-3.234-2.57-6.43-5.596-9.637-3.16-3.14-6.424-5.117-9.69-5.854-3.357-.722-6.546-.66-9.806.18-3.206.877-6.168 2.1-8.886 3.665-2.757 1.62-5.102 3.13-7.113 4.633 2.9 2.703 6.113 5.882 9.678 9.484s7.104 7.352 10.765 11.274c3.608 3.883 7.094 7.593 10.364 11.145 2.018-2.078 3.993-4.436 5.83-7.06 1.746-2.61 3.168-5.454 4.134-8.468z" /><path fill="#A6CE38" d="M269.552 103.525l.066.015-6.012 16.225-4.108 11.046 1.042-11.84 1.384-15.752.116-1.373 7.512 1.68z" /><path fill="#0081C6" d="M269.605 103.537l-.067-.015c.1-.188.194-.362.293-.55.097-.174.206-.345.328-.513l.08-.11c.042-.06.08-.106.13-.137.035-.034.052-.044.046-.018l-.03.134c-.046.198-.108.408-.212.622-.102.2-.19.405-.29.592-.886 1.87-1.643 3.783-2.28 5.723-.624 1.944-1.274 3.88-1.925 5.82-.336.986-.673 1.973-1 2.976-.325 1.004-.69 1.998-1.094 2.97l-.08.234c-.058.127-.116.198-.178.225-.053-.012-.074-.044-.062-.098l.027-.12c.028-.245.07-.488.113-.743.058-.252.115-.505.19-.768l6.012-16.225m-7.92-2.598c.01-.04.03-.12.07-.238.037-.103.095-.174.176-.225.12.027.173.11.142.242-.03.132-.047.268-.07.374-.026.358-.036.706-.048 1.067l-.03 1.058-1.384 15.752c-.057-.797-.06-1.58-.01-2.354.046-.76.098-1.545.17-2.354.088-1.492.188-2.98.272-4.46.088-1.49.172-2.97.26-4.46.028-.68.058-1.428.103-2.244.033-.818.153-1.533.35-2.16z" /><path fill="#A6CE38" d="M255.79 97.475l5.154 2.462-11.573 22.552 6.42-25.015zM274.228 53.997c-.06-.456-.104-.922-.157-1.406l-.03-.4c-.006-.234.06-.4.223-.522.2-.094.338-.083.44.042.087.12.157.3.19.496.216.862.442 1.744.673 2.61s.456 1.75.687 2.616c.05.187.102.375.14.558.05.187.087.37.138.557.116.488.248.966.362 1.454s.233.962.347 1.45c-.084.067-.167.135-.237.207-.083.068-.148.126-.23.194-.043.035-.09.083-.116.12-.042.035-.074.087-.116.12-.09.098-.18.18-.257.28-.078.1-.15.187-.23.288-.027.038-.068.072-.09.096-.03.038-.056.077-.07.12-.082.114-.15.234-.214.34-.07.118-.123.242-.172.35-.134-.524-.258-1.03-.378-1.55-.105-.517-.215-1.02-.306-1.53-.005-.034-.01-.066-.03-.104l-.012-.113c-.06-.314-.13-.79-.22-1.41-.087-.62-.143-1.245-.185-1.866-.028-.21-.056-.422-.07-.63-.018-.192-.022-.38-.012-.564 0-.047.003-.11.03-.194.025-.086.052-.17.097-.266-.052-.437-.132-.883-.194-1.34z" /><path fill="#A6CE38" d="M269.507 44.36c1.427.63 2.513 1.356 3.246 2.16.748.81 1.25 1.51 1.516 2.108.196.42.428 1.13.672 2.158.262 1.017.508 2.138.74 3.35.234 1.21.413 2.295.56 3.277-.225-.88-.456-1.748-.686-2.615s-.457-1.748-.674-2.61c-.046-.203-.102-.376-.19-.496-.1-.125-.238-.137-.44-.043-.16.12-.232.3-.223.522l.03.4c.054.485.097.95.16 1.406.06.456.122.912.188 1.353-.045.097-.086.178-.098.267-.027.086-.035.16-.03.194-.01.185.01.378.013.567.014.207.046.404.07.63.042.62.097 1.247.186 1.867.088.62.16 1.094.218 1.41l.012.112c.005.033.01.066.03.103-1.128.367-2.51.595-4.142.68-1.648.084-3.23 0-4.76-.24-1.628-.286-3.22-.733-4.747-1.346-1.525-.613-2.812-1.292-3.842-2.048-1.03-.756-1.596-1.493-1.716-2.216.115-.37.337-.988.63-1.833.298-.86.687-1.815 1.13-2.894.46-1.075.987-2.128 1.587-3.16.523 1.583.963 3.185 1.318 4.808.34 1.62.603 3.292.777 5l.1.483c.052.234.126.398.2.514.086.12.174.04.286-.223l.04-.175c.012-.09.034-.162.042-.238-.015-.05-.012-.113-.018-.193l-.008-.128c-.07-.832-.182-1.678-.337-2.538-.15-.873-.315-1.704-.47-2.516-.194-.933-.41-1.843-.68-2.738-.27-.894-.557-1.78-.89-2.662.642-1.018 1.335-1.848 2.1-2.5.763-.653 1.566-.98 2.43-.995 2.366.062 4.24.41 5.667 1.038z" /><path fill="#0081C6" d="M257.517 43.69c-.18-.43-.382-.884-.58-1.35-.213-.472-.435-.915-.684-1.32l-.093-.153c-.04-.075-.078-.15-.103-.22.033-.005.06.004.094-.002l.062.004c.185.056.36.25.516.55.157.297.285.54.37.72.422.803.83 1.6 1.2 2.417.372.817.724 1.643 1.03 2.47.32.88.622 1.77.89 2.664.25.905.483 1.82.68 2.738.17.817.33 1.662.47 2.517.155.86.267 1.705.337 2.537l.008.127c.01.065.007.127.018.192-.007.076-.015.15-.04.237l-.04.174c-.112.262-.2.344-.287.223-.088-.12-.148-.28-.2-.514l-.1-.483c-.173-1.708-.435-3.38-.776-4.998-.355-1.624-.795-3.226-1.32-4.808-.21-.627-.422-1.254-.666-1.875-.248-.61-.506-1.235-.783-1.85z" /><path fill="#A6CE38" d="M293.376 119.956l-2.445.28c-1.59.16-3.735.298-6.43.385-2.693.09-5.707.03-9.042-.174l-1.433-3.125c-.84-1.953-1.798-4.206-2.9-6.763-1.08-2.552-2.02-4.8-2.844-6.727l-1.28-3.066 5.304-.17 21.072 19.362z" /><path fill="#0081C6" d="M261.853 104.563c.02.014.04.045.043.06.012.025.032.04.044.062-.026.055-.064.087-.14.09-.076.003-.128-.006-.17-.008-.557-.026-1.17-.154-1.85-.374-.68-.22-1.244-.473-1.73-.756-1.742-1.078-3.258-2.444-4.54-4.11-1.28-1.666-2.33-3.426-3.12-5.277l-.014.02c-.042-.003-.078-.015-.1-.045-.02-.03-.034-.055-.046-.078-.036-.07-.068-.168-.095-.292-.02-.132-.047-.256-.084-.386-.436-1.09-.784-2.32-1.077-3.685-.292-1.366-.38-2.61-.254-3.742-.027-.285-.06-.56-.094-.835s-.05-.553-.073-.822c-.02-.294-.04-.588-.05-.876-.018-.294-.02-.59-.023-.888-.244-2.554-.21-5.065.104-7.533.323-2.463 1.007-4.894 2.06-7.305.535-1.228 1.14-2.493 1.805-3.774.662-1.28 1.42-2.45 2.25-3.518l.395-.476c.233-.257.456-.358.658-.313.03.038.046.078.05.11.006.035.004.077-.017.106.05-.068.09-.125.15-.185l.14-.19c-.062.085-.116.178-.18.264-.063.085-.117.178-.18.264-1.058 1.537-2.078 3.263-3.066 5.206-.988 1.942-1.744 3.95-2.26 6.035-.29 1.173-.566 2.71-.815 4.59-.256 1.892-.41 3.963-.446 6.236s.113 4.554.473 6.87c.08.47.16.943.264 1.403.097.47.217.927.32 1.387.013.024.018.057.03.08l.02.074c.43 1.6 1.023 3.098 1.788 4.503.766 1.404 1.727 2.642 2.884 3.715 1.2 1.092 2.392 1.998 3.553 2.706 1.177.704 2.298 1.264 3.39 1.685z" /><path fill="#A6CE38" d="M259.45 55.243l2.446-.618c1.534-.36 3.34-.61 5.417-.746 2.077-.14 3.985.115 5.713.753 1.727.638 2.84 1.914 3.32 3.845.39 1.733.696 3.58.924 5.534.23 1.953.242 3.998.06 6.15-.183 2.15-.71 4.39-1.56 6.727-1.088 2.576-2.295 5.198-3.623 7.863-1.32 2.655-2.157 5.713-2.525 9.158s.37 7.633 2.177 12.548c-.51-.17-1.24-.278-2.21-.344-.96-.058-2.11-.18-3.422-.38-1.32-.19-2.763-.574-4.322-1.162-1.092-.42-2.213-.98-3.383-1.694-1.16-.708-2.352-1.614-3.554-2.706-1.158-1.073-2.12-2.31-2.885-3.715-.756-1.398-1.358-2.903-1.788-4.503l-.02-.073c-.012-.023-.017-.056-.03-.08-.12-.457-.223-.917-.32-1.387-.104-.46-.184-.932-.264-1.404-.36-2.316-.52-4.602-.474-6.87s.19-4.343.445-6.234c.25-1.88.526-3.418.815-4.59.516-2.085 1.272-4.094 2.26-6.036.988-1.943 2.008-3.67 3.066-5.206.063-.086.117-.18.18-.265.064-.087.118-.18.18-.266.923-1.313 1.707-2.358 2.347-3.126l1.027-1.175z" /><path fill="#0081C6" d="M266.79 48.07l.183-.163.212-.123.206-.058.215.003.2.06.186.12.165.172.133.216.103.26.062.28.014.31-.017.303-.06.32-.1.287-.134.258-.17.21-.19.177-.196.116-.206.058-.214-.003-.2-.06-.186-.12-.164-.172-.134-.216-.102-.26-.06-.28-.023-.318.018-.302.06-.3.1-.286.135-.258.167-.23z" /><path fill="#A6CE38" d="M272.5 46.49c.505-.075.972.084 1.402.494.46.53.628 1.094.492 1.705-.128.602-.406 1.15-.826 1.64l-2.947-3.015.578-.377c.365-.22.796-.372 1.3-.448zM227 45.253l-1.905-2.526-1.465-1.2-1.447-.38-2.475-.355c-1.956-.162-4.117-.32-6.482-.37-2.365-.05-4.524-.103-6.373-.062l-2.157.048-1.127.128c-.305.212-.71.427-1.012.742-.407.215-.81.532-1.112.847 1.657.58 3.212 1.16 4.766 1.743s3.11 1.164 4.666 1.848c.31.096.518.194.625.398.105.1.213.303.215.406 1.787 1.81 3.17 3.834 4.35 6.17 1.184 2.338 2.06 4.785 2.63 7.34s.73 5.02.68 7.385c-.066 1.646-.435 3.504-1.11 5.47-.573 1.967-1.354 3.834-2.34 5.705s-2.083 3.335-3.39 4.598l-.1.105c-.104.002-.102.105-.204.107-.1.105-.203.107-.304.212-.1.105-.203.108-.306.11l-.406.215c-1.835.657-3.67 1.315-5.61 1.872-1.938.66-3.878 1.216-5.923 1.673.728.394 1.35.69 1.872.985.518.194 1.038.49 1.454.687l3.603.228 6.88-.154c2.57-.058 4.93-.213 6.98-.465l2.56-.365 1.326-.44 1.204-1.26 1.794-2.507c1.394-1.984 2.67-4.684 3.83-8 1.158-3.313 1.792-7.13 1.8-11.343-.096-4.314-.797-8.1-2.105-11.462-1-3.37-2.398-6.112-3.882-8.135M112.57 24.38l.412-.01s.205-.003.31.097c.103-.002.203-.107.306-.11l.308-.007c1.336-.03 2.58.457 3.935 1.35 1.255.898 2.414 2.208 3.58 3.826.535.913 1.07 1.826 1.606 2.842.536 1.015 1.075 2.134 1.618 3.457.544 1.324.987 2.753 1.432 4.285.445 1.53.89 3.063 1.236 4.7.566 2.35.93 4.808 1.297 7.472.367 2.663.632 5.33.696 8.205l.114.51.02.926.024 1.027.01.513.08 3.493c-.028 3.39-.262 6.685-.604 9.776-.34 3.193-.79 6.08-1.344 8.867-.28 1.24-.563 2.375-.846 3.512-.283 1.137-.67 2.173-.958 3.104-.384 1.242-.874 2.28-1.262 3.317-.49 1.04-.984 1.974-1.477 2.91-1.09 1.772-2.19 3.132-3.503 4.19-1.212.95-2.535 1.494-3.868 1.627l-.103.002-.31.007c-.102 0-.207-.1-.207-.1-.103.003-.205.006-.306.11l-.41.01c-2.26.05-4.34-1.034-6.234-3.047-1.998-2.01-3.705-4.85-5.33-8.513l-.327-.917-.33-.918.008.31c.466 2.454 1.034 4.908 1.598 7.156.564 2.25 1.23 4.393 1.89 6.33 1.757 5.1 3.695 9.064 5.916 11.89 2.22 2.83 4.513 4.217 6.98 4.264l.206-.004 20.072-3.12c3.592-.184 6.95-1.697 10.072-4.542 3.122-2.844 5.81-6.706 8.062-11.69.1-.207.197-.415.192-.62.098-.208.096-.31.194-.518.096-.31.292-.726.388-1.037.096-.31.19-.723.285-1.034.39-.934.677-1.866.97-2.59.29-.83.583-1.453.775-2.074 1.533-4.967 2.646-10.335 3.24-15.898.596-5.562.778-11.218.547-16.968-.23-5.75-.87-11.284-1.913-16.605-.236-1.33-.574-2.66-.807-3.887-.338-1.328-.673-2.554-1.01-3.78-.335-1.225-.773-2.448-1.21-3.672-.44-1.223-.98-2.342-1.415-3.462l-.207-.098c-.324-.712-.545-1.427-.867-2.036-.324-.712-.646-1.322-.968-1.93-2.47-4.776-5.328-8.514-8.472-11.218-3.143-2.705-6.565-4.067-10.162-4.09l-20.587-1.595c-2.465.055-4.69 1.647-6.783 4.57-2.093 2.925-3.852 6.972-5.38 12.144-.576 1.864-1.048 3.724-1.413 5.787-.467 2.066-.83 4.232-1.193 6.398.098-.207.094-.413.194-.518.098-.207.094-.413.192-.62 1.357-3.628 3.04-6.543 4.945-8.64 1.908-1.996 3.94-3.07 6.096-3.117m47.3 5.83c1.084 2.543 2.068 5.193 2.746 7.953.678 2.76 1.252 5.418 1.724 8.182 1.43 8.806 1.934 17.53 1.505 25.966-.428 8.437-2.09 16.798-4.783 25.08l32.568-9.566c1.326-.44 2.652-.882 4.08-1.325 1.33-.34 2.758-.782 4.086-1.12.817-.224 1.634-.447 2.35-.67.816-.223 1.633-.446 2.347-.668.306-.11.918-.33 1.735-.552.815-.327 1.53-.548 2.346-.772l1.023-.23.614-.115.197-.415c.488-1.142.98-2.18 1.467-3.322.49-1.14 1.08-2.285 1.57-3.323 1.37-3.114 2.12-6.316 2.044-9.706.03-3.29-.455-6.566-1.553-9.727-1.098-3.16-2.706-6.106-4.82-8.73l-.21-.2-.31-.097c-1.137-.283-2.276-.668-3.314-1.16-1.138-.385-2.177-.875-3.316-1.26-1.762-.68-3.522-1.258-5.282-1.835l-5.384-1.832c-3.623-1.153-7.348-2.303-11.178-3.553-3.933-1.248-7.76-2.396-11.59-3.543-3.932-1.248-7.45-2.403-10.66-3.46z" /><path fill="#FFF" d="M113.29 24.364l-.205.005c-.103 0-.103 0-.206.003-1.84.453-3.456 1.722-5.054 3.813-1.497 1.986-2.875 4.688-3.932 8-.098.208-.093.413-.19.62-.1.21-.095.414-.195.52-1.153 3.622-1.986 7.75-2.602 12.39-.615 4.637-.813 9.574-.696 14.812.112 5.033.528 9.854 1.346 14.254.614 4.508 1.526 8.496 2.733 11.962l.33.918.33.918c1.31 3.464 2.912 6.203 4.6 8.22 1.69 2.018 3.462 3.11 5.418 3.27.103-.002.206-.004.208.1.103-.004.205-.006.308-.008l.103-.002c1.335-.03 2.66-.574 3.868-1.628 1.212-.952 2.415-2.315 3.503-4.19.496-.832.986-1.87 1.477-2.91.49-1.038.876-2.177 1.262-3.316.285-1.034.673-2.07.958-3.104.283-1.137.566-2.274.846-3.513.556-2.788 1.005-5.676 1.345-8.87.342-3.09.474-6.38.603-9.775l-.078-3.492-.01-.513-.024-1.028-.02-.924-.115-.51c-.164-2.772-.328-5.543-.696-8.207-.368-2.662-.834-5.118-1.297-7.47-.345-1.638-.793-3.272-1.236-4.7-.444-1.532-.887-2.96-1.43-4.285-.542-1.22-1.08-2.34-1.62-3.458-.536-1.015-1.072-2.03-1.604-2.84-1.167-1.62-2.326-2.93-3.58-3.826-1.253-.896-2.6-1.38-3.935-1.35l-.307.007s-.1.105-.203.107z" /><path fill="#0081C6" d="M190.396 39.7c.934.39 1.968.675 2.9.963l5.384 1.832c1.76.577 3.522 1.257 5.282 1.835 1.14.385 2.177.876 3.316 1.26 1.142.49 2.28.875 3.315 1.16l.31.096.21.2c2.116 2.728 3.72 5.57 4.82 8.73 1.098 3.162 1.582 6.44 1.553 9.73-.03 3.288-.675 6.59-2.044 9.704-.49 1.04-1.082 2.182-1.57 3.324-.488 1.14-.98 2.18-1.467 3.32l-.197.416-.614.117-1.022.228c-.817.224-1.634.448-2.346.772-.815.326-1.427.546-1.735.552-.816.223-1.53.445-2.348.668-.817.224-1.53.446-2.348.67-1.326.44-2.757.78-4.086 1.118-1.326.44-2.755.884-4.08 1.325-.204.108-.407.215-.713.325-.203.107-.51.114-.712.324-.205.004-.408.11-.61.218-.205.108-.303.315-.296.624.31.095.516.09.822-.02.307-.006.51-.113.716-.118 1.125-.23 2.353-.463 3.476-.797 1.225-.335 2.35-.566 3.576-.902 1.94-.557 3.983-1.116 5.923-1.673 1.94-.558 3.776-1.215 5.61-1.873l.407-.215c.103-.003.204-.108.306-.11.1-.105.203-.107.304-.212.1-.105.1-.105.203-.108l.1-.105c1.308-1.262 2.406-2.725 3.392-4.597s1.766-3.74 2.338-5.704c.573-1.966.943-3.824 1.11-5.472.154-2.367-.106-4.828-.677-7.384s-1.345-5.005-2.63-7.34c-1.183-2.337-2.667-4.36-4.352-6.172 0-.102-.108-.305-.214-.406-.105-.1-.315-.3-.625-.397-1.553-.583-3.108-1.165-4.665-1.85s-3.21-1.16-4.766-1.742c-1.968-.676-3.936-1.35-5.9-1.924-1.97-.675-3.934-1.248-5.902-1.923-.413-.093-.826-.186-1.344-.38-.516-.09-.93-.185-1.34-.176-.41.01-.61.22-.707.53.207.098.415.196.625.397l.31.097.103-.003c.936.493 1.867.78 2.9 1.066m-31.87-9.872c-.413-.094-.83-.29-1.242-.384.436 1.12.977 2.342 1.414 3.463.436 1.12.874 2.344 1.212 3.672.335 1.225.67 2.45 1.008 3.78.233 1.227.57 2.555.806 3.886 1.044 5.32 1.682 10.855 1.913 16.604.23 5.647.047 11.303-.546 16.97-.594 5.56-1.71 10.827-3.24 15.896-.192.62-.384 1.242-.776 2.073-.29.828-.58 1.656-.97 2.59-.096.31-.19.723-.285 1.034-.095.413-.293.726-.39 1.036.2-.313.293-.726.492-1.04.093-.412.292-.724.49-1.037l2.552-.777c2.795-8.283 4.355-16.642 4.783-25.078.428-8.436-.075-17.16-1.505-25.965-.472-2.764-1.048-5.526-1.724-8.183-.678-2.76-1.662-5.41-2.747-7.954-.314-.3-.83-.392-1.245-.588m-45.746-5.35c-2.26.05-4.393 1.23-6.298 3.327-1.906 2.098-3.588 5.013-4.945 8.64-.098.207-.096.31-.194.518-.098.207-.094.413-.192.62-1.254 3.625-2.19 7.757-2.807 12.292-.616 4.638-.917 9.577-.9 14.92.113 5.034.63 9.75 1.346 14.255.817 4.4 1.933 8.383 3.244 11.848l.005.205-.008-.308.33.917.327.918c1.52 3.666 3.33 6.502 5.328 8.513 1.997 2.01 4.074 2.992 6.233 3.046l.412-.01c.103-.002.203-.107.306-.11-1.956-.16-3.83-1.25-5.417-3.27-1.688-2.017-3.29-4.756-4.6-8.22l-.33-.918-.33-.918c-1.206-3.466-2.22-7.452-2.938-11.957-.717-4.506-1.233-9.22-1.346-14.254-.117-5.238.08-10.175.697-14.813.616-4.64 1.448-8.768 2.6-12.39.1-.208.094-.413.194-.518.1-.208.094-.413.192-.62 1.158-3.315 2.434-6.016 3.93-8.002 1.703-1.99 3.32-3.26 5.16-3.712z" /><g><path fill="#A6CE38" d="M235.44 35.356l-2.258.153-1.128.127c-.406.215-.707.53-1.114.744-.404.318-.81.533-1.214.85 1.657.58 3.317 1.262 4.976 1.944 1.66.683 3.217 1.367 4.874 1.947.31.097.518.195.625.398.106.1.213.303.216.406 1.792 2.015 3.383 4.24 4.57 6.783 1.187 2.543 2.07 5.298 2.646 8.06.576 2.76.843 5.53.698 8.205-.062 1.85-.43 3.81-1.098 6.087-.568 2.17-1.446 4.245-2.43 6.22-.983 1.974-2.18 3.645-3.482 5.112l-.3.315c-.202.21-.405.318-.608.425-.103.002-.1.105-.204.107-.102.002-.1.104-.203.107-1.832.76-3.873 1.422-5.913 2.084-2.04.663-4.08 1.326-6.124 1.885.728.395 1.35.69 1.874 1.09.52.295 1.04.49 1.557.683l1.236.178 2.57.045c2.057.058 4.42.005 7.19-.16 2.67-.06 5.133-.217 7.183-.468l2.56-.366 1.326-.44 1.303-1.468 1.788-2.712c1.49-2.294 2.864-5.202 4.12-8.827 1.254-3.625 1.88-7.853 1.775-12.475-.105-4.724-.918-8.92-2.23-12.487-1.316-3.67-2.718-6.62-4.21-8.95l-2.012-2.73-1.47-1.404-1.552-.48-2.577-.353c-2.057-.16-4.322-.313-6.79-.464-2.06-.16-4.22-.214-6.17-.17m-14.275.42l-.83-.288c-3.52-1.155-7.14-2.307-10.97-3.557-4.04-1.348-8.077-2.696-12.01-3.944-3.935-1.35-7.66-2.5-10.977-3.763 1.194 2.85 2.082 5.81 2.765 8.776.683 2.964 1.368 6.03 1.745 9.106 1.553 9.728 2.075 19.273 1.668 28.633-.51 9.362-2.155 18.545-5.037 27.55l33.984-10.522c1.427-.546 2.855-.99 4.284-1.432 1.43-.443 2.858-.886 4.184-1.326.817-.224 1.734-.553 2.55-.777.82-.224 1.633-.55 2.45-.774.306-.11.918-.33 1.735-.553.815-.327 1.732-.656 2.55-.88l1.022-.228.613-.117c-.002-.103.1-.105.098-.208 0-.103.102-.105.1-.208.485-1.244 1.074-2.49 1.665-3.634.59-1.246 1.075-2.49 1.56-3.734 1.363-3.423 2.107-6.933 2.23-10.635.022-3.598-.47-7.183-1.68-10.753-1.105-3.47-2.82-6.72-4.942-9.652l-.21-.2-.31-.097c-1.14-.385-2.38-.77-3.523-1.257-1.14-.488-2.28-.874-3.42-1.362-1.866-.678-3.733-1.458-5.596-2.033-1.97-.777-3.835-1.455-5.7-2.133M133.06 6.507c-.596.937-1.19 1.978-1.68 3.017-.59 1.246-1.175 2.595-1.654 4.147-.482 1.45-.96 3.106-1.436 4.76-.572 1.966-1.038 4.134-1.5 6.405-.464 2.27-.824 4.54-1.18 7.014 0 0 .1-.106-.002-.103.1-.105.098-.208.093-.413.1-.208.095-.414.193-.62 1.45-4.04 3.126-7.264 5.13-9.57 1.9-2.303 4.033-3.48 6.393-3.637.102-.002.205-.004.31.096l.308-.007.308-.007c.103-.003.204-.108.306-.11 1.335-.03 2.682.454 4.04 1.45 1.256 1 2.52 2.41 3.692 4.234.637.91 1.175 2.03 1.714 3.148.54 1.118 1.082 2.442 1.626 3.766.545 1.426 1.096 3.058 1.543 4.692.448 1.634.9 3.474 1.25 5.316.57 2.556 1.04 5.218 1.416 8.19.37 2.868.643 5.842.815 8.92l.15 2.156.014.616.038 1.746.014.617-.068 1.544.01.513.02.822c.004.204.01.513.016.718-.025 3.494-.257 6.89-.597 10.084-.34 3.193-.785 6.286-1.34 9.073-.277 1.342-.558 2.582-.84 3.718-.28 1.24-.667 2.38-.95 3.515-.38 1.345-.87 2.486-1.357 3.628-.49 1.14-.98 2.18-1.575 3.118-1.085 1.976-2.283 3.545-3.596 4.6-1.312 1.058-2.636 1.602-4.074 1.634l-.308.007-.308.007-.41.01c-.103 0-.206.004-.31.006-2.36.053-4.543-1.03-6.548-3.348-2.002-2.216-3.92-5.256-5.55-9.227-.11-.306-.22-.715-.33-1.02-.11-.306-.222-.715-.434-1.018l.11.305c.472 2.764 1.045 5.424 1.614 7.877.67 2.45 1.34 4.8 2.007 7.046 1.77 5.612 3.82 9.985 6.15 13.12 2.23 3.135 4.73 4.723 7.3 4.768l.206-.003 20.888-3.344c3.798-.188 7.256-1.807 10.474-4.96 3.217-3.156 6-7.432 8.343-12.93.098-.208.196-.416.296-.52.1-.21.198-.416.193-.622.094-.412.187-.825.386-1.138.092-.413.29-.726.384-1.14.388-1.035.676-1.966 1.066-2.9.287-.93.58-1.657.77-2.278 1.626-5.483 2.727-11.365 3.31-17.543.58-6.178.75-12.348.508-18.61-.243-6.264-.997-12.413-2.055-18.35-.237-1.433-.475-2.866-.815-4.297-.34-1.43-.678-2.76-1.018-4.19-.34-1.432-.78-2.758-1.323-3.98-.44-1.325-.98-2.546-1.422-3.872l-.205.005c-.327-.815-.548-1.53-.873-2.24s-.648-1.425-1.075-2.135c-2.584-5.286-5.452-9.435-8.805-12.34-3.253-3.01-6.78-4.473-10.584-4.594L140.826-.04c-.72.017-1.436.136-2.148.46-.712.325-1.32.75-2.027 1.28l-.1.104-.802.84c-.302.315-.5.628-.804.84-.593 1.04-1.29 2.084-1.885 3.022m14.75-2.076l.414.093c.313.2.733.6 1.26 1.205.527.605.952 1.212 1.48 1.817.53.707.85 1.214 1.06 1.518 3.092 4.966 5.683 10.56 7.674 16.887 1.99 6.326 3.47 12.767 4.442 19.425.97 6.658 1.316 12.92 1.14 18.78-.037 2.98-.17 6.17-.406 9.464-.235 3.292-.572 6.588-1.115 9.89-.546 3.197-1.196 6.294-2.16 9.09-.677 1.968-1.453 4.04-2.43 6.323-.873 2.28-1.854 4.358-2.938 6.437-.194.518-.493.936-.69 1.35-.298.42-.492.937-.794 1.252-.098.208-.296.52-.595.938-.3.418-.6.733-.906.843-.007-.308-.014-.617.182-1.032.095-.31.19-.62.29-.725.69-1.35 1.38-2.702 1.966-4.052.69-1.35 1.273-2.803 1.757-4.15.584-1.45 1.166-3.005 1.748-4.56.48-1.552.96-3.104 1.336-4.654 2.073-8.37 3.207-17.44 3.3-27.1.09-9.766-.946-19.3-3.11-28.705-2.16-9.406-5.538-17.963-10.026-25.673-.32-.506-.642-1.116-1.064-1.62-.32-.507-.742-1.01-1.062-1.518l-.107-.203-.317-.403-.33-.917z" /><path fill="#0081C6" d="M223.616 35.106c-2.07-.673-4.038-1.348-6.108-2.02-.413-.095-.83-.29-1.347-.485-.517-.193-1.03-.182-1.34-.175-.41.01-.61.22-.706.53.21.2.417.3.625.397l.31.096.207.098c1.036.388 1.97.778 3.004 1.063.727.29 1.453.583 2.28.873l.83.29 5.595 2.033 5.594 2.033c1.14.487 2.28.873 3.42 1.36 1.142.49 2.384.873 3.523 1.258l.31.096.21.2c2.12 2.934 3.838 6.184 4.943 9.653 1.107 3.572 1.7 7.155 1.68 10.753-.02 3.7-.765 7.21-2.23 10.634-.486 1.244-1.075 2.49-1.56 3.734-.59 1.247-1.078 2.388-1.666 3.634.002.103-.1.105-.098.208.002.103-.1.105-.1.208l-.613.116-1.023.23c-.817.222-1.632.55-2.55.878-.814.326-1.426.545-1.734.552-.817.224-1.632.55-2.45.774-.816.224-1.734.553-2.55.777-1.43.443-2.858.886-4.184 1.326-1.43.444-2.86.887-4.286 1.433l-1.323.543c-.202.108-.408.112-.71.324-.205.108-.303.315-.296.624.31.095.518.194.824.084.306-.11.614-.117.715-.222 1.228-.233 2.35-.566 3.576-.902 1.225-.335 2.45-.67 3.78-1.01 2.042-.558 4.082-1.22 6.122-1.883 2.04-.66 3.98-1.32 5.914-2.083.103-.003.1-.105.203-.108.102-.003.102-.003.202-.108.204-.107.407-.215.608-.425l.3-.315c1.306-1.365 2.502-3.036 3.483-5.113 1.086-1.978 1.86-4.153 2.43-6.22.67-2.174 1.036-4.237 1.097-6.088.146-2.675-.12-5.34-.697-8.206-.578-2.864-1.46-5.516-2.646-8.06-1.187-2.54-2.78-4.87-4.57-6.782-.003-.103-.11-.306-.215-.406-.21-.2-.418-.3-.625-.397-1.66-.68-3.217-1.366-4.874-1.946-1.66-.682-3.316-1.26-4.976-1.944-2.27-.463-4.24-1.24-6.31-1.914m-98.11-3.254c.003.102.003.102-.098.207-1.246 4.035-2.275 8.58-2.882 13.63-.71 5.05-.998 10.503-.867 16.357.124 5.547.55 10.778 1.38 15.795.83 4.914 1.954 9.205 3.376 13.078l.107.203-.11-.306c.11.306.222.715.435 1.018.112.41.22.715.33 1.02 1.63 3.972 3.446 7.014 5.55 9.228 2.003 2.216 4.185 3.298 6.55 3.348l.308-.006.41-.01c-1.958-.264-3.937-1.453-5.734-3.674-1.796-2.22-3.403-5.165-4.824-8.935-.11-.306-.22-.714-.33-1.02-.11-.306-.222-.715-.434-1.018-1.32-3.876-2.343-8.272-3.07-13.188-.83-4.915-1.254-10.146-1.378-15.693-.128-5.752.16-11.205.662-16.354.604-5.152 1.53-9.694 2.676-13.624.098-.21.093-.415.192-.622.098-.208.093-.413.19-.62 1.153-3.624 2.525-6.634 4.22-8.933 1.596-2.194 3.312-3.568 5.252-4.125l-.103.002c-2.362.053-4.494 1.23-6.393 3.637-1.9 2.302-3.68 5.425-5.132 9.465-.098.208-.093.413-.19.62 0 .104-.1.21-.1.21.108.202.11.304.007.307m22.407-27.425c.006.308.116.614.328.918l.318.404.107.202c.32.507.742 1.01 1.06 1.518.323.61.746 1.113 1.065 1.62 4.486 7.607 7.76 16.166 10.028 25.672 2.163 9.406 3.2 19.043 3.108 28.704.015 9.865-1.12 18.83-3.195 27.2-.376 1.55-.855 3.103-1.334 4.655-.583 1.556-1.167 3.007-1.75 4.562-.586 1.35-1.172 2.698-1.756 4.15-.587 1.35-1.276 2.7-1.965 4.05-.1.106-.197.417-.293.727-.196.415-.292.725-.183 1.03.41-.11.713-.323.907-.842.3-.417.498-.73.596-.938.196-.415.495-.833.794-1.25.3-.418.493-.936.69-1.352 1.083-2.08 2.065-4.157 2.938-6.437.874-2.28 1.753-4.354 2.428-6.322.965-2.796 1.718-5.895 2.16-9.09.544-3.302.88-6.598 1.116-9.89.234-3.295.37-6.483.405-9.464.175-5.965-.17-12.225-1.14-18.78-.97-6.658-2.45-13.1-4.44-19.426-1.992-6.327-4.583-11.92-7.674-16.887-.213-.303-.532-.81-1.062-1.517-.424-.607-.95-1.212-1.478-1.817s-.948-1.006-1.26-1.205l-.518-.193m38.564 19.69l-1.45-.48c-.412-.094-.93-.288-1.346-.484.544 1.324.982 2.547 1.423 3.873.44 1.326.88 2.652 1.322 3.978.338 1.33.678 2.76 1.018 4.19.34 1.432.578 2.865.816 4.3 1.058 5.935 1.81 11.982 2.055 18.347.243 6.264.074 12.537-.51 18.613-.58 6.18-1.684 11.958-3.307 17.543-.19.62-.483 1.347-.77 2.278-.288.932-.68 1.865-1.066 2.902-.094.413-.292.725-.386 1.14-.094.412-.187.825-.386 1.138.197-.416.29-.83.49-1.142.092-.413.288-.828.485-1.244l2.755-.883c2.88-9.108 4.524-18.29 5.036-27.55.407-9.36-.114-18.906-1.667-28.634-.48-3.07-1.064-6.14-1.746-9.106-.58-2.967-1.57-5.925-2.766-8.776m-53.66-19.25c-.697 1.043-1.288 2.186-1.774 3.43-.488 1.14-.976 2.283-1.467 3.32-.098.21-.194.52-.292.727-.096.31-.194.518-.187.826l.002.104.005.206c.1-.105.303-.213.4-.42.1-.208.2-.313.198-.416.296-.52.49-1.038.787-1.56.297-.52.49-1.037.787-1.558.49-1.04 1.084-2.08 1.68-3.018.593-1.04 1.29-1.98 1.987-3.024l-.2.21-.2.21c-.102.105-.1.208-.2.313l-.2.21c-.1.105-.1.207-.202.21l-.1.105-.1.105c-.206.004-.308.007-.514.01l-.41.01m-3.37 102.12c.332 1.122.666 2.245 1.104 3.468.54 1.22 1.082 2.442 1.724 3.558l.308-.006.205-.005.102-.002.103-.003.103-.002c-.647-1.32-1.188-2.542-1.733-3.97l-1.63-3.97c-.003-.103-.11-.306-.112-.41-.105-.1-.208-.097-.414-.092-.1.207-.195.518-.085.824l.01.41.312.2z" /><path fill="#FFF" d="M127.96 31.283c-.097.208-.093.413-.19.62-1.146 3.932-2.072 8.474-2.676 13.625-.607 5.05-.793 10.5-.663 16.355.125 5.546.55 10.777 1.38 15.69.726 4.918 1.75 9.314 3.07 13.19.11.305.22.714.433 1.017.112.41.22.715.33 1.02 1.42 3.77 3.028 6.715 4.825 8.936 1.796 2.22 3.673 3.412 5.734 3.674l.308-.007.308-.007c1.438-.032 2.762-.575 4.074-1.632 1.312-1.057 2.51-2.626 3.597-4.602.492-.936 1.085-1.977 1.573-3.118.49-1.142.975-2.386 1.358-3.627.387-1.14.67-2.276.95-3.516.28-1.238.56-2.477.842-3.717.554-2.787 1-5.88 1.34-9.073.338-3.193.57-6.59.595-10.084-.007-.308-.01-.513-.016-.72-.003-.204-.01-.512-.017-.82l-.012-.514.07-1.543-.014-.617-.04-1.746-.013-.617-.15-2.154c-.172-3.08-.444-6.053-.817-8.923-.372-2.87-.845-5.633-1.416-8.19-.452-1.84-.8-3.68-1.25-5.315-.447-1.634-.997-3.266-1.542-4.692-.544-1.324-1.087-2.648-1.626-3.766-.54-1.22-1.078-2.237-1.715-3.148-1.17-1.823-2.435-3.233-3.69-4.233-1.36-.998-2.706-1.482-4.04-1.452-.104.002-.206.004-.307.11l-.308.006-.205.005c-.103 0-.206.003-.206.003-1.84.453-3.555 1.827-5.25 4.126-1.593 2.295-2.967 5.203-4.22 8.93-.203.108-.3.315-.4.523z" /></g><g><path fill="#0081C6" d="M104.212 46.675c-.735-.702-1.463-1.097-2.285-1.08-.822.02-1.532.446-2.235 1.18-.702.736-1.296 1.777-1.782 3.02-.486 1.245-.862 2.795-1.13 4.548-.273 1.65-.334 3.502-.393 5.455.043 1.952.29 3.796.635 5.433.345 1.637.79 3.17 1.333 4.492.542 1.22 1.18 2.235 1.916 2.938.736.703 1.464 1.097 2.286 1.08.82-.02 1.53-.446 2.234-1.18.703-.736 1.296-1.777 1.782-3.02.484-1.348.863-2.795 1.132-4.548.27-1.65.435-3.504.392-5.455s-.188-3.798-.635-5.432c-.346-1.74-.79-3.168-1.333-4.492-.54-1.22-1.18-2.235-1.915-2.938z" /></g><g><path fill="#0081C6" d="M125.746 45.298c-.822.018-1.532.445-2.235 1.18-.702.735-1.295 1.776-1.78 3.02-.485 1.347-.863 2.794-1.133 4.547-.27 1.65-.435 3.504-.392 5.455s.29 3.796.636 5.432c.348 1.74.79 3.168 1.334 4.492.544 1.324 1.18 2.234 1.916 2.937.735.704 1.463 1.1 2.284 1.08.822-.018 1.532-.445 2.235-1.18.702-.735 1.295-1.776 1.78-3.02.487-1.244.864-2.793 1.133-4.546.27-1.65.332-3.502.392-5.456-.044-1.95-.29-3.795-.636-5.432-.345-1.636-.79-3.168-1.334-4.492-.54-1.22-1.18-2.234-1.915-2.937-.735-.703-1.46-.995-2.284-1.08z" /></g><g><path fill="#A6CE38" d="M251.247 76.29c.086.138.112.243.066.313-.036.072-.127.144-.283.205-.396.15-.873.198-1.432.14-.548-.054-1.117-.18-1.708-.366-.433-.135-.84-.287-1.233-.46-.393-.17-.742-.335-1.047-.502-.243-.134-.5-.248-.76-.362-.258-.114-.53-.22-.8-.324-.48-.177-.958-.376-1.43-.596-.477-.21-.918-.48-1.33-.79-1.57-1.245-3.056-2.71-4.456-4.394-1.4-1.683-2.674-3.456-3.794-5.334-.155-.25-.357-.612-.615-1.094-.26-.47-.493-.97-.687-1.498-.194-.526-.288-.99-.26-1.397.01-.043.017-.086.023-.118l.023-.12c-.032-.072-.052-.142-.073-.213-.02-.072-.04-.142-.05-.21-.027-.106-.04-.21-.043-.32-.004-.103.003-.202.008-.29l-.14-.037c-.117-.02-.225-.04-.333-.06l-.344-.074c-.722-.144-1.45-.31-2.164-.496-.725-.188-1.427-.44-2.117-.754-1.055-.46-2.177-1.1-3.367-1.92-1.18-.817-2.1-1.89-2.766-3.193-.24-.278-.445-.56-.612-.87-.168-.3-.294-.59-.372-.894-.03-.14-.052-.267-.048-.41-.01-.136.006-.28.03-.408l.005-.033.018-.097c.006-.032.022-.063.028-.095-.02-.004-.056 0-.088-.005-.024.007-.056 0-.088-.005l-.145-.004c-.112.002-.222-.007-.334-.005-.112.003-.222-.006-.344-.006-1.19-.027-2.392-.168-3.61-.4-1.217-.245-2.41-.62-3.556-1.13-.228-.096-.422-.255-.585-.463-.152-.205-.235-.42-.235-.667-.004-.1.016-.21.068-.31.04-.105.104-.205.2-.3.563-.522 1.306-.922 2.216-1.203.91-.28 1.72-.49 2.432-.606.07-.01.128-.032.208-.04.047-.013.092-.016.138-.02.01.003.034-.004.045-.002.01.002.023-.007.023-.007.473-.08.965-.148 1.466-.202s1.008-.084 1.523-.09c.65-.016 1.29.023 1.935.095.645.073 1.268.21 1.88.4.044.007.074.024.105.04.043.008.073.025.117.033.084.027.167.065.25.09.085.028.18.067.263.094 1.042.1 2.11.25 3.223.442 1.104.19 2.14.512 3.122.937l.163.085c.08.05.16.097.23.143.038.04.064.08.08.116.014.047.006.09-.035.127l-.173.036-.343-.02c-.285-.03-.59-.073-.894-.117l-.628-.104c-.108-.02-.218-.03-.326-.05-.108-.02-.23-.03-.337-.05-.037.017-.085.03-.12.046-.035.005-.07.01-.093.017-.518.084-1.086.08-1.704-.02-.618-.102-1.206-.243-1.77-.4-.496-.025-.994-.05-1.494-.062-.5-.012-1.003-.014-1.517-.007-.078-.003-.18 0-.315.01-.135.008-.292.013-.46.016.095.028.19.056.284.096.095.028.19.057.294.098.312.124.63.282.96.487.33.207.64.352.923.45l.44.09c.223.063.363.21.45.473.015.036.02.07.023.115.003.046.006.09-.004.145 1.017.05 2.062.197 3.155.44 1.082.254 1.963.682 2.644 1.297l.148.162c.074.08.15.16.202.237.023.06.047.108.074.147.037.04.05.098.04.152-.01.042-.037.07-.062.088l-.073.032c-.063.033-.166.048-.3.056-.146-.004-.312-.01-.488-.02.95.596 1.906 1.172 2.865 1.726.97.556 1.926 1.132 2.862 1.75.5.314 1.062.662 1.663 1.04.61.378 1.13.785 1.563 1.22l.154.197c.07.1.14.203.19.3.016.038.03.074.047.11l.033.062c.117.4.115.78-.004 1.127-.12.345-.326.564-.63.643.862.224 1.716.502 2.572.826.854.333 1.615.75 2.292 1.264l.155.13c.076.07.155.128.233.187.06.1.1.186.12.257.022.07-.057.135-.244.18-.343.048-.742.03-1.217-.056-.476-.085-.893-.184-1.245-.27-.418-.1-.844-.21-1.257-.33l-1.262-.364c.54.4 1.078.822 1.61 1.265.534.444 1.05.918 1.543 1.398.415.355.825.742 1.24 1.152.415.422.633.94.676 1.563 0 .067-.02.164-.053.292l-.04.216c.03.084.102.176.207.273.105.097.19.18.256.247.357.367.78.857 1.265 1.448.482.6.77 1.166.84 1.704-.002.19-.017.332-.07.434-.04.104-.006.222.095.34.272.284.61.58 1.023.88.404.296.73.645.985 1.026.253.392.27.853.046 1.404l-.066.122c-.045.06-.078.12-.124.19.733.2 1.46.444 2.18.71.722.264 1.392.632 2.01 1.102l.157.118c.042.074.118.144.184.212m-31.093-29.762c-.072-.035-.158-.05-.256-.07l-.174-.02c-.27-.06-.528-.106-.802-.134-.272-.038-.537-.053-.795-.045l-.076-.014c-.03-.006-.066 0-.09.016.05.02.125.046.213.05.088.005.155.006.188.012.262.037.536.064.808.103.26.036.535.064.796.1l.097.018c.047-.003.07-.01.094-.017m1.77 4.062l-.016-.093-.065-.01c-.02-.005-.034.004-.03.038.008.023.025.05.052.087.026.04.046.053.067.057l-.007-.08z" /><path fill="#A6CE38" d="M219.898 46.46c.098.017.184.033.256.068-.026.018-.058.012-.1.004l-.1-.018c-.26-.036-.534-.064-.795-.1-.273-.038-.536-.064-.808-.102-.033-.006-.1-.007-.188-.012s-.162-.03-.214-.05c.026-.018.06-.023.092-.017l.076.014c.258-.01.523.006.795.044.272.04.532.087.802.136l.183.033m46.783 6.93c.546.377 1.076.775 1.604 1.184.53.408 1.066.83 1.588 1.27.623.56 1.353 1.7 2.165 3.43.822 1.736 1.543 3.72 2.176 5.944.64 2.238 1 4.38 1.083 6.425.083 2.058-.292 3.686-1.124 4.885-1.172 1.47-2.49 2.637-3.933 3.513-1.453.863-2.717 1.492-3.79 1.866l-1.685.552-1.655-.346c-1.072-.24-2.48-.608-4.227-1.116-1.738-.507-3.64-1.155-5.694-1.953-.272-.105-.53-.22-.812-.326-.27-.116-.538-.232-.817-.35-.62-.27-1.24-.55-1.853-.85-.615-.303-1.228-.616-1.827-.937.59.186 1.16.312 1.707.367.548.055 1.025.008 1.432-.14.155-.062.247-.134.282-.206.035-.07.01-.176-.066-.312-.065-.068-.144-.127-.22-.197l-.158-.117c-.617-.47-1.287-.837-2.01-1.102-.72-.265-1.446-.51-2.18-.71.047-.07.08-.13.124-.19l.067-.12c.222-.55.206-1.012-.046-1.404-.254-.38-.58-.73-.985-1.027-.415-.3-.752-.596-1.024-.88-.1-.13-.135-.236-.094-.34.04-.105.056-.247.068-.435-.07-.537-.357-1.103-.84-1.704-.48-.6-.907-1.08-1.264-1.446-.066-.068-.15-.15-.256-.247-.106-.098-.178-.19-.208-.273l.04-.216c.034-.127.052-.224.053-.29-.04-.634-.26-1.153-.675-1.564-.416-.41-.826-.798-1.24-1.152-.505-.483-1.02-.956-1.543-1.397-.533-.444-1.07-.865-1.61-1.265l1.26.364c.414.12.84.23 1.257.33.362.1.77.184 1.246.27.475.088.874.104 1.217.055.187-.045.265-.108.245-.18-.02-.08-.06-.166-.12-.256-.07-.057-.147-.115-.234-.187l-.156-.13c-.676-.513-1.437-.93-2.29-1.265-.857-.323-1.71-.6-2.574-.826.305-.078.51-.286.63-.644.12-.346.122-.725.005-1.126l-.033-.062c-.016-.036-.03-.073-.047-.11-.05-.097-.11-.197-.19-.3l-.155-.197c-.434-.436-.953-.832-1.563-1.222-.61-.38-1.162-.725-1.663-1.04-.936-.617-1.89-1.204-2.862-1.75-.97-.555-1.925-1.13-2.866-1.727.175.02.34.03.488.022.146-.007.238-.023.3-.057l.073-.03c.036-.017.053-.047.06-.09 0-.056-.012-.114-.04-.153-.025-.038-.05-.087-.072-.147-.053-.077-.128-.157-.202-.238l-.15-.16c-.68-.616-1.56-1.055-2.642-1.297-1.083-.242-2.138-.39-3.156-.44.01-.055.007-.1.004-.146-.003-.045-.018-.08-.023-.116-.076-.26-.225-.42-.45-.472l-.44-.092c-.274-.094-.582-.24-.924-.447-.334-.194-.65-.353-.96-.487-.094-.04-.2-.07-.296-.1-.095-.027-.19-.056-.283-.095.17-.003.326-.008.46-.017.137-.008.238-.012.315-.01.515-.006 1.015.007 1.517.01.5.012 1 .025 1.495.06.563.158 1.153.288 1.77.4.616.1 1.183.115 1.703.02.023-.006.058-.01.092-.016.034-.005.082-.02.12-.045.108.02.218.028.337.05.107.02.217.028.325.048l.628.103c.305.045.61.09.894.12l.342.016.173-.035c.04-.037.06-.078.035-.127-.016-.037-.04-.086-.08-.115-.07-.047-.15-.095-.23-.143l-.163-.085c-.98-.436-2.03-.75-3.122-.938-1.104-.19-2.18-.342-3.223-.443-.084-.026-.178-.066-.262-.092-.085-.027-.167-.064-.25-.09-.032-.017-.075-.025-.118-.033-.03-.017-.074-.025-.104-.04.967-.104 2.012-.204 3.124-.303 1.12-.087 2.306-.16 3.556-.223 2.907-.15 6.058-.113 9.475.12 3.42.232 6.956.787 10.623 1.667 2.234.54 4.47 1.25 6.715 2.106 2.254.857 4.473 1.91 6.69 3.15.7.395 1.395.8 2.084 1.25.76.428 1.447.877 2.13 1.36z" /><path fill="#0081C6" d="M266.64 52.51c.407.343.79.69 1.145 1.07.068.056.162.15.295.276.132.135.2.26.21.373-.06.022-.123.01-.204-.038l-.18-.11c-.214-.118-.416-.233-.618-.348l-.607-.345c-.68-.483-1.37-.932-2.06-1.37-.69-.438-1.384-.855-2.082-1.25-2.234-1.4-4.462-2.52-6.686-3.36-2.214-.84-4.464-1.473-6.73-1.897-3.67-.87-7.218-1.427-10.623-1.668-3.418-.232-6.58-.273-9.476-.12-1.78-.09-3.547-.133-5.298-.14-1.75-.006-3.48.047-5.188.17-.514.008-1.022.038-1.523.092s-.982.122-1.465.202c-.01-.003-.024.006-.024.006-.01-.002-.034.005-.045.003-.343.048-.686.097-1.043.154-.38.065-.75.132-1.112.222-.34.15-.79.29-1.33.45-.554.155-1.016.36-1.41.624-.38.254-.5.6-.346 1.042 0 .235.082.46.234.668.163.208.358.366.585.464 1.145.51 2.338.883 3.555 1.127 1.217.245 2.42.375 3.61.402l.313.058c.097.017.205.037.3.065.005-.02.02-.04.023-.062.016-.02.02-.042.033-.05l.144.004c.028.027.044.063.06.1.016.036.033.062.03.083l.02.015-.007.032c-.024.13-.038.272-.03.408.01.135.018.27.048.41.068.303.192.604.373.894.17.298.373.592.613.87.666 1.304 1.587 2.376 2.766 3.193 1.19.82 2.31 1.46 3.365 1.92.69.315 1.393.566 2.117.754.725.187 1.443.352 2.165.494l.343.075c.108.02.227.042.335.06l.14.038c-.02.097-.026.196-.01.288.005.103.02.206.043.322-.022-.004-.033-.006-.045.002l-.044-.007.07.347c.034.118.07.225.107.332-.02.41.064.87.26 1.398.193.526.425 1.026.685 1.498.26.47.46.842.616 1.094 1.12 1.878 2.39 3.66 3.793 5.334 1.402 1.684 2.898 3.15 4.457 4.394.41.32.854.58 1.33.79.473.22.95.418 1.43.595 1.182.683 2.397 1.306 3.645 1.868 1.247.563 2.505 1.07 3.762 1.523.022.005.04.02.052.022l.052.02c.27.116.538.232.818.35.27.116.54.222.81.327.496.223.976.467 1.452.732.476.265.938.55 1.4.835l.173.088c.092.05.162.096.232.142.032.006.05.032.068.057.006.024-.01.054-.057.068-.046.003-.09-.005-.152-.028-.06-.022-.103-.04-.144-.06-.36-.1-.714-.186-1.068-.26-.355-.077-.716-.176-1.074-.297-1.08-.376-2.18-.766-3.304-1.16-1.122-.395-2.204-.826-3.26-1.275-3.227-1.403-6.116-3.247-8.673-5.51-2.556-2.262-4.655-4.955-6.278-8.052-.414-.733-.838-1.592-1.285-2.566-.448-.974-.692-1.9-.73-2.79-1.52-.355-3.03-.83-4.53-1.416-1.49-.584-2.87-1.338-4.144-2.25-.695-.53-1.35-1.285-1.952-2.265-.603-.98-.974-1.94-1.096-2.867-.85-.167-1.706-.31-2.553-.443-.86-.123-1.703-.277-2.548-.476-.45-.104-.99-.27-1.613-.517-.626-.247-1.183-.56-1.67-.95-.486-.39-.748-.852-.773-1.392 0-.123.01-.233.018-.343.01-.11.027-.207.055-.302l-.023.007c-.007-.024-.003-.045-.01-.07l.018-.04c.01-.054.035-.128.08-.198.047-.07.115-.135.183-.2.057-.07.125-.134.19-.19.066-.054.14-.096.226-.137l.077-.053c.026-.017.05-.024.063-.033 1.072-.62 2.33-1.094 3.794-1.408 1.453-.315 2.974-.518 4.542-.612 1.57-.104 3.063-.156 4.478-.143 1.585-.002 3.186.033 4.826.098 1.63.062 3.24.166 4.842.313 3.224.253 6.407.487 9.56.693 3.154.22 6.377.717 9.67 1.507 2.305.587 4.44 1.366 6.398 2.315 1.96.948 3.977 2.12 6.06 3.493l.187.134c.1.073.2.136.29.197.038.03.077.06.12.077l.092.04c.44.28.874.594 1.278.947z" /></g><g><path fill="#A6CE38" d="M262.078 101.772l7.568 1.693-10.124 27.284 2.556-28.978z" /></g><g><path fill="#A6CE38" d="M255.818 97.445l5.158 2.463-11.577 22.564 6.418-25.027z" /></g><g><path fill="#A6CE38" d="M293.406 119.936l-2.446.28c-1.59.162-3.757.294-6.432.386-2.695.088-5.71.03-9.068-.18l-1.434-3.126c-.84-1.955-1.8-4.21-2.88-6.762-1.083-2.553-2.026-4.79-2.848-6.73l-1.28-3.067 5.306-.17 21.082 19.37z" /></g><g><path fill="#0081C6" d="M261.845 104.528c.02.014.04.045.043.062.012.023.03.037.044.06-.026.056-.064.087-.14.09-.076.003-.135.004-.17-.008-.557-.026-1.172-.153-1.85-.373-.68-.22-1.253-.465-1.738-.75-1.744-1.076-3.26-2.444-4.542-4.11-1.282-1.667-2.33-3.428-3.13-5.27l-.013.02c-.044-.003-.08-.014-.102-.045-.02-.03-.033-.054-.045-.078-.037-.07-.068-.168-.09-.3-.02-.134-.046-.257-.083-.388-.437-1.09-.786-2.32-1.085-3.677-.293-1.367-.38-2.61-.255-3.744-.026-.285-.06-.56-.092-.836-.034-.276-.05-.554-.074-.822-.02-.294-.04-.59-.048-.876-.02-.295-.03-.582-.032-.88-.244-2.555-.21-5.067.104-7.537.323-2.463 1.007-4.896 2.06-7.308.536-1.23 1.136-2.484 1.8-3.766.663-1.282 1.42-2.45 2.252-3.52l.388-.468c.233-.256.455-.358.658-.312.03.038.046.078.05.11.006.034.004.077-.017.106.048-.067.09-.124.15-.184l.14-.192c-.063.086-.117.18-.18.266-.064.086-.118.18-.18.265-1.06 1.538-2.08 3.265-3.068 5.208-.99 1.944-1.738 3.944-2.255 6.028-.29 1.174-.565 2.712-.815 4.594-.256 1.892-.41 3.963-.448 6.22s.114 4.556.48 6.863c.08.472.162.945.266 1.405.096.47.217.927.32 1.387.013.024.018.057.03.08l.02.074c.43 1.6 1.03 3.09 1.796 4.495.766 1.406 1.727 2.645 2.885 3.72 1.203 1.09 2.395 1.997 3.556 2.705 1.185.695 2.317 1.263 3.41 1.683z" /><path fill="#A6CE38" d="M259.44 55.185l2.454-.627c1.535-.36 3.34-.61 5.412-.738 2.078-.137 3.987.117 5.706.748 1.73.64 2.84 1.915 3.32 3.847.392 1.734.698 3.583.917 5.53s.25 4.007.06 6.152c-.184 2.152-.71 4.39-1.563 6.73-1.087 2.58-2.295 5.2-3.616 7.858-1.32 2.657-2.156 5.716-2.518 9.153s.377 7.626 2.186 12.544c-.51-.17-1.24-.28-2.2-.337-.962-.058-2.11-.18-3.425-.38-1.32-.19-2.764-.575-4.324-1.163-1.093-.42-2.215-.98-3.386-1.695-1.16-.708-2.352-1.615-3.555-2.707-1.16-1.073-2.12-2.312-2.886-3.717-.756-1.398-1.36-2.904-1.796-4.495l-.02-.074c-.012-.023-.017-.056-.03-.08-.12-.458-.223-.918-.32-1.388-.104-.46-.184-.932-.265-1.404-.36-2.317-.52-4.604-.48-6.862s.19-4.346.448-6.22c.25-1.883.526-3.42.815-4.595.517-2.084 1.274-4.094 2.255-6.028.988-1.943 2.01-3.67 3.067-5.208.063-.087.117-.18.18-.267.064-.086.118-.18.18-.265.924-1.313 1.708-2.358 2.34-3.117l1.043-1.195z" /></g><g><path fill="#A6CE38" d="M274.27 53.894c-.063-.456-.106-.922-.158-1.407l-.047-.404c-.005-.236.062-.402.225-.524.2-.095.337-.083.44.042.087.12.156.298.19.495.215.863.442 1.745.673 2.612.23.867.457 1.748.687 2.616.052.187.103.375.14.558.05.187.088.37.14.558.113.488.246.966.36 1.454s.233.96.347 1.45c-.083.067-.167.135-.236.207-.082.068-.147.126-.23.194-.042.033-.088.082-.116.12-.04.034-.073.086-.115.12-.093.096-.18.18-.26.28-.077.1-.15.186-.23.287-.026.038-.054.077-.077.1-.027.04-.055.077-.068.12-.082.115-.15.234-.214.34-.067.12-.12.242-.17.352-.135-.525-.26-1.032-.378-1.553-.106-.516-.215-1.018-.307-1.53-.005-.033-.01-.066-.03-.103l-.012-.113c-.058-.315-.13-.79-.22-1.41-.087-.62-.143-1.246-.185-1.868-.028-.212-.056-.424-.07-.63-.018-.194-.022-.383-.012-.567 0-.047.017-.104.03-.194.025-.086.052-.17.11-.262-.084-.432-.145-.888-.207-1.344z" /><path fill="#A6CE38" d="M269.54 44.268c1.43.63 2.515 1.356 3.25 2.16.747.81 1.248 1.51 1.515 2.11.198.42.43 1.13.673 2.158.263 1.017.508 2.14.742 3.35.233 1.212.412 2.297.56 3.28-.226-.882-.457-1.75-.687-2.617-.23-.868-.458-1.75-.674-2.613-.048-.2-.103-.375-.19-.495-.103-.125-.24-.137-.44-.043-.163.12-.234.3-.225.523l.047.404c.052.485.095.95.157 1.407.06.456.122.912.203 1.358-.046.095-.086.176-.113.262-.026.085-.034.16-.03.194-.01.184.01.377.014.565.013.207.046.405.07.63.04.622.097 1.248.186 1.868.09.622.16 1.096.22 1.41l.01.114c.006.033.01.066.03.103-1.127.37-2.51.596-4.143.683-1.648.083-3.23 0-4.763-.242-1.628-.286-3.22-.733-4.748-1.346-1.527-.613-2.814-1.293-3.844-2.05-1.03-.754-1.593-1.506-1.713-2.23.114-.37.337-.988.63-1.833s.687-1.817 1.145-2.893c.458-1.075.987-2.128 1.59-3.174.526 1.583.966 3.186 1.32 4.81.342 1.62.604 3.292.792 5.004l.1.483c.052.235.126.4.2.515.087.12.175.04.287-.223l.04-.175c.01-.09.033-.162.04-.237-.014-.052-.01-.113-.017-.193l-.008-.127c-.07-.833-.183-1.68-.338-2.54-.15-.873-.315-1.704-.47-2.516-.194-.934-.41-1.844-.68-2.74-.27-.894-.557-1.78-.892-2.663.643-1.017 1.337-1.848 2.1-2.5.765-.653 1.57-.982 2.432-.996 2.316.078 4.19.425 5.62 1.054z" /><path fill="#0081C6" d="M257.55 43.582c-.18-.43-.382-.883-.58-1.35-.213-.472-.435-.915-.684-1.32l-.093-.153c-.04-.076-.08-.15-.104-.22.032-.006.06.003.094-.003l.06.004c.186.058.36.252.517.55.16.3.286.54.37.723.423.802.832 1.6 1.203 2.417.37.817.723 1.644 1.03 2.472.32.88.62 1.77.89 2.664.25.905.483 1.82.68 2.74.17.816.33 1.66.47 2.516.155.86.268 1.706.338 2.54l.008.126c.01.066.007.127.018.193-.007.077-.015.152-.042.238l-.038.175c-.113.262-.2.344-.288.223-.087-.12-.147-.28-.2-.514l-.1-.484c-.173-1.708-.435-3.38-.79-5.004-.356-1.624-.796-3.227-1.32-4.81-.212-.627-.423-1.254-.667-1.876-.238-.59-.497-1.215-.77-1.846z" /></g><g><path fill="#0081C6" d="M266.798 48l.184-.162.21-.123.207-.057.213.002.2.06.187.12.164.173.133.216.103.26.06.28.015.31-.017.303-.06.32-.1.286-.133.257-.175.223-.184.164-.203.13-.206.057h-.214l-.2-.063-.187-.12-.164-.17-.133-.218-.104-.262-.06-.28-.023-.317.017-.3.067-.315.1-.285.134-.258.168-.23z" /></g><g><path fill="#A6CE38" d="M272.51 46.418c.504-.075.972.084 1.402.494.462.53.628 1.095.492 1.706-.128.603-.406 1.153-.826 1.64l-2.94-3.006.57-.385c.364-.22.795-.373 1.3-.45z" /></g><g><path fill="#A6CE38" d="M251.253 76.233c.086.138.112.243.077.315-.036.072-.127.144-.284.205-.396.15-.873.198-1.42.143-.55-.055-1.118-.18-1.708-.378-.433-.135-.84-.287-1.233-.46-.393-.172-.743-.336-1.047-.503-.244-.134-.502-.248-.76-.362-.26-.114-.52-.217-.79-.322-.482-.176-.96-.375-1.433-.595-.475-.21-.917-.48-1.33-.79-1.57-1.246-3.056-2.712-4.457-4.397-1.4-1.684-2.675-3.457-3.795-5.336-.155-.252-.357-.612-.615-1.095-.26-.472-.493-.972-.687-1.5-.194-.525-.288-.99-.258-1.397.008-.043.005-.088.01-.12s.015-.076.033-.117c-.03-.073-.052-.144-.083-.217-.02-.07-.04-.14-.05-.21-.027-.105-.04-.22-.043-.32-.005-.1.002-.2.01-.3l-.14-.036-.346-.063-.333-.072c-.72-.143-1.45-.31-2.164-.495s-1.427-.44-2.107-.753c-1.056-.46-2.178-1.1-3.37-1.92-1.178-.818-2.1-1.89-2.766-3.196-.24-.277-.445-.56-.612-.87-.168-.298-.294-.59-.373-.893-.03-.14-.052-.267-.048-.41-.01-.137.006-.28.03-.41l.005-.03c.006-.034.012-.066.03-.097s.02-.062.027-.095c-.02-.004-.056 0-.088-.005-.024.007-.056 0-.09-.005l-.143-.004c-.112.003-.222-.006-.334-.004-.113.002-.223-.007-.335-.005-1.19-.026-2.392-.167-3.61-.41-1.217-.245-2.41-.62-3.557-1.13-.227-.097-.422-.255-.585-.464-.152-.206-.236-.422-.235-.668-.004-.1.015-.21.057-.313.04-.104.104-.205.197-.288.564-.523 1.307-.923 2.218-1.204.91-.28 1.72-.49 2.433-.606.07-.01.13-.032.208-.04.05-.014.094-.017.14-.02.01.003.033-.004.044-.002.01.002.024-.007.024-.007.472-.082.965-.148 1.466-.202s1.01-.084 1.524-.09c.65-.016 1.29.023 1.936.096.645.073 1.268.208 1.88.398.044.008.075.025.116.044.043.008.074.024.106.03.085.027.178.066.263.093.083.026.176.066.26.092 1.043.1 2.11.25 3.214.44 1.105.19 2.14.513 3.12.948l.164.086c.08.048.16.096.23.142.038.04.065.08.08.115.014.05-.004.09-.034.13l-.183.022-.34-.018c-.286-.03-.59-.074-.894-.13l-.628-.103c-.108-.02-.218-.027-.326-.047-.108-.02-.22-.03-.327-.048-.036.015-.083.03-.12.045-.034.005-.068.01-.092.016-.518.085-1.086.08-1.704-.02s-1.208-.242-1.77-.4c-.5-.025-.997-.048-1.497-.06-.5-.014-1.002-.017-1.517-.01-.077-.003-.18 0-.314.01-.136.01-.282.015-.45.018.095.03.19.057.286.086.095.028.19.057.294.098.313.124.63.282.96.488.332.205.64.35.913.445l.442.093c.223.063.36.222.447.484.016.036.02.07.035.118.002.045.005.09-.005.144 1.018.05 2.063.196 3.146.44 1.083.252 1.965.68 2.644 1.306l.15.15c.075.08.15.162.2.25.024.06.05.098.077.136.038.04.05.098.04.152-.008.044-.035.072-.072.088l-.073.03c-.06.035-.165.05-.3.058-.145-.004-.31-.012-.487-.022.95.598 1.907 1.174 2.867 1.73.97.555 1.924 1.142 2.86 1.76.502.314 1.063.662 1.665 1.04.61.38 1.13.786 1.563 1.223l.154.196c.07.103.142.205.18.3.016.037.03.074.047.11l.033.062c.117.4.115.78-.004 1.127-.12.347-.325.555-.63.644.862.224 1.716.502 2.562.824.854.334 1.616.752 2.292 1.266l.145.127c.076.07.155.13.233.188.06.1.1.185.12.256.022.072-.057.136-.244.18-.343.05-.74.032-1.217-.055-.475-.086-.893-.185-1.246-.27-.417-.1-.843-.21-1.257-.33l-1.262-.365c.54.4 1.078.822 1.6 1.263.534.443 1.05.917 1.543 1.398.417.356.826.743 1.243 1.154.414.42.632.94.675 1.563 0 .067-.02.164-.053.292l-.04.215c.03.084.102.175.208.272.105.098.19.18.256.248.356.367.78.857 1.265 1.448.482.6.77 1.167.84 1.705-.002.19-.017.332-.07.434-.04.104-.006.222.093.352.272.284.61.58 1.013.877.404.297.73.647.985 1.03.253.39.27.852.046 1.403l-.077.12c-.044.058-.077.12-.124.19.733.2 1.46.444 2.18.71.723.265 1.393.633 2.01 1.103l.156.128c.073.092.15.162.217.22m-31.105-29.778c-.072-.035-.158-.05-.255-.07l-.175-.02c-.27-.06-.528-.107-.8-.145-.272-.037-.537-.052-.796-.044l-.065-.01c-.032-.007-.066-.002-.092.015.052.022.126.046.214.05.088.006.154.007.187.013.26.037.535.064.797.1.26.037.535.065.796.1.022.005.042.02.085.028.054.01.077.004.103-.014m1.77 4.074l-.015-.103-.065-.012c-.022-.003-.034.005-.03.04.007.023.025.05.04.085.027.04.047.053.068.057v-.067z" /><path fill="#A6CE38" d="M219.893 46.387c.097.018.183.034.255.07-.026.017-.058.01-.1.003-.044-.008-.077-.014-.086-.026-.26-.037-.535-.064-.796-.1-.273-.04-.536-.065-.797-.1-.034-.007-.1-.008-.19-.013-.087-.004-.16-.03-.213-.05.026-.017.06-.022.092-.016l.064.012c.26-.01.535.008.796.044.272.04.53.086.8.146l.173.03m46.8 6.947c.545.38 1.076.777 1.615 1.188.528.41 1.065.832 1.588 1.273.624.56 1.354 1.698 2.166 3.432.822 1.735 1.543 3.72 2.174 5.957.642 2.238 1 4.38 1.084 6.427s-.29 3.676-1.123 4.875c-1.173 1.472-2.49 2.64-3.935 3.514-1.452.862-2.717 1.49-3.79 1.865l-1.686.553-1.657-.347c-1.073-.24-2.48-.607-4.23-1.116-1.738-.507-3.64-1.155-5.695-1.954-.27-.105-.53-.22-.81-.337l-.807-.348c-.62-.27-1.24-.55-1.854-.852-.615-.302-1.228-.615-1.828-.936.59.186 1.16.312 1.706.378.548.055 1.026.008 1.422-.143.156-.06.247-.133.283-.205.035-.072.01-.177-.077-.316-.066-.066-.144-.125-.22-.195l-.156-.13c-.618-.47-1.288-.837-2.01-1.102-.722-.266-1.447-.51-2.18-.71.045-.07.078-.13.123-.19l.077-.12c.224-.55.207-1.012-.045-1.404-.256-.382-.583-.732-.986-1.03-.415-.298-.75-.594-1.013-.876-.098-.13-.132-.247-.09-.352.04-.104.055-.246.067-.434-.07-.537-.357-1.103-.84-1.705-.48-.6-.907-1.08-1.265-1.448-.066-.067-.15-.15-.256-.247-.105-.098-.178-.19-.207-.272l.038-.217c.034-.128.052-.226.053-.292-.04-.633-.258-1.153-.674-1.564-.416-.41-.826-.798-1.24-1.153-.505-.48-1.022-.955-1.544-1.397-.533-.443-1.06-.863-1.6-1.263l1.26.364c.415.12.84.232 1.26.33.36.1.77.185 1.244.272.476.086.875.103 1.22.054.185-.044.264-.108.243-.178-.02-.082-.06-.167-.12-.257-.07-.057-.148-.116-.235-.188L242 60.41c-.676-.514-1.437-.93-2.292-1.266-.857-.324-1.71-.602-2.563-.824.305-.08.512-.298.63-.645.12-.346.122-.726.006-1.126l-.033-.063c-.015-.037-.03-.073-.047-.11-.05-.098-.11-.198-.18-.3l-.154-.196c-.434-.435-.953-.83-1.563-1.222-.612-.38-1.163-.725-1.664-1.04-.938-.617-1.892-1.204-2.862-1.76-.97-.557-1.926-1.134-2.867-1.73.176.02.342.03.488.023.146-.006.24-.023.3-.056l.073-.032c.038-.015.055-.046.073-.087 0-.056-.012-.114-.04-.152-.026-.04-.05-.088-.075-.137-.053-.077-.127-.157-.2-.25l-.15-.15c-.682-.614-1.562-1.054-2.643-1.307-1.084-.243-2.14-.39-3.147-.44.01-.055.007-.1.004-.145-.003-.045-.02-.082-.034-.118-.076-.26-.225-.42-.448-.484l-.44-.09c-.274-.096-.583-.24-.914-.447-.333-.194-.648-.363-.96-.487-.094-.04-.2-.07-.295-.1l-.285-.085c.168-.003.325-.008.45-.02.136-.008.237-.01.314-.008.514-.007 1.016-.005 1.516.008.5.013 1 .026 1.497.06.563.16 1.153.29 1.77.4s1.184.117 1.703.022c.024-.007.058-.012.093-.017.033-.005.08-.018.12-.045.107.02.217.03.325.048.108.02.218.03.326.05l.63.102c.304.044.61.09.892.13l.343.017.182-.022c.04-.038.05-.08.035-.128-.016-.037-.042-.075-.08-.115-.07-.046-.15-.095-.23-.143l-.164-.085c-.98-.437-2.018-.75-3.12-.95-1.105-.19-2.182-.342-3.214-.44-.084-.027-.178-.066-.262-.093-.085-.027-.167-.064-.262-.092-.03-.017-.074-.025-.107-.03-.03-.018-.073-.026-.114-.044.966-.102 2.012-.202 3.135-.298 1.12-.086 2.307-.16 3.547-.225 2.908-.15 6.06-.1 9.477.13 3.418.234 6.957.79 10.626 1.67 2.235.542 4.473 1.25 6.717 2.107 2.256.858 4.475 1.91 6.683 3.15.7.395 1.395.8 2.084 1.25.694.418 1.38.878 2.063 1.36z" /><path fill="#0081C6" d="M266.654 52.444c.407.342.79.69 1.147 1.058.07.057.163.152.295.288.132.136.198.26.213.363-.06.022-.125.01-.207-.027-.08-.048-.14-.082-.18-.11-.213-.118-.415-.233-.618-.348l-.607-.345c-.682-.482-1.37-.93-2.05-1.368-.69-.438-1.385-.855-2.084-1.25-2.233-1.402-4.463-2.523-6.677-3.362-2.214-.84-4.466-1.473-6.733-1.897-3.67-.87-7.22-1.428-10.627-1.67-3.42-.232-6.582-.272-9.477-.13-1.782-.09-3.55-.134-5.3-.14-1.753-.007-3.482.046-5.188.16-.515.006-1.023.036-1.524.09s-.983.122-1.466.202c-.01-.002-.024.007-.024.007-.01-.002-.034.005-.045.003-.345.05-.69.098-1.045.155-.38.065-.75.132-1.113.222-.34.15-.79.29-1.332.45s-1.015.36-1.407.614c-.382.253-.5.6-.347 1.04.002.236.084.463.236.67.163.207.357.366.585.463 1.147.51 2.34.884 3.557 1.13 1.217.243 2.422.373 3.61.41l.313.058c.097.02.205.038.3.067.005-.022.02-.04.023-.063.015-.02.03-.04.032-.05l.144.004c.03.028.044.064.06.1.016.037.033.062.04.086l.02.014-.006.033c-.024.13-.038.273-.03.41.01.134.018.27.048.41.068.302.192.604.373.894.17.298.373.592.613.87.666 1.305 1.587 2.378 2.767 3.196 1.19.82 2.313 1.46 3.368 1.92.69.316 1.393.566 2.107.752s1.443.353 2.165.496l.333.07.346.065.138.036c-.018.096-.025.195-.01.3.004.1.018.203.042.32l-.054-.01-.044-.01c.024.117.048.233.07.35.035.117.072.224.108.33-.02.41.064.873.26 1.4.193.526.426 1.026.686 1.498.26.472.46.843.615 1.095 1.12 1.88 2.393 3.662 3.796 5.336 1.4 1.684 2.887 3.15 4.457 4.396.41.32.855.58 1.33.79.474.22.95.418 1.433.595 1.18.686 2.396 1.31 3.645 1.872 1.25.562 2.507 1.07 3.765 1.523.02.004.04.02.052.02l.063.024c.27.115.538.23.807.347.27.116.54.22.81.337.495.224.975.468 1.45.734.478.265.94.55 1.4.835l.175.088c.09.05.16.097.23.144.033.005.05.03.068.057.007.024-.01.055-.057.068-.045.003-.088-.005-.15-.027-.064-.022-.105-.04-.146-.06-.362-.1-.715-.185-1.07-.26-.354-.077-.715-.176-1.073-.297-1.08-.376-2.183-.767-3.305-1.16-1.124-.396-2.207-.827-3.264-1.277-3.227-1.403-6.118-3.248-8.675-5.512-2.556-2.263-4.656-4.957-6.28-8.056-.413-.734-.837-1.593-1.284-2.568-.448-.974-.692-1.9-.73-2.79-1.522-.356-3.03-.832-4.53-1.43-1.49-.583-2.872-1.337-4.145-2.25-.696-.53-1.35-1.285-1.953-2.266-.603-.98-.964-1.94-1.097-2.868-.85-.167-1.707-.312-2.554-.444-.86-.123-1.702-.277-2.537-.473-.45-.106-.99-.27-1.615-.52-.625-.247-1.182-.56-1.67-.95-.486-.39-.748-.852-.773-1.392 0-.123.01-.233.03-.34.008-.11.026-.208.054-.304l-.023.007c-.007-.022-.003-.044 0-.066l.02-.04c.01-.055.032-.118.078-.188.047-.07.115-.135.183-.2.057-.07.123-.124.19-.18s.14-.107.227-.147c.025-.02.05-.036.076-.054.026-.018.05-.024.062-.033 1.073-.62 2.332-1.094 3.796-1.407 1.453-.316 2.975-.52 4.544-.612 1.57-.105 3.064-.145 4.48-.133 1.585 0 3.187.035 4.816.098 1.63.062 3.252.168 4.856.315 3.225.253 6.41.488 9.565.694 3.153.218 6.38.717 9.673 1.507 2.305.588 4.44 1.368 6.39 2.315 1.96.948 3.978 2.12 6.062 3.493l.187.135c.098.074.2.137.288.197.04.03.078.06.12.078l.093.04c.406.286.84.6 1.246.94z" /></g></svg>
