<?xml version="1.0" encoding="utf-8"?>
<!-- Generator: Adobe Illustrator 20.1.0, SVG Export Plug-In . SVG Version: 6.00 Build 0)  -->
<svg version="1.1" id="Layer_1" xmlns="http://www.w3.org/2000/svg" xmlns:xlink="http://www.w3.org/1999/xlink" x="0px" y="0px"
   viewBox="0 0 253 164" enable-background="new 0 0 253 164" xml:space="preserve">
<path fill="#82bc00" d="M146.7,3.5c0.2-0.2,0.1-0.6-0.2-0.7c-0.5-0.2-1-0.4-1.8-0.6c-0.1,0-1.5-1.4-3.5-1.1
  c-4.1,0.5-3.9,5.4-5.6,7.1c-2.3,2.2-9.7,7.8-11.1,8.9c-0.1,0.1,0,0.3,0.2,0.3c1.4,0.3,5.7,0.9,6.4,1c0.8,0.1,0.8,0.9,0,0.8
  c-2.3-0.2-5.2-0.7-7.3-1.2c-3.2-0.8-5.4-1.8-7.6-2.5c-0.1,0-0.2,0.1-0.2,0.2c0,2.6,1.4,7,3.3,7c3,0,6.3-1.1,7.5-1.6h0.1
  c0.5,0,4.1,0.4,6.9,0.4c0.1,0,0.2,0.1,0.2,0.2c0.1,1.4,1.6,10.9,1.6,11.4c0,0.7,0.7,0.8,0.7,0c0-0.7,0.5-10.2,0.6-11.6
  c0-0.1,0.1-0.2,0.2-0.2c8.2-0.5,12.4-8.8,8.2-16.2V4.9L146.7,3.5L146.7,3.5z"/>
<path fill="#FFFFFF" d="M247.8,59.6c-8.5,9.6-24,30.8-37.6,23.7c-4.9-2.6-4.3-11.3-3.6-16.2c0.2-1.5-1.4-2.6-2.7-2
  c-2.3,0.9-5.4,2.3-8.9,3.3c-8.8,2.4-17.3,1.4-29.2-8.1C150.5,48,145.6,33,135.1,33c-12.9,0-24.6,20.1-47.5,20.1
  c-16.1,0-19.4-7.7-37.8-7.7C6.6,45.4,1,114.3,1,121.3c0,1.3,1,2.5,2.3,2.6c0.8,0.1,2-0.4,2.4-2.2c1.4-17.2,8-34.4,8.3-35.3
  c0.3-0.8,1-2,1.8-1.7s0.5,0.9,0.4,1.8c-0.8,4.7-1.9,11.3-1.9,21.8c0,24.8,13.4,46.1,16.9,52.2c0.6,1.1,1.8,1.8,3.1,1.8H54
  c1.5,0,2.7-1.1,2.8-2.6c0.5-7.4,3.5-28.2,22.6-28.2c22.3,0,25,22.5,26.4,29.3c0.3,1.3,1.4,2.2,2.7,2.2h19.6c1.5,0,2.6-1.2,2.6-2.7
  c0-10.8,1.7-22.6,7.4-28.7c2.6-2.8,6-2.7,10.8-0.8c9.4,3.6,28.5,10.6,46.2,8.3c23-3,38.7-16.1,48.1-36.9c6.7-14.8,8.2-32,8.8-41.1
  C252.1,58.5,249.2,58.1,247.8,59.6L247.8,59.6z M198.1,103.8c-2,0-3.7-1.6-3.7-3.6s1.6-3.6,3.7-3.6c2,0,3.6,1.6,3.6,3.6
  C201.8,102.2,200.2,103.8,198.1,103.8z"/>
<path fill="#0075c9" d="M32.9,85.1h4v1.6c0.7-0.8,1.4-1.3,1.9-1.6c0.6-0.3,1.3-0.5,2-0.5c1,0,2.1,0.4,3.3,1.1l-1.8,3.8
  c-0.7-0.6-1.5-0.8-2.2-0.8c-2.2,0-3.2,1.7-3.2,5.1v9.2h-4V85.1z M46,76.5h4v10.1c1.4-1.3,3-2,4.7-2c1.9,0,3.5,0.7,4.6,2
  c1,1.1,1.5,3,1.5,5.4v11h-4V92.4c0-1.4-0.2-2.5-0.7-3.1s-1.3-1-2.3-1c-1.4,0-2.4,0.4-2.9,1.3s-0.8,2.5-0.8,4.7v8.6h-4L46,76.5
  L46,76.5z"/>
<path fill="#1782C5" d="M64.3,77.7c0-0.7,0.3-1.3,0.8-1.9c0.5-0.5,1.1-0.8,1.8-0.8s1.3,0.3,1.8,0.8s0.8,1.1,0.8,1.9
  c0,0.7-0.3,1.4-0.8,1.9s-1.1,0.8-1.8,0.8s-1.3-0.3-1.8-0.8C64.5,79.1,64.3,78.5,64.3,77.7z"/>
<path fill="#0075c9" d="M64.9,85.1h4v17.8h-4V85.1z M72.9,85.1h4v1.6c1.4-1.4,2.9-2.1,4.7-2.1c2,0,3.5,0.7,4.7,2
  c1,1.1,1.4,2.9,1.4,5.4v11h-4V93c0-1.8-0.2-3-0.7-3.6c-0.5-0.7-1.3-1-2.5-1c-1.3,0-2.2,0.5-2.8,1.4c-0.5,0.9-0.8,2.4-0.8,4.7v8.6h-4
  C72.9,103.1,72.9,85.1,72.9,85.1z M90.9,93.9c0-2.6,0.9-4.8,2.7-6.6c1.8-1.8,3.9-2.7,6.5-2.7s4.7,0.9,6.5,2.7
  c1.8,1.8,2.6,4.1,2.6,6.7c0,2.7-0.9,4.9-2.7,6.7c-1.8,1.8-4,2.7-6.6,2.7s-4.7-0.9-6.4-2.7C91.8,98.9,90.9,96.6,90.9,93.9z M95,94
  c0,1.8,0.5,3.2,1.4,4.2s2.2,1.6,3.7,1.6s2.8-0.5,3.7-1.6c0.9-1,1.4-2.4,1.4-4.2c0-1.7-0.5-3.1-1.4-4.2c-0.9-1-2.2-1.6-3.7-1.6
  s-2.7,0.5-3.7,1.6C95.4,91,95,92.3,95,94z M129,102.5c0,0.8,0,1.6-0.1,2.2s-0.1,1.2-0.2,1.7c-0.3,1.3-0.8,2.5-1.7,3.5
  c-1.5,1.9-3.7,2.8-6.4,2.8c-2.3,0-4.2-0.6-5.6-1.9c-1.5-1.3-2.4-3.1-2.6-5.5h4c0.2,0.9,0.4,1.6,0.8,2c0.8,1.1,2,1.7,3.6,1.7
  c2.9,0,4.3-1.8,4.3-5.5V101c-1.6,1.7-3.4,2.5-5.4,2.5c-2.3,0-4.2-0.9-5.7-2.6c-1.5-1.8-2.2-4-2.2-6.7c0-2.6,0.7-4.8,2.1-6.6
  c1.5-1.9,3.5-2.9,5.9-2.9c2.2,0,3.9,0.8,5.4,2.5v-2h4v17.3H129z M125.2,94.1c0-1.7-0.4-3.1-1.3-4.1c-0.9-1.1-2.1-1.6-3.5-1.6
  c-1.5,0-2.7,0.6-3.6,1.7c-0.8,1-1.2,2.4-1.2,4s0.4,2.9,1.2,4c0.9,1.1,2,1.7,3.6,1.7c1.5,0,2.7-0.6,3.6-1.7
  C124.8,97,125.2,95.7,125.2,94.1z M133.1,85.1h4v1.6c0.7-0.8,1.4-1.3,1.9-1.6c0.6-0.3,1.3-0.5,2-0.5c1,0,2.1,0.4,3.3,1.1l-1.8,3.8
  c-0.7-0.6-1.5-0.8-2.2-0.8c-2.2,0-3.2,1.7-3.2,5.1v9.2h-4V85.1z M158.1,85.1h4V103h-4v-1.9c-1.6,1.6-3.4,2.4-5.3,2.4
  c-2.4,0-4.3-0.9-5.9-2.7c-1.5-1.8-2.3-4.1-2.3-6.8s0.8-4.9,2.3-6.7c1.5-1.8,3.5-2.7,5.8-2.7c2,0,3.8,0.9,5.4,2.6
  C158.1,87.2,158.1,85.1,158.1,85.1z M148.7,94c0,1.7,0.4,3.1,1.3,4.2s2,1.6,3.4,1.6c1.5,0,2.6-0.5,3.5-1.6s1.4-2.5,1.4-4.1
  c0-1.7-0.5-3.1-1.4-4.1c-0.9-1.1-2.1-1.6-3.5-1.6s-2.5,0.5-3.4,1.6C149.1,91,148.7,92.4,148.7,94z M166.1,85.1h4v1.6
  c0.8-0.8,1.4-1.4,2-1.7c0.6-0.3,1.3-0.5,2.2-0.5c1.9,0,3.5,0.9,4.6,2.6c1.2-1.8,2.9-2.6,5-2.6c3.9,0,5.8,2.4,5.8,7.3v11h-4v-9.9
  c0-1.7-0.2-2.9-0.6-3.6c-0.4-0.7-1.1-1.1-2-1.1c-1.1,0-1.9,0.4-2.4,1.3s-0.7,2.2-0.7,4.1v9.2h-4V93c0-3.2-0.9-4.8-2.6-4.8
  c-1.1,0-1.9,0.4-2.4,1.3s-0.8,2.2-0.8,4.1v9.2h-4V85.1H166.1z"/>
</svg>